<svg xmlns="http://www.w3.org/2000/svg" viewBox="0 0 512 512">
  <defs>
    <symbol id="sign-0">
      <path d="m219 457.88-10.83.1c-18.18-16.71-30.22-37.62-41-59.45C145.22 354.17 123 310 101.2 265.57c-25-51-51.29-101.58-74-153.64C14 81.81 25.05 66.41 55.89 63.86 187.36 53 319.09 53 450.85 55.12c5.58.09 11.33.37 16.68 1.79 13.8 3.65 24 11.06 22.64 27.28-1.28 15.32-10.21 24-25.32 24.82-17.71 1-35.7 2.6-53.2.65-29.53-3.27-44.51 10.85-54.58 36.58-19.4 49.54-39.08 99-61 147.5-24.85 55.08-40.95 114.35-77.07 164.14Zm-39.1-347.69c-18.24-8.16-36.91-1-55.28-.92-26.13.16-29.76 8.07-21.86 33.72 19.43 63 55.31 118 84.63 176.22 4.47 8.86 10.09 19.63 22.08 19.09s16.49-11.23 20.43-20.69q37.17-89.08 73.8-178.37c7.36-17.94.85-30.38-18.16-32.17-25.82-2.42-52.06-6-77.57 3.15Z"/>
    </symbol>
    <symbol id="sign-1">
      <path d="M318.72 322.4a7.89 7.89 0 0 0-3.41 2.88l-10.56 1.53c-24.59 5.27-18.3 24.8-17.63 40.51.71 16.95 14 20.19 28 20.79 16.78.71 33.64.6 50.33 2.2 14.08 1.34 21.65 10 21.15 24.67-.52 14.93-8.61 21.94-23.24 22-73.82.13-147.64.41-221.45.24-13.34 0-24.37-5.56-25.24-20.71-.92-16 9.26-24.31 23.81-25.83a473.78 473.78 0 0 1 53.15-2.34c18.68.15 33.28-3.45 36.65-25.39 3.22-20.95-4.2-33.15-24.94-40-55.92-18.5-80-62.41-85.12-117.12-5-53.51 16.47-94.55 67.06-117.88 4-1.83 6.85-6 10.24-9.11l10.29-2.2c26.84.24 53.37-4.67 80.63.61 49.36 9.56 92.42 51.4 104 105 10.8 50.23-8.64 94.44-54.52 124.58-6.92 4.5-15.42 7.17-19.2 15.57ZM255.09 281c49.47.65 88.46-30.55 88.22-70.6-.28-48-36.44-86.89-80.91-87-50.67-.09-90.89 36.35-91.47 82.84-.52 42.53 35.07 74.12 84.16 74.76Z"/>
    </symbol>
    <symbol id="sign-2">
      <path d="M407.19 279.8a10.69 10.69 0 0 0 3.63 2.19c11.17 41.39-2.65 76.52-31.37 104.79C324.86 440.51 258 449.33 187 430c-26.23-7.14-48.1-24.36-63.05-48.65-32.37-52.58-24.46-132.92 18.71-177.21 15-15.35 32.21-28.43 47.8-43.19 6.54-6.2 16.92-12.78 13.69-22.78-3.65-11.3-16-6.8-24.72-7.13-17.75-.66-35.57.28-53.32-.51-13.5-.59-28-3.33-28.75-20.33-.81-18.77 12.59-26.13 29.3-26.92q120.47-5.69 241-10.55c15.24-.6 32.11.66 34.48 20.47 2.07 17.32-11.87 22.18-25.5 28.27C323.92 145 267 159.51 220 195.35c-39.25 30-65.68 65.92-59.8 118.66 3.84 34.38 22.5 59.73 55.25 66.09 34.44 6.69 69 5.46 100.24-14.61 16.36-10.52 27.47-24.09 32.2-43.85 10.65-44.4 13.38-45.72 59.3-41.84Z"/>
    </symbol>
    <symbol id="sign-3">
      <path d="m246.35 42.82 10.91-.29c11.43 12.37 23.26 24.6 29.57 40.55q68.06 172.1 135.76 344.34c4 10.18 5.09 20.46-4.74 28.06-10.14 7.84-21.11 5.95-31.71.53-10.95-5.6-14.95-16.23-18.79-26.87-17.77-49.24-35.29-98.58-53.35-147.72a6460.88 6460.88 0 0 0-41.8-110.06c-3.09-8-8.22-15.4-18-15.63-9.94-.24-14.46 7.3-18.15 15.17-2.78 5.93-6 11.72-8.06 17.9-16.33 48.74-32 97.71-48.73 146.31-13.09 38-27.09 75.64-41.36 113.18-7.25 19.08-23 25.4-41 18.43-17.64-6.83-8-22.09-6-34.17.91-5.47 3.29-10.71 5.23-16 29.1-78.92 56.63-158.48 88-236.5 18.65-46.5 30.53-96.48 62.22-137.23Z"/>
    </symbol>
    <symbol id="sign-4">
      <path d="M228 91c13.77-9.36 27.1-22.35 45.51-13.09 19.42 9.77 17.55 28.77 17.66 46.65.4 68.19.73 136.39 1.61 204.58.51 40 4.81 43.8 46 45 5.61.16 11.22.16 16.82.4 18.59.8 37.68 3 38.72 26.82 1.08 24.6-16.33 30.85-37.33 31.41-40.15 1.09-80.28 2.63-120.43 3.58-27.08.64-54.19 1.29-81.26.64-25.33-.61-39.3-14.2-37.38-35.34 2.13-23.45 20.12-23.58 37.42-23.8 81.42-1.06 73.1 7.85 72.94-74.4-.12-67.21-1-134.43-1.51-201.64q.57-5.39 1.23-10.81Z"/>
    </symbol>
    <symbol id="sign-5">
      <path d="m351 318.55-3.44 16.14c-5.86 4.72-8 10.74-6.27 18.07L337 367.94c-4.29 2-5.15 5.83-5.31 10L287.71 430l-16.58 10.84c-12.59 3.55-25 7.73-37.78 10.54C138.52 472.3 61.4 425.48 41.7 330.9 25 250.61 35.76 168.65 34.61 87.43c-.25-18.05 11.48-27 29.46-26.27 18.59.71 26.58 12 26.71 29.39.44 58 .51 116.05.85 174.07.17 30.33 5 59.92 19.3 86.88 16 30.3 41.84 48.75 76.45 48.84 38.52.1 68.15-16.88 84.83-53.57 16.47-36.23 18.46-74.21 14.7-112.79-4.29-43.93-2.57-87.91-2.23-131.85.25-32.94 13.9-45.81 46.5-46.26 34.61-.48 69.24.09 103.86.16 38.95.07 42.49 3.47 44.72 43.21l-21.86 14c-29-5-57.58 2.12-86.37 3.12-11.68.41-21.81 6.79-18.18 22.11-1.62 18.63-5.63 37.29.5 55.85q-1 5.74-1.92 11.49c-3.39 26.4-5.64 52.78 1.3 79l-.82 22q-.69 5.89-1.41 11.74Z"/>
    </symbol>
    <symbol id="sign-6">
      <path d="M445.85 249c5.24 99.55-82 211.12-187.87 207.83-104.93-3.26-191.44-92.24-192-204.87C65.34 143 154.19 55.13 265 55.13c99.55-.01 180.15 86.4 180.85 193.87Zm-316.65.87c-.19 73.8 57.93 138 126.28 138.6 78.58.7 126.61-65.55 128-139.39 1.32-73.45-58.08-132.38-125.23-132.22-74.87.14-128.86 55.5-129.05 132.98Z"/>
    </symbol>
    <symbol id="sign-7">
      <path d="M110.14 235.27c0-62.18-.26-107.1.07-152C110.5 43.89 135 30.71 170.07 52c40.14 24.4 73.15 58.11 109.77 87.13 33.71 26.72 67.74 53 101.21 80 25.65 20.71 27.65 31.61 7.3 56-59.19 70.86-131.64 127.35-205.11 182-35 26-59.19 11.76-64.59-31.7-8.56-68.92-9.36-138.12-8.51-190.16Zm133 103.5c32.42-16.57 53.55-45.71 78-71 9.14-9.44 7.53-21.88-2.12-30.16-37.59-32.24-75.63-64.25-119.26-88-16.81-9.16-32.76-3.51-33.67 18.58-2.7 65.52 1.61 130.84 8.59 196 1.58 14.76 8.93 21.06 22.52 12.22 15.47-10.06 33.1-17.86 42.47-35.37a12 12 0 0 0 3.49-2.27Z"/>
    </symbol>
    <symbol id="sign-8">
      <path d="M254 262.33c59.94.29 115 54.83 114.93 113.94 0 51.26-45.61 98.86-94.88 99.06-59.51.24-117.34-56.18-116.42-113.58.84-55.6 43.57-99.67 96.37-99.42Zm3.73 53.08c-25.77.18-47 23.86-46.79 52.22.18 27.32 25.77 51.15 55.35 51.56 29.21.41 49.33-17.73 49.69-44.8.37-31.39-27.04-59.19-58.3-58.98ZM113.34 69.93c37.7 50 74.13 101.44 123.25 141.42 13.48 11 30.39 13.61 43.25-.61 40.16-44.4 79.8-89.3 118.47-135 13.52-16 3.59-35.81-17.37-38.74-13.51-1.89-23.31 4.62-32 14-18.37 20-37.13 39.57-55.24 59.76-34.08 38-47.08 38.33-80.86 1-18.23-20.12-36.52-40.19-54.34-60.66-7.83-9-16.44-15.2-27.06-14.34-21.66.89-30.9 16.24-18.1 33.17Z"/>
    </symbol>
    <symbol id="sign-9">
      <path d="M182.1 229.86c0 43.91.15 87.82 0 131.73-.14 30.88 6.27 39 36.41 40.25 42.92 1.72 85.89 2.32 128.85 3.12 12.19.23 24.34-.16 35.71 5.26 12.87 6.14 16.36 17.57 15.55 30.31s-10.46 16.83-21.38 18.22c-74.6 9.5-149.18 7.16-223.64-1.4-19.23-2.21-29.71-14.34-31-33.92-7.43-113.78-11.74-227.65-7.68-341.68.72-20.16 10.22-34.2 32.38-34.63 22.77-.45 31.84 14.25 32.15 34.19.75 49.51.25 99 .25 148.55Z"/>
    </symbol>
    <symbol id="sign-10">
      <path d="m308.35 233-8 .48q-6.35-3.92-11.59 1.52l-92.57-2c-5-6.74-11.67-9.2-19.84-8.06-9.54-3.4-17.08-11.61-28-11.64l-9-5.39c-4.56-12.76-17-18.7-24.79-28.71-.74-6.32-4.43-10.28-10.12-12.65a9.51 9.51 0 0 0-1.72-4c0-6.49-3.13-11-8.84-13.82l-3.2-8.6c1.82-9.68.58-18.53-6.93-25.69L83.09 101c4.38-16.22 7.4-33 20.39-45.4l22.74-.87a7 7 0 0 0 2.85 3c4.16 29.79 1.41 62 29 83.64l17.44 16.51c2.83 9.15 10.84 12.87 18.51 15.68 45.84 16.83 92 16.72 135-6.47 27-14.55 46.72-37.88 44.13-72-2.15-29.36 11.61-41.25 39.53-39.83l6.32 5.31c12.88 54.43-2.89 98.69-46.67 133.43-8.63 6.85-16 15.34-23.88 23.07a6 6 0 0 0-3.45 1.63c-13.91.3-26.85 3.3-36.65 14.3ZM116.3 338.3c-25 27.11-34.71 59.46-26 96 3.35 14.19 12.42 23.33 27.78 22.93 16.46-.42 21.58-11.76 23.6-26.17 1.81-12.9 3.13-26.27 7.65-38.31 20.56-54.7 106.35-79.78 166.94-50.2 36.16 17.71 53.73 47.28 59.73 85.84 2.51 16.19 11 29.08 29.75 26.73 16.81-2.1 22.16-15.09 23-30.57 1.22-22.9-2.81-44.1-14.23-64.67-33.41-60.2-86.25-82.24-155.76-80.55-53.56-1.46-103.26 16.49-142.46 58.97Z"/>
    </symbol>
    <symbol id="sign-11">
      <path d="M231.36 224.22c0-46.41-.32-84.69.17-123 .18-13.38-3.09-31.23 17.09-32.61 20.73-1.43 21.5 15.35 23.52 30.9 5.44 41.81 4.48 83.78 5 125.76.83 63.28 2.58 126.56 4.05 189.84.33 14-1 28.13-18.79 28.29s-22.9-13.34-23.59-28.8c-2.92-66.13-10.23-132.12-7.45-190.38Z"/>
    </symbol>
    <symbol id="sign-12">
      <path d="M99.67 218.8 98 208.2a142.18 142.18 0 0 0-.29-46.2l1.27-10.56c15.45-25.28 25.75-53.92 51.14-72.51 55.64-40.73 116.1-46.48 177.51-19.22 62.16 27.59 89.34 80 86.45 147.14-2 47.09-26.81 84.51-68 102C301.16 328 282.25 354.34 290 402c2.83 17.36 1.18 35.45 1.58 53.21l-6.79 10.56c-46.18 7.62-49.63 4.78-51-42-.16-5.59-.93-11.25-.33-16.75 4.52-41.22-1.3-71.85-50.58-85.86-38.71-11-61.63-46.15-74.11-85.5-1.86-5.93-6-11.23-9.1-16.86Zm163.1-117.51a110.34 110.34 0 0 0-46.41 9.36c-32.92 14.77-54.65 39.4-58 76.33-3 32.2 9.55 58.6 36.34 77.17 22.25 15.42 31.38 10.92 33.24-15.7.92-13 .93-26.14 1.62-39.21.83-15.88 7.59-26.73 24.87-28.33 17.79-1.63 29.16 6.91 33 23.52 2.68 11.69 1.93 24.13 3.26 36.17 1.17 10.64-4.43 25 8.12 30.36s23-5.13 32.16-12.7c25.15-20.77 31-54.64 16.92-92.69-16.09-43.27-43.89-64.31-85.12-64.28Z"/>
    </symbol>
    <symbol id="sign-13">
      <path d="M237.77 57.25c20.09-8.42 36.46-1.09 51 12.48 39.84 37.07 72.9 80.15 107.41 121.92 8.85 10.72 10.55 21.83-.39 32.43-11.5 11.13-24.21 10.39-35.19.52-13.16-11.84-24.77-25.41-37.06-38.21-6.14-6.39-10.54-18.23-21.7-13.55-9.88 4.13-9 15.8-9.1 24.88-.38 33.66-1.79 67.45.49 101 2.79 41.24-1.48 82.25-.4 123.37.53 19.92-4.71 36.28-28.57 36.28-22.88 0-26.41-16.61-27.1-34.83-2.84-74.74-5.51-149.49-8.93-224.2-.43-9.41 3.11-23.35-9.69-26.56-9.84-2.47-15.42 8.95-21.78 15.48-8.47 8.7-15.8 18.56-24.55 27-24.22 23.24-40.71 22.61-63.66-1.56l.38-11q64.26-72.76 128.54-145.4Z"/>
    </symbol>
    <symbol id="sign-14">
      <path d="m77.78 247.2 1.62-22.11c11.11-20.59 11.47-44.48 23.13-65.59C152 69.81 274.8 42.92 356.94 105.27c7.38 5.61 15.6 10.1 23.43 15.11a9.55 9.55 0 0 0 2.13 3.46c11.61 26.29 30.24 49.23 35.32 78.69 6 34.56 7.51 68.74-1.34 103-1.77 6.86-5.8 15.13 2.23 20.56 6.35 4.3 12.52-.48 18.39-3.13 7.67-3.47 15.07-7.65 23-10.45 11.9-4.23 24.86-6.92 32.12 6.91 6.66 12.68 5.91 27.46-6.56 35.47-47.22 30.3-95.88 58.26-149.14 76.83-14.47 5-28.65.88-37.11-12.5-10.07-15.93 3.78-25 13.73-32 65.58-45.75 63.63-191.11 12.58-233.83-50.85-42.57-139.33-28.31-168.41 31.66-27.31 56.22-22.26 146.21 33.74 193.89a169.89 169.89 0 0 1 14.11 13.65c9.22 9.92 11.75 21.65 5.46 33.61-6.48 12.34-19 17.32-31.18 12.77C127.82 419.73 77 398.47 31.28 367c-13.46-9.26-21.1-23.73-11-38.71 9.29-13.75 25-9.13 38.59-5.46 4.45 1.2 8.62 3.61 12.76 5.77 18.71 9.81 21.92.36 18.33-15.4-4.96-21.82-10.96-43.44-12.18-66Z"/>
    </symbol>
    <symbol id="sign-15">
      <path d="M206.67 122.81c-14.52.92-34.09 2.33-53.67 3.36-15.62.82-28.63-3.46-30.14-21.54-1.59-19 10.19-27.57 27.34-28.14 71.78-2.38 143.56-4.64 215.36-5.83 24.24-.4 26.88 15.86 21.21 35-8.39 28.29-27.74 50.68-42 75.8-43.72 77.2-88.5 153.81-133 230.59a134 134 0 0 1-11 16.22c-9 11.38-20.66 17.43-34.25 9.45s-18.19-20.28-11.46-36c15.93-37.16 40.6-69.21 60.34-104.14 25.27-44.71 51.6-88.83 76.46-133.77 16.21-29.3 9-40.69-24.09-41-18.62-.13-37.31 0-61.1 0Z"/>
    </symbol>
    <symbol id="sign-16">
      <path d="M222.05 181.78c0-29.93-.38-59.87.13-89.79.33-19.95 8.32-34.92 30.64-36.37 23.44-1.52 28.05 15.11 28.63 33.09 1.78 55.19 3.4 110.39 3.82 165.6.17 22.73 6.41 40.75 22.37 58 29.2 31.52 55.68 65.56 83.29 98.56 10.43 12.47 17.94 27.13 3 39.32-12.93 10.57-28.69 7.19-40.45-5.3q-35.58-37.8-70.36-76.36c-16.8-18.55-32.69-18.81-49.59.08-21.2 23.7-43 46.92-64.74 70.11-7 7.49-14.41 15-25.4 16.49-11.92 1.66-22.58-.69-29.69-11.3-7.56-11.31-3.73-21.28 4.56-30.42 27-29.81 53-60.64 81.38-89.12 22.2-22.3 32.35-46.32 28.1-78.09-2.82-21.14-.53-43-.53-64.47Z"/>
    </symbol>
    <symbol id="sign-17">
      <path d="m292.7 429.69-2 10.95c-37.58 16.08-56.82 7.7-57.62-29.9-2.2-103.49-7-207-1.82-310.55.84-16.7 6.71-29.51 25.65-30.49 18.64-1 27.51 10.64 29.19 27.25a809.1 809.1 0 0 1 3.79 67c1.57 88.55-2.18 177.19 2.81 265.74ZM157.1 103.53c-1.44-18-4.91-35.13-27.28-35.32-21.4-.17-27.46 16.46-30.35 34-1 6.35-.28 13 0 19.58 3.12 64.46 8.25 128.82 7.53 193.46-.41 36.48.55 73 1 109.47.29 22.72 13.73 29.88 33.56 25.42 18-4 21.06-19.24 21.07-35.18V280.2c.15-58.94-.86-117.85-5.53-176.67Zm255 196.25c0-28.95 1.82-58-.43-86.83-3.35-42.77-.56-86-9-128.38C399.82 70 392 60.2 376.48 60.59S353.6 72.11 351.09 86c-1.65 9.11-1.75 18.59-1.69 27.9.36 63.52.6 127 1.59 190.55.61 39.2 2.32 78.4 3.85 117.58.53 13.47 6.21 23.36 21.06 25.31 14.59 1.92 25.61-3 32.29-16.51 4.73-9.57 4.77-19.9 4.81-30.16.11-33.63 0-67.26 0-100.89Z"/>
    </symbol>
    <symbol id="sign-18">
      <path d="M442.32 110.46c-9.56 60.93-48.09 112.43-113.13 141.27-26.64 11.81-37.1 25.47-35.24 54.37 2.45 38.23.65 76.73.48 115.11-.1 22.53-5.52 42.74-32.79 43.11-26.39.35-27.35-21.17-28.56-40.07-2.7-42-5.77-84.08-6.47-126.16-.34-20.71-6.91-31.78-27.18-39.12-61.38-22.24-105-63.22-124.82-127-5.69-18.33-5.94-37.06-3.43-55.64C74.06 55 87.76 46.69 108.9 47.77c21.83 1.13 22.12 16 22 31.71-.31 50.57 18.48 91.13 62.83 117.64 21.94 13.11 30.63 8.34 31.4-16.85.88-29 .78-58 1.32-87.05.36-19.45 8.75-32.74 29.63-33.57 21.54-.85 29.52 12.39 30.46 32 1.39 29 3.32 57.93 4.43 86.92.88 23 10.56 25.32 27.93 13.31 35.14-24.31 54.35-58.81 62-99.76 3.78-19.83 7.1-38.12 32.84-36.37 18.82 1.25 29.11 17.88 28.58 54.71Z"/>
    </symbol>
    <symbol id="sign-19">
      <path d="M461.75 244.9c-1.21 11.1-6.12 22-13.49 32-45.88 61.71-99.74 116.1-156.35 167.75-24.23 22.1-48.18 20.91-72.59-1.26q-74.65-67.8-147.89-137.16c-26.93-25.41-27.31-35.92-6.05-67.31 27.42-40.48 62.39-74.34 96.12-109.26 20.12-20.83 41.23-40.71 61.14-61.74 18.71-19.76 39.66-22.15 59.7-5.43 59.54 49.67 115.47 103.4 170.4 158.1 5.98 5.96 9.11 14.1 9.01 24.31ZM259.38 380.45c3.9-1.64 12.11-2.91 17.21-7.58C312.36 340.05 346.94 306 374.88 266c7.69-11 8.95-23.6-1.46-33.31-32-29.9-64.39-59.48-97.47-88.21C262.73 133 248.39 135.19 236 148c-30.51 31.55-61.28 62.84-91.55 94.6-15.62 16.4-15.67 32.45 2.11 48.26 28.6 25.41 56.64 51.46 84.82 77.34 7.08 6.45 14.62 11.63 28 12.25Z"/>
    </symbol>
    <symbol id="sign-20">
      <path d="M317.08 302c0-41.12 2.46-82.41-.58-123.3-4.47-60.06-50.76-86.37-98.66-59.06-17.64 10.06-25 27-31.69 44.65-4.72 12.45-12.49 23-27.12 16s-9.18-17.6-1.23-27.45c2-2.47 2.9-6.78 2.55-10-4.32-40.05 11.21-64.46 48.74-76 70.4-21.61 133.39 19 143.47 91.52 7.76 55.86 5.15 112 5.19 168 0 32.56 9.05 64.93 1.18 97.71-3.17 13.2-4.61 27.51-22.05 27.07-17.94-.45-19.31-15.12-19.44-28.51-.37-40.18-.13-80.37-.13-120.55Z"/>
    </symbol>
    <symbol id="sign-21">
      <path d="m155.4 257.39.13 16.65c-1.64 32.57-3.87 65.12-4.7 97.7-.45 17.62 7.22 32.67 26.55 33.49 52.13 2.23 104.42 5.79 156.34-3.77 23.1-4.25 33.35-17.77 32.42-41.24-1.47-37.3-1.76-74.64-3.19-111.93-1.7-44.76-4.17-89.5-6.12-134.25-.91-20.92 8.71-34.6 29.91-36.66 20.34-2 31 9.31 33.38 29.32.65 5.42 3.14 10.62 4.78 15.93l.89 16.28c-.56 12.06-1.66 24.13-1.59 36.19.39 74.58 1.85 149.16 1.3 223.72-.34 46.31-10.69 55.37-56.67 55.82-75.46.75-150.91 1.19-226.37 1.75l-10.82-.8c-30.37-9.37-38.74-31.68-41.55-61.44C85.69 347.52 87 301 86.51 254.4c-.56-55-.38-110.06.89-165 .65-27.9 24.73-42 45.43-28.7 12.45 8 10.58 20.68 11.89 32.49 6.07 54.54 1.28 109.81 10.68 164.2Z"/>
    </symbol>
    <symbol id="sign-22">
      <path d="M439.6 255.06c0 50.51.08 101-.08 151.51 0 8.38.05 17-1.85 25.06-3.81 16.06-13.18 26.82-31.33 26.19-18.5-.64-26.57-12.13-28-28.92-2.29-26.16-5.15-51.93-15.88-76.47-19.73-45.13-64.62-72.82-111.94-67.85-56.48 5.93-100.25 43.6-108.66 93.93a275.57 275.57 0 0 0-4 36.21c-.75 22.17-7.9 40.66-32.84 40.14s-30.8-20.18-32.21-41.55C67.2 328 118.16 255.63 200.55 231.15c49.21-14.63 96-10 140.9 14.94 27 15 30.61 13 30.79-19 .24-44-.22-87.9-.17-131.85 0-21.2 3.93-41.35 30.67-41.08 25.83.25 31.49 19.6 31.59 41.05.24 53.28.08 106.57.08 159.85Z"/>
    </symbol>
    <symbol id="sign-23">
      <path d="m210 457.88-45.3-2.28-10.28-1.22c-11.79-14.45-29.21-10-44.22-12.2-19.23-2.83-24.79-13.93-24.45-31 .36-18.49 10-27.73 28.14-27.13 19.59.65 39.27 1.25 58.69 3.66 49.66 6.15 99 3.45 147.93-5.12 13.32-2.32 30-6.76 30.85-23.71.74-14.66-14.55-17.26-25.62-21.95-20.49-8.69-42.26-6.12-63.56-8.13-49.07-4.64-99.09-5.44-144-30.17C96 286.34 83.34 269.09 85.35 241.9c2-26.22 17.32-39.73 39.24-49.45 14.7-6.51 30.13-9 45.68-12.33 46.76-10.12 95.26-4.48 141.58-17 12.12-3.27 25-7.94 23.5-23.23s-14.17-21.68-27.79-23.32c-20.34-2.45-40.66-4.64-61.44-3.51-43.85 2.39-87.78 3.29-131.7 4.06-13.58.24-26.42-2.72-28.64-20.12-2.14-17.11 5.35-26.16 22-29.67 8-1.7 15.51-6 23.24-9.17l11.11-1.24c27.13 2.9 54.07-.72 81.11-1.92 46.7-2.07 93.46-1.79 137.62 16.93 32.29 13.68 47.66 38.07 45.35 69.88-2.22 30.63-23.12 53.76-54.06 64.33-33.56 11.45-68 11.41-102.48 11.32a223.22 223.22 0 0 0-71.63 11.5c-8.49 2.82-15.46 7.92-15.65 17.59-.16 8.84 7 12.53 14.17 15.37 6.08 2.4 12.11 6.44 18.32 6.76 46.63 2.38 92.17 15.89 139.23 13.54l10.7 1.78c4.77 2.8 9.23 6.49 14.36 8.26 64.27 22.18 75.75 41.7 63.17 108.23l-.13.2c-8.44 2.59-14.32 7.91-17.37 16.25L390.35 425l-86.88 25.31-9.12 2.51-11.35 1.43-10.87 1.11c-20.78-1.36-41.66-4.25-62.13 2.52Z"/>
    </symbol>
    <symbol id="sign-24">
      <path d="M240 61.55c29.53 0 53.84-.58 78.12.15 33.71 1 41.14 12.86 27.06 44.7-15.48 35-31.32 69.94-49.11 103.8-11.4 21.7-10.68 38.5 4.76 58.57 33 42.92 63.51 87.81 94.93 132 7.7 10.83 15.69 22.55 8.49 36.07-7 13.11-21.15 9.76-32.86 10.05q-91.05 2.29-182.13 3.75a269.3 269.3 0 0 1-33.61-1.29c-35.65-3.87-44.47-17.64-28.65-50.52 18.56-38.71 38.31-77.1 61-113.48 17.22-27.62 18.32-48.2-3.67-74.89-26.53-32.21-53.53-65-71.91-103.25-12.8-26.63-10.69-30.29 18.47-38.31 37.61-10.36 76.24-4.73 109.11-7.35Zm15 337.86c12.14 0 24.3.27 36.44-.1 8.32-.25 17.54.06 21.43-9.66 3.38-8.45-2.84-14.12-7.37-19.87-12.13-15.41-25.54-29.92-36.5-46.1-12.17-18-22.43-17.35-33.61-.08a298.38 298.38 0 0 0-11.49 19.23c-9.08 16.69-31.7 33.23-21.68 50.84 8.93 15.81 34.56 4.78 52.78 5.74ZM247.36 102c-14.51 9.35-43.15-7.35-50.82 21.71-3.5 13.22 35.78 59 46.57 58.65 11.31-.4 39.72-45.11 38.39-61.14-1.7-20.34-17.59-17.91-34.14-19.22Z"/>
    </symbol>
  </defs>
</svg>
