<?xml version="1.0" encoding="utf-8"?>
<!-- Generator: Adobe Illustrator 25.0.1, SVG Export Plug-In . SVG Version: 6.00 Build 0)  -->
<svg version="1.1" xmlns="http://www.w3.org/2000/svg" xmlns:xlink="http://www.w3.org/1999/xlink" x="0px" y="0px"
	 viewBox="0 0 223.8 50" style="enable-background:new 0 0 223.8 50;" xml:space="preserve">
<style type="text/css">
	.st0{fill:#3E1E68;}
	.st1{fill:#9EC5E7;}
	.st2{display:none;}
	.st3{display:inline;fill:#9EC5E7;}
	.st4{fill:#3A7CA5;}
	.st5{fill:#44BBA4;}
	.st6{fill:#F2E863;}
	.st7{fill:#F45B69;}
	.st8{fill:#FFFFFF;}
	.st9{opacity:0.9;fill:#FFFFFF;}
	.st10{stroke:#000000;stroke-width:8;stroke-miterlimit:10;}
	.st11{fill:#E6E6F5;}
	.st12{fill:#DA70D6;}
	.st13{fill:#008080;}
	.st14{fill:#D2691E;}
	.st15{fill:#556B2F;}
	.st16{fill:#7CC44F;}
	.st17{fill:#2F4F4F;}
	.st18{fill:#FF6347;}
	.st19{fill:#4682B4;}
	.st20{fill:#D2A467;}
	.st21{fill:#7FB5C7;}
	.st22{fill:#B22222;}
	.st23{fill:#9370DB;}
	.st24{fill:#778899;}
	.st25{fill:#663399;}
	.st26{fill:#696969;}
	.st27{fill:#20212E;}
	.st28{fill:#9884B4;}
	.st29{fill:#DFB231;}
	.st30{fill:#875131;}
	.st31{fill:#DB8A34;}
	.st32{fill:#EB3465;}
	.st33{fill:#2B1752;}
	.st34{fill:#3C58AC;}
	.st35{fill:#BDB74C;}
	.st36{fill:#C7A4B3;}
	.st37{display:inline;}
	.st38{display:inline;fill:none;stroke:#000000;stroke-miterlimit:10;}
	.st39{fill:#939598;}
</style>
<g id="Layer_1">
	<g>
		<path class="st8" d="M24.5,14.1c0,0.6-0.1,1.3-0.5,2c-0.4,0.8-1.2,1.1-2,1.1c-0.4,0-0.8-0.1-1.1-0.3c-1.5-0.9-2-3.2-4-3.4h-0.3
			c-3.6,0-7.1,7.8-7.1,14.2v0.8c0.4,6.5,2.6,9.2,5,9.2c2.6,0,5.3-3.4,5.3-8.1c0-0.9-0.1-1.9-0.4-2.9c-0.6,0.1-2.7,0.7-4.4,0.7
			c-1,0-1.7-0.2-1.8-1v-0.4c0-2.2,3.2-4.2,6.5-4.2c1.3,0,2.7,0.4,3.8,1.1c0.8,0.6,1.2,1.3,1.2,2c0,1.2-0.9,2.2-2.2,2.2
			c-0.1,0-0.4,0-0.6-0.1c0.1,0.8,0.2,1.5,0.2,2.3c0,6.9-4.8,13.2-9.7,13.2c-1.5,0-2.9-0.6-4.3-1.8C5.3,38.2,3.5,33,3.5,27.2
			c0-6.2,2-12.8,6.6-17.1c2-1.9,4.3-2.7,6.4-2.7C20.8,7.5,24.5,10.8,24.5,14.1z"/>
		<path class="st8" d="M48.6,9.3c1.1,3.5-0.3,5.2,1.8,15.1c0.9-0.1,1.8-0.4,2.7-0.7h0.2c0.2,0,0.4,0.1,0.4,0.4
			c0,0.4-0.7,1.1-3.1,1.7c0.8,3.9,1.5,13.1,4.4,15.5c0.6,0.5,0.9,1,0.9,1.4c0,0.3-0.1,0.6-0.6,0.7c-0.7,0.3-1.3,0.4-2,0.4
			c-5.8,0-7.2-11-8.7-17.8c-4-0.5-5.5-1-6.4-1c-1.4,0-0.5,1.6-5.7,8c-1.5,1.9-3.2,4.4-5.5,5.3c-0.1,0.1-0.2,0.1-0.4,0.1
			c-0.6,0-1.1-0.6-1.1-1.3c0-0.1,0.1-0.4,0.1-0.5c2-3.2,4.2-2.5,10.5-11.6c0-0.1-0.8-0.4-2-0.4c-2,0-5.2,0.6-6.1,3.4
			c-0.1,0.5-0.4,0.7-0.8,0.7c-0.6,0-1.4-0.8-1.4-2c0-0.8,0.4-1.8,1.5-2.7c1.7-1.4,3.9-1.9,6.2-1.9c1.4,0,2.8,0.1,4.1,0.4
			c6.2-9.8,4.8-10.6,5.8-13.2C44,8,45.1,7.4,46.3,7.4C47.3,7.4,48.3,8,48.6,9.3z M38.9,22.8c2.8,0.7,4.3,1.3,4.9,1.3
			c0.3,0,0.4-0.1,0.4-0.5c0-1.1-0.8-3.6-1.2-8.8C41.7,17.4,40.4,20.1,38.9,22.8z"/>
		<path class="st8" d="M61.4,9.3v0.4c-0.6,4.4-1.2,8.7-1.2,13.1c0,0.6,0.1,1.3,0.1,1.9c0.1,2.9,0.1,4.2,0.2,4.2c0.2,0,1-7.3,5-15.8
			c1-2,1-4.6,3.6-5.1c0.4-0.1,0.6-0.1,0.9-0.1c5,0,5.3,9.2,5.3,12.6c0,3.2-0.1,5.1-0.1,5.8v0.2c0.1,0,0.7-2.5,2.5-7.1
			c1.1-2.9,5.3-11.7,8.6-12.1c0.3-0.1,0.6-0.1,0.8-0.1c3,0,3.9,2.7,3.9,6.6c0,6.3-2.4,15.9-2.4,22.8c0,1.3,0.1,2.6,0.3,3.6
			c0.1,0.1,0.1,0.4,0.1,0.5c0,1.1-0.8,1.8-1.9,1.8c-0.1,0-0.3-0.1-0.4-0.1c-3.2-0.7-4.2-3.7-4.2-7.7c0-6.4,2.6-15.2,2.6-20.5
			c0-0.6,0-1.1-0.1-1.5c-0.1-0.9-0.4-1.3-0.8-1.3c-1.2,0-3.2,3.5-4.4,6c-2.1,4.6-3.4,10.4-4.6,15.2c-0.1,5.3-1.5,6.9-2.9,6.9
			c-1.1,0-2.2-1-2.5-1.8c-0.5-1.1-0.6-3.8-0.6-6.9s0.1-6.6,0.1-9.7c0-4.5-0.2-8.1-1.3-8.1h-0.1c-1.3,0.1-5.6,11.2-5.6,20.9
			c0,1.5,0.1,3.1,0.4,4.6c0.1,0.3,0.1,0.6,0.1,0.8c0,1.5-1.4,2.6-2.8,2.6c-0.7,0-1.3-0.2-1.9-0.7c-2.2-2-3.8-10.4-3.8-19.1
			c0-4.6,0.5-9.3,1.5-13.2c0.4-1.4,1.7-2,2.9-2C60.1,6.9,61.4,7.8,61.4,9.3z"/>
		<path class="st8" d="M116.1,8.5c0.5,0.1,0.7,0.5,0.7,0.8c0,0.4-0.4,0.9-0.9,0.9h-0.2c-1.7-0.4-3.4-0.5-5-0.5
			c-2.6,0-5.1,0.4-7.7,0.9c0.1,0.3,0.1,0.6,0.1,1.1c0,2.4-1.4,6.7-1.4,12.9v0.9c0,0.5,0.2-0.2,4.6,0.9c0.4,0.1,0.6,0.5,0.6,0.9
			c0,0.5-0.3,0.9-0.8,0.9h-0.1c-1.5-0.1-2.9-0.1-4.4-0.1c0.3,3.4,0.8,6.7,1.5,10c2.9,0,5.9-0.1,7.7-2.2c0.3-0.3,0.6-0.4,0.8-0.4
			c0.8,0,1.5,0.6,1.5,1.4c0,0.2-0.1,0.4-0.2,0.6c-1.5,2.3-3.8,3.4-6.5,3.6c-5.8,0.7-7.9,1-9.1,1c-0.6,0-1-0.1-1.5-0.3
			c-0.5-0.2-0.8-0.6-0.8-1c0-0.6,0.7-1.5,2.5-2.1c-1.8-6-2-8.4-2-9.3v-0.4c0-0.2,0-0.2-0.1-0.2c-0.1,0-0.3,0.1-0.7,0.1
			c-0.3,0-0.6-0.1-1.1-0.1c-0.4-0.1-0.7-0.4-0.7-0.8c0-0.6,0.6-1.2,2.3-1.8c-0.1-1-0.1-1.9-0.1-2.7c0-7.4,1.5-10.2,1.5-10.9
			c0-0.1-0.1-0.1-0.1-0.1c-0.4,0-1.1,0.4-2.7,0.9c-0.2,0.1-0.4,0.1-0.6,0.1c-1.1,0-1.8-1-1.8-2c0-0.6,0.3-1.1,0.8-1.5
			c3.8-2.2,7.9-3,12.2-3C108.8,6.9,112.6,7.5,116.1,8.5z"/>
		<path class="st8" d="M145.8,9.7c4.3,2.8,6,8.7,6,14.1c0,2.1-0.2,4.1-0.7,5.8c-1.8,6.9-6,10.3-9.9,10.3c-4.5,0-8.7-4.4-8.7-12.9
			c0-1.3,0.1-2.8,0.4-4.4c-1.7-0.1-2.5-1.1-2.5-2.7c0-4.1,5.2-11.4,11.2-11.4h0.1C143,8.5,144.4,8.8,145.8,9.7z M138.1,13.4
			c1.4,0.1,2.7,1.4,2.7,2.9c0,0.2,0,0.4-0.1,0.6c-0.3,1.8-2.2,6.3-2.2,10.7c0,1.7,0.3,3.4,1.1,4.8c0.8,1.5,2.2,2.3,3.6,2.3
			c2.4,0,5.1-2.1,6.3-6.3c0.4-1.6,0.6-3.2,0.6-4.8c0-6.7-3.4-12.8-7.4-12.8C141.2,10.8,139.6,11.5,138.1,13.4z"/>
		<path class="st8" d="M175.7,8c0,0.6-0.4,1.2-1.1,1.2h-0.5c-7.4,0-5.5,32.1-12.3,33.5c-0.4,0.1-0.7,0.1-1.1,0.1
			c-5.6,0-6.4-10.6-6.9-14.5c-0.4-3.2-0.6-6-0.6-8.4c0-9.1,2.5-12.2,4.4-12.2c0.8,0,1.5,0.4,1.9,1.3c0.4,0.6,0.4,1.5,0.4,2.7
			c0,2.5-0.6,6.4-0.6,11c0,4.3,0.5,9.3,2.5,14.5V37c0-0.4,0.8-0.3,2-3.7c2.2-6.7,3.1-25.2,10.2-26.7h0.4
			C175.3,6.6,175.7,7.3,175.7,8z"/>
		<path class="st8" d="M193.2,8.5c0.5,0.1,0.7,0.5,0.7,0.8c0,0.4-0.4,0.9-0.9,0.9h-0.2c-1.7-0.4-3.4-0.5-5-0.5
			c-2.6,0-5.1,0.4-7.7,0.9c0.1,0.3,0.1,0.6,0.1,1.1c0,2.4-1.4,6.7-1.4,12.9v0.9c0,0.5,0.2-0.2,4.6,0.9c0.4,0.1,0.6,0.5,0.6,0.9
			c0,0.5-0.3,0.9-0.8,0.9h-0.1c-1.5-0.1-2.9-0.1-4.4-0.1c0.3,3.4,0.8,6.7,1.5,10c2.9,0,5.9-0.1,7.7-2.2c0.3-0.3,0.6-0.4,0.8-0.4
			c0.8,0,1.5,0.6,1.5,1.4c0,0.2-0.1,0.4-0.2,0.6c-1.5,2.3-3.8,3.4-6.5,3.6c-5.8,0.7-7.9,1-9.1,1c-0.6,0-1-0.1-1.5-0.3
			c-0.5-0.2-0.8-0.6-0.8-1c0-0.6,0.7-1.5,2.5-2.1c-1.8-6-2-8.4-2-9.3v-0.4c0-0.2,0-0.2-0.1-0.2c-0.1,0-0.3,0.1-0.7,0.1
			c-0.3,0-0.6-0.1-1.1-0.1c-0.4-0.1-0.7-0.4-0.7-0.8c0-0.6,0.6-1.2,2.3-1.8c-0.1-1-0.1-1.9-0.1-2.7c0-7.4,1.5-10.2,1.5-10.9
			c0-0.1-0.1-0.1-0.1-0.1c-0.4,0-1.1,0.4-2.7,0.9c-0.2,0.1-0.4,0.1-0.6,0.1c-1.1,0-1.8-1-1.8-2c0-0.6,0.3-1.1,0.8-1.5
			c3.8-2.2,7.9-3,12.2-3C185.9,6.9,189.6,7.5,193.2,8.5z"/>
		<path class="st8" d="M210.1,7.3c3.6,1.3,5.1,4.6,5.1,8.1c0,5.5-3.8,11.9-9.9,13.3c2.8,2.9,6,8.6,8.4,8.6c0.6,0,1.2-0.4,1.7-1.3
			c0.2-0.4,0.5-0.5,0.8-0.5c0.5,0,1.1,0.4,1.1,1.1c0,0.1-0.1,0.4-0.1,0.5c-1,1.8-2.6,2.7-4.4,2.7c-1.5,0-3-0.6-4.2-1.7
			c-3-2.7-4.4-5.6-4.6-5.6c-0.1,0-0.1,0.1-0.1,0.1c0,0.6,0.5,2.7,1.3,7.4c0,0.2,0.1,0.4,0.1,0.6c0,1.5-1.1,2.7-2.8,2.7
			c-0.2,0-0.4,0-0.7-0.1c-2-0.3-4.5-8.1-4.5-17.6c0-4.2,0.5-8.8,1.8-13.2c0.4-1.5,1.5-2.1,2.6-2.1c1.5,0,3.2,1.2,3.2,3.1
			c0,0.1,0,0.4-0.1,0.6c-0.6,3.3-1.1,6.5-1.3,9.7c4.1-2.5,5.7-5.5,5.7-8.1c0-3.5-2.8-6.4-5.6-6.5h-0.3c-4.4,0-9.1,4.4-9.1,9
			c0,0.9,0.2,1.8,0.6,2.7c0.1,0.1,0.1,0.3,0.1,0.4c0,0.6-0.4,1.1-0.9,1.1c-0.1,0-0.4-0.1-0.5-0.1c-1.5-0.7-2.1-2-2.1-3.7
			c0-4.8,5.5-12.1,13.5-12.1C206.6,6.2,208.3,6.6,210.1,7.3z"/>
	</g>
</g>
<g id="avatars">
</g>
</svg>
