<svg xmlns="http://www.w3.org/2000/svg" viewBox="0 0 100 155">
<defs>
  <g id="sheep-face-0">
    <circle cx="42.33" cy="87.47" r="6.6" style="fill:#fff"/><circle cx="58" cy="87.47" r="6.6" style="fill:#fff"/><ellipse cx="42.9" cy="87.88" rx="1.34" ry="2.76"/><ellipse cx="56.29" cy="87.88" rx="1.34" ry="2.76"/><rect x="44.92" y="98.18" width="10.16" height="0.71" style="fill:#fff"/>
  </g>

  <g id="sheep-face-1">
    <path d="M48.81,86.2H44a4.72,4.72,0,0,1,.29,1.68A4.9,4.9,0,0,1,44,89.32h4.63a6.59,6.59,0,0,0,.15-3.12Z" style="fill:#fff"/><path d="M41.56,87.88a5,5,0,0,1,.28-1.68h-6a7.59,7.59,0,0,0-.12,1.27A6.67,6.67,0,0,0,36,89.32h5.76A4.91,4.91,0,0,1,41.56,87.88Z" style="fill:#fff"/><path d="M57.62,87.88a4.91,4.91,0,0,1-.2,1.44h6.91a6.32,6.32,0,0,0,.27-1.85,6.67,6.67,0,0,0-.12-1.27H57.34A4.73,4.73,0,0,1,57.62,87.88Z" style="fill:#fff"/><path d="M55,87.88a5,5,0,0,1,.28-1.68h-3.7a6.39,6.39,0,0,0,.14,3.12h3.48A4.91,4.91,0,0,1,55,87.88Z" style="fill:#fff"/><path d="M53.48,99.48A3.53,3.53,0,1,1,50,96,3.53,3.53,0,0,1,53.48,99.48Z" style="fill:#fff"/>
  </g>

  <g id="sheep-face-2">
    <circle cx="42.33" cy="87.47" r="6.6" style="fill:#fff"/>
    <circle cx="58" cy="87.47" r="6.6" style="fill:#fff"/>
    <ellipse cx="44.24" cy="87.4" rx="2.59" ry="2.76"/>
    <ellipse cx="56.29" cy="87.47" rx="2.66" ry="2.76"/>
    <path d="M50.25 104.34h-.08c-5.26 0-9.05-4.7-9.21-4.9a.5.5 0 0 1 .78-.62s3.66 4.48 8.45 4.52h.06c2.82 0 5.52-1.53 8-4.53a.5.5 0 0 1 .76.64c-2.67 3.24-5.63 4.89-8.76 4.89Z" style="fill:#fff"/>
  </g>

  <g id="sheep-face-3">
    <path d="M48.81,86.2H48a4.72,4.72,0,0,1,.29,1.68A4.9,4.9,0,0,1,48,89.32h.63a6.59,6.59,0,0,0,.15-3.12Z" style="fill:#fff"/><path d="M45.56,87.88a5,5,0,0,1,.28-1.68h-10a7.59,7.59,0,0,0-.12,1.27A6.67,6.67,0,0,0,36,89.32h9.76A5.27,5.27,0,0,1,45.56,87.88Z" style="fill:#fff"/><path d="M59,87.88a5,5,0,0,1,.28-1.68h-7.7a6.39,6.39,0,0,0,.14,3.12h7.48A4.91,4.91,0,0,1,59,87.88Z" style="fill:#fff"/><path d="M61.63,87.88a4.9,4.9,0,0,1-.21,1.44h2.91a6.32,6.32,0,0,0,.27-1.85,6.67,6.67,0,0,0-.12-1.27H61.34A4.72,4.72,0,0,1,61.63,87.88Z" style="fill:#fff"/><rect x="45.56" y="99.31" width="4.14" height="1" style="fill:#fff"/>
  </g>

  <g id="sheep-face-4">
  <path d="M44.64,87.88c0,1.52-.59,2.76-1.33,2.76S42,89.4,42,87.88A4.93,4.93,0,0,1,42,87.1l-6.2-.76a7,7,0,0,0-.1,1.13A6.6,6.6,0,0,0,48.91,88l-4.29-.53C44.63,87.57,44.64,87.72,44.64,87.88Z" style="fill:#fff"/><path d="M58,87.1a4.93,4.93,0,0,1,.06.78c0,1.52-.6,2.76-1.34,2.76s-1.33-1.24-1.33-2.76c0-.16,0-.31,0-.45l-4,.48a6.59,6.59,0,0,0,13.17-.44,6.45,6.45,0,0,0-.11-1.17Z" style="fill:#fff"/><path d="M55.35,104.31a.5.5,0,0,1,0-1c.23,0,5.62-.34,6.53-4.78a.51.51,0,0,1,.59-.39.5.5,0,0,1,.39.59c-1.06,5.21-7.4,5.57-7.46,5.58Z" style="fill:#fff"/>
  </g>

  <g id="sheep-face-5">
    <path d="M37.56,87.88c0-1.52.6-2.76,1.34-2.76s1.34,1.24,1.34,2.76A4.9,4.9,0,0,1,40,89.32h8.63a6.67,6.67,0,0,0,.27-1.85,6.6,6.6,0,0,0-13.2,0A6.67,6.67,0,0,0,36,89.32h1.76A4.91,4.91,0,0,1,37.56,87.88Z" style="fill:#fff"/><path d="M54,87.88c0-1.52.6-2.76,1.34-2.76s1.33,1.24,1.33,2.76a4.91,4.91,0,0,1-.2,1.44h7.91a6.32,6.32,0,0,0,.27-1.85,6.6,6.6,0,1,0-13.2,0,6.67,6.67,0,0,0,.27,1.85h2.48A4.91,4.91,0,0,1,54,87.88Z" style="fill:#fff"/><path d="M37.91,95.38l10.31,4.93S35.47,107.74,37.91,95.38Z" style="fill:#fff"/>
  </g>

  <g id="sheep-face-6">
    <circle cx="42.33" cy="87.47" r="6.6" style="fill:#fff"/><circle cx="58" cy="87.47" r="6.6" style="fill:#fff"/><circle cx="43.05" cy="87.95" r="2.76"/><circle cx="57.87" cy="87.95" r="2.76"/><path d="M49.23,107.71c-12.68,0-14.18-12.53-14.19-12.66a.5.5,0,0,1,.44-.55.5.5,0,0,1,.56.44c.05.49,1.47,12.1,13.65,11.77S63.4,95.89,63.46,95.45a.5.5,0,1,1,1,.12c0,.12-1.64,11.82-14.73,12.14Z" style="fill:#fff"/>
  </g>

  <g id="sheep-face-7">
<path d="M42.56,89.32a12,12,0,0,1,5.57,1.31,6.6,6.6,0,1,0-12.4-3.16,6.54,6.54,0,0,0,.92,3.34A11.85,11.85,0,0,1,42.56,89.32Z" style="fill:#fff"/><path d="M58,89.06a12,12,0,0,1,5.85,1.44,6.6,6.6,0,1,0-12.46-3,6.68,6.68,0,0,0,.75,3A11.91,11.91,0,0,1,58,89.06Z" style="fill:#fff"/><ellipse cx="43.66" cy="84.88" rx="1.34" ry="2.76"/><ellipse cx="57.05" cy="84.88" rx="1.34" ry="2.76"/><path d="M50.12,96.68a3.6,3.6,0,0,1-2.26-.9.49.49,0,0,1,0-.7.48.48,0,0,1,.7,0c.17.14,1.67,1.36,2.86,0a.5.5,0,0,1,.75.67A2.64,2.64,0,0,1,50.12,96.68Z" style="fill:#fff"/>
  </g>

  <g id="sheep-face-8">
<circle cx="42.33" cy="87.47" r="6.6" style="fill:#fff"/><circle cx="58" cy="87.47" r="6.6" style="fill:#fff"/><ellipse cx="45" cy="89.71" rx="1.34" ry="2.76"/><ellipse cx="55.14" cy="86.13" rx="1.34" ry="2.76"/><path d="M51.27,102a12.78,12.78,0,0,1-6.65-2.26.5.5,0,0,1,.6-.8c.25.19,6.33,4.57,10.71,0a.49.49,0,0,1,.7,0,.5.5,0,0,1,0,.71A7.24,7.24,0,0,1,51.27,102Z" style="fill:#fff"/>
  </g>

  <g id="sheep-face-9">
<circle cx="42.33" cy="87.47" r="6.6" style="fill:#fff"/><path d="M64.33,89.32a6.32,6.32,0,0,0,.27-1.85,6.6,6.6,0,1,0-13.2,0,6.67,6.67,0,0,0,.27,1.85Z" style="fill:#fff"/><ellipse cx="43.9" cy="87.88" rx="1.34" ry="2.76"/><ellipse cx="57.29" cy="87.88" rx="1.34" ry="2.76"/><path d="M45.56,101.45a.48.48,0,0,1-.38-.18.49.49,0,0,1,.06-.7l1.6-1.35a.49.49,0,0,1,.64,0l1.29,1.07,1.21-1a.5.5,0,0,1,.6,0l1.35.91L53.21,99a.5.5,0,0,1,.67,0l1.79,1.6a.48.48,0,0,1,0,.7.49.49,0,0,1-.7,0L53.55,100l-1.23,1.12a.53.53,0,0,1-.62,0l-1.36-.91-1.24,1a.49.49,0,0,1-.64,0l-1.29-1.08-1.29,1.08A.49.49,0,0,1,45.56,101.45Z" style="fill:#fff"/>
  </g>

  <g id="sheep-face-10">
<path d="M45.24,87.88c0,1.52-.6,2.76-1.34,2.76s-1.34-1.24-1.34-2.76c0-.24,0-.46,0-.68H35.74c0,.09,0,.18,0,.27a6.6,6.6,0,0,0,13.2,0c0-.09,0-.18,0-.27H45.19A4.94,4.94,0,0,1,45.24,87.88Z" style="fill:#fff"/><path d="M62.58,87.2a4.94,4.94,0,0,1,.05.68c0,1.52-.6,2.76-1.34,2.76S60,89.4,60,87.88c0-.24,0-.46,0-.68H51.42a2.45,2.45,0,0,0,0,.27,6.6,6.6,0,1,0,13.2,0c0-.09,0-.18,0-.27Z" style="fill:#fff"/><path d="M42.79,101.65H39a.5.5,0,0,1,0-1h3.77a.5.5,0,0,1,0,1Z" style="fill:#fff"/>
  </g>

  <g id="sheep-face-11">
<circle cx="42.33" cy="87.47" r="6.6" style="fill:#fff"/><circle cx="58" cy="87.47" r="6.6" style="fill:#fff"/><ellipse cx="42.9" cy="87.88" rx="1.34" ry="2.76"/><ellipse cx="57.29" cy="87.88" rx="1.34" ry="2.76"/><path d="M43.39,102.29A3.78,3.78,0,0,1,45.23,100,8.94,8.94,0,0,1,50,98.89c2.29.11,5.9.45,7.32,2.6,2.13,3.24-4.74,2.28-6.09,2.12a7.76,7.76,0,0,0-4.27.75c-1.07.44-2.67.35-3.3-.77A1.84,1.84,0,0,1,43.39,102.29Z" style="fill:#fff"/>
  </g>

  <g id="sheep-face-12">
<circle cx="42.33" cy="87.47" r="6.6" style="fill:#fff"/><circle cx="58" cy="87.47" r="6.6" style="fill:#fff"/><ellipse cx="38.9" cy="87.88" rx="1.34" ry="2.76"/><ellipse cx="61.29" cy="87.88" rx="1.34" ry="2.76"/><path d="M49.45,106.29a1.47,1.47,0,0,1-.4-.06,1.8,1.8,0,0,1-.85-.76,1.66,1.66,0,0,1-.75.58,1.35,1.35,0,0,1-1.31-.3c-1.56-1.2.41-4.07.64-4.39a.49.49,0,0,1,.69-.12.5.5,0,0,1,.12.7c-.53.74-1.47,2.54-.84,3,.16.13.29.17.38.14.27-.09.53-.65.61-.93a.5.5,0,0,1,.48-.36h0a.5.5,0,0,1,.48.36c.11.41.42,1,.69,1.11,0,0,.11,0,.28-.08a2.23,2.23,0,0,0,.7-1.61,1.94,1.94,0,0,0-.18-1.19.49.49,0,0,1-.19-.67.5.5,0,0,1,.68-.2c.53.28.66,1.06.69,1.5a3.48,3.48,0,0,1-1.13,3A1.31,1.31,0,0,1,49.45,106.29Z" style="fill:#fff"/>
  </g>

  <g id="sheep-face-13">
<path d="M35.93,89.39a.59.59,0,0,1-.25-.07.5.5,0,0,1-.18-.68c.09-.16,2.21-3.74,5.91-4.12,2.58-.26,5.23,1.09,7.87,4a.5.5,0,0,1-.75.67c-2.41-2.69-4.77-3.93-7-3.7-3.21.33-5.14,3.59-5.16,3.62A.5.5,0,0,1,35.93,89.39Z" style="fill:#fff"/><path d="M51.38,89.39a.55.55,0,0,1-.34-.13.5.5,0,0,1,0-.71c2.64-2.94,5.28-4.29,7.86-4,3.7.38,5.82,4,5.91,4.12a.5.5,0,1,1-.86.5s-2-3.3-5.16-3.62c-2.24-.23-4.6,1-7,3.7A.51.51,0,0,1,51.38,89.39Z" style="fill:#fff"/><path d="M54.2,98l-.58,2L50,99.81l-.25-3.12c-3.54.07-6.39,2.51-6.39,5.51s2.94,5.51,6.56,5.51,6.56-2.47,6.56-5.51A5.21,5.21,0,0,0,54.2,98Z" style="fill:#fff"/>
  </g>

  <g id="sheep-face-14">
<circle cx="42.33" cy="87.47" r="6.6" style="fill:#fff"/><circle cx="58" cy="87.47" r="6.6" style="fill:#fff"/><ellipse cx="44.9" cy="89.88" rx="1.34" ry="2.76"/><ellipse cx="55.29" cy="89.88" rx="1.34" ry="2.76"/><circle cx="61.29" cy="98.53" r="1.67" style="fill:#fff"/>
  </g>

  <g id="sheep-face-15">
<path d="M35.93,87.49a.47.47,0,0,0-.25.07.49.49,0,0,0-.18.68c.09.15,2.21,3.73,5.91,4.11,2.58.27,5.23-1.09,7.87-4a.5.5,0,0,0-.75-.66c-2.41,2.68-4.77,3.92-7,3.7-3.21-.33-5.14-3.59-5.16-3.62A.5.5,0,0,0,35.93,87.49Z" style="fill:#fff"/><path d="M51.38,87.49a.5.5,0,0,0-.34.13.49.49,0,0,0,0,.7c2.64,2.94,5.28,4.3,7.86,4,3.7-.38,5.82-4,5.91-4.11a.5.5,0,1,0-.86-.5s-2,3.3-5.16,3.62c-2.24.23-4.6-1-7-3.7A.51.51,0,0,0,51.38,87.49Z" style="fill:#fff"/><path d="M53.8,102H47.06a.5.5,0,0,1-.5-.5.5.5,0,0,1,.5-.5H53.8a.5.5,0,0,1,.5.5A.5.5,0,0,1,53.8,102Z" style="fill:#fff"/>
  </g>

  <g id="sheep-face-16">
<circle cx="42.33" cy="87.47" r="6.6" style="fill:#fff"/><circle cx="58" cy="87.47" r="6.6" style="fill:#fff"/><ellipse cx="46.43" cy="87.88" rx="1.34" ry="2.76"/><ellipse cx="53.8" cy="87.88" rx="1.34" ry="2.76"/><polygon points="50.43 101.11 53.32 104.31 48.22 104.34 50.43 101.11" style="fill:#fff"/>
  </g>

  <g id="sheep-face-17">
<path d="M48.18,87.78c0,1.52-.89,2.76-2,2.76s-2-1.24-2-2.76a3.6,3.6,0,0,1,.36-1.58H35.85a7.59,7.59,0,0,0-.12,1.27A6.6,6.6,0,1,0,48.81,86.2h-1A3.47,3.47,0,0,1,48.18,87.78Z" style="fill:#fff"/><path d="M61.72,86.2A3.47,3.47,0,0,1,62,87.66c0,1.53-.91,2.76-2,2.76s-2.05-1.23-2.05-2.76a3.63,3.63,0,0,1,.31-1.46H51.53A6.57,6.57,0,0,0,58,94.07a6.6,6.6,0,0,0,6.6-6.6,6.67,6.67,0,0,0-.12-1.27Z" style="fill:#fff"/><path d="M59,105.52c-.71,0-1.23-.6-1.73-1.19s-.9-1.06-1.41-1.09a15.39,15.39,0,0,1-1.54-.17,27.18,27.18,0,0,0-9,.17.51.51,0,0,1-.57-.42.51.51,0,0,1,.42-.57,28,28,0,0,1,9.25-.17,14.4,14.4,0,0,0,1.46.16A3.24,3.24,0,0,1,58,103.68c.34.41.73.85,1,.84s.52-.18,1.16-1.38c.34-.62.21-1,.09-1.15-.72-1.14-4-1.57-6.84-1.62-.81,0-1.52,0-2,0a.5.5,0,0,1,0-1c.23,0,1,0,1.9,0,3.3-.12,6.43-.64,6.68-1.42s.07-1.41-.23-1.58-.93.11-1.51.76c-1.94,2.17-11.63,1.34-12.73,1.24a.5.5,0,1,1,.1-1c4,.36,10.67.44,11.88-.91,1.36-1.52,2.38-1.18,2.75-1a2.29,2.29,0,0,1,.69,2.75c-.25.8-1.39,1.3-2.82,1.62a4.76,4.76,0,0,1,3,1.59,2,2,0,0,1,0,2.16c-.66,1.25-1.26,1.84-1.93,1.91Z" style="fill:#fff"/>
  </g>

  <g id="sheep-face-18">
<path d="M47.24,87.88c0,1.52-.6,2.76-1.34,2.76s-1.34-1.24-1.34-2.76c0-.13,0-.26,0-.39l-8.75-1.14a6.86,6.86,0,0,0-.1,1.12,6.6,6.6,0,0,0,13.17.59l-1.67-.22Z" style="fill:#fff"/><path d="M56.6,87.34a4.7,4.7,0,0,1,0,.54c0,1.52-.59,2.76-1.33,2.76S54,89.4,54,87.88a1.15,1.15,0,0,1,0-.19L51.43,88a6.6,6.6,0,0,0,13.17-.55,6.25,6.25,0,0,0-.11-1.16Z" style="fill:#fff"/><polygon points="45.75 102.37 47.09 102.37 47.09 104.73 45.75 102.37" style="fill:#fff"/><polygon points="54.25 102.37 52.91 102.37 52.91 104.73 54.25 102.37" style="fill:#fff"/>
  </g>

  <g id="sheep-face-19">
<path d="M63.41,83.7c-3.95-1.22-8.42-.37-11.07.39a6.57,6.57,0,0,0,1.82,8.74c1.27-1.24,4.4-3.46,9.87-2.68a6.57,6.57,0,0,0-.62-6.45Z" style="fill:#fff"/><path d="M47.46,91.61a6.56,6.56,0,0,0,.6-7.4,17.82,17.82,0,0,0-11.55.14,6.68,6.68,0,0,0-.78,3.12,6.6,6.6,0,0,0,.7,2.94C39,89.5,43.7,88.6,47.46,91.61Z" style="fill:#fff"/><ellipse cx="46.9" cy="87.88" rx="1.34" ry="2.76"/><ellipse cx="55.14" cy="87.88" rx="1.34" ry="2.76"/><path d="M66.1,91.9C65.84,91.84,59.52,90.37,56,93a5.55,5.55,0,0,0-2.2,4.28,2.55,2.55,0,0,1-1.71,1.44c-1.39.23-2.85-1.11-2.87-1.12a.45.45,0,0,0-.23-.11c-.42-2.37-1.5-4.8-3.56-5.76-4.51-2.08-10.37.57-10.62.68a.51.51,0,0,0-.25.66.52.52,0,0,0,.67.25s5.69-2.58,9.78-.68c2.29,1.06,3.15,4.45,3.19,7s-.72,4.85-1.88,5.43a.5.5,0,0,0-.23.67.51.51,0,0,0,.45.27.42.42,0,0,0,.22,0c1.53-.76,2.48-3.25,2.44-6.33,0-.28,0-.56,0-.85a4.77,4.77,0,0,0,2.6.93,2.77,2.77,0,0,0,.49,0,2.91,2.91,0,0,0,1.59-.84,5.78,5.78,0,0,0,1.6,3.3,7.92,7.92,0,0,0,5.29,2.18h.18a.5.5,0,0,0,.48-.52.52.52,0,0,0-.51-.48,6.81,6.81,0,0,1-4.72-1.88,5,5,0,0,1-1.38-4,4.66,4.66,0,0,1,1.82-3.68c3.12-2.33,9.19-.92,9.25-.91a.5.5,0,1,0,.23-1Z" style="fill:#fff"/>
  </g>

  <g id="sheep-face-20">
<circle cx="42.33" cy="87.47" r="6.6" style="fill:#fff"/><ellipse cx="42.9" cy="87.88" rx="1.34" ry="2.76"/><path d="M61,92.26a.49.49,0,0,1-.45-.29c-2-4.19-9.63-3.53-9.71-3.52a.52.52,0,0,1-.46-.22.51.51,0,0,1,0-.52,3,3,0,0,1,.25-.37.51.51,0,0,1-.2-.47c.44-3,7.67-7.79,8.5-8.33a.5.5,0,0,1,.69.14.49.49,0,0,1-.15.69c-1.82,1.2-6.17,4.37-7.6,6.59a3.31,3.31,0,0,1,2.56-.25.49.49,0,0,1-.17.91,7.84,7.84,0,0,0-2.13.78h0c2.49,0,7.6.47,9.32,4.15a.51.51,0,0,1-.25.66A.5.5,0,0,1,61,92.26Z" style="fill:#fff"/><path d="M53.8,105.1a.49.49,0,0,1-.49-.44.5.5,0,0,1,.44-.55,8.41,8.41,0,0,0,6.75-5.46.48.48,0,0,1,.63-.31.49.49,0,0,1,.32.63,9.37,9.37,0,0,1-7.6,6.13Z" style="fill:#fff"/>
  </g>


  <g id="sheep-face-21">
<path d="M46.71,82.54c-.82,3.17-3.28,7.21-10.39,7.65a6.6,6.6,0,1,0,10.39-7.65Z" style="fill:#fff"/><path d="M53.34,82.8a6.6,6.6,0,1,0,10.47,7.82C56.55,90.18,54.13,86,53.34,82.8Z" style="fill:#fff"/><ellipse cx="46.9" cy="87.88" rx="1.34" ry="2.76"/><ellipse cx="53.29" cy="87.88" rx="1.34" ry="2.76"/><path d="M44.74,105.23l-.12,0a.5.5,0,0,1-.37-.6c.2-.9,2.1-8.81,5.1-9.11s6.1,7.15,6.71,8.65a.5.5,0,1,1-.93.37c-1.29-3.19-4-8.18-5.69-8s-3.5,5.2-4.22,8.34A.5.5,0,0,1,44.74,105.23Z" style="fill:#fff"/>
  </g>


  <g id="sheep-face-22">
<path d="M46.33,89.39H36.91a.51.51,0,0,1-.5-.5.5.5,0,0,1,.5-.5h9.42a.5.5,0,0,1,.5.5A.5.5,0,0,1,46.33,89.39Z" style="fill:#fff"/><path d="M63.1,89.39H53.67a.51.51,0,0,1-.5-.5.5.5,0,0,1,.5-.5H63.1a.5.5,0,0,1,.5.5A.51.51,0,0,1,63.1,89.39Z" style="fill:#fff"/><path d="M53.05,100.64H46.68a.51.51,0,0,1-.5-.5.5.5,0,0,1,.5-.5h6.37a.5.5,0,0,1,.5.5A.5.5,0,0,1,53.05,100.64Z" style="fill:#fff"/>
  </g>

  <g id="sheep-face-23">
<path d="M36.29,97.61a.48.48,0,0,1-.42-.23.49.49,0,0,1,.16-.69l10-6.23L35.86,83.75a.5.5,0,1,1,.55-.83l10.84,7.14a.48.48,0,0,1,.23.42.49.49,0,0,1-.24.42L36.55,97.54A.48.48,0,0,1,36.29,97.61Z" style="fill:#fff"/><path d="M63.92,98.23a.48.48,0,0,1-.24-.06L50,90.78a.53.53,0,0,1-.26-.39.5.5,0,0,1,.18-.43l9.75-8.26a.51.51,0,0,1,.71.06.49.49,0,0,1-.06.7l-9.2,7.79,13,7a.5.5,0,0,1-.23.94Z" style="fill:#fff"/><path d="M45.84,103.55s2.39-10.69,9.87-1.81Z" style="fill:#fff"/>
  </g>

  <g id="sheep-face-24">
<path d="M45.2,81.53a2.09,2.09,0,0,1,0,.35,2.76,2.76,0,1,1-5.47-.5,6.61,6.61,0,1,0,5.43.15Z" style="fill:#fff"/><path d="M59.84,81.13a3.09,3.09,0,0,1,.11.75,2.67,2.67,0,1,1-5.33,0s0,0,0-.08a6.59,6.59,0,1,0,5.21-.67Z" style="fill:#fff"/><rect x="47.22" y="102.61" width="7.08" height="1" style="fill:#fff"/>
  </g>

  <g id="sheep-face-25">
<circle cx="42.33" cy="87.47" r="6.6" style="fill:#fff"/><circle cx="58" cy="87.47" r="6.6" style="fill:#fff"/><ellipse cx="42.9" cy="87.88" rx="1.34" ry="2.76"/><ellipse cx="56.29" cy="87.88" rx="1.34" ry="2.76"/>
  </g>
</defs>


</svg>


