<svg xmlns="http://www.w3.org/2000/svg" viewBox="0 0 512 512">
  <defs>
    <symbol id="oft-1">
      <title>Frequency</title>
      <circle cx="256" cy="256" r="200.01" fill="#99e6fc"/>
      <path fill="#62dbfb" d="M372 93a199.07 199.07 0 0 1 37 116c0 110.46-89.55 200-200 200a199.07 199.07 0 0 1-116-37 199.75 199.75 0 0 0 163 84c110.46 0 200-89.55 200-200a199.75 199.75 0 0 0-84-163Z"/>
      <circle cx="256" cy="104.48" r="48.49" fill="#ffd15b"/>
      <circle cx="155.99" cy="369.14" r="48.49" fill="#ffd15b" transform="rotate(-85.93 156.02 369.15)"/>
      <circle cx="256" cy="423.69" r="32.33" fill="#ffc344"/>
      <circle cx="393.38" cy="256" r="32.33" fill="#ffc344"/>
      <circle cx="155.99" cy="163.07" r="32.32" fill="#ffd15b"/>
      <circle cx="358.03" cy="327.72" r="16.16" fill="#ffc344"/>
      <circle cx="343.88" cy="191.35" r="16.16" fill="#ffd15b"/>
      <circle cx="94.37" cy="225.7" r="16.16" fill="#ffd15b"/>
      <circle cx="143.87" cy="270.14" r="16.16" fill="#ffd15b"/>
      <circle cx="297.42" cy="356.01" r="16.16" fill="#ffd15b"/>
      <circle cx="356.01" cy="400.45" r="24.24" fill="#ffc344"/>
      <circle cx="381.26" cy="132.76" r="24.24" fill="#ffc344"/>
      <circle cx="256" cy="256" r="64.65" fill="#ffd15b"/>
      <path fill="#fd8087" d="M256 512A256 256 0 0 1 75 75a256 256 0 0 1 362 362 254.33 254.33 0 0 1-181 75Zm0-497A241 241 0 0 0 85.59 426.41 241 241 0 1 0 426.41 85.59 239.42 239.42 0 0 0 256 15Z"/>
    </symbol>

    <symbol id="oft-2">
      <title>Length</title>
      <path fill="#ff9d4a" d="M511.21 274.08 239.69 2.55a8 8 0 0 0-11.32 0l-181 181a8 8 0 0 0 0 11.31l271.51 271.55a8.08 8.08 0 0 0 11.31 0l181-181a8 8 0 0 0 .02-11.33Z"/>
      <path fill="#f48a16" d="M47.35 183.57a8 8 0 0 0 0 11.31l271.53 271.53a8.08 8.08 0 0 0 11.31 0L346.65 450 63.8 167.12Z"/>
      <path fill="#847277" d="M194.43 228.82a8 8 0 0 0-11.31 0l-50.91 50.92 11.31 11.31 50.91-50.91a8 8 0 0 0 0-11.32ZM284.94 319.33a8 8 0 0 0-11.31 0l-50.91 50.92L234 381.56l50.91-50.91a8 8 0 0 0 .03-11.32ZM126.55 206.2a8 8 0 0 0-11.31 0L87 234.48l11.31 11.31 28.29-28.28a8 8 0 0 0-.05-11.31ZM103.92 183.57a8 8 0 0 0-11.31 0l-28.29 28.28 11.32 11.32 28.28-28.29a8 8 0 0 0 0-11.31ZM149.18 228.82a8 8 0 0 0-11.32 0l-28.28 28.29 11.31 11.31 28.29-28.28a8 8 0 0 0 0-11.32ZM194.43 274.08a8 8 0 0 0-11.31 0l-28.29 28.28 11.32 11.32 28.28-28.29a8 8 0 0 0 0-11.31ZM217.06 296.71a8 8 0 0 0-11.32 0L177.46 325l11.31 11.31L217.06 308a8 8 0 0 0 0-11.29ZM239.69 319.33a8 8 0 0 0-11.32 0l-28.28 28.29 11.31 11.31 28.29-28.28a8 8 0 0 0 0-11.32ZM284.94 364.59a8 8 0 0 0-11.31 0l-28.29 28.28 11.32 11.32 28.28-28.29a8 8 0 0 0 0-11.31ZM307.57 387.22a8 8 0 0 0-11.32 0L268 415.5l11.31 11.31 28.29-28.28a8 8 0 0 0-.03-11.31ZM330.19 409.84a8 8 0 0 0-11.31 0l-28.28 28.29 11.31 11.31 28.28-28.28a8 8 0 0 0 0-11.32Z"/>
      <path fill="#725e63" d="M228.37 104.37a8 8 0 0 0 11.32 0l50.91-50.91-11.32-11.31-50.91 50.91a8 8 0 0 0 0 11.31ZM273.63 149.63a8 8 0 0 0 11.31 0l50.91-50.91-11.31-11.32-50.91 50.91a8 8 0 0 0 0 11.32ZM318.88 194.88a8 8 0 0 0 11.32 0L381.11 144l-11.32-11.31-50.91 50.91a8 8 0 0 0 0 11.28ZM364.14 240.14a8 8 0 0 0 11.31 0l50.91-50.91-11.31-11.32-50.91 50.91a8 8 0 0 0 0 11.32ZM409.39 285.39a8 8 0 0 0 11.31 0l50.92-50.91-11.32-11.31-50.91 50.91a8 8 0 0 0 0 11.31Z"/>
      <path fill="#95868a" d="M283.12 512.05a8.09 8.09 0 0 0 6.44-7.85v-32a8 8 0 0 0-16 0v12.68L28.87 240.21h12.69a8 8 0 0 0 0-16h-32a8.09 8.09 0 0 0-8 8v32a8 8 0 0 0 16 0v-12.69l244.68 244.69h-12.68a8 8 0 1 0 0 16h32a8.18 8.18 0 0 0 1.56-.16Z"/>
    </symbol>

    <symbol id="oft-3">
      <title>Price</title>
      <path fill="#b3e59f" d="m233.3 80.26 86.84-75.57a19.05 19.05 0 0 1 25 0L432 80.26c13.3 11.57 5.11 33.45-12.52 33.45h-12.3v268.57l-111.26-29.95a37.8 37.8 0 0 1-37.8-37.81V113.71h-12.31c-17.63 0-25.81-21.88-12.51-33.45Z"/>
      <path fill="#95d6a4" d="m350.81 9.6-5.63-4.92a19.09 19.09 0 0 0-25 0L233.3 80.26c-13.3 11.57-5.11 33.45 12.51 33.45h12.31v200.81a37.81 37.81 0 0 0 37.8 37.81h36.32a37.81 37.81 0 0 1-37.8-37.81V113.71h-12.3c-17.63 0-25.81-21.88-12.52-33.45Z"/>
      <path fill="#b3e59f" d="m53.76 234.76 86.84-75.58a19.07 19.07 0 0 1 25 0l86.84 75.58c13.3 11.57 5.11 33.45-12.52 33.45h-12.3v206A37.8 37.8 0 0 1 189.85 512h-73.47a37.81 37.81 0 0 1-37.8-37.81v-206h-12.3c-17.63 0-25.82-21.88-12.52-33.45Z"/>
      <path fill="#95d6a4" d="m171.28 164.1-5.64-4.92a19.09 19.09 0 0 0-25 0l-86.88 75.58c-13.29 11.57-5.11 33.44 12.52 33.44h12.3v206a37.81 37.81 0 0 0 37.8 37.8h36.33a37.8 37.8 0 0 1-37.8-37.81v-206H102.6c-17.62 0-25.81-21.87-12.52-33.44Z"/>
      <circle cx="277.87" cy="260.84" r="103.75" fill="#ffe07d"/>
      <path fill="#ffd064" d="M290.34 363.84a103.75 103.75 0 1 1-12.47-206.75 102.72 102.72 0 0 1 12.47.75 103.75 103.75 0 0 0 0 206Z"/>
      <path fill="#4a80aa" d="M289.47 253.05c-8.23-2.91-17.34-6.43-22.53-10.5-2-1.55-2.82-4.81-2.17-8.31s3-7.62 7.58-9c10.18-3.07 16.94 2.23 17.68 2.84a7.73 7.73 0 0 0 9.88-11.88 34.08 34.08 0 0 0-14.86-6.77v-4.66a7.73 7.73 0 0 0-15.46 0V210c-.56.15-1.12.3-1.69.47a26.69 26.69 0 0 0-18.31 20.94c-1.74 9.24 1.25 18.18 7.82 23.33 5.6 4.39 13.39 8.13 26.91 12.91 10 3.53 9.78 11.66 9.22 15a16.4 16.4 0 0 1-16.27 13.83c-8.86.06-11.86-.42-18.78-4.95a7.73 7.73 0 0 0-8.49 12.9c7.64 5 13 6.71 19.55 7.25v5.23a7.73 7.73 0 0 0 15.45 0v-6c13.32-3.28 21.86-14.61 23.73-25.78 2.45-14.51-5.13-27.11-19.3-32.12Z"/>
      <path fill="#b3e59f" d="m259.53 397.17 86.84-75.58a19.07 19.07 0 0 1 25 0l86.84 75.58c13.3 11.57 5.11 33.45-12.52 33.45h-12.3v43.57A37.8 37.8 0 0 1 395.62 512h-73.47a37.81 37.81 0 0 1-37.8-37.81v-43.57h-12.3c-17.63 0-25.82-21.88-12.52-33.45Z"/>
      <path fill="#95d6a4" d="m377.05 326.51-5.64-4.92a19.09 19.09 0 0 0-25 0l-86.84 75.58c-13.29 11.57-5.11 33.44 12.52 33.44h12.3v43.58A37.8 37.8 0 0 0 322.15 512h36.33a37.8 37.8 0 0 1-37.8-37.81v-43.58h-12.31c-17.62 0-25.81-21.87-12.52-33.44Z"/>
    </symbol>

    <symbol id="oft-4">
      <title>Material</title>
      <path fill="#fcb72d" d="M473.46 401.58H328.85a10.26 10.26 0 0 1-10.26-10.26V246.71a10.26 10.26 0 0 1 10.26-10.26l72.31-5.15 72.3 5.15a10.26 10.26 0 0 1 10.26 10.26v144.61a10.25 10.25 0 0 1-10.26 10.26Z"/>
      <path fill="#e33c53" d="M416.78 296.41h-31.24a5.13 5.13 0 0 1-5.13-5.13v-54.83l20.75-5.15 20.75 5.15v54.83a5.13 5.13 0 0 1-5.13 5.13Z"/>
      <path fill="#fb9927" d="M483.72 246.71v144.6a10.24 10.24 0 0 1-10.26 10.26h-28.74A10.26 10.26 0 0 0 455 391.31v-144.6a10.26 10.26 0 0 0-10.26-10.26h28.74a10.25 10.25 0 0 1 10.24 10.26Z"/>
      <path fill="#fdc83a" d="M473.46 236.45H328.85a10.27 10.27 0 0 1-10.26-10.26V81.58a10.26 10.26 0 0 1 10.26-10.26h51.56l20.75 5.15 20.75-5.15h51.55a10.26 10.26 0 0 1 10.26 10.26v144.61a10.26 10.26 0 0 1-10.26 10.26Z"/>
      <path fill="#fcb72d" d="M483.72 81.58v144.61a10.25 10.25 0 0 1-10.26 10.26h-28.74A10.26 10.26 0 0 0 455 226.19V81.58a10.26 10.26 0 0 0-10.26-10.26h28.74a10.25 10.25 0 0 1 10.24 10.26Z"/>
      <path fill="#7da2b0" d="m429.94 391.47-10.09 5.15-10.27-5.15h-13.37l-28.4 5.15-33.61-5.15a6.68 6.68 0 0 1-6.68-6.68v-47.3a6.68 6.68 0 0 1 6.68-6.68l28.21-5.15 24.17 5.15h43.36a6.69 6.69 0 0 1 6.69 6.68v47.3a6.69 6.69 0 0 1-6.69 6.68Z"/>
      <path fill="#688d97" d="M436.63 337.49v47.3a6.68 6.68 0 0 1-6.69 6.68h-30.85a6.68 6.68 0 0 0 6.68-6.68v-47.3a6.68 6.68 0 0 0-6.68-6.68h30.85a6.68 6.68 0 0 1 6.69 6.68Z"/>
      <path fill="#a9d3d8" d="M386.58 330.81h-95.75a6.69 6.69 0 0 1-6.68-6.69v-47.29a6.69 6.69 0 0 1 6.68-6.69h95.75a6.69 6.69 0 0 1 6.68 6.69v47.29a6.69 6.69 0 0 1-6.68 6.69Z"/>
      <path fill="#90bac4" d="M393.26 276.83v47.29a6.67 6.67 0 0 1-6.69 6.68h-30.85a6.68 6.68 0 0 0 6.69-6.68v-47.29a6.7 6.7 0 0 0-6.69-6.69h30.85a6.69 6.69 0 0 1 6.69 6.69ZM396.21 452.13h-31.89l-33-5.15-30.82 5.15a6.68 6.68 0 0 1-6.68-6.68v-47.3a6.68 6.68 0 0 1 6.68-6.68h95.74a6.69 6.69 0 0 1 6.69 6.68l5.15 24.22-5.15 23.08a6.69 6.69 0 0 1-6.72 6.68Z"/>
      <path fill="#7da2b0" d="M505.32 452.13h-95.74a6.68 6.68 0 0 1-6.69-6.68v-47.3a6.68 6.68 0 0 1 6.69-6.68h95.74a6.68 6.68 0 0 1 6.68 6.68v47.3a6.68 6.68 0 0 1-6.68 6.68Z"/>
      <path fill="#688d97" d="M512 398.15v47.3a6.68 6.68 0 0 1-6.68 6.68h-30.86a6.69 6.69 0 0 0 6.69-6.68v-47.3a6.69 6.69 0 0 0-6.69-6.68h30.86a6.68 6.68 0 0 1 6.68 6.68Z"/>
      <path fill="#e8576b" d="M18.29 78.28H259v355.44H18.29Z"/>
      <path fill="#e33c53" d="M18.29 78.28v37.64h203.57v56.86H18.29v37.64h203.57v137.76H18.29v37.63h203.57v47.91H259V78.28Z"/>
      <path fill="#ee7382" d="M272.52 87.59H4.78A4.78 4.78 0 0 1 0 82.81V64.65a4.78 4.78 0 0 1 4.78-4.78h267.74a4.78 4.78 0 0 1 4.78 4.78v18.16a4.78 4.78 0 0 1-4.78 4.78Z"/>
      <path fill="#e8576b" d="M277.31 64.65V82.8a4.78 4.78 0 0 1-4.79 4.79h-38.3A4.78 4.78 0 0 0 239 82.8V64.65a4.77 4.77 0 0 0-4.78-4.78h38.3a4.79 4.79 0 0 1 4.79 4.78Z"/>
      <path fill="#ee7382" d="M272.52 181.81H4.78A4.78 4.78 0 0 1 0 177v-18.13a4.78 4.78 0 0 1 4.78-4.79h267.74a4.78 4.78 0 0 1 4.78 4.79V177a4.78 4.78 0 0 1-4.78 4.81Z"/>
      <path fill="#e8576b" d="M277.31 158.87V177a4.78 4.78 0 0 1-4.79 4.78h-38.3A4.77 4.77 0 0 0 239 177v-18.13a4.78 4.78 0 0 0-4.78-4.79h38.3a4.8 4.8 0 0 1 4.79 4.79Z"/>
      <path fill="#ee7382" d="M272.52 357.92H4.78A4.79 4.79 0 0 1 0 353.13V335a4.78 4.78 0 0 1 4.78-4.78h267.74a4.78 4.78 0 0 1 4.78 4.78v18.16a4.79 4.79 0 0 1-4.78 4.76Z"/>
      <path fill="#e8576b" d="M277.31 335v18.15a4.78 4.78 0 0 1-4.79 4.78h-38.3a4.77 4.77 0 0 0 4.78-4.78V335a4.78 4.78 0 0 0-4.78-4.79h38.3a4.79 4.79 0 0 1 4.79 4.79Z"/>
      <path fill="#ee7382" d="M272.52 452.13 179.18 447l-100.06 5.13H4.78A4.78 4.78 0 0 1 0 447.35v-18.16a4.78 4.78 0 0 1 4.78-4.78h267.74a4.78 4.78 0 0 1 4.78 4.78v18.16a4.78 4.78 0 0 1-4.78 4.78Z"/>
      <path fill="#e8576b" d="M277.31 429.19v18.15a4.78 4.78 0 0 1-4.79 4.79h-38.3a4.78 4.78 0 0 0 4.78-4.79v-18.15a4.77 4.77 0 0 0-4.78-4.78h38.3a4.79 4.79 0 0 1 4.79 4.78Z"/>
      <path fill="#dc7f69" d="M364.32 452.13a11.28 11.28 0 0 0 10.75-14.71c-15.55-48.62-69-201-128.28-201-58.53 0-110.61 152.61-125.69 201.14a11.28 11.28 0 0 0 10.78 14.62l93.51-5.18 78.6 5.15Z"/>
      <path fill="#d46a50" d="M246.79 236.37a35.48 35.48 0 0 0-8.3 1C287.83 276.1 329 394.09 342.61 436.64a11.87 11.87 0 0 1-11.32 15.49h33.08a11.27 11.27 0 0 0 10.7-14.71c-15.55-48.62-69.02-201.05-128.28-201.05Z"/>
      <path fill="#e9a999" d="M240.86 452.13s-42.55-98.64-90.7-98.64c-35.24 0-67 54.22-81.15 82.27a11.3 11.3 0 0 0 10.11 16.37h80.67l40.34-5.13Z"/>
      <path fill="#e39382" d="M240.87 452.13 222.65 447l-19.37 5.15s-36.76-85.22-78.36-85.22a31.23 31.23 0 0 0-7.43.92c10.2-8.65 21.26-14.34 32.67-14.34 48.14 0 90.71 98.64 90.71 98.64Z"/>
      <path fill="#dc7f69" d="M304 452.13S269.81 386 231.14 386c-38.17 0-71.35 66.16-71.35 66.16h106.76l17.6-5.15Z"/>
      <path fill="#d46a50" d="M304 452.13h-37.45s-29-56.2-61.94-56.35c8.28-5.9 17.26-9.8 26.53-9.8 38.68 0 72.85 66.15 72.85 66.15ZM249.16 348.52a7.69 7.69 0 0 1-7.73-7.68v-.09a7.73 7.73 0 1 1 7.73 7.77Z"/>
      <path fill="#e39382" d="M108.91 430.11a7.69 7.69 0 0 1-7.73-7.68v-.09a7.73 7.73 0 1 1 7.73 7.77ZM131 437.57a7.69 7.69 0 0 1-7.73-7.68v-.09a7.73 7.73 0 1 1 7.73 7.77Z"/>
      <path fill="#d46a50" d="M220.59 361.21a7.68 7.68 0 0 1-7.72-7.68v-.09a7.73 7.73 0 1 1 7.72 7.77ZM217.66 432.13a7.68 7.68 0 0 1-7.72-7.68v-.09a7.73 7.73 0 1 1 7.72 7.77ZM248.1 282.59a7.68 7.68 0 0 1-7.72-7.68v-.09a7.73 7.73 0 1 1 7.72 7.77ZM313.06 415.28a7.69 7.69 0 0 1-7.73-7.68v-.09a7.73 7.73 0 1 1 7.73 7.77Z"/>
      <path fill="#27cc81" d="m83.81 225.53-20.55 35.85a5.12 5.12 0 0 0 4.45 7.68h41.1a5.13 5.13 0 0 0 4.45-7.68l-20.55-35.85a5.13 5.13 0 0 0-8.9 0ZM114 306.13H62.57a7.73 7.73 0 1 1 0-15.45H114a7.73 7.73 0 0 1 0 15.45Z"/>
      <path fill="#e33c53" d="M416.78 131.28h-31.24a5.13 5.13 0 0 1-5.13-5.13V71.32h41.51v54.83a5.14 5.14 0 0 1-5.14 5.13Z"/>
      <path fill="#fcb72d" d="M362.15 211.42H349.3a7.73 7.73 0 1 1 0-15.45h12.85a7.73 7.73 0 0 1 0 15.45ZM362.15 186.71H349.3a7.73 7.73 0 1 1 0-15.45h12.85a7.73 7.73 0 0 1 0 15.45Z"/>
    </symbol>

    <symbol id="oft-5">
      <title>Intent of use</title>
      <circle cx="217.72" cy="78.55" r="78.55" fill="#97c9f9"/>
      <path fill="#ffefe7" d="M408.73 181.09A31.9 31.9 0 0 0 376.82 213v-25.73a31.91 31.91 0 1 0-63.82 0v-12.89a31.92 31.92 0 0 0-63.83 0V66.6a31.91 31.91 0 1 0-63.82 0v228.63a4.63 4.63 0 0 1-8 3.13l-51.11-55.56a30.54 30.54 0 0 0-44.33-.92c-12.09 12.12-14.09 33.53-4.43 47.65l81.62 119.34a95.27 95.27 0 0 0 58.23 39.28 3.48 3.48 0 0 1 3.48 3.48v53.85a6.52 6.52 0 0 0 6.52 6.52h186.36a6.52 6.52 0 0 0 6.52-6.52v-47.14a28.23 28.23 0 0 1 2-10.32l2.47-6.31a231.59 231.59 0 0 0 16-81.44V213a31.91 31.91 0 0 0-31.91-31.91Z"/>
      <path fill="#ffefe7" d="M408.73 181.09A31.9 31.9 0 0 0 376.82 213v-25.73a31.91 31.91 0 1 0-63.82 0v-12.89a31.92 31.92 0 0 0-63.83 0V66.6a31.91 31.91 0 1 0-63.82 0v228.63a4.63 4.63 0 0 1-8 3.13l-51.11-55.56a30.54 30.54 0 0 0-44.33-.92c-12.09 12.12-14.09 33.53-4.43 47.65l81.62 119.34a95.27 95.27 0 0 0 58.23 39.28 3.48 3.48 0 0 1 3.48 3.48v53.85a6.52 6.52 0 0 0 6.52 6.52h186.36a6.52 6.52 0 0 0 6.52-6.52v-47.14a28.23 28.23 0 0 1 2-10.32l2.47-6.31a231.59 231.59 0 0 0 16-81.44V213a31.91 31.91 0 0 0-31.91-31.91Z"/>
      <path fill="#ffe0d1" d="M185.35 295a22.91 22.91 0 0 0 22.91-23V65a36.27 36.27 0 0 1 9.35-24.59 32.93 32.93 0 0 1 6-5.16 31.93 31.93 0 0 0-38.3 31.27ZM402.23 215.73a31.94 31.94 0 0 1 22.32-30.45A31.92 31.92 0 0 0 376.82 213v18.42a1.25 1.25 0 0 0 1.26 1.26h7.21a16.94 16.94 0 0 0 16.94-16.94ZM356.87 157.68A31.92 31.92 0 0 0 313 187.93v49.27a24 24 0 0 0 24-24v-25.93a31.91 31.91 0 0 1 19.87-29.59ZM292 144.4a31.64 31.64 0 0 0-11.51-1.93c-17.52.3-31.35 14.62-31.35 32.6v60.47a22 22 0 0 0 21.95-22v-39.2a31.91 31.91 0 0 1 20.91-30Z"/>
      <path fill="#97c9f9" d="M104.48 138.66a7.76 7.76 0 0 1-7-4.42 133.37 133.37 0 0 1 0-114.11 7.76 7.76 0 0 1 14 6.66 117.74 117.74 0 0 0 0 100.79 7.75 7.75 0 0 1-7 11.08ZM331 138.66a7.76 7.76 0 0 1-7-11.08 117.74 117.74 0 0 0 0-100.79 7.76 7.76 0 0 1 14-6.66 133.37 133.37 0 0 1 0 114.11 7.76 7.76 0 0 1-7 4.42Z"/>
      <path fill="#ffe0d1" d="M241.6 447.46a25.93 25.93 0 0 0-14.43-23.27c-15.29-7.53-38.43-20.45-47.28-33.38l-83.48-122a33.62 33.62 0 0 1-5.88-19 38.84 38.84 0 0 1 3.13-15.29 31.05 31.05 0 0 0-11.75 7.4c-12.09 12.08-14.09 33.49-4.43 47.61l81.62 119.34a95.27 95.27 0 0 0 58.23 39.28 3.48 3.48 0 0 1 3.48 3.48v53.85a6.52 6.52 0 0 0 6.52 6.52h14.27Z"/>
    </symbol>

    <symbol id="oft-6">
      <title>Appearance</title>
      <path fill="#ffce00" d="M108.69 214.44h28.65v276.95h-28.65z"/>
      <path fill="#e2a700" d="M108.69 214.44h28.65v25.99h-28.65zM108.69 464.92h28.65v26.47h-28.65z"/>
      <path fill="#e2a700" d="M117.45 214.44h19.89v111.87c-10.18-27.27-16.71-58-19-90.19-.5-7.2-.79-14.47-.89-21.68Z"/>
      <path fill="#ffce00" d="M374.66 214.44h28.65v276.95h-28.65z"/>
      <path fill="#e2a700" d="M374.66 214.44h28.65v25.99h-28.65zM374.66 464.92h28.65v26.47h-28.65z"/>
      <path fill="#e2a700" d="M394.54 214.44c-.07 6.18-.3 12.36-.67 18.47a349.38 349.38 0 0 1-7 51.53 310.84 310.84 0 0 1-9.69 35c-.8 2.35-1.63 4.66-2.5 7v-112Z"/>
      <path fill="#ffe69f" d="M407.75 226.86h-303.5a16.76 16.76 0 0 1-16.76-16.76 16.77 16.77 0 0 1 16.76-16.76h303.5a16.77 16.77 0 0 1 16.76 16.76 16.76 16.76 0 0 1-16.76 16.76Z"/>
      <path fill="#ffce00" d="M394.57 210.1c0 5.58-.13 11.19-.38 16.77H117.81a377.36 377.36 0 0 1 .01-33.53h276.37c.25 5.55.38 11.15.38 16.76Z"/>
      <path fill="#ffe69f" d="M473.32 512H38.68v-17a16.53 16.53 0 0 1 16.53-16.53h401.58A16.53 16.53 0 0 1 473.32 495Z"/>
      <path fill="#aecbce" d="M381 210.1q0 11.13-.67 22a334.7 334.7 0 0 1-6.74 49.53 296.88 296.88 0 0 1-9.26 33.37c-14 40.74-35.91 72.85-62.19 90.39-14.28 9.61-29.84 14.82-46.14 14.82-64 0-116.75-80.82-124.13-185-.57-8.21-.87-16.58-.87-25.06 0-40.31 6.75-78 18.46-109.95a240.41 240.41 0 0 1 13.08-29.59 181 181 0 0 1 22.66-33.69C205.32 13.64 229.72 0 256 0c69 0 125 94.07 125 210.1Z"/>
      <path fill="#dfebef" d="M380.33 232.06a334.7 334.7 0 0 1-6.74 49.53l-211-211a181 181 0 0 1 22.61-33.67ZM364.33 315c-14 40.74-35.91 72.85-62.19 90.39L131.87 235.16c-.57-8.21-.87-16.58-.87-25.06 0-40.31 6.75-78 18.45-109.95Z"/>
    </symbol>

    <symbol id="oft-7">
      <title>Importance</title>
      <path fill="none" d="M0 0h512v512H0z"/>
      <path fill="#997ab8" d="m136 65 10 188.42H76V65a30 30 0 1 1 60 0Z"/>
      <circle cx="106" cy="17.5" r="17.5" fill="#ffc796"/>
      <path fill="#b77e5a" d="M196 65v188.43h-60V65a30 30 0 1 1 60 0Z"/>
      <circle cx="166" cy="17.5" r="17.5" fill="#ffc796"/>
      <path fill="#f7775b" d="m256 65 10 188.42h-80L196 65a30 30 0 1 1 60 0Z"/>
      <circle cx="226" cy="17.5" r="17.5" fill="#df9f7a"/>
      <path fill="#ffc54b" d="M316 65v188.43h-60V65a30 30 0 1 1 60 0Z"/>
      <circle cx="286" cy="17.5" r="17.5" fill="#ffc796"/>
      <path fill="#ffe26f" d="m376 65 10 188.42h-80L316 65a30 30 0 1 1 60 0Z"/>
      <circle cx="346" cy="17.5" r="17.5" fill="#ffc796"/>
      <path fill="#d1e16f" d="M436 65v188.43h-60V65a30 30 0 0 1 23.55-29.3A29.24 29.24 0 0 1 406 35a30 30 0 0 1 30 30Z"/>
      <circle cx="406" cy="17.5" r="17.5" fill="#df9f7a"/>
      <path fill="#6957a1" d="M76 79h60v174.43H76Z"/>
      <path fill="#f25853" d="M196 79h60v174.43h-60Z"/>
      <path fill="#ffc54b" d="M316 79h60v174.43h-60Z"/>
      <path fill="#98654c" d="M136 79h60v174.43h-60Z"/>
      <path fill="#feac38" d="M256 79h60v174.43h-60Z"/>
      <path fill="#9ccc4b" d="M406 35a29.24 29.24 0 0 0-6.45.71A22 22 0 0 1 394 79h-18v174.43h60V65a30 30 0 0 0-30-30Z"/>
      <path fill="#997ab8" d="M466 170.26v90.91h-70l10-90.91a30 30 0 0 1 60 0Z"/>
      <circle cx="436" cy="122.76" r="17.5" fill="#df9f7a"/>
      <path fill="#e6f8fc" d="m226 170.26 10 90.91h-80l10-90.91a30 30 0 0 1 60 0Z"/>
      <circle cx="196" cy="122.76" r="17.5" fill="#ffc796"/>
      <path fill="#ffe26f" d="m106 170.26 10 90.91H46v-90.91a30 30 0 0 1 60 0Z"/>
      <circle cx="76" cy="122.76" r="17.5" fill="#ffc796"/>
      <path fill="#3a4b56" d="m346 170.26 10 90.91h-80l10-90.91a30 30 0 0 1 60 0Z"/>
      <circle cx="316" cy="122.76" r="17.5" fill="#df9f7a"/>
      <path fill="#d1e16f" d="M166 170.26v90.91h-60v-90.91a30 30 0 0 1 60 0Z"/>
      <circle cx="136" cy="122.76" r="17.5" fill="#df9f7a"/>
      <path fill="#b77e5a" d="M286 170.26v90.91h-60v-90.91a30 30 0 0 1 60 0Z"/>
      <circle cx="256" cy="122.76" r="17.5" fill="#ffc796"/>
      <path fill="#f7775b" d="M406 170.26v90.91h-60v-90.91a30 30 0 0 1 60 0Z"/>
      <circle cx="376" cy="122.76" r="17.5" fill="#ffc796"/>
      <path fill="#9ccc4b" d="M106 229.37h60v31.8h-60Z"/>
      <path fill="#98654c" d="M226 229.37h60v31.8h-60Z"/>
      <path fill="#f25853" d="M346 229.37h60v31.8h-60Z"/>
      <path fill="#ffc54b" d="M46 229.37h60v31.8H46Z"/>
      <path fill="#d0edf5" d="M166 229.37h60v31.8h-60Z"/>
      <path fill="#26363f" d="M286 229.37h60v31.8h-60Z"/>
      <path fill="#6957a1" d="M466 170.26v90.91h-60v-31.8h12.14a20.12 20.12 0 0 0 20.12-20.12v-38a31 31 0 0 0-16.5-27.39 30 30 0 0 1 44.24 26.4Z"/>
      <path fill="#7ac2ed" d="M482.28 261.17a226.3 226.3 0 0 1-91.66 182.07l-79.73 27.68-15.55-6.52L53 362.84a224.81 224.81 0 0 1-20.22-60l15.32-41.67Z"/>
      <path fill="#68a6dc" d="M482.28 261.17a226.3 226.3 0 0 1-91.66 182.07l-79.73 27.68-15.55-6.52c86.82-26.76 149.93-107.64 149.93-203.23Z"/>
      <path fill="#d1e16f" d="M85.76 261.17c-8 18.93-22.51 35.41-53 41.64a227.66 227.66 0 0 1-3.82-41.64Z"/>
      <path fill="#d0edf5" d="M40.36 497H7.5a7.5 7.5 0 0 0 0 15h32.86a7.5 7.5 0 1 0 0-15ZM143.38 497H75.51a7.5 7.5 0 1 0 0 15h67.87a7.5 7.5 0 0 0 0-15ZM27.5 480h62.87a7.5 7.5 0 0 0 0-15H27.5a7.5 7.5 0 0 0 0 15ZM415 497h-62.91a7.5 7.5 0 1 0 0 15H415a7.5 7.5 0 1 0 0-15ZM504.4 465h-92.86a7.5 7.5 0 1 0 0 15h92.86a7.5 7.5 0 0 0 0-15Z"/>
      <path fill="#d1e16f" d="M296.16 321.92c-7.14 16.33-58.72 12.6-71.33 0-9.76-9.76-14.28-43-8.19-60.75h41.43c22.65 16.36 44.62 45.83 38.09 60.75ZM390.62 443.24A226.82 226.82 0 0 1 53 362.84c89.31 0 34.11-60 75.52-60 55.33 0 48.19 89.82 78.41 105.42 29.86 15.42 52.16-16.88 94.61-16.88 32.25 0 32.6 28.1 54.59 42.95 7.89 5.32 18.57 8.94 34.52 8.94Z"/>
      <path fill="#9ccc4b" d="M356.1 434.3c7.89 5.32 18.57 8.94 34.52 8.94a226.73 226.73 0 0 1-280-7.89 212.78 212.78 0 0 0 245.48-1.05Z"/>
      <path fill="#e6f8fc" d="M511.9 370.36a19.18 19.18 0 0 1-19.18 19.18h-102a26.15 26.15 0 1 1 16-46.85 39.8 39.8 0 0 1 79 7.06c0 .93 0 1.86-.09 2.78a19.2 19.2 0 0 1 26.27 17.83Z"/>
      <path fill="#d0edf5" d="M511.9 370.36a19.18 19.18 0 0 1-19.18 19.18h-102a26.15 26.15 0 0 1-26.15-26.15c0 7.17 8.88 13.64 16.05 13.64h56.78a38.63 38.63 0 0 0 32.3-59.2 39.76 39.76 0 0 1 16 31.92c0 .93 0 1.86-.09 2.78a19.2 19.2 0 0 1 26.27 17.83Z"/>
      <path fill="#3a4b56" d="M504.5 253.43H7.5a7.5 7.5 0 0 0 0 15h497a7.5 7.5 0 0 0 0-15Z"/>
      <path fill="#b77e5a" d="M224.87 373.75a.85.85 0 0 1 .36-.69Z"/>
    </symbol>

    <symbol id="oft-8">
      <title>Complexity</title>
      <path fill="#d3effb" d="M405 98.66a26 26 0 0 1-21.59-7.34 9.59 9.59 0 0 0-6.74-2.86h-1a9.34 9.34 0 0 0-9.34 9.34v37.59a10.3 10.3 0 0 0 10.3 10.3h37.6a9.34 9.34 0 0 1 9.34 9.34v1a9.58 9.58 0 0 1-2.87 6.73 26 26 0 1 0 36.93 0 9.49 9.49 0 0 1-2.85-6.7v-1a9.34 9.34 0 0 1 9.34-9.34h37.6a10.3 10.3 0 0 0 10.3-10.3v-125A10.41 10.41 0 0 0 501.59 0h-125a10.3 10.3 0 0 0-10.3 10.3v37.6a9.34 9.34 0 0 0 9.34 9.34h1a9.5 9.5 0 0 0 6.7-2.85A26 26 0 1 1 405 98.66Z"/>
      <path fill="#80cb8e" d="M413.34 405a26 26 0 0 1 7.34-21.59 9.63 9.63 0 0 0 2.86-6.74v-1a9.34 9.34 0 0 0-9.34-9.34h-37.59a10.3 10.3 0 0 0-10.3 10.3v37.6a9.34 9.34 0 0 1-9.34 9.34h-1a9.58 9.58 0 0 1-6.73-2.87 26 26 0 1 0 0 36.93 9.48 9.48 0 0 1 6.7-2.84h10.34v46.91a10.3 10.3 0 0 0 10.3 10.3h125A10.41 10.41 0 0 0 512 501.59v-125a10.3 10.3 0 0 0-10.3-10.3h-37.6a9.34 9.34 0 0 0-9.34 9.34v1a9.52 9.52 0 0 0 2.84 6.7A26 26 0 1 1 413.34 405Z"/>
      <path fill="#b1e4f9" d="M501.59 0h-26A10.41 10.41 0 0 1 486 10.41v135.28h15.7a10.3 10.3 0 0 0 10.3-10.3v-125A10.41 10.41 0 0 0 501.59 0Z"/>
      <path fill="#66b49d" d="M486 366.31v135.28A10.41 10.41 0 0 1 475.58 512h26A10.41 10.41 0 0 0 512 501.59v-125a10.3 10.3 0 0 0-10.3-10.3Z"/>
      <path fill="#f6e266" d="M107 413.34a26 26 0 0 1 21.59 7.34 9.63 9.63 0 0 0 6.74 2.86h1a9.34 9.34 0 0 0 9.34-9.34v-37.59a10.3 10.3 0 0 0-10.3-10.3H97.79a9.34 9.34 0 0 1-9.34-9.31v-1a9.58 9.58 0 0 1 2.87-6.73 26 26 0 1 0-36.93 0 9.56 9.56 0 0 1 2.84 6.73v1a9.34 9.34 0 0 1-9.34 9.34H10.3A10.3 10.3 0 0 0 0 376.61v125A10.41 10.41 0 0 0 10.41 512h125a10.3 10.3 0 0 0 10.3-10.3v-37.59a9.35 9.35 0 0 0-9.34-9.35h-1a9.52 9.52 0 0 0-6.7 2.84A26 26 0 1 1 107 413.34Z"/>
      <path fill="#ecbe6b" d="M120.71 366.31v47.89a9.51 9.51 0 0 1-.06 1.08 26.24 26.24 0 0 1 8 5.44 9.5 9.5 0 0 0 6.7 2.82h1a9.34 9.34 0 0 0 9.34-9.34v-37.59a10.3 10.3 0 0 0-10.3-10.3ZM128.66 457.59a25.84 25.84 0 0 1-7.94 5.41v49h14.67a10.3 10.3 0 0 0 10.3-10.3v-37.59a9.35 9.35 0 0 0-9.34-9.35h-1a9.5 9.5 0 0 0-6.69 2.83Z"/>
      <path fill="#e28086" d="M98.66 107a26 26 0 0 1-7.34 21.59 9.59 9.59 0 0 0-2.86 6.74v1a9.34 9.34 0 0 0 9.34 9.34h37.59a10.3 10.3 0 0 0 10.3-10.3V97.79a9.34 9.34 0 0 1 9.31-9.34h1a9.58 9.58 0 0 1 6.73 2.87 26 26 0 1 0 0-36.93 9.52 9.52 0 0 1-6.7 2.84h-1a9.34 9.34 0 0 1-9.34-9.34V10.3A10.3 10.3 0 0 0 135.39 0h-125A10.41 10.41 0 0 0 0 10.41v125a10.3 10.3 0 0 0 10.3 10.3h37.6a9.34 9.34 0 0 0 9.34-9.34v-1a9.5 9.5 0 0 0-2.85-6.7A26 26 0 1 1 98.66 107Z"/>
      <path fill="#dd636e" d="M130.05 57.24h1a9.49 9.49 0 0 0 6.69-2.83 26.16 26.16 0 0 1 8-5.44 9.45 9.45 0 0 1-.07-1.07V10.3A10.3 10.3 0 0 0 135.39 0h-14.68v47.9a9.35 9.35 0 0 0 9.34 9.34ZM137.75 91.28a9.53 9.53 0 0 0-6.7-2.83h-1a9.34 9.34 0 0 0-9.34 9.34v47.9h14.67a10.3 10.3 0 0 0 10.3-10.3v-37.6a9.45 9.45 0 0 1 .07-1.07 26 26 0 0 1-8-5.44ZM181.07 46.83A25.93 25.93 0 0 0 168.58 50a26 26 0 0 1 0 45.64 26 26 0 1 0 12.5-48.83Z"/>
      <path fill="#e28086" d="M244.45 66.16h-6.18a7.73 7.73 0 1 0 0 15.45h6.18a7.73 7.73 0 0 0 0-15.45ZM294.38 66.16H279a7.73 7.73 0 1 0 0 15.45h15.36a7.73 7.73 0 1 0 0-15.45ZM335.13 66.16H329a7.73 7.73 0 1 0 0 15.45h6.18a7.73 7.73 0 1 0 0-15.45Z"/>
      <path fill="#d3effb" d="M438.11 230.54a7.73 7.73 0 0 0-7.72 7.73v6.18a7.73 7.73 0 0 0 15.45 0v-6.18a7.73 7.73 0 0 0-7.73-7.73ZM438.11 271.29a7.73 7.73 0 0 0-7.72 7.73v15.36a7.73 7.73 0 1 0 15.45 0V279a7.73 7.73 0 0 0-7.73-7.71ZM438.11 321.22a7.73 7.73 0 0 0-7.72 7.73v6.18a7.73 7.73 0 1 0 15.45 0V329a7.73 7.73 0 0 0-7.73-7.78Z"/>
      <path fill="#80cb8e" d="M273.73 430.39h-6.18a7.73 7.73 0 0 0 0 15.45h6.18a7.73 7.73 0 1 0 0-15.45ZM233 430.39h-15.38a7.73 7.73 0 1 0 0 15.45H233a7.73 7.73 0 1 0 0-15.45ZM183.05 430.39h-6.18a7.73 7.73 0 1 0 0 15.45h6.18a7.73 7.73 0 1 0 0-15.45Z"/>
      <path fill="#f6e266" d="M73.89 259.82a7.73 7.73 0 0 0-7.73 7.73v6.18a7.73 7.73 0 1 0 15.45 0v-6.18a7.73 7.73 0 0 0-7.72-7.73ZM73.89 209.89a7.73 7.73 0 0 0-7.73 7.73V233a7.73 7.73 0 1 0 15.45 0v-15.38a7.73 7.73 0 0 0-7.72-7.73ZM73.89 169.14a7.73 7.73 0 0 0-7.73 7.73v6.18a7.73 7.73 0 0 0 15.45 0v-6.18a7.73 7.73 0 0 0-7.72-7.73Z"/>
      <path fill="#a0aab7" d="M339.66 256a84.47 84.47 0 0 0-.56-9.73 11 11 0 0 1 5.35-10.83l16.28-9.4a11 11 0 0 0 4-15l-15.41-26.69a11 11 0 0 0-15-4L318 189.69a11 11 0 0 1-12.08-.8 83.58 83.58 0 0 0-16.74-9.68 11.11 11.11 0 0 1-6.78-10.16v-18.73a11 11 0 0 0-11-11h-30.81a11 11 0 0 0-11 11v18.73a11.11 11.11 0 0 1-6.78 10.16 83.31 83.31 0 0 0-16.74 9.68 11 11 0 0 1-12.08.8l-16.29-9.41a11 11 0 0 0-15 4L147.24 211a11 11 0 0 0 4 15l16.28 9.4a11 11 0 0 1 5.35 10.83 84.46 84.46 0 0 0-.57 9.73 82.28 82.28 0 0 0 .57 9.73 11 11 0 0 1-5.35 10.83L151.27 286a11 11 0 0 0-4 15l15.41 26.69a11 11 0 0 0 15 4l16.32-9.38a11 11 0 0 1 12.08.8 83.31 83.31 0 0 0 16.74 9.68 11.11 11.11 0 0 1 6.76 10.21v18.73a11 11 0 0 0 11 11h30.82a11 11 0 0 0 11-11V343a11.11 11.11 0 0 1 6.78-10.16 83.58 83.58 0 0 0 16.74-9.68 11 11 0 0 1 12.08-.8l16.29 9.41a11 11 0 0 0 15-4L364.76 301a11 11 0 0 0-4-15l-16.28-9.4a11 11 0 0 1-5.35-10.83 84.47 84.47 0 0 0 .56-9.73ZM256 276.11A20.11 20.11 0 1 1 276.11 256 20.11 20.11 0 0 1 256 276.11Z"/>
      <path fill="#dfeaef" d="M256 204a52 52 0 1 0 52 52 52 52 0 0 0-52-52Zm0 72.14A20.11 20.11 0 1 1 276.11 256 20.11 20.11 0 0 1 256 276.11Z"/>
      <path fill="#808b95" d="m360.73 286-16.28-9.4a11 11 0 0 1-5.35-10.83 84.81 84.81 0 0 0 0-19.46 11 11 0 0 1 5.35-10.83l16.28-9.4a11 11 0 0 0 4-15l-15.41-26.69A11 11 0 0 0 335 180a128.77 128.77 0 0 1 3.61 30.37c0 65-48.11 118.65-110.51 127.08a10.85 10.85 0 0 1 1.53 5.56v18.72a11 11 0 0 0 11 11h30.82a11 11 0 0 0 11-11V343a11.12 11.12 0 0 1 6.78-10.17 83.58 83.58 0 0 0 16.74-9.68 11 11 0 0 1 12.08-.79l16.29 9.4a11 11 0 0 0 15-4L364.76 301a11 11 0 0 0-4-15Z"/>
    </symbol>

    <symbol id="oft-9">
      <title>Movement</title>
      <path fill="#ffdb2d" d="M229.25 255.82A113.65 113.65 0 1 1 115.6 142.17a113.65 113.65 0 0 1 113.65 113.65Z"/>
      <path fill="#ffc125" d="M311.85 255.82A113.65 113.65 0 1 1 198.2 142.17a113.65 113.65 0 0 1 113.65 113.65Z"/>
      <path fill="#ffa71c" d="M389.9 255.82a113.65 113.65 0 1 1-113.64-113.65A113.65 113.65 0 0 1 389.9 255.82Z"/>
      <path fill="#ff8d14" d="M456.55 255.82A113.65 113.65 0 1 1 342.9 142.17a113.65 113.65 0 0 1 113.65 113.65Z"/>
      <path fill="#ff730b" d="M514 255.82a113.65 113.65 0 1 1-113.7-113.65A113.66 113.66 0 0 1 514 255.82Z"/>
      <path fill="#fff" d="M433.65 294.92a7.9 7.9 0 0 1-5.59-13.48l25.84-25.83-25.42-25.42A7.89 7.89 0 0 1 439.64 219l31 31a7.89 7.89 0 0 1 0 11.16l-31.41 31.44a7.88 7.88 0 0 1-5.58 2.32Z"/>
      <path fill="#fff" d="M465.06 263.66h-199a7.89 7.89 0 1 1 0-15.78h199a7.89 7.89 0 0 1 0 15.78Z"/>
    </symbol>

    <symbol id="oft-10">
      <title>Duration</title>
      <path fill="#95d6a4" fill-rule="evenodd" d="M192.55 56.43C95.34 84.14 24.15 173.64 24.15 279.76 24.15 408 128.1 512 256.35 512c105.41 0 194.42-70.23 222.77-166.45a20.24 20.24 0 0 0-38.81-11.5 191.82 191.82 0 0 1-184 137.48c-105.88 0-191.73-85.85-191.73-191.77S150.47 88 256.35 88A20.26 20.26 0 0 0 266 50L177.65 2.41a20.24 20.24 0 0 0-19.18 35.65ZM331.86 103.47a196.31 196.31 0 0 1 22.25 11.3 20.24 20.24 0 0 0 20.62-34.83 237.91 237.91 0 0 0-27-13.7 20.25 20.25 0 1 0-15.92 37.23ZM407.38 129.58a20.29 20.29 0 0 0-2.78 28.5 193.7 193.7 0 0 1 14.54 20.29A20.23 20.23 0 0 0 453.48 157a228.86 228.86 0 0 0-17.61-24.59 20.29 20.29 0 0 0-28.49-2.83ZM459.5 216.13a20.28 20.28 0 0 0-15.59 24 200.92 200.92 0 0 1 3.53 24.7 20.24 20.24 0 0 0 40.35-3.15 236.64 236.64 0 0 0-4.29-29.94 20.28 20.28 0 0 0-24-15.62Z"/>
      <path fill="#eff6ff" fill-rule="evenodd" d="M256.35 130.89a148.87 148.87 0 1 0 148.86 148.87 148.87 148.87 0 0 0-148.86-148.87Z"/>
      <path fill="#d9eeff" fill-rule="evenodd" d="M256.35 138.43a148.92 148.92 0 0 1 0 280.83 146.62 146.62 0 0 1-27.51 6.83 148.88 148.88 0 1 0 27.51-295.2 153 153 0 0 0-22.05 1.61 149.39 149.39 0 0 1 22.05 5.93Z"/>
      <path fill="#2b4d66" d="M256.35 123.17c-86.34 0-156.59 70.25-156.59 156.59s70.24 156.6 156.59 156.6 156.59-70.25 156.59-156.6-70.25-156.59-156.59-156.59Zm123.2 164.05h17.74a140.59 140.59 0 0 1-35.74 86.53l-12.64-12.61A7.72 7.72 0 0 0 338 372.07l12.64 12.62a140.61 140.61 0 0 1-86.57 36v-18a7.73 7.73 0 1 0-15.45 0v18a140.61 140.61 0 0 1-86.55-36l12.64-12.63a7.73 7.73 0 0 0-10.93-10.93l-12.62 12.62a140.55 140.55 0 0 1-35.75-86.54h17.77a7.73 7.73 0 1 0 0-15.45h-17.74a140.64 140.64 0 0 1 36-86.3l12.36 12.38a7.73 7.73 0 1 0 10.93-10.92l-12.35-12.37a140.65 140.65 0 0 1 86.26-35.73v17.48a7.73 7.73 0 1 0 15.46 0v-17.47a140.65 140.65 0 0 1 86.27 35.74L338 186.93a7.73 7.73 0 0 0 10.93 10.93l12.37-12.37a140.6 140.6 0 0 1 36 86.28h-17.75a7.73 7.73 0 1 0 0 15.45Z"/>
      <path fill="#2b4d66" d="M225.52 187.08a7.73 7.73 0 1 0-14.26 5.92l30.23 72.31a7.73 7.73 0 1 0 14.26-5.95ZM317.7 271.77h-36.76a7.73 7.73 0 1 0 0 15.45h36.76a7.73 7.73 0 1 0 0-15.45Z"/>
      <path fill="#ffe07d" fill-rule="evenodd" d="M280.94 279.5a24.59 24.59 0 1 0-24.59 24.59 24.59 24.59 0 0 0 24.59-24.59Z"/>
    </symbol>

    <symbol id="oft-11">
      <title>Explanation</title>
      <path fill="#fedf30" d="M168.63 126.82A163.48 163.48 0 0 0 66.27 420.24a13.94 13.94 0 0 1 5.46 9.8c1.53 17.07-12.68 32.77-22 41.09a3.38 3.38 0 0 0 2.5 5.89c30.15-1.95 48.88-12.57 60.47-24.28a14.05 14.05 0 0 1 13.42-3.74 163.84 163.84 0 0 0 44.73 4.68C258.72 450.79 329 378 328.9 290a163.47 163.47 0 0 0-160.27-163.18Z"/>
      <path fill="#fac600" d="M328.9 290c.1 88-70.18 160.8-158.06 163.65a163.81 163.81 0 0 1-44.72-4.65 14.08 14.08 0 0 0-13.38 3.77c-11.58 11.68-30.31 22.29-60.46 24.23a3.38 3.38 0 0 1-2.5-5.89 83.63 83.63 0 0 0 16.08-19c12.16-4.57 25.28-15 31.93-21.73a14.05 14.05 0 0 1 13.38-3.77c14.26 3.52 27.69 6.53 43.15 6 87.88-2.85 155.62-72.95 155.51-160.87a162.83 162.83 0 0 0-41.33-108.36A163.13 163.13 0 0 1 328.9 290Z"/>
      <path fill="#e8b800" d="M138.74 247H81a7.73 7.73 0 0 1 0-15.45h57.74a7.73 7.73 0 0 1 0 15.45ZM138.74 280.8H81a7.72 7.72 0 1 1 0-15.44h57.74a7.72 7.72 0 1 1 0 15.44ZM177.56 314.61h-47.12a7.72 7.72 0 0 1 0-15.44h47.12a7.72 7.72 0 1 1 0 15.44ZM94.07 314.61H81a7.72 7.72 0 0 1 0-15.44h13.07a7.72 7.72 0 1 1 0 15.44ZM177.56 349H81a7.73 7.73 0 0 1 0-15.45h96.56a7.73 7.73 0 1 1 0 15.45Z"/>
      <path fill="#fe646f" d="M449.63 329.56A163.48 163.48 0 1 0 187 199.36c-.12 87.92 70.17 160.76 158.05 163.62a164.31 164.31 0 0 0 44.73-4.68 14 14 0 0 1 13.37 3.77c11.59 11.71 30.31 22.32 60.46 24.28a3.39 3.39 0 0 0 2.51-5.89c-9.28-8.32-23.48-24-21.95-41.09a14 14 0 0 1 5.46-9.81Z"/>
      <path fill="#fd4755" d="M466.11 380.46a3.38 3.38 0 0 1-2.5 5.88 123.65 123.65 0 0 1-20.57-3 3.39 3.39 0 0 0 1.5-5.82c-9.27-8.32-23.47-24-22-41.09a13.92 13.92 0 0 1 5.47-9.8A163.53 163.53 0 0 0 361.88 36.5a163.49 163.49 0 0 1 87.75 293.06 14 14 0 0 0-5.47 9.81c-1.52 17.06 12.68 32.77 21.95 41.09Z"/>
      <path fill="#e41f2d" d="M434.89 156.32H266.05a7.72 7.72 0 0 1 0-15.44h168.84a7.72 7.72 0 1 1 0 15.44ZM434.89 190.13H320.47a7.73 7.73 0 1 1 0-15.45h114.42a7.73 7.73 0 0 1 0 15.45ZM284.91 190.13h-18.86a7.73 7.73 0 0 1 0-15.45h18.86a7.73 7.73 0 0 1 0 15.45ZM381.53 223.94H266.05a7.73 7.73 0 0 1 0-15.45h115.48a7.73 7.73 0 0 1 0 15.45ZM381.53 258.3h-31.06a7.72 7.72 0 0 1 0-15.44h31.06a7.72 7.72 0 1 1 0 15.44ZM315 258.3h-48.95a7.72 7.72 0 0 1 0-15.44H315a7.72 7.72 0 1 1 0 15.44Z"/>
    </symbol>

    <symbol id="oft-12">
      <title>Frequency of Use</title>
      <path fill="#c9d8e4" d="M503 256c0 135.31-109.69 245-245 245S13 391.31 13 256 122.69 11 258 11s245 109.69 245 245Z"/>
      <path fill="#ff5526" d="M258 51C144.78 51 53 142.78 53 256s91.78 205 205 205 205-91.79 205-205S371.17 51 258 51Zm0 330a125 125 0 1 1 125-125 125 125 0 0 1-125 125Z"/>
      <path fill="#ff4927" d="M258 101a155 155 0 1 0 155 155 155 155 0 0 0-155-155Zm0 280a125 125 0 1 1 125-125 125 125 0 0 1-125 125Z"/>
      <path fill="#ffb23c" d="M254 380.93v80c-106.35-2-192.85-85.06-200.44-189.95H9a7 7 0 0 1-5.9-10.8l91.42-140.19a7 7 0 0 1 11.73 0l91.43 140.19a7 7 0 0 1-5.87 10.83h-58A125 125 0 0 0 254 380.93Z"/>
      <path fill="#ffa40c" d="M53.51 271H9a7 7 0 0 1-5.9-10.82l91.42-140.19a7 7 0 0 1 11.73 0l13.14 20.19-62.21 95.33a5 5 0 0 0 4.19 7.74h15.14a15 15 0 0 1 15 15V271a204.11 204.11 0 0 0 48.69 118.26l-23.48 15.31A204.39 204.39 0 0 1 53.51 271Z"/>
      <path fill="#fff5f5" d="M263 460.91v44.07a7 7 0 0 1-10.83 5.87l-140.23-91.43a7 7 0 0 1 0-11.73l140.18-91.43a7 7 0 0 1 10.88 5.92v58.7a125 125 0 0 0 119.88-120.89h80C460.8 369.7 372.52 458.29 263 460.91Z"/>
      <path fill="#066dae" d="m512.8 251.82-91.43 140.19a7 7 0 0 1-11.73 0l-91.42-140.19a7 7 0 0 1 5.86-10.82h58A125 125 0 0 0 262 131.07v-80c106.34 2 192.85 85 200.44 190h44.55a7 7 0 0 1 5.81 10.75Z"/>
      <path fill="#ff5526" d="M263.77 1.18 404 92.57a7 7 0 0 1 0 11.73l-140.23 91.43a7 7 0 0 1-10.77-5.87V7.01a7 7 0 0 1 10.77-5.83Z"/>
      <path fill="#ff4927" d="m404 104.3-140.23 91.43a7 7 0 0 1-10.77-5.87V101h12.7a15 15 0 0 1 15 15v22.58a5 5 0 0 0 7.73 4.19L384.67 80 404 92.57a7 7 0 0 1 0 11.73Z"/>
      <path fill="#015d96" d="m435.51 370.33-14.14 21.68a7 7 0 0 1-11.73 0l-91.42-140.19a7 7 0 0 1 5.86-10.82h58A125 125 0 0 0 329 153.18l24.87-16.22c32.47 22 53.09 62.49 58.06 104v12.75a15 15 0 0 1-15 15h-18.44a5 5 0 0 0-4.19 7.73Z"/>
      <path fill="#eafaff" d="M410.43 392.98A204.43 204.43 0 0 1 263 460.91v44.07a7 7 0 0 1-10.83 5.87l-140.23-91.43a7 7 0 0 1 0-11.73l14-9.13 101.52 66.21a5 5 0 0 0 7.73-4.19v-14.67a15 15 0 0 1 15-15H263a204.19 204.19 0 0 0 135.66-55.82l11 16.92a7 7 0 0 0 .77.97Z"/>
    </symbol>

    <symbol id="oft-13">
      <title>weight</title>
      <path fill="#dbedff" d="M283.71 382.86V272.14a128.22 128.22 0 0 1-55.42 0v110.72Z"/>
      <path fill="#b5dcff" d="M256 275.17a128.29 128.29 0 0 1-27.71-3v110.69H256Z"/>
      <path fill="#477b9e" d="M256 281.17c-77.52 0-140.59-63.06-140.59-140.58S178.48 0 256 0s140.59 63.07 140.59 140.59S333.52 281.17 256 281.17Z"/>
      <path fill="#3f6d8e" d="M165.53 140.59c0-69 49.92-126.5 115.53-138.35A140.88 140.88 0 0 0 256 0c-77.52 0-140.59 63.07-140.59 140.59S178.48 281.17 256 281.17a140.88 140.88 0 0 0 25.06-2.24c-65.61-11.85-115.53-69.38-115.53-138.34Z"/>
      <circle cx="256.11" cy="140.48" r="107.03" fill="#dbedff" transform="rotate(-10.02 256.03 140.44)"/>
      <path fill="#b5dcff" d="M199.11 140.59a107.2 107.2 0 0 1 81.95-104 107 107 0 1 0 0 208.07 107.2 107.2 0 0 1-81.95-104ZM298.64 413.22v-21.81a12.52 12.52 0 0 0-12.48-12.48h-60.32a12.52 12.52 0 0 0-12.48 12.48v21.81Z"/>
      <path fill="#8bcaff" d="M262.93 378.93h-37.09a12.52 12.52 0 0 0-12.48 12.48v21.81h37.09v-21.81a12.51 12.51 0 0 1 12.48-12.48Z"/>
      <path fill="#3f6d8e" d="M446.2 410.13H65.8a22 22 0 0 0-21.95 21.95v50.8h424.3v-50.8a22 22 0 0 0-21.95-21.95Z"/>
      <path fill="#365e7d" d="M140.43 410.13H65.8a22 22 0 0 0-21.95 21.95v50.8h74.62v-50.8a22 22 0 0 1 21.96-21.95Z"/>
      <path fill="#477b9e" d="M472.57 478.76H39.43a9 9 0 0 0-9 9V503a9 9 0 0 0 9 9h433.14a9 9 0 0 0 9-9v-15.22a9 9 0 0 0-9-9Z"/>
      <path fill="#3f6d8e" d="M105 503v-15.22a9 9 0 0 1 9-9H39.43a9 9 0 0 0-9 9V503a9 9 0 0 0 9 9h74.63a9 9 0 0 1-9.06-9Z"/>
      <path fill="#dd636e" d="m280.43 130.57-19.69-45.33a5.17 5.17 0 0 0-9.48 0l-19.69 45.33a26.64 26.64 0 1 0 48.86 0Z"/>
      <path fill="#da4a54" d="M252.13 130.57 266.28 98l-5.54-12.76a5.17 5.17 0 0 0-9.48 0l-19.69 45.33a26.67 26.67 0 0 0 34.71 35.21 26.67 26.67 0 0 1-14.15-35.21Z"/>
      <path fill="#da4a54" d="M255.52 150.1a7.73 7.73 0 0 1-7.73-7.73v-1.78a7.73 7.73 0 1 1 15.45 0v1.78a7.73 7.73 0 0 1-7.72 7.73Z"/>
      <path fill="#365e7d" d="M256 25.86a114.73 114.73 0 1 0 114.73 114.73A114.86 114.86 0 0 0 256 25.86Zm0 214a99.25 99.25 0 0 1-81.82-43.11l3.89-2.25a7.72 7.72 0 1 0-7.72-13.38l-3.92 2.26a98.71 98.71 0 0 1-9.43-35.07h4.54a7.73 7.73 0 0 0 0-15.45H157a98.66 98.66 0 0 1 9.41-35.06l3.92 2.26a7.72 7.72 0 0 0 7.72-13.38l-3.89-2.25a100 100 0 0 1 25.66-25.66l2.25 3.89a7.72 7.72 0 0 0 13.38-7.72L213.21 51a98.66 98.66 0 0 1 35.06-9.41v4.54a7.73 7.73 0 0 0 15.46 0v-4.52A98.66 98.66 0 0 1 298.79 51l-2.26 3.92a7.72 7.72 0 1 0 13.38 7.72l2.25-3.89a100 100 0 0 1 25.66 25.66l-3.89 2.25a7.72 7.72 0 0 0 7.72 13.38l3.92-2.26a98.66 98.66 0 0 1 9.43 35.08h-4.54a7.73 7.73 0 0 0 0 15.45H355a98.65 98.65 0 0 1-9.41 35.07l-3.92-2.26a7.72 7.72 0 1 0-7.72 13.38l3.89 2.25A99.25 99.25 0 0 1 256 239.86Z"/>
      <path fill="#b5dcff" d="M269.33 192.5h-26.66a7.73 7.73 0 1 0 0 15.45h26.66a7.73 7.73 0 1 0 0-15.45Z"/>
    </symbol>

    <symbol id="oft-14">
      <title>Volume</title>
      <path fill="#97e4f9" d="M257.72 104.06c-86.22 0-156.1-23.29-156.1-52v407.9c0-28.73 69.89-52 156.1-52s156.09 23.3 156.09 52V52.03c0 28.74-69.88 52-156.09 52Z"/>
      <ellipse cx="257.72" cy="52.03" fill="#fba65c" rx="156.1" ry="52.03"/>
      <path fill="#0acefa" d="M394 77.39v357.22c12.59 7.5 19.77 16.15 19.77 25.35V52.03c.04 9.21-7.14 17.85-19.77 25.36Z"/>
      <path fill="#fb9538" d="M257.72 0q-6.59 0-13 .18c80.11 2.2 143.08 24.57 143.08 51.85s-63 49.65-143.09 51.85q6.43.18 13 .18c86.21 0 156.09-23.29 156.09-52s-69.88-52-156.09-52Z"/>
      <ellipse cx="257.72" cy="459.97" fill="#fb9538" rx="156.1" ry="52.03"/>
      <path fill="#fb9538" d="M413.81 459.96a18.76 18.76 0 0 1-1.72 7.73c-11.19 25.07-76 44.31-154.37 44.31-86.21 0-156.1-23.3-156.1-52s69.89-52 156.1-52c78.32 0 143.18 19.23 154.37 44.31a18.71 18.71 0 0 1 1.72 7.65Z"/>
      <path fill="#fc8086" d="M257.72 65.94a7.73 7.73 0 0 0 7.72-7.73v-6.18a7.73 7.73 0 1 0-15.45 0v6.18a7.73 7.73 0 0 0 7.73 7.73ZM257.72 270.17a7.72 7.72 0 0 0 7.72-7.72v-12.93a7.73 7.73 0 1 0-15.44 0v12.9a7.73 7.73 0 0 0 7.72 7.75ZM257.72 229.33a7.73 7.73 0 0 0 7.72-7.73v-12.9a7.73 7.73 0 1 0-15.45 0v12.9a7.73 7.73 0 0 0 7.73 7.73ZM257.72 106.78a7.72 7.72 0 0 0 7.72-7.72v-12.9a7.73 7.73 0 1 0-15.45 0v12.9a7.73 7.73 0 0 0 7.73 7.72ZM257.72 311.02a7.73 7.73 0 0 0 7.72-7.73v-12.9a7.73 7.73 0 0 0-15.45 0v12.9a7.73 7.73 0 0 0 7.73 7.73ZM257.72 147.63a7.73 7.73 0 0 0 7.72-7.73v-12.89a7.73 7.73 0 1 0-15.45 0v12.89a7.73 7.73 0 0 0 7.73 7.73ZM257.72 188.52a7.73 7.73 0 0 0 7.72-7.73v-12.9a7.73 7.73 0 0 0-15.45 0v12.9a7.73 7.73 0 0 0 7.73 7.73ZM257.72 392.71a7.72 7.72 0 0 0 7.72-7.72v-12.9a7.73 7.73 0 1 0-15.45 0v12.9a7.73 7.73 0 0 0 7.73 7.72ZM257.72 351.87a7.73 7.73 0 0 0 7.72-7.73v-12.9a7.73 7.73 0 1 0-15.45 0v12.9a7.73 7.73 0 0 0 7.73 7.73ZM257.72 433.52a7.73 7.73 0 0 0 7.72-7.73v-12.85a7.73 7.73 0 1 0-15.45 0v12.89a7.73 7.73 0 0 0 7.73 7.69ZM265.31 452.37a7.73 7.73 0 0 0-15.31 1.41v6.18a7.73 7.73 0 0 0 7.73 7.73h6.18a7.73 7.73 0 0 0 1.41-15.32ZM380.94 452.24h-12.32a7.73 7.73 0 1 0 0 15.45h12.32a7.73 7.73 0 0 0 0-15.45ZM302.91 452.24h-12.32a7.73 7.73 0 1 0 0 15.45h12.32a7.73 7.73 0 1 0 0-15.45ZM341.92 452.24H329.6a7.73 7.73 0 0 0 0 15.45h12.32a7.73 7.73 0 1 0 0-15.45ZM413.81 459.96a18.76 18.76 0 0 1-1.72 7.73h-4.46a7.73 7.73 0 1 1 0-15.45h4.46a18.71 18.71 0 0 1 1.72 7.72Z"/>
      <path fill="#8f818f" d="M209.85 231.62h-13.09v-23.49a7.73 7.73 0 1 0-15.45 0v62.39a7.73 7.73 0 1 0 15.45 0v-23.45h13.09a2.69 2.69 0 0 1 2.68 2.68v20.77a7.74 7.74 0 1 0 15.47 0v-20.77a18.15 18.15 0 0 0-18.13-18.13ZM341 377.31h-9.1a7.73 7.73 0 0 0-15.31 1.48v52a7.73 7.73 0 0 0 15.45 0v-38.03H341a6.85 6.85 0 0 1 6.84 6.85 7.73 7.73 0 0 0 15.45 0 22.32 22.32 0 0 0-22.29-22.3Z"/>
    </symbol>

    <symbol id="oft-15">
      <title>Lying height</title>
      <path fill="#ebe1dc" d="M336 222.06H20.6A20.6 20.6 0 0 0 0 242.66v177.66a20.6 20.6 0 0 0 20.6 20.6h293.14Z"/>
      <path fill="#fcf5f5" d="M313.74 72.12H491.4a20.6 20.6 0 0 1 20.6 20.6v327.6a20.6 20.6 0 0 1-20.6 20.6H313.74a20.6 20.6 0 0 1-20.61-20.6V92.72a20.61 20.61 0 0 1 20.61-20.6Z"/>
      <path fill="#ebe1dc" d="M491.4 72.12h-30.91a20.6 20.6 0 0 1 20.6 20.6v327.6a20.6 20.6 0 0 1-20.6 20.6h30.91a20.6 20.6 0 0 0 20.6-20.6V92.72a20.6 20.6 0 0 0-20.6-20.6Z"/>
      <path fill="#b9b9be" d="M293.13 399.83v21a20.07 20.07 0 0 0 20.07 20.06h178.73A20.07 20.07 0 0 0 512 420.86v-21Z"/>
      <circle cx="402.48" cy="208.17" r="61.87" fill="#c9eb74" transform="rotate(-80.79 402.5 208.16)"/>
      <circle cx="126.3" cy="328.05" r="60.67" fill="#b2e5fb"/>
      <path fill="#a6a6aa" d="M481.09 399.83v21A20.06 20.06 0 0 1 461 440.92h30.9a20.06 20.06 0 0 0 20.1-20.06v-21Z"/>
      <path fill="#b7e546" d="M402.57 146.29a62 62 0 0 0-15.46 1.94 61.9 61.9 0 0 1 0 119.87 61.89 61.89 0 1 0 15.46-121.81Z"/>
      <path fill="#91dafa" d="M126.3 267.38a61 61 0 0 0-15.45 2 60.68 60.68 0 0 1 0 117.36 60.67 60.67 0 1 0 15.45-119.36Z"/>
      <path fill="#a6a6aa" d="M33.1 357.75a7.72 7.72 0 0 1-7.72-7.75v-37a7.73 7.73 0 1 1 15.45 0v37a7.73 7.73 0 0 1-7.73 7.75Z"/>
      <path fill="#b9b9be" d="M421.1 113H384a7.73 7.73 0 0 1 0-15.45h37.1a7.73 7.73 0 1 1 0 15.45ZM210.62 71.08a94 94 0 0 0-93.5 85.22l-10.2-10.19A7.72 7.72 0 1 0 96 157l23 23a7.71 7.71 0 0 0 10.93 0l23-23A7.73 7.73 0 1 0 142 146.11l-9.17 9.17a78.55 78.55 0 0 1 77.84-68.75 7.73 7.73 0 0 0 0-15.45Z"/>
      <path fill="#fcf5f5" d="M403 243.76a8.92 8.92 0 0 1-8.38-5.91L376.92 187a7.73 7.73 0 0 1 14.6-5.07l11.31 32.57 10.75-32.38a7.73 7.73 0 0 1 14.67 4.88l-16.85 50.68a8.92 8.92 0 0 1-8.37 6.08ZM141.33 298.6a7.73 7.73 0 0 0-7.72 7.73v13.25H119v-13.25a7.73 7.73 0 1 0-15.45 0v43.45a7.73 7.73 0 0 0 15.45 0V335h14.62v14.75a7.73 7.73 0 0 0 15.45 0v-43.42a7.73 7.73 0 0 0-7.74-7.73Z"/>
      <path fill="#b9b9be" d="M464.45 325.13H340.69a7.73 7.73 0 1 1 0-15.45h123.76a7.73 7.73 0 0 1 0 15.45ZM464.45 361.42H340.69a7.73 7.73 0 0 1 0-15.46h123.76a7.73 7.73 0 0 1 0 15.46Z"/>
      <path fill="#a6a6aa" d="M256 291.46h-36.06a7.73 7.73 0 0 1 0-15.45H256a7.73 7.73 0 1 1 0 15.45ZM256 334.8h-36.06a7.73 7.73 0 0 1 0-15.45H256a7.73 7.73 0 1 1 0 15.45ZM256 378.14h-36.06a7.73 7.73 0 0 1 0-15.45H256a7.73 7.73 0 1 1 0 15.45Z"/>
    </symbol>
  </defs>
</svg>
