<svg xmlns="http://www.w3.org/2000/svg" viewBox="0 0 512 512">
  <defs>
    <symbol id="mountain-0">
      <title>tree</title>
      <path fill="#eaa998" d="M216.6 389.6h78.8v99.2h-78.8v-99.2Z" />
      <path fill="#e49280" d="M216.6 389.6h31.8v99.2h-31.8v-99.2Z" />
      <path fill="#7acaa6" d="M470.4 432.5h-.5c-17.8 0-33.6-9-42.8-22.8a51.4 51.4 0 0 1-85.5 0 51.5 51.5 0 0 1-85.6 0 51.4 51.4 0 0 1-85.5 0 51.7 51.7 0 0 1-85.6 0 51.4 51.4 0 0 1-42.8 22.8h-.5a27.8 27.8 0 0 1-19.8-46.9l40.2-43 72-77L256 135l194 207.6 40.2 43a27.8 27.8 0 0 1-19.8 46.9Z" />
      <path fill="#57be92" d="M152.8 426a51.2 51.2 0 0 1-67.9-16.3 51.4 51.4 0 0 1-42.8 22.8h-.5a27.8 27.8 0 0 1-19.8-46.9l40.2-43 72-77 26.8 41.3-14.8 85a47.9 47.9 0 0 0 6.8 34Z" />
      <path fill="#57be92" d="M450 342.6c-3 1.5-6.5 2.4-10.4 2.4h-.4a44 44 0 0 1-36.7-19.5 44 44 0 0 1-73.2 0 44.1 44.1 0 0 1-73.3 0 44 44 0 0 1-73.3 0 44.5 44.5 0 0 1-36.6 19.5 44 44 0 0 1-36.6-19.5A44 44 0 0 1 72.8 345h-.4c-3.8 0-7.3-.9-10.3-2.4L256 135l194 207.6Z" />
      <path fill="#7acaa6" d="M439.6 315h-.4a44 44 0 0 1-36.7-19.6 44 44 0 0 1-73.2 0 44.1 44.1 0 0 1-73.3 0 44 44 0 0 1-73.3 0 44.5 44.5 0 0 1-36.6 19.5 44 44 0 0 1-36.6-19.5 44 44 0 0 1-36.7 19.5h-.4c-20.6-.2-31-25-17-40.1l41.3-44.1 89.8-96.1L256 60l159.3 170.5 41.3 44.2c14 15 3.7 39.9-17 40.1Z" />
      <path fill="#57be92" d="M415.3 230.7c-3.2 1.8-7 3-11.2 3h-.5c-15.4 0-29-7.9-36.9-19.7a44.4 44.4 0 0 1-73.8 0 44.3 44.3 0 0 1-73.8 0 44.6 44.6 0 0 1-73.8 0 44.4 44.4 0 0 1-37 19.6h-.4c-4.2 0-8-1-11.2-3l89.8-96L256 60.2l159.3 170.5Z" />
      <path fill="#57be92" d="M166 278.6a33.7 33.7 0 0 0 5.8 28 43.8 43.8 0 0 1-62.3-11.2 44 44 0 0 1-36.7 19.5h-.4c-20.6-.2-31-25-17-40.1l131-140.2 17.2-1-13.8 45.5-23.7 99.4Z" />
      <path fill="#7acaa6" d="M404 202.5h-.4c-15.4 0-29-7.8-36.9-19.7a44.4 44.4 0 0 1-73.8 0 44.3 44.3 0 0 1-73.8 0 44.6 44.6 0 0 1-73.8 0 44.4 44.4 0 0 1-37 19.7h-.4c-20.7-.2-30.8-25.4-16.3-40.1L214 38.2a58.7 58.7 0 0 1 84.2 0l122.3 124.2c14.5 14.7 4.4 39.9-16.3 40.1Z" />
      <path fill="#57be92" d="M200.2 198.7a44.2 44.2 0 0 1-55-15.9 44.4 44.4 0 0 1-36.8 19.7h-.5c-20.7-.2-30.8-25.4-16.3-40.1L214 38.2a58.7 58.7 0 0 1 34.5-17.1l-56.1 129.1a45.4 45.4 0 0 0 7.9 48.5Z" />
      <path fill="#deecf1" d="M358.3 128.9a225.7 225.7 0 0 1-164.9 15.6c-13.8-4-27-9.2-39.7-15.6a31.7 31.7 0 0 1-8.2-50.5l53.8-54.6A79 79 0 0 1 256 0h.9a79 79 0 0 1 55.8 23.7l53.8 54.7a31.7 31.7 0 0 1-8.2 50.5Z" />
      <path fill="#cbe5e8" d="M193.4 144.4c-13.8-4-27-9.2-39.7-15.5a31.7 31.7 0 0 1-8.2-50.5l53.8-54.7A79 79 0 0 1 256 0h.9c-36 24.4-70.3 100.9-63.5 144.4Z" />
      <path fill="#deecf1" d="M471.5 290.6c0-31.3-37.4-56.6-83.5-56.6s-83.5 25.3-83.5 56.6 37.4 30.3 83.5 30.3 83.5 1 83.5-30.3Z" />
      <path fill="#cbe5e8" d="M343.1 295.5c0 12.5 5.1 20.3 14 25-30.8-1-52.6-6.1-52.6-30 0-31.2 37.4-56.5 83.5-56.5 6.8 0 13.4.5 19.7 1.6-37 6.3-64.6 30.7-64.6 59.9Z" />
      <path fill="#deecf1" d="M213.8 334.8c0-30-33.9-54.4-75.8-54.4s-75.8 24.3-75.8 54.4 34 24 75.8 24 75.8 6 75.8-24Z" />
      <path fill="#cbe5e8" d="M106.4 337c0 12.2 5.2 18.7 14 22-33.3.8-58.2 1.5-58.2-24.2 0-30 34-54.4 75.8-54.4 7.8 0 15.3.8 22.4 2.4-31.3 7-54 28.6-54 54.1Z" />
      <path fill="#deecf1" d="M339 494.3c0-21.6-37.2-39.2-83-39.2s-83 17.6-83 39.2 37.2 17.3 83 17.3 83 4.4 83-17.3Z" />
      <path fill="#cbe5e8" d="M208 497.6c0 7 3.3 11.5 9.2 14.4-26.2-.1-44.1-2.7-44.1-17.7 0-21.6 37.1-39.2 83-39.2 6 0 12 .3 17.7 1-37.6 4-65.8 21-65.8 41.5Z" />
    </symbol>
    <symbol id="mountain-1">
      <title>lodge</title>
      <path fill="#fec165" fill-rule="evenodd" d="M328.2 448.5c16.8-3.2 32.4-7.3 47.3-11.2l-.1-167.7-118-118a7.5 7.5 0 0 0-10.5 0L128.7 269.6v175.8c26.8 14.1 187.9 5.2 199.5 3Z" />
      <path fill="#935d38" fill-rule="evenodd" d="M209.4 444.7c25.9.1 53.6-4.2 85.5-10.2v-88c0-3.6-3-6.6-6.7-6.6H216c-3.6 0-6.6 3-6.6 6.7v98.2Z" />
      <path fill="#9fd4fe" fill-rule="evenodd" d="M252 285a26.9 26.9 0 1 0 0-53.8 26.9 26.9 0 0 0 0 53.7Z" />
      <path fill="#935d38" fill-rule="evenodd" d="M246.9 161.7c2.9-2.9 7.6-2.9 10.5 0l118 118 2.3 2.3a24.3 24.3 0 0 0 34.3-34.3l-145-145a21 21 0 0 0-29.6 0L226.9 113l-25.4 25.4c-6 6-18.5 20.3-16.5 32.2l7.6 45.3 54.3-54.3ZM128.7 279.9l24-24 8.8-32.3c-.2-20.5-24.4-20.6-31.3-13.7l-30.5 30.4-7.4 7.4a24.3 24.3 0 0 0 34.3 34.3l2.2-2.1Z" />
      <path fill="#fdb441" fill-rule="evenodd" d="m128.7 313.7 36.1-36c1.3-12.6-2.8-19.2-12.2-21.7l-23.9 23.9v33.8ZM192.6 249.9l54.3-54.3c2.9-3 7.6-3 10.5 0l118 118V437.3h.1V407l-.1-127.2-118-118a7.5 7.5 0 0 0-10.5 0L192.6 216l-5.7 21.6 5.7 12.3Z" />
      <path fill="#7f4d2a" fill-rule="evenodd" d="M412 282a24.3 24.3 0 0 0 0-34.3l-145-145a21 21 0 0 0-29.5-.2c3.4.9 6.6 2.7 9.3 5.3l145 145a24.3 24.3 0 0 1-1.6 35.8c7.7 1.5 15.9-.7 21.8-6.6ZM209.4 357H273c3.6 0 6.6 3 6.6 6.6v73.7l15.2-2.8v-88c0-3.6-3-6.6-6.7-6.6H216c-3.6 0-6.6 3-6.6 6.7v10.3Z" />
      <path fill="#eff6ff" fill-rule="evenodd" d="M44.7 127.7a19.5 19.5 0 1 0 0-39 19.5 19.5 0 0 0 0 39ZM33.1 336.6a19.5 19.5 0 1 0 0-39 19.5 19.5 0 0 0 0 39ZM337 46a21 21 0 0 0 .1-42.2h-.2A21 21 0 0 0 337 46ZM478.9 242a21.8 21.8 0 1 0 0-43.7 21.8 21.8 0 0 0 0 43.6ZM5.1 508.2h494.2c2.7 0 5-2.2 5-5V406c-47-20.1-85-10.5-128.8 1-14.9 3.8-30.5 8-47.3 11.2l-33.3 6.3a470.7 470.7 0 0 1-85.5 10.2 167.2 167.2 0 0 1-91.2-25.5c-60-36.7-105.3-23.6-118.2-3.2v97.3c0 2.7 2.4 5 5.1 5Z" />
      <path fill="#d9eeff" fill-rule="evenodd" d="M504.4 503v-97a144.4 144.4 0 0 0-30.3-9.4l.7.3v105.9c0 3-2.3 5.4-5.1 5.4h29.6c2.7 0 5-2.2 5-5v-.1Z" />
      <path fill="#85beef" fill-rule="evenodd" d="M252 285a26.9 26.9 0 1 0-9-52.3 27 27 0 0 1-.2 50.6c2.9 1 6 1.6 9.2 1.6Z" />
      <path fill="#d9eeff" fill-rule="evenodd" d="M33.1 336.6a19.5 19.5 0 1 0-8-37.2 19.5 19.5 0 0 1 0 35.5c2.5 1.1 5.2 1.7 8 1.7ZM44.7 127.7a19.5 19.5 0 1 0-8-37.2 19.4 19.4 0 0 1 0 35.5c2.4 1 5.1 1.7 8 1.7ZM337 46a21 21 0 0 0 .1-42.2h-.2c-2.8 0-5.5.6-7.9 1.6a21.1 21.1 0 0 1 0 39c2.5 1 5.2 1.6 8 1.6ZM478.9 242a21.8 21.8 0 1 0-9-41.8 21.9 21.9 0 0 1 0 39.8c2.7 1.3 5.8 2 9 2Z" />
      <path fill="#eff6ff" fill-rule="evenodd" d="M192.6 259.2v-94.8c0-12 3-20 8.9-25.9l25.4-25.4a28.5 28.5 0 0 0-52.2 4.2A34.4 34.4 0 0 0 124 161a44.4 44.4 0 0 0-24.4 79.4l30.5-30.5c6.9-7 22.2-6.8 22.5 13.7v35.7a20 20 0 0 0 40 0Z" />
      <path fill="#d9eeff" fill-rule="evenodd" d="M192.6 237.6v-73.2c0-12 3-20 8.9-26l14.9-14.8a28.2 28.2 0 0 0-24.4-2.4l-8 8c-6 6-9 14-9 26V250a20 20 0 0 1-19.2 20 20.2 20.2 0 0 0 16.8 9.2c11 0 20-9 20-20v-21.6Z" />
      <path fill="#d9eeff" d="M59 228.7c-1 0-2.2-.3-3.2-.8l-44.4-21.3a7.6 7.6 0 0 1 6.6-13.7l44.4 21.3a7.6 7.6 0 0 1-3.3 14.5ZM252 67.5c-1 0-2.2-.3-3.3-.8L164 26.1a7.6 7.6 0 0 1 6.6-13.8L255.3 53a7.6 7.6 0 0 1-3.3 14.5ZM81.8 55.2c-1 0-2.2-.2-3.2-.7l-69-33.2A7.6 7.6 0 1 1 16 7.6l69 33.2a7.6 7.6 0 0 1-3.3 14.4ZM504.4 362c-1.1 0-2.2-.2-3.3-.7l-55-26.5a7.6 7.6 0 0 1 6.5-13.7l55 26.4a7.6 7.6 0 0 1-3.2 14.5ZM447.2 149.7c-1.1 0-2.2-.2-3.3-.8l-75.4-36.2a7.6 7.6 0 0 1 6.6-13.7l75.4 36.2a7.6 7.6 0 0 1-3.3 14.5ZM487 68.9c-1 0-2.2-.3-3.3-.8l-74.7-36a7.6 7.6 0 1 1 6.6-13.6l74.7 35.9a7.6 7.6 0 0 1-3.3 14.5ZM88.4 450.4c-1.5 0-3-.5-4.4-1.5a34.3 34.3 0 0 0-37.4 0 7.6 7.6 0 1 1-9-12.3 49.4 49.4 0 0 1 55.3 0 7.6 7.6 0 0 1-4.5 13.8ZM438.4 456.1c-1.8 0-3.6-.6-5-2-6.8-6-18.2-6-25 0a7.6 7.6 0 1 1-10.1-11.2 34.1 34.1 0 0 1 45.2 0 7.6 7.6 0 0 1-5 13.3ZM330 477c-2 0-3.7-.6-5.2-1.9-6.7-6-18-6-24.8 0a7.6 7.6 0 1 1-10.2-11.3 34.5 34.5 0 0 1 45.2 0 7.6 7.6 0 0 1-5 13.3ZM176 480.4c-1.9 0-3.7-.7-5.2-2-6.7-6-18-6-24.8 0a7.6 7.6 0 1 1-10.2-11.3 34.5 34.5 0 0 1 45.2 0 7.6 7.6 0 0 1-5 13.3Z" />
    </symbol>
    <symbol id="mountain-2">
      <title>snowman</title>
      <path fill="#ab5436" d="M157.4 361.5H96.8l-20.9-20.9a7.5 7.5 0 1 0-10.6 10.6l10.3 10.3H57a7.5 7.5 0 1 0 0 15h34.8l-2.2 2a7.5 7.5 0 1 0 10.6 10.7l12.7-12.8h44.4a7.5 7.5 0 0 0 0-15Z" />
      <path fill="#ef5a50" d="M395.8 38.3c-19.8-14-40-19.4-45.2-12.2 0 0-30 29.6-51.2 50.8a135.5 135.5 0 0 1 52 23.8c18 12.7 31.8 27.3 39.2 40l31.7-63.9c5.2-7.2-6.7-24.5-26.5-38.5Z" />
      <path fill="#1e004c" d="M395.8 38.3c-19.8-14-40-19.4-45.2-12.2l-1.5 1.5c6 2.6 12.3 6.2 18.7 10.7 19.8 14 31.7 31.3 26.6 38.5l-21 42.3c7.4 7.4 13.2 14.8 17.2 21.7l31.7-64c5.2-7.2-6.7-24.4-26.5-38.5Z" opacity=".1" style="isolation:isolate" />
      <path fill="#c73627" d="M272.2 99.9c54.5 0 100.2 38 112 89l13-25.2c9.3-13.2-9.9-42.7-42.8-66-32.9-23.3-67-31.5-76.4-18.4l-20.7 21.2.4.3c4.8-.6 9.6-1 14.5-1Z" />
      <path fill="#1e004c" d="M386.6 127.5c-.3 2.3-1 4.3-2.2 6L372 157.8c5.5 9.6 9.7 20 12.2 31.1l13-25.2c5.5-7.9 1-21.5-10.6-36.2Z" opacity=".1" style="isolation:isolate" />
      <path fill="#b1e8ff" d="M107 471.4a33.4 33.4 0 0 0-15-3.6c-18.2 0-33.8 15.2-40.1 36.7h104.3a143.2 143.2 0 0 1-24.5-71.8c-12 7-21.3 21.3-24.7 38.7ZM416 467.8a33 33 0 0 0-10.8 1.8c-4.2 12.5-10 24.2-17.3 34.9H456c-6.4-21.5-22-36.7-40.2-36.7Z" />
      <path fill="#d7f4ff" d="M358 294.4a117 117 0 1 0-171.6 0H358ZM392 343.8c-.6.5-1.4.8-2.5.8H152c-15 22.7-23.7 49.8-23.7 79s9.1 57.9 24.8 81h238.4a143.3 143.3 0 0 0 .6-160.8Z" />
      <path fill="#1e004c" d="M365.4 214.9c0 30.7-11.9 58.6-31.2 79.5H358a117 117 0 0 0-97.6-196c59 6 105 55.9 105 116.5ZM392 343.8c-.6.5-1.4.8-2.5.8h-20.8c15 22.7 23.7 49.8 23.7 79s-9.2 57.9-24.8 81h23.8a143.3 143.3 0 0 0 .6-160.8Z" />
      <path fill="#463f8e" d="M214.3 189.4a7.5 7.5 0 1 1 0-15 7.5 7.5 0 0 1 0 15ZM301 189.4a7.5 7.5 0 0 1-5.2-12.8 7.4 7.4 0 0 1 10.6 0 7.5 7.5 0 0 1-5.3 12.8Z" />
      <path fill="#ab5436" d="m322 163.5-1.9-.3-19.6-5.2a7.5 7.5 0 1 1 3.9-14.5l19.6 5.2a7.5 7.5 0 0 1-2 14.8ZM199.4 163.5a7.5 7.5 0 0 1-2-14.8l19.7-5.2A7.5 7.5 0 0 1 221 158l-19.6 5.2c-.7.2-1.3.3-2 .3Z" />
      <path fill="#289e48" d="M392.4 340c1.2 2.5 0 4.6-2.9 4.6H151.6c-2.8 0-4.2-2.2-3.1-4.7L165 299c1-2.6 4.2-4.7 7-4.7h193.6c2.8 0 6 2 7.3 4.6l19.5 41Z" />
      <path fill="#64bf70" d="M298.4 294.4h-87.2a7 7 0 0 0-6.4 5l-10.9 40.3c-.7 2.7 1 4.9 3.8 4.9h100.7v-50.2Z" />
      <path fill="#289e48" d="M298.4 294.4h-39a5.7 5.7 0 0 0-5.5 5l-3.8 40.1c-.3 2.8 1.8 5 4.5 5h43.8v-50Z" />
      <path fill="#463f8e" d="M233.3 390a7.5 7.5 0 0 1 0-15 7.5 7.5 0 0 1 7.5 7.5 7.5 7.5 0 0 1-7.5 7.5ZM225.2 426.6a7.5 7.5 0 1 1 0-15 7.5 7.5 0 0 1 0 15ZM233.3 463.2c-2 0-4-.8-5.3-2.2a7.5 7.5 0 0 1 5.3-12.8 7.5 7.5 0 0 1 7.5 7.5 7.5 7.5 0 0 1-7.5 7.5Z" />
      <path fill="#ff9f3d" d="M265.1 229c0 11-9 20-20 20s-117.5-9-117.5-20S234 209 245 209s20 9 20 20Z" />
      <path fill="#775436" d="M245.1 209c-2.5 0-10.3.5-20.6 1.4a20 20 0 0 1 0 37.2c10.3.9 18 1.4 20.6 1.4a20 20 0 1 0 0-40Z" opacity=".1" style="isolation:isolate" />
      <path fill="#ab5436" d="M482.7 361.5h-18.5l10.3-10.3a7.5 7.5 0 1 0-10.7-10.6L443 361.5h-60.6a7.5 7.5 0 1 0 0 15h44.3l12.7 12.7a7.5 7.5 0 0 0 10.6 0c3-3 3-7.7 0-10.6l-2-2.2h34.7a7.5 7.5 0 0 0 0-15Z" />
      <circle cx="166.2" cy="16.9" r="16.9" fill="#b1e8ff" />
      <circle cx="435.9" cy="286.4" r="16.9" fill="#b1e8ff" />
      <circle cx="53" cy="141.7" r="16.9" fill="#e5e5e5" />
      <circle cx="478.6" cy="141.8" r="16.9" fill="#e5e5e5" />
      <path fill="#74b9df" d="M490.5 512h-469a7.5 7.5 0 1 1 0-15h469a7.5 7.5 0 0 1 0 15Z" />
      <path fill="#289e48" d="M307.6 417a7.5 7.5 0 0 1-7.5-7.4v-17.3a7.5 7.5 0 1 1 15 0v17.3c0 4.1-3.3 7.5-7.5 7.5ZM327 417a7.5 7.5 0 0 1-7.6-7.4v-17.3a7.5 7.5 0 1 1 15 0v17.3c0 4.1-3.3 7.5-7.5 7.5ZM346.2 417a7.5 7.5 0 0 1-7.5-7.4v-17.3a7.5 7.5 0 1 1 15 0v17.3c0 4.1-3.4 7.5-7.5 7.5Z" />
      <path fill="#64bf70" d="M355.4 389.6a5 5 0 0 1-5.1 5.1h-46.8a5 5 0 0 1-5-5v-98.4a5 5 0 0 1 5-5h46.8a5 5 0 0 1 5 5v98.3Z" />
      <path fill="#289e48" d="M298.4 321.2h56.9v38.6h-56.9z" />
      <path fill="#1e004c" d="M350.3 286.3h-21.7a5 5 0 0 1 5 5v98.3a5 5 0 0 1-5 5.1h21.7a5 5 0 0 0 5-5v-98.4a5 5 0 0 0-5-5Z" opacity=".1" style="isolation:isolate" />
    </symbol>
    <symbol id="mountain-3">
      <title>sledge</title>
      <path fill="#fece85" d="M72.7 273.1h33.4v96.2H72.7v-96.2ZM231 273.1h33.5v96.2H231v-96.2Z" />
      <path fill="#ffe177" d="M141 150.2a28.9 28.9 0 0 1-27.5-20.4 84.4 84.4 0 0 0-80.6-59.5c-9.3 0-16.9 7.5-16.9 16.9v143l49.4 32h51.8l80-32v-23.7c0-31.1-25.1-56.3-56.2-56.3Z" />
      <path fill="#fece85" d="M197.3 206.5V230l-80 32H80.4l80-32v-23.6c0-31.1-25.1-56.3-56.2-56.3a28.9 28.9 0 0 1-27.5-20.4C68.7 103.5 48 82.7 21.9 74.3c3-2.5 6.8-4 11-4 37.9 0 70 25 80.6 59.5a28.9 28.9 0 0 0 27.5 20.4c31.1 0 56.3 25.2 56.3 56.3Z" />
      <path fill="#c38f86" d="M512 322c0 40.9-33.3 74.2-74.3 74.2H24a24 24 0 0 1 0-47.8h413.8a26.5 26.5 0 0 0 0-53H391a24 24 0 1 1 0-47.8h46.7c41 0 74.3 33.4 74.3 74.3Z" />
      <path fill="#b87d72" d="M512 322c0 40.9-33.3 74.2-74.3 74.2 26.7-26.7 0-47.8 0-47.8a26.5 26.5 0 0 0 0-53c23-23 0-47.8 0-47.8 41 0 74.3 33.4 74.3 74.3Z" />
      <path fill="#dff6fd" d="M497.2 441.7H14.8a14.8 14.8 0 0 1-14-19.4 63 63 0 0 1 101.9-27.6 72.8 72.8 0 0 1 111.3 0 62.8 62.8 0 0 1 84 0 72.7 72.7 0 0 1 111.4 0 63 63 0 0 1 102 27.5c3 9.7-4.1 19.5-14.2 19.5Z" />
      <path fill="#c8effe" d="M497.2 441.7h-81.3c12.3-23.6-6.5-47-6.5-47a63 63 0 0 1 102 27.5c3 9.7-4.1 19.5-14.2 19.5Z" />
      <path fill="#c38f86" d="M310.5 294H16a16 16 0 0 1-16-16v-31.9a16 16 0 0 1 16-16h294.5a16 16 0 0 1 16 16v32a16 16 0 0 1-16 16Z" />
      <path fill="#b87d72" d="M326.5 246.1v32a16 16 0 0 1-16 16h-54a16 16 0 0 0 16-16v-32a16 16 0 0 0-16-16h54a16 16 0 0 1 16 16Z" />
    </symbol>
    <symbol id="mountain-4">
      <title>yeti</title>
      <path fill="#ccc" d="M344.3 161.2S352.4 267.4 400 315c0 0-39 .6-61.3-33l-98-98.5" />
      <path fill="#e6e6e6" d="M113.5 374a19.9 19.9 0 1 1 0-39.8 19.9 19.9 0 0 1 0 39.8Z" />
      <path fill="#e6e6e6" d="M399.3 512H321s-16.8-127.5-58.5-134.8c-41.8 7.4-58.6 134.8-58.6 134.8h-78.4l3-18.4c.8-5.4 4.4-10 9.5-12l13.9-5.9c1.5-2.7 3-5.6 4.3-8.8 30.6-69.6 27.8-230.5 8.8-226.3-42.8 27.5-69.2 122-69.2 122-14.2-83 16.5-147.8 47.2-189.4a293.7 293.7 0 0 1 35.2-39.6c9.4-8.8 15.6-13.4 15.6-13.4A91.8 91.8 0 0 1 283.4 15c50 0 70.7 41.6 70.7 93 0 27.2-5.9 51.7-18.8 68.7l2-1.4c-4.3 69.8 6.7 226.3 30 288 1.8 4.8 3.7 9 5.7 12.5l13.8 5.8c5 2.1 8.7 6.7 9.6 12l3 18.5Z" />
      <path fill="#ccc" d="M401 317.3a19.9 19.9 0 1 1 .1-39.8 19.9 19.9 0 0 1 0 39.8Z" />
      <path fill="#ffd0b8" d="M355.2 107.9a161.2 161.2 0 0 1-5.1 40.3 85.8 85.8 0 0 1-12.8 27.3c-44.7 11.9-84.5-13.2-94.3-48-9.9-35.2 9.3-60 24.2-74.8 14.8-14.8 38.4 7.7 38.4 7.7 26-27.8 45.3 10.1 45.3 10.1 3 11.5 4.3 24.1 4.3 37.4Z" />
      <path fill="#666" d="M287.3 103.6c-3 0-5.5-2.4-5.5-5.4V82.8a5.5 5.5 0 0 1 11 0v15.4c0 3-2.5 5.4-5.6 5.4ZM321 103.6c-3 0-5.5-2.4-5.5-5.4V82.8a5.5 5.5 0 0 1 11 0v15.4c0 3-2.5 5.4-5.6 5.4Z" />
      <path fill="#e2b39f" d="M352.9 136.1c-.8 4.2-1.7 8.2-2.8 12.1h-71.7a6 6 0 0 1 0-12H353Z" />
      <path fill="#ccc" d="M215.5 169.2s-17.2-6.6-37.4-35.7c9.4-8.7 15.6-13.3 15.6-13.3s5.3 32.5 21.8 49ZM275.7 12 289 0l2 17.8a9.3 9.3 0 1 1-15.4-5.9ZM170.6 161h-32.5l28.3-16a8.5 8.5 0 1 1 4.2 16ZM143.5 201.5l-25.7-.6 20.8-15.1a8.7 8.7 0 1 1 4.9 15.7ZM115.5 262.6l-24.4 9.6 14-22.2a8.7 8.7 0 1 1 10.4 12.6ZM191.6 386l-33.7 17.4 23-30a8.4 8.4 0 1 1 10.7 12.6ZM176.2 443l-24.6 13 13-24.6a8.6 8.6 0 1 1 11.6 11.7ZM342.5 314.5l11.4 26.1-24-15.4a8.6 8.6 0 1 1 12.6-10.7ZM348.6 369.2 356 390l-19.8-9.8a8.9 8.9 0 1 1 12.3-11ZM358 427l10.2 18-20-4.7A9 9 0 1 1 358 427ZM354.4 219.8l16.9 21.6-26.2-8a8.6 8.6 0 1 1 9.3-13.6ZM223.6 231.3 211 251.6l-3.7-23.6a8.8 8.8 0 1 1 16.2 3.3ZM227 50l-30-10 31-6.5a8.5 8.5 0 1 1-1 16.5ZM201 89.2l-19-5L198 73a9 9 0 1 1 2.9 16.2ZM312.3 26l31.8-9.8L321 40a8.5 8.5 0 1 1-8.6-14ZM243.3 264.5l-13.6 21.2-2.5-25a8.7 8.7 0 1 1 16 3.8ZM271 286.1l-9.4 18.2-7.1-19.1a9 9 0 1 1 16.4 1ZM297.2 257.9l-4.8 20-11.4-17.2a9 9 0 1 1 16.2-2.8ZM312.6 226.4l-6 18.6-10.3-16.6a9 9 0 1 1 16.3-2ZM225.6 336.3l-13.4 16.4-2.4-21a9 9 0 1 1 15.8 4.6ZM312.6 329.5l-4.8 23.2-11.5-20.8a8.8 8.8 0 1 1 16.3-2.4ZM180.3 475.7h-28.6c1.6-2.7 3-5.6 4.4-8.8l24.2 8.8ZM373 475.7h-37l31.3-12.5c1.8 4.8 3.7 9 5.7 12.5Z" />
      <path fill="#fff" d="m281.9 148.2 6.1-21.3 6 21.3h-12.1zM324.8 148.2l6-21.3 6.1 21.3h-12.1z" />
    </symbol>
    <symbol id="mountain-5">
      <title>polar bear</title>
      <path fill="#a8d3d8" d="M149 255.1s12.3 62.9 23.1 78.4c10.8 15.5 61-56.8 61-56.8l-61.3-47-22.9 25.4Z" />
      <path fill="#eef5f6" d="M469.4 283.8a556.6 556.6 0 0 0-42.7 63.3 41 41 0 0 0-4.8 12l-5 23a9.5 9.5 0 0 1-9.3 7.4h-51a6 6 0 0 1-4.4-10.3l11.8-11.8a10 10 0 0 0 2.8-8.5c-.8-6.1-3-18.7-8.7-43.4a6.5 6.5 0 0 0-6.8-5 98 98 0 0 1-9.5.2c-36.3-.6-58.3-21.3-81.3-25-14.4-2.3-45.9-11.7-78-21-2.7-.8-5.4-13.8-8-14.5-2.9-.8-5.6 10.6-8.4 9.8-31.6-9-61.2-16.9-72.9-16.6-19.8.5-50.8 7.8-63.7 11.1a13 13 0 0 1-11-2.1l-13.2-9.7a13 13 0 0 1-2.5-18.6l18.7-23.6c3.8-4.8 8.8-8.6 14.4-11l2.3-1a62 62 0 0 0 14.3-8.9l14-11.4c18-13.7 74-21.3 97.3-24 6.4-.7 12.7-2.5 18.5-5.4 9-4.5 23.7-10.9 35.2-11.7 12.5-.8 19 7.2 21.9 12.2a6.4 6.4 0 0 0 6.5 3.2l12-1.9c15-2.5 39.7-7.1 71.6-14.7 54.7-13 114.3 14.3 136.7 38a95.6 95.6 0 0 1 3.1 119.9Z" />
      <path fill="#a8d3d8" d="m469.4 283.8 41.8 92.3a9.5 9.5 0 0 1-8.7 13.4h-49.3a6 6 0 0 1-5-9.4l6.3-9.6a6 6 0 0 0-1.4-8l-44-32.7 60.2-46Z" />
      <path fill="#8ebac5" d="m511.1 376-41.8-92.2-21.5 16.4 34.3 75.9a9.5 9.5 0 0 1-8.6 13.4h29a9.5 9.5 0 0 0 8.6-13.4Z" />
      <path fill="#deecf1" d="M469.4 283.8a556.4 556.4 0 0 0-42.7 63.2 40.7 40.7 0 0 0-4.7 12.2l-5 22.8a9.5 9.5 0 0 1-9.4 7.5h-30.5c4.4 0 8.3-3.1 9.2-7.5l5-22.9c1-4.2 2.6-8.3 4.9-12 7.9-13.3 28-46.2 42.6-63.3a95.6 95.6 0 0 0-3.1-120c-16.3-17.1-52.2-36.3-91.6-40.5 50.3-5.7 101.7 19 122.1 40.5a95.6 95.6 0 0 1 3.2 120Z" />
      <path fill="#eef5f6" d="M271.6 248.4 240 331.8c-2.4 6.3-7 11.5-13 14.6L194 363.3a10.1 10.1 0 0 0-5 6l-3.8 12c-1.4 4.9-5.9 8.2-11 8.2h-47.6c-5.1 0-7.1-6.7-2.8-9.5l20.5-13.6c1.2-.8 2.3-1.7 3.2-2.8 7.3-8 39.1-44.5 40.2-60 1.2-17.3-13.7-56.5-3.1-77.6s87 22.4 87 22.4Z" />
      <path fill="#deecf1" d="M260.7 242.5a14 14 0 0 1 6.6 17.3l-27.3 72c-2.4 6.3-7.1 11.5-13.1 14.6L194 363.3a10.1 10.1 0 0 0-5 6l-3.7 12c-1.5 4.9-6 8.2-11 8.2h-30.6c5 0 9.5-3.3 11-8.1l3.2-10.6a14 14 0 0 1 7-8.2l31.4-16.2c6-3 10.7-8.3 13-14.6l31.6-82a14 14 0 0 1 19.4-7.5l.3.2ZM101.3 215c-2 0-3.8-.7-5.3-2.1-3.1-3-3.2-7.8-.3-11 2.5-2.5 5.8-7.6 5.8-10.3 0-.4-.1-.6-.5-1-3-2.8-10.5 2-12.2 3.5a7.7 7.7 0 0 1-9.8-12c.5-.4 4.5-3.7 10-5.8 8.8-3.5 16.8-2.4 22.6 3 3.4 3.2 5.2 7.2 5.3 11.8a27 27 0 0 1-5 15.3 46 46 0 0 1-5 6.3 7.7 7.7 0 0 1-5.6 2.3Z" />
      <path fill="#7a6d79" d="M57.8 223.1a7.7 7.7 0 0 1-7.7-7.7v-5a7.7 7.7 0 1 1 15.4 0v5c0 4.3-3.4 7.7-7.7 7.7Z" />
      <path fill="#deecf1" d="M388 225.8c-23.5 39.7-34.1 71.5-30 89.7a6.5 6.5 0 0 0-6.7-5 98 98 0 0 1-9.5.2c-1.6-27.7 16.5-65 33-92.8a7.7 7.7 0 0 1 13.2 8ZM183.3 226.6c-4.6 9.1-3.2 24-.9 38l-16.3-4.6c-2-14.5-2.3-29 3.4-40.4a7.7 7.7 0 1 1 13.8 7ZM259.4 159.2c-1.2.7-2.5 1-3.7 1a7.7 7.7 0 0 1-6.8-4l-9.5-17a6.4 6.4 0 0 0 6.5 3.3l12-1.9 4.5 8c2 3.8.8 8.5-3 10.6Z" />
    </symbol>
    <symbol id="mountain-6">
      <title>elk</title>
      <path fill="#ffefd2" d="M247.5 103.1a7.6 7.6 0 1 0 10.6-11l-12.2-11.6c4.7-1.4 9.6-3.5 14-7a40.9 40.9 0 0 0 14.7-28.7 7.6 7.6 0 1 0-15.1-1.8c-3 26.1-27 24.4-29.7 24.1h-3a42 42 0 0 0 9.8-27V7.7a7.6 7.6 0 0 0-15.2 0v32.5a27 27 0 0 1-27 27H190c2-3.8 3-8 3-12.6V32.1a7.6 7.6 0 0 0-15.2 0v22.4c0 7-5.6 12.5-12.5 12.5h-9.6c2-3.7 3-8 3-12.5V32.1a7.6 7.6 0 0 0-15.2 0v22.4c0 7-5.6 12.5-12.5 12.5h-25.4c-6.1-3.2-16.4-10.7-17.2-17.6a7.6 7.6 0 1 0-15 1.6C74 57.2 77 62.6 81 67H46.3a7.6 7.6 0 0 0 0 15.3h50.9l7.6 49.8a7.6 7.6 0 1 0 15-2.3l-7.2-47.6h113.3l21.7 20.9Z" />
      <path fill="#7a6d79" d="M319.5 347.8s1.1 28 17.2 47.6a507 507 0 0 1 23 30 13 13 0 0 1 2.3 7.4v70.7c0 4.7 3.9 8.5 8.6 8.5h9.4c4.7 0 8.5-3.8 8.5-8.6l-1.8-175.7-67.2 20ZM157.2 319.8 155 422.4a33 33 0 0 1-.9 6.5l-16.4 72.7A8.5 8.5 0 0 0 146 512h10c4 0 7.5-2.8 8.4-6.8l17-79.5 16.8-91.4-41-14.5Z" />
      <path fill="#918291" d="m454.6 403-19.7 17a7.3 7.3 0 0 0-3.4-5.5l-36.1-22.2c-9-5.5-15.1-25.4-19.2-46.2-.6-3-6.1-13.1-9-12.6-2.5.4-6.9 10-6.9 10-18.4 3-51.7 7.3-85.7 6.6 0 0-4.1-7.4-8-7.6-2.4-.1-8.5 8.9-9.3 11.1l-22.9 68.2a25 25 0 0 0-1.3 8v73.6c0 4.8-3.9 8.6-8.6 8.6h-9.3a8.5 8.5 0 0 1-8.6-8.6v-87l3.1-61.9c.2-3.2-2.2-6-5.4-6.1-12.4-.8-21.8-2-26.4-3.3-23-6.9-48.4-47.2-48.4-47.2S150 194.4 163 201.2c17.3 9.2 71.4 11.4 119.7 10.4 53-1.2 91.8 2.2 118.4 6.1 27.3 4.1 38.8 25.4 50.4 50.5l-19.3 50.3c-4.7 47.6 22.2 81.2 22.5 84.4Z" />
      <path fill="#e08d63" d="m475.3 298-13.9-36.8a7.6 7.6 0 1 0-14.2 5.3l13.8 36.8a7.6 7.6 0 1 0 14.3-5.3Z" />
      <path fill="#7a6d79" d="M461 512h-9.5c-4.4 0-8-3.3-8.5-7.7l-8.4-87.8c-.5-.8-14.8-27-18.7-67-2-20.6 1-41.3 8.2-60.6l6.2-16.6c2-5.2 1.6-10.9-1.1-15.7a124 124 0 0 0-34.5-39.8l6.3 1a81.6 81.6 0 0 1 59.4 41c2 3.5 2.2 7.6.8 11.3l-7.3 19.4a135 135 0 0 0-7.5 66.3 82 82 0 0 0 10.8 33c1.8 2.8 2.8 6 3.1 9.1l9.1 104.8c.5 5-3.5 9.3-8.5 9.3Z" />
      <path fill="#e08d63" d="m39 179.7 5.1 5.2a9 9 0 0 0 8.8 2.3l29-8c2-.5 4 1 4 3 1 18 5 89.4 16 106.5a177.4 177.4 0 0 0 16.8 22.5c1.8 2 5 1.4 6-1.1l2.6-6.6a2 2 0 0 1 3.9.2c3 10 10 31.2 19.2 43.9a4.6 4.6 0 0 0 8.1-1.6l9.6-37.3c.4-1.6 3-1.5 4.1-.2 0 0 11.4-61.6 11-65.5l-20.3-41.8-33.4-23c-5.4-9 5.6-19.2 5.6-19.2-1.3-3.4.8-7 4.3-7.6 10.9-2 31.8-6.8 39.4-17.7 7-10.2.5-20-4.4-25.3a7.8 7.8 0 0 0-9-1.8L116.7 129c-2.9 1.3-6 2-9 2.1-10.2.4-33.8 1.6-36.8 5.9a203.5 203.5 0 0 1-31.2 29.2 9 9 0 0 0-.8 13.5Z" />
      <path fill="#d77f4a" d="M187.8 214a29 29 0 0 0-21-24.3l-10-2.8a23.6 23.6 0 0 1-14.8-12.2c-3-5.9-5.3-11.6-7-15.7-1.2-3.4.9-7 4.4-7.6 10.9-2 31.8-6.8 39.4-17.7 7-10.2.5-20-4.4-25.3a7.8 7.8 0 0 0-9-1.8l-16.7 7.7c3.2 5.3 4.9 12.3 0 19.4-5 7-15.3 11.5-25 14.4a19 19 0 0 0-11.8 26.6 26.8 26.8 0 0 0 22.9 15h1.9a29 29 0 0 1 21 24.3l11 86.7c.4 3 1.6 5.6 3.5 7.8 5 5.7 12 9.4 21 10.7 4 .6 7.3-2.7 6.8-6.5L187.8 214Z" />
      <path fill="#7a6d79" d="M376.2 346a5.3 5.3 0 0 0-6.2-4.2l-9.7 1.7c-3.4-22.1-4.7-41.4-4.7-42.3a7.6 7.6 0 0 1 15.2-1c0 .3 1.4 22.5 5.4 45.9ZM287.3 312.6 274.6 350c-3.8 0-7.6-.2-11.4-.4-2.5-.1-5 1.7-5.8 4l15.5-46a7.6 7.6 0 1 1 14.4 4.9ZM103.7 147.2a7.6 7.6 0 0 0-7.6 7.6v3a7.6 7.6 0 0 0 15.2 0v-3c0-4.2-3.4-7.6-7.6-7.6Z" />
    </symbol>
    <symbol id="mountain-7">
      <title>bench</title>
      <path fill="#ab6b51" d="M297.7 341H329v33.3h-31.4v-33.2Z" />
      <path fill="#965a44" d="M297.7 341h15.9v33.3h-16v-33.2Z" />
      <path fill="#ab6b51" d="M25.4 341h31.4v33.3H25.4v-33.2Z" />
      <path fill="#965a44" d="M25.4 341h15.9v33.3h-16v-33.2Z" />
      <path fill="#ab6b51" d="M56.8 250.8V230c0-3.4-2.8-6.2-6.3-6.2H31.7a6.3 6.3 0 0 0-6.3 6.2v20.8h31.4Z" />
      <path fill="#965a44" d="M47.6 223.8h-16a6.3 6.3 0 0 0-6.2 6.2v20.8h15.9V230c0-3.4 2.8-6.2 6.3-6.2Z" />
      <path fill="#ab6b51" d="M345.3 279.2H6.3a6.3 6.3 0 0 0-6.3 6.3v21c0 3.4 2.8 6.2 6.3 6.2h339c3.5 0 6.3-2.8 6.3-6.3v-20.9c0-3.5-2.8-6.3-6.3-6.3Z" />
      <path fill="#965a44" d="M38.4 306.4v-20.9c0-3.5 2.8-6.3 6.2-6.3H6.3a6.3 6.3 0 0 0-6.3 6.3v21c0 3.4 2.8 6.2 6.3 6.2h38.3a6.3 6.3 0 0 1-6.3-6.3Z" />
      <path fill="#7b6c79" d="M303.6 455.4H53a7.7 7.7 0 1 1 0-15.5h250.6a7.7 7.7 0 1 1 0 15.5Z" />
      <path fill="#dfebfa" d="M450.7 155.1h-13v219.7h25.9V155h-13Z" />
      <path fill="#b1dbfc" d="M444.2 155.1h-6.4v219.7h12.9V155h-6.5Z" />
      <path fill="#fee55a" d="M448.6 78.3V157H476c5.2 0 9.6-3.8 10.4-9l11.2-69.7h-49Z" />
      <path fill="#bc7c63" d="M345.3 248.8H6.3A6.3 6.3 0 0 0 0 255V274c0 3.4 2.8 6.2 6.3 6.2h339c3.5 0 6.3-2.8 6.3-6.2v-19c0-3.4-2.8-6.2-6.3-6.2ZM345.3 311.7H6.3A6.3 6.3 0 0 0 0 318v18.9c0 3.4 2.8 6.3 6.3 6.3h339c3.5 0 6.3-2.9 6.3-6.3v-19c0-3.4-2.8-6.2-6.3-6.2Z" />
      <path fill="#dfebfa" d="M153.7 237c.3-5.5 5.3-10.4 10.8-10.5 1 0 2 0 3 .3 2.4.5 5-.6 6.2-3a17.2 17.2 0 0 1 25.3-6.3 7.5 7.5 0 0 0 8.1.2 16.5 16.5 0 0 1 12.4-1.8c3.8.9 7.6-1 9.3-4.5a25.7 25.7 0 0 1 46 0 8.5 8.5 0 0 0 7 4.6 42.6 42.6 0 0 1 57.5 25.5 5.5 5.5 0 0 1-5.2 7.3H164.8c-6.3 0-11.5-5.4-11.1-11.8Z" />
      <path fill="#b1dbfc" d="M184.9 237c.3-5.5 5.3-10.4 10.8-10.5 1 0 2 0 2.9.3 2.5.5 5.1-.6 6.3-3 1.9-3.8 5.2-6.8 9.2-8.3-2.5.2-4.9 1-7 2.2a7.5 7.5 0 0 1-8.1-.2 17.1 17.1 0 0 0-25.3 6.4 5.6 5.6 0 0 1-6.3 2.9c-.9-.3-1.9-.4-2.9-.3-5.5.1-10.5 5-10.8 10.5a11.2 11.2 0 0 0 11.2 11.8H196c-6.3 0-11.5-5.4-11.1-11.8Z" />
      <path fill="#ab6b51" d="M25.4 401.7V486c0 3.5 2.8 6.3 6.2 6.3h19c3.4 0 6.2-2.8 6.2-6.3v-84.4H25.4Z" />
      <path fill="#965a44" d="M41.3 486.1v-84.4h-16V486c0 3.5 2.9 6.3 6.3 6.3h16a6.3 6.3 0 0 1-6.3-6.3Z" />
      <path fill="#ab6b51" d="M304.9 475.8a10 10 0 0 0 8.3-5.4c3.4-6.6 9-11.8 16-14.5v-54.2h-31.5v71.6c2.5.6 4.9 1.5 7.2 2.5Z" />
      <path fill="#965a44" d="M313.6 401.7h-16v71.6c2.5.6 5 1.5 7.3 2.5a10 10 0 0 0 8.3-5.4l.4-.7v-68Z" />
      <circle cx="206.6" cy="155.1" r="15.4" fill="#dfebfa" />
      <path fill="#b1dbfc" d="M206.6 155.1c0-5.7 3-10.6 7.7-13.3a15.4 15.4 0 1 0 0 26.6 15.4 15.4 0 0 1-7.7-13.3Z" />
      <circle cx="148.4" cy="82.6" r="21.3" fill="#dfebfa" />
      <circle cx="220.2" cy="19.5" r="19.5" fill="#dfebfa" />
      <path fill="#b1dbfc" d="M146.5 82.6c0-8.3 4.7-15.4 11.6-19a21.3 21.3 0 0 0-31 19 21.3 21.3 0 0 0 31 19 21.3 21.3 0 0 1-11.6-19ZM220.1 19.5c0-7.3 4-13.5 9.8-16.9a19.5 19.5 0 1 0 0 33.7 19.5 19.5 0 0 1-9.8-16.8Z" />
      <path fill="#7b6c79" d="M467.5 372.3h-33.7a7.5 7.5 0 0 0-7.5 7.5v98.7c2.1 1.8 3.9 4 5.1 6.4 1.4 2.7 4.4 4.1 7.3 3.4a12.2 12.2 0 0 1 9 1.2H475V379.8c0-4.2-3.3-7.5-7.5-7.5Z" />
      <path fill="#665e68" d="M446.6 379.8c0-4.2 3.3-7.5 7.4-7.5h-20.2a7.5 7.5 0 0 0-7.5 7.5v98.7c2.1 1.8 3.9 4 5.1 6.4 1.4 2.7 4.4 4.1 7.3 3.4a12 12 0 0 1 7.8.7V379.8Z" />
      <path fill="#ffd301" d="M403.7 78.3 415 148c.8 5.3 5.3 9 10.5 9h25.3V78.4h-47Z" />
      <path fill="#ffc20c" d="m436.3 148-11.2-69.7h-21.4L415 148c.8 5.3 5.3 9 10.5 9h21.4c-5.2 0-9.6-3.7-10.5-9Z" />
      <path fill="#7b6c79" d="M463 25.6V4.8c0-2.6-2.2-4.8-4.9-4.8h-14.9a4.8 4.8 0 0 0-4.8 4.8v20.8H463Z" />
      <path fill="#665e68" d="M455.5 0h-12.3a4.8 4.8 0 0 0-4.8 4.8v20.8h12.3V4.8c0-2.7 2.1-4.8 4.8-4.8ZM496.4 487.5h-49.8c4 2.1 7 6.2 7.2 10.7.4 7.5-5.7 13.8-13.3 13.8h55.9c2.7 0 4.9-2.2 4.9-4.8v-15c0-2.6-2.2-4.7-5-4.7Z" />
      <path fill="#554e56" d="M468.1 507.2v-15c0-2.6 2.2-4.7 5-4.7h-26.5c4 2.1 7 6.2 7.2 10.7.4 7.5-5.7 13.8-13.3 13.8H473c-2.7 0-4.9-2.2-4.9-4.8Z" />
      <path fill="#dfebfa" d="M495.8 56.3v-1.9c0-17-13.3-30.9-29.8-30.9h-30.6a30.4 30.4 0 0 0-29.9 30.9v1.9h90.3Z" />
      <path fill="#b1dbfc" d="M457.8 23.5h-22.4a30.4 30.4 0 0 0-29.9 30.9v1.9h22.4v-1.9c0-17 13.4-30.9 30-30.9Z" />
      <path fill="#7b6c79" d="M507.2 55.3h-113a4.8 4.8 0 0 0-4.9 4.8V75c0 2.6 2.2 4.8 4.8 4.8h113c2.7 0 4.9-2.2 4.9-4.8V60c0-2.6-2.1-4.7-4.8-4.7Z" />
      <path fill="#665e68" d="M420.8 75V60c0-2.6 2.1-4.7 4.8-4.7H394a4.8 4.8 0 0 0-4.8 4.8V75c0 2.6 2.2 4.8 4.8 4.8h31.5a4.8 4.8 0 0 1-4.8-4.8Z" />
      <path fill="#bc7c63" d="M345.3 372.3H6.3a6.3 6.3 0 0 0-6.3 6.3v18.8c0 3.5 2.8 6.3 6.3 6.3h339c3.5 0 6.3-2.8 6.3-6.2v-19c0-3.4-2.8-6.2-6.3-6.2Z" />
      <path fill="#ab6b51" d="M38.4 274v-19c0-3.4 2.8-6.2 6.2-6.2H6.3A6.3 6.3 0 0 0 0 255V274c0 3.4 2.8 6.2 6.3 6.2h38.3a6.3 6.3 0 0 1-6.3-6.2ZM38.4 336.9v-19c0-3.4 2.8-6.2 6.2-6.2H6.3A6.3 6.3 0 0 0 0 318v18.9c0 3.4 2.8 6.3 6.3 6.3h38.3a6.3 6.3 0 0 1-6.3-6.3ZM38.4 397.4v-18.8c0-3.5 2.8-6.3 6.2-6.3H6.3a6.3 6.3 0 0 0-6.3 6.3v18.8c0 3.5 2.8 6.3 6.3 6.3h38.3a6.3 6.3 0 0 1-6.3-6.2Z" />
      <path fill="#dfebfa" d="M454.8 498.2c-.4-6.4-6.2-12-12.6-12.3a13 13 0 0 0-3.5.4c-2.9.6-6-.8-7.3-3.4a20.1 20.1 0 0 0-29.5-7.5c-2.9 2-6.6 2-9.6.3a19.3 19.3 0 0 0-14.5-2.2 9.6 9.6 0 0 1-10.8-5.2 30.1 30.1 0 0 0-53.8 0 9.9 9.9 0 0 1-8.3 5.4 50 50 0 0 0-67.2 29.8 6.4 6.4 0 0 0 6 8.5h198a13 13 0 0 0 13-13.8Z" />
      <path fill="#b1dbfc" d="M268.3 503.5c5-14.9 17-26.6 32-31.5a50.1 50.1 0 0 0-62.6 31.5 6.4 6.4 0 0 0 6 8.5h30.6a6.4 6.4 0 0 1-6-8.5ZM315.7 469.7a50 50 0 0 1 19.7 4 10 10 0 0 0 8.4-5.4c2.6-5.1 6.6-9.4 11.6-12.3a30 30 0 0 0-42.2 12.3c-.2.6-.6 1-1 1.5l3.5-.1Z" />
    </symbol>
    <symbol id="mountain-8">
      <title>rock</title>
      <path fill="#848484" d="m93.8 174 50-159.2C146.7 6 154.9 0 164.2 0h95.3c3.1 0 6.2.7 9 2l118 56.3c5.9 2.8 10.1 8.1 11.5 14.4L428 204.8c.8 3.4 2.4 6.5 4.6 9.1l62 72c4.3 5 6 11.5 4.8 17.8l-38.2 201.4c-.8 4-4.3 6.9-8.4 6.9h-322L92.8 182.7c-.3-3 0-5.9.9-8.7Z" />
      <path fill="#717171" d="m499.4 303.7-38.3 201.4c-.7 4-4.2 6.9-8.3 6.9h-37.6l37.1-203.7c1.2-6.6-.5-13.4-4.7-18.5l-62-75c-2.3-2.6-3.9-5.9-4.7-9.4L362 95.9c-1.4-6.6-5.6-12.1-11.5-15L206 0h53.4c3.1 0 6.2.7 9 2l118 56.3c5.8 2.8 10 8.1 11.5 14.4L428 204.8c.8 3.4 2.4 6.5 4.6 9.1l62 72c4.3 5 6 11.5 4.8 17.8Z" />
      <path fill="silver" d="M14.8 494 46 456.9c1.2-1.4 2.5-2.7 3.9-3.8l91-74.4c5.2-4.2 8.8-10 10-16.6l7.3-36a28.8 28.8 0 0 1 24.7-23l45.7-5.6 32.5-4c7.2-.8 14.4 1 20.3 5.3l52.9 38.1c4 3 7.2 6.8 9.3 11.3l25.5 55.7 1.6 3 54 88.6a11 11 0 0 1-9.3 16.6H23a11 11 0 0 1-8.3-18Z" />
      <path fill="#aeaeae" d="M415.4 512h-30.2c-.3-1.1-.7-2.3-1.4-3.3l-57.5-94.5c-.7-1-1.2-2-1.7-3.2l-27.3-59.2c-2.2-4.8-5.6-9-9.9-12L231.1 299a33 33 0 0 0-2.5-1.6l32.5-4c7.2-.9 14.4 1 20.3 5.2l52.8 38.2c4 2.9 7.3 6.8 9.3 11.3l25.6 55.6 1.6 3 54 88.6c4.4 7.3-.8 16.6-9.3 16.6Z" />
      <path fill="#5a5a5a" d="M189.5 129.8a7.5 7.5 0 0 1-7.5-7.5v-19.9a7.5 7.5 0 0 1 15 0v20c0 4-3.4 7.4-7.5 7.4ZM189.5 227.2a7.5 7.5 0 0 1-7.5-7.5v-71.9a7.5 7.5 0 0 1 15 0v71.8c0 4.2-3.4 7.6-7.5 7.6ZM227 140.9a7.5 7.5 0 0 1-7.6-7.5v-62a7.5 7.5 0 0 1 15 0v62c0 4.1-3.3 7.5-7.5 7.5ZM291.6 239.4a7.5 7.5 0 0 1-7.5-7.5v-24.5a7.5 7.5 0 0 1 15 0v24.5c0 4.1-3.3 7.5-7.5 7.5ZM241.8 198a7.5 7.5 0 0 1-7.5-7.5V166a7.5 7.5 0 0 1 15 0v24.5c0 4.2-3.3 7.5-7.5 7.5ZM426.3 392a7.5 7.5 0 0 1-7.5-7.4v-55.8a7.5 7.5 0 0 1 15 0v55.8c0 4-3.4 7.4-7.5 7.4Z" />
      <path fill="#9d9d9d" d="M328.9 446.1c-.9 0-1.7-.1-2.5-.4l-36.6-13c-2.4-.8-4.1-2.7-4.8-5l-14.2-51.5-22.2-26.8a7.5 7.5 0 1 1 11.6-9.6l23.2 28.1c.7.8 1.2 1.8 1.4 2.8l13.6 49.2 33 11.6a7.5 7.5 0 0 1-2.5 14.6Z" />
      <path fill="#5a5a5a" d="M392.8 273.2c-1.8 0-3.5-.6-5-1.8l-34.2-30c-1.2-1-2-2.5-2.4-4l-26.3-125-17-16.1a7.5 7.5 0 1 1 10.3-11l18.7 17.8c1.1 1 1.9 2.4 2.2 3.9l26.3 124.8 32.3 28.3a7.5 7.5 0 0 1-5 13.1Z" />
    </symbol>
    <symbol id="mountain-9">
      <title>snow</title>
      <path fill="#eaf6ff" d="M447.9 340.8a10.9 10.9 0 0 0-13-4.5l-18.6 6.8c-2 .8-4.1 1-6.2.5l-18.5-4.2c-2.2-.5-4.5-.3-6.5.6l-21.7 9c-6.1 2.5-8.5 10-5.1 15.6l5.9 9.8 103.6-1.4-20-32.3ZM211.3 405.2a9 9 0 0 0-2.6-5.5l-17.5-17.2a9 9 0 0 0-10.3-1.6l-27.1 13.3a9 9 0 0 0-3.4 3l-5.2 7.4a9 9 0 0 1-11.7 2.8l-9-5a9 9 0 0 0-13.3 6.7l-3.6 25.3h106.9l-3.2-29.2Z" />
      <path fill="#c4e2ff" d="M225.8 442H93.9a7.5 7.5 0 0 1 0-15h131.9a7.5 7.5 0 0 1 0 15ZM504.5 442h-56.8a7.5 7.5 0 0 1 0-15h56.8a7.5 7.5 0 0 1 0 15ZM474.5 382H342.7a7.5 7.5 0 0 1 0-15h131.8a7.5 7.5 0 0 1 0 15ZM323.4 340.7H295a7.5 7.5 0 0 1 0-15h28.3a7.5 7.5 0 0 1 0 15ZM158.4 340.7H145a7.5 7.5 0 0 1 0-15h13.3a7.5 7.5 0 0 1 0 15ZM113.4 340.7H25a7.5 7.5 0 0 1 0-15h88.3a7.5 7.5 0 0 1 0 15Z" />
      <path fill="#eaf6ff" d="M490.5 276.8h-469l47.2-63c1.8-2.8 4.6-4.7 8-5.2L115 188l22.2-34.6a13 13 0 0 1 7.7-7l39-13.2 43.7-60.7a8 8 0 0 1 11.6 0l63.9 66.6a10 10 0 0 0 7.2 3h22.4l.8.1a10 10 0 0 1 6.5 3l41.1 43h36a5 5 0 0 1 3.8 1.8l69.6 86.8Z" />
      <path fill="#b3dafe" d="m131.9 240.7 23.3-8.8a5 5 0 0 0 3.2-4.6l.6-32.2a5 5 0 0 1 2.8-4.3l34.7-17.9a6 6 0 0 0 3-4l28.9-97.1-42.2 44a14 14 0 0 1-5.6 3.5l-35.3 12a14 14 0 0 0-8.3 7.5L118.1 181a14 14 0 0 1-10.7 8L77 193.6a14 14 0 0 0-9 5.3l-46.5 78h108.3l-1.2-31.3a5 5 0 0 1 3.3-4.8ZM332.2 235l-18.9 14.2c-2.6 2-4 5-4 8.2l.4 19.4h-78l21.5-18.8a7 7 0 0 0 2.4-5.2l.3-25.5a7 7 0 0 1 3-5.7l25.1-17.1a7 7 0 0 0 3-6.6l-2.1-18.6a7 7 0 0 1 1-4.5l20-33.6c1.4.6 2.9 1 4.4 1h23.2l-5.8 37.7a7 7 0 0 0 0 2.4L336 225a10 10 0 0 1-3.8 9.9ZM417 188.2h-35.9l34.7 48.2c2.8 4 9 2 9-3V195L421 190a5 5 0 0 0-3.9-1.9Z" />
      <path fill="#d8ecfe" d="M504.5 284.3H7.5a7.5 7.5 0 0 1 0-15h497a7.5 7.5 0 0 1 0 15Z" />
    </symbol>
    <symbol id="mountain-10">
      <title>dead tree</title>
      <path fill="#cdb1b1" d="M248.4 183.3c-2.5 24.3-4.4 44-6 60.8l-51.2-51.2v-51.2a7.6 7.6 0 0 0-15.2 0v36l-59-59a7.6 7.6 0 0 0-10.8 10.8l15.4 15.4H95.8a7.6 7.6 0 0 0 0 15.2h41l103.7 103.7a1103 1103 0 0 0-4.6 96.9l-49.3-40.3-17.2-17.2v-76.4a7.6 7.6 0 0 0-15.2 0v61.1l-21.3-21.2-.1-.2L74 207.8a7.6 7.6 0 0 0-10.8 10.8l45.8 45.8H48.8a7.6 7.6 0 0 0 0 15.2h75.5L176 331l15.6 19.2h-56.8l-41.2-41.2A7.6 7.6 0 0 0 82.8 320l30.4 30.4H66a7.6 7.6 0 0 0 0 15.2h138l31.8 38.5v26.8h30.5v-30.5c0-91.9-12.4-188.4-17.8-217ZM187 44.1h40.3l22.3 22.3a7.6 7.6 0 0 0 10.8 0c3-3 3-7.8 0-10.7l-42.5-42.5A7.6 7.6 0 0 0 207.1 24l5 5h-25a7.6 7.6 0 0 0 0 15.1ZM140 89h40.4l70.2 70.2c1.5 1.5 3.4 2.2 5.4 2.2s5.4-2.2 5.4-2.2 3-7.8 0-10.8L226 113.1V74.9a7.6 7.6 0 0 0-15.2 0v23L166 53a7.6 7.6 0 0 0-10.8 10.8l10 10H140a7.6 7.6 0 0 0 0 15.2Z" />
      <path fill="#b79090" d="M446.4 301.2H397l23.8-23.8a7.6 7.6 0 1 0-10.7-10.8l-34.6 34.6h-54.2L336 283l51.6-51.6h58.6a7.6 7.6 0 0 0 0-15.2H403l31.6-31.5a7.6 7.6 0 1 0-10.8-10.8L351 246.7v-50.6a7.6 7.6 0 0 0-15.2 0v65.8l-10.3 10.3-50.5 41.3a1752 1752 0 0 0-7.6-93.7l83.2-83.2h52.7a7.6 7.6 0 0 0 0-15.3h-37.5l21-21A7.6 7.6 0 1 0 376 89.6L320.5 145v-38.9a7.6 7.6 0 0 0-15.2 0v54.2l-40 40-1.7-17 .4-74.9 40-40h48.5a7.6 7.6 0 0 0 0-15.2h-33.3L331.5 41A7.6 7.6 0 1 0 320.8 30l-57.2 57.2V7.6a7.6 7.6 0 0 0-15.2 0v175.7c8 80 7.6 126.3 7.6 217v27.2l-20.3 3.3v30.5h40.6v-61c0-17 0-31.3-.2-44.1a5943 5943 0 0 0 32.7-39.8h137.5a7.6 7.6 0 0 0 0-15.2Z" />
      <path fill="#f5fcff" d="M487.9 453A291.6 291.6 0 0 0 381 434c-96.4 0-187.7 36.4-369.6 37.4a7.6 7.6 0 0 0-7.6 7.6v2.6l476.8 19.9c9.2.2 16.5-7.8 15.5-17l-8.2-31.6Z" />
      <path fill="#d8e2f3" d="M487.9 453v21c0 4.1-3.4 7.5-7.6 7.5H3.8v15.3c0 8.4 6.8 15.2 15.2 15.2h474c8.4 0 15.2-6.8 15.2-15.2V467c0-2.8-1.6-5.4-4-6.7-3.5-1.8-9-4.5-16.3-7.4Z" />
    </symbol>
    <symbol id="mountain-11">
      <title>sign</title>
      <path fill="#0ed2b3" d="M363.8 180.8c-1.7 0-3.4-.2-5-.3a517 517 0 0 0-26.3-2l-69.1-23S243 131.7 239.8 132a113.3 113.3 0 0 0-72.8 35.3 43 43 0 0 1-31.4 13.6h-85v172.1h398V180.8h-84.8Z" />
      <path fill="#0ab69f" d="M417.8 180.8h30.9v172.1h-31V180.8Z" />
      <path fill="#3692bc" d="M98.3 311.6V222c0-1.7 1.4-3 3-3H398c1.7 0 3.1 1.3 3.1 3v89.6c0 1.7-1.4 3.1-3.1 3.1H101.4a3.1 3.1 0 0 1-3.1-3ZM30.5 137.6h29.6v339H30.5v-339ZM439.3 137.6h29.6V473h-29.6V137.6Z" />
      <path fill="#0ed2b3" d="M9 132.3c0-8.7 7-15.7 15.6-15.7H66a15.6 15.6 0 0 1 0 31.3H24.6c-8.7 0-15.6-7-15.6-15.6ZM417.7 132.3c0-8.7 7-15.7 15.6-15.7h41.5a15.6 15.6 0 0 1 0 31.3h-41.5c-8.6 0-15.6-7-15.6-15.6Z" />
      <path fill="#d8ecfe" d="M496.6 458H483a4 4 0 0 1-3.8-3.2 47.9 47.9 0 0 0-93.9.7c-.2 1.2-1.4 2-2.6 1.6a30.9 30.9 0 0 0-38.2 26.2 4 4 0 0 0 4 4.6H497a15 15 0 0 0 15-15.7c-.4-8-7.3-14.3-15.4-14.3Z" />
      <path fill="#b3dafe" d="M496.6 458H483a4 4 0 0 1-3.8-3.2 47.9 47.9 0 0 0-57.1-37 48 48 0 0 1 36.5 37 4 4 0 0 0 3.8 3.2H476c8 0 15 6.2 15.4 14.2a15 15 0 0 1-15 15.8H497a15 15 0 0 0 15-15.8c-.4-8-7.3-14.2-15.4-14.2Z" />
      <path fill="#d8ecfe" d="m157.2 464-40.8-6a10 10 0 0 1-8-6.7 44.6 44.6 0 0 0-85.2 1.5 25 25 0 0 0-21.5 33.8 2 2 0 0 0 1.9 1.3h187.1a2 2 0 0 0 1.6-3.3 54.7 54.7 0 0 0-35.1-20.5Z" />
      <path fill="#b3dafe" d="M88.8 456.5a10 10 0 0 0 8 6.7l40.8 6c13.2 2 25.1 8.7 33.7 18.7h19.4a2 2 0 0 0 1.6-3.3 54.7 54.7 0 0 0-35.1-20.5l-40.8-6a10 10 0 0 1-8-6.8 44.6 44.6 0 0 0-53-29.4c16.7 4.5 28.5 19.6 33.4 34.6Z" />
      <path fill="#d8ecfe" d="M358.8 180.5v74a15 15 0 0 1-29.9 0v-52.8c0-4.8-3.8-8.7-8.5-8.8a36.1 36.1 0 0 1-26.7-12.2l-4.3-4.7a18.5 18.5 0 0 0-13.7-6.2h-9a27 27 0 0 1-26.9-26.9v-11a113.2 113.2 0 0 1 92.6 35.3 43 43 0 0 0 26.4 13.3ZM357.2 24a16 16 0 1 0 0 32 16 16 0 0 0 0-32ZM167.5 81.1a16 16 0 1 0 0 32 16 16 0 0 0 0-32Z" />
    </symbol>
    <symbol id="mountain-12">
      <title>hole</title>
      <path fill="#98a7ae" d="M395.8 256c0 20.6-14.6 39.2-38.4 53-25.5 14.8-61.5 24-101.4 24-77.2 0-139.8-34.4-139.8-77s62.6-77 139.8-77c18 0 35.3 1.8 51.2 5.3 51.9 11.2 88.6 39.1 88.6 71.7Z" />
      <path fill="#7b888e" d="M395.8 256c0 20.6-14.6 39.2-38.4 53-10.1-21-21.2-46.5-21.2-57.1 0-19.5-10.5-62.7-29-67.6 51.9 11.2 88.6 39.1 88.6 71.7Z" />
      <path fill="#332f41" d="M385.2 285.5c-21 28-71 47.6-129.2 47.6s-108.2-19.7-129.2-47.6c21-28 71-47.6 129.2-47.6s108.2 19.7 129.2 47.6Z" />
    </symbol>
  </defs>
</svg>
