<?xml version="1.0" encoding="UTF-8"?><svg id="a" xmlns="http://www.w3.org/2000/svg" viewBox="0 0 1536 1024"><path d="m192.23,785.83c0,14.23.15,19.69,1.21,26.35h-32.56c1.06-6.66,1.36-12.72,1.36-25.89v-78.44c0-9.99-.3-14.99-1.21-22.11,6.21.3,10.45.45,22.11.45h43.76c13.33,0,18.32-.15,25.44-1.06v28.77c-6.66-.76-12.57-1.06-25.29-1.06h-34.83v24.83h28.47c11.81,0,17.57-.3,24.23-1.06v28.01c-6.66-.76-12.72-1.06-24.23-1.06h-28.47v22.26Z" style="fill:#3a7ca5; stroke-width:0px;"/><path d="m343.36,812.18c-1.21-7.27-2.12-11.21-3.63-16.35l-4.09-12.87h-43.16l-4.09,12.87c-1.97,6.06-3.03,10.75-3.79,16.35h-35.43c2.27-4.54,3.63-8.18,7.27-18.47l32.71-91.16c2.73-7.42,4.09-11.96,4.85-16.35h39.52c1.06,4.39,2.12,8.33,5.15,16.35l32.86,91.16c2.88,8.03,5.3,14.23,7.27,18.47h-35.43Zm-29.53-100.09l-14.08,45.43h28.47l-14.39-45.43Z" style="fill:#3a7ca5; stroke-width:0px;"/><path d="m470.1,730.11c-2.88-13.78-10.9-20.59-23.93-20.59-18.47,0-29.23,14.54-29.23,39.52s11.21,39.67,29.98,39.67c8.33,0,15.45-3.48,19.84-9.54,2.57-3.63,3.63-6.66,4.54-13.02l31.5,4.69c-2.88,12.87-6.21,20.29-12.57,27.71-9.39,10.75-24.08,16.51-42.4,16.51s-34.07-5.75-44.82-16.66c-11.21-11.36-17.57-29.07-17.57-49.37s6.36-38.01,18.32-49.82c10.45-10.15,25.74-15.75,43.46-15.75,19.53,0,34.83,6.66,44.67,19.84,4.85,6.21,7.42,11.81,9.39,20.75l-31.19,6.06Z" style="fill:#3a7ca5; stroke-width:0px;"/><path d="m581.85,789.32c0,9.09.3,15.75,1.21,22.87h-33.47c.91-7.12,1.21-13.33,1.21-22.87v-76.32h-17.87c-9.54,0-12.11.15-22.87,1.06v-28.92c5,.61,13.33,1.06,22.56,1.06h66.33c10.6,0,16.66-.3,23.62-1.06v28.92c-6.81-.76-12.72-1.06-23.62-1.06h-17.11v76.32Z" style="fill:#3a7ca5; stroke-width:0px;"/><path d="m661.95,771.15c.61,5.45,1.67,8.18,3.94,11.21,3.63,4.54,9.99,7.12,17.72,7.12,11.66,0,18.63-5.15,18.63-13.63,0-4.69-2.42-8.78-6.36-10.6-3.18-1.51-6.97-2.57-22.71-6.21-13.93-3.03-18.78-4.85-24.38-8.78-9.54-6.66-14.69-16.81-14.69-29.07,0-23.32,18.78-38.01,48.61-38.01,19.23,0,33.92,5.91,42.1,17.26,3.79,5,5.6,9.54,7.57,18.17l-32.1,3.48c-1.82-9.84-7.27-13.93-18.78-13.93-9.24,0-16.05,5-16.05,11.96,0,4.24,2.27,7.42,7.12,9.69q3.03,1.36,20.9,5c11.51,2.42,18.78,5,24.53,8.63,10.9,6.81,16.35,16.96,16.35,30.89,0,11.36-3.63,21.05-10.6,27.86-8.78,8.48-22.11,12.87-39.83,12.87-12.87,0-25.59-2.73-33.77-7.42-7.57-4.24-13.17-10.75-16.35-19.38-1.51-3.63-2.27-7.12-3.33-14.08l31.5-3.03Z" style="fill:#3a7ca5; stroke-width:0px;"/><path d="m822.76,812.18c-10.45,0-16.66.15-22.41.45.91-5.3,1.21-11.96,1.21-22.11v-79.95c0-10.6-.3-17.11-1.21-24.38h33.01c-1.06,7.87-1.21,12.11-1.21,23.93v75.11h36.65c12.87,0,18.02-.15,25.14-1.06v29.07c-5.6-.76-13.02-1.06-25.14-1.06h-46.03Z" style="fill:#3a7ca5; stroke-width:0px;"/><path d="m937.54,686.2c-.91,6.21-1.21,11.36-1.21,22.41v81.17c0,10.45.3,16.05,1.21,22.41h-33.31c.91-5.91,1.21-12.27,1.21-22.41v-81.17c0-11.36-.3-15.75-1.21-22.41h33.31Z" style="fill:#3a7ca5; stroke-width:0px;"/><path d="m1028.69,748.13c4.39,6.51,7.27,11.36,10.9,18.02-.61-6.97-.91-13.93-.91-22.41v-34.53c0-9.99-.3-16.05-1.21-23.02h32.25c-.91,6.81-1.21,13.17-1.21,23.02v80.41c0,9.24.45,16.2,1.21,22.56h-33.16c-2.73-5.75-6.21-11.36-11.36-19.23l-28.01-42.25c-4.09-6.06-6.66-10.6-10.9-18.63.76,6.81,1.06,15.14,1.06,22.56v33.92c0,10.45.3,17.11,1.21,23.62h-32.25c.91-5.91,1.21-12.57,1.21-23.77v-79.65c0-8.78-.3-15.6-1.21-22.56h32.86c1.51,4.09,4.85,10.15,10.75,18.93l28.77,43.01Z" style="fill:#3a7ca5; stroke-width:0px;"/><path d="m1183.6,813.24c-6.51-.76-11.96-1.06-24.99-1.06h-47.7c-11.51,0-15.75.15-22.26.45.91-6.06,1.21-11.66,1.21-22.11v-82.68c0-9.39-.3-14.69-1.21-22.11,6.21.3,10.45.45,22.26.45h48.31c10.3,0,15.45-.3,22.56-1.06v28.32c-6.97-.76-12.42-1.06-22.56-1.06h-39.37v22.26h32.71c9.99,0,13.63-.15,22.71-1.06v28.01c-7.12-.76-12.27-1.06-22.71-1.06h-32.71v25.44h39.07c11.51,0,18.17-.3,24.68-1.06v28.32Z" style="fill:#3a7ca5; stroke-width:0px;"/><path d="m1314.88,686.2c-.91,6.51-1.21,11.96-1.21,22.87v52.09c0,34.53-20.75,54.06-57.24,54.06-18.78,0-34.07-5.3-43.16-14.84-8.78-9.39-13.33-22.56-13.33-39.52v-51.79c0-10.45-.3-17.11-1.21-22.87h32.71c-.91,5.6-1.21,11.66-1.21,22.87v52.09c0,19.08,8.63,28.17,26.35,28.17s26.8-9.09,26.8-28.17v-52.09c0-11.36-.3-16.05-1.21-22.87h32.71Z" style="fill:#3a7ca5; stroke-width:0px;"/><path d="m1333.35,812.18c.91-6.66,1.21-13.48,1.21-22.41v-81.92c0-8.18-.3-14.99-1.21-22.11,7.12.3,12.57.45,22.26.45h33.16c29.98,0,46.49,14.39,46.49,40.73s-17.26,43.01-46.64,43.01h-23.93v19.38c0,8.93.45,16.35,1.21,22.87h-32.56Zm53.91-67.99c10.6,0,16.81-5.91,16.81-16.35s-5.91-15.9-16.81-15.9h-22.56v32.25h22.56Z" style="fill:#3a7ca5; stroke-width:0px;"/><path d="m192.23,813.48c0,14.23.15,19.69,1.21,26.35h-32.56c1.06-6.66,1.36-12.72,1.36-25.89v-78.44c0-9.99-.3-14.99-1.21-22.11,6.21.3,10.45.45,22.11.45h43.76c13.33,0,18.32-.15,25.44-1.06v28.77c-6.66-.76-12.57-1.06-25.29-1.06h-34.83v24.83h28.47c11.81,0,17.57-.3,24.23-1.06v28.01c-6.66-.76-12.72-1.06-24.23-1.06h-28.47v22.26Z" style="fill:#3a7ca5; stroke-width:0px;"/><path d="m343.36,839.83c-1.21-7.27-2.12-11.21-3.63-16.35l-4.09-12.87h-43.16l-4.09,12.87c-1.97,6.06-3.03,10.75-3.79,16.35h-35.43c2.27-4.54,3.63-8.18,7.27-18.47l32.71-91.16c2.73-7.42,4.09-11.96,4.85-16.35h39.52c1.06,4.39,2.12,8.33,5.15,16.35l32.86,91.16c2.88,8.03,5.3,14.23,7.27,18.47h-35.43Zm-29.53-100.09l-14.08,45.43h28.47l-14.39-45.43Z" style="fill:#3a7ca5; stroke-width:0px;"/><path d="m470.1,757.75c-2.88-13.78-10.9-20.59-23.93-20.59-18.47,0-29.23,14.54-29.23,39.52s11.21,39.67,29.98,39.67c8.33,0,15.45-3.48,19.84-9.54,2.57-3.63,3.63-6.66,4.54-13.02l31.5,4.69c-2.88,12.87-6.21,20.29-12.57,27.71-9.39,10.75-24.08,16.51-42.4,16.51s-34.07-5.75-44.82-16.66c-11.21-11.36-17.57-29.07-17.57-49.37s6.36-38.01,18.32-49.82c10.45-10.15,25.74-15.75,43.46-15.75,19.53,0,34.83,6.66,44.67,19.84,4.85,6.21,7.42,11.81,9.39,20.75l-31.19,6.06Z" style="fill:#3a7ca5; stroke-width:0px;"/><path d="m581.85,816.96c0,9.09.3,15.75,1.21,22.87h-33.47c.91-7.12,1.21-13.33,1.21-22.87v-76.32h-17.87c-9.54,0-12.11.15-22.87,1.06v-28.92c5,.61,13.33,1.06,22.56,1.06h66.33c10.6,0,16.66-.3,23.62-1.06v28.92c-6.81-.76-12.72-1.06-23.62-1.06h-17.11v76.32Z" style="fill:#3a7ca5; stroke-width:0px;"/><path d="m661.95,798.79c.61,5.45,1.67,8.18,3.94,11.21,3.63,4.54,9.99,7.12,17.72,7.12,11.66,0,18.63-5.15,18.63-13.63,0-4.69-2.42-8.78-6.36-10.6-3.18-1.51-6.97-2.57-22.71-6.21-13.93-3.03-18.78-4.85-24.38-8.78-9.54-6.66-14.69-16.81-14.69-29.07,0-23.32,18.78-38.01,48.61-38.01,19.23,0,33.92,5.91,42.1,17.26,3.79,5,5.6,9.54,7.57,18.17l-32.1,3.48c-1.82-9.84-7.27-13.93-18.78-13.93-9.24,0-16.05,5-16.05,11.96,0,4.24,2.27,7.42,7.12,9.69q3.03,1.36,20.9,5c11.51,2.42,18.78,5,24.53,8.63,10.9,6.81,16.35,16.96,16.35,30.89,0,11.36-3.63,21.05-10.6,27.86-8.78,8.48-22.11,12.87-39.83,12.87-12.87,0-25.59-2.73-33.77-7.42-7.57-4.24-13.17-10.75-16.35-19.38-1.51-3.63-2.27-7.12-3.33-14.08l31.5-3.03Z" style="fill:#3a7ca5; stroke-width:0px;"/><path d="m822.76,839.83c-10.45,0-16.66.15-22.41.45.91-5.3,1.21-11.96,1.21-22.11v-79.95c0-10.6-.3-17.11-1.21-24.38h33.01c-1.06,7.87-1.21,12.11-1.21,23.93v75.11h36.65c12.87,0,18.02-.15,25.14-1.06v29.07c-5.6-.76-13.02-1.06-25.14-1.06h-46.03Z" style="fill:#3a7ca5; stroke-width:0px;"/><path d="m937.54,713.84c-.91,6.21-1.21,11.36-1.21,22.41v81.17c0,10.45.3,16.05,1.21,22.41h-33.31c.91-5.91,1.21-12.27,1.21-22.41v-81.17c0-11.36-.3-15.75-1.21-22.41h33.31Z" style="fill:#3a7ca5; stroke-width:0px;"/><path d="m1028.69,775.77c4.39,6.51,7.27,11.36,10.9,18.02-.61-6.97-.91-13.93-.91-22.41v-34.53c0-9.99-.3-16.05-1.21-23.02h32.25c-.91,6.81-1.21,13.17-1.21,23.02v80.41c0,9.24.45,16.2,1.21,22.56h-33.16c-2.73-5.75-6.21-11.36-11.36-19.23l-28.01-42.25c-4.09-6.06-6.66-10.6-10.9-18.63.76,6.81,1.06,15.14,1.06,22.56v33.92c0,10.45.3,17.11,1.21,23.62h-32.25c.91-5.91,1.21-12.57,1.21-23.77v-79.65c0-8.78-.3-15.6-1.21-22.56h32.86c1.51,4.09,4.85,10.15,10.75,18.93l28.77,43.01Z" style="fill:#3a7ca5; stroke-width:0px;"/><path d="m1183.6,840.89c-6.51-.76-11.96-1.06-24.99-1.06h-47.7c-11.51,0-15.75.15-22.26.45.91-6.06,1.21-11.66,1.21-22.11v-82.68c0-9.39-.3-14.69-1.21-22.11,6.21.3,10.45.45,22.26.45h48.31c10.3,0,15.45-.3,22.56-1.06v28.32c-6.97-.76-12.42-1.06-22.56-1.06h-39.37v22.26h32.71c9.99,0,13.63-.15,22.71-1.06v28.01c-7.12-.76-12.27-1.06-22.71-1.06h-32.71v25.44h39.07c11.51,0,18.17-.3,24.68-1.06v28.32Z" style="fill:#3a7ca5; stroke-width:0px;"/><path d="m1314.88,713.84c-.91,6.51-1.21,11.96-1.21,22.87v52.09c0,34.53-20.75,54.06-57.24,54.06-18.78,0-34.07-5.3-43.16-14.84-8.78-9.39-13.33-22.56-13.33-39.52v-51.79c0-10.45-.3-17.11-1.21-22.87h32.71c-.91,5.6-1.21,11.66-1.21,22.87v52.09c0,19.08,8.63,28.17,26.35,28.17s26.8-9.09,26.8-28.17v-52.09c0-11.36-.3-16.05-1.21-22.87h32.71Z" style="fill:#3a7ca5; stroke-width:0px;"/><path d="m1333.35,839.83c.91-6.66,1.21-13.48,1.21-22.41v-81.92c0-8.18-.3-14.99-1.21-22.11,7.12.3,12.57.45,22.26.45h33.16c29.98,0,46.49,14.39,46.49,40.73s-17.26,43.01-46.64,43.01h-23.93v19.38c0,8.93.45,16.35,1.21,22.87h-32.56Zm53.91-67.99c10.6,0,16.81-5.91,16.81-16.35s-5.91-15.9-16.81-15.9h-22.56v32.25h22.56Z" style="fill:#3a7ca5; stroke-width:0px;"/><path d="m192.23,813.48c0,14.23.15,19.69,1.21,26.35h-32.56c1.06-6.66,1.36-12.72,1.36-25.89v-78.44c0-9.99-.3-14.99-1.21-22.11,6.21.3,10.45.45,22.11.45h43.76c13.33,0,18.32-.15,25.44-1.06v28.77c-6.66-.76-12.57-1.06-25.29-1.06h-34.83v24.83h28.47c11.81,0,17.57-.3,24.23-1.06v28.01c-6.66-.76-12.72-1.06-24.23-1.06h-28.47v22.26Z" style="fill:#3a7ca5; stroke-width:0px;"/><path d="m343.36,839.83c-1.21-7.27-2.12-11.21-3.63-16.35l-4.09-12.87h-43.16l-4.09,12.87c-1.97,6.06-3.03,10.75-3.79,16.35h-35.43c2.27-4.54,3.63-8.18,7.27-18.47l32.71-91.16c2.73-7.42,4.09-11.96,4.85-16.35h39.52c1.06,4.39,2.12,8.33,5.15,16.35l32.86,91.16c2.88,8.03,5.3,14.23,7.27,18.47h-35.43Zm-29.53-100.09l-14.08,45.43h28.47l-14.39-45.43Z" style="fill:#3a7ca5; stroke-width:0px;"/><path d="m470.1,757.75c-2.88-13.78-10.9-20.59-23.93-20.59-18.47,0-29.23,14.54-29.23,39.52s11.21,39.67,29.98,39.67c8.33,0,15.45-3.48,19.84-9.54,2.57-3.63,3.63-6.66,4.54-13.02l31.5,4.69c-2.88,12.87-6.21,20.29-12.57,27.71-9.39,10.75-24.08,16.51-42.4,16.51s-34.07-5.75-44.82-16.66c-11.21-11.36-17.57-29.07-17.57-49.37s6.36-38.01,18.32-49.82c10.45-10.15,25.74-15.75,43.46-15.75,19.53,0,34.83,6.66,44.67,19.84,4.85,6.21,7.42,11.81,9.39,20.75l-31.19,6.06Z" style="fill:#3a7ca5; stroke-width:0px;"/><path d="m581.85,816.96c0,9.09.3,15.75,1.21,22.87h-33.47c.91-7.12,1.21-13.33,1.21-22.87v-76.32h-17.87c-9.54,0-12.11.15-22.87,1.06v-28.92c5,.61,13.33,1.06,22.56,1.06h66.33c10.6,0,16.66-.3,23.62-1.06v28.92c-6.81-.76-12.72-1.06-23.62-1.06h-17.11v76.32Z" style="fill:#3a7ca5; stroke-width:0px;"/><path d="m661.95,798.79c.61,5.45,1.67,8.18,3.94,11.21,3.63,4.54,9.99,7.12,17.72,7.12,11.66,0,18.63-5.15,18.63-13.63,0-4.69-2.42-8.78-6.36-10.6-3.18-1.51-6.97-2.57-22.71-6.21-13.93-3.03-18.78-4.85-24.38-8.78-9.54-6.66-14.69-16.81-14.69-29.07,0-23.32,18.78-38.01,48.61-38.01,19.23,0,33.92,5.91,42.1,17.26,3.79,5,5.6,9.54,7.57,18.17l-32.1,3.48c-1.82-9.84-7.27-13.93-18.78-13.93-9.24,0-16.05,5-16.05,11.96,0,4.24,2.27,7.42,7.12,9.69q3.03,1.36,20.9,5c11.51,2.42,18.78,5,24.53,8.63,10.9,6.81,16.35,16.96,16.35,30.89,0,11.36-3.63,21.05-10.6,27.86-8.78,8.48-22.11,12.87-39.83,12.87-12.87,0-25.59-2.73-33.77-7.42-7.57-4.24-13.17-10.75-16.35-19.38-1.51-3.63-2.27-7.12-3.33-14.08l31.5-3.03Z" style="fill:#3a7ca5; stroke-width:0px;"/><path d="m822.76,839.83c-10.45,0-16.66.15-22.41.45.91-5.3,1.21-11.96,1.21-22.11v-79.95c0-10.6-.3-17.11-1.21-24.38h33.01c-1.06,7.87-1.21,12.11-1.21,23.93v75.11h36.65c12.87,0,18.02-.15,25.14-1.06v29.07c-5.6-.76-13.02-1.06-25.14-1.06h-46.03Z" style="fill:#3a7ca5; stroke-width:0px;"/><path d="m937.54,713.84c-.91,6.21-1.21,11.36-1.21,22.41v81.17c0,10.45.3,16.05,1.21,22.41h-33.31c.91-5.91,1.21-12.27,1.21-22.41v-81.17c0-11.36-.3-15.75-1.21-22.41h33.31Z" style="fill:#3a7ca5; stroke-width:0px;"/><path d="m1028.69,775.77c4.39,6.51,7.27,11.36,10.9,18.02-.61-6.97-.91-13.93-.91-22.41v-34.53c0-9.99-.3-16.05-1.21-23.02h32.25c-.91,6.81-1.21,13.17-1.21,23.02v80.41c0,9.24.45,16.2,1.21,22.56h-33.16c-2.73-5.75-6.21-11.36-11.36-19.23l-28.01-42.25c-4.09-6.06-6.66-10.6-10.9-18.63.76,6.81,1.06,15.14,1.06,22.56v33.92c0,10.45.3,17.11,1.21,23.62h-32.25c.91-5.91,1.21-12.57,1.21-23.77v-79.65c0-8.78-.3-15.6-1.21-22.56h32.86c1.51,4.09,4.85,10.15,10.75,18.93l28.77,43.01Z" style="fill:#3a7ca5; stroke-width:0px;"/><path d="m1183.6,840.89c-6.51-.76-11.96-1.06-24.99-1.06h-47.7c-11.51,0-15.75.15-22.26.45.91-6.06,1.21-11.66,1.21-22.11v-82.68c0-9.39-.3-14.69-1.21-22.11,6.21.3,10.45.45,22.26.45h48.31c10.3,0,15.45-.3,22.56-1.06v28.32c-6.97-.76-12.42-1.06-22.56-1.06h-39.37v22.26h32.71c9.99,0,13.63-.15,22.71-1.06v28.01c-7.12-.76-12.27-1.06-22.71-1.06h-32.71v25.44h39.07c11.51,0,18.17-.3,24.68-1.06v28.32Z" style="fill:#3a7ca5; stroke-width:0px;"/><path d="m1314.88,713.84c-.91,6.51-1.21,11.96-1.21,22.87v52.09c0,34.53-20.75,54.06-57.24,54.06-18.78,0-34.07-5.3-43.16-14.84-8.78-9.39-13.33-22.56-13.33-39.52v-51.79c0-10.45-.3-17.11-1.21-22.87h32.71c-.91,5.6-1.21,11.66-1.21,22.87v52.09c0,19.08,8.63,28.17,26.35,28.17s26.8-9.09,26.8-28.17v-52.09c0-11.36-.3-16.05-1.21-22.87h32.71Z" style="fill:#3a7ca5; stroke-width:0px;"/><path d="m1333.35,839.83c.91-6.66,1.21-13.48,1.21-22.41v-81.92c0-8.18-.3-14.99-1.21-22.11,7.12.3,12.57.45,22.26.45h33.16c29.98,0,46.49,14.39,46.49,40.73s-17.26,43.01-46.64,43.01h-23.93v19.38c0,8.93.45,16.35,1.21,22.87h-32.56Zm53.91-67.99c10.6,0,16.81-5.91,16.81-16.35s-5.91-15.9-16.81-15.9h-22.56v32.25h22.56Z" style="fill:#3a7ca5; stroke-width:0px;"/><path d="m192.23,841.12c0,14.23.15,19.69,1.21,26.35h-32.56c1.06-6.66,1.36-12.72,1.36-25.89v-78.44c0-9.99-.3-14.99-1.21-22.11,6.21.3,10.45.45,22.11.45h43.76c13.33,0,18.32-.15,25.44-1.06v28.77c-6.66-.76-12.57-1.06-25.29-1.06h-34.83v24.83h28.47c11.81,0,17.57-.3,24.23-1.06v28.01c-6.66-.76-12.72-1.06-24.23-1.06h-28.47v22.26Z" style="fill:#3a7ca5; stroke-width:0px;"/><path d="m343.36,867.47c-1.21-7.27-2.12-11.21-3.63-16.35l-4.09-12.87h-43.16l-4.09,12.87c-1.97,6.06-3.03,10.75-3.79,16.35h-35.43c2.27-4.54,3.63-8.18,7.27-18.47l32.71-91.16c2.73-7.42,4.09-11.96,4.85-16.35h39.52c1.06,4.39,2.12,8.33,5.15,16.35l32.86,91.16c2.88,8.03,5.3,14.23,7.27,18.47h-35.43Zm-29.53-100.09l-14.08,45.43h28.47l-14.39-45.43Z" style="fill:#3a7ca5; stroke-width:0px;"/><path d="m470.1,785.39c-2.88-13.78-10.9-20.59-23.93-20.59-18.47,0-29.23,14.54-29.23,39.52s11.21,39.67,29.98,39.67c8.33,0,15.45-3.48,19.84-9.54,2.57-3.63,3.63-6.66,4.54-13.02l31.5,4.69c-2.88,12.87-6.21,20.29-12.57,27.71-9.39,10.75-24.08,16.51-42.4,16.51s-34.07-5.75-44.82-16.66c-11.21-11.36-17.57-29.07-17.57-49.37s6.36-38.01,18.32-49.82c10.45-10.15,25.74-15.75,43.46-15.75,19.53,0,34.83,6.66,44.67,19.84,4.85,6.21,7.42,11.81,9.39,20.75l-31.19,6.06Z" style="fill:#3a7ca5; stroke-width:0px;"/><path d="m581.85,844.6c0,9.09.3,15.75,1.21,22.87h-33.47c.91-7.12,1.21-13.33,1.21-22.87v-76.32h-17.87c-9.54,0-12.11.15-22.87,1.06v-28.92c5,.61,13.33,1.06,22.56,1.06h66.33c10.6,0,16.66-.3,23.62-1.06v28.92c-6.81-.76-12.72-1.06-23.62-1.06h-17.11v76.32Z" style="fill:#3a7ca5; stroke-width:0px;"/><path d="m661.95,826.43c.61,5.45,1.67,8.18,3.94,11.21,3.63,4.54,9.99,7.12,17.72,7.12,11.66,0,18.63-5.15,18.63-13.63,0-4.69-2.42-8.78-6.36-10.6-3.18-1.51-6.97-2.57-22.71-6.21-13.93-3.03-18.78-4.85-24.38-8.78-9.54-6.66-14.69-16.81-14.69-29.07,0-23.32,18.78-38.01,48.61-38.01,19.23,0,33.92,5.91,42.1,17.26,3.79,5,5.6,9.54,7.57,18.17l-32.1,3.48c-1.82-9.84-7.27-13.93-18.78-13.93-9.24,0-16.05,5-16.05,11.96,0,4.24,2.27,7.42,7.12,9.69q3.03,1.36,20.9,5c11.51,2.42,18.78,5,24.53,8.63,10.9,6.81,16.35,16.96,16.35,30.89,0,11.36-3.63,21.05-10.6,27.86-8.78,8.48-22.11,12.87-39.83,12.87-12.87,0-25.59-2.73-33.77-7.42-7.57-4.24-13.17-10.75-16.35-19.38-1.51-3.63-2.27-7.12-3.33-14.08l31.5-3.03Z" style="fill:#3a7ca5; stroke-width:0px;"/><path d="m822.76,867.47c-10.45,0-16.66.15-22.41.45.91-5.3,1.21-11.96,1.21-22.11v-79.95c0-10.6-.3-17.11-1.21-24.38h33.01c-1.06,7.87-1.21,12.11-1.21,23.93v75.11h36.65c12.87,0,18.02-.15,25.14-1.06v29.07c-5.6-.76-13.02-1.06-25.14-1.06h-46.03Z" style="fill:#3a7ca5; stroke-width:0px;"/><path d="m937.54,741.48c-.91,6.21-1.21,11.36-1.21,22.41v81.17c0,10.45.3,16.05,1.21,22.41h-33.31c.91-5.91,1.21-12.27,1.21-22.41v-81.17c0-11.36-.3-15.75-1.21-22.41h33.31Z" style="fill:#3a7ca5; stroke-width:0px;"/><path d="m1028.69,803.41c4.39,6.51,7.27,11.36,10.9,18.02-.61-6.97-.91-13.93-.91-22.41v-34.53c0-9.99-.3-16.05-1.21-23.02h32.25c-.91,6.81-1.21,13.17-1.21,23.02v80.41c0,9.24.45,16.2,1.21,22.56h-33.16c-2.73-5.75-6.21-11.36-11.36-19.23l-28.01-42.25c-4.09-6.06-6.66-10.6-10.9-18.63.76,6.81,1.06,15.14,1.06,22.56v33.92c0,10.45.3,17.11,1.21,23.62h-32.25c.91-5.91,1.21-12.57,1.21-23.77v-79.65c0-8.78-.3-15.6-1.21-22.56h32.86c1.51,4.09,4.85,10.15,10.75,18.93l28.77,43.01Z" style="fill:#3a7ca5; stroke-width:0px;"/><path d="m1183.6,868.53c-6.51-.76-11.96-1.06-24.99-1.06h-47.7c-11.51,0-15.75.15-22.26.45.91-6.06,1.21-11.66,1.21-22.11v-82.68c0-9.39-.3-14.69-1.21-22.11,6.21.3,10.45.45,22.26.45h48.31c10.3,0,15.45-.3,22.56-1.06v28.32c-6.97-.76-12.42-1.06-22.56-1.06h-39.37v22.26h32.71c9.99,0,13.63-.15,22.71-1.06v28.01c-7.12-.76-12.27-1.06-22.71-1.06h-32.71v25.44h39.07c11.51,0,18.17-.3,24.68-1.06v28.32Z" style="fill:#3a7ca5; stroke-width:0px;"/><path d="m1314.88,741.48c-.91,6.51-1.21,11.96-1.21,22.87v52.09c0,34.53-20.75,54.06-57.24,54.06-18.78,0-34.07-5.3-43.16-14.84-8.78-9.39-13.33-22.56-13.33-39.52v-51.79c0-10.45-.3-17.11-1.21-22.87h32.71c-.91,5.6-1.21,11.66-1.21,22.87v52.09c0,19.08,8.63,28.17,26.35,28.17s26.8-9.09,26.8-28.17v-52.09c0-11.36-.3-16.05-1.21-22.87h32.71Z" style="fill:#3a7ca5; stroke-width:0px;"/><path d="m1333.35,867.47c.91-6.66,1.21-13.48,1.21-22.41v-81.92c0-8.18-.3-14.99-1.21-22.11,7.12.3,12.57.45,22.26.45h33.16c29.98,0,46.49,14.39,46.49,40.73s-17.26,43.01-46.64,43.01h-23.93v19.38c0,8.93.45,16.35,1.21,22.87h-32.56Zm53.91-67.99c10.6,0,16.81-5.91,16.81-16.35s-5.91-15.9-16.81-15.9h-22.56v32.25h22.56Z" style="fill:#3a7ca5; stroke-width:0px;"/><path d="m192.23,813.48c0,14.23.15,19.69,1.21,26.35h-32.56c1.06-6.66,1.36-12.72,1.36-25.89v-78.44c0-9.99-.3-14.99-1.21-22.11,6.21.3,10.45.45,22.11.45h43.76c13.33,0,18.32-.15,25.44-1.06v28.77c-6.66-.76-12.57-1.06-25.29-1.06h-34.83v24.83h28.47c11.81,0,17.57-.3,24.23-1.06v28.01c-6.66-.76-12.72-1.06-24.23-1.06h-28.47v22.26Z" style="fill:#f45b69; stroke-width:0px;"/><path d="m343.36,839.83c-1.21-7.27-2.12-11.21-3.63-16.35l-4.09-12.87h-43.16l-4.09,12.87c-1.97,6.06-3.03,10.75-3.79,16.35h-35.43c2.27-4.54,3.63-8.18,7.27-18.47l32.71-91.16c2.73-7.42,4.09-11.96,4.85-16.35h39.52c1.06,4.39,2.12,8.33,5.15,16.35l32.86,91.16c2.88,8.03,5.3,14.23,7.27,18.47h-35.43Zm-29.53-100.09l-14.08,45.43h28.47l-14.39-45.43Z" style="fill:#f45b69; stroke-width:0px;"/><path d="m470.1,757.75c-2.88-13.78-10.9-20.59-23.93-20.59-18.47,0-29.23,14.54-29.23,39.52s11.21,39.67,29.98,39.67c8.33,0,15.45-3.48,19.84-9.54,2.57-3.63,3.63-6.66,4.54-13.02l31.5,4.69c-2.88,12.87-6.21,20.29-12.57,27.71-9.39,10.75-24.08,16.51-42.4,16.51s-34.07-5.75-44.82-16.66c-11.21-11.36-17.57-29.07-17.57-49.37s6.36-38.01,18.32-49.82c10.45-10.15,25.74-15.75,43.46-15.75,19.53,0,34.83,6.66,44.67,19.84,4.85,6.21,7.42,11.81,9.39,20.75l-31.19,6.06Z" style="fill:#f45b69; stroke-width:0px;"/><path d="m581.85,816.96c0,9.09.3,15.75,1.21,22.87h-33.47c.91-7.12,1.21-13.33,1.21-22.87v-76.32h-17.87c-9.54,0-12.11.15-22.87,1.06v-28.92c5,.61,13.33,1.06,22.56,1.06h66.33c10.6,0,16.66-.3,23.62-1.06v28.92c-6.81-.76-12.72-1.06-23.62-1.06h-17.11v76.32Z" style="fill:#f45b69; stroke-width:0px;"/><path d="m661.95,798.79c.61,5.45,1.67,8.18,3.94,11.21,3.63,4.54,9.99,7.12,17.72,7.12,11.66,0,18.63-5.15,18.63-13.63,0-4.69-2.42-8.78-6.36-10.6-3.18-1.51-6.97-2.57-22.71-6.21-13.93-3.03-18.78-4.85-24.38-8.78-9.54-6.66-14.69-16.81-14.69-29.07,0-23.32,18.78-38.01,48.61-38.01,19.23,0,33.92,5.91,42.1,17.26,3.79,5,5.6,9.54,7.57,18.17l-32.1,3.48c-1.82-9.84-7.27-13.93-18.78-13.93-9.24,0-16.05,5-16.05,11.96,0,4.24,2.27,7.42,7.12,9.69q3.03,1.36,20.9,5c11.51,2.42,18.78,5,24.53,8.63,10.9,6.81,16.35,16.96,16.35,30.89,0,11.36-3.63,21.05-10.6,27.86-8.78,8.48-22.11,12.87-39.83,12.87-12.87,0-25.59-2.73-33.77-7.42-7.57-4.24-13.17-10.75-16.35-19.38-1.51-3.63-2.27-7.12-3.33-14.08l31.5-3.03Z" style="fill:#f45b69; stroke-width:0px;"/><path d="m822.76,839.83c-10.45,0-16.66.15-22.41.45.91-5.3,1.21-11.96,1.21-22.11v-79.95c0-10.6-.3-17.11-1.21-24.38h33.01c-1.06,7.87-1.21,12.11-1.21,23.93v75.11h36.65c12.87,0,18.02-.15,25.14-1.06v29.07c-5.6-.76-13.02-1.06-25.14-1.06h-46.03Z" style="fill:#f45b69; stroke-width:0px;"/><path d="m937.54,713.84c-.91,6.21-1.21,11.36-1.21,22.41v81.17c0,10.45.3,16.05,1.21,22.41h-33.31c.91-5.91,1.21-12.27,1.21-22.41v-81.17c0-11.36-.3-15.75-1.21-22.41h33.31Z" style="fill:#f45b69; stroke-width:0px;"/><path d="m1028.69,775.77c4.39,6.51,7.27,11.36,10.9,18.02-.61-6.97-.91-13.93-.91-22.41v-34.53c0-9.99-.3-16.05-1.21-23.02h32.25c-.91,6.81-1.21,13.17-1.21,23.02v80.41c0,9.24.45,16.2,1.21,22.56h-33.16c-2.73-5.75-6.21-11.36-11.36-19.23l-28.01-42.25c-4.09-6.06-6.66-10.6-10.9-18.63.76,6.81,1.06,15.14,1.06,22.56v33.92c0,10.45.3,17.11,1.21,23.62h-32.25c.91-5.91,1.21-12.57,1.21-23.77v-79.65c0-8.78-.3-15.6-1.21-22.56h32.86c1.51,4.09,4.85,10.15,10.75,18.93l28.77,43.01Z" style="fill:#f45b69; stroke-width:0px;"/><path d="m1183.6,840.89c-6.51-.76-11.96-1.06-24.99-1.06h-47.7c-11.51,0-15.75.15-22.26.45.91-6.06,1.21-11.66,1.21-22.11v-82.68c0-9.39-.3-14.69-1.21-22.11,6.21.3,10.45.45,22.26.45h48.31c10.3,0,15.45-.3,22.56-1.06v28.32c-6.97-.76-12.42-1.06-22.56-1.06h-39.37v22.26h32.71c9.99,0,13.63-.15,22.71-1.06v28.01c-7.12-.76-12.27-1.06-22.71-1.06h-32.71v25.44h39.07c11.51,0,18.17-.3,24.68-1.06v28.32Z" style="fill:#f45b69; stroke-width:0px;"/><path d="m1314.88,713.84c-.91,6.51-1.21,11.96-1.21,22.87v52.09c0,34.53-20.75,54.06-57.24,54.06-18.78,0-34.07-5.3-43.16-14.84-8.78-9.39-13.33-22.56-13.33-39.52v-51.79c0-10.45-.3-17.11-1.21-22.87h32.71c-.91,5.6-1.21,11.66-1.21,22.87v52.09c0,19.08,8.63,28.17,26.35,28.17s26.8-9.09,26.8-28.17v-52.09c0-11.36-.3-16.05-1.21-22.87h32.71Z" style="fill:#f45b69; stroke-width:0px;"/><path d="m1333.35,839.83c.91-6.66,1.21-13.48,1.21-22.41v-81.92c0-8.18-.3-14.99-1.21-22.11,7.12.3,12.57.45,22.26.45h33.16c29.98,0,46.49,14.39,46.49,40.73s-17.26,43.01-46.64,43.01h-23.93v19.38c0,8.93.45,16.35,1.21,22.87h-32.56Zm53.91-67.99c10.6,0,16.81-5.91,16.81-16.35s-5.91-15.9-16.81-15.9h-22.56v32.25h22.56Z" style="fill:#f45b69; stroke-width:0px;"/><path d="m192.23,841.12c0,14.23.15,19.69,1.21,26.35h-32.56c1.06-6.66,1.36-12.72,1.36-25.89v-78.44c0-9.99-.3-14.99-1.21-22.11,6.21.3,10.45.45,22.11.45h43.76c13.33,0,18.32-.15,25.44-1.06v28.77c-6.66-.76-12.57-1.06-25.29-1.06h-34.83v24.83h28.47c11.81,0,17.57-.3,24.23-1.06v28.01c-6.66-.76-12.72-1.06-24.23-1.06h-28.47v22.26Z" style="fill:#f45b69; stroke-width:0px;"/><path d="m343.36,867.47c-1.21-7.27-2.12-11.21-3.63-16.35l-4.09-12.87h-43.16l-4.09,12.87c-1.97,6.06-3.03,10.75-3.79,16.35h-35.43c2.27-4.54,3.63-8.18,7.27-18.47l32.71-91.16c2.73-7.42,4.09-11.96,4.85-16.35h39.52c1.06,4.39,2.12,8.33,5.15,16.35l32.86,91.16c2.88,8.03,5.3,14.23,7.27,18.47h-35.43Zm-29.53-100.09l-14.08,45.43h28.47l-14.39-45.43Z" style="fill:#f45b69; stroke-width:0px;"/><path d="m470.1,785.39c-2.88-13.78-10.9-20.59-23.93-20.59-18.47,0-29.23,14.54-29.23,39.52s11.21,39.67,29.98,39.67c8.33,0,15.45-3.48,19.84-9.54,2.57-3.63,3.63-6.66,4.54-13.02l31.5,4.69c-2.88,12.87-6.21,20.29-12.57,27.71-9.39,10.75-24.08,16.51-42.4,16.51s-34.07-5.75-44.82-16.66c-11.21-11.36-17.57-29.07-17.57-49.37s6.36-38.01,18.32-49.82c10.45-10.15,25.74-15.75,43.46-15.75,19.53,0,34.83,6.66,44.67,19.84,4.85,6.21,7.42,11.81,9.39,20.75l-31.19,6.06Z" style="fill:#f45b69; stroke-width:0px;"/><path d="m581.85,844.6c0,9.09.3,15.75,1.21,22.87h-33.47c.91-7.12,1.21-13.33,1.21-22.87v-76.32h-17.87c-9.54,0-12.11.15-22.87,1.06v-28.92c5,.61,13.33,1.06,22.56,1.06h66.33c10.6,0,16.66-.3,23.62-1.06v28.92c-6.81-.76-12.72-1.06-23.62-1.06h-17.11v76.32Z" style="fill:#f45b69; stroke-width:0px;"/><path d="m661.95,826.43c.61,5.45,1.67,8.18,3.94,11.21,3.63,4.54,9.99,7.12,17.72,7.12,11.66,0,18.63-5.15,18.63-13.63,0-4.69-2.42-8.78-6.36-10.6-3.18-1.51-6.97-2.57-22.71-6.21-13.93-3.03-18.78-4.85-24.38-8.78-9.54-6.66-14.69-16.81-14.69-29.07,0-23.32,18.78-38.01,48.61-38.01,19.23,0,33.92,5.91,42.1,17.26,3.79,5,5.6,9.54,7.57,18.17l-32.1,3.48c-1.82-9.84-7.27-13.93-18.78-13.93-9.24,0-16.05,5-16.05,11.96,0,4.24,2.27,7.42,7.12,9.69q3.03,1.36,20.9,5c11.51,2.42,18.78,5,24.53,8.63,10.9,6.81,16.35,16.96,16.35,30.89,0,11.36-3.63,21.05-10.6,27.86-8.78,8.48-22.11,12.87-39.83,12.87-12.87,0-25.59-2.73-33.77-7.42-7.57-4.24-13.17-10.75-16.35-19.38-1.51-3.63-2.27-7.12-3.33-14.08l31.5-3.03Z" style="fill:#f45b69; stroke-width:0px;"/><path d="m822.76,867.47c-10.45,0-16.66.15-22.41.45.91-5.3,1.21-11.96,1.21-22.11v-79.95c0-10.6-.3-17.11-1.21-24.38h33.01c-1.06,7.87-1.21,12.11-1.21,23.93v75.11h36.65c12.87,0,18.02-.15,25.14-1.06v29.07c-5.6-.76-13.02-1.06-25.14-1.06h-46.03Z" style="fill:#f45b69; stroke-width:0px;"/><path d="m937.54,741.48c-.91,6.21-1.21,11.36-1.21,22.41v81.17c0,10.45.3,16.05,1.21,22.41h-33.31c.91-5.91,1.21-12.27,1.21-22.41v-81.17c0-11.36-.3-15.75-1.21-22.41h33.31Z" style="fill:#f45b69; stroke-width:0px;"/><path d="m1028.69,803.41c4.39,6.51,7.27,11.36,10.9,18.02-.61-6.97-.91-13.93-.91-22.41v-34.53c0-9.99-.3-16.05-1.21-23.02h32.25c-.91,6.81-1.21,13.17-1.21,23.02v80.41c0,9.24.45,16.2,1.21,22.56h-33.16c-2.73-5.75-6.21-11.36-11.36-19.23l-28.01-42.25c-4.09-6.06-6.66-10.6-10.9-18.63.76,6.81,1.06,15.14,1.06,22.56v33.92c0,10.45.3,17.11,1.21,23.62h-32.25c.91-5.91,1.21-12.57,1.21-23.77v-79.65c0-8.78-.3-15.6-1.21-22.56h32.86c1.51,4.09,4.85,10.15,10.75,18.93l28.77,43.01Z" style="fill:#f45b69; stroke-width:0px;"/><path d="m1183.6,868.53c-6.51-.76-11.96-1.06-24.99-1.06h-47.7c-11.51,0-15.75.15-22.26.45.91-6.06,1.21-11.66,1.21-22.11v-82.68c0-9.39-.3-14.69-1.21-22.11,6.21.3,10.45.45,22.26.45h48.31c10.3,0,15.45-.3,22.56-1.06v28.32c-6.97-.76-12.42-1.06-22.56-1.06h-39.37v22.26h32.71c9.99,0,13.63-.15,22.71-1.06v28.01c-7.12-.76-12.27-1.06-22.71-1.06h-32.71v25.44h39.07c11.51,0,18.17-.3,24.68-1.06v28.32Z" style="fill:#f45b69; stroke-width:0px;"/><path d="m1314.88,741.48c-.91,6.51-1.21,11.96-1.21,22.87v52.09c0,34.53-20.75,54.06-57.24,54.06-18.78,0-34.07-5.3-43.16-14.84-8.78-9.39-13.33-22.56-13.33-39.52v-51.79c0-10.45-.3-17.11-1.21-22.87h32.71c-.91,5.6-1.21,11.66-1.21,22.87v52.09c0,19.08,8.63,28.17,26.35,28.17s26.8-9.09,26.8-28.17v-52.09c0-11.36-.3-16.05-1.21-22.87h32.71Z" style="fill:#f45b69; stroke-width:0px;"/><path d="m1333.35,867.47c.91-6.66,1.21-13.48,1.21-22.41v-81.92c0-8.18-.3-14.99-1.21-22.11,7.12.3,12.57.45,22.26.45h33.16c29.98,0,46.49,14.39,46.49,40.73s-17.26,43.01-46.64,43.01h-23.93v19.38c0,8.93.45,16.35,1.21,22.87h-32.56Zm53.91-67.99c10.6,0,16.81-5.91,16.81-16.35s-5.91-15.9-16.81-15.9h-22.56v32.25h22.56Z" style="fill:#f45b69; stroke-width:0px;"/><path d="m192.23,841.12c0,14.23.15,19.69,1.21,26.35h-32.56c1.06-6.66,1.36-12.72,1.36-25.89v-78.44c0-9.99-.3-14.99-1.21-22.11,6.21.3,10.45.45,22.11.45h43.76c13.33,0,18.32-.15,25.44-1.06v28.77c-6.66-.76-12.57-1.06-25.29-1.06h-34.83v24.83h28.47c11.81,0,17.57-.3,24.23-1.06v28.01c-6.66-.76-12.72-1.06-24.23-1.06h-28.47v22.26Z" style="fill:#44bba4; stroke-width:0px;"/><path d="m343.36,867.47c-1.21-7.27-2.12-11.21-3.63-16.35l-4.09-12.87h-43.16l-4.09,12.87c-1.97,6.06-3.03,10.75-3.79,16.35h-35.43c2.27-4.54,3.63-8.18,7.27-18.47l32.71-91.16c2.73-7.42,4.09-11.96,4.85-16.35h39.52c1.06,4.39,2.12,8.33,5.15,16.35l32.86,91.16c2.88,8.03,5.3,14.23,7.27,18.47h-35.43Zm-29.53-100.09l-14.08,45.43h28.47l-14.39-45.43Z" style="fill:#44bba4; stroke-width:0px;"/><path d="m470.1,785.39c-2.88-13.78-10.9-20.59-23.93-20.59-18.47,0-29.23,14.54-29.23,39.52s11.21,39.67,29.98,39.67c8.33,0,15.45-3.48,19.84-9.54,2.57-3.63,3.63-6.66,4.54-13.02l31.5,4.69c-2.88,12.87-6.21,20.29-12.57,27.71-9.39,10.75-24.08,16.51-42.4,16.51s-34.07-5.75-44.82-16.66c-11.21-11.36-17.57-29.07-17.57-49.37s6.36-38.01,18.32-49.82c10.45-10.15,25.74-15.75,43.46-15.75,19.53,0,34.83,6.66,44.67,19.84,4.85,6.21,7.42,11.81,9.39,20.75l-31.19,6.06Z" style="fill:#44bba4; stroke-width:0px;"/><path d="m581.85,844.6c0,9.09.3,15.75,1.21,22.87h-33.47c.91-7.12,1.21-13.33,1.21-22.87v-76.32h-17.87c-9.54,0-12.11.15-22.87,1.06v-28.92c5,.61,13.33,1.06,22.56,1.06h66.33c10.6,0,16.66-.3,23.62-1.06v28.92c-6.81-.76-12.72-1.06-23.62-1.06h-17.11v76.32Z" style="fill:#44bba4; stroke-width:0px;"/><path d="m661.95,826.43c.61,5.45,1.67,8.18,3.94,11.21,3.63,4.54,9.99,7.12,17.72,7.12,11.66,0,18.63-5.15,18.63-13.63,0-4.69-2.42-8.78-6.36-10.6-3.18-1.51-6.97-2.57-22.71-6.21-13.93-3.03-18.78-4.85-24.38-8.78-9.54-6.66-14.69-16.81-14.69-29.07,0-23.32,18.78-38.01,48.61-38.01,19.23,0,33.92,5.91,42.1,17.26,3.79,5,5.6,9.54,7.57,18.17l-32.1,3.48c-1.82-9.84-7.27-13.93-18.78-13.93-9.24,0-16.05,5-16.05,11.96,0,4.24,2.27,7.42,7.12,9.69q3.03,1.36,20.9,5c11.51,2.42,18.78,5,24.53,8.63,10.9,6.81,16.35,16.96,16.35,30.89,0,11.36-3.63,21.05-10.6,27.86-8.78,8.48-22.11,12.87-39.83,12.87-12.87,0-25.59-2.73-33.77-7.42-7.57-4.24-13.17-10.75-16.35-19.38-1.51-3.63-2.27-7.12-3.33-14.08l31.5-3.03Z" style="fill:#44bba4; stroke-width:0px;"/><path d="m822.76,867.47c-10.45,0-16.66.15-22.41.45.91-5.3,1.21-11.96,1.21-22.11v-79.95c0-10.6-.3-17.11-1.21-24.38h33.01c-1.06,7.87-1.21,12.11-1.21,23.93v75.11h36.65c12.87,0,18.02-.15,25.14-1.06v29.07c-5.6-.76-13.02-1.06-25.14-1.06h-46.03Z" style="fill:#44bba4; stroke-width:0px;"/><path d="m937.54,741.48c-.91,6.21-1.21,11.36-1.21,22.41v81.17c0,10.45.3,16.05,1.21,22.41h-33.31c.91-5.91,1.21-12.27,1.21-22.41v-81.17c0-11.36-.3-15.75-1.21-22.41h33.31Z" style="fill:#44bba4; stroke-width:0px;"/><path d="m1028.69,803.41c4.39,6.51,7.27,11.36,10.9,18.02-.61-6.97-.91-13.93-.91-22.41v-34.53c0-9.99-.3-16.05-1.21-23.02h32.25c-.91,6.81-1.21,13.17-1.21,23.02v80.41c0,9.24.45,16.2,1.21,22.56h-33.16c-2.73-5.75-6.21-11.36-11.36-19.23l-28.01-42.25c-4.09-6.06-6.66-10.6-10.9-18.63.76,6.81,1.06,15.14,1.06,22.56v33.92c0,10.45.3,17.11,1.21,23.62h-32.25c.91-5.91,1.21-12.57,1.21-23.77v-79.65c0-8.78-.3-15.6-1.21-22.56h32.86c1.51,4.09,4.85,10.15,10.75,18.93l28.77,43.01Z" style="fill:#44bba4; stroke-width:0px;"/><path d="m1183.6,868.53c-6.51-.76-11.96-1.06-24.99-1.06h-47.7c-11.51,0-15.75.15-22.26.45.91-6.06,1.21-11.66,1.21-22.11v-82.68c0-9.39-.3-14.69-1.21-22.11,6.21.3,10.45.45,22.26.45h48.31c10.3,0,15.45-.3,22.56-1.06v28.32c-6.97-.76-12.42-1.06-22.56-1.06h-39.37v22.26h32.71c9.99,0,13.63-.15,22.71-1.06v28.01c-7.12-.76-12.27-1.06-22.71-1.06h-32.71v25.44h39.07c11.51,0,18.17-.3,24.68-1.06v28.32Z" style="fill:#44bba4; stroke-width:0px;"/><path d="m1314.88,741.48c-.91,6.51-1.21,11.96-1.21,22.87v52.09c0,34.53-20.75,54.06-57.24,54.06-18.78,0-34.07-5.3-43.16-14.84-8.78-9.39-13.33-22.56-13.33-39.52v-51.79c0-10.45-.3-17.11-1.21-22.87h32.71c-.91,5.6-1.21,11.66-1.21,22.87v52.09c0,19.08,8.63,28.17,26.35,28.17s26.8-9.09,26.8-28.17v-52.09c0-11.36-.3-16.05-1.21-22.87h32.71Z" style="fill:#44bba4; stroke-width:0px;"/><path d="m1333.35,867.47c.91-6.66,1.21-13.48,1.21-22.41v-81.92c0-8.18-.3-14.99-1.21-22.11,7.12.3,12.57.45,22.26.45h33.16c29.98,0,46.49,14.39,46.49,40.73s-17.26,43.01-46.64,43.01h-23.93v19.38c0,8.93.45,16.35,1.21,22.87h-32.56Zm53.91-67.99c10.6,0,16.81-5.91,16.81-16.35s-5.91-15.9-16.81-15.9h-22.56v32.25h22.56Z" style="fill:#44bba4; stroke-width:0px;"/><path d="m192.23,868.76c0,14.23.15,19.69,1.21,26.35h-32.56c1.06-6.66,1.36-12.72,1.36-25.89v-78.44c0-9.99-.3-14.99-1.21-22.11,6.21.3,10.45.45,22.11.45h43.76c13.33,0,18.32-.15,25.44-1.06v28.77c-6.66-.76-12.57-1.06-25.29-1.06h-34.83v24.83h28.47c11.81,0,17.57-.3,24.23-1.06v28.01c-6.66-.76-12.72-1.06-24.23-1.06h-28.47v22.26Z" style="fill:#f2e863; stroke-width:0px;"/><path d="m343.36,895.11c-1.21-7.27-2.12-11.21-3.63-16.35l-4.09-12.87h-43.16l-4.09,12.87c-1.97,6.06-3.03,10.75-3.79,16.35h-35.43c2.27-4.54,3.63-8.18,7.27-18.47l32.71-91.16c2.73-7.42,4.09-11.96,4.85-16.35h39.52c1.06,4.39,2.12,8.33,5.15,16.35l32.86,91.16c2.88,8.03,5.3,14.23,7.27,18.47h-35.43Zm-29.53-100.09l-14.08,45.43h28.47l-14.39-45.43Z" style="fill:#f2e863; stroke-width:0px;"/><path d="m470.1,813.04c-2.88-13.78-10.9-20.59-23.93-20.59-18.47,0-29.23,14.54-29.23,39.52s11.21,39.67,29.98,39.67c8.33,0,15.45-3.48,19.84-9.54,2.57-3.63,3.63-6.66,4.54-13.02l31.5,4.69c-2.88,12.87-6.21,20.29-12.57,27.71-9.39,10.75-24.08,16.51-42.4,16.51s-34.07-5.75-44.82-16.66c-11.21-11.36-17.57-29.07-17.57-49.37s6.36-38.01,18.32-49.82c10.45-10.15,25.74-15.75,43.46-15.75,19.53,0,34.83,6.66,44.67,19.84,4.85,6.21,7.42,11.81,9.39,20.75l-31.19,6.06Z" style="fill:#f2e863; stroke-width:0px;"/><path d="m581.85,872.25c0,9.09.3,15.75,1.21,22.87h-33.47c.91-7.12,1.21-13.33,1.21-22.87v-76.32h-17.87c-9.54,0-12.11.15-22.87,1.06v-28.92c5,.61,13.33,1.06,22.56,1.06h66.33c10.6,0,16.66-.3,23.62-1.06v28.92c-6.81-.76-12.72-1.06-23.62-1.06h-17.11v76.32Z" style="fill:#f2e863; stroke-width:0px;"/><path d="m661.95,854.07c.61,5.45,1.67,8.18,3.94,11.21,3.63,4.54,9.99,7.12,17.72,7.12,11.66,0,18.63-5.15,18.63-13.63,0-4.69-2.42-8.78-6.36-10.6-3.18-1.51-6.97-2.57-22.71-6.21-13.93-3.03-18.78-4.85-24.38-8.78-9.54-6.66-14.69-16.81-14.69-29.07,0-23.32,18.78-38.01,48.61-38.01,19.23,0,33.92,5.91,42.1,17.26,3.79,5,5.6,9.54,7.57,18.17l-32.1,3.48c-1.82-9.84-7.27-13.93-18.78-13.93-9.24,0-16.05,5-16.05,11.96,0,4.24,2.27,7.42,7.12,9.69q3.03,1.36,20.9,5c11.51,2.42,18.78,5,24.53,8.63,10.9,6.81,16.35,16.96,16.35,30.89,0,11.36-3.63,21.05-10.6,27.86-8.78,8.48-22.11,12.87-39.83,12.87-12.87,0-25.59-2.73-33.77-7.42-7.57-4.24-13.17-10.75-16.35-19.38-1.51-3.63-2.27-7.12-3.33-14.08l31.5-3.03Z" style="fill:#f2e863; stroke-width:0px;"/><path d="m822.76,895.11c-10.45,0-16.66.15-22.41.45.91-5.3,1.21-11.96,1.21-22.11v-79.95c0-10.6-.3-17.11-1.21-24.38h33.01c-1.06,7.87-1.21,12.11-1.21,23.93v75.11h36.65c12.87,0,18.02-.15,25.14-1.06v29.07c-5.6-.76-13.02-1.06-25.14-1.06h-46.03Z" style="fill:#f2e863; stroke-width:0px;"/><path d="m937.54,769.12c-.91,6.21-1.21,11.36-1.21,22.41v81.17c0,10.45.3,16.05,1.21,22.41h-33.31c.91-5.91,1.21-12.27,1.21-22.41v-81.17c0-11.36-.3-15.75-1.21-22.41h33.31Z" style="fill:#f2e863; stroke-width:0px;"/><path d="m1028.69,831.06c4.39,6.51,7.27,11.36,10.9,18.02-.61-6.97-.91-13.93-.91-22.41v-34.53c0-9.99-.3-16.05-1.21-23.02h32.25c-.91,6.81-1.21,13.17-1.21,23.02v80.41c0,9.24.45,16.2,1.21,22.56h-33.16c-2.73-5.75-6.21-11.36-11.36-19.23l-28.01-42.25c-4.09-6.06-6.66-10.6-10.9-18.63.76,6.81,1.06,15.14,1.06,22.56v33.92c0,10.45.3,17.11,1.21,23.62h-32.25c.91-5.91,1.21-12.57,1.21-23.77v-79.65c0-8.78-.3-15.6-1.21-22.56h32.86c1.51,4.09,4.85,10.15,10.75,18.93l28.77,43.01Z" style="fill:#f2e863; stroke-width:0px;"/><path d="m1183.6,896.17c-6.51-.76-11.96-1.06-24.99-1.06h-47.7c-11.51,0-15.75.15-22.26.45.91-6.06,1.21-11.66,1.21-22.11v-82.68c0-9.39-.3-14.69-1.21-22.11,6.21.3,10.45.45,22.26.45h48.31c10.3,0,15.45-.3,22.56-1.06v28.32c-6.97-.76-12.42-1.06-22.56-1.06h-39.37v22.26h32.71c9.99,0,13.63-.15,22.71-1.06v28.01c-7.12-.76-12.27-1.06-22.71-1.06h-32.71v25.44h39.07c11.51,0,18.17-.3,24.68-1.06v28.32Z" style="fill:#f2e863; stroke-width:0px;"/><path d="m1314.88,769.12c-.91,6.51-1.21,11.96-1.21,22.87v52.09c0,34.53-20.75,54.06-57.24,54.06-18.78,0-34.07-5.3-43.16-14.84-8.78-9.39-13.33-22.56-13.33-39.52v-51.79c0-10.45-.3-17.11-1.21-22.87h32.71c-.91,5.6-1.21,11.66-1.21,22.87v52.09c0,19.08,8.63,28.17,26.35,28.17s26.8-9.09,26.8-28.17v-52.09c0-11.36-.3-16.05-1.21-22.87h32.71Z" style="fill:#f2e863; stroke-width:0px;"/><path d="m1333.35,895.11c.91-6.66,1.21-13.48,1.21-22.41v-81.92c0-8.18-.3-14.99-1.21-22.11,7.12.3,12.57.45,22.26.45h33.16c29.98,0,46.49,14.39,46.49,40.73s-17.26,43.01-46.64,43.01h-23.93v19.38c0,8.93.45,16.35,1.21,22.87h-32.56Zm53.91-67.99c10.6,0,16.81-5.91,16.81-16.35s-5.91-15.9-16.81-15.9h-22.56v32.25h22.56Z" style="fill:#f2e863; stroke-width:0px;"/></svg>