<?xml version="1.0" encoding="UTF-8"?><svg id="a" xmlns="http://www.w3.org/2000/svg" xmlns:xlink="http://www.w3.org/1999/xlink" viewBox="0 0 1536 1024"><defs><filter id="b" filterUnits="userSpaceOnUse"><feOffset dx="7.5" dy="7.5"/><feGaussianBlur result="c" stdDeviation="0"/><feFlood flood-color="#000" flood-opacity="1"/><feComposite in2="c" operator="in"/><feComposite in="SourceGraphic"/></filter></defs><g style="filter:url(#b);"><path d="m240.2,166.93c9.88,5.61,15.49,14.16,16.29,25.38.8,8.55.53,17.63-.8,26.18-1.07,7.48-3.74,14.69-10.95,19.5v6.95c.53.27,1.07,1.07,1.87,1.6,2.14,1.34,3.74,3.47,5.08,5.61,1.33,1.6,1.87,3.47.27,5.08-1.34,1.6-2.94,1.07-4.27.27-1.07-.27-1.87-.53-2.4-.8-2.67.27-2.4,2.94-4.01,4.01-4.27,3.21-4.27,8.01-2.14,11.75,2.94,5.34,1.6,10.42,1.33,15.49,0,1.07-.27,1.87.8,2.67,1.6-.53,3.21-1.07,5.61-1.87,1.07,1.6,2.4,3.47,2.94,4.27,2.94.53,4.27-.53,4.27-1.6,0-2.67-.53-5.61-.8-8.28,0-1.87.27-3.47,2.14-4.01,1.6-.27,4.27,1.34,4.54,2.94.27.8.53,1.87.27,2.67-1.34,5.88-.8,12.02-.54,17.9.27,1.87-.27,3.74-1.07,5.61-6.14,13.62-16.03,23.24-31.79,25.11-3.74.53-7.48,1.07-11.22,1.07-3.21.27-6.41.27-9.62-.27-6.68-1.34-9.35-1.87-14.96-.27-4.01,1.07-8.28.8-12.29.8-3.21,0-5.88-3.21-5.61-6.41.27-2.94,1.07-5.61,1.87-8.28.53-2.67,1.87-4.81,4.81-5.08,1.33,0,2.4-1.07,2.94-2.14,1.34-1.87,1.07-4.81-.8-5.88-1.6-1.07-3.47-1.6-5.08-2.67-2.14-1.6-3.47-3.74-3.47-6.41-.27-3.21-1.07-6.41,2.94-8.81,4.01,2.67,9.35,2.4,13.09,5.88,3.21-2.14,3.21-5.34,2.4-8.01-1.07-3.21-.8-6.14,1.33-8.81.27-.53.53-1.34.53-1.87-.27-.8-.53-1.87-1.33-2.4-1.34-1.07-1.6,1.34-2.94,1.07-1.6-.8-.53-3.74-2.94-4.01-.53.27-1.34.53-1.34,1.07.27,6.41-5.34,8.01-9.35,10.68-1.07.53-2.4-.27-3.21-1.6-1.07-1.87-1.33-4.27-.53-6.41,2.4-9.08,0-18.43,2.14-27.51.54-2.4-.27-5.61-1.07-8.28-1.6-4.54-1.33-8.81.8-12.82,1.87-2.94,2.4-5.88.53-9.08s-2.14-6.68-1.34-10.15c.53-3.21.27-6.14-.53-9.35-1.87-7.48,0-14.96-.53-22.71-.27-2.94.27-6.14,0-9.35-.27-4.27,3.21-8.01,7.48-8.01,10.42.53,20.84,1.34,31.25,2.14,1.6,0,2.94.8,4.01,2.14-.27,1.6-1.33,1.87-2.67,2.4-4.01,1.87-8.55,1.6-12.29,4.27-1.33.8-2.4.53-3.74-.27-3.47-1.87-7.48,1.07-10.95-.8-1.07-.27-2.4,1.07-2.67,2.4-.27.8-.27,1.87,0,2.67,1.6,4.27,2.94,8.01-1.07,12.29-2.4,2.67.8,5.88.53,9.08,4.54,1.6,8.01-.27,9.08-3.21,1.07-3.74,3.74-5.08,5.88-6.95,1.6-1.07,3.21-1.87,4.01-3.74,1.87-3.21,5.08-4.01,8.28-3.21,5.61,1.87,11.75,1.87,17.1,4.54.8,1.6,1.34,3.21.53,4.54-.27.27-.53.8-.8.8-3.21-.53-6.95.8-9.62-2.14-1.07-1.34-2.14-2.4-4.01-1.6-2.14.53-4.54.27-6.14,2.14-2.14,2.67-4.54,5.08-4.81,9.08-.53,5.34-1.34,10.42-1.6,16.03-.27,3.21-.27,6.95-3.74,9.35-3.47-1.07-5.08-4.54-8.82-5.08-5.61-.8-8.81,1.07-9.08,6.41,0,1.87.27,4.01,2.14,5.08,3.47.27,2.4-4.27,5.34-4.81,1.34.27,2.14,1.07,2.67,2.14,2.14,3.21,4.01,5.08,8.55,3.47,3.21-1.07,7.21-.27,10.42,2.94,1.6,1.6,4.27,2.4,6.41,3.74,6.41-3.74,10.95-8.55,15.23-14.16.8-1.07,1.87-1.6,3.21-1.07,1.33.8,1.6,1.87,1.6,3.21-.27,1.87-.53,3.74-.8,5.88-2.94,2.14-6.14,4.27-9.08,6.68-2.94,2.14-5.34,4.27-9.35,3.21-2.67-.8-5.61,1.07-8.01,2.4-.53.27-1.07.53-1.6,1.07-1.07,1.34-1.6,2.67-1.34,4.27.27,2.14,1.87,2.67,3.47,2.67,5.61.27,11.22.8,16.56,2.4,1.07.27,2.67-.27,4.01-.27,1.07-3.47,1.6-7.21,4.54-9.08,2.94-1.6,4.01-4.81,6.68-6.14,4.27-2.14,5.88-6.14,7.48-9.35,5.08-10.68,7.75-21.64,2.14-32.86-1.6-3.21-2.67-6.68-3.47-9.88-1.33-5.61-4.81-9.35-10.15-11.75-3.21-1.34-6.95-2.67-10.42-6.68,6.95-1.34,11.49.53,15.76,3.21Zm-57.16,70.79c-.53.27-1.07.8-1.34,1.07-5.88,6.14-2.94,11.49,4.01,14.96,3.21-2.4,5.88,1.34,8.55,1.34,2.67-5.61,2.4-5.34-.8-8.81-2.94-3.21-5.08-6.68-7.75-10.15-1.07.53-1.87,1.07-2.67,1.6Zm8.82,83.34c-1.07.8-1.07,2.14-.8,3.47.53,1.34,1.6,2.14,2.94,1.87,2.94-.8,5.34.8,8.28,1.07,1.87-2.4,3.47-5.08,3.74-8.01.27-1.07-.27-1.87-.53-2.94-2.4-.8-4.81-1.6-7.75-.8-1.6,1.6-3.74,3.21-5.88,5.34Zm33.39-19.23c.53-.53,1.34-1.07,2.4-1.34,2.14-.8,3.21-2.67,4.27-4.54,1.87-3.74,2.4-7.75,1.87-11.75-.27-2.14-1.34-4.27-.27-6.41,2.4-5.61.8-9.62-4.27-12.82-1.07-.53-1.6-1.87-2.4-2.67-5.34-5.61-11.49-8.81-19.5-8.28-2.4,2.94-6.14,5.34-6.41,9.08-.53,6.68-3.74,13.09-.8,20.3,1.6,4.01.8,9.35,1.34,13.89.53,4.54,2.14,7.75,5.88,10.42,6.68.53,12.82-.53,17.9-5.88Zm8.01-98.03c-.53-1.6-2.4-2.94-1.6-5.08,1.6-1.87,3.74-1.6,4.27.53,1.34,3.21,1.6,6.68,1.07,10.15,0,.53-.8.8-1.87,1.34-1.87-2.4-1.34-4.81-1.87-6.95Zm19.77,62.51c-.27-1.87-2.4-3.21-.53-5.08.27-.27.53-.53.8-.27,2.94.8,2.4,3.21,2.4,5.34.27.8-.27,1.6-1.07,4.01-.8-2.4-1.33-3.21-1.6-4.01Z" style="fill:#f2e863; stroke-width:0px;"/><path d="m345.71,311.18c-1.07,9.62-6.14,15.23-15.49,17.63-3.47.8-6.68,1.87-9.08,4.81-1.6,1.87-4.27,2.4-6.95,2.4-13.89,1.34-25.64-3.74-34.73-13.89-6.95-8.01-12.29-17.36-10.15-29.38.8-5.34,1.33-11.22-1.34-16.83-.8-1.34-.27-2.94.27-4.54,1.07-2.14,2.14-4.54,2.94-6.68,0-2.14-1.07-3.21-2.14-4.27-1.6-1.6-2.14-3.47-1.34-5.08,1.87-3.21,1.87-6.68,1.07-9.35-2.4-7.75-.53-15.23,1.07-22.44,1.07-5.08,1.07-9.62.27-14.69-1.6-9.08-1.6-18.43.8-27.51.53-1.87,1.07-3.47,2.14-5.08,6.41-7.21,13.09-14.16,21.9-17.63,8.55-3.47,17.63-4.81,26.71-.53,2.14,1.07,4.27,2.67,6.68,3.21,9.88,1.6,14.42,9.35,19.5,16.83,2.67,4.01,3.21,9.08,3.47,13.62.27,9.08,2.4,17.9,1.87,27.25-.53,4.81-.53,9.62-2.4,13.89-1.34,3.21-1.07,6.14-.27,9.35,1.87,8.28,2.94,16.56,1.6,25.11-1.07,5.61-1.07,11.22.53,16.83,1.07,4.54,1.34,8.82-1.87,12.82-.8,1.34-1.07,3.47-1.34,5.34-.27,2.4-1.6,4.01-3.74,5.08-1.33-3.47-2.67-6.95-4.01-10.42-.27-.8-.8-.8-1.07-.27-.8,1.34.53,3.74-1.6,4.54-1.33,0-2.14-.53-2.67-1.34-.53-.8-.8-1.6-1.87-1.07-.53,3.74-.53,7.48,3.47,9.62,2.67-.53,5.08-2.14,8.01-1.07-.27,1.07-.27,2.4-.27,3.74Zm-45.14-6.68c3.74,4.54,12.02,5.61,16.29,1.87,4.54-4.27,10.15-8.01,8.28-15.76-.27-1.07,0-2.67.27-3.74,1.07-5.08,2.67-9.62-.8-14.69-1.07-1.34-.53-4.27-.27-6.41.53-2.67,1.34-5.34,2.14-8.28.53-1.34,1.34-1.87,3.21-2.4,2.67,3.74,4.81,9.62,11.49,4.81,1.07-2.4,2.4-5.08,1.87-8.01-1.07-3.47.27-6.14,1.07-9.08.27-1.34.8-2.4,1.07-3.74.53-4.27-1.07-5.88-5.88-6.14-1.07,0-1.87,0-2.67-1.07-.8-3.21,1.07-5.61,2.67-8.55,1.6-2.14,4.01-4.27,3.21-7.48-1.07-4.54-.8-8.55,1.07-12.82,1.34-2.94-1.6-5.61-4.81-4.54-2.14.53-4.54,0-5.88,1.6-1.87,3.47-1.34,6.41-.27,9.62,1.87,4.54.53,8.55-2.4,11.75-3.21-.53-5.08-1.87-4.81-5.08.27-1.87-.27-3.74.27-5.61,1.87-5.61-1.6-10.95-.8-16.83,0-.53-.27-1.07-.8-1.6-4.01-5.88-10.68-11.75-19.77-10.15-2.14.53-4.27.53-6.68.8-1.6,4.01-3.21,8.01-5.08,12.02-1.34,2.14-2.4,5.61-.8,8.01,2.67,3.74.53,7.21.8,10.95,0,1.07-.8,1.6-1.87,1.87s-2.14-.53-2.14-1.34c-1.34-8.28-5.34-16.29-2.14-24.84.27-.8.53-2.67-1.34-2.67-1.6.53-1.87,1.87-1.6,2.94,0,5.61-.8,10.15-6.14,13.09-.8.27-1.6,1.34-1.6,2.14-.53,5.88-3.47,11.49-1.6,17.36.53,2.14,2.94,2.4,4.01,4.01-2.4,6.68-2.4,13.36-1.07,20.3.53,1.6.8,2.67-.27,4.27-2.67,4.01-3.21,9.08-2.14,13.62,1.07,5.34,3.47,10.42,5.34,15.49,1.6.8,3.74.53,3.74,0-.27-4.01,3.47-6.68,3.47-10.68,0-3.47,0-6.95-.8-10.15-1.07-4.81-2.94-9.62-2.4-13.89.8-5.34,1.07-10.68.53-16.03-.27-3.74,2.14-6.41,4.54-8.81,1.33-1.34,4.27,0,4.54,1.6,1.07,9.88,1.33,19.5,1.07,29.38,0,1.87-.27,3.74-1.34,5.34-2.4,3.47-2.14,7.48-.53,10.95,1.87,3.74,1.6,7.48,1.87,11.22.27,5.88-1.6,11.22-4.27,17.63,4.81,1.6,7.48,4.54,10.15,7.75Zm-19.23-6.41c-.8,1.07-1.6,2.14-2.67,3.21,3.74.8,3.47,5.08,6.68,6.41,1.34-6.41,1.07-6.41-.53-12.55-1.87,0-2.4,1.87-3.47,2.94Zm10.15-118.33c.27-1.87-.27-2.94-2.4-2.67-1.6,2.94.27,5.08.53,8.55.8-2.67,1.6-4.27,1.87-5.88Zm14.69-16.56c-5.08-.8-9.35,1.07-11.22,6.41.54,2.14,1.07,4.27,2.14,4.81,4.27,0,7.75.53,11.22,0,3.74-.53,7.21-1.87,11.22-2.94.27-2.14,2.94-4.01,1.07-7.48-4.54.27-9.62.27-14.42-.8Zm24.04,159.47c.53-1.6,1.33-3.47.27-5.34-2.67-.27-1.34,3.47-3.74,3.21-2.67-.53-1.87-2.94-2.4-4.54-.27-1.34-1.34-1.87-2.67-1.6-1.07,1.34-.53,2.94-.8,4.27,0,1.87-.8,3.74-1.07,5.34q3.74,2.4,10.42-1.34Zm5.88-146.11c-3.47-1.07-5.08-4.01-7.48-6.41-.27-.53-1.33-.8-1.6-.53-.53.53-1.6,1.34-1.6,1.87,0,5.88,2.4,10.95,5.61,15.76,1.6,2.4,4.54,2.14,5.88-.53.8-1.6,1.07-3.47,1.34-4.27.27-3.21,0-5.08-2.14-5.88Zm-6.14,68.92c-5.88-5.08-1.87-9.62-.53-14.16,1.6,4.54,3.74,9.08.53,14.16Zm10.42,40.87c-1.07-4.27-2.14-8.28-3.47-12.29,0-.53-.8-1.07-1.34-1.07-.8.27-1.87.8-2.14,1.34-1.6,2.94-1.34,5.88-.27,9.08,1.34,2.94,3.21,5.08,6.68,5.61.27-1.07.8-1.87.53-2.67Z" style="fill:#f2e863; stroke-width:0px;"/><path d="m388.45,268.97c1.6,4.27.53,8.28-4.01,11.22-2.4-1.07-4.54-4.27-8.55-3.47-3.74.8-4.81,3.74-6.41,6.41-1.07,2.14,0,4.27,2.67,6.41,3.74,3.21,5.88,3.21,9.62-.53.8-1.07,1.6-1.87,2.67-2.67,3.21,2.4,5.08,5.61,4.27,9.08-1.87,9.35-.27,18.43-.27,27.51,0,1.6.53,3.21.53,4.54,0,5.08-2.94,9.08-8.82,9.08-3.74-.27-7.48-.8-11.22-.53-3.47,0-6.68-4.27-6.68-8.01.27-2.67,0-5.34.8-8.28,1.07-2.4-.53-5.08.27-8.28,1.07-3.21.27-7.48-.27-10.95-.53-4.54-1.07-8.82.8-13.09,1.33-3.47,1.07-6.95,0-10.15-2.14-6.68-2.14-13.09-1.87-19.77.27-6.41.27-12.55.27-18.97,0-16.83,1.07-33.39,0-50.22-.54-7.21-.27-14.42-.27-21.9.27-4.01,2.94-6.95,7.48-7.21,3.74-.27,7.48-.27,11.22,0,3.74,0,7.75.53,11.49.27,4.01,0,6.41,1.6,8.28,5.08,2.67,4.81,4.81,9.62,4.27,15.23,0,2.14.53,4.54.8,6.68,1.07,5.61,2.4,11.22,2.4,16.83-.27,3.74.53,7.75,2.14,11.22,4.27,9.35,5.61,19.5,7.21,29.38,1.34,8.01,3.47,16.03,1.87,24.58,0,1.07.53,2.4.53,3.47,2.94,2.4,3.47-2.67,6.68-1.07,1.07,1.34,1.34,3.74.53,6.41-.27,1.34-1.34,3.21-2.94,3.21-4.27.27-4.54,3.74-5.61,6.68-.27,1.07-.8,2.4,0,3.47,4.81,1.87,7.75-2.67,12.02-3.47,4.54-.8,3.74-6.95,7.48-8.55,0-2.67-1.6-3.21-2.94-3.47-1.6-.53-2.14-1.6-2.67-2.67-.27-1.6-1.07-3.21-.8-4.81,1.87-8.28.27-16.83,1.6-25.38.53-2.94,1.07-5.61,2.94-7.75,4.01-2.14,7.21-.53,10.42,1.6,4.27-5.61,7.48-11.22,6.14-18.43,3.21-6.95,2.94-14.16,2.4-21.37,2.14-3.47,2.14-6.95.27-10.68-.8-1.87,0-3.74,1.34-5.34.53-.53,1.07-.8,1.34-1.34,2.67-4.01,1.6-7.48-3.21-8.01-3.21-.27-4.54-1.87-5.08-4.54s1.07-5.61,3.74-6.95c2.4-1.07,5.08-1.07,7.48,0,4.81,1.87,9.62,2.67,14.69.27,1.07-.53,2.4-.27,3.74-.27,3.47.27,6.68,3.21,6.41,6.95-.27,4.54-.53,9.35-3.21,14.16-4.81-1.34-9.35-6.14-15.23-1.34,0,1.6-3.21,3.74-4.01,7.48,4.01,2.4,5.88,6.68,8.82,10.42,3.74-1.6,5.61-4.54,8.28-6.68,2.4-1.87,5.34-.8,5.88,2.14.27,1.6.53,3.21,0,4.81-1.07,2.94-1.6,6.14-3.74,8.28-2.14,1.6-2.94-.8-4.54-.8-.8-.27-1.07.27-1.34.8-1.87,4.54-2.67,9.08-2.14,13.89.8,7.21.8,14.42,3.21,21.37,2.14-1.07.8-4.54,4.01-5.34,1.6,8.55,5.34,16.29,5.88,25.11,0,2.94.27,5.88-.53,8.55-1.07,2.4-4.54,3.47-6.14,1.34-1.87-2.14-4.01-4.27-4.01-7.48v-.8c0-6.14-2.94-10.15-9.08-12.02-2.67.53-1.33,4.27-3.74,5.61-2.94-1.34-.53-5.08-3.21-6.41-3.21.8-2.4,4.01-4.01,5.88-1.87,1.6-3.21-1.34-4.81-.8-2.14,1.34-2.4,3.21-2.14,5.08.27,7.48-.8,14.42-2.94,21.64-1.34,5.61-1.6,11.75-2.4,17.9-.53,5.61-1.07,11.22-4.27,16.29-2.4,3.21-1.6,7.21-1.6,10.95,0,3.47-1.07,6.14-3.74,8.28-.53.53-1.07.8-1.6,1.07-1.6,1.07-15.23.27-16.56-.8-1.07-1.07-2.4-2.4-2.94-3.74-1.07-2.14-1.87-4.81-2.14-7.21-.8-13.62-5.08-26.71-7.75-39.8-.8-3.74-2.4-7.21-3.47-10.95-1.07-4.54-2.67-9.08-1.34-13.89.8-3.74-.53-4.81-4.54-4.27-.8.27-1.87.27-3.47.53-3.21,4.27-4.54,8.28-2.67,13.36Zm5.88-65.18c.27-3.21.8-6.14-1.6-10.68q-1.34,6.95,1.6,10.68Zm4.54-7.48c-1.6,2.67-.53,4.54.53,7.21,1.07-2.94,1.34-4.81-.53-7.21Zm3.74,59.57c-.53,1.34.27,2.4,1.33,3.21,1.34.8,2.67,1.6,4.01,2.14,1.87.53,3.47-.8,4.01-2.67.8-4.27-1.87-6.14-5.08-8.28-2.94.53-3.21,3.47-4.27,5.61Zm31.52,43.54c-.53-1.07-1.33-1.87-2.67-2.14-3.47-.53-6.41,2.4-5.34,5.61.53,2.94,1.87,5.34,5.08,6.68,3.47-2.67,3.74-6.14,2.94-10.15Zm6.68-48.35c.27,1.07.27,1.87.53,2.94.27,1.6.27,3.74,2.67,4.01,1.6.27,2.67-1.34,2.4-4.27,0-1.87.27-3.74-1.34-5.88-3.74,1.34-4.27,1.87-4.27,3.21Zm8.55-66.51c-.53-1.6-.53-3.21.8-4.27.27-.27,1.34-.27,1.6-.27,2.14,1.07,2.67,2.67,2.14,4.81,0,.8-.8,1.6-1.87,1.6-1.6,0-2.4-.53-2.67-1.87Zm33.66,111.39c4.27,7.75,5.88,14.69,1.33,21.9-1.87,2.67-1.87,5.34,0,8.01.27.27.27.53.53.8,2.14,5.34.27,9.08-5.34,8.55-3.47-.27-6.68,1.07-10.15,1.07-4.54-.27-7.21-1.34-8.28-5.08-1.07-4.27-2.4-8.28-2.4-12.82.27-9.88.53-19.5.8-29.38,0-2.4-.27-5.08,1.87-7.21.8-1.07,2.14-2.4,4.01-1.87,1.33.53,1.6,1.87,1.87,2.94,1.07,5.88,2.4,11.75,4.81,16.83,4.81,2.67,8.01-.27,10.95-3.74Zm-8.01,28.05c.27.27,1.07.53,1.6.27.53,0,1.07-.8,1.34-1.07,0-2.4-.53-4.27-2.94-5.61-1.6,2.14-2.14,4.27,0,6.41Zm8.28-33.39c-.27.27-1.33.27-1.6-.27-2.4-2.4-.8-4.81.53-7.48,2.4,2.67,3.74,5.08,1.07,7.75Z" style="fill:#f2e863; stroke-width:0px;"/><path d="m564.21,166.93c9.88,5.61,15.49,14.16,16.29,25.38.8,8.55.53,17.63-.8,26.18-1.07,7.48-3.74,14.69-10.95,19.5v6.95c.53.27,1.07,1.07,1.87,1.6,2.14,1.34,3.74,3.47,5.08,5.61,1.33,1.6,1.87,3.47.27,5.08-1.34,1.6-2.94,1.07-4.27.27-1.07-.27-1.87-.53-2.4-.8-2.67.27-2.4,2.94-4.01,4.01-4.27,3.21-4.27,8.01-2.14,11.75,2.94,5.34,1.6,10.42,1.33,15.49,0,1.07-.27,1.87.8,2.67,1.6-.53,3.21-1.07,5.61-1.87,1.07,1.6,2.4,3.47,2.94,4.27,2.94.53,4.27-.53,4.27-1.6,0-2.67-.53-5.61-.8-8.28,0-1.87.27-3.47,2.14-4.01,1.6-.27,4.27,1.34,4.54,2.94.27.8.53,1.87.27,2.67-1.34,5.88-.8,12.02-.54,17.9.27,1.87-.27,3.74-1.07,5.61-6.14,13.62-16.03,23.24-31.79,25.11-3.74.53-7.48,1.07-11.22,1.07-3.21.27-6.41.27-9.62-.27-6.68-1.34-9.35-1.87-14.96-.27-4.01,1.07-8.28.8-12.29.8-3.21,0-5.88-3.21-5.61-6.41.27-2.94,1.07-5.61,1.87-8.28.53-2.67,1.87-4.81,4.81-5.08,1.33,0,2.4-1.07,2.94-2.14,1.34-1.87,1.07-4.81-.8-5.88-1.6-1.07-3.47-1.6-5.08-2.67-2.14-1.6-3.47-3.74-3.47-6.41-.27-3.21-1.07-6.41,2.94-8.81,4.01,2.67,9.35,2.4,13.09,5.88,3.21-2.14,3.21-5.34,2.4-8.01-1.07-3.21-.8-6.14,1.33-8.81.27-.53.53-1.34.53-1.87-.27-.8-.53-1.87-1.33-2.4-1.34-1.07-1.6,1.34-2.94,1.07-1.6-.8-.53-3.74-2.94-4.01-.53.27-1.34.53-1.34,1.07.27,6.41-5.34,8.01-9.35,10.68-1.07.53-2.4-.27-3.21-1.6-1.07-1.87-1.33-4.27-.53-6.41,2.4-9.08,0-18.43,2.14-27.51.54-2.4-.27-5.61-1.07-8.28-1.6-4.54-1.33-8.81.8-12.82,1.87-2.94,2.4-5.88.53-9.08s-2.14-6.68-1.34-10.15c.53-3.21.27-6.14-.53-9.35-1.87-7.48,0-14.96-.53-22.71-.27-2.94.27-6.14,0-9.35-.27-4.27,3.21-8.01,7.48-8.01,10.42.53,20.84,1.34,31.25,2.14,1.6,0,2.94.8,4.01,2.14-.27,1.6-1.33,1.87-2.67,2.4-4.01,1.87-8.55,1.6-12.29,4.27-1.33.8-2.4.53-3.74-.27-3.47-1.87-7.48,1.07-10.95-.8-1.07-.27-2.4,1.07-2.67,2.4-.27.8-.27,1.87,0,2.67,1.6,4.27,2.94,8.01-1.07,12.29-2.4,2.67.8,5.88.53,9.08,4.54,1.6,8.01-.27,9.08-3.21,1.07-3.74,3.74-5.08,5.88-6.95,1.6-1.07,3.21-1.87,4.01-3.74,1.87-3.21,5.08-4.01,8.28-3.21,5.61,1.87,11.75,1.87,17.1,4.54.8,1.6,1.34,3.21.53,4.54-.27.27-.53.8-.8.8-3.21-.53-6.95.8-9.62-2.14-1.07-1.34-2.14-2.4-4.01-1.6-2.14.53-4.54.27-6.14,2.14-2.14,2.67-4.54,5.08-4.81,9.08-.53,5.34-1.34,10.42-1.6,16.03-.27,3.21-.27,6.95-3.74,9.35-3.47-1.07-5.08-4.54-8.81-5.08-5.61-.8-8.82,1.07-9.08,6.41,0,1.87.27,4.01,2.14,5.08,3.47.27,2.4-4.27,5.34-4.81,1.34.27,2.14,1.07,2.67,2.14,2.14,3.21,4.01,5.08,8.55,3.47,3.21-1.07,7.21-.27,10.42,2.94,1.6,1.6,4.27,2.4,6.41,3.74,6.41-3.74,10.95-8.55,15.23-14.16.8-1.07,1.87-1.6,3.21-1.07,1.33.8,1.6,1.87,1.6,3.21-.27,1.87-.53,3.74-.8,5.88-2.94,2.14-6.14,4.27-9.08,6.68-2.94,2.14-5.34,4.27-9.35,3.21-2.67-.8-5.61,1.07-8.01,2.4-.53.27-1.07.53-1.6,1.07-1.07,1.34-1.6,2.67-1.34,4.27.27,2.14,1.87,2.67,3.47,2.67,5.61.27,11.22.8,16.56,2.4,1.07.27,2.67-.27,4.01-.27,1.07-3.47,1.6-7.21,4.54-9.08,2.94-1.6,4.01-4.81,6.68-6.14,4.27-2.14,5.88-6.14,7.48-9.35,5.08-10.68,7.75-21.64,2.14-32.86-1.6-3.21-2.67-6.68-3.47-9.88-1.33-5.61-4.81-9.35-10.15-11.75-3.21-1.34-6.95-2.67-10.42-6.68,6.95-1.34,11.49.53,15.76,3.21Zm-57.16,70.79c-.53.27-1.07.8-1.34,1.07-5.88,6.14-2.94,11.49,4.01,14.96,3.21-2.4,5.88,1.34,8.55,1.34,2.67-5.61,2.4-5.34-.8-8.81-2.94-3.21-5.08-6.68-7.75-10.15-1.07.53-1.87,1.07-2.67,1.6Zm8.82,83.34c-1.07.8-1.07,2.14-.8,3.47.53,1.34,1.6,2.14,2.94,1.87,2.94-.8,5.34.8,8.28,1.07,1.87-2.4,3.47-5.08,3.74-8.01.27-1.07-.27-1.87-.53-2.94-2.4-.8-4.81-1.6-7.75-.8-1.6,1.6-3.74,3.21-5.88,5.34Zm33.39-19.23c.53-.53,1.34-1.07,2.4-1.34,2.14-.8,3.21-2.67,4.27-4.54,1.87-3.74,2.4-7.75,1.87-11.75-.27-2.14-1.34-4.27-.27-6.41,2.4-5.61.8-9.62-4.27-12.82-1.07-.53-1.6-1.87-2.4-2.67-5.34-5.61-11.49-8.81-19.5-8.28-2.4,2.94-6.14,5.34-6.41,9.08-.53,6.68-3.74,13.09-.8,20.3,1.6,4.01.8,9.35,1.34,13.89.53,4.54,2.14,7.75,5.88,10.42,6.68.53,12.82-.53,17.9-5.88Zm8.01-98.03c-.53-1.6-2.4-2.94-1.6-5.08,1.6-1.87,3.74-1.6,4.27.53,1.34,3.21,1.6,6.68,1.07,10.15,0,.53-.8.8-1.87,1.34-1.87-2.4-1.34-4.81-1.87-6.95Zm19.77,62.51c-.27-1.87-2.4-3.21-.53-5.08.27-.27.53-.53.8-.27,2.94.8,2.4,3.21,2.4,5.34.27.8-.27,1.6-1.07,4.01-.8-2.4-1.33-3.21-1.6-4.01Z" style="fill:#f2e863; stroke-width:0px;"/><path d="m597.07,323.73c1.07,2.94,2.4,5.61,3.47,8.01-1.6,2.67-3.47,3.47-5.88,2.4-1.33-.8-2.67-2.14-2.4-3.74.8-2.4,1.6-4.81,2.67-7.48,1.6.8,1.87.8,2.14.8Zm8.55-20.03c1.07,3.47-.27,5.61-3.74,7.75-.53.27-1.87.27-2.4-.27-.8-.27-1.07-1.34-1.07-2.14-.27-4.01,2.14-6.95,4.27-10.68,1.34,2.14,2.4,3.74,2.94,5.34Zm1.07-31.25c3.21,7.48-.8,12.82-4.27,18.16-.8-6.41-4.81-13.62,4.27-18.16Zm55.29-21.37c-1.87.53-4.01,1.34-6.14,1.87-1.07,2.67-.8,4.81,0,6.95q7.75,2.67,5.88,8.28c-2.4,0-5.34-1.87-6.95,2.14-.53,1.07-2.14,1.34-3.47,1.07-1.07-.53-1.87-1.6-2.14-2.94-.27-.27-.27-.53-.27-.8,1.34-9.35-1.34-18.16-4.01-26.98-.8-2.67-1.07-5.61-.53-8.28.8-3.21,1.34-6.14,1.6-9.08,1.87-.8,2.94-.27,3.47,1.07.8,2.4,1.6,4.81,4.01,6.68,1.87-2.14,3.47-4.81,2.67-7.48-1.6-5.34-1.87-11.22-4.81-15.76-3.21,0-4.81,2.4-6.95,2.67-1.34,5.08-2.4,9.62-3.47,13.89-2.14,1.87-4.01.53-5.88.8-.53.8-1.07,1.87-1.07,2.67,1.6,8.81-2.67,15.76-6.68,22.97-.27.53-1.07.8-1.87,1.6-1.33-8.55-.53-17.63-7.21-24.84-3.47,3.21-3.74,7.21-1.87,10.42,4.27,7.21,4.27,14.96,2.94,22.71,0,.27,0,.8.53,1.6,6.41,0,12.29,2.4,15.76,8.81.8,1.6,2.4,2.14,4.01,2.14h4.54c.54,2.67-1.33,2.14-2.4,2.14-4.27-.8-8.55,2.14-12.82-.27-4.01,2.4-8.55-.53-12.82,1.34-1.07-1.87-1.87-3.21-2.4-4.54s-1.07-2.94-2.4-2.67c-5.08,0-5.34-3.21-5.61-6.95,0-1.87-.27-3.74-.53-5.61-.8-5.34-.27-10.15,2.14-14.96.27-.53.53-1.07.8-1.6,4.27-6.14,4.54-13.09,3.47-20.03-.53-2.94-.53-5.34,2.4-7.21.8-.53,1.34-2.4,1.34-3.47.27-3.74-1.34-7.48.53-11.22,1.34-3.21,2.94-6.14,4.54-9.35,2.67,3.47,3.21,5.08,2.14,8.81-2.4,7.75-1.33,15.76-4.01,23.24,5.61,0,6.14,0,6.68-3.21.53-1.87.8-3.74.8-5.61.27-2.67.53-4.81,2.94-6.41,2.14-1.34,2.67-3.74,2.94-5.88.27-1.34.27-2.67-1.07-3.47-2.4-1.34-2.67-3.21-1.34-5.34.53-.8-.27-1.07-.27-1.6-.53-3.21,0-4.01,2.67-4.27,3.47-.53,6.95-.53,10.15-.8,2.67,2.14,2.4,5.88,4.54,8.28.27-4.01,3.74-3.74,6.14-4.54.53-2.14-.8-2.67-2.67-3.21-2.67-.53-4.27-1.87-4.01-5.08.27-3.21-.27-6.14-.53-9.35-5.88,1.07-11.49,4.01-16.29-.27-4.27,2.14-3.47,7.21-6.41,9.35-1.6,0-1.87-1.07-1.87-1.87-.27-3.47-.53-6.95-.53-10.42,0-4.01,2.4-6.95,6.41-6.95,7.21,0,14.42-2.14,21.64-1.07,5.08.8,7.75,2.4,8.81,6.95,1.6,7.48,3.74,14.69,4.01,22.44,0,2.94,0,5.61,1.6,8.28.8,1.34.8,2.94,1.07,4.54.53,5.34,1.07,10.68,3.21,15.76.53.8.8,1.87.8,2.67.8,14.16,5.34,27.78,7.21,41.94,0,1.34.27,2.67-.27,3.74-1.07,4.54-1.34,8.81.53,13.09.27.53,0,1.34-.27,1.6-.53.8-1.34,1.6-2.14,1.87-.8,0-2.14-.8-2.14-1.34-.54-5.88-4.01-10.42-6.95-15.49,1.87-4.81,4.01-9.88-1.87-14.16Zm-39.53,52.89c-.8,4.01-4.54,6.41-3.21,11.49,1.07,3.74-.8,8.01-1.34,12.02,0,1.6,0,3.21-.27,4.54-.53,1.87-2.94,3.21-4.54,2.67-1.34-.8-2.67-3.21-1.6-4.81,1.87-2.94,2.14-6.41,3.47-9.88,1.07-3.47,1.87-7.21,1.33-10.95-.27-2.4.27-5.08.53-7.48.27-1.6,1.07-3.47,2.67-3.74,4.54,0,4.54-3.47,5.08-6.68,6.94-2.94,14.42-3.21,21.9-2.14.8,0,1.87,1.07,1.87,1.87.27.53-.53,1.87-1.07,2.14-3.21,1.34-6.41,2.67-10.15,1.87-2.4-.27-4.81-.53-8.01-.8-1.07,4.27-5.88,5.61-6.68,9.88Zm53.69,6.14c-1.07-3.47-4.81-4.81-8.55-3.74-1.6.53-2.94,1.34-4.54,1.87-1.07,8.28,1.6,16.03,2.94,23.77-1.07,1.34-2.14,2.14-4.01,1.34-1.6-.53-2.67-1.6-2.94-3.21-.27-3.47-.8-6.95-.53-10.42.27-3.47-.53-6.14-1.87-9.08-1.6-4.01-2.94-7.75-4.27-11.49-1.34-4.01-.8-5.88,2.94-7.75,1.6-1.07,3.21-1.87,4.54-3.47,1.6-1.87,3.74-2.14,5.88-1.34,2.67.53,3.21,2.67,3.21,5.08-.27,2.94.27,5.61,1.87,7.75,1.87-.53,1.07-3.21,3.21-3.21.53,0,1.34.27,1.6.53,2.67,5.08,2.14,11.22,6.14,15.76-.8,5.61,2.4,10.15,3.74,15.23.53,2.4,1.07,4.27-1.07,6.14-2.14,1.87-4.27,2.4-6.95,1.34-1.34-.8-2.67-1.87-4.54-3.21,6.68-7.21,5.08-14.42,3.21-21.9Zm-22.97-69.72c.27,2.14.27,4.27.54,6.41.27,1.6,1.07,2.94,3.47,2.4,2.4-4.27,6.95-8.28,1.87-13.89-1.6.27-3.21.27-4.54.53-1.34,1.34-1.34,2.94-1.34,4.54Z" style="fill:#f2e863; stroke-width:0px;"/><path d="m698.57,254.28c0,2.14,1.34,3.47,2.4,5.08,1.07,1.07,2.14,1.34,3.47,1.34,1.6-.27,2.94-1.07,4.54-.8,1.33,0,2.94,1.07,4.54.27,1.6-1.07.8-2.94,1.33-4.27.27-1.07,1.34-1.34,2.14-1.07.53,0,1.07.8,1.33,1.34.53,1.34-.53,3.21,1.34,4.54,2.14-1.34.27-4.01,1.6-5.61.53-.53,1.34-1.34,2.14-1.34s1.6.8,2.14,1.6c.27.53.53,1.07.53,1.87,0,1.34-.53,2.94.8,4.27,1.34,1.34,2.94.53,4.54.53.53,0,1.07.53,1.6.8.27.53.53,1.07.53,1.6,0,.27-.27.8-.53.8,0,.27-.27.53-.53.53-10.95,1.6-21.64,4.01-32.86,3.21-6.95-.53-9.35-4.81-6.14-10.95.27-.53.8-1.07,1.07-1.6.53-.27.8-1.07,1.07-1.6.27-2.67-2.94-5.08-1.6-8.01.8-1.34,1.6-2.67,2.67-4.27,4.01.8,8.01,1.34,12.02,1.87,5.34,1.07,10.42,1.87,15.76-.53,3.74-1.87,8.28-.27,13.89,1.07-5.08,4.54-9.88,4.54-14.16,5.61-5.08-2.67-10.68-.8-15.76-1.07-2.67,0-5.08-1.34-7.48,0-1.6,1.34-2.67,2.94-2.4,4.81Zm53.96,7.75c1.6.27,2.94.53,4.54.53,2.94.27,5.61-.27,7.48-2.94.8-1.07,1.6-1.87,2.4-2.94,4.54,4.81,5.08,6.95,2.14,10.42-1.6,1.87-3.47,2.94-5.88,2.4-1.34-.27-2.67-.27-3.74-.53-2.67-1.07-5.08-1.6-8.01-.27-2.94,1.34-6.41.27-9.35-.53-1.87-.27-3.74-1.34-3.74-3.74,6.68-2.94,9.35-3.21,14.16-2.4Zm-9.88-12.29c-1.87-.8-3.47-1.87-3.21-4.27,0-1.87,2.67-3.74,5.08-3.21,2.4.27,4.81.53,7.21,1.6,1.6.53,3.74.8,4.27,2.94-3.74,4.54-8.28,4.81-13.36,2.94Zm24.58.27c-2.14,0-4.27-2.4-3.74-4.27.53-1.34,1.34-2.14,2.94-1.87,1.87.27,3.47,2.14,3.47,3.74-.53,1.34-1.6,2.14-2.67,2.4Z" style="fill:#f2e863; stroke-width:0px;"/><path d="m804.88,272.98c-.8,7.21-1.6,14.69-2.4,21.9-.8,6.68-.27,13.09,1.6,19.5,1.34,4.54.53,9.35,0,14.16-.27,3.47-3.74,7.21-7.75,6.68-3.47-.53-6.95,0-10.42-.27-4.27-.27-7.21-3.74-6.14-7.75,1.07-2.94.27-5.34-.27-8.01-1.07-5.34-2.14-10.68-.53-16.03,1.07-4.81-.27-9.62,1.87-14.42,1.33-2.94,1.07-6.95-.53-10.15-2.94-5.61-2.94-11.75-2.67-17.63.27-5.61,1.07-10.95,1.07-16.56.27-6.95,0-13.89.27-20.84.53-5.08-2.4-9.88-1.07-14.69s.8-9.62-.27-14.16c0-.8-.27-2.14,0-2.94,2.67-5.34,1.34-10.95.27-16.56-.53-2.94-.27-6.41,0-9.62.53-3.47,4.01-6.95,7.48-7.21,4.81-.53,9.35-1.34,14.16,0,6.14,1.87,12.55,1.34,18.7.27,3.47-.53,6.41-.53,9.35.27,4.27.8,8.81,1.87,12.82,3.21,7.75,2.67,12.55,8.28,16.29,15.23,3.21,5.88,4.81,12.29,5.34,18.97.27,10.95,0,21.64-1.33,32.32-.8,5.34-2.14,10.95-5.08,15.76-2.14,3.74-2.67,8.28-5.88,11.75-.8,1.07-.8,3.21-.53,4.54.27,5.34,0,11.22,1.87,16.03,2.67,7.21,3.21,14.69,6.41,21.64.8,1.87,1.34,4.54,1.07,6.41-1.07,4.27,0,7.75,2.4,10.95,2.94,4.01,1.87,9.08,3.74,13.36.53,1.34-1.07,3.21-2.67,3.47-5.61,0-11.22,1.07-16.83,1.6-3.74.53-6.14-1.6-6.95-5.08-3.21-11.75-6.41-23.77-9.35-35.79-1.07-3.74-1.6-8.01-1.87-12.02-.27-3.74-1.07-6.68-4.81-8.28-1.87-1.07-3.21-3.21-4.54-4.81-6.14-1.87-8.81,2.67-12.82,4.81Zm-6.95,30.72c.27-2.4-.53-4.54-2.94-5.34-.8-.27-1.87-.53-2.67-.8-1.6-1.07-2.14-3.47-.8-5.08,1.07-1.34,2.94-2.4,4.01-3.74,1.87-2.14,1.34-5.88-1.07-6.41-2.67-.53-4.81-3.21-8.55-2.14-.27,2.94-2.94,5.61-1.34,8.81,1.6,2.94,1.07,6.14,1.07,9.08,0,3.21,0,6.41,2.14,9.35,2.67,1.07,5.34,2.4,8.81,3.74.53-2.67,1.07-5.08,1.34-7.48Zm-12.29-120.2c-.53,5.34-1.33,10.42,2.94,14.96,1.87-.53,3.74-1.07,5.61-1.34.53-5.08,1.34-9.62.53-14.96-3.47.27-6.14-.27-9.08,1.34Zm2.14-15.23c-.53,2.94-.53,5.88.8,8.81,1.34-.27,2.4-.53,3.21-.53v-8.28c-2.14-1.07-3.74-1.34-4.01,0Zm2.4,80.4c-4.54,7.75-1.87,14.16-1.33,20.57,2.94-6.14,1.6-12.55,1.33-20.57Zm8.28-13.36c-.27-3.21-1.6-4.54-4.81-4.81-2.94,0-5.08,1.34-5.34,4.01-.53,3.47-1.87,7.48,3.21,9.35,1.6.8,1.6,2.67,1.87,4.27.53,2.4,2.14,3.74,4.54,3.74,1.6.27,2.94-1.07,4.27.8,1.07,1.34.8,2.94.8,4.27,0,1.07,0,1.87.53,2.67.27.53,1.07,1.34,1.34,1.07.8,0,2.14-.53,2.14-1.07.53-3.47.53-6.68.8-9.62-3.74-2.4-7.75-.53-11.22-4.01,2.4-3.21,2.4-6.95,1.87-10.68Zm-10.15-21.37c-.53,2.67-1.34,5.08,1.33,7.75.8-4.01,3.74-4.81,6.95-6.41-2.94-2.4-5.61-2.67-8.28-1.34Zm10.42,45.41c0-1.34,0-2.67-2.14-2.14-.53,2.67-.8,5.34-1.6,9.88,2.94-3.47,3.74-5.34,3.74-7.75Zm24.31-17.63c.8.27,2.14-1.07,3.21-1.6,6.14-3.21,8.82-9.62,12.82-14.42-.27-1.34-.27-2.4-.53-3.21-2.4-6.68-4.01-13.36-2.94-20.57.8-5.08-1.6-9.62-5.08-13.62-3.21-3.74-6.14-5.34-10.69-3.21-1.6.53-3.21.8-4.81.8-5.34-.27-8.01,3.21-9.35,7.48-.8,2.67-1.6,5.88-1.07,8.55,1.07,6.95.27,13.89.27,20.84-.27,3.47-.53,6.95-.27,10.42.27,4.01,4.54,5.88,5.34,9.62,4.27.27,8.55-2.4,13.09-1.07Zm2.4,7.75c-1.87-.8-4.01,1.07-3.47,2.94.53,2.4,1.33,4.54,2.14,6.95,0,.27,1.07.53,1.6.53s1.6-.53,1.6-.53c-1.33-2.94,1.6-4.54,2.67-7.75-1.6-.8-2.94-1.87-4.54-2.14Zm-2.94-73.99c-.27,1.6,1.07,2.67,2.67,2.67,1.6.27,1.87-1.07,1.87-2.4s0-2.94-1.87-3.47c-1.6.53-2.67,1.34-2.67,3.21Zm10.42,80.94c0,1.6-.53,3.21,1.34,4.01.27,0,.53,0,.8-.27,1.6-1.07,1.6-2.67,0-4.81,0-.27-.53-.53-1.34-1.07-.27,1.07-.53,1.6-.8,2.14Zm2.14,16.56c-2.4,5.61-.53,9.35,3.74,12.29q7.48-3.21,5.61-12.29c-3.47-.53-6.68-.8-9.35,0Zm6.14,24.04c-.8,6.14,0,11.75,3.74,16.83,1.34,1.34,4.54,1.34,4.54,0,0-3.21,4.27-2.94,4.27-5.61-.27-2.4-3.74-3.47-3.21-5.61,1.07-5.08-3.47-8.28-3.21-12.82q-6.95-.53-7.21.53c1.6.8,4.01.53,4.54,2.94,0,2.14-3.21,1.6-3.47,3.74Zm3.21-120.2c-1.07-.27-1.6.27-1.6,1.34-.27.53,0,1.34.27,1.6,1.33,1.34,2.94,1.34,4.54.8.27,0,.53-1.07.8-1.6-.8-1.07-1.6-1.6-4.01-2.14Z" style="fill:#f2e863; stroke-width:0px;"/><path d="m948.59,327.47c.8,5.34-1.87,8.28-7.48,8.28-4.54-.27-9.35-.27-14.16-.8-5.61-.53-11.22-.27-16.83,0-9.88.8-19.5.53-29.38.27-6.41-.27-9.08-3.74-8.28-10.15,1.34-14.96,1.6-30.18,0-45.41-.53-5.34-1.07-10.68.53-16.03.27-.27.27-.53.27-.8-1.6-13.36,2.14-26.44-.8-39.8-.53-2.4-.53-5.08-.53-7.48.27-6.68.8-13.36,1.07-19.77,0-2.67,0-5.08-.27-7.75-.53-3.47-.8-6.95-.27-10.42.53-3.74.53-7.48.27-11.22-.27-4.54,2.94-8.01,7.48-8.01,8.81-.27,17.63-.27,26.44-.27,10.95,0,21.64,0,32.32.27,8.01,0,10.95,2.94,11.22,10.68v7.48c-.27,6.41-3.74,9.88-10.15,10.42-4.01,0-8.28-.27-12.02-1.87-3.74-1.6-6.68-1.34-10.15-.27-1.87.53-3.74,1.34-5.61,1.07-5.88-.27-9.62,2.67-12.82,7.21.27,5.88.8,11.75.8,17.9-.27,4.27-.53,8.81-4.27,11.75-2.67.53-3.74-1.6-5.61-2.14-1.6-.53-2.67.8-4.01,1.34-1.34.53-2.94,1.6-2.4,2.67,1.6,3.21-2.4,5.08-1.6,8.01,7.21,3.74,8.55,2.94,12.55-5.88.8,0,1.33-.27,1.87,0,4.54.53,7.21,5.34,11.75,5.61s8.81,1.07,12.82,2.94c2.14,1.07,4.01.53,6.41-.27,4.81-1.34,9.08,2.14,8.01,6.95-.8,4.01-1.34,7.48-1.07,11.49.27,3.21-1.87,5.88-4.81,5.61-6.68-.27-12.82,2.67-19.77,2.14-7.21-.53-10.95,4.54-10.15,11.49.53,4.81.8,9.62,0,14.16-.53,3.21-.53,6.41,0,9.62,1.07,8.01,4.81,12.02,12.55,12.29,6.95.27,13.89-.27,20.83-.53,2.14,0,4.01,0,5.88-.27,4.54-.27,8.01,1.6,10.68,6.95-2.67,3.74-2.14,8.01-1.33,12.55Zm-66.78-25.11c4.01,0,3.47,4.81,6.41,6.14,3.21-4.27,1.6-8.28-.27-12.29-2.14-.27-4.01-.53-5.88-.8-2.14,2.94-1.33,4.81-.27,6.95Z" style="fill:#f2e863; stroke-width:0px;"/><path d="m988.12,306.37c2.67,3.47,6.41,3.47,10.15,3.47,8.28-.27,16.56-1.34,24.84-.53,1.07.27,2.4,0,3.74.27,3.47.8,6.14,3.74,6.14,7.48,0,4.01,0,8.01-.27,12.29-.53,4.81-3.47,7.48-8.28,7.21-9.62-.8-19.23-1.34-29.12.27-1.6.27-3.21.27-4.81,0-6.41-1.07-12.82-1.34-19.5,0-6.95,1.34-10.68-2.67-10.95-9.62,0-3.74-.53-7.48-1.07-11.49-.53-3.74-.8-8.01,1.34-12.02,1.87-2.94.8-6.68.8-10.15,0-3.74,0-7.48.8-11.22,1.87-7.75-.27-15.23-1.6-22.44-.8-5.88-1.34-11.22.27-16.83,1.07-3.74,1.34-7.48,1.07-11.49-.53-5.08,1.07-10.42-.8-15.76-1.87-5.08.27-10.68-.8-16.03-1.33-5.34-.27-10.68-1.07-16.03-.53-6.14.8-12.02.8-17.9,0-4.27,2.4-6.41,6.41-6.41,4.27,0,8.28.53,12.55,0,2.94-.27,6.41,2.4,6.68,5.34,1.07,7.75,3.47,15.76,1.87,23.51-1.87,8.81-1.07,17.63-.27,26.44.27,4.81.27,9.88-1.07,14.96-1.34,4.27-1.6,8.81-.8,13.09.53,2.94.53,5.88.53,8.55.27,8.55-.8,17.1,1.6,25.64.54,1.87.54,4.27,0,6.41-1.07,7.21-1.6,14.42-1.33,21.9.53.27,1.6.53,2.14,1.07Zm-17.9-86.55c-1.33-.27-2.4.53-2.94,1.6-.8,1.07-.27,2.14.53,3.21,1.6,2.14,2.94,4.01,6.14,3.74,2.14-2.4,4.01-4.81,1.07-8.55h-4.81Zm-1.33,63.57c-.8,1.34-.27,2.4,0,3.47.53-1.07,1.33-2.4,0-3.47Zm-.27-41.67c0,2.94,1.34,5.61,2.94,8.28,4.54-1.87,8.28-4.01,6.68-10.42-3.21,2.4-6.68-.27-9.62,2.14Zm1.6,18.97c.27,5.08,3.47,6.41,8.55,3.47-1.33-1.6-2.94-2.67-3.74-4.27-.8-1.34.53-3.74-1.87-5.08-2.67,1.07-2.94,3.47-2.94,5.88Zm4.81-83.88c.8-1.6,1.34-3.21-.27-4.81-1.6.53-3.47,0-4.27,2.14.8,1.87,2.67,2.14,4.54,2.67Zm-1.34,130.89c-1.07,2.67,0,4.81,1.6,6.68.27.53,1.33.8,1.6.53,2.14-1.34,2.14-3.74,1.87-5.88-.27-1.6-.53-3.47-2.4-4.81-1.07,1.07-2.14,2.14-2.67,3.47Zm2.14-13.89c1.07-2.67-.53-5.08-.8-8.82q-2.14,7.75.8,8.82Z" style="fill:#f2e863; stroke-width:0px;"/><path d="m1117.67,311.18c-1.07,9.62-6.14,15.23-15.49,17.63-3.47.8-6.68,1.87-9.08,4.81-1.6,1.87-4.27,2.4-6.95,2.4-13.89,1.34-25.64-3.74-34.73-13.89-6.95-8.01-12.29-17.36-10.15-29.38.8-5.34,1.34-11.22-1.33-16.83-.8-1.34-.27-2.94.27-4.54,1.07-2.14,2.14-4.54,2.94-6.68,0-2.14-1.07-3.21-2.14-4.27-1.6-1.6-2.14-3.47-1.34-5.08,1.87-3.21,1.87-6.68,1.07-9.35-2.4-7.75-.53-15.23,1.07-22.44,1.07-5.08,1.07-9.62.27-14.69-1.6-9.08-1.6-18.43.8-27.51.53-1.87,1.07-3.47,2.14-5.08,6.41-7.21,13.09-14.16,21.9-17.63,8.55-3.47,17.63-4.81,26.71-.53,2.14,1.07,4.27,2.67,6.68,3.21,9.88,1.6,14.42,9.35,19.5,16.83,2.67,4.01,3.21,9.08,3.47,13.62.27,9.08,2.4,17.9,1.87,27.25-.53,4.81-.53,9.62-2.4,13.89-1.34,3.21-1.07,6.14-.27,9.35,1.87,8.28,2.94,16.56,1.6,25.11-1.07,5.61-1.07,11.22.53,16.83,1.07,4.54,1.34,8.82-1.87,12.82-.8,1.34-1.07,3.47-1.34,5.34-.27,2.4-1.6,4.01-3.74,5.08-1.33-3.47-2.67-6.95-4.01-10.42-.27-.8-.8-.8-1.07-.27-.8,1.34.53,3.74-1.6,4.54-1.34,0-2.14-.53-2.67-1.34-.53-.8-.8-1.6-1.87-1.07-.53,3.74-.53,7.48,3.47,9.62,2.67-.53,5.08-2.14,8.01-1.07-.27,1.07-.27,2.4-.27,3.74Zm-45.14-6.68c3.74,4.54,12.02,5.61,16.29,1.87,4.54-4.27,10.15-8.01,8.28-15.76-.27-1.07,0-2.67.27-3.74,1.07-5.08,2.67-9.62-.8-14.69-1.07-1.34-.53-4.27-.27-6.41.53-2.67,1.34-5.34,2.14-8.28.53-1.34,1.34-1.87,3.21-2.4,2.67,3.74,4.81,9.62,11.49,4.81,1.07-2.4,2.4-5.08,1.87-8.01-1.07-3.47.27-6.14,1.07-9.08.27-1.34.8-2.4,1.07-3.74.53-4.27-1.07-5.88-5.88-6.14-1.07,0-1.87,0-2.67-1.07-.8-3.21,1.07-5.61,2.67-8.55,1.6-2.14,4.01-4.27,3.21-7.48-1.07-4.54-.8-8.55,1.07-12.82,1.34-2.94-1.6-5.61-4.81-4.54-2.14.53-4.54,0-5.88,1.6-1.87,3.47-1.34,6.41-.27,9.62,1.87,4.54.53,8.55-2.4,11.75-3.21-.53-5.08-1.87-4.81-5.08.27-1.87-.27-3.74.27-5.61,1.87-5.61-1.6-10.95-.8-16.83,0-.53-.27-1.07-.8-1.6-4.01-5.88-10.68-11.75-19.77-10.15-2.14.53-4.27.53-6.68.8-1.6,4.01-3.21,8.01-5.08,12.02-1.34,2.14-2.4,5.61-.8,8.01,2.67,3.74.53,7.21.8,10.95,0,1.07-.8,1.6-1.87,1.87s-2.14-.53-2.14-1.34c-1.34-8.28-5.34-16.29-2.14-24.84.27-.8.54-2.67-1.33-2.67-1.6.53-1.87,1.87-1.6,2.94,0,5.61-.8,10.15-6.14,13.09-.8.27-1.6,1.34-1.6,2.14-.53,5.88-3.47,11.49-1.6,17.36.53,2.14,2.94,2.4,4.01,4.01-2.4,6.68-2.4,13.36-1.07,20.3.53,1.6.8,2.67-.27,4.27-2.67,4.01-3.21,9.08-2.14,13.62,1.07,5.34,3.47,10.42,5.34,15.49,1.6.8,3.74.53,3.74,0-.27-4.01,3.47-6.68,3.47-10.68,0-3.47,0-6.95-.8-10.15-1.07-4.81-2.94-9.62-2.4-13.89.8-5.34,1.07-10.68.53-16.03-.27-3.74,2.14-6.41,4.54-8.81,1.33-1.34,4.27,0,4.54,1.6,1.07,9.88,1.34,19.5,1.07,29.38,0,1.87-.27,3.74-1.34,5.34-2.4,3.47-2.14,7.48-.53,10.95,1.87,3.74,1.6,7.48,1.87,11.22.27,5.88-1.6,11.22-4.27,17.63,4.81,1.6,7.48,4.54,10.15,7.75Zm-19.23-6.41c-.8,1.07-1.6,2.14-2.67,3.21,3.74.8,3.47,5.08,6.68,6.41,1.34-6.41,1.07-6.41-.53-12.55-1.87,0-2.4,1.87-3.47,2.94Zm10.15-118.33c.27-1.87-.27-2.94-2.4-2.67-1.6,2.94.27,5.08.53,8.55.8-2.67,1.6-4.27,1.87-5.88Zm14.69-16.56c-5.08-.8-9.35,1.07-11.22,6.41.53,2.14,1.07,4.27,2.14,4.81,4.27,0,7.75.53,11.22,0,3.74-.53,7.21-1.87,11.22-2.94.27-2.14,2.94-4.01,1.07-7.48-4.54.27-9.62.27-14.42-.8Zm24.04,159.47c.53-1.6,1.33-3.47.27-5.34-2.67-.27-1.33,3.47-3.74,3.21-2.67-.53-1.87-2.94-2.4-4.54-.27-1.34-1.34-1.87-2.67-1.6-1.07,1.34-.53,2.94-.8,4.27,0,1.87-.8,3.74-1.07,5.34q3.74,2.4,10.42-1.34Zm5.88-146.11c-3.47-1.07-5.08-4.01-7.48-6.41-.27-.53-1.33-.8-1.6-.53-.53.53-1.6,1.34-1.6,1.87,0,5.88,2.4,10.95,5.61,15.76,1.6,2.4,4.54,2.14,5.88-.53.8-1.6,1.07-3.47,1.34-4.27.27-3.21,0-5.08-2.14-5.88Zm-6.14,68.92c-5.88-5.08-1.87-9.62-.53-14.16,1.6,4.54,3.74,9.08.53,14.16Zm10.42,40.87c-1.07-4.27-2.14-8.28-3.47-12.29,0-.53-.8-1.07-1.34-1.07-.8.27-1.87.8-2.14,1.34-1.6,2.94-1.34,5.88-.27,9.08,1.34,2.94,3.21,5.08,6.68,5.61.27-1.07.8-1.87.53-2.67Z" style="fill:#f2e863; stroke-width:0px;"/><path d="m1144.39,293.02c2.67.53,1.87,3.21,2.67,4.54,1.34,1.87,3.47,1.07,5.34,1.07,1.07-6.68,1.07-7.21-4.54-10.15-1.07-2.94,1.07-5.34,1.87-8.28-1.87-2.67-3.47-5.61-4.27-8.82-3.21.27-3.47,3.74-6.41,3.47-.53-.27-1.6-.8-1.87-1.6-2.67-6.41-4.01-13.09-3.47-20.3.27-1.6.27-3.47,1.07-4.54,4.01-3.74,2.4-8.28,1.33-12.29-1.33-6.68-2.67-13.09-2.14-19.77.53-6.41.53-12.55,0-18.97-1.07-9.88,2.94-18.7,9.08-26.18,7.21-9.08,16.56-14.69,27.78-16.83,5.34-1.07,10.69-1.34,16.03,1.07,3.74,2.14,8.28,2.14,12.29,4.81,8.28,5.34,13.62,13.09,17.63,21.64,1.07,2.14,1.33,5.08,1.6,7.48,0,5.88,0,12.02.8,17.9.8,5.61-2.14,9.62-7.48,9.88-4.54,0-9.08-.27-13.36-.8-4.01-.53-6.68-3.74-6.95-7.75-.53-3.74-.53-7.48-.8-11.49,0-5.34-2.94-9.62-6.68-13.09-4.27-3.74-11.75-3.74-16.56.53-5.61,4.54-9.08,10.15-7.75,18.16,2.4,12.29,1.34,24.58.8,36.86-.27,4.01-1.87,7.75-.27,11.75.27,1.07-.27,2.67-.53,3.74-.8,4.54-1.6,8.81.8,13.09.8,1.34.8,3.74.53,5.61-1.07,6.14.27,12.55-.53,18.97-.27,3.74,1.07,6.68,4.27,8.82,3.74,2.94,6.14,7.21,11.22,8.55,4.01-.53,6.14-6.14,10.95-3.74,1.87-4.81,3.47-8.55,5.08-12.29.8-1.87,1.34-4.01.53-5.61-1.87-5.34.27-9.88,1.87-14.42.27-1.34.8-2.4,1.34-3.47-1.34-3.21-4.27-4.81-5.88-7.75-1.07-2.67-4.01-3.74-6.95-4.54-4.01-.8-5.61-3.47-6.14-7.48-.27-3.47-.53-6.95-1.07-10.15-.8-5.34,4.27-11.49,9.62-10.68,1.34.27,3.21,0,4.54.27,5.88,1.07,11.49,1.07,17.1,0,1.87-.27,3.74-.27,5.61,0,3.74.8,6.95,4.01,7.21,7.75.27,12.82-.27,25.38-4.81,37.13-1.34,1.34-2.4.53-3.74.53-4.01,0-5.61,2.4-3.47,6.14.53,1.07,1.6,1.87,2.4,2.94,1.07-.53,1.87-.8,2.4-1.34,1.87-.8,3.21-.27,4.01,1.34,1.87,2.4,1.6,5.34,1.6,8.28s-.53,6.14-.8,9.35c0,3.74-.8,6.95-4.01,9.35-.53.27-1.07.8-1.07,1.34-2.4,8.82-10.42,12.55-16.83,17.36-6.14,4.54-13.36,5.08-20.83,3.74-2.67-.53-5.61-1.34-8.28-1.6-14.16-2.14-23.51-10.15-28.31-23.77,0-.27-.27-.53-.27-.8q-3.47-9.35,1.07-19.23c3.21.8,3.21,4.01,5.61,4.27Zm2.94-55.56c-2.94.27-6.14,4.81-5.61,7.48,0,1.87,2.67,2.67,6.14,2.4,2.4-.27,4.27-1.07,4.54-3.74.27-1.6.53-2.94.8-4.81-2.4-1.6-4.27-1.34-5.88-1.34Zm-3.21,25.91c-.53,1.34-.27,2.67.8,3.47,2.14,1.87,4.27,1.87,6.95.27,1.6-1.07,3.21-2.4,2.4-4.54-.53-2.4-2.14-3.74-4.81-3.74h-3.74c-.8,1.87-1.33,3.21-1.6,4.54Zm16.56,53.42c.53,0,.8-.8,1.07-1.07.8-1.07,0-1.87-.8-2.4-1.34-1.34-3.21-1.87-5.08-1.34-.8.27-1.6.8-2.14,1.6-.53,1.34.53,2.4,1.6,2.94.53.53,1.6.53,2.14.8,1.33-.27,2.4-.27,3.21-.53Zm34.46-11.49c0,2.4-1.87,4.27.8,6.95.27-2.4,1.6-4.27-.8-6.95Zm8.55,7.21c2.14-2.94,2.14-5.08-1.34-8.28,1.07,3.21-.8,5.61,1.34,8.28Z" style="fill:#f2e863; stroke-width:0px;"/><path d="m1240.82,334.15c-4.01-.53-7.21-3.74-7.21-7.75,0-2.67.53-5.61,1.07-8.55.27-1.6,1.34-3.47,1.34-5.34.8-7.21,3.21-14.42-2.14-20.84-1.34-5.34-1.34-10.68,0-16.03.27-1.87,1.6-3.47,1.07-5.61-1.6-9.08.8-18.7-1.6-27.78-.53-1.87-.27-3.74-.27-5.88,1.07-14.96.27-30.18.27-45.41,0-3.47-.8-6.95,1.07-10.15.8-1.87,0-3.74-.27-5.61-.53-2.94-.8-5.88-.8-8.55-.27-6.14,2.67-9.62,8.81-9.88,3.47-.27,6.95-.27,10.42,0,4.01.27,7.75,3.47,8.28,7.75.53,3.74,1.07,7.48.53,11.22-1.87,10.68-.8,21.37-.8,32.32,0,2.4.53,5.08-.8,7.21-1.6,2.67,1.07,4.81.8,7.21-.53,9.62-.53,18.97-.8,28.58,0,6.68.53,13.09-.8,19.77-.27,2.14.53,4.27,1.07,6.41,1.07,5.61,1.07,10.95-1.07,16.03-1.6,3.47-1.6,6.68,0,10.15,1.6,3.21,1.6,6.68,1.33,10.15v11.49c0,6.41-2.4,8.81-9.08,9.08h-10.42Zm.8-32.32c0,1.6,1.07,2.67,2.94,2.67.53,0,1.07-.53,1.34-1.07.27-1.6-2.14-3.74-3.74-3.21-.27.53-.8,1.07-.53,1.6Zm1.07-124.48c.8,5.08.8,8.28,3.21,11.75,1.6-4.54.53-7.48-3.21-11.75Zm5.34,95.09c-.27-3.21-.27-6.41,0-9.88,0-.53,1.87-1.07,2.94-1.87.27-.27.53-1.07.27-1.6,0-.53-.8-1.07-1.07-1.07-4.01-.8-6.68.8-6.95,4.27-.27,3.47-.53,6.95-.53,10.15,0,2.67,1.07,5.08,3.21,7.21,3.21-2.4,2.14-4.81,2.14-7.21Zm-.8-52.62c.27.8,1.07,1.87,2.14,1.6.8,0,1.87-.53,2.14-1.34,1.6-3.47,2.4-6.95-.53-11.49-4.27,3.47-4.54,7.21-3.74,11.22Z" style="fill:#f2e863; stroke-width:0px;"/><path d="m1345.26,311.18c-1.07,9.62-6.14,15.23-15.49,17.63-3.47.8-6.68,1.87-9.08,4.81-1.6,1.87-4.27,2.4-6.95,2.4-13.89,1.34-25.64-3.74-34.73-13.89-6.95-8.01-12.29-17.36-10.15-29.38.8-5.34,1.34-11.22-1.33-16.83-.8-1.34-.27-2.94.27-4.54,1.07-2.14,2.14-4.54,2.94-6.68,0-2.14-1.07-3.21-2.14-4.27-1.6-1.6-2.14-3.47-1.34-5.08,1.87-3.21,1.87-6.68,1.07-9.35-2.4-7.75-.53-15.23,1.07-22.44,1.07-5.08,1.07-9.62.27-14.69-1.6-9.08-1.6-18.43.8-27.51.53-1.87,1.07-3.47,2.14-5.08,6.41-7.21,13.09-14.16,21.9-17.63,8.55-3.47,17.63-4.81,26.71-.53,2.14,1.07,4.27,2.67,6.68,3.21,9.88,1.6,14.42,9.35,19.5,16.83,2.67,4.01,3.21,9.08,3.47,13.62.27,9.08,2.4,17.9,1.87,27.25-.53,4.81-.53,9.62-2.4,13.89-1.34,3.21-1.07,6.14-.27,9.35,1.87,8.28,2.94,16.56,1.6,25.11-1.07,5.61-1.07,11.22.53,16.83,1.07,4.54,1.34,8.82-1.87,12.82-.8,1.34-1.07,3.47-1.34,5.34-.27,2.4-1.6,4.01-3.74,5.08-1.33-3.47-2.67-6.95-4.01-10.42-.27-.8-.8-.8-1.07-.27-.8,1.34.53,3.74-1.6,4.54-1.34,0-2.14-.53-2.67-1.34-.53-.8-.8-1.6-1.87-1.07-.53,3.74-.53,7.48,3.47,9.62,2.67-.53,5.08-2.14,8.01-1.07-.27,1.07-.27,2.4-.27,3.74Zm-45.14-6.68c3.74,4.54,12.02,5.61,16.29,1.87,4.54-4.27,10.15-8.01,8.28-15.76-.27-1.07,0-2.67.27-3.74,1.07-5.08,2.67-9.62-.8-14.69-1.07-1.34-.53-4.27-.27-6.41.53-2.67,1.34-5.34,2.14-8.28.53-1.34,1.34-1.87,3.21-2.4,2.67,3.74,4.81,9.62,11.49,4.81,1.07-2.4,2.4-5.08,1.87-8.01-1.07-3.47.27-6.14,1.07-9.08.27-1.34.8-2.4,1.07-3.74.53-4.27-1.07-5.88-5.88-6.14-1.07,0-1.87,0-2.67-1.07-.8-3.21,1.07-5.61,2.67-8.55,1.6-2.14,4.01-4.27,3.21-7.48-1.07-4.54-.8-8.55,1.07-12.82,1.34-2.94-1.6-5.61-4.81-4.54-2.14.53-4.54,0-5.88,1.6-1.87,3.47-1.34,6.41-.27,9.62,1.87,4.54.53,8.55-2.4,11.75-3.21-.53-5.08-1.87-4.81-5.08.27-1.87-.27-3.74.27-5.61,1.87-5.61-1.6-10.95-.8-16.83,0-.53-.27-1.07-.8-1.6-4.01-5.88-10.68-11.75-19.77-10.15-2.14.53-4.27.53-6.68.8-1.6,4.01-3.21,8.01-5.08,12.02-1.34,2.14-2.4,5.61-.8,8.01,2.67,3.74.53,7.21.8,10.95,0,1.07-.8,1.6-1.87,1.87s-2.14-.53-2.14-1.34c-1.34-8.28-5.34-16.29-2.14-24.84.27-.8.54-2.67-1.33-2.67-1.6.53-1.87,1.87-1.6,2.94,0,5.61-.8,10.15-6.14,13.09-.8.27-1.6,1.34-1.6,2.14-.53,5.88-3.47,11.49-1.6,17.36.53,2.14,2.94,2.4,4.01,4.01-2.4,6.68-2.4,13.36-1.07,20.3.53,1.6.8,2.67-.27,4.27-2.67,4.01-3.21,9.08-2.14,13.62,1.07,5.34,3.47,10.42,5.34,15.49,1.6.8,3.74.53,3.74,0-.27-4.01,3.47-6.68,3.47-10.68,0-3.47,0-6.95-.8-10.15-1.07-4.81-2.94-9.62-2.4-13.89.8-5.34,1.07-10.68.53-16.03-.27-3.74,2.14-6.41,4.54-8.81,1.33-1.34,4.27,0,4.54,1.6,1.07,9.88,1.34,19.5,1.07,29.38,0,1.87-.27,3.74-1.34,5.34-2.4,3.47-2.14,7.48-.53,10.95,1.87,3.74,1.6,7.48,1.87,11.22.27,5.88-1.6,11.22-4.27,17.63,4.81,1.6,7.48,4.54,10.15,7.75Zm-19.23-6.41c-.8,1.07-1.6,2.14-2.67,3.21,3.74.8,3.47,5.08,6.68,6.41,1.34-6.41,1.07-6.41-.53-12.55-1.87,0-2.4,1.87-3.47,2.94Zm10.15-118.33c.27-1.87-.27-2.94-2.4-2.67-1.6,2.94.27,5.08.53,8.55.8-2.67,1.6-4.27,1.87-5.88Zm14.69-16.56c-5.08-.8-9.35,1.07-11.22,6.41.53,2.14,1.07,4.27,2.14,4.81,4.27,0,7.75.53,11.22,0,3.74-.53,7.21-1.87,11.22-2.94.27-2.14,2.94-4.01,1.07-7.48-4.54.27-9.62.27-14.42-.8Zm24.04,159.47c.53-1.6,1.33-3.47.27-5.34-2.67-.27-1.33,3.47-3.74,3.21-2.67-.53-1.87-2.94-2.4-4.54-.27-1.34-1.34-1.87-2.67-1.6-1.07,1.34-.53,2.94-.8,4.27,0,1.87-.8,3.74-1.07,5.34q3.74,2.4,10.42-1.34Zm5.88-146.11c-3.47-1.07-5.08-4.01-7.48-6.41-.27-.53-1.33-.8-1.6-.53-.53.53-1.6,1.34-1.6,1.87,0,5.88,2.4,10.95,5.61,15.76,1.6,2.4,4.54,2.14,5.88-.53.8-1.6,1.07-3.47,1.34-4.27.27-3.21,0-5.08-2.14-5.88Zm-6.14,68.92c-5.88-5.08-1.87-9.62-.53-14.16,1.6,4.54,3.74,9.08.53,14.16Zm10.42,40.87c-1.07-4.27-2.14-8.28-3.47-12.29,0-.53-.8-1.07-1.34-1.07-.8.27-1.87.8-2.14,1.34-1.6,2.94-1.34,5.88-.27,9.08,1.34,2.94,3.21,5.08,6.68,5.61.27-1.07.8-1.87.53-2.67Z" style="fill:#f2e863; stroke-width:0px;"/></g></svg>