<?xml version="1.0" encoding="UTF-8"?><svg id="a" xmlns="http://www.w3.org/2000/svg" xmlns:xlink="http://www.w3.org/1999/xlink" viewBox="0 0 1536 1024"><defs><filter id="b" x="135.65" y="710.46" width="620.66" height="125.53" filterUnits="userSpaceOnUse"><feOffset dx="11.27" dy="11.27"/><feGaussianBlur result="c" stdDeviation="0"/><feFlood flood-color="#000" flood-opacity=".5"/><feComposite in2="c" operator="in"/><feComposite in="SourceGraphic"/></filter><filter id="d" x="800.84" y="673.87" width="606.04" height="167.68" filterUnits="userSpaceOnUse"><feOffset dx="11.93" dy="11.93"/><feGaussianBlur result="e" stdDeviation="0"/><feFlood flood-color="#000" flood-opacity=".5"/><feComposite in2="e" operator="in"/><feComposite in="SourceGraphic"/></filter></defs><g style="filter:url(#b);"><path d="M180.41,713.97c9.14,0,17.54,3.55,25.2,10.66,6.55,6.45,9.82,11.93,9.82,16.44,0,4.01-1.85,7.33-5.56,9.97-2.08,1.27-4.24,1.9-6.47,1.9-4.67,0-8.45-2.56-11.34-7.69-3.6-4.92-7.56-7.38-11.88-7.38-3.15,0-6.7,1.17-10.66,3.5-2.03,1.62-3.58,3.33-4.64,5.1-3.55,6.19-5.33,13.65-5.33,22.38,0,10.15,2.38,18.53,7.16,25.12,1.72,2.59,4.9,4.49,9.52,5.71,2.94.76,5.48,1.14,7.61,1.14,4.21,0,7.08-1.42,8.6-4.26,2.59-2.99,5.73-4.49,9.44-4.49,4.01,0,7.33,1.85,9.97,5.56,1.27,2.08,1.9,4.24,1.9,6.47,0,4.92-3.48,9.92-10.43,15-5.79,3.76-12.26,5.63-19.41,5.63-8.17,0-16.42-2.06-24.74-6.17-8.48-4.82-14.95-13.14-19.41-24.97-2.74-8.07-4.11-16.09-4.11-24.06v-1.45c0-14.51,3.83-27.13,11.5-37.83,4.26-4.97,7.56-8.02,9.9-9.13,7.71-4.77,15.5-7.16,23.37-7.16Z" style="fill:#f45b69;"/><path d="M258.29,740.99h2.82c5.79,0,11.6,2.21,17.43,6.62,4.77,3.91,7.16,7.79,7.16,11.65v.84c0,4.42-2.36,7.94-7.08,10.58-1.67.61-3.15.91-4.42.91h-.76c-3.5,0-6.85-1.8-10.05-5.41-1.17-.86-2.44-1.29-3.81-1.29-1.98,0-3.58,1.04-4.8,3.12-1.27,1.62-2.61,4.59-4.03,8.91-2.74,9.8-4.11,20.81-4.11,33.04.1,1.88.15,3.12.15,3.73,0,1.93-.94,4.19-2.82,6.78-2.64,2.84-5.56,4.26-8.76,4.26h-.84c-4.42,0-7.94-2.36-10.58-7.08-.81-1.37-1.22-5.68-1.22-12.94-1.02-32.38-1.52-49.81-1.52-52.3,0-3.25,1.72-6.29,5.18-9.14,2.18-1.42,4.34-2.13,6.47-2.13h.53c3.6,0,6.78,1.7,9.52,5.1,5.12-3.5,10.3-5.25,15.53-5.25Z" style="fill:#f45b69;"/><path d="M328.55,738.1h1.9c15.99,0,27.99,5.58,36.01,16.75,4.26,6.5,6.39,13.91,6.39,22.23,0,6.7-3.12,11.04-9.36,13.02,0,.3-14.89.86-44.69,1.67,1.17,2.49,3.45,4.87,6.85,7.16,2.03,1.22,4.39,1.83,7.08,1.83h1.37c6.65,0,11.95-1.67,15.91-5.02,2.08-1.12,4.01-1.67,5.79-1.67h.76c4.42,0,7.94,2.36,10.58,7.08.61,1.73.91,3.22.91,4.49v.76c0,6.75-6.14,12.13-18.42,16.14-5.07,1.47-10.38,2.21-15.91,2.21-11.06,0-20.28-3.58-27.63-10.73-3.5-3.45-5.96-6.42-7.38-8.91-4.62-7.16-7.44-15.05-8.45-23.67-.15-1.62-.23-2.92-.23-3.88v-3.04c0-8.58,2.77-16.47,8.3-23.68,7.16-8.47,17.23-12.71,30.22-12.71ZM315.76,767.94h.08c2.38,0,12.21-.3,29.46-.91v-.23c-3.15-3.2-8.43-4.8-15.83-4.8s-11.7,1.75-13.47,5.25c-.1,0-.18.23-.23.69Z" style="fill:#f45b69;"/><path d="M422.19,736.42c8.47,0,17.43,1.8,26.87,5.41,4.62,2.59,6.93,6.29,6.93,11.11l-.08,1.14c2.03,2.13,3.04,5.63,3.04,10.51.1,0,.15,1.65.15,4.95s-.03,6.55-.08,9.9c.41,19.13.61,29.97.61,32.51,0,3.5-1.65,6.62-4.95,9.36-2.23,1.52-4.59,2.28-7.08,2.28-3.4,0-6.42-1.4-9.06-4.19l-.15-.08c-7.26,3.6-14.19,5.41-20.78,5.41h-2.06c-7.92,0-15.25-2.54-22-7.61-9.13-7.71-13.7-18.62-13.7-32.73,0-16.19,4.57-28.75,13.7-37.68,7.61-6.85,17.15-10.28,28.62-10.28ZM403.77,784.16c0,8.07,2.13,13.2,6.39,15.38,1.72.86,3.83,1.29,6.32,1.29h.15c5.07,0,9.52-1.5,13.32-4.49.81-.86,1.65-2.38,2.51-4.57,1.72-5.38,2.59-10.25,2.59-14.62,0-2.08-.05-7.05-.15-14.92-4.67-1.27-8.96-1.9-12.87-1.9-7.87,0-13.04,2.87-15.53,8.6-1.83,4.52-2.74,9.59-2.74,15.23Z" style="fill:#f45b69;"/><path d="M491.01,723.86h.61c4.46,0,8.02,2.39,10.66,7.16.96,2.13,1.45,6.57,1.45,13.32.05,0,.13.94.23,2.82l.84.08c9.64,0,15.22.3,16.75.91,3.09,1.27,5.35,3.22,6.77,5.86.86,1.78,1.29,3.5,1.29,5.18v.61c0,4.11-2.13,7.54-6.39,10.28-1.98.91-3.58,1.37-4.8,1.37l-14.31-.3v7.84c0,2.94-.03,6.57-.08,10.89,0,4.52.79,7.87,2.36,10.05.86.61,2.03.91,3.5.91,3.6,0,8.65-1.52,15.15-4.57,1.27-.3,2.31-.46,3.12-.46h.99c4.42,0,7.94,2.33,10.58,7,.61,1.73.91,3.22.91,4.49v.68c0,4.06-2.08,7.49-6.24,10.28-8.73,4.31-16.95,6.47-24.67,6.47-10.05,0-17.89-3.93-23.52-11.8-4.06-6.29-6.09-13.52-6.09-21.7.05-6.5.08-11.85.08-16.06v-4.57h-1.14c-3.71,0-6.9-1.65-9.59-4.95-1.52-2.18-2.29-4.42-2.29-6.7v-.76c0-4.42,2.36-7.94,7.08-10.58,1.68-.61,3.15-.91,4.42-.91h1.29l-.61-11.34c0-3.25,1.62-6.32,4.87-9.21,2.33-1.52,4.59-2.28,6.78-2.28Z" style="fill:#f45b69;"/><path d="M556.55,710.46h.99c4.06,0,7.59,1.98,10.58,5.94,1.52,2.44,2.28,4.77,2.28,7v1.52c0,2.79-1.12,5.58-3.35,8.37-3.15,3.3-6.62,4.95-10.43,4.95h-.99c-2.89,0-5.71-1.14-8.45-3.43-2.79-2.84-4.19-5.86-4.19-9.06v-1.45c0-3.09,1.27-6.17,3.81-9.21,2.99-3.09,6.24-4.64,9.74-4.64ZM557.84,741.3h.84c4.26,0,7.74,2.23,10.43,6.7.76,1.32,1.14,3.65,1.14,7,.86,33.09,1.32,52.58,1.37,58.46,0,3.25-1.7,6.29-5.1,9.13-2.23,1.42-4.39,2.13-6.47,2.13h-.61c-3.91,0-7.21-1.9-9.9-5.71-1.27-1.57-1.9-4.64-1.9-9.21-.86-36.18-1.29-55.32-1.29-57.4,0-3.1,1.57-6.04,4.72-8.83,2.33-1.52,4.59-2.28,6.78-2.28Z" style="fill:#f45b69;"/><path d="M647.98,738.25c4.31,0,7.81,2.18,10.5,6.55.86,1.93,1.29,3.76,1.29,5.48,0,2.13-1.09,5.4-3.27,9.82-14.26,33.14-22.74,52.71-25.43,58.69-2.69,3.96-6.14,5.94-10.35,5.94-5.53,0-9.7-3.43-12.48-10.28-19.64-37.66-29.74-57.2-30.3-58.62-.41-1.62-.61-2.92-.61-3.88,0-4.01,1.85-7.36,5.56-10.05,2.08-1.27,4.24-1.9,6.47-1.9,4.16,0,7.59,2.03,10.28,6.09,13.2,25.48,19.92,38.37,20.17,38.67.25-.3,5.28-11.93,15.07-34.87,1.93-4.92,3.93-8.04,6.01-9.36,2.23-1.52,4.59-2.28,7.08-2.28Z" style="fill:#f45b69;"/><path d="M700.73,738.1h1.9c15.99,0,27.99,5.58,36.01,16.75,4.26,6.5,6.39,13.91,6.39,22.23,0,6.7-3.12,11.04-9.36,13.02,0,.3-14.9.86-44.69,1.67,1.17,2.49,3.45,4.87,6.85,7.16,2.03,1.22,4.39,1.83,7.08,1.83h1.37c6.65,0,11.95-1.67,15.91-5.02,2.08-1.12,4.01-1.67,5.79-1.67h.76c4.41,0,7.94,2.36,10.58,7.08.61,1.73.91,3.22.91,4.49v.76c0,6.75-6.14,12.13-18.42,16.14-5.08,1.47-10.38,2.21-15.91,2.21-11.06,0-20.28-3.58-27.63-10.73-3.5-3.45-5.96-6.42-7.38-8.91-4.62-7.16-7.44-15.05-8.45-23.67-.15-1.62-.23-2.92-.23-3.88v-3.04c0-8.58,2.77-16.47,8.3-23.68,7.15-8.47,17.23-12.71,30.22-12.71ZM687.94,767.94h.08c2.38,0,12.21-.3,29.46-.91v-.23c-3.15-3.2-8.42-4.8-15.83-4.8s-11.7,1.75-13.47,5.25c-.1,0-.18.23-.23.69Z" style="fill:#f45b69;"/></g><g style="filter:url(#d);"><path d="M800.84,823.23l29.24-149.36,47.69,107.97,49.4-107.97,26.27,149.36h-21.5l-13.41-83.86-41.12,90.25-39.95-90.34-14.94,83.95h-21.68Z" style="fill:#44bba4;"/><path d="M1058.8,784.18h-62.8c.54,7.2,2.88,12.93,7.02,17.19,4.14,4.2,9.45,6.3,15.93,6.3,5.04,0,9.21-1.2,12.51-3.6,3.24-2.4,6.93-6.84,11.07-13.32l17.1,9.54c-2.64,4.5-5.43,8.35-8.37,11.56-2.94,3.21-6.09,5.85-9.45,7.92s-6.99,3.58-10.89,4.54c-3.9.96-8.13,1.44-12.69,1.44-13.08,0-23.57-4.2-31.49-12.6-7.92-8.46-11.88-19.67-11.88-33.65s3.84-25.07,11.52-33.65c7.74-8.46,17.99-12.69,30.77-12.69s23.09,4.11,30.59,12.33c7.44,8.16,11.16,19.47,11.16,33.92l-.09,4.77ZM1038.02,767.62c-2.82-10.8-9.63-16.2-20.42-16.2-2.46,0-4.77.38-6.93,1.12-2.16.75-4.12,1.83-5.89,3.24-1.77,1.41-3.28,3.1-4.54,5.08s-2.22,4.23-2.88,6.75h40.67Z" style="fill:#44bba4;"/><path d="M1103.43,754.49v68.74h-20.25v-68.74h-8.64v-18.9h8.64v-32.12h20.25v32.12h15.75v18.9h-15.75Z" style="fill:#44bba4;"/><path d="M1132.94,735.59h20.24v7.83c3.72-3.9,7.02-6.57,9.9-8.01,2.94-1.5,6.42-2.25,10.44-2.25,5.34,0,10.92,1.74,16.74,5.22l-9.27,18.54c-3.84-2.76-7.59-4.14-11.25-4.14-11.04,0-16.56,8.34-16.56,25.01v45.44h-20.24v-87.64Z" style="fill:#44bba4;"/><path d="M1201.59,699.15c0-3.54,1.29-6.6,3.87-9.18,2.58-2.58,5.67-3.87,9.27-3.87s6.78,1.29,9.36,3.87c2.58,2.52,3.87,5.61,3.87,9.27s-1.29,6.78-3.87,9.36c-2.52,2.58-5.61,3.87-9.27,3.87s-6.78-1.29-9.36-3.87c-2.58-2.58-3.87-5.73-3.87-9.45ZM1224.9,735.59v87.64h-20.25v-87.64h20.25Z" style="fill:#44bba4;"/><path d="M1318.74,739.37v26.9c-4.62-5.64-8.76-9.51-12.42-11.61-3.6-2.16-7.83-3.24-12.69-3.24-7.62,0-13.95,2.67-18.99,8.01-5.04,5.34-7.56,12.03-7.56,20.06s2.43,14.97,7.29,20.25c4.92,5.28,11.19,7.92,18.8,7.92,4.86,0,9.15-1.05,12.87-3.15,3.6-2.04,7.83-6,12.69-11.88v26.72c-8.22,4.26-16.44,6.39-24.65,6.39-13.56,0-24.89-4.38-34.01-13.14-9.12-8.82-13.68-19.76-13.68-32.84s4.62-24.11,13.86-33.11c9.24-9,20.57-13.5,34.01-13.5,8.64,0,16.79,2.07,24.47,6.21Z" style="fill:#44bba4;"/><path d="M1389.28,750.53l-16.74,8.91c-2.64-5.4-5.91-8.1-9.81-8.1-1.86,0-3.45.62-4.77,1.84-1.32,1.23-1.98,2.8-1.98,4.72,0,3.36,3.9,6.69,11.7,9.99,10.74,4.62,17.96,8.88,21.68,12.78,3.72,3.9,5.58,9.15,5.58,15.75,0,8.46-3.12,15.54-9.36,21.23-6.06,5.4-13.38,8.1-21.95,8.1-14.7,0-25.1-7.17-31.22-21.5l17.27-8.01c2.4,4.2,4.23,6.87,5.49,8.01,2.46,2.28,5.4,3.42,8.82,3.42,6.84,0,10.26-3.12,10.26-9.36,0-3.6-2.64-6.96-7.92-10.08-2.04-1.02-4.08-2.01-6.12-2.97-2.04-.96-4.11-1.95-6.21-2.97-5.88-2.88-10.02-5.76-12.42-8.64-3.06-3.66-4.59-8.37-4.59-14.13,0-7.62,2.61-13.92,7.83-18.89,5.34-4.98,11.82-7.47,19.43-7.47,11.22,0,19.55,5.79,25.01,17.37Z" style="fill:#44bba4;"/></g></svg>