<?xml version="1.0" encoding="UTF-8"?><svg id="a" xmlns="http://www.w3.org/2000/svg" xmlns:xlink="http://www.w3.org/1999/xlink" viewBox="0 0 1536 1024"><defs><filter id="b" filterUnits="userSpaceOnUse"><feOffset dx="7.8" dy="7.8"/><feGaussianBlur result="c" stdDeviation="0"/><feFlood flood-color="#f9f7f7" flood-opacity="1"/><feComposite in2="c" operator="in"/><feComposite in="SourceGraphic"/></filter></defs><g style="filter:url(#b);"><path d="m396.48,673.68l-8.57-1.88-4.6,1.88-7.11,5.02-1.46-.42-3.14,4.81-3.76,2.09-7.32,7.74-10.04,15.06-7.32,15.06-2.3,3.14-8.78,26.98-.63,6.07-3.35,15.89-3.35,1.25-11.08-2.93-3.56-.84-.42-1.67.21-2.3-.21-5.02-1.25-2.72.42-2.72-.63-4.39-1.67-4.81-.63-3.76-4.81-20.7v-.63l-5.65-19.03-3.14-8.78h-.84l-2.51,6.9-1.88,2.72-2.72,9.41h-.63l-3.97,10.04-2.72,6.07h-.84l-.84.63-.21,2.93-1.46,4.39-1.67,1.88.21,4.18,1.25,3.55-.63,1.88,1.25,7.53.63,5.65,1.67,11.08-.42.63.84.84h.42l1.88,6.48-2.72.84-3.35-.21-.84-.63-2.72-21.75-2.3-4.81,1.05-2.09-2.51.42v1.88l-1.25,1.25-.84,6.69-3.14,11.5-2.93,14.85.42,1.25-2.3,1.46-3.14.63h-1.25l-7.95-1.46-1.88-3.56.21-6.27h-.42l-.84-2.72.21-2.3-1.67-2.93.84-1.46-1.46-7.11-.63-7.74-2.51-8.37.42-2.72-1.67-2.09-.84-4.6-3.35-18.19-1.25-1.46-.63-.42-1.88-9.2-6.07-12.13-2.3-1.46.63-1.05,6.48-2.72,14.43-3.14,2.51.84,1.25.63,1.05,1.46,1.88,2.3-.63,4.39,3.14,5.44-1.88.84,2.09,2.09-.84,2.93.42.42v.63l-.63.63,1.67,3.14,1.05,6.07-.84,1.67.84,3.97,2.09,4.81-1.05,1.67,2.09,6.48-1.04.84v1.04l1.67,2.09,1.05,11.08v3.14l1.67,3.56h.84l-.42-1.67,2.51-3.14v-3.97l6.06-10.87-7.32-39.11-4.18-23,3.76-.42,1.88.42,1.25,1.25.63,1.46,1.25,8.37v7.53l2.51,10.04v3.14l.63,1.67.84,7.32h.63l1.25,6.27-.42,3.35.42.84h.63l2.09-3.14v-2.3l3.56-6.48,3.76-8.57.42-3.35,1.46-1.67,6.27-13.8,2.93-7.53.21-2.09.84-1.46-1.25-6.27,2.72.63.84-.84v-.63l1.25-.84,10.25-2.09,1.25-.63.63.84.63,1.67,1.67.21,1.67,5.23,1.67,8.16-.84,1.04.42,3.14,1.88,1.04.63,10.46,2.51,2.51,1.88,11.71.84,5.65,3.14,11.08,1.46,7.53,2.09,9.2,1.25.42,6.06-21.33,5.86-15.27,3.56-8.99,1.67-2.72,1.88-2.09,3.35-8.78,3.35-2.3.21-2.3,3.14-1.88,1.05-1.05,2.72-5.23h.42l10.46-9.2,5.65-1.46,1.05-1.25,3.55-.21,2.51.42,1.05-.63,8.16.84,1.88,1.05.84,1.25.42,3.35Z" style="fill:#3a7ca5; stroke-width:0px;"/><path d="m433.91,575.8l7.95,1.25,12.13,4.39,1.88,4.6-3.14,13.8-.63,4.18-1.88,2.51-1.46,6.48-1.25,1.05.84,3.76-2.09,1.46-.42,2.93,1.67.42-1.46,1.25.42,1.67-1.67,4.39-1.46.63,1.25,1.67-1.46,2.3-.63,5.02-1.67,2.51-1.05,7.74-1.25.42,1.25,1.46-1.46,1.25v1.67l-2.09,1.67-.63,5.02-.63.84-3.97,14.01-3.14,2.09,2.3,1.05-2.72,7.11h.84l-1.05,3.14-1.05.42-1.88,6.69-.84,1.46.84,2.3-3.35,3.97,1.05,1.67-2.93,1.67.84.84,1.67.63-1.46.84.42,1.46-1.67,1.67v1.46l-1.46,1.46-.21,6.48-1.67.21-.21,4.39-2.09,1.25-1.67,7.74,3.14-1.04-1.05-1.67,1.25-.63,6.48-9.2,1.67-.63,5.65-9.62,4.81-4.39,2.72-.42-.84-1.46,7.53-8.78,2.51-4.18,1.67-.63.42-.84,14.01-13.38,3.14-.84h6.9l5.65,2.51,4.81,7.74-.63,10.25-1.05,1.67.63,2.09-2.93,3.35,1.25,1.67-1.67,2.72h1.25l-2.51,6.9-1.88,1.05,1.88,3.55-4.18,4.18,1.05,1.88-1.05,2.51.63,2.72h-2.93l1.67,4.39-2.72,1.88,1.25.42-2.72,2.09-.63,5.23,1.88.21-.84,2.09h-1.05l-1.25,1.25,2.09,4.18-2.93,1.05-.42,16.31.84,1.25.84,3.35,1.88,1.25,7.95-2.3,7.11-4.6,2.3-3.35,1.67,1.67-6.48,7.74-5.02,5.23-7.53,2.93h-5.86l-6.9-3.35-.63-1.67-3.55-1.67.21-3.35-3.97-6.69,1.46-1.67-.42-.63h-1.88l1.04-3.35v-10.25l1.46-.21-2.3-2.09,1.46-3.97,1.46-8.99-1.46-.21,2.51-1.88,2.51-10.46-1.46-2.3,3.56-1.46,1.46-3.76-1.25-1.05,1.25-8.99,2.51-3.14,3.14-11.29-1.05-2.09h-2.09l-10.04,10.04-12.97,14.43-11.5,15.06-12.97,21.12-7.32,14.43-8.16,20.49-6.07,15.06-2.51,5.23-3.97,2.3-3.56-2.09-1.05.42-1.88-2.72-3.76-.63-.63-1.88,1.25-1.25.21-4.39,3.14-10.46.63-3.76,1.67-2.72,1.88-1.04,2.72-10.25.21-4.81,4.6-9.83v-1.05l3.14-4.18-1.88-.63v-2.09l2.51-3.35-.21-4.39,1.67-3.56,1.67-.42.42-8.37,1.67-2.72v-4.39l1.25-1.05,1.67-8.16,3.35-5.65-1.46-3.14,1.88-3.35-1.05-2.51,2.93-3.76,1.25-2.3-1.67-.84,2.3-3.35-.42-3.55,1.88-2.09.84-6.9,4.6-17.78,1.46-1.05-1.25-1.46,2.72-3.76-1.25-1.25,2.72-11.08,5.44-17.15,6.27-26.98,2.72-10.04-.63-.63-10.87,4.6-3.97,2.72h-1.88l-17.98,10.88.84,3.14,2.09,9.2-3.97-1.05-7.11-12.34-.63-5.23,2.51-3.76,4.6-.42,2.3-1.46,3.14,1.25,1.46-.63-.21-1.67,5.23-1.05,2.72-1.46,7.11-1.25,15.48-5.02-.42-1.46Z" style="fill:#3a7ca5; stroke-width:0px;"/><path d="m547.47,686.02l4.18,1.67,1.88-.42,1.88,1.88,1.04-.42,4.81,4.18,7.32,5.86,5.02,5.65-.84,1.88-3.14-.21-7.11-2.3-8.16.63-13.38,7.53-10.67,12.13-4.6,7.74-5.86,14.85-2.3,12.13.63,10.88,1.05,1.67-.42,2.3,3.14,5.23,5.02,4.6,8.99,2.3,10.67-2.3,8.37-5.44,7.74-7.32,7.32-11.08,7.74-15.89-1.05-2.3-.42-8.99-6.27-5.65-5.23-1.46-2.09.21-6.9,1.46-6.48,3.76v1.25l-5.86,8.57-.84.84-2.09,6.27.42,8.57,3.97,2.51,8.37-1.04,3.35-1.46v2.09l-3.56,3.14-5.02,2.09-7.32-.84-6.27-6.27-2.3-5.44.42-9.2,2.93-6.69,4.18-6.69,9.62-7.32,2.3-1.04,7.74-1.25,4.6-.21,9.2,2.51,5.23,2.72,5.86,5.44,1.67,1.88,1.88,10.46-2.3,11.29-5.65,11.5-9.2,10.46-15.06,11.29-9.2,3.76-3.76.42-12.13.84-10.25-3.97-9.41-7.53-5.65-10.67-2.51-16.1,1.05-11.08,2.93-11.71,1.88-.42-.63-2.51,9.2-17.36,11.08-12.76h1.46l1.46-2.72,4.39-2.72,11.92-5.65Z" style="fill:#3a7ca5; stroke-width:0px;"/><path d="m724.61,684.76h6.27l9.83,2.51,9.41,6.48,7.74,6.9,5.23,9.2,2.93,12.55-1.46,12.13-3.14,11.5-1.25,1.25-.21,3.14-3.55,3.76-1.25,5.44-1.88,2.09-1.46,3.76-.84,1.25,6.48,9.62,9.2,1.88,3.14-.63,2.51-2.09h.84v5.02l-.42,2.72-2.09,2.3-6.07,3.55-3.35.63-5.02-1.88-6.06-9.62v-.84l-3.35-6.48-1.05,2.72-1.25.42-11.5,8.58-6.48,2.51-4.39,3.14-9.62,3.76-5.23.63-.63,1.04-11.92,1.05-4.18-1.46-5.86-5.02-2.72-4.39.42-1.25-1.67-5.65.42-6.07.84-.84-.84-2.09,3.14-9.62,5.86-6.9,1.67-3.14,2.51-.42,1.88-2.51,1.88.21,1.67-2.3,4.18-1.04h2.09l.84-1.67,10.25-1.04,6.9,1.46,4.18.21,1.88,1.88,2.72,1.05,1.04,2.09,2.09.21,4.18,5.44,1.46.84,2.93-5.02,3.76-8.58,1.88-1.25,4.18-13.17-1.05-2.3,2.09-3.35-1.67-3.56,1.04-3.35-1.25-4.81-1.46-2.09.42-1.46-5.02-4.39-.63-1.46-7.53-1.88-7.11.42-5.23,1.46-7.11,1.88-11.08,6.48-8.57,9.2-2.09,2.51-1.46,3.56.42,2.72,1.67,4.18,3.35,2.09-.63,1.67h-1.25l-6.27-3.35-.84-1.88-4.18-3.97-1.88-3.97-3.35-3.35-2.93-4.81.42-3.14,4.6-5.02,4.81-4.39,3.97-1.05,1.46-3.55,1.88.42,2.51-2.51,16.73-5.86,7.53-1.05Zm.63,63.99l-4.81.21-10.46,3.35-2.93.84-10.04,8.99-2.51,2.3-3.97,8.16-1.67,1.88-.63,7.11.84,1.46-.21,1.46,1.46,2.3,4.6,1.46,6.27-.63,6.27-2.09.84-1.25,3.35-.84,16.94-14.01,6.06-7.11,3.14-4.6-5.65-7.11-2.51.42-4.39-2.3Z" style="fill:#44bba4; stroke-width:0px;"/><path d="m798.43,664.27l9.62.84,6.9,2.72,5.86,3.76,3.35,3.35v1.25l1.46.63,4.39,8.78.84,4.18,1.25,1.25.63,6.27-1.88,1.05,2.3,4.81.42,1.88-2.51,2.72,1.67,3.76-1.46,1.46-.84,6.9-1.88.84.63,2.3-1.67,5.65,15.06-18.4,3.76-2.51,6.06-1.46,1.46-1.25,7.74.42,1.05,1.05,2.72.21,8.78,6.48,1.25,1.46,4.18,10.88-1.25,1.88,1.05,1.67-1.46,7.11,2.51-6.06,3.56-1.67,4.18-4.81,12.34-5.02,6.48-1.88,14.64,7.53,5.86,8.37,1.67,4.81-.84,1.67,1.25,6.9,1.04,7.74-3.76,11.29-4.6,10.67-5.44,5.65-.84,2.3-3.14,1.67-.84,3.35-10.04,10.67-5.86,10.25-5.44,7.11-8.57,12.97-1.88,7.32-2.09,11.92,1.88,1.67-1.05,2.93,5.65,8.16,3.35,4.18,3.76,2.3,5.23,1.25,5.44-.21,6.69-3.56,2.51-2.3,2.09-6.06-.84-1.05-3.97,1.88-4.81-2.3-4.18-5.86-.42-5.44,3.97-5.02h2.09l2.09-1.67,8.78,2.51,3.76,4.39v3.14l1.67,1.67-.63,4.6-4.18,10.25-4.18,5.65-1.46.84h-1.25l-5.23,2.93h-10.88l-11.92-5.65-.84-1.46-5.02-3.56-3.14-5.86-2.3-5.86-1.25-14.22,1.04-11.71,2.3-.63-.21-4.39,1.67-6.27,2.3-.21,1.05-4.81,4.18-4.39-.63-1.67,2.72-1.46.84-3.97,5.44-7.32,8.78-12.55,2.09-.42-.63-2.93h2.3l5.44-7.95,4.18-3.97,2.93-9.62,1.88-1.04,2.09-6.27.84-6.48-2.3-7.74-6.69-5.44-9.62-1.05-6.48,1.46-8.78,7.32-2.72,5.44h-1.67l-.63,3.76-2.72,3.56.21,1.46-1.25,1.25-2.51,6.48-2.72,2.93.21,2.09-1.67,2.09.63,2.72-2.51,1.67,1.25.63-1.88,3.35-.63,4.18-2.3,2.72.42,3.14-3.76,3.97.21,3.76-2.09,1.46-3.56,10.88-3.14,5.65-5.65,2.09-.84-1.46-2.72-.21-4.39-2.93,1.88-10.46,1.88-2.51-.42-1.88,3.97-5.44-.63-1.88,2.51-5.02-.63-2.3,2.3-1.25,1.05-6.27,5.23-10.04-.63-2.93,3.35-4.39-.63-2.09,5.23-11.29.42-6.07.42-3.55.84-2.93-1.46-2.51,1.25-3.35-3.14-3.14v-1.25l-5.65-2.51h-3.97l-.63.84-1.67-.21-8.37,6.06-10.88,15.89-2.09,2.72-2.51,6.48-5.86,11.5.42,1.46-1.46.84-1.05,5.65-2.3,1.05v4.18l-4.81,9.2-.21,4.81-1.67,1.25.21,1.05-1.25,3.35v4.6l-3.35,1.67.42,5.23-2.51,2.09-.21,3.97-3.14.42-2.09,1.67-1.25-1.25h-1.25l-4.39-1.67v-1.25l-3.76-.42-.63-3.56,1.88-4.6-.63-1.05,2.09-3.14,4.81-12.55,1.46-1.05-.21-3.14,5.44-13.59,1.46-4.6v-2.3l3.56-12.34,4.39-13.59.63-2.72,1.25-1.05.21-5.02,4.39-12.13,2.3-15.89-1.88-11.29-2.3-3.55-3.56-3.76-8.37-2.93-7.95,2.09-5.44,6.9-.21,5.23,1.04,3.97,3.14,1.88,1.46-1.46,1.67.42,2.09-4.81,3.14-.42,5.65,4.6,1.88,3.56-4.6,7.11-5.65,2.93-6.9-1.25-1.67-1.88-4.39-1.88-2.93-10.67-.21-1.88,3.76-11.08,3.55-2.3,1.46-2.09,2.51-.63,3.35-2.72Z" style="fill:#44bba4; stroke-width:0px;"/><path d="m1138.68,536.07l4.39-.42,2.09,1.04.84,2.72v6.48l10.25-.63,8.78-2.72,3.97-3.76.21-3.35,4.18,2.93,4.39,8.78-1.88,1.05-14.01,2.09-16.94,2.72-1.25,4.6-2.09,12.13-.63,6.48-2.51,16.52-.84,3.35-1.67,8.99-.84,2.93-.42,7.74-2.51,10.46-.63,7.74-1.88,6.9-1.46,12.55-1.46,1.25-1.05,12.55-1.67,4.39.84,1.67-1.46,2.09.63,5.65-1.88,3.97.42,1.88-1.46,8.99-1.25,1.88.84,1.88-2.3,10.88-1.05,1.05.42,2.93-.84,11.71-4.18,17.99-1.25,11.08-1.88,4.39.21,4.18-3.97,27.4-2.09,8.99,1.46,1.25,9.83-.21,5.02,1.25,3.35-.63,15.89,4.18,3.76,3.56,1.67,4.6-1.25,2.72-10.67,3.14-2.51-1.25-1.88,1.25-3.76.42-.84-.84-2.72-.21,5.02-3.35,2.51-2.93,4.39-1.04-.84-3.14-10.25.63-3.76-.84-14.22-.42-3.35,5.44-1.67,11.29-1.46,2.3.21,2.93-1.25,3.76-1.88,6.27-2.3-8.16,1.46-7.95-.21-3.14,1.67-7.95-.63-3.55-11.08,1.46-1.05,1.05-11.71,2.72-14.43,3.76-3.56,3.35h-3.35l-5.44,4.39,1.67,5.65,3.14,2.51.21,1.04h-2.3l-3.56-1.25-5.65-4.39-4.18-9.2-2.3-4.81.21-3.97,10.46-3.76,8.78-1.88,7.74-1.25,8.78-1.88-1.25-18.61,1.88-22.38.42-10.46,1.25-13.38,2.09-1.88-1.46-6.48.84-13.38.63-11.5-.63-8.99,1.67-2.72-.63-3.76,2.51-6.06-.42-6.69,1.46-23.84.21-4.18,1.67-10.25v-3.76l2.93-27.81,1.04-13.8,1.05-1.25,1.46-17.57-1.46-1.88,1.05-3.35.21-13.38-12.34-.21-2.09.63-2.72-.21-8.37-.63-3.76-4.18-1.46-5.23.42-9.83,10.46,7.74,9.62,2.93,2.51-.42,2.09,1.67,3.97.21,14.01.84,3.14.84,3.97-1.05,1.05,1.05,1.88-.84h16.31l3.14-.84,7.32.21,4.18-1.05,2.09-6.27-.21-5.02Zm-8.99,15.89l-5.02,1.25-3.35-.42-1.46,1.05-10.04,1.04-4.6,1.25-8.78-.21.21,1.25h2.3l2.72,2.09,6.48,1.46.42,3.14,4.81,5.86v11.08l.84,1.88-.84,1.25,1.05,3.56-2.93,4.6-.42,6.9,2.09,5.02-1.04,3.76-.42,5.86-.21,3.56-2.09.63,1.25,3.56-1.25,7.32-1.67,1.46.42,4.6-1.05,15.06,1.05,3.35-4.81,14.64-.42,10.46-1.88,14.01-3.14,9.62-1.88,6.27,1.25,1.67-.84,11.5-1.25,1.67-1.04,5.44-2.09,10.25-2.09,7.95.63,3.76-1.46,3.56-4.6,17.78.63,1.46-1.88,3.55-.42,4.39-3.56,8.16-4.18,12.76.84.63,12.97-1.25.42-.84,1.46,1.05,3.56-.42,1.46.84,2.93-10.25,1.05-8.16,1.25-2.51,2.3-11.71v-3.35l.63-5.65,1.46-10.46,1.46-5.44-.42-5.02,1.88-4.39.21-10.04,1.67-2.09-.84-1.67,1.67-2.3-1.05-3.35.42-3.76,1.88-11.92-.63-1.04,3.76-12.55-.84-2.51,2.09-5.23,1.46-11.29,1.67-7.95-.21-7.11,1.25-3.76,1.67-15.48.63-1.25,1.25-10.46,1.05-1.05,3.56-19.45,1.88-17.57,2.93-16.52,2.09-12.34-1.88-1.88-4.39-.63Z" style="fill:#f45b69; stroke-width:0px;"/><path d="m1236.35,503.86l12.76.42,15.06,4.6,9.83,5.02,4.81,2.09,8.37,7.32.84.21,3.35,3.55,5.44,6.69,4.18,7.11,4.18,7.74,2.09,7.74.84,6.9.63,7.95-1.25,3.35.42,4.18v1.46l-1.05,5.23-2.09,4.6-.42,3.97-1.46,1.25-1.46.21-2.93,8.58-2.3,2.09v2.09l-4.18,3.35-3.97,7.74-4.39,4.39-3.55,3.55-.84,1.88-3.76,1.88-1.67,1.46-2.51,3.14-1.46.42-.42,1.46-6.48,5.65-3.56,3.35-6.48,5.23-1.88.21.21,1.05-4.39,4.39-4.6,4.6-1.46-.21-1.25,3.35-8.99,6.9-6.27,14.43-2.3,3.55v4.18l-.84.21.63,11.71,1.05,3.97,4.18,7.95-.84.63-6.9-5.02-5.65-8.78.42-1.88-3.76-6.9-1.25-4.39.84-5.23-1.05-1.05-.63-3.14,2.3-5.65-.21-2.93,2.09-6.27,3.97-8.37,3.14-5.23,1.25-2.51,3.56-1.88,2.09-4.39,5.02-5.65,4.81-3.35.42-1.46,2.72-1.04,3.35-4.18,3.14-1.67-.21-1.67,3.97-1.67,6.48-6.27,2.51-1.67,9.2-8.16,6.27-6.69,5.86-4.6,6.27-7.95,5.02-9.83,1.88-11.29,1.25-7.11-.42-10.46-2.93-10.04-3.14-4.18v-1.25l-7.74-9.2-3.56-2.93-11.92-5.86-6.27-2.3-3.55-.42-.63-.63-12.55-1.05-2.72-.21-14.01,3.14-7.11,2.72-1.25,1.25-6.48,2.51-1.88,2.51-6.9,4.81-3.35,4.18-5.86,6.27-4.81,6.9-4.18,13.59-1.25,6.69,1.25,7.32,2.51,8.16,2.09,1.67,2.51,2.93,5.86,4.6,2.3-.42,2.51,1.25,4.6.84,1.46-1.05,3.76.42,7.74-3.76,1.25-.42,3.76-2.93,2.09-1.88,3.76-8.16.63-5.02-.21-2.93-.84-3.14-2.51-2.72-4.39.21-.84-1.25v-.63l3.35-3.14h3.35l1.88-.21,2.09.21,6.27,3.35,7.74,5.02,1.88,1.88,2.3,13.38-1.67,4.18-2.51,6.06-1.46,1.46-1.46-.63-1.88,4.81-4.18,2.72-4.39,3.14-8.16,2.51-2.09.42-6.27,1.05-8.99-.84-7.74-2.51-7.95-4.81-7.74-7.32-1.46-2.72-1.46-1.67-2.93-6.69h-.42l-1.67-5.02-.84-10.67,1.05-10.46,2.93-9.83,3.35-6.69,9.41-12.76,2.09-.84,4.6-5.02,11.92-6.9,9.41-3.97,7.53-2.3,9.41-1.25Zm11.29,258.69l-1.46-.63-1.25-2.51-3.76-2.93-5.02-2.51-2.51-.42-8.78,1.25-.84.42-5.86,4.6-1.25,2.72-1.67,1.25-1.46,4.39-1.25,7.95,3.14,6.48,7.95,3.76,1.67.42,7.32-2.72,6.69-5.86,1.25-4.39-.21-2.09-1.04-2.72-8.37,1.05-1.88,1.46-1.46,2.3-1.46,7.11-3.35-5.44-.63-3.35,1.25-5.44,1.67-2.3,7.53-3.97,7.74,2.3,7.74,5.44,1.67,7.11-1.05,5.44-3.35,4.81-5.44,3.14-10.04,2.93-10.04-1.46-7.74-5.65-3.76-4.18-3.35-8.37-.42-1.46v-7.95l3.35-8.99,4.81-6.07,3.97-3.76h2.51l1.67-1.46,7.53-1.25h1.88l5.86,1.46,7.74,6.69,3.76,6.06v7.32Z" style="fill:#f2e863; stroke-width:0px;"/></g></svg>