<?xml version="1.0" encoding="UTF-8"?><svg id="a" xmlns="http://www.w3.org/2000/svg" xmlns:xlink="http://www.w3.org/1999/xlink" viewBox="0 0 1536 1024"><defs><filter id="b" x="77.17" y="517.74" width="769.59" height="153" filterUnits="userSpaceOnUse"><feOffset dx="4" dy="4"/><feGaussianBlur result="c" stdDeviation="0"/><feFlood flood-color="#fff" flood-opacity="1"/><feComposite in2="c" operator="in"/><feComposite in="SourceGraphic"/></filter><filter id="d" x="321.37" y="712.3" width="794.59" height="158.84" filterUnits="userSpaceOnUse"><feOffset dx="3" dy="3"/><feGaussianBlur result="e" stdDeviation="0"/><feFlood flood-color="#000" flood-opacity="1"/><feComposite in2="e" operator="in"/><feComposite in="SourceGraphic"/></filter></defs><g style="filter:url(#b);"><path d="M82.17,659.54c1.47,0,3-.03,4.6-.1,1.6-.07,2.87-.23,3.8-.5.93-.27,1.73-.77,2.4-1.5.67-.73,1.27-2.07,1.8-4,.53-1.93,1-4.67,1.4-8.2.4-3.53.7-8.23.9-14.1.2-5.87.37-13.13.5-21.8.13-8.67.2-19.13.2-31.4,0-10-.13-18.33-.4-25-.27-6.67-.67-12.03-1.2-16.1-.53-4.07-1.23-6.96-2.1-8.7-.87-1.73-1.97-2.6-3.3-2.6-.67,0-1.57.03-2.7.1-1.13.07-2.3.1-3.5.1s-2.3.03-3.3.1c-1,.07-1.63.1-1.9.1s-.47-.27-.6-.8c-.13-.53-.2-1.07-.2-1.6s.07-1.2.2-2c.13-.8.6-1.2,1.4-1.2h17.8c5.73,0,10.47-.13,14.2-.4,3.73-.27,7.27-.73,10.6-1.4,2-.4,2.87.27,2.6,2-.13.8-.27,2.13-.4,4-.13,1.87-.3,3.87-.5,6-.2,2.13-.37,4.17-.5,6.1-.13,1.93-.2,3.37-.2,4.3,1.6-1.87,4.23-4.13,7.9-6.8,3.67-2.67,7.97-5.2,12.9-7.6,4.93-2.4,10.33-4.47,16.2-6.2,5.87-1.73,11.8-2.6,17.8-2.6,8,0,15.4,1.03,22.2,3.1,6.8,2.07,12.63,5.13,17.5,9.2,4.87,4.07,8.67,9.2,11.4,15.4,2.73,6.2,4.1,13.5,4.1,21.9,0,5.47-.53,11.1-1.6,16.9-1.07,5.8-2.4,11.57-4,17.3-1.6,5.73-3.33,11.3-5.2,16.7-1.87,5.4-3.6,10.4-5.2,15-1.6,4.6-2.93,8.7-4,12.3-1.07,3.6-1.6,6.4-1.6,8.4,0,1.47.7,2.63,2.1,3.5,1.4.87,3.83,1.3,7.3,1.3,1.87,0,3.43-.07,4.7-.2,1.27-.13,2.37-.53,3.3-1.2.53-.27,1.07,0,1.6.8.27.4.4.87.4,1.4,0,.67-.37,1.6-1.1,2.8-.73,1.2-1.57,1.8-2.5,1.8h-7c-3.6,0-7.5.03-11.7.1-4.2.07-8.33.1-12.4.1h-9.3c-2,0-3-.67-3-2,0-.8.07-1.3.2-1.5.13-.2.37-.33.7-.4.33-.07.73-.2,1.2-.4.47-.2,1.1-.7,1.9-1.5,1.46-2.27,3-6.03,4.6-11.3,1.6-5.27,3.03-11.43,4.3-18.5,1.27-7.07,2.33-14.73,3.2-23,.87-8.27,1.3-16.53,1.3-24.8s-1-16.27-3-22.8c-2-6.53-4.73-12-8.2-16.4-3.47-4.4-7.47-7.7-12-9.9-4.53-2.2-9.33-3.3-14.4-3.3-4.4,0-8.9.83-13.5,2.5-4.6,1.67-8.83,3.93-12.7,6.8-3.87,2.87-7.23,6.2-10.1,10-2.87,3.8-4.7,7.77-5.5,11.9-.4,1.87-.73,5.13-1,9.8-.27,4.67-.47,10.07-.6,16.2-.13,6.13-.23,12.6-.3,19.4-.07,6.8-.1,13.27-.1,19.4,0,3.87.07,7.57.2,11.1.13,3.53.33,6.73.6,9.6.27,2.87.53,5.3.8,7.3.27,2,.53,3.27.8,3.8.53,1.2,1.13,2.04,1.8,2.5.67.47,2.53.7,5.6.7,1.33,0,2.37-.07,3.1-.2.73-.13,1.63-.2,2.7-.2.93,0,1.53.37,1.8,1.1.27.73.4,1.37.4,1.9,0,.27-.23.67-.7,1.2-.47.53-1.03.8-1.7.8-.8,0-2.17-.04-4.1-.1-1.93-.07-4.1-.1-6.5-.1s-4.77-.03-7.1-.1c-2.33-.07-4.17-.1-5.5-.1-3.47,0-7.03.03-10.7.1-3.67.07-7.1.13-10.3.2-3.2.07-6.03.17-8.5.3-2.47.13-4.1.27-4.9.4-.8,0-1.2-.53-1.2-1.6,0-.67.23-1.43.7-2.3.47-.87,1.03-1.3,1.7-1.3h2.6Z" style="fill:#f45b69;"/><path d="M304.77,601.54c-.8-4.13-1.73-7.83-2.8-11.1-1.07-3.27-2.4-6-4-8.2-1.6-2.2-3.53-3.87-5.8-5-2.27-1.13-5.07-1.7-8.4-1.7-2.93,0-5.63.53-8.1,1.6-2.47,1.07-4.6,2.33-6.4,3.8-1.8,1.47-3.2,2.93-4.2,4.4-1,1.47-1.57,2.6-1.7,3.4-.13,1.07-.73,1.6-1.8,1.6-1.87,0-3.6-.67-5.2-2-1.6-1.33-2.4-2.93-2.4-4.8,0-1.07.13-1.87.4-2.4,3.07-1.73,6.8-3.6,11.2-5.6,4.4-2,8.97-3.87,13.7-5.6,4.73-1.73,9.43-3.17,14.1-4.3,4.67-1.13,8.87-1.7,12.6-1.7,5.6,0,9.9.8,12.9,2.4,3,1.6,5.23,3.87,6.7,6.8,1.47,2.93,2.37,6.37,2.7,10.3.33,3.93.63,8.17.9,12.7.4,6.8.93,13.37,1.6,19.7.67,6.33,1.67,11.93,3,16.8,1.33,4.87,3.03,8.8,5.1,11.8,2.07,3,4.63,4.5,7.7,4.5,1.47,0,3.07-.27,4.8-.8,1.73-.53,3.4-1.17,5-1.9,1.6-.73,3.03-1.47,4.3-2.2,1.27-.73,2.1-1.23,2.5-1.5,1.2,0,1.93.6,2.2,1.8,0,.67-.13,1.27-.4,1.8-.27.27-1.27.93-3,2-1.73,1.07-3.87,2.33-6.4,3.8-2.53,1.47-5.33,3.03-8.4,4.7-3.07,1.67-6.1,3.23-9.1,4.7-3,1.47-5.77,2.67-8.3,3.6-2.53.93-4.53,1.4-6,1.4-1.73,0-3.23-.7-4.5-2.1-1.27-1.4-2.37-3.27-3.3-5.6-.93-2.33-1.73-5.03-2.4-8.1-.67-3.07-1.27-6.27-1.8-9.6-2.4,2-5.47,4.37-9.2,7.1-3.73,2.73-7.8,5.3-12.2,7.7-4.4,2.4-8.9,4.43-13.5,6.1-4.6,1.67-9.03,2.5-13.3,2.5-3.6,0-6.73-.57-9.4-1.7-2.67-1.13-4.9-2.63-6.7-4.5-1.8-1.87-3.13-4.03-4-6.5-.87-2.47-1.3-5.03-1.3-7.7,0-4.27,1.3-7.77,3.9-10.5,2.6-2.73,6.63-5.57,12.1-8.5,2.53-1.33,6.07-3.1,10.6-5.3,4.53-2.2,9.17-4.43,13.9-6.7,4.73-2.27,9.13-4.43,13.2-6.5,4.07-2.07,7.03-3.7,8.9-4.9ZM310.57,632.54c-.4-2.27-.8-4.73-1.2-7.4-.4-2.67-.8-5.2-1.2-7.6-.4-2.4-.77-4.47-1.1-6.2-.33-1.73-.57-2.87-.7-3.4-2.13.8-4.53,1.73-7.2,2.8-2.67,1.07-5.33,2.23-8,3.5-2.67,1.27-5.2,2.53-7.6,3.8-2.4,1.27-4.4,2.43-6,3.5-3.07,2-5.4,4-7,6-1.6,2-2.4,4.4-2.4,7.2,0,3.87,1.13,7.27,3.4,10.2,2.27,2.93,5.8,4.4,10.6,4.4,2.53,0,5.17-.46,7.9-1.4,2.73-.93,5.27-2,7.6-3.2,2.33-1.2,4.37-2.4,6.1-3.6,1.73-1.2,2.93-2.13,3.6-2.8,1.07-1.07,1.9-1.96,2.5-2.7.6-.73.83-1.77.7-3.1Z" style="fill:#f45b69;"/><path d="M541.96,646.34c.4,0,.67.23.8.7.13.47.2,1.03.2,1.7s-.13,1.1-.4,1.3c-.27.2-.53.43-.8.7-.93.53-3.17,1.67-6.7,3.4-3.53,1.73-7.47,3.5-11.8,5.3-4.33,1.8-8.6,3.4-12.8,4.8s-7.37,2.1-9.5,2.1c-1.87,0-3.63-.4-5.3-1.2-1.67-.8-2.37-2.07-2.1-3.8.27-1.07.57-2.67.9-4.8.33-2.13.63-4.73.9-7.8.27-3.87.57-8.33.9-13.4.33-5.07.5-10.67.5-16.8,0-7.2-.47-13.17-1.4-17.9-.93-4.73-2.27-8.5-4-11.3-1.73-2.8-3.87-4.77-6.4-5.9-2.53-1.13-5.47-1.7-8.8-1.7-3.07,0-5.67.5-7.8,1.5-2.13,1-4,2.1-5.6,3.3-2.93,2.27-5.23,5.17-6.9,8.7-1.67,3.53-2.7,8.17-3.1,13.9-.13,1.47-.23,2.93-.3,4.4-.07,1.47-.13,3.07-.2,4.8-.07,1.73-.13,3.67-.2,5.8-.07,2.13-.1,4.67-.1,7.6,0,7.87.63,13.33,1.9,16.4,1.27,3.07,3.43,4.6,6.5,4.6,1.07,0,1.73-.03,2-.1.27-.07.8-.17,1.6-.3.27.27.53.6.8,1,.4.67.33,1.4-.2,2.2-.67.8-2.27,1.83-4.8,3.1-2.53,1.27-5.33,2.43-8.4,3.5-3.07,1.07-6.07,2-9,2.8-2.93.8-5.13,1.2-6.6,1.2-1.87,0-3.57-.23-5.1-.7-1.54-.47-2.3-1.03-2.3-1.7,0-.8.27-1.73.8-2.8.4-.67.8-2.27,1.2-4.8.4-2.53.77-5.8,1.1-9.8.33-4,.63-8.63.9-13.9.27-5.27.4-10.97.4-17.1,0-3.2-.17-6.73-.5-10.6-.33-3.87-1.17-7.5-2.5-10.9-1.33-3.4-3.3-6.27-5.9-8.6-2.6-2.33-6.17-3.5-10.7-3.5-2.67,0-5.07.37-7.2,1.1-2.13.73-3.93,1.63-5.4,2.7-2.93,2.27-5.43,5.07-7.5,8.4-2.07,3.33-3.43,8.07-4.1,14.2-.27,2.8-.53,5.7-.8,8.7-.27,3-.4,6.43-.4,10.3,0,5.07.13,9.27.4,12.6.27,3.33.73,5.97,1.4,7.9.67,1.93,1.47,3.27,2.4,4,.93.73,2.13,1.1,3.6,1.1s2.47-.13,3-.4c.67-.27,1.13.13,1.4,1.2.27,1.07.2,1.73-.2,2-.53.53-1.93,1.37-4.2,2.5-2.27,1.13-4.87,2.3-7.8,3.5-2.93,1.2-5.93,2.27-9,3.2-3.07.93-5.67,1.4-7.8,1.4-2.27,0-4.03-.27-5.3-.8-1.27-.53-1.9-1.13-1.9-1.8,0-.13.13-.57.4-1.3.27-.73.46-1.37.6-1.9.53-4.13,1.03-7.96,1.5-11.5.47-3.53.8-7.37,1-11.5.2-4.13.37-8.87.5-14.2.13-5.33.2-11.8.2-19.4s-1.17-12.73-3.5-16.2c-2.33-3.47-4.77-5.2-7.3-5.2-1.07,0-1.97.1-2.7.3-.73.2-1.43.37-2.1.5-.8.13-1.2-.27-1.2-1.2v-1.4c.13-.13,1.46-1.07,4-2.8,2.53-1.73,5.53-3.6,9-5.6,3.46-2,7.07-3.83,10.8-5.5,3.73-1.67,6.8-2.5,9.2-2.5,1.6,0,2.96.47,4.1,1.4,1.13.93,1.7,2.67,1.7,5.2,0,1.2-.03,2.53-.1,4-.07,1.47-.13,3-.2,4.6-.07,1.6-.17,3.17-.3,4.7-.13,1.53-.2,2.83-.2,3.9,1.87-1.73,4.23-4,7.1-6.8,2.87-2.8,6.1-5.47,9.7-8,3.6-2.53,7.5-4.73,11.7-6.6,4.2-1.87,8.63-2.8,13.3-2.8,6.13,0,11.13,1.8,15,5.4,3.87,3.6,5.93,9.87,6.2,18.8,2.13-2,4.73-4.4,7.8-7.2,3.07-2.8,6.5-5.47,10.3-8,3.8-2.53,7.83-4.67,12.1-6.4,4.27-1.73,8.6-2.6,13-2.6,15.47,0,23.2,8.2,23.2,24.6,0,2.67-.13,5.73-.4,9.2-.27,3.47-.6,7.1-1,10.9-.4,3.8-.73,7.57-1,11.3-.27,3.73-.4,7.13-.4,10.2,0,13.87,3.67,20.8,11,20.8,1.2,0,2.53-.17,4-.5,1.47-.33,2.93-.73,4.4-1.2,1.46-.47,2.8-.93,4-1.4,1.2-.47,2.07-.9,2.6-1.3h.2Z" style="fill:#f45b69;"/><path d="M620.36,647.74c-1.47,1.2-3.47,2.8-6,4.8-2.53,2-5.47,4-8.8,6-3.33,2-7,3.7-11,5.1-4,1.4-8.2,2.1-12.6,2.1-6.67,0-12.6-1.17-17.8-3.5-5.2-2.33-9.57-5.47-13.1-9.4-3.53-3.93-6.2-8.57-8-13.9-1.8-5.33-2.7-11-2.7-17,0-7.07,1.07-13.33,3.2-18.8,2.13-5.47,4.77-10.23,7.9-14.3,3.13-4.07,6.5-7.46,10.1-10.2,3.6-2.73,6.87-4.9,9.8-6.5,1.33-.8,3.03-1.67,5.1-2.6,2.07-.93,4.33-1.8,6.8-2.6,2.47-.8,5.13-1.5,8-2.1,2.87-.6,5.83-.9,8.9-.9,5.73,0,11.3.73,16.7,2.2,5.4,1.47,10.17,3.77,14.3,6.9,4.13,3.13,7.47,7.17,10,12.1,2.53,4.93,3.8,10.87,3.8,17.8,0,5.6-1.04,10.87-3.1,15.8-2.07,4.93-4.5,9.33-7.3,13.2-2.8,3.87-5.57,7.17-8.3,9.9l-5.9,5.9ZM597.76,650.94c7.6,0,13.43-2.87,17.5-8.6,4.07-5.73,6.1-14.53,6.1-26.4,0-6-.83-11.57-2.5-16.7-1.67-5.13-4-9.63-7-13.5-3-3.87-6.5-6.9-10.5-9.1-4-2.2-8.33-3.3-13-3.3-3.33,0-6.5.87-9.5,2.6-3,1.73-5.63,4.23-7.9,7.5-2.27,3.27-4.07,7.23-5.4,11.9-1.33,4.67-2,9.93-2,15.8,0,6.27.97,11.87,2.9,16.8,1.93,4.93,4.5,9.1,7.7,12.5,3.2,3.4,6.83,6,10.9,7.8,4.07,1.8,8.3,2.7,12.7,2.7Z" style="fill:#f45b69;"/><path d="M748.36,578.74c-1.47,1.2-3.2,2.7-5.2,4.5s-4.1,3.53-6.3,5.2c-2.2,1.67-4.43,3.1-6.7,4.3-2.27,1.2-4.47,1.8-6.6,1.8-1.87,0-3.53-.43-5-1.3-1.47-.87-2.83-1.8-4.1-2.8-1.27-1-2.5-1.93-3.7-2.8-1.2-.87-2.47-1.3-3.8-1.3-3.6,0-6.63,1.47-9.1,4.4-2.47,2.93-4.47,6.67-6,11.2-1.53,4.53-2.67,9.47-3.4,14.8-.73,5.33-1.1,10.47-1.1,15.4,0,4.13.17,7.5.5,10.1.33,2.6.83,4.67,1.5,6.2.67,1.53,1.57,2.57,2.7,3.1,1.13.53,2.5.8,4.1.8,1.73,0,3.6-.27,5.6-.8.4-.13.7.13.9.8.2.67.3,1.2.3,1.6,0,.27-.2.57-.6.9-.4.33-.67.5-.8.5-2.93,1.2-5.93,2.5-9,3.9-3.07,1.4-5.6,2.57-7.6,3.5-1.87.8-4.1,1.67-6.7,2.6-2.6.93-4.83,1.4-6.7,1.4-2.13,0-3.9-.33-5.3-1-1.4-.67-2.1-1.33-2.1-2s.17-1.27.5-1.8c.33-.53.63-1.53.9-3,.27-2,.57-4.37.9-7.1.33-2.73.67-5.7,1-8.9.33-3.2.6-6.5.8-9.9.2-3.4.3-6.77.3-10.1,0-7.47-.23-13.8-.7-19-.47-5.2-1.3-9.4-2.5-12.6-1.2-3.2-2.83-5.5-4.9-6.9-2.07-1.4-4.7-2.1-7.9-2.1h-1.8c-.53,0-1.07.07-1.6.2-.8,0-1.2-.4-1.2-1.2s.4-1.4,1.2-1.8c1.47-.93,3.73-2.3,6.8-4.1,3.07-1.8,6.23-3.53,9.5-5.2,3.27-1.67,6.43-3.17,9.5-4.5,3.07-1.33,5.33-2,6.8-2,1.73,0,3.2.57,4.4,1.7,1.2,1.13,2.1,2.57,2.7,4.3.6,1.73,1.03,3.7,1.3,5.9.27,2.2.4,4.37.4,6.5,0,1.6-.03,3.27-.1,5-.07,1.73-.1,3.6-.1,5.6,6-8.8,11.4-15.63,16.2-20.5,4.8-4.87,9.33-7.3,13.6-7.3,1.6,0,3.17.67,4.7,2,1.53,1.33,3.17,2.83,4.9,4.5,1.73,1.67,3.53,3.17,5.4,4.5,1.87,1.33,3.8,2,5.8,2,1.73,0,3-.2,3.8-.6.8-.4,1.47-.73,2-1,1.07,0,1.6.73,1.6,2.2v.2Z" style="fill:#f45b69;"/><path d="M818.16,647.74c-1.47,1.2-3.47,2.8-6,4.8-2.53,2-5.47,4-8.8,6-3.33,2-7,3.7-11,5.1-4,1.4-8.2,2.1-12.6,2.1-6.67,0-12.6-1.17-17.8-3.5-5.2-2.33-9.57-5.47-13.1-9.4-3.53-3.93-6.2-8.57-8-13.9-1.8-5.33-2.7-11-2.7-17,0-7.07,1.07-13.33,3.2-18.8,2.13-5.47,4.77-10.23,7.9-14.3,3.13-4.07,6.5-7.46,10.1-10.2,3.6-2.73,6.87-4.9,9.8-6.5,1.33-.8,3.03-1.67,5.1-2.6,2.07-.93,4.33-1.8,6.8-2.6,2.47-.8,5.13-1.5,8-2.1,2.87-.6,5.83-.9,8.9-.9,5.73,0,11.3.73,16.7,2.2,5.4,1.47,10.17,3.77,14.3,6.9,4.13,3.13,7.47,7.17,10,12.1,2.53,4.93,3.8,10.87,3.8,17.8,0,5.6-1.04,10.87-3.1,15.8-2.07,4.93-4.5,9.33-7.3,13.2-2.8,3.87-5.57,7.17-8.3,9.9l-5.9,5.9ZM795.56,650.94c7.6,0,13.43-2.87,17.5-8.6,4.07-5.73,6.1-14.53,6.1-26.4,0-6-.83-11.57-2.5-16.7-1.67-5.13-4-9.63-7-13.5-3-3.87-6.5-6.9-10.5-9.1-4-2.2-8.33-3.3-13-3.3-3.33,0-6.5.87-9.5,2.6-3,1.73-5.63,4.23-7.9,7.5-2.27,3.27-4.07,7.23-5.4,11.9-1.33,4.67-2,9.93-2,15.8,0,6.27.97,11.87,2.9,16.8,1.93,4.93,4.5,9.1,7.7,12.5,3.2,3.4,6.83,6,10.9,7.8,4.07,1.8,8.3,2.7,12.7,2.7Z" style="fill:#f45b69;"/></g><g style="filter:url(#d);"><path d="M384.37,727.34c-2.13,0-5.23-.07-9.3-.2-4.07-.13-8.37-.33-12.9-.6-4.53-.27-8.97-.6-13.3-1-4.33-.4-7.83-.87-10.5-1.4-.53-.27-1.03-.97-1.5-2.1-.47-1.13-.7-2.23-.7-3.3,0-1.2.53-2.13,1.6-2.8,5.33,1.47,11.13,2.63,17.4,3.5,6.27.87,12.27,1.57,18,2.1,5.73.53,10.9.87,15.5,1,4.6.13,7.97.2,10.1.2,5.2,0,10.53-.13,16-.4,5.47-.27,10.53-.6,15.2-1,4.67-.4,8.57-.8,11.7-1.2,3.13-.4,4.97-.8,5.5-1.2.27,0,.67.27,1.2.8.53.53.8,1.13.8,1.8,0,1.47-.67,2.57-2,3.3-1.33.73-3.2,1.27-5.6,1.6-2.4.33-5.33.57-8.8.7-3.47.13-7.33.33-11.6.6-.67.13-1,.87-1,2.2,0,3.07.5,8.13,1.5,15.2,1,7.07,2.27,15.07,3.8,24,1.53,8.93,3.27,18.33,5.2,28.2,1.93,9.87,3.87,19.17,5.8,27.9,1.93,8.73,3.73,16.4,5.4,23,1.67,6.6,3.1,11.1,4.3,13.5.67.27,1.23.43,1.7.5.47.07,1.3.1,2.5.1,1.73,0,3.23-.07,4.5-.2,1.27-.13,2.23-.2,2.9-.2.53,0,.93.53,1.2,1.6.27,1.07.4,1.8.4,2.2,0,.93-.47,1.4-1.4,1.4-.67,0-1.6-.07-2.8-.2-1.2-.13-2.87-.23-5-.3-2.13-.07-4.9-.17-8.3-.3-3.4-.13-7.7-.2-12.9-.2-1.73,0-3.63.07-5.7.2-2.07.13-4.03.27-5.9.4-1.87.13-3.53.27-5,.4-1.47.13-2.47.2-3,.2-.4,0-.73-.27-1-.8-.27-.53-.4-1.13-.4-1.8s.1-1.23.3-1.7c.2-.47.57-.7,1.1-.7,1.2-.13,2.8-.23,4.8-.3,2-.07,3-.57,3-1.5,0-.8-.33-3.2-1-7.2-.67-4-1.5-8.8-2.5-14.4-1-5.6-2.07-11.57-3.2-17.9-1.13-6.33-2.23-12.23-3.3-17.7-2.4-.4-5.43-.73-9.1-1-3.67-.27-7.5-.4-11.5-.4-4.67,0-9.1.2-13.3.6-4.2.4-7.5,1.13-9.9,2.2-.67,2.93-1.4,6.03-2.2,9.3-.8,3.27-1.57,6.57-2.3,9.9-.73,3.33-1.37,6.63-1.9,9.9-.53,3.27-.8,6.3-.8,9.1,0,5.47,1.17,9.4,3.5,11.8,2.33,2.4,5.23,3.6,8.7,3.6s5.63-.1,6.5-.3c.87-.2,1.63-.3,2.3-.3,1.07,0,1.6.27,1.6.8,0,.27-.3.7-.9,1.3s-1.37,1.23-2.3,1.9c-1.2.93-2.77,2.1-4.7,3.5-1.93,1.4-4.43,2.1-7.5,2.1-.4,0-1.43-.07-3.1-.2-1.67-.13-3.7-.3-6.1-.5-2.4-.2-4.93-.37-7.6-.5-2.67-.13-5.2-.2-7.6-.2-3.33,0-6.03.07-8.1.2-2.07.13-3.7.27-4.9.4-1.2.13-2.03.27-2.5.4-.47.13-.83.2-1.1.2s-.5-.23-.7-.7c-.2-.47-.3-.97-.3-1.5,0-.8.33-1.27,1-1.4,1.33-.53,3.27-1.53,5.8-3,2.67-1.6,5.03-4.3,7.1-8.1,2.07-3.8,4.43-8.97,7.1-15.5,1.87-4.4,3.93-10.4,6.2-18,2.27-7.6,4.53-15.93,6.8-25,2.27-9.07,4.4-18.57,6.4-28.5,2-9.93,3.67-19.5,5-28.7l17.6-9.4ZM404.77,789.54c-.67-3.33-1.43-7.47-2.3-12.4-.87-4.93-1.77-9.97-2.7-15.1-.93-5.13-1.83-9.97-2.7-14.5-.87-4.53-1.57-8-2.1-10.4-.8-3.6-1.5-5.87-2.1-6.8-.6-.93-1.23-1.4-1.9-1.4-1.33,0-2.73,1.1-4.2,3.3-1.47,2.2-3.03,5.13-4.7,8.8-1.67,3.67-3.3,7.87-4.9,12.6-1.6,4.73-3.17,9.6-4.7,14.6-1.53,5-2.93,9.97-4.2,14.9-1.27,4.93-2.3,9.4-3.1,13.4,2.13-.53,4.83-1.1,8.1-1.7,3.27-.6,6.73-1.23,10.4-1.9,3.67-.67,7.33-1.3,11-1.9,3.67-.6,7.03-1.1,10.1-1.5Z" style="fill:#f2e863;"/><path d="M649.77,847.34c.4,0,.67.23.8.7.13.47.2,1.03.2,1.7s-.13,1.1-.4,1.3c-.27.2-.53.43-.8.7-.93.53-3.17,1.67-6.7,3.4-3.53,1.73-7.47,3.5-11.8,5.3-4.33,1.8-8.6,3.4-12.8,4.8s-7.37,2.1-9.5,2.1c-1.87,0-3.63-.4-5.3-1.2-1.67-.8-2.37-2.07-2.1-3.8.27-1.07.57-2.67.9-4.8.33-2.13.63-4.73.9-7.8.27-3.87.57-8.33.9-13.4.33-5.07.5-10.67.5-16.8,0-7.2-.47-13.17-1.4-17.9-.93-4.73-2.27-8.5-4-11.3-1.73-2.8-3.87-4.77-6.4-5.9-2.53-1.13-5.47-1.7-8.8-1.7-3.07,0-5.67.5-7.8,1.5-2.13,1-4,2.1-5.6,3.3-2.93,2.27-5.23,5.17-6.9,8.7-1.67,3.53-2.7,8.17-3.1,13.9-.13,1.47-.23,2.93-.3,4.4-.07,1.47-.13,3.07-.2,4.8-.07,1.73-.13,3.67-.2,5.8-.07,2.13-.1,4.67-.1,7.6,0,7.87.63,13.33,1.9,16.4,1.27,3.07,3.43,4.6,6.5,4.6,1.07,0,1.73-.03,2-.1.27-.07.8-.17,1.6-.3.27.27.53.6.8,1,.4.67.33,1.4-.2,2.2-.67.8-2.27,1.83-4.8,3.1-2.53,1.27-5.33,2.43-8.4,3.5-3.07,1.07-6.07,2-9,2.8-2.93.8-5.13,1.2-6.6,1.2-1.87,0-3.57-.23-5.1-.7-1.54-.47-2.3-1.03-2.3-1.7,0-.8.27-1.73.8-2.8.4-.67.8-2.27,1.2-4.8.4-2.53.77-5.8,1.1-9.8.33-4,.63-8.63.9-13.9.27-5.27.4-10.97.4-17.1,0-3.2-.17-6.73-.5-10.6-.33-3.87-1.17-7.5-2.5-10.9-1.33-3.4-3.3-6.27-5.9-8.6-2.6-2.33-6.17-3.5-10.7-3.5-2.67,0-5.07.37-7.2,1.1-2.13.73-3.93,1.63-5.4,2.7-2.93,2.27-5.43,5.07-7.5,8.4-2.07,3.33-3.43,8.07-4.1,14.2-.27,2.8-.53,5.7-.8,8.7-.27,3-.4,6.43-.4,10.3,0,5.07.13,9.27.4,12.6.27,3.33.73,5.97,1.4,7.9.67,1.93,1.47,3.27,2.4,4,.93.73,2.13,1.1,3.6,1.1s2.47-.13,3-.4c.67-.27,1.13.13,1.4,1.2.27,1.07.2,1.73-.2,2-.53.53-1.93,1.37-4.2,2.5-2.27,1.13-4.87,2.3-7.8,3.5-2.93,1.2-5.93,2.27-9,3.2-3.07.93-5.67,1.4-7.8,1.4-2.27,0-4.03-.27-5.3-.8-1.27-.53-1.9-1.13-1.9-1.8,0-.13.13-.57.4-1.3.27-.73.46-1.37.6-1.9.53-4.13,1.03-7.96,1.5-11.5.47-3.53.8-7.37,1-11.5.2-4.13.37-8.87.5-14.2.13-5.33.2-11.8.2-19.4s-1.17-12.73-3.5-16.2c-2.33-3.47-4.77-5.2-7.3-5.2-1.07,0-1.97.1-2.7.3-.73.2-1.43.37-2.1.5-.8.13-1.2-.27-1.2-1.2v-1.4c.13-.13,1.46-1.07,4-2.8,2.53-1.73,5.53-3.6,9-5.6,3.46-2,7.07-3.83,10.8-5.5,3.73-1.67,6.8-2.5,9.2-2.5,1.6,0,2.96.47,4.1,1.4,1.13.93,1.7,2.67,1.7,5.2,0,1.2-.03,2.53-.1,4-.07,1.47-.13,3-.2,4.6-.07,1.6-.17,3.17-.3,4.7-.13,1.53-.2,2.83-.2,3.9,1.87-1.73,4.23-4,7.1-6.8,2.87-2.8,6.1-5.47,9.7-8,3.6-2.53,7.5-4.73,11.7-6.6,4.2-1.87,8.63-2.8,13.3-2.8,6.13,0,11.13,1.8,15,5.4,3.87,3.6,5.93,9.87,6.2,18.8,2.13-2,4.73-4.4,7.8-7.2,3.07-2.8,6.5-5.47,10.3-8,3.8-2.53,7.83-4.67,12.1-6.4,4.27-1.73,8.6-2.6,13-2.6,15.47,0,23.2,8.2,23.2,24.6,0,2.67-.13,5.73-.4,9.2-.27,3.47-.6,7.1-1,10.9-.4,3.8-.73,7.57-1,11.3-.27,3.73-.4,7.13-.4,10.2,0,13.87,3.67,20.8,11,20.8,1.2,0,2.53-.17,4-.5,1.47-.33,2.93-.73,4.4-1.2,1.46-.47,2.8-.93,4-1.4,1.2-.47,2.07-.9,2.6-1.3h.2Z" style="fill:#f2e863;"/><path d="M679.77,829.94c0,2.8.07,5.5.2,8.1.13,2.6.6,4.83,1.4,6.7.8,1.87,2,3.37,3.6,4.5,1.6,1.13,3.87,1.7,6.8,1.7,1.46,0,3.13-.17,5-.5,1.87-.33,3.63-.77,5.3-1.3,1.67-.53,3.13-1.07,4.4-1.6,1.27-.53,2.03-.93,2.3-1.2.4-.4.67-.4.8,0,.13.4.17.9.1,1.5-.07.6-.23,1.2-.5,1.8-.27.6-.6,1.03-1,1.3-1.33.67-3.67,1.87-7,3.6-3.33,1.73-7.27,3.53-11.8,5.4-4.27,1.87-8.43,3.43-12.5,4.7-4.07,1.27-7.43,1.9-10.1,1.9-3.07,0-5.47-.93-7.2-2.8-1.73-1.87-2.6-4.2-2.6-7,0-.93.03-1.73.1-2.4.07-.67.17-1.53.3-2.6.13-1.33.37-3.77.7-7.3.33-3.53.67-7.5,1-11.9.33-4.4.63-8.83.9-13.3.27-4.47.4-8.3.4-11.5v-7c0-3.47-.2-6.53-.6-9.2-.4-2.67-1.07-4.73-2-6.2-.67-.93-1.5-1.7-2.5-2.3-1-.6-2.23-.9-3.7-.9-.8,0-1.6.17-2.4.5-.8.33-1.4.5-1.8.5-.27,0-.7-.4-1.3-1.2-.6-.8-.57-1.4.1-1.8.93-.67,2.87-1.73,5.8-3.2,2.93-1.47,6.13-3.07,9.6-4.8,3.73-1.87,7.33-3.5,10.8-4.9,3.47-1.4,5.93-2.1,7.4-2.1s2.46.43,3,1.3c.53.87.8,1.83.8,2.9v.8c0,1.33-.2,3.47-.6,6.4-.4,2.93-.83,6.53-1.3,10.8-.47,4.27-.9,9.2-1.3,14.8-.4,5.6-.6,11.67-.6,18.2v9.6ZM671.77,725.94c.67.13,1.77.87,3.3,2.2,1.53,1.33,3.1,2.87,4.7,4.6,1.6,1.73,3,3.4,4.2,5,1.2,1.6,1.8,2.67,1.8,3.2,0,.67-.8,1.67-2.4,3-1.6,1.33-3.43,2.7-5.5,4.1-2.07,1.4-4.07,2.63-6,3.7-1.93,1.07-3.3,1.6-4.1,1.6-.4,0-1.37-.63-2.9-1.9-1.53-1.27-3.1-2.7-4.7-4.3-1.6-1.6-3.03-3.17-4.3-4.7-1.27-1.53-1.9-2.57-1.9-3.1,0-.67.87-1.7,2.6-3.1,1.73-1.4,3.63-2.87,5.7-4.4,2.07-1.53,4.07-2.87,6-4,1.93-1.13,3.1-1.77,3.5-1.9Z" style="fill:#f2e863;"/><path d="M691.16,862.14c2.93-1.73,5.87-4.13,8.8-7.2,2.93-3.07,5.87-6.5,8.8-10.3,2.93-3.8,5.9-7.83,8.9-12.1,3-4.27,5.97-8.53,8.9-12.8,4.93-7.2,9.57-14.07,13.9-20.6,4.33-6.53,7.77-11.87,10.3-16h-3.2c-4.93,0-10.3-.2-16.1-.6-5.8-.4-11.03-.6-15.7-.6-4.27,0-7.33.33-9.2,1-1.87.67-3.53,1.73-5,3.2-.4,0-.97-.17-1.7-.5-.73-.33-1.1-.83-1.1-1.5,0-.4.07-.67.2-.8,1.6-1.07,3.73-2.87,6.4-5.4,2.67-2.53,5.33-5.07,8-7.6,2.67-2.53,5-4.77,7-6.7,2-1.93,3.2-2.9,3.6-2.9.93,0,1.6.17,2,.5.4.33.73.7,1,1.1.27.4.6.83,1,1.3.4.47,1.07.9,2,1.3,1.6.67,3.8,1.33,6.6,2,2.8.67,5.93,1.23,9.4,1.7,3.47.47,7.2.87,11.2,1.2,4,.33,8,.5,12,.5,2.53,0,5.13-.17,7.8-.5,2.67-.33,5-.77,7-1.3.13,0,.33.27.6.8.27.54.4,1,.4,1.4,0,.27-.07.5-.2.7-.13.2-.2.37-.2.5-3.73,2.8-7.9,7.47-12.5,14-4.6,6.53-10.83,14.73-18.7,24.6-.67.67-1.17,1.33-1.5,2-.33.67-.77,1.33-1.3,2-5.87,7.47-11,13.83-15.4,19.1-4.4,5.27-8.33,9.77-11.8,13.5,2,.27,4.37.73,7.1,1.4,2.73.67,5.8,1.33,9.2,2,3.4.67,7.13,1.27,11.2,1.8,4.07.54,8.43.8,13.1.8,4.93,0,8.97-.43,12.1-1.3,3.13-.87,6.03-2.57,8.7-5.1.93-.93,1.37-1.33,1.3-1.2-.07.13.17.2.7.2.67,0,.97.37.9,1.1-.07.73-.1,1.23-.1,1.5,0,1.6-.93,3.54-2.8,5.8-1.87,2.27-4.47,4.43-7.8,6.5-3.33,2.07-7.3,3.83-11.9,5.3-4.6,1.47-9.7,2.2-15.3,2.2-3.47,0-7.23-.2-11.3-.6-4.07-.4-8.23-.87-12.5-1.4-4.27-.54-8.53-1-12.8-1.4-4.27-.4-8.27-.6-12-.6-2.27,0-4.17.23-5.7.7-1.53.47-3.3.97-5.3,1.5-.67,0-1-.4-1-1.2,0-.13.13-.73.4-1.8l1.6-1.2Z" style="fill:#f2e863;"/><path d="M847.56,802.54c-.8-4.13-1.73-7.83-2.8-11.1-1.07-3.27-2.4-6-4-8.2-1.6-2.2-3.53-3.87-5.8-5-2.27-1.13-5.07-1.7-8.4-1.7-2.93,0-5.63.53-8.1,1.6-2.47,1.07-4.6,2.33-6.4,3.8-1.8,1.47-3.2,2.93-4.2,4.4-1,1.47-1.57,2.6-1.7,3.4-.13,1.07-.73,1.6-1.8,1.6-1.87,0-3.6-.67-5.2-2-1.6-1.33-2.4-2.93-2.4-4.8,0-1.07.13-1.87.4-2.4,3.07-1.73,6.8-3.6,11.2-5.6,4.4-2,8.97-3.87,13.7-5.6,4.73-1.73,9.43-3.17,14.1-4.3,4.67-1.13,8.87-1.7,12.6-1.7,5.6,0,9.9.8,12.9,2.4,3,1.6,5.23,3.87,6.7,6.8,1.47,2.93,2.37,6.37,2.7,10.3.33,3.93.63,8.17.9,12.7.4,6.8.93,13.37,1.6,19.7.67,6.33,1.67,11.93,3,16.8,1.33,4.87,3.03,8.8,5.1,11.8,2.07,3,4.63,4.5,7.7,4.5,1.47,0,3.07-.27,4.8-.8,1.73-.53,3.4-1.17,5-1.9,1.6-.73,3.03-1.47,4.3-2.2,1.27-.73,2.1-1.23,2.5-1.5,1.2,0,1.93.6,2.2,1.8,0,.67-.13,1.27-.4,1.8-.27.27-1.27.93-3,2-1.73,1.07-3.87,2.33-6.4,3.8-2.53,1.47-5.33,3.03-8.4,4.7-3.07,1.67-6.1,3.23-9.1,4.7-3,1.47-5.77,2.67-8.3,3.6-2.53.93-4.53,1.4-6,1.4-1.73,0-3.23-.7-4.5-2.1-1.27-1.4-2.37-3.27-3.3-5.6-.93-2.33-1.73-5.03-2.4-8.1-.67-3.07-1.27-6.27-1.8-9.6-2.4,2-5.47,4.37-9.2,7.1-3.73,2.73-7.8,5.3-12.2,7.7-4.4,2.4-8.9,4.43-13.5,6.1-4.6,1.67-9.03,2.5-13.3,2.5-3.6,0-6.73-.57-9.4-1.7-2.67-1.13-4.9-2.63-6.7-4.5-1.8-1.87-3.13-4.03-4-6.5-.87-2.47-1.3-5.03-1.3-7.7,0-4.27,1.3-7.77,3.9-10.5,2.6-2.73,6.63-5.57,12.1-8.5,2.53-1.33,6.07-3.1,10.6-5.3,4.53-2.2,9.17-4.43,13.9-6.7,4.73-2.27,9.13-4.43,13.2-6.5,4.07-2.07,7.03-3.7,8.9-4.9ZM853.36,833.54c-.4-2.27-.8-4.73-1.2-7.4-.4-2.67-.8-5.2-1.2-7.6-.4-2.4-.77-4.47-1.1-6.2-.33-1.73-.57-2.87-.7-3.4-2.13.8-4.53,1.73-7.2,2.8-2.67,1.07-5.33,2.23-8,3.5-2.67,1.27-5.2,2.53-7.6,3.8-2.4,1.27-4.4,2.43-6,3.5-3.07,2-5.4,4-7,6-1.6,2-2.4,4.4-2.4,7.2,0,3.87,1.13,7.27,3.4,10.2,2.27,2.93,5.8,4.4,10.6,4.4,2.53,0,5.17-.46,7.9-1.4,2.73-.93,5.27-2,7.6-3.2,2.33-1.2,4.37-2.4,6.1-3.6,1.73-1.2,2.93-2.13,3.6-2.8,1.07-1.07,1.9-1.96,2.5-2.7.6-.73.83-1.77.7-3.1Z" style="fill:#f2e863;"/><path d="M973.76,848.74c-1.2,1.2-3.13,2.8-5.8,4.8-2.67,2-5.8,3.97-9.4,5.9-3.6,1.93-7.5,3.6-11.7,5-4.2,1.4-8.43,2.1-12.7,2.1s-8.8-1-13.2-3c-4.4-2-8.37-4.9-11.9-8.7-3.53-3.8-6.37-8.37-8.5-13.7-2.13-5.33-3.2-11.33-3.2-18,0-8.67,1.5-16.53,4.5-23.6,3-7.07,7.4-13.07,13.2-18,5.8-4.93,12.87-8.73,21.2-11.4,8.33-2.67,17.9-4,28.7-4h5.4c1.73,0,3.33.07,4.8.2v-6.5c0-3.13-.03-6.37-.1-9.7-.07-3.33-.13-6.4-.2-9.2-.07-2.8-.1-4.53-.1-5.2-.53-5.33-1.43-9.07-2.7-11.2-1.27-2.13-3.83-3.2-7.7-3.2-.53,0-.83-.6-.9-1.8-.07-1.2.37-2.13,1.3-2.8,1.07-.67,2.27-1.17,3.6-1.5,1.33-.33,3.33-.5,6-.5,5.07,0,9.3-.03,12.7-.1,3.4-.07,6.2-.2,8.4-.4,2.2-.2,3.96-.47,5.3-.8,1.33-.33,2.47-.7,3.4-1.1.67-.13,1.23.04,1.7.5.47.47.8,1.07,1,1.8.2.73.23,1.43.1,2.1-.13.67-.54,1.07-1.2,1.2-1.47.27-2.57.57-3.3.9-.73.33-1.43.97-2.1,1.9-.67.93-1.27,3.4-1.8,7.4-.53,4-1.07,8.93-1.6,14.8-.54,5.87-1,12.37-1.4,19.5-.4,7.13-.73,14.3-1,21.5-.27,7.2-.5,14.2-.7,21s-.3,12.73-.3,17.8c0,9.73,1.07,16.9,3.2,21.5,2.13,4.6,5.4,6.9,9.8,6.9,1.6,0,3.37-.27,5.3-.8,1.93-.53,3.73-1.17,5.4-1.9,1.67-.73,3.2-1.47,4.6-2.2,1.4-.73,2.43-1.37,3.1-1.9.67-.53,1.27-.2,1.8,1,.53,1.2.47,2-.2,2.4-1.6.93-4.1,2.3-7.5,4.1-3.4,1.8-7.17,3.7-11.3,5.7-5.07,2.53-10.2,4.8-15.4,6.8s-9.4,3-12.6,3c-2.4,0-4.03-.4-4.9-1.2-.87-.8-1.3-2.07-1.3-3.8v-2.7c0-1.27.03-2.6.1-4,.07-1.4.1-2.73.1-4v-2.9ZM971.16,841.94c1.07-1.47,1.87-3.17,2.4-5.1.53-1.93.93-4.57,1.2-7.9.27-2.8.4-6.23.4-10.3v-10.7c0-3.07-.03-6.33-.1-9.8-.07-3.47-.17-5.87-.3-7.2-.27-2.27-1.2-4.4-2.8-6.4-1.6-2-3.67-3.73-6.2-5.2-2.53-1.46-5.5-2.63-8.9-3.5-3.4-.87-6.97-1.3-10.7-1.3s-7,.6-10.2,1.8c-3.2,1.2-5.97,3.13-8.3,5.8-2.33,2.67-4.17,6.1-5.5,10.3-1.33,4.2-2,9.37-2,15.5s.87,11.97,2.6,17.1c1.73,5.13,4.13,9.57,7.2,13.3,3.07,3.73,6.73,6.63,11,8.7,4.27,2.07,8.93,3.1,14,3.1,2,0,3.87-.3,5.6-.9,1.73-.6,3.3-1.33,4.7-2.2,1.4-.87,2.63-1.77,3.7-2.7,1.07-.93,1.8-1.73,2.2-2.4Z" style="fill:#f2e863;"/><path d="M1108.76,841.34c-1.47,1.6-3.73,3.8-6.8,6.6-3.07,2.8-6.77,5.6-11.1,8.4-4.33,2.8-9.17,5.2-14.5,7.2-5.33,2-11,3-17,3-5.47,0-10.8-.83-16-2.5-5.2-1.67-9.87-4.2-14-7.6-4.13-3.4-7.43-7.73-9.9-13-2.47-5.27-3.7-11.57-3.7-18.9,0-6,.4-11.17,1.2-15.5.8-4.33,1.87-8.13,3.2-11.4,1.33-3.27,2.83-6.07,4.5-8.4,1.67-2.33,3.37-4.43,5.1-6.3,2.13-2.4,4.73-4.67,7.8-6.8,3.07-2.13,6.37-4.07,9.9-5.8,3.53-1.73,7.27-3.1,11.2-4.1,3.93-1,7.9-1.5,11.9-1.5,7.2,0,12.83,1.2,16.9,3.6,4.07,2.4,6.1,5.73,6.1,10,0,2.67-.8,5.13-2.4,7.4,1.33-.4,3.03-1.07,5.1-2,2.07-.93,4.17-1.9,6.3-2.9,2.13-1,4.03-1.9,5.7-2.7,1.67-.8,2.77-1.4,3.3-1.8.27-.27.57-.37.9-.3.33.07.5.3.5.7,0,1.73-.33,3.17-1,4.3-.67,1.13-1.47,2.03-2.4,2.7-2.13,1.33-5.2,3-9.2,5s-8.43,4.1-13.3,6.3c-4.87,2.2-9.9,4.4-15.1,6.6-5.2,2.2-10.1,4.3-14.7,6.3-4.6,2-8.6,3.77-12,5.3-3.4,1.53-5.7,2.63-6.9,3.3,0,4.53.9,8.77,2.7,12.7,1.8,3.93,4.3,7.37,7.5,10.3,3.2,2.93,7.03,5.23,11.5,6.9,4.47,1.67,9.37,2.5,14.7,2.5,4.8,0,9.13-.5,13-1.5,3.87-1,7.13-2.13,9.8-3.4,2.67-1.27,4.77-2.4,6.3-3.4,1.53-1,2.37-1.5,2.5-1.5.53,0,1.07.23,1.6.7.53.47.8.97.8,1.5ZM1038.36,810.74c2.27-.8,4.83-1.77,7.7-2.9,2.87-1.13,5.67-2.37,8.4-3.7,2.73-1.33,5.23-2.6,7.5-3.8,2.27-1.2,4-2.27,5.2-3.2,2.4-1.73,3.6-4.67,3.6-8.8,0-1.6-.3-3.27-.9-5-.6-1.73-1.5-3.3-2.7-4.7-1.2-1.4-2.67-2.53-4.4-3.4-1.73-.87-3.67-1.3-5.8-1.3-1.87,0-3.87.63-6,1.9-2.13,1.27-4.13,3.33-6,6.2-1.87,2.87-3.43,6.67-4.7,11.4-1.27,4.73-1.9,10.5-1.9,17.3Z" style="fill:#f2e863;"/></g><path d="M574.28,719.01v6.54c-4.3,3.91-7.75,6.51-10.35,7.81-2.6,1.3-6.35,1.82-11.23,1.56-8.46,10.03-15.92,15.04-22.36,15.04-3.65,0-6.97-1.2-9.96-3.61-3-2.41-5.39-5.7-7.18-9.86-1.79-4.17-2.69-8.82-2.69-13.96,0-4.17,1.38-8.79,4.15-13.87,2.77-5.08,6.35-9.81,10.74-14.21s9.1-7.94,14.11-10.64c5.01-2.7,9.67-4.05,13.96-4.05,3.06,0,5.47.47,7.23,1.42,1.76.94,2.64,2.26,2.64,3.96,0,1.3-.75,2.8-2.25,4.49,2.47.52,4.17,1.38,5.08,2.59.91,1.21,1.37,3.4,1.37,6.59s-.73,7.06-2.2,11.82c-1.46,4.75-3.47,9.21-6.01,13.38l1.76,1.76h1.46c1.11,0,2.2-.28,3.27-.83,1.07-.55,2.03-1.14,2.88-1.76.85-.62,2.7-2,5.57-4.15ZM554.16,693.32c-5.4,3.26-10.03,6.2-13.87,8.84-3.84,2.64-7.1,5.31-9.77,8.01-2.67,2.7-4.46,5.42-5.37,8.15-1.63,7.29-2.44,11.23-2.44,11.82,0,4.3,2.99,6.45,8.98,6.45,2.8,0,7.49-2.41,14.06-7.23-1.11-3.06-1.66-5.99-1.66-8.79,0-4.1.85-8.28,2.54-12.55,1.69-4.26,4.2-9.16,7.52-14.7Z" style="fill:#fff;"/><path d="M620.08,712.56c-9.44,12.5-16.62,21.39-21.53,26.66-4.92,5.27-8.94,7.91-12.06,7.91-2.47,0-4.75-1.03-6.84-3.08-2.08-2.05-3.7-4.82-4.83-8.3-1.14-3.48-1.71-7.21-1.71-11.18,0-2.6.24-4.95.73-7.03.49-2.08,1.42-4.38,2.78-6.88,1.37-2.51,3.17-5.22,5.42-8.15s5-6.25,8.25-9.96c1.95-2.28,3.6-4.2,4.93-5.76,1.33-1.56,2.64-2.62,3.91-3.17,1.27-.55,3.34-.83,6.2-.83,2.08,0,4.07.28,5.96.83,1.89.55,2.83,1.12,2.83,1.71,0,1.17-.96,3.29-2.88,6.35-1.92,3.06-5.01,6.79-9.28,11.18-4.26,4.39-9.2,8.71-14.79,12.94-1.24,3.84-1.86,6.77-1.86,8.79,0,2.8,1.07,4.2,3.22,4.2.78,0,2.08-.67,3.91-2,1.82-1.33,4.9-3.91,9.23-7.71,4.33-3.81,8.22-7.18,11.67-10.11,2.54-2.21,5.48-5.52,8.84-9.91,3.35-4.39,6.07-7.7,8.15-9.91,4.82-5.08,8.11-8.38,9.86-9.91,1.76-1.53,3.45-2.29,5.08-2.29s2.62.49,3.17,1.46c.55.98.83,2.96.83,5.96,0,1.37-.13,2.47-.39,3.32-.26.85-.8,1.94-1.61,3.27-.81,1.33-2.46,3.79-4.93,7.37-2.47,3.58-5.4,7.81-8.79,12.7-1.82,2.6-3.42,5.45-4.79,8.54-1.37,3.09-2.05,5.42-2.05,6.98,0,3.39,1.33,5.08,4,5.08,2.21,0,4.79-.91,7.71-2.73,2.93-1.82,7.42-5.11,13.48-9.86v6.54c-7.62,7.03-13.25,12.14-16.89,15.33-3.65,3.19-6.8,5.6-9.47,7.23-2.67,1.63-5.21,2.44-7.62,2.44-5.47,0-8.2-3.25-8.2-9.77,0-2.47.81-5.81,2.44-10.01,1.63-4.2,4.26-10.27,7.91-18.21Z" style="fill:#fff;"/></svg>