<?xml version="1.0" encoding="UTF-8"?><svg id="a" xmlns="http://www.w3.org/2000/svg" xmlns:xlink="http://www.w3.org/1999/xlink" viewBox="0 0 1536 1024"><defs><filter id="b" filterUnits="userSpaceOnUse"><feOffset dx="10.17" dy="10.17"/><feGaussianBlur result="c" stdDeviation="0"/><feFlood flood-color="#000" flood-opacity="1"/><feComposite in2="c" operator="in"/><feComposite in="SourceGraphic"/></filter></defs><g style="filter:url(#b);"><path d="m124.78,767.99h39.15v22.37h-27.97c-3.73,0-5.59.86-5.59,2.57,0,2.01,1.86,3.02,5.59,3.02h11.19c14.92,0,22.37,8.32,22.37,24.95s-7.46,25.39-22.37,25.39h-39.15v-22.37h27.97c3.73,0,5.59-1.01,5.59-3.02,0-1.71-1.87-2.57-5.59-2.57h-11.19c-14.92,0-22.37-8.46-22.37-25.39s7.46-24.95,22.37-24.95Z" style="fill:#fff; stroke-width:0px;"/><path d="m234.07,767.99l25.11,78.3h-27.97l-11.19-33.56-11.19,33.56h-27.97l24.67-78.3h28.53Z" style="fill:#fff; stroke-width:0px;"/><path d="m303.93,846.3h-27.97v-78.3h27.97l16.78,22.37,16.78-22.37h27.97v78.3h-27.97v-39.15l-16.78,22.37-16.78-22.37v39.15Z" style="fill:#fff; stroke-width:0px;"/><path d="m438.16,767.99v22.37h-27.97v5.59h27.97v22.37h-27.97v5.59h27.97v22.37h-55.93v-78.3h55.93Z" style="fill:#fff; stroke-width:0px;"/><path d="m483.36,846.3v-78.3h44.75c14.92,0,22.37,7.46,22.37,22.37,0,9.32-3.73,14.92-11.19,16.78,7.46,1.86,11.19,7.46,11.19,16.78,0,14.92-7.46,22.37-22.37,22.37h-44.75Zm27.97-55.93v8.39h5.59c3.73,0,5.59-1.38,5.59-4.14s-1.87-4.25-5.59-4.25h-5.59Zm0,25.17v8.39h5.59c3.73,0,5.59-1.42,5.59-4.25s-1.87-4.14-5.59-4.14h-5.59Z" style="fill:#fff; stroke-width:0px;"/><path d="m600.81,818.33c3.73-.07,5.59-3.8,5.59-11.19v-39.15h27.85v39.15c0,24.98-10.25,38.02-30.76,39.1v.06h-4.87v-.06c-20.92-.82-31.38-13.85-31.38-39.1v-39.15h27.97v39.15c0,7.38,1.86,11.11,5.59,11.19Z" style="fill:#fff; stroke-width:0px;"/><path d="m695.79,790.37v55.93h-27.97v-55.93h-16.78v-22.37h61.53v22.37h-16.78Z" style="fill:#fff; stroke-width:0px;"/><path d="m788.52,767.99c10.81,0,20.04,3.82,27.69,11.47,7.64,7.64,11.47,16.87,11.47,27.69s-3.82,20.04-11.47,27.69c-7.64,7.64-16.87,11.47-27.69,11.47h-30.76v-78.3h30.76Zm0,50.34c3.09,0,5.73-1.09,7.91-3.27,2.18-2.18,3.27-4.82,3.27-7.91s-1.09-5.73-3.27-7.91c-2.18-2.18-4.82-3.27-7.91-3.27h-2.8v22.37h2.8Z" style="fill:#fff; stroke-width:0px;"/><path d="m872.42,767.99v78.3h-27.97v-78.3h27.97Z" style="fill:#fff; stroke-width:0px;"/><path d="m945.13,767.99v22.37h-27.97v5.59h27.97v22.37h-27.97v27.97h-27.97v-78.3h55.93Z" style="fill:#fff; stroke-width:0px;"/><path d="m1017.84,767.99v22.37h-27.97v5.59h27.97v22.37h-27.97v27.97h-27.97v-78.3h55.93Z" style="fill:#fff; stroke-width:0px;"/><path d="m1047.9,877.9c-3.2-4-5.33-8.59-6.39-13.78-3.73-14.38-6.33-28.83-7.79-43.35-2-13.32-3-27.97-3-43.95,0-13.58,1.13-27.17,3.4-40.75,2.66-10.12,7.79-15.18,15.38-15.18,2.13.13,3.93.53,5.39,1.2,1.46.67,2.86,1,4.2,1,3.2-.4,6.66-.6,10.39-.6,4,0,10.79.4,20.38,1.2,3.6.93,5.39,3,5.39,6.19,0,3.6-1.93,5.39-5.79,5.39h-.6c-6.93-.93-13.98-1.4-21.18-1.4-.93,0-1.67.13-2.2.4-.53.27-.8,1-.8,2.2,0,4.13-.4,7.79-1.2,10.99-1.33,7.06-2,17.11-2,30.17,0,17.18.8,25.77,2.4,25.77,2.13-.27,4.13-.66,5.99-1.2,2.4-.67,5.39-1.2,8.99-1.6,3.33,0,5.12,1.87,5.39,5.59,0,2.67-1.53,4.5-4.59,5.49-3.07,1-6.46,1.77-10.19,2.3-1.2.13-2.3.33-3.3.6-1,.27-1.6.47-1.8.6-.2.13-.3.73-.3,1.8l1.4,9.19c1.86,14.65,4,24.71,6.39,30.17,1.73,3.07,2.6,6.33,2.6,9.79l-.2,3.2c0,.93.33,1.4,1,1.4l5.99-.8c4.93-.93,10.45-1.6,16.58-2,2.26,0,4.1.33,5.49,1,1.4.67,2.16,2.13,2.3,4.4,0,2.67-1.33,4.46-4,5.39l-6.79.8c-8.39.67-16.71,2-24.97,4-2.53.66-4.99,1-7.39,1-5.33,0-10.19-2.2-14.58-6.59Zm3.6-41.15v-1.4l-.4-1.6c-2.93-19.98-4.4-40.02-4.4-60.13v-8.39c0-6.92.4-14.18,1.2-21.78,0-2.4-.87-3.73-2.6-4-1.87,0-2.8,1.53-2.8,4.59-.67,8.26-1,18.38-1,30.37,0,9.59.23,19.11.7,28.57.47,9.46,1.83,20.78,4.1,33.96.13,2,1.13,3,3,3,1.46-.27,2.2-1.33,2.2-3.2Zm2.4,14.28c.67-.73,1-1.63,1-2.7,0-1.2-.4-2.23-1.2-3.1-.8-.86-1.67-1.3-2.6-1.3-1.07,0-1.97.4-2.7,1.2-.73.8-1.1,1.73-1.1,2.8.13,1.2.57,2.2,1.3,3,.73.8,1.63,1.27,2.7,1.4,1.06-.13,1.93-.56,2.6-1.3Zm2.7,10.09c.6-.66.9-1.53.9-2.6-.13-2.13-1.2-3.33-3.2-3.6-2,0-3.13,1.27-3.4,3.8,0,2.13,1.2,3.27,3.6,3.4.8,0,1.5-.33,2.1-1Z" style="fill:#f45b69; stroke-width:0px;"/><path d="m1138.39,816.93v29.36h-27.97v-78.3h44.75c14.92,0,22.37,9.32,22.37,27.97,0,10.66-3.8,17.51-11.41,20.53l17,29.81h-27.97l-16.78-29.36Zm0-26.57v11.19h5.59c3.73,0,5.59-1.86,5.59-5.59s-1.87-5.59-5.59-5.59h-5.59Z" style="fill:#fff; stroke-width:0px;"/><path d="m1211.4,874.22c-3.19-3.98-5.31-8.57-6.38-13.75-3.72-14.34-6.31-28.75-7.77-43.23-1.99-13.28-2.99-27.89-2.99-43.83,0-13.55,1.13-27.09,3.39-40.64,2.65-10.09,7.77-15.14,15.34-15.14,2.12.13,3.92.53,5.38,1.2,1.46.67,2.85,1,4.18,1,3.19-.4,6.64-.6,10.36-.6,3.98,0,10.76.4,20.32,1.2,3.59.93,5.38,2.99,5.38,6.18,0,3.59-1.93,5.38-5.78,5.38h-.6c-6.91-.93-13.95-1.39-21.12-1.39-.93,0-1.66.13-2.19.4-.53.27-.8,1-.8,2.19,0,4.12-.4,7.77-1.2,10.96-1.33,7.04-1.99,17.07-1.99,30.08,0,17.13.8,25.7,2.39,25.7,2.12-.26,4.11-.66,5.98-1.2,2.39-.66,5.38-1.19,8.96-1.59,3.32,0,5.11,1.86,5.38,5.58,0,2.66-1.53,4.48-4.58,5.48-3.06,1-6.44,1.76-10.16,2.29-1.2.13-2.29.33-3.29.6-1,.27-1.59.47-1.79.6-.2.13-.3.73-.3,1.79l1.39,9.16c1.86,14.61,3.98,24.64,6.37,30.08,1.72,3.06,2.59,6.31,2.59,9.76l-.2,3.19c0,.93.33,1.39,1,1.39l5.98-.8c4.91-.93,10.42-1.59,16.53-1.99,2.26,0,4.08.33,5.48,1,1.39.67,2.16,2.13,2.29,4.38,0,2.66-1.33,4.45-3.98,5.38l-6.77.8c-8.37.67-16.67,1.99-24.9,3.98-2.52.66-4.98,1-7.37,1-5.31,0-10.16-2.19-14.54-6.57Zm3.59-41.04v-1.39l-.4-1.59c-2.92-19.92-4.38-39.91-4.38-59.96v-8.37c0-6.9.4-14.14,1.2-21.71,0-2.39-.87-3.72-2.59-3.98-1.86,0-2.79,1.53-2.79,4.58-.67,8.24-1,18.33-1,30.28,0,9.56.23,19.06.7,28.49.46,9.43,1.82,20.72,4.08,33.87.13,1.99,1.13,2.99,2.99,2.99,1.46-.26,2.19-1.33,2.19-3.19Zm2.39,14.24c.66-.73,1-1.62,1-2.69,0-1.2-.4-2.22-1.2-3.09-.8-.86-1.66-1.29-2.59-1.29-1.06,0-1.96.4-2.69,1.19-.73.8-1.1,1.73-1.1,2.79.13,1.2.56,2.19,1.29,2.99.73.8,1.62,1.26,2.69,1.39,1.06-.13,1.92-.56,2.59-1.29Zm2.69,10.06c.6-.66.9-1.52.9-2.59-.13-2.12-1.2-3.32-3.19-3.59-1.99,0-3.12,1.26-3.39,3.79,0,2.13,1.2,3.26,3.59,3.39.8,0,1.49-.33,2.09-1Z" style="fill:#f2e863; stroke-width:0px;"/><path d="m1324.13,846.3l-22.37-36.36v36.36h-27.97v-78.3h27.97l22.37,36.36v-36.36h27.97v78.3h-27.97Z" style="fill:#fff; stroke-width:0px;"/><path d="m1413.62,790.37v55.93h-27.97v-55.93h-16.78v-22.37h61.53v22.37h-16.78Z" style="fill:#fff; stroke-width:0px;"/></g></svg>