<?xml version="1.0" encoding="UTF-8"?><svg id="a" xmlns="http://www.w3.org/2000/svg" viewBox="0 0 1536 1024"><path d="m1048.94,901.52c-84.3-63.1-170.59-128.38-258.84-195.82,72.95-55.56,150.83-113.86,233.73-174.98-25.97-3.6-42.3-13.19-49-28.76-73.11,56.52-148.25,114.06-225.4,172.62-78.32-60.03-158.17-121.75-239.56-185.16l45.86,104.84c48.37,34.87,99.14,72.17,152.19,111.78-88.76,67.16-180.12,135.63-274.13,205.44l113.28-16.21c62.16-49.86,129.58-102.65,202.13-158.3,88.78,66.81,183.8,139.96,285.09,219.46-3.46-25.98,1.42-44.28,14.64-54.9Z" style="stroke:#000; stroke-miterlimit:10; stroke-width:24.75px;"/><path d="m1048.94,901.52c-84.3-63.1-170.59-128.38-258.84-195.82,72.95-55.56,150.83-113.86,233.73-174.98-25.97-3.6-42.3-13.19-49-28.76-73.11,56.52-148.25,114.06-225.4,172.62-78.32-60.03-158.17-121.75-239.56-185.16l45.86,104.84c48.37,34.87,99.14,72.17,152.19,111.78-88.76,67.16-180.12,135.63-274.13,205.44l113.28-16.21c62.16-49.86,129.58-102.65,202.13-158.3,88.78,66.81,183.8,139.96,285.09,219.46-3.46-25.98,1.42-44.28,14.64-54.9Z" style="fill:#f45b69; stroke-width:0px;"/><path d="m615.57,547.29c4.55.53,8.95,1.63,13.2,3.29-3.49,6.18-7.16,16.19-11.01,30.04-4.55-1.46-11.39-2.19-20.52-2.19-10.59.2-18.75,2.23-24.46,6.08-4.22,3.52-7.69,7.32-10.41,11.41-1.16,2.26-1.74,4.25-1.74,5.98.43,1.96,1.64,2.81,3.64,2.54,3.09.13,7.6-1.21,13.55-4.04,6.48-2.19,10.99-3.29,13.55-3.29,2.06-.46,4.91-.58,8.57-.35,5.08.13,9.53,1.01,13.35,2.64,3.62,1.39,6.71,3.93,9.27,7.62,2.02,2.59,3.6,6.13,4.73,10.61.93,7.41-.9,17.67-5.48,30.78-2.59,6.61-5.4,12.35-8.42,17.24-1.2,3.65-5.96,10.61-14.3,20.87-5.78,6.84-13.35,13.2-22.71,19.08-8.8,4.65-14.91,7.46-18.33,8.42-4.98,1.73-10.84,3.32-17.58,4.78-6.24,1.4-11.87,2.12-16.89,2.19-8.17-.07-13.75-1.08-16.74-3.04l-1.1-35.37c4.32,1.16,12.07,1.06,23.26-.3,8.33-.73,16.02-2.77,23.06-6.13,9.07-3.35,17.87-8.45,26.4-15.29,9.07-7.14,13.81-16.04,14.25-26.7-.57-6.78-4.8-8.73-12.7-5.88-7.34,2.92-12.34,4.63-14.99,5.13-5.55.5-9.89.32-13.03-.52-3.14-.85-6.73-3-10.79-6.45-1.06-.8-2.17-2.27-3.34-4.43-1.96-2.76-3.3-6.41-4.04-10.96-1.13-7.84.46-17,4.78-27.5,3.42-6.34,6.36-10.99,8.82-13.95,3.82-5.84,10.66-11.34,20.52-16.49,12.02-5.41,27.89-7.35,47.62-5.83Z" style="stroke:#000; stroke-miterlimit:10; stroke-width:19.25px;"/><path d="m725.06,559.4c3.49,6.11,6.29,15.26,8.42,27.45,1.69,14.28,2.31,23.56,1.84,27.84-.2,8.63-1.18,16.34-2.94,23.11-2.46,10.73-5.51,19.15-9.17,25.25-3.72,6.51-7.62,11.08-11.71,13.7-4.18,2.92-8.47,4.71-12.85,5.38-8.24,1.03-16.54-.56-24.91-4.78-4.98-2.36-10.11-6.38-15.39-12.05-3.25-3.49-5.83-6.81-7.72-9.96-8.54-15.18-12.92-28.59-13.15-40.25-1.16-11.59.91-23.38,6.23-35.37,9.2-.37,20.56-3.24,34.07-8.62-5.61,18.8-6.21,36.41-1.79,52.85,1.99,6.11,5.4,9.41,10.21,9.91,3.69-.5,6.38-2.69,8.07-6.58,1.73-4.42,2.59-11.27,2.59-20.57-1.46-19.66-4.15-35.18-8.07-46.58,13.91.8,26,.55,36.26-.75Z" style="stroke:#000; stroke-miterlimit:10; stroke-width:19.25px;"/><path d="m839.63,574.14c10.49,15.81,7.02,30.97-10.41,45.48-8.83,8-17.7,12.79-26.6,14.35-9.03,1.93-15.08,3.02-18.13,3.29,1,10.76,2.96,24.06,5.88,39.9l.25,2.89c-19.59,4.71-31.4,7.39-35.42,8.02-2.42-43.27-4.12-78.62-5.08-106.05-1-15.38-1.43-24.19-1.29-26.45,13.05-5.48,30.88-6.69,53.5-3.64,14.35,3.02,26.78,10.43,37.31,22.22Zm-57.63,39.2c16.11-1.86,24.44-5.93,25.01-12.2-.33-4.52-2.46-7.69-6.38-9.51-7.24-2.59-14.25-2.66-21.02-.2-.27,7.67.53,14.98,2.39,21.92Z" style="stroke:#000; stroke-miterlimit:10; stroke-width:19.25px;"/><path d="m946.78,562.24c-.83,6.77-1.38,13.02-1.64,18.73l-.35,4.78c-.23,2.42-.37,5.13-.4,8.12l-.1,3.84c-.93.7-4.1.73-9.51.1-1.76.17-6.01.18-12.75.05-2.59.46-6.97.83-13.15,1.1-4.78.37-9.2,1.11-13.25,2.24-.13,4.52-.07,8.24.2,11.16,14.38-1.13,22.33-1.46,23.86-1-1.56,8.63-2.06,17.25-1.49,25.85l-21.37,2.44-.1,1.1c-.13,5.61-.1,10.05.1,13.3l.6.2c6.38-.4,12.63-1.1,18.78-2.09,5.94-1.06,12.17-1.61,18.68-1.64,2.22-.13,3.95.02,5.18.45-1,10.49-1.69,18.56-2.09,24.21l-.6,9.86c-23.64.43-45.25,2.91-64.81,7.42-2.16-25.67-4.65-52.83-7.47-81.49-.2-2.06-.56-7.06-1.1-14.99-2.09-16.57-3.02-26.27-2.79-29.09,2.62-.5,11.44-.6,26.45-.3,17.47-.23,37.18-1.68,59.13-4.33Z" style="stroke:#000; stroke-miterlimit:10; stroke-width:19.25px;"/><path d="m990.41,572.7c7.54-2.16,14.78-2.56,21.72-1.2,7.17,1.4,12.19,4.08,15.04,8.07,4.78,8.44,3.17,19.58-4.83,33.42-4.55,6.04-8.93,11.47-13.15,16.29l4.98,5.03c8.87,8.77,19.89,17.67,33.08,26.7l-19.18,22.96-33.72-35.32c2.46,12.09,4.07,19.76,4.83,23.01.76,3.25,1.25,6.86,1.44,10.81-10.23-4.12-20.92-7.41-32.08-9.86-.2-5.41-.83-13.57-1.89-24.46-.76-7.54-2.06-18.91-3.89-34.12-.37-2.92-1.21-9.41-2.54-19.48,6.77-8.93,16.84-16.22,30.19-21.87Zm-5.13,34.37c.6,3.69,1.08,6.38,1.44,8.07l1.84,7.02,3.19-2.64c7.21-7.01,10.38-12.37,9.51-16.09-.7-3.09-2.66-4.1-5.88-3.04-2.22.53-5.6,2.76-10.11,6.67Z" style="stroke:#000; stroke-miterlimit:10; stroke-width:19.25px;"/><path d="m299.04,666.68l-7.72,57.58c-8.3,0-16.99,2.69-26.05,8.07-11.29,9.46-17.63,16.55-19.03,21.27-5.15,14.08-3.69,23.86,4.38,29.34,1.63.4,3.7.76,6.23,1.1,7.54,0,16.22-4.04,26.05-12.1,3.42-3.42,5.13-5.5,5.13-6.23l13.55,36.66c-9.13,6.54-17.43,11.08-24.91,13.6-10.56,4.55-21.07,6.74-31.53,6.58-12.29-.8-23.18-4.83-32.68-12.1-2.96-2.52-5.51-5.46-7.67-8.82-3.06-5.68-4.96-10.98-5.73-15.89-2.06-14.45.7-30.04,8.27-46.77,3.52-7.7,8.78-15.77,15.79-24.21,9.1-10.83,19.61-20.49,31.53-28.99,9.93-6.74,18.73-11.39,26.4-13.95,9.37-3.39,15.36-5.1,17.98-5.13Z" style="stroke:#000; stroke-miterlimit:10; stroke-width:19.25px;"/><path d="m365.19,660.1c1.4,11.03,2.66,19.31,3.79,24.86,1.69,8.27,4.25,18.3,7.67,30.09l6.23,22.71,8.07,27.1c.73,2.89,2.76,8.85,6.08,17.88-10.59,3.75-21.29,9.03-32.08,15.84-2.99-10.06-5.2-18.86-6.62-26.4-5.28,2.23-9.66,3.57-13.15,4.04-1.2,6.77-2.06,16.3-2.59,28.59-13.05-4.28-24.38-7.36-33.97-9.21,2.12-11.59,4.9-29.66,8.32-54.2,3.15-28,5.11-45.21,5.88-51.66.96-7.47,1.97-14.68,3.04-21.62,13.65-2.26,26.77-4.93,39.35-8.02Zm-16.04,66.05c-1.53,8.4-2.42,17.27-2.69,26.6,3.62-.1,6.18-.65,7.67-1.64-1.96-9.37-3.62-17.68-4.98-24.96Z" style="stroke:#000; stroke-miterlimit:10; stroke-width:19.25px;"/><path d="m453.86,662.04l11.41,30.29c2.96,5.98,6.39,13.42,10.31,22.32,4.65-16.8,8.87-33.86,12.65-51.16,14.88-3.15,28.54-6.66,41-10.51,8.24,38.16,15.76,67.7,22.57,88.62,7.41,23.18,12.2,38.39,14.4,45.63-12.85,8.57-24.61,16.7-35.27,24.41-3.19-17.3-9.32-43.49-18.38-78.55-.23.07-.37-.02-.4-.25l.35-.1c-1.79-5.08-2.84-8.62-3.14-10.61l-.4.15c-.6,3.95-3.22,14.93-7.87,32.93-2.62,12.62-4.2,19.71-4.73,21.27-10.89,1.63-18.46,3.06-22.71,4.28l-1.84.55c-2.86-6.74-5.21-11.16-7.07-13.25-4.38-8.6-10.28-18.66-17.68-30.19l-.4.15c.03.27.18.35.45.25-.17,2.19.02,8.27.55,18.23-.73,19.59-.62,36.67.32,51.23.95,14.56,1.12,23.95.52,28.17-13.02-4.45-23.51-7.79-31.48-10.01l-7.27-2.44c.8-8.07,1.08-20.12.85-36.16.46-15.54.35-34.45-.35-56.74-1.43-17.47-2.64-34.54-3.64-51.21,17.47-4.48,33.23-10.24,47.27-17.29Z" style="stroke:#000; stroke-miterlimit:10; stroke-width:19.25px;"/><path d="m670.74,696.56c10.49,15.81,7.02,30.97-10.41,45.48-8.83,8-17.7,12.79-26.6,14.35-9.03,1.93-15.08,3.02-18.13,3.29,1,10.76,2.96,24.06,5.88,39.9l.25,2.89c-19.59,4.71-31.4,7.39-35.42,8.02-2.42-43.27-4.12-78.62-5.08-106.05-1-15.38-1.43-24.19-1.29-26.45,13.05-5.48,30.88-6.69,53.5-3.64,14.35,3.02,26.78,10.43,37.31,22.22Zm-57.63,39.2c16.11-1.86,24.44-5.93,25.01-12.2-.33-4.52-2.46-7.69-6.38-9.51-7.24-2.59-14.25-2.66-21.02-.2-.27,7.67.53,14.98,2.39,21.92Z" style="stroke:#000; stroke-miterlimit:10; stroke-width:19.25px;"/><path d="m777.89,684.66c-.83,6.77-1.38,13.02-1.64,18.73l-.35,4.78c-.23,2.42-.37,5.13-.4,8.12l-.1,3.84c-.93.7-4.1.73-9.51.1-1.76.17-6.01.18-12.75.05-2.59.46-6.97.83-13.15,1.1-4.78.37-9.2,1.11-13.25,2.24-.13,4.52-.07,8.24.2,11.16,14.38-1.13,22.33-1.46,23.86-1-1.56,8.63-2.06,17.25-1.49,25.85l-21.37,2.44-.1,1.1c-.13,5.61-.1,10.05.1,13.3l.6.2c6.38-.4,12.63-1.1,18.78-2.09,5.94-1.06,12.17-1.61,18.68-1.64,2.22-.13,3.95.02,5.18.45-1,10.49-1.69,18.56-2.09,24.21l-.6,9.86c-23.64.43-45.25,2.91-64.81,7.42-2.16-25.67-4.65-52.83-7.47-81.49-.2-2.06-.56-7.06-1.1-14.99-2.09-16.57-3.02-26.27-2.79-29.09,2.62-.5,11.44-.6,26.45-.3,17.47-.23,37.18-1.68,59.13-4.33Z" style="stroke:#000; stroke-miterlimit:10; stroke-width:19.25px;"/><path d="m823.37,809.89c-6.11-.93-11.77-3.67-16.99-8.22-6.14-6.84-9.93-14.31-11.36-22.42-.73-11.86,1.59-23.44,6.97-34.77,3.79-7.74,10.38-16.79,19.78-27.15,8.33-6.08,16.4-10.61,24.21-13.6,4.08-1.96,10.68-3.3,19.78-4.04,9.46.86,16.94,5.63,22.42,14.3,3.65,6.58,5.48,13.91,5.48,22.02-.07,8.73-2.03,17.9-5.88,27.5-3.55,7.77-6.86,13.76-9.91,17.98-.83,1.59-3.52,4.76-8.07,9.51-5.78,5.98-13.47,11.36-23.06,16.14-6.24,2.49-14.03,3.4-23.36,2.74Zm41.05-55.04c.53-7.44-3.41-11.17-11.81-11.21-8.7,2.23-15.14,5.75-19.33,10.56-7.04,8.17-10.56,15.86-10.56,23.06,1.16,6.28,3.85,9.8,8.07,10.56,10.26-1.13,19.39-7.14,27.4-18.03,3.52-5.51,5.59-10.49,6.23-14.94Z" style="stroke:#000; stroke-miterlimit:10; stroke-width:19.25px;"/><path d="m1036.71,673.15c-14.68,38.26-27.12,75.5-37.31,111.73-8.5.46-17.32,2.57-26.45,6.33-8.73-18.2-17.05-38.65-24.96-61.37l-4.28,23.41-4.68,28.54c-9.33,1.73-22.04,3.6-38.11,5.63,5.25-22.62,9.17-41.01,11.76-55.19,2.36-13.28,6.66-34.95,12.9-65.01l34.92-7.22c4.75,16.54,10.18,33.62,16.29,51.26,2.42,6.04,4.63,11.62,6.62,16.74,3.52-12.65,7.42-28.24,11.71-46.77,15.44-2.16,29.31-4.85,41.59-8.07Z" style="stroke:#000; stroke-miterlimit:10; stroke-width:19.25px;"/><path d="m1098.63,660.1c1.4,11.03,2.66,19.31,3.79,24.86,1.69,8.27,4.25,18.3,7.67,30.09l6.23,22.71,8.07,27.1c.73,2.89,2.76,8.85,6.08,17.88-10.59,3.75-21.29,9.03-32.08,15.84-2.99-10.06-5.2-18.86-6.62-26.4-5.28,2.23-9.66,3.57-13.15,4.04-1.2,6.77-2.06,16.3-2.59,28.59-13.05-4.28-24.38-7.36-33.97-9.21,2.12-11.59,4.9-29.66,8.32-54.2,3.15-28,5.11-45.21,5.88-51.66.96-7.47,1.97-14.68,3.04-21.62,13.65-2.26,26.77-4.93,39.35-8.02Zm-16.04,66.05c-1.53,8.4-2.42,17.27-2.69,26.6,3.62-.1,6.18-.65,7.67-1.64-1.96-9.37-3.62-17.68-4.98-24.96Z" style="stroke:#000; stroke-miterlimit:10; stroke-width:19.25px;"/><path d="m1240.6,664.53c-.3,13.78.56,27.78,2.59,41.99-11.76.96-22.43,2.46-32.03,4.48.3,19.23,1.53,49.86,3.69,91.9-9.96,2.52-17.78,5.2-23.46,8.02-4.82,1.86-8.35,3.29-10.61,4.28-.2-9.8-.2-19.86,0-30.19.37-7.87.18-17.9-.55-30.09l-2.29-38.9c-10.43,1.06-22.3,3.69-35.62,7.87-.56-5.41-1.31-11.54-2.24-18.38-1.79-12.35-3.47-22.02-5.03-28.99,5.08-.86,10.29-1.48,15.64-1.84,3.65-.6,15.18-1.61,34.57-3.04,25.9-3.29,44.35-5.66,55.34-7.12Z" style="stroke:#000; stroke-miterlimit:10; stroke-width:19.25px;"/><path d="m1282.89,809.89c-6.11-.93-11.77-3.67-16.99-8.22-6.14-6.84-9.93-14.31-11.36-22.42-.73-11.86,1.59-23.44,6.97-34.77,3.79-7.74,10.38-16.79,19.78-27.15,8.33-6.08,16.4-10.61,24.21-13.6,4.08-1.96,10.68-3.3,19.78-4.04,9.46.86,16.94,5.63,22.42,14.3,3.65,6.58,5.48,13.91,5.48,22.02-.07,8.73-2.03,17.9-5.88,27.5-3.55,7.77-6.86,13.76-9.91,17.98-.83,1.59-3.52,4.76-8.07,9.51-5.78,5.98-13.47,11.36-23.06,16.14-6.24,2.49-14.03,3.4-23.36,2.74Zm41.05-55.04c.53-7.44-3.41-11.17-11.81-11.21-8.7,2.23-15.14,5.75-19.33,10.56-7.04,8.17-10.56,15.86-10.56,23.06,1.16,6.28,3.85,9.8,8.07,10.56,10.26-1.13,19.39-7.14,27.4-18.03,3.52-5.51,5.59-10.49,6.23-14.94Z" style="stroke:#000; stroke-miterlimit:10; stroke-width:19.25px;"/><path d="m615.57,547.29c4.55.53,8.95,1.63,13.2,3.29-3.49,6.18-7.16,16.19-11.01,30.04-4.55-1.46-11.39-2.19-20.52-2.19-10.59.2-18.75,2.23-24.46,6.08-4.22,3.52-7.69,7.32-10.41,11.41-1.16,2.26-1.74,4.25-1.74,5.98.43,1.96,1.64,2.81,3.64,2.54,3.09.13,7.6-1.21,13.55-4.04,6.48-2.19,10.99-3.29,13.55-3.29,2.06-.46,4.91-.58,8.57-.35,5.08.13,9.53,1.01,13.35,2.64,3.62,1.39,6.71,3.93,9.27,7.62,2.02,2.59,3.6,6.13,4.73,10.61.93,7.41-.9,17.67-5.48,30.78-2.59,6.61-5.4,12.35-8.42,17.24-1.2,3.65-5.96,10.61-14.3,20.87-5.78,6.84-13.35,13.2-22.71,19.08-8.8,4.65-14.91,7.46-18.33,8.42-4.98,1.73-10.84,3.32-17.58,4.78-6.24,1.4-11.87,2.12-16.89,2.19-8.17-.07-13.75-1.08-16.74-3.04l-1.1-35.37c4.32,1.16,12.07,1.06,23.26-.3,8.33-.73,16.02-2.77,23.06-6.13,9.07-3.35,17.87-8.45,26.4-15.29,9.07-7.14,13.81-16.04,14.25-26.7-.57-6.78-4.8-8.73-12.7-5.88-7.34,2.92-12.34,4.63-14.99,5.13-5.55.5-9.89.32-13.03-.52-3.14-.85-6.73-3-10.79-6.45-1.06-.8-2.17-2.27-3.34-4.43-1.96-2.76-3.3-6.41-4.04-10.96-1.13-7.84.46-17,4.78-27.5,3.42-6.34,6.36-10.99,8.82-13.95,3.82-5.84,10.66-11.34,20.52-16.49,12.02-5.41,27.89-7.35,47.62-5.83Z" style="fill:#f2e863; stroke-width:0px;"/><path d="m725.06,559.4c3.49,6.11,6.29,15.26,8.42,27.45,1.69,14.28,2.31,23.56,1.84,27.84-.2,8.63-1.18,16.34-2.94,23.11-2.46,10.73-5.51,19.15-9.17,25.25-3.72,6.51-7.62,11.08-11.71,13.7-4.18,2.92-8.47,4.71-12.85,5.38-8.24,1.03-16.54-.56-24.91-4.78-4.98-2.36-10.11-6.38-15.39-12.05-3.25-3.49-5.83-6.81-7.72-9.96-8.54-15.18-12.92-28.59-13.15-40.25-1.16-11.59.91-23.38,6.23-35.37,9.2-.37,20.56-3.24,34.07-8.62-5.61,18.8-6.21,36.41-1.79,52.85,1.99,6.11,5.4,9.41,10.21,9.91,3.69-.5,6.38-2.69,8.07-6.58,1.73-4.42,2.59-11.27,2.59-20.57-1.46-19.66-4.15-35.18-8.07-46.58,13.91.8,26,.55,36.26-.75Z" style="fill:#f2e863; stroke-width:0px;"/><path d="m839.63,574.14c10.49,15.81,7.02,30.97-10.41,45.48-8.83,8-17.7,12.79-26.6,14.35-9.03,1.93-15.08,3.02-18.13,3.29,1,10.76,2.96,24.06,5.88,39.9l.25,2.89c-19.59,4.71-31.4,7.39-35.42,8.02-2.42-43.27-4.12-78.62-5.08-106.05-1-15.38-1.43-24.19-1.29-26.45,13.05-5.48,30.88-6.69,53.5-3.64,14.35,3.02,26.78,10.43,37.31,22.22Zm-57.63,39.2c16.11-1.86,24.44-5.93,25.01-12.2-.33-4.52-2.46-7.69-6.38-9.51-7.24-2.59-14.25-2.66-21.02-.2-.27,7.67.53,14.98,2.39,21.92Z" style="fill:#f2e863; stroke-width:0px;"/><path d="m946.78,562.24c-.83,6.77-1.38,13.02-1.64,18.73l-.35,4.78c-.23,2.42-.37,5.13-.4,8.12l-.1,3.84c-.93.7-4.1.73-9.51.1-1.76.17-6.01.18-12.75.05-2.59.46-6.97.83-13.15,1.1-4.78.37-9.2,1.11-13.25,2.24-.13,4.52-.07,8.24.2,11.16,14.38-1.13,22.33-1.46,23.86-1-1.56,8.63-2.06,17.25-1.49,25.85l-21.37,2.44-.1,1.1c-.13,5.61-.1,10.05.1,13.3l.6.2c6.38-.4,12.63-1.1,18.78-2.09,5.94-1.06,12.17-1.61,18.68-1.64,2.22-.13,3.95.02,5.18.45-1,10.49-1.69,18.56-2.09,24.21l-.6,9.86c-23.64.43-45.25,2.91-64.81,7.42-2.16-25.67-4.65-52.83-7.47-81.49-.2-2.06-.56-7.06-1.1-14.99-2.09-16.57-3.02-26.27-2.79-29.09,2.62-.5,11.44-.6,26.45-.3,17.47-.23,37.18-1.68,59.13-4.33Z" style="fill:#f2e863; stroke-width:0px;"/><path d="m990.41,572.7c7.54-2.16,14.78-2.56,21.72-1.2,7.17,1.4,12.19,4.08,15.04,8.07,4.78,8.44,3.17,19.58-4.83,33.42-4.55,6.04-8.93,11.47-13.15,16.29l4.98,5.03c8.87,8.77,19.89,17.67,33.08,26.7l-19.18,22.96-33.72-35.32c2.46,12.09,4.07,19.76,4.83,23.01.76,3.25,1.25,6.86,1.44,10.81-10.23-4.12-20.92-7.41-32.08-9.86-.2-5.41-.83-13.57-1.89-24.46-.76-7.54-2.06-18.91-3.89-34.12-.37-2.92-1.21-9.41-2.54-19.48,6.77-8.93,16.84-16.22,30.19-21.87Zm-5.13,34.37c.6,3.69,1.08,6.38,1.44,8.07l1.84,7.02,3.19-2.64c7.21-7.01,10.38-12.37,9.51-16.09-.7-3.09-2.66-4.1-5.88-3.04-2.22.53-5.6,2.76-10.11,6.67Z" style="fill:#f2e863; stroke-width:0px;"/><path d="m299.04,666.68l-7.72,57.58c-8.3,0-16.99,2.69-26.05,8.07-11.29,9.46-17.63,16.55-19.03,21.27-5.15,14.08-3.69,23.86,4.38,29.34,1.63.4,3.7.76,6.23,1.1,7.54,0,16.22-4.04,26.05-12.1,3.42-3.42,5.13-5.5,5.13-6.23l13.55,36.66c-9.13,6.54-17.43,11.08-24.91,13.6-10.56,4.55-21.07,6.74-31.53,6.58-12.29-.8-23.18-4.83-32.68-12.1-2.96-2.52-5.51-5.46-7.67-8.82-3.06-5.68-4.96-10.98-5.73-15.89-2.06-14.45.7-30.04,8.27-46.77,3.52-7.7,8.78-15.77,15.79-24.21,9.1-10.83,19.61-20.49,31.53-28.99,9.93-6.74,18.73-11.39,26.4-13.95,9.37-3.39,15.36-5.1,17.98-5.13Z" style="fill:#3a7ca5; stroke-width:0px;"/><path d="m365.19,660.1c1.4,11.03,2.66,19.31,3.79,24.86,1.69,8.27,4.25,18.3,7.67,30.09l6.23,22.71,8.07,27.1c.73,2.89,2.76,8.85,6.08,17.88-10.59,3.75-21.29,9.03-32.08,15.84-2.99-10.06-5.2-18.86-6.62-26.4-5.28,2.23-9.66,3.57-13.15,4.04-1.2,6.77-2.06,16.3-2.59,28.59-13.05-4.28-24.38-7.36-33.97-9.21,2.12-11.59,4.9-29.66,8.32-54.2,3.15-28,5.11-45.21,5.88-51.66.96-7.47,1.97-14.68,3.04-21.62,13.65-2.26,26.77-4.93,39.35-8.02Zm-16.04,66.05c-1.53,8.4-2.42,17.27-2.69,26.6,3.62-.1,6.18-.65,7.67-1.64-1.96-9.37-3.62-17.68-4.98-24.96Z" style="fill:#3a7ca5; stroke-width:0px;"/><path d="m453.86,662.04l11.41,30.29c2.96,5.98,6.39,13.42,10.31,22.32,4.65-16.8,8.87-33.86,12.65-51.16,14.88-3.15,28.54-6.66,41-10.51,8.24,38.16,15.76,67.7,22.57,88.62,7.41,23.18,12.2,38.39,14.4,45.63-12.85,8.57-24.61,16.7-35.27,24.41-3.19-17.3-9.32-43.49-18.38-78.55-.23.07-.37-.02-.4-.25l.35-.1c-1.79-5.08-2.84-8.62-3.14-10.61l-.4.15c-.6,3.95-3.22,14.93-7.87,32.93-2.62,12.62-4.2,19.71-4.73,21.27-10.89,1.63-18.46,3.06-22.71,4.28l-1.84.55c-2.86-6.74-5.21-11.16-7.07-13.25-4.38-8.6-10.28-18.66-17.68-30.19l-.4.15c.03.27.18.35.45.25-.17,2.19.02,8.27.55,18.23-.73,19.59-.62,36.67.32,51.23.95,14.56,1.12,23.95.52,28.17-13.02-4.45-23.51-7.79-31.48-10.01l-7.27-2.44c.8-8.07,1.08-20.12.85-36.16.46-15.54.35-34.45-.35-56.74-1.43-17.47-2.64-34.54-3.64-51.21,17.47-4.48,33.23-10.24,47.27-17.29Z" style="fill:#3a7ca5; stroke-width:0px;"/><path d="m670.74,696.56c10.49,15.81,7.02,30.97-10.41,45.48-8.83,8-17.7,12.79-26.6,14.35-9.03,1.93-15.08,3.02-18.13,3.29,1,10.76,2.96,24.06,5.88,39.9l.25,2.89c-19.59,4.71-31.4,7.39-35.42,8.02-2.42-43.27-4.12-78.62-5.08-106.05-1-15.38-1.43-24.19-1.29-26.45,13.05-5.48,30.88-6.69,53.5-3.64,14.35,3.02,26.78,10.43,37.31,22.22Zm-57.63,39.2c16.11-1.86,24.44-5.93,25.01-12.2-.33-4.52-2.46-7.69-6.38-9.51-7.24-2.59-14.25-2.66-21.02-.2-.27,7.67.53,14.98,2.39,21.92Z" style="fill:#3a7ca5; stroke-width:0px;"/><path d="m777.89,684.66c-.83,6.77-1.38,13.02-1.64,18.73l-.35,4.78c-.23,2.42-.37,5.13-.4,8.12l-.1,3.84c-.93.7-4.1.73-9.51.1-1.76.17-6.01.18-12.75.05-2.59.46-6.97.83-13.15,1.1-4.78.37-9.2,1.11-13.25,2.24-.13,4.52-.07,8.24.2,11.16,14.38-1.13,22.33-1.46,23.86-1-1.56,8.63-2.06,17.25-1.49,25.85l-21.37,2.44-.1,1.1c-.13,5.61-.1,10.05.1,13.3l.6.2c6.38-.4,12.63-1.1,18.78-2.09,5.94-1.06,12.17-1.61,18.68-1.64,2.22-.13,3.95.02,5.18.45-1,10.49-1.69,18.56-2.09,24.21l-.6,9.86c-23.64.43-45.25,2.91-64.81,7.42-2.16-25.67-4.65-52.83-7.47-81.49-.2-2.06-.56-7.06-1.1-14.99-2.09-16.57-3.02-26.27-2.79-29.09,2.62-.5,11.44-.6,26.45-.3,17.47-.23,37.18-1.68,59.13-4.33Z" style="fill:#3a7ca5; stroke-width:0px;"/><path d="m823.37,809.89c-6.11-.93-11.77-3.67-16.99-8.22-6.14-6.84-9.93-14.31-11.36-22.42-.73-11.86,1.59-23.44,6.97-34.77,3.79-7.74,10.38-16.79,19.78-27.15,8.33-6.08,16.4-10.61,24.21-13.6,4.08-1.96,10.68-3.3,19.78-4.04,9.46.86,16.94,5.63,22.42,14.3,3.65,6.58,5.48,13.91,5.48,22.02-.07,8.73-2.03,17.9-5.88,27.5-3.55,7.77-6.86,13.76-9.91,17.98-.83,1.59-3.52,4.76-8.07,9.51-5.78,5.98-13.47,11.36-23.06,16.14-6.24,2.49-14.03,3.4-23.36,2.74Zm41.05-55.04c.53-7.44-3.41-11.17-11.81-11.21-8.7,2.23-15.14,5.75-19.33,10.56-7.04,8.17-10.56,15.86-10.56,23.06,1.16,6.28,3.85,9.8,8.07,10.56,10.26-1.13,19.39-7.14,27.4-18.03,3.52-5.51,5.59-10.49,6.23-14.94Z" style="fill:#3a7ca5; stroke-width:0px;"/><path d="m1036.71,673.15c-14.68,38.26-27.12,75.5-37.31,111.73-8.5.46-17.32,2.57-26.45,6.33-8.73-18.2-17.05-38.65-24.96-61.37l-4.28,23.41-4.68,28.54c-9.33,1.73-22.04,3.6-38.11,5.63,5.25-22.62,9.17-41.01,11.76-55.19,2.36-13.28,6.66-34.95,12.9-65.01l34.92-7.22c4.75,16.54,10.18,33.62,16.29,51.26,2.42,6.04,4.63,11.62,6.62,16.74,3.52-12.65,7.42-28.24,11.71-46.77,15.44-2.16,29.31-4.85,41.59-8.07Z" style="fill:#3a7ca5; stroke-width:0px;"/><path d="m1098.63,660.1c1.4,11.03,2.66,19.31,3.79,24.86,1.69,8.27,4.25,18.3,7.67,30.09l6.23,22.71,8.07,27.1c.73,2.89,2.76,8.85,6.08,17.88-10.59,3.75-21.29,9.03-32.08,15.84-2.99-10.06-5.2-18.86-6.62-26.4-5.28,2.23-9.66,3.57-13.15,4.04-1.2,6.77-2.06,16.3-2.59,28.59-13.05-4.28-24.38-7.36-33.97-9.21,2.12-11.59,4.9-29.66,8.32-54.2,3.15-28,5.11-45.21,5.88-51.66.96-7.47,1.97-14.68,3.04-21.62,13.65-2.26,26.77-4.93,39.35-8.02Zm-16.04,66.05c-1.53,8.4-2.42,17.27-2.69,26.6,3.62-.1,6.18-.65,7.67-1.64-1.96-9.37-3.62-17.68-4.98-24.96Z" style="fill:#3a7ca5; stroke-width:0px;"/><path d="m1240.6,664.53c-.3,13.78.56,27.78,2.59,41.99-11.76.96-22.43,2.46-32.03,4.48.3,19.23,1.53,49.86,3.69,91.9-9.96,2.52-17.78,5.2-23.46,8.02-4.82,1.86-8.35,3.29-10.61,4.28-.2-9.8-.2-19.86,0-30.19.37-7.87.18-17.9-.55-30.09l-2.29-38.9c-10.43,1.06-22.3,3.69-35.62,7.87-.56-5.41-1.31-11.54-2.24-18.38-1.79-12.35-3.47-22.02-5.03-28.99,5.08-.86,10.29-1.48,15.64-1.84,3.65-.6,15.18-1.61,34.57-3.04,25.9-3.29,44.35-5.66,55.34-7.12Z" style="fill:#3a7ca5; stroke-width:0px;"/><path d="m1282.89,809.89c-6.11-.93-11.77-3.67-16.99-8.22-6.14-6.84-9.93-14.31-11.36-22.42-.73-11.86,1.59-23.44,6.97-34.77,3.79-7.74,10.38-16.79,19.78-27.15,8.33-6.08,16.4-10.61,24.21-13.6,4.08-1.96,10.68-3.3,19.78-4.04,9.46.86,16.94,5.63,22.42,14.3,3.65,6.58,5.48,13.91,5.48,22.02-.07,8.73-2.03,17.9-5.88,27.5-3.55,7.77-6.86,13.76-9.91,17.98-.83,1.59-3.52,4.76-8.07,9.51-5.78,5.98-13.47,11.36-23.06,16.14-6.24,2.49-14.03,3.4-23.36,2.74Zm41.05-55.04c.53-7.44-3.41-11.17-11.81-11.21-8.7,2.23-15.14,5.75-19.33,10.56-7.04,8.17-10.56,15.86-10.56,23.06,1.16,6.28,3.85,9.8,8.07,10.56,10.26-1.13,19.39-7.14,27.4-18.03,3.52-5.51,5.59-10.49,6.23-14.94Z" style="fill:#3a7ca5; stroke-width:0px;"/></svg>