<?xml version="1.0" encoding="UTF-8"?><svg id="a" xmlns="http://www.w3.org/2000/svg" xmlns:xlink="http://www.w3.org/1999/xlink" viewBox="0 0 1536 1024"><defs><filter id="b" filterUnits="userSpaceOnUse"><feOffset dx="8.29" dy="8.29"/><feGaussianBlur result="c" stdDeviation="0"/><feFlood flood-color="#fff" flood-opacity="1"/><feComposite in2="c" operator="in"/><feComposite in="SourceGraphic"/></filter><filter id="d" filterUnits="userSpaceOnUse"><feOffset dx="8.29" dy="8.29"/><feGaussianBlur result="e" stdDeviation="0"/><feFlood flood-color="#fff" flood-opacity="1"/><feComposite in2="e" operator="in"/><feComposite in="SourceGraphic"/></filter><filter id="f" filterUnits="userSpaceOnUse"><feOffset dx="8.29" dy="8.29"/><feGaussianBlur result="g" stdDeviation="0"/><feFlood flood-color="#fff" flood-opacity="1"/><feComposite in2="g" operator="in"/><feComposite in="SourceGraphic"/></filter></defs><g style="filter:url(#b);"><path d="m57.95,807.81c4.75-5.46,9.62-2.55,14.63,8.73,3.17,7.19,6.22,17.41,9.16,30.68,2.88,12.88,5.59,19.34,8.15,19.36,1.34-.12,2.98-2.14,4.91-6.05,1-2.28,2.19-5.54,3.56-9.79,1.66-4.53,3.2-8.79,4.61-12.79s2.51-6.96,3.31-8.9c.8-1.94,1.46-3.71,1.97-5.3.51-1.59.85-2.72,1-3.38.15-.66.18-1.3.08-1.94-.18-1.14,1.1-3.29,3.83-6.44,2.73-3.15,4.77-4.78,6.11-4.9,1.51-.14,3.13.43,4.85,1.69,1.73,1.26,1.98,2.85.75,4.76-1.21,2.04-5.18,12.97-11.92,32.78-6.74,19.81-11.87,33.1-15.39,39.86-1.13,2.55-1.6,4.4-1.42,5.54.2,1.27-.63,2.76-2.48,4.48-1.86,1.72-3.62,2.65-5.29,2.8-2.01.18-3.52.03-4.53-.46-1.01-.49-2.07-1.81-3.17-3.96-1.1-2.15-2.09-4.93-2.97-8.33-.88-3.4-2-8.39-3.38-14.96-1.78-8.08-3.68-15.81-5.69-23.16-2.01-7.36-3.77-13.12-5.27-17.3-1.51-4.18-2.83-7.96-3.95-11.34-1.13-3.38-1.83-5.95-2.11-7.73-.28-1.78-.06-3.09.66-3.92Z" style="fill:#3a7ca5; stroke-width:0px;"/><path d="m167.71,823.38c7.57-4.81,13.93-7.06,19.07-6.75l9.79.66c4.26.13,8.68,1.18,13.24,3.15,4.56,1.97,7.61,4.11,9.17,6.42.93,1.59,1.34,3.1,1.22,4.53-.12,1.43-.87,3.69-2.25,6.78-1.51,3.36-4.47,7.2-8.89,11.53-4.42,4.33-7.55,6.58-9.39,6.75-.5.05-1.41.49-2.73,1.31-1.31.83-3.55,2.03-6.7,3.6-3.15,1.57-6.91,3.07-11.27,4.5-6.29,2.12-9.92,3.89-10.88,5.33-.96,1.44.4,3.09,4.09,4.94,3.13,1.52,7.1,2.19,11.91,2.01,4.82-.18,8.86-1.19,12.14-3.03,11.58-6.33,18.97-9,22.19-8,2.13.58,3.31,1.34,3.55,2.29.23.95-.4,2.58-1.9,4.91-3.28,5.07-10.38,9.38-21.28,12.94-10.91,3.57-19.49,4.41-25.73,2.52-5.18-1.59-9.55-3.16-13.1-4.71-3.56-1.54-5.39-2.7-5.51-3.46-.18-1.14-1.57-2.43-4.18-3.87-4.98-2.51-8.31-5.85-9.99-10.02-1.67-4.16-1.22-7.78,1.35-10.85,1.96-2.62,2.86-4.51,2.68-5.65-.3-1.91,2.56-6.38,8.59-13.44,6.03-7.05,10.96-11.85,14.81-14.39Zm27.54,19.54c2.68-2.43,4.37-4.87,5.09-7.32.72-2.45-.02-4.44-2.22-5.98-2.2-1.54-6.06-2.06-11.59-1.56-2.68.24-4.83.89-6.45,1.94-1.62,1.05-4.11,3.34-7.46,6.86-3.46,3.92-6.03,7.57-7.71,10.94-1.68,3.38-1.9,5.71-.68,7.02.81.83,2.94.89,6.4.19,3.46-.7,6.5-1.88,9.13-3.53,3.4-2.11,5.86-3.24,7.37-3.37,1.51-.14,4.21-1.86,8.1-5.18Z" style="fill:#3a7ca5; stroke-width:0px;"/><path d="m259.24,857.62c.14.89-.71,3.09-2.53,6.61-1.83,3.52-2.67,5.69-2.54,6.51.13.83-.51,3.01-1.9,6.55-1.4,3.54-3.61,6.74-6.65,9.59-3.04,2.85-6.24,3.27-9.62,1.26-1.31-.78-1.99-1.85-2.03-3.2-.04-1.35.36-4.19,1.21-8.52,1.06-5.12,2.05-8.85,2.95-11.19.91-2.33,1.44-4.61,1.6-6.81.44-2.62,1.23-6.46,2.39-11.52,1.15-5.06,1.96-9.42,2.4-13.07.45-3.65.23-6.66-.66-9.03-.68-2.13-.93-3.72-.75-4.76.17-1.05.94-2.15,2.28-3.3,4.19-3.6,7.93-3.04,11.23,1.69l2.33,3.46,8.88-8.34c5.46-5.26,9.55-8.14,12.27-8.65s6.23.98,10.51,4.46c6.45,5.35,8.73,12.29,6.85,20.84-.91,3.95-2.05,10.17-3.43,18.67-1.38,8.5-2.1,13.66-2.15,15.46-.02,2.07-.95,3.69-2.8,4.89-1.85,1.2-3.86,1.38-6.03.55-5.03-1.73-6.23-7.17-3.59-16.3,2.51-8.86,3.97-17.11,4.39-24.75.41-7.64-.38-11.82-2.36-12.54-1.25-.4-3.14.83-5.66,3.7-2.52,2.87-4.46,5.98-5.8,9.32-7.43,17.56-11.04,27.03-10.82,28.43Z" style="fill:#3a7ca5; stroke-width:0px;"/><path d="m372.54,758.06c1.6-1.69,2.92-2.52,3.94-2.48,1.03.04,2.79,1.04,5.31,3,2.31,1.72,3.75,3.59,4.32,5.6.57,2.01.6,5.16.09,9.46-2.35,18.51-3.67,30.42-3.93,35.73-.27,5.31.34,8.93,1.84,10.85,4.02,5.05,3.96,8.41-.2,10.07-2.56,1-4.45,2.24-5.66,3.7-1.21,1.46-1.97,3.43-2.26,5.91-.98,5.63-3.12,10.95-6.41,15.95-3.29,5-7.21,9.03-11.74,12.08-4.53,3.05-9.5,5.21-14.91,6.47-5.41,1.26-10.55.96-15.44-.92-16.01-5.64-22.42-16.65-19.22-33.05,2.15-11.15,7.98-20.25,17.49-27.29,9.51-7.04,19.42-9.68,29.72-7.91,5.23.82,8.3.92,9.23.32,1.24-.76,2.49-8.44,3.76-23.05,1.27-14.61,2.62-22.76,4.05-24.43Zm-15.8,61.54c-4.26-2.19-8.46-2.74-12.62-1.66-4.16,1.09-7.86,3-11.08,5.74-3.22,2.74-5.66,6.44-7.3,11.1-1.65,4.66-2.15,9.54-1.52,14.63.96,6.1,2.67,9.94,5.13,11.52,4.75,3.18,10.12,3.02,16.11-.49,5.99-3.5,10.35-8.99,13.08-16.46,2.24-6.26,3.37-11.52,3.38-15.77.06-2.84-.19-4.72-.76-5.63-.57-.92-2.04-1.91-4.42-2.98Z" style="fill:#3a7ca5; stroke-width:0px;"/><path d="m426.97,788.12c2.79-1.67,7.54-2.81,14.24-3.42,4.69-.42,8.17-.42,10.45.02,2.28.44,6.07,1.9,11.4,4.38,8.03,3.53,12.75,6,14.17,7.42,1.97,1.75,1.75,9.51-.67,23.26-.58,7.14-.16,12.77,1.26,16.9,1.41,4.12,3.44,8.39,6.09,12.79,2.64,4.4,4.06,7.17,4.24,8.31.44,2.8-1.39,4.12-5.49,3.98-4.79-.21-8.65-2.05-11.57-5.52-1.64-1.78-3.04-2.85-4.2-3.2-1.16-.35-2.44-.13-3.85.64-1.41.77-2.88,1.71-4.4,2.82-1.53,1.1-3.97,2.29-7.34,3.56-3.37,1.27-7.21,2.23-11.53,2.88-4.82.7-8.18.93-10.08.72-1.91-.21-4.78-1.24-8.64-3.08-4.76-2.15-8.8-5.42-12.12-9.82-3.33-4.4-5.41-9.27-6.25-14.61-1.36-8.64.23-17.42,4.77-26.33,4.54-8.92,11.05-16.14,19.53-21.68Zm23.43,11.21c-6.39-1.74-11.64-1.36-15.75,1.14-4.11,2.5-7.86,7.57-11.24,15.22-2.38,5.37-3.12,11.49-2.21,18.37.76,4.83,1.5,7.92,2.22,9.27.72,1.36,2.4,2.88,5.05,4.57,3.4,2.14,6.49,3.15,9.27,3.03,2.78-.12,6.03-1.38,9.73-3.78,3.85-2.54,6.58-5.65,8.21-9.35,1.63-3.69,2.52-9.34,2.68-16.96.25-8.14-.08-13.49-1-16.05-.91-2.56-3.24-4.38-6.98-5.46Z" style="fill:#3a7ca5; stroke-width:0px;"/><path d="m487.31,795.8c2.36-2.27,4.15-3.34,5.36-3.19,2.42.3,4.99,4.16,7.69,11.58,2.7,7.42,5.28,15.21,7.76,23.36,2.47,8.16,4.39,12.81,5.77,13.98.81.83,1.5,1.19,2.08,1.07.58-.12,1.61-.82,3.11-2.12,2.08-1.86,3.01-3.56,2.77-5.08-.12-.76.15-1.75.81-2.97.66-1.22,1.75-3.16,3.29-5.81,1.53-2.65,3-5.46,4.41-8.42,1.13-2.55,2.2-4.61,3.23-6.19,1.03-1.57,1.76-2.58,2.2-3s.75-.87.94-1.34c.18-.47.21-1.08.09-1.84-.24-1.52.91-3.4,3.45-5.63,2.54-2.23,4.83-3.3,6.88-3.23,2.22.06,3.79.62,4.73,1.7.93,1.08,1.14,2.96.63,5.64-.51,2.69-1.72,6.08-3.62,10.19-1.9,4.11-4.64,9.41-8.2,15.92-1.74,2.99-2.97,5.42-3.69,7.29l-3.69,7.29c-1.37,3.22-1.98,5.2-1.86,5.97.2,1.27-1.11,3.74-3.93,7.41-2.82,3.67-5.04,5.77-6.65,6.3-2.58.88-5.65,1.09-9.2.64-3.56-.45-5.96-1.46-7.23-3.02-1.19-1.05-2.16-2.64-2.92-4.76-.76-2.12-2.06-6.06-3.9-11.82-1.84-5.76-3.91-11.63-6.21-17.61-3.55-9.6-5.63-16.85-6.23-21.76-.61-4.9.12-8.42,2.16-10.54Z" style="fill:#3a7ca5; stroke-width:0px;"/><path d="m585.28,773.78c2.8-1.67,7.54-2.81,14.25-3.42,4.69-.42,8.17-.42,10.45.02,2.28.44,6.07,1.9,11.39,4.38,8.03,3.52,12.75,6,14.17,7.42,1.97,1.75,1.75,9.51-.67,23.26-.58,7.14-.16,12.77,1.26,16.9,1.41,4.13,3.44,8.39,6.09,12.79,2.64,4.4,4.06,7.17,4.24,8.31.44,2.8-1.39,4.12-5.49,3.98-4.79-.21-8.65-2.05-11.57-5.52-1.64-1.79-3.04-2.85-4.2-3.2-1.16-.34-2.44-.13-3.85.64-1.41.77-2.88,1.71-4.4,2.81-1.53,1.11-3.97,2.29-7.34,3.56-3.37,1.27-7.21,2.23-11.53,2.88-4.82.7-8.18.93-10.08.72-1.91-.21-4.78-1.24-8.64-3.08-4.76-2.15-8.8-5.42-12.12-9.83-3.33-4.4-5.41-9.27-6.25-14.61-1.36-8.64.23-17.42,4.78-26.33,4.54-8.92,11.05-16.14,19.53-21.68Zm23.43,11.21c-6.39-1.74-11.64-1.36-15.75,1.14-4.11,2.5-7.86,7.57-11.24,15.22-2.38,5.37-3.12,11.49-2.21,18.37.76,4.83,1.5,7.92,2.22,9.27.72,1.36,2.4,2.88,5.05,4.57,3.4,2.14,6.49,3.15,9.27,3.03,2.78-.12,6.03-1.38,9.73-3.78,3.85-2.54,6.58-5.65,8.21-9.35,1.63-3.69,2.52-9.34,2.68-16.96.25-8.14-.09-13.49-1-16.05-.91-2.56-3.24-4.38-6.98-5.46Z" style="fill:#3a7ca5; stroke-width:0px;"/><path d="m662.35,735.49c1.14-1.39,3.05-2.18,5.75-2.36,2.69-.18,4.89.3,6.6,1.43.77.58,1.26,1.5,1.46,2.77.2,1.27.21,2.95.03,5.02-.18,2.08-.48,4.27-.88,6.56-.4,2.29-.88,5.2-1.43,8.73-.55,3.53-.99,6.92-1.33,10.17-.94,11.3-2.26,21.27-3.95,29.93-1.7,8.66-2.81,15.08-3.34,19.25-.95,6.92-1.67,12.07-2.15,15.47-.57,2.89-1.92,5.1-4.05,6.65-2.14,1.55-4.23,1.77-6.27.67-1.1-.54-1.86-1.57-2.27-3.08-.41-1.51-.5-3.43-.27-5.77.23-2.34.53-4.72.92-7.14.38-2.42.86-5.3,1.44-8.63.58-3.34,1.02-6.18,1.33-8.53.29-2.47,1.07-6.15,2.34-11.04,1.27-4.88,1.8-8.02,1.58-9.42-.36-2.29.46-10,2.47-23.13,2.01-13.13,2.53-20.62,1.56-22.47-.97-1.84-.81-3.53.48-5.07Z" style="fill:#3a7ca5; stroke-width:0px;"/></g><g style="filter:url(#d);"><path d="m741.9,770.74c.95-1.95,1.93-3.02,2.93-3.19,1-.17,3.06.43,6.18,1.81,2.83,1.2,4.88,2.7,6.14,4.52,1.26,1.82,2.39,4.86,3.42,9.1,4.24,18.32,7.17,30.06,8.78,35.23,1.61,5.17,3.47,8.53,5.59,10.09,5.65,4.05,6.77,7.3,3.35,9.74-2.12,1.49-3.5,3.06-4.15,4.71-.66,1.66-.69,3.71-.1,6.15,1.03,5.63.84,11.18-.57,16.67-1.41,5.49-3.77,10.16-7.06,14.02-3.29,3.86-7.33,6.94-12.09,9.25-4.77,2.31-9.84,3.06-15.2,2.23-17.42-2.19-27.46-11.51-30.15-27.96-1.85-11.18.57-21.13,7.26-29.84,6.68-8.71,15.3-13.26,25.86-13.64,5.32-.27,8.33-.79,9.01-1.55.93-.98-.57-8.64-4.48-22.98-3.92-14.34-5.48-22.46-4.69-24.37Zm6.42,62.51c-4.87-1.25-9.12-.93-12.75.95-3.63,1.89-6.51,4.48-8.66,7.77-2.14,3.29-3.19,7.35-3.13,12.17.05,4.83,1.28,9.63,3.68,14.41,3.07,5.68,6.07,9.04,8.99,10.07,5.69,2.11,10.81.86,15.35-3.73,4.54-4.59,6.81-10.76,6.82-18.51-.04-6.48-.81-11.78-2.29-15.88-.94-2.75-1.85-4.51-2.71-5.27-.87-.77-2.64-1.43-5.31-1.98Z" style="fill:#3a7ca5; stroke-width:0px;"/><path d="m813.36,798.73c5.6-6.16,10.94-9.62,16.01-10.37l9.67-1.34c4.16-.74,8.78-.62,13.87.36,5.08.98,8.78,2.42,11.09,4.33,1.46,1.35,2.38,2.72,2.77,4.12.39,1.4.46,3.73.22,6.99-.27,3.54-1.78,7.85-4.51,12.91-2.73,5.07-4.96,7.87-6.67,8.4-.47.15-1.19.75-2.17,1.81-.98,1.06-2.7,2.67-5.19,4.83-2.49,2.16-5.58,4.36-9.28,6.62-5.32,3.31-8.19,5.76-8.61,7.34-.42,1.58,1.47,2.9,5.68,3.94,3.55.83,7.61.68,12.19-.47,4.58-1.14,8.12-2.94,10.63-5.38,8.93-8.44,15.12-12.51,18.57-12.2,2.26.13,3.66.62,4.22,1.49.56.86.52,2.57-.11,5.11-1.38,5.55-6.7,11.14-15.96,16.78-9.26,5.65-17.23,8.19-23.91,7.64-5.55-.49-10.31-1.12-14.28-1.89-3.97-.77-6.15-1.51-6.53-2.22-.58-1.07-2.37-2.03-5.39-2.89-5.69-1.41-10.07-3.96-13.15-7.63-3.08-3.67-3.92-7.25-2.52-10.73.97-2.93,1.17-4.92.59-5.99-.96-1.78.22-6.67,3.55-14.69,3.33-8.02,6.4-13.64,9.21-16.87Zm33.42,13.26c1.72-2.89,2.5-5.58,2.33-8.09-.17-2.5-1.58-4.28-4.24-5.32-2.66-1.04-6.57-.76-11.72.84-2.5.78-4.34,1.83-5.53,3.17-1.19,1.34-2.78,4.05-4.77,8.12-1.96,4.48-3.15,8.52-3.58,12.11-.43,3.59.17,5.89,1.81,6.9,1.07.64,3.15.27,6.24-1.11,3.09-1.37,5.6-3.12,7.56-5.25,2.54-2.72,4.51-4.3,5.92-4.74,1.41-.44,3.4-2.64,5.99-6.63Z" style="fill:#3a7ca5; stroke-width:0px;"/></g><g style="filter:url(#f);"><path d="m933.22,779.57c-.41-1.37-.05-2.61,1.09-3.73,1.13-1.11,3-2.12,5.58-3.03,2.58-.9,5.05-1.62,7.4-2.16,2.35-.53,5.38-1.22,9.11-2.06,3.73-.84,6.47-1.48,8.25-1.92,2.1-.49,5.78-.34,11.04.46l18.27,2.95c12.84,1.85,21.77,6.38,26.79,13.58,5.02,7.2,4.97,15.25-.15,24.14-2.41,4.09-5.71,8.07-9.91,11.95-4.2,3.88-7.6,6.1-10.19,6.68-2.31.4-7.25,2.07-14.84,5.02-7.59,2.95-11.95,4.85-13.08,5.7-1.13.85-1.51,1.9-1.13,3.15.26.88-.85,5.69-3.32,14.45-2.47,8.76-3.1,14.88-1.89,18.34,1.14,3.22,1.01,5.53-.38,6.96-1.39,1.42-4.64,2.57-9.73,3.45-2.63.45-5.04,1.36-7.23,2.72-2.19,1.36-3.9,2.58-5.14,3.64-1.24,1.07-2.77,1.73-4.6,1.97-1.83.25-3.97-.26-6.43-1.55-1.98-.84-3-1.91-3.04-3.21-.05-1.3.43-2.47,1.42-3.49.99-1.02,2.46-2.32,4.41-3.91,1.95-1.58,3.86-3.13,5.75-4.63,1.88-1.51,3.66-3.36,5.34-5.55,1.68-2.19,2.79-4.38,3.35-6.58.37-1.64.84-3.26,1.39-4.87.56-1.6.9-2.75,1.05-3.43.14-.68.33-1.79.55-3.34.23-1.55.46-3.65.7-6.32l.6-8.37-6.97-3.32c-4.28-2.15-6.44-4.01-6.48-5.57-.04-1.57,2.26-2.42,6.89-2.57,2.38-.15,4.1-.44,5.18-.89,1.07-.45,2.02-1.33,2.84-2.66.83-1.85,1.07-4.22.72-7.11-.35-2.89-.28-5.82.21-8.8,1.34-7.05,1.33-14.6-.05-22.63-.32-1.65-.94-2.56-1.86-2.73-.92-.17-3.43.1-7.54.81-8.55,1.48-13.21.97-13.96-1.53Zm56.68-.54c-5.79-.84-9.41-1.23-10.87-1.17-1.46.06-2.59.74-3.4,2.07-1.56,2.89-2.54,13.43-2.97,31.61-.14,6.46.58,10.13,2.15,11.05,1.57.91,5.89.16,12.96-2.24,6.28-2.13,10.95-4.29,14.02-6.46,3.07-2.17,5.53-5.05,7.39-8.66,1.99-3.75,2.34-7.75,1.07-12-1.27-4.24-3.45-7.44-6.52-9.6-3.07-2.16-7.69-3.69-13.84-4.6Z" style="fill:#3a7ca5; stroke-width:0px;"/><path d="m1059.78,785.28c2.55-1.88,7.11-3.39,13.69-4.53,4.6-.79,8.07-1.06,10.4-.81,2.32.26,6.3,1.4,11.94,3.45,8.47,2.87,13.51,4.95,15.12,6.25,2.2,1.59,3.06,9.32,2.55,23.18.41,7.15,1.61,12.71,3.59,16.7s4.58,8.07,7.83,12.23c3.24,4.17,5.03,6.81,5.37,7.93.83,2.75-.81,4.21-4.91,4.39-4.79.17-8.89-1.35-12.28-4.57-1.88-1.64-3.42-2.59-4.62-2.85-1.2-.25-2.45.06-3.74.94-1.29.88-2.62,1.93-3.99,3.15-1.37,1.22-3.63,2.59-6.81,4.13-3.17,1.53-6.86,2.79-11.06,3.78-4.7,1.08-8.01,1.58-9.93,1.52-1.92-.06-4.93-.85-9.02-2.38-5.03-1.75-9.5-4.69-13.42-8.8-3.92-4.11-6.66-8.79-8.24-14.03-2.55-8.48-2.18-17.34,1.11-26.57,3.29-9.23,8.76-16.93,16.42-23.11Zm24.85,9.29c-6.6-1.22-11.77-.43-15.51,2.38-3.74,2.81-6.77,8.16-9.07,16.04-1.63,5.53-1.51,11.68.35,18.44,1.42,4.74,2.59,7.76,3.49,9.04.91,1.29,2.79,2.67,5.66,4.14,3.67,1.86,6.88,2.62,9.64,2.27,2.75-.34,5.8-1.85,9.15-4.53,3.47-2.83,5.77-6.14,6.88-9.95,1.11-3.8,1.21-9.49.32-17.08-.88-8.12-1.95-13.41-3.21-15.88-1.26-2.47-3.83-4.1-7.69-4.87Z" style="fill:#3a7ca5; stroke-width:0px;"/><path d="m1131.12,741.06c.94-1.47,2.74-2.41,5.39-2.8,2.65-.39,4.9-.09,6.76.9.84.51,1.46,1.39,1.83,2.64.38,1.25.62,2.91.72,4.99.11,2.08.12,4.28.03,6.59-.08,2.31-.16,5.24-.21,8.8-.06,3.55-.03,6.96.08,10.22.63,11.31.7,21.34.21,30.08-.49,8.75-.71,15.21-.66,19.4.01,6.96,0,12.14,0,15.55-.16,2.92-1.2,5.23-3.11,6.93-1.91,1.71-3.96,2.09-6.14,1.16-1.17-.45-2.07-1.41-2.68-2.88-.62-1.47-.97-3.38-1.07-5.72-.1-2.34-.12-4.73-.08-7.17.05-2.43.12-5.33.24-8.7.11-3.37.16-6.23.15-8.59-.06-2.48.21-6.2.8-11.16.59-4.96.68-8.12.26-9.5-.67-2.25-.92-9.98-.74-23.2.18-13.22-.34-20.71-1.56-22.47-1.22-1.76-1.29-3.45-.23-5.08Z" style="fill:#3a7ca5; stroke-width:0px;"/><path d="m1170.73,787.37c.82-.14,2.25-1.3,4.27-3.49,2.02-2.19,3.53-3.37,4.52-3.54,1.15-.2,3.26-1.25,6.32-3.16,3.06-1.91,6.31-3.75,9.76-5.53,3.45-1.77,7.29-3.23,11.54-4.35,4.25-1.13,8.91-1.01,13.99.34,5.08,1.36,9.99,4.18,14.74,8.48,2.87,2.65,4.89,4.9,6.04,6.73,1.16,1.83,2.09,4.53,2.81,8.08,1.39,5.8,1.4,10.72.02,14.76-.99,3.06-3.65,7.42-8.01,13.1-4.36,5.67-8.14,9.77-11.36,12.3-2.39,1.86-7.43,4.07-15.13,6.65-7.71,2.58-13.43,3.99-17.15,4.24-3.04.26-4.96.63-5.77,1.09-.81.47-1.57,1.55-2.27,3.25-.9,2.78-1.34,8.5-1.34,17.16-.04,7.36-.46,12.02-1.25,13.99-.79,1.98-2.67,3.22-5.63,3.73-2.31.4-4.04.11-5.19-.87-1.16-.98-1.74-2.46-1.72-4.43.01-1.97.18-4,.51-6.09.32-2.09.56-4.33.71-6.72.15-2.39.04-4.21-.34-5.45-.41-1.37-.52-3.03-.32-4.96.2-1.93.5-3.53.9-4.78.4-1.25.39-2.73-.03-4.42-.42-1.7-1.4-3.07-2.92-4.12-5.06-3.59-5.57-6.45-1.54-8.59,2.57-1.23,4.25-2.83,5.04-4.81.79-1.97,1.39-6.01,1.81-12.12l.86-10.97-4.3-2.21c-3.07-1.57-4.84-3.17-5.33-4.79-.41-1.37.07-3.06,1.46-5.08,1.38-2.01,2.82-3.15,4.3-3.4Zm49.97-6.47c-2.79-1.22-6.74-1.26-11.85-.12-5.11,1.15-9.33,3.06-12.68,5.73-2.68,2.04-4.9,5.15-6.67,9.32-1.78,4.18-2.29,7.52-1.54,10.01.38,1.25.05,3.34-.97,6.27-1.11,3.21-1.47,6.92-1.08,11.11.39,4.2,1.32,6.7,2.77,7.49,2.74,1.63,7.5.94,14.3-2.08,6.79-3.01,12.49-6.95,17.09-11.81,4.69-5.14,7.1-11.92,7.26-20.35.15-8.42-2.06-13.62-6.63-15.59Z" style="fill:#3a7ca5; stroke-width:0px;"/><path d="m1260.97,730.06c1.36-1.81,2.78-2.84,4.26-3.1s3.37.27,5.67,1.58c1.86.99,2.91,1.76,3.16,2.31.25.55-.04,1.75-.87,3.59-1.12,2.03-2.66,3.38-4.62,4.05-1.97.67-3.96.52-5.97-.45-3.8-1.71-4.34-4.37-1.62-7.99Zm2.11,34.67c.46-1.92,1.88-3.08,4.27-3.49,2.38-.41,4.5.14,6.34,1.66,1.32.95,2.15,3.86,2.49,8.72.33,4.87,0,9.35-1.02,13.46-.89,3.96-1.31,10.49-1.25,19.61.05,9.11-.42,16.18-1.42,21.21-1,5.03-3.37,7.08-7.11,6.15-1.71-.49-2.99-1.61-3.87-3.37-.88-1.75-1.32-4.4-1.35-7.94-.03-3.54.1-7.14.39-10.8.29-3.66.63-8.7,1.03-15.14.4-6.43.66-12.35.77-17.75.09-6.05.32-10.16.71-12.33Z" style="fill:#3a7ca5; stroke-width:0px;"/><path d="m1322.25,729.71c.9-1.34,2.35-2.11,4.36-2.33,2.01-.22,4.04.22,6.1,1.31,2.3,1.31,4.67,5.17,7.11,11.57l3.42,9.65,7.9-1.36c5.76-.99,10.04-.85,12.85.44,2.81,1.29,3.3,3.07,1.48,5.36-1.83,2.28-5.6,4.25-11.34,5.89-5.08,1.54-7.99,2.92-8.74,4.17-.75,1.25-1.34,5.78-1.76,13.59-.96,19.85-2.6,32.96-4.93,39.33-2.33,6.37-6.36,8.94-12.09,7.7-1.67-.37-2.83-.92-3.48-1.66-.65-.74-.99-2.58-1.01-5.53-.02-2.95.23-6.6.73-10.95.51-4.35,1.47-11.11,2.87-20.28.65-4.18.45-8.02-.6-11.51-.55-2.4-1.27-3.94-2.17-4.65-.9-.7-2.9-1.3-6-1.82-2.57-.47-5.38-.77-8.45-.9-3.07-.13-5.42-.34-7.07-.65-1.65-.31-3.26-1.04-4.82-2.22-1.8-1.39-2.79-2.37-2.96-2.93-.17-.56.38-1.61,1.65-3.14,1.27-1.53,2.54-2.47,3.82-2.83,1.28-.35,4.23-.6,8.86-.74,7.41-.1,11.93-.91,13.54-2.44,1.62-1.53,1.96-5.29,1.02-11.3-1.09-6.5-1.18-10.42-.29-11.76Z" style="fill:#3a7ca5; stroke-width:0px;"/><path d="m1387.95,740.61c6.86-5.38,12.87-8.13,18.03-8.23l9.83-.12c4.26-.21,8.8.48,13.6,2.08,4.8,1.6,8.14,3.48,10,5.65,1.14,1.51,1.76,2.98,1.84,4.41.08,1.43-.35,3.74-1.3,6.92-1.04,3.46-3.45,7.52-7.25,12.18-3.79,4.66-6.59,7.14-8.4,7.45-.49.08-1.34.59-2.53,1.52-1.19.93-3.25,2.3-6.16,4.11-2.92,1.82-6.44,3.61-10.59,5.37-5.97,2.6-9.33,4.66-10.09,6.17-.76,1.51.82,3.04,4.75,4.59,3.32,1.26,7.36,1.62,12.13,1.05,4.76-.56,8.65-1.89,11.65-3.98,10.64-7.22,17.62-10.46,20.96-9.72,2.2.41,3.48,1.07,3.84,1.99.36.92-.04,2.6-1.21,5.03-2.56,5.3-9.02,10.15-19.38,14.57-10.35,4.42-18.77,5.93-25.24,4.55-5.37-1.17-9.93-2.39-13.68-3.64-3.75-1.25-5.74-2.26-5.96-3.01-.34-1.12-1.9-2.29-4.69-3.52-5.3-2.1-9.08-5.16-11.32-9.17-2.24-4.01-2.29-7.64-.16-10.9,1.59-2.77,2.22-4.71,1.88-5.84-.56-1.87,1.67-6.55,6.68-14.05,5.02-7.49,9.26-12.65,12.74-15.49Zm30.1,17.24c2.33-2.63,3.67-5.19,4.05-7.69.38-2.49-.64-4.42-3.03-5.78-2.4-1.36-6.31-1.57-11.74-.63-2.63.45-4.68,1.27-6.15,2.44-1.46,1.17-3.62,3.65-6.47,7.42-2.9,4.18-4.95,8.01-6.15,11.5-1.2,3.49-1.1,5.83.29,7.04.92.76,3.05.65,6.39-.32,3.34-.97,6.2-2.38,8.59-4.24,3.09-2.37,5.38-3.69,6.86-3.94s3.93-2.19,7.34-5.8Z" style="fill:#3a7ca5; stroke-width:0px;"/></g></svg>