<?xml version="1.0" encoding="UTF-8"?><svg id="a" xmlns="http://www.w3.org/2000/svg" xmlns:xlink="http://www.w3.org/1999/xlink" viewBox="0 0 1536 1024"><defs><filter id="b" filterUnits="userSpaceOnUse"><feOffset dx="10.41" dy="10.41"/><feGaussianBlur result="c" stdDeviation="0"/><feFlood flood-color="#000" flood-opacity="1"/><feComposite in2="c" operator="in"/><feComposite in="SourceGraphic"/></filter></defs><g style="filter:url(#b);"><path d="m181.53,623.76v-213.74h31.26v213.74h-31.26Z" style="fill:#f45b69; stroke-width:0px;"/><path d="m241.3,623.76v-152.2h31.26v14.71h.61c3.27-4.8,7.2-8.75,11.8-11.86,4.6-3.1,10.47-4.65,17.62-4.65,3.88,0,7.76.65,11.65,1.95,3.88,1.3,7.36,3.45,10.42,6.45s5.52,6.86,7.36,11.56c1.84,4.71,2.76,10.46,2.76,17.26v116.78h-31.26v-105.37c0-5.6-1.33-10-3.98-13.21-2.66-3.2-6.44-4.8-11.34-4.8-5.93,0-10.01,1.8-12.26,5.4-2.25,3.6-3.37,8.81-3.37,15.61v102.37h-31.26Z" style="fill:#f45b69; stroke-width:0px;"/><path d="m417.22,514.19c-.21-5.2-1.89-9.1-5.06-11.71-3.17-2.6-6.8-3.9-10.88-3.9-4.9,0-8.69,1.55-11.34,4.65-2.66,3.11-3.98,6.66-3.98,10.66,0,2.8.71,5.55,2.15,8.26,1.43,2.7,5.1,5.15,11.03,7.35l18.39,7.2c11.65,4.4,19.66,10.41,24.06,18.01,4.39,7.61,6.59,15.91,6.59,24.92,0,6.41-1.18,12.36-3.52,17.86-2.35,5.51-5.57,10.36-9.65,14.56-4.09,4.2-8.99,7.5-14.71,9.91-5.72,2.4-11.95,3.6-18.7,3.6-12.67,0-23.29-3.9-31.88-11.71-4.29-3.8-7.77-8.56-10.42-14.26-2.66-5.7-4.09-12.35-4.29-19.96h29.42c.61,4.2,2.09,8.1,4.44,11.71,2.35,3.6,6.48,5.4,12.41,5.4,4.49,0,8.53-1.45,12.11-4.35,3.57-2.9,5.36-6.95,5.36-12.16,0-4.2-1.13-7.81-3.37-10.81-2.25-3-6.34-5.6-12.26-7.8l-15.02-5.4c-9.81-3.6-17.52-8.95-23.14-16.06-5.62-7.1-8.43-15.76-8.43-25.97,0-6.4,1.23-12.35,3.68-17.86,2.45-5.5,5.82-10.25,10.11-14.26,4.08-4,8.89-7.05,14.41-9.16,5.52-2.1,11.44-3.15,17.78-3.15s12.21,1.1,17.62,3.3c5.41,2.2,10.06,5.31,13.95,9.31,3.88,4.01,6.94,8.76,9.19,14.26,2.25,5.51,3.37,11.36,3.37,17.56h-29.42Z" style="fill:#f45b69; stroke-width:0px;"/><path d="m468.4,471.56v-46.23h31.26v46.23h19.31v24.02h-19.31v84.35c0,3.6.35,6.41,1.07,8.41.71,2,1.89,3.5,3.52,4.5,1.63,1,3.62,1.6,5.98,1.8,2.35.2,5.26.3,8.73.3v28.82h-12.87c-7.15,0-13.13-1.1-17.93-3.3-4.8-2.2-8.63-5-11.49-8.41-2.86-3.4-4.96-7.25-6.28-11.56-1.33-4.3-1.99-8.45-1.99-12.46v-92.46h-15.63v-24.02h15.63Z" style="fill:#f45b69; stroke-width:0px;"/><path d="m530.93,623.76v-152.2h31.26v16.21c6.33-5.6,12.57-10,18.7-13.21,6.13-3.2,13.69-4.8,22.68-4.8v32.42c-3.06-1.2-6.23-1.8-9.5-1.8s-6.8.55-10.57,1.65c-3.78,1.1-7.2,2.96-10.27,5.55-3.27,2.6-5.93,6-7.97,10.21-2.04,4.2-3.07,9.41-3.07,15.61v90.36h-31.26Z" style="fill:#f45b69; stroke-width:0px;"/><path d="m709.62,471.56v152.2h-31.26v-14.71h-.61c-3.27,4.8-7.2,8.76-11.8,11.86-4.6,3.1-10.47,4.65-17.62,4.65-3.88,0-7.77-.65-11.65-1.95-3.88-1.3-7.36-3.45-10.42-6.45-3.06-3-5.52-6.85-7.36-11.56-1.84-4.7-2.76-10.46-2.76-17.26v-116.78h31.26v105.37c0,5.61,1.33,10.01,3.98,13.21,2.65,3.2,6.44,4.8,11.34,4.8,5.92,0,10.01-1.8,12.26-5.4,2.25-3.6,3.37-8.8,3.37-15.61v-102.37h31.26Z" style="fill:#f45b69; stroke-width:0px;"/><path d="m735.36,623.76v-152.2h31.26v14.71h.61c3.27-4.8,7.2-8.75,11.8-11.86,4.6-3.1,10.47-4.65,17.62-4.65,6.74,0,12.36,1.6,16.86,4.8,4.49,3.2,8.17,6.71,11.03,10.51,3.88-4.2,8.17-7.81,12.87-10.81,4.7-3,11.23-4.5,19.62-4.5,3.88,0,7.86.65,11.95,1.95,4.08,1.3,7.76,3.45,11.03,6.45,3.27,3,5.92,6.86,7.97,11.56,2.04,4.71,3.06,10.46,3.06,17.26v116.78h-31.26v-105.37c0-5.6-1.33-10-3.98-13.21-2.66-3.2-6.44-4.8-11.34-4.8-5.93,0-10.01,1.8-12.26,5.4-2.25,3.6-3.37,8.81-3.37,15.61v102.37h-31.26v-105.37c0-5.6-1.33-10-3.98-13.21-2.66-3.2-6.44-4.8-11.34-4.8-5.93,0-10.01,1.8-12.26,5.4-2.25,3.6-3.37,8.81-3.37,15.61v102.37h-31.26Z" style="fill:#f45b69; stroke-width:0px;"/><path d="m1007.22,559.22h-61.91v20.71c0,4.8,1.38,8.51,4.14,11.11,2.76,2.6,6.48,3.9,11.19,3.9,5.92,0,9.86-1.7,11.8-5.1,1.94-3.4,3.11-6.8,3.52-10.21h31.26c0,13.41-4.19,24.22-12.57,32.42-4.09,4.2-8.99,7.5-14.71,9.91-5.72,2.4-12.16,3.6-19.31,3.6-9.81,0-18.14-2-24.98-6-6.85-4-12.11-9.31-15.78-15.91-2.25-4-3.78-8.6-4.6-13.81-.82-5.2-1.23-10.91-1.23-17.11v-50.13c0-6.2.41-11.9,1.23-17.11.81-5.2,2.35-9.8,4.6-13.81,3.68-6.6,8.94-11.9,15.78-15.91,6.84-4,15.17-6,24.98-6,7.15,0,13.64,1.2,19.46,3.6,5.82,2.4,10.78,5.7,14.87,9.91,8.17,9.01,12.26,20.31,12.26,33.92v42.03Zm-61.91-24.02h30.65v-17.41c0-5.8-1.38-10.15-4.14-13.06-2.76-2.9-6.49-4.35-11.19-4.35s-8.43,1.45-11.19,4.35c-2.76,2.9-4.14,7.26-4.14,13.06v17.41Z" style="fill:#f45b69; stroke-width:0px;"/><path d="m1030.21,623.76v-152.2h31.26v14.71h.61c3.27-4.8,7.2-8.75,11.8-11.86,4.6-3.1,10.47-4.65,17.62-4.65,3.88,0,7.76.65,11.65,1.95,3.88,1.3,7.36,3.45,10.42,6.45s5.52,6.86,7.36,11.56c1.84,4.71,2.76,10.46,2.76,17.26v116.78h-31.26v-105.37c0-5.6-1.33-10-3.98-13.21-2.66-3.2-6.44-4.8-11.34-4.8-5.93,0-10.01,1.8-12.26,5.4-2.25,3.6-3.37,8.81-3.37,15.61v102.37h-31.26Z" style="fill:#f45b69; stroke-width:0px;"/><path d="m1149.43,471.56v-46.23h31.26v46.23h19.31v24.02h-19.31v84.35c0,3.6.35,6.41,1.07,8.41.71,2,1.89,3.5,3.52,4.5,1.63,1,3.62,1.6,5.98,1.8,2.35.2,5.26.3,8.74.3v28.82h-12.87c-7.15,0-13.13-1.1-17.93-3.3-4.8-2.2-8.63-5-11.49-8.41-2.86-3.4-4.96-7.25-6.28-11.56-1.33-4.3-1.99-8.45-1.99-12.46v-92.46h-15.63v-24.02h15.63Z" style="fill:#f45b69; stroke-width:0px;"/><path d="m1271.11,623.76v-15.61h-.61c-4.09,5.61-8.23,9.91-12.41,12.91-4.19,3-10.07,4.5-17.62,4.5-3.68,0-7.41-.55-11.19-1.65-3.78-1.1-7.41-3.15-10.88-6.15-3.48-2.8-6.28-6.85-8.43-12.16-2.15-5.3-3.22-12.16-3.22-20.56s.71-16.16,2.15-22.66c1.43-6.5,4.09-11.96,7.97-16.36,3.68-4.2,8.68-7.35,15.02-9.46,6.33-2.1,14.41-3.15,24.21-3.15h3.37c1.23,0,2.35.1,3.37.3,1.02.2,2.25.3,3.68.3s2.96.1,4.6.3v-15.91c0-5.2-1.13-9.5-3.37-12.91-2.25-3.4-6.34-5.1-12.26-5.1-4.09,0-7.82,1.3-11.19,3.9-3.37,2.6-5.57,6.41-6.59,11.41h-30.34c.81-13.61,5.52-24.62,14.1-33.02,4.08-4,8.99-7.15,14.71-9.46,5.72-2.3,12.15-3.45,19.31-3.45,6.54,0,12.67,1,18.39,3,5.72,2,10.73,5,15.02,9.01,4.08,4.01,7.36,9.01,9.81,15.01,2.45,6,3.68,13.01,3.68,21.01v105.97h-31.26Zm0-65.44c-3.48-.6-6.34-.9-8.58-.9-6.74,0-12.52,1.55-17.32,4.65-4.8,3.1-7.2,8.76-7.2,16.96,0,5.81,1.43,10.51,4.29,14.11,2.86,3.6,6.84,5.4,11.95,5.4s9.45-1.7,12.41-5.1c2.96-3.4,4.44-8.2,4.44-14.41v-20.71Z" style="fill:#f45b69; stroke-width:0px;"/><path d="m1323.52,410.03h31.26v170.81c0,5.81,1.07,9.76,3.22,11.86,2.15,2.1,6.18,3.45,12.11,4.05v28.82c-7.15,0-13.59-.55-19.31-1.65-5.72-1.1-10.63-3.25-14.71-6.45-4.09-3-7.2-7.25-9.35-12.76-2.15-5.5-3.22-12.76-3.22-21.76v-172.91Z" style="fill:#f45b69; stroke-width:0px;"/><path d="m335.39,909.16l18.7-24.02c-5.52-.4-11.03-1.6-16.55-3.6-5.52-2-10.42-5-14.71-9.01-4.5-4-8.07-9.05-10.73-15.16-2.66-6.1-3.98-13.66-3.98-22.66v-117.68c0-7,1.23-13.51,3.68-19.51,2.45-6,5.92-11.21,10.42-15.61,4.49-4.4,9.86-7.85,16.09-10.36,6.23-2.5,13.13-3.75,20.69-3.75,14.71,0,26.67,4.7,35.86,14.11,4.49,4.61,8.02,10.06,10.57,16.36,2.55,6.3,3.83,13.16,3.83,20.56v12.01h-31.26v-10.21c0-6-1.74-11.21-5.21-15.61-3.48-4.4-8.17-6.6-14.1-6.6-7.77,0-12.93,2.35-15.48,7.05-2.56,4.7-3.83,10.66-3.83,17.86v109.27c0,6.21,1.38,11.41,4.14,15.61,2.76,4.2,7.71,6.3,14.87,6.3,2.04,0,4.24-.35,6.59-1.05,2.35-.7,4.54-1.85,6.59-3.45,1.84-1.6,3.37-3.8,4.6-6.6,1.23-2.8,1.84-6.3,1.84-10.51v-10.51h31.26v13.21c0,5.81-1.02,11.41-3.06,16.81-2.04,5.4-4.8,10.31-8.28,14.71-3.68,4.4-8.02,8.1-13.03,11.11-5.01,3-10.47,5.1-16.4,6.3l-13.18,16.81c1.63-.2,3.22-.35,4.75-.45,1.53-.1,3.11-.15,4.75-.15,5.1,0,9.3.7,12.57,2.1,3.27,1.4,5.92,3.2,7.97,5.4,2.04,2.4,3.47,4.9,4.29,7.5.81,2.6,1.23,5.1,1.23,7.5,0,4.8-1.18,8.95-3.52,12.46-2.35,3.5-5.36,6.35-9.04,8.56-3.68,2.2-7.72,3.8-12.11,4.8-4.4,1-8.73,1.5-13.03,1.5-5.93,0-11.45-.7-16.55-2.1-5.11-1.4-9.09-2.6-11.95-3.6l5.21-12.61c3.27,1.2,6.54,2.25,9.81,3.15,3.27.9,6.64,1.35,10.11,1.35,1.63,0,3.42-.15,5.36-.45,1.94-.3,3.73-.95,5.36-1.95,3.88-2,5.82-5.31,5.82-9.91,0-3.41-1.43-6.15-4.29-8.26-2.86-2.1-6.03-3.15-9.5-3.15-4.5,0-8.48.7-11.95,2.1l-5.21-6Z" style="fill:#3a7ca5; stroke-width:0px;"/><path d="m419.68,731.14h33.1l21.45,94.86h.61l21.15-94.86h32.18l-44.75,178.62c-1.64,6.8-3.94,12.41-6.9,16.81-2.96,4.4-6.39,8-10.27,10.81-3.88,2.8-8.02,4.75-12.41,5.85-4.4,1.1-8.94,1.65-13.64,1.65h-8.58v-28.82h7.05c3.06,0,5.72-.4,7.97-1.2,2.25-.8,4.29-2.6,6.13-5.4,1.63-2.8,3.17-6.75,4.6-11.86,1.43-5.1,3.06-12.16,4.9-21.16l-42.6-145.29Z" style="fill:#3a7ca5; stroke-width:0px;"/><path d="m645.25,756.66h-12.87v80.75c0,3.2.35,6.21,1.07,9.01.71,2.8,1.89,5.15,3.52,7.05,1.63,1.9,4.19,2.85,7.66,2.85h.61v28.82c-8.38,0-15.43-.95-21.15-2.85-5.72-1.9-10.27-4.8-13.64-8.71-3.37-3.9-5.78-8.9-7.2-15.01-1.43-6.1-2.15-13.36-2.15-21.76v-80.15h-27.89v126.68h-31.26v-126.68h-12.87v-25.52h116.16v25.52Z" style="fill:#3a7ca5; stroke-width:0px;"/><path d="m661.19,883.34v-213.74h31.26v76.25h.61c3.27-4.8,7.2-8.75,11.8-11.86,4.6-3.1,10.47-4.65,17.62-4.65,3.88,0,7.76.65,11.65,1.95,3.88,1.3,7.36,3.45,10.42,6.45s5.52,6.86,7.36,11.56c1.84,4.71,2.76,10.46,2.76,17.26v116.78h-31.26v-105.37c0-5.6-1.33-10-3.98-13.21-2.66-3.2-6.44-4.8-11.34-4.8-5.93,0-10.01,1.8-12.26,5.4-2.25,3.6-3.37,8.81-3.37,15.61v102.37h-31.26Z" style="fill:#3a7ca5; stroke-width:0px;"/><path d="m870.83,818.8h-61.91v20.71c0,4.8,1.38,8.51,4.14,11.11,2.76,2.6,6.48,3.9,11.19,3.9,5.92,0,9.86-1.7,11.8-5.1,1.94-3.4,3.11-6.8,3.52-10.21h31.26c0,13.41-4.19,24.22-12.57,32.42-4.09,4.2-8.99,7.5-14.71,9.91-5.72,2.4-12.16,3.6-19.31,3.6-9.81,0-18.14-2-24.98-6-6.85-4-12.11-9.31-15.78-15.91-2.25-4-3.78-8.6-4.6-13.81-.82-5.2-1.23-10.91-1.23-17.11v-50.13c0-6.2.41-11.9,1.23-17.11.81-5.2,2.35-9.8,4.6-13.81,3.68-6.6,8.94-11.9,15.78-15.91,6.84-4,15.17-6,24.98-6,7.15,0,13.64,1.2,19.46,3.6,5.82,2.4,10.78,5.7,14.87,9.91,8.17,9.01,12.26,20.31,12.26,33.92v42.03Zm-61.91-24.02h30.65v-17.41c0-5.8-1.38-10.15-4.14-13.06-2.76-2.9-6.49-4.35-11.19-4.35s-8.43,1.45-11.19,4.35c-2.76,2.9-4.14,7.26-4.14,13.06v17.41Z" style="fill:#3a7ca5; stroke-width:0px;"/><path d="m892.59,776.47c0-15.01,2.91-29.12,8.73-42.33,5.82-13.21,13.74-24.71,23.75-34.52,10.01-9.8,21.76-17.56,35.25-23.27,13.49-5.7,27.89-8.56,43.22-8.56s29.73,2.85,43.22,8.56c13.49,5.7,25.23,13.46,35.25,23.27,10.01,9.81,17.93,21.31,23.75,34.52s8.74,27.32,8.74,42.33-2.91,29.12-8.74,42.33-13.74,24.72-23.75,34.52c-10.01,9.81-21.76,17.56-35.25,23.27s-27.89,8.56-43.22,8.56-29.73-2.85-43.22-8.56-25.24-13.46-35.25-23.27c-10.01-9.8-17.93-21.31-23.75-34.52-5.82-13.21-8.73-27.32-8.73-42.33Zm199.83,0c0-12.21-2.35-23.72-7.05-34.52-4.7-10.81-11.03-20.21-19-28.22-7.97-8-17.37-14.36-28.2-19.06-10.83-4.7-22.37-7.05-34.63-7.05s-23.81,2.35-34.63,7.05c-10.83,4.7-20.23,11.06-28.2,19.06-7.97,8.01-14.3,17.41-19,28.22-4.7,10.81-7.05,22.32-7.05,34.52s2.35,23.72,7.05,34.52c4.7,10.81,11.03,20.22,19,28.22,7.97,8.01,17.36,14.36,28.2,19.06,10.83,4.7,22.37,7.05,34.63,7.05s23.8-2.35,34.63-7.05c10.83-4.7,20.23-11.06,28.2-19.06,7.97-8,14.3-17.41,19-28.22,4.7-10.81,7.05-22.31,7.05-34.52Zm-130.87,63.34v-126.68h49.04c29.62,0,44.44,11.91,44.44,35.72,0,6-.87,11.11-2.6,15.31-1.74,4.2-4.14,7.71-7.2,10.51-3.06,2.81-6.59,4.95-10.57,6.45s-8.23,2.55-12.72,3.15l37.09,55.54h-24.52l-37.09-54.94h-15.63v54.94h-20.23Zm20.23-108.67v35.72h22.99c10.01,0,17.52-1.45,22.53-4.35,5-2.9,7.51-7.75,7.51-14.56,0-5.8-2.2-10.06-6.59-12.76-4.4-2.7-10.07-4.05-17.01-4.05h-29.42Z" style="fill:#3a7ca5; stroke-width:0px;"/><path d="m1175.48,910.36v-25.22c-6.74-.8-12.93-2.6-18.54-5.4-5.62-2.8-10.47-6.4-14.56-10.81-8.58-9.01-12.87-20.31-12.87-33.92v-12.01h31.26v10.81c0,4.61,1.12,8.91,3.37,12.91,2.25,4.01,6.02,6.6,11.34,7.8v-69.04l-10.42-4.2c-13.49-5.4-22.53-12.56-27.12-21.46-4.6-8.9-6.9-20.06-6.9-33.47,0-15.21,3.68-28.27,11.03-39.18,7.36-10.91,18.49-17.36,33.41-19.36v-22.51h15.63v22.51c6.94.8,13.23,2.65,18.85,5.55,5.62,2.9,10.47,6.66,14.56,11.26,4.08,4.61,7.15,9.61,9.19,15.01,2.04,5.4,3.06,10.91,3.06,16.51v15.01h-31.26v-6.9c0-6.4-1.07-11.9-3.22-16.51-2.15-4.6-5.88-7.7-11.19-9.31v60.34l12.87,5.1c6.94,2.6,12.57,5.66,16.86,9.16,4.29,3.5,7.66,7.56,10.11,12.16,2.25,4.8,3.78,10.26,4.6,16.36.81,6.11,1.23,13.06,1.23,20.86,0,8.61-.77,16.56-2.3,23.87-1.53,7.31-4.04,13.66-7.51,19.06-3.68,5.61-8.43,10.11-14.25,13.51-5.82,3.41-13.03,5.5-21.61,6.3v25.22h-15.63Zm0-211.94c-5.32,2-8.84,5.51-10.57,10.51-1.74,5-2.6,10.71-2.6,17.11,0,7.2.71,12.66,2.15,16.36,1.43,3.71,5.1,6.96,11.03,9.76v-53.73Zm15.63,156.1c6.54-1.6,10.57-5.05,12.11-10.36,1.53-5.3,2.3-12.46,2.3-21.46,0-5-.15-9.2-.46-12.61-.31-3.4-.97-6.2-1.99-8.41-2.25-4.2-6.23-7.4-11.95-9.61v62.44Z" style="fill:#3a7ca5; stroke-width:0px;"/></g></svg>