<?xml version="1.0" encoding="UTF-8"?><svg id="a" xmlns="http://www.w3.org/2000/svg" xmlns:xlink="http://www.w3.org/1999/xlink" viewBox="0 0 1536 1024"><defs><filter id="b" filterUnits="userSpaceOnUse"><feOffset dx="8.58" dy="8.58"/><feGaussianBlur result="c" stdDeviation="0"/><feFlood flood-color="#000" flood-opacity="1"/><feComposite in2="c" operator="in"/><feComposite in="SourceGraphic"/></filter></defs><g style="filter:url(#b);"><path d="m136.27,651.53c-4.42,2.5-9.99,5.09-16.72,7.78-6.73,2.69-13.74,4.04-21.04,4.04-4.42,0-7.59-.39-9.51-1.15-1.92-.77-2.88-2.31-2.88-4.61,0-1.15.29-2.54.86-4.18.58-1.63,1.34-2.45,2.31-2.45.38,0,.86.29,1.44.86,1.15,1.54,2.88,2.41,5.19,2.59,2.31.19,4.8.29,7.5.29,4.04-.19,7.68-1.59,10.95-4.18,3.27-2.59,5.67-6.1,7.21-10.52.77-2.69,1.54-6.92,2.31-12.68.77-5.77,1.39-12.68,1.87-20.75.48-8.07.87-17.05,1.15-26.95.29-9.9.43-20.32.43-31.28,0-24.98-.67-44.44-2.02-58.37-1.35-13.93-3.08-21.95-5.19-24.07-2.12-1.73-4.76-2.88-7.93-3.46s-6.39-.86-9.66-.86c-1.54,0-3.08.05-4.61.14-1.54.1-2.79.14-3.75.14-1.15,0-2.07-.43-2.74-1.3-.68-.86-1.01-1.77-1.01-2.74,0-3.46,1.25-5.19,3.75-5.19,1.34,0,3.75.14,7.21.43,3.46.29,7.45.58,11.96.86,4.51.29,9.27.53,14.27.72,5,.19,9.51.29,13.55.29,5,0,9.66-.77,13.98-2.31,4.32-1.54,8.79-3.27,13.4-5.19,4.61-1.92,9.66-3.65,15.13-5.19,5.48-1.54,11.86-2.31,19.17-2.31,18.83,0,35.02,2.69,48.57,8.07,13.55,5.38,24.65,12.64,33.29,21.76,8.65,9.13,15.03,19.6,19.17,31.42,4.13,11.82,6.2,24.07,6.2,36.75,0,14.99-2.64,29.98-7.93,44.97-5.29,14.99-12.83,28.49-22.63,40.5-9.8,12.01-21.67,21.72-35.6,29.11-13.94,7.4-29.45,11.1-46.55,11.1-3.65,0-8.22-.34-13.69-1.01-5.48-.68-11.1-1.59-16.86-2.74-5.77-1.15-11.39-2.45-16.86-3.89s-10.04-2.93-13.69-4.47Zm67.74.29c11.34,0,21.23-2.74,29.69-8.22,8.45-5.48,15.52-12.68,21.19-21.62,5.67-8.94,9.95-19.17,12.83-30.7,2.88-11.53,4.32-23.35,4.32-35.46,0-12.87-1.59-25.61-4.76-38.19-3.17-12.58-8.03-23.83-14.56-33.73-6.54-9.9-14.66-17.87-24.36-23.93-9.71-6.05-21-9.08-33.87-9.08-2.12,0-4.71.24-7.78.72-3.08.48-6.05,1.4-8.94,2.74-2.88,1.35-5.48,3.08-7.78,5.19-2.31,2.12-3.85,4.81-4.61,8.07-.58,2.5-1.11,5.96-1.58,10.38-.48,4.42-.96,9.56-1.44,15.42-.48,5.86-.82,12.21-1.01,19.02-.19,6.82-.29,13.89-.29,21.19,0,16.53.05,30.37.14,41.51.09,11.15.24,20.18.43,27.1.19,6.92.43,12.06.72,15.42.29,3.36.53,5.62.72,6.77.58,3.27,1.97,6.49,4.18,9.66,2.21,3.17,5.09,6.1,8.65,8.79,3.55,2.69,7.68,4.86,12.4,6.49,4.71,1.63,9.95,2.45,15.71,2.45Z" style="fill:#3a7ca5; stroke-width:0px;"/><path d="m458.83,535.07c-2.12,1.73-4.61,3.89-7.5,6.49-2.88,2.59-5.91,5.09-9.08,7.5-3.17,2.41-6.39,4.47-9.66,6.2-3.27,1.73-6.44,2.59-9.51,2.59-2.69,0-5.09-.62-7.21-1.87-2.12-1.25-4.08-2.59-5.91-4.04-1.83-1.44-3.6-2.78-5.33-4.04-1.73-1.25-3.56-1.87-5.48-1.87-5.19,0-9.56,2.12-13.12,6.34-3.56,4.23-6.44,9.61-8.65,16.14-2.21,6.54-3.85,13.65-4.9,21.33-1.06,7.69-1.58,15.09-1.58,22.2,0,5.96.24,10.81.72,14.56.48,3.75,1.2,6.73,2.16,8.94.96,2.21,2.26,3.7,3.89,4.47,1.63.77,3.6,1.15,5.91,1.15,2.5,0,5.19-.38,8.07-1.15.58-.19,1.01.19,1.3,1.15.29.96.43,1.73.43,2.31,0,.39-.29.82-.87,1.3-.58.48-.96.72-1.15.72-4.23,1.73-8.55,3.6-12.97,5.62-4.42,2.02-8.07,3.7-10.95,5.04-2.69,1.15-5.91,2.4-9.66,3.75-3.75,1.34-6.97,2.02-9.66,2.02-3.08,0-5.62-.48-7.64-1.44-2.02-.96-3.03-1.92-3.03-2.88s.24-1.82.72-2.59c.48-.77.91-2.21,1.3-4.32.38-2.88.82-6.29,1.3-10.23.48-3.94.96-8.22,1.44-12.83.48-4.61.86-9.37,1.15-14.27s.43-9.75.43-14.56c0-10.76-.34-19.89-1.01-27.38-.68-7.5-1.87-13.55-3.6-18.16s-4.08-7.93-7.06-9.94c-2.98-2.02-6.77-3.03-11.39-3.03h-2.59c-.77,0-1.54.1-2.31.29-1.15,0-1.73-.58-1.73-1.73s.58-2.02,1.73-2.59c2.11-1.34,5.38-3.31,9.8-5.91,4.42-2.59,8.98-5.09,13.69-7.49,4.71-2.4,9.27-4.56,13.69-6.49,4.42-1.92,7.68-2.88,9.8-2.88,2.5,0,4.61.82,6.34,2.45,1.73,1.63,3.03,3.7,3.89,6.2.86,2.5,1.49,5.33,1.87,8.5.38,3.17.58,6.3.58,9.37,0,2.31-.05,4.71-.14,7.21-.1,2.5-.14,5.19-.14,8.07,8.65-12.68,16.43-22.53,23.35-29.55,6.92-7.01,13.45-10.52,19.6-10.52,2.31,0,4.56.96,6.77,2.88,2.21,1.92,4.56,4.09,7.06,6.49,2.5,2.41,5.09,4.57,7.78,6.49,2.69,1.92,5.48,2.88,8.36,2.88,2.5,0,4.32-.29,5.48-.86,1.15-.58,2.11-1.05,2.88-1.44,1.54,0,2.31,1.06,2.31,3.17v.29Z" style="fill:#3a7ca5; stroke-width:0px;"/><path d="m575.86,623.86c-2.12,2.31-5.38,5.48-9.8,9.51-4.42,4.04-9.76,8.07-16,12.11-6.25,4.04-13.21,7.49-20.9,10.38-7.69,2.88-15.85,4.32-24.5,4.32-7.88,0-15.57-1.2-23.06-3.6-7.5-2.4-14.22-6.05-20.18-10.95-5.96-4.9-10.71-11.14-14.27-18.74-3.56-7.59-5.33-16.67-5.33-27.24,0-8.65.58-16.09,1.73-22.34,1.15-6.24,2.69-11.72,4.61-16.43,1.92-4.71,4.08-8.74,6.49-12.11,2.4-3.36,4.85-6.39,7.35-9.08,3.07-3.46,6.82-6.72,11.24-9.8,4.42-3.07,9.17-5.86,14.27-8.36,5.09-2.5,10.47-4.47,16.14-5.91,5.67-1.44,11.39-2.16,17.15-2.16,10.38,0,18.49,1.73,24.36,5.19,5.86,3.46,8.79,8.27,8.79,14.41,0,3.85-1.15,7.4-3.46,10.67,1.92-.58,4.37-1.54,7.35-2.88,2.98-1.34,6-2.74,9.08-4.18,3.07-1.44,5.81-2.74,8.22-3.89,2.4-1.15,3.99-2.02,4.76-2.59.38-.38.82-.53,1.3-.43.48.1.72.43.72,1.01,0,2.5-.48,4.57-1.44,6.2-.96,1.63-2.12,2.93-3.46,3.89-3.08,1.92-7.49,4.32-13.26,7.21s-12.16,5.91-19.17,9.08c-7.02,3.17-14.27,6.34-21.76,9.51-7.5,3.17-14.56,6.2-21.19,9.08s-12.4,5.43-17.3,7.64c-4.9,2.21-8.21,3.8-9.95,4.76,0,6.54,1.3,12.64,3.89,18.3,2.59,5.67,6.2,10.62,10.81,14.85,4.61,4.23,10.13,7.54,16.57,9.94,6.44,2.41,13.5,3.6,21.19,3.6,6.92,0,13.16-.72,18.74-2.16,5.57-1.44,10.28-3.07,14.12-4.9,3.84-1.82,6.87-3.46,9.08-4.9,2.21-1.44,3.41-2.16,3.6-2.16.77,0,1.54.34,2.31,1.01.77.68,1.15,1.4,1.15,2.16Zm-101.47-44.1c3.27-1.15,6.96-2.54,11.1-4.18,4.13-1.63,8.17-3.41,12.11-5.33,3.94-1.92,7.54-3.75,10.81-5.48,3.26-1.73,5.76-3.27,7.49-4.61,3.46-2.5,5.19-6.72,5.19-12.68,0-2.31-.43-4.71-1.3-7.21-.86-2.5-2.16-4.76-3.89-6.77-1.73-2.02-3.85-3.65-6.34-4.9-2.5-1.25-5.29-1.87-8.36-1.87-2.69,0-5.58.91-8.65,2.74-3.08,1.83-5.96,4.81-8.65,8.94-2.69,4.13-4.95,9.61-6.77,16.43-1.83,6.82-2.74,15.13-2.74,24.93Z" style="fill:#3a7ca5; stroke-width:0px;"/><path d="m662.34,567.94c-1.15-5.95-2.5-11.29-4.04-16-1.54-4.71-3.46-8.65-5.77-11.82-2.31-3.17-5.09-5.57-8.36-7.21-3.27-1.63-7.31-2.45-12.11-2.45-4.23,0-8.12.77-11.67,2.31-3.56,1.54-6.63,3.36-9.22,5.48-2.59,2.12-4.61,4.23-6.05,6.34-1.44,2.12-2.26,3.75-2.45,4.9-.19,1.54-1.06,2.31-2.59,2.31-2.69,0-5.19-.96-7.49-2.88-2.31-1.92-3.46-4.23-3.46-6.92,0-1.54.19-2.69.58-3.46,4.42-2.5,9.8-5.19,16.14-8.07,6.34-2.88,12.92-5.57,19.75-8.07,6.82-2.5,13.59-4.56,20.32-6.2,6.72-1.63,12.78-2.45,18.16-2.45,8.07,0,14.27,1.15,18.59,3.46,4.32,2.31,7.54,5.58,9.66,9.8,2.11,4.23,3.41,9.18,3.89,14.85.48,5.67.91,11.77,1.3,18.3.58,9.8,1.34,19.27,2.31,28.39.96,9.13,2.4,17.2,4.32,24.21,1.92,7.02,4.37,12.68,7.35,17.01,2.98,4.32,6.68,6.49,11.1,6.49,2.11,0,4.42-.38,6.92-1.15,2.5-.77,4.9-1.68,7.21-2.74,2.31-1.05,4.37-2.11,6.2-3.17,1.82-1.05,3.03-1.77,3.6-2.16,1.73,0,2.78.86,3.17,2.59,0,.96-.19,1.83-.58,2.59-.39.39-1.83,1.35-4.32,2.88-2.5,1.54-5.58,3.36-9.22,5.48-3.65,2.12-7.69,4.37-12.11,6.77-4.42,2.41-8.79,4.66-13.12,6.77-4.32,2.12-8.31,3.84-11.96,5.19-3.65,1.34-6.54,2.02-8.65,2.02-2.5,0-4.66-1.01-6.49-3.03-1.83-2.02-3.41-4.71-4.76-8.07-1.35-3.36-2.5-7.25-3.46-11.67-.96-4.42-1.83-9.03-2.59-13.84-3.46,2.88-7.88,6.3-13.26,10.23-5.38,3.94-11.24,7.64-17.58,11.1-6.34,3.46-12.83,6.39-19.46,8.79-6.63,2.4-13.02,3.6-19.17,3.6-5.19,0-9.71-.82-13.55-2.45-3.85-1.63-7.06-3.79-9.66-6.49-2.59-2.69-4.52-5.81-5.76-9.37-1.25-3.55-1.87-7.25-1.87-11.1,0-6.15,1.87-11.19,5.62-15.13,3.75-3.94,9.56-8.02,17.44-12.25,3.65-1.92,8.74-4.47,15.28-7.64,6.53-3.17,13.21-6.39,20.03-9.66,6.82-3.27,13.16-6.39,19.03-9.37,5.86-2.98,10.13-5.33,12.83-7.06Zm8.36,44.68c-.58-3.27-1.15-6.82-1.73-10.67-.58-3.84-1.15-7.5-1.73-10.95-.58-3.46-1.11-6.44-1.58-8.94-.48-2.5-.82-4.13-1.01-4.9-3.08,1.15-6.54,2.5-10.38,4.04-3.85,1.54-7.69,3.22-11.53,5.04-3.85,1.83-7.5,3.65-10.95,5.48-3.46,1.83-6.34,3.51-8.65,5.04-4.42,2.88-7.78,5.77-10.09,8.65-2.31,2.88-3.46,6.34-3.46,10.38,0,5.58,1.63,10.48,4.9,14.7,3.27,4.23,8.36,6.34,15.28,6.34,3.65,0,7.45-.67,11.39-2.02,3.94-1.34,7.59-2.88,10.95-4.61,3.36-1.73,6.29-3.46,8.79-5.19,2.5-1.73,4.23-3.07,5.19-4.04,1.54-1.54,2.74-2.83,3.6-3.89.87-1.05,1.2-2.54,1.01-4.47Z" style="fill:#3a7ca5; stroke-width:0px;"/><path d="m1004.21,632.51c.58,0,.96.34,1.15,1.01.19.68.29,1.49.29,2.45s-.19,1.59-.58,1.87c-.39.29-.77.63-1.15,1.01-1.35.77-4.57,2.4-9.66,4.9-5.09,2.5-10.76,5.04-17.01,7.64-6.25,2.59-12.4,4.9-18.45,6.92-6.05,2.02-10.62,3.03-13.69,3.03-2.69,0-5.24-.58-7.64-1.73-2.41-1.15-3.41-2.98-3.03-5.48.38-1.54.82-3.84,1.3-6.92.48-3.07.91-6.82,1.3-11.24.38-5.57.81-12.01,1.3-19.31.48-7.3.72-15.37.72-24.21,0-10.38-.68-18.98-2.02-25.8-1.35-6.82-3.27-12.25-5.77-16.29-2.5-4.04-5.58-6.87-9.22-8.5-3.65-1.63-7.88-2.45-12.68-2.45-4.42,0-8.17.72-11.24,2.16-3.08,1.44-5.76,3.03-8.07,4.76-4.23,3.27-7.54,7.45-9.94,12.54-2.41,5.09-3.89,11.77-4.47,20.03-.19,2.12-.34,4.23-.43,6.34-.1,2.12-.19,4.42-.29,6.92-.1,2.5-.19,5.29-.29,8.36-.1,3.08-.14,6.73-.14,10.95,0,11.34.91,19.22,2.74,23.64,1.82,4.42,4.95,6.63,9.37,6.63,1.54,0,2.5-.04,2.88-.14.38-.09,1.15-.24,2.31-.43.38.39.77.86,1.15,1.44.58.96.48,2.02-.29,3.17-.96,1.15-3.27,2.64-6.92,4.47-3.65,1.83-7.69,3.51-12.11,5.04-4.42,1.54-8.75,2.88-12.97,4.04-4.23,1.15-7.4,1.73-9.51,1.73-2.69,0-5.14-.34-7.35-1.01-2.21-.68-3.32-1.49-3.32-2.45,0-1.15.38-2.5,1.15-4.04.58-.96,1.15-3.27,1.73-6.92.58-3.65,1.1-8.36,1.59-14.12.48-5.77.91-12.44,1.3-20.03.38-7.59.58-15.8.58-24.65,0-4.61-.24-9.7-.72-15.28-.48-5.57-1.68-10.81-3.6-15.71-1.92-4.9-4.76-9.03-8.5-12.4-3.75-3.36-8.89-5.04-15.42-5.04-3.85,0-7.31.53-10.38,1.59-3.08,1.06-5.67,2.36-7.78,3.89-4.23,3.27-7.83,7.31-10.81,12.11-2.98,4.81-4.95,11.63-5.91,20.47-.39,4.04-.77,8.22-1.15,12.54-.39,4.32-.58,9.27-.58,14.85,0,7.31.19,13.36.58,18.16.38,4.81,1.05,8.6,2.02,11.39.96,2.79,2.11,4.71,3.46,5.77,1.34,1.06,3.07,1.59,5.19,1.59s3.55-.19,4.32-.58c.96-.38,1.63.19,2.02,1.73.38,1.54.29,2.5-.29,2.88-.77.77-2.79,1.97-6.05,3.6-3.27,1.63-7.02,3.31-11.24,5.04-4.23,1.73-8.55,3.27-12.97,4.61-4.42,1.34-8.17,2.02-11.24,2.02-3.27,0-5.81-.39-7.64-1.15-1.83-.77-2.74-1.64-2.74-2.59,0-.19.19-.82.58-1.87.38-1.05.67-1.97.86-2.74.77-5.95,1.49-11.48,2.16-16.58.67-5.09,1.15-10.62,1.44-16.57.29-5.95.53-12.78.72-20.47.19-7.68.29-17.01.29-27.96s-1.68-18.35-5.04-23.35c-3.37-5-6.87-7.49-10.52-7.49-1.54,0-2.84.14-3.89.43-1.06.29-2.07.53-3.03.72-1.15.19-1.73-.38-1.73-1.73v-2.02c.19-.19,2.11-1.54,5.77-4.04,3.65-2.5,7.97-5.19,12.97-8.07,5-2.88,10.18-5.52,15.57-7.93,5.38-2.4,9.8-3.6,13.26-3.6,2.31,0,4.27.68,5.91,2.02,1.63,1.35,2.45,3.85,2.45,7.49,0,1.73-.05,3.65-.14,5.77-.1,2.12-.19,4.32-.29,6.63-.1,2.31-.24,4.57-.43,6.77-.19,2.21-.29,4.08-.29,5.62,2.69-2.5,6.1-5.77,10.23-9.8,4.13-4.04,8.79-7.88,13.98-11.53,5.19-3.65,10.81-6.82,16.86-9.51,6.05-2.69,12.44-4.04,19.17-4.04,8.84,0,16.04,2.59,21.62,7.78,5.57,5.19,8.55,14.22,8.94,27.1,3.07-2.88,6.82-6.34,11.24-10.38,4.42-4.04,9.37-7.88,14.85-11.53,5.48-3.65,11.29-6.72,17.44-9.22,6.15-2.5,12.4-3.75,18.74-3.75,22.29,0,33.44,11.82,33.44,35.46,0,3.85-.19,8.26-.58,13.26-.39,5-.86,10.23-1.44,15.71-.58,5.48-1.06,10.91-1.44,16.29-.39,5.38-.58,10.28-.58,14.7,0,19.99,5.28,29.98,15.85,29.98,1.73,0,3.65-.24,5.76-.72,2.11-.48,4.23-1.05,6.34-1.73,2.11-.67,4.04-1.34,5.77-2.02,1.73-.67,2.98-1.3,3.75-1.87h.29Z" style="fill:#3a7ca5; stroke-width:0px;"/><path d="m296.25,658.45c2.69,0,4.47.63,5.33,1.87.86,1.25,1.3,3.22,1.3,5.91-9.8,9.8-16.91,21.96-21.33,36.47-4.42,14.51-6.73,31.38-6.92,50.59,0,.58-.48,1.15-1.44,1.73-.96.58-1.97,1.01-3.03,1.3-1.06.29-2.07.39-3.03.29-.96-.09-1.44-.62-1.44-1.59,0-.77.04-1.73.14-2.88.09-1.15.14-2.4.14-3.75,0-4.61-1.54-9.9-4.61-15.85-3.08-5.95-7.31-11.67-12.68-17.15-5.38-5.48-11.67-10.09-18.88-13.84-7.21-3.75-14.94-5.62-23.21-5.62-11.34,0-21.38,2.55-30.12,7.64-8.75,5.09-16.1,11.87-22.05,20.32-5.96,8.46-10.52,18.3-13.69,29.55s-4.76,23.02-4.76,35.31c0,13.84,1.87,26.86,5.62,39.06,3.75,12.21,8.98,22.87,15.71,32,6.72,9.13,14.85,16.39,24.36,21.76,9.51,5.38,19.93,8.07,31.28,8.07,7.68,0,14.6-1.3,20.75-3.89,6.15-2.59,11.34-6.15,15.57-10.67,4.23-4.51,7.5-9.85,9.8-16,2.31-6.15,3.46-12.78,3.46-19.89,0-5.77-.87-11.58-2.59-17.44-1.73-5.86-4.13-11.14-7.21-15.85-3.08-4.71-6.63-8.55-10.67-11.53-4.04-2.98-8.46-4.47-13.26-4.47-2.88,0-5.77.34-8.65,1.01-2.88.68-5.48,1.73-7.78,3.17-2.31,1.44-4.13,3.22-5.48,5.33-1.35,2.12-2.02,4.71-2.02,7.78,0,2.31.38,4.47,1.15,6.49.77,2.02,1.73,3.75,2.88,5.19,1.15,1.44,2.31,2.59,3.46,3.46,1.15.86,2.11,1.2,2.88,1.01.96-.19,1.68.24,2.16,1.3.48,1.06.53,1.78.14,2.16-.96,1.15-4.23,2.55-9.8,4.18-5.58,1.64-12.21,2.45-19.89,2.45-6.92,0-12.35-2.21-16.29-6.63-3.94-4.42-5.91-9.51-5.91-15.28,0-3.65,1.82-7.35,5.48-11.1,3.65-3.75,8.65-7.11,14.99-10.09,6.34-2.98,13.74-5.43,22.2-7.35,8.45-1.92,17.48-2.88,27.1-2.88,10.38,0,19.6,1.15,27.67,3.46,8.07,2.31,14.89,5.48,20.47,9.51,5.57,4.04,9.8,8.75,12.68,14.12,2.88,5.38,4.32,11.05,4.32,17.01,0,9.22-2.69,18.4-8.07,27.53-5.38,9.13-12.49,17.3-21.33,24.5-8.84,7.21-18.98,13.07-30.41,17.58-11.44,4.51-23.21,6.77-35.31,6.77-18.45,0-34.74-2.5-48.86-7.49s-25.9-12.01-35.31-21.04c-9.42-9.03-16.53-19.7-21.33-32-4.81-12.3-7.21-25.84-7.21-40.65,0-15.95,3.27-30.94,9.8-44.97,6.53-14.03,15.47-26.33,26.81-36.9,11.34-10.57,24.69-18.88,40.07-24.93,15.37-6.05,32-9.08,49.87-9.08,13.84,0,25.27,1.35,34.3,4.04,9.03,2.69,16.33,4.9,21.91,6.63.77-1.92,1.87-4.66,3.31-8.22,1.44-3.55,3.07-7.16,4.9-10.81,1.82-3.65,3.79-7.06,5.91-10.23,2.11-3.17,4.32-5.33,6.63-6.49Z" style="fill:#f45b69; stroke-width:0px;"/><path d="m402.33,805.17c-1.15-5.95-2.5-11.29-4.04-16-1.54-4.71-3.46-8.65-5.77-11.82-2.31-3.17-5.09-5.57-8.36-7.21-3.27-1.63-7.31-2.45-12.11-2.45-4.23,0-8.12.77-11.67,2.31-3.56,1.54-6.63,3.36-9.22,5.48-2.59,2.12-4.61,4.23-6.05,6.34-1.44,2.12-2.26,3.75-2.45,4.9-.19,1.54-1.06,2.31-2.59,2.31-2.69,0-5.19-.96-7.49-2.88-2.31-1.92-3.46-4.23-3.46-6.92,0-1.54.19-2.69.58-3.46,4.42-2.5,9.8-5.19,16.14-8.07,6.34-2.88,12.92-5.57,19.75-8.07,6.82-2.5,13.59-4.56,20.32-6.2,6.72-1.63,12.78-2.45,18.16-2.45,8.07,0,14.27,1.15,18.59,3.46,4.32,2.31,7.54,5.58,9.66,9.8,2.11,4.23,3.41,9.18,3.89,14.85.48,5.67.91,11.77,1.3,18.3.58,9.8,1.34,19.27,2.31,28.39.96,9.13,2.4,17.2,4.32,24.21,1.92,7.02,4.37,12.68,7.35,17.01,2.98,4.32,6.68,6.49,11.1,6.49,2.11,0,4.42-.38,6.92-1.15,2.5-.77,4.9-1.68,7.21-2.74,2.31-1.05,4.37-2.11,6.2-3.17,1.82-1.05,3.03-1.77,3.6-2.16,1.73,0,2.78.86,3.17,2.59,0,.96-.19,1.83-.58,2.59-.39.39-1.83,1.35-4.32,2.88-2.5,1.54-5.58,3.36-9.22,5.48-3.65,2.12-7.69,4.37-12.11,6.77-4.42,2.41-8.79,4.66-13.12,6.77-4.32,2.12-8.31,3.84-11.96,5.19-3.65,1.34-6.54,2.02-8.65,2.02-2.5,0-4.66-1.01-6.49-3.03-1.83-2.02-3.41-4.71-4.76-8.07-1.35-3.36-2.5-7.25-3.46-11.67-.96-4.42-1.83-9.03-2.59-13.84-3.46,2.88-7.88,6.3-13.26,10.23-5.38,3.94-11.24,7.64-17.58,11.1-6.34,3.46-12.83,6.39-19.46,8.79-6.63,2.4-13.02,3.6-19.17,3.6-5.19,0-9.71-.82-13.55-2.45-3.85-1.63-7.06-3.79-9.66-6.49-2.59-2.69-4.52-5.81-5.76-9.37-1.25-3.55-1.87-7.25-1.87-11.1,0-6.15,1.87-11.19,5.62-15.13,3.75-3.94,9.56-8.02,17.44-12.25,3.65-1.92,8.74-4.47,15.28-7.64,6.53-3.17,13.21-6.39,20.03-9.66,6.82-3.27,13.16-6.39,19.03-9.37,5.86-2.98,10.13-5.33,12.83-7.06Zm8.36,44.68c-.58-3.27-1.15-6.82-1.73-10.67-.58-3.84-1.15-7.5-1.73-10.95-.58-3.46-1.11-6.44-1.58-8.94-.48-2.5-.82-4.13-1.01-4.9-3.08,1.15-6.54,2.5-10.38,4.04-3.85,1.54-7.69,3.22-11.53,5.04-3.85,1.83-7.5,3.65-10.95,5.48-3.46,1.83-6.34,3.51-8.65,5.04-4.42,2.88-7.78,5.77-10.09,8.65-2.31,2.88-3.46,6.34-3.46,10.38,0,5.58,1.63,10.48,4.9,14.7,3.27,4.23,8.36,6.34,15.28,6.34,3.65,0,7.45-.67,11.39-2.02,3.94-1.34,7.59-2.88,10.95-4.61,3.36-1.73,6.29-3.46,8.79-5.19,2.5-1.73,4.23-3.07,5.19-4.04,1.54-1.54,2.74-2.83,3.6-3.89.87-1.05,1.2-2.54,1.01-4.47Z" style="fill:#f45b69; stroke-width:0px;"/><path d="m571.82,865.42c1.15.77,1.73,1.73,1.73,2.88,0,1.54-2.21,3.56-6.63,6.05-4.61,2.69-10.71,5.86-18.3,9.51-7.59,3.65-15.13,6.82-22.63,9.51-3.65,1.35-6.92,2.5-9.8,3.46-2.88.96-5.48,1.44-7.78,1.44-2.69,0-6.01-.63-9.95-1.87-3.94-1.25-7.35-2.74-10.23-4.47-2.31-1.54-4.13-2.74-5.48-3.6-1.35-.86-2.02-1.77-2.02-2.74,0-.77.24-1.49.72-2.16.48-.67.91-1.49,1.3-2.45.19-.58.38-1.34.58-2.31.19-.96.29-1.92.29-2.88.58-4.8,1.2-11.77,1.87-20.9.67-9.12,1.2-19.21,1.58-30.27.38-11.05.72-22.48,1.01-34.3.29-11.82.43-22.82.43-33.01,0-12.49-.05-22.58-.14-30.27-.1-7.68-.34-13.84-.72-18.45-.58-6.34-1.35-10.52-2.31-12.54-.96-2.02-2.02-3.5-3.17-4.47-1.35-1.15-2.64-1.87-3.89-2.16-1.25-.29-2.41-.48-3.46-.58-1.06-.09-1.92-.14-2.59-.14s-1.01-.19-1.01-.58c0-6.34,2.69-9.51,8.07-9.51,4.04,0,8.79.05,14.27.14,5.48.1,10.04.14,13.69.14,2.31,0,4.76-.14,7.35-.43,2.59-.29,5.14-.58,7.64-.87,2.5-.29,4.8-.62,6.92-1.01,2.11-.38,3.65-.77,4.61-1.15.77-.19,1.39.1,1.87.86.48.77.77,1.73.87,2.88.09,1.15-.1,2.21-.58,3.17-.48.96-1.11,1.54-1.87,1.73-1.15.19-2.16.29-3.03.29s-2.36.39-4.47,1.15c-.96.39-1.83,1.59-2.59,3.6-.77,2.02-1.44,5.19-2.02,9.51-.58,4.32-1.15,9.99-1.73,17.01-.58,7.02-1.15,15.81-1.73,26.38-.58,8.46-1.01,17.06-1.3,25.8-.29,8.75-.58,17.25-.87,25.51-.29,8.26-.48,15.95-.58,23.06-.1,7.11-.14,13.17-.14,18.16,0,5.58.04,11.2.14,16.86.09,5.67.62,10.14,1.58,13.4.96,3.08,3.46,5.96,7.5,8.65,4.04,2.69,8.26,4.04,12.68,4.04,3.46,0,7.01-.48,10.67-1.44,3.65-.96,7.01-2.11,10.09-3.46,3.07-1.34,5.81-2.69,8.21-4.04,2.4-1.34,4.18-2.4,5.33-3.17Z" style="fill:#f45b69; stroke-width:0px;"/><path d="m651.09,865.42c1.15.77,1.73,1.73,1.73,2.88,0,1.54-2.21,3.56-6.63,6.05-4.61,2.69-10.71,5.86-18.3,9.51-7.59,3.65-15.13,6.82-22.63,9.51-3.65,1.35-6.92,2.5-9.8,3.46-2.88.96-5.48,1.44-7.78,1.44-2.69,0-6.01-.63-9.95-1.87-3.94-1.25-7.35-2.74-10.23-4.47-2.31-1.54-4.13-2.74-5.48-3.6-1.35-.86-2.02-1.77-2.02-2.74,0-.77.24-1.49.72-2.16.48-.67.91-1.49,1.3-2.45.19-.58.38-1.34.58-2.31.19-.96.29-1.92.29-2.88.58-4.8,1.2-11.77,1.87-20.9.67-9.12,1.2-19.21,1.58-30.27.38-11.05.72-22.48,1.01-34.3.29-11.82.43-22.82.43-33.01,0-12.49-.05-22.58-.14-30.27-.1-7.68-.34-13.84-.72-18.45-.58-6.34-1.35-10.52-2.31-12.54-.96-2.02-2.02-3.5-3.17-4.47-1.35-1.15-2.64-1.87-3.89-2.16-1.25-.29-2.41-.48-3.46-.58-1.06-.09-1.92-.14-2.59-.14s-1.01-.19-1.01-.58c0-6.34,2.69-9.51,8.07-9.51,4.04,0,8.79.05,14.27.14,5.48.1,10.04.14,13.69.14,2.31,0,4.76-.14,7.35-.43,2.59-.29,5.14-.58,7.64-.87,2.5-.29,4.8-.62,6.92-1.01,2.11-.38,3.65-.77,4.61-1.15.77-.19,1.39.1,1.87.86.48.77.77,1.73.87,2.88.09,1.15-.1,2.21-.58,3.17-.48.96-1.11,1.54-1.87,1.73-1.15.19-2.16.29-3.03.29s-2.36.39-4.47,1.15c-.96.39-1.83,1.59-2.59,3.6-.77,2.02-1.44,5.19-2.02,9.51-.58,4.32-1.15,9.99-1.73,17.01-.58,7.02-1.15,15.81-1.73,26.38-.58,8.46-1.01,17.06-1.3,25.8-.29,8.75-.58,17.25-.87,25.51-.29,8.26-.48,15.95-.58,23.06-.1,7.11-.14,13.17-.14,18.16,0,5.58.04,11.2.14,16.86.09,5.67.62,10.14,1.58,13.4.96,3.08,3.46,5.96,7.5,8.65,4.04,2.69,8.26,4.04,12.68,4.04,3.46,0,7.01-.48,10.67-1.44,3.65-.96,7.01-2.11,10.09-3.46,3.07-1.34,5.81-2.69,8.21-4.04,2.4-1.34,4.18-2.4,5.33-3.17Z" style="fill:#f45b69; stroke-width:0px;"/><path d="m766.68,861.1c-2.12,2.31-5.38,5.48-9.8,9.51-4.42,4.04-9.76,8.07-16,12.11-6.25,4.04-13.21,7.49-20.9,10.38-7.69,2.88-15.85,4.32-24.5,4.32-7.88,0-15.57-1.2-23.06-3.6-7.5-2.4-14.22-6.05-20.18-10.95-5.96-4.9-10.71-11.14-14.27-18.74-3.56-7.59-5.33-16.67-5.33-27.24,0-8.65.58-16.09,1.73-22.34,1.15-6.24,2.69-11.72,4.61-16.43,1.92-4.71,4.08-8.74,6.49-12.11,2.4-3.36,4.85-6.39,7.35-9.08,3.07-3.46,6.82-6.72,11.24-9.8,4.42-3.07,9.17-5.86,14.27-8.36,5.09-2.5,10.47-4.47,16.14-5.91,5.67-1.44,11.39-2.16,17.15-2.16,10.38,0,18.49,1.73,24.36,5.19,5.86,3.46,8.79,8.27,8.79,14.41,0,3.85-1.15,7.4-3.46,10.67,1.92-.58,4.37-1.54,7.35-2.88,2.98-1.34,6-2.74,9.08-4.18,3.07-1.44,5.81-2.74,8.22-3.89,2.4-1.15,3.99-2.02,4.76-2.59.38-.38.82-.53,1.3-.43.48.1.72.43.72,1.01,0,2.5-.48,4.57-1.44,6.2-.96,1.63-2.12,2.93-3.46,3.89-3.08,1.92-7.49,4.32-13.26,7.21s-12.16,5.91-19.17,9.08c-7.02,3.17-14.27,6.34-21.76,9.51-7.5,3.17-14.56,6.2-21.19,9.08s-12.4,5.43-17.3,7.64c-4.9,2.21-8.21,3.8-9.95,4.76,0,6.54,1.3,12.64,3.89,18.3,2.59,5.67,6.2,10.62,10.81,14.85,4.61,4.23,10.13,7.54,16.57,9.94,6.44,2.41,13.5,3.6,21.19,3.6,6.92,0,13.16-.72,18.74-2.16,5.57-1.44,10.28-3.07,14.12-4.9,3.84-1.82,6.87-3.46,9.08-4.9,2.21-1.44,3.41-2.16,3.6-2.16.77,0,1.54.34,2.31,1.01.77.68,1.15,1.4,1.15,2.16Zm-101.47-44.1c3.27-1.15,6.96-2.54,11.1-4.18,4.13-1.63,8.17-3.41,12.11-5.33,3.94-1.92,7.54-3.75,10.81-5.48,3.26-1.73,5.76-3.27,7.49-4.61,3.46-2.5,5.19-6.72,5.19-12.68,0-2.31-.43-4.71-1.3-7.21-.86-2.5-2.16-4.76-3.89-6.77-1.73-2.02-3.85-3.65-6.34-4.9-2.5-1.25-5.29-1.87-8.36-1.87-2.69,0-5.58.91-8.65,2.74-3.08,1.83-5.96,4.81-8.65,8.94-2.69,4.13-4.95,9.61-6.77,16.43-1.83,6.82-2.74,15.13-2.74,24.93Z" style="fill:#f45b69; stroke-width:0px;"/><path d="m900.43,772.31c-2.12,1.73-4.61,3.89-7.5,6.49-2.88,2.59-5.91,5.09-9.08,7.5-3.17,2.41-6.39,4.47-9.66,6.2-3.27,1.73-6.44,2.59-9.51,2.59-2.69,0-5.09-.62-7.21-1.87-2.12-1.25-4.08-2.59-5.91-4.04-1.83-1.44-3.6-2.78-5.33-4.04-1.73-1.25-3.56-1.87-5.48-1.87-5.19,0-9.56,2.12-13.12,6.34-3.56,4.23-6.44,9.61-8.65,16.14-2.21,6.54-3.85,13.65-4.9,21.33-1.06,7.69-1.58,15.09-1.58,22.2,0,5.96.24,10.81.72,14.56.48,3.75,1.2,6.73,2.16,8.94.96,2.21,2.26,3.7,3.89,4.47,1.63.77,3.6,1.15,5.91,1.15,2.5,0,5.19-.38,8.07-1.15.58-.19,1.01.19,1.3,1.15.29.96.43,1.73.43,2.31,0,.39-.29.82-.87,1.3-.58.48-.96.72-1.15.72-4.23,1.73-8.55,3.6-12.97,5.62-4.42,2.02-8.07,3.7-10.95,5.04-2.69,1.15-5.91,2.4-9.66,3.75-3.75,1.34-6.97,2.02-9.66,2.02-3.08,0-5.62-.48-7.64-1.44-2.02-.96-3.03-1.92-3.03-2.88s.24-1.82.72-2.59c.48-.77.91-2.21,1.3-4.32.38-2.88.82-6.29,1.3-10.23.48-3.94.96-8.22,1.44-12.83.48-4.61.86-9.37,1.15-14.27s.43-9.75.43-14.56c0-10.76-.34-19.89-1.01-27.38-.68-7.5-1.87-13.55-3.6-18.16s-4.08-7.93-7.06-9.94c-2.98-2.02-6.77-3.03-11.39-3.03h-2.59c-.77,0-1.54.1-2.31.29-1.15,0-1.73-.58-1.73-1.73s.58-2.02,1.73-2.59c2.11-1.34,5.38-3.31,9.8-5.91,4.42-2.59,8.98-5.09,13.69-7.49,4.71-2.4,9.27-4.56,13.69-6.49,4.42-1.92,7.68-2.88,9.8-2.88,2.5,0,4.61.82,6.34,2.45,1.73,1.63,3.03,3.7,3.89,6.2.86,2.5,1.49,5.33,1.87,8.5.38,3.17.58,6.3.58,9.37,0,2.31-.05,4.71-.14,7.21-.1,2.5-.14,5.19-.14,8.07,8.65-12.68,16.43-22.53,23.35-29.55,6.92-7.01,13.45-10.52,19.6-10.52,2.31,0,4.56.96,6.77,2.88,2.21,1.92,4.56,4.09,7.06,6.49,2.5,2.41,5.09,4.57,7.78,6.49,2.69,1.92,5.48,2.88,8.36,2.88,2.5,0,4.32-.29,5.48-.86,1.15-.58,2.11-1.05,2.88-1.44,1.54,0,2.31,1.06,2.31,3.17v.29Z" style="fill:#f45b69; stroke-width:0px;"/><path d="m894.38,980.44c1.73-1.92,4.32-5.09,7.78-9.51,3.46-4.42,7.25-9.42,11.39-14.99,4.13-5.58,8.36-11.53,12.68-17.87,4.32-6.34,8.41-12.35,12.25-18.02,3.84-5.67,7.16-10.86,9.95-15.57,2.78-4.71,4.56-8.22,5.33-10.52-3.08-8.07-6.34-16.62-9.8-25.66-3.46-9.03-7.06-17.97-10.81-26.81-3.75-8.84-7.5-17.3-11.24-25.37-3.75-8.07-7.45-15.13-11.1-21.19-3.65-6.05-7.16-10.9-10.52-14.56-3.36-3.65-6.39-5.48-9.08-5.48-.77,0-1.63.24-2.59.72l-2.59,1.3c-.58.39-1.25-.09-2.02-1.44-.77-1.34-.77-2.21,0-2.59.77-.58,3.03-2.02,6.77-4.32,3.75-2.31,7.93-4.76,12.54-7.35,4.61-2.59,9.08-4.95,13.4-7.06,4.32-2.11,7.45-3.17,9.37-3.17s4.18,1.73,6.77,5.19c2.59,3.46,5.28,8.12,8.07,13.98,2.78,5.86,5.71,12.54,8.79,20.03,3.07,7.49,6.15,15.33,9.22,23.49,3.07,8.17,6.1,16.39,9.08,24.65,2.98,8.26,5.81,15.95,8.5,23.06,2.5-3.84,5.72-9.32,9.66-16.43,3.94-7.11,7.73-14.7,11.39-22.77,3.65-8.07,6.77-16.04,9.37-23.93,2.59-7.88,3.89-14.51,3.89-19.89s-1.35-9.56-4.04-11.96c-2.69-2.4-5.67-3.6-8.94-3.6-2.5,0-4.47.05-5.91.14-1.44.1-3.03.34-4.76.72-.39,0-.96-.24-1.73-.72-.77-.48-1.15-1.2-1.15-2.16s2.11-2.02,6.34-3.17c4.22-1.15,9.12-2.21,14.7-3.17,5.57-.96,11.05-1.77,16.43-2.45,5.38-.67,9.13-1.01,11.24-1.01,4.42,0,7.68.86,9.8,2.59,2.11,1.73,3.17,3.75,3.17,6.05-1.15,4.61-3.6,10.62-7.35,18.02-3.75,7.4-8.21,15.47-13.4,24.21-5.19,8.75-10.72,17.78-16.58,27.1-5.86,9.32-11.49,18.12-16.86,26.38-5.38,8.27-10.23,15.67-14.56,22.2-4.32,6.54-7.45,11.34-9.37,14.41-3.85,5.95-7.5,12.15-10.95,18.59-3.46,6.44-6.63,12.87-9.51,19.31-2.88,6.44-5.43,12.58-7.64,18.45-2.21,5.86-3.8,11.19-4.76,16-.58,2.88-.05,4.76,1.59,5.62,1.63.86,3.75,1.05,6.34.58,2.59-.48,5.43-1.4,8.5-2.74,3.07-1.35,5.67-2.88,7.78-4.61.96-.77,1.59-.91,1.87-.43.29.48.43,1.2.43,2.16s-.19,1.97-.58,3.03c-.39,1.05-.86,1.77-1.44,2.16-.19,0-2.41.86-6.63,2.59-4.23,1.73-9.32,3.6-15.28,5.62-5.96,2.02-12.25,3.89-18.88,5.62s-12.45,2.59-17.44,2.59-7.21-1.54-7.21-4.61c0-.39.04-.68.14-.86.09-.19.14-.39.14-.58Z" style="fill:#f45b69; stroke-width:0px;"/></g></svg>