<?xml version="1.0" encoding="UTF-8"?><svg id="a" xmlns="http://www.w3.org/2000/svg" viewBox="0 0 1536 1024"><path d="m1092.05,894.87c-84.3-63.1-170.59-128.38-258.84-195.82,72.95-55.56,150.83-113.86,233.73-174.98-25.97-3.6-42.3-13.19-49-28.76-73.11,56.52-148.25,114.06-225.4,172.62-78.32-60.03-158.17-121.75-239.56-185.16l45.86,104.84c48.37,34.87,99.14,72.17,152.19,111.78-88.76,67.16-180.12,135.63-274.13,205.44l113.28-16.21c62.16-49.86,129.58-102.65,202.13-158.3,88.78,66.81,183.8,139.96,285.09,219.46-3.46-25.98,1.42-44.28,14.64-54.9Z" style="stroke:#000; stroke-miterlimit:10; stroke-width:24.75px;"/><path d="m1092.05,894.87c-84.3-63.1-170.59-128.38-258.84-195.82,72.95-55.56,150.83-113.86,233.73-174.98-25.97-3.6-42.3-13.19-49-28.76-73.11,56.52-148.25,114.06-225.4,172.62-78.32-60.03-158.17-121.75-239.56-185.16l45.86,104.84c48.37,34.87,99.14,72.17,152.19,111.78-88.76,67.16-180.12,135.63-274.13,205.44l113.28-16.21c62.16-49.86,129.58-102.65,202.13-158.3,88.78,66.81,183.8,139.96,285.09,219.46-3.46-25.98,1.42-44.28,14.64-54.9Z" style="fill:#f45b69; stroke-width:0px;"/><path d="m458.36,565.73c-4.45,9.43-7.77,22.17-9.96,38.21-.43,2.76-.8,6.18-1.1,10.26,0,9.3.86,16.16,2.59,20.57,1.69,3.88,3.64,5.83,5.83,5.83,4.58,0,7.89-2.69,9.91-8.07,2.66-8.04,3.39-20.85,2.19-38.46,2.92-2.76,11.72-6.43,26.4-11.01,2.79-.73,4.98-1.1,6.58-1.1,4.82,16.47,6.53,33.82,5.13,52.05-.23,11.66-4.62,25.07-13.15,40.25-1.89,3.16-4.47,6.48-7.72,9.96-5.28,5.68-10.41,9.7-15.39,12.05-8.37,4.22-16.67,5.81-24.91,4.78-4.38-.66-8.67-2.46-12.85-5.38-4.08-2.62-7.99-7.19-11.71-13.7-3.65-6.11-6.71-14.53-9.17-25.25-1.76-6.77-2.74-14.48-2.94-23.11-.47-4.28.15-13.57,1.84-27.84,2.39-13.68,5.45-24.56,9.17-32.63,10.53-2.66,23.61-5.13,39.25-7.42Z" style="fill:#f2e863; stroke:#000; stroke-miterlimit:10; stroke-width:19.25px;"/><path d="m556.99,570.91c.86,30.98,1.48,51.03,1.84,60.12v29.64l.35,14.74,11.36-4.78c2.72-1.63,9.33-4.8,19.83-9.51,3.82-2.19,6.01-3.29,6.58-3.29-2.42,29.36-3.89,44.75-4.38,46.18-1.96,1-6.36,2.34-13.2,4.04-4.72,1.96-21.47,6.97-50.26,15.04-.47-15.14-1.43-30.77-2.89-46.87-1.69-16.14-3.16-29.7-4.38-40.7-1.69-16.64-3.79-34.14-6.28-52.5,13.88-3.69,27.7-7.72,41.44-12.1Z" style="fill:#f2e863; stroke:#000; stroke-miterlimit:10; stroke-width:19.25px;"/><path d="m691.19,520.65c-2.62,13.52-4.07,27.15-4.33,40.9-12.32,2.29-23.63,4.98-33.92,8.07-2.92,18.86-7.69,55.51-14.3,109.94-10.73,3.69-19.28,7.24-25.65,10.66-5.28,2.39-9.18,4.22-11.71,5.48,1.46-9.63,3.17-19.53,5.13-29.69,3.49-21.22,5.88-37.77,7.17-49.66l4.18-37.91c-10.99,2.26-23.73,6.23-38.21,11.91.36-5.28.63-11.21.8-17.78.23-11.92.12-21.2-.35-27.84,5.38-1.46,10.88-2.67,16.49-3.64,3.89-1,15.97-3.32,36.26-6.97,27.36-6.28,46.84-10.76,58.43-13.45Z" style="fill:#f2e863; stroke:#000; stroke-miterlimit:10; stroke-width:19.25px;"/><path d="m727.8,549.29c7.21.83,12.34,2.62,15.39,5.38,1.93,1.79,3.4,3.9,4.43,6.33.93,2.33,1.51,5.43,1.74,9.32-.76,5.91-3.98,11.01-9.66,15.29-7.01,4.88-15.01,7.67-24.01,8.37-5.01.23-10.05-1.83-15.09-6.18-2.66-2.52-4.1-6.56-4.33-12.1,0-10.86,5.38-18.7,16.14-23.51,4.81-1.73,9.95-2.69,15.39-2.89Zm24.21,48.77c.03,34.74.17,65.8.4,93.2-7.57,2.39-17.48,6.53-29.74,12.4-2.56.96-4.02,1.44-4.38,1.44-2.69-11.16-5.26-25.7-7.72-43.64-5.11-30.39-7.8-47.49-8.07-51.31,3.92-1.96,13.08-4.17,27.5-6.63,6.41-2.19,13.75-4.02,22.02-5.48Z" style="fill:#f2e863; stroke:#000; stroke-miterlimit:10; stroke-width:19.25px;"/><path d="m902.19,546.7c.5,23.68,1.36,44.08,2.59,61.22,2.66,21.49,5.36,39.62,8.12,54.4,2.16,15.41,4.22,26.87,6.18,34.37l-6.58,4.38c-7.31,4.35-16.85,10.46-28.64,18.33-1.2-3.88-2.42-12.93-3.69-27.12-1.26-14.2-3.7-30.58-7.32-49.14-.96-9.7-1.69-15.56-2.19-17.58.27,0,.4-.13.4-.4h-.4c-5.38,13.08-9.53,24.34-12.45,33.77-1.46,2.52-3.06,7.41-4.78,14.64h-1.84c-4.25,0-11.71.73-22.37,2.19-.73-1.33-3.29-7.67-7.67-19.03-7.14-15.94-11.29-25.72-12.45-29.34h-.4c0,1.99-.48,5.66-1.44,11.01h.35c0,.23-.12.35-.35.35-3.45,36.1-5.41,62.86-5.88,80.3-11.36-4.38-23.83-8.9-37.41-13.55,1-7.54,3.32-23.43,6.97-47.67,3.42-21.92,6.23-48.45,8.42-79.6,4.98-2.09,13.42-5.76,25.31-11.01,6.81-2.92,11.57-5.36,14.3-7.32,7.01,19.2,13.98,36.18,20.92,50.96,2.46-9.6,4.65-17.67,6.58-24.21l5.38-19.68c15.18-5.48,31.96-12.24,50.36-20.27Z" style="fill:#f2e863; stroke:#000; stroke-miterlimit:10; stroke-width:19.25px;"/><path d="m994.79,577.78c1.06,6.08,1.93,12.3,2.59,18.68l2.14,19.38.9,6.78c.23,1.99.56,4.52,1,7.57.73,5.58,1.21,9.13,1.44,10.66.5,2.36,1.08,6.94,1.74,13.75l1.79,16.69,1.35,10.51c.36,3.05.61,5.88.75,8.47.66,4.42,1,7.62,1,9.61-3.82,3.09-10.18,6.76-19.08,11.01l-11.41,7.32c-1.93-17.53-3.02-26.95-3.29-28.24l-.8-6.18c-3.32-1-9.17-2.59-17.53-4.78-3.62,10.53-6.67,17.24-9.17,20.12,0,.27-.12.4-.35.4-2.42-6.01-9.76-17.27-22.02-33.77,1.73-3.09,4.17-8.83,7.32-17.24,2.66-4.85,6.44-14.38,11.36-28.59l11.41-30.44c10.36-2.42,23.31-6.33,38.85-11.71Zm-24.26,55.29c-4.42,11.66-7.14,20.26-8.17,25.8,3.55,1.49,7.64,2.41,12.25,2.74-1.03-11.16-2.39-20.67-4.08-28.54Z" style="fill:#f2e863; stroke:#000; stroke-miterlimit:10; stroke-width:19.25px;"/><path d="m1121.12,520.65c-2.62,13.52-4.07,27.15-4.33,40.9-12.32,2.29-23.63,4.98-33.92,8.07-2.92,18.86-7.69,55.51-14.3,109.94-10.73,3.69-19.28,7.24-25.65,10.66-5.28,2.39-9.18,4.22-11.71,5.48,1.46-9.63,3.17-19.53,5.13-29.69,3.49-21.22,5.88-37.77,7.17-49.66l4.18-37.91c-10.99,2.26-23.73,6.23-38.21,11.91.36-5.28.63-11.21.8-17.78.23-11.92.12-21.2-.35-27.84,5.38-1.46,10.88-2.67,16.49-3.64,3.89-1,15.97-3.32,36.26-6.97,27.36-6.28,46.84-10.76,58.43-13.45Z" style="fill:#f2e863; stroke:#000; stroke-miterlimit:10; stroke-width:19.25px;"/><path d="m1222.29,548.14c-.37,6.71-.48,12.84-.35,18.38v4.73c-.07,2.33,0,4.95.2,7.87l.25,3.64c-1,.93-4.57,1.86-10.71,2.79-1.96.67-6.73,1.89-14.3,3.69-2.86,1.16-7.75,2.76-14.69,4.78-5.38,1.69-10.26,3.65-14.65,5.88.23,4.38.6,7.92,1.1,10.61,16.04-5.15,24.96-7.72,26.75-7.72l-.35,8.82c-.1,8.9.27,15.99,1.1,21.27l-23.81,8.42v1.1c0,2.09.23,4.67.7,7.72h.75c7.14-2.19,14.11-4.63,20.92-7.32,6.58-2.69,17.09-6.11,31.53-10.26,2.49-.73,4.45-1.1,5.88-1.1-.27,10.39-.4,18.33-.4,23.81v12.85c-5.01,0-23.1,6.11-54.25,18.33-10,3.22-19.54,6.76-28.64,10.61-.96-2.19-2.11-7.44-3.44-15.74-2.09-15.67-5.9-36.81-11.41-63.41-.37-1.89-1.16-6.56-2.39-14-3.65-15.31-5.48-24.34-5.48-27.1,2.92-1.2,12.82-3.77,29.69-7.72,19.56-5.18,41.56-12.15,66-20.92Z" style="fill:#f2e863; stroke:#000; stroke-miterlimit:10; stroke-width:19.25px;"/><path d="m280.75,685.61l-7.72,57.58c-8.3,0-16.99,2.69-26.05,8.07-11.29,9.46-17.63,16.55-19.03,21.27-5.15,14.08-3.69,23.86,4.38,29.34,1.63.4,3.7.76,6.23,1.1,7.54,0,16.22-4.04,26.05-12.1,3.42-3.42,5.13-5.5,5.13-6.23l13.55,36.66c-9.13,6.54-17.43,11.08-24.91,13.6-10.56,4.55-21.07,6.74-31.53,6.58-12.29-.8-23.18-4.83-32.68-12.1-2.96-2.52-5.51-5.46-7.67-8.82-3.06-5.68-4.96-10.98-5.73-15.89-2.06-14.45.7-30.04,8.27-46.77,3.52-7.7,8.78-15.77,15.79-24.21,9.1-10.83,19.61-20.49,31.53-28.99,9.93-6.74,18.73-11.39,26.4-13.95,9.37-3.39,15.36-5.1,17.98-5.13Z" style="fill:#f2e863; stroke:#000; stroke-miterlimit:10; stroke-width:19.25px;"/><path d="m345.41,655.57c-4.38,31.45-7.55,63.23-9.51,95.34,5.58-2.69,8.52-4.04,8.82-4.04,3.05-1.29,6.48-2.89,10.26-4.78,1.56-15.28,3.14-36.98,4.73-65.11,6.01-.56,19.09-5.15,39.25-13.75-11.86,81.56-18.7,139.94-20.52,175.14l-2.94,1.25c-6.77,3.19-11.91,5.88-15.39,8.07-5.28,2.82-10.41,5.88-15.39,9.17-.03-14.31,1.79-38.87,5.48-73.67l-19.58,7.37c-.4,4.12-1.54,18.06-3.44,41.84-7.37,3.12-13.77,5.78-19.18,7.97-7.47,2.69-13.22,4.76-17.24,6.23,6.94-63,11.84-122.89,14.7-179.67,10.19-1.93,23.51-5.71,39.95-11.36Z" style="fill:#f2e863; stroke:#000; stroke-miterlimit:10; stroke-width:19.25px;"/><path d="m463.37,700.2c1.06,6.08,1.93,12.3,2.59,18.68l2.14,19.38.9,6.78c.23,1.99.56,4.52,1,7.57.73,5.58,1.21,9.13,1.44,10.66.5,2.36,1.08,6.94,1.74,13.75l1.79,16.69,1.35,10.51c.36,3.05.61,5.88.75,8.47.66,4.42,1,7.62,1,9.61-3.82,3.09-10.18,6.76-19.08,11.01l-11.41,7.32c-1.93-17.53-3.02-26.95-3.29-28.24l-.8-6.18c-3.32-1-9.17-2.59-17.53-4.78-3.62,10.53-6.67,17.24-9.17,20.12,0,.27-.12.4-.35.4-2.42-6.01-9.76-17.27-22.02-33.77,1.73-3.09,4.17-8.83,7.32-17.24,2.66-4.85,6.44-14.38,11.36-28.59l11.41-30.44c10.36-2.42,23.31-6.33,38.85-11.71Zm-24.26,55.29c-4.42,11.66-7.14,20.26-8.17,25.8,3.55,1.49,7.64,2.41,12.25,2.74-1.03-11.16-2.39-20.67-4.08-28.54Z" style="fill:#f2e863; stroke:#000; stroke-miterlimit:10; stroke-width:19.25px;"/><path d="m623.02,669.12c.5,23.68,1.36,44.08,2.59,61.22,2.66,21.49,5.36,39.62,8.12,54.4,2.16,15.41,4.22,26.87,6.18,34.37l-6.58,4.38c-7.31,4.35-16.85,10.46-28.64,18.33-1.2-3.88-2.42-12.93-3.69-27.12-1.26-14.2-3.7-30.58-7.32-49.14-.96-9.7-1.69-15.56-2.19-17.58.27,0,.4-.13.4-.4h-.4c-5.38,13.08-9.53,24.34-12.45,33.77-1.46,2.52-3.06,7.41-4.78,14.64h-1.84c-4.25,0-11.71.73-22.37,2.19-.73-1.33-3.29-7.67-7.67-19.03-7.14-15.94-11.29-25.72-12.45-29.34h-.4c0,1.99-.48,5.66-1.44,11.01h.35c0,.23-.12.35-.35.35-3.45,36.1-5.41,62.86-5.88,80.3-11.36-4.38-23.83-8.9-37.41-13.55,1-7.54,3.32-23.43,6.97-47.67,3.42-21.92,6.23-48.45,8.42-79.6,4.98-2.09,13.42-5.76,25.31-11.01,6.81-2.92,11.57-5.36,14.3-7.32,7.01,19.2,13.98,36.18,20.92,50.96,2.46-9.6,4.65-17.67,6.58-24.21l5.38-19.68c15.18-5.48,31.96-12.24,50.36-20.27Z" style="fill:#f2e863; stroke:#000; stroke-miterlimit:10; stroke-width:19.25px;"/><path d="m730.21,677.94c12.62,11.03,11.76,26.67-2.59,46.92-7.14,10.83-14.84,18.65-23.11,23.46-8.34,5.25-13.95,8.55-16.84,9.91,2.69,9.83,6.73,21.69,12.1,35.57l.7,2.59c-18,11.82-28.88,18.78-32.63,20.87-9.3-39.98-16.64-72.74-22.02-98.28-3.42-14.18-5.25-22.37-5.48-24.56,11.59-10.03,28.46-17.85,50.61-23.46,14.21-2.52,27.3-.2,39.25,6.97Zm-48.77,58.68c15.11-7.8,22.43-14.78,21.97-20.92-1.06-4.15-3.62-6.34-7.67-6.58-7.34.23-14.06,2.79-20.17,7.67,1.03,7.34,2.99,13.95,5.88,19.83Z" style="fill:#f2e863; stroke:#000; stroke-miterlimit:10; stroke-width:19.25px;"/><path d="m785.46,671.71c7.21.83,12.34,2.62,15.39,5.38,1.93,1.79,3.4,3.9,4.43,6.33.93,2.33,1.51,5.43,1.74,9.32-.76,5.91-3.98,11.01-9.66,15.29-7.01,4.88-15.01,7.67-24.01,8.37-5.01.23-10.05-1.83-15.09-6.18-2.66-2.52-4.1-6.56-4.33-12.1,0-10.86,5.38-18.7,16.14-23.51,4.81-1.73,9.95-2.69,15.39-2.89Zm24.21,48.77c.03,34.74.17,65.8.4,93.2-7.57,2.39-17.48,6.53-29.74,12.4-2.56.96-4.02,1.44-4.38,1.44-2.69-11.16-5.26-25.7-7.72-43.64-5.11-30.39-7.8-47.49-8.07-51.31,3.92-1.96,13.08-4.17,27.5-6.63,6.41-2.19,13.75-4.02,22.02-5.48Z" style="fill:#f2e863; stroke:#000; stroke-miterlimit:10; stroke-width:19.25px;"/><path d="m891.76,718.83c6.11.93,11.77,3.67,16.99,8.22,6.14,6.84,10.29,15.16,12.45,24.96,1.03,6.01,1.21,12.02.55,18.03-.37,4.82-2.12,10.29-5.28,16.44-3.79,7.74-11.49,16.04-23.11,24.91-8.34,6.08-16.41,10.61-24.21,13.6-4.08,1.96-10.68,3.3-19.78,4.03-9.46-.86-16.94-5.63-22.42-14.3-3.65-6.58-5.48-13.91-5.48-22.02.07-8.73,2.03-17.9,5.88-27.5,3.55-7.77,6.86-13.76,9.91-17.98.83-1.59,3.52-4.76,8.07-9.51,5.78-5.98,13.47-11.36,23.06-16.14,6.24-2.49,14.03-3.4,23.36-2.74Zm-40.3,68.34c-.53,7.44,3.4,11.18,11.81,11.21,8.7-2.22,15.14-5.74,19.33-10.56,7.04-8.17,10.56-15.86,10.56-23.06-1.16-6.28-3.85-9.8-8.07-10.56-10.26,1.13-19.39,7.14-27.4,18.03-3.52,5.51-5.6,10.49-6.23,14.94Z" style="fill:#f2e863; stroke:#000; stroke-miterlimit:10; stroke-width:19.25px;"/><path d="m1049.21,676.44c-1.46,7.31-2.81,15.87-4.04,25.7l-13.2,123.58c-8.17,2.49-16.47,6.66-24.91,12.5-8.87-24.87-21.22-53.37-37.06-85.48l-1.34,23.71-.85,22.12c-8.83,3.92-20.94,8.8-36.31,14.65,2.19-18.73,3.69-35.28,4.48-49.66.66-13.45,2.22-35.52,4.68-66.2l33.03-15.39c6.58,14.91,13.9,30.19,21.97,45.83,3.09,5.28,5.91,10.16,8.47,14.64,1.89-13.12,3.79-29.17,5.68-48.17,14.71-5.81,27.84-11.76,39.4-17.83Z" style="fill:#f2e863; stroke:#000; stroke-miterlimit:10; stroke-width:19.25px;"/><path d="m1155.91,688.65c4.55.53,8.95,1.63,13.2,3.29-3.49,6.18-7.16,16.19-11.01,30.04-4.55-1.46-11.39-2.19-20.52-2.19-10.59.2-18.75,2.23-24.46,6.08-4.22,3.52-7.69,7.32-10.41,11.41-1.16,2.26-1.74,4.25-1.74,5.98.43,1.96,1.64,2.81,3.64,2.54,3.09.13,7.6-1.21,13.55-4.04,6.48-2.19,10.99-3.29,13.55-3.29,2.06-.46,4.91-.58,8.57-.35,5.08.13,9.53,1.01,13.35,2.64,3.62,1.39,6.71,3.93,9.27,7.62,2.02,2.59,3.6,6.13,4.73,10.61.93,7.41-.9,17.67-5.48,30.78-2.59,6.61-5.4,12.35-8.42,17.24-1.2,3.65-5.96,10.61-14.3,20.87-5.78,6.84-13.35,13.2-22.71,19.08-8.8,4.65-14.91,7.46-18.33,8.42-4.98,1.73-10.84,3.32-17.58,4.78-6.24,1.4-11.87,2.12-16.89,2.19-8.17-.07-13.75-1.08-16.74-3.04l-1.1-35.37c4.32,1.16,12.07,1.06,23.26-.3,8.33-.73,16.02-2.77,23.06-6.13,9.07-3.35,17.87-8.45,26.4-15.29,9.07-7.14,13.81-16.04,14.25-26.7-.57-6.78-4.8-8.73-12.7-5.88-7.34,2.92-12.34,4.63-14.99,5.13-5.55.5-9.89.32-13.03-.52-3.14-.85-6.73-3-10.79-6.45-1.06-.8-2.17-2.27-3.34-4.43-1.96-2.76-3.3-6.41-4.04-10.96-1.13-7.84.46-17,4.78-27.5,3.42-6.34,6.36-10.99,8.82-13.95,3.82-5.84,10.66-11.34,20.52-16.49,12.02-5.41,27.89-7.35,47.62-5.83Z" style="fill:#f2e863; stroke:#000; stroke-miterlimit:10; stroke-width:19.25px;"/><path d="m1223.86,655.57c-4.38,31.45-7.55,63.23-9.51,95.34,5.58-2.69,8.52-4.04,8.82-4.04,3.05-1.29,6.48-2.89,10.26-4.78,1.56-15.28,3.14-36.98,4.73-65.11,6.01-.56,19.09-5.15,39.25-13.75-11.86,81.56-18.7,139.94-20.52,175.14l-2.94,1.25c-6.77,3.19-11.91,5.88-15.39,8.07-5.28,2.82-10.41,5.88-15.39,9.17-.03-14.31,1.79-38.87,5.48-73.67l-19.58,7.37c-.4,4.12-1.54,18.06-3.44,41.84-7.37,3.12-13.77,5.78-19.18,7.97-7.47,2.69-13.22,4.76-17.24,6.23,6.94-63,11.84-122.89,14.7-179.67,10.19-1.93,23.51-5.71,39.95-11.36Z" style="fill:#f2e863; stroke:#000; stroke-miterlimit:10; stroke-width:19.25px;"/><path d="m1317.16,671.71c7.21.83,12.34,2.62,15.39,5.38,1.93,1.79,3.4,3.9,4.43,6.33.93,2.33,1.51,5.43,1.74,9.32-.76,5.91-3.98,11.01-9.66,15.29-7.01,4.88-15.01,7.67-24.01,8.37-5.01.23-10.05-1.83-15.09-6.18-2.66-2.52-4.1-6.56-4.33-12.1,0-10.86,5.38-18.7,16.14-23.51,4.81-1.73,9.95-2.69,15.39-2.89Zm24.21,48.77c.03,34.74.17,65.8.4,93.2-7.57,2.39-17.48,6.53-29.74,12.4-2.56.96-4.02,1.44-4.38,1.44-2.69-11.16-5.26-25.7-7.72-43.64-5.11-30.39-7.8-47.49-8.07-51.31,3.92-1.96,13.08-4.17,27.5-6.63,6.41-2.19,13.75-4.02,22.02-5.48Z" style="fill:#f2e863; stroke:#000; stroke-miterlimit:10; stroke-width:19.25px;"/><path d="m1442.58,677.94c12.62,11.03,11.76,26.67-2.59,46.92-7.14,10.83-14.84,18.65-23.11,23.46-8.34,5.25-13.95,8.55-16.84,9.91,2.69,9.83,6.73,21.69,12.1,35.57l.7,2.59c-18,11.82-28.88,18.78-32.63,20.87-9.3-39.98-16.64-72.74-22.02-98.28-3.42-14.18-5.25-22.37-5.48-24.56,11.59-10.03,28.46-17.85,50.61-23.46,14.21-2.52,27.3-.2,39.25,6.97Zm-48.77,58.68c15.11-7.8,22.43-14.78,21.97-20.92-1.06-4.15-3.62-6.34-7.67-6.58-7.34.23-14.06,2.79-20.17,7.67,1.03,7.34,2.99,13.95,5.88,19.83Z" style="fill:#f2e863; stroke:#000; stroke-miterlimit:10; stroke-width:19.25px;"/><path d="m458.36,565.73c-4.45,9.43-7.77,22.17-9.96,38.21-.43,2.76-.8,6.18-1.1,10.26,0,9.3.86,16.16,2.59,20.57,1.69,3.88,3.64,5.83,5.83,5.83,4.58,0,7.89-2.69,9.91-8.07,2.66-8.04,3.39-20.85,2.19-38.46,2.92-2.76,11.72-6.43,26.4-11.01,2.79-.73,4.98-1.1,6.58-1.1,4.82,16.47,6.53,33.82,5.13,52.05-.23,11.66-4.62,25.07-13.15,40.25-1.89,3.16-4.47,6.48-7.72,9.96-5.28,5.68-10.41,9.7-15.39,12.05-8.37,4.22-16.67,5.81-24.91,4.78-4.38-.66-8.67-2.46-12.85-5.38-4.08-2.62-7.99-7.19-11.71-13.7-3.65-6.11-6.71-14.53-9.17-25.25-1.76-6.77-2.74-14.48-2.94-23.11-.47-4.28.15-13.57,1.84-27.84,2.39-13.68,5.45-24.56,9.17-32.63,10.53-2.66,23.61-5.13,39.25-7.42Z" style="fill:#f2e863; stroke-width:0px;"/><path d="m556.99,570.91c.86,30.98,1.48,51.03,1.84,60.12v29.64l.35,14.74,11.36-4.78c2.72-1.63,9.33-4.8,19.83-9.51,3.82-2.19,6.01-3.29,6.58-3.29-2.42,29.36-3.89,44.75-4.38,46.18-1.96,1-6.36,2.34-13.2,4.04-4.72,1.96-21.47,6.97-50.26,15.04-.47-15.14-1.43-30.77-2.89-46.87-1.69-16.14-3.16-29.7-4.38-40.7-1.69-16.64-3.79-34.14-6.28-52.5,13.88-3.69,27.7-7.72,41.44-12.1Z" style="fill:#f2e863; stroke-width:0px;"/><path d="m691.19,520.65c-2.62,13.52-4.07,27.15-4.33,40.9-12.32,2.29-23.63,4.98-33.92,8.07-2.92,18.86-7.69,55.51-14.3,109.94-10.73,3.69-19.28,7.24-25.65,10.66-5.28,2.39-9.18,4.22-11.71,5.48,1.46-9.63,3.17-19.53,5.13-29.69,3.49-21.22,5.88-37.77,7.17-49.66l4.18-37.91c-10.99,2.26-23.73,6.23-38.21,11.91.36-5.28.63-11.21.8-17.78.23-11.92.12-21.2-.35-27.84,5.38-1.46,10.88-2.67,16.49-3.64,3.89-1,15.97-3.32,36.26-6.97,27.36-6.28,46.84-10.76,58.43-13.45Z" style="fill:#f2e863; stroke-width:0px;"/><path d="m727.8,549.29c7.21.83,12.34,2.62,15.39,5.38,1.93,1.79,3.4,3.9,4.43,6.33.93,2.33,1.51,5.43,1.74,9.32-.76,5.91-3.98,11.01-9.66,15.29-7.01,4.88-15.01,7.67-24.01,8.37-5.01.23-10.05-1.83-15.09-6.18-2.66-2.52-4.1-6.56-4.33-12.1,0-10.86,5.38-18.7,16.14-23.51,4.81-1.73,9.95-2.69,15.39-2.89Zm24.21,48.77c.03,34.74.17,65.8.4,93.2-7.57,2.39-17.48,6.53-29.74,12.4-2.56.96-4.02,1.44-4.38,1.44-2.69-11.16-5.26-25.7-7.72-43.64-5.11-30.39-7.8-47.49-8.07-51.31,3.92-1.96,13.08-4.17,27.5-6.63,6.41-2.19,13.75-4.02,22.02-5.48Z" style="fill:#f2e863; stroke-width:0px;"/><path d="m902.19,546.7c.5,23.68,1.36,44.08,2.59,61.22,2.66,21.49,5.36,39.62,8.12,54.4,2.16,15.41,4.22,26.87,6.18,34.37l-6.58,4.38c-7.31,4.35-16.85,10.46-28.64,18.33-1.2-3.88-2.42-12.93-3.69-27.12-1.26-14.2-3.7-30.58-7.32-49.14-.96-9.7-1.69-15.56-2.19-17.58.27,0,.4-.13.4-.4h-.4c-5.38,13.08-9.53,24.34-12.45,33.77-1.46,2.52-3.06,7.41-4.78,14.64h-1.84c-4.25,0-11.71.73-22.37,2.19-.73-1.33-3.29-7.67-7.67-19.03-7.14-15.94-11.29-25.72-12.45-29.34h-.4c0,1.99-.48,5.66-1.44,11.01h.35c0,.23-.12.35-.35.35-3.45,36.1-5.41,62.86-5.88,80.3-11.36-4.38-23.83-8.9-37.41-13.55,1-7.54,3.32-23.43,6.97-47.67,3.42-21.92,6.23-48.45,8.42-79.6,4.98-2.09,13.42-5.76,25.31-11.01,6.81-2.92,11.57-5.36,14.3-7.32,7.01,19.2,13.98,36.18,20.92,50.96,2.46-9.6,4.65-17.67,6.58-24.21l5.38-19.68c15.18-5.48,31.96-12.24,50.36-20.27Z" style="fill:#f2e863; stroke-width:0px;"/><path d="m994.79,577.78c1.06,6.08,1.93,12.3,2.59,18.68l2.14,19.38.9,6.78c.23,1.99.56,4.52,1,7.57.73,5.58,1.21,9.13,1.44,10.66.5,2.36,1.08,6.94,1.74,13.75l1.79,16.69,1.35,10.51c.36,3.05.61,5.88.75,8.47.66,4.42,1,7.62,1,9.61-3.82,3.09-10.18,6.76-19.08,11.01l-11.41,7.32c-1.93-17.53-3.02-26.95-3.29-28.24l-.8-6.18c-3.32-1-9.17-2.59-17.53-4.78-3.62,10.53-6.67,17.24-9.17,20.12,0,.27-.12.4-.35.4-2.42-6.01-9.76-17.27-22.02-33.77,1.73-3.09,4.17-8.83,7.32-17.24,2.66-4.85,6.44-14.38,11.36-28.59l11.41-30.44c10.36-2.42,23.31-6.33,38.85-11.71Zm-24.26,55.29c-4.42,11.66-7.14,20.26-8.17,25.8,3.55,1.49,7.64,2.41,12.25,2.74-1.03-11.16-2.39-20.67-4.08-28.54Z" style="fill:#f2e863; stroke-width:0px;"/><path d="m1121.12,520.65c-2.62,13.52-4.07,27.15-4.33,40.9-12.32,2.29-23.63,4.98-33.92,8.07-2.92,18.86-7.69,55.51-14.3,109.94-10.73,3.69-19.28,7.24-25.65,10.66-5.28,2.39-9.18,4.22-11.71,5.48,1.46-9.63,3.17-19.53,5.13-29.69,3.49-21.22,5.88-37.77,7.17-49.66l4.18-37.91c-10.99,2.26-23.73,6.23-38.21,11.91.36-5.28.63-11.21.8-17.78.23-11.92.12-21.2-.35-27.84,5.38-1.46,10.88-2.67,16.49-3.64,3.89-1,15.97-3.32,36.26-6.97,27.36-6.28,46.84-10.76,58.43-13.45Z" style="fill:#f2e863; stroke-width:0px;"/><path d="m1222.29,548.14c-.37,6.71-.48,12.84-.35,18.38v4.73c-.07,2.33,0,4.95.2,7.87l.25,3.64c-1,.93-4.57,1.86-10.71,2.79-1.96.67-6.73,1.89-14.3,3.69-2.86,1.16-7.75,2.76-14.69,4.78-5.38,1.69-10.26,3.65-14.65,5.88.23,4.38.6,7.92,1.1,10.61,16.04-5.15,24.96-7.72,26.75-7.72l-.35,8.82c-.1,8.9.27,15.99,1.1,21.27l-23.81,8.42v1.1c0,2.09.23,4.67.7,7.72h.75c7.14-2.19,14.11-4.63,20.92-7.32,6.58-2.69,17.09-6.11,31.53-10.26,2.49-.73,4.45-1.1,5.88-1.1-.27,10.39-.4,18.33-.4,23.81v12.85c-5.01,0-23.1,6.11-54.25,18.33-10,3.22-19.54,6.76-28.64,10.61-.96-2.19-2.11-7.44-3.44-15.74-2.09-15.67-5.9-36.81-11.41-63.41-.37-1.89-1.16-6.56-2.39-14-3.65-15.31-5.48-24.34-5.48-27.1,2.92-1.2,12.82-3.77,29.69-7.72,19.56-5.18,41.56-12.15,66-20.92Z" style="fill:#f2e863; stroke-width:0px;"/><path d="m280.75,685.61l-7.72,57.58c-8.3,0-16.99,2.69-26.05,8.07-11.29,9.46-17.63,16.55-19.03,21.27-5.15,14.08-3.69,23.86,4.38,29.34,1.63.4,3.7.76,6.23,1.1,7.54,0,16.22-4.04,26.05-12.1,3.42-3.42,5.13-5.5,5.13-6.23l13.55,36.66c-9.13,6.54-17.43,11.08-24.91,13.6-10.56,4.55-21.07,6.74-31.53,6.58-12.29-.8-23.18-4.83-32.68-12.1-2.96-2.52-5.51-5.46-7.67-8.82-3.06-5.68-4.96-10.98-5.73-15.89-2.06-14.45.7-30.04,8.27-46.77,3.52-7.7,8.78-15.77,15.79-24.21,9.1-10.83,19.61-20.49,31.53-28.99,9.93-6.74,18.73-11.39,26.4-13.95,9.37-3.39,15.36-5.1,17.98-5.13Z" style="fill:#3a7ca5; stroke-width:0px;"/><path d="m345.41,655.57c-4.38,31.45-7.55,63.23-9.51,95.34,5.58-2.69,8.52-4.04,8.82-4.04,3.05-1.29,6.48-2.89,10.26-4.78,1.56-15.28,3.14-36.98,4.73-65.11,6.01-.56,19.09-5.15,39.25-13.75-11.86,81.56-18.7,139.94-20.52,175.14l-2.94,1.25c-6.77,3.19-11.91,5.88-15.39,8.07-5.28,2.82-10.41,5.88-15.39,9.17-.03-14.31,1.79-38.87,5.48-73.67l-19.58,7.37c-.4,4.12-1.54,18.06-3.44,41.84-7.37,3.12-13.77,5.78-19.18,7.97-7.47,2.69-13.22,4.76-17.24,6.23,6.94-63,11.84-122.89,14.7-179.67,10.19-1.93,23.51-5.71,39.95-11.36Z" style="fill:#3a7ca5; stroke-width:0px;"/><path d="m463.37,700.2c1.06,6.08,1.93,12.3,2.59,18.68l2.14,19.38.9,6.78c.23,1.99.56,4.52,1,7.57.73,5.58,1.21,9.13,1.44,10.66.5,2.36,1.08,6.94,1.74,13.75l1.79,16.69,1.35,10.51c.36,3.05.61,5.88.75,8.47.66,4.42,1,7.62,1,9.61-3.82,3.09-10.18,6.76-19.08,11.01l-11.41,7.32c-1.93-17.53-3.02-26.95-3.29-28.24l-.8-6.18c-3.32-1-9.17-2.59-17.53-4.78-3.62,10.53-6.67,17.24-9.17,20.12,0,.27-.12.4-.35.4-2.42-6.01-9.76-17.27-22.02-33.77,1.73-3.09,4.17-8.83,7.32-17.24,2.66-4.85,6.44-14.38,11.36-28.59l11.41-30.44c10.36-2.42,23.31-6.33,38.85-11.71Zm-24.26,55.29c-4.42,11.66-7.14,20.26-8.17,25.8,3.55,1.49,7.64,2.41,12.25,2.74-1.03-11.16-2.39-20.67-4.08-28.54Z" style="fill:#3a7ca5; stroke-width:0px;"/><path d="m623.02,669.12c.5,23.68,1.36,44.08,2.59,61.22,2.66,21.49,5.36,39.62,8.12,54.4,2.16,15.41,4.22,26.87,6.18,34.37l-6.58,4.38c-7.31,4.35-16.85,10.46-28.64,18.33-1.2-3.88-2.42-12.93-3.69-27.12-1.26-14.2-3.7-30.58-7.32-49.14-.96-9.7-1.69-15.56-2.19-17.58.27,0,.4-.13.4-.4h-.4c-5.38,13.08-9.53,24.34-12.45,33.77-1.46,2.52-3.06,7.41-4.78,14.64h-1.84c-4.25,0-11.71.73-22.37,2.19-.73-1.33-3.29-7.67-7.67-19.03-7.14-15.94-11.29-25.72-12.45-29.34h-.4c0,1.99-.48,5.66-1.44,11.01h.35c0,.23-.12.35-.35.35-3.45,36.1-5.41,62.86-5.88,80.3-11.36-4.38-23.83-8.9-37.41-13.55,1-7.54,3.32-23.43,6.97-47.67,3.42-21.92,6.23-48.45,8.42-79.6,4.98-2.09,13.42-5.76,25.31-11.01,6.81-2.92,11.57-5.36,14.3-7.32,7.01,19.2,13.98,36.18,20.92,50.96,2.46-9.6,4.65-17.67,6.58-24.21l5.38-19.68c15.18-5.48,31.96-12.24,50.36-20.27Z" style="fill:#3a7ca5; stroke-width:0px;"/><path d="m730.21,677.94c12.62,11.03,11.76,26.67-2.59,46.92-7.14,10.83-14.84,18.65-23.11,23.46-8.34,5.25-13.95,8.55-16.84,9.91,2.69,9.83,6.73,21.69,12.1,35.57l.7,2.59c-18,11.82-28.88,18.78-32.63,20.87-9.3-39.98-16.64-72.74-22.02-98.28-3.42-14.18-5.25-22.37-5.48-24.56,11.59-10.03,28.46-17.85,50.61-23.46,14.21-2.52,27.3-.2,39.25,6.97Zm-48.77,58.68c15.11-7.8,22.43-14.78,21.97-20.92-1.06-4.15-3.62-6.34-7.67-6.58-7.34.23-14.06,2.79-20.17,7.67,1.03,7.34,2.99,13.95,5.88,19.83Z" style="fill:#3a7ca5; stroke-width:0px;"/><path d="m785.46,671.71c7.21.83,12.34,2.62,15.39,5.38,1.93,1.79,3.4,3.9,4.43,6.33.93,2.33,1.51,5.43,1.74,9.32-.76,5.91-3.98,11.01-9.66,15.29-7.01,4.88-15.01,7.67-24.01,8.37-5.01.23-10.05-1.83-15.09-6.18-2.66-2.52-4.1-6.56-4.33-12.1,0-10.86,5.38-18.7,16.14-23.51,4.81-1.73,9.95-2.69,15.39-2.89Zm24.21,48.77c.03,34.74.17,65.8.4,93.2-7.57,2.39-17.48,6.53-29.74,12.4-2.56.96-4.02,1.44-4.38,1.44-2.69-11.16-5.26-25.7-7.72-43.64-5.11-30.39-7.8-47.49-8.07-51.31,3.92-1.96,13.08-4.17,27.5-6.63,6.41-2.19,13.75-4.02,22.02-5.48Z" style="fill:#3a7ca5; stroke-width:0px;"/><path d="m891.76,718.83c6.11.93,11.77,3.67,16.99,8.22,6.14,6.84,10.29,15.16,12.45,24.96,1.03,6.01,1.21,12.02.55,18.03-.37,4.82-2.12,10.29-5.28,16.44-3.79,7.74-11.49,16.04-23.11,24.91-8.34,6.08-16.41,10.61-24.21,13.6-4.08,1.96-10.68,3.3-19.78,4.03-9.46-.86-16.94-5.63-22.42-14.3-3.65-6.58-5.48-13.91-5.48-22.02.07-8.73,2.03-17.9,5.88-27.5,3.55-7.77,6.86-13.76,9.91-17.98.83-1.59,3.52-4.76,8.07-9.51,5.78-5.98,13.47-11.36,23.06-16.14,6.24-2.49,14.03-3.4,23.36-2.74Zm-40.3,68.34c-.53,7.44,3.4,11.18,11.81,11.21,8.7-2.22,15.14-5.74,19.33-10.56,7.04-8.17,10.56-15.86,10.56-23.06-1.16-6.28-3.85-9.8-8.07-10.56-10.26,1.13-19.39,7.14-27.4,18.03-3.52,5.51-5.6,10.49-6.23,14.94Z" style="fill:#3a7ca5; stroke-width:0px;"/><path d="m1049.21,676.44c-1.46,7.31-2.81,15.87-4.04,25.7l-13.2,123.58c-8.17,2.49-16.47,6.66-24.91,12.5-8.87-24.87-21.22-53.37-37.06-85.48l-1.34,23.71-.85,22.12c-8.83,3.92-20.94,8.8-36.31,14.65,2.19-18.73,3.69-35.28,4.48-49.66.66-13.45,2.22-35.52,4.68-66.2l33.03-15.39c6.58,14.91,13.9,30.19,21.97,45.83,3.09,5.28,5.91,10.16,8.47,14.64,1.89-13.12,3.79-29.17,5.68-48.17,14.71-5.81,27.84-11.76,39.4-17.83Z" style="fill:#3a7ca5; stroke-width:0px;"/><path d="m1155.91,688.65c4.55.53,8.95,1.63,13.2,3.29-3.49,6.18-7.16,16.19-11.01,30.04-4.55-1.46-11.39-2.19-20.52-2.19-10.59.2-18.75,2.23-24.46,6.08-4.22,3.52-7.69,7.32-10.41,11.41-1.16,2.26-1.74,4.25-1.74,5.98.43,1.96,1.64,2.81,3.64,2.54,3.09.13,7.6-1.21,13.55-4.04,6.48-2.19,10.99-3.29,13.55-3.29,2.06-.46,4.91-.58,8.57-.35,5.08.13,9.53,1.01,13.35,2.64,3.62,1.39,6.71,3.93,9.27,7.62,2.02,2.59,3.6,6.13,4.73,10.61.93,7.41-.9,17.67-5.48,30.78-2.59,6.61-5.4,12.35-8.42,17.24-1.2,3.65-5.96,10.61-14.3,20.87-5.78,6.84-13.35,13.2-22.71,19.08-8.8,4.65-14.91,7.46-18.33,8.42-4.98,1.73-10.84,3.32-17.58,4.78-6.24,1.4-11.87,2.12-16.89,2.19-8.17-.07-13.75-1.08-16.74-3.04l-1.1-35.37c4.32,1.16,12.07,1.06,23.26-.3,8.33-.73,16.02-2.77,23.06-6.13,9.07-3.35,17.87-8.45,26.4-15.29,9.07-7.14,13.81-16.04,14.25-26.7-.57-6.78-4.8-8.73-12.7-5.88-7.34,2.92-12.34,4.63-14.99,5.13-5.55.5-9.89.32-13.03-.52-3.14-.85-6.73-3-10.79-6.45-1.06-.8-2.17-2.27-3.34-4.43-1.96-2.76-3.3-6.41-4.04-10.96-1.13-7.84.46-17,4.78-27.5,3.42-6.34,6.36-10.99,8.82-13.95,3.82-5.84,10.66-11.34,20.52-16.49,12.02-5.41,27.89-7.35,47.62-5.83Z" style="fill:#3a7ca5; stroke-width:0px;"/><path d="m1223.86,655.57c-4.38,31.45-7.55,63.23-9.51,95.34,5.58-2.69,8.52-4.04,8.82-4.04,3.05-1.29,6.48-2.89,10.26-4.78,1.56-15.28,3.14-36.98,4.73-65.11,6.01-.56,19.09-5.15,39.25-13.75-11.86,81.56-18.7,139.94-20.52,175.14l-2.94,1.25c-6.77,3.19-11.91,5.88-15.39,8.07-5.28,2.82-10.41,5.88-15.39,9.17-.03-14.31,1.79-38.87,5.48-73.67l-19.58,7.37c-.4,4.12-1.54,18.06-3.44,41.84-7.37,3.12-13.77,5.78-19.18,7.97-7.47,2.69-13.22,4.76-17.24,6.23,6.94-63,11.84-122.89,14.7-179.67,10.19-1.93,23.51-5.71,39.95-11.36Z" style="fill:#3a7ca5; stroke-width:0px;"/><path d="m1317.16,671.71c7.21.83,12.34,2.62,15.39,5.38,1.93,1.79,3.4,3.9,4.43,6.33.93,2.33,1.51,5.43,1.74,9.32-.76,5.91-3.98,11.01-9.66,15.29-7.01,4.88-15.01,7.67-24.01,8.37-5.01.23-10.05-1.83-15.09-6.18-2.66-2.52-4.1-6.56-4.33-12.1,0-10.86,5.38-18.7,16.14-23.51,4.81-1.73,9.95-2.69,15.39-2.89Zm24.21,48.77c.03,34.74.17,65.8.4,93.2-7.57,2.39-17.48,6.53-29.74,12.4-2.56.96-4.02,1.44-4.38,1.44-2.69-11.16-5.26-25.7-7.72-43.64-5.11-30.39-7.8-47.49-8.07-51.31,3.92-1.96,13.08-4.17,27.5-6.63,6.41-2.19,13.75-4.02,22.02-5.48Z" style="fill:#3a7ca5; stroke-width:0px;"/><path d="m1442.58,677.94c12.62,11.03,11.76,26.67-2.59,46.92-7.14,10.83-14.84,18.65-23.11,23.46-8.34,5.25-13.95,8.55-16.84,9.91,2.69,9.83,6.73,21.69,12.1,35.57l.7,2.59c-18,11.82-28.88,18.78-32.63,20.87-9.3-39.98-16.64-72.74-22.02-98.28-3.42-14.18-5.25-22.37-5.48-24.56,11.59-10.03,28.46-17.85,50.61-23.46,14.21-2.52,27.3-.2,39.25,6.97Zm-48.77,58.68c15.11-7.8,22.43-14.78,21.97-20.92-1.06-4.15-3.62-6.34-7.67-6.58-7.34.23-14.06,2.79-20.17,7.67,1.03,7.34,2.99,13.95,5.88,19.83Z" style="fill:#3a7ca5; stroke-width:0px;"/></svg>