<?xml version="1.0" encoding="UTF-8"?><svg id="a" xmlns="http://www.w3.org/2000/svg" xmlns:xlink="http://www.w3.org/1999/xlink" viewBox="0 0 1536 1024"><defs><filter id="b" x="142.38" y="464.53" width="461.88" height="205.13" filterUnits="userSpaceOnUse"><feOffset dx="15" dy="15"/><feGaussianBlur result="c" stdDeviation="0"/><feFlood flood-color="#000" flood-opacity=".5"/><feComposite in2="c" operator="in"/><feComposite in="SourceGraphic"/></filter><filter id="d" x="327.38" y="652.49" width="127.77" height="140.88" filterUnits="userSpaceOnUse"><feOffset dx="15" dy="15"/><feGaussianBlur result="e" stdDeviation="0"/><feFlood flood-color="#000" flood-opacity=".5"/><feComposite in2="e" operator="in"/><feComposite in="SourceGraphic"/></filter><filter id="f" x="457.38" y="656.53" width="793.84" height="205.13" filterUnits="userSpaceOnUse"><feOffset dx="15" dy="15"/><feGaussianBlur result="g" stdDeviation="0"/><feFlood flood-color="#000" flood-opacity=".5"/><feComposite in2="g" operator="in"/><feComposite in="SourceGraphic"/></filter><filter id="h" x="1222.38" y="691.46" width="163.28" height="186.24" filterUnits="userSpaceOnUse"><feOffset dx="15" dy="15"/><feGaussianBlur result="i" stdDeviation="0"/><feFlood flood-color="#000" flood-opacity=".5"/><feComposite in2="i" operator="in"/><feComposite in="SourceGraphic"/></filter></defs><g style="filter:url(#b);"><path d="M151.55,484.1c0-8.75,24.58-15.27,73.74-19.57,12.89,0,24.47,1.81,34.72,5.43,15.16,10.56,22.73,25.98,22.73,46.26l-1.24,75.21-1.47,5.54c-2.26,9.05-6.56,16.32-12.89,21.83l3.62,5.43,5.09-4.86,3.73,2.71c1.96,2.87,3.92,6.26,5.88,10.18l4.3,4.86.57.79-24.2,16.74h-.34c-2.04,0-8.6-8.48-19.68-25.45-6.79,1.73-14.59,2.6-23.41,2.6h-14.82c-20.96,0-36.53-4.6-46.71-13.8-12.52-12.44-18.78-25.41-18.78-38.91l3.96-78.49c.3-5.35,2.04-10.86,5.2-16.51ZM230.38,598.67c-.45-.68-.98-1.28-1.58-1.81-4.6-5.8-9.31-12.67-14.14-20.58-.6-.9,4.22-5.09,14.48-12.55.68-.38,1.28-.07,1.81.9l5.43,7.01,8.48,13.01c1.28-4,1.92-8.71,1.92-14.14v-6.11l-1.36-61.87c0-2.71-5.24-5.69-15.72-8.94h-18.32c-7.31,0-12.59,4.41-15.83,13.23l2.94,84.26v4.64c0,2.87,5.28,4.3,15.83,4.3h6.79c3.32,0,6.29-.38,8.94-1.13l.34-.23Z" style="fill:#f2e863;"/><path d="M330.93,608.51c-15.53-2.71-24.58-6.56-27.15-11.54-4.15-3.24-6.22-16.4-6.22-39.47,0-11.61.53-25.67,1.58-42.19l.23-3.51c15.16.83,28.8,2.79,40.94,5.88,1.51,1.13,1.39,23.53-.34,67.18,2.19,4.68,4.48,7.09,6.9,7.24,10.86.68,16.44-1.36,16.74-6.11l.11-1.7.79-7.8.23-63.34,1.24-6.67c13.04-1.96,22.02-3.17,26.92-3.62,1.43,2.41,2.15,4.9,2.15,7.46l-.23,11.76-.23,15.61-1.81,47.28,14.14,4.19-.11,1.58c-1.36,16.59-3.66,24.88-6.9,24.88-36.57-2.87-59.57-5.24-68.99-7.12Z" style="fill:#f2e863;"/><path d="M474.91,609.42c-6.18.53-12.1.79-17.76.79-8.75,0-16.78-.64-24.09-1.92-9.43-2.56-14.86-6.94-16.29-13.12-1.74-7.54-2.6-15.38-2.6-23.53,0-1.58.04-3.13.11-4.64.23-3.32,1.21-6.75,2.94-10.29,3.85-6.86,21.15-11.76,51.91-14.7l9.5-1.02c2.56-.15,5.05-.26,7.46-.34v-14.14c-.3-9.42-4.03-13.91-11.2-13.46-3.85.23-6.69.68-8.54,1.36-1.85.68-2.73,4.6-2.66,11.76l1.02,5.2c.07,2.71-2.45,4.19-7.58,4.41-11.39,1.21-23.87,2.15-37.44,2.83-2.71.15-4.15-2.3-4.3-7.35l-.11-2.04c1.06-10.25,6.33-19.38,15.83-27.37,9.27-4.67,18.06-7.01,26.35-7.01h1.58l2.26-.11c17.49.08,32.8,1.43,45.92,4.07,9.58,5.2,14.48,10.29,14.7,15.27l.79,6.11c.38,9.05.81,20.21,1.3,33.48.49,13.27-.21,24.7-2.09,34.27-.08,2.34.94,3.51,3.05,3.51l6.11.11c1.73.15,2.6,1.02,2.6,2.6v.23c-.3,3.92-.91,8.07-1.81,12.44-.6,2.34-2.04,3.47-4.3,3.39l-22.62.11c-11.08,0-21.11-.3-30.09-.91ZM482.6,565.64c-.08-.07-.11-.19-.11-.34-.08-.45-.13-1-.17-1.64-.04-.64-.06-1.32-.06-2.04v-2.09c0-.68.04-1.21.11-1.58v-1.24c-.08-2.71-1.7-3.88-4.86-3.51l-8.03.57c-4.37.45-7.09,2.23-8.14,5.32-3.77,9.95-5.35,19.42-4.75,28.39.07,6.41,3.96,9.35,11.65,8.82,7.54-.45,11.88-2.67,13.01-6.67l.11-.68c.07-.75.57-1.43,1.47-2.04l-.23-21.26Z" style="fill:#f2e863;"/><path d="M546.28,472.33h37.66c1.73.53,3.51,3.88,5.32,10.07l-7.46,133.12c0,4.22-9.69,8.07-29.07,11.54l-4.3-4.07,4.3-108.81h-9.61l-2.15-5.77v-8.71c1.58-18.25,3.35-27.37,5.32-27.37Z" style="fill:#f2e863;"/></g><g style="filter:url(#d);"><path d="M334.17,667.3c.45-6.48,20.4-11.42,59.83-14.82,10.33,0,19.64,1.43,27.94,4.3,12.14,8.22,18.21,20.06,18.21,35.51l-1.02,54.74-.68,4.3c-4.98,18.02-20.51,27.03-46.6,27.03h-11.88c-16.82,0-29.33-3.58-37.55-10.75-10.03-9.65-15.04-19.72-15.04-30.2l3.17-57c.53-4.9,1.73-9.27,3.62-13.12ZM371.38,686.87l2.15,58.02v3.28c0,2.11,3.96,3.17,11.88,3.17h5.32c12.89,0,19.34-7.16,19.34-21.49l1.24-46.37c-.6-3.09-2.71-4.98-6.33-5.66l-21.72-.57c-5.43,0-9.39,3.21-11.88,9.61Z" style="fill:#44bba4;"/></g><g style="filter:url(#f);"><path d="M466.55,676.1c0-8.75,24.58-15.27,73.74-19.57,12.89,0,24.47,1.81,34.72,5.43,15.16,10.56,22.73,25.98,22.73,46.26l-1.24,75.21-1.47,5.54c-2.26,9.05-6.56,16.32-12.89,21.83l3.62,5.43,5.09-4.86,3.73,2.71c1.96,2.87,3.92,6.26,5.88,10.18l4.3,4.86.57.79-24.2,16.74h-.34c-2.04,0-8.6-8.48-19.68-25.45-6.79,1.73-14.59,2.6-23.41,2.6h-14.82c-20.96,0-36.53-4.6-46.71-13.8-12.52-12.44-18.78-25.41-18.78-38.91l3.96-78.49c.3-5.35,2.04-10.86,5.2-16.51ZM545.38,790.67c-.45-.68-.98-1.28-1.58-1.81-4.6-5.8-9.31-12.67-14.14-20.58-.6-.9,4.22-5.09,14.48-12.55.68-.38,1.28-.07,1.81.9l5.43,7.01,8.48,13.01c1.28-4,1.92-8.71,1.92-14.14v-6.11l-1.36-61.87c0-2.71-5.24-5.69-15.72-8.94h-18.32c-7.31,0-12.59,4.41-15.83,13.23l2.94,84.26v4.64c0,2.87,5.28,4.3,15.83,4.3h6.79c3.32,0,6.29-.38,8.94-1.13l.34-.23Z" style="fill:#f45b69;"/><path d="M645.93,800.51c-15.53-2.71-24.58-6.56-27.15-11.54-4.15-3.24-6.22-16.4-6.22-39.47,0-11.61.53-25.67,1.58-42.19l.23-3.51c15.16.83,28.8,2.79,40.94,5.88,1.51,1.13,1.39,23.53-.34,67.18,2.19,4.68,4.48,7.09,6.9,7.24,10.86.68,16.44-1.36,16.74-6.11l.11-1.7.79-7.8.23-63.34,1.24-6.67c13.04-1.96,22.02-3.17,26.92-3.62,1.43,2.41,2.15,4.9,2.15,7.46l-.23,11.76-.23,15.61-1.81,47.28,14.14,4.19-.11,1.58c-1.36,16.59-3.66,24.88-6.9,24.88-36.57-2.87-59.57-5.24-68.99-7.12Z" style="fill:#f45b69;"/><path d="M770.57,776.08c-.68,4.83-1.06,9.61-1.13,14.36-.45,8.75,3.05,13.42,10.52,14.02,7.46.15,11.91-2.49,13.35-7.92l.11-.9c.3-2.64,2.71-4,7.24-4.07,9.95,0,18.89.38,26.81,1.13,2.71.38,4,3.73,3.85,10.07-.3,13.57-15.57,20.36-45.81,20.36-15.53,0-29.11-2.34-40.72-7.01-8.97-4.75-13.91-11.5-14.82-20.25-.53-6.48-.79-13.04-.79-19.68s.26-13.38.79-20.25c.45-4.52,1.73-9.2,3.85-14.02,4.3-8.9,21.53-13.35,51.69-13.35h9.39c22.39.83,35.55,3.96,39.47,9.39,3.92,4.83,5.88,13.08,5.88,24.77v7.01c0,.98-.23,1.77-.68,2.38v5.2l-68.99-1.24ZM796.59,764.09c0-.15.04-.3.11-.45,0-.98.04-1.94.11-2.88.07-.94.15-3.71.23-8.31l.11-1.81c.15-3.69-1.28-5.5-4.3-5.43l-7.92-.11c-4.37,0-7.16,2.04-8.37,6.11-1.43,4.15-2.64,8.29-3.62,12.44l23.64.45Z" style="fill:#f45b69;"/><path d="M857.66,687.41c3.09-7.31,9.91-10.97,20.47-10.97h24.09l14.48.57c15.61,0,24.84,2.41,27.71,7.24,6.41,4.45,9.61,15.91,9.61,34.38v3.62l-33.03.57h-1.24c-4.83,0-7.24-.41-7.24-1.24-1.51,0-2.71-7.62-3.62-22.85-3.55-1.96-5.96-2.94-7.24-2.94-9.65,0-14.48,2.41-14.48,7.24v1.81l1.13,13.23c6.63,3.92,22.36,8.75,47.16,14.48,6.11,1.58,10.25,4.18,12.44,7.8,6.94,7.09,10.41,18.1,10.41,33.03l-.57,6.11c0,5.05-4.83,10.45-14.48,16.17-13.42,3.32-29.14,5.54-47.16,6.67h-2.26c-18.55-1.13-29.37-2.94-32.46-5.43-9.27-9.28-13.91-18.28-13.91-27.03v-1.92c0-5.2,1.43-7.8,4.3-7.8l6.45.79,14.48-.79,15.61.79h1.92c5.28,0,7.92,1.36,7.92,4.07l-.68,5.43v10.75c4.07,1.21,8.07,1.81,11.99,1.81,7.31,0,10.97-4.75,10.97-14.25-.83-13.19-2.07-21.08-3.73-23.64l-50.67-16.85c-7.54-5.05-11.31-12.48-11.31-22.28,1.13-11.08,2.11-17.27,2.94-18.55Z" style="fill:#f45b69;"/><path d="M991.35,759.68h12.55l7.8.79,4.64-.79,2.38,4.75c-1.06,7.92-1.58,20.92-1.58,39.02v21.83l-7.8.79h-38.34c-3.62-3.09-5.43-6.98-5.43-11.65v-2.38h16.4l-.79-7.8-.79-41.4-.79-2.38,11.76-.79ZM966.24,737.85c.07-6.94,8.67-11.42,25.79-13.46,1.43-.23,2.86-.41,4.3-.57,2.71-.3,5.39-.45,8.03-.45,2.49,0,4.94.11,7.35.34,5.05.6,9.09,1.75,12.1,3.45,3.01,1.7,4.64,3.64,4.86,5.83v.23c0,1.43-.6,2.9-1.81,4.41l-2.15,2.26c-2.49,2.19-6.07,4.07-10.75,5.66-4.83,1.66-9.95,2.75-15.38,3.28-.38.08-.72.11-1.02.11-2.56.45-4.9.68-7.01.68h-1.58l-3.39-.45c-.9-.07-1.77-.19-2.6-.34h-.68c-5.5-.23-9.73-1.58-12.67-4.07-2.04-1.51-3.17-3.17-3.39-4.98v-1.92Z" style="fill:#f45b69;"/><path d="M1041.8,679.94l15.61.79c9.42,0,14.14,2.11,14.14,6.33-.53,4.9-.27,7.5.79,7.8h14.02l32.91.91c3.09.08,5.16,1.58,6.22,4.52l-.79,11.76c-.83,1.81-7.62,2.56-20.36,2.26h-33.59c-.23.75-.49,1.55-.79,2.38.53,10.93.79,17.19.79,18.78s-.27,4.98-.79,10.18c-.53,5.2-.66,10.54-.4,16,.26,5.47-1.19,17.32-4.35,35.57,0,2.87-.23,6.29-.68,10.29-1.36,1.43-3.13,2.15-5.32,2.15h-22.06c-1.43-.23-2.49-2.3-3.17-6.22v-3.05l9.39-49.31-1.58-35.97c-1.06-.98-2.34-1.47-3.85-1.47l-10.18.68-3.96-.68c-5.2,0-7.8-3.39-7.8-10.18l2.38-10.97,21.83.79c.53,0,0-3.92-1.58-11.76,1.06-.53,2.11-1.05,3.17-1.58Z" style="fill:#f45b69;"/><path d="M1130.24,719.3c.45-6.48,20.4-11.42,59.83-14.82,10.33,0,19.64,1.43,27.94,4.3,12.14,8.22,18.21,20.06,18.21,35.51l-1.02,54.74-.68,4.3c-4.98,18.02-20.51,27.03-46.6,27.03h-11.88c-16.82,0-29.33-3.58-37.55-10.75-10.03-9.65-15.04-19.72-15.04-30.2l3.17-57c.53-4.9,1.73-9.27,3.62-13.12ZM1167.45,738.87l2.15,58.02v3.28c0,2.11,3.96,3.17,11.88,3.17h5.32c12.89,0,19.34-7.16,19.34-21.49l1.24-46.37c-.6-3.09-2.71-4.98-6.33-5.66l-21.72-.57c-5.43,0-9.39,3.21-11.88,9.61Z" style="fill:#f45b69;"/></g><g style="filter:url(#h);"><path d="M1261.07,826.17c-1.66-14.48-3.24-27.26-4.75-38.34,0-9.8,5.01-17.23,15.04-22.28l43.66-16.85c2.19-2.56,3.85-10.44,4.98-23.64,0-9.5-4.9-14.25-14.7-14.25-5.2,0-9.18.3-11.93.9-2.75.6-4.13,4.49-4.13,11.65l.9,5.43c0,2.71-3.51,4.07-10.52,4.07h-2.6l-20.92.79-19.23-.79-8.71.79c-3.85,0-5.77-2.6-5.77-7.8v-1.92c0-8.75,6.22-17.76,18.66-27.03,4.07-2.49,18.51-4.3,43.32-5.43h3.05c24.13,1.13,45.17,3.36,63.11,6.67,12.89,5.73,19.6,13.16,20.13,22.28,0,14.93-4.64,25.94-13.91,33.03-2.94,3.62-8.48,6.22-16.63,7.8-17.04,5.73-30.01,10.56-38.91,14.48-9.88,14.33-11.35,28.88-4.41,43.66-11.46,4.68-23.38,6.94-35.74,6.79ZM1275.2,834.77h15.16c8.6,0,14.51,4.3,17.76,12.89,0,5.96-12.55,10.97-37.66,15.04-13.35-1.06-20.02-5.35-20.02-12.89v-2.15c6.48-8.6,14.74-12.89,24.77-12.89Z" style="fill:#3a7ca5;"/></g></svg>