<?xml version="1.0" encoding="UTF-8"?><svg id="a" xmlns="http://www.w3.org/2000/svg" xmlns:xlink="http://www.w3.org/1999/xlink" viewBox="0 0 1536 1024"><defs><filter id="b" filterUnits="userSpaceOnUse"><feOffset dx="7.8" dy="7.8"/><feGaussianBlur result="c" stdDeviation="0"/><feFlood flood-color="#000" flood-opacity="1"/><feComposite in2="c" operator="in"/><feComposite in="SourceGraphic"/></filter><filter id="d" filterUnits="userSpaceOnUse"><feOffset dx="7.8" dy="7.8"/><feGaussianBlur result="e" stdDeviation="0"/><feFlood flood-color="#000" flood-opacity="1"/><feComposite in2="e" operator="in"/><feComposite in="SourceGraphic"/></filter><filter id="f" filterUnits="userSpaceOnUse"><feOffset dx="7.8" dy="7.8"/><feGaussianBlur result="g" stdDeviation="0"/><feFlood flood-color="#000" flood-opacity="1"/><feComposite in2="g" operator="in"/><feComposite in="SourceGraphic"/></filter></defs><g style="filter:url(#b);"><path d="m219.55,521.43v13.07h-52.84v139.71h-37.41v-139.71h-52.95v-13.07h143.2Z" style="fill:#fff; stroke-width:0px;"/><path d="m271.26,676.79c-8.19,0-15.89-1.52-23.1-4.56-7.21-3.04-13.48-7.13-18.82-12.28-5.33-5.14-9.56-11.12-12.68-17.91-3.12-6.8-4.68-13.99-4.68-21.58,0-9.09,1.43-17.52,4.28-25.29,2.85-7.77,6.91-14.51,12.17-20.22,5.26-5.71,11.55-10.16,18.87-13.35,7.32-3.19,15.49-4.79,24.51-4.79,8.04,0,15.4,1.28,22.08,3.83,6.68,2.55,12.41,6.05,17.18,10.48,4.77,4.43,8.47,9.65,11.1,15.66,2.63,6.01,3.94,12.43,3.94,19.27h-79.88c.3,6.38,1.26,12.47,2.87,18.25,1.61,5.78,3.77,10.87,6.48,15.27,2.7,4.39,5.88,7.89,9.52,10.48,3.64,2.59,7.68,3.89,12.11,3.89,3.83,0,7.6-.66,11.32-1.97,3.72-1.31,7.15-3.12,10.31-5.41,3.15-2.29,5.9-4.96,8.22-8,2.33-3.04,4.02-6.33,5.07-9.86l17.8,2.82c-1.8,6.24-4.68,12.09-8.62,17.58-3.94,5.48-8.56,10.29-13.86,14.42-5.3,4.13-11.06,7.38-17.29,9.75-6.24,2.37-12.54,3.55-18.93,3.55Zm14.76-82.7c-.3-3.38-1.03-6.48-2.2-9.29-1.17-2.82-2.65-5.24-4.45-7.27s-3.91-3.59-6.31-4.68c-2.4-1.09-5-1.63-7.77-1.63-2.18,0-4.32.55-6.42,1.63-2.1,1.09-4,2.63-5.69,4.62-1.69,1.99-3.12,4.39-4.28,7.21-1.17,2.82-1.93,5.95-2.31,9.41h39.43Z" style="fill:#fff; stroke-width:0px;"/><path d="m440.63,711.06c-12.68,0-24.4-2.08-35.16-6.24-10.76-4.16-20.06-9.87-27.91-17.15-7.85-7.27-13.98-15.82-18.4-25.65-4.42-9.82-6.63-20.45-6.63-31.88,0-12.26,2.21-23.57,6.63-33.91,4.42-10.34,10.52-19.25,18.32-26.74,7.79-7.48,17.07-13.33,27.83-17.54,10.76-4.21,22.47-6.31,35.16-6.31s24.42,2.05,35.23,6.16c10.81,4.11,20.14,9.74,27.98,16.92,7.85,7.17,14,15.62,18.47,25.33,4.47,9.72,6.7,20.19,6.7,31.41s-2.21,22.82-6.63,33.21c-4.42,10.39-10.55,19.46-18.4,27.21-7.85,7.74-17.18,13.88-27.98,18.4-10.81,4.52-22.55,6.78-35.23,6.78Zm5.61-19.49c4.37,0,8.42-1.43,12.16-4.29,3.74-2.86,6.99-6.7,9.74-11.54,2.75-4.83,4.88-10.42,6.39-16.76,1.51-6.34,2.26-12.94,2.26-19.8,0-10.18-.76-19.77-2.26-28.76-1.51-8.99-3.98-16.86-7.41-23.62-3.43-6.75-7.87-12.11-13.33-16.06-5.46-3.95-12.14-5.92-20.03-5.92-3.85,0-7.54,1.4-11.07,4.21-3.53,2.81-6.65,6.58-9.35,11.3-2.7,4.73-4.86,10.19-6.47,16.37-1.61,6.18-2.42,12.71-2.42,19.57,0,10.29.96,20.01,2.88,29.15,1.92,9.15,4.68,17.12,8.26,23.93,3.59,6.81,7.95,12.21,13.1,16.21,5.14,4,10.99,6,17.54,6Z" style="fill:#f2e863; stroke-width:0px;"/><path d="m633.91,583.05c-1.58-1.35-3.02-2.52-4.34-3.49-1.31-.98-2.61-1.76-3.89-2.37-1.28-.6-2.61-1.03-4-1.3-1.39-.26-2.95-.39-4.68-.39-2.4,0-4.77.39-7.1,1.18-2.33.79-4.51,1.88-6.53,3.27-2.03,1.39-3.85,3.01-5.46,4.84-1.62,1.84-2.87,3.81-3.77,5.92v83.49h-34.93v-104.89l24.45-12.84,10.48,11.27c3.83-3.98,8.09-7.17,12.79-9.58,4.69-2.4,9.63-3.61,14.82-3.61s9.58,1.03,13.63,3.1c4.06,2.07,7.59,4.34,10.59,6.82l-12.06,18.59Z" style="fill:#fff; stroke-width:0px;"/><path d="m660.72,518.61c0-2.33.49-4.54,1.46-6.65.98-2.1,2.33-3.9,4.06-5.41,1.73-1.5,3.72-2.7,5.97-3.6,2.25-.9,4.69-1.35,7.32-1.35s5.09.45,7.38,1.35c2.29.9,4.28,2.1,5.97,3.6,1.69,1.5,3.02,3.31,4,5.41.98,2.1,1.46,4.32,1.46,6.65s-.49,4.53-1.46,6.59c-.98,2.07-2.31,3.85-4,5.35-1.69,1.5-3.68,2.7-5.97,3.61-2.29.9-4.75,1.35-7.38,1.35s-5.07-.45-7.32-1.35c-2.25-.9-4.24-2.1-5.97-3.61-1.73-1.5-3.08-3.28-4.06-5.35-.98-2.06-1.46-4.26-1.46-6.59Zm1.46,50.7l24.56-12.84h10.48v117.74h-35.04v-104.89Z" style="fill:#fff; stroke-width:0px;"/><path d="m720.32,588.12c1.2-4.81,3.3-9.18,6.31-13.13,3-3.94,6.74-7.28,11.21-10.03,4.47-2.74,9.58-4.86,15.32-6.37,5.75-1.5,11.96-2.25,18.65-2.25,8.26,0,15.4.75,21.41,2.25,6.01,1.5,10.95,3.62,14.82,6.37,3.87,2.74,6.72,6.05,8.56,9.92,1.84,3.87,2.76,8.21,2.76,13.01v66.02c0,4.73,1.46,8.75,4.39,12.06,2.93,3.31,7.06,6.05,12.39,8.22h-41.46c-1.2,0-2.37-.34-3.49-1.01-1.13-.68-2.14-1.56-3.04-2.65-.9-1.09-1.69-2.27-2.37-3.55-.68-1.28-1.17-2.52-1.46-3.72-2.1,1.95-4.09,3.74-5.97,5.35-1.88,1.62-3.94,2.99-6.2,4.11s-4.77,2.01-7.55,2.65c-2.78.64-6.12.96-10.03.96-5.33,0-10.12-.75-14.36-2.25-4.24-1.5-7.85-3.59-10.82-6.25-2.97-2.67-5.24-5.82-6.82-9.46-1.58-3.64-2.37-7.6-2.37-11.89,0-6.61,1.84-12.28,5.52-17.01,3.68-4.73,8.54-8.86,14.59-12.39,6.05-3.53,12.9-6.61,20.56-9.24,7.66-2.63,15.47-5.14,23.43-7.55v-11.27c0-3.68-.38-6.82-1.13-9.41-.75-2.59-1.8-4.69-3.15-6.31-1.35-1.61-2.99-2.78-4.9-3.49-1.92-.71-4.04-1.07-6.37-1.07-2.78,0-5.26.53-7.44,1.58-2.18,1.05-4.06,2.48-5.63,4.28-1.58,1.8-2.86,3.87-3.83,6.2-.98,2.33-1.69,4.77-2.14,7.32h-29.41Zm63.99,26.59c-3.38,1.43-6.8,3.16-10.25,5.18-3.46,2.03-6.55,4.3-9.29,6.82-2.74,2.52-5,5.3-6.76,8.34-1.77,3.04-2.65,6.29-2.65,9.75,0,3.83.99,6.84,2.99,9.01,1.99,2.18,4.68,3.27,8.06,3.27,2.85,0,5.67-.85,8.45-2.54,2.78-1.69,5.93-3.89,9.46-6.59v-33.24Z" style="fill:#fff; stroke-width:0px;"/></g><g style="filter:url(#d);"><path d="m169.79,765.36c0,9.92,1.5,18.67,4.51,26.25,3,7.59,6.99,13.95,11.94,19.1,4.96,5.15,10.66,9.05,17.13,11.72,6.46,2.67,13.18,4,20.17,4,5.33,0,10.31-.92,14.93-2.76,4.62-1.84,8.94-4.34,12.96-7.49,4.02-3.15,7.79-6.8,11.32-10.93,3.53-4.13,6.91-8.49,10.14-13.07l15.66,11.49c-3.38,5.41-7.46,10.63-12.22,15.66-4.77,5.03-10.12,9.46-16.05,13.29-5.93,3.83-12.39,6.89-19.38,9.18-6.99,2.29-14.38,3.44-22.2,3.44-13.15,0-25.26-1.92-36.33-5.75-11.08-3.83-20.64-9.24-28.67-16.22-8.04-6.99-14.31-15.38-18.82-25.18-4.51-9.8-6.76-20.71-6.76-32.73s2.14-22.34,6.42-32.11c4.28-9.76,10.31-18.2,18.08-25.29,7.77-7.1,17.09-12.64,27.94-16.62,10.85-3.98,22.85-5.97,36-5.97,8.79,0,16.82,1.03,24.11,3.1,7.28,2.07,13.91,4.92,19.89,8.56,5.97,3.64,11.3,8,16,13.07,4.69,5.07,8.84,10.65,12.45,16.73l-15.77,11.04c-3.23-4.58-6.74-8.9-10.53-12.96-3.79-4.06-7.83-7.6-12.11-10.65-4.28-3.04-8.79-5.45-13.52-7.21-4.73-1.76-9.65-2.65-14.76-2.65-6.99,0-13.65,1.31-20,3.94-6.35,2.63-11.93,6.52-16.73,11.66-4.81,5.15-8.64,11.51-11.49,19.1-2.86,7.59-4.28,16.34-4.28,26.25Z" style="fill:#fff; stroke-width:0px;"/><path d="m408.64,814.98c-13.37-3.24-25.2-8.43-35.48-15.56s-18.63-15.54-25.05-25.22c-6.42-9.68-10.7-20.26-12.85-31.75-2.15-11.49-1.76-23.26,1.16-35.32,3.13-12.93,8.35-24.29,15.65-34.07,7.3-9.78,16.02-17.62,26.15-23.52,10.13-5.9,21.41-9.69,33.83-11.38,12.42-1.69,25.32-.92,38.69,2.33,13.37,3.24,25.23,8.41,35.59,15.5,10.35,7.09,18.75,15.42,25.19,24.99,6.44,9.57,10.78,20.05,13.01,31.44,2.23,11.39,1.91,23.01-.96,34.84-3,12.39-8.16,23.5-15.47,33.33-7.32,9.83-16.1,17.83-26.35,23.99-10.26,6.16-21.66,10.24-34.22,12.25-12.56,2-25.52,1.39-38.89-1.85Zm10.9-19.12c4.6,1.12,9.24.65,13.92-1.41,4.68-2.06,9.08-5.28,13.22-9.68,4.14-4.39,7.81-9.74,11.02-16.04,3.21-6.3,5.69-13.07,7.44-20.3,2.6-10.74,4.26-21.05,4.97-30.91.71-9.87.12-18.8-1.77-26.8-1.89-8-5.21-14.78-9.95-20.34-4.75-5.56-11.28-9.35-19.61-11.37-4.06-.98-8.31-.45-12.75,1.61-4.44,2.06-8.7,5.23-12.75,9.53-4.06,4.3-7.73,9.5-11.01,15.61-3.28,6.11-5.8,12.78-7.55,20.02-2.63,10.85-4.1,21.35-4.41,31.48-.31,10.14.56,19.26,2.6,27.35,2.04,8.1,5.26,14.91,9.67,20.45,4.4,5.54,10.06,9.14,16.96,10.81Z" style="fill:#f45b69; stroke-width:0px;"/><path d="m663.71,763.11c0-2.93-.32-5.54-.96-7.83-.64-2.29-1.5-4.21-2.59-5.75-1.09-1.54-2.33-2.7-3.72-3.49-1.39-.79-2.84-1.18-4.34-1.18s-3.23.3-5.18.9c-1.95.6-4,1.45-6.14,2.54-2.14,1.09-4.34,2.42-6.59,4-2.25,1.58-4.39,3.34-6.42,5.3v84.27h-35.15v-104.89l24.67-12.84h10.48v11.72c5.41-3.9,11.19-6.78,17.35-8.62,6.16-1.84,12.28-2.76,18.36-2.76,4.73,0,9.22.92,13.46,2.76,4.24,1.84,7.96,4.34,11.15,7.49,3.19,3.16,5.73,6.86,7.6,11.1,1.88,4.24,2.82,8.77,2.82,13.58v82.47h-34.81v-78.75Z" style="fill:#fff; stroke-width:0px;"/><path d="m706.18,866.65c3.53,5.41,7.02,9.14,10.48,11.21,3.45,2.06,7.1,3.1,10.93,3.1.98,0,1.84-.25,2.59-.73.75-.49,1.39-1.37,1.92-2.65.52-1.28.9-3,1.13-5.18.23-2.18.34-4.96.34-8.34v-127.09l24.67-12.84h10.48v122.81c0,10.21-1.3,18.46-3.89,24.73-2.59,6.27-6.08,11.13-10.48,14.59-4.39,3.45-9.52,5.78-15.38,6.99-5.86,1.2-12.06,1.8-18.59,1.8-4.51,0-8.47-.51-11.89-1.52-3.42-1.01-6.42-2.27-9.01-3.77-2.59-1.5-4.83-3.14-6.7-4.9-1.88-1.77-3.53-3.4-4.96-4.9l18.36-13.29Zm26.03-180.38c0-2.33.49-4.54,1.46-6.65.98-2.1,2.31-3.9,4-5.41,1.69-1.5,3.66-2.7,5.92-3.6s4.69-1.35,7.32-1.35,4.98.45,7.27,1.35c2.29.9,4.3,2.1,6.03,3.6,1.73,1.5,3.08,3.31,4.06,5.41.98,2.1,1.46,4.32,1.46,6.65s-.49,4.53-1.46,6.59c-.98,2.07-2.33,3.85-4.06,5.35-1.73,1.5-3.74,2.7-6.03,3.61-2.29.9-4.71,1.35-7.27,1.35s-5.07-.45-7.32-1.35-4.22-2.1-5.92-3.61c-1.69-1.5-3.02-3.28-4-5.35-.98-2.06-1.46-4.26-1.46-6.59Z" style="fill:#fff; stroke-width:0px;"/><path d="m839.58,726.49v81.35c0,2.25.45,4.38,1.35,6.37s2.12,3.72,3.66,5.18c1.54,1.46,3.32,2.61,5.35,3.44,2.03.83,4.21,1.24,6.54,1.24,1.28,0,2.72-.36,4.34-1.07,1.61-.71,3.27-1.71,4.96-2.99,1.69-1.28,3.36-2.78,5.01-4.51,1.65-1.73,3.12-3.61,4.39-5.63v-83.37h34.93v115.37h-34.93v-10.7c-4.66,3.91-9.56,7.02-14.7,9.35-5.15,2.33-10.2,3.49-15.15,3.49-5.71,0-11.04-.96-16-2.87-4.96-1.92-9.26-4.51-12.9-7.77-3.64-3.27-6.52-7.1-8.62-11.49-2.1-4.39-3.15-9.07-3.15-14.03v-81.35h34.93Z" style="fill:#fff; stroke-width:0px;"/><path d="m1015.79,763.11c0-2.93-.32-5.54-.96-7.83-.64-2.29-1.5-4.21-2.59-5.75-1.09-1.54-2.33-2.7-3.72-3.49-1.39-.79-2.84-1.18-4.34-1.18s-3.23.3-5.18.9c-1.95.6-4,1.45-6.14,2.54-2.14,1.09-4.34,2.42-6.59,4-2.25,1.58-4.39,3.34-6.42,5.3v84.27h-35.15v-104.89l24.67-12.84h10.48v11.72c5.41-3.9,11.19-6.78,17.35-8.62,6.16-1.84,12.28-2.76,18.36-2.76,4.73,0,9.22.92,13.46,2.76,4.24,1.84,7.96,4.34,11.15,7.49,3.19,3.16,5.73,6.86,7.61,11.1,1.88,4.24,2.82,8.77,2.82,13.58v82.47h-34.81v-78.75Z" style="fill:#fff; stroke-width:0px;"/><path d="m1072,740.91v-8.22l18.59-6.2v-23.43l24.45-12.84h10.48v36.28h28.28v14.42h-28.28v74.25c0,2.33.6,4.36,1.8,6.08,1.2,1.73,2.78,2.59,4.73,2.59,1.2,0,2.54-.41,4-1.24,1.46-.83,2.85-1.78,4.17-2.87,1.31-1.09,2.48-2.2,3.49-3.32,1.01-1.13,1.75-1.99,2.2-2.59l11.94,9.46c-1.95,3-4.09,5.8-6.42,8.39-2.33,2.59-5,4.83-8,6.7-3,1.88-6.46,3.36-10.37,4.45-3.91,1.09-8.41,1.63-13.52,1.63s-9.13-.7-12.73-2.08-6.61-3.32-9.01-5.8c-2.4-2.48-4.21-5.45-5.41-8.9-1.2-3.45-1.8-7.28-1.8-11.49v-75.26h-18.59Z" style="fill:#fff; stroke-width:0px;"/><path d="m1233.45,844c-9.16,0-17.63-1.5-25.41-4.51-7.77-3-14.5-7.13-20.17-12.39-5.67-5.26-10.1-11.44-13.29-18.53-3.19-7.1-4.79-14.78-4.79-23.04,0-8.86,1.6-17.03,4.79-24.5,3.19-7.47,7.6-13.92,13.24-19.32,5.63-5.41,12.34-9.63,20.11-12.67s16.24-4.56,25.41-4.56,17.65,1.48,25.46,4.45c7.81,2.97,14.55,7.04,20.22,12.22,5.67,5.18,10.12,11.29,13.35,18.31,3.23,7.02,4.84,14.59,4.84,22.7s-1.6,16.49-4.79,24c-3.19,7.51-7.62,14.07-13.29,19.66-5.67,5.6-12.41,10.03-20.22,13.29-7.81,3.27-16.3,4.9-25.46,4.9Zm4.06-14.08c3.15,0,6.08-1.03,8.79-3.1,2.7-2.07,5.05-4.84,7.04-8.34,1.99-3.49,3.53-7.53,4.62-12.11,1.09-4.58,1.63-9.35,1.63-14.31,0-7.36-.55-14.29-1.63-20.79-1.09-6.5-2.87-12.19-5.35-17.07-2.48-4.88-5.69-8.75-9.63-11.61-3.94-2.85-8.77-4.28-14.48-4.28-2.78,0-5.45,1.01-8,3.04-2.55,2.03-4.81,4.75-6.76,8.17-1.95,3.42-3.51,7.36-4.68,11.83-1.17,4.47-1.75,9.18-1.75,14.14,0,7.44.69,14.46,2.08,21.07,1.39,6.61,3.38,12.38,5.97,17.29,2.59,4.92,5.75,8.83,9.46,11.72,3.72,2.89,7.94,4.34,12.68,4.34Z" style="fill:#fff; stroke-width:0px;"/><path d="m1334.63,809.64c2.03,6.31,4.94,11.21,8.73,14.7,3.79,3.49,8.54,5.24,14.25,5.24,2.4,0,4.6-.3,6.59-.9,1.99-.6,3.72-1.45,5.18-2.54,1.46-1.09,2.59-2.35,3.38-3.77.79-1.43,1.18-2.97,1.18-4.62,0-2.7-.51-5.13-1.52-7.27-1.01-2.14-2.42-4.07-4.23-5.8-1.8-1.73-3.94-3.32-6.42-4.79-2.48-1.46-5.15-2.83-8-4.11-4.58-2.03-9.13-4.22-13.63-6.59s-8.56-5.07-12.17-8.11-6.52-6.52-8.73-10.42c-2.22-3.91-3.32-8.41-3.32-13.52s1.01-9.33,3.04-13.35c2.03-4.02,4.88-7.45,8.56-10.31,3.68-2.85,8.07-5.07,13.18-6.65,5.11-1.58,10.74-2.37,16.9-2.37,5.63,0,10.63.53,14.98,1.58,4.36,1.05,8.19,2.55,11.49,4.51,3.3,1.95,6.23,4.34,8.79,7.15,2.55,2.82,4.84,5.99,6.87,9.52l-20.28,6.99c-1.05-3.68-2.33-6.54-3.83-8.56-1.5-2.03-3.08-3.55-4.73-4.56-1.65-1.01-3.27-1.63-4.84-1.86-1.58-.22-2.97-.34-4.17-.34-2.18,0-4.24.25-6.2.73-1.95.49-3.68,1.18-5.18,2.08-1.5.9-2.7,2.01-3.61,3.32-.9,1.32-1.35,2.84-1.35,4.56,0,2.18.56,4.25,1.69,6.2,1.13,1.95,2.7,3.77,4.73,5.46,2.03,1.69,4.41,3.29,7.15,4.79,2.74,1.5,5.73,2.93,8.96,4.28,4.88,2.03,9.63,4.28,14.25,6.76,4.62,2.48,8.73,5.28,12.34,8.39,3.6,3.12,6.5,6.57,8.68,10.37,2.18,3.79,3.27,8.02,3.27,12.67,0,5.03-.83,9.73-2.48,14.08-1.65,4.36-4.34,8.15-8.06,11.38-3.72,3.23-8.53,5.79-14.42,7.66-5.9,1.88-13.05,2.82-21.46,2.82-7.21,0-13.31-.83-18.31-2.48-5-1.65-9.22-3.77-12.67-6.37-3.46-2.59-6.31-5.5-8.56-8.73-2.25-3.23-4.24-6.42-5.97-9.58l19.94-7.66Z" style="fill:#fff; stroke-width:0px;"/></g><path d="m468.85,691.37s12.97-15.16,13.19-37.64l38.04,28.53s-17.72,29.18-49.71,35.02l-1.51-25.91Z" style="stroke-width:0px;"/><path d="m463.23,681.86s12.97-15.16,13.19-37.64l38.04,28.53s-17.72,29.18-49.71,35.02l-1.51-25.91Z" style="fill:#f2e863; stroke-width:0px;"/><g style="filter:url(#f);"><path d="m901.27,703.61c-2.63,1.8-5.5,3.21-8.6,4.23-3.1,1.02-6.15,1.53-9.15,1.53-4.44,0-8.61-.99-12.51-2.98-3.91-1.99-7.31-4.66-10.23-8.01-2.91-3.35-5.2-7.21-6.86-11.58-1.66-4.37-2.5-8.93-2.5-13.69s1.02-9.39,3.05-13.9c2.03-4.51,4.82-8.52,8.35-12.03,3.54-3.51,7.67-6.33,12.41-8.46,4.74-2.13,9.81-3.19,15.22-3.19,2.08,0,4.03.16,5.86.49,1.83.32,3.48.76,4.96,1.32v-28.84l14.98-7.9h6.45v107.19h-21.42v-4.16Zm0-44.1c0-2.26-.36-4.34-1.07-6.24-.72-1.89-1.66-3.52-2.84-4.89s-2.51-2.42-3.99-3.16c-1.48-.74-2.96-1.11-4.44-1.11-1.94,0-3.79.64-5.55,1.91-1.76,1.27-3.29,3.03-4.61,5.27-1.32,2.24-2.37,4.9-3.15,7.97-.79,3.08-1.18,6.41-1.18,10.02,0,3.93.45,7.67,1.35,11.23.9,3.56,2.11,6.69,3.64,9.39,1.53,2.7,3.3,4.87,5.34,6.48,2.03,1.62,4.21,2.43,6.52,2.43.79,0,1.64-.13,2.56-.38.92-.25,1.84-.61,2.74-1.08.9-.46,1.76-1,2.57-1.63.81-.62,1.51-1.33,2.11-2.11v-34.11Z" style="fill:#f45b69; stroke-width:0px;"/><path d="m976.08,709.37c-5.04,0-9.78-.94-14.21-2.81-4.44-1.87-8.3-4.39-11.58-7.56-3.28-3.17-5.88-6.84-7.8-11.02-1.92-4.18-2.88-8.61-2.88-13.28,0-5.59.88-10.78,2.63-15.57,1.76-4.78,4.25-8.93,7.49-12.45,3.23-3.51,7.11-6.25,11.61-8.22,4.51-1.96,9.53-2.95,15.08-2.95,4.95,0,9.47.79,13.59,2.36,4.11,1.57,7.64,3.72,10.57,6.45,2.93,2.73,5.21,5.94,6.83,9.64,1.62,3.7,2.43,7.65,2.43,11.86h-49.16c.18,3.93.77,7.67,1.77,11.23.99,3.56,2.32,6.69,3.99,9.39,1.66,2.7,3.62,4.85,5.86,6.45,2.24,1.59,4.73,2.39,7.45,2.39,2.36,0,4.68-.4,6.97-1.21,2.29-.81,4.4-1.92,6.34-3.33,1.94-1.41,3.63-3.05,5.06-4.92,1.43-1.87,2.47-3.89,3.12-6.07l10.95,1.73c-1.11,3.84-2.88,7.44-5.3,10.82-2.43,3.37-5.27,6.33-8.53,8.87-3.26,2.54-6.81,4.54-10.64,6-3.84,1.46-7.72,2.18-11.65,2.18Zm9.08-50.89c-.19-2.08-.64-3.99-1.35-5.72-.72-1.73-1.63-3.22-2.74-4.47s-2.4-2.21-3.88-2.88c-1.48-.67-3.07-1.01-4.78-1.01-1.34,0-2.66.34-3.95,1.01-1.29.67-2.46,1.62-3.5,2.84s-1.92,2.7-2.63,4.44c-.72,1.73-1.19,3.66-1.42,5.79h24.27Z" style="fill:#f45b69; stroke-width:0px;"/></g></svg>