<?xml version="1.0" encoding="UTF-8"?>
<svg id="logos" xmlns="http://www.w3.org/2000/svg" viewBox="0 0 1536 1024">
  <defs>
    <style>
      .cls-1 {
        fill: #a67c52;
      }

      .cls-2 {
        fill: #3a7ca5;
      }

      .cls-3 {
        fill: #f2e863;
      }
    </style>
  </defs>
  <g>
    <g>
      <g>
        <path d="M142.21,783.58c2.73-.12,5.32-.17,7.76-.17,25.33,0,38,6.68,38,20.04v2.18c0,11.33-6.8,17.55-20.39,18.65h-8.11c-1.34.17-2,.84-2,2,0,4.36-.23,31.81-.7,82.36-3.54,10.87-10.31,16.3-20.31,16.3-13.59,0-20.39-10.51-20.39-31.55-.23-10.46-.35-19.9-.35-28.32,0-15.28.38-27.22,1.13-35.82-6.8,2.79-11.21,4.18-13.25,4.18h-2.09c-12.2-2.5-18.3-9.96-18.3-22.4,0-15.16,19.67-24.31,59-27.45Z"/>
        <path d="M310.89,815.05c15.13,13.42,22.7,29.63,22.7,48.63s-7.57,35.21-22.7,48.63c-15.14,13.42-33.39,20.13-54.77,20.13s-39.71-6.71-54.82-20.13c-15.11-13.42-22.66-29.63-22.66-48.63s7.55-35.21,22.66-48.63c15.11-13.42,33.38-20.13,54.82-20.13s39.64,6.71,54.77,20.13ZM255.59,835.96c-8.42,0-15.6,2.69-21.53,8.06-5.93,5.38-8.89,11.84-8.89,19.39s2.96,14.1,8.89,19.48c5.93,5.37,13.1,8.06,21.53,8.06s15.6-2.69,21.53-8.06c5.93-5.37,8.89-11.87,8.89-19.48s-2.96-14.02-8.89-19.39c-5.93-5.37-13.1-8.06-21.53-8.06Z"/>
        <path d="M454.9,784.81c10.81,3.25,17.69,16.7,20.65,40.35,2.44,20.04,3.66,39.13,3.66,57.26,0,3.2-.03,6.36-.09,9.5-.52,20.92-8.16,32.91-22.92,35.99-12.96,0-27.54-10.84-43.75-32.51-18.01-21.03-27.51-31.55-28.5-31.55h-.96l-1.05,2.09v45.75c0,8.48-4.74,14.58-14.21,18.3h-10.2c-10.17-3.19-15.25-9.29-15.25-18.3v-50.9c0-28.18,4.07-45.11,12.2-50.81,4.71-3.37,9.12-5.05,13.25-5.05h4.1c13.01,0,32.74,17.4,59.17,52.2,1.28.64,2.29.96,3.05.96l.96-2c-3.25-17.89-4.88-32.13-4.88-42.7,0-13.01,2.47-20.51,7.41-22.48,2.79-4.07,8.57-6.1,17.34-6.1Z"/>
        <path d="M574.38,792.74c22.83,0,38.08,6.1,45.75,18.3,1.34,2.67,2,6.39,2,11.16,0,10.11-6.77,16.21-20.31,18.3-2.32,0-8.77-2.35-19.35-7.06-1.69,0-4.39-.35-8.11-1.05-11.56,0-24.46,5.08-38.69,15.25-4.71,6.62-7.06,11.36-7.06,14.21v2c0,8.31,8.45,17.14,25.36,26.49,10.86,3.37,17.98,5.05,21.35,5.05,7.5-1.05,11.24-2.73,11.24-5.05-15.63-2.96-23.44-8.74-23.44-17.34v-8.11c0-8.42,6.8-13.83,20.39-16.21,25.62,0,42.91,9.47,51.85,28.41l.96,6.1v6.1c0,14-12.2,27.89-36.6,41.66-8.37,2.73-15.48,4.1-21.35,4.1h-5.05c-33.23,0-59.99-16.27-80.26-48.8-3.43-8.83-5.14-16.62-5.14-23.36,0-26.61,16.62-47.61,49.85-63.01,11.45-4.76,23.65-7.15,36.6-7.15Z"/>
        <path d="M671.55,787.68h6.01c9.06,0,14.84,6.1,17.34,18.3v3.05c-6.1,19.41-9.15,32.94-9.15,40.61-.7,2.32-1.05,6.74-1.05,13.25,0,16.27,3.72,24.4,11.16,24.4,10.51,0,20.36-6.8,29.54-20.39,8.77-12.14,15.89-34.83,21.35-68.06,4.36-6.8,10.78-10.2,19.26-10.2,12.9,0,19.35,10.87,19.35,32.59,0,6.45,2.03,37.27,6.1,92.47-3.95,10.17-10.05,15.25-18.3,15.25h-3.05c-8.42,0-14.53-5.43-18.3-16.3,0-6.1-1.02-9.15-3.05-9.15-18.71,16.27-35.64,24.4-50.81,24.4h-3.05c-22.08,0-37.68-12.52-46.8-37.56-2.04-6.62-3.05-15.45-3.05-26.49v-6.1c2.9-46.71,11.74-70.07,26.49-70.07Z"/>
        <path d="M921.33,809.99c2.09,4.13,3.14,7.87,3.14,11.24,0,5.05-2.35,9.3-7.06,12.72-4.82,3.49-9.56,5.23-14.21,5.23-2.91,0-5.78-.7-8.63-2.09-4.36-2.15-9.21-3.22-14.55-3.22-3.66,0-7.55.5-11.68,1.48-10.17,2.5-15.25,5.58-15.25,9.24,0,1.22,1.8,1.83,5.4,1.83,1.97,0,4.47-.2,7.5-.61,1.8-.17,3.49-.26,5.05-.26,6.1,0,10.86,1.54,14.29,4.62,3.49,3.2,5.23,7.9,5.23,14.12,0,1.34-.09,2.76-.26,4.27-.93,8.37-6.83,14.5-17.69,18.39-17.78,4.07-26.67,7.9-26.67,11.5.23,1.34.9,2,2,2h2.09c18.3,0,38.64-7.44,61-22.31,1.8-.35,3.51-.52,5.14-.52,9.76,0,15.66,6.65,17.69,19.96.23,1.57.35,3.08.35,4.53,0,13.31-9.88,23.3-29.63,29.98-18.53,6.28-36.4,9.41-53.6,9.41-3.14,0-6.25-.12-9.33-.35-20.1-1.34-33.58-11.5-40.44-30.5-.7-3.66-1.05-7.73-1.05-12.2,0-10.11,4.42-19.93,13.25-29.46-4.76-7.79-7.15-16.27-7.15-25.45,0-18.71,9.88-32.42,29.63-41.13,16.38-7.2,31.49-10.81,45.32-10.81,2.79,0,5.55.15,8.28.44,15.92,1.8,26.52,7.79,31.81,17.95Z"/>
      </g>
      <g>
        <path class="cls-1" d="M139.21,780.58c2.73-.12,5.32-.17,7.76-.17,25.33,0,38,6.68,38,20.04v2.18c0,11.33-6.8,17.55-20.39,18.65h-8.11c-1.34.17-2,.84-2,2,0,4.36-.23,31.81-.7,82.36-3.54,10.87-10.31,16.3-20.31,16.3-13.59,0-20.39-10.51-20.39-31.55-.23-10.46-.35-19.9-.35-28.32,0-15.28.38-27.22,1.13-35.82-6.8,2.79-11.21,4.18-13.25,4.18h-2.09c-12.2-2.5-18.3-9.96-18.3-22.4,0-15.16,19.67-24.31,59-27.45Z"/>
        <path class="cls-1" d="M307.89,812.05c15.13,13.42,22.7,29.63,22.7,48.63s-7.57,35.21-22.7,48.63c-15.14,13.42-33.39,20.13-54.77,20.13s-39.71-6.71-54.82-20.13c-15.11-13.42-22.66-29.63-22.66-48.63s7.55-35.21,22.66-48.63c15.11-13.42,33.38-20.13,54.82-20.13s39.64,6.71,54.77,20.13ZM252.59,832.96c-8.42,0-15.6,2.69-21.53,8.06-5.93,5.38-8.89,11.84-8.89,19.39s2.96,14.1,8.89,19.48c5.93,5.37,13.1,8.06,21.53,8.06s15.6-2.69,21.53-8.06c5.93-5.37,8.89-11.87,8.89-19.48s-2.96-14.02-8.89-19.39c-5.93-5.37-13.1-8.06-21.53-8.06Z"/>
        <path class="cls-1" d="M451.9,781.81c10.81,3.25,17.69,16.7,20.65,40.35,2.44,20.04,3.66,39.13,3.66,57.26,0,3.2-.03,6.36-.09,9.5-.52,20.92-8.16,32.91-22.92,35.99-12.96,0-27.54-10.84-43.75-32.51-18.01-21.03-27.51-31.55-28.5-31.55h-.96l-1.05,2.09v45.75c0,8.48-4.74,14.58-14.21,18.3h-10.2c-10.17-3.19-15.25-9.29-15.25-18.3v-50.9c0-28.18,4.07-45.11,12.2-50.81,4.71-3.37,9.12-5.05,13.25-5.05h4.1c13.01,0,32.74,17.4,59.17,52.2,1.28.64,2.29.96,3.05.96l.96-2c-3.25-17.89-4.88-32.13-4.88-42.7,0-13.01,2.47-20.51,7.41-22.48,2.79-4.07,8.57-6.1,17.34-6.1Z"/>
        <path class="cls-1" d="M571.38,789.74c22.83,0,38.08,6.1,45.75,18.3,1.34,2.67,2,6.39,2,11.16,0,10.11-6.77,16.21-20.31,18.3-2.32,0-8.77-2.35-19.35-7.06-1.69,0-4.39-.35-8.11-1.05-11.56,0-24.46,5.08-38.69,15.25-4.71,6.62-7.06,11.36-7.06,14.21v2c0,8.31,8.45,17.14,25.36,26.49,10.86,3.37,17.98,5.05,21.35,5.05,7.5-1.05,11.24-2.73,11.24-5.05-15.63-2.96-23.44-8.74-23.44-17.34v-8.11c0-8.42,6.8-13.83,20.39-16.21,25.62,0,42.91,9.47,51.85,28.41l.96,6.1v6.1c0,14-12.2,27.89-36.6,41.66-8.37,2.73-15.48,4.1-21.35,4.1h-5.05c-33.23,0-59.99-16.27-80.26-48.8-3.43-8.83-5.14-16.62-5.14-23.36,0-26.61,16.62-47.61,49.85-63.01,11.45-4.76,23.65-7.15,36.6-7.15Z"/>
        <path class="cls-1" d="M668.55,784.68h6.01c9.06,0,14.84,6.1,17.34,18.3v3.05c-6.1,19.41-9.15,32.94-9.15,40.61-.7,2.32-1.05,6.74-1.05,13.25,0,16.27,3.72,24.4,11.16,24.4,10.51,0,20.36-6.8,29.54-20.39,8.77-12.14,15.89-34.83,21.35-68.06,4.36-6.8,10.78-10.2,19.26-10.2,12.9,0,19.35,10.87,19.35,32.59,0,6.45,2.03,37.27,6.1,92.47-3.95,10.17-10.05,15.25-18.3,15.25h-3.05c-8.42,0-14.53-5.43-18.3-16.3,0-6.1-1.02-9.15-3.05-9.15-18.71,16.27-35.64,24.4-50.81,24.4h-3.05c-22.08,0-37.68-12.52-46.8-37.56-2.04-6.62-3.05-15.45-3.05-26.49v-6.1c2.9-46.71,11.74-70.07,26.49-70.07Z"/>
        <path class="cls-1" d="M918.33,806.99c2.09,4.13,3.14,7.87,3.14,11.24,0,5.05-2.35,9.3-7.06,12.72-4.82,3.49-9.56,5.23-14.21,5.23-2.91,0-5.78-.7-8.63-2.09-4.36-2.15-9.21-3.22-14.55-3.22-3.66,0-7.55.5-11.68,1.48-10.17,2.5-15.25,5.58-15.25,9.24,0,1.22,1.8,1.83,5.4,1.83,1.97,0,4.47-.2,7.5-.61,1.8-.17,3.49-.26,5.05-.26,6.1,0,10.86,1.54,14.29,4.62,3.49,3.2,5.23,7.9,5.23,14.12,0,1.34-.09,2.76-.26,4.27-.93,8.37-6.83,14.5-17.69,18.39-17.78,4.07-26.67,7.9-26.67,11.5.23,1.34.9,2,2,2h2.09c18.3,0,38.64-7.44,61-22.31,1.8-.35,3.51-.52,5.14-.52,9.76,0,15.66,6.65,17.69,19.96.23,1.57.35,3.08.35,4.53,0,13.31-9.88,23.3-29.63,29.98-18.53,6.28-36.4,9.41-53.6,9.41-3.14,0-6.25-.12-9.33-.35-20.1-1.34-33.58-11.5-40.44-30.5-.7-3.66-1.05-7.73-1.05-12.2,0-10.11,4.42-19.93,13.25-29.46-4.76-7.79-7.15-16.27-7.15-25.45,0-18.71,9.88-32.42,29.63-41.13,16.38-7.2,31.49-10.81,45.32-10.81,2.79,0,5.55.15,8.28.44,15.92,1.8,26.52,7.79,31.81,17.95Z"/>
      </g>
    </g>
    <g>
      <g>
        <path d="M133.21,773.58c2.73-.12,5.32-.17,7.76-.17,25.33,0,38,6.68,38,20.04v2.18c0,11.33-6.8,17.55-20.39,18.65h-8.11c-1.34.17-2,.84-2,2,0,4.36-.23,31.81-.7,82.36-3.54,10.87-10.31,16.3-20.31,16.3-13.59,0-20.39-10.51-20.39-31.55-.23-10.46-.35-19.9-.35-28.32,0-15.28.38-27.22,1.13-35.82-6.8,2.79-11.21,4.18-13.25,4.18h-2.09c-12.2-2.5-18.3-9.96-18.3-22.4,0-15.16,19.67-24.31,59-27.45Z"/>
        <path d="M301.89,805.05c15.13,13.42,22.7,29.63,22.7,48.63s-7.57,35.21-22.7,48.63c-15.14,13.42-33.39,20.13-54.77,20.13s-39.71-6.71-54.82-20.13c-15.11-13.42-22.66-29.63-22.66-48.63s7.55-35.21,22.66-48.63c15.11-13.42,33.38-20.13,54.82-20.13s39.64,6.71,54.77,20.13ZM246.59,825.96c-8.42,0-15.6,2.69-21.53,8.06-5.93,5.38-8.89,11.84-8.89,19.39s2.96,14.1,8.89,19.48c5.93,5.37,13.1,8.06,21.53,8.06s15.6-2.69,21.53-8.06c5.93-5.37,8.89-11.87,8.89-19.48s-2.96-14.02-8.89-19.39c-5.93-5.37-13.1-8.06-21.53-8.06Z"/>
        <path d="M445.9,774.81c10.81,3.25,17.69,16.7,20.65,40.35,2.44,20.04,3.66,39.13,3.66,57.26,0,3.2-.03,6.36-.09,9.5-.52,20.92-8.16,32.91-22.92,35.99-12.96,0-27.54-10.84-43.75-32.51-18.01-21.03-27.51-31.55-28.5-31.55h-.96l-1.05,2.09v45.75c0,8.48-4.74,14.58-14.21,18.3h-10.2c-10.17-3.19-15.25-9.29-15.25-18.3v-50.9c0-28.18,4.07-45.11,12.2-50.81,4.71-3.37,9.12-5.05,13.25-5.05h4.1c13.01,0,32.74,17.4,59.17,52.2,1.28.64,2.29.96,3.05.96l.96-2c-3.25-17.89-4.88-32.13-4.88-42.7,0-13.01,2.47-20.51,7.41-22.48,2.79-4.07,8.57-6.1,17.34-6.1Z"/>
        <path d="M565.38,782.74c22.83,0,38.08,6.1,45.75,18.3,1.34,2.67,2,6.39,2,11.16,0,10.11-6.77,16.21-20.31,18.3-2.32,0-8.77-2.35-19.35-7.06-1.69,0-4.39-.35-8.11-1.05-11.56,0-24.46,5.08-38.69,15.25-4.71,6.62-7.06,11.36-7.06,14.21v2c0,8.31,8.45,17.14,25.36,26.49,10.86,3.37,17.98,5.05,21.35,5.05,7.5-1.05,11.24-2.73,11.24-5.05-15.63-2.96-23.44-8.74-23.44-17.34v-8.11c0-8.42,6.8-13.83,20.39-16.21,25.62,0,42.91,9.47,51.85,28.41l.96,6.1v6.1c0,14-12.2,27.89-36.6,41.66-8.37,2.73-15.48,4.1-21.35,4.1h-5.05c-33.23,0-59.99-16.27-80.26-48.8-3.43-8.83-5.14-16.62-5.14-23.36,0-26.61,16.62-47.61,49.85-63.01,11.45-4.76,23.65-7.15,36.6-7.15Z"/>
        <path d="M662.55,777.68h6.01c9.06,0,14.84,6.1,17.34,18.3v3.05c-6.1,19.41-9.15,32.94-9.15,40.61-.7,2.32-1.05,6.74-1.05,13.25,0,16.27,3.72,24.4,11.16,24.4,10.51,0,20.36-6.8,29.54-20.39,8.77-12.14,15.89-34.83,21.35-68.06,4.36-6.8,10.78-10.2,19.26-10.2,12.9,0,19.35,10.87,19.35,32.59,0,6.45,2.03,37.27,6.1,92.47-3.95,10.17-10.05,15.25-18.3,15.25h-3.05c-8.42,0-14.53-5.43-18.3-16.3,0-6.1-1.02-9.15-3.05-9.15-18.71,16.27-35.64,24.4-50.81,24.4h-3.05c-22.08,0-37.68-12.52-46.8-37.56-2.04-6.62-3.05-15.45-3.05-26.49v-6.1c2.9-46.71,11.74-70.07,26.49-70.07Z"/>
        <path d="M912.33,799.99c2.09,4.13,3.14,7.87,3.14,11.24,0,5.05-2.35,9.3-7.06,12.72-4.82,3.49-9.56,5.23-14.21,5.23-2.91,0-5.78-.7-8.63-2.09-4.36-2.15-9.21-3.22-14.55-3.22-3.66,0-7.55.5-11.68,1.48-10.17,2.5-15.25,5.58-15.25,9.24,0,1.22,1.8,1.83,5.4,1.83,1.97,0,4.47-.2,7.5-.61,1.8-.17,3.49-.26,5.05-.26,6.1,0,10.86,1.54,14.29,4.62,3.49,3.2,5.23,7.9,5.23,14.12,0,1.34-.09,2.76-.26,4.27-.93,8.37-6.83,14.5-17.69,18.39-17.78,4.07-26.67,7.9-26.67,11.5.23,1.34.9,2,2,2h2.09c18.3,0,38.64-7.44,61-22.31,1.8-.35,3.51-.52,5.14-.52,9.76,0,15.66,6.65,17.69,19.96.23,1.57.35,3.08.35,4.53,0,13.31-9.88,23.3-29.63,29.98-18.53,6.28-36.4,9.41-53.6,9.41-3.14,0-6.25-.12-9.33-.35-20.1-1.34-33.58-11.5-40.44-30.5-.7-3.66-1.05-7.73-1.05-12.2,0-10.11,4.42-19.93,13.25-29.46-4.76-7.79-7.15-16.27-7.15-25.45,0-18.71,9.88-32.42,29.63-41.13,16.38-7.2,31.49-10.81,45.32-10.81,2.79,0,5.55.15,8.28.44,15.92,1.8,26.52,7.79,31.81,17.95Z"/>
      </g>
      <g>
        <path class="cls-3" d="M130.21,770.58c2.73-.12,5.32-.17,7.76-.17,25.33,0,38,6.68,38,20.04v2.18c0,11.33-6.8,17.55-20.39,18.65h-8.11c-1.34.17-2,.84-2,2,0,4.36-.23,31.81-.7,82.36-3.54,10.87-10.31,16.3-20.31,16.3-13.59,0-20.39-10.51-20.39-31.55-.23-10.46-.35-19.9-.35-28.32,0-15.28.38-27.22,1.13-35.82-6.8,2.79-11.21,4.18-13.25,4.18h-2.09c-12.2-2.5-18.3-9.96-18.3-22.4,0-15.16,19.67-24.31,59-27.45Z"/>
        <path class="cls-3" d="M298.89,802.05c15.13,13.42,22.7,29.63,22.7,48.63s-7.57,35.21-22.7,48.63c-15.14,13.42-33.39,20.13-54.77,20.13s-39.71-6.71-54.82-20.13c-15.11-13.42-22.66-29.63-22.66-48.63s7.55-35.21,22.66-48.63c15.11-13.42,33.38-20.13,54.82-20.13s39.64,6.71,54.77,20.13ZM243.59,822.96c-8.42,0-15.6,2.69-21.53,8.06-5.93,5.38-8.89,11.84-8.89,19.39s2.96,14.1,8.89,19.48c5.93,5.37,13.1,8.06,21.53,8.06s15.6-2.69,21.53-8.06c5.93-5.37,8.89-11.87,8.89-19.48s-2.96-14.02-8.89-19.39c-5.93-5.37-13.1-8.06-21.53-8.06Z"/>
        <path class="cls-3" d="M442.9,771.81c10.81,3.25,17.69,16.7,20.65,40.35,2.44,20.04,3.66,39.13,3.66,57.26,0,3.2-.03,6.36-.09,9.5-.52,20.92-8.16,32.91-22.92,35.99-12.96,0-27.54-10.84-43.75-32.51-18.01-21.03-27.51-31.55-28.5-31.55h-.96l-1.05,2.09v45.75c0,8.48-4.74,14.58-14.21,18.3h-10.2c-10.17-3.19-15.25-9.29-15.25-18.3v-50.9c0-28.18,4.07-45.11,12.2-50.81,4.71-3.37,9.12-5.05,13.25-5.05h4.1c13.01,0,32.74,17.4,59.17,52.2,1.28.64,2.29.96,3.05.96l.96-2c-3.25-17.89-4.88-32.13-4.88-42.7,0-13.01,2.47-20.51,7.41-22.48,2.79-4.07,8.57-6.1,17.34-6.1Z"/>
        <path class="cls-3" d="M562.38,779.74c22.83,0,38.08,6.1,45.75,18.3,1.34,2.67,2,6.39,2,11.16,0,10.11-6.77,16.21-20.31,18.3-2.32,0-8.77-2.35-19.35-7.06-1.69,0-4.39-.35-8.11-1.05-11.56,0-24.46,5.08-38.69,15.25-4.71,6.62-7.06,11.36-7.06,14.21v2c0,8.31,8.45,17.14,25.36,26.49,10.86,3.37,17.98,5.05,21.35,5.05,7.5-1.05,11.24-2.73,11.24-5.05-15.63-2.96-23.44-8.74-23.44-17.34v-8.11c0-8.42,6.8-13.83,20.39-16.21,25.62,0,42.91,9.47,51.85,28.41l.96,6.1v6.1c0,14-12.2,27.89-36.6,41.66-8.37,2.73-15.48,4.1-21.35,4.1h-5.05c-33.23,0-59.99-16.27-80.26-48.8-3.43-8.83-5.14-16.62-5.14-23.36,0-26.61,16.62-47.61,49.85-63.01,11.45-4.76,23.65-7.15,36.6-7.15Z"/>
        <path class="cls-3" d="M659.55,774.68h6.01c9.06,0,14.84,6.1,17.34,18.3v3.05c-6.1,19.41-9.15,32.94-9.15,40.61-.7,2.32-1.05,6.74-1.05,13.25,0,16.27,3.72,24.4,11.16,24.4,10.51,0,20.36-6.8,29.54-20.39,8.77-12.14,15.89-34.83,21.35-68.06,4.36-6.8,10.78-10.2,19.26-10.2,12.9,0,19.35,10.87,19.35,32.59,0,6.45,2.03,37.27,6.1,92.47-3.95,10.17-10.05,15.25-18.3,15.25h-3.05c-8.42,0-14.53-5.43-18.3-16.3,0-6.1-1.02-9.15-3.05-9.15-18.71,16.27-35.64,24.4-50.81,24.4h-3.05c-22.08,0-37.68-12.52-46.8-37.56-2.04-6.62-3.05-15.45-3.05-26.49v-6.1c2.9-46.71,11.74-70.07,26.49-70.07Z"/>
        <path class="cls-3" d="M909.33,796.99c2.09,4.13,3.14,7.87,3.14,11.24,0,5.05-2.35,9.3-7.06,12.72-4.82,3.49-9.56,5.23-14.21,5.23-2.91,0-5.78-.7-8.63-2.09-4.36-2.15-9.21-3.22-14.55-3.22-3.66,0-7.55.5-11.68,1.48-10.17,2.5-15.25,5.58-15.25,9.24,0,1.22,1.8,1.83,5.4,1.83,1.97,0,4.47-.2,7.5-.61,1.8-.17,3.49-.26,5.05-.26,6.1,0,10.86,1.54,14.29,4.62,3.49,3.2,5.23,7.9,5.23,14.12,0,1.34-.09,2.76-.26,4.27-.93,8.37-6.83,14.5-17.69,18.39-17.78,4.07-26.67,7.9-26.67,11.5.23,1.34.9,2,2,2h2.09c18.3,0,38.64-7.44,61-22.31,1.8-.35,3.51-.52,5.14-.52,9.76,0,15.66,6.65,17.69,19.96.23,1.57.35,3.08.35,4.53,0,13.31-9.88,23.3-29.63,29.98-18.53,6.28-36.4,9.41-53.6,9.41-3.14,0-6.25-.12-9.33-.35-20.1-1.34-33.58-11.5-40.44-30.5-.7-3.66-1.05-7.73-1.05-12.2,0-10.11,4.42-19.93,13.25-29.46-4.76-7.79-7.15-16.27-7.15-25.45,0-18.71,9.88-32.42,29.63-41.13,16.38-7.2,31.49-10.81,45.32-10.81,2.79,0,5.55.15,8.28.44,15.92,1.8,26.52,7.79,31.81,17.95Z"/>
      </g>
    </g>
  </g>
  <g>
    <g>
      <path d="M1041.07,791.52h7.21c19.58,0,38.99,25.61,58.22,76.82,6.23,20.24,9.35,35.46,9.35,45.67v1.07c0,10.56-6.94,16.79-20.83,18.69-9.26,0-16.17-6.59-20.74-19.76l-2.05-1.07h-16.65c-31.87,1.66-47.8,4.09-47.8,7.3-1.66,8.72-6.83,13.92-15.49,15.58h-8.37c-8.67-1.72-13.86-6.91-15.58-15.58v-8.28c0-7.12,11.42-34.48,34.27-82.08,13.47-25.58,26.29-38.37,38.46-38.37ZM1019.89,874.67c11.57-1.6,23.98-2.4,37.21-2.4,2.43,0,4.92.03,7.48.09-3.74-12.64-11.19-24.92-22.34-36.85-8.19,11.51-15.64,24.57-22.34,39.17Z"/>
      <path d="M1213.06,787.34c23.32,0,38.9,6.23,46.74,18.69,1.37,2.73,2.05,6.53,2.05,11.39,0,10.33-6.91,16.56-20.74,18.69-2.38,0-8.96-2.4-19.76-7.21-1.72,0-4.48-.36-8.28-1.07-11.81,0-24.99,5.19-39.52,15.58-4.81,6.77-7.21,11.6-7.21,14.51v2.05c0,8.49,8.63,17.51,25.91,27.06,11.1,3.44,18.37,5.16,21.81,5.16,7.66-1.07,11.48-2.79,11.48-5.16-15.96-3.03-23.95-8.93-23.95-17.71v-8.28c0-8.6,6.94-14.12,20.83-16.56,26.17,0,43.83,9.67,52.97,29.02l.98,6.23v6.23c0,14.3-12.46,28.49-37.39,42.55-8.55,2.79-15.82,4.18-21.81,4.18h-5.16c-33.95,0-61.28-16.62-81.99-49.85-3.5-9.02-5.25-16.97-5.25-23.86,0-27.18,16.97-48.63,50.92-64.36,11.69-4.87,24.15-7.3,37.39-7.3Z"/>
      <path d="M1408.99,804.97c2.14,4.21,3.2,8.04,3.2,11.48,0,5.16-2.4,9.5-7.21,13-4.93,3.56-9.76,5.34-14.51,5.34-2.97,0-5.91-.71-8.81-2.14-4.45-2.2-9.41-3.29-14.87-3.29-3.74,0-7.71.5-11.93,1.51-10.39,2.55-15.58,5.7-15.58,9.44,0,1.25,1.84,1.87,5.52,1.87,2.02,0,4.57-.21,7.66-.62,1.84-.18,3.56-.27,5.16-.27,6.23,0,11.1,1.57,14.6,4.72,3.56,3.26,5.34,8.07,5.34,14.42,0,1.37-.09,2.82-.27,4.36-.95,8.55-6.97,14.81-18.07,18.78-18.16,4.16-27.24,8.07-27.24,11.75.24,1.37.92,2.05,2.05,2.05h2.14c18.69,0,39.47-7.6,62.31-22.79,1.84-.36,3.59-.53,5.25-.53,9.97,0,15.99,6.8,18.07,20.39.24,1.6.36,3.15.36,4.63,0,13.59-10.09,23.8-30.27,30.62-18.93,6.41-37.18,9.61-54.75,9.61-3.21,0-6.38-.12-9.53-.36-20.53-1.37-34.3-11.75-41.3-31.16-.71-3.74-1.07-7.89-1.07-12.46,0-10.33,4.51-20.36,13.53-30.09-4.87-7.95-7.3-16.62-7.3-25.99,0-19.11,10.09-33.12,30.27-42.02,16.74-7.36,32.17-11.04,46.29-11.04,2.85,0,5.67.15,8.46.45,16.26,1.84,27.09,7.95,32.49,18.34Z"/>
    </g>
    <g>
      <path class="cls-2" d="M1038.07,788.52h7.21c19.58,0,38.99,25.61,58.22,76.82,6.23,20.24,9.35,35.46,9.35,45.67v1.07c0,10.56-6.94,16.79-20.83,18.69-9.26,0-16.17-6.59-20.74-19.76l-2.05-1.07h-16.65c-31.87,1.66-47.8,4.09-47.8,7.3-1.66,8.72-6.83,13.92-15.49,15.58h-8.37c-8.67-1.72-13.86-6.91-15.58-15.58v-8.28c0-7.12,11.42-34.48,34.27-82.08,13.47-25.58,26.29-38.37,38.46-38.37ZM1016.89,871.67c11.57-1.6,23.98-2.4,37.21-2.4,2.43,0,4.92.03,7.48.09-3.74-12.64-11.19-24.92-22.34-36.85-8.19,11.51-15.64,24.57-22.34,39.17Z"/>
      <path class="cls-2" d="M1210.06,784.34c23.32,0,38.9,6.23,46.74,18.69,1.37,2.73,2.05,6.53,2.05,11.39,0,10.33-6.91,16.56-20.74,18.69-2.38,0-8.96-2.4-19.76-7.21-1.72,0-4.48-.36-8.28-1.07-11.81,0-24.99,5.19-39.52,15.58-4.81,6.77-7.21,11.6-7.21,14.51v2.05c0,8.49,8.63,17.51,25.91,27.06,11.1,3.44,18.37,5.16,21.81,5.16,7.66-1.07,11.48-2.79,11.48-5.16-15.96-3.03-23.95-8.93-23.95-17.71v-8.28c0-8.6,6.94-14.12,20.83-16.56,26.17,0,43.83,9.67,52.97,29.02l.98,6.23v6.23c0,14.3-12.46,28.49-37.39,42.55-8.55,2.79-15.82,4.18-21.81,4.18h-5.16c-33.95,0-61.28-16.62-81.99-49.85-3.5-9.02-5.25-16.97-5.25-23.86,0-27.18,16.97-48.63,50.92-64.36,11.69-4.87,24.15-7.3,37.39-7.3Z"/>
      <path class="cls-2" d="M1405.99,801.97c2.14,4.21,3.2,8.04,3.2,11.48,0,5.16-2.4,9.5-7.21,13-4.93,3.56-9.76,5.34-14.51,5.34-2.97,0-5.91-.71-8.81-2.14-4.45-2.2-9.41-3.29-14.87-3.29-3.74,0-7.71.5-11.93,1.51-10.39,2.55-15.58,5.7-15.58,9.44,0,1.25,1.84,1.87,5.52,1.87,2.02,0,4.57-.21,7.66-.62,1.84-.18,3.56-.27,5.16-.27,6.23,0,11.1,1.57,14.6,4.72,3.56,3.26,5.34,8.07,5.34,14.42,0,1.37-.09,2.82-.27,4.36-.95,8.55-6.97,14.81-18.07,18.78-18.16,4.16-27.24,8.07-27.24,11.75.24,1.37.92,2.05,2.05,2.05h2.14c18.69,0,39.47-7.6,62.31-22.79,1.84-.36,3.59-.53,5.25-.53,9.97,0,15.99,6.8,18.07,20.39.24,1.6.36,3.15.36,4.63,0,13.59-10.09,23.8-30.27,30.62-18.93,6.41-37.18,9.61-54.75,9.61-3.21,0-6.38-.12-9.53-.36-20.53-1.37-34.3-11.75-41.3-31.16-.71-3.74-1.07-7.89-1.07-12.46,0-10.33,4.51-20.36,13.53-30.09-4.87-7.95-7.3-16.62-7.3-25.99,0-19.11,10.09-33.12,30.27-42.02,16.74-7.36,32.17-11.04,46.29-11.04,2.85,0,5.67.15,8.46.45,16.26,1.84,27.09,7.95,32.49,18.34Z"/>
    </g>
  </g>
</svg>