<?xml version="1.0" encoding="UTF-8"?><svg id="a" xmlns="http://www.w3.org/2000/svg" xmlns:xlink="http://www.w3.org/1999/xlink" viewBox="0 0 1536 1024"><defs><filter id="b" filterUnits="userSpaceOnUse"><feOffset dx="7.5" dy="7.5"/><feGaussianBlur result="c" stdDeviation="0"/><feFlood flood-color="#000" flood-opacity="1"/><feComposite in2="c" operator="in"/><feComposite in="SourceGraphic"/></filter></defs><g style="filter:url(#b);"><path d="m147.51,962.5l.19-3.61c.5-2.03.76-6.46.76-13.3,0-.89-.45-1.33-1.33-1.33l-1.14.19c-1.27,0-2.41-.26-3.42-.76-1.02-.51-2.22-.76-3.61-.76s-2.66.19-3.8.57c-2.16.63-3.23,4.05-3.23,10.26,0,1.01.1,1.93.29,2.75.19.82.29,2.19.29,4.08,0,2.66-.76,3.99-2.28,3.99-1.01,0-2.06-.64-3.13-1.9-1.08-1.27-1.62-3.04-1.62-5.32,0-.89.12-1.84.38-2.85.38-2.28.88-8.26,1.52-17.95.63-9.69,1.17-20.46,1.62-32.3.44-11.84.67-21.56.67-29.17,0-3.67-.07-6.46-.19-8.36l-.19-.19c0-.63-.1-1.11-.29-1.43-.19-.31-.7-.54-1.52-.67-.83-.12-1.42-.73-1.8-1.8-.38-1.07-.57-2.25-.57-3.52,0-1.39.12-2.66.38-3.8,1.26-7.72,1.9-16.91,1.9-27.55,0-5.44.31-9.4.95-11.88.63-2.47,2.5-3.92,5.6-4.37,3.1-.44,6.24-.67,9.41-.67,2.66,0,5.38-.12,8.17-.38,1.77,0,3.73.98,5.89,2.95,2.15,1.97,3.54,3.83,4.18,5.6,1.26,5.2,2.28,9.12,3.04,11.78.76,2.66,1.39,4.63,1.9,5.89.5,1.27.98,2.25,1.42,2.94.44.7.88,1.55,1.33,2.56.44,1.02.98,2.5,1.62,4.47.63,1.97,1.42,3.8,2.38,5.51s1.74,3.33,2.38,4.85c1.01,3.8,2.79,7.1,5.32,9.88.5-.25.76-.57.76-.95-.25-2.4-.38-4.75-.38-7.03,0-3.16-.13-5.25-.38-6.27-.38-4.94-.57-8.42-.57-10.45,0-1.64.25-3.58.76-5.79.5-2.21.82-5.23.95-9.02,0-6.96.82-11.9,2.47-14.82.88-1.77,2.41-2.66,4.56-2.66h1.14c.38.13,1.14.19,2.28.19l4.56-.19c1.65,0,3.36.26,5.13.76l1.14.19c.63,0,1.3-.1,2-.29.69-.19,1.42-.29,2.18-.29,2.53.13,4.24.95,5.13,2.47.88,1.52,1.33,3.55,1.33,6.08,0,2.28-.19,5.13-.57,8.55-.51,4.44-.89,9.76-1.14,15.96-.13,11.28-.32,19.45-.57,24.51l-.19,8.74c0,2.41.09,4.59.29,6.56.19,1.97.47,6.75.85,14.34,0,2.03.25,3.8.76,5.32.38.64.63,1.78.76,3.42v10.83c-.13.26-.22.51-.29.76-.07.26-.16.45-.29.57-1.52.64-2.28,1.77-2.28,3.42v1.9c.12,1.14.19,2.66.19,4.56,0,4.56-1.02,12.16-3.04,22.8-.38,2.15-1.27,3.23-2.66,3.23-1.4-.13-2.09-1.08-2.09-2.85l.19-4.18c0-3.3-1.71-4.94-5.13-4.94-4.43.25-7.25,1.55-8.45,3.9-1.21,2.34-1.81,5.22-1.81,8.65l.19,4.75c0,3.04-.7,4.56-2.09,4.56-1.27,0-1.9-.64-1.9-1.9l.19-1.9c0-2.28-.16-4.53-.48-6.75-.32-2.22-.47-4.4-.47-6.55l.19-2.85c0-1.52-.19-3.11-.57-4.75-.13-.89-.19-1.84-.19-2.85-.38-1.65-1.08-3.23-2.09-4.75l-2.66-4.94c-.76-1.77-1.65-3.54-2.66-5.32-.38.51-.67,1.04-.85,1.61-.19.57-.41,1.04-.67,1.43-.26.38-.7.57-1.33.57-1.52,0-2.28-1.01-2.28-3.04,0-.5-.35-1.87-1.04-4.08-.7-2.21-2.25-7-4.66-14.35-.89-2.66-1.36-4.68-1.42-6.08-.07-1.39-1.17-3.29-3.33-5.7l-.57-.57v11.21c0,.89-.03,1.36-.1,1.42-.06.07-.09.16-.09.29-1.4,2.03-2.09,4.12-2.09,6.27l.19,2.66c0,3.93-.13,6.78-.38,8.55-.25,2.41-.38,5.96-.38,10.64l.38,4.94c0,2.28-.6,3.83-1.8,4.65-1.21.82-1.8,2.25-1.8,4.27l.19,3.42c.12,1.9.19,4.62.19,8.17,0,5.57-.19,8.8-.57,9.69-.38.88-1.01,1.45-1.9,1.71-2.79,0-4.18-2.28-4.18-6.84Z" style="fill:#f45b69; stroke-width:0px;"/><path d="m229.02,956.8l.38-6.65c0-1.78-.32-3.93-.95-6.46-.38-1.02-.86-1.81-1.42-2.38-.57-.57-1.27-1.05-2.09-1.43-.83-.38-1.55-.95-2.18-1.71-.64-.76-.95-2.09-.95-3.99,0-3.3,1.08-7.73,3.23-13.3,1.52-4.56,2.72-9.05,3.61-13.49.63-3.17,1.58-6.27,2.85-9.31l.19-.57c0-.5-.38-.82-1.14-.95-1.78-.5-2.66-1.52-2.66-3.04,0-.5.48-2.15,1.42-4.94.95-2.78,2.03-5.76,3.23-8.93,1.2-3.16,2.31-5.76,3.33-7.79,2.15-4.68,3.61-9.75,4.37-15.2.25-1.27.63-2.47,1.14-3.61.63-1.64,1.01-3.35,1.14-5.13.38-4.81,1.11-10.35,2.19-16.62,1.07-6.27,2.38-10.99,3.89-14.15.63-1.52,1.52-2.76,2.66-3.71,1.14-.95,2.66-1.43,4.56-1.43h1.33c2.41,0,4.78-.19,7.12-.57,2.34-.38,4.59-.57,6.75-.57h10.64c1.52,0,3.35,1.55,5.51,4.65,2.15,3.11,3.61,6.49,4.37,10.17,1.26,5.45,2.91,9.63,4.94,12.54,2.03,2.92,3.35,6.27,3.99,10.07,0,1.02-.35,1.74-1.04,2.19-.7.45-1.04,1.04-1.04,1.81.12,2.79.63,5.42,1.52,7.88.88,2.47,1.33,5.51,1.33,9.12s.88,7.06,2.66,10.35c2.28,4.82,4.68,14.63,7.22,29.45,1.65,9.25,3.17,15.96,4.56,20.14,1.26,3.04,1.9,5.63,1.9,7.79,0,1.65-.35,2.82-1.04,3.52-.7.69-1.36,1.23-2,1.62-.63.38-1.17.76-1.61,1.14-.45.38-.67.95-.67,1.71v7.22c0,3.54-.07,5.95-.19,7.22-.38,3.04-1.33,4.56-2.85,4.56-1.02,0-1.78-1.02-2.28-3.04l-.19-10.07c-.38-2.28-.7-3.87-.95-4.75-.26-.89-.76-1.46-1.52-1.71-.76-.26-1.93-.41-3.51-.48-1.58-.07-3.77-.28-6.55-.67h-.76c-.76,0-1.23.29-1.42.85-.19.57-.29,1.55-.29,2.95s-.07,3.29-.19,5.7c-.13,1.01-.45,1.81-.95,2.38-.51.57-1.08.85-1.71.85-.76,0-1.58-.57-2.47-1.71-.89-1.14-1.33-2.35-1.33-3.61v-.95c0-1.77-.26-3.51-.76-5.22-.51-1.71-.76-3.45-.76-5.23l.19-1.71c0-.89-.16-1.55-.48-2-.32-.45-.6-.85-.85-1.23-1.02-4.06-1.65-7.34-1.9-9.88-.13-1.9-.35-3.35-.67-4.37-.32-1.01-1.11-1.52-2.38-1.52-.51,0-.95-.06-1.33-.19-2.03-.76-3.99-1.14-5.89-1.14-2.79,0-5.51.38-8.17,1.14-1.14.38-2.16.66-3.04.85-.89.19-1.62,1.55-2.18,4.08-.57,2.54-1.08,5.42-1.52,8.65-.45,3.23-.92,6.17-1.42,8.83-.26,1.01-.38,2.09-.38,3.23v3.23c0,1.9-.32,3.48-.95,4.75-.64,1.26-1.4,1.9-2.28,1.9-.76,0-1.33-.32-1.71-.95-.38-.64-.57-1.4-.57-2.28l.19-3.61c0-2.03-1.08-3.11-3.23-3.23-.38,0-.86-.32-1.43-.95-.57-.64-1.3-.95-2.18-.95-1.14,0-2.16.5-3.04,1.52-2.03,3.67-3.04,7.28-3.04,10.83v3.61c0,5.19-1.14,7.79-3.42,7.79-1.9,0-2.85-2.98-2.85-8.93Zm47.88-72.39c0-1.14-.7-4.05-2.09-8.74l-2.28-9.5c-.26-1.14-1.02-2.15-2.28-3.04-.25,4.06-.98,7.82-2.18,11.3-1.21,3.49-1.93,6.94-2.19,10.35,1.39.26,2.72.38,3.99.38h6.65c.25-.12.38-.38.38-.76Z" style="fill:#f45b69; stroke-width:0px;"/><path d="m404,978.08l.38-3.61c.25-1.52.38-3.49.38-5.89,0-4.94-.45-9.53-1.33-13.77-.89-4.25-1.33-9.02-1.33-14.35l.19-5.7c.25-2.79.38-5.63.38-8.55l.19-17.29c.12-6.96.38-11.59.76-13.87.25-1.39.44-3.48.57-6.27,0-.5-.19-.88-.57-1.14-1.65-1.01-2.47-2.66-2.47-4.94,0-1.9.25-4.11.76-6.65.76-3.16,1.14-6.4,1.14-9.69,0-1.26-.07-2.47-.19-3.61-.13-1.14-.19-2.34-.19-3.61,0-4.43.19-7.95.57-10.54.38-2.59.7-5.73.95-9.4,0-1.39-.07-2.38-.19-2.95-.13-.57-.19-1.36-.19-2.38,0-2.28.57-6.96,1.71-14.06.38-2.78,1.42-4.56,3.13-5.32,1.71-.76,3.64-1.14,5.79-1.14,1.65-.12,3.23-.38,4.75-.76,2.28-.63,4.56-.95,6.84-.95,1.52,0,3.2.07,5.03.19,1.83.13,4.08.19,6.75.19l8.55-.19c5.7,0,12.41,1.46,20.14,4.37l3.23,1.14c2.41.51,4.68,1.46,6.84,2.85,10.89,8.11,16.34,18.5,16.34,31.16,0,4.56-.51,9.09-1.52,13.58-1.01,4.5-2.16,8.83-3.42,13.02-2.54,8.87-3.8,15.27-3.8,19.19v2.28c0,1.27-.64,1.9-1.9,1.9-1.14,0-1.78-.63-1.9-1.9-.51-4.18-1.11-7.09-1.81-8.74-.7-1.64-1.68-2.47-2.94-2.47-1.4,0-2.82.48-4.28,1.43-1.46.95-2.18,2.19-2.18,3.71,0,1.14.29,2.56.85,4.27.57,1.71,1.3,3.13,2.19,4.27,3.54,5.32,7.53,15.46,11.97,30.4.38,1.52.76,2.72,1.14,3.61,1.52,4.68,2.28,7.66,2.28,8.93,0,.63-.13,1.07-.38,1.33-.89,1.01-1.46,2.02-1.71,3.04-.26,1.01-.45,2.21-.57,3.61,0,2.4-.57,6.2-1.71,11.4-.51,1.52-1.33,2.28-2.47,2.28-1.65,0-2.47-1.33-2.47-3.99,0-2.16.22-3.83.67-5.03.44-1.21.66-2.44.66-3.71,0-5.32-2.28-7.98-6.84-7.98-1.01,0-2.06.06-3.13.19-1.08.12-1.93.19-2.56.19l-1.33-.19c-.64,0-1.02.5-1.14,1.52-.13,1.64-.41,3.29-.85,4.94-.45,1.64-.67,3.48-.67,5.51l.19,2.66c-.13,1.26-.83,1.9-2.09,1.9-.63-.13-1.02-.35-1.14-.67-.13-.32-.26-1.3-.38-2.94-.26-9.76-2.09-18.31-5.51-25.65l-.57-1.33c-.51-2.15-1.71-3.29-3.61-3.42-.76,0-1.46-1.2-2.09-3.61l-.38-1.9c-.51-4.3-2.47-9.81-5.89-16.53-1.39-2.91-2.79-5-4.18-6.27.25.89.38,2.22.38,3.99,0,3.8-.32,8.77-.95,14.91-.63,6.15-.95,11.43-.95,15.87v3.23c0,2.02-.29,4.05-.86,6.08-.57,2.02-.92,4.05-1.04,6.08,0,1.01-.29,1.87-.85,2.56-.57.69-1.24,1.04-2,1.04-1.14,0-2.06-.98-2.75-2.94-.7-1.97-1.93-2.95-3.71-2.95l-3.99.38c-1.27,0-2.57-.22-3.9-.67-1.33-.45-2.38-.67-3.13-.67-2.03,0-3.11,1.58-3.23,4.75-.64,5.44-.95,10.19-.95,14.25l.19,9.88c0,2.28-.16,3.99-.47,5.13-.32,1.14-1.04,1.71-2.18,1.71-2.03,0-3.04-1.58-3.04-4.75Zm45.22-110.96l4.94.19c1.26,0,2.34-.19,3.23-.57.88-.38,1.83-1.71,2.85-3.99,1.77-3.92,2.66-6.9,2.66-8.93,0-1.65-.38-3.61-1.14-5.89,0,.13-.09.29-.29.48s-.29.41-.29.67l.19,1.33c0,1.77-.26,3.55-.76,5.32l-.57,2.85c-.64,2.66-1.65,3.99-3.04,3.99-.64,0-1.24-.31-1.8-.95-.57-.63-.86-1.52-.86-2.66l.19-3.99c0-5.44-.41-8.8-1.24-10.07-.83-1.26-2.09-2.28-3.8-3.04-1.71-.76-3.14-1.14-4.28-1.14-1.9.38-3.61,1.52-5.13,3.42-1.52,1.9-2.28,3.68-2.28,5.32l-.38,14.44c0,1.9.09,3.14.29,3.71s.6.85,1.24.85c5.19-.88,8.61-1.33,10.26-1.33Z" style="fill:#f45b69; stroke-width:0px;"/><path d="m572.91,961.93c0-1.9.12-4.12.38-6.65.12-3.3.19-8.11.19-14.44-.25-2.92-1.08-4.82-2.47-5.7-.38-.26-.76-.6-1.14-1.04-.38-.45-.76-.67-1.14-.67-.25,0-.51.06-.76.19-.25.12-.51.31-.76.57-.26.25-.57.44-.95.57l-3.61,1.14c-2.03.76-4.37,1.49-7.03,2.18-2.66.69-6.27,1.05-10.83,1.05-6.97,0-12.1-1.08-15.39-3.23-.76-.38-1.46-.57-2.09-.57-3.04,0-4.88,2.78-5.51,8.36-.26,2.28-.38,5.25-.38,8.93,0,1.64-.22,2.91-.67,3.8-.45.88-1.36,1.33-2.75,1.33-.76,0-1.21-.32-1.33-.95-.13-.64-.26-1.52-.38-2.66-.13-1.14-.32-2.54-.57-4.18l-6.65-30.21c-1.27-5.44-1.9-9.5-1.9-12.16l.19-1.71c0-2.15-.35-4.47-1.04-6.94-.7-2.47-1.04-4.97-1.04-7.5l.19-6.08-.57-3.8-.57-3.23c-1.9,0-2.92-.44-3.04-1.33-.51-1.52-.76-3.42-.76-5.7,3.54-22.04,5.32-33.5,5.32-34.39l-.38-1.52c-.76-2.53-1.14-5.95-1.14-10.26,0-3.92.86-7.79,2.57-11.59,1.71-3.8,4.59-5.7,8.64-5.7h1.14c3.29.38,6.2.57,8.74.57s4.68.13,6.46.38c3.8.76,5.7,3.74,5.7,8.93,0,1.65-.16,3.33-.47,5.04-.32,1.71-.47,7.31-.47,16.81v54.15c0,4.56.25,7.35.76,8.36.5,1.02,1.14,1.84,1.9,2.47.76.64,1.52,1.59,2.28,2.85.76,1.27,1.83,1.9,3.23,1.9,1.9,0,3.89-.82,5.98-2.47,2.09-1.64,3.14-3.35,3.14-5.13l-.19-2.66c0-1.77.16-3.48.47-5.13.32-1.64.54-3.23.67-4.75.12-5.7.25-10.23.38-13.58.12-3.35.29-6.2.48-8.55.19-2.34.35-4.91.47-7.7,0-2.15-.32-3.23-.95-3.23-.51-.25-.76-.88-.76-1.9v-1.71l1.52-10.83.19-3.99c0-1.39-.13-3.04-.38-4.94-.63-5.06-.95-8.99-.95-11.78,0-3.67.95-6.68,2.85-9.02,1.9-2.34,4.75-3.52,8.55-3.52l3.23.19,8.17-.19,6.27.19c1.26,0,2.25.19,2.95.57.69.38,1.3,1.46,1.8,3.23,1.14,5.07,1.71,10.58,1.71,16.53,0,.89.06,1.71.19,2.47-.76,5.07-1.14,10.33-1.14,15.77,0,4.18.12,8.36.38,12.54l.19,9.88c0,7.48-.89,11.53-2.66,12.16-.38.26-.6.51-.67.76-.07.26-.09.76-.09,1.52,0,2.92-.26,6.46-.76,10.64-.64,4.94-1.04,9.85-1.24,14.72-.19,4.88-.73,9.76-1.62,14.63-.89,4.88-1.4,10.23-1.52,16.05,0,2.66-.26,5.38-.76,8.17-1.14,3.8-1.71,7.41-1.71,10.83v.95c0,2.53-.19,4.59-.57,6.17-.38,1.58-1.27,2.44-2.66,2.56-1.9,0-2.85-2.28-2.85-6.84Z" style="fill:#f45b69; stroke-width:0px;"/><path d="m605.4,956.8l.38-6.65c0-1.78-.32-3.93-.95-6.46-.38-1.02-.86-1.81-1.42-2.38-.57-.57-1.27-1.05-2.09-1.43-.83-.38-1.55-.95-2.18-1.71-.64-.76-.95-2.09-.95-3.99,0-3.3,1.08-7.73,3.23-13.3,1.52-4.56,2.72-9.05,3.61-13.49.63-3.17,1.58-6.27,2.85-9.31l.19-.57c0-.5-.38-.82-1.14-.95-1.78-.5-2.66-1.52-2.66-3.04,0-.5.48-2.15,1.42-4.94.95-2.78,2.03-5.76,3.23-8.93,1.2-3.16,2.31-5.76,3.33-7.79,2.15-4.68,3.61-9.75,4.37-15.2.25-1.27.63-2.47,1.14-3.61.63-1.64,1.01-3.35,1.14-5.13.38-4.81,1.11-10.35,2.19-16.62,1.07-6.27,2.38-10.99,3.89-14.15.63-1.52,1.52-2.76,2.66-3.71,1.14-.95,2.66-1.43,4.56-1.43h1.33c2.41,0,4.78-.19,7.12-.57,2.34-.38,4.59-.57,6.75-.57h10.64c1.52,0,3.35,1.55,5.51,4.65,2.15,3.11,3.61,6.49,4.37,10.17,1.26,5.45,2.91,9.63,4.94,12.54,2.03,2.92,3.35,6.27,3.99,10.07,0,1.02-.35,1.74-1.04,2.19-.7.45-1.04,1.04-1.04,1.81.12,2.79.63,5.42,1.52,7.88.88,2.47,1.33,5.51,1.33,9.12s.88,7.06,2.66,10.35c2.28,4.82,4.68,14.63,7.22,29.45,1.65,9.25,3.17,15.96,4.56,20.14,1.26,3.04,1.9,5.63,1.9,7.79,0,1.65-.35,2.82-1.04,3.52-.7.69-1.36,1.23-2,1.62-.63.38-1.17.76-1.61,1.14-.45.38-.67.95-.67,1.71v7.22c0,3.54-.07,5.95-.19,7.22-.38,3.04-1.33,4.56-2.85,4.56-1.02,0-1.78-1.02-2.28-3.04l-.19-10.07c-.38-2.28-.7-3.87-.95-4.75-.26-.89-.76-1.46-1.52-1.71-.76-.26-1.93-.41-3.51-.48-1.58-.07-3.77-.28-6.55-.67h-.76c-.76,0-1.23.29-1.42.85-.19.57-.29,1.55-.29,2.95s-.07,3.29-.19,5.7c-.13,1.01-.45,1.81-.95,2.38-.51.57-1.08.85-1.71.85-.76,0-1.58-.57-2.47-1.71-.89-1.14-1.33-2.35-1.33-3.61v-.95c0-1.77-.26-3.51-.76-5.22-.51-1.71-.76-3.45-.76-5.23l.19-1.71c0-.89-.16-1.55-.48-2-.32-.45-.6-.85-.85-1.23-1.02-4.06-1.65-7.34-1.9-9.88-.13-1.9-.35-3.35-.67-4.37-.32-1.01-1.11-1.52-2.38-1.52-.51,0-.95-.06-1.33-.19-2.03-.76-3.99-1.14-5.89-1.14-2.79,0-5.51.38-8.17,1.14-1.14.38-2.16.66-3.04.85-.89.19-1.62,1.55-2.18,4.08-.57,2.54-1.08,5.42-1.52,8.65-.45,3.23-.92,6.17-1.42,8.83-.26,1.01-.38,2.09-.38,3.23v3.23c0,1.9-.32,3.48-.95,4.75-.64,1.26-1.4,1.9-2.28,1.9-.76,0-1.33-.32-1.71-.95-.38-.64-.57-1.4-.57-2.28l.19-3.61c0-2.03-1.08-3.11-3.23-3.23-.38,0-.86-.32-1.43-.95-.57-.64-1.3-.95-2.18-.95-1.14,0-2.16.5-3.04,1.52-2.03,3.67-3.04,7.28-3.04,10.83v3.61c0,5.19-1.14,7.79-3.42,7.79-1.9,0-2.85-2.98-2.85-8.93Zm47.88-72.39c0-1.14-.7-4.05-2.09-8.74l-2.28-9.5c-.26-1.14-1.02-2.15-2.28-3.04-.25,4.06-.98,7.82-2.18,11.3-1.21,3.49-1.93,6.94-2.19,10.35,1.39.26,2.72.38,3.99.38h6.65c.25-.12.38-.38.38-.76Z" style="fill:#f45b69; stroke-width:0px;"/><path d="m855.25,978.75c-.38-1.46-.57-3.01-.57-4.65l.19-4.75c-.13-4.56-.32-8.05-.57-10.45l-2.66-12.54c-.64-2.66-1.9-3.99-3.8-3.99-1.65,0-3.61.5-5.89,1.52-4.94,1.52-8.81,2.28-11.59,2.28s-5.77-.64-8.93-1.9l-2.66-.95c-1.9-.64-3.68-1.52-5.32-2.66-.25-.26-.51-.38-.76-.38-.38,0-.7.19-.95.57-1.4.88-3.61,1.83-6.65,2.85-.76.38-1.52.57-2.28.57s-1.55-.13-2.38-.38c-.83-.26-1.62-.38-2.38-.38-1.9,0-3.61,1.26-5.13,3.8v.19c-2.41,3.29-3.61,6.27-3.61,8.93s-.95,3.99-2.85,3.99c-1.14,0-2.16-.76-3.04-2.28-.64-2.28-.95-4.69-.95-7.22v-6.08c0-3.04-.45-5.96-1.33-8.74l.19-28.88-.19-11.59c0-1.52-.6-2.53-1.8-3.04-1.21-.5-1.81-1.77-1.81-3.8,0-2.66.57-6.08,1.71-10.26,1.64-5.44,2.47-10.76,2.47-15.96,0-1.39-.13-2.78-.38-4.18-.51-2.78-.76-5.63-.76-8.55l-.19-6.08-.19-3.42c0-2.4.12-4.78.38-7.12.25-2.34.38-5.1.38-8.26,0-1.01.35-1.9,1.04-2.66.7-.76,1.17-1.52,1.43-2.28,1.64-4.43,4.94-6.77,9.88-7.03,1.26,0,2.53-.06,3.8-.19,1.26-.12,2.59-.19,3.99-.19,3.67,0,6.58,1.4,8.74,4.18.5.76,1.08,1.14,1.71,1.14.38,0,.88-.25,1.52-.76,4.05-3.54,9.43-5.32,16.15-5.32,6.08,0,11.9.76,17.48,2.28.12.13.31.19.57.19.88,0,3.13,1.14,6.75,3.42,3.61,2.28,7.53,6.43,11.78,12.44,4.24,6.02,7.76,14.47,10.54,25.37.76,3.93,1.33,7.86,1.71,11.78.25,3.04.63,6.02,1.14,8.93,0,2.54-.09,4.34-.29,5.42-.19,1.08-.29,2.38-.29,3.9,0,3.04.19,5.83.57,8.36.38,2.54.57,4.82.57,6.84,0,2.16-1.08,3.23-3.23,3.23-.25,0-.57.32-.95.95-.89,5.58-2.98,10.58-6.27,15.01l-.38.57c-2.92,5.07-5.32,15.89-7.22,32.49l-1.52,9.31-.19,2.85c0,1.77.1,3.58.29,5.42.19,1.83.29,3.52.29,5.04,0,3.29-.76,5.06-2.28,5.32-1.65,0-2.66-.73-3.04-2.19Zm-24.79-72.2c.82-.69,1.55-1.46,2.19-2.28.63-.82,1.33-1.55,2.09-2.19,1.77-1.14,2.94-2.34,3.51-3.61.57-1.26.95-2.66,1.14-4.18.19-1.52.6-3.16,1.24-4.94,1.9-4.56,2.85-7.79,2.85-9.69,0-.76-.13-1.45-.38-2.09-.25-.63-.38-1.71-.38-3.23l.19-4.56c0-5.7-1.49-10.76-4.46-15.2-2.98-4.43-5.42-6.65-7.32-6.65-.76,0-1.3.32-1.62.95-.32.64-.54,1.08-.67,1.33-.38,1.02-.57,2.09-.57,3.23,0,3.29-.13,6.02-.38,8.17-.38,2.66-.64,7.29-.76,13.87-.13,1.78-.95,2.79-2.47,3.04-.38,0-.7-.09-.95-.28-.25-.19-.47-.41-.67-.67-.19-.25-.41-.48-.67-.67-.25-.19-.45-.48-.57-.85-.13-.38-.19-.98-.19-1.81s-.13-2.66-.38-5.51c-.25-2.85-.67-5.7-1.24-8.55-.57-2.85-1.23-4.91-2-6.17-.38.64-.57,3.11-.57,7.41,0,5.2.31,14.5.95,27.93l.38,13.68v2.09c0,1.14.25,1.81.76,2,.5.19,1.46.29,2.85.29l4.75.19c1.39,0,2.5-.35,3.33-1.04Z" style="fill:#f45b69; stroke-width:0px;"/><path d="m967.92,987.96c-2.16-.25-3.23-5.26-3.23-15.01l.19-13.68c0-5.2-.29-9.72-.86-13.58-.57-3.87-2-5.79-4.27-5.79-1.02,0-2.28.6-3.8,1.81-1.52,1.2-3.64,2.25-6.36,3.13-2.73.88-7.38,1.33-13.97,1.33-8.24-.64-14.06-1.9-17.48-3.8-1.9-1.14-3.42-1.71-4.56-1.71-1.52,0-2.54,1.58-3.04,4.75l-.76,4.56c-1.01,3.67-1.52,7.41-1.52,11.21l.19,1.52c-.38,2.53-1.33,3.8-2.85,3.8-1.02,0-2-.64-2.95-1.9-.95-1.27-1.42-3.23-1.42-5.89l.19-3.04c0-9.63-1.71-22.04-5.13-37.24l-1.9-8.36c-.89-4.56-1.46-7.79-1.71-9.69-.26-1.9-.45-3.01-.57-3.32-.13-.31-.32-.48-.57-.48-2.79,0-4.18-2.02-4.18-6.08,0-3.04.54-6.84,1.62-11.4,1.07-4.56,2.34-9.53,3.8-14.92,1.46-5.38,2.88-10.93,4.28-16.62.38-1.26,1.2-3.39,2.47-6.37,1.26-2.97,2.75-6.11,4.46-9.4,1.71-3.29,3.52-6.01,5.42-8.17,5.95-6.58,11.43-10.51,16.44-11.78,5-1.26,9.78-1.9,14.34-1.9h6.65c3.29,0,7.22,1.46,11.78,4.37,4.56,2.92,8.04,5.89,10.45,8.93,4.43,5.32,8.1,12.76,11.02,22.33,2.91,9.57,4.37,20.42,4.37,32.58,0,9.88-1.27,20.4-3.8,31.54-.13.89-.19,2.25-.19,4.08s-.07,3.71-.19,5.6c-.13,1.9-.41,3.55-.85,4.94-.45,1.4-1.24,2.09-2.38,2.09-.51,0-.95-.1-1.33-.29-.38-.19-.83-.35-1.33-.48-.26,0-.45.1-.57.29-.13.19-.19.38-.19.57s-.06.35-.19.48c-1.4,5.06-2.09,9.24-2.09,12.54-.13,6.71-.32,13.02-.57,18.9-.25,5.89-.38,11.69-.38,17.39l.19,8.17c0,2.78-.76,4.18-2.28,4.18l-.38-.19Zm-23.37-76c5.44-5.95,8.17-19.12,8.17-39.52,0-9.75-1.02-17.98-3.04-24.7-.51-1.14-2.09-2.53-4.75-4.18-1.14-.63-2.16-.95-3.04-.95-3.93,1.14-6.3,3.39-7.12,6.74-.83,3.36-1.24,6.68-1.24,9.98v3.61c0,1.4-.07,2.66-.19,3.8-.26,1.65-1.02,2.47-2.28,2.47s-2.09-.63-2.47-1.9c-.38-1.26-.57-2.59-.57-3.99-.13-2.28-.57-4.3-1.33-6.08l-1.14,9.69c-.26,1.4-.38,2.79-.38,4.18s.06,3.07.19,5.03c.12,1.97.19,4.34.19,7.12l.76,7.98c0,1.27-.19,2.41-.57,3.42-.38,1.02-.57,1.9-.57,2.66,0,1.4.5,2.66,1.52,3.8.5.89,1.04,1.97,1.62,3.23.57,1.27.85,2.98.85,5.13s.7,3.93,2.09,5.32c1.39,1.4,2.91,2.09,4.56,2.09,2.79,0,5.7-1.65,8.74-4.94Z" style="fill:#f45b69; stroke-width:0px;"/><path d="m1070.99,967.82c-.45-.38-.67-.95-.67-1.71-1.02-11.78-1.52-20.21-1.52-25.27,0-4.69.5-8.24,1.52-10.64,1.14-3.04,1.71-7.79,1.71-14.25,0-1.26.16-2.88.47-4.85.32-1.96.48-3.7.48-5.22,0-2.4-.64-3.61-1.9-3.61-2.03,0-3.04-1.14-3.04-3.42.76-10.38,2.47-20.58,5.13-30.59l1.9-7.22c.38-1.77.57-3.04.57-3.8-.26-.5-.51-.95-.76-1.33-.25-.38-.38-.88-.38-1.52s.1-1.39.29-2.28c.19-.88.29-2.02.29-3.42,0-1.77-.38-3.86-1.14-6.27-.76-2.4-1.14-4.5-1.14-6.27,0-1.65.12-3.35.38-5.13.5-2.28.76-6.52.76-12.73,0-5.06,2.34-7.6,7.03-7.6,3.42,0,5.76-.12,7.03-.38,1.26-.25,2.79-.44,4.56-.57,1.52,0,3.07.16,4.66.48,1.58.32,3.26.48,5.04.48.88,0,1.33.51,1.33,1.52.12,0,.73,1.46,1.8,4.37,1.08,2.92,1.93,5.83,2.57,8.74.38,2.28.98,4.69,1.8,7.22.82,2.54,1.49,5.26,2,8.17.38,3.42,1.2,6.65,2.47,9.69.5,1.27.82,2.56.95,3.9.12,1.33.41,2.54.86,3.61.44,1.08,1.36,1.68,2.75,1.8.38,0,.67-.25.85-.76.19-.5.41-1.2.67-2.09.5-2.15,2.21-7.72,5.13-16.72.25-.76.38-1.45.38-2.09,0-1.01-.19-1.87-.57-2.56-.38-.69-.57-1.43-.57-2.19,0-1.01.5-2.28,1.52-3.8,1.9-3.67,3.16-7.47,3.8-11.4.12-1.01.31-1.96.57-2.85,1.65-4.68,4.56-7.03,8.74-7.03,1.39.13,2.75.29,4.08.48s3.2.28,5.61.28c2.15,0,3.86-.12,5.13-.38,3.04,0,5.16,1.49,6.37,4.47,1.2,2.98,1.8,6.3,1.8,9.97,0,2.92-.16,5.89-.47,8.93-.32,3.04-.48,5.96-.48,8.74s.25,5.2.76,7.22c0,.76-.13,1.46-.38,2.09-.25.64-.38,1.33-.38,2.09.5,4.06.76,9,.76,14.82.38,5.7,1.01,10.58,1.9,14.63.76,3.17,1.14,5.83,1.14,7.98,0,1.78-.32,3.17-.95,4.18-.64,1.02-.95,2.03-.95,3.04l.19,2.47c.5,1.52.76,4.94.76,10.26,0,4.18.22,7.44.67,9.79.44,2.35,1.01,6.24,1.71,11.68.69,5.44,1.04,10.19,1.04,14.25,0,1.77-.13,3.23-.38,4.37-.51,2.66-.86,4.78-1.05,6.37-.19,1.58-.41,2.69-.67,3.32-.25.63-.76.95-1.52.95s-1.27-.19-1.52-.57c-.26-.38-.38-1.08-.38-2.09l.19-3.04c0-7.98-1.84-11.97-5.51-11.97l-3.42.19c-2.41,0-4.34-.07-5.79-.19-1.46-.13-2.63-.19-3.52-.19-1.52,0-2.66.25-3.42.76-.76.5-1.33,1.45-1.71,2.85-1.4,4.68-2.09,9.43-2.09,14.25,0,2.28-.07,3.54-.19,3.8v.38c-.13.25-.22.57-.28.95-.07.38-.19.79-.38,1.23-.19.44-.67.67-1.42.67-1.27-.13-2.03-.98-2.28-2.56-.25-1.58-.38-3.83-.38-6.74v-1.9c0-3.55-.25-7.79-.76-12.73v-2.09c0-2.79.57-5.51,1.71-8.17.38-.76.57-1.27.57-1.52-.76-2.28-1.21-5.76-1.33-10.45-.13-4.68-.19-9.62-.19-14.82,0-13.42-.57-20.71-1.71-21.85-1.78,2.66-3.39,5.51-4.84,8.55-1.46,3.04-2.69,5.35-3.71,6.94-1.02,1.59-1.78,3.45-2.28,5.6-.38,1.14-1.01,1.71-1.9,1.71-1.4,0-2.35-1.26-2.85-3.8,0-1.64-.7-4.11-2.09-7.41-2.79-6.58-4.69-10-5.7-10.26-1.01,3.04-1.52,5.45-1.52,7.22l.19,2.09c0,3.8-.38,7.85-1.14,12.16-.38,2.28-.6,4.59-.67,6.94-.07,2.35-.35,4.82-.85,7.41-.51,2.6-.95,5.26-1.33,7.98s-.89,5.42-1.52,8.08c-.76,4.05-1.23,7.25-1.42,9.59-.19,2.34-.47,4.05-.85,5.13-.38,1.07-1.14,1.68-2.28,1.81-.64,0-1.08-.16-1.33-.48-.26-.32-.45-.64-.57-.95-.13-.32-.25-.54-.38-.67-.38-.89-.57-1.97-.57-3.23v-.76c0-1.14-.32-2.28-.95-3.42-.64-1.14-2.98-1.9-7.03-2.28-4.94,0-7.73,2.66-8.36,7.98-.38,2.4-.57,4.87-.57,7.41,0,5.7-.57,9.05-1.71,10.07-.51.38-1.02.57-1.52.57s-.98-.19-1.42-.57Z" style="fill:#f45b69; stroke-width:0px;"/><path d="m1186.98,983.97l.19-3.04c-1.39-6.84-2.09-12.48-2.09-16.91v-1.14c0-3.04-.22-5.73-.67-8.08-.45-2.35-1.49-4.46-3.13-6.36-.63-.51-1.04-1.02-1.24-1.52-.19-.51-.45-1.3-.76-2.38-.32-1.08-1.42-4.21-3.33-9.41-.51-1.02-.76-2.09-.76-3.23,0-.64.19-1.27.57-1.9.88-1.52,1.49-3.16,1.8-4.94.31-1.77.54-4.05.67-6.84.12-3.8.63-9.12,1.52-15.96,0-2.15-.13-3.83-.38-5.03-.26-1.2-.38-2.38-.38-3.52l.19-9.31c.25-5.32.44-10.8.57-16.44.12-5.63.25-9.47.38-11.5,0-1.52-.16-3.01-.48-4.46-.32-1.45-.47-2.88-.47-4.27l.19-1.14c0-.76.06-1.26.19-1.52-.13-.63-.57-.95-1.33-.95h-.76c-1.27,0-1.9-1.01-1.9-3.04,0-2.15.44-5.7,1.33-10.64.5-2.53.76-4.43.76-5.7v-.95c0-1.65.29-3.29.86-4.94.57-1.65,2.06-3.1,4.46-4.37,3.42-1.52,6.77-2.28,10.07-2.28,2.02,0,4.24.13,6.65.38,3.42.51,8.29.76,14.63.76,3.04,0,5.92-.09,8.64-.28,2.72-.19,7.32-.29,13.78-.29,1.64,0,3.2-.22,4.65-.67,1.46-.44,4.21-.67,8.27-.67,2.53,0,5.76.19,9.69.57,2.91.51,4.66,2.12,5.23,4.85.57,2.73.85,5.54.85,8.46v2.47c0,2.41-.25,4.59-.76,6.56-.51,1.97-1.08,4.02-1.71,6.17-1.9,4.69-3.55,12.16-4.94,22.42-.13,1.4-.45,2.73-.95,3.99-.51,1.27-1.52,1.9-3.04,1.9-2.16-.12-3.23-2.4-3.23-6.84,0-2.15.12-4.4.38-6.75.25-2.34.38-4.34.38-5.98,0-3.16-.57-4.75-1.71-4.75-.51.13-.98.26-1.42.38-.45.13-1.11.19-2,.19-1.14,0-2.25-.12-3.33-.38-1.08-.25-2.12-.38-3.13-.38h-6.27c-2.28,0-4.5.26-6.65.76-.51.13-1.08.19-1.71.19-1.27,0-2.6-.19-3.99-.57-1.4-.38-2.79-.63-4.18-.76-2.28,0-3.42.95-3.42,2.85v2.28c-.38,1.14-.57,2.35-.57,3.61,0,1.65.16,3.23.48,4.75.31,1.52.54,2.98.67,4.37.12.89.38,1.33.76,1.33s.82-.12,1.33-.38c1.01-.5,2.47-.76,4.37-.76.76,0,1.61.16,2.56.48.95.32,2.38.48,4.28.48l4.94-.19c2.15,0,4.05.45,5.7,1.33,1.64.89,2.47,2.92,2.47,6.08v7.41c0,3.93-.76,7.6-2.28,11.02-1.02,3.04-1.52,6.33-1.52,9.88v1.52c0,1.02-.09,1.9-.29,2.66-.19.76-.92,1.14-2.18,1.14-2.03,0-3.04-1.33-3.04-3.99,0-1.14.09-2.15.29-3.04.19-.88.29-1.77.29-2.66,0-.76-.57-1.14-1.71-1.14-3.3,0-5.61.16-6.94.48-1.33.32-2.38.64-3.13.95-.76.32-1.52.48-2.28.48-.63,0-1.21-.1-1.71-.29-.51-.19-1.08-.35-1.71-.48-.63,0-.95.32-.95.95l.19,1.52c.38.76.57,1.78.57,3.04,0,1.4-.1,2.69-.29,3.9-.19,1.21-.29,2.31-.29,3.32,0,1.9.69,3.45,2.09,4.66,1.39,1.21,4.62,1.8,9.69,1.8,1.77,0,3.42-.06,4.94-.19,1.52-.12,3.42-.25,5.7-.38,3.04,0,6.9.29,11.59.85,4.68.57,8.04,1.42,10.07,2.56,2.66,1.52,4.56,3.64,5.7,6.37,1.14,2.73,1.71,6.94,1.71,12.63,0,6.33-.57,15.26-1.71,26.79-.38,2.91-1.14,5.04-2.28,6.37-1.14,1.33-2.35,1.99-3.61,1.99-1.14,0-2.12-.45-2.94-1.33-.83-.89-1.24-2.09-1.24-3.61,0-.89.16-1.9.47-3.04.32-1.14.48-2.28.48-3.42,0-2.41-.45-4.75-1.33-7.03-.26-1.02-.48-1.93-.67-2.76-.19-.83-.54-1.33-1.04-1.52-.51-.19-1.24-.28-2.19-.28s-1.8-.07-2.56-.19c-2.54-.26-5.07-.38-7.6-.38-1.52,0-2.69.06-3.51.19-.83.12-1.74.19-2.75.19s-2.06-.1-3.13-.29c-1.08-.19-2.25-.29-3.52-.29-3.67,0-6.97-.32-9.88-.95-2.41-.51-4.62-.76-6.65-.76-2.41,0-4.53.73-6.37,2.19-1.84,1.45-3.42,4.21-4.75,8.27-1.33,4.05-2.44,9.94-3.33,17.67l-.19,5.13v1.33c0,2.53-.32,5.06-.95,7.6-1.14,2.91-2.28,4.37-3.42,4.37-2.41,0-3.61-2.47-3.61-7.41Z" style="fill:#f45b69; stroke-width:0px;"/><path d="m1350.95,978.75c-.38-1.46-.57-3.01-.57-4.65l.19-4.75c-.13-4.56-.32-8.05-.57-10.45l-2.66-12.54c-.64-2.66-1.9-3.99-3.8-3.99-1.65,0-3.61.5-5.89,1.52-4.94,1.52-8.81,2.28-11.59,2.28s-5.77-.64-8.93-1.9l-2.66-.95c-1.9-.64-3.68-1.52-5.32-2.66-.25-.26-.51-.38-.76-.38-.38,0-.7.19-.95.57-1.4.88-3.61,1.83-6.65,2.85-.76.38-1.52.57-2.28.57s-1.55-.13-2.38-.38c-.83-.26-1.62-.38-2.38-.38-1.9,0-3.61,1.26-5.13,3.8v.19c-2.41,3.29-3.61,6.27-3.61,8.93s-.95,3.99-2.85,3.99c-1.14,0-2.16-.76-3.04-2.28-.64-2.28-.95-4.69-.95-7.22v-6.08c0-3.04-.45-5.96-1.33-8.74l.19-28.88-.19-11.59c0-1.52-.6-2.53-1.8-3.04-1.21-.5-1.81-1.77-1.81-3.8,0-2.66.57-6.08,1.71-10.26,1.64-5.44,2.47-10.76,2.47-15.96,0-1.39-.13-2.78-.38-4.18-.51-2.78-.76-5.63-.76-8.55l-.19-6.08-.19-3.42c0-2.4.12-4.78.38-7.12.25-2.34.38-5.1.38-8.26,0-1.01.35-1.9,1.04-2.66.7-.76,1.17-1.52,1.43-2.28,1.64-4.43,4.94-6.77,9.88-7.03,1.26,0,2.53-.06,3.8-.19,1.26-.12,2.59-.19,3.99-.19,3.67,0,6.58,1.4,8.74,4.18.5.76,1.08,1.14,1.71,1.14.38,0,.88-.25,1.52-.76,4.05-3.54,9.43-5.32,16.15-5.32,6.08,0,11.9.76,17.48,2.28.12.13.31.19.57.19.88,0,3.13,1.14,6.75,3.42,3.61,2.28,7.53,6.43,11.78,12.44,4.24,6.02,7.76,14.47,10.54,25.37.76,3.93,1.33,7.86,1.71,11.78.25,3.04.63,6.02,1.14,8.93,0,2.54-.09,4.34-.29,5.42-.19,1.08-.29,2.38-.29,3.9,0,3.04.19,5.83.57,8.36.38,2.54.57,4.82.57,6.84,0,2.16-1.08,3.23-3.23,3.23-.25,0-.57.32-.95.95-.89,5.58-2.98,10.58-6.27,15.01l-.38.57c-2.92,5.07-5.32,15.89-7.22,32.49l-1.52,9.31-.19,2.85c0,1.77.1,3.58.29,5.42.19,1.83.29,3.52.29,5.04,0,3.29-.76,5.06-2.28,5.32-1.65,0-2.66-.73-3.04-2.19Zm-24.79-72.2c.82-.69,1.55-1.46,2.19-2.28.63-.82,1.33-1.55,2.09-2.19,1.77-1.14,2.94-2.34,3.51-3.61.57-1.26.95-2.66,1.14-4.18.19-1.52.6-3.16,1.24-4.94,1.9-4.56,2.85-7.79,2.85-9.69,0-.76-.13-1.45-.38-2.09-.25-.63-.38-1.71-.38-3.23l.19-4.56c0-5.7-1.49-10.76-4.46-15.2-2.98-4.43-5.42-6.65-7.32-6.65-.76,0-1.3.32-1.62.95-.32.64-.54,1.08-.67,1.33-.38,1.02-.57,2.09-.57,3.23,0,3.29-.13,6.02-.38,8.17-.38,2.66-.64,7.29-.76,13.87-.13,1.78-.95,2.79-2.47,3.04-.38,0-.7-.09-.95-.28-.25-.19-.47-.41-.67-.67-.19-.25-.41-.48-.67-.67-.25-.19-.45-.48-.57-.85-.13-.38-.19-.98-.19-1.81s-.13-2.66-.38-5.51c-.25-2.85-.67-5.7-1.24-8.55-.57-2.85-1.23-4.91-2-6.17-.38.64-.57,3.11-.57,7.41,0,5.2.31,14.5.95,27.93l.38,13.68v2.09c0,1.14.25,1.81.76,2,.5.19,1.46.29,2.85.29l4.75.19c1.39,0,2.5-.35,3.33-1.04Z" style="fill:#f45b69; stroke-width:0px;"/><path d="m1463.62,987.96c-2.16-.25-3.23-5.26-3.23-15.01l.19-13.68c0-5.2-.29-9.72-.86-13.58-.57-3.87-2-5.79-4.27-5.79-1.02,0-2.28.6-3.8,1.81-1.52,1.2-3.64,2.25-6.36,3.13-2.73.88-7.38,1.33-13.97,1.33-8.24-.64-14.06-1.9-17.48-3.8-1.9-1.14-3.42-1.71-4.56-1.71-1.52,0-2.54,1.58-3.04,4.75l-.76,4.56c-1.01,3.67-1.52,7.41-1.52,11.21l.19,1.52c-.38,2.53-1.33,3.8-2.85,3.8-1.02,0-2-.64-2.95-1.9-.95-1.27-1.42-3.23-1.42-5.89l.19-3.04c0-9.63-1.71-22.04-5.13-37.24l-1.9-8.36c-.89-4.56-1.46-7.79-1.71-9.69-.26-1.9-.45-3.01-.57-3.32-.13-.31-.32-.48-.57-.48-2.79,0-4.18-2.02-4.18-6.08,0-3.04.54-6.84,1.62-11.4,1.07-4.56,2.34-9.53,3.8-14.92,1.46-5.38,2.88-10.93,4.28-16.62.38-1.26,1.2-3.39,2.47-6.37,1.26-2.97,2.75-6.11,4.46-9.4,1.71-3.29,3.52-6.01,5.42-8.17,5.95-6.58,11.43-10.51,16.44-11.78,5-1.26,9.78-1.9,14.34-1.9h6.65c3.29,0,7.22,1.46,11.78,4.37,4.56,2.92,8.04,5.89,10.45,8.93,4.43,5.32,8.1,12.76,11.02,22.33,2.91,9.57,4.37,20.42,4.37,32.58,0,9.88-1.27,20.4-3.8,31.54-.13.89-.19,2.25-.19,4.08s-.07,3.71-.19,5.6c-.13,1.9-.41,3.55-.85,4.94-.45,1.4-1.24,2.09-2.38,2.09-.51,0-.95-.1-1.33-.29-.38-.19-.83-.35-1.33-.48-.26,0-.45.1-.57.29-.13.19-.19.38-.19.57s-.06.35-.19.48c-1.4,5.06-2.09,9.24-2.09,12.54-.13,6.71-.32,13.02-.57,18.9-.25,5.89-.38,11.69-.38,17.39l.19,8.17c0,2.78-.76,4.18-2.28,4.18l-.38-.19Zm-23.37-76c5.44-5.95,8.17-19.12,8.17-39.52,0-9.75-1.02-17.98-3.04-24.7-.51-1.14-2.09-2.53-4.75-4.18-1.14-.63-2.16-.95-3.04-.95-3.93,1.14-6.3,3.39-7.12,6.74-.83,3.36-1.24,6.68-1.24,9.98v3.61c0,1.4-.07,2.66-.19,3.8-.26,1.65-1.02,2.47-2.28,2.47s-2.09-.63-2.47-1.9c-.38-1.26-.57-2.59-.57-3.99-.13-2.28-.57-4.3-1.33-6.08l-1.14,9.69c-.26,1.4-.38,2.79-.38,4.18s.06,3.07.19,5.03c.12,1.97.19,4.34.19,7.12l.76,7.98c0,1.27-.19,2.41-.57,3.42-.38,1.02-.57,1.9-.57,2.66,0,1.4.5,2.66,1.52,3.8.5.89,1.04,1.97,1.62,3.23.57,1.27.85,2.98.85,5.13s.7,3.93,2.09,5.32c1.39,1.4,2.91,2.09,4.56,2.09,2.79,0,5.7-1.65,8.74-4.94Z" style="fill:#f45b69; stroke-width:0px;"/></g></svg>