<?xml version="1.0" encoding="UTF-8"?><svg id="a" xmlns="http://www.w3.org/2000/svg" xmlns:xlink="http://www.w3.org/1999/xlink" viewBox="0 0 1536 1024"><defs><filter id="b" filterUnits="userSpaceOnUse"><feOffset dx="6" dy="6"/><feGaussianBlur result="c" stdDeviation="0"/><feFlood flood-color="#000" flood-opacity="1"/><feComposite in2="c" operator="in"/><feComposite in="SourceGraphic"/></filter></defs><g style="filter:url(#b);"><path d="m689.94,224.53l42.99,162.42h-34.12l-7.51-34.35h-43.22l-7.51,34.35h-34.12l42.99-162.42h40.49Zm-4.32,101.23l-15.7-73.02h-.46l-15.7,73.02h31.85Z" style="fill:#f2e863; stroke-width:0px;"/><path d="m773.43,264.57v16.38h.46c3.18-5.91,7.05-10.65,11.6-14.22,4.55-3.56,10.08-5.35,16.61-5.35.91,0,1.85.04,2.84.11.99.08,1.93.19,2.84.34v30.03c-1.67-.15-3.3-.26-4.89-.34-1.59-.07-3.22-.11-4.89-.11-2.73,0-5.46.38-8.19,1.14-2.73.76-5.23,2.01-7.51,3.75-2.28,1.75-4.09,4.02-5.46,6.82-1.36,2.81-2.05,6.26-2.05,10.35v73.48h-31.39v-122.38h30.03Z" style="fill:#f2e863; stroke-width:0px;"/><path d="m857.37,229.54v35.03h18.2v21.38h-18.2v66.2c0,4.86.72,8.3,2.16,10.35,1.44,2.05,4.44,3.07,8.99,3.07,1.21,0,2.42-.04,3.64-.11,1.21-.07,2.35-.19,3.41-.34v21.84c-3.49,0-6.86.11-10.12.34-3.26.23-6.71.34-10.35.34-6.07,0-11.03-.42-14.9-1.25s-6.82-2.5-8.87-5c-2.05-2.5-3.45-5.8-4.21-9.9-.76-4.09-1.14-9.25-1.14-15.47v-70.06h-15.92v-21.38h15.92v-35.03h31.39Z" style="fill:#f2e863; stroke-width:0px;"/><path d="m913.32,340.32c0,3.64.26,7.17.8,10.58.53,3.41,1.4,6.45,2.62,9.1,1.21,2.66,2.8,4.78,4.78,6.37,1.97,1.59,4.4,2.39,7.28,2.39,5.31,0,9.17-1.89,11.6-5.69,2.42-3.79,4.09-9.55,5-17.29h28.21c-.61,14.26-4.4,25.1-11.37,32.53-6.98,7.43-17.97,11.15-32.98,11.15-11.37,0-20.25-1.9-26.62-5.69s-11.07-8.79-14.1-15.01c-3.04-6.22-4.89-13.19-5.57-20.93-.68-7.73-1.02-15.47-1.02-23.2,0-8.19.57-16.07,1.71-23.66,1.14-7.58,3.41-14.33,6.83-20.25s8.3-10.61,14.67-14.1c6.37-3.49,14.86-5.23,25.48-5.23,9.1,0,16.57,1.48,22.41,4.44,5.84,2.96,10.42,7.13,13.76,12.51,3.33,5.38,5.61,11.91,6.82,19.56,1.21,7.66,1.82,16.19,1.82,25.59v7.05h-62.1v9.78Zm31.17-40.83c-.46-3.56-1.25-6.6-2.39-9.1s-2.73-4.4-4.78-5.69c-2.05-1.29-4.66-1.93-7.85-1.93s-5.8.72-7.85,2.16c-2.05,1.44-3.68,3.34-4.89,5.69-1.22,2.35-2.09,4.97-2.62,7.85-.53,2.88-.8,5.77-.8,8.64v4.78h32.08c-.15-4.7-.46-8.83-.91-12.4Z" style="fill:#f2e863; stroke-width:0px;"/><path d="m794.6,401.04c13.65,0,24.26,3.45,31.85,10.35,7.58,6.9,11.37,17.4,11.37,31.51,0,10.92-2.2,19.83-6.6,26.73-4.4,6.9-11.22,11.34-20.47,13.31v.46c8.19,1.22,14.18,3.87,17.97,7.96,3.79,4.09,6.14,10.69,7.05,19.79.3,3.04.53,6.33.68,9.9.15,3.57.3,7.55.46,11.94.3,8.64.76,15.24,1.36,19.79.91,4.55,2.88,7.66,5.92,9.33v1.36h-35.49c-1.67-2.27-2.73-4.89-3.18-7.85-.46-2.96-.76-6.03-.91-9.21l-.91-31.16c-.31-6.37-1.9-11.37-4.78-15.01-2.88-3.64-7.73-5.46-14.56-5.46h-17.52v68.7h-32.76v-162.42h60.51Zm-14.1,70.97c7.88,0,13.95-1.86,18.2-5.57,4.24-3.71,6.37-9.97,6.37-18.77,0-15.01-7.58-22.52-22.75-22.52h-15.47v46.86h13.65Z" style="fill:#44bba4; stroke-width:0px;"/><path d="m921.99,549.13c-3.34,6.07-7.66,10.39-12.97,12.97-5.31,2.58-11.37,3.87-18.2,3.87-10.01,0-17.71-2.62-23.09-7.85-5.39-5.23-8.08-13.99-8.08-26.27v-90.76h31.39v84.4c0,6.37,1.06,10.81,3.18,13.31,2.12,2.5,5.53,3.75,10.24,3.75,11.07,0,16.61-6.75,16.61-20.25v-81.21h31.39v122.38h-30.03v-14.33h-.45Z" style="fill:#44bba4; stroke-width:0px;"/><path d="m1005.93,399.22v26.84h-31.39v-26.84h31.39Zm0,41.86v122.38h-31.39v-122.38h31.39Z" style="fill:#44bba4; stroke-width:0px;"/><path d="m1058.02,441.08v12.51h.46c3.94-5.61,8.38-9.63,13.31-12.06,4.93-2.42,10.81-3.64,17.63-3.64,7.28,0,13.38,1.67,18.31,5,4.93,3.34,8.23,8.19,9.9,14.56h.46c2.42-6.52,6.33-11.41,11.72-14.67,5.38-3.26,11.79-4.89,19.22-4.89,10.46,0,18.16,3.15,23.09,9.44,4.93,6.29,7.39,15.35,7.39,27.18v88.94h-31.39v-85.53c0-5.15-.95-9.1-2.84-11.83-1.9-2.73-5.04-4.09-9.44-4.09-5,0-8.99,1.67-11.94,5-2.96,3.34-4.44,8.64-4.44,15.92v80.53h-31.39v-85.53c0-5.15-.95-9.1-2.84-11.83-1.9-2.73-5.04-4.09-9.44-4.09-5,0-8.99,1.67-11.94,5-2.96,3.34-4.44,8.64-4.44,15.92v80.53h-31.39v-122.38h30.03Z" style="fill:#44bba4; stroke-width:0px;"/><path d="m656.93,543.93c8.34,0,15.35,1.4,21.04,4.21,5.69,2.81,10.27,6.48,13.76,11.03,3.49,4.55,5.99,9.75,7.51,15.58,1.51,5.84,2.28,11.79,2.28,17.86,0,8.34-1.25,15.62-3.75,21.84-2.5,6.22-5.99,11.3-10.46,15.24-4.47,3.95-9.9,6.9-16.26,8.87-6.37,1.97-13.42,2.96-21.16,2.96h-17.52v64.83h-32.76v-162.42h57.33Zm-10.01,73.48c6.52,0,11.79-1.97,15.81-5.91,4.02-3.94,6.03-10.08,6.03-18.43s-1.75-14.41-5.23-18.65c-3.49-4.24-9.33-6.37-17.52-6.37h-13.65v49.36h14.56Z" style="fill:#f45b69; stroke-width:0px;"/><path d="m746.78,583.96v16.38h.46c3.18-5.91,7.05-10.65,11.6-14.22,4.55-3.56,10.08-5.35,16.61-5.35.91,0,1.85.04,2.84.11.99.08,1.93.19,2.84.34v30.03c-1.67-.15-3.3-.26-4.89-.34-1.59-.07-3.22-.11-4.89-.11-2.73,0-5.46.38-8.19,1.14-2.73.76-5.23,2.01-7.51,3.75-2.28,1.75-4.09,4.02-5.46,6.82-1.36,2.81-2.05,6.26-2.05,10.35v73.48h-31.39v-122.38h30.03Z" style="fill:#f45b69; stroke-width:0px;"/><path d="m792.28,618.54c0-7.13,1.14-13.08,3.41-17.86,2.28-4.78,5.35-8.64,9.21-11.6,3.87-2.96,8.42-5.08,13.65-6.37,5.23-1.29,10.8-1.93,16.72-1.93,9.4,0,16.98.91,22.75,2.73,5.76,1.82,10.24,4.4,13.42,7.73,3.18,3.34,5.35,7.32,6.48,11.94,1.14,4.63,1.71,9.67,1.71,15.13v64.38c0,5.77.26,10.24.8,13.42.53,3.18,1.55,6.6,3.07,10.24h-30.03c-1.06-1.97-1.86-4.06-2.39-6.26-.53-2.2-1.02-4.36-1.48-6.48h-.46c-3.64,6.37-7.85,10.5-12.62,12.4-4.78,1.89-10.96,2.84-18.54,2.84-5.46,0-10.09-.95-13.88-2.84-3.79-1.89-6.82-4.51-9.1-7.85-2.28-3.33-3.95-7.09-5-11.26-1.06-4.17-1.59-8.3-1.59-12.4,0-5.76.6-10.73,1.82-14.9,1.21-4.17,3.07-7.73,5.57-10.69,2.5-2.96,5.69-5.42,9.55-7.39,3.87-1.97,8.53-3.71,13.99-5.23l17.74-4.78c4.7-1.21,7.96-2.88,9.78-5,1.82-2.12,2.73-5.23,2.73-9.33,0-4.7-1.1-8.38-3.3-11.03-2.2-2.65-5.95-3.98-11.26-3.98-4.86,0-8.5,1.44-10.92,4.32-2.43,2.88-3.64,6.75-3.64,11.6v3.41h-28.21v-2.96Zm50.5,30.6c-2.43.99-4.63,1.71-6.6,2.16-6.37,1.36-10.92,3.64-13.65,6.82-2.73,3.18-4.09,7.51-4.09,12.97,0,4.7.91,8.72,2.73,12.06,1.82,3.34,4.85,5,9.1,5,2.12,0,4.32-.34,6.6-1.02,2.28-.68,4.36-1.78,6.26-3.3,1.89-1.51,3.45-3.49,4.66-5.91,1.21-2.42,1.82-5.31,1.82-8.64v-24.11c-2.13,1.67-4.4,3-6.82,3.98Z" style="fill:#f45b69; stroke-width:0px;"/><path d="m957.15,588.25c11.37,0,20.55,1.86,27.53,5.57,6.97,3.72,12.4,9.02,16.26,15.92,3.87,6.9,6.48,15.21,7.85,24.91,1.37,9.71,2.05,20.55,2.05,32.53,0,14.26-.87,26.65-2.62,37.19-1.75,10.54-4.74,19.22-8.99,26.05-4.25,6.82-9.93,11.91-17.06,15.24-7.13,3.34-16.15,5-27.07,5h-51.64v-162.42h53.68Zm-6.37,138.31c5.76,0,10.39-.98,13.88-2.96,3.49-1.97,6.26-5.23,8.3-9.78,2.05-4.55,3.41-10.54,4.09-17.97.68-7.43,1.02-16.68,1.02-27.75,0-9.25-.31-17.36-.91-24.34-.61-6.97-1.86-12.77-3.75-17.4-1.9-4.62-4.7-8.11-8.42-10.46-3.72-2.35-8.68-3.53-14.9-3.53h-13.88v114.19h14.56Z" style="fill:#3a7ca5; stroke-width:0px;"/><path d="m1058.38,704.04c0,3.64.26,7.17.8,10.58.53,3.41,1.4,6.45,2.62,9.1,1.21,2.66,2.8,4.78,4.78,6.37,1.97,1.59,4.4,2.39,7.28,2.39,5.31,0,9.17-1.89,11.6-5.69,2.42-3.79,4.09-9.55,5-17.29h28.21c-.61,14.26-4.4,25.1-11.37,32.53-6.98,7.43-17.97,11.15-32.98,11.15-11.37,0-20.25-1.9-26.62-5.69-6.37-3.79-11.07-8.79-14.1-15.01-3.04-6.22-4.89-13.19-5.57-20.93-.68-7.73-1.02-15.47-1.02-23.2,0-8.19.57-16.07,1.71-23.66,1.14-7.58,3.41-14.33,6.83-20.25s8.3-10.61,14.67-14.1c6.37-3.49,14.86-5.23,25.48-5.23,9.1,0,16.57,1.48,22.41,4.44,5.84,2.96,10.42,7.13,13.76,12.51,3.33,5.38,5.61,11.91,6.82,19.56,1.21,7.66,1.82,16.19,1.82,25.59v7.05h-62.1v9.78Zm31.17-40.83c-.46-3.56-1.25-6.6-2.39-9.1-1.14-2.5-2.73-4.4-4.78-5.69-2.05-1.29-4.66-1.93-7.85-1.93s-5.8.72-7.85,2.16c-2.05,1.44-3.68,3.34-4.89,5.69-1.22,2.35-2.09,4.97-2.62,7.85-.53,2.88-.8,5.77-.8,8.64v4.78h32.08c-.15-4.7-.46-8.83-.91-12.4Z" style="fill:#3a7ca5; stroke-width:0px;"/><path d="m1199.19,737.7c-3.49,5.77-7.39,9.78-11.72,12.06s-9.67,3.41-16.04,3.41c-12.89,0-22.37-4.93-28.43-14.79-6.07-9.86-9.1-26.16-9.1-48.91s3.03-39.16,9.1-49.25c6.06-10.08,15.54-15.13,28.43-15.13,5.91,0,10.95,1.22,15.13,3.64,4.17,2.43,7.92,6.07,11.26,10.92h.46v-51.41h31.39v162.42h-30.03v-12.97h-.45Zm-30.82-18.08c2.05,6.75,6.48,10.12,13.31,10.12s11.49-3.37,13.54-10.12c2.05-6.75,3.07-16.79,3.07-30.14s-1.02-23.39-3.07-30.14c-2.05-6.75-6.56-10.12-13.54-10.12s-11.26,3.38-13.31,10.12c-2.05,6.75-3.07,16.8-3.07,30.14s1.02,23.39,3.07,30.14Z" style="fill:#3a7ca5; stroke-width:0px;"/><path d="m1277.44,704.04c0,3.64.26,7.17.8,10.58.53,3.41,1.4,6.45,2.62,9.1,1.21,2.66,2.8,4.78,4.78,6.37,1.97,1.59,4.4,2.39,7.28,2.39,5.31,0,9.17-1.89,11.6-5.69,2.42-3.79,4.09-9.55,5-17.29h28.21c-.61,14.26-4.4,25.1-11.37,32.53-6.98,7.43-17.97,11.15-32.98,11.15-11.37,0-20.25-1.9-26.62-5.69-6.37-3.79-11.07-8.79-14.1-15.01-3.04-6.22-4.89-13.19-5.57-20.93-.68-7.73-1.02-15.47-1.02-23.2,0-8.19.57-16.07,1.71-23.66,1.14-7.58,3.41-14.33,6.83-20.25s8.3-10.61,14.67-14.1c6.37-3.49,14.86-5.23,25.48-5.23,9.1,0,16.57,1.48,22.41,4.44,5.84,2.96,10.42,7.13,13.76,12.51,3.33,5.38,5.61,11.91,6.82,19.56,1.21,7.66,1.82,16.19,1.82,25.59v7.05h-62.1v9.78Zm31.17-40.83c-.46-3.56-1.25-6.6-2.39-9.1-1.14-2.5-2.73-4.4-4.78-5.69-2.05-1.29-4.66-1.93-7.85-1.93s-5.8.72-7.85,2.16c-2.05,1.44-3.68,3.34-4.89,5.69-1.22,2.35-2.09,4.97-2.62,7.85-.53,2.88-.8,5.77-.8,8.64v4.78h32.08c-.15-4.7-.46-8.83-.91-12.4Zm13.19-82.01l-22.29,32.76h-21.38l12.28-32.76h31.39Z" style="fill:#3a7ca5; stroke-width:0px;"/><path d="m1418.25,736.34c-3.34,6.07-7.66,10.39-12.97,12.97-5.31,2.58-11.37,3.87-18.2,3.87-10.01,0-17.71-2.62-23.09-7.85-5.39-5.23-8.08-13.99-8.08-26.27v-90.76h31.39v84.4c0,6.37,1.06,10.81,3.18,13.31,2.12,2.5,5.53,3.75,10.24,3.75,11.07,0,16.61-6.75,16.61-20.25v-81.21h31.39v122.38h-30.03v-14.33h-.45Z" style="fill:#3a7ca5; stroke-width:0px;"/></g></svg>