<?xml version="1.0" encoding="UTF-8"?><svg id="a" xmlns="http://www.w3.org/2000/svg" xmlns:xlink="http://www.w3.org/1999/xlink" viewBox="0 0 1536 1024"><defs><filter id="b" filterUnits="userSpaceOnUse"><feOffset dx="7.5" dy="7.5"/><feGaussianBlur result="c" stdDeviation="0"/><feFlood flood-color="#44bba4" flood-opacity="1"/><feComposite in2="c" operator="in"/><feComposite in="SourceGraphic"/></filter></defs><g style="filter:url(#b);"><path d="m128.49,757.73h-6.02v-6.02h6.02v-36.12h60.2v24.08h-30.1v6.02h30.1v6.02h-6.02v6.02h6.02v12.04h-30.1v6.02h30.1v6.02h-6.02v6.02h12.04v6.02h-18.06v6.02h-60.2v-6.02h18.06v-6.02h-12.04v-6.02h6.02v-24.08Zm6.02,6.02v6.02h6.02v-6.02h-6.02Zm66.22,0v6.02h-6.02v-6.02h6.02Z" style="fill:#fff; stroke-width:0px;"/><path d="m209.46,757.73h-8.73v-6.02h6.86c-.56-2.77-.84-5.86-.84-9.27,0-17.9,8.03-26.85,24.08-26.85h42.14v24.08h-30.1c-4.01,0-6.02.92-6.02,2.77,0,2.17,2.01,3.25,6.02,3.25h12.04c7.59,0,13.38,2.01,17.4,6.02h-5.36v6.02h9.39c1.77,3.97,2.65,8.91,2.65,14.81,0,3.41-.28,6.5-.84,9.27h-7.41v6.02h10.72v6.02h-24.02v5.96l-56.71.06v-6.02h18.06v-6.02h-12.04v-6.02h6.02v-6.02h30.1c4.01,0,6.02-1.08,6.02-3.25,0-1.85-2.01-2.77-6.02-2.77h-12.04c-2.17,0-4.17-.16-6.02-.48v-5.54h-11.26c-1.69-1.65-3.05-3.65-4.09-6.02Zm81.58,6.02v6.02h-6.02v-6.02h6.02Z" style="fill:#fff; stroke-width:0px;"/><path d="m297.06,757.73h-6.02v-6.02h6.02v-36.12h48.16c16.05,0,24.08,10.03,24.08,30.1,0,2.13-.08,4.13-.24,6.02h-6.38v6.02h5.42c-2.81,12.04-10.44,18.06-22.88,18.06h-18.06v6.02h-6.02v6.02h12.04v6.02h-18.06v6.02h-30.1v-6.02h18.06v-6.02h-12.04v-6.02h6.02v-24.08Zm6.02,6.02v6.02h6.02v-6.02h-6.02Zm24.08-24.08v12.04h6.02c4.01,0,6.02-2.01,6.02-6.02s-2.01-6.02-6.02-6.02h-6.02Zm48.16,24.08v6.02h-6.02v-6.02h6.02Z" style="fill:#fff; stroke-width:0px;"/><path d="m387.36,757.73h-6.02v-6.02h6.02v-36.12h30.1v36.12h-6.02v6.02h6.02v24.08h-6.02v6.02h12.04v6.02h-18.06v6.02h-30.1v-6.02h18.06v-6.02h-12.04v-6.02h6.02v-24.08Zm6.02,6.02v6.02h6.02v-6.02h-6.02Zm36.12,0v6.02h-6.02v-6.02h6.02Z" style="fill:#fff; stroke-width:0px;"/><path d="m444.5,793.85v-6.02h-11.5v-6.02h8.25l3.79-12.04h6.92v-6.02h-5.06l1.93-6.02h-5.42v-6.02h7.28l11.38-36.12h30.7l11.56,36.12h-5v6.02h6.98l7.71,24.08h-6.26v6.02h15.17v6.02h-15.17v6.02h-18.06l-12.04-36.12-12.04,36.12h-42.14v-6.02h21.01Zm77.3-30.1v6.02h-6.02v-6.02h6.02Z" style="fill:#fff; stroke-width:0px;"/><path d="m535.04,781.81c-4.98-7.02-7.47-15.05-7.47-24.08h-6.02v-6.02h6.38c1.2-9.07,5.2-17,11.98-23.78,8.23-8.23,18.16-12.34,29.8-12.34s21.57,4.11,29.8,12.34c6.78,6.78,10.78,14.71,11.98,23.78h-5.66v6.02h6.02c0,9.07-2.49,17.1-7.46,24.08h-8.79v6.02h10.23v6.02h-30.1v6.02h-36.12v-6.02h12.04v-6.02h-20.77v-6.02h4.15Zm1.69-18.06v6.02h6.02v-6.02h-6.02Zm32.99-18.06c-3.33,0-6.17,1.17-8.52,3.52-2.35,2.35-3.52,5.19-3.52,8.52s1.17,6.17,3.52,8.52c2.35,2.35,5.19,3.52,8.52,3.52s6.17-1.17,8.52-3.52c2.35-2.35,3.52-5.19,3.52-8.52s-1.17-6.17-3.52-8.52-5.19-3.52-8.52-3.52Zm54.18,18.06v6.02h-6.02v-6.02h6.02Z" style="fill:#fff; stroke-width:0px;"/><path d="m660.51,757.73h-6.02v-6.02h6.02v-36.12h60.2v24.08h-30.1v6.02h30.1v6.02h-6.02v6.02h6.02v12.04h-30.1v6.02h30.1v6.02h-6.02v6.02h12.04v6.02h-18.06v6.02h-60.2v-6.02h18.06v-6.02h-12.04v-6.02h6.02v-24.08Zm6.02,6.02v6.02h6.02v-6.02h-6.02Zm66.22,0v6.02h-6.02v-6.02h6.02Z" style="fill:#fff; stroke-width:0px;"/><path d="m738.77,757.73h-6.02v-6.02h6.02v-36.12h30.1l24.08,39.13v-39.13h30.1v36.12h-6.02v6.02h6.02v24.08h-6.02v6.02h12.04v6.02h-18.06v6.02h-18.06l-24.08-39.13v39.13h-42.14v-6.02h18.06v-6.02h-12.04v-6.02h6.02v-24.08Zm6.02,6.02v6.02h6.02v-6.02h-6.02Zm90.31,0v6.02h-6.02v-6.02h6.02Z" style="fill:#fff; stroke-width:0px;"/><path d="m859.18,757.73h-6.02v-6.02h6.02v-12.04h-18.06v-24.08h66.22v24.08h-18.06v12.04h-6.02v6.02h6.02v24.08h-6.02v6.02h12.04v6.02h-18.06v6.02h-30.1v-6.02h18.06v-6.02h-12.04v-6.02h6.02v-24.08Zm6.02,6.02v6.02h6.02v-6.02h-6.02Zm36.12,0v6.02h-6.02v-6.02h6.02Z" style="fill:#fff; stroke-width:0px;"/><path d="m931.42,793.85v-6.02h-12.04v-6.02h6.02v-24.08h-6.02v-6.02h6.02v-36.12h48.16c16.05,0,24.08,10.03,24.08,30.1,0,2.17-.14,4.17-.42,6.02h-7.59v6.02h5.96c-2.01,4.78-5.42,8.13-10.23,10.05l8.01,14.03h-4.88v6.02h16.74v6.02h-13.61v6.02h-18.06l-18.06-31.61v31.61h-42.14v-6.02h18.06Zm0-30.1v6.02h6.02v-6.02h-6.02Zm24.08-24.08v12.04h6.02c4.01,0,6.02-2.01,6.02-6.02s-2.01-6.02-6.02-6.02h-6.02Zm48.16,24.08v6.02h-6.02v-6.02h6.02Z" style="fill:#fff; stroke-width:0px;"/><path d="m1021.73,757.73h-6.02v-6.02h6.02v-36.12h60.2v24.08h-30.1v6.02h30.1v6.02h-6.02v6.02h6.02v12.04h-30.1v6.02h30.1v6.02h-6.02v6.02h12.04v6.02h-18.06v6.02h-60.2v-6.02h18.06v-6.02h-12.04v-6.02h6.02v-24.08Zm6.02,6.02v6.02h6.02v-6.02h-6.02Zm66.22,0v6.02h-6.02v-6.02h6.02Z" style="fill:#fff; stroke-width:0px;"/><path d="m1130.57,757.73h-6.02v-6.02h6.02v-36.12h30.1l24.08,39.13v-39.13h30.1v36.12h-6.02v6.02h6.02v24.08h-6.02v6.02h12.04v6.02h-18.06v6.02h-18.06l-24.08-39.13v39.13h-42.14v-6.02h18.06v-6.02h-12.04v-6.02h6.02v-24.08Zm6.02,6.02v6.02h6.02v-6.02h-6.02Zm90.31,0v6.02h-6.02v-6.02h6.02Z" style="fill:#fff; stroke-width:0px;"/><path d="m1240.39,781.81c-4.98-7.02-7.47-15.05-7.47-24.08h-6.02v-6.02h6.38c1.2-9.07,5.2-17,11.98-23.78,8.23-8.23,18.16-12.34,29.8-12.34s21.57,4.11,29.8,12.34c6.78,6.78,10.78,14.71,11.98,23.78h-5.66v6.02h6.02c0,9.07-2.49,17.1-7.46,24.08h-8.79v6.02h10.23v6.02h-30.1v6.02h-36.12v-6.02h12.04v-6.02h-20.77v-6.02h4.15Zm1.69-18.06v6.02h6.02v-6.02h-6.02Zm32.99-18.06c-3.33,0-6.17,1.17-8.52,3.52-2.35,2.35-3.52,5.19-3.52,8.52s1.17,6.17,3.52,8.52c2.35,2.35,5.19,3.52,8.52,3.52s6.17-1.17,8.52-3.52c2.35-2.35,3.52-5.19,3.52-8.52s-1.17-6.17-3.52-8.52-5.19-3.52-8.52-3.52Zm54.18,18.06v6.02h-6.02v-6.02h6.02Z" style="fill:#fff; stroke-width:0px;"/><path d="m1337.98,757.73h-8.73v-6.02h6.86c-.56-2.77-.84-5.86-.84-9.27,0-17.9,8.03-26.85,24.08-26.85h42.14v24.08h-30.1c-4.01,0-6.02.92-6.02,2.77,0,2.17,2.01,3.25,6.02,3.25h12.04c7.59,0,13.39,2.01,17.4,6.02h-5.36v6.02h9.39c1.77,3.97,2.65,8.91,2.65,14.81,0,3.41-.28,6.5-.84,9.27h-7.41v6.02h10.72v6.02h-24.02v5.96l-56.71.06v-6.02h18.06v-6.02h-12.04v-6.02h6.02v-6.02h30.1c4.01,0,6.02-1.08,6.02-3.25,0-1.85-2.01-2.77-6.02-2.77h-12.04c-2.17,0-4.17-.16-6.02-.48v-5.54h-11.26c-1.69-1.65-3.05-3.65-4.09-6.02Zm81.58,6.02v6.02h-6.02v-6.02h6.02Z" style="fill:#fff; stroke-width:0px;"/><path d="m505.72,678.36v24.08h-42.14v-24.08h42.14Z" style="fill:#fff; stroke-width:0px;"/><path d="m1302.32,679.85l5.01,23.55-41.22,8.77-5.01-23.55,41.22-8.77Z" style="fill:#fff; stroke-width:0px;"/></g></svg>