<?xml version="1.0" encoding="UTF-8"?><svg id="a" xmlns="http://www.w3.org/2000/svg" xmlns:xlink="http://www.w3.org/1999/xlink" viewBox="0 0 1536 1024"><defs><filter id="b" filterUnits="userSpaceOnUse"><feOffset dx="10.61" dy="10.61"/><feGaussianBlur result="c" stdDeviation="0"/><feFlood flood-color="#3a7ca5" flood-opacity="1"/><feComposite in2="c" operator="in"/><feComposite in="SourceGraphic"/></filter><filter id="d" filterUnits="userSpaceOnUse"><feOffset dx="7.73" dy="7.73"/><feGaussianBlur result="e" stdDeviation="0"/><feFlood flood-color="#3a7ca5" flood-opacity="1"/><feComposite in2="e" operator="in"/><feComposite in="SourceGraphic"/></filter></defs><g style="filter:url(#b);"><path d="m184.75,723.79l13.29-40.66h104.77l6.06,28.34-14.66,44.76-23.65,24.04h15.83l-13.29,41.05h-46.91l-4.5-34.21-11.14,34.21h-46.52l31.67-97.54h-10.95Zm68.61,15.25l4.89-15.05h-16.03l-4.89,15.05h16.03Z" style="fill:#f45b69; stroke-width:0px;"/><path d="m423.8,724.18h-50.04l-3.13,9.97h32.06l-11.73,36.16h-32.06l-3.32,9.97h50.04l-13.29,41.05h-96.56l31.67-97.54h-10.95l13.29-40.66h107.51l-13.49,41.05Z" style="fill:#f45b69; stroke-width:0px;"/><path d="m530.53,683.13h48.87l-79.17,138.2h-64.9l10.75-138.2h48.87l-7.23,76.82,42.81-76.82Z" style="fill:#f45b69; stroke-width:0px;"/><path d="m682.21,724.18h-50.04l-3.13,9.97h32.06l-11.73,36.16h-32.06l-3.32,9.97h50.04l-13.29,41.05h-96.56l31.67-97.54h-10.95l13.29-40.66h107.51l-13.49,41.05Z" style="fill:#f45b69; stroke-width:0px;"/><path d="m777.01,821.33h-46.52l7.04-21.7-11.14-32.06-17.4,53.75h-46.52l44.96-138.2h34.79l17.2,48.67,15.83-48.67h46.72l-44.96,138.2Z" style="fill:#f45b69; stroke-width:0px;"/><path d="m848.75,780.09h16.03l10.36-32.45h46.52l-15.25,47.11-22.67,26.58h-80.53l-6.65-24.04,29.32-90.11,22.28-24.04h94.61l-13.49,41.24h-62.55l-17.98,55.71Z" style="fill:#f45b69; stroke-width:0px;"/><path d="m1048.52,724.18h-50.04l-3.13,9.97h32.06l-11.73,36.16h-32.06l-3.32,9.97h50.04l-13.29,41.05h-96.56l31.67-97.54h-10.95l13.29-40.66h107.51l-13.49,41.05Z" style="fill:#f45b69; stroke-width:0px;"/><path d="m1060.44,723.79l13.29-40.66h104.77l6.06,28.34-14.66,44.76-23.65,24.04h15.83l-13.29,41.05h-46.91l-4.5-34.21-11.14,34.21h-46.52l31.67-97.54h-10.95Zm68.61,15.25l4.89-15.05h-16.03l-4.89,15.05h16.03Z" style="fill:#f45b69; stroke-width:0px;"/><path d="m1271.74,774.81l-6.26,19.74-22.67,26.78h-82.29l13.29-41.05h43.98l-27.56-50.63,6.45-19.74,22.67-26.78h83.07l-13.49,41.05h-43.79l26.58,50.63Z" style="fill:#f45b69; stroke-width:0px;"/></g><g style="filter:url(#d);"><path d="m451.21,866.45l-1.25,5.84c-.19.74-.28,1.58-.28,2.5,0,2.5,1.04,3.75,3.13,3.75s6.83-3.89,14.53-11.68c.05-3.01,1.17-6.49,3.37-10.42,2.2-3.94,4.63-7.39,7.3-10.36,2.66-2.96,4.64-4.45,5.94-4.45,2.04,0,3.06,1.34,3.06,4.03,0,1.62-.39,3.6-1.18,5.94-.79,2.34-1.95,4.87-3.48,7.58-1.53,2.71-3.41,5.5-5.63,8.38,1.16,2.08,2.34,3.13,3.54,3.13,1.02,0,2.14-.36,3.37-1.08,1.23-.72,2.77-1.82,4.62-3.3v4.66c-2.6,2.04-4.65,3.43-6.15,4.17-1.51.74-3.44,1.11-5.8,1.11-.93,0-2.6-.63-5-1.88-4.73,5-8.57,8.75-11.54,11.22-2.97,2.48-5.38,3.72-7.23,3.72-3.2,0-5.92-1.91-8.17-5.73-2.25-3.82-3.37-8.03-3.37-12.61,0-6.16,3.48-13.55,10.43-22.17,2.08-2.59,3.76-4.37,5.04-5.32,1.27-.95,2.72-1.42,4.34-1.42,1.39,0,2.71.25,3.96.76s1.88,1.11,1.88,1.81c0,2.32-1.55,5.71-4.66,10.18-3.1,4.47-6.7,8.35-10.77,11.64Z" style="fill:#44bba4; stroke-width:0px;"/><path d="m487.84,868.26v-1.67c11.95-12.6,20.18-21.43,24.67-26.48,1.02-5.7,3.48-8.55,7.37-8.55.97,0,2.02.28,3.13.83l.42,1.32c-.19.56-.28,1.34-.28,2.36,0,.88.34,2.51,1.01,4.9.67,2.39,1.19,4.39,1.56,6.01.37,1.62.56,3.45.56,5.49,0,3.06-.69,5.99-2.08,8.79-1.39,2.8-3.41,5.49-6.05,8.06-2.64,2.57-6.05,5.2-10.22,7.89,1.67.28,2.99.42,3.96.42,1.9,0,3.95-.47,6.15-1.42,2.2-.95,4.45-2.22,6.74-3.82s4.97-3.67,8.03-6.22v4.66c-5.93,5.79-11.24,10.18-15.92,13.17-4.68,2.99-8.71,4.48-12.09,4.48-4.36,0-8.39-1.85-12.09-5.56-2.18-2.22-3.53-4.35-4.07-6.39-.53-2.04-.8-4.8-.8-8.27Zm25.92-10.63l-1.25-10.15c-2.87,3.24-9.01,9.48-18.42,18.7,2.78.6,4.68,1.41,5.7,2.43,1.02,1.02,2.46,2.99,4.31,5.91,3.15-1.3,5.57-3.07,7.26-5.32,1.69-2.25,2.54-5.32,2.54-9.21,0-.46-.01-.88-.03-1.25-.02-.37-.06-.74-.1-1.11Z" style="fill:#44bba4; stroke-width:0px;"/><path d="m621.63,809.67c0,.42-.53,1.47-1.6,3.16-1.07,1.69-2.64,4.17-4.73,7.44s-4.61,7.44-7.58,12.51c-2.97,5.07-6.02,10.69-9.17,16.85-3.61,7.09-6.22,12.66-7.82,16.71-1.6,4.06-2.4,7.54-2.4,10.46,0,2.32,1.23,4.36,3.68,6.12,2.96-2.32,5.88-5.07,8.76-8.27,2.87-3.2,5.71-6.76,8.51-10.7,2.8-3.94,6.05-8.92,9.73-14.94s6.96-11.56,9.83-16.61c-.14-.42-.29-.83-.45-1.25-.16-.42-.24-.76-.24-1.04,0-2.18.44-4.22,1.32-6.12.88-1.9,1.98-3.75,3.3-5.56,1.32-1.81,3.3-4.35,5.94-7.64.69-.88,1.55-1.32,2.57-1.32,1.67,0,2.5,1.07,2.5,3.2s-.87,5.48-2.61,10.04c-1.74,4.56-4.3,9.93-7.68,16.09-3.38,6.16-7.59,13.05-12.61,20.68-5.03,7.62-10.71,15.58-17.06,23.87-6.44,8.39-11.05,12.58-13.83,12.58-1.58,0-3.36-.87-5.35-2.61-1.99-1.74-3.71-4.11-5.14-7.12-1.44-3.01-2.15-6.23-2.15-9.66,0-2.04.43-4.66,1.29-7.85.86-3.2,2.2-7.03,4.03-11.5,1.83-4.47,3.9-8.88,6.22-13.24,2.41-4.59,4.53-8.39,6.36-11.4,1.83-3.01,3.9-6.36,6.22-10.04,2.32-3.68,3.47-5.69,3.47-6.01,0-.69-.46-1.04-1.39-1.04-2.69,0-6.27,1.37-10.74,4.1-4.47,2.73-10.3,6.88-17.48,12.44-2.73,2.13-4.46,3.51-5.18,4.14-.72.62-1.08,1.15-1.08,1.56,0,.56.44.83,1.32.83.37,0,1.62-.14,3.75-.42,2.13-.28,3.82-.42,5.07-.42,2.08,0,3.13.37,3.13,1.11,0,.65-.43,1.16-1.29,1.53-.86.37-2.04.74-3.54,1.11-1.51.37-3.56.88-6.15,1.53-2.78.74-5.73,1.81-8.86,3.2-3.13,1.39-4.92,2.08-5.39,2.08-.88,0-1.42-.32-1.63-.97-.21-.65-.31-1.71-.31-3.2,0-6.58,1.09-11.67,3.27-15.26,2.18-3.59,6.07-7.33,11.68-11.22,6.39-4.45,12.51-8.14,18.35-11.08,5.84-2.94,10.88-5.1,15.12-6.46,4.24-1.37,7.35-2.05,9.35-2.05s3.88,1.25,5.8,3.75c1.92,2.5,2.88,5.14,2.88,7.92Z" style="fill:#44bba4; stroke-width:0px;"/><path d="m664.58,866.31v5.07c-4.49,5.79-8.69,10.16-12.58,13.1-3.89,2.94-7.21,4.41-9.94,4.41-3.8,0-6.63-1.99-8.48-5.98-1.85-3.98-2.78-8.34-2.78-13.07,0-1.81.18-3.53.56-5.18.37-1.64.81-3,1.32-4.07.51-1.07,1.46-2.73,2.85-5,6.58-10.24,12.6-15.36,18.07-15.36,2.83,0,4.24,1.09,4.24,3.27,0,1.48-.92,3.8-2.75,6.95-1.83,3.15-3.46,5.4-4.9,6.74-4.03,3.89-6.66,6.6-7.89,8.13-1.23,1.53-1.84,3.27-1.84,5.21,0,1.67.63,3.06,1.88,4.17s2.87,1.67,4.87,1.67c2.18,0,4.57-.8,7.19-2.4,2.62-1.6,6.01-4.16,10.18-7.68Zm-4.73-31.07c-1.16,0-2.26-.44-3.3-1.32-1.04-.88-1.56-1.99-1.56-3.34,0-2.04.97-4.31,2.92-6.81,1.95-2.5,3.96-3.75,6.05-3.75,1.39,0,2.55.43,3.48,1.29.93.86,1.39,2.1,1.39,3.72,0,1.99-.95,4.19-2.85,6.6-1.9,2.41-3.94,3.61-6.12,3.61Z" style="fill:#44bba4; stroke-width:0px;"/><path d="m697.18,865.55v5.14c-9.68,12.83-17.56,19.25-23.63,19.25-3.29,0-5.87-1.79-7.75-5.39-1.88-3.59-2.81-8.31-2.81-14.14,0-4.73,1.11-10.34,3.34-16.85,2.22-6.51,5.2-13.11,8.93-19.81,3.73-6.7,7.6-12.53,11.61-17.51,4.01-4.98,7.73-8.47,11.15-10.46,1.39-.83,2.48-1.25,3.27-1.25.97,0,1.62.43,1.95,1.29.32.86.49,2.33.49,4.41,0,6.44-2.62,14.35-7.85,23.73-5.24,9.38-12.53,18.96-21.89,28.74-.46,2.41-.69,4.26-.69,5.56,0,2.97.64,5.38,1.91,7.23,1.27,1.85,3.05,2.78,5.32,2.78,1.16,0,2.41-.45,3.75-1.36,1.34-.9,2.76-2.03,4.24-3.37,1.48-1.34,4.38-4.01,8.69-7.99Zm-20.78-12.51c2.41-2.36,4.74-5.05,6.98-8.06,2.25-3.01,4.37-6.23,6.36-9.66,1.99-3.43,3.56-6.51,4.69-9.24,1.13-2.73,1.7-4.8,1.7-6.19,0-1.07-.37-1.6-1.11-1.6-.28,0-.81.25-1.6.76-2.83,2.32-6,6.85-9.52,13.59-3.52,6.74-6.02,13.54-7.51,20.4Z" style="fill:#44bba4; stroke-width:0px;"/><path d="m729.77,865.55v5.14c-9.68,12.83-17.56,19.25-23.63,19.25-3.29,0-5.87-1.79-7.75-5.39-1.88-3.59-2.81-8.31-2.81-14.14,0-4.73,1.11-10.34,3.34-16.85,2.22-6.51,5.2-13.11,8.93-19.81,3.73-6.7,7.6-12.53,11.61-17.51,4.01-4.98,7.73-8.47,11.15-10.46,1.39-.83,2.48-1.25,3.27-1.25.97,0,1.62.43,1.95,1.29.32.86.49,2.33.49,4.41,0,6.44-2.62,14.35-7.85,23.73-5.24,9.38-12.53,18.96-21.89,28.74-.46,2.41-.69,4.26-.69,5.56,0,2.97.64,5.38,1.91,7.23,1.27,1.85,3.05,2.78,5.32,2.78,1.16,0,2.41-.45,3.75-1.36,1.34-.9,2.76-2.03,4.24-3.37,1.48-1.34,4.38-4.01,8.69-7.99Zm-20.78-12.51c2.41-2.36,4.74-5.05,6.98-8.06,2.25-3.01,4.37-6.23,6.36-9.66,1.99-3.43,3.56-6.51,4.69-9.24,1.13-2.73,1.7-4.8,1.7-6.19,0-1.07-.37-1.6-1.11-1.6-.28,0-.81.25-1.6.76-2.83,2.32-6,6.85-9.52,13.59-3.52,6.74-6.02,13.54-7.51,20.4Z" style="fill:#44bba4; stroke-width:0px;"/><path d="m737.28,853.87c7.04-6.39,13.88-11.14,20.5-14.25,6.63-3.1,11.75-4.66,15.36-4.66.97,0,1.88.41,2.71,1.22.83.81,1.49,1.75,1.98,2.81.49,1.07.73,1.85.73,2.36,0,.83-.32,1.45-.97,1.84-.65.39-1.78.87-3.41,1.42.32.74.74,1.69,1.25,2.85.51,1.16.9,2.1,1.18,2.81.28.72.42,1.36.42,1.91,0,1.11-1.12,3.19-3.37,6.22-2.25,3.04-3.82,5.27-4.73,6.71-.9,1.44-1.35,3.2-1.35,5.28,0,3.43,1.57,5.14,4.73,5.14s8.32-3.03,15.22-9.1v4.24c-11.72,13.02-20.11,19.53-25.16,19.53-1.81,0-3.09-.59-3.86-1.77-.76-1.18-1.15-2.93-1.15-5.25,0-3.66,1.32-8.97,3.96-15.92-6.77,7.51-11.79,12.85-15.08,16.02-3.29,3.17-6,4.76-8.13,4.76-1.02,0-2.29-.88-3.82-2.64-1.53-1.76-2.88-4.04-4.07-6.85-1.18-2.8-1.77-5.71-1.77-8.72,0-2.18.21-4,.63-5.46.42-1.46,1.23-2.95,2.43-4.48,1.2-1.53,3.13-3.54,5.77-6.05Zm33.29-7.64c-12.05,5.51-20.63,10.19-25.75,14.04-5.12,3.85-7.68,7.81-7.68,11.88,0,1.48.25,2.7.76,3.65.51.95,1.2,1.42,2.08,1.42.51,0,1.41-.32,2.71-.97,4.87-2.87,9.31-6.61,13.34-11.22,4.03-4.61,8.87-10.88,14.53-18.8Z" style="fill:#44bba4; stroke-width:0px;"/><path d="m820.12,866.31v5.07c-4.49,5.79-8.69,10.16-12.58,13.1-3.89,2.94-7.21,4.41-9.94,4.41-3.8,0-6.63-1.99-8.48-5.98-1.85-3.98-2.78-8.34-2.78-13.07,0-1.81.18-3.53.56-5.18.37-1.64.81-3,1.32-4.07.51-1.07,1.46-2.73,2.85-5,6.58-10.24,12.6-15.36,18.07-15.36,2.83,0,4.24,1.09,4.24,3.27,0,1.48-.92,3.8-2.75,6.95-1.83,3.15-3.46,5.4-4.9,6.74-4.03,3.89-6.66,6.6-7.89,8.13-1.23,1.53-1.84,3.27-1.84,5.21,0,1.67.63,3.06,1.88,4.17s2.87,1.67,4.87,1.67c2.18,0,4.57-.8,7.19-2.4,2.62-1.6,6.01-4.16,10.18-7.68Zm-4.73-31.07c-1.16,0-2.26-.44-3.3-1.32-1.04-.88-1.56-1.99-1.56-3.34,0-2.04.97-4.31,2.92-6.81,1.95-2.5,3.96-3.75,6.05-3.75,1.39,0,2.55.43,3.48,1.29.93.86,1.39,2.1,1.39,3.72,0,1.99-.95,4.19-2.85,6.6-1.9,2.41-3.94,3.61-6.12,3.61Z" style="fill:#44bba4; stroke-width:0px;"/><path d="m866.34,853.73c-8.16,9.08-12.23,15.41-12.23,18.97,0,1.99.81,2.99,2.43,2.99,1.34,0,3.09-.71,5.25-2.12,2.15-1.41,5.53-3.93,10.11-7.54v4.8c-6.58,6.49-11.63,11.17-15.15,14.04-3.52,2.87-6.39,4.31-8.62,4.31-3.8,0-5.7-2.5-5.7-7.51,0-1.48.23-2.94.69-4.38.46-1.44,1.1-2.93,1.91-4.48.81-1.55,2.05-3.78,3.72-6.67,1.67-2.9,3.59-6.17,5.77-9.83-2.64,1.34-5.95,4.01-9.94,7.99-2.6,2.5-4.8,4.88-6.6,7.12-1.81,2.25-3.74,4.75-5.8,7.51-2.06,2.76-3.57,4.61-4.52,5.56-.95.95-1.91,1.42-2.88,1.42-1.48,0-2.85-1.55-4.1-4.66-1.25-3.1-1.88-6.72-1.88-10.84,0-2.55.29-4.54.87-5.98.58-1.44,1.73-3.47,3.44-6.12,3.2-4.91,5.95-8.51,8.27-10.81,2.32-2.29,4.54-3.44,6.67-3.44,1.48,0,2.68.25,3.58.76.9.51,1.36,1.3,1.36,2.36,0,.46-.14.95-.42,1.46-.28.51-.59.97-.94,1.39s-1.08,1.23-2.19,2.43c-7.32,8.11-10.98,13.37-10.98,15.78,0,1.34.44,2.02,1.32,2.02.56,0,1.63-.89,3.23-2.68,1.6-1.78,3.66-4.12,6.19-7.02,2.52-2.89,5.51-5.92,8.97-9.07,3.45-3.15,7.38-6.19,11.78-9.1,2.46-1.71,4.49-2.57,6.12-2.57.74,0,1.47,1.02,2.19,3.06.72,2.04,1.08,4.1,1.08,6.19,0,1.02-1,2.57-2.99,4.66Z" style="fill:#44bba4; stroke-width:0px;"/><path d="m904.22,861.58c-6.72,8.9-11.83,15.22-15.33,18.97-3.5,3.75-6.36,5.63-8.58,5.63-1.76,0-3.38-.73-4.86-2.19-1.48-1.46-2.63-3.43-3.44-5.91-.81-2.48-1.22-5.13-1.22-7.96,0-1.85.17-3.52.52-5,.35-1.48,1.01-3.12,1.98-4.9.97-1.78,2.26-3.72,3.86-5.8s3.56-4.45,5.87-7.09c1.39-1.62,2.56-2.99,3.51-4.1.95-1.11,1.88-1.87,2.78-2.26.9-.39,2.37-.59,4.41-.59,1.48,0,2.9.2,4.24.59,1.34.39,2.02.8,2.02,1.22,0,.83-.68,2.34-2.05,4.52-1.37,2.18-3.57,4.83-6.6,7.96-3.04,3.13-6.54,6.2-10.53,9.21-.88,2.73-1.32,4.82-1.32,6.25,0,1.99.76,2.99,2.29,2.99.56,0,1.48-.47,2.78-1.42,1.3-.95,3.49-2.78,6.57-5.49,3.08-2.71,5.85-5.11,8.31-7.19,1.81-1.57,3.9-3.93,6.29-7.05,2.39-3.13,4.32-5.48,5.8-7.05,3.43-3.61,5.77-5.97,7.02-7.05,1.25-1.09,2.46-1.63,3.61-1.63s1.86.35,2.26,1.04c.39.7.59,2.11.59,4.24,0,.97-.09,1.76-.28,2.36-.19.6-.57,1.38-1.15,2.33-.58.95-1.75,2.7-3.51,5.25-1.76,2.55-3.85,5.56-6.26,9.03-1.3,1.85-2.43,3.88-3.41,6.08-.97,2.2-1.46,3.86-1.46,4.97,0,2.41.95,3.61,2.85,3.61,1.57,0,3.41-.65,5.49-1.95,2.09-1.3,5.28-3.64,9.59-7.02v4.66c-5.42,5-9.43,8.64-12.02,10.91-2.6,2.27-4.84,3.99-6.74,5.14-1.9,1.16-3.71,1.74-5.42,1.74-3.89,0-5.84-2.32-5.84-6.95,0-1.76.58-4.13,1.74-7.12,1.16-2.99,3.03-7.31,5.63-12.96Z" style="fill:#44bba4; stroke-width:0px;"/><path d="m925.97,868.26v-1.67c11.95-12.6,20.18-21.43,24.67-26.48,1.02-5.7,3.48-8.55,7.37-8.55.97,0,2.02.28,3.13.83l.42,1.32c-.19.56-.28,1.34-.28,2.36,0,.88.34,2.51,1.01,4.9.67,2.39,1.19,4.39,1.56,6.01.37,1.62.56,3.45.56,5.49,0,3.06-.69,5.99-2.08,8.79-1.39,2.8-3.41,5.49-6.05,8.06-2.64,2.57-6.05,5.2-10.22,7.89,1.67.28,2.99.42,3.96.42,1.9,0,3.95-.47,6.15-1.42,2.2-.95,4.45-2.22,6.74-3.82s4.97-3.67,8.03-6.22v4.66c-5.93,5.79-11.24,10.18-15.92,13.17-4.68,2.99-8.71,4.48-12.09,4.48-4.36,0-8.39-1.85-12.09-5.56-2.18-2.22-3.53-4.35-4.07-6.39-.53-2.04-.8-4.8-.8-8.27Zm25.92-10.63l-1.25-10.15c-2.87,3.24-9.01,9.48-18.42,18.7,2.78.6,4.68,1.41,5.7,2.43,1.02,1.02,2.46,2.99,4.31,5.91,3.15-1.3,5.57-3.07,7.26-5.32,1.69-2.25,2.54-5.32,2.54-9.21,0-.46-.01-.88-.03-1.25-.02-.37-.06-.74-.1-1.11Z" style="fill:#44bba4; stroke-width:0px;"/></g></svg>