<?xml version="1.0" encoding="UTF-8"?><svg id="a" xmlns="http://www.w3.org/2000/svg" viewBox="0 0 1536 1024"><path d="m327.24,817.16v-57.04c0-8.75-.2-10.84-11.26-10.84h-7.78v-18.06h60.39v18.06h-4.91c-10.44,0-11.26,1.71-11.26,10.84v98.68h-47.09l-53.44-91.46v62.37c0,9.13.82,11.03,11.26,11.03h6.14v18.06h-60.6v-18.06h6.76c10.44,0,11.46-1.9,11.46-11.03v-69.59c0-9.13-1.02-10.84-11.46-10.84h-6.76v-18.06h67.97l50.57,85.94Z" style="fill:#3a7ca5; stroke-width:0px;"/><path d="m407.29,862.03c-20.47,0-31.94-9.13-31.94-25.29,0-17.87,11.26-23.2,35.83-27.19,18.02-2.85,26.62-4.75,26.62-16.35,0-8.94-6.96-15.02-19.04-15.02-4.09,0-7.98,1.14-12.08,3.23,7.17,1.9,10.65,5.89,10.65,12.17,0,7.8-6.96,13.12-17.81,13.12-12.9,0-20.06-5.89-20.06-15.97,0-15.02,17.2-24.91,49.34-24.91,18.43,0,31.73,3.04,38.08,7.04,10.03,6.27,11.26,13.69,11.26,26.05v34.6c0,3.99.41,5.71,4.1,5.71,3.89,0,4.3-2.09,4.3-5.71v-10.84h13.51v11.79c0,19.39-8.6,27.57-30.71,27.57-12.08,0-20.68-3.99-26.82-12.74-6.96,8.18-19.45,12.74-35.21,12.74Zm32.55-134.62c5.94-5.89,10.44-9.32,16.58-9.32,6.55,0,11.46,4.56,11.46,10.65,0,4.94-3.48,8.37-10.85,11.79l-34.6,15.97h-12.08l29.48-29.09Zm-24.77,105.91c0,5.13,4.3,8.94,10.64,8.94,7.58,0,12.69-4.75,12.69-12.93v-.57l-.21-11.6c-14.74,7.42-23.13,8.94-23.13,16.16Z" style="fill:#3a7ca5; stroke-width:0px;"/><path d="m551.21,862.22c-25.79,0-33.78-9.89-33.78-33.27v-34.23c0-7.23-1.64-8.94-9.62-8.94h-3.28v-16.73h53.23v57.99c0,10.27,4.1,15.4,13.1,15.4s15.15-6.85,15.15-18.25v-29.47c0-7.23-1.43-8.94-9.42-8.94h-4.1v-16.73h53.84v64.08c0,7.23,1.64,8.94,9.62,8.94h4.3v16.73h-53.23v-13.12c-8.8,10.84-21.09,16.54-35.83,16.54Z" style="fill:#3a7ca5; stroke-width:0px;"/><path d="m647.62,786.35v-17.3h14.33v-5.13c0-25.1,13.1-36.13,45.45-36.13,23.13,0,36.44,9.32,36.44,21.87,0,8.37-7.17,14.64-17.61,14.64-9.42,0-15.76-5.32-15.76-12.17,0-4.56,2.46-8.18,7.37-10.84-2.05-.57-3.69-.95-5.32-.95-8.19,0-10.24,5.51-10.24,16.54v12.17h17.81v17.3h-17.81v46.58c0,7.42,1.64,9.13,9.62,9.13h8.6v16.73h-72.88v-16.73h4.91c7.98,0,9.42-1.71,9.42-8.94v-46.77h-14.33Z" style="fill:#3a7ca5; stroke-width:0px;"/><path d="m807.11,765.82c14.95,0,24.16,8.94,24.16,22.06,0,11.6-7.78,19.01-19.04,19.01-9.21,0-15.97-6.08-15.97-13.88,0-5.51,2.87-9.51,9.01-12.36-1.64-.38-3.07-.57-4.51-.57-10.44,0-17.61,9.51-17.61,26.62v26.43c0,7.23,1.64,8.94,9.62,8.94h6.55v16.73h-69.61v-16.73h3.48c7.98,0,9.62-1.71,9.62-8.94v-38.41c0-7.23-1.64-8.94-9.62-8.94h-3.48v-16.73h52.41v8.75c6.96-7.99,15.35-11.98,24.98-11.98Z" style="fill:#3a7ca5; stroke-width:0px;"/><path d="m866.27,862.03c-20.47,0-31.94-9.13-31.94-25.29,0-17.87,11.26-23.2,35.83-27.19,18.02-2.85,26.62-4.75,26.62-16.35,0-8.94-6.96-15.02-19.04-15.02-4.1,0-7.98,1.14-12.08,3.23,7.17,1.9,10.65,5.89,10.65,12.17,0,7.8-6.96,13.12-17.81,13.12-12.9,0-20.06-5.89-20.06-15.97,0-15.02,17.2-24.91,49.34-24.91,18.43,0,31.73,3.04,38.08,7.04,10.03,6.27,11.26,13.69,11.26,26.05v34.6c0,3.99.41,5.71,4.09,5.71,3.89,0,4.3-2.09,4.3-5.71v-10.84h13.51v11.79c0,19.39-8.6,27.57-30.71,27.57-12.08,0-20.68-3.99-26.82-12.74-6.96,8.18-19.45,12.74-35.21,12.74Zm7.78-28.71c0,5.13,4.3,8.94,10.65,8.94,7.57,0,12.69-4.75,12.69-12.93v-.57l-.21-11.6c-14.74,7.42-23.13,8.94-23.13,16.16Z" style="fill:#3a7ca5; stroke-width:0px;"/><path d="m966.99,802.13c0-22.63,17.61-36.13,49.34-36.13,11.05,0,20.27,2.47,30.5,6.84,7.37-5.13,14.33-7.61,21.7-7.61,14.95,0,25.39,8.18,25.39,19.39,0,8.18-5.73,13.69-14.13,13.69-9.42,0-15.56-4.75-15.56-10.65,0-3.8,2.05-7.04,6.14-10.08-2.05-1.52-3.68-2.28-5.53-2.28-3.28,0-7.17,1.71-11.67,4.94,5.73,5.89,8.19,13.31,8.19,22.82,0,21.11-19.24,35.94-49.13,35.94-6.14,0-12.49-.95-19.04-2.85-2.46,1.14-3.89,3.04-3.89,4.56,0,4.75,4.3,4.94,13.51,4.94,14.33,0,26.61-.57,37.05-.57,25.59,0,37.46,7.04,37.46,24.53,0,20.16-19.65,30.04-59.37,30.04s-57.53-6.27-57.53-21.11c0-6.27,4.5-11.79,12.9-14.64-7.37-4.94-11.05-10.84-11.05-17.68,0-8.56,5.73-15.59,16.38-19.39-7.78-6.08-11.67-14.45-11.67-24.72Zm53.64,83.66c19.04,0,27.84-1.9,27.84-7.23s-8.39-6.46-27.64-6.46-29.28,1.14-29.28,6.66c0,5.13,9.62,7.04,29.07,7.04Zm2.66-84.04c0-15.4-2.25-22.63-8.6-22.63-7.57,0-9.83,7.42-9.83,24.15,0,15.4,2.66,22.44,9.62,22.44,6.55,0,8.8-7.8,8.8-23.96Z" style="fill:#3a7ca5; stroke-width:0px;"/><path d="m1209.79,813.92c0,29.66-22.31,48.11-58.76,48.11s-58.55-18.06-58.55-48.11,21.91-48.3,58.35-48.3,58.96,18.63,58.96,48.3Zm-58.96-30.61c-11.87,0-14.95,9.51-14.95,30.61s3.07,30.61,15.36,30.61,14.95-9.51,14.95-30.61-3.07-30.61-15.36-30.61Z" style="fill:#3a7ca5; stroke-width:0px;"/><path d="m1220.22,860.13v-32.89h18.02c4.3,11.6,13.51,17.49,27.84,17.49,9.42,0,13.51-2.28,13.51-7.61,0-6.46-8.6-7.23-24.57-11.98-24.57-7.23-36.85-12.36-36.85-29.28,0-17.87,16.79-30.23,45.86-30.23,12.69,0,24.16,2.28,35.21,7.04l2.87-5.32h15.15v28.33h-15.97c-5.73-8.94-15.56-13.88-27.23-13.88-8.6,0-13.1,2.85-13.1,6.85,0,6.84,7.37,7.61,21.5,11.79,10.24,3.04,20.27,5.32,28.87,10.65,6.76,4.18,10.65,11.41,10.65,20.34,0,18.63-16.38,30.61-45.04,30.61-15.15,0-28.66-3.23-38.69-8.94l-3.69,7.04h-14.33Z" style="fill:#3a7ca5; stroke-width:0px;"/><path d="m327.24,817.16v-57.04c0-8.75-.2-10.84-11.26-10.84h-7.78v-18.06h60.39v18.06h-4.91c-10.44,0-11.26,1.71-11.26,10.84v98.68h-47.09l-53.44-91.46v62.37c0,9.13.82,11.03,11.26,11.03h6.14v18.06h-60.6v-18.06h6.76c10.44,0,11.46-1.9,11.46-11.03v-69.59c0-9.13-1.02-10.84-11.46-10.84h-6.76v-18.06h67.97l50.57,85.94Z" style="fill:none; stroke:#3a7ca5; stroke-linecap:round; stroke-linejoin:round; stroke-width:44.97px;"/><path d="m407.29,862.03c-20.47,0-31.94-9.13-31.94-25.29,0-17.87,11.26-23.2,35.83-27.19,18.02-2.85,26.62-4.75,26.62-16.35,0-8.94-6.96-15.02-19.04-15.02-4.09,0-7.98,1.14-12.08,3.23,7.17,1.9,10.65,5.89,10.65,12.17,0,7.8-6.96,13.12-17.81,13.12-12.9,0-20.06-5.89-20.06-15.97,0-15.02,17.2-24.91,49.34-24.91,18.43,0,31.73,3.04,38.08,7.04,10.03,6.27,11.26,13.69,11.26,26.05v34.6c0,3.99.41,5.71,4.1,5.71,3.89,0,4.3-2.09,4.3-5.71v-10.84h13.51v11.79c0,19.39-8.6,27.57-30.71,27.57-12.08,0-20.68-3.99-26.82-12.74-6.96,8.18-19.45,12.74-35.21,12.74Zm32.55-134.62c5.94-5.89,10.44-9.32,16.58-9.32,6.55,0,11.46,4.56,11.46,10.65,0,4.94-3.48,8.37-10.85,11.79l-34.6,15.97h-12.08l29.48-29.09Zm-24.77,105.91c0,5.13,4.3,8.94,10.64,8.94,7.58,0,12.69-4.75,12.69-12.93v-.57l-.21-11.6c-14.74,7.42-23.13,8.94-23.13,16.16Z" style="fill:none; stroke:#3a7ca5; stroke-linecap:round; stroke-linejoin:round; stroke-width:44.97px;"/><path d="m551.21,862.22c-25.79,0-33.78-9.89-33.78-33.27v-34.23c0-7.23-1.64-8.94-9.62-8.94h-3.28v-16.73h53.23v57.99c0,10.27,4.1,15.4,13.1,15.4s15.15-6.85,15.15-18.25v-29.47c0-7.23-1.43-8.94-9.42-8.94h-4.1v-16.73h53.84v64.08c0,7.23,1.64,8.94,9.62,8.94h4.3v16.73h-53.23v-13.12c-8.8,10.84-21.09,16.54-35.83,16.54Z" style="fill:none; stroke:#3a7ca5; stroke-linecap:round; stroke-linejoin:round; stroke-width:44.97px;"/><path d="m647.62,786.35v-17.3h14.33v-5.13c0-25.1,13.1-36.13,45.45-36.13,23.13,0,36.44,9.32,36.44,21.87,0,8.37-7.17,14.64-17.61,14.64-9.42,0-15.76-5.32-15.76-12.17,0-4.56,2.46-8.18,7.37-10.84-2.05-.57-3.69-.95-5.32-.95-8.19,0-10.24,5.51-10.24,16.54v12.17h17.81v17.3h-17.81v46.58c0,7.42,1.64,9.13,9.62,9.13h8.6v16.73h-72.88v-16.73h4.91c7.98,0,9.42-1.71,9.42-8.94v-46.77h-14.33Z" style="fill:none; stroke:#3a7ca5; stroke-linecap:round; stroke-linejoin:round; stroke-width:44.97px;"/><path d="m807.11,765.82c14.95,0,24.16,8.94,24.16,22.06,0,11.6-7.78,19.01-19.04,19.01-9.21,0-15.97-6.08-15.97-13.88,0-5.51,2.87-9.51,9.01-12.36-1.64-.38-3.07-.57-4.51-.57-10.44,0-17.61,9.51-17.61,26.62v26.43c0,7.23,1.64,8.94,9.62,8.94h6.55v16.73h-69.61v-16.73h3.48c7.98,0,9.62-1.71,9.62-8.94v-38.41c0-7.23-1.64-8.94-9.62-8.94h-3.48v-16.73h52.41v8.75c6.96-7.99,15.35-11.98,24.98-11.98Z" style="fill:none; stroke:#3a7ca5; stroke-linecap:round; stroke-linejoin:round; stroke-width:44.97px;"/><path d="m866.27,862.03c-20.47,0-31.94-9.13-31.94-25.29,0-17.87,11.26-23.2,35.83-27.19,18.02-2.85,26.62-4.75,26.62-16.35,0-8.94-6.96-15.02-19.04-15.02-4.1,0-7.98,1.14-12.08,3.23,7.17,1.9,10.65,5.89,10.65,12.17,0,7.8-6.96,13.12-17.81,13.12-12.9,0-20.06-5.89-20.06-15.97,0-15.02,17.2-24.91,49.34-24.91,18.43,0,31.73,3.04,38.08,7.04,10.03,6.27,11.26,13.69,11.26,26.05v34.6c0,3.99.41,5.71,4.09,5.71,3.89,0,4.3-2.09,4.3-5.71v-10.84h13.51v11.79c0,19.39-8.6,27.57-30.71,27.57-12.08,0-20.68-3.99-26.82-12.74-6.96,8.18-19.45,12.74-35.21,12.74Zm7.78-28.71c0,5.13,4.3,8.94,10.65,8.94,7.57,0,12.69-4.75,12.69-12.93v-.57l-.21-11.6c-14.74,7.42-23.13,8.94-23.13,16.16Z" style="fill:none; stroke:#3a7ca5; stroke-linecap:round; stroke-linejoin:round; stroke-width:44.97px;"/><path d="m966.99,802.13c0-22.63,17.61-36.13,49.34-36.13,11.05,0,20.27,2.47,30.5,6.84,7.37-5.13,14.33-7.61,21.7-7.61,14.95,0,25.39,8.18,25.39,19.39,0,8.18-5.73,13.69-14.13,13.69-9.42,0-15.56-4.75-15.56-10.65,0-3.8,2.05-7.04,6.14-10.08-2.05-1.52-3.68-2.28-5.53-2.28-3.28,0-7.17,1.71-11.67,4.94,5.73,5.89,8.19,13.31,8.19,22.82,0,21.11-19.24,35.94-49.13,35.94-6.14,0-12.49-.95-19.04-2.85-2.46,1.14-3.89,3.04-3.89,4.56,0,4.75,4.3,4.94,13.51,4.94,14.33,0,26.61-.57,37.05-.57,25.59,0,37.46,7.04,37.46,24.53,0,20.16-19.65,30.04-59.37,30.04s-57.53-6.27-57.53-21.11c0-6.27,4.5-11.79,12.9-14.64-7.37-4.94-11.05-10.84-11.05-17.68,0-8.56,5.73-15.59,16.38-19.39-7.78-6.08-11.67-14.45-11.67-24.72Zm53.64,83.66c19.04,0,27.84-1.9,27.84-7.23s-8.39-6.46-27.64-6.46-29.28,1.14-29.28,6.66c0,5.13,9.62,7.04,29.07,7.04Zm2.66-84.04c0-15.4-2.25-22.63-8.6-22.63-7.57,0-9.83,7.42-9.83,24.15,0,15.4,2.66,22.44,9.62,22.44,6.55,0,8.8-7.8,8.8-23.96Z" style="fill:none; stroke:#3a7ca5; stroke-linecap:round; stroke-linejoin:round; stroke-width:44.97px;"/><path d="m1209.79,813.92c0,29.66-22.31,48.11-58.76,48.11s-58.55-18.06-58.55-48.11,21.91-48.3,58.35-48.3,58.96,18.63,58.96,48.3Zm-58.96-30.61c-11.87,0-14.95,9.51-14.95,30.61s3.07,30.61,15.36,30.61,14.95-9.51,14.95-30.61-3.07-30.61-15.36-30.61Z" style="fill:none; stroke:#3a7ca5; stroke-linecap:round; stroke-linejoin:round; stroke-width:44.97px;"/><path d="m1220.22,860.13v-32.89h18.02c4.3,11.6,13.51,17.49,27.84,17.49,9.42,0,13.51-2.28,13.51-7.61,0-6.46-8.6-7.23-24.57-11.98-24.57-7.23-36.85-12.36-36.85-29.28,0-17.87,16.79-30.23,45.86-30.23,12.69,0,24.16,2.28,35.21,7.04l2.87-5.32h15.15v28.33h-15.97c-5.73-8.94-15.56-13.88-27.23-13.88-8.6,0-13.1,2.85-13.1,6.85,0,6.84,7.37,7.61,21.5,11.79,10.24,3.04,20.27,5.32,28.87,10.65,6.76,4.18,10.65,11.41,10.65,20.34,0,18.63-16.38,30.61-45.04,30.61-15.15,0-28.66-3.23-38.69-8.94l-3.69,7.04h-14.33Z" style="fill:none; stroke:#3a7ca5; stroke-linecap:round; stroke-linejoin:round; stroke-width:44.97px;"/><path d="m327.24,817.16v-57.04c0-8.75-.2-10.84-11.26-10.84h-7.78v-18.06h60.39v18.06h-4.91c-10.44,0-11.26,1.71-11.26,10.84v98.68h-47.09l-53.44-91.46v62.37c0,9.13.82,11.03,11.26,11.03h6.14v18.06h-60.6v-18.06h6.76c10.44,0,11.46-1.9,11.46-11.03v-69.59c0-9.13-1.02-10.84-11.46-10.84h-6.76v-18.06h67.97l50.57,85.94Z" style="fill:none; stroke:#000; stroke-width:22.48px;"/><path d="m407.29,862.03c-20.47,0-31.94-9.13-31.94-25.29,0-17.87,11.26-23.2,35.83-27.19,18.02-2.85,26.62-4.75,26.62-16.35,0-8.94-6.96-15.02-19.04-15.02-4.09,0-7.98,1.14-12.08,3.23,7.17,1.9,10.65,5.89,10.65,12.17,0,7.8-6.96,13.12-17.81,13.12-12.9,0-20.06-5.89-20.06-15.97,0-15.02,17.2-24.91,49.34-24.91,18.43,0,31.73,3.04,38.08,7.04,10.03,6.27,11.26,13.69,11.26,26.05v34.6c0,3.99.41,5.71,4.1,5.71,3.89,0,4.3-2.09,4.3-5.71v-10.84h13.51v11.79c0,19.39-8.6,27.57-30.71,27.57-12.08,0-20.68-3.99-26.82-12.74-6.96,8.18-19.45,12.74-35.21,12.74Zm32.55-134.62c5.94-5.89,10.44-9.32,16.58-9.32,6.55,0,11.46,4.56,11.46,10.65,0,4.94-3.48,8.37-10.85,11.79l-34.6,15.97h-12.08l29.48-29.09Zm-24.77,105.91c0,5.13,4.3,8.94,10.64,8.94,7.58,0,12.69-4.75,12.69-12.93v-.57l-.21-11.6c-14.74,7.42-23.13,8.94-23.13,16.16Z" style="fill:none; stroke:#000; stroke-width:22.48px;"/><path d="m551.21,862.22c-25.79,0-33.78-9.89-33.78-33.27v-34.23c0-7.23-1.64-8.94-9.62-8.94h-3.28v-16.73h53.23v57.99c0,10.27,4.1,15.4,13.1,15.4s15.15-6.85,15.15-18.25v-29.47c0-7.23-1.43-8.94-9.42-8.94h-4.1v-16.73h53.84v64.08c0,7.23,1.64,8.94,9.62,8.94h4.3v16.73h-53.23v-13.12c-8.8,10.84-21.09,16.54-35.83,16.54Z" style="fill:none; stroke:#000; stroke-width:22.48px;"/><path d="m647.62,786.35v-17.3h14.33v-5.13c0-25.1,13.1-36.13,45.45-36.13,23.13,0,36.44,9.32,36.44,21.87,0,8.37-7.17,14.64-17.61,14.64-9.42,0-15.76-5.32-15.76-12.17,0-4.56,2.46-8.18,7.37-10.84-2.05-.57-3.69-.95-5.32-.95-8.19,0-10.24,5.51-10.24,16.54v12.17h17.81v17.3h-17.81v46.58c0,7.42,1.64,9.13,9.62,9.13h8.6v16.73h-72.88v-16.73h4.91c7.98,0,9.42-1.71,9.42-8.94v-46.77h-14.33Z" style="fill:none; stroke:#000; stroke-width:22.48px;"/><path d="m807.11,765.82c14.95,0,24.16,8.94,24.16,22.06,0,11.6-7.78,19.01-19.04,19.01-9.21,0-15.97-6.08-15.97-13.88,0-5.51,2.87-9.51,9.01-12.36-1.64-.38-3.07-.57-4.51-.57-10.44,0-17.61,9.51-17.61,26.62v26.43c0,7.23,1.64,8.94,9.62,8.94h6.55v16.73h-69.61v-16.73h3.48c7.98,0,9.62-1.71,9.62-8.94v-38.41c0-7.23-1.64-8.94-9.62-8.94h-3.48v-16.73h52.41v8.75c6.96-7.99,15.35-11.98,24.98-11.98Z" style="fill:none; stroke:#000; stroke-width:22.48px;"/><path d="m866.27,862.03c-20.47,0-31.94-9.13-31.94-25.29,0-17.87,11.26-23.2,35.83-27.19,18.02-2.85,26.62-4.75,26.62-16.35,0-8.94-6.96-15.02-19.04-15.02-4.1,0-7.98,1.14-12.08,3.23,7.17,1.9,10.65,5.89,10.65,12.17,0,7.8-6.96,13.12-17.81,13.12-12.9,0-20.06-5.89-20.06-15.97,0-15.02,17.2-24.91,49.34-24.91,18.43,0,31.73,3.04,38.08,7.04,10.03,6.27,11.26,13.69,11.26,26.05v34.6c0,3.99.41,5.71,4.09,5.71,3.89,0,4.3-2.09,4.3-5.71v-10.84h13.51v11.79c0,19.39-8.6,27.57-30.71,27.57-12.08,0-20.68-3.99-26.82-12.74-6.96,8.18-19.45,12.74-35.21,12.74Zm7.78-28.71c0,5.13,4.3,8.94,10.65,8.94,7.57,0,12.69-4.75,12.69-12.93v-.57l-.21-11.6c-14.74,7.42-23.13,8.94-23.13,16.16Z" style="fill:none; stroke:#000; stroke-width:22.48px;"/><path d="m966.99,802.13c0-22.63,17.61-36.13,49.34-36.13,11.05,0,20.27,2.47,30.5,6.84,7.37-5.13,14.33-7.61,21.7-7.61,14.95,0,25.39,8.18,25.39,19.39,0,8.18-5.73,13.69-14.13,13.69-9.42,0-15.56-4.75-15.56-10.65,0-3.8,2.05-7.04,6.14-10.08-2.05-1.52-3.68-2.28-5.53-2.28-3.28,0-7.17,1.71-11.67,4.94,5.73,5.89,8.19,13.31,8.19,22.82,0,21.11-19.24,35.94-49.13,35.94-6.14,0-12.49-.95-19.04-2.85-2.46,1.14-3.89,3.04-3.89,4.56,0,4.75,4.3,4.94,13.51,4.94,14.33,0,26.61-.57,37.05-.57,25.59,0,37.46,7.04,37.46,24.53,0,20.16-19.65,30.04-59.37,30.04s-57.53-6.27-57.53-21.11c0-6.27,4.5-11.79,12.9-14.64-7.37-4.94-11.05-10.84-11.05-17.68,0-8.56,5.73-15.59,16.38-19.39-7.78-6.08-11.67-14.45-11.67-24.72Zm53.64,83.66c19.04,0,27.84-1.9,27.84-7.23s-8.39-6.46-27.64-6.46-29.28,1.14-29.28,6.66c0,5.13,9.62,7.04,29.07,7.04Zm2.66-84.04c0-15.4-2.25-22.63-8.6-22.63-7.57,0-9.83,7.42-9.83,24.15,0,15.4,2.66,22.44,9.62,22.44,6.55,0,8.8-7.8,8.8-23.96Z" style="fill:none; stroke:#000; stroke-width:22.48px;"/><path d="m1209.79,813.92c0,29.66-22.31,48.11-58.76,48.11s-58.55-18.06-58.55-48.11,21.91-48.3,58.35-48.3,58.96,18.63,58.96,48.3Zm-58.96-30.61c-11.87,0-14.95,9.51-14.95,30.61s3.07,30.61,15.36,30.61,14.95-9.51,14.95-30.61-3.07-30.61-15.36-30.61Z" style="fill:none; stroke:#000; stroke-width:22.48px;"/><path d="m1220.22,860.13v-32.89h18.02c4.3,11.6,13.51,17.49,27.84,17.49,9.42,0,13.51-2.28,13.51-7.61,0-6.46-8.6-7.23-24.57-11.98-24.57-7.23-36.85-12.36-36.85-29.28,0-17.87,16.79-30.23,45.86-30.23,12.69,0,24.16,2.28,35.21,7.04l2.87-5.32h15.15v28.33h-15.97c-5.73-8.94-15.56-13.88-27.23-13.88-8.6,0-13.1,2.85-13.1,6.85,0,6.84,7.37,7.61,21.5,11.79,10.24,3.04,20.27,5.32,28.87,10.65,6.76,4.18,10.65,11.41,10.65,20.34,0,18.63-16.38,30.61-45.04,30.61-15.15,0-28.66-3.23-38.69-8.94l-3.69,7.04h-14.33Z" style="fill:none; stroke:#000; stroke-width:22.48px;"/><path d="m327.24,817.16v-57.04c0-8.75-.2-10.84-11.26-10.84h-7.78v-18.06h60.39v18.06h-4.91c-10.44,0-11.26,1.71-11.26,10.84v98.68h-47.09l-53.44-91.46v62.37c0,9.13.82,11.03,11.26,11.03h6.14v18.06h-60.6v-18.06h6.76c10.44,0,11.46-1.9,11.46-11.03v-69.59c0-9.13-1.02-10.84-11.46-10.84h-6.76v-18.06h67.97l50.57,85.94Z" style="fill:#3a7ca5; stroke-width:0px;"/><path d="m407.29,862.03c-20.47,0-31.94-9.13-31.94-25.29,0-17.87,11.26-23.2,35.83-27.19,18.02-2.85,26.62-4.75,26.62-16.35,0-8.94-6.96-15.02-19.04-15.02-4.09,0-7.98,1.14-12.08,3.23,7.17,1.9,10.65,5.89,10.65,12.17,0,7.8-6.96,13.12-17.81,13.12-12.9,0-20.06-5.89-20.06-15.97,0-15.02,17.2-24.91,49.34-24.91,18.43,0,31.73,3.04,38.08,7.04,10.03,6.27,11.26,13.69,11.26,26.05v34.6c0,3.99.41,5.71,4.1,5.71,3.89,0,4.3-2.09,4.3-5.71v-10.84h13.51v11.79c0,19.39-8.6,27.57-30.71,27.57-12.08,0-20.68-3.99-26.82-12.74-6.96,8.18-19.45,12.74-35.21,12.74Zm32.55-134.62c5.94-5.89,10.44-9.32,16.58-9.32,6.55,0,11.46,4.56,11.46,10.65,0,4.94-3.48,8.37-10.85,11.79l-34.6,15.97h-12.08l29.48-29.09Zm-24.77,105.91c0,5.13,4.3,8.94,10.64,8.94,7.58,0,12.69-4.75,12.69-12.93v-.57l-.21-11.6c-14.74,7.42-23.13,8.94-23.13,16.16Z" style="fill:#3a7ca5; stroke-width:0px;"/><path d="m551.21,862.22c-25.79,0-33.78-9.89-33.78-33.27v-34.23c0-7.23-1.64-8.94-9.62-8.94h-3.28v-16.73h53.23v57.99c0,10.27,4.1,15.4,13.1,15.4s15.15-6.85,15.15-18.25v-29.47c0-7.23-1.43-8.94-9.42-8.94h-4.1v-16.73h53.84v64.08c0,7.23,1.64,8.94,9.62,8.94h4.3v16.73h-53.23v-13.12c-8.8,10.84-21.09,16.54-35.83,16.54Z" style="fill:#3a7ca5; stroke-width:0px;"/><path d="m647.62,786.35v-17.3h14.33v-5.13c0-25.1,13.1-36.13,45.45-36.13,23.13,0,36.44,9.32,36.44,21.87,0,8.37-7.17,14.64-17.61,14.64-9.42,0-15.76-5.32-15.76-12.17,0-4.56,2.46-8.18,7.37-10.84-2.05-.57-3.69-.95-5.32-.95-8.19,0-10.24,5.51-10.24,16.54v12.17h17.81v17.3h-17.81v46.58c0,7.42,1.64,9.13,9.62,9.13h8.6v16.73h-72.88v-16.73h4.91c7.98,0,9.42-1.71,9.42-8.94v-46.77h-14.33Z" style="fill:#3a7ca5; stroke-width:0px;"/><path d="m807.11,765.82c14.95,0,24.16,8.94,24.16,22.06,0,11.6-7.78,19.01-19.04,19.01-9.21,0-15.97-6.08-15.97-13.88,0-5.51,2.87-9.51,9.01-12.36-1.64-.38-3.07-.57-4.51-.57-10.44,0-17.61,9.51-17.61,26.62v26.43c0,7.23,1.64,8.94,9.62,8.94h6.55v16.73h-69.61v-16.73h3.48c7.98,0,9.62-1.71,9.62-8.94v-38.41c0-7.23-1.64-8.94-9.62-8.94h-3.48v-16.73h52.41v8.75c6.96-7.99,15.35-11.98,24.98-11.98Z" style="fill:#3a7ca5; stroke-width:0px;"/><path d="m866.27,862.03c-20.47,0-31.94-9.13-31.94-25.29,0-17.87,11.26-23.2,35.83-27.19,18.02-2.85,26.62-4.75,26.62-16.35,0-8.94-6.96-15.02-19.04-15.02-4.1,0-7.98,1.14-12.08,3.23,7.17,1.9,10.65,5.89,10.65,12.17,0,7.8-6.96,13.12-17.81,13.12-12.9,0-20.06-5.89-20.06-15.97,0-15.02,17.2-24.91,49.34-24.91,18.43,0,31.73,3.04,38.08,7.04,10.03,6.27,11.26,13.69,11.26,26.05v34.6c0,3.99.41,5.71,4.09,5.71,3.89,0,4.3-2.09,4.3-5.71v-10.84h13.51v11.79c0,19.39-8.6,27.57-30.71,27.57-12.08,0-20.68-3.99-26.82-12.74-6.96,8.18-19.45,12.74-35.21,12.74Zm7.78-28.71c0,5.13,4.3,8.94,10.65,8.94,7.57,0,12.69-4.75,12.69-12.93v-.57l-.21-11.6c-14.74,7.42-23.13,8.94-23.13,16.16Z" style="fill:#3a7ca5; stroke-width:0px;"/><path d="m966.99,802.13c0-22.63,17.61-36.13,49.34-36.13,11.05,0,20.27,2.47,30.5,6.84,7.37-5.13,14.33-7.61,21.7-7.61,14.95,0,25.39,8.18,25.39,19.39,0,8.18-5.73,13.69-14.13,13.69-9.42,0-15.56-4.75-15.56-10.65,0-3.8,2.05-7.04,6.14-10.08-2.05-1.52-3.68-2.28-5.53-2.28-3.28,0-7.17,1.71-11.67,4.94,5.73,5.89,8.19,13.31,8.19,22.82,0,21.11-19.24,35.94-49.13,35.94-6.14,0-12.49-.95-19.04-2.85-2.46,1.14-3.89,3.04-3.89,4.56,0,4.75,4.3,4.94,13.51,4.94,14.33,0,26.61-.57,37.05-.57,25.59,0,37.46,7.04,37.46,24.53,0,20.16-19.65,30.04-59.37,30.04s-57.53-6.27-57.53-21.11c0-6.27,4.5-11.79,12.9-14.64-7.37-4.94-11.05-10.84-11.05-17.68,0-8.56,5.73-15.59,16.38-19.39-7.78-6.08-11.67-14.45-11.67-24.72Zm53.64,83.66c19.04,0,27.84-1.9,27.84-7.23s-8.39-6.46-27.64-6.46-29.28,1.14-29.28,6.66c0,5.13,9.62,7.04,29.07,7.04Zm2.66-84.04c0-15.4-2.25-22.63-8.6-22.63-7.57,0-9.83,7.42-9.83,24.15,0,15.4,2.66,22.44,9.62,22.44,6.55,0,8.8-7.8,8.8-23.96Z" style="fill:#3a7ca5; stroke-width:0px;"/><path d="m1209.79,813.92c0,29.66-22.31,48.11-58.76,48.11s-58.55-18.06-58.55-48.11,21.91-48.3,58.35-48.3,58.96,18.63,58.96,48.3Zm-58.96-30.61c-11.87,0-14.95,9.51-14.95,30.61s3.07,30.61,15.36,30.61,14.95-9.51,14.95-30.61-3.07-30.61-15.36-30.61Z" style="fill:#3a7ca5; stroke-width:0px;"/><path d="m1220.22,860.13v-32.89h18.02c4.3,11.6,13.51,17.49,27.84,17.49,9.42,0,13.51-2.28,13.51-7.61,0-6.46-8.6-7.23-24.57-11.98-24.57-7.23-36.85-12.36-36.85-29.28,0-17.87,16.79-30.23,45.86-30.23,12.69,0,24.16,2.28,35.21,7.04l2.87-5.32h15.15v28.33h-15.97c-5.73-8.94-15.56-13.88-27.23-13.88-8.6,0-13.1,2.85-13.1,6.85,0,6.84,7.37,7.61,21.5,11.79,10.24,3.04,20.27,5.32,28.87,10.65,6.76,4.18,10.65,11.41,10.65,20.34,0,18.63-16.38,30.61-45.04,30.61-15.15,0-28.66-3.23-38.69-8.94l-3.69,7.04h-14.33Z" style="fill:#3a7ca5; stroke-width:0px;"/></svg>