<?xml version="1.0" encoding="UTF-8"?><svg id="a" xmlns="http://www.w3.org/2000/svg" xmlns:xlink="http://www.w3.org/1999/xlink" viewBox="0 0 1536 1024"><defs><filter id="b" filterUnits="userSpaceOnUse"><feOffset dx="10.4" dy="10.4"/><feGaussianBlur result="c" stdDeviation="0"/><feFlood flood-color="#fff" flood-opacity="1"/><feComposite in2="c" operator="in"/><feComposite in="SourceGraphic"/></filter></defs><g style="filter:url(#b);"><path d="m250.56,277.54c-1.22,8.32-1.62,15.21-1.62,30.02v108.7c0,13.99.41,21.5,1.62,30.01h-44.62c1.22-7.91,1.62-16.43,1.62-30.01v-108.7c0-15.21-.41-21.09-1.62-30.02h44.62Z" style="fill:#f45b69; stroke:#fff; stroke-linecap:round; stroke-linejoin:round; stroke-width:10.4px;"/><path d="m273.88,446.27c1.22-9.53,1.62-18.05,1.62-30.62v-62.46c0-13.99-.41-22.51-1.62-30.62h40.36v8.52c0,1.22-.2,4.26-.2,5.68,12.78-12.17,25.15-17.24,41.78-17.24,13.99,0,25.15,3.85,32.65,11.36,8.11,8.11,11.56,18.05,11.56,34.07v50.9c0,11.76.61,21.9,1.62,30.42h-42.18c1.22-9.73,1.62-18.25,1.62-30.62v-41.57c0-8.11-.81-11.56-3.24-15.01-2.64-3.65-7.3-5.68-13.39-5.68-11.36,0-21.5,7.1-30.22,21.29v40.97c0,11.56.41,20.08,1.62,30.62h-41.98Z" style="fill:#f45b69; stroke:#fff; stroke-linecap:round; stroke-linejoin:round; stroke-width:10.4px;"/><path d="m458.43,322.56c.41,4.87,1.42,9.13,3.85,17.44l18.86,63.07c.2.41.41,1.22.81,2.23.61,2.03.61,2.23,1.62,5.68.61-1.83.81-2.84,1.01-3.65.2-.41.41-1.01.61-2.03.41-1.01.61-1.83.81-2.43l18.86-62.87c2.23-7.5,3.45-12.98,3.85-17.44h45.02c-4.06,9.13-5.68,12.98-8.31,19.67l-34.07,87c-3.45,8.72-4.46,11.97-5.48,17.04h-44.41c-1.01-5.07-2.03-8.31-5.48-17.04l-34.07-87c-1.22-2.84-4.06-9.33-8.52-19.67h45.02Z" style="fill:#f45b69; stroke:#fff; stroke-linecap:round; stroke-linejoin:round; stroke-width:10.4px;"/><path d="m597.75,395.77c2.03,16.43,11.56,25.15,27.58,25.15,8.11,0,15.21-2.64,20.48-7.5,3.04-2.84,4.46-5.07,6.08-10.34l35.29,9.94c-4.66,10.55-7.71,15.21-13.39,20.89-11.56,11.36-27.78,17.24-47.86,17.24s-35.49-5.68-47.05-17.24c-11.97-12.17-18.46-29.41-18.46-49.48,0-40.16,25.76-66.72,64.49-66.72,31.64,0,53.74,17.24,60.84,47.46,1.62,6.49,2.43,15.01,3.04,26.57,0,.81,0,2.03.2,4.06h-91.26Zm52.73-27.99c-2.84-12.98-11.56-19.87-25.55-19.87s-23.12,6.49-26.57,19.87h52.12Z" style="fill:#f45b69; stroke:#fff; stroke-linecap:round; stroke-linejoin:round; stroke-width:10.4px;"/><path d="m705.23,446.27c1.22-9.53,1.62-18.05,1.62-30.62v-62.46c0-13.99-.41-22.51-1.62-30.62h40.36v8.52c0,1.22-.2,4.26-.2,5.68,12.78-12.17,25.15-17.24,41.78-17.24,13.99,0,25.15,3.85,32.65,11.36,8.11,8.11,11.56,18.05,11.56,34.07v50.9c0,11.76.61,21.9,1.62,30.42h-42.18c1.22-9.73,1.62-18.25,1.62-30.62v-41.57c0-8.11-.81-11.56-3.24-15.01-2.64-3.65-7.3-5.68-13.39-5.68-11.36,0-21.5,7.1-30.22,21.29v40.97c0,11.56.41,20.08,1.62,30.62h-41.98Z" style="fill:#f45b69; stroke:#fff; stroke-linecap:round; stroke-linejoin:round; stroke-width:10.4px;"/><path d="m870.11,318.3c0-10.14-.41-18.25-1.62-27.78h41.37c-1.01,8.32-1.62,18.05-1.62,27.78v4.26h7.3c8.92,0,13.59-.2,19.88-1.01v33.67c-6.08-.81-11.36-1.22-18.66-1.22h-8.52v51.92c0,5.68,1.01,8.52,3.65,10.34,2.23,1.42,5.48,2.23,9.33,2.23,5.27,0,9.13-1.01,14.2-3.65l3.04,30.83c-9.13,2.84-17.04,4.06-27.99,4.06-13.79,0-23.32-2.23-29.81-7.1-7.71-5.88-10.55-12.78-10.55-26.57v-62.06h-7.71c-6.49,0-11.76.41-17.64,1.22v-33.87c5.88.81,10.95,1.22,18.05,1.22h7.3v-4.26Z" style="fill:#f45b69; stroke:#fff; stroke-linecap:round; stroke-linejoin:round; stroke-width:10.4px;"/><path d="m945.95,384.21c0-40.56,25.96-66.32,66.93-66.32s66.92,25.76,66.92,65.91-26.77,67.13-67.13,67.13-66.72-25.96-66.72-66.72Zm38.74-.2c0,22.51,10.55,36.1,28.19,36.1s27.78-13.18,27.78-35.69-10.34-36.1-27.58-36.1-28.39,13.39-28.39,35.69Z" style="fill:#f45b69; stroke:#fff; stroke-linecap:round; stroke-linejoin:round; stroke-width:10.4px;"/><path d="m1187.49,359.07c-9.33-2.84-14.4-3.85-20.69-3.85-10.34,0-18.25,3.65-24.13,10.95-3.85,4.87-5.27,9.13-6.08,18.05v31.64c0,12.98.41,20.69,1.62,30.42h-41.98c1.22-10.14,1.62-17.44,1.62-30.62v-62.46c0-14.8-.41-21.9-1.62-30.62h40.36v16.02c9.94-12.98,22.11-18.46,40.56-18.46,6.49,0,10.55.41,20.08,2.43l-9.73,36.5Z" style="fill:#f45b69; stroke:#fff; stroke-linecap:round; stroke-linejoin:round; stroke-width:10.4px;"/><path d="m1212.23,349.74c-8.72-20.28-9.53-22.11-12.17-27.18h44.01c1.01,6.49,3.65,15.21,7.91,26.16l18.66,46.85,18.05-46.04c5.68-13.99,7.5-19.87,8.72-26.97h44.01q-5.07,10.55-12.17,27.18l-46.44,107.28c-8.11,19.06-22.71,27.78-45.83,27.78-8.92,0-16.63-1.01-27.78-3.45l4.46-32.25c6.69,3.45,10.55,4.46,15.82,4.46,7.71,0,13.39-3.45,16.43-9.53l4.26-8.72-37.92-85.58Z" style="fill:#f45b69; stroke:#fff; stroke-linecap:round; stroke-linejoin:round; stroke-width:10.4px;"/><path d="m446.77,527.71c-3.85-18.46-14.6-27.58-32.04-27.58-24.74,0-39.14,19.47-39.14,52.93s15.01,53.13,40.16,53.13c11.15,0,20.69-4.66,26.57-12.78,3.45-4.87,4.87-8.92,6.08-17.44l42.18,6.29c-3.85,17.24-8.31,27.18-16.83,37.11-12.57,14.4-32.25,22.11-56.79,22.11s-45.63-7.71-60.03-22.31c-15.01-15.21-23.53-38.94-23.53-66.11s8.52-50.9,24.54-66.72c13.99-13.59,34.48-21.09,58.21-21.09,26.16,0,46.65,8.92,59.83,26.57,6.49,8.31,9.94,15.82,12.57,27.78l-41.78,8.11Z" style="fill:#f45b69; stroke:#fff; stroke-linecap:round; stroke-linejoin:round; stroke-width:10.4px;"/><path d="m502.74,575.57c0-40.56,25.96-66.32,66.93-66.32s66.93,25.76,66.93,65.91-26.77,67.13-67.13,67.13-66.72-25.96-66.72-66.72Zm38.74-.2c0,22.51,10.55,36.1,28.19,36.1s27.78-13.18,27.78-35.69-10.34-36.1-27.58-36.1-28.39,13.39-28.39,35.69Z" style="fill:#f45b69; stroke:#fff; stroke-linecap:round; stroke-linejoin:round; stroke-width:10.4px;"/><path d="m653.01,637.63c1.22-9.53,1.62-18.05,1.62-30.62v-62.46c0-13.99-.41-22.51-1.62-30.62h40.36v8.52c0,1.22-.2,4.26-.2,5.68,12.78-12.17,25.15-17.24,41.78-17.24,13.99,0,25.15,3.85,32.65,11.36,8.11,8.11,11.56,18.05,11.56,34.07v50.9c0,11.76.61,21.9,1.62,30.42h-42.18c1.22-9.73,1.62-18.25,1.62-30.62v-41.57c0-8.11-.81-11.56-3.24-15.01-2.64-3.65-7.3-5.68-13.39-5.68-11.36,0-21.5,7.1-30.22,21.29v40.97c0,11.56.41,20.08,1.62,30.62h-41.98Z" style="fill:#f45b69; stroke:#fff; stroke-linecap:round; stroke-linejoin:round; stroke-width:10.4px;"/><path d="m817.89,509.66c0-10.14-.41-18.25-1.62-27.78h41.37c-1.01,8.31-1.62,18.05-1.62,27.78v4.26h7.3c8.92,0,13.59-.2,19.88-1.01v33.67c-6.08-.81-11.36-1.22-18.66-1.22h-8.52v51.92c0,5.68,1.01,8.52,3.65,10.34,2.23,1.42,5.48,2.23,9.33,2.23,5.27,0,9.13-1.01,14.2-3.65l3.04,30.83c-9.13,2.84-17.04,4.06-27.99,4.06-13.79,0-23.32-2.23-29.81-7.1-7.71-5.88-10.55-12.78-10.55-26.57v-62.06h-7.71c-6.49,0-11.76.41-17.64,1.22v-33.87c5.88.81,10.95,1.22,18.05,1.22h7.3v-4.26Z" style="fill:#f45b69; stroke:#fff; stroke-linecap:round; stroke-linejoin:round; stroke-width:10.4px;"/><path d="m990.27,550.43c-9.33-2.84-14.4-3.85-20.69-3.85-10.34,0-18.25,3.65-24.13,10.95-3.85,4.87-5.27,9.13-6.08,18.05v31.64c0,12.98.41,20.69,1.62,30.42h-41.98c1.22-10.14,1.62-17.44,1.62-30.62v-62.46c0-14.8-.41-21.9-1.62-30.62h40.36v16.02c9.94-12.98,22.11-18.46,40.56-18.46,6.49,0,10.55.41,20.08,2.43l-9.73,36.5Z" style="fill:#f45b69; stroke:#fff; stroke-linecap:round; stroke-linejoin:round; stroke-width:10.4px;"/><path d="m1006.9,575.57c0-40.56,25.96-66.32,66.93-66.32s66.93,25.76,66.93,65.91-26.77,67.13-67.13,67.13-66.72-25.96-66.72-66.72Zm38.74-.2c0,22.51,10.55,36.1,28.19,36.1s27.78-13.18,27.78-35.69-10.34-36.1-27.58-36.1-28.39,13.39-28.39,35.69Z" style="fill:#f45b69; stroke:#fff; stroke-linecap:round; stroke-linejoin:round; stroke-width:10.4px;"/><path d="m1199.56,468.9c-1.22,8.52-1.62,16.83-1.62,30.62v107.49c0,12.17.41,19.88,1.62,30.62h-42.39c1.22-9.13,1.62-16.02,1.62-30.62v-107.49c0-14.4-.41-22.92-1.62-30.62h42.39Z" style="fill:#f45b69; stroke:#fff; stroke-linecap:round; stroke-linejoin:round; stroke-width:10.4px;"/></g></svg>