<?xml version="1.0" encoding="UTF-8"?><svg id="a" xmlns="http://www.w3.org/2000/svg" xmlns:xlink="http://www.w3.org/1999/xlink" viewBox="0 0 1536 1024"><defs><filter id="b" filterUnits="userSpaceOnUse"><feOffset dx="10.13" dy="10.13"/><feGaussianBlur result="c" stdDeviation="0"/><feFlood flood-color="#3a7ca5" flood-opacity="1"/><feComposite in2="c" operator="in"/><feComposite in="SourceGraphic"/></filter></defs><g style="filter:url(#b);"><path d="m114,716.72l22.22-26.88h76.17l5.6,27.26-26.51,81.77-21.28,22.96h-76.92l-5.23-25.39,25.95-79.72Zm38.46,65.72l17.36-53.58h-15.31l-17.36,53.58h15.31Z" style="fill:#f45b69; stroke-width:0px;"/><path d="m301.44,777.39l-5.97,18.86-21.66,25.58h-78.6l12.7-39.21h42.01l-26.32-48.35,6.16-18.86,21.66-25.58h79.35l-12.88,39.21h-41.82l25.39,48.36Z" style="fill:#f45b69; stroke-width:0px;"/><path d="m470.96,689.83h46.67l-75.61,132h-61.98l10.27-132h46.68l-6.91,73.37,40.89-73.37Z" style="fill:#f45b69; stroke-width:0px;"/><path d="m580.74,689.83l-42.94,132h-44.25l30.25-93.16h-10.46l12.7-38.83h54.7Z" style="fill:#f45b69; stroke-width:0px;"/><path d="m658.41,821.83h-44.43l6.72-20.72-10.64-30.62-16.62,51.34h-44.43l42.94-132h33.23l16.43,46.49,15.12-46.49h44.62l-42.94,132Z" style="fill:#f45b69; stroke-width:0px;"/><path d="m726.92,782.43h15.31l9.9-30.99h44.43l-14.56,45-21.66,25.39h-76.92l-6.35-22.96,28-86.07,21.28-22.96h90.36l-12.88,39.39h-59.74l-17.18,53.21Z" style="fill:#f45b69; stroke-width:0px;"/><path d="m908.21,821.83h-46.67l.37-12.32h-26.88l-7.47,12.32h-46.67l53.21-93.16h-10.27l12.7-38.83h82.15l-10.46,132Zm-43.13-45.37l3.17-27.82-14.75,27.82h11.58Z" style="fill:#f45b69; stroke-width:0px;"/><path d="m947.79,728.66h-18.11l12.7-38.83h102.68l-12.88,39.21h-40.14l-17.36,53.58h27.26l-12.7,39.21h-58.44l-4.85-25.58,21.84-67.58Z" style="fill:#f45b69; stroke-width:0px;"/><path d="m1110.96,689.83l-42.94,132h-44.25l30.25-93.16h-10.46l12.7-38.83h54.7Z" style="fill:#f45b69; stroke-width:0px;"/><path d="m1200.02,689.83h46.67l-75.61,132h-61.98l10.27-132h46.68l-6.91,73.37,40.89-73.37Z" style="fill:#f45b69; stroke-width:0px;"/><path d="m1245.01,716.72l22.22-26.88h76.17l5.6,27.26-26.51,81.77-21.28,22.96h-76.92l-5.23-25.39,25.95-79.72Zm38.46,65.72l17.36-53.58h-15.31l-17.36,53.58h15.31Z" style="fill:#f45b69; stroke-width:0px;"/><path d="m1432.46,777.39l-5.97,18.86-21.66,25.58h-78.6l12.7-39.21h42.01l-26.32-48.35,6.16-18.86,21.66-25.58h79.35l-12.88,39.21h-41.82l25.39,48.36Z" style="fill:#f45b69; stroke-width:0px;"/></g></svg>