<?xml version="1.0" encoding="UTF-8"?><svg id="a" xmlns="http://www.w3.org/2000/svg" xmlns:xlink="http://www.w3.org/1999/xlink" viewBox="0 0 1536 1024"><defs><filter id="b" filterUnits="userSpaceOnUse"><feOffset dx="7.8" dy="7.8"/><feGaussianBlur result="c" stdDeviation="0"/><feFlood flood-color="#000" flood-opacity="1"/><feComposite in2="c" operator="in"/><feComposite in="SourceGraphic"/></filter><filter id="d" filterUnits="userSpaceOnUse"><feOffset dx="7.8" dy="7.8"/><feGaussianBlur result="e" stdDeviation="0"/><feFlood flood-color="#000" flood-opacity="1"/><feComposite in2="e" operator="in"/><feComposite in="SourceGraphic"/></filter><filter id="f" filterUnits="userSpaceOnUse"><feOffset dx="7.8" dy="7.8"/><feGaussianBlur result="g" stdDeviation="0"/><feFlood flood-color="#000" flood-opacity="1"/><feComposite in2="g" operator="in"/><feComposite in="SourceGraphic"/></filter><filter id="h" filterUnits="userSpaceOnUse"><feOffset dx="12.69" dy="12.69"/><feGaussianBlur result="i" stdDeviation="0"/><feFlood flood-color="#000" flood-opacity="1"/><feComposite in2="i" operator="in"/><feComposite in="SourceGraphic"/></filter><filter id="j" filterUnits="userSpaceOnUse"><feOffset dx="12.69" dy="12.69"/><feGaussianBlur result="k" stdDeviation="0"/><feFlood flood-color="#000" flood-opacity="1"/><feComposite in2="k" operator="in"/><feComposite in="SourceGraphic"/></filter></defs><g style="filter:url(#b);"><path d="m325.11,614.48c-11.69,7.26-23.69,12.04-35.98,14.37-12.3,2.32-24.15,2.38-35.54.16-11.4-2.22-21.94-6.59-31.64-13.12-9.69-6.53-17.81-15.06-24.35-25.61-7.02-11.31-11.45-22.99-13.29-35.06-1.84-12.06-1.31-23.78,1.59-35.13,2.91-11.36,8.11-22.06,15.62-32.1,7.51-10.04,17.11-18.68,28.8-25.94,11.69-7.25,23.69-12.08,36.01-14.48,12.32-2.4,24.14-2.54,35.48-.42,11.34,2.12,21.85,6.39,31.53,12.79,9.68,6.41,17.73,14.78,24.16,25.13,6.72,10.83,11.02,22.3,12.89,34.41,1.87,12.11,1.41,23.98-1.4,35.61-2.81,11.63-7.9,22.62-15.28,32.98-7.38,10.35-16.92,19.16-28.61,26.41Zm-5.98-21.18c4.02-2.5,6.95-6.13,8.76-10.91,1.81-4.77,2.61-10.18,2.38-16.21-.23-6.03-1.46-12.4-3.69-19.11-2.24-6.71-5.32-13.22-9.24-19.55-5.83-9.39-12.01-17.8-18.54-25.23-6.53-7.43-13.31-13.27-20.34-17.54-7.03-4.26-14.19-6.66-21.48-7.18-7.29-.52-14.58,1.48-21.86,6-3.55,2.2-6.15,5.61-7.8,10.21-1.65,4.61-2.37,9.87-2.16,15.77.21,5.91,1.35,12.17,3.4,18.79,2.05,6.63,5.04,13.1,8.97,19.42,5.89,9.49,12.33,17.9,19.34,25.23,7.01,7.33,14.11,13.11,21.31,17.34,7.2,4.23,14.32,6.71,21.35,7.46,7.03.75,13.57-.75,19.61-4.5Z" style="fill:#3a7ca5; stroke-width:0px;"/></g><g style="filter:url(#d);"><path d="m360.47,574.95c-12.68,0-24.4-2.08-35.16-6.24-10.76-4.16-20.06-9.87-27.91-17.15-7.85-7.27-13.98-15.82-18.4-25.65-4.42-9.82-6.63-20.45-6.63-31.88,0-12.26,2.21-23.57,6.63-33.91,4.42-10.34,10.52-19.25,18.32-26.74,7.79-7.48,17.07-13.33,27.83-17.54,10.76-4.21,22.47-6.31,35.16-6.31s24.42,2.05,35.23,6.16c10.81,4.11,20.14,9.74,27.98,16.92,7.85,7.17,14,15.62,18.47,25.33,4.47,9.72,6.7,20.19,6.7,31.41s-2.21,22.82-6.63,33.21c-4.42,10.39-10.55,19.46-18.4,27.21-7.85,7.74-17.18,13.88-27.98,18.4-10.81,4.52-22.55,6.78-35.23,6.78Zm5.61-19.49c4.37,0,8.42-1.43,12.16-4.29,3.74-2.86,6.99-6.7,9.74-11.54,2.75-4.83,4.88-10.42,6.39-16.76,1.51-6.34,2.26-12.94,2.26-19.8,0-10.18-.76-19.77-2.26-28.76-1.51-8.99-3.98-16.86-7.41-23.62-3.43-6.75-7.87-12.11-13.33-16.06-5.46-3.95-12.14-5.92-20.03-5.92-3.85,0-7.54,1.4-11.07,4.21-3.53,2.81-6.65,6.58-9.35,11.3-2.7,4.73-4.86,10.19-6.47,16.37-1.61,6.18-2.42,12.71-2.42,19.57,0,10.29.96,20.01,2.88,29.15,1.92,9.15,4.68,17.12,8.26,23.93,3.59,6.81,7.95,12.21,13.1,16.21,5.14,4,10.99,6,17.54,6Z" style="fill:#f2e863; stroke-width:0px;"/></g><g style="filter:url(#f);"><path d="m329.24,683.19c-13.37-3.24-25.2-8.43-35.48-15.56s-18.63-15.54-25.05-25.22c-6.42-9.68-10.7-20.26-12.85-31.75-2.15-11.49-1.76-23.26,1.16-35.32,3.13-12.93,8.35-24.29,15.65-34.07,7.3-9.78,16.02-17.62,26.15-23.52,10.13-5.9,21.41-9.69,33.83-11.38,12.42-1.69,25.32-.92,38.69,2.33,13.37,3.24,25.23,8.41,35.59,15.5,10.35,7.09,18.75,15.42,25.19,24.99,6.44,9.57,10.78,20.05,13.01,31.44,2.23,11.39,1.91,23.01-.96,34.84-3,12.39-8.16,23.5-15.47,33.33-7.32,9.83-16.1,17.83-26.35,23.99-10.26,6.16-21.66,10.24-34.22,12.25-12.56,2-25.52,1.39-38.89-1.85Zm10.9-19.12c4.6,1.12,9.24.65,13.92-1.41,4.68-2.06,9.08-5.28,13.22-9.68,4.14-4.39,7.81-9.74,11.02-16.04,3.21-6.3,5.69-13.07,7.44-20.3,2.6-10.74,4.26-21.05,4.97-30.91.71-9.87.12-18.8-1.77-26.8-1.89-8-5.21-14.78-9.95-20.34-4.75-5.56-11.28-9.35-19.61-11.37-4.06-.98-8.31-.45-12.75,1.61-4.44,2.06-8.7,5.23-12.75,9.53-4.06,4.3-7.73,9.5-11.01,15.61-3.28,6.11-5.8,12.78-7.55,20.02-2.63,10.85-4.1,21.35-4.41,31.48-.31,10.14.56,19.26,2.6,27.35,2.04,8.1,5.26,14.91,9.67,20.45,4.4,5.54,10.06,9.14,16.96,10.81Z" style="fill:#f45b69; stroke-width:0px;"/></g><path d="m387.85,555.26s12.97-15.16,13.19-37.64l38.04,28.53s-17.72,29.18-49.71,35.02l-1.51-25.91Z" style="stroke-width:0px;"/><path d="m382.23,545.75s12.97-15.16,13.19-37.64l38.04,28.53s-17.72,29.18-49.71,35.02l-1.51-25.91Z" style="fill:#f2e863; stroke-width:0px;"/><g style="filter:url(#h);"><path d="m500.81,557.12l50.53,105.69,46.92-105.69h24.03l-68.81,155.21h-17.48l-73.99-155.21h38.8Z" style="fill:#fff; stroke-width:0px;"/><path d="m692.56,712.67c-8.2,0-15.9-1.52-23.12-4.57-7.22-3.05-13.5-7.14-18.84-12.29-5.34-5.15-9.57-11.13-12.69-17.93-3.12-6.8-4.68-14-4.68-21.6,0-9.1,1.43-17.54,4.29-25.32,2.86-7.78,6.92-14.53,12.18-20.25,5.26-5.71,11.56-10.17,18.89-13.37,7.33-3.2,15.51-4.79,24.53-4.79,8.05,0,15.41,1.28,22.11,3.83,6.69,2.56,12.43,6.05,17.2,10.49,4.77,4.44,8.48,9.66,11.11,15.68,2.63,6.02,3.95,12.45,3.95,19.29h-79.97c.3,6.39,1.26,12.48,2.88,18.27,1.62,5.79,3.78,10.88,6.49,15.28,2.71,4.4,5.88,7.9,9.53,10.49,3.65,2.59,7.69,3.89,12.13,3.89,3.84,0,7.61-.66,11.34-1.97,3.72-1.31,7.16-3.12,10.32-5.41,3.16-2.29,5.9-4.96,8.23-8.01,2.33-3.05,4.02-6.33,5.08-9.87l17.82,2.82c-1.8,6.24-4.68,12.11-8.63,17.6-3.95,5.49-8.57,10.3-13.87,14.44-5.3,4.14-11.07,7.39-17.31,9.76-6.24,2.37-12.56,3.55-18.95,3.55Zm14.78-82.79c-.3-3.38-1.03-6.49-2.2-9.31-1.17-2.82-2.65-5.25-4.46-7.28-1.8-2.03-3.91-3.59-6.32-4.68-2.41-1.09-5-1.64-7.78-1.64-2.18,0-4.33.55-6.43,1.64-2.11,1.09-4,2.63-5.7,4.62-1.69,1.99-3.12,4.4-4.29,7.22-1.17,2.82-1.94,5.96-2.31,9.42h39.48Z" style="fill:#fff; stroke-width:0px;"/><path d="m848.1,631.23c0-2.93-.32-5.54-.96-7.84-.64-2.29-1.5-4.21-2.59-5.75-1.09-1.54-2.33-2.71-3.72-3.5-1.39-.79-2.84-1.18-4.34-1.18s-3.23.3-5.19.9c-1.96.6-4,1.45-6.15,2.54-2.14,1.09-4.34,2.42-6.6,4s-4.4,3.35-6.43,5.3v84.37h-35.19v-105.01l24.7-12.86h10.49v11.73c5.41-3.91,11.2-6.79,17.37-8.63,6.17-1.84,12.29-2.76,18.39-2.76,4.74,0,9.23.92,13.48,2.76,4.25,1.84,7.97,4.34,11.17,7.5,3.2,3.16,5.73,6.86,7.61,11.11,1.88,4.25,2.82,8.78,2.82,13.59v82.57h-34.85v-78.84Z" style="fill:#fff; stroke-width:0px;"/><path d="m987.63,631.23c0-2.93-.32-5.54-.96-7.84-.64-2.29-1.51-4.21-2.59-5.75-1.09-1.54-2.33-2.71-3.72-3.5-1.39-.79-2.84-1.18-4.34-1.18s-3.23.3-5.19.9c-1.96.6-4,1.45-6.15,2.54-2.14,1.09-4.34,2.42-6.6,4s-4.4,3.35-6.43,5.3v84.37h-35.19v-105.01l24.7-12.86h10.49v11.73c5.41-3.91,11.2-6.79,17.37-8.63,6.17-1.84,12.29-2.76,18.39-2.76,4.74,0,9.23.92,13.48,2.76,4.25,1.84,7.97,4.34,11.17,7.5,3.2,3.16,5.73,6.86,7.61,11.11,1.88,4.25,2.82,8.78,2.82,13.59v82.57h-34.85v-78.84Z" style="fill:#fff; stroke-width:0px;"/></g><g style="filter:url(#j);"><path d="m396.49,710.5h55.5c14.29,0,27.41,1.67,39.37,5.02,11.96,3.35,22.26,8.22,30.91,14.61,8.65,6.39,15.36,14.25,20.13,23.58,4.77,9.33,7.16,19.96,7.16,31.92,0,10.75-2.03,20.85-6.09,30.29-4.06,9.44-9.98,17.69-17.77,24.76-7.78,7.07-17.35,12.63-28.71,16.69-11.36,4.06-24.36,6.09-39.03,6.09h-61.47v-152.95Zm37.56,137.27h19.97c7.37,0,14.31-1.35,20.81-4.06,6.5-2.71,12.2-6.69,17.09-11.96,4.89-5.26,8.74-11.73,11.56-19.4,2.82-7.67,4.23-16.47,4.23-26.39,0-8.57-1.34-16.52-4-23.86-2.67-7.33-6.37-13.67-11.11-19.01-4.74-5.34-10.4-9.53-16.98-12.58-6.58-3.05-13.78-4.57-21.6-4.57h-19.97v121.82Z" style="fill:#f45b69; stroke-width:0px;"/><path d="m581.36,707.68c0-2.33.49-4.55,1.47-6.66.98-2.1,2.33-3.91,4.06-5.41,1.73-1.5,3.72-2.71,5.98-3.61s4.7-1.35,7.33-1.35,5.09.45,7.39,1.35c2.29.9,4.29,2.11,5.98,3.61,1.69,1.5,3.03,3.31,4,5.41.98,2.11,1.47,4.33,1.47,6.66s-.49,4.53-1.47,6.6c-.98,2.07-2.31,3.85-4,5.36-1.69,1.5-3.69,2.71-5.98,3.61-2.29.9-4.76,1.35-7.39,1.35s-5.08-.45-7.33-1.35-4.25-2.1-5.98-3.61c-1.73-1.5-3.08-3.29-4.06-5.36-.98-2.07-1.47-4.27-1.47-6.6Zm1.47,50.76l24.59-12.86h10.49v117.87h-35.08v-105.01Z" style="fill:#f45b69; stroke-width:0px;"/><path d="m641.03,777.27c1.2-4.81,3.31-9.19,6.32-13.14,3.01-3.95,6.75-7.29,11.22-10.04,4.47-2.74,9.59-4.87,15.34-6.37,5.75-1.5,11.97-2.26,18.67-2.26,8.27,0,15.41.75,21.43,2.26,6.02,1.5,10.96,3.63,14.83,6.37,3.87,2.75,6.73,6.05,8.57,9.93,1.84,3.87,2.76,8.22,2.76,13.03v66.1c0,4.74,1.47,8.76,4.4,12.07,2.93,3.31,7.07,6.05,12.41,8.23h-41.51c-1.2,0-2.37-.34-3.5-1.02-1.13-.68-2.14-1.56-3.05-2.65-.9-1.09-1.69-2.27-2.37-3.55-.68-1.28-1.17-2.52-1.47-3.72-2.11,1.96-4.1,3.74-5.98,5.36-1.88,1.62-3.95,2.99-6.2,4.12s-4.78,2.01-7.56,2.65c-2.78.64-6.13.96-10.04.96-5.34,0-10.13-.75-14.38-2.26-4.25-1.5-7.86-3.59-10.83-6.26-2.97-2.67-5.25-5.83-6.82-9.47-1.58-3.65-2.37-7.61-2.37-11.9,0-6.62,1.84-12.29,5.53-17.03,3.68-4.74,8.55-8.87,14.61-12.41,6.05-3.53,12.92-6.62,20.59-9.25,7.67-2.63,15.49-5.15,23.46-7.56v-11.28c0-3.68-.38-6.82-1.13-9.42-.75-2.59-1.8-4.7-3.16-6.32-1.35-1.62-2.99-2.78-4.91-3.5-1.92-.71-4.04-1.07-6.37-1.07-2.78,0-5.26.53-7.44,1.58-2.18,1.05-4.06,2.48-5.64,4.29-1.58,1.8-2.86,3.87-3.84,6.2-.98,2.33-1.69,4.78-2.14,7.33h-29.44Zm64.07,26.62c-3.38,1.43-6.81,3.16-10.26,5.19-3.46,2.03-6.56,4.31-9.31,6.82-2.75,2.52-5,5.3-6.77,8.35-1.77,3.05-2.65,6.3-2.65,9.76,0,3.84,1,6.84,2.99,9.02,1.99,2.18,4.68,3.27,8.06,3.27,2.86,0,5.68-.85,8.46-2.54,2.78-1.69,5.94-3.89,9.48-6.6v-33.28Z" style="fill:#f45b69; stroke-width:0px;"/><path d="m897.31,755.95v12.07h-21.09c1.8,2.86,3.31,5.94,4.51,9.25,1.2,3.31,1.8,6.88,1.8,10.72,0,6.39-1.45,12.09-4.34,17.09-2.9,5-6.96,9.23-12.18,12.69-5.23,3.46-11.49,6.09-18.78,7.9-7.29,1.8-15.34,2.71-24.14,2.71-2.56,0-5.17-.17-7.84-.51-2.67-.34-5.1-.7-7.28-1.07-1.58,1.13-2.82,2.73-3.72,4.79-.9,2.07-1.35,4.08-1.35,6.04,0,.6.17,1.15.51,1.63.34.49,1.11.96,2.31,1.41,1.2.45,2.95.87,5.24,1.24,2.29.38,5.43.75,9.42,1.13,3.98.38,8.93.73,14.83,1.07,5.9.34,13.03.66,21.38.96,7.67.3,14.1,1.17,19.29,2.59,5.19,1.43,9.38,3.29,12.58,5.58,3.2,2.29,5.47,4.98,6.82,8.06,1.35,3.08,2.03,6.43,2.03,10.04,0,6.47-1.71,12.43-5.13,17.88-3.42,5.45-8.37,10.17-14.83,14.16-6.47,3.99-14.33,7.09-23.57,9.31-9.25,2.22-19.74,3.33-31.47,3.33-10.53,0-19.72-.68-27.58-2.03-7.86-1.35-14.42-3.18-19.68-5.47-5.26-2.29-9.21-5-11.84-8.12-2.63-3.12-3.95-6.45-3.95-9.98,0-2.56.75-5.15,2.26-7.78,1.5-2.63,3.48-5.25,5.92-7.84,2.44-2.59,5.19-5.15,8.23-7.67,3.05-2.52,6.15-4.94,9.31-7.28-4.51-1.5-8.1-3.38-10.77-5.64-2.67-2.26-4-4.81-4-7.67,0-2.03.62-4.17,1.86-6.43s2.89-4.49,4.96-6.71c2.07-2.22,4.51-4.3,7.33-6.26,2.82-1.96,5.81-3.65,8.97-5.08-3.76-1.73-7.16-3.63-10.21-5.7-3.05-2.07-5.62-4.42-7.73-7.05-2.11-2.63-3.72-5.6-4.85-8.91-1.13-3.31-1.69-7.03-1.69-11.17,0-6.54,1.45-12.5,4.34-17.88,2.89-5.38,6.9-9.96,12.01-13.76,5.11-3.8,11.11-6.73,17.99-8.8,6.88-2.07,14.34-3.1,22.39-3.1,3.83,0,7.59.28,11.28.85,3.68.56,7.12,1.34,10.32,2.31,3.2.98,6.07,2.07,8.63,3.27,2.56,1.2,4.59,2.48,6.09,3.83h35.42Zm-45.01,109.98c-5.19,0-10.4-.08-15.62-.23-5.23-.15-10.17-.36-14.83-.62-4.66-.26-8.91-.56-12.75-.9-3.84-.34-6.92-.66-9.25-.96-1.28.98-2.39,2.16-3.33,3.55-.94,1.39-1.73,2.84-2.37,4.34-.64,1.5-1.13,3.05-1.47,4.62s-.51,3.08-.51,4.51c0,2.18.81,4.36,2.43,6.54,1.62,2.18,4.06,4.15,7.33,5.92,3.27,1.77,7.37,3.21,12.29,4.34,4.92,1.13,10.66,1.69,17.2,1.69,7.07,0,13.4-.64,19.01-1.92,5.6-1.28,10.34-2.88,14.21-4.79,3.87-1.92,6.84-4.02,8.91-6.32,2.07-2.29,3.1-4.46,3.1-6.49,0-4.29-2.18-7.58-6.54-9.87-4.36-2.29-10.3-3.44-17.82-3.44Zm-25.15-46.7c2.56,0,5.04-.71,7.44-2.14,2.41-1.43,4.55-3.36,6.43-5.81,1.88-2.44,3.38-5.23,4.51-8.35,1.13-3.12,1.69-6.37,1.69-9.76,0-4.96-.64-9.61-1.92-13.93-1.28-4.32-3.03-8.12-5.25-11.39-2.22-3.27-4.79-5.85-7.73-7.73-2.93-1.88-6.05-2.82-9.36-2.82s-5.87.75-8.12,2.26c-2.26,1.5-4.12,3.52-5.58,6.03-1.47,2.52-2.54,5.47-3.21,8.85-.68,3.38-1.02,6.96-1.02,10.72,0,4.59.53,8.93,1.58,13.03,1.05,4.1,2.56,7.71,4.51,10.83,1.95,3.12,4.29,5.6,6.99,7.45,2.71,1.84,5.71,2.76,9.02,2.76Z" style="fill:#f45b69; stroke-width:0px;"/><path d="m986.75,772.2c-1.58-1.35-3.03-2.52-4.34-3.5-1.32-.98-2.61-1.77-3.89-2.37-1.28-.6-2.61-1.03-4-1.3-1.39-.26-2.95-.39-4.68-.39-2.41,0-4.78.39-7.11,1.18-2.33.79-4.51,1.88-6.54,3.27-2.03,1.39-3.85,3.01-5.47,4.85-1.62,1.84-2.88,3.82-3.78,5.92v83.58h-34.97v-105.01l24.48-12.86,10.49,11.28c3.83-3.99,8.1-7.18,12.8-9.59,4.7-2.41,9.64-3.61,14.83-3.61s9.59,1.03,13.65,3.1c4.06,2.07,7.59,4.34,10.6,6.82l-12.07,18.61Z" style="fill:#f45b69; stroke-width:0px;"/><path d="m1002.99,777.27c1.2-4.81,3.31-9.19,6.32-13.14,3.01-3.95,6.75-7.29,11.22-10.04,4.47-2.74,9.59-4.87,15.34-6.37,5.75-1.5,11.97-2.26,18.67-2.26,8.27,0,15.41.75,21.43,2.26,6.02,1.5,10.96,3.63,14.83,6.37,3.87,2.75,6.73,6.05,8.57,9.93,1.84,3.87,2.76,8.22,2.76,13.03v66.1c0,4.74,1.47,8.76,4.4,12.07,2.93,3.31,7.07,6.05,12.41,8.23h-41.51c-1.2,0-2.37-.34-3.5-1.02s-2.14-1.56-3.04-2.65c-.9-1.09-1.69-2.27-2.37-3.55-.68-1.28-1.17-2.52-1.47-3.72-2.11,1.96-4.1,3.74-5.98,5.36-1.88,1.62-3.95,2.99-6.2,4.12s-4.78,2.01-7.56,2.65c-2.78.64-6.13.96-10.04.96-5.34,0-10.13-.75-14.38-2.26-4.25-1.5-7.86-3.59-10.83-6.26-2.97-2.67-5.25-5.83-6.82-9.47-1.58-3.65-2.37-7.61-2.37-11.9,0-6.62,1.84-12.29,5.53-17.03,3.68-4.74,8.55-8.87,14.61-12.41,6.05-3.53,12.92-6.62,20.59-9.25,7.67-2.63,15.49-5.15,23.46-7.56v-11.28c0-3.68-.38-6.82-1.13-9.42-.75-2.59-1.8-4.7-3.16-6.32-1.35-1.62-2.99-2.78-4.91-3.5-1.92-.71-4.04-1.07-6.37-1.07-2.78,0-5.26.53-7.44,1.58-2.18,1.05-4.06,2.48-5.64,4.29-1.58,1.8-2.86,3.87-3.83,6.2-.98,2.33-1.69,4.78-2.14,7.33h-29.44Zm64.07,26.62c-3.38,1.43-6.81,3.16-10.26,5.19-3.46,2.03-6.56,4.31-9.31,6.82-2.75,2.52-5,5.3-6.77,8.35-1.77,3.05-2.65,6.3-2.65,9.76,0,3.84,1,6.84,2.99,9.02,1.99,2.18,4.68,3.27,8.07,3.27,2.86,0,5.68-.85,8.46-2.54,2.78-1.69,5.94-3.89,9.48-6.6v-33.28Z" style="fill:#f45b69; stroke-width:0px;"/><path d="m1283.07,785.17c0-2.56-.32-4.98-.96-7.28-.64-2.29-1.52-4.29-2.65-5.98-1.13-1.69-2.44-3.05-3.95-4.06-1.51-1.01-3.12-1.52-4.85-1.52-2.03,0-4.14.34-6.32,1.02-2.18.68-4.34,1.58-6.49,2.71-2.14,1.13-4.16,2.44-6.03,3.95-1.88,1.51-3.54,3.08-4.96,4.74v84.71h-34.63v-78.28c0-2.56-.34-4.98-1.02-7.28-.68-2.29-1.6-4.29-2.76-5.98-1.17-1.69-2.5-3.05-4-4.06-1.5-1.01-3.04-1.52-4.62-1.52-1.88,0-3.89.34-6.03,1.02s-4.29,1.58-6.43,2.71c-2.14,1.13-4.21,2.44-6.2,3.95-1.99,1.51-3.78,3.08-5.36,4.74v84.71h-34.97v-105.01l24.48-12.86h10.49v12.52c5.49-3.76,11.18-6.73,17.09-8.91,5.9-2.18,11.56-3.27,16.98-3.27,3.01,0,6.04.34,9.08,1.01,3.05.68,5.98,1.64,8.8,2.88,2.82,1.24,5.43,2.75,7.84,4.51,2.41,1.77,4.47,3.78,6.2,6.03,2.63-2.1,5.53-4.06,8.69-5.87s6.49-3.33,9.98-4.57c3.5-1.24,7.07-2.22,10.72-2.93,3.65-.71,7.28-1.07,10.88-1.07,4.89,0,9.53.94,13.93,2.82,4.4,1.88,8.25,4.47,11.56,7.78,3.31,3.31,5.94,7.18,7.9,11.62,1.95,4.44,2.93,9.21,2.93,14.33v80.99h-35.31v-78.28Z" style="fill:#f45b69; stroke-width:0px;"/></g></svg>