<?xml version="1.0" encoding="UTF-8"?><svg id="a" xmlns="http://www.w3.org/2000/svg" xmlns:xlink="http://www.w3.org/1999/xlink" viewBox="0 0 1536 1024"><defs><filter id="b" filterUnits="userSpaceOnUse"><feOffset dx="6.8" dy="6.8"/><feGaussianBlur result="c" stdDeviation="0"/><feFlood flood-color="#000" flood-opacity="1"/><feComposite in2="c" operator="in"/><feComposite in="SourceGraphic"/></filter><filter id="d" filterUnits="userSpaceOnUse"><feOffset dx="7" dy="7"/><feGaussianBlur result="e" stdDeviation="5"/><feFlood flood-color="#000" flood-opacity=".75"/><feComposite in2="e" operator="in"/><feComposite in="SourceGraphic"/></filter></defs><g style="filter:url(#b);"><path d="m121.21,763.45c0-3.53.8-7.95,2.41-13.25,1.6-5.3,3.21-11.88,4.82-19.75,1.6-7.87,2.41-16.7,2.41-26.5,0-7.55.16-12.32.48-14.33.32-2.01,1.2-3.41,2.65-4.22,1.6-.8,4.05-1,7.35-.6,3.29.4,6.14-.36,8.55-2.29,2.41-1.6,6.1-3.41,11.08-5.42,4.98-2.01,8.35-3.01,10.12-3.01.96,0,2.45-.68,4.46-2.05,2.01-1.36,4.05-2.61,6.14-3.73,2.09-1.12,5.1-1.33,9.03-.6,3.93.72,8.31,2.85,13.13,6.38,6.58,4.98,10.64,9.36,12.17,13.13,1.53,3.78,2.13,11.2,1.81,22.29-.32,12.37-1.49,20.68-3.49,24.93-2.01,4.26-6.62,8.23-13.85,11.93-4.34,2.09-9.28,4.14-14.82,6.14-5.54,2.01-10.08,3.58-13.61,4.7-3.54,1.12-5.62,2.01-6.26,2.65-.48.48,1.08,2.69,4.7,6.62,3.61,3.94,8.43,8.59,14.46,13.97,6.02,5.38,12,10.4,17.95,15.06,8.67,6.91,15.54,12.97,20.6,18.19,5.06,5.22,7.59,8.88,7.59,10.96,0,1.77-.84,3.78-2.53,6.02-1.69,2.25-3.17,3.37-4.46,3.37-.64,0-3.21-2.05-7.71-6.14-4.5-4.09-9.56-8.67-15.18-13.73-5.62-5.06-9.64-8.39-12.05-10-3.54-2.25-10.28-8.43-20.24-18.55-9.96-10.12-17.83-16.54-23.61-19.27-4.02-1.93-6.63-2.73-7.83-2.41-1.21.32-1.81,2.17-1.81,5.54,0,2.25-1.65,6.79-4.94,13.61-3.29,6.83-5.42,13.05-6.38,18.67-1.29,6.91-2.33,11.2-3.13,12.89-.81,1.69-2.37,2.69-4.7,3.01-2.33.32-4.3-.16-5.9-1.45-2.41-2.08-2.85-7.71-1.32-16.86,1.52-9.16,4.29-17.02,8.31-23.61,2.41-3.69,3.61-7.79,3.61-12.29Zm76.85-74.69c-2.89-2.41-5.38-3.89-7.47-4.46-2.09-.56-3.66-.48-4.7.24-1.05.72-2.37,1.57-3.97,2.53-1.61.96-3.29,1.45-5.06,1.45-2.25,0-6.67,1.13-13.25,3.37-6.91,2.25-11.53,5.1-13.85,8.55-2.33,3.46-3.9,9.76-4.7,18.91-1.29,13.33-1.69,20.64-1.2,21.92.48,1.13,2.49,1.77,6.02,1.93h1.93c9.64.64,19.59-1.04,29.87-5.06,10.28-4.01,16.46-7.31,18.55-9.88,1.45-1.76,2.41-7.95,2.89-18.55l.72-15.66-5.78-5.3Z" style="fill:#f2e863; stroke-width:0px;"/><path d="m235.89,792.6c0-7.71.32-14.13.96-19.27.64-5.14,1.36-8.67,2.17-10.6.8-1.93,1.57-3.85,2.29-5.78.72-1.93,1.08-3.85,1.08-5.78s2.65-5.62,7.95-11.08l7.95-8.19,13.49.72c6.58.32,12.97,1.33,19.15,3.01,6.18,1.69,10.72,3.73,13.61,6.14,2.89,2.41,2.97,8.51.24,18.31-.64,3.05-1.37,5.34-2.17,6.87-.81,1.53-1.77,2.93-2.89,4.22-1.13,1.29-2.89,2.21-5.3,2.77-2.41.56-5.1.96-8.07,1.2-2.97.24-7.27.52-12.89.84l-22.17.72-.48,13.73c-.32,8.03.24,13.01,1.69,14.94,1.45,1.93,5.38,2.89,11.8,2.89,3.69,0,7.39.44,11.08,1.33,3.69.88,6.38,1.77,8.07,2.65,1.69.88,3.61,1.45,5.78,1.69,2.17.24,3.73-.28,4.7-1.57,3.05-2.89,5.98-3.49,8.79-1.81,2.81,1.69,4.22,4.86,4.22,9.52s-2.85,7.31-8.55,8.43c-5.7,1.13-12.73.24-21.08-2.65-6.11-2.09-11.49-3.13-16.14-3.13-4.34,0-8.96-.8-13.85-2.41-4.9-1.6-7.99-3.29-9.28-5.06-1.45-1.93-2.17-9.48-2.17-22.65Zm47.46-43.37c-6.43-2.57-11.56-3.33-15.42-2.29-3.86,1.05-6.71,2.65-8.55,4.82-1.85,2.17-2.61,4.06-2.29,5.66.32,1.29,1.36,2.13,3.13,2.53,1.77.4,5.94.76,12.53,1.08,7.07.16,11.36.08,12.89-.24,1.53-.32,2.69-1.36,3.49-3.13.8-2.41.88-4.05.24-4.94-.64-.88-2.65-2.05-6.02-3.49Z" style="fill:#f2e863; stroke-width:0px;"/><path d="m346.47,699.61c1.77-1.93,3.29-2.89,4.58-2.89s2.81.96,4.58,2.89c.96,1.12,1.65,3.41,2.05,6.87.4,3.46.68,9.92.84,19.39l.48,23.37,13.01.72c7.39.48,12.08,1.17,14.09,2.05,2.01.88,3.01,2.65,3.01,5.3s-1,4.38-3.01,5.18c-2.01.81-6.71,1.45-14.09,1.93l-13.01.96-.72,27.46c-.48,18.31-1.21,28.11-2.17,29.39-.81,1.45-2.13,2.09-3.98,1.93-1.85-.16-3.66-1.04-5.42-2.65-1.29-1.12-2.09-3.29-2.41-6.5-.32-3.21-.48-10.68-.48-22.41v-26.5l-5.54-2.41c-3.85-1.6-8.27-2.41-13.25-2.41-5.78,0-9.8-1.28-12.05-3.85-2.25-2.57-1.69-5.3,1.69-8.19,1.28-1.12,2.93-1.84,4.94-2.17,2.01-.32,5.58-.32,10.72,0l12.53.48.48-22.65c.32-8.99.68-15.18,1.08-18.55.4-3.37,1.08-5.62,2.05-6.75Z" style="fill:#f2e863; stroke-width:0px;"/><path d="m426.21,732.13c1.12,0,1.97-.16,2.53-.48.56-.32,1-.68,1.33-1.08.32-.4,1.36-.76,3.13-1.08,1.77-.32,4.42-.48,7.95-.48,5.46,0,10.2.93,14.21,2.77,4.01,1.85,6.58,4.3,7.71,7.35,3.05,7.87,4.54,13.45,4.46,16.74-.08,3.29-1.73,5.9-4.94,7.83-2.09,1.29-4.66.04-7.71-3.73-3.05-3.77-4.58-6.62-4.58-8.55,0-2.89-.72-5.18-2.17-6.87-1.45-1.69-3.37-2.53-5.78-2.53-3.21,0-6.19,1.12-8.92,3.37-2.73,2.25-4.42,5.06-5.06,8.43-.81,2.89-2.49,7.31-5.06,13.25-2.57,5.94-3.85,9.64-3.85,11.08s-.52,3.37-1.57,5.78c-1.05,2.41-2.13,5.9-3.25,10.48-1.13,4.58-1.69,10.16-1.69,16.74,0,7.55-.44,12.45-1.33,14.7-.88,2.25-2.85,3.37-5.9,3.37-2.41,0-4.22-.56-5.42-1.69-1.21-1.12-2.29-3.77-3.25-7.95-.96-4.17-1.61-9.47-1.93-15.9-.32-6.42-.64-15.9-.96-28.43-.32-15.9-.36-25.94-.12-30.12.24-4.17,1-6.9,2.29-8.19,4.82-5.46,7.95-4.17,9.4,3.85.64,2.57.96,5.87.96,9.88,0,12.85,1.93,13.73,5.78,2.65.48-1.12.96-2.41,1.45-3.86,3.69-11.56,7.79-17.35,12.29-17.35Z" style="fill:#f2e863; stroke-width:0px;"/><path d="m494.87,712.86c3.85-2.25,7.07-3.61,9.64-4.1,2.57-.48,7.63-.72,15.18-.72,19.43,0,31.56,1.93,36.38,5.78,1.45,1.29,2.57,3.85,3.37,7.71.8,3.85,1.69,11.49,2.65,22.89.96,9.96,2.93,20.24,5.9,30.84,2.97,10.6,5.74,19.31,8.31,26.14,2.57,6.83,3.85,11.2,3.85,13.13,0,2.09-.84,3.73-2.53,4.94-1.69,1.2-3.66,1.65-5.9,1.33-4.5-.64-7.63-6.34-9.4-17.11-.64-4.34-1.81-8.71-3.49-13.13-1.69-4.42-3.05-6.62-4.1-6.62s-3.01,4.5-5.9,13.49c-3.21,9.64-6.43,15.74-9.64,18.31-3.21,2.57-9.4,3.85-18.55,3.85-7.71,0-13.73-.96-18.07-2.89-4.34-1.93-10.12-6.26-17.35-13.01-3.21-3.05-5.54-5.7-6.99-7.95-1.45-2.25-2.81-5.38-4.1-9.4-.64-2.25-1.13-4.22-1.45-5.9-.32-1.69-.44-3.57-.36-5.66.08-2.08.16-3.73.24-4.94.08-1.21.4-3.65.96-7.35.56-3.69,1.08-6.75,1.57-9.15,1.77-13.81,3.77-23.01,6.02-27.59,2.25-4.58,6.83-8.87,13.73-12.89Zm47.22,12.77c-1.93-1.6-8.03-2.57-18.31-2.89-7.07-.16-11.81-.04-14.21.36-2.41.4-5.06,1.49-7.95,3.25-4.34,2.73-7.15,5.3-8.43,7.71-1.29,2.73-2.49,6.71-3.61,11.93-1.13,5.22-1.69,9.44-1.69,12.65s-.32,5.74-.96,8.07c-.64,2.33-1.08,4.02-1.33,5.06-.24,1.05.04,3.73.84,8.07.96,3.7,2.49,6.62,4.58,8.79,2.08,2.17,8.19,6.95,18.31,14.33,2.73,1.93,6.14,3.05,10.24,3.37,4.1.32,7.19-.32,9.28-1.93,1.77-1.28,4.66-7.87,8.67-19.76,2.73-7.87,4.46-13.85,5.18-17.95s1.24-10.48,1.57-19.15c.32-8.67.32-14.21,0-16.62-.32-2.41-1.05-4.17-2.17-5.3Z" style="fill:#f2e863; stroke-width:0px;"/><path d="m619.67,699.61c1.77-1.93,3.29-2.89,4.58-2.89s2.81.96,4.58,2.89c.96,1.12,1.65,3.41,2.05,6.87.4,3.46.68,9.92.84,19.39l.48,23.37,13.01.72c7.39.48,12.08,1.17,14.09,2.05,2.01.88,3.01,2.65,3.01,5.3s-1,4.38-3.01,5.18c-2.01.81-6.71,1.45-14.09,1.93l-13.01.96-.72,27.46c-.48,18.31-1.21,28.11-2.17,29.39-.81,1.45-2.13,2.09-3.98,1.93-1.85-.16-3.66-1.04-5.42-2.65-1.29-1.12-2.09-3.29-2.41-6.5-.32-3.21-.48-10.68-.48-22.41v-26.5l-5.54-2.41c-3.85-1.6-8.27-2.41-13.25-2.41-5.78,0-9.8-1.28-12.05-3.85-2.25-2.57-1.69-5.3,1.69-8.19,1.28-1.12,2.93-1.84,4.94-2.17,2.01-.32,5.58-.32,10.72,0l12.53.48.48-22.65c.32-8.99.68-15.18,1.08-18.55.4-3.37,1.08-5.62,2.05-6.75Z" style="fill:#f2e863; stroke-width:0px;"/><path d="m667.12,752.61l15.66-15.66h29.15c12.05,0,20.56.32,25.54.96,4.98.64,9.03,1.93,12.17,3.85,3.13,1.93,6.87,5.38,11.2,10.36,3.21,3.85,5.1,6.67,5.66,8.43.56,1.77.84,5.78.84,12.05,0,10.44-1.93,19.39-5.78,26.86-3.85,7.47-9.08,12.49-15.66,15.06-3.05,1.13-13.33,1.69-30.84,1.69-6.26,0-11.29-.04-15.06-.12-3.78-.08-7.55-.36-11.32-.84-3.78-.48-6.62-1.04-8.55-1.69-1.93-.64-3.85-1.77-5.78-3.37-1.93-1.6-3.25-3.21-3.97-4.82-.72-1.6-1.41-4.01-2.05-7.23-.64-3.21-1.01-6.42-1.08-9.64-.08-3.21-.12-7.47-.12-12.77v-23.13Zm67.22,3.37c-1.77-2.25-3.7-3.53-5.78-3.85-2.09-.32-8.43-.48-19.03-.48h-21.2l-3.37,4.58c-1.45,2.09-2.37,4.42-2.77,6.99-.4,2.57-.6,7.55-.6,14.94,0,8.19.2,13.21.6,15.06.4,1.85,1.65,3.58,3.73,5.18,1.93,1.61,4.42,2.57,7.47,2.89,3.05.32,10.2.48,21.44.48s18.19-.2,21.32-.6c3.13-.4,5.58-1.33,7.35-2.77,2.89-2.25,5.18-5.78,6.87-10.6s2.37-9.64,2.05-14.46c-.16-3.85-.6-6.26-1.33-7.23s-2.85-2.09-6.38-3.37c-4.66-1.77-8.11-4.01-10.36-6.75Z" style="fill:#f2e863; stroke-width:0px;"/><path d="m876,689.73c1.28-1.28,4.01-2.09,8.19-2.41,4.17-.32,14.7-.48,31.56-.48s26.66.16,31.32.48c4.66.32,7.63,1.05,8.91,2.17,3.37,3.21,3.45,6.35.24,9.4-1.29,1.12-4.1,1.85-8.43,2.17-4.34.32-13.25.56-26.74.72l-32.28.48-.72,3.86c-.16,2.09.6,7.03,2.29,14.82,1.69,7.79,3.01,12.25,3.97,13.37.64.64,3.17,1.05,7.59,1.21,4.42.16,9.6.52,15.54,1.08,5.94.56,10.6,1.73,13.97,3.49,4.98,2.25,9.96,3.37,14.94,3.37,3.86,0,6.66.56,8.43,1.69,1.77,1.12,2.65,2.97,2.65,5.54,0,2.89-.96,4.86-2.89,5.9-1.93,1.05-5.46,1.57-10.6,1.57-6.11,0-13.05-1.65-20.84-4.94-7.79-3.29-14.33-4.78-19.63-4.46l-8.43.48-.48,20.72c-.16,9.32-.08,15.38.24,18.19.32,2.81,1.2,5.42,2.65,7.83,2.89,4.66,3.89,10,3.01,16.02-.88,6.02-3.09,9.03-6.62,9.03-1.45,0-3.05-.96-4.82-2.89-1.77-1.93-2.65-3.77-2.65-5.54,0-1.93-1.13-4.98-3.37-9.16-1.45-2.89-2.33-6.3-2.65-10.24-.32-3.93-.48-12.25-.48-24.94,0-11.88-.2-20.4-.6-25.54-.4-5.14-1.33-10.12-2.77-14.94-1.93-7.39-2.97-15.02-3.13-22.89-.16-7.87.72-12.93,2.65-15.18Z" style="fill:#f2e863; stroke-width:0px;"/><path d="m986.34,712.86c3.85-2.25,7.07-3.61,9.64-4.1,2.57-.48,7.63-.72,15.18-.72,19.43,0,31.56,1.93,36.38,5.78,1.45,1.29,2.57,3.85,3.37,7.71.8,3.85,1.69,11.49,2.65,22.89.96,9.96,2.93,20.24,5.9,30.84,2.97,10.6,5.74,19.31,8.31,26.14,2.57,6.83,3.85,11.2,3.85,13.13,0,2.09-.84,3.73-2.53,4.94-1.69,1.2-3.66,1.65-5.9,1.33-4.5-.64-7.63-6.34-9.4-17.11-.64-4.34-1.81-8.71-3.49-13.13-1.69-4.42-3.05-6.62-4.1-6.62s-3.01,4.5-5.9,13.49c-3.21,9.64-6.43,15.74-9.64,18.31-3.21,2.57-9.4,3.85-18.55,3.85-7.71,0-13.73-.96-18.07-2.89-4.34-1.93-10.12-6.26-17.35-13.01-3.21-3.05-5.54-5.7-6.99-7.95-1.45-2.25-2.81-5.38-4.1-9.4-.64-2.25-1.13-4.22-1.45-5.9-.32-1.69-.44-3.57-.36-5.66.08-2.08.16-3.73.24-4.94.08-1.21.4-3.65.96-7.35.56-3.69,1.08-6.75,1.57-9.15,1.77-13.81,3.77-23.01,6.02-27.59,2.25-4.58,6.83-8.87,13.73-12.89Zm47.22,12.77c-1.93-1.6-8.03-2.57-18.31-2.89-7.07-.16-11.81-.04-14.21.36-2.41.4-5.06,1.49-7.95,3.25-4.34,2.73-7.15,5.3-8.43,7.71-1.29,2.73-2.49,6.71-3.61,11.93-1.13,5.22-1.69,9.44-1.69,12.65s-.32,5.74-.96,8.07c-.64,2.33-1.08,4.02-1.33,5.06-.24,1.05.04,3.73.84,8.07.96,3.7,2.49,6.62,4.58,8.79,2.08,2.17,8.19,6.95,18.31,14.33,2.73,1.93,6.14,3.05,10.24,3.37,4.1.32,7.19-.32,9.28-1.93,1.77-1.28,4.66-7.87,8.67-19.76,2.73-7.87,4.46-13.85,5.18-17.95s1.24-10.48,1.57-19.15c.32-8.67.32-14.21,0-16.62-.32-2.41-1.05-4.17-2.17-5.3Z" style="fill:#f2e863; stroke-width:0px;"/><path d="m1103.19,682.74c1.28-1.45,3.13-2.17,5.54-2.17s4.25.81,5.54,2.41c.8.96.72,4.58-.24,10.84-.96,6.26-3.29,18.39-6.99,36.38l-13.25,65.53c-2.73,13.17-5.22,20.64-7.47,22.41-1.77,1.45-3.94.88-6.5-1.69l-3.37-3.37,3.61-19.76c13.17-70.99,20.88-107.85,23.13-110.58Z" style="fill:#f2e863; stroke-width:0px;"/><path d="m1142.21,712.86c3.85-2.25,7.07-3.61,9.64-4.1,2.57-.48,7.63-.72,15.18-.72,19.43,0,31.56,1.93,36.38,5.78,1.45,1.29,2.57,3.85,3.37,7.71.8,3.85,1.69,11.49,2.65,22.89.96,9.96,2.93,20.24,5.9,30.84,2.97,10.6,5.74,19.31,8.31,26.14,2.57,6.83,3.85,11.2,3.85,13.13,0,2.09-.84,3.73-2.53,4.94-1.69,1.2-3.66,1.65-5.9,1.33-4.5-.64-7.63-6.34-9.4-17.11-.64-4.34-1.81-8.71-3.49-13.13-1.69-4.42-3.05-6.62-4.1-6.62s-3.01,4.5-5.9,13.49c-3.21,9.64-6.43,15.74-9.64,18.31-3.21,2.57-9.4,3.85-18.55,3.85-7.71,0-13.73-.96-18.07-2.89-4.34-1.93-10.12-6.26-17.35-13.01-3.21-3.05-5.54-5.7-6.99-7.95-1.45-2.25-2.81-5.38-4.1-9.4-.64-2.25-1.13-4.22-1.45-5.9-.32-1.69-.44-3.57-.36-5.66.08-2.08.16-3.73.24-4.94.08-1.21.4-3.65.96-7.35.56-3.69,1.08-6.75,1.57-9.15,1.77-13.81,3.77-23.01,6.02-27.59,2.25-4.58,6.83-8.87,13.73-12.89Zm47.22,12.77c-1.93-1.6-8.03-2.57-18.31-2.89-7.07-.16-11.81-.04-14.21.36-2.41.4-5.06,1.49-7.95,3.25-4.34,2.73-7.15,5.3-8.43,7.71-1.29,2.73-2.49,6.71-3.61,11.93-1.13,5.22-1.69,9.44-1.69,12.65s-.32,5.74-.96,8.07c-.64,2.33-1.08,4.02-1.33,5.06-.24,1.05.04,3.73.84,8.07.96,3.7,2.49,6.62,4.58,8.79,2.08,2.17,8.19,6.95,18.31,14.33,2.73,1.93,6.14,3.05,10.24,3.37,4.1.32,7.19-.32,9.28-1.93,1.77-1.28,4.66-7.87,8.67-19.76,2.73-7.87,4.46-13.85,5.18-17.95s1.24-10.48,1.57-19.15c.32-8.67.32-14.21,0-16.62-.32-2.41-1.05-4.17-2.17-5.3Z" style="fill:#f2e863; stroke-width:0px;"/><path d="m1302.18,682.5c1.12-1.28,2.61-1.93,4.46-1.93s3.41.64,4.7,1.93c1.28,1.29,1.93,18.07,1.93,50.35,0,23.93.16,38.63.48,44.09.32,5.46,1.52,11.56,3.61,18.31,3.05,9.8,4.7,16.22,4.94,19.27.24,3.05-.6,5.46-2.53,7.23-2.25,2.09-4.18,2.69-5.78,1.81-1.61-.88-3.05-3.33-4.34-7.35-1.77-5.3-3.46-7.79-5.06-7.47-.81.16-1.45,1.05-1.93,2.65-.81,2.41-2.65,5.26-5.54,8.55-2.89,3.29-5.7,5.58-8.43,6.87-3.05,1.61-7.71,2.41-13.97,2.41-4.18,0-7.35-.36-9.52-1.08s-5.34-2.45-9.52-5.18c-6.11-3.85-10.2-6.99-12.29-9.4-2.09-2.41-4.42-6.75-6.99-13.01-1.77-4.34-2.89-8.07-3.37-11.2-.48-3.13-.72-8.47-.72-16.02s.24-13.21.72-16.02c.48-2.81,1.69-6.14,3.61-10,2.89-5.62,6.34-10.76,10.36-15.42l6.02-6.99,46.5-1.69.48-19.27c.32-12.85,1.04-20,2.17-21.44Zm-13.97,58.3c-1.12-1.6-2.49-2.65-4.1-3.13-1.61-.48-5.06-.72-10.36-.72-5.78,0-9.44.28-10.96.84-1.53.56-3.25,2.13-5.18,4.7-4.66,6.26-7.63,11.41-8.91,15.42-1.29,4.02-1.77,9.8-1.45,17.35.32,8.83,1.69,16.02,4.1,21.56,2.41,5.54,6.18,10.24,11.32,14.09,9.15,6.91,16.46,6.99,21.92.24,1.77-1.93,3.05-3.81,3.85-5.66.8-1.84,1.69-4.1,2.65-6.75.96-2.65,2.01-5.18,3.13-7.59,2.89-5.78,3.69-13.93,2.41-24.45-1.29-10.52-4.1-19.15-8.43-25.9Z" style="fill:#f2e863; stroke-width:0px;"/><path d="m1327.24,752.61l15.66-15.66h29.15c12.05,0,20.56.32,25.54.96,4.98.64,9.03,1.93,12.17,3.85,3.13,1.93,6.87,5.38,11.2,10.36,3.21,3.85,5.1,6.67,5.66,8.43.56,1.77.84,5.78.84,12.05,0,10.44-1.93,19.39-5.78,26.86-3.85,7.47-9.08,12.49-15.66,15.06-3.05,1.13-13.33,1.69-30.84,1.69-6.26,0-11.29-.04-15.06-.12-3.78-.08-7.55-.36-11.32-.84-3.78-.48-6.62-1.04-8.55-1.69-1.93-.64-3.85-1.77-5.78-3.37-1.93-1.6-3.25-3.21-3.97-4.82-.72-1.6-1.41-4.01-2.05-7.23-.64-3.21-1.01-6.42-1.08-9.64-.08-3.21-.12-7.47-.12-12.77v-23.13Zm67.22,3.37c-1.77-2.25-3.7-3.53-5.78-3.85-2.09-.32-8.43-.48-19.03-.48h-21.2l-3.37,4.58c-1.45,2.09-2.37,4.42-2.77,6.99-.4,2.57-.6,7.55-.6,14.94,0,8.19.2,13.21.6,15.06.4,1.85,1.65,3.58,3.73,5.18,1.93,1.61,4.42,2.57,7.47,2.89,3.05.32,10.2.48,21.44.48s18.19-.2,21.32-.6c3.13-.4,5.58-1.33,7.35-2.77,2.89-2.25,5.18-5.78,6.87-10.6s2.37-9.64,2.05-14.46c-.16-3.85-.6-6.26-1.33-7.23s-2.85-2.09-6.38-3.37c-4.66-1.77-8.11-4.01-10.36-6.75Z" style="fill:#f2e863; stroke-width:0px;"/></g><g style="filter:url(#d);"><path d="m417.79,967.62c-.32-.27-.47-.67-.47-1.21-.72-8.37-1.08-14.36-1.08-17.96,0-3.33.36-5.85,1.08-7.56.81-2.16,1.21-5.54,1.21-10.13,0-.9.11-2.05.34-3.44.22-1.39.34-2.63.34-3.71,0-1.71-.45-2.56-1.35-2.56-1.44,0-2.16-.81-2.16-2.43.54-7.38,1.75-14.63,3.65-21.74l1.35-5.13c.27-1.26.4-2.16.4-2.7-.18-.36-.36-.67-.54-.95-.18-.27-.27-.63-.27-1.08s.07-.99.2-1.62c.13-.63.2-1.44.2-2.43,0-1.26-.27-2.75-.81-4.46-.54-1.71-.81-3.19-.81-4.46,0-1.17.09-2.38.27-3.65.36-1.62.54-4.63.54-9.05,0-3.6,1.66-5.4,5-5.4,2.43,0,4.09-.09,5-.27.9-.18,1.98-.31,3.24-.41,1.08,0,2.18.11,3.31.34,1.12.23,2.32.34,3.58.34.63,0,.95.36.95,1.08.09,0,.52,1.04,1.28,3.1.76,2.07,1.37,4.14,1.82,6.21.27,1.62.7,3.33,1.28,5.13.58,1.8,1.06,3.74,1.42,5.81.27,2.43.85,4.73,1.75,6.89.36.9.58,1.82.67,2.77.09.95.29,1.8.61,2.57.31.77.97,1.19,1.96,1.28.27,0,.47-.18.61-.54.14-.36.29-.85.47-1.48.36-1.53,1.57-5.49,3.65-11.88.18-.54.27-1.03.27-1.49,0-.72-.14-1.33-.41-1.82-.27-.49-.41-1.01-.41-1.55,0-.72.36-1.62,1.08-2.7,1.35-2.61,2.25-5.31,2.7-8.1.09-.72.22-1.39.41-2.03,1.17-3.33,3.24-5,6.21-5,.99.09,1.96.2,2.9.34s2.27.2,3.98.2c1.53,0,2.74-.09,3.65-.27,2.16,0,3.67,1.06,4.52,3.17.85,2.12,1.28,4.48,1.28,7.09,0,2.07-.11,4.19-.34,6.35-.23,2.16-.34,4.23-.34,6.21s.18,3.69.54,5.13c0,.54-.09,1.04-.27,1.48-.18.45-.27.95-.27,1.49.36,2.88.54,6.39.54,10.53.27,4.05.72,7.52,1.35,10.4.54,2.25.81,4.14.81,5.67,0,1.26-.23,2.25-.67,2.97-.45.72-.67,1.44-.67,2.16l.13,1.75c.36,1.08.54,3.51.54,7.29,0,2.97.16,5.29.47,6.95.31,1.67.72,4.43,1.21,8.3.49,3.87.74,7.24.74,10.13,0,1.26-.09,2.29-.27,3.11-.36,1.89-.61,3.4-.74,4.52-.13,1.12-.29,1.91-.47,2.36-.18.45-.54.67-1.08.67s-.9-.13-1.08-.4c-.18-.27-.27-.77-.27-1.49l.14-2.16c0-5.67-1.31-8.51-3.92-8.51l-2.43.13c-1.71,0-3.08-.05-4.12-.13-1.04-.09-1.87-.14-2.5-.14-1.08,0-1.89.18-2.43.54-.54.36-.95,1.03-1.22,2.03-.99,3.33-1.49,6.7-1.49,10.13,0,1.62-.05,2.52-.13,2.7v.27c-.09.18-.16.41-.2.67-.05.27-.13.56-.27.88-.13.31-.47.47-1.01.47-.9-.09-1.44-.7-1.62-1.82-.18-1.13-.27-2.72-.27-4.79v-1.35c0-2.52-.18-5.54-.54-9.05v-1.49c0-1.98.41-3.92,1.21-5.81.27-.54.41-.9.41-1.08-.54-1.62-.86-4.09-.95-7.43-.09-3.33-.13-6.84-.13-10.53,0-9.54-.41-14.72-1.22-15.53-1.26,1.89-2.41,3.92-3.44,6.08-1.04,2.16-1.91,3.8-2.63,4.93-.72,1.13-1.26,2.45-1.62,3.98-.27.81-.72,1.21-1.35,1.21-.99,0-1.67-.9-2.02-2.7,0-1.17-.5-2.92-1.49-5.27-1.98-4.68-3.33-7.11-4.05-7.29-.72,2.16-1.08,3.87-1.08,5.13l.13,1.49c0,2.7-.27,5.58-.81,8.64-.27,1.62-.43,3.26-.47,4.93-.05,1.67-.25,3.42-.61,5.27-.36,1.85-.68,3.74-.95,5.67-.27,1.93-.63,3.85-1.08,5.74-.54,2.88-.88,5.15-1.01,6.82-.13,1.66-.34,2.88-.61,3.65-.27.76-.81,1.19-1.62,1.28-.45,0-.77-.11-.95-.34-.18-.23-.32-.45-.41-.67-.09-.23-.18-.38-.27-.47-.27-.63-.41-1.4-.41-2.29v-.54c0-.81-.23-1.62-.67-2.43-.45-.81-2.12-1.35-5-1.62-3.51,0-5.49,1.89-5.94,5.67-.27,1.71-.41,3.46-.41,5.27,0,4.05-.4,6.43-1.21,7.16-.36.27-.72.41-1.08.41s-.7-.13-1.01-.41Z" style="fill:#44bba4; stroke-width:0px;"/><path d="m549.09,981.93c-1.53-.18-2.29-3.74-2.29-10.67l.13-9.72c0-3.69-.2-6.91-.61-9.65-.41-2.75-1.42-4.12-3.04-4.12-.72,0-1.62.43-2.7,1.28-1.08.85-2.59,1.6-4.52,2.23-1.94.63-5.25.94-9.92.94-5.85-.45-9.99-1.35-12.42-2.7-1.35-.81-2.43-1.21-3.24-1.21-1.08,0-1.8,1.12-2.16,3.38l-.54,3.24c-.72,2.61-1.08,5.26-1.08,7.97l.13,1.08c-.27,1.8-.94,2.7-2.02,2.7-.72,0-1.42-.45-2.09-1.35-.68-.9-1.01-2.29-1.01-4.19l.13-2.16c0-6.84-1.21-15.66-3.65-26.46l-1.35-5.94c-.63-3.24-1.04-5.54-1.22-6.89-.18-1.35-.32-2.14-.41-2.36-.09-.22-.23-.34-.4-.34-1.98,0-2.97-1.44-2.97-4.32,0-2.16.38-4.86,1.15-8.1.76-3.24,1.67-6.77,2.7-10.6,1.03-3.82,2.05-7.76,3.04-11.81.27-.9.85-2.41,1.75-4.52.9-2.11,1.96-4.34,3.17-6.68,1.22-2.34,2.5-4.27,3.85-5.81,4.23-4.68,8.12-7.47,11.68-8.37,3.55-.9,6.95-1.35,10.19-1.35h4.73c2.34,0,5.13,1.04,8.37,3.1,3.24,2.07,5.71,4.19,7.43,6.35,3.15,3.78,5.76,9.07,7.83,15.86,2.07,6.8,3.1,14.51,3.1,23.16,0,7.02-.9,14.49-2.7,22.41-.09.63-.13,1.6-.13,2.9s-.05,2.63-.13,3.98c-.09,1.35-.29,2.52-.61,3.51-.32.99-.88,1.49-1.69,1.49-.36,0-.67-.07-.94-.2-.27-.14-.59-.25-.95-.34-.18,0-.32.07-.41.2-.09.14-.13.27-.13.41s-.05.25-.13.34c-.99,3.6-1.49,6.57-1.49,8.91-.09,4.77-.23,9.25-.41,13.43-.18,4.19-.27,8.3-.27,12.35l.13,5.81c0,1.98-.54,2.97-1.62,2.97l-.27-.13Zm-16.61-54.01c3.87-4.23,5.81-13.59,5.81-28.08,0-6.93-.72-12.78-2.16-17.55-.36-.81-1.49-1.8-3.38-2.97-.81-.45-1.53-.68-2.16-.68-2.79.81-4.48,2.41-5.06,4.79-.59,2.39-.88,4.75-.88,7.09v2.57c0,.99-.05,1.89-.13,2.7-.18,1.17-.72,1.75-1.62,1.75s-1.49-.45-1.76-1.35c-.27-.9-.4-1.84-.4-2.84-.09-1.62-.41-3.06-.95-4.32l-.81,6.89c-.18.99-.27,1.98-.27,2.97s.04,2.18.13,3.58c.09,1.4.13,3.08.13,5.06l.54,5.67c0,.9-.13,1.71-.4,2.43-.27.72-.41,1.35-.41,1.89,0,.99.36,1.89,1.08,2.7.36.63.74,1.4,1.15,2.29.41.9.61,2.12.61,3.65s.49,2.79,1.49,3.78c.99.99,2.07,1.49,3.24,1.49,1.98,0,4.05-1.17,6.21-3.51Z" style="fill:#44bba4; stroke-width:0px;"/><path d="m582.17,963.84l.13-2.56c.36-1.44.54-4.59.54-9.45,0-.63-.32-.95-.94-.95l-.81.13c-.9,0-1.71-.18-2.43-.54-.72-.36-1.58-.54-2.57-.54s-1.89.13-2.7.41c-1.53.45-2.3,2.88-2.3,7.29,0,.72.07,1.37.2,1.96.13.58.2,1.55.2,2.9,0,1.89-.54,2.83-1.62,2.83-.72,0-1.46-.45-2.23-1.35-.77-.9-1.15-2.16-1.15-3.78,0-.63.09-1.31.27-2.02.27-1.62.63-5.87,1.08-12.76.45-6.89.83-14.54,1.15-22.95.31-8.42.47-15.32.47-20.72,0-2.61-.05-4.59-.13-5.94l-.13-.13c0-.45-.07-.79-.2-1.01-.13-.22-.5-.38-1.08-.47-.59-.09-1.01-.52-1.28-1.28-.27-.76-.41-1.6-.41-2.5,0-.99.09-1.89.27-2.7.9-5.49,1.35-12.02,1.35-19.58,0-3.87.22-6.68.67-8.44.45-1.76,1.78-2.79,3.98-3.11,2.2-.31,4.43-.47,6.68-.47,1.89,0,3.82-.09,5.81-.27,1.26,0,2.65.7,4.18,2.09,1.53,1.4,2.52,2.72,2.97,3.98.9,3.69,1.62,6.48,2.16,8.37.54,1.89.99,3.29,1.35,4.19.36.9.7,1.6,1.01,2.09.31.5.63,1.1.94,1.82.31.72.7,1.78,1.15,3.17.45,1.4,1.01,2.7,1.69,3.92.67,1.22,1.24,2.36,1.69,3.44.72,2.7,1.98,5.04,3.78,7.02.36-.18.54-.41.54-.67-.18-1.71-.27-3.38-.27-5,0-2.25-.09-3.73-.27-4.46-.27-3.51-.41-5.99-.41-7.43,0-1.17.18-2.54.54-4.12.36-1.57.58-3.71.68-6.41,0-4.95.58-8.46,1.75-10.53.63-1.26,1.71-1.89,3.24-1.89h.81c.27.09.81.13,1.62.13l3.24-.13c1.17,0,2.38.18,3.65.54l.81.13c.45,0,.92-.07,1.42-.2.49-.13,1.01-.2,1.55-.2,1.8.09,3.01.67,3.65,1.75.63,1.08.94,2.52.94,4.32,0,1.62-.13,3.64-.4,6.08-.36,3.15-.63,6.93-.81,11.34-.09,8.01-.23,13.82-.41,17.42l-.13,6.21c0,1.71.07,3.26.2,4.66.13,1.4.34,4.79.61,10.19,0,1.44.18,2.7.54,3.78.27.45.45,1.26.54,2.43v7.7c-.09.18-.16.36-.2.54-.05.18-.11.32-.2.41-1.08.45-1.62,1.26-1.62,2.43v1.35c.09.81.13,1.89.13,3.24,0,3.24-.72,8.64-2.16,16.2-.27,1.53-.9,2.29-1.89,2.29-.99-.09-1.48-.77-1.48-2.02l.13-2.97c0-2.34-1.21-3.51-3.65-3.51-3.15.18-5.15,1.1-6.01,2.77-.86,1.66-1.28,3.71-1.28,6.14l.14,3.38c0,2.16-.5,3.24-1.49,3.24-.9,0-1.35-.45-1.35-1.35l.13-1.35c0-1.62-.11-3.22-.34-4.79-.23-1.58-.34-3.13-.34-4.66l.13-2.03c0-1.08-.13-2.21-.4-3.38-.09-.63-.14-1.31-.14-2.02-.27-1.17-.77-2.3-1.48-3.38l-1.89-3.51c-.54-1.26-1.17-2.52-1.89-3.78-.27.36-.47.74-.61,1.15-.13.4-.29.74-.47,1.01-.18.27-.5.4-.94.4-1.08,0-1.62-.72-1.62-2.16,0-.36-.25-1.33-.74-2.9-.5-1.57-1.6-4.97-3.31-10.19-.63-1.89-.97-3.33-1.01-4.32-.05-.99-.83-2.34-2.36-4.05l-.41-.41v7.97c0,.63-.02.97-.07,1.01-.05.05-.07.11-.07.2-.99,1.44-1.49,2.93-1.49,4.46l.13,1.89c0,2.79-.09,4.82-.27,6.08-.18,1.71-.27,4.23-.27,7.56l.27,3.51c0,1.62-.43,2.72-1.28,3.31-.86.58-1.28,1.6-1.28,3.04l.13,2.43c.09,1.35.13,3.29.13,5.81,0,3.96-.13,6.25-.41,6.89-.27.63-.72,1.03-1.35,1.22-1.98,0-2.97-1.62-2.97-4.86Z" style="fill:#44bba4; stroke-width:0px;"/><path d="m636.04,966.4c-.27-.63-.41-1.44-.41-2.43,0-4.95-.09-9.77-.27-14.45-.18-2.61-.27-4.73-.27-6.35,0-3.33.54-5.54,1.62-6.62,3.33-3.33,5.67-6.12,7.02-8.37,1.35-2.25,3.01-3.38,5-3.38,1.44,0,2.97.63,4.59,1.89l2.43,1.89c1.44.9,2.79,1.98,4.05,3.24.45.45,1.03.67,1.75.67.99,0,2-.2,3.04-.61,1.03-.41,1.87-.61,2.5-.61,2.34-.27,4-1.3,5-3.11.99-1.8,1.49-3.69,1.49-5.67,0-1.62-.25-3.06-.74-4.32-.5-1.26-1.17-2.03-2.03-2.29-.86-.27-1.69-.58-2.5-.95-1.26-.54-2.61-.9-4.05-1.08-.54,0-.86.36-.94,1.08-.36,1.26-.54,2.39-.54,3.38v2.3c0,.72-.11,1.24-.34,1.55-.23.32-.7.47-1.42.47-1.17,0-1.85-1.12-2.03-3.38-.18-2.25-.72-4-1.62-5.27-1.08-1.08-2.93-1.98-5.54-2.7-1.8-.63-3.56-1.37-5.27-2.23-1.71-.85-3.02-2.05-3.92-3.58-.36-.36-.86-.56-1.49-.61-.63-.04-1.24-.25-1.82-.61-.59-.36-.92-1.12-1.01-2.29-.27-4.68-.72-8.33-1.35-10.94-.54-1.89-.81-3.69-.81-5.4,0-1.98.49-4.23,1.49-6.75l1.35-5c1.44-5.31,4.77-9.59,9.99-12.83,1.89-1.17,3.15-1.8,3.78-1.89,1.53-.18,3.01-.54,4.46-1.08,2.34-.81,5.85-1.22,10.53-1.22,3.06,0,5.17.14,6.35.41,1.17.27,3.15.41,5.94.41,2.25,0,4.46,1.21,6.62,3.65.81.81,1.49,1.35,2.03,1.62,1.71.54,3.13,1.58,4.25,3.11,1.12,1.53,1.69,3.15,1.69,4.86v2.43l-.13,1.08.13,8.24c0,3.06-.13,5.56-.41,7.49-.27,1.94-.95,2.9-2.03,2.9-.54,0-.9-.2-1.08-.61-.18-.41-.32-1.06-.41-1.96,0-.54.04-1.1.14-1.69.09-.58.13-1.24.13-1.96,0-.36-.05-.81-.13-1.35-.09-.54-.23-1.01-.41-1.42-.18-.41-.41-.61-.67-.61-.18,0-.36.18-.54.54-.36.72-.81,1.26-1.35,1.62-.54.36-1.01.65-1.42.88-.4.23-.74.38-1.01.47-1.62.99-2.61,1.94-2.97,2.84-.36.9-.54,1.67-.54,2.29v.41c0,1.26-.5,1.89-1.49,1.89-.81-.09-1.33-.43-1.55-1.01-.23-.58-.34-1.37-.34-2.36,0-3.33-.13-5.67-.4-7.02-.27-1.35-.9-2.57-1.89-3.65-2.16-1.8-4.55-2.92-7.16-3.38-.9-.36-1.8-.63-2.7-.81-1.26,0-2.25,1.67-2.97,5l-.67,3.38c-.18.72-.63,1.08-1.35,1.08-1.17,0-1.75-1.49-1.75-4.46-1.26,2.25-1.89,4.19-1.89,5.81,0,2.25.74,4.01,2.23,5.27,1.49,1.26,2.9,1.89,4.25,1.89.36-.09.65-.16.88-.2.22-.04.83-.07,1.82-.07,2.97,0,6.39.86,10.26,2.57,3.87,1.71,6.7,3.29,8.51,4.73,2.7,2.07,5.02,4.43,6.95,7.09,1.93,2.66,2.9,5.79,2.9,9.38l-.14,5.67-.13,3.24-.81,4.46c-.36,2.25-.72,3.71-1.08,4.39-.36.67-.59,1.46-.68,2.36l-2.83,18.9c-.27,2.25-1.13,3.38-2.57,3.38-.99-.09-1.62-.61-1.89-1.55-.27-.95-.4-2.5-.4-4.66,0-1.71-.07-2.93-.2-3.64-.13-.72-.47-1.08-1.01-1.08l-.81.13-3.78,1.75c-1.35.54-2.43.99-3.24,1.35-.81.36-2.12.54-3.92.54l-7.43-.14c-2.43,0-4.91.27-7.43.81-.54,0-1.06-.07-1.55-.2-.5-.14-.97-.2-1.42-.2-.54,0-1.01.25-1.42.74-.41.49-.65,1.6-.74,3.31,0,.63-.16,1.1-.47,1.42-.32.31-.65.47-1.01.47-1.08,0-1.89-1.04-2.43-3.1-.81-2.88-2.66-5.58-5.54-8.1-.45-.36-.86-.54-1.22-.54-.81,0-1.21,1.57-1.21,4.73l.13,3.51v4.05c0,2.07-.16,3.87-.47,5.4-.32,1.53-1.01,2.29-2.09,2.29-.9,0-1.48-.32-1.75-.95Z" style="fill:#44bba4; stroke-width:0px;"/><path d="m738.11,957.36c0-2.25-.32-4.1-.95-5.54l-.27-.95c-.27-.81-.81-1.28-1.62-1.42-.81-.13-1.53-.2-2.16-.2h-1.08c-.81,0-1.53-.05-2.16-.13-.54,0-1.04.31-1.49.94-1.53,2.07-2.43,4.19-2.7,6.35,0,1.26-.45,1.89-1.35,1.89-.54,0-.88-.11-1.01-.34-.13-.23-.25-.7-.34-1.42v-.41c0-1.62-.86-5.04-2.57-10.26-.27-.9-.41-1.8-.41-2.7,0-.81.13-1.58.41-2.29.72-2.16,1.21-5,1.49-8.51.27-3.51.49-7.02.67-10.53.09-4.68.31-7.88.67-9.59,0-.54-.13-.85-.41-.95-.27-.09-.59-.13-.94-.13s-.7-.09-1.01-.27c-.32-.18-.47-.58-.47-1.21v-.67c.63-4.23,1.08-7.18,1.35-8.84.27-1.66.47-2.88.61-3.65.13-.76.2-1.55.2-2.36l-.54-13.23c0-.99-.38-1.98-1.15-2.97-.77-.99-1.64-1.53-2.63-1.62-3.24-.36-5.31-.54-6.21-.54-1.53,0-2.83.36-3.92,1.08-1.08.72-1.71,2.16-1.89,4.32,0,.45-.05.95-.13,1.49-.09.54-.13,1.13-.13,1.75l.13,1.76c0,.72-.09,1.46-.27,2.23-.18.77-.27,1.51-.27,2.23l.13,1.21c0,.18-.11.36-.34.54-.23.18-.47.27-.74.27-.54,0-1.1-.41-1.69-1.21-.59-.81-.88-2.84-.88-6.08l.27-3.51c0-1.89-.23-3.51-.68-4.86-.45-1.35-.67-2.83-.67-4.46,0-.99.11-2.09.34-3.31.22-1.22.34-3.31.34-6.28,0-1.89.45-3.4,1.35-4.52.9-1.12,3.28-1.69,7.16-1.69,2.52,0,5.76.27,9.72.81,1.35.09,3.33.13,5.94.13,4.14,0,8.96-.09,14.45-.27l10.53-.13,4.05.13,5.13-.27c1.35,0,2.59.34,3.71,1.01,1.12.67,1.69,2.59,1.69,5.74v7.16c0,1.35-.18,2.48-.54,3.38-.63,1.8-1.04,4.32-1.22,7.56,0,1.98-.67,2.97-2.02,2.97-.72,0-1.17-.34-1.35-1.01-.18-.68-.29-1.35-.34-2.03-.05-.68-.11-1.28-.2-1.82-.36-1.8-.83-2.88-1.42-3.24-.59-.36-1.53-.54-2.83-.54s-2.5-.09-3.58-.27l-2.16-.27c-1.35,0-2.54.47-3.58,1.42-1.04.95-1.69,2.18-1.96,3.71-.54,4.23-.95,13.23-1.22,27-.18,5.4-.27,10.04-.27,13.91.72,3.6,1.08,7.07,1.08,10.4,0,2.25-.27,3.69-.81,4.32-.18.45-.27.9-.27,1.35l.27,3.38c0,2.25-.4,5.4-1.21,9.45-.18,1.35-.27,2.65-.27,3.92s-.09,2.32-.27,3.17c-.18.85-.67,1.28-1.49,1.28-1.08,0-1.62-.59-1.62-1.75Z" style="fill:#44bba4; stroke-width:0px;"/><path d="m772.81,974.91l.27-2.57c.18-1.08.27-2.48.27-4.18,0-3.51-.32-6.77-.95-9.79-.63-3.02-.95-6.41-.95-10.19l.14-4.05c.18-1.98.27-4,.27-6.08l.13-12.29c.09-4.95.27-8.24.54-9.86.18-.99.31-2.47.41-4.46,0-.36-.13-.63-.41-.81-1.17-.72-1.75-1.89-1.75-3.51,0-1.35.18-2.92.54-4.73.54-2.25.81-4.54.81-6.89,0-.9-.05-1.75-.14-2.57-.09-.81-.13-1.66-.13-2.56,0-3.15.13-5.65.41-7.49.27-1.84.49-4.07.67-6.68,0-.99-.05-1.69-.13-2.09-.09-.41-.13-.97-.13-1.69,0-1.62.4-4.95,1.21-9.99.27-1.98,1.01-3.24,2.23-3.78s2.59-.81,4.12-.81c1.17-.09,2.29-.27,3.38-.54,1.62-.45,3.24-.67,4.86-.67,1.08,0,2.27.05,3.58.13,1.3.09,2.9.13,4.79.13l6.08-.13c4.05,0,8.82,1.04,14.31,3.11l2.29.81c1.71.36,3.33,1.04,4.86,2.02,7.74,5.76,11.61,13.14,11.61,22.14,0,3.24-.36,6.46-1.08,9.65-.72,3.2-1.53,6.28-2.43,9.25-1.8,6.3-2.7,10.85-2.7,13.64v1.62c0,.9-.45,1.35-1.35,1.35-.81,0-1.26-.45-1.35-1.35-.36-2.97-.79-5.04-1.28-6.21-.5-1.17-1.19-1.75-2.09-1.75-.99,0-2,.34-3.04,1.01-1.04.67-1.55,1.55-1.55,2.63,0,.81.2,1.82.61,3.04.4,1.22.92,2.23,1.55,3.04,2.52,3.78,5.35,10.98,8.51,21.6.27,1.08.54,1.93.81,2.57,1.08,3.33,1.62,5.44,1.62,6.35,0,.45-.09.76-.27.94-.63.72-1.04,1.44-1.22,2.16-.18.72-.32,1.57-.4,2.56,0,1.71-.41,4.41-1.22,8.1-.36,1.08-.95,1.62-1.75,1.62-1.17,0-1.75-.95-1.75-2.84,0-1.53.16-2.72.47-3.58.31-.86.47-1.73.47-2.63,0-3.78-1.62-5.67-4.86-5.67-.72,0-1.46.04-2.23.13-.77.09-1.37.13-1.82.13l-.95-.13c-.45,0-.72.36-.81,1.08-.09,1.17-.29,2.34-.61,3.51-.32,1.17-.47,2.47-.47,3.92l.13,1.89c-.09.9-.59,1.35-1.48,1.35-.45-.09-.72-.25-.81-.47-.09-.23-.18-.92-.27-2.09-.18-6.93-1.49-13.01-3.92-18.23l-.41-.95c-.36-1.53-1.21-2.34-2.56-2.43-.54,0-1.04-.85-1.49-2.57l-.27-1.35c-.36-3.06-1.75-6.97-4.19-11.75-.99-2.07-1.98-3.55-2.97-4.46.18.63.27,1.58.27,2.83,0,2.7-.23,6.23-.67,10.6-.45,4.37-.67,8.12-.67,11.27v2.3c0,1.44-.2,2.88-.61,4.32-.41,1.44-.65,2.88-.74,4.32,0,.72-.2,1.33-.61,1.82-.41.49-.88.74-1.42.74-.81,0-1.46-.7-1.96-2.09-.5-1.4-1.37-2.09-2.63-2.09l-2.84.27c-.9,0-1.82-.16-2.77-.47-.95-.32-1.69-.47-2.23-.47-1.44,0-2.21,1.12-2.29,3.38-.45,3.87-.68,7.24-.68,10.13l.14,7.02c0,1.62-.11,2.84-.34,3.65-.23.81-.74,1.22-1.55,1.22-1.44,0-2.16-1.13-2.16-3.38Zm32.13-78.85l3.51.14c.9,0,1.67-.14,2.3-.41.63-.27,1.3-1.21,2.02-2.84,1.26-2.79,1.89-4.9,1.89-6.35,0-1.17-.27-2.56-.81-4.18,0,.09-.07.2-.2.34s-.2.29-.2.47l.13.95c0,1.26-.18,2.52-.54,3.78l-.41,2.03c-.45,1.89-1.17,2.83-2.16,2.83-.45,0-.88-.22-1.28-.67-.41-.45-.61-1.08-.61-1.89l.13-2.83c0-3.87-.29-6.25-.88-7.16-.59-.9-1.49-1.62-2.7-2.16s-2.23-.81-3.04-.81c-1.35.27-2.57,1.08-3.65,2.43-1.08,1.35-1.62,2.61-1.62,3.78l-.27,10.26c0,1.35.07,2.23.2,2.63s.43.61.88.61c3.69-.63,6.12-.95,7.29-.95Z" style="fill:#44bba4; stroke-width:0px;"/><path d="m892.84,963.43c0-1.35.09-2.93.27-4.73.09-2.34.13-5.76.13-10.26-.18-2.07-.77-3.42-1.75-4.05-.27-.18-.54-.43-.81-.74-.27-.32-.54-.47-.81-.47-.18,0-.36.04-.54.14-.18.09-.36.22-.54.4-.18.18-.41.31-.68.41l-2.57.81c-1.44.54-3.1,1.06-5,1.55-1.89.49-4.46.74-7.7.74-4.95,0-8.6-.77-10.94-2.29-.54-.27-1.04-.41-1.49-.41-2.16,0-3.47,1.98-3.92,5.94-.18,1.62-.27,3.73-.27,6.35,0,1.17-.16,2.07-.47,2.7-.32.63-.97.95-1.96.95-.54,0-.86-.23-.95-.67-.09-.45-.18-1.08-.27-1.89-.09-.81-.23-1.8-.4-2.97l-4.73-21.47c-.9-3.87-1.35-6.75-1.35-8.64l.13-1.22c0-1.53-.25-3.17-.74-4.93-.5-1.75-.74-3.53-.74-5.33l.14-4.32-.41-2.7-.41-2.3c-1.35,0-2.07-.31-2.16-.94-.36-1.08-.54-2.43-.54-4.05,2.52-15.66,3.78-23.81,3.78-24.44l-.27-1.08c-.54-1.8-.81-4.23-.81-7.29,0-2.79.61-5.54,1.82-8.24,1.21-2.7,3.26-4.05,6.14-4.05h.81c2.34.27,4.41.41,6.21.41s3.33.09,4.59.27c2.7.54,4.05,2.66,4.05,6.35,0,1.17-.11,2.36-.34,3.58-.23,1.21-.34,5.2-.34,11.95v38.48c0,3.24.18,5.22.54,5.94.36.72.81,1.31,1.35,1.76.54.45,1.08,1.13,1.62,2.02.54.9,1.3,1.35,2.3,1.35,1.35,0,2.77-.58,4.25-1.75,1.48-1.17,2.23-2.38,2.23-3.65l-.13-1.89c0-1.26.11-2.47.34-3.65.22-1.17.38-2.29.47-3.38.09-4.05.18-7.27.27-9.65.09-2.38.2-4.41.34-6.08.13-1.66.25-3.49.34-5.47,0-1.53-.23-2.29-.67-2.29-.36-.18-.54-.63-.54-1.35v-1.21l1.08-7.7.13-2.83c0-.99-.09-2.16-.27-3.51-.45-3.6-.67-6.39-.67-8.37,0-2.61.67-4.75,2.03-6.41,1.35-1.66,3.38-2.5,6.08-2.5l2.3.13,5.81-.13,4.46.13c.9,0,1.6.13,2.09.41.49.27.92,1.04,1.28,2.29.81,3.6,1.22,7.52,1.22,11.75,0,.63.04,1.21.13,1.75-.54,3.6-.81,7.34-.81,11.21,0,2.97.09,5.94.27,8.91l.13,7.02c0,5.31-.63,8.19-1.89,8.64-.27.18-.43.36-.47.54-.05.18-.07.54-.07,1.08,0,2.07-.18,4.59-.54,7.56-.45,3.51-.74,7-.88,10.46-.13,3.47-.52,6.93-1.15,10.4-.63,3.47-.99,7.27-1.08,11.41,0,1.89-.18,3.83-.54,5.81-.81,2.7-1.22,5.27-1.22,7.7v.67c0,1.8-.13,3.26-.4,4.39-.27,1.12-.9,1.73-1.89,1.82-1.35,0-2.03-1.62-2.03-4.86Z" style="fill:#44bba4; stroke-width:0px;"/><path d="m968.04,981.93c-1.53-.18-2.29-3.74-2.29-10.67l.13-9.72c0-3.69-.2-6.91-.61-9.65-.41-2.75-1.42-4.12-3.04-4.12-.72,0-1.62.43-2.7,1.28-1.08.85-2.59,1.6-4.52,2.23-1.94.63-5.25.94-9.92.94-5.85-.45-9.99-1.35-12.42-2.7-1.35-.81-2.43-1.21-3.24-1.21-1.08,0-1.8,1.12-2.16,3.38l-.54,3.24c-.72,2.61-1.08,5.26-1.08,7.97l.13,1.08c-.27,1.8-.94,2.7-2.02,2.7-.72,0-1.42-.45-2.09-1.35-.68-.9-1.01-2.29-1.01-4.19l.13-2.16c0-6.84-1.21-15.66-3.65-26.46l-1.35-5.94c-.63-3.24-1.04-5.54-1.22-6.89-.18-1.35-.32-2.14-.41-2.36-.09-.22-.23-.34-.4-.34-1.98,0-2.97-1.44-2.97-4.32,0-2.16.38-4.86,1.15-8.1.76-3.24,1.67-6.77,2.7-10.6,1.03-3.82,2.05-7.76,3.04-11.81.27-.9.85-2.41,1.75-4.52.9-2.11,1.96-4.34,3.17-6.68,1.22-2.34,2.5-4.27,3.85-5.81,4.23-4.68,8.12-7.47,11.68-8.37,3.55-.9,6.95-1.35,10.19-1.35h4.73c2.34,0,5.13,1.04,8.37,3.1,3.24,2.07,5.71,4.19,7.43,6.35,3.15,3.78,5.76,9.07,7.83,15.86,2.07,6.8,3.1,14.51,3.1,23.16,0,7.02-.9,14.49-2.7,22.41-.09.63-.13,1.6-.13,2.9s-.05,2.63-.13,3.98c-.09,1.35-.29,2.52-.61,3.51-.32.99-.88,1.49-1.69,1.49-.36,0-.67-.07-.94-.2-.27-.14-.59-.25-.95-.34-.18,0-.32.07-.41.2-.09.14-.13.27-.13.41s-.05.25-.13.34c-.99,3.6-1.49,6.57-1.49,8.91-.09,4.77-.23,9.25-.41,13.43-.18,4.19-.27,8.3-.27,12.35l.13,5.81c0,1.98-.54,2.97-1.62,2.97l-.27-.13Zm-16.61-54.01c3.87-4.23,5.81-13.59,5.81-28.08,0-6.93-.72-12.78-2.16-17.55-.36-.81-1.49-1.8-3.38-2.97-.81-.45-1.53-.68-2.16-.68-2.79.81-4.48,2.41-5.06,4.79-.59,2.39-.88,4.75-.88,7.09v2.57c0,.99-.05,1.89-.13,2.7-.18,1.17-.72,1.75-1.62,1.75s-1.49-.45-1.76-1.35c-.27-.9-.4-1.84-.4-2.84-.09-1.62-.41-3.06-.95-4.32l-.81,6.89c-.18.99-.27,1.98-.27,2.97s.04,2.18.13,3.58c.09,1.4.13,3.08.13,5.06l.54,5.67c0,.9-.13,1.71-.4,2.43-.27.72-.41,1.35-.41,1.89,0,.99.36,1.89,1.08,2.7.36.63.74,1.4,1.15,2.29.41.9.61,2.12.61,3.65s.49,2.79,1.49,3.78c.99.99,2.07,1.49,3.24,1.49,1.98,0,4.05-1.17,6.21-3.51Z" style="fill:#44bba4; stroke-width:0px;"/><path d="m986.27,966.4c-.27-.63-.41-1.44-.41-2.43,0-4.95-.09-9.77-.27-14.45-.18-2.61-.27-4.73-.27-6.35,0-3.33.54-5.54,1.62-6.62,3.33-3.33,5.67-6.12,7.02-8.37,1.35-2.25,3.01-3.38,5-3.38,1.44,0,2.97.63,4.59,1.89l2.43,1.89c1.44.9,2.79,1.98,4.05,3.24.45.45,1.03.67,1.75.67.99,0,2-.2,3.04-.61,1.03-.41,1.87-.61,2.5-.61,2.34-.27,4-1.3,5-3.11.99-1.8,1.49-3.69,1.49-5.67,0-1.62-.25-3.06-.74-4.32-.5-1.26-1.17-2.03-2.03-2.29-.86-.27-1.69-.58-2.5-.95-1.26-.54-2.61-.9-4.05-1.08-.54,0-.86.36-.94,1.08-.36,1.26-.54,2.39-.54,3.38v2.3c0,.72-.11,1.24-.34,1.55-.23.32-.7.47-1.42.47-1.17,0-1.85-1.12-2.03-3.38-.18-2.25-.72-4-1.62-5.27-1.08-1.08-2.93-1.98-5.54-2.7-1.8-.63-3.56-1.37-5.27-2.23-1.71-.85-3.02-2.05-3.92-3.58-.36-.36-.86-.56-1.49-.61-.63-.04-1.24-.25-1.82-.61-.59-.36-.92-1.12-1.01-2.29-.27-4.68-.72-8.33-1.35-10.94-.54-1.89-.81-3.69-.81-5.4,0-1.98.49-4.23,1.49-6.75l1.35-5c1.44-5.31,4.77-9.59,9.99-12.83,1.89-1.17,3.15-1.8,3.78-1.89,1.53-.18,3.01-.54,4.46-1.08,2.34-.81,5.85-1.22,10.53-1.22,3.06,0,5.17.14,6.35.41,1.17.27,3.15.41,5.94.41,2.25,0,4.46,1.21,6.62,3.65.81.81,1.49,1.35,2.03,1.62,1.71.54,3.13,1.58,4.25,3.11,1.12,1.53,1.69,3.15,1.69,4.86v2.43l-.13,1.08.13,8.24c0,3.06-.13,5.56-.41,7.49-.27,1.94-.95,2.9-2.03,2.9-.54,0-.9-.2-1.08-.61-.18-.41-.32-1.06-.41-1.96,0-.54.04-1.1.14-1.69.09-.58.13-1.24.13-1.96,0-.36-.05-.81-.13-1.35-.09-.54-.23-1.01-.41-1.42-.18-.41-.41-.61-.67-.61-.18,0-.36.18-.54.54-.36.72-.81,1.26-1.35,1.62-.54.36-1.01.65-1.42.88-.4.23-.74.38-1.01.47-1.62.99-2.61,1.94-2.97,2.84-.36.9-.54,1.67-.54,2.29v.41c0,1.26-.5,1.89-1.49,1.89-.81-.09-1.33-.43-1.55-1.01-.23-.58-.34-1.37-.34-2.36,0-3.33-.13-5.67-.4-7.02-.27-1.35-.9-2.57-1.89-3.65-2.16-1.8-4.55-2.92-7.16-3.38-.9-.36-1.8-.63-2.7-.81-1.26,0-2.25,1.67-2.97,5l-.67,3.38c-.18.72-.63,1.08-1.35,1.08-1.17,0-1.75-1.49-1.75-4.46-1.26,2.25-1.89,4.19-1.89,5.81,0,2.25.74,4.01,2.23,5.27,1.49,1.26,2.9,1.89,4.25,1.89.36-.09.65-.16.88-.2.22-.04.83-.07,1.82-.07,2.97,0,6.39.86,10.26,2.57,3.87,1.71,6.7,3.29,8.51,4.73,2.7,2.07,5.02,4.43,6.95,7.09,1.93,2.66,2.9,5.79,2.9,9.38l-.14,5.67-.13,3.24-.81,4.46c-.36,2.25-.72,3.71-1.08,4.39-.36.67-.59,1.46-.68,2.36l-2.83,18.9c-.27,2.25-1.13,3.38-2.57,3.38-.99-.09-1.62-.61-1.89-1.55-.27-.95-.4-2.5-.4-4.66,0-1.71-.07-2.93-.2-3.64-.13-.72-.47-1.08-1.01-1.08l-.81.13-3.78,1.75c-1.35.54-2.43.99-3.24,1.35-.81.36-2.12.54-3.92.54l-7.43-.14c-2.43,0-4.91.27-7.43.81-.54,0-1.06-.07-1.55-.2-.5-.14-.97-.2-1.42-.2-.54,0-1.01.25-1.42.74-.41.49-.65,1.6-.74,3.31,0,.63-.16,1.1-.47,1.42-.32.31-.65.47-1.01.47-1.08,0-1.89-1.04-2.43-3.1-.81-2.88-2.66-5.58-5.54-8.1-.45-.36-.86-.54-1.22-.54-.81,0-1.21,1.57-1.21,4.73l.13,3.51v4.05c0,2.07-.16,3.87-.47,5.4-.32,1.53-1.01,2.29-2.09,2.29-.9,0-1.48-.32-1.75-.95Z" style="fill:#44bba4; stroke-width:0px;"/><path d="m1108.45,981.93c-1.53-.18-2.29-3.74-2.29-10.67l.13-9.72c0-3.69-.2-6.91-.61-9.65-.41-2.75-1.42-4.12-3.04-4.12-.72,0-1.62.43-2.7,1.28-1.08.85-2.59,1.6-4.52,2.23-1.94.63-5.25.94-9.92.94-5.85-.45-9.99-1.35-12.42-2.7-1.35-.81-2.43-1.21-3.24-1.21-1.08,0-1.8,1.12-2.16,3.38l-.54,3.24c-.72,2.61-1.08,5.26-1.08,7.97l.13,1.08c-.27,1.8-.94,2.7-2.02,2.7-.72,0-1.42-.45-2.09-1.35-.68-.9-1.01-2.29-1.01-4.19l.13-2.16c0-6.84-1.21-15.66-3.65-26.46l-1.35-5.94c-.63-3.24-1.04-5.54-1.22-6.89-.18-1.35-.32-2.14-.41-2.36-.09-.22-.23-.34-.4-.34-1.98,0-2.97-1.44-2.97-4.32,0-2.16.38-4.86,1.15-8.1.76-3.24,1.67-6.77,2.7-10.6,1.03-3.82,2.05-7.76,3.04-11.81.27-.9.85-2.41,1.75-4.52.9-2.11,1.96-4.34,3.17-6.68,1.22-2.34,2.5-4.27,3.85-5.81,4.23-4.68,8.12-7.47,11.68-8.37,3.55-.9,6.95-1.35,10.19-1.35h4.73c2.34,0,5.13,1.04,8.37,3.1,3.24,2.07,5.71,4.19,7.43,6.35,3.15,3.78,5.76,9.07,7.83,15.86,2.07,6.8,3.1,14.51,3.1,23.16,0,7.02-.9,14.49-2.7,22.41-.09.63-.13,1.6-.13,2.9s-.05,2.63-.13,3.98c-.09,1.35-.29,2.52-.61,3.51-.32.99-.88,1.49-1.69,1.49-.36,0-.67-.07-.94-.2-.27-.14-.59-.25-.95-.34-.18,0-.32.07-.41.2-.09.14-.13.27-.13.41s-.05.25-.13.34c-.99,3.6-1.49,6.57-1.49,8.91-.09,4.77-.23,9.25-.41,13.43-.18,4.19-.27,8.3-.27,12.35l.13,5.81c0,1.98-.54,2.97-1.62,2.97l-.27-.13Zm-16.61-54.01c3.87-4.23,5.81-13.59,5.81-28.08,0-6.93-.72-12.78-2.16-17.55-.36-.81-1.49-1.8-3.38-2.97-.81-.45-1.53-.68-2.16-.68-2.79.81-4.48,2.41-5.06,4.79-.59,2.39-.88,4.75-.88,7.09v2.57c0,.99-.05,1.89-.13,2.7-.18,1.17-.72,1.75-1.62,1.75s-1.49-.45-1.76-1.35c-.27-.9-.4-1.84-.4-2.84-.09-1.62-.41-3.06-.95-4.32l-.81,6.89c-.18.99-.27,1.98-.27,2.97s.04,2.18.13,3.58c.09,1.4.13,3.08.13,5.06l.54,5.67c0,.9-.13,1.71-.4,2.43-.27.72-.41,1.35-.41,1.89,0,.99.36,1.89,1.08,2.7.36.63.74,1.4,1.15,2.29.41.9.61,2.12.61,3.65s.49,2.79,1.49,3.78c.99.99,2.07,1.49,3.24,1.49,1.98,0,4.05-1.17,6.21-3.51Z" style="fill:#44bba4; stroke-width:0px;"/></g></svg>