<?xml version="1.0" encoding="UTF-8"?><svg id="a" xmlns="http://www.w3.org/2000/svg" xmlns:xlink="http://www.w3.org/1999/xlink" viewBox="0 0 1536 1024"><defs><filter id="b" filterUnits="userSpaceOnUse"><feOffset dx="14.07" dy="14.07"/><feGaussianBlur result="c" stdDeviation="0"/><feFlood flood-color="#000" flood-opacity="1"/><feComposite in2="c" operator="in"/><feComposite in="SourceGraphic"/></filter></defs><g style="filter:url(#b);"><path d="m149.99,240.28v108.33h-38.69v-108.33h38.69Z" style="fill:#fff; stroke-width:0px;"/><path d="m161.13,528.96c-4.23,3.82-8.83,6.73-13.81,8.74-4.98,2.01-10.1,3.02-15.36,3.02-7.69,0-13.89-2.14-18.61-6.42-4.72-4.28-7.08-9.85-7.08-16.71,0-8.15,3.13-14.47,9.4-18.96,6.27-4.49,15.08-6.73,26.43-6.73,2.99,0,6.01.19,9.05.58,3.04.39,6.16.99,9.36,1.82v-.54c0-5.93-1.42-10.32-4.26-13.15-2.84-2.84-7.25-4.26-13.23-4.26-4.02,0-8.51,1.08-13.46,3.25-4.95,2.17-8.23,3.25-9.83,3.25-1.5,0-2.73-.61-3.71-1.82-.98-1.21-1.47-2.77-1.47-4.68,0-3.04,2.85-5.62,8.55-7.74,5.7-2.11,12.99-3.17,21.86-3.17s15.94,2.31,20.58,6.92c4.64,4.62,6.96,11.44,6.96,20.47v35.05h3.79c3.66,0,6.11.39,7.35,1.16,1.24.77,1.86,2.17,1.86,4.18,0,1.86-.52,3.25-1.55,4.18-1.03.93-2.58,1.39-4.64,1.39h-12.15c-1.44,0-2.63-.44-3.56-1.32-.93-.88-1.55-2.14-1.86-3.79l-.62-4.72Zm-.62-24.38c-2.84-.93-5.58-1.61-8.24-2.05-2.66-.44-5.3-.66-7.93-.66-7.94,0-14.21,1.34-18.8,4.02-4.59,2.68-6.89,6.29-6.89,10.83,0,3.51,1.43,6.4,4.29,8.67,2.86,2.27,6.51,3.4,10.95,3.4,6.55,0,12.62-1.71,18.22-5.15,5.6-3.43,8.4-7,8.4-10.72v-8.36Z" style="fill:#f45b69; stroke-width:0px;"/><path d="m267.14,495.68c0-7.27-.66-12.19-1.97-14.74-1.31-2.55-3.56-3.83-6.75-3.83-3.8,0-6.82,1.65-9.06,4.95-2.24,3.3-3.35,7.84-3.35,13.62v32.19h1.38c3.12,0,5.21.37,6.25,1.12,1.05.75,1.57,2.15,1.57,4.22,0,1.86-.44,3.25-1.32,4.18-.88.93-2.22,1.39-4.02,1.39h-9.83c-2.22,0-3.73-.51-4.53-1.55-.8-1.03-1.2-3.25-1.2-6.65v-40.93c0-3.87-.88-6.93-2.63-9.17-1.75-2.24-4.15-3.37-7.2-3.37-2.32,0-4.45.68-6.38,2.05-1.93,1.37-3.6,3.39-4.99,6.07v42.64h2.84c3.07,0,5.15.39,6.22,1.16,1.08.77,1.61,2.17,1.61,4.18,0,2.12-.44,3.57-1.31,4.37s-2.55,1.2-5.02,1.2h-20.53c-2.01,0-3.49-.45-4.44-1.35-.95-.9-1.43-2.31-1.43-4.22,0-2.06.6-3.47,1.81-4.22,1.2-.75,3.54-1.12,7.03-1.12h1.54v-49.68h-1.38c-3.58,0-6.03-.41-7.34-1.23-1.31-.82-1.96-2.25-1.96-4.3,0-1.79.52-3.14,1.55-4.03,1.03-.9,2.58-1.34,4.64-1.34h11.84c1.7,0,2.82.29,3.37.88.54.59.86,1.83.97,3.73,2.12-2.26,4.39-3.93,6.82-5,2.43-1.08,5.17-1.62,8.22-1.62,3.62,0,6.6.78,8.95,2.35,2.35,1.56,4.09,3.94,5.23,7.12,2.17-3.23,4.67-5.62,7.51-7.16s6.09-2.31,9.76-2.31c6.66,0,11.52,2.17,14.6,6.5,3.07,4.33,4.61,11.35,4.61,21.05v35.05h1.23c3.17,0,5.29.39,6.37,1.16,1.07.77,1.61,2.17,1.61,4.18,0,1.86-.46,3.25-1.39,4.18s-2.3,1.39-4.1,1.39h-9.36c-2.06,0-3.59-.62-4.56-1.86-.98-1.24-1.47-3.2-1.47-5.88v-35.36Z" style="fill:#f45b69; stroke-width:0px;"/><path d="m102.16,722.61l16.64-2.38h3.17l18.23,2.38v6.34h-38.04v-6.34Zm9.98-94.93l9.83,3.8-19.02-2.38v-6.34h23.77l65.77,90.49v16.8h-5.07l-75.28-102.38Zm3.49-4.91l7.92,6.34v99.84h-7.92v-106.18Zm52.3,0h38.03v6.34l-15.85,2.38h-3.17l-19.02-2.38v-6.34Zm16.64,0h7.92v107.29l-7.92-7.92v-99.37Z" style="fill:#fff; stroke-width:0px;"/><path d="m313.57,675.86c0,34.71-23.77,55.47-48.34,55.47s-48.49-19.33-48.49-55.47,24.09-55.47,48.49-55.47,48.34,19.33,48.34,55.47Zm-48.34,47.54c22.35,0,31.7-23.77,31.7-47.54s-9.35-47.54-31.7-47.54-31.85,23.77-31.85,47.54,9.51,47.54,31.85,47.54Z" style="fill:#fff; stroke-width:0px;"/><path d="m329.57,630.7l7.13-7.92-5.07,28.21h-8.88l1.27-28.21h86.53l1.27,28.21h-8.87l-5.07-28.21,7.13,7.92h-75.44Zm39.3,89.54l22.19,2.38v6.34h-47.54v-6.34l22.19-2.38h3.17Zm-8.72-48.34c0-16.32,0-32.8-.48-49.13h15.21c-.48,16.01-.48,32.49-.48,49.13v7.92c0,16.32,0,32.8.48,49.13h-15.21c.48-16.01.48-32.49.48-49.13v-7.92Z" style="fill:#fff; stroke-width:0px;"/><path d="m160.95,831.64h-38.51c-2.75,0-4.12-1.37-4.12-4.12v-9.98c0-2.43,1.37-3.64,4.12-3.64h85.1c2.64,0,3.96,1.22,3.96,3.64v80.82c0,2.43-1.37,3.64-4.12,3.64h-10.62c-2.43,0-3.65,1.37-3.65,4.12v9.98c0,2.64-1.43,3.96-4.28,3.96h-85.1c-2.64,0-3.96-1.32-3.96-3.96v-63.23c0-2.54,1.43-3.8,4.28-3.8h56.89c2.85,0,4.28-1.27,4.28-3.8v-9.83c0-2.54-1.43-3.8-4.28-3.8Zm-14.74,38.98v27.73c0,2.43,1.43,3.64,4.28,3.64h10.46c2.85,0,4.28-1.21,4.28-3.64v-27.73c0-2.54-1.43-3.8-4.28-3.8h-10.46c-2.85,0-4.28,1.27-4.28,3.8Z" style="fill:#fff; stroke-width:0px;"/><path d="m291.14,832.75c.9-.74,1.82-1.11,2.77-1.11h10.46c2.64,0,3.96-1.37,3.96-4.12v-9.67c0-2.64,1.37-3.96,4.12-3.96h84.94c2.85,0,4.28,1.32,4.28,3.96v45.17c0,2.54-1.48,3.8-4.44,3.8h-38.19c-2.75,0-4.12-1.27-4.12-3.8v-27.42c0-2.64-1.27-3.96-3.8-3.96h-10.62c-2.85,0-4.28,1.32-4.28,3.96v80.82c0,2.43-1.32,3.65-3.96,3.65h-38.51c-2.64,0-3.96-1.32-3.96-3.96v-80.5c0-1.16.45-2.11,1.35-2.85Z" style="fill:#f2e863; stroke-width:0px;"/><path d="m523.22,900.98c-.85.69-1.85,1.03-3.01,1.03h-10.46c-2.64,0-3.96,1.32-3.96,3.96v9.98c0,2.64-1.32,3.96-3.96,3.96h-85.73c-1.16,0-1.96-.37-2.38-1.11-.32-.21-.58-.58-.79-1.11-.21-.53-.32-1.11-.32-1.74v-80.35c.1-1.16.61-2.11,1.51-2.85.9-.74,1.82-1.11,2.77-1.11h10.46c2.64,0,3.96-1.37,3.96-4.12v-9.67c0-2.64,1.37-3.96,4.12-3.96h85.42c1.37,0,2.22.32,2.54.95.74.53,1.11,1.32,1.11,2.38v80.98c0,1.16-.42,2.09-1.27,2.77Zm-59.74-69.33c-2.85,0-4.28,1.32-4.28,3.96v66.08h15.21c2.32,0,3.49-1.16,3.49-3.49v-63.23c0-2.22-1.27-3.33-3.8-3.33h-10.62Z" style="fill:#f2e863; stroke-width:0px;"/><path d="m582.49,817.54v27.73c0,2.54,1.27,3.8,3.8,3.8h57.37c2.75,0,4.12,1.27,4.12,3.8v63.23c0,2.64-1.32,3.96-3.96,3.96h-85.26c-2.75,0-4.12-1.32-4.12-3.96v-9.98c0-2.75-1.32-4.12-3.96-4.12h-10.14c-2.85,0-4.28-1.21-4.28-3.64v-80.82c0-2.43,1.32-3.64,3.96-3.64h38.51c2.64,0,3.96,1.22,3.96,3.64Zm14.74,49.29h-10.46c-2.85,0-4.28,1.27-4.28,3.8v27.73c0,2.43,1.43,3.64,4.28,3.64h10.46c2.85,0,4.28-1.21,4.28-3.64v-27.73c0-2.54-1.43-3.8-4.28-3.8Z" style="fill:#f2e863; stroke-width:0px;"/><path d="m769.33,900.98c-.85.69-1.85,1.03-3.01,1.03h-10.46c-2.64,0-3.96,1.32-3.96,3.96v9.98c0,2.64-1.32,3.96-3.96,3.96h-85.73c-1.16,0-1.96-.37-2.38-1.11-.32-.21-.58-.58-.79-1.11-.21-.53-.32-1.11-.32-1.74v-80.35c.1-1.16.61-2.11,1.51-2.85.9-.74,1.82-1.11,2.77-1.11h10.46c2.64,0,3.96-1.37,3.96-4.12v-9.67c0-2.64,1.37-3.96,4.12-3.96h85.42c1.37,0,2.22.32,2.54.95.74.53,1.11,1.32,1.11,2.38v80.98c0,1.16-.42,2.09-1.27,2.77Zm-59.74-69.33c-2.85,0-4.28,1.32-4.28,3.96v66.08h15.21c2.32,0,3.49-1.16,3.49-3.49v-63.23c0-2.22-1.27-3.33-3.8-3.33h-10.62Z" style="fill:#f2e863; stroke-width:0px;"/><path d="m828.6,827.68v-9.83c0-2.64,1.43-3.96,4.28-3.96h19.81c2.64,0,3.96,1.32,3.96,3.96v27.42c0,2.75,1.43,4.12,4.28,4.12h28.68c2.64,0,3.96,1.32,3.96,3.96v9.67c0,2.54-1.32,3.8-3.96,3.8h-28.68c-2.85,0-4.28,1.27-4.28,3.8v27.89c0,2.54,1.43,3.8,4.28,3.8h29c2.64,0,3.96,1.27,3.96,3.8v9.98c0,2.54-1.32,3.8-3.96,3.8h-75.43c-2.75,0-4.12-1.27-4.12-3.8v-45.48c0-2.54-1.32-3.8-3.96-3.8h-20.6c-2.54,0-3.8-1.27-3.8-3.8v-27.26c.32-2.75,1.8-4.12,4.44-4.12h38.19c2.64,0,3.96-1.32,3.96-3.96Z" style="fill:#f2e863; stroke-width:0px;"/></g></svg>