<?xml version="1.0" encoding="UTF-8"?><svg id="a" xmlns="http://www.w3.org/2000/svg" xmlns:xlink="http://www.w3.org/1999/xlink" viewBox="0 0 1536 1024"><defs><filter id="b" filterUnits="userSpaceOnUse"><feOffset dx="8.25" dy="8.25"/><feGaussianBlur result="c" stdDeviation="0"/><feFlood flood-color="#3a7ca5" flood-opacity="1"/><feComposite in2="c" operator="in"/><feComposite in="SourceGraphic"/></filter></defs><g style="filter:url(#b);"><path d="m251.17,626.19c-15.08-4.07-23.14-12.57-24.09-25.48v-1.73c0-10.49,4.07-16.73,12.22-18.72,1.65-.26,3.21-.43,4.51-.43,2.34,0,3.81.35,4.25,1.04.26.26.43.78.43,1.39-.26,2.34-.35,4.59-.35,6.93,0,2.86.26,5.11.69,6.76.78,2.69,2.69,5.29,5.72,7.97,3.55,3.38,7.11,5.63,10.49,6.93,3.47,1.21,6.24,1.82,8.41,1.82,6.85,0,10.31-4.51,10.31-13.52,0-5.81-1.99-12.91-5.98-21.41-3.81-8.06-8.75-15.86-14.91-23.4-9.54-11.61-15.95-18.98-19.24-22.1-1.91-1.73-4.25-4.59-6.93-8.49-5.89-8.15-9.45-14.65-10.57-19.41-1.13-4.77-1.73-8.67-1.73-11.53,0-3.81.61-7.63,1.91-11.53,5.72-17.07,17.16-27.56,34.23-31.46,2.95-.61,6.5-.95,10.57-.95,6.33,0,11.61.61,15.95,1.73,13.52,4.42,21.49,13.26,24.01,26.61.26,1.73.43,3.9.43,6.59-.17,2.08-.69,5.37-1.56,9.79-.69,3.73-1.39,6.33-2.17,7.97-1.13,2.34-3.21,3.55-6.24,3.55-2.69,0-4.94-.52-6.59-1.65-.78-.43-1.21-1.13-1.3-1.99v-1.13c0-1.65.09-3.73.17-6.15.09-1.65.17-3.21.17-4.68,0-9.97-2.6-17.51-7.89-22.62-2.17-2.34-3.64-3.55-4.25-3.73-.61-.26-1.13-.35-1.39-.35-.78,0-1.65.43-2.6,1.21-5.81,5.63-8.75,14.82-8.75,27.56,0,2.25.09,4.07.35,5.37.26,1.56.78,3.47,1.73,5.63,1.47,3.9,3.64,7.71,6.59,11.53s8.15,9.53,15.69,17.07c7.71,7.89,13.43,14.21,17.07,18.98s6.5,9.71,8.58,14.82c3.03,6.85,4.51,12.91,4.51,18.2,0,3.21-.69,7.11-2.17,11.87-1.04,3.38-2.08,5.98-3.12,7.71-7.97,12.05-21.49,19.93-40.65,23.83-3.55.61-7.54.95-11.79.95-6.15,0-11.09-.43-14.73-1.39Zm-6.85-130.52c2.25-9.71,4.25-16.29,5.89-19.85,1.47-3.29,2.17-5.29,2.17-6.07s-.69-1.47-2.17-2.17c-1.39-.78-2.77-1.13-4.07-1.13-2.77,0-5.2,2.34-7.37,7.02-2.17,4.59-3.21,9.53-3.21,14.65,0,2.51.17,4.33.61,5.46.52,1.56,1.73,2.69,3.64,3.47.78.35,1.39.52,1.99.52,1.73,0,2.25-.43,2.51-1.91Zm2.6,16.03c0-1.99-.78-3.73-2.34-5.11-1.04-.78-2.25-1.21-3.55-1.21-1.73,0-2.6.61-2.6,1.73,0,.87.26,1.82.87,2.86,1.47,2.51,3.29,3.81,5.29,3.81,1.56,0,2.34-.69,2.34-2.08Zm68.9,82.51c2.51-4.94,2.17-8.32,2.17-9.1,0-3.03-.95-5.55-2.86-7.37-1.65-1.47-3.38-2.25-5.11-2.25-1.04,0-1.56.35-1.56,1.13,0,.17.09.43.17.69.61,1.39.87,4.07.87,7.97,0,3.03-.17,5.29-.52,6.76-.26,1.21-.43,2.08-.43,2.69,0,.69.26,1.3.87,1.91.87.87,1.73,1.3,2.51,1.3,1.39,0,2.69-1.21,3.9-3.73Z" style="fill:#f2e863; stroke-width:0px;"/><path d="m364.96,626.54c-3.38-.61-5.98-2.77-7.71-6.5-4.42-8.32-8.23-22.27-11.53-41.95-1.47-8.15-2.51-15.34-3.04-21.58-.78-9.62-1.21-23.23-1.21-40.82,0-12.57.87-23.92,2.51-33.89l.09-1.04c0-1.13-.95-1.56-2.95-2.25-7.37-3.21-11.01-8.32-11.01-15.43,0-1.56.35-2.77,1.13-3.73.43-.52,1.56-.78,3.38-.78,2.17,0,5.37.35,9.62,1.13.78.17,1.39.26,1.99.26.78,0,1.39-.17,1.82-.52.69-.69,1.39-2.43,2.17-5.29,2.08-8.06,5.2-15.17,7.89-18.37,2.34-2.86,5.46-4.25,9.45-4.25.78,0,1.65.09,2.51.17,9.27,1.13,15.34,4.68,18.11,10.66,1.47,3.81,2.51,10.66,3.12,20.54,5.89.43,9.27.78,10.23,1.04s1.73.69,2.34,1.3c1.99,1.99,3.03,4.94,3.03,8.67,0,3.03-1.04,5.11-3.03,6.24-1.3.78-3.81,1.47-7.45,2.25-3.99.78-6.15,1.21-6.59,1.47-.26.52-.61,2.95-.95,7.28-1.13,11.27-1.73,26.17-1.73,44.81,0,4.94.09,9.45.26,13.43.35,7.89.61,14.04.69,14.73,0,.61,1.56.95,4.59.95,4.42,0,7.19.95,8.32,2.86.09.17.17.52.17,1.04,0,1.47-.52,4.25-1.65,8.49-3.12,11.87-5.55,22.53-7.19,31.98-.61,3.99-1.39,6.76-2.51,8.32-1.04,1.56-3.21,3.12-6.59,4.77-5.72,2.86-10.75,4.33-14.99,4.33-1.13,0-2.25-.09-3.29-.35Zm-9.71-99.32c.43-2.34.95-5.98,1.39-11.09,1.04-10.14,1.47-18.98,1.47-22.1,0-2.43-.87-3.99-2.51-4.59-.87-.43-1.65-.61-2.34-.61-1.04,0-1.82.43-2.43,1.3-.95,1.47-1.73,4.77-2.34,9.88-.43,3.64-.61,7.45-.61,11.53,0,5.11.26,9.53.78,13.43.52,3.47,1.21,5.55,1.99,6.24.61.43,1.21.69,1.73.69,1.3,0,2.25-1.56,2.86-4.68Zm-.09,28.17c.78-.09,1.13-1.3,1.13-3.81,0-3.73-1.3-5.63-3.9-5.63-1.99,0-3.03,1.13-3.03,3.29,0,.43.09,1.04.17,1.65.61,3.29,1.82,4.94,3.73,4.94.61,0,1.21-.17,1.91-.43Z" style="fill:#f2e863; stroke-width:0px;"/><path d="m423.54,594.73c-5.63-11.09-8.49-23.83-8.49-38.22,0-13.26,1.82-25.05,5.37-35.36,4.25-12.48,10.4-21.23,18.29-26.17,1.65-.95,3.12-1.82,4.59-2.51,4.25-1.99,5.2-2.69,5.2-4.16,0-3.9,3.55-5.89,10.66-5.89,2.34,0,4.85.43,7.37,1.21,2.43.95,5.81,3.03,10.23,6.41,3.55,2.77,6.67,4.85,9.45,6.33,2.77,1.39,6.67,2.86,11.79,4.33,11.53,3.47,15.52,6.07,15.52,9.88,0,1.73-.61,2.43-3.04,3.73-2.6,1.47-3.9,1.56-9.88,1.56s-9.01.09-9.01.26.43,1.13,1.39,2.86c2.08,4.07,4.16,10.75,6.15,19.93,1.47,6.5,2.17,13.26,2.17,20.11,0,14.47-2.86,27.73-8.58,39.78-4.42,9.88-11.62,15.69-21.49,17.51-3.21.61-6.85.95-10.92.95-16.99,0-29.21-7.54-36.75-22.53Zm10.14-34.58c0-3.9-1.73-5.81-5.2-5.81-1.65,0-2.51.69-2.51,2.08,0,1.13.43,2.43,1.39,4.07,1.13,1.99,2.34,3.03,3.73,3.03,1.73,0,2.6-1.13,2.6-3.38Zm.17-17.59c.61-1.39,1.91-4.94,3.73-10.57,2.51-7.89,4.68-14.13,6.41-18.55,1.47-3.81,2.25-6.15,2.25-7.11,0-.78-.35-1.56-1.04-2.17-.78-.87-1.82-1.3-3.12-1.3-3.38,0-6.5,3.55-9.36,10.66-3.73,9.1-5.11,17.59-5.11,22.01,0,1.47.09,2.77.35,3.9.96,3.9,1.82,5.11,3.9,5.11.78,0,1.39-.69,1.99-1.99Zm39.7,45.85c4.42-9.19,6.59-18.81,6.59-28.95,0-6.85-1.13-14.13-3.38-22.01-2.43-8.58-4.07-12.83-4.85-12.83-.87,0-2.17,4.16-3.99,12.48-1.99,9.45-3.03,18.46-3.03,26.95,0,7.37.78,14.39,2.25,20.97,1.47,5.81,2.34,8.75,2.69,8.75.69,0,1.91-1.82,3.73-5.37Z" style="fill:#f2e863; stroke-width:0px;"/><path d="m540.37,616.92c-4.51-.95-7.71-2.34-9.71-4.33-1.91-1.99-3.55-5.72-5.03-11.09-3.21-10.66-4.85-24.18-4.85-40.73s1.21-33.02,3.73-47.67c1.56-10.14,3.38-16.55,5.55-19.41,2.17-2.86,5.2-4.25,9.19-4.25,8.15,0,13.95,2.25,17.42,6.85,3.03,3.99,4.77,10.49,5.2,19.59l.43,7.71,4.25-5.55c4.77-6.07,9.36-9.88,13.78-11.53,1.73-.52,3.55-.78,5.46-.78,1.56,0,3.21.17,4.94.52,3.81.87,6.93,2.34,9.27,4.51,1.39,1.21,2.08,2.34,2.08,3.29,0,1.3-1.13,2.51-3.47,3.64-2.17,1.13-4.07,2.69-5.55,4.59-1.82,2.34-3.99,5.81-6.5,10.57-5.98,11.01-11.96,25.65-17.94,43.85-3.73,11.53-6.15,20.28-7.28,26.17-.78,4.77-1.56,7.97-2.51,9.62-1.82,3.21-6.5,4.77-14.21,4.77-1.65,0-3.03-.09-4.25-.35Zm-4.42-74.8c.43-.61.61-1.21.61-1.82,0-2.43-3.12-3.47-4.85-3.47-1.82,0-2.77.78-2.77,2.43,0,.43.09.95.26,1.56,1.13,2.77,3.47,2.6,4.07,2.6,1.13,0,1.99-.43,2.69-1.3Zm1.21-12.48c.43-.35,1.21-3.81,2.43-10.4,1.13-5.98,1.82-10.49,1.91-13.35,0-2.08-1.65-3.21-4.85-3.38h-2.6l-1.65,4.94c-1.21,3.38-1.82,7.63-1.82,12.65,0,6.24.52,8.75,2.95,9.45,1.65.69,1.99.69,2.6.69.26-.09.61-.26,1.04-.61Z" style="fill:#f2e863; stroke-width:0px;"/><path d="m693.51,654.45c-3.55-1.3-8.06-5.11-10.14-8.93-2.95-4.59-4.59-21.75-5.03-51.66l-.43-26.61-3.73,8.06c-3.47,7.71-6.5,13.43-9.01,17.25-2.51,3.81-4.94,6.15-7.28,7.11s-4.85,1.39-7.45,1.39c-1.21,0-2.51-.09-3.99-.26-22.62-1.99-33.97-18.03-33.97-48.1,0-11.79,1.91-21.84,5.63-30.07,2.51-5.46,5.55-8.75,9.1-9.88,1.73-.43,3.55-.61,5.46-.61,2.51,0,5.11.35,7.97,1.04,4.94,1.3,9.19,3.29,12.57,6.15,2.86,2.17,4.51,5.11,5.03,8.67.61,3.55.87,7.37.87,11.27,0,4.25-.26,9.36-.69,15.34-.43,5.29-.61,9.45-.61,12.48,0,.78.09,1.21.17,1.21.61,0,2.34-2.34,5.2-7.11,2.51-4.25,6.07-11.7,10.66-22.36,2.86-6.85,5.03-12.13,6.33-15.86,1.13-3.64,2.17-8.15,2.95-13.43,1.99-12.57,4.51-20.45,7.54-23.66,3.12-3.29,6.41-4.94,9.97-4.94,2.43,0,5.11.52,7.97,1.65,6.5,2.34,10.75,5.37,12.74,9.01,1.56,3.03,2.34,8.15,2.34,15.34,0,2.6-.09,5.46-.35,8.58-2.69,42.21-4.16,76.36-4.59,102.53-.26,14.3-.61,22.71-1.04,25.13-1.39,4.59-3.99,7.97-7.71,10.05-2.86,1.3-6.33,1.99-10.4,1.99-2.17,0-4.25-.26-6.07-.78Zm-67.17-101.92c.61-.35,1.21-1.56,1.82-3.55.61-1.99,1.73-9.01,3.55-20.89l-1.65-1.3c-1.13-.87-2.34-1.3-3.81-1.3-.87,0-1.65.17-2.34.52-1.39,1.04-2.43,3.29-3.12,6.85-.69,3.47-1.04,6.93-1.04,10.4,0,6.5,1.56,9.71,4.77,9.71.61,0,1.21-.17,1.82-.43Zm1.21,20.54c.43-.52.69-1.73.69-3.73,0-3.29-1.47-4.94-4.42-4.94-1.65,0-2.43,1.04-2.43,3.21v.35c.52,3.73,1.99,5.55,4.33,5.55.95,0,1.56-.17,1.82-.43Zm65.78,22.71c.69-29.55,1.21-48.97,1.65-58.33.26-3.9.43-7.28.43-10.14,0-4.07-1.12-6.07-3.29-6.07-.61,0-1.21.26-1.82.87-.69,1.13-1.39,4.68-1.99,10.75-.61,5.98-.95,12.65-1.21,19.85-.26,7.19-.35,13.87-.35,19.85,0,8.93.17,15.08.43,18.46.35,4.77,1.47,5.11,3.21,5.11l2.95-.35Z" style="fill:#f2e863; stroke-width:0px;"/><path d="m766.66,626.54c-3.38-.61-5.98-2.77-7.71-6.5-4.42-8.32-8.23-22.27-11.53-41.95-1.47-8.15-2.51-15.34-3.04-21.58-.78-9.62-1.21-23.23-1.21-40.82,0-12.57.87-23.92,2.51-33.89l.09-1.04c0-1.13-.95-1.56-2.95-2.25-7.37-3.21-11.01-8.32-11.01-15.43,0-1.56.35-2.77,1.13-3.73.43-.52,1.56-.78,3.38-.78,2.17,0,5.37.35,9.62,1.13.78.17,1.39.26,1.99.26.78,0,1.39-.17,1.82-.52.69-.69,1.39-2.43,2.17-5.29,2.08-8.06,5.2-15.17,7.89-18.37,2.34-2.86,5.46-4.25,9.45-4.25.78,0,1.65.09,2.51.17,9.27,1.13,15.34,4.68,18.11,10.66,1.47,3.81,2.51,10.66,3.12,20.54,5.89.43,9.27.78,10.23,1.04s1.73.69,2.34,1.3c1.99,1.99,3.03,4.94,3.03,8.67,0,3.03-1.04,5.11-3.03,6.24-1.3.78-3.81,1.47-7.45,2.25-3.99.78-6.15,1.21-6.59,1.47-.26.52-.61,2.95-.95,7.28-1.13,11.27-1.73,26.17-1.73,44.81,0,4.94.09,9.45.26,13.43.35,7.89.61,14.04.69,14.73,0,.61,1.56.95,4.59.95,4.42,0,7.19.95,8.32,2.86.09.17.17.52.17,1.04,0,1.47-.52,4.25-1.65,8.49-3.12,11.87-5.55,22.53-7.19,31.98-.61,3.99-1.39,6.76-2.51,8.32-1.04,1.56-3.21,3.12-6.59,4.77-5.72,2.86-10.75,4.33-14.99,4.33-1.13,0-2.25-.09-3.29-.35Zm-9.71-99.32c.43-2.34.95-5.98,1.39-11.09,1.04-10.14,1.47-18.98,1.47-22.1,0-2.43-.87-3.99-2.51-4.59-.87-.43-1.65-.61-2.34-.61-1.04,0-1.82.43-2.43,1.3-.95,1.47-1.73,4.77-2.34,9.88-.43,3.64-.61,7.45-.61,11.53,0,5.11.26,9.53.78,13.43.52,3.47,1.21,5.55,1.99,6.24.61.43,1.21.69,1.73.69,1.3,0,2.25-1.56,2.86-4.68Zm-.09,28.17c.78-.09,1.13-1.3,1.13-3.81,0-3.73-1.3-5.63-3.9-5.63-1.99,0-3.03,1.13-3.03,3.29,0,.43.09,1.04.17,1.65.61,3.29,1.82,4.94,3.73,4.94.61,0,1.21-.17,1.91-.43Z" style="fill:#f2e863; stroke-width:0px;"/><path d="m850.64,624.02c-7.71-2.34-14.39-7.11-20.2-14.3-9.1-11.35-13.69-26.17-13.69-44.46,0-5.2.35-10.66,1.04-16.29,1.65-12.74,4.68-24.7,9.01-35.97,4.42-11.27,9.62-19.93,15.77-25.91,2.17-1.99,4.33-3.55,6.5-4.68,4.42-2.17,11.09-3.55,16.38-3.55,3.38,0,7.28.52,11.61,1.65,14.65,3.47,22.88,11.96,24.53,25.57.35,1.91.52,3.55.52,4.94,0,4.68-1.56,10.23-4.77,16.73-1.82,3.73-3.81,6.85-5.98,9.45-7.28,8.41-16.21,14.21-26.7,17.59l-5.29,1.56c-.61,6.76-.87,11.96-.87,15.51,0,11.01,1.04,21.58,3.03,31.63,1.13,5.89,2.34,8.84,3.64,8.84.61,0,3.12-1.99,7.37-6.07,4.07-3.81,6.59-6.59,7.71-8.41,1.65-2.77,4.94-4.16,9.97-4.16,3.73,0,5.55,1.13,5.55,3.38,0,1.56-1.39,4.07-4.25,7.63-2.86,3.55-6.07,6.93-9.79,10.31s-6.93,5.89-9.79,7.37c-1.91.95-3.55,1.65-5.03,1.91-1.39.35-3.55.52-6.59.61-4.07,0-7.28-.26-9.71-.87Zm-20.28-48.54c1.39-.09,2.17,0,2.17-2.51l-.09-1.73c0-3.64-1.3-5.46-3.81-5.46-3.55,0-3.47,1.56-3.47,2.69,0,4.68,1.56,7.02,4.68,7.02h.52Zm2.43-18.46c1.13-1.73,2.6-7.54,4.42-17.33,1.65-9.01,3.73-17.16,6.41-24.35,1.3-3.55,1.99-5.81,1.99-6.59,0-.61-1.13-1.56-2.6-2.17-.95-.43-1.73-.69-2.51-.69s-1.47.26-2.08.69c-1.21.95-2.69,3.21-4.42,6.93-4.94,10.92-7.37,22.53-7.37,34.93,0,2.34.09,4.25.26,5.72.43,3.03,3.03,3.73,4.33,3.73.61,0,1.13-.26,1.56-.87Zm33.02-15.25c9.1-6.33,14.91-14.39,17.33-24.01.43-2.25.69-4.59.69-6.93,0-4.77-.78-8.84-2.43-12.13-1.21-2.51-2.17-3.73-2.77-3.73s-2.17,1.65-4.51,4.94c-3.03,4.33-5.72,10.14-7.97,17.33-1.73,5.55-3.03,11.09-3.99,16.64-.69,4.77-1.13,7.63-1.39,8.67l-.09.95c0,.61.09.95.35.95.43,0,2.08-.87,4.77-2.69Z" style="fill:#f2e863; stroke-width:0px;"/><path d="m931.58,631.48c-6.33-3.03-10.75-14.39-13.35-33.89-1.65-12.22-2.77-23.05-3.38-32.41-.61-9.45-.87-21.41-.87-35.88,0-11.53.26-20.63.78-27.47.61-7.45,1.73-15.86,3.38-25.31,2.25-11.01,4.59-18.11,7.02-21.32,2.51-3.21,5.46-4.77,8.84-4.77,1.21,0,2.51.17,3.9.52,8.49,1.82,14.3,5.63,17.42,11.35,3.21,6.07,4.85,19.33,4.85,39.69,0,7.19-.26,15.25-.69,24.35-.52,10.31-.95,28.95-1.21,55.9l-.43,31.98c-.17,5.63-.43,9.01-.87,10.31-.43,1.3-1.3,2.6-2.6,3.73-2.08,1.91-4.25,3.03-6.59,3.47-1.82.43-5.03.61-9.45.61-3.47,0-5.72-.26-6.76-.87Zm-.69-52.61c.61-31.81.95-52.35.95-61.71,0-5.63-.26-9.1-.69-10.4-.52-1.47-1.91-2.25-4.07-2.25-1.3,0-2.25.43-2.77,1.21-.78,1.65-1.39,5.29-1.82,11.09-.61,7.19-.95,14.65-.95,22.19,0,6.15.17,11.87.52,17.07.61,9.1,1.47,15.34,2.43,18.72,1.04,3.29,2.34,4.94,3.81,4.94.35,0,1.21-.26,2.6-.87Zm.61,22.19c.26-.17.43-1.47.43-3.81,0-4.59-.78-5.81-3.55-5.81-2.51,0-2.69,1.13-2.69,2.25,0,.61.09,1.39.26,2.34.43,3.55,1.91,5.29,4.33,5.29.52,0,.95-.09,1.21-.26Zm62.14,18.63c-6.33-2.86-10.75-13.52-13.35-31.81-1.65-11.44-2.77-21.58-3.38-30.33-.61-8.84-.87-20.02-.87-33.63,0-10.75.26-19.33.78-25.74.61-6.93,1.73-14.04,3.38-21.23,2.25-10.31,4.59-16.99,7.02-19.93,2.51-3.03,5.46-4.51,8.84-4.51,1.21,0,2.51.17,3.9.52,8.49,1.73,14.3,5.29,17.42,10.57,3.21,5.63,4.85,17.25,4.85,34.75,0,6.76-.26,14.39-.69,22.79-.52,9.71-.95,27.21-1.21,52.44l-.43,29.9c-.17,5.29-.43,8.49-.87,9.71s-1.3,2.34-2.6,3.47c-2.08,1.82-4.25,2.86-6.59,3.29-1.82.35-5.03.52-9.45.52-3.47,0-5.72-.26-6.76-.78Zm-.69-49.32c.61-29.73.95-49.06.95-57.81,0-5.29-.26-8.58-.69-9.71-.52-1.47-1.91-2.17-4.07-2.17-1.3,0-2.25.35-2.77,1.13-.78,1.56-1.39,5.03-1.82,10.4-.61,6.76-.95,13.69-.95,20.8,0,5.81.17,11.09.52,16.03.61,8.58,1.47,14.39,2.43,17.51,1.04,3.03,2.34,4.59,3.81,4.59.35,0,1.21-.26,2.6-.78Zm.61,20.8c.26-.17.43-1.39.43-3.55,0-4.42-.78-5.46-3.55-5.46-2.51,0-2.69,1.04-2.69,2.17,0,.61.09,1.3.26,2.17.43,3.29,1.91,4.94,4.33,4.94.52,0,.95-.09,1.21-.26Z" style="fill:#f2e863; stroke-width:0px;"/><path d="m1067.82,624.02c-7.71-2.34-14.39-7.11-20.19-14.3-9.1-11.35-13.69-26.17-13.69-44.46,0-5.2.35-10.66,1.04-16.29,1.65-12.74,4.68-24.7,9.01-35.97,4.42-11.27,9.62-19.93,15.77-25.91,2.17-1.99,4.33-3.55,6.5-4.68,4.42-2.17,11.09-3.55,16.38-3.55,3.38,0,7.28.52,11.62,1.65,14.65,3.47,22.88,11.96,24.53,25.57.35,1.91.52,3.55.52,4.94,0,4.68-1.56,10.23-4.77,16.73-1.82,3.73-3.81,6.85-5.98,9.45-7.28,8.41-16.21,14.21-26.69,17.59l-5.29,1.56c-.61,6.76-.87,11.96-.87,15.51,0,11.01,1.04,21.58,3.03,31.63,1.13,5.89,2.34,8.84,3.64,8.84.61,0,3.12-1.99,7.37-6.07,4.07-3.81,6.59-6.59,7.71-8.41,1.65-2.77,4.94-4.16,9.97-4.16,3.73,0,5.55,1.13,5.55,3.38,0,1.56-1.39,4.07-4.25,7.63-2.86,3.55-6.07,6.93-9.79,10.31s-6.93,5.89-9.79,7.37c-1.91.95-3.55,1.65-5.03,1.91-1.39.35-3.55.52-6.59.61-4.07,0-7.28-.26-9.71-.87Zm-20.28-48.54c1.39-.09,2.17,0,2.17-2.51l-.09-1.73c0-3.64-1.3-5.46-3.81-5.46-3.55,0-3.47,1.56-3.47,2.69,0,4.68,1.56,7.02,4.68,7.02h.52Zm2.43-18.46c1.13-1.73,2.6-7.54,4.42-17.33,1.65-9.01,3.73-17.16,6.41-24.35,1.3-3.55,1.99-5.81,1.99-6.59,0-.61-1.12-1.56-2.6-2.17-.95-.43-1.73-.69-2.51-.69s-1.47.26-2.08.69c-1.21.95-2.69,3.21-4.42,6.93-4.94,10.92-7.37,22.53-7.37,34.93,0,2.34.09,4.25.26,5.72.43,3.03,3.04,3.73,4.33,3.73.61,0,1.13-.26,1.56-.87Zm33.02-15.25c9.1-6.33,14.91-14.39,17.33-24.01.43-2.25.69-4.59.69-6.93,0-4.77-.78-8.84-2.43-12.13-1.21-2.51-2.17-3.73-2.77-3.73s-2.17,1.65-4.51,4.94c-3.03,4.33-5.72,10.14-7.97,17.33-1.73,5.55-3.03,11.09-3.99,16.64-.69,4.77-1.13,7.63-1.39,8.67l-.09.95c0,.61.09.95.35.95.43,0,2.08-.87,4.77-2.69Z" style="fill:#f2e863; stroke-width:0px;"/><path d="m1149.03,616.92c-4.51-.95-7.71-2.34-9.71-4.33-1.91-1.99-3.55-5.72-5.03-11.09-3.21-10.66-4.85-24.18-4.85-40.73s1.21-33.02,3.73-47.67c1.56-10.14,3.38-16.55,5.55-19.41,2.17-2.86,5.2-4.25,9.19-4.25,8.15,0,13.95,2.25,17.42,6.85,3.03,3.99,4.77,10.49,5.2,19.59l.43,7.71,4.25-5.55c4.77-6.07,9.36-9.88,13.78-11.53,1.73-.52,3.55-.78,5.46-.78,1.56,0,3.21.17,4.94.52,3.81.87,6.93,2.34,9.27,4.51,1.39,1.21,2.08,2.34,2.08,3.29,0,1.3-1.13,2.51-3.47,3.64-2.17,1.13-4.07,2.69-5.55,4.59-1.82,2.34-3.99,5.81-6.5,10.57-5.98,11.01-11.96,25.65-17.94,43.85-3.73,11.53-6.15,20.28-7.28,26.17-.78,4.77-1.56,7.97-2.51,9.62-1.82,3.21-6.5,4.77-14.21,4.77-1.65,0-3.03-.09-4.25-.35Zm-4.42-74.8c.43-.61.61-1.21.61-1.82,0-2.43-3.12-3.47-4.85-3.47-1.82,0-2.77.78-2.77,2.43,0,.43.09.95.26,1.56,1.13,2.77,3.47,2.6,4.07,2.6,1.13,0,1.99-.43,2.69-1.3Zm1.21-12.48c.43-.35,1.21-3.81,2.43-10.4,1.13-5.98,1.82-10.49,1.91-13.35,0-2.08-1.65-3.21-4.85-3.38h-2.6l-1.65,4.94c-1.21,3.38-1.82,7.63-1.82,12.65,0,6.24.52,8.75,2.95,9.45,1.65.69,1.99.69,2.6.69.26-.09.61-.26,1.04-.61Z" style="fill:#f2e863; stroke-width:0px;"/><path d="m1259.96,618.82c-6.85-1.13-11.44-2.51-13.87-4.33-2.34-1.82-3.55-3.29-3.55-4.51,0-1.73,1.47-3.12,4.42-4.07,1.39-.43,2.95-.87,4.68-1.3,4.77-1.13,7.54-2.17,8.41-3.29s1.3-2.08,1.3-3.03c0-2.69-1.91-5.81-5.72-9.19-2.34-2.08-6.07-5.03-11.01-8.75-15.69-11.61-23.49-23.66-23.49-36.23,0-2.51.35-4.94.95-7.45,1.99-8.58,6.07-17.33,12.13-26.26,6.15-9.01,13.09-16.47,20.89-22.45,3.38-2.51,6.24-4.33,8.67-5.46,2.51-1.21,5.37-2.17,8.67-2.77,2.43-.52,4.42-.78,5.98-.78,1.3,0,2.77.17,4.42.43,6.76,1.21,12.65,4.16,17.59,8.75,2.77,2.69,3.38,3.81,3.38,5.89,0,3.29-1.04,5.11-3.12,5.55-1.21.52-3.38,3.12-6.59,7.71s-6.41,9.79-9.79,15.6c-7.71,13.43-11.53,24.27-11.53,32.41,0,5.81,2.08,11.01,6.24,15.77,8.58,10.23,14.04,17.42,16.47,21.67,2.25,3.81,3.38,6.93,3.38,9.45s-1.47,5.2-4.33,7.89c-3.47,3.03-8.15,5.29-14.04,6.76-5.81,1.47-11.01,2.25-15.43,2.25-1.73,0-3.47-.09-5.11-.26Zm-19.07-86.93c0-3.47-2.86-5.11-4.59-5.11s-2.51,1.39-2.51,4.16c0,1.73.52,2.95,1.56,3.55,1.04.61,1.91.87,2.51.87,1.47,0,3.03-1.3,3.03-3.47Zm9.97-16.9c1.82-2.34,5.46-6.33,11.09-12.05,4.51-4.25,6.76-6.76,6.76-7.71,0-.35-.17-.69-.43-1.04-1.04-1.56-2.43-2.34-4.07-2.34-3.12,0-7.28,2.6-12.39,7.8-2.69,2.77-5.03,5.72-7.11,8.93-2.08,3.12-3.12,5.37-3.12,6.76,0,.95.52,1.91,1.47,2.95.96.95,1.91,1.47,2.77,1.47.78,0,2.51-1.56,5.03-4.77Z" style="fill:#f2e863; stroke-width:0px;"/></g></svg>