<?xml version="1.0" encoding="UTF-8"?><svg id="a" xmlns="http://www.w3.org/2000/svg" viewBox="0 0 1536 1024"><path d="m516.11,199.11c2.47,2.76,3.71,6.12,3.71,10.08,0,2.12-.57,4.14-1.7,6.05-1.13,1.91-2.55,3.71-4.25,5.41s-3.54,3.36-5.52,4.99c-1.98,1.63-3.82,3.15-5.52,4.56,5.66,6.79,9.9,14.22,12.73,22.29,2.83,8.06,4.24,16.42,4.24,25.04,0,5.66-.82,11.29-2.44,16.87-1.63,5.59-4.03,10.65-7.22,15.18-3.18,4.53-7.18,8.21-11.99,11.04-4.81,2.83-10.33,4.25-16.55,4.25-5.66,0-10.58-1.2-14.75-3.61-4.18-2.4-7.64-5.41-10.4-9.02-2.76-3.61-4.85-7.6-6.26-11.99-1.42-4.38-2.12-8.56-2.12-12.52,0-1.13.07-2.3.21-3.5.14-1.2.35-2.37.64-3.5,1.27-1.13,2.69-2.65,4.24-4.56,1.56-1.91,3-3.93,4.35-6.05,1.34-2.12,2.47-4.17,3.4-6.15.92-1.98,1.38-3.61,1.38-4.88,0-2.83-.39-5.94-1.17-9.34-.78-3.4-1.17-6.37-1.17-8.91,0-2.83.78-4.95,2.33-6.37,1.56-1.41,3.32-2.4,5.31-2.97.71-.28,1.73-.92,3.08-1.91,1.34-.99,2.16-2.05,2.44-3.18-.57,0-1.27.18-2.12.53-.85.35-2.55,1.17-5.09,2.44-3.96,2.12-6.44,4.21-7.43,6.26-.99,2.05-1.49,4.07-1.49,6.05,0,2.26.39,4.53,1.17,6.79.78,2.27,1.17,4.46,1.17,6.58,0,3.96-.89,7.64-2.65,11.04-1.77,3.4-4.03,6.37-6.79,8.91-2.76,2.55-5.77,4.56-9.02,6.05-3.26,1.49-6.37,2.23-9.34,2.23-4.11,0-8.14-.81-12.1-2.44-3.96-1.62-7.46-3.82-10.51-6.58-3.04-2.76-5.52-6.01-7.43-9.76-1.91-3.75-2.87-7.75-2.87-11.99,0-2.4.28-4.88.85-7.43.56-2.55,1.2-4.88,1.91-7,.56-.56,1.24-1.27,2.02-2.12.78-.85,1.52-1.77,2.23-2.76.71-.99,1.27-2.02,1.7-3.08.42-1.06.56-2.02.42-2.87-1.42,1.56-2.94,3.4-4.56,5.52-1.63,2.12-3.57,3.18-5.84,3.18-2.55,0-4.78-.6-6.69-1.8-1.91-1.2-3.86-2.37-5.84-3.5.14,1.56.78,2.83,1.91,3.82,1.13.99,2.37,1.84,3.71,2.55,1.34.71,2.69,1.24,4.03,1.59,1.34.35,2.37.53,3.08.53-.14,2.26-.39,4.42-.74,6.47-.35,2.05-.53,4.28-.53,6.69,0,5.94,1.66,11.53,4.99,16.77,3.32,5.24,8.03,9.84,14.11,13.8v4.67c0,4.39-1.31,8.6-3.93,12.63-2.62,4.03-5.87,7.57-9.76,10.61-3.89,3.04-8.14,5.49-12.73,7.32-4.6,1.84-8.81,2.76-12.63,2.76-3.4,0-6.79-.64-10.19-1.91s-6.44-3-9.13-5.2c-2.69-2.19-4.88-4.88-6.58-8.07-1.7-3.18-2.55-6.69-2.55-10.51,0-4.1.85-7.78,2.55-11.04,1.7-3.25,3.96-6.37,6.79-9.34-3.26-2.69-5.94-6.26-8.06-10.72-2.12-4.46-3.18-8.95-3.18-13.48,0-2.4.39-4.88,1.17-7.43.78-2.55,1.73-5.06,2.87-7.53,1.13-2.47,2.33-4.85,3.61-7.11,1.27-2.26,2.47-4.24,3.61-5.94-1.13-4.1-2.65-8.1-4.56-11.99-1.91-3.89-2.87-8.1-2.87-12.63,0-5.23,1.13-10.47,3.4-15.71,2.26-5.23,5.38-9.94,9.34-14.11,3.96-4.17,8.49-7.57,13.58-10.19,5.09-2.62,10.54-3.93,16.34-3.93,4.25,0,8.81.92,13.69,2.76,4.88,1.84,9.44,4.32,13.69,7.43,4.25,3.11,7.75,6.76,10.51,10.93,2.76,4.18,4.14,8.6,4.14,13.27l.85,8.28c0-2.69.71-5.66,2.12-8.91,1.41-3.25,3.18-6.47,5.31-9.66,2.12-3.18,4.38-6.15,6.79-8.91,2.4-2.76,4.6-5.13,6.58-7.11,3.4-3.25,7.25-5.41,11.57-6.47,4.31-1.06,8.74-1.59,13.27-1.59,3.11,0,6.54.46,10.29,1.38,3.75.92,7.25,2.33,10.51,4.24,3.25,1.91,5.94,4.28,8.07,7.11,2.12,2.83,3.18,6.15,3.18,9.98,0,1.42-.11,2.9-.32,4.46-.21,1.56-.5,3.04-.85,4.46-.35,1.42-.78,2.65-1.27,3.71-.5,1.06-1.03,1.8-1.59,2.23,2.26,2.26,4.63,4.78,7.11,7.53Z" style="fill:#fff; stroke:#3a7ca5; stroke-miterlimit:10; stroke-width:4.03px;"/><path d="m634.64,152.95c3.54,1.27,6.79,3.04,9.76,5.31,2.97,2.27,5.41,4.95,7.32,8.06,1.91,3.11,2.87,6.44,2.87,9.98,0,7.5-2.05,14.47-6.15,20.91-4.11,6.44-9.69,10.86-16.77,13.27-3.26,1.13-6.19,1.91-8.81,2.33-2.62.42-4.99.64-7.11.64-3.68,0-6.72-.46-9.13-1.38-2.41-.92-4.46-2.02-6.15-3.29-1.7-1.27-3.15-2.55-4.35-3.82-1.2-1.27-2.44-2.19-3.71-2.76.85,1.84,1.91,3.47,3.18,4.88,1.27,1.42,2.65,2.65,4.14,3.71,1.49,1.06,2.94,1.98,4.35,2.76,1.41.78,2.69,1.45,3.82,2.02-.71.85-1.27,1.49-1.7,1.91-.42.42-1.2,1.27-2.33,2.55,1.98-1.41,4.17-2.47,6.58-3.18,2.4-.71,4.78-1.24,7.11-1.59,2.33-.35,4.42-.56,6.26-.64,1.84-.07,3.18-.11,4.03-.11,2.55,0,4.99.46,7.32,1.38,2.33.92,4.42,2.12,6.26,3.61,1.84,1.49,3.32,3.29,4.46,5.41,1.13,2.12,1.7,4.32,1.7,6.58,0,8.49-2.62,14.86-7.85,19.1-5.24,4.24-11.82,6.37-19.74,6.37-3.11,0-6.47-.28-10.08-.85-3.61-.56-6.47-.99-8.6-1.27.56.57,1.56,1.13,2.97,1.7,1.41.57,4.38,1.35,8.91,2.33-1.84,1.13-3.68,2.16-5.52,3.08-1.84.92-3.33,2.23-4.46,3.93,3.68-1.98,7.67-3.64,11.99-4.99,4.31-1.34,9.16-2.02,14.54-2.02,3.96,0,7.5,1.13,10.61,3.4,3.11,2.27,5.73,5.02,7.85,8.28,2.12,3.26,3.71,6.79,4.78,10.61,1.06,3.82,1.59,7.29,1.59,10.4s-.5,6.15-1.49,9.55c-.99,3.4-2.55,6.58-4.67,9.55s-4.88,5.41-8.28,7.32c-3.4,1.91-7.5,2.87-12.31,2.87-3.82,0-7.08-.18-9.76-.53-2.69-.35-4.95-.85-6.79-1.49-1.84-.64-3.36-1.38-4.56-2.23-1.2-.85-2.23-1.77-3.08-2.76-1.42-1.41-2.76-2.83-4.03-4.24-1.27-1.41-3.11-2.62-5.52-3.61-4.53,5.24-9.87,9.02-16.02,11.35-6.15,2.33-12.63,3.5-19.42,3.5-3.4,0-6.69-.64-9.87-1.91s-5.98-3.04-8.38-5.31c-2.41-2.26-4.32-4.95-5.73-8.06-1.42-3.11-2.12-6.44-2.12-9.98,0-4.95.88-9.66,2.65-14.11,1.77-4.46,4.28-8.6,7.53-12.42-4.11-4.95-7.32-10.04-9.66-15.28-2.33-5.23-3.5-11.18-3.5-17.83,0-2.69.21-5.73.64-9.13.42-3.4.99-6.79,1.7-10.19.71-3.4,1.62-6.65,2.76-9.76,1.13-3.11,2.4-5.66,3.82-7.64-1.7-2.55-3.11-5.31-4.24-8.28-1.13-2.97-1.7-5.8-1.7-8.49,0-3.96.53-7.85,1.59-11.67,1.06-3.82,2.72-7.18,4.99-10.08,2.26-2.9,5.09-5.23,8.49-7,3.4-1.77,7.43-2.65,12.1-2.65,1.98,0,3.82.42,5.52,1.27,1.7.85,3.32,1.88,4.88,3.08,1.56,1.2,3.04,2.51,4.46,3.93,1.41,1.42,2.83,2.62,4.25,3.61,2.26-1.98,4.78-3.75,7.53-5.31,2.76-1.56,5.76-2.33,9.02-2.33,1.98,0,3.75.64,5.31,1.91,1.56,1.27,2.9,2.26,4.03,2.97,1.84-3.25,4.81-5.59,8.91-7,4.1-1.41,7.78-2.12,11.04-2.12s6.44.64,9.98,1.91Z" style="fill:#fff; stroke:#3a7ca5; stroke-miterlimit:10; stroke-width:4.03px;"/><path d="m740.55,301.52c.14-.71.49-2.05,1.06-4.03.56-1.98.85-3.4.85-4.25,0-3.82-.82-7.14-2.44-9.98-1.63-2.83-3.64-5.45-6.05-7.85-2.83-2.97-5.45-6.08-7.85-9.34-2.41-3.25-3.61-7.36-3.61-12.31-.57,3.96-2.48,7.53-5.73,10.72-3.26,3.18-6.86,4.78-10.82,4.78,3.54.57,7.25,1.24,11.14,2.02,3.89.78,7.46,2.02,10.72,3.71,3.25,1.7,5.94,4,8.06,6.9,2.12,2.9,3.18,6.69,3.18,11.35,0,3.96-.89,7.64-2.65,11.04-1.77,3.4-4.07,6.3-6.9,8.7-2.83,2.41-5.98,4.32-9.44,5.73-3.47,1.42-6.97,2.12-10.51,2.12-4.95,0-9.73-1.09-14.33-3.29-4.6-2.19-8.74-5.13-12.42-8.81-3.68-3.68-6.62-7.89-8.81-12.63-2.2-4.74-3.29-9.66-3.29-14.75s.53-9.9,1.59-14.01c1.06-4.1,3.29-8.06,6.69-11.89-4.39-3.25-7.61-7.75-9.66-13.48-2.05-5.73-3.08-11.35-3.08-16.87s1.09-10.89,3.29-16.13c2.19-5.23,5.76-9.34,10.72-12.31-1.98,0-3.79-.64-5.41-1.91-1.63-1.27-3.01-2.83-4.14-4.67-1.13-1.84-1.98-3.82-2.55-5.94-.57-2.12-.85-4.1-.85-5.94,0-3.11.71-6.12,2.12-9.02,1.41-2.9,3.25-5.48,5.52-7.75,2.26-2.26,4.85-4.07,7.75-5.41,2.9-1.34,5.91-2.02,9.02-2.02,6.08,0,12.34.78,18.78,2.33,6.44,1.56,12.31,3.82,17.62,6.79,5.31,2.97,9.66,6.65,13.05,11.04,3.4,4.39,5.09,9.41,5.09,15.07,0,3.54-.5,6.79-1.49,9.76-.99,2.97-2.69,5.87-5.09,8.7.85-.28,1.62-.42,2.33-.42h2.55c4.24,0,8.1,1.03,11.57,3.08,3.47,2.05,6.37,4.71,8.7,7.96,2.33,3.26,4.14,6.93,5.41,11.04,1.27,4.11,1.91,8.14,1.91,12.1,0,2.41-.18,4.18-.53,5.31-.35,1.13-.89,2.69-1.59,4.67,1.98-1.84,3.29-3.68,3.93-5.52.64-1.84.96-3.18.96-4.03,0-2.97-.32-6.12-.96-9.44-.64-3.32-1.63-6.51-2.97-9.55-1.35-3.04-3.04-5.84-5.09-8.38-2.05-2.55-4.49-4.6-7.32-6.15-1.13-3.68-1.95-7.6-2.44-11.78-.5-4.17-.74-8.17-.74-11.99,0-4.53.74-8.84,2.23-12.95,1.49-4.1,3.53-7.67,6.15-10.72,2.62-3.04,5.84-5.45,9.66-7.22,3.82-1.77,8.06-2.65,12.73-2.65,5.52,0,10.01,1.24,13.48,3.71,3.47,2.48,6.22,5.66,8.28,9.55,2.05,3.89,3.47,8.21,4.25,12.95.78,4.74,1.17,9.31,1.17,13.69,0,4.95-.6,9.62-1.8,14.01-1.2,4.39-3.22,8.7-6.05,12.95,2.4,2.83,4.31,5.87,5.73,9.13,1.41,3.26,2.12,6.72,2.12,10.4,0,2.83-.46,5.45-1.38,7.85-.92,2.41-2.51,4.53-4.78,6.37-1.13-1.41-2.23-2.47-3.29-3.18-1.06-.71-2.16-1.27-3.29-1.7,2.97,3.96,5.27,7.5,6.9,10.61,1.62,3.11,2.79,5.94,3.5,8.49.71,2.55,1.13,4.88,1.27,7,.14,2.12.21,4.11.21,5.94,0,5.94-1.06,11.46-3.18,16.55-2.12,5.09-5.06,9.52-8.81,13.27s-8.14,6.69-13.16,8.81c-5.02,2.12-10.51,3.18-16.45,3.18-1.98,0-4.67-.53-8.06-1.59-3.4-1.06-6.76-2.47-10.08-4.24-3.33-1.77-6.19-3.78-8.6-6.05-2.41-2.26-3.61-4.6-3.61-7v-.21Z" style="fill:#fff; stroke:#3a7ca5; stroke-miterlimit:10; stroke-width:4.03px;"/><path d="m921.37,251.86c1.7,2.41,3.22,5.13,4.56,8.17,1.34,3.04,2.47,6.12,3.4,9.23.92,3.11,1.38,5.94,1.38,8.49,0,5.8-.67,11.5-2.02,17.08-1.35,5.59-3.5,10.61-6.47,15.07s-6.83,8.06-11.57,10.82c-4.74,2.76-10.51,4.14-17.3,4.14-4.11,0-8.03-.85-11.78-2.55-3.75-1.7-7.04-4-9.87-6.9-2.83-2.9-5.13-6.29-6.9-10.19-1.77-3.89-2.65-7.96-2.65-12.2,0-5.8.88-10.86,2.65-15.18,1.77-4.31,3.85-6.97,6.26-7.96-2.26-.56-4.49-1.66-6.69-3.29-2.2-1.62-4.14-3.5-5.84-5.62-1.7-2.12-3.04-4.49-4.03-7.11-.99-2.62-1.49-5.27-1.49-7.96,0-4.38.6-8.17,1.8-11.35,1.2-3.18,2.58-5.87,4.14-8.06,1.56-2.19,3.04-4,4.46-5.41,1.41-1.41,2.4-2.47,2.97-3.18-2.55.42-4.95.64-7.22.64-5.24,0-10.08-.85-14.54-2.55s-8.35-4.14-11.67-7.32c-3.33-3.18-5.94-7.04-7.85-11.57-1.91-4.53-2.87-9.55-2.87-15.07,0-4.81,1.27-8.98,3.82-12.52,2.55-3.54,5.73-6.47,9.55-8.81,3.82-2.33,7.92-4.03,12.31-5.09,4.38-1.06,8.42-1.59,12.1-1.59s7.64.53,11.46,1.59c3.82,1.06,7.6,2.44,11.35,4.14,3.75,1.7,7.36,3.64,10.82,5.84,3.47,2.2,6.69,4.35,9.66,6.47,2.12-2.69,4.74-5.13,7.85-7.32,3.11-2.19,6.33-4.07,9.66-5.62,3.32-1.56,6.65-2.79,9.98-3.71,3.32-.92,6.33-1.38,9.02-1.38,5.52,0,10.26,1.13,14.22,3.4,3.96,2.27,7.29,5.27,9.98,9.02,2.69,3.75,4.67,8.03,5.94,12.84,1.27,4.81,1.91,9.76,1.91,14.86,0,4.39-.99,8.67-2.97,12.84-1.98,4.18-4.64,7.93-7.96,11.25-3.33,3.33-7.04,6.02-11.14,8.06-4.11,2.05-8.28,3.08-12.52,3.08-2.83,0-5.45-.49-7.85-1.49-.29,5.66-1.49,9.91-3.61,12.73-2.12,2.83-5.31,4.81-9.55,5.94,1.7,1.13,3.4,2.9,5.09,5.31Z" style="fill:#fff; stroke:#3a7ca5; stroke-miterlimit:10; stroke-width:4.03px;"/><path d="m1086.07,152.95c3.54,1.27,6.79,3.04,9.76,5.31,2.97,2.27,5.41,4.95,7.32,8.06,1.91,3.11,2.87,6.44,2.87,9.98,0,7.5-2.05,14.47-6.15,20.91-4.11,6.44-9.69,10.86-16.77,13.27-3.26,1.13-6.19,1.91-8.81,2.33-2.62.42-4.99.64-7.11.64-3.68,0-6.72-.46-9.13-1.38-2.41-.92-4.46-2.02-6.15-3.29-1.7-1.27-3.15-2.55-4.35-3.82-1.2-1.27-2.44-2.19-3.71-2.76.85,1.84,1.91,3.47,3.18,4.88,1.27,1.42,2.65,2.65,4.14,3.71,1.49,1.06,2.94,1.98,4.35,2.76,1.41.78,2.69,1.45,3.82,2.02-.71.85-1.27,1.49-1.7,1.91-.42.42-1.2,1.27-2.33,2.55,1.98-1.41,4.17-2.47,6.58-3.18,2.4-.71,4.78-1.24,7.11-1.59,2.33-.35,4.42-.56,6.26-.64,1.84-.07,3.18-.11,4.03-.11,2.55,0,4.99.46,7.32,1.38,2.33.92,4.42,2.12,6.26,3.61,1.84,1.49,3.32,3.29,4.46,5.41,1.13,2.12,1.7,4.32,1.7,6.58,0,8.49-2.62,14.86-7.85,19.1-5.24,4.24-11.82,6.37-19.74,6.37-3.11,0-6.47-.28-10.08-.85-3.61-.56-6.47-.99-8.6-1.27.56.57,1.56,1.13,2.97,1.7,1.41.57,4.38,1.35,8.91,2.33-1.84,1.13-3.68,2.16-5.52,3.08-1.84.92-3.33,2.23-4.46,3.93,3.68-1.98,7.67-3.64,11.99-4.99,4.31-1.34,9.16-2.02,14.54-2.02,3.96,0,7.5,1.13,10.61,3.4,3.11,2.27,5.73,5.02,7.85,8.28,2.12,3.26,3.71,6.79,4.78,10.61,1.06,3.82,1.59,7.29,1.59,10.4s-.5,6.15-1.49,9.55c-.99,3.4-2.55,6.58-4.67,9.55s-4.88,5.41-8.28,7.32c-3.4,1.91-7.5,2.87-12.31,2.87-3.82,0-7.08-.18-9.76-.53-2.69-.35-4.95-.85-6.79-1.49-1.84-.64-3.36-1.38-4.56-2.23-1.2-.85-2.23-1.77-3.08-2.76-1.42-1.41-2.76-2.83-4.03-4.24-1.27-1.41-3.11-2.62-5.52-3.61-4.53,5.24-9.87,9.02-16.02,11.35-6.15,2.33-12.63,3.5-19.42,3.5-3.4,0-6.69-.64-9.87-1.91s-5.98-3.04-8.38-5.31c-2.41-2.26-4.32-4.95-5.73-8.06-1.42-3.11-2.12-6.44-2.12-9.98,0-4.95.88-9.66,2.65-14.11,1.77-4.46,4.28-8.6,7.53-12.42-4.11-4.95-7.32-10.04-9.66-15.28-2.33-5.23-3.5-11.18-3.5-17.83,0-2.69.21-5.73.64-9.13.42-3.4.99-6.79,1.7-10.19.71-3.4,1.62-6.65,2.76-9.76,1.13-3.11,2.4-5.66,3.82-7.64-1.7-2.55-3.11-5.31-4.24-8.28-1.13-2.97-1.7-5.8-1.7-8.49,0-3.96.53-7.85,1.59-11.67,1.06-3.82,2.72-7.18,4.99-10.08,2.26-2.9,5.09-5.23,8.49-7,3.4-1.77,7.43-2.65,12.1-2.65,1.98,0,3.82.42,5.52,1.27,1.7.85,3.32,1.88,4.88,3.08,1.56,1.2,3.04,2.51,4.46,3.93,1.41,1.42,2.83,2.62,4.25,3.61,2.26-1.98,4.78-3.75,7.53-5.31,2.76-1.56,5.76-2.33,9.02-2.33,1.98,0,3.75.64,5.31,1.91,1.56,1.27,2.9,2.26,4.03,2.97,1.84-3.25,4.81-5.59,8.91-7,4.1-1.41,7.78-2.12,11.04-2.12s6.44.64,9.98,1.91Z" style="fill:#fff; stroke:#3a7ca5; stroke-miterlimit:10; stroke-width:4.03px;"/><path d="m235.53,820.41c-2.12,2.62-4.53,4.99-7.22,7.11-2.69,2.12-5.48,3.89-8.38,5.31-2.9,1.42-5.77,2.41-8.6,2.97,3.11.99,5.06,3.11,5.84,6.37.78,3.26,1.17,6.37,1.17,9.34,0,3.96-.92,7.46-2.76,10.51-1.84,3.04-3.33,5.27-4.46,6.69.14,0,.88-.32,2.23-.96,1.34-.64,2.87-1.34,4.56-2.12,1.7-.78,3.47-1.52,5.31-2.23,1.84-.71,3.4-1.06,4.67-1.06,3.4,0,6.08.92,8.06,2.76,1.98,1.84,3.57,4.14,4.78,6.9,1.2,2.76,2.12,5.66,2.76,8.7.64,3.04,1.31,5.77,2.02,8.17,4.67-4.1,8.98-7.36,12.95-9.76,3.96-2.4,8.63-3.61,14.01-3.61,4.95,0,8.91.92,11.89,2.76,2.97,1.84,5.23,3.93,6.79,6.26,1.56,2.33,2.58,4.64,3.08,6.9.49,2.27.74,3.82.74,4.67,0,4.53-.99,8.49-2.97,11.89-1.98,3.4-4.53,6.23-7.64,8.49-3.11,2.26-6.62,3.96-10.51,5.09-3.89,1.13-7.75,1.7-11.57,1.7s-7.32-.39-10.08-1.17c-2.76-.78-5.77-2.09-9.02-3.93-1.98,4.24-5.13,6.82-9.44,7.75-4.32.92-8.88,1.38-13.69,1.38-3.26,0-6.76-.39-10.51-1.17-3.75-.78-7.25-1.95-10.51-3.5-3.26-1.56-6.02-3.61-8.28-6.15-2.26-2.55-3.4-5.52-3.4-8.91,0-2.12.42-4.46,1.27-7-6.65-1.98-12.88-4.6-18.68-7.85-5.8-3.25-10.86-7.14-15.17-11.67-4.32-4.53-7.71-9.83-10.19-15.92-2.48-6.08-3.71-12.95-3.71-20.59,0-6.65.53-12.63,1.59-17.93,1.06-5.31,2.79-10.11,5.2-14.43,2.4-4.31,5.62-8.17,9.66-11.57,4.03-3.4,8.95-6.44,14.75-9.13-.14-.71-.25-1.38-.32-2.02-.07-.64-.11-1.31-.11-2.02,0-4.53,1.17-8.84,3.5-12.95,2.33-4.1,5.34-7.71,9.02-10.82,3.68-3.11,7.75-5.59,12.2-7.43,4.46-1.84,8.81-2.76,13.05-2.76s8.03.5,11.35,1.49c3.32.99,6.12,2.09,8.38,3.29,2.26,1.2,4.03,2.3,5.31,3.29,1.27.99,2.12,1.49,2.55,1.49.28,0,1.34-.35,3.18-1.06,1.84-.71,4.03-1.45,6.58-2.23,2.55-.78,5.2-1.52,7.96-2.23,2.76-.71,5.2-1.06,7.32-1.06,3.4,0,6.97.57,10.72,1.7,3.75,1.13,7.22,2.76,10.4,4.88,3.18,2.12,5.84,4.71,7.96,7.75,2.12,3.04,3.18,6.55,3.18,10.51,0,4.39-.89,8.81-2.65,13.26-1.77,4.46-4.21,8.49-7.32,12.1-3.11,3.61-6.83,6.55-11.14,8.81-4.32,2.26-9.09,3.4-14.33,3.4-2.41,0-5.02-.32-7.85-.96-2.83-.64-6.3-2.51-10.4-5.62-1.27,2.83-2.97,5.55-5.09,8.17Z" style="fill:#fff; stroke:#3a7ca5; stroke-miterlimit:10; stroke-width:4.03px;"/><path d="m312.67,856.49c-2.9-3.47-5.09-7.18-6.58-11.14-1.49-3.96-2.44-7.85-2.87-11.67-.42-3.82-.64-6.79-.64-8.91,0-4.24.99-8.38,2.97-12.42,1.98-4.03,4.56-7.64,7.75-10.82s6.86-5.8,11.04-7.85c4.17-2.05,8.38-3.29,12.63-3.71.99-4.38,3.29-8.77,6.9-13.16,3.61-4.38,7.78-8.31,12.52-11.78,4.74-3.47,9.8-6.26,15.18-8.38,5.38-2.12,10.4-3.18,15.07-3.18s9.8.46,15.39,1.38c5.59.92,10.93,2.83,16.02,5.73,5.09,2.9,9.58,7.04,13.48,12.42,3.89,5.38,6.47,12.45,7.75,21.22.99-.14,1.94-.25,2.87-.32.92-.07,1.8-.11,2.65-.11,4.81,0,9.09,1.03,12.84,3.08,3.75,2.05,6.93,4.78,9.55,8.17,2.62,3.4,4.6,7.29,5.94,11.67,1.34,4.39,2.02,8.91,2.02,13.58,0,4.25-.78,8.31-2.33,12.2-1.56,3.89-3.58,7.61-6.05,11.14-2.48,3.54-5.31,6.79-8.49,9.76-3.18,2.97-6.4,5.59-9.66,7.85,1.13,1.27,2.05,2.76,2.76,4.46.71,1.7,1.06,3.47,1.06,5.31,0,2.26-.42,4.42-1.27,6.47-.85,2.05-1.98,3.82-3.4,5.31-1.42,1.49-3.11,2.69-5.09,3.61-1.98.92-4.03,1.38-6.15,1.38-.85,0-1.77-.07-2.76-.21-.99-.14-1.98-.35-2.97-.64-.29,5.09-1.59,9.52-3.93,13.27-2.33,3.75-5.27,6.86-8.81,9.34-3.54,2.48-7.53,4.35-11.99,5.62s-9.02,1.91-13.69,1.91c-8.35,0-15.6-2.09-21.75-6.26s-10.86-9.87-14.11-17.08c-1.84.42-3.43.67-4.78.74-1.35.07-2.8.11-4.35.11-2.83,0-5.77-.49-8.81-1.49-3.04-.99-5.8-2.4-8.28-4.25-2.48-1.84-4.49-4.03-6.05-6.58-1.56-2.55-2.33-5.38-2.33-8.49,0-3.68.14-7.11.42-10.29.28-3.18.99-6.47,2.12-9.87-4.95-1.27-8.88-3.64-11.78-7.11Zm65.16-19.84c.49,1.42.74,2.76.74,4.03,0,3.68-.96,6.72-2.87,9.13-1.91,2.41-3.86,4.81-5.84,7.22,1.41.42,3.04,1.13,4.88,2.12,1.84.99,3.25,2.27,4.24,3.82.42.71.78,1.49,1.06,2.33.28.85.56,1.77.85,2.76,1.84-3.68,4.31-5.98,7.43-6.9,3.11-.92,6.51-1.38,10.19-1.38h7.43c-.42-1.84-.82-3.25-1.17-4.24-.35-.99-.53-2.33-.53-4.03,0-3.11.67-6.12,2.02-9.02,1.34-2.9,2.37-5.55,3.08-7.96-2.27,1.13-4.78,2.02-7.53,2.65s-5.49.96-8.17.96c-.29,0-1.27-.28-2.97-.85-1.7-.56-3.54-1.17-5.52-1.8-1.98-.64-3.82-1.24-5.52-1.8-1.7-.56-2.69-.85-2.97-.85.28,1.13.67,2.41,1.17,3.82Z" style="fill:#fff; stroke:#3a7ca5; stroke-miterlimit:10; stroke-width:4.03px;"/><path d="m546.88,919.42c-2.12,1.13-4.35,1.98-6.69,2.55-2.33.57-4.74.92-7.22,1.06-2.48.14-4.85.21-7.11.21-8.06,0-14.72-1.77-19.95-5.31-5.24-3.54-9.41-7.85-12.52-12.95-3.11-5.09-5.31-10.58-6.58-16.45-1.27-5.87-1.91-11.14-1.91-15.81,0-6.93.71-12.84,2.12-17.72,1.41-4.88,2.97-8.91,4.67-12.1s3.32-5.52,4.88-7c1.56-1.49,2.47-2.23,2.76-2.23-2.69-2.4-4.88-5.27-6.58-8.6-1.7-3.32-3.01-6.86-3.93-10.61-.92-3.75-1.56-7.5-1.91-11.25-.35-3.75-.53-7.32-.53-10.72,0-3.82.49-8.03,1.49-12.63.99-4.6,2.58-8.84,4.78-12.73,2.19-3.89,5.02-7.14,8.49-9.76,3.47-2.62,7.6-3.93,12.42-3.93,5.66,0,10.68,1.31,15.07,3.93,4.38,2.62,8.06,6.05,11.04,10.29,2.97,4.24,5.23,8.99,6.79,14.22,1.56,5.24,2.33,10.47,2.33,15.71,0,2.97-.53,6.26-1.59,9.87s-2.55,7.11-4.46,10.51c-1.91,3.4-4.11,6.44-6.58,9.13-2.48,2.69-5.06,4.67-7.75,5.94,3.82,2.12,7.57,5.91,11.25,11.35,3.68,5.45,6.72,12.77,9.13,21.97,1.7-2.4,4.03-3.89,7-4.46,2.97-.56,6.01-.85,9.13-.85,6.93,0,13.44,1.24,19.53,3.71,6.08,2.48,11.35,5.48,15.81,9.02,4.46,3.54,7.99,7.25,10.61,11.14,2.62,3.89,3.93,7.18,3.93,9.87,0,10.19-2.97,18.15-8.91,23.88s-13.73,8.6-23.35,8.6c-2.55,0-5.27-.18-8.17-.53-2.9-.35-5.73-1.03-8.49-2.02-2.76-.99-5.34-2.26-7.75-3.82-2.41-1.56-4.32-3.61-5.73-6.16-1.56,1.98-3.4,3.54-5.52,4.67Z" style="fill:#fff; stroke:#3a7ca5; stroke-miterlimit:10; stroke-width:4.03px;"/><path d="m727.07,755.36c3.54,1.27,6.79,3.04,9.76,5.31,2.97,2.27,5.41,4.95,7.32,8.06,1.91,3.11,2.87,6.44,2.87,9.98,0,7.5-2.05,14.47-6.15,20.91-4.11,6.44-9.69,10.86-16.77,13.27-3.26,1.13-6.19,1.91-8.81,2.33-2.62.42-4.99.64-7.11.64-3.68,0-6.72-.46-9.13-1.38-2.41-.92-4.46-2.02-6.15-3.29-1.7-1.27-3.15-2.55-4.35-3.82-1.2-1.27-2.44-2.19-3.71-2.76.85,1.84,1.91,3.47,3.18,4.88,1.27,1.42,2.65,2.65,4.14,3.71,1.49,1.06,2.94,1.98,4.35,2.76,1.41.78,2.69,1.45,3.82,2.02-.71.85-1.27,1.49-1.7,1.91-.42.42-1.2,1.27-2.33,2.55,1.98-1.41,4.17-2.47,6.58-3.18,2.4-.71,4.78-1.24,7.11-1.59,2.33-.35,4.42-.56,6.26-.64,1.84-.07,3.18-.11,4.03-.11,2.55,0,4.99.46,7.32,1.38,2.33.92,4.42,2.12,6.26,3.61,1.84,1.49,3.32,3.29,4.46,5.41,1.13,2.12,1.7,4.32,1.7,6.58,0,8.49-2.62,14.86-7.85,19.1-5.24,4.24-11.82,6.37-19.74,6.37-3.11,0-6.47-.28-10.08-.85-3.61-.56-6.47-.99-8.6-1.27.56.57,1.56,1.13,2.97,1.7,1.41.57,4.38,1.35,8.91,2.33-1.84,1.13-3.68,2.16-5.52,3.08-1.84.92-3.33,2.23-4.46,3.93,3.68-1.98,7.67-3.64,11.99-4.99,4.31-1.34,9.16-2.02,14.54-2.02,3.96,0,7.5,1.13,10.61,3.4,3.11,2.27,5.73,5.02,7.85,8.28,2.12,3.26,3.71,6.79,4.78,10.61,1.06,3.82,1.59,7.29,1.59,10.4s-.5,6.15-1.49,9.55c-.99,3.4-2.55,6.58-4.67,9.55s-4.88,5.41-8.28,7.32c-3.4,1.91-7.5,2.87-12.31,2.87-3.82,0-7.08-.18-9.76-.53-2.69-.35-4.95-.85-6.79-1.49-1.84-.64-3.36-1.38-4.56-2.23-1.2-.85-2.23-1.77-3.08-2.76-1.42-1.41-2.76-2.83-4.03-4.24-1.27-1.41-3.11-2.62-5.52-3.61-4.53,5.24-9.87,9.02-16.02,11.35-6.15,2.33-12.63,3.5-19.42,3.5-3.4,0-6.69-.64-9.87-1.91s-5.98-3.04-8.38-5.31c-2.41-2.26-4.32-4.95-5.73-8.06-1.42-3.11-2.12-6.44-2.12-9.98,0-4.95.88-9.66,2.65-14.11,1.77-4.46,4.28-8.6,7.53-12.42-4.11-4.95-7.32-10.04-9.66-15.28-2.33-5.23-3.5-11.18-3.5-17.83,0-2.69.21-5.73.64-9.13.42-3.4.99-6.79,1.7-10.19.71-3.4,1.62-6.65,2.76-9.76,1.13-3.11,2.4-5.66,3.82-7.64-1.7-2.55-3.11-5.31-4.24-8.28-1.13-2.97-1.7-5.8-1.7-8.49,0-3.96.53-7.85,1.59-11.67,1.06-3.82,2.72-7.18,4.99-10.08,2.26-2.9,5.09-5.23,8.49-7,3.4-1.77,7.43-2.65,12.1-2.65,1.98,0,3.82.42,5.52,1.27,1.7.85,3.32,1.88,4.88,3.08,1.56,1.2,3.04,2.51,4.46,3.93,1.41,1.42,2.83,2.62,4.25,3.61,2.26-1.98,4.78-3.75,7.53-5.31,2.76-1.56,5.76-2.33,9.02-2.33,1.98,0,3.75.64,5.31,1.91,1.56,1.27,2.9,2.26,4.03,2.97,1.84-3.25,4.81-5.59,8.91-7,4.1-1.41,7.78-2.12,11.04-2.12s6.44.64,9.98,1.91Z" style="fill:#fff; stroke:#3a7ca5; stroke-miterlimit:10; stroke-width:4.03px;"/><path d="m856.32,854.27c1.7,2.41,3.22,5.13,4.56,8.17,1.34,3.04,2.47,6.12,3.4,9.23.92,3.11,1.38,5.94,1.38,8.49,0,5.8-.67,11.5-2.02,17.08-1.35,5.59-3.5,10.61-6.47,15.07s-6.83,8.06-11.57,10.82c-4.74,2.76-10.51,4.14-17.3,4.14-4.11,0-8.03-.85-11.78-2.55-3.75-1.7-7.04-4-9.87-6.9-2.83-2.9-5.13-6.29-6.9-10.19-1.77-3.89-2.65-7.96-2.65-12.2,0-5.8.88-10.86,2.65-15.18,1.77-4.31,3.85-6.97,6.26-7.96-2.26-.56-4.49-1.66-6.69-3.29-2.2-1.62-4.14-3.5-5.84-5.62-1.7-2.12-3.04-4.49-4.03-7.11-.99-2.62-1.49-5.27-1.49-7.96,0-4.38.6-8.17,1.8-11.35,1.2-3.18,2.58-5.87,4.14-8.06,1.56-2.19,3.04-4,4.46-5.41,1.41-1.41,2.4-2.47,2.97-3.18-2.55.42-4.95.64-7.22.64-5.24,0-10.08-.85-14.54-2.55s-8.35-4.14-11.67-7.32c-3.33-3.18-5.94-7.04-7.85-11.57-1.91-4.53-2.87-9.55-2.87-15.07,0-4.81,1.27-8.98,3.82-12.52,2.55-3.54,5.73-6.47,9.55-8.81,3.82-2.33,7.92-4.03,12.31-5.09,4.38-1.06,8.42-1.59,12.1-1.59s7.64.53,11.46,1.59c3.82,1.06,7.6,2.44,11.35,4.14,3.75,1.7,7.36,3.64,10.82,5.84,3.47,2.2,6.69,4.35,9.66,6.47,2.12-2.69,4.74-5.13,7.85-7.32,3.11-2.19,6.33-4.07,9.66-5.62,3.32-1.56,6.65-2.79,9.98-3.71,3.32-.92,6.33-1.38,9.02-1.38,5.52,0,10.26,1.13,14.22,3.4,3.96,2.27,7.29,5.27,9.98,9.02,2.69,3.75,4.67,8.03,5.94,12.84,1.27,4.81,1.91,9.76,1.91,14.86,0,4.39-.99,8.67-2.97,12.84-1.98,4.18-4.64,7.93-7.96,11.25-3.33,3.33-7.04,6.02-11.14,8.06-4.11,2.05-8.28,3.08-12.52,3.08-2.83,0-5.45-.49-7.85-1.49-.29,5.66-1.49,9.91-3.61,12.73-2.12,2.83-5.31,4.81-9.55,5.94,1.7,1.13,3.4,2.9,5.09,5.31Z" style="fill:#fff; stroke:#3a7ca5; stroke-miterlimit:10; stroke-width:4.03px;"/><path d="m921.47,796.32c-1.98-3.11-2.97-6.51-2.97-10.19,0-2.4.56-4.53,1.7-6.37,1.13-1.84,2.58-3.4,4.35-4.67,1.77-1.27,3.71-2.26,5.84-2.97,2.12-.71,4.17-1.06,6.15-1.06-2.41-2.97-3.61-5.8-3.61-8.49,0-1.56.42-2.9,1.27-4.03.85-1.13,1.87-2.09,3.08-2.87,1.2-.78,2.51-1.34,3.93-1.7,1.41-.35,2.76-.53,4.03-.53,4.1,0,7.25,1.49,9.44,4.46,2.19,2.97,3.29,5.94,3.29,8.91,5.23.71,9.2,2.87,11.89,6.47,2.69,3.61,4.03,7.46,4.03,11.57,0,3.68-1.17,7-3.5,9.98-2.33,2.97-5.98,4.46-10.93,4.46.56,1.13,1.41,2.9,2.55,5.31,1.13,2.41,2.26,4.99,3.4,7.75,1.13,2.76,2.12,5.49,2.97,8.17.85,2.69,1.27,4.88,1.27,6.58,0,1.56-.11,3.29-.32,5.2s-.64,3.79-1.27,5.62c-.64,1.84-1.49,3.43-2.55,4.78-1.06,1.35-2.44,2.16-4.14,2.44,3.54,2.83,6.9,6.05,10.08,9.66,3.18,3.61,5.98,7.46,8.38,11.57,2.4,4.11,4.28,8.35,5.62,12.73,1.34,4.39,2.02,8.84,2.02,13.37s-.96,8.88-2.87,13.05c-1.91,4.18-4.67,7.85-8.28,11.04s-8.03,5.77-13.27,7.75c-5.24,1.98-11.25,2.97-18.04,2.97-5.52,0-10.37-1.03-14.54-3.08-4.17-2.05-7.68-4.78-10.51-8.17-2.83-3.4-4.95-7.29-6.37-11.67-1.42-4.38-2.12-8.98-2.12-13.8,0-6.37.88-11.89,2.65-16.55,1.77-4.67,3.89-8.52,6.37-11.57,2.47-3.04,5.09-5.31,7.85-6.79,2.76-1.49,5.13-2.23,7.11-2.23-2.83-2.26-5.38-5.34-7.64-9.23-2.27-3.89-3.4-7.89-3.4-11.99,0-2.4.25-5.02.74-7.85.49-2.83,1.09-5.59,1.8-8.28.71-2.69,1.45-5.2,2.23-7.53.78-2.33,1.45-4.28,2.02-5.84-4.53-1.13-7.78-3.25-9.76-6.37Z" style="fill:#fff; stroke:#3a7ca5; stroke-miterlimit:10; stroke-width:4.03px;"/><path d="m1030.57,836.76c-.57.07-1.2.11-1.91.11-4.67-.28-9.31-1.56-13.9-3.82-4.6-2.26-8.67-5.13-12.2-8.6-3.54-3.47-6.4-7.39-8.6-11.78-2.2-4.38-3.29-8.84-3.29-13.37,0-5.09.81-10.19,2.44-15.28,1.62-5.09,4-9.69,7.11-13.8,3.11-4.1,6.9-7.43,11.35-9.98s9.44-3.82,14.96-3.82c4.24,0,8.56.85,12.95,2.55,4.38,1.7,8.38,4.11,11.99,7.22,3.61,3.11,6.54,6.76,8.81,10.93,2.26,4.17,3.4,8.81,3.4,13.9,0,1.98-.11,4.07-.32,6.26-.21,2.2-.67,4.32-1.38,6.37-.71,2.05-1.7,3.86-2.97,5.41-1.27,1.56-2.9,2.76-4.88,3.61,1.84,1.13,3.85,2.48,6.05,4.03,2.19,1.56,4.35,3.22,6.47,4.99,2.12,1.77,4.14,3.68,6.05,5.73,1.91,2.05,3.43,4.14,4.56,6.26-.71,3.68-1.17,6.58-1.38,8.7-.21,2.12-.32,4.46-.32,7,0,2.69.07,4.95.21,6.79.14,1.84.42,4.17.85,7-1.13.42-2.16.85-3.08,1.27-.92.42-2.73,1.27-5.41,2.55,3.54-.71,6.58-1.06,9.13-1.06,1.56,0,3.04.18,4.46.53,1.41.35,2.83.89,4.24,1.59-3.68-2.69-5.84-5.45-6.47-8.28-.64-2.83-.96-6.37-.96-10.61,0-5.94,1.13-11.92,3.4-17.93,2.26-6.01,5.8-10.86,10.61-14.54-1.7-.56-3.15-1.73-4.35-3.5-1.2-1.77-2.2-3.68-2.97-5.73-.78-2.05-1.31-4.03-1.59-5.94-.29-1.91-.42-3.22-.42-3.93,0-5.8.96-11.35,2.87-16.66,1.91-5.31,4.56-10.01,7.96-14.11,3.4-4.1,7.5-7.36,12.31-9.76,4.81-2.4,10.19-3.61,16.13-3.61,5.38,0,10.11.99,14.22,2.97,4.1,1.98,7.53,4.53,10.29,7.64,2.76,3.11,4.81,6.47,6.15,10.08,1.34,3.61,2.02,6.97,2.02,10.08s-.53,6.12-1.59,9.44c-1.06,3.33-2.55,6.44-4.46,9.34-1.91,2.9-4.17,5.41-6.79,7.53-2.62,2.12-5.48,3.54-8.6,4.25,3.11,3.54,4.67,7.78,4.67,12.73,0,5.94-1.42,11.39-4.25,16.34-2.83,4.95-8.14,9.62-15.92,14.01,1.41.85,2.55,2.02,3.4,3.5s1.52,3.18,2.02,5.09c.49,1.91.85,3.82,1.06,5.73.21,1.91.32,3.71.32,5.41,0,6.23-1.27,12.13-3.82,17.72-2.55,5.59-5.94,10.44-10.19,14.54-4.25,4.11-9.13,7.36-14.64,9.76-5.52,2.41-11.25,3.61-17.19,3.61-7.08,0-14.04-1.27-20.91-3.82-6.86-2.55-12.98-6.12-18.36-10.72-5.38-4.6-9.69-10.04-12.95-16.34-3.26-6.29-4.88-13.26-4.88-20.91,0-6.79.64-13.02,1.91-18.68,1.27-5.66,4.1-11.11,8.49-16.34-.71.14-1.35.25-1.91.32Z" style="fill:#fff; stroke:#3a7ca5; stroke-miterlimit:10; stroke-width:4.03px;"/><path d="m1257.24,758.97c5.66,3.54,9.62,9.13,11.89,16.77.42,1.27.92,3.11,1.49,5.52.56,2.41,1.24,4.88,2.02,7.43.78,2.55,1.66,4.88,2.65,7,.99,2.12,2.05,3.47,3.18,4.03,1.56,1.13,3.4,2.76,5.52,4.88s4.14,4.56,6.05,7.32c1.91,2.76,3.54,5.8,4.88,9.13,1.34,3.33,2.02,6.69,2.02,10.08,0,.85-.18,2.48-.53,4.88-.35,2.41-.82,4.95-1.38,7.64-.57,2.69-1.27,5.06-2.12,7.11-.85,2.05-1.77,3.08-2.76,3.08-.42,0-1.42-.11-2.97-.32-1.56-.21-3.33-.42-5.31-.64-1.98-.21-4.03-.46-6.15-.74-2.12-.28-3.96-.49-5.52-.64.99.29,2.4.71,4.24,1.27,1.84.57,3.75,1.1,5.73,1.59,1.98.5,3.75.92,5.31,1.27,1.56.35,2.47.53,2.76.53,3.96,0,7.5,1.42,10.61,4.24,3.11,2.83,5.73,6.3,7.85,10.4,2.12,4.11,3.71,8.42,4.78,12.95,1.06,4.53,1.59,8.49,1.59,11.89,0,4.11-.71,7.85-2.12,11.25-1.42,3.4-3.36,6.3-5.84,8.7-2.48,2.41-5.38,4.28-8.7,5.62-3.33,1.35-6.97,2.02-10.93,2.02s-8.46-.71-13.9-2.12c-5.45-1.41-10.69-3.57-15.71-6.47-5.02-2.9-9.34-6.54-12.95-10.93-3.61-4.38-5.41-9.55-5.41-15.49,0-1.56.25-3.11.74-4.67.49-1.56,1.02-3.32,1.59-5.31-.71.99-1.31,1.95-1.8,2.87-.5.92-1.2,1.77-2.12,2.55-.92.78-2.12,1.38-3.61,1.8-1.49.42-3.43.64-5.84.64-2.69,0-4.95-.32-6.79-.95-1.84-.64-3.33-1.45-4.46-2.44-1.13-.99-2.02-2.05-2.65-3.18-.64-1.13-1.03-2.19-1.17-3.18.14,1.42.21,2.9.21,4.46v2.55c0,4.39-.53,8.95-1.59,13.69-1.06,4.74-2.8,9.06-5.2,12.95-2.41,3.89-5.55,7.08-9.44,9.55-3.89,2.48-8.6,3.71-14.11,3.71-4.39,0-8.63-.85-12.73-2.55-4.11-1.7-7.75-4.03-10.93-7s-5.77-6.47-7.75-10.51c-1.98-4.03-2.97-8.31-2.97-12.84,0-4.81.64-9.55,1.91-14.22,1.27-4.67,2.97-8.91,5.09-12.73,1.13-1.98,2.55-3.85,4.24-5.62,1.7-1.77,3.4-3.36,5.09-4.78,1.7-1.41,3.15-2.65,4.35-3.71,1.2-1.06,1.8-1.8,1.8-2.23-.85-5.09-1.27-10.33-1.27-15.71,0-9.48,1.52-18.71,4.56-27.7,3.04-8.98,8.03-16.52,14.96-22.6,2.4-1.98,5.38-4.14,8.91-6.47,3.54-2.33,6.51-4.78,8.91-7.32,3.11-3.4,6.01-6.01,8.7-7.85,2.69-1.84,5.31-3.18,7.85-4.03,2.55-.85,4.99-1.34,7.32-1.49,2.33-.14,4.7-.21,7.11-.21,8.2,0,15.14,1.77,20.8,5.31Zm-29.93,49.66c-.42,2.41-.85,4.78-1.27,7.11-.42,2.33-.78,4.56-1.06,6.69-.29,2.12-.64,3.82-1.06,5.09-1.56,4.24-3.93,7.71-7.11,10.4-3.18,2.69-6.9,5.02-11.14,7,4.53-1.13,8.81-2.12,12.84-2.97,4.03-.85,8.6-1.27,13.69-1.27,3.68,0,7.29.42,10.82,1.27,3.53.85,6.93,2.05,10.19,3.61-2.55-1.7-4.85-3.11-6.9-4.24-2.05-1.13-4.07-2.76-6.05-4.88-3.96-2.83-6.97-6.51-9.02-11.04-2.05-4.53-3.08-9.2-3.08-14.01,0-1.13.07-2.51.21-4.14.14-1.62.35-3.22.64-4.78-.71,1.7-1.27,3.75-1.7,6.15Z" style="fill:#fff; stroke:#3a7ca5; stroke-miterlimit:10; stroke-width:4.03px;"/></svg>