<svg xmlns="http://www.w3.org/2000/svg" viewBox="0 0 1536 1024">
  <path fill="#3a7ca5" stroke="#f2e863" stroke-width="2.5" d="M282.4 408c2 0 4 .5 6 1.6a5.4 5.4 0 0 1 2.8 4.9v4a68.4 68.4 0 0 1-10.9 6h-6.8c-3.2 0-5.7.8-7.5 2.5a9 9 0 0 0-2.8 7v6.3c0 3.8-.4 8-1.4 12.5l-2.9 12.9v31.7l.4 2.2a10.5 10.5 0 0 0 3 6 4 4 0 0 0 3 1h19.6c.4 0 1.7-.3 3.7-1.2a167.5 167.5 0 0 0 14-6.5 37.6 37.6 0 0 0 8.7-6c1.2-1 2.3-1.4 3.4-1.4.9-2 1.5-3.2 2-3.5.3-.4 1-.5 2.3-.5 1 0 2.2.4 3.9 1.3 1.6 1 2.5 1.8 2.5 2.7 0 .4-.7 2-2 5l-4.6 9.7c-1.9 3.6-3.8 7-6 10.3a21.5 21.5 0 0 1-5.9 6.7c-.4.5-1.8 1-4 1.1a186.5 186.5 0 0 1-16.2.8H276c-3.2 0-6.4-.3-9.6-.9s-5.3-.5-6.4.2l-3 .7-10.9 2.3a77.7 77.7 0 0 1-7.5-1.2 86.5 86.5 0 0 0-7.5-1.1c-1.2 0-2.3.1-3.4.4a27.5 27.5 0 0 0-5.5 1.9c-1.6 0-2.9-.4-3.7-1a6.2 6.2 0 0 1-1.8-2.6c-.4-1-.6-2-.7-3l-.1-2.3c0-3 1-4.8 3-5.5 2-.7 4.3-1.3 6.8-1.8 2.4-.5 4.6-1.3 6.7-2.5 2-1.2 3-3.8 3-7.8v-17.7l1.9-15.9v-7.6l.2-3.3c.1-1.6.4-3.3.7-5.2l1.1-6.7c0-1.2-.3-2.2-1-3.2a5 5 0 0 1-1-2.7v-2.4c0-4-.7-6.6-2-8.1a13.5 13.5 0 0 0-4.3-3.4c-1.6-.8-3-1.6-4.3-2.6-1.3-1-2-3-2-6a7.6 7.6 0 0 1 3.5-6.3 8.8 8.8 0 0 1 4.7-1.9h49.4Zm166.4 13.5c3.1 0 5.4.8 6.8 2.5s2 4 2 7a127.2 127.2 0 0 1-4.6 17.1l-1.7 5.7a17.4 17.4 0 0 1-1.8 8.3c-1.3.8-1.9 2.2-1.9 4.1v4.1l-.7 11.2v8.3a41 41 0 0 0 .6 5.4c.2 1 .6 2 1.3 2.7a3 3 0 0 0 2.5 1.2l3.1-4.7a78.8 78.8 0 0 0 6.9-5.7l4-3.6c1 0 1.7.4 2.4 1 .6.8.9 1.6.9 2.4l-1 1.7a10 10 0 0 1-1.8 2.6 25 25 0 0 1-4 7.2l-5.5 6-6 5.8c-2.1 2-4 4.2-5.9 6.7l-5 6.6c0 1.3-.4 2.6-1.2 3.9-.8 1.3-1.8 2.4-3 3.2a5.8 5.8 0 0 1-3.6 1c-1.3 0-2.3-.9-3-2.4-1-2.5-1.4-5-1.4-7.5s.2-4.9.6-7.2l1.4-6.7c.5-2 .7-4.1.7-6v-12c0-.6-.5-1.1-1.6-1.4l-1.6-.2c-.5 0-1.6 1.2-3.4 3.7l-6.3 8.4-7.1 9.7a55.6 55.6 0 0 1-6 7 60.7 60.7 0 0 1-5.3 5.4c-1.1 1-2.4 2-3.8 2.7a7.6 7.6 0 0 1-3.6 1.1 7 7 0 0 1-5.2-2 15 15 0 0 1-3.2-5 32.6 32.6 0 0 1-2.3-9.9l-.7-15.2L383 471a51.4 51.4 0 0 1 5.1-13.4c1-1.8 2-3.3 3-4.4a88 88 0 0 0 12.8-14 22.9 22.9 0 0 1 11.2-8c1.8-.7 3.6-1.2 5.4-1.6 1.9-.3 4-1 6.2-2.2.9 0 2-.4 3.5-1.3l4-2.7h10.2l4.4-1.9ZM419.6 445a56.8 56.8 0 0 0-14.1 15.6 54.4 54.4 0 0 0-4.3 8 16 16 0 0 0-1.6 5.7l-.2 4a23.8 23.8 0 0 0 1.9 11.4c.8 1.6 2.3 2.4 4.4 2.4 2 0 4.3-1.6 7-4.9a125.3 125.3 0 0 0 15.8-28.7l.2-4.1c.2-2.2 0-4.3-.3-6.4-.4-2-1.2-3.5-2.5-4.4-1.3-1-3.4-.5-6.3 1.4Zm143.9-108h6.1c1.2 0 2.4.2 3.6.8a8 8 0 0 0 3.5.8l6.4-1.7h3.6c1 0 2.2.3 3.5 1a17.1 17.1 0 0 1 6.4 5.5c.7 1 1 2 1 2.8a28 28 0 0 1-.9 6.8 24.7 24.7 0 0 1-9.1 13.3 24 24 0 0 1-9.1 4h-4.3c-1.7 0-3.6.5-5.6 1.3a26.6 26.6 0 0 0-10.4 7.7 7.7 7.7 0 0 0-1.8 4.6c-1.2 1-2 2.5-2.4 4.7a16 16 0 0 1-2.1 5.8 8 8 0 0 0-2.2 5.2l-.3 5-2.5 7.6c0 2-.5 4-1.4 6l-3 6.3a60.7 60.7 0 0 0-3.1 7.3c-1 2.6-1.4 5.4-1.4 8.5v4.2c0 .8.3 1.2.9 1.5.3.2.7.2 1.1.2 1.1 0 2.2-.8 3.2-2.5a67 67 0 0 1 4.1-5.7c1.7-2.1 3.7-4 6.2-5.7a16 16 0 0 1 9.3-2.6l5-1.7c3.5 0 6.2 1 8 2.9 1.8 1.9 2.7 4.5 2.7 7.7v1.7l-1.8 4.2 1 3.4a20.4 20.4 0 0 1 .8 6c0 1.5-.2 2.5-.7 2.9a105.4 105.4 0 0 1-1.1 3c0 .5 0 1 .2 1.3l.5 1.4a10.8 10.8 0 0 1-.7 5.5v6.3c0 .4-.4 1.3-1.3 2.7l-2.8 4.5-3.4 5.5a27 27 0 0 0-2.7 5.7L564 502a264.7 264.7 0 0 1-13.8 17.4 29.6 29.6 0 0 1-4 4.4c-1.7 1-3 1.9-3.9 2.8s-1.8 1.5-2.7 2c-.9.6-2 1-3.4 1.3-1.4.3-3.5.5-6.4.5l-6.3 1.6c-1.3 0-2-.3-2.5-1-.5-.5-.8-1.4-1-2.4l-.4-3.5a10 10 0 0 0-1.2-3.6c0-.7-.2-1.5-.6-2.2-.5-.8-.9-1.6-1.2-2.5l-3-3.3c-1-1-1.5-2.3-1.5-3.9 0-1.1.4-2.6 1.1-4.4.5-1 1-2 1.4-3.2v-6.3l2-19.5V472l4.4-19.9v-7.6c0-1.1.4-3.5 1.2-7.2.8-3.6 1.3-8 1.3-12.9v-5.9l6.3-24v-1.8a283.2 283.2 0 0 1 1.8-11.4l2.1-8.5 1.8-5.9c.3-2 1-4 2-5.6 1-1.6 2.4-3.9 4.4-6.8l21.6-17.6Zm-12.8 113.4c-2.1 0-4.3 1.5-6.5 4.5s-4.2 6.3-6 10.1a99.8 99.8 0 0 0-4.5 11.1c-1.3 3.6-1.9 6-1.9 7.1v8.3a14.4 14.4 0 0 0 1.4 6.4c.3.8.8 1.2 1.6 1.2h2.7c2.2-.7 4.5-2 7-3.8a50.6 50.6 0 0 0 12.3-13.1 13 13 0 0 0 2.1-6.6v-10l-1.1-4.2 1.1-3.3c0-5.1-2.7-7.7-8.2-7.7Zm108.2-28.3c2.5 0 4.7.9 6.3 2.7a8 8 0 0 1 2.5 5.6l-2 5.9c.9.8 1.5 2 1.8 3.6.2.7.2 1.5.2 2.3 0 2.8-.3 5.4-1 7.8-.7 2.4-1 5-1 8v1.7a15.2 15.2 0 0 1-1 5.1l-.8 3.2v2.3a8 8 0 0 1-.8 3.8c-.6 1-1.1 2.3-1.7 3.8-.3 1.2-.8 2.3-1.5 3.5a7.3 7.3 0 0 0-.6 6.3 11.4 11.4 0 0 0 3.6 5.1 4 4 0 0 0 2.8 1c1.2 0 2.3-.4 3.3-1a10 10 0 0 0 2.4-2.4c.8-.7 1.5-1.3 2.4-1.8.8-.5 1.8-.7 2.8-.7h4.4c.9 0 1.4.4 1.5 1.2.2.9.3 1.9.3 3 0 .4-.7 1.3-2 2.5a306.9 306.9 0 0 1-9.6 8.4 80.5 80.5 0 0 1-3.4 2.6 122.3 122.3 0 0 1-8 12.4 47.1 47.1 0 0 1-5.8 6.5c-2 2-3.8 2.9-5.4 2.9-1 0-2.2-.3-3.5-1a15.7 15.7 0 0 1-6.1-5.8c-.7-1.1-1-2.2-1-3.4v-3.4l-.3-3c-.1-.8-.7-1.2-1.6-1.2v-4l1.8-6v-9.9c0-2 .3-3.8 1-5 .5-1.3.9-3 .9-4.9V478c0-1 .3-2.4 1-4.2a635 635 0 0 0 4.3-12.2c.7-2 1-3.8 1-5.4 0-1.1-.5-2.3-1.5-3.7-1-1.3-2.6-2-4.9-2-.9 0-1.7.3-2.3.9-.7.5-2.7.8-5.8.8-.4-.1-.7-.5-1-1-.6-.9-.9-2-.9-3.2v-3.4c0-1.3 1.4-3.1 4-5.6a138 138 0 0 1 19-14c3.2-1.8 5.3-2.8 6.2-2.8Zm.6-49.9c.6 0 1.4 0 2.4-.3a203.5 203.5 0 0 1 8.3-1.6c2.1.7 3.5 2 4.1 3.6.6 1.7 1.6 3.5 2.8 5.3 0 1.1 0 2.3.3 3.4l.3 3.2a7 7 0 0 1-.9 3 10 10 0 0 0-.9 4.6l-1.2 3.6c-.6 1.4-1.2 2.7-2 3.9a17 17 0 0 1-3 3c-1.2.7-2.5 1-4 .7a15.6 15.6 0 0 1-12.5-7.2c-1.1-.9-1.5-2.1-1.2-3.8.3-1.7.5-3.2.5-4.5 0-3.8.7-6.9 2-9.3 1.4-2.4 3-4.9 5-7.6Zm105 49.9c1.7-.3 2.8 0 3.3.6.5.8 1.8 1.5 3.7 2.4a19 19 0 0 1 4.4 3 5.3 5.3 0 0 1 1.8 4l-.5 2.3c-.3 1.8-.1 3.6.5 5.3 0 1.2-.3 2.8-.8 4.5a8 8 0 0 0-.3 4.4l1.3 1.6 1.5 1.2c.5.4 1 .4 1.5.1 1.5-.3 3.1-1.6 4.9-4a84 84 0 0 0 5-8l5.1-8.7c1.7-2.8 3.2-4.7 4.6-5.7l7-1.7c1-.3 2-.3 3-.2l2.7.2c2.9 1.6 4.7 3.7 5.5 6.5l1.6 6.4c.1 2-.6 4.6-2.2 7.8-1.6 3.3-3.6 6-6 8a27.7 27.7 0 0 1-5.7 2.4l-1.7-.1-1.5-.6a9 9 0 0 0-2.2-.5l-2.4-.1c-2 0-3.8.7-5.5 2.1a96.8 96.8 0 0 0-5.2 4.4 33.5 33.5 0 0 0-8.2 20.6L776 484a15.2 15.2 0 0 0-3.3 5.1c-1 2-1.3 4-1.3 6.2.1 2-.3 4.1-1.2 6v5.9a77.7 77.7 0 0 1-2.3 13.7 41 41 0 0 1-2 5.9 27.3 27.3 0 0 1-8.6 3.2l-6 .8c-.8 0-1.8-.6-3-1.7l-1.6-1.7-3.2-6c-.1-1 0-2.6.5-5a149.7 149.7 0 0 1 3.3-14l.8-3.3c3.3-4.7 5.5-9.6 6.6-14.7 1-5.2 2.2-10.3 3.4-15.4l-1.8-13.9c-.8-1.8-1.7-2.8-2.9-2.8s-2.3.2-3.5.5a12 12 0 0 0-8 4.2 25 25 0 0 1-2.5 2.4c-.9.8-2.5 1.3-4.7 1.6-1.3 0-2-.7-2.3-2-.3-1.5-.6-2.8-1-3.9a5 5 0 0 1 .8-3.7c.7-1.2 1.7-2.3 3-3.4l4.5-3.2a44 44 0 0 0 4.5-3.2 45 45 0 0 0 4.8-6l4-6.2a23 23 0 0 1 4.8-4.9 13 13 0 0 1 6.7-2.4Zm126.8 0c2.5 0 4.7.9 6.3 2.7a8 8 0 0 1 2.5 5.6l-2 5.9c.9.8 1.5 2 1.8 3.6.2.7.2 1.5.2 2.3 0 2.8-.3 5.4-1 7.8-.7 2.4-1 5-1 8v1.7a15.2 15.2 0 0 1-1 5.1l-.8 3.2v2.3a8 8 0 0 1-.8 3.8c-.6 1-1.1 2.3-1.7 3.8-.3 1.2-.8 2.3-1.5 3.5a7.3 7.3 0 0 0-.6 6.3 11.4 11.4 0 0 0 3.6 5.1 4 4 0 0 0 2.8 1c1.2 0 2.3-.4 3.3-1a10 10 0 0 0 2.4-2.4c.8-.7 1.5-1.3 2.4-1.8.8-.5 1.8-.7 2.8-.7h4.4c.9 0 1.4.4 1.5 1.2.2.9.3 1.9.3 3 0 .4-.7 1.3-2 2.5a306.9 306.9 0 0 1-9.6 8.4 80.5 80.5 0 0 1-3.4 2.6 122.3 122.3 0 0 1-8 12.4 47.1 47.1 0 0 1-5.8 6.5c-2 2-3.8 2.9-5.4 2.9-1 0-2.2-.3-3.5-1a15.7 15.7 0 0 1-6.1-5.8c-.7-1.1-1-2.2-1-3.4v-3.4l-.3-3c-.1-.8-.7-1.2-1.6-1.2v-4l1.8-6v-9.9c0-2 .3-3.8 1-5 .5-1.3.9-3 .9-4.9V478c0-1 .3-2.4 1-4.2a635 635 0 0 0 4.3-12.2c.7-2 1-3.8 1-5.4 0-1.1-.5-2.3-1.5-3.7-1-1.3-2.6-2-4.9-2-.9 0-1.7.3-2.3.9-.7.5-2.7.8-5.8.8-.4-.1-.7-.5-1-1-.6-.9-.9-2-.9-3.2v-3.4c0-1.3 1.4-3.1 4-5.6a138 138 0 0 1 19-14c3.2-1.8 5.3-2.8 6.2-2.8Zm.6-49.9c.6 0 1.4 0 2.4-.3a203.5 203.5 0 0 1 8.3-1.6c2.1.7 3.5 2 4.1 3.6a21 21 0 0 0 2.8 5.3c0 1.1 0 2.3.3 3.4l.3 3.2a7 7 0 0 1-.9 3 10 10 0 0 0-.9 4.6l-1.2 3.6c-.6 1.4-1.2 2.7-2 3.9a17 17 0 0 1-3 3c-1.2.7-2.5 1-4 .7a15.6 15.6 0 0 1-12.5-7.2c-1.1-.9-1.5-2.1-1.2-3.8.3-1.7.5-3.2.5-4.5 0-3.8.7-6.9 2-9.3 1.4-2.4 3-4.9 5-7.6Zm105 53.5a5 5 0 0 1 3.9 1.5c.9 1 1.7 2 2.5 3.2.4 1 .6 2.3.4 4-.1 1.7-.4 3.4-.8 5a259.7 259.7 0 0 1-1.7 8l.7 3.5 2.5 4.2c.6 0 1.8-.8 3.5-2.4a199.8 199.8 0 0 0 13.6-13.8 283 283 0 0 1 14-13.7c2-1.7 3.5-2.5 4.4-2.5 1.2 0 2.2.7 3 2.1l2.4 4.5c.8 1.8 1.5 4 2.1 6.3a97.9 97.9 0 0 1-2.6 19.8 512.5 512.5 0 0 1-6.4 24.5 1425.7 1425.7 0 0 1-3.5 12.8l-.3 2-.2 2.1c0 .6.2 1.2.6 1.6.4.4 1.2.7 2.4.7l2.7-1.7 2.5-1.7a1400 1400 0 0 0 10.1-6.2c2.2-1.4 3.6-2 4.2-2 1 0 2 .4 3 1.3 1 1 1.6 1.8 1.6 2.6a49.3 49.3 0 0 1-9.1 10.2c-1.4 1.1-2.4 1.7-3 1.7 0 1.1-.4 2.2-1.2 3.2-.9 1-1.7 1.4-2.6 1.4a60.3 60.3 0 0 0-6.2 7 97.4 97.4 0 0 1-5 6.3 21.6 21.6 0 0 1-5.5 4.5 15 15 0 0 1-7.5 1.7c-1 0-2.1-.3-3.3-1a13.5 13.5 0 0 1-5.2-6 7.9 7.9 0 0 1-.8-3.1l-.7-7.6c1-3.9 2.1-8 3.5-12.3a1293.5 1293.5 0 0 0 7-21.6c.8-3 1.3-5.8 1.6-8.4V465c-.6-3.9-2.1-5.9-4.6-5.9-3.6 0-6.5.8-8.6 2.2a17.9 17.9 0 0 0-5.3 5.8 46.7 46.7 0 0 0-3.5 7.5 64.6 64.6 0 0 1-4.8 10c-.2.8-.2 1.7.1 2.9l-1 5c-.4 1.7-.9 3.3-1.5 4.9a546 546 0 0 0-8.8 25.8c.7 1.1.6 1.8-.4 2l-2.8.3-3.9-.1a20 20 0 0 1-4.9-.7c-1.6-.5-3-1.1-4.3-2-1.3-.8-2-2-2.2-3.5-.3-2.4 0-5 1-7.5a59.3 59.3 0 0 1 6.3-13.3c1-1.6 1.6-2.8 1.6-3.3v-7.6l-1.1-3.6c0-.9.3-2 .9-3.3a82 82 0 0 1 3.8-7.7c.6-1.2 1-2 1-2.6v-3l-.7-8.2c0-.8-.1-1.7-.4-2.6-.2-1-1-1.4-2.1-1.4-1 0-2 .2-3.1.6a62.2 62.2 0 0 0-6.6 2.8 7 7 0 0 1-2.4.6h-1.8c-1-.6-1.3-1.6-.8-3.3.5-1.6.8-2.8.8-3.7 3.8-5 7.5-9.2 11-13a59.4 59.4 0 0 1 17.2-12.1c1.8-.9 3.6-1.3 5.3-1.3Zm163.1-34h4l3.7.7c1.1.4 2 1 2.7 1.7.7.8 1 1.9 1 3.3 0 .8-1 2.4-3.1 4.7l-7 7.6a169 169 0 0 0-7 8c-2 2.7-3.1 4.7-3.1 6.1 0 1.1.3 2 1 2.5.7.6 1.5 1 2.4 1.2a18.4 18.4 0 0 0 5 .5h7.5l1.4-1c1.2-.9 2.2-1.3 3-1.3 2.2 0 3.9.9 4.8 2.6 1 1.6 1.5 3.5 1.5 5.7v5.7c0 1.5-.9 2.7-2.7 3.6-1.8.8-3.8 1.4-6 1.9a53.4 53.4 0 0 1-14 .7c-.3-.2-1-.3-1.8-.3h-4.6c-1 0-2.2.4-3.9 1.2-1.6.9-2.5 1.9-2.5 3a33.3 33.3 0 0 1-.7 7.2l-.4 2.7-1.4 2.4a8 8 0 0 0-1.1 3.6v2.3a30.2 30.2 0 0 1-3.2 12.9c-.8.7-1.4 1.4-1.8 2-.5.6-.7 2.3-.7 5v4.2c0 .8.1 1.9.4 3 .3 1.3.9 2.4 1.6 3.3.8 1 1.7 1.9 2.8 2.6a7 7 0 0 0 4 1 8 8 0 0 0 5-1.4l1.9-1.5a4 4 0 0 1 2.8 1c.7.6 1.4 1.2 2 2a14 14 0 0 1 1.6 3 10 10 0 0 1-1.5 4.3 38.9 38.9 0 0 1-7.9 10c-1.5 1.4-2.8 2.1-3.9 2.1s-2 .8-3 2.4a8.2 8.2 0 0 0-1.5 3.5l-2.5.4a387.7 387.7 0 0 0-8.2 2c-2 0-3.5-.2-4.7-.4s-1.7-.9-1.7-2a9.3 9.3 0 0 1-2-3 92.2 92.2 0 0 1-5.1-12.1c-.7-2-1-3.5-1-4.3v-10a221.8 221.8 0 0 1 2-10.7 126.5 126.5 0 0 0 1.8-13.4v-3.6l3.4-8.6a126 126 0 0 1 3.4-9.6v-6.5c0-1.8-.6-3-1.8-3.4l-3-2.1c-1-.7-1.5-1.6-1.5-2.8 0-.8.3-1.7 1-2.6.7-1 1.5-1.9 2.5-2.8l3-3.1c1-1 1.7-2 2.3-3 1.1-2.2 2.1-3.5 3.1-4l3.3-2c2-2.1 4.1-3.9 6.4-5.3a22 22 0 0 0 9.1-12.5c.6-2 2-3.5 4-4.6 2-.6 3.8-1.7 5.3-3.3 1.5-1.6 2.8-2.4 3.7-2.4Zm93.2 31.7c2.1 0 4.7 0 7.8.2 3.1.1 5.8.6 7.9 1.5 2.3 0 3.7.8 4.4 2.5l2.6 5.7a26.9 26.9 0 0 1 6.2 8.7 8 8 0 0 1 .7 3l-1.8 18.8c0 4-1 8.3-2.8 13a40 40 0 0 1-8 13c-1.2 1.1-2 2.3-2.6 3.7a301 301 0 0 0-3.4 8.4c-.6 1.5-1.6 3-2.8 4.4a152.8 152.8 0 0 1-6.7 8 36 36 0 0 1-4.1 4 17 17 0 0 1-4.5 2.5 127 127 0 0 0-9.8 5.1c-1.2.6-2.4 1-3.7 1.2-1.3.2-2.7.3-4.2.3a14 14 0 0 1-6.4-1.5 17 17 0 0 1-5.1-3.9 21.1 21.1 0 0 1-3.5-5.5c-1-2-1.4-4.1-1.4-6.2V496a3 3 0 0 0-1-2.3c-.5-.7-.8-2.7-.8-6-.2-4 .9-9 3.2-14.8a141 141 0 0 1 17.4-31.8c3-4.3 5.5-7 7.1-7.9 1.7-1 3.1-2 4.2-3.3a78 78 0 0 1 3.3-3.3c1.1-1 2.2-1.8 3.3-2.4s2.7-1 4.5-1Zm1.1 24a12 12 0 0 0-7.4 3c-2.5 1.8-4.8 4-7 6.5a81 81 0 0 0-9 12.8l-2.3 8a62.7 62.7 0 0 0-2 9v4.1c.6.4 1.1 1.3 1.6 2.5s1 2.6 1.7 3.9a13 13 0 0 0 2.3 3.3c1 1 2.2 1.5 4 1.5 3-1.3 5.8-2.5 8.3-3.8 2.2-1.1 4.2-2.3 6.3-3.6s3.5-2.5 4.2-3.8a256 256 0 0 0 6.4-14.6c-.3-1.1 0-2.2 1-3.4 1-1 1.5-2.1 1.5-3.1v-6a29.5 29.5 0 0 0-2.4-9.2 20 20 0 0 0-3-5 6 6 0 0 0-4.2-2ZM372.1 677a12.6 12.6 0 0 1 4.7-10 27 27 0 0 1 4.9-3.6 190.6 190.6 0 0 1 17-9.3c3.4-1.6 7.6-2.4 12.6-2.4l8.4.1c2.4.1 5 1 7.5 2.9a14 14 0 0 1 4.5 5 16.4 16.4 0 0 1 .4 11.3c-.5 1.5-1.3 3-2.3 4.2-1 1.3-2.2 2.3-3.6 3-1.4.9-3 1.2-4.7 1.2s-3-.4-4-1.1a28 28 0 0 1-2.7-2.5l-2.7-2.4a6 6 0 0 0-3.8-1.1c-2 0-4 .1-6 .5-2 .3-4 1-5.6 1.8-1.7.8-3 1.9-4 3.2a7 7 0 0 0-1.7 4.6c0 1.7.6 2.9 1.8 3.6 1.2.7 2.7 1.2 4.5 1.5l5.6.8c2 .3 3.7.9 5.4 1.7l10.6 5.3c3 1.6 6.3 3.5 10.1 6a91.5 91.5 0 0 0 9.8 4.6A56 56 0 0 1 453 718c2.7 3.2 4 7.6 4 13v4.8c0 1.7.3 3.2 1 4.5.5 1.4.8 3 .8 4.8 0 3-.6 5.4-2 7.2-1.2 1.8-2.5 4-3.7 6.3a4.7 4.7 0 0 0 0 2.9c.3.8.1 1.6-.7 2.4-.6 1.8-1.5 3-3 3.6-1.3.6-2.6 1.6-3.8 3a63 63 0 0 1-11.3 7.6 88.2 88.2 0 0 1-20.3 7.6 7 7 0 0 0-2.8 1.4c-.7.6-1.7 1-3 1s-2.4-.2-3.1-.4a18 18 0 0 0-7.9.3c-1.3.4-2.9.6-4.9.6-1.2 0-2.1-.2-2.8-.7-.7-.5-1.6-.9-2.9-1.2-1.6-.5-3.1-.8-4.4-.7-1.3 0-2.8 0-4.4-.3a6 6 0 0 1-4.1-1.4 21.2 21.2 0 0 0-8.9-4.6c-1.5-.4-3.1-1.3-4.8-2.9-1.7-.8-2.6-2-2.7-3.3a12 12 0 0 0-1.6-4.3 53.4 53.4 0 0 0-3.2-5.6c-1-1.3-1.4-3.4-1.4-6.2 0-4.1 1.7-7.7 5-10.7 3.4-3 7.4-4.6 12.1-4.6 2.9 0 5.6.6 8.2 1.8 2.6 1.2 3.9 3 3.9 5.4 0 .9-.2 1.5-.4 2s-.3.8-.3 1.4c0 1 .2 1.8.7 2.3.4.6.6 1.2.6 2 0 .2 0 .6-.3 1a3 3 0 0 0-.3 1.2c0 2.2.6 4 1.8 5.4a16 16 0 0 0 4.6 3.8 23 23 0 0 0 6.5 2.4c2.5.5 4.9.7 7.3.7 4.9 0 9.3-1 13.3-3.2 4-2 7.7-4.9 10.8-8.4 1.9-1.8 3.4-3.7 4.6-5.7a14 14 0 0 0 1.8-7.4 9 9 0 0 0-1.4-4.8c-.9-1.5-1.3-3-1.3-4.5 0-.7 0-1.1.3-1.2.2 0 .4-.2.4-.5 0-2.3-.7-4.1-2-5.6s-2.9-2.8-4.9-4c-2-1-4.1-2.1-6.5-3.1-2.3-1-4.6-2-6.9-3.2-.6-.3-1.1-.7-1.5-1.5a3 3 0 0 0-1.7-1.4c-1.5-.7-3-1.1-4.5-1.2a7 7 0 0 1-4.4-1.8 7 7 0 0 1-2.5-2.2 8.5 8.5 0 0 0-2.5-2.4c-1.6-.7-3.1-1.1-4.4-1.2-1.3 0-2.8-.7-4.4-1.8l-2.4-2.5c-.7-.7-1.4-1.7-2-2.8a13.6 13.6 0 0 0-4.4-3.4c-1.8-.8-2.6-2.3-2.6-4.4V688c0-.9-.1-1.7-.3-2.5l-.2-2.8c0-.6 0-1 .2-1.4.2-.3.3-.8.3-1.3 0-.7 0-1.3.3-1.8l.3-1.2Zm189.9 0c3.2 0 5.9.6 8 1.7 2.3 1 4 2.5 5.4 4.3 1.4 1.8 2.4 4 3 6.4.6 2.4.8 4.9.7 7.6a11 11 0 0 1-4.6 9.2 68 68 0 0 1-9.3 6 65 65 0 0 1-9.2 4.9c-3.3 1.4-6.3 3-9.1 4.6a28 28 0 0 0-7 6 14 14 0 0 0-3.2 8.6v8.9a11 11 0 0 0 1.6 7c1.4 2.4 3.1 3.5 5.3 3.5.1.2.7 0 1.8-.6a70.9 70.9 0 0 0 10.2-6.3l5.4-2.5c1.3-.6 2.2-.8 2.8-.5 1.1 0 2 .2 2.8.4.7.3 1.1 1.4 1.1 3.2-.3 3.1-1.7 6.1-4.3 9a72.7 72.7 0 0 1-17.3 14.5 45.5 45.5 0 0 0-5.7 4 13 13 0 0 1-7.2 3.4l-6.7.2a9.2 9.2 0 0 1-4.2-1.7 19.7 19.7 0 0 1-6.5-7.6 6.6 6.6 0 0 1-.7-3.6V764c0-1-.3-2-.9-3.2l-.9-1.4.7-4.3v-3.4l.4-4.5a223.4 223.4 0 0 1 2.4-16.3l.8-5.2c.6-.4 1-.8 1-1.2l-.3-1.3-.2-1.6a4 4 0 0 1 .9-2.2c0-1.7.4-3.5 1.1-5.3l1.4-3 3.2-7c.3-3 1.9-6.3 4.8-9.6a55 55 0 0 1 22.1-15.4c4-1.6 7.5-2.3 10.4-2Zm-10.2 16c-.8 0-1.6.5-2.3 1.5a50.4 50.4 0 0 0-4.6 8.4l-.7 2.4-.6 2.6c-.2.7-.1 1.4.2 1.9.3.5.9.7 1.8.7.8.1 2 0 3.4-.4a23.6 23.6 0 0 0 9-5c1.3-1.2 2-2.5 2.2-3.9v-3.6a3 3 0 0 0-.7-1.9c-.5-.6-1-1-1.6-1.3a10 10 0 0 0-2.3-1l-3.8-.4Zm117.9-15.5c2 .3 4 .7 6.4 1.3a23 23 0 0 1 6.3 2.4c1.8 1 3.3 2.5 4.3 4.2 1.1 1.8 1.5 4 1.2 7 0 1.5-.4 3-1 4.3-.7 1.5-1.6 2.8-2.5 4-1 1.2-2.1 2.1-3.3 2.8-1.3.7-2.3 1-3.2 1a163.5 163.5 0 0 0-5-.4h-3.2l-8.7.2c-3.2.2-5.4.7-6.6 1.5-1.2 0-1.9.4-2.1 1-.3.8-.4 1.6-.4 2.6l-3.2 4.7-.9 4.8-.9 3.8-.7 2.6v3.4l-1.8 5.9-1.1 1.7a53 53 0 0 1-1.6 3 44 44 0 0 0 5.1 17c1 1.4 2 2.2 3.3 2.4 2.3 0 4.6-.9 7-2.6a85 85 0 0 0 7.2-5.6l6.9-5.5a9.5 9.5 0 0 1 6-2.2c2.3.3 3.6.8 3.9 1.6.3.8.3 1.6 0 2.4-.2 2-1 4.3-2.7 6.8a76.4 76.4 0 0 1-18.3 18.6c-5 3-9.5 5.4-13.4 7.4-4 2-8.4 2.8-13.2 2.6a6.8 6.8 0 0 1-5.2-3.1c-1.4-1.9-2.5-4-3.2-6.6a52.9 52.9 0 0 1-2.3-12.5l.7-2-.3-2.8a66 66 0 0 1-.3-4.2l-.2-4.3c-.1-1.5 0-2.5 0-3.2 0-4.4.6-7.8 1.7-10.3 1-2.4 1.6-5 1.6-7.9l2.5-5.3v-4.8a418.3 418.3 0 0 0 3.3-9.2 179.6 179.6 0 0 0 4.2-12c0-.8.5-1.9 1.6-3.2a28.7 28.7 0 0 1 8.3-6.7c1.6-.9 3-1.3 4.2-1.3l1.6-.6.2-.5c0-.2 0-.3.2-.5s.7-.4 1.6-.7a36 36 0 0 0 8.7-2l3-.9c1-.2 2.4-.2 4.2 0Zm99.9-1.7c1.7-.3 2.8 0 3.3.7s1.8 1.4 3.8 2.3a19 19 0 0 1 4.3 3 5.3 5.3 0 0 1 1.8 4l-.5 2.3c-.3 1.8-.1 3.6.5 5.3 0 1.3-.3 2.8-.8 4.5a8 8 0 0 0-.3 4.4l1.3 1.7 1.5 1.1c.5.4 1 .4 1.5.1 1.5-.3 3.1-1.6 4.9-4a84 84 0 0 0 5.1-8l5-8.7c1.7-2.8 3.2-4.7 4.6-5.7l7-1.7c1-.3 2-.3 3-.2l2.7.2c2.9 1.6 4.7 3.7 5.5 6.5l1.6 6.4c.1 2-.6 4.6-2.2 7.8-1.6 3.3-3.6 6-6 8a27.7 27.7 0 0 1-5.7 2.4l-1.7-.1-1.5-.6a9 9 0 0 0-2.2-.5l-2.4-.1c-2 0-3.8.7-5.5 2.1a96.8 96.8 0 0 0-5.2 4.4 33.5 33.5 0 0 0-8 20.6l-3.8 3.7a15.2 15.2 0 0 0-3.3 5.1c-1 2-1.3 4-1.3 6.2.1 2-.3 4.1-1.2 6v5.9a77.7 77.7 0 0 1-2.3 13.7 41 41 0 0 1-2 5.9 27.3 27.3 0 0 1-8.6 3.2l-6 .8c-.8 0-1.8-.6-3-1.7l-1.6-1.7-3.1-6c-.2-1 0-2.6.4-5a149.7 149.7 0 0 1 3.3-14l.8-3.3c3.4-4.7 5.6-9.6 6.6-14.7 1-5.2 2.2-10.3 3.4-15.3l-1.8-14c-.8-1.8-1.7-2.7-2.8-2.7s-2.4 0-3.6.4c-2.4.4-4.2 1-5.2 1.8s-2 1.6-2.7 2.4a25 25 0 0 1-2.5 2.4c-1 .8-2.5 1.3-4.8 1.6-1.2 0-2-.7-2.3-2-.3-1.5-.6-2.8-1-3.9a5 5 0 0 1 .8-3.7c.7-1.2 1.7-2.3 3-3.4l4.5-3.2a44 44 0 0 0 4.5-3.2 45 45 0 0 0 4.8-6c1.4-2.2 2.7-4.3 4.1-6.2a23 23 0 0 1 4.7-4.9 13 13 0 0 1 6.7-2.4Zm139.3 1.2c3.2 0 5.9.6 8 1.7 2.3 1 4 2.5 5.4 4.3 1.4 1.8 2.4 4 3 6.4.6 2.4.8 4.9.7 7.6a11 11 0 0 1-4.6 9.2 68 68 0 0 1-9.3 6 65 65 0 0 1-9.2 4.9c-3.3 1.4-6.3 3-9.1 4.6a28 28 0 0 0-7 6 14 14 0 0 0-3.2 8.6v8.9a11 11 0 0 0 1.6 7c1.4 2.4 3.1 3.5 5.3 3.5.1.2.7 0 1.8-.6a70.9 70.9 0 0 0 10.2-6.3l5.4-2.5c1.3-.6 2.2-.8 2.8-.5 1.1 0 2 .2 2.8.4.7.3 1.1 1.4 1.1 3.2-.3 3.1-1.7 6.1-4.3 9a72.7 72.7 0 0 1-17.3 14.5 45.5 45.5 0 0 0-5.7 4 13 13 0 0 1-7.2 3.4l-6.7.2a9.2 9.2 0 0 1-4.2-1.7 19.7 19.7 0 0 1-6.5-7.6 6.6 6.6 0 0 1-.7-3.6V764c0-1-.3-2-.9-3.2l-.9-1.4.7-4.3v-3.4l.4-4.5a223.4 223.4 0 0 1 2.4-16.3l.8-5.2c.6-.4 1-.8 1-1.2l-.3-1.3-.2-1.6a4 4 0 0 1 .9-2.2c0-1.7.4-3.5 1.1-5.3l1.4-3 3.2-7c.3-3 1.9-6.3 4.8-9.6a55 55 0 0 1 22.1-15.4c4-1.6 7.5-2.3 10.4-2Zm-10.2 16c-.8 0-1.6.5-2.3 1.5a50.4 50.4 0 0 0-4.6 8.4l-.7 2.4-.6 2.6c-.2.7-.1 1.4.2 1.9.3.5.9.7 1.8.7.8.1 2 0 3.4-.4a23.6 23.6 0 0 0 9-5c1.3-1.2 2-2.5 2.2-3.9v-3.6a3 3 0 0 0-.7-1.9c-.5-.6-1-1-1.6-1.3a10 10 0 0 0-2.3-1l-3.8-.4Zm124.7-47.6h4l3.6.7c1.2.4 2 1 2.7 1.7.7.8 1 1.9 1 3.3 0 .8-1 2.4-3.1 4.7l-7 7.7c-2.5 2.8-4.8 5.4-6.9 8-2.1 2.6-3.2 4.6-3.2 6 0 1.1.3 2 1 2.5.7.6 1.5 1 2.4 1.2a18.4 18.4 0 0 0 5 .5h7.5l1.4-1c1.2-.9 2.2-1.3 3-1.3 2.2 0 3.9.9 4.9 2.5a11 11 0 0 1 1.4 5.8v5.7c0 1.5-.9 2.7-2.7 3.6-1.8.8-3.8 1.4-6 1.9a53.4 53.4 0 0 1-14 .7c-.3-.2-1-.3-1.8-.3h-4.6c-.9 0-2.2.4-3.9 1.3-1.6.8-2.5 1.8-2.5 3a33.3 33.3 0 0 1-.7 7.1l-.4 2.8-1.4 2.3a8 8 0 0 0-1.1 3.6v2.3a30.2 30.2 0 0 1-3.2 12.9c-.8.7-1.4 1.4-1.8 2-.5.6-.7 2.3-.7 5v4.2c0 .9.1 1.9.5 3 .3 1.3.8 2.4 1.5 3.4.8 1 1.7 1.8 2.8 2.5a7 7 0 0 0 4 1 8 8 0 0 0 5-1.4c.7-.4 1.3-1 1.9-1.5a4 4 0 0 1 2.9 1c.6.6 1.3 1.2 1.9 2a14 14 0 0 1 1.6 3 10 10 0 0 1-1.5 4.4 38.9 38.9 0 0 1-7.9 10c-1.5 1.3-2.8 2-3.8 2s-2.1.8-3.1 2.4c-1 1.7-1.5 2.8-1.5 3.5l-2.5.4a387.7 387.7 0 0 0-8.2 2c-2 0-3.5-.2-4.6-.4s-1.8-.8-1.8-2a9.3 9.3 0 0 1-2-3 92.2 92.2 0 0 1-5.1-12.1c-.7-2-1-3.5-1-4.3v-10a221.8 221.8 0 0 1 2-10.7 126.5 126.5 0 0 0 1.8-13.4V724l3.4-8.6a126 126 0 0 1 3.5-9.6v-6.5c0-1.8-.6-3-1.9-3.4l-3-2.1c-1-.7-1.5-1.6-1.5-2.7 0-.9.3-1.8 1-2.7.7-1 1.5-1.9 2.5-2.8l3-3.1c1-1 1.8-2 2.4-3 1-2.2 2-3.5 3-4s2.1-1.1 3.3-2c2-2.1 4.1-3.9 6.4-5.3a22 22 0 0 0 9.1-12.5c.6-2 2-3.5 4.1-4.6 2-.6 3.7-1.7 5.2-3.3 1.6-1.6 2.8-2.4 3.7-2.4Zm93.1 31.6 7.8.3c3.2.1 5.8.6 7.9 1.5 2.3 0 3.8.8 4.4 2.5l2.7 5.7a26.9 26.9 0 0 1 6.1 8.7 8 8 0 0 1 .7 3l-1.8 18.8c0 4-1 8.3-2.8 13.1a40 40 0 0 1-8 12.9c-1.2 1.1-2 2.4-2.6 3.7a301 301 0 0 0-3.4 8.5c-.6 1.4-1.6 2.9-2.8 4.3a152.8 152.8 0 0 1-6.7 8 36 36 0 0 1-4.1 4c-1.5 1.1-3 2-4.5 2.6a127 127 0 0 0-9.7 5 14 14 0 0 1-3.8 1.2c-1.3.2-2.7.3-4.2.3a14 14 0 0 1-6.4-1.5 17 17 0 0 1-5.1-3.9 21.1 21.1 0 0 1-3.5-5.5c-1-2-1.4-4.1-1.4-6.2v-14.2c0-.8-.3-1.6-1-2.3-.5-.7-.8-2.7-.8-6-.2-4 .9-9 3.2-14.7a141 141 0 0 1 17.4-31.9c3-4.3 5.5-6.9 7.1-7.9 1.7-1 3.1-2 4.3-3.3a78 78 0 0 1 3.3-3.2c1-1 2.1-1.8 3.3-2.5s2.6-1 4.4-1Zm1.1 24.2c-2.4 0-4.8 1-7.4 2.8-2.5 2-4.8 4.1-6.9 6.6a81 81 0 0 0-9.1 12.8l-2.3 8a62.7 62.7 0 0 0-2 9.1v4c.6.4 1.1 1.3 1.6 2.6s1 2.5 1.7 3.8c.6 1.2 1.4 2.4 2.4 3.3.9 1 2.2 1.5 3.8 1.5a117.6 117.6 0 0 0 14.7-7.4c2-1.2 3.5-2.5 4.2-3.8a256 256 0 0 0 6.4-14.6c-.3-1.1 0-2.2 1-3.4 1-1 1.5-2.1 1.5-3.1v-6a29.5 29.5 0 0 0-2.4-9.2 20 20 0 0 0-3-5c-1.3-1.3-2.6-2-4.2-2Z"/>
  <path fill="none" stroke="#000" stroke-width="60" d="M282.4 408c2 0 4 .5 6 1.6a5.4 5.4 0 0 1 2.8 4.9v4a68.4 68.4 0 0 1-10.9 6h-6.8c-3.2 0-5.7.8-7.5 2.5a9 9 0 0 0-2.8 7v6.3c0 3.8-.4 8-1.4 12.5l-2.9 12.9v31.7l.4 2.2a10.5 10.5 0 0 0 3 6 4 4 0 0 0 3 1h19.6c.4 0 1.7-.3 3.7-1.2a167.5 167.5 0 0 0 14-6.5 37.6 37.6 0 0 0 8.7-6c1.2-1 2.3-1.4 3.4-1.4.9-2 1.5-3.2 2-3.5.3-.4 1-.5 2.3-.5 1 0 2.2.4 3.9 1.3 1.6 1 2.5 1.8 2.5 2.7 0 .4-.7 2-2 5l-4.6 9.7c-1.9 3.6-3.8 7-6 10.3a21.5 21.5 0 0 1-5.9 6.7c-.4.5-1.8 1-4 1.1a186.5 186.5 0 0 1-16.2.8H276c-3.2 0-6.4-.3-9.6-.9s-5.3-.5-6.4.2l-3 .7-10.9 2.3a77.7 77.7 0 0 1-7.5-1.2 86.5 86.5 0 0 0-7.5-1.1c-1.2 0-2.3.1-3.4.4a27.5 27.5 0 0 0-5.5 1.9c-1.6 0-2.9-.4-3.7-1a6.2 6.2 0 0 1-1.8-2.6c-.4-1-.6-2-.7-3l-.1-2.3c0-3 1-4.8 3-5.5 2-.7 4.3-1.3 6.8-1.8 2.4-.5 4.6-1.3 6.7-2.5 2-1.2 3-3.8 3-7.8v-17.7l1.9-15.9v-7.6l.2-3.3c.1-1.6.4-3.3.7-5.2l1.1-6.7c0-1.2-.3-2.2-1-3.2a5 5 0 0 1-1-2.7v-2.4c0-4-.7-6.6-2-8.1a13.5 13.5 0 0 0-4.3-3.4c-1.6-.8-3-1.6-4.3-2.6-1.3-1-2-3-2-6a7.6 7.6 0 0 1 3.5-6.3 8.8 8.8 0 0 1 4.7-1.9h49.4Zm166.4 13.5c3.1 0 5.4.8 6.8 2.5s2 4 2 7a127.2 127.2 0 0 1-4.6 17.1l-1.7 5.7a17.4 17.4 0 0 1-1.8 8.3c-1.3.8-1.9 2.2-1.9 4.1v4.1l-.7 11.2v8.3a41 41 0 0 0 .6 5.4c.2 1 .6 2 1.3 2.7a3 3 0 0 0 2.5 1.2l3.1-4.7a78.8 78.8 0 0 0 6.9-5.7l4-3.6c1 0 1.7.4 2.4 1 .6.8.9 1.6.9 2.4l-1 1.7a10 10 0 0 1-1.8 2.6 25 25 0 0 1-4 7.2l-5.5 6-6 5.8c-2.1 2-4 4.2-5.9 6.7l-5 6.6c0 1.3-.4 2.6-1.2 3.9-.8 1.3-1.8 2.4-3 3.2a5.8 5.8 0 0 1-3.6 1c-1.3 0-2.3-.9-3-2.4-1-2.5-1.4-5-1.4-7.5s.2-4.9.6-7.2l1.4-6.7c.5-2 .7-4.1.7-6v-12c0-.6-.5-1.1-1.6-1.4l-1.6-.2c-.5 0-1.6 1.2-3.4 3.7l-6.3 8.4-7.1 9.7a55.6 55.6 0 0 1-6 7 60.7 60.7 0 0 1-5.3 5.4c-1.1 1-2.4 2-3.8 2.7a7.6 7.6 0 0 1-3.6 1.1 7 7 0 0 1-5.2-2 15 15 0 0 1-3.2-5 32.6 32.6 0 0 1-2.3-9.9l-.7-15.2L383 471a51.4 51.4 0 0 1 5.1-13.4c1-1.8 2-3.3 3-4.4a88 88 0 0 0 12.8-14 22.9 22.9 0 0 1 11.2-8c1.8-.7 3.6-1.2 5.4-1.6 1.9-.3 4-1 6.2-2.2.9 0 2-.4 3.5-1.3l4-2.7h10.2l4.4-1.9ZM419.6 445a56.8 56.8 0 0 0-14.1 15.6 54.4 54.4 0 0 0-4.3 8 16 16 0 0 0-1.6 5.7l-.2 4a23.8 23.8 0 0 0 1.9 11.4c.8 1.6 2.3 2.4 4.4 2.4 2 0 4.3-1.6 7-4.9a125.3 125.3 0 0 0 15.8-28.7l.2-4.1c.2-2.2 0-4.3-.3-6.4-.4-2-1.2-3.5-2.5-4.4-1.3-1-3.4-.5-6.3 1.4Zm143.9-108h6.1c1.2 0 2.4.2 3.6.8a8 8 0 0 0 3.5.8l6.4-1.7h3.6c1 0 2.2.3 3.5 1a17.1 17.1 0 0 1 6.4 5.5c.7 1 1 2 1 2.8a28 28 0 0 1-.9 6.8 24.7 24.7 0 0 1-9.1 13.3 24 24 0 0 1-9.1 4h-4.3c-1.7 0-3.6.5-5.6 1.3a26.6 26.6 0 0 0-10.4 7.7 7.7 7.7 0 0 0-1.8 4.6c-1.2 1-2 2.5-2.4 4.7a16 16 0 0 1-2.1 5.8 8 8 0 0 0-2.2 5.2l-.3 5-2.5 7.6c0 2-.5 4-1.4 6l-3 6.3a60.7 60.7 0 0 0-3.1 7.3c-1 2.6-1.4 5.4-1.4 8.5v4.2c0 .8.3 1.2.9 1.5.3.2.7.2 1.1.2 1.1 0 2.2-.8 3.2-2.5a67 67 0 0 1 4.1-5.7c1.7-2.1 3.7-4 6.2-5.7a16 16 0 0 1 9.3-2.6l5-1.7c3.5 0 6.2 1 8 2.9 1.8 1.9 2.7 4.5 2.7 7.7v1.7l-1.8 4.2 1 3.4a20.4 20.4 0 0 1 .8 6c0 1.5-.2 2.5-.7 2.9a105.4 105.4 0 0 1-1.1 3c0 .5 0 1 .2 1.3l.5 1.4a10.8 10.8 0 0 1-.7 5.5v6.3c0 .4-.4 1.3-1.3 2.7l-2.8 4.5-3.4 5.5a27 27 0 0 0-2.7 5.7L564 502a264.7 264.7 0 0 1-13.8 17.4 29.6 29.6 0 0 1-4 4.4c-1.7 1-3 1.9-3.9 2.8s-1.8 1.5-2.7 2c-.9.6-2 1-3.4 1.3-1.4.3-3.5.5-6.4.5l-6.3 1.6c-1.3 0-2-.3-2.5-1-.5-.5-.8-1.4-1-2.4l-.4-3.5a10 10 0 0 0-1.2-3.6c0-.7-.2-1.5-.6-2.2-.5-.8-.9-1.6-1.2-2.5l-3-3.3c-1-1-1.5-2.3-1.5-3.9 0-1.1.4-2.6 1.1-4.4.5-1 1-2 1.4-3.2v-6.3l2-19.5V472l4.4-19.9v-7.6c0-1.1.4-3.5 1.2-7.2.8-3.6 1.3-8 1.3-12.9v-5.9l6.3-24v-1.8a283.2 283.2 0 0 1 1.8-11.4l2.1-8.5 1.8-5.9c.3-2 1-4 2-5.6 1-1.6 2.4-3.9 4.4-6.8l21.6-17.6Zm-12.8 113.4c-2.1 0-4.3 1.5-6.5 4.5s-4.2 6.3-6 10.1a99.8 99.8 0 0 0-4.5 11.1c-1.3 3.6-1.9 6-1.9 7.1v8.3a14.4 14.4 0 0 0 1.4 6.4c.3.8.8 1.2 1.6 1.2h2.7c2.2-.7 4.5-2 7-3.8a50.6 50.6 0 0 0 12.3-13.1 13 13 0 0 0 2.1-6.6v-10l-1.1-4.2 1.1-3.3c0-5.1-2.7-7.7-8.2-7.7Zm108.2-28.3c2.5 0 4.7.9 6.3 2.7a8 8 0 0 1 2.5 5.6l-2 5.9c.9.8 1.5 2 1.8 3.6.2.7.2 1.5.2 2.3 0 2.8-.3 5.4-1 7.8-.7 2.4-1 5-1 8v1.7a15.2 15.2 0 0 1-1 5.1l-.8 3.2v2.3a8 8 0 0 1-.8 3.8c-.6 1-1.1 2.3-1.7 3.8-.3 1.2-.8 2.3-1.5 3.5a7.3 7.3 0 0 0-.6 6.3 11.4 11.4 0 0 0 3.6 5.1 4 4 0 0 0 2.8 1c1.2 0 2.3-.4 3.3-1a10 10 0 0 0 2.4-2.4c.8-.7 1.5-1.3 2.4-1.8.8-.5 1.8-.7 2.8-.7h4.4c.9 0 1.4.4 1.5 1.2.2.9.3 1.9.3 3 0 .4-.7 1.3-2 2.5a306.9 306.9 0 0 1-9.6 8.4 80.5 80.5 0 0 1-3.4 2.6 122.3 122.3 0 0 1-8 12.4 47.1 47.1 0 0 1-5.8 6.5c-2 2-3.8 2.9-5.4 2.9-1 0-2.2-.3-3.5-1a15.7 15.7 0 0 1-6.1-5.8c-.7-1.1-1-2.2-1-3.4v-3.4l-.3-3c-.1-.8-.7-1.2-1.6-1.2v-4l1.8-6v-9.9c0-2 .3-3.8 1-5 .5-1.3.9-3 .9-4.9V478c0-1 .3-2.4 1-4.2a635 635 0 0 0 4.3-12.2c.7-2 1-3.8 1-5.4 0-1.1-.5-2.3-1.5-3.7-1-1.3-2.6-2-4.9-2-.9 0-1.7.3-2.3.9-.7.5-2.7.8-5.8.8-.4-.1-.7-.5-1-1-.6-.9-.9-2-.9-3.2v-3.4c0-1.3 1.4-3.1 4-5.6a138 138 0 0 1 19-14c3.2-1.8 5.3-2.8 6.2-2.8Zm.6-49.9c.6 0 1.4 0 2.4-.3a203.5 203.5 0 0 1 8.3-1.6c2.1.7 3.5 2 4.1 3.6.6 1.7 1.6 3.5 2.8 5.3 0 1.1 0 2.3.3 3.4l.3 3.2a7 7 0 0 1-.9 3 10 10 0 0 0-.9 4.6l-1.2 3.6c-.6 1.4-1.2 2.7-2 3.9a17 17 0 0 1-3 3c-1.2.7-2.5 1-4 .7a15.6 15.6 0 0 1-12.5-7.2c-1.1-.9-1.5-2.1-1.2-3.8.3-1.7.5-3.2.5-4.5 0-3.8.7-6.9 2-9.3 1.4-2.4 3-4.9 5-7.6Zm105 49.9c1.7-.3 2.8 0 3.3.6.5.8 1.8 1.5 3.7 2.4a19 19 0 0 1 4.4 3 5.3 5.3 0 0 1 1.8 4l-.5 2.3c-.3 1.8-.1 3.6.5 5.3 0 1.2-.3 2.8-.8 4.5a8 8 0 0 0-.3 4.4l1.3 1.6 1.5 1.2c.5.4 1 .4 1.5.1 1.5-.3 3.1-1.6 4.9-4a84 84 0 0 0 5-8l5.1-8.7c1.7-2.8 3.2-4.7 4.6-5.7l7-1.7c1-.3 2-.3 3-.2l2.7.2c2.9 1.6 4.7 3.7 5.5 6.5l1.6 6.4c.1 2-.6 4.6-2.2 7.8-1.6 3.3-3.6 6-6 8a27.7 27.7 0 0 1-5.7 2.4l-1.7-.1-1.5-.6a9 9 0 0 0-2.2-.5l-2.4-.1c-2 0-3.8.7-5.5 2.1a96.8 96.8 0 0 0-5.2 4.4 33.5 33.5 0 0 0-8.2 20.6L776 484a15.2 15.2 0 0 0-3.3 5.1c-1 2-1.3 4-1.3 6.2.1 2-.3 4.1-1.2 6v5.9a77.7 77.7 0 0 1-2.3 13.7 41 41 0 0 1-2 5.9 27.3 27.3 0 0 1-8.6 3.2l-6 .8c-.8 0-1.8-.6-3-1.7l-1.6-1.7-3.2-6c-.1-1 0-2.6.5-5a149.7 149.7 0 0 1 3.3-14l.8-3.3c3.3-4.7 5.5-9.6 6.6-14.7 1-5.2 2.2-10.3 3.4-15.4l-1.8-13.9c-.8-1.8-1.7-2.8-2.9-2.8s-2.3.2-3.5.5a12 12 0 0 0-8 4.2 25 25 0 0 1-2.5 2.4c-.9.8-2.5 1.3-4.7 1.6-1.3 0-2-.7-2.3-2-.3-1.5-.6-2.8-1-3.9a5 5 0 0 1 .8-3.7c.7-1.2 1.7-2.3 3-3.4l4.5-3.2a44 44 0 0 0 4.5-3.2 45 45 0 0 0 4.8-6l4-6.2a23 23 0 0 1 4.8-4.9 13 13 0 0 1 6.7-2.4Zm126.8 0c2.5 0 4.7.9 6.3 2.7a8 8 0 0 1 2.5 5.6l-2 5.9c.9.8 1.5 2 1.8 3.6.2.7.2 1.5.2 2.3 0 2.8-.3 5.4-1 7.8-.7 2.4-1 5-1 8v1.7a15.2 15.2 0 0 1-1 5.1l-.8 3.2v2.3a8 8 0 0 1-.8 3.8c-.6 1-1.1 2.3-1.7 3.8-.3 1.2-.8 2.3-1.5 3.5a7.3 7.3 0 0 0-.6 6.3 11.4 11.4 0 0 0 3.6 5.1 4 4 0 0 0 2.8 1c1.2 0 2.3-.4 3.3-1a10 10 0 0 0 2.4-2.4c.8-.7 1.5-1.3 2.4-1.8.8-.5 1.8-.7 2.8-.7h4.4c.9 0 1.4.4 1.5 1.2.2.9.3 1.9.3 3 0 .4-.7 1.3-2 2.5a306.9 306.9 0 0 1-9.6 8.4 80.5 80.5 0 0 1-3.4 2.6 122.3 122.3 0 0 1-8 12.4 47.1 47.1 0 0 1-5.8 6.5c-2 2-3.8 2.9-5.4 2.9-1 0-2.2-.3-3.5-1a15.7 15.7 0 0 1-6.1-5.8c-.7-1.1-1-2.2-1-3.4v-3.4l-.3-3c-.1-.8-.7-1.2-1.6-1.2v-4l1.8-6v-9.9c0-2 .3-3.8 1-5 .5-1.3.9-3 .9-4.9V478c0-1 .3-2.4 1-4.2a635 635 0 0 0 4.3-12.2c.7-2 1-3.8 1-5.4 0-1.1-.5-2.3-1.5-3.7-1-1.3-2.6-2-4.9-2-.9 0-1.7.3-2.3.9-.7.5-2.7.8-5.8.8-.4-.1-.7-.5-1-1-.6-.9-.9-2-.9-3.2v-3.4c0-1.3 1.4-3.1 4-5.6a138 138 0 0 1 19-14c3.2-1.8 5.3-2.8 6.2-2.8Zm.6-49.9c.6 0 1.4 0 2.4-.3a203.5 203.5 0 0 1 8.3-1.6c2.1.7 3.5 2 4.1 3.6a21 21 0 0 0 2.8 5.3c0 1.1 0 2.3.3 3.4l.3 3.2a7 7 0 0 1-.9 3 10 10 0 0 0-.9 4.6l-1.2 3.6c-.6 1.4-1.2 2.7-2 3.9a17 17 0 0 1-3 3c-1.2.7-2.5 1-4 .7a15.6 15.6 0 0 1-12.5-7.2c-1.1-.9-1.5-2.1-1.2-3.8.3-1.7.5-3.2.5-4.5 0-3.8.7-6.9 2-9.3 1.4-2.4 3-4.9 5-7.6Zm105 53.5a5 5 0 0 1 3.9 1.5c.9 1 1.7 2 2.5 3.2.4 1 .6 2.3.4 4-.1 1.7-.4 3.4-.8 5a259.7 259.7 0 0 1-1.7 8l.7 3.5 2.5 4.2c.6 0 1.8-.8 3.5-2.4a199.8 199.8 0 0 0 13.6-13.8 283 283 0 0 1 14-13.7c2-1.7 3.5-2.5 4.4-2.5 1.2 0 2.2.7 3 2.1l2.4 4.5c.8 1.8 1.5 4 2.1 6.3a97.9 97.9 0 0 1-2.6 19.8 512.5 512.5 0 0 1-6.4 24.5 1425.7 1425.7 0 0 1-3.5 12.8l-.3 2-.2 2.1c0 .6.2 1.2.6 1.6.4.4 1.2.7 2.4.7l2.7-1.7 2.5-1.7a1400 1400 0 0 0 10.1-6.2c2.2-1.4 3.6-2 4.2-2 1 0 2 .4 3 1.3 1 1 1.6 1.8 1.6 2.6a49.3 49.3 0 0 1-9.1 10.2c-1.4 1.1-2.4 1.7-3 1.7 0 1.1-.4 2.2-1.2 3.2-.9 1-1.7 1.4-2.6 1.4a60.3 60.3 0 0 0-6.2 7 97.4 97.4 0 0 1-5 6.3 21.6 21.6 0 0 1-5.5 4.5 15 15 0 0 1-7.5 1.7c-1 0-2.1-.3-3.3-1a13.5 13.5 0 0 1-5.2-6 7.9 7.9 0 0 1-.8-3.1l-.7-7.6c1-3.9 2.1-8 3.5-12.3a1293.5 1293.5 0 0 0 7-21.6c.8-3 1.3-5.8 1.6-8.4V465c-.6-3.9-2.1-5.9-4.6-5.9-3.6 0-6.5.8-8.6 2.2a17.9 17.9 0 0 0-5.3 5.8 46.7 46.7 0 0 0-3.5 7.5 64.6 64.6 0 0 1-4.8 10c-.2.8-.2 1.7.1 2.9l-1 5c-.4 1.7-.9 3.3-1.5 4.9a546 546 0 0 0-8.8 25.8c.7 1.1.6 1.8-.4 2l-2.8.3-3.9-.1a20 20 0 0 1-4.9-.7c-1.6-.5-3-1.1-4.3-2-1.3-.8-2-2-2.2-3.5-.3-2.4 0-5 1-7.5a59.3 59.3 0 0 1 6.3-13.3c1-1.6 1.6-2.8 1.6-3.3v-7.6l-1.1-3.6c0-.9.3-2 .9-3.3a82 82 0 0 1 3.8-7.7c.6-1.2 1-2 1-2.6v-3l-.7-8.2c0-.8-.1-1.7-.4-2.6-.2-1-1-1.4-2.1-1.4-1 0-2 .2-3.1.6a62.2 62.2 0 0 0-6.6 2.8 7 7 0 0 1-2.4.6h-1.8c-1-.6-1.3-1.6-.8-3.3.5-1.6.8-2.8.8-3.7 3.8-5 7.5-9.2 11-13a59.4 59.4 0 0 1 17.2-12.1c1.8-.9 3.6-1.3 5.3-1.3Zm163.1-34h4l3.7.7c1.1.4 2 1 2.7 1.7.7.8 1 1.9 1 3.3 0 .8-1 2.4-3.1 4.7l-7 7.6a169 169 0 0 0-7 8c-2 2.7-3.1 4.7-3.1 6.1 0 1.1.3 2 1 2.5.7.6 1.5 1 2.4 1.2a18.4 18.4 0 0 0 5 .5h7.5l1.4-1c1.2-.9 2.2-1.3 3-1.3 2.2 0 3.9.9 4.8 2.6 1 1.6 1.5 3.5 1.5 5.7v5.7c0 1.5-.9 2.7-2.7 3.6-1.8.8-3.8 1.4-6 1.9a53.4 53.4 0 0 1-14 .7c-.3-.2-1-.3-1.8-.3h-4.6c-1 0-2.2.4-3.9 1.2-1.6.9-2.5 1.9-2.5 3a33.3 33.3 0 0 1-.7 7.2l-.4 2.7-1.4 2.4a8 8 0 0 0-1.1 3.6v2.3a30.2 30.2 0 0 1-3.2 12.9c-.8.7-1.4 1.4-1.8 2-.5.6-.7 2.3-.7 5v4.2c0 .8.1 1.9.4 3 .3 1.3.9 2.4 1.6 3.3.8 1 1.7 1.9 2.8 2.6a7 7 0 0 0 4 1 8 8 0 0 0 5-1.4l1.9-1.5a4 4 0 0 1 2.8 1c.7.6 1.4 1.2 2 2a14 14 0 0 1 1.6 3 10 10 0 0 1-1.5 4.3 38.9 38.9 0 0 1-7.9 10c-1.5 1.4-2.8 2.1-3.9 2.1s-2 .8-3 2.4a8.2 8.2 0 0 0-1.5 3.5l-2.5.4a387.7 387.7 0 0 0-8.2 2c-2 0-3.5-.2-4.7-.4s-1.7-.9-1.7-2a9.3 9.3 0 0 1-2-3 92.2 92.2 0 0 1-5.1-12.1c-.7-2-1-3.5-1-4.3v-10a221.8 221.8 0 0 1 2-10.7 126.5 126.5 0 0 0 1.8-13.4v-3.6l3.4-8.6a126 126 0 0 1 3.4-9.6v-6.5c0-1.8-.6-3-1.8-3.4l-3-2.1c-1-.7-1.5-1.6-1.5-2.8 0-.8.3-1.7 1-2.6.7-1 1.5-1.9 2.5-2.8l3-3.1c1-1 1.7-2 2.3-3 1.1-2.2 2.1-3.5 3.1-4l3.3-2c2-2.1 4.1-3.9 6.4-5.3a22 22 0 0 0 9.1-12.5c.6-2 2-3.5 4-4.6 2-.6 3.8-1.7 5.3-3.3 1.5-1.6 2.8-2.4 3.7-2.4Zm93.2 31.7c2.1 0 4.7 0 7.8.2 3.1.1 5.8.6 7.9 1.5 2.3 0 3.7.8 4.4 2.5l2.6 5.7a26.9 26.9 0 0 1 6.2 8.7 8 8 0 0 1 .7 3l-1.8 18.8c0 4-1 8.3-2.8 13a40 40 0 0 1-8 13c-1.2 1.1-2 2.3-2.6 3.7a301 301 0 0 0-3.4 8.4c-.6 1.5-1.6 3-2.8 4.4a152.8 152.8 0 0 1-6.7 8 36 36 0 0 1-4.1 4 17 17 0 0 1-4.5 2.5 127 127 0 0 0-9.8 5.1c-1.2.6-2.4 1-3.7 1.2-1.3.2-2.7.3-4.2.3a14 14 0 0 1-6.4-1.5 17 17 0 0 1-5.1-3.9 21.1 21.1 0 0 1-3.5-5.5c-1-2-1.4-4.1-1.4-6.2V496a3 3 0 0 0-1-2.3c-.5-.7-.8-2.7-.8-6-.2-4 .9-9 3.2-14.8a141 141 0 0 1 17.4-31.8c3-4.3 5.5-7 7.1-7.9 1.7-1 3.1-2 4.2-3.3a78 78 0 0 1 3.3-3.3c1.1-1 2.2-1.8 3.3-2.4s2.7-1 4.5-1Zm1.1 24a12 12 0 0 0-7.4 3c-2.5 1.8-4.8 4-7 6.5a81 81 0 0 0-9 12.8l-2.3 8a62.7 62.7 0 0 0-2 9v4.1c.6.4 1.1 1.3 1.6 2.5s1 2.6 1.7 3.9a13 13 0 0 0 2.3 3.3c1 1 2.2 1.5 4 1.5 3-1.3 5.8-2.5 8.3-3.8 2.2-1.1 4.2-2.3 6.3-3.6s3.5-2.5 4.2-3.8a256 256 0 0 0 6.4-14.6c-.3-1.1 0-2.2 1-3.4 1-1 1.5-2.1 1.5-3.1v-6a29.5 29.5 0 0 0-2.4-9.2 20 20 0 0 0-3-5 6 6 0 0 0-4.2-2ZM372.1 677a12.6 12.6 0 0 1 4.7-10 27 27 0 0 1 4.9-3.6 190.6 190.6 0 0 1 17-9.3c3.4-1.6 7.6-2.4 12.6-2.4l8.4.1c2.4.1 5 1 7.5 2.9a14 14 0 0 1 4.5 5 16.4 16.4 0 0 1 .4 11.3c-.5 1.5-1.3 3-2.3 4.2-1 1.3-2.2 2.3-3.6 3-1.4.9-3 1.2-4.7 1.2s-3-.4-4-1.1a28 28 0 0 1-2.7-2.5l-2.7-2.4a6 6 0 0 0-3.8-1.1c-2 0-4 .1-6 .5-2 .3-4 1-5.6 1.8-1.7.8-3 1.9-4 3.2a7 7 0 0 0-1.7 4.6c0 1.7.6 2.9 1.8 3.6 1.2.7 2.7 1.2 4.5 1.5l5.6.8c2 .3 3.7.9 5.4 1.7l10.6 5.3c3 1.6 6.3 3.5 10.1 6a91.5 91.5 0 0 0 9.8 4.6A56 56 0 0 1 453 718c2.7 3.2 4 7.6 4 13v4.8c0 1.7.3 3.2 1 4.5.5 1.4.8 3 .8 4.8 0 3-.6 5.4-2 7.2-1.2 1.8-2.5 4-3.7 6.3a4.7 4.7 0 0 0 0 2.9c.3.8.1 1.6-.7 2.4-.6 1.8-1.5 3-3 3.6-1.3.6-2.6 1.6-3.8 3a63 63 0 0 1-11.3 7.6 88.2 88.2 0 0 1-20.3 7.6 7 7 0 0 0-2.8 1.4c-.7.6-1.7 1-3 1s-2.4-.2-3.1-.4a18 18 0 0 0-7.9.3c-1.3.4-2.9.6-4.9.6-1.2 0-2.1-.2-2.8-.7-.7-.5-1.6-.9-2.9-1.2-1.6-.5-3.1-.8-4.4-.7-1.3 0-2.8 0-4.4-.3a6 6 0 0 1-4.1-1.4 21.2 21.2 0 0 0-8.9-4.6c-1.5-.4-3.1-1.3-4.8-2.9-1.7-.8-2.6-2-2.7-3.3a12 12 0 0 0-1.6-4.3 53.4 53.4 0 0 0-3.2-5.6c-1-1.3-1.4-3.4-1.4-6.2 0-4.1 1.7-7.7 5-10.7 3.4-3 7.4-4.6 12.1-4.6 2.9 0 5.6.6 8.2 1.8 2.6 1.2 3.9 3 3.9 5.4 0 .9-.2 1.5-.4 2s-.3.8-.3 1.4c0 1 .2 1.8.7 2.3.4.6.6 1.2.6 2 0 .2 0 .6-.3 1a3 3 0 0 0-.3 1.2c0 2.2.6 4 1.8 5.4a16 16 0 0 0 4.6 3.8 23 23 0 0 0 6.5 2.4c2.5.5 4.9.7 7.3.7 4.9 0 9.3-1 13.3-3.2 4-2 7.7-4.9 10.8-8.4 1.9-1.8 3.4-3.7 4.6-5.7a14 14 0 0 0 1.8-7.4 9 9 0 0 0-1.4-4.8c-.9-1.5-1.3-3-1.3-4.5 0-.7 0-1.1.3-1.2.2 0 .4-.2.4-.5 0-2.3-.7-4.1-2-5.6s-2.9-2.8-4.9-4c-2-1-4.1-2.1-6.5-3.1-2.3-1-4.6-2-6.9-3.2-.6-.3-1.1-.7-1.5-1.5a3 3 0 0 0-1.7-1.4c-1.5-.7-3-1.1-4.5-1.2a7 7 0 0 1-4.4-1.8 7 7 0 0 1-2.5-2.2 8.5 8.5 0 0 0-2.5-2.4c-1.6-.7-3.1-1.1-4.4-1.2-1.3 0-2.8-.7-4.4-1.8l-2.4-2.5c-.7-.7-1.4-1.7-2-2.8a13.6 13.6 0 0 0-4.4-3.4c-1.8-.8-2.6-2.3-2.6-4.4V688c0-.9-.1-1.7-.3-2.5l-.2-2.8c0-.6 0-1 .2-1.4.2-.3.3-.8.3-1.3 0-.7 0-1.3.3-1.8l.3-1.2Zm189.9 0c3.2 0 5.9.6 8 1.7 2.3 1 4 2.5 5.4 4.3 1.4 1.8 2.4 4 3 6.4.6 2.4.8 4.9.7 7.6a11 11 0 0 1-4.6 9.2 68 68 0 0 1-9.3 6 65 65 0 0 1-9.2 4.9c-3.3 1.4-6.3 3-9.1 4.6a28 28 0 0 0-7 6 14 14 0 0 0-3.2 8.6v8.9a11 11 0 0 0 1.6 7c1.4 2.4 3.1 3.5 5.3 3.5.1.2.7 0 1.8-.6a70.9 70.9 0 0 0 10.2-6.3l5.4-2.5c1.3-.6 2.2-.8 2.8-.5 1.1 0 2 .2 2.8.4.7.3 1.1 1.4 1.1 3.2-.3 3.1-1.7 6.1-4.3 9a72.7 72.7 0 0 1-17.3 14.5 45.5 45.5 0 0 0-5.7 4 13 13 0 0 1-7.2 3.4l-6.7.2a9.2 9.2 0 0 1-4.2-1.7 19.7 19.7 0 0 1-6.5-7.6 6.6 6.6 0 0 1-.7-3.6V764c0-1-.3-2-.9-3.2l-.9-1.4.7-4.3v-3.4l.4-4.5a223.4 223.4 0 0 1 2.4-16.3l.8-5.2c.6-.4 1-.8 1-1.2l-.3-1.3-.2-1.6a4 4 0 0 1 .9-2.2c0-1.7.4-3.5 1.1-5.3l1.4-3 3.2-7c.3-3 1.9-6.3 4.8-9.6a55 55 0 0 1 22.1-15.4c4-1.6 7.5-2.3 10.4-2Zm-10.2 16c-.8 0-1.6.5-2.3 1.5a50.4 50.4 0 0 0-4.6 8.4l-.7 2.4-.6 2.6c-.2.7-.1 1.4.2 1.9.3.5.9.7 1.8.7.8.1 2 0 3.4-.4a23.6 23.6 0 0 0 9-5c1.3-1.2 2-2.5 2.2-3.9v-3.6a3 3 0 0 0-.7-1.9c-.5-.6-1-1-1.6-1.3a10 10 0 0 0-2.3-1l-3.8-.4Zm117.9-15.5c2 .3 4 .7 6.4 1.3a23 23 0 0 1 6.3 2.4c1.8 1 3.3 2.5 4.3 4.2 1.1 1.8 1.5 4 1.2 7 0 1.5-.4 3-1 4.3-.7 1.5-1.6 2.8-2.5 4-1 1.2-2.1 2.1-3.3 2.8-1.3.7-2.3 1-3.2 1a163.5 163.5 0 0 0-5-.4h-3.2l-8.7.2c-3.2.2-5.4.7-6.6 1.5-1.2 0-1.9.4-2.1 1-.3.8-.4 1.6-.4 2.6l-3.2 4.7-.9 4.8-.9 3.8-.7 2.6v3.4l-1.8 5.9-1.1 1.7a53 53 0 0 1-1.6 3 44 44 0 0 0 5.1 17c1 1.4 2 2.2 3.3 2.4 2.3 0 4.6-.9 7-2.6a85 85 0 0 0 7.2-5.6l6.9-5.5a9.5 9.5 0 0 1 6-2.2c2.3.3 3.6.8 3.9 1.6.3.8.3 1.6 0 2.4-.2 2-1 4.3-2.7 6.8a76.4 76.4 0 0 1-18.3 18.6c-5 3-9.5 5.4-13.4 7.4-4 2-8.4 2.8-13.2 2.6a6.8 6.8 0 0 1-5.2-3.1c-1.4-1.9-2.5-4-3.2-6.6a52.9 52.9 0 0 1-2.3-12.5l.7-2-.3-2.8a66 66 0 0 1-.3-4.2l-.2-4.3c-.1-1.5 0-2.5 0-3.2 0-4.4.6-7.8 1.7-10.3 1-2.4 1.6-5 1.6-7.9l2.5-5.3v-4.8a418.3 418.3 0 0 0 3.3-9.2 179.6 179.6 0 0 0 4.2-12c0-.8.5-1.9 1.6-3.2a28.7 28.7 0 0 1 8.3-6.7c1.6-.9 3-1.3 4.2-1.3l1.6-.6.2-.5c0-.2 0-.3.2-.5s.7-.4 1.6-.7a36 36 0 0 0 8.7-2l3-.9c1-.2 2.4-.2 4.2 0Zm99.9-1.7c1.7-.3 2.8 0 3.3.7s1.8 1.4 3.8 2.3a19 19 0 0 1 4.3 3 5.3 5.3 0 0 1 1.8 4l-.5 2.3c-.3 1.8-.1 3.6.5 5.3 0 1.3-.3 2.8-.8 4.5a8 8 0 0 0-.3 4.4l1.3 1.7 1.5 1.1c.5.4 1 .4 1.5.1 1.5-.3 3.1-1.6 4.9-4a84 84 0 0 0 5.1-8l5-8.7c1.7-2.8 3.2-4.7 4.6-5.7l7-1.7c1-.3 2-.3 3-.2l2.7.2c2.9 1.6 4.7 3.7 5.5 6.5l1.6 6.4c.1 2-.6 4.6-2.2 7.8-1.6 3.3-3.6 6-6 8a27.7 27.7 0 0 1-5.7 2.4l-1.7-.1-1.5-.6a9 9 0 0 0-2.2-.5l-2.4-.1c-2 0-3.8.7-5.5 2.1a96.8 96.8 0 0 0-5.2 4.4 33.5 33.5 0 0 0-8 20.6l-3.8 3.7a15.2 15.2 0 0 0-3.3 5.1c-1 2-1.3 4-1.3 6.2.1 2-.3 4.1-1.2 6v5.9a77.7 77.7 0 0 1-2.3 13.7 41 41 0 0 1-2 5.9 27.3 27.3 0 0 1-8.6 3.2l-6 .8c-.8 0-1.8-.6-3-1.7l-1.6-1.7-3.1-6c-.2-1 0-2.6.4-5a149.7 149.7 0 0 1 3.3-14l.8-3.3c3.4-4.7 5.6-9.6 6.6-14.7 1-5.2 2.2-10.3 3.4-15.3l-1.8-14c-.8-1.8-1.7-2.7-2.8-2.7s-2.4 0-3.6.4c-2.4.4-4.2 1-5.2 1.8s-2 1.6-2.7 2.4a25 25 0 0 1-2.5 2.4c-1 .8-2.5 1.3-4.8 1.6-1.2 0-2-.7-2.3-2-.3-1.5-.6-2.8-1-3.9a5 5 0 0 1 .8-3.7c.7-1.2 1.7-2.3 3-3.4l4.5-3.2a44 44 0 0 0 4.5-3.2 45 45 0 0 0 4.8-6c1.4-2.2 2.7-4.3 4.1-6.2a23 23 0 0 1 4.7-4.9 13 13 0 0 1 6.7-2.4Zm139.3 1.2c3.2 0 5.9.6 8 1.7 2.3 1 4 2.5 5.4 4.3 1.4 1.8 2.4 4 3 6.4.6 2.4.8 4.9.7 7.6a11 11 0 0 1-4.6 9.2 68 68 0 0 1-9.3 6 65 65 0 0 1-9.2 4.9c-3.3 1.4-6.3 3-9.1 4.6a28 28 0 0 0-7 6 14 14 0 0 0-3.2 8.6v8.9a11 11 0 0 0 1.6 7c1.4 2.4 3.1 3.5 5.3 3.5.1.2.7 0 1.8-.6a70.9 70.9 0 0 0 10.2-6.3l5.4-2.5c1.3-.6 2.2-.8 2.8-.5 1.1 0 2 .2 2.8.4.7.3 1.1 1.4 1.1 3.2-.3 3.1-1.7 6.1-4.3 9a72.7 72.7 0 0 1-17.3 14.5 45.5 45.5 0 0 0-5.7 4 13 13 0 0 1-7.2 3.4l-6.7.2a9.2 9.2 0 0 1-4.2-1.7 19.7 19.7 0 0 1-6.5-7.6 6.6 6.6 0 0 1-.7-3.6V764c0-1-.3-2-.9-3.2l-.9-1.4.7-4.3v-3.4l.4-4.5a223.4 223.4 0 0 1 2.4-16.3l.8-5.2c.6-.4 1-.8 1-1.2l-.3-1.3-.2-1.6a4 4 0 0 1 .9-2.2c0-1.7.4-3.5 1.1-5.3l1.4-3 3.2-7c.3-3 1.9-6.3 4.8-9.6a55 55 0 0 1 22.1-15.4c4-1.6 7.5-2.3 10.4-2Zm-10.2 16c-.8 0-1.6.5-2.3 1.5a50.4 50.4 0 0 0-4.6 8.4l-.7 2.4-.6 2.6c-.2.7-.1 1.4.2 1.9.3.5.9.7 1.8.7.8.1 2 0 3.4-.4a23.6 23.6 0 0 0 9-5c1.3-1.2 2-2.5 2.2-3.9v-3.6a3 3 0 0 0-.7-1.9c-.5-.6-1-1-1.6-1.3a10 10 0 0 0-2.3-1l-3.8-.4Zm124.7-47.6h4l3.6.7c1.2.4 2 1 2.7 1.7.7.8 1 1.9 1 3.3 0 .8-1 2.4-3.1 4.7l-7 7.7c-2.5 2.8-4.8 5.4-6.9 8-2.1 2.6-3.2 4.6-3.2 6 0 1.1.3 2 1 2.5.7.6 1.5 1 2.4 1.2a18.4 18.4 0 0 0 5 .5h7.5l1.4-1c1.2-.9 2.2-1.3 3-1.3 2.2 0 3.9.9 4.9 2.5a11 11 0 0 1 1.4 5.8v5.7c0 1.5-.9 2.7-2.7 3.6-1.8.8-3.8 1.4-6 1.9a53.4 53.4 0 0 1-14 .7c-.3-.2-1-.3-1.8-.3h-4.6c-.9 0-2.2.4-3.9 1.3-1.6.8-2.5 1.8-2.5 3a33.3 33.3 0 0 1-.7 7.1l-.4 2.8-1.4 2.3a8 8 0 0 0-1.1 3.6v2.3a30.2 30.2 0 0 1-3.2 12.9c-.8.7-1.4 1.4-1.8 2-.5.6-.7 2.3-.7 5v4.2c0 .9.1 1.9.5 3 .3 1.3.8 2.4 1.5 3.4.8 1 1.7 1.8 2.8 2.5a7 7 0 0 0 4 1 8 8 0 0 0 5-1.4c.7-.4 1.3-1 1.9-1.5a4 4 0 0 1 2.9 1c.6.6 1.3 1.2 1.9 2a14 14 0 0 1 1.6 3 10 10 0 0 1-1.5 4.4 38.9 38.9 0 0 1-7.9 10c-1.5 1.3-2.8 2-3.8 2s-2.1.8-3.1 2.4c-1 1.7-1.5 2.8-1.5 3.5l-2.5.4a387.7 387.7 0 0 0-8.2 2c-2 0-3.5-.2-4.6-.4s-1.8-.8-1.8-2a9.3 9.3 0 0 1-2-3 92.2 92.2 0 0 1-5.1-12.1c-.7-2-1-3.5-1-4.3v-10a221.8 221.8 0 0 1 2-10.7 126.5 126.5 0 0 0 1.8-13.4V724l3.4-8.6a126 126 0 0 1 3.5-9.6v-6.5c0-1.8-.6-3-1.9-3.4l-3-2.1c-1-.7-1.5-1.6-1.5-2.7 0-.9.3-1.8 1-2.7.7-1 1.5-1.9 2.5-2.8l3-3.1c1-1 1.8-2 2.4-3 1-2.2 2-3.5 3-4s2.1-1.1 3.3-2c2-2.1 4.1-3.9 6.4-5.3a22 22 0 0 0 9.1-12.5c.6-2 2-3.5 4.1-4.6 2-.6 3.7-1.7 5.2-3.3 1.6-1.6 2.8-2.4 3.7-2.4Zm93.1 31.6 7.8.3c3.2.1 5.8.6 7.9 1.5 2.3 0 3.8.8 4.4 2.5l2.7 5.7a26.9 26.9 0 0 1 6.1 8.7 8 8 0 0 1 .7 3l-1.8 18.8c0 4-1 8.3-2.8 13.1a40 40 0 0 1-8 12.9c-1.2 1.1-2 2.4-2.6 3.7a301 301 0 0 0-3.4 8.5c-.6 1.4-1.6 2.9-2.8 4.3a152.8 152.8 0 0 1-6.7 8 36 36 0 0 1-4.1 4c-1.5 1.1-3 2-4.5 2.6a127 127 0 0 0-9.7 5 14 14 0 0 1-3.8 1.2c-1.3.2-2.7.3-4.2.3a14 14 0 0 1-6.4-1.5 17 17 0 0 1-5.1-3.9 21.1 21.1 0 0 1-3.5-5.5c-1-2-1.4-4.1-1.4-6.2v-14.2c0-.8-.3-1.6-1-2.3-.5-.7-.8-2.7-.8-6-.2-4 .9-9 3.2-14.7a141 141 0 0 1 17.4-31.9c3-4.3 5.5-6.9 7.1-7.9 1.7-1 3.1-2 4.3-3.3a78 78 0 0 1 3.3-3.2c1-1 2.1-1.8 3.3-2.5s2.6-1 4.4-1Zm1.1 24.2c-2.4 0-4.8 1-7.4 2.8-2.5 2-4.8 4.1-6.9 6.6a81 81 0 0 0-9.1 12.8l-2.3 8a62.7 62.7 0 0 0-2 9.1v4c.6.4 1.1 1.3 1.6 2.6s1 2.5 1.7 3.8c.6 1.2 1.4 2.4 2.4 3.3.9 1 2.2 1.5 3.8 1.5a117.6 117.6 0 0 0 14.7-7.4c2-1.2 3.5-2.5 4.2-3.8a256 256 0 0 0 6.4-14.6c-.3-1.1 0-2.2 1-3.4 1-1 1.5-2.1 1.5-3.1v-6a29.5 29.5 0 0 0-2.4-9.2 20 20 0 0 0-3-5c-1.3-1.3-2.6-2-4.2-2Z"/>
  <path fill="none" stroke="#44bba4" stroke-width="20" d="M282.4 408c2 0 4 .5 6 1.6a5.4 5.4 0 0 1 2.8 4.9v4a68.4 68.4 0 0 1-10.9 6h-6.8c-3.2 0-5.7.8-7.5 2.5a9 9 0 0 0-2.8 7v6.3c0 3.8-.4 8-1.4 12.5l-2.9 12.9v31.7l.4 2.2a10.5 10.5 0 0 0 3 6 4 4 0 0 0 3 1h19.6c.4 0 1.7-.3 3.7-1.2a167.5 167.5 0 0 0 14-6.5 37.6 37.6 0 0 0 8.7-6c1.2-1 2.3-1.4 3.4-1.4.9-2 1.5-3.2 2-3.5.3-.4 1-.5 2.3-.5 1 0 2.2.4 3.9 1.3 1.6 1 2.5 1.8 2.5 2.7 0 .4-.7 2-2 5l-4.6 9.7c-1.9 3.6-3.8 7-6 10.3a21.5 21.5 0 0 1-5.9 6.7c-.4.5-1.8 1-4 1.1a186.5 186.5 0 0 1-16.2.8H276c-3.2 0-6.4-.3-9.6-.9s-5.3-.5-6.4.2l-3 .7-10.9 2.3a77.7 77.7 0 0 1-7.5-1.2 86.5 86.5 0 0 0-7.5-1.1c-1.2 0-2.3.1-3.4.4a27.5 27.5 0 0 0-5.5 1.9c-1.6 0-2.9-.4-3.7-1a6.2 6.2 0 0 1-1.8-2.6c-.4-1-.6-2-.7-3l-.1-2.3c0-3 1-4.8 3-5.5 2-.7 4.3-1.3 6.8-1.8 2.4-.5 4.6-1.3 6.7-2.5 2-1.2 3-3.8 3-7.8v-17.7l1.9-15.9v-7.6l.2-3.3c.1-1.6.4-3.3.7-5.2l1.1-6.7c0-1.2-.3-2.2-1-3.2a5 5 0 0 1-1-2.7v-2.4c0-4-.7-6.6-2-8.1a13.5 13.5 0 0 0-4.3-3.4c-1.6-.8-3-1.6-4.3-2.6-1.3-1-2-3-2-6a7.6 7.6 0 0 1 3.5-6.3 8.8 8.8 0 0 1 4.7-1.9h49.4Zm166.4 13.5c3.1 0 5.4.8 6.8 2.5s2 4 2 7a127.2 127.2 0 0 1-4.6 17.1l-1.7 5.7a17.4 17.4 0 0 1-1.8 8.3c-1.3.8-1.9 2.2-1.9 4.1v4.1l-.7 11.2v8.3a41 41 0 0 0 .6 5.4c.2 1 .6 2 1.3 2.7a3 3 0 0 0 2.5 1.2l3.1-4.7a78.8 78.8 0 0 0 6.9-5.7l4-3.6c1 0 1.7.4 2.4 1 .6.8.9 1.6.9 2.4l-1 1.7a10 10 0 0 1-1.8 2.6 25 25 0 0 1-4 7.2l-5.5 6-6 5.8c-2.1 2-4 4.2-5.9 6.7l-5 6.6c0 1.3-.4 2.6-1.2 3.9-.8 1.3-1.8 2.4-3 3.2a5.8 5.8 0 0 1-3.6 1c-1.3 0-2.3-.9-3-2.4-1-2.5-1.4-5-1.4-7.5s.2-4.9.6-7.2l1.4-6.7c.5-2 .7-4.1.7-6v-12c0-.6-.5-1.1-1.6-1.4l-1.6-.2c-.5 0-1.6 1.2-3.4 3.7l-6.3 8.4-7.1 9.7a55.6 55.6 0 0 1-6 7 60.7 60.7 0 0 1-5.3 5.4c-1.1 1-2.4 2-3.8 2.7a7.6 7.6 0 0 1-3.6 1.1 7 7 0 0 1-5.2-2 15 15 0 0 1-3.2-5 32.6 32.6 0 0 1-2.3-9.9l-.7-15.2L383 471a51.4 51.4 0 0 1 5.1-13.4c1-1.8 2-3.3 3-4.4a88 88 0 0 0 12.8-14 22.9 22.9 0 0 1 11.2-8c1.8-.7 3.6-1.2 5.4-1.6 1.9-.3 4-1 6.2-2.2.9 0 2-.4 3.5-1.3l4-2.7h10.2l4.4-1.9ZM419.6 445a56.8 56.8 0 0 0-14.1 15.6 54.4 54.4 0 0 0-4.3 8 16 16 0 0 0-1.6 5.7l-.2 4a23.8 23.8 0 0 0 1.9 11.4c.8 1.6 2.3 2.4 4.4 2.4 2 0 4.3-1.6 7-4.9a125.3 125.3 0 0 0 15.8-28.7l.2-4.1c.2-2.2 0-4.3-.3-6.4-.4-2-1.2-3.5-2.5-4.4-1.3-1-3.4-.5-6.3 1.4Zm143.9-108h6.1c1.2 0 2.4.2 3.6.8a8 8 0 0 0 3.5.8l6.4-1.7h3.6c1 0 2.2.3 3.5 1a17.1 17.1 0 0 1 6.4 5.5c.7 1 1 2 1 2.8a28 28 0 0 1-.9 6.8 24.7 24.7 0 0 1-9.1 13.3 24 24 0 0 1-9.1 4h-4.3c-1.7 0-3.6.5-5.6 1.3a26.6 26.6 0 0 0-10.4 7.7 7.7 7.7 0 0 0-1.8 4.6c-1.2 1-2 2.5-2.4 4.7a16 16 0 0 1-2.1 5.8 8 8 0 0 0-2.2 5.2l-.3 5-2.5 7.6c0 2-.5 4-1.4 6l-3 6.3a60.7 60.7 0 0 0-3.1 7.3c-1 2.6-1.4 5.4-1.4 8.5v4.2c0 .8.3 1.2.9 1.5.3.2.7.2 1.1.2 1.1 0 2.2-.8 3.2-2.5a67 67 0 0 1 4.1-5.7c1.7-2.1 3.7-4 6.2-5.7a16 16 0 0 1 9.3-2.6l5-1.7c3.5 0 6.2 1 8 2.9 1.8 1.9 2.7 4.5 2.7 7.7v1.7l-1.8 4.2 1 3.4a20.4 20.4 0 0 1 .8 6c0 1.5-.2 2.5-.7 2.9a105.4 105.4 0 0 1-1.1 3c0 .5 0 1 .2 1.3l.5 1.4a10.8 10.8 0 0 1-.7 5.5v6.3c0 .4-.4 1.3-1.3 2.7l-2.8 4.5-3.4 5.5a27 27 0 0 0-2.7 5.7L564 502a264.7 264.7 0 0 1-13.8 17.4 29.6 29.6 0 0 1-4 4.4c-1.7 1-3 1.9-3.9 2.8s-1.8 1.5-2.7 2c-.9.6-2 1-3.4 1.3-1.4.3-3.5.5-6.4.5l-6.3 1.6c-1.3 0-2-.3-2.5-1-.5-.5-.8-1.4-1-2.4l-.4-3.5a10 10 0 0 0-1.2-3.6c0-.7-.2-1.5-.6-2.2-.5-.8-.9-1.6-1.2-2.5l-3-3.3c-1-1-1.5-2.3-1.5-3.9 0-1.1.4-2.6 1.1-4.4.5-1 1-2 1.4-3.2v-6.3l2-19.5V472l4.4-19.9v-7.6c0-1.1.4-3.5 1.2-7.2.8-3.6 1.3-8 1.3-12.9v-5.9l6.3-24v-1.8a283.2 283.2 0 0 1 1.8-11.4l2.1-8.5 1.8-5.9c.3-2 1-4 2-5.6 1-1.6 2.4-3.9 4.4-6.8l21.6-17.6Zm-12.8 113.4c-2.1 0-4.3 1.5-6.5 4.5s-4.2 6.3-6 10.1a99.8 99.8 0 0 0-4.5 11.1c-1.3 3.6-1.9 6-1.9 7.1v8.3a14.4 14.4 0 0 0 1.4 6.4c.3.8.8 1.2 1.6 1.2h2.7c2.2-.7 4.5-2 7-3.8a50.6 50.6 0 0 0 12.3-13.1 13 13 0 0 0 2.1-6.6v-10l-1.1-4.2 1.1-3.3c0-5.1-2.7-7.7-8.2-7.7Zm108.2-28.3c2.5 0 4.7.9 6.3 2.7a8 8 0 0 1 2.5 5.6l-2 5.9c.9.8 1.5 2 1.8 3.6.2.7.2 1.5.2 2.3 0 2.8-.3 5.4-1 7.8-.7 2.4-1 5-1 8v1.7a15.2 15.2 0 0 1-1 5.1l-.8 3.2v2.3a8 8 0 0 1-.8 3.8c-.6 1-1.1 2.3-1.7 3.8-.3 1.2-.8 2.3-1.5 3.5a7.3 7.3 0 0 0-.6 6.3 11.4 11.4 0 0 0 3.6 5.1 4 4 0 0 0 2.8 1c1.2 0 2.3-.4 3.3-1a10 10 0 0 0 2.4-2.4c.8-.7 1.5-1.3 2.4-1.8.8-.5 1.8-.7 2.8-.7h4.4c.9 0 1.4.4 1.5 1.2.2.9.3 1.9.3 3 0 .4-.7 1.3-2 2.5a306.9 306.9 0 0 1-9.6 8.4 80.5 80.5 0 0 1-3.4 2.6 122.3 122.3 0 0 1-8 12.4 47.1 47.1 0 0 1-5.8 6.5c-2 2-3.8 2.9-5.4 2.9-1 0-2.2-.3-3.5-1a15.7 15.7 0 0 1-6.1-5.8c-.7-1.1-1-2.2-1-3.4v-3.4l-.3-3c-.1-.8-.7-1.2-1.6-1.2v-4l1.8-6v-9.9c0-2 .3-3.8 1-5 .5-1.3.9-3 .9-4.9V478c0-1 .3-2.4 1-4.2a635 635 0 0 0 4.3-12.2c.7-2 1-3.8 1-5.4 0-1.1-.5-2.3-1.5-3.7-1-1.3-2.6-2-4.9-2-.9 0-1.7.3-2.3.9-.7.5-2.7.8-5.8.8-.4-.1-.7-.5-1-1-.6-.9-.9-2-.9-3.2v-3.4c0-1.3 1.4-3.1 4-5.6a138 138 0 0 1 19-14c3.2-1.8 5.3-2.8 6.2-2.8Zm.6-49.9c.6 0 1.4 0 2.4-.3a203.5 203.5 0 0 1 8.3-1.6c2.1.7 3.5 2 4.1 3.6.6 1.7 1.6 3.5 2.8 5.3 0 1.1 0 2.3.3 3.4l.3 3.2a7 7 0 0 1-.9 3 10 10 0 0 0-.9 4.6l-1.2 3.6c-.6 1.4-1.2 2.7-2 3.9a17 17 0 0 1-3 3c-1.2.7-2.5 1-4 .7a15.6 15.6 0 0 1-12.5-7.2c-1.1-.9-1.5-2.1-1.2-3.8.3-1.7.5-3.2.5-4.5 0-3.8.7-6.9 2-9.3 1.4-2.4 3-4.9 5-7.6Zm105 49.9c1.7-.3 2.8 0 3.3.6.5.8 1.8 1.5 3.7 2.4a19 19 0 0 1 4.4 3 5.3 5.3 0 0 1 1.8 4l-.5 2.3c-.3 1.8-.1 3.6.5 5.3 0 1.2-.3 2.8-.8 4.5a8 8 0 0 0-.3 4.4l1.3 1.6 1.5 1.2c.5.4 1 .4 1.5.1 1.5-.3 3.1-1.6 4.9-4a84 84 0 0 0 5-8l5.1-8.7c1.7-2.8 3.2-4.7 4.6-5.7l7-1.7c1-.3 2-.3 3-.2l2.7.2c2.9 1.6 4.7 3.7 5.5 6.5l1.6 6.4c.1 2-.6 4.6-2.2 7.8-1.6 3.3-3.6 6-6 8a27.7 27.7 0 0 1-5.7 2.4l-1.7-.1-1.5-.6a9 9 0 0 0-2.2-.5l-2.4-.1c-2 0-3.8.7-5.5 2.1a96.8 96.8 0 0 0-5.2 4.4 33.5 33.5 0 0 0-8.2 20.6L776 484a15.2 15.2 0 0 0-3.3 5.1c-1 2-1.3 4-1.3 6.2.1 2-.3 4.1-1.2 6v5.9a77.7 77.7 0 0 1-2.3 13.7 41 41 0 0 1-2 5.9 27.3 27.3 0 0 1-8.6 3.2l-6 .8c-.8 0-1.8-.6-3-1.7l-1.6-1.7-3.2-6c-.1-1 0-2.6.5-5a149.7 149.7 0 0 1 3.3-14l.8-3.3c3.3-4.7 5.5-9.6 6.6-14.7 1-5.2 2.2-10.3 3.4-15.4l-1.8-13.9c-.8-1.8-1.7-2.8-2.9-2.8s-2.3.2-3.5.5a12 12 0 0 0-8 4.2 25 25 0 0 1-2.5 2.4c-.9.8-2.5 1.3-4.7 1.6-1.3 0-2-.7-2.3-2-.3-1.5-.6-2.8-1-3.9a5 5 0 0 1 .8-3.7c.7-1.2 1.7-2.3 3-3.4l4.5-3.2a44 44 0 0 0 4.5-3.2 45 45 0 0 0 4.8-6l4-6.2a23 23 0 0 1 4.8-4.9 13 13 0 0 1 6.7-2.4Zm126.8 0c2.5 0 4.7.9 6.3 2.7a8 8 0 0 1 2.5 5.6l-2 5.9c.9.8 1.5 2 1.8 3.6.2.7.2 1.5.2 2.3 0 2.8-.3 5.4-1 7.8-.7 2.4-1 5-1 8v1.7a15.2 15.2 0 0 1-1 5.1l-.8 3.2v2.3a8 8 0 0 1-.8 3.8c-.6 1-1.1 2.3-1.7 3.8-.3 1.2-.8 2.3-1.5 3.5a7.3 7.3 0 0 0-.6 6.3 11.4 11.4 0 0 0 3.6 5.1 4 4 0 0 0 2.8 1c1.2 0 2.3-.4 3.3-1a10 10 0 0 0 2.4-2.4c.8-.7 1.5-1.3 2.4-1.8.8-.5 1.8-.7 2.8-.7h4.4c.9 0 1.4.4 1.5 1.2.2.9.3 1.9.3 3 0 .4-.7 1.3-2 2.5a306.9 306.9 0 0 1-9.6 8.4 80.5 80.5 0 0 1-3.4 2.6 122.3 122.3 0 0 1-8 12.4 47.1 47.1 0 0 1-5.8 6.5c-2 2-3.8 2.9-5.4 2.9-1 0-2.2-.3-3.5-1a15.7 15.7 0 0 1-6.1-5.8c-.7-1.1-1-2.2-1-3.4v-3.4l-.3-3c-.1-.8-.7-1.2-1.6-1.2v-4l1.8-6v-9.9c0-2 .3-3.8 1-5 .5-1.3.9-3 .9-4.9V478c0-1 .3-2.4 1-4.2a635 635 0 0 0 4.3-12.2c.7-2 1-3.8 1-5.4 0-1.1-.5-2.3-1.5-3.7-1-1.3-2.6-2-4.9-2-.9 0-1.7.3-2.3.9-.7.5-2.7.8-5.8.8-.4-.1-.7-.5-1-1-.6-.9-.9-2-.9-3.2v-3.4c0-1.3 1.4-3.1 4-5.6a138 138 0 0 1 19-14c3.2-1.8 5.3-2.8 6.2-2.8Zm.6-49.9c.6 0 1.4 0 2.4-.3a203.5 203.5 0 0 1 8.3-1.6c2.1.7 3.5 2 4.1 3.6a21 21 0 0 0 2.8 5.3c0 1.1 0 2.3.3 3.4l.3 3.2a7 7 0 0 1-.9 3 10 10 0 0 0-.9 4.6l-1.2 3.6c-.6 1.4-1.2 2.7-2 3.9a17 17 0 0 1-3 3c-1.2.7-2.5 1-4 .7a15.6 15.6 0 0 1-12.5-7.2c-1.1-.9-1.5-2.1-1.2-3.8.3-1.7.5-3.2.5-4.5 0-3.8.7-6.9 2-9.3 1.4-2.4 3-4.9 5-7.6Zm105 53.5a5 5 0 0 1 3.9 1.5c.9 1 1.7 2 2.5 3.2.4 1 .6 2.3.4 4-.1 1.7-.4 3.4-.8 5a259.7 259.7 0 0 1-1.7 8l.7 3.5 2.5 4.2c.6 0 1.8-.8 3.5-2.4a199.8 199.8 0 0 0 13.6-13.8 283 283 0 0 1 14-13.7c2-1.7 3.5-2.5 4.4-2.5 1.2 0 2.2.7 3 2.1l2.4 4.5c.8 1.8 1.5 4 2.1 6.3a97.9 97.9 0 0 1-2.6 19.8 512.5 512.5 0 0 1-6.4 24.5 1425.7 1425.7 0 0 1-3.5 12.8l-.3 2-.2 2.1c0 .6.2 1.2.6 1.6.4.4 1.2.7 2.4.7l2.7-1.7 2.5-1.7a1400 1400 0 0 0 10.1-6.2c2.2-1.4 3.6-2 4.2-2 1 0 2 .4 3 1.3 1 1 1.6 1.8 1.6 2.6a49.3 49.3 0 0 1-9.1 10.2c-1.4 1.1-2.4 1.7-3 1.7 0 1.1-.4 2.2-1.2 3.2-.9 1-1.7 1.4-2.6 1.4a60.3 60.3 0 0 0-6.2 7 97.4 97.4 0 0 1-5 6.3 21.6 21.6 0 0 1-5.5 4.5 15 15 0 0 1-7.5 1.7c-1 0-2.1-.3-3.3-1a13.5 13.5 0 0 1-5.2-6 7.9 7.9 0 0 1-.8-3.1l-.7-7.6c1-3.9 2.1-8 3.5-12.3a1293.5 1293.5 0 0 0 7-21.6c.8-3 1.3-5.8 1.6-8.4V465c-.6-3.9-2.1-5.9-4.6-5.9-3.6 0-6.5.8-8.6 2.2a17.9 17.9 0 0 0-5.3 5.8 46.7 46.7 0 0 0-3.5 7.5 64.6 64.6 0 0 1-4.8 10c-.2.8-.2 1.7.1 2.9l-1 5c-.4 1.7-.9 3.3-1.5 4.9a546 546 0 0 0-8.8 25.8c.7 1.1.6 1.8-.4 2l-2.8.3-3.9-.1a20 20 0 0 1-4.9-.7c-1.6-.5-3-1.1-4.3-2-1.3-.8-2-2-2.2-3.5-.3-2.4 0-5 1-7.5a59.3 59.3 0 0 1 6.3-13.3c1-1.6 1.6-2.8 1.6-3.3v-7.6l-1.1-3.6c0-.9.3-2 .9-3.3a82 82 0 0 1 3.8-7.7c.6-1.2 1-2 1-2.6v-3l-.7-8.2c0-.8-.1-1.7-.4-2.6-.2-1-1-1.4-2.1-1.4-1 0-2 .2-3.1.6a62.2 62.2 0 0 0-6.6 2.8 7 7 0 0 1-2.4.6h-1.8c-1-.6-1.3-1.6-.8-3.3.5-1.6.8-2.8.8-3.7 3.8-5 7.5-9.2 11-13a59.4 59.4 0 0 1 17.2-12.1c1.8-.9 3.6-1.3 5.3-1.3Zm163.1-34h4l3.7.7c1.1.4 2 1 2.7 1.7.7.8 1 1.9 1 3.3 0 .8-1 2.4-3.1 4.7l-7 7.6a169 169 0 0 0-7 8c-2 2.7-3.1 4.7-3.1 6.1 0 1.1.3 2 1 2.5.7.6 1.5 1 2.4 1.2a18.4 18.4 0 0 0 5 .5h7.5l1.4-1c1.2-.9 2.2-1.3 3-1.3 2.2 0 3.9.9 4.8 2.6 1 1.6 1.5 3.5 1.5 5.7v5.7c0 1.5-.9 2.7-2.7 3.6-1.8.8-3.8 1.4-6 1.9a53.4 53.4 0 0 1-14 .7c-.3-.2-1-.3-1.8-.3h-4.6c-1 0-2.2.4-3.9 1.2-1.6.9-2.5 1.9-2.5 3a33.3 33.3 0 0 1-.7 7.2l-.4 2.7-1.4 2.4a8 8 0 0 0-1.1 3.6v2.3a30.2 30.2 0 0 1-3.2 12.9c-.8.7-1.4 1.4-1.8 2-.5.6-.7 2.3-.7 5v4.2c0 .8.1 1.9.4 3 .3 1.3.9 2.4 1.6 3.3.8 1 1.7 1.9 2.8 2.6a7 7 0 0 0 4 1 8 8 0 0 0 5-1.4l1.9-1.5a4 4 0 0 1 2.8 1c.7.6 1.4 1.2 2 2a14 14 0 0 1 1.6 3 10 10 0 0 1-1.5 4.3 38.9 38.9 0 0 1-7.9 10c-1.5 1.4-2.8 2.1-3.9 2.1s-2 .8-3 2.4a8.2 8.2 0 0 0-1.5 3.5l-2.5.4a387.7 387.7 0 0 0-8.2 2c-2 0-3.5-.2-4.7-.4s-1.7-.9-1.7-2a9.3 9.3 0 0 1-2-3 92.2 92.2 0 0 1-5.1-12.1c-.7-2-1-3.5-1-4.3v-10a221.8 221.8 0 0 1 2-10.7 126.5 126.5 0 0 0 1.8-13.4v-3.6l3.4-8.6a126 126 0 0 1 3.4-9.6v-6.5c0-1.8-.6-3-1.8-3.4l-3-2.1c-1-.7-1.5-1.6-1.5-2.8 0-.8.3-1.7 1-2.6.7-1 1.5-1.9 2.5-2.8l3-3.1c1-1 1.7-2 2.3-3 1.1-2.2 2.1-3.5 3.1-4l3.3-2c2-2.1 4.1-3.9 6.4-5.3a22 22 0 0 0 9.1-12.5c.6-2 2-3.5 4-4.6 2-.6 3.8-1.7 5.3-3.3 1.5-1.6 2.8-2.4 3.7-2.4Zm93.2 31.7c2.1 0 4.7 0 7.8.2 3.1.1 5.8.6 7.9 1.5 2.3 0 3.7.8 4.4 2.5l2.6 5.7a26.9 26.9 0 0 1 6.2 8.7 8 8 0 0 1 .7 3l-1.8 18.8c0 4-1 8.3-2.8 13a40 40 0 0 1-8 13c-1.2 1.1-2 2.3-2.6 3.7a301 301 0 0 0-3.4 8.4c-.6 1.5-1.6 3-2.8 4.4a152.8 152.8 0 0 1-6.7 8 36 36 0 0 1-4.1 4 17 17 0 0 1-4.5 2.5 127 127 0 0 0-9.8 5.1c-1.2.6-2.4 1-3.7 1.2-1.3.2-2.7.3-4.2.3a14 14 0 0 1-6.4-1.5 17 17 0 0 1-5.1-3.9 21.1 21.1 0 0 1-3.5-5.5c-1-2-1.4-4.1-1.4-6.2V496a3 3 0 0 0-1-2.3c-.5-.7-.8-2.7-.8-6-.2-4 .9-9 3.2-14.8a141 141 0 0 1 17.4-31.8c3-4.3 5.5-7 7.1-7.9 1.7-1 3.1-2 4.2-3.3a78 78 0 0 1 3.3-3.3c1.1-1 2.2-1.8 3.3-2.4s2.7-1 4.5-1Zm1.1 24a12 12 0 0 0-7.4 3c-2.5 1.8-4.8 4-7 6.5a81 81 0 0 0-9 12.8l-2.3 8a62.7 62.7 0 0 0-2 9v4.1c.6.4 1.1 1.3 1.6 2.5s1 2.6 1.7 3.9a13 13 0 0 0 2.3 3.3c1 1 2.2 1.5 4 1.5 3-1.3 5.8-2.5 8.3-3.8 2.2-1.1 4.2-2.3 6.3-3.6s3.5-2.5 4.2-3.8a256 256 0 0 0 6.4-14.6c-.3-1.1 0-2.2 1-3.4 1-1 1.5-2.1 1.5-3.1v-6a29.5 29.5 0 0 0-2.4-9.2 20 20 0 0 0-3-5 6 6 0 0 0-4.2-2ZM372.1 677a12.6 12.6 0 0 1 4.7-10 27 27 0 0 1 4.9-3.6 190.6 190.6 0 0 1 17-9.3c3.4-1.6 7.6-2.4 12.6-2.4l8.4.1c2.4.1 5 1 7.5 2.9a14 14 0 0 1 4.5 5 16.4 16.4 0 0 1 .4 11.3c-.5 1.5-1.3 3-2.3 4.2-1 1.3-2.2 2.3-3.6 3-1.4.9-3 1.2-4.7 1.2s-3-.4-4-1.1a28 28 0 0 1-2.7-2.5l-2.7-2.4a6 6 0 0 0-3.8-1.1c-2 0-4 .1-6 .5-2 .3-4 1-5.6 1.8-1.7.8-3 1.9-4 3.2a7 7 0 0 0-1.7 4.6c0 1.7.6 2.9 1.8 3.6 1.2.7 2.7 1.2 4.5 1.5l5.6.8c2 .3 3.7.9 5.4 1.7l10.6 5.3c3 1.6 6.3 3.5 10.1 6a91.5 91.5 0 0 0 9.8 4.6A56 56 0 0 1 453 718c2.7 3.2 4 7.6 4 13v4.8c0 1.7.3 3.2 1 4.5.5 1.4.8 3 .8 4.8 0 3-.6 5.4-2 7.2-1.2 1.8-2.5 4-3.7 6.3a4.7 4.7 0 0 0 0 2.9c.3.8.1 1.6-.7 2.4-.6 1.8-1.5 3-3 3.6-1.3.6-2.6 1.6-3.8 3a63 63 0 0 1-11.3 7.6 88.2 88.2 0 0 1-20.3 7.6 7 7 0 0 0-2.8 1.4c-.7.6-1.7 1-3 1s-2.4-.2-3.1-.4a18 18 0 0 0-7.9.3c-1.3.4-2.9.6-4.9.6-1.2 0-2.1-.2-2.8-.7-.7-.5-1.6-.9-2.9-1.2-1.6-.5-3.1-.8-4.4-.7-1.3 0-2.8 0-4.4-.3a6 6 0 0 1-4.1-1.4 21.2 21.2 0 0 0-8.9-4.6c-1.5-.4-3.1-1.3-4.8-2.9-1.7-.8-2.6-2-2.7-3.3a12 12 0 0 0-1.6-4.3 53.4 53.4 0 0 0-3.2-5.6c-1-1.3-1.4-3.4-1.4-6.2 0-4.1 1.7-7.7 5-10.7 3.4-3 7.4-4.6 12.1-4.6 2.9 0 5.6.6 8.2 1.8 2.6 1.2 3.9 3 3.9 5.4 0 .9-.2 1.5-.4 2s-.3.8-.3 1.4c0 1 .2 1.8.7 2.3.4.6.6 1.2.6 2 0 .2 0 .6-.3 1a3 3 0 0 0-.3 1.2c0 2.2.6 4 1.8 5.4a16 16 0 0 0 4.6 3.8 23 23 0 0 0 6.5 2.4c2.5.5 4.9.7 7.3.7 4.9 0 9.3-1 13.3-3.2 4-2 7.7-4.9 10.8-8.4 1.9-1.8 3.4-3.7 4.6-5.7a14 14 0 0 0 1.8-7.4 9 9 0 0 0-1.4-4.8c-.9-1.5-1.3-3-1.3-4.5 0-.7 0-1.1.3-1.2.2 0 .4-.2.4-.5 0-2.3-.7-4.1-2-5.6s-2.9-2.8-4.9-4c-2-1-4.1-2.1-6.5-3.1-2.3-1-4.6-2-6.9-3.2-.6-.3-1.1-.7-1.5-1.5a3 3 0 0 0-1.7-1.4c-1.5-.7-3-1.1-4.5-1.2a7 7 0 0 1-4.4-1.8 7 7 0 0 1-2.5-2.2 8.5 8.5 0 0 0-2.5-2.4c-1.6-.7-3.1-1.1-4.4-1.2-1.3 0-2.8-.7-4.4-1.8l-2.4-2.5c-.7-.7-1.4-1.7-2-2.8a13.6 13.6 0 0 0-4.4-3.4c-1.8-.8-2.6-2.3-2.6-4.4V688c0-.9-.1-1.7-.3-2.5l-.2-2.8c0-.6 0-1 .2-1.4.2-.3.3-.8.3-1.3 0-.7 0-1.3.3-1.8l.3-1.2Zm189.9 0c3.2 0 5.9.6 8 1.7 2.3 1 4 2.5 5.4 4.3 1.4 1.8 2.4 4 3 6.4.6 2.4.8 4.9.7 7.6a11 11 0 0 1-4.6 9.2 68 68 0 0 1-9.3 6 65 65 0 0 1-9.2 4.9c-3.3 1.4-6.3 3-9.1 4.6a28 28 0 0 0-7 6 14 14 0 0 0-3.2 8.6v8.9a11 11 0 0 0 1.6 7c1.4 2.4 3.1 3.5 5.3 3.5.1.2.7 0 1.8-.6a70.9 70.9 0 0 0 10.2-6.3l5.4-2.5c1.3-.6 2.2-.8 2.8-.5 1.1 0 2 .2 2.8.4.7.3 1.1 1.4 1.1 3.2-.3 3.1-1.7 6.1-4.3 9a72.7 72.7 0 0 1-17.3 14.5 45.5 45.5 0 0 0-5.7 4 13 13 0 0 1-7.2 3.4l-6.7.2a9.2 9.2 0 0 1-4.2-1.7 19.7 19.7 0 0 1-6.5-7.6 6.6 6.6 0 0 1-.7-3.6V764c0-1-.3-2-.9-3.2l-.9-1.4.7-4.3v-3.4l.4-4.5a223.4 223.4 0 0 1 2.4-16.3l.8-5.2c.6-.4 1-.8 1-1.2l-.3-1.3-.2-1.6a4 4 0 0 1 .9-2.2c0-1.7.4-3.5 1.1-5.3l1.4-3 3.2-7c.3-3 1.9-6.3 4.8-9.6a55 55 0 0 1 22.1-15.4c4-1.6 7.5-2.3 10.4-2Zm-10.2 16c-.8 0-1.6.5-2.3 1.5a50.4 50.4 0 0 0-4.6 8.4l-.7 2.4-.6 2.6c-.2.7-.1 1.4.2 1.9.3.5.9.7 1.8.7.8.1 2 0 3.4-.4a23.6 23.6 0 0 0 9-5c1.3-1.2 2-2.5 2.2-3.9v-3.6a3 3 0 0 0-.7-1.9c-.5-.6-1-1-1.6-1.3a10 10 0 0 0-2.3-1l-3.8-.4Zm117.9-15.5c2 .3 4 .7 6.4 1.3a23 23 0 0 1 6.3 2.4c1.8 1 3.3 2.5 4.3 4.2 1.1 1.8 1.5 4 1.2 7 0 1.5-.4 3-1 4.3-.7 1.5-1.6 2.8-2.5 4-1 1.2-2.1 2.1-3.3 2.8-1.3.7-2.3 1-3.2 1a163.5 163.5 0 0 0-5-.4h-3.2l-8.7.2c-3.2.2-5.4.7-6.6 1.5-1.2 0-1.9.4-2.1 1-.3.8-.4 1.6-.4 2.6l-3.2 4.7-.9 4.8-.9 3.8-.7 2.6v3.4l-1.8 5.9-1.1 1.7a53 53 0 0 1-1.6 3 44 44 0 0 0 5.1 17c1 1.4 2 2.2 3.3 2.4 2.3 0 4.6-.9 7-2.6a85 85 0 0 0 7.2-5.6l6.9-5.5a9.5 9.5 0 0 1 6-2.2c2.3.3 3.6.8 3.9 1.6.3.8.3 1.6 0 2.4-.2 2-1 4.3-2.7 6.8a76.4 76.4 0 0 1-18.3 18.6c-5 3-9.5 5.4-13.4 7.4-4 2-8.4 2.8-13.2 2.6a6.8 6.8 0 0 1-5.2-3.1c-1.4-1.9-2.5-4-3.2-6.6a52.9 52.9 0 0 1-2.3-12.5l.7-2-.3-2.8a66 66 0 0 1-.3-4.2l-.2-4.3c-.1-1.5 0-2.5 0-3.2 0-4.4.6-7.8 1.7-10.3 1-2.4 1.6-5 1.6-7.9l2.5-5.3v-4.8a418.3 418.3 0 0 0 3.3-9.2 179.6 179.6 0 0 0 4.2-12c0-.8.5-1.9 1.6-3.2a28.7 28.7 0 0 1 8.3-6.7c1.6-.9 3-1.3 4.2-1.3l1.6-.6.2-.5c0-.2 0-.3.2-.5s.7-.4 1.6-.7a36 36 0 0 0 8.7-2l3-.9c1-.2 2.4-.2 4.2 0Zm99.9-1.7c1.7-.3 2.8 0 3.3.7s1.8 1.4 3.8 2.3a19 19 0 0 1 4.3 3 5.3 5.3 0 0 1 1.8 4l-.5 2.3c-.3 1.8-.1 3.6.5 5.3 0 1.3-.3 2.8-.8 4.5a8 8 0 0 0-.3 4.4l1.3 1.7 1.5 1.1c.5.4 1 .4 1.5.1 1.5-.3 3.1-1.6 4.9-4a84 84 0 0 0 5.1-8l5-8.7c1.7-2.8 3.2-4.7 4.6-5.7l7-1.7c1-.3 2-.3 3-.2l2.7.2c2.9 1.6 4.7 3.7 5.5 6.5l1.6 6.4c.1 2-.6 4.6-2.2 7.8-1.6 3.3-3.6 6-6 8a27.7 27.7 0 0 1-5.7 2.4l-1.7-.1-1.5-.6a9 9 0 0 0-2.2-.5l-2.4-.1c-2 0-3.8.7-5.5 2.1a96.8 96.8 0 0 0-5.2 4.4 33.5 33.5 0 0 0-8 20.6l-3.8 3.7a15.2 15.2 0 0 0-3.3 5.1c-1 2-1.3 4-1.3 6.2.1 2-.3 4.1-1.2 6v5.9a77.7 77.7 0 0 1-2.3 13.7 41 41 0 0 1-2 5.9 27.3 27.3 0 0 1-8.6 3.2l-6 .8c-.8 0-1.8-.6-3-1.7l-1.6-1.7-3.1-6c-.2-1 0-2.6.4-5a149.7 149.7 0 0 1 3.3-14l.8-3.3c3.4-4.7 5.6-9.6 6.6-14.7 1-5.2 2.2-10.3 3.4-15.3l-1.8-14c-.8-1.8-1.7-2.7-2.8-2.7s-2.4 0-3.6.4c-2.4.4-4.2 1-5.2 1.8s-2 1.6-2.7 2.4a25 25 0 0 1-2.5 2.4c-1 .8-2.5 1.3-4.8 1.6-1.2 0-2-.7-2.3-2-.3-1.5-.6-2.8-1-3.9a5 5 0 0 1 .8-3.7c.7-1.2 1.7-2.3 3-3.4l4.5-3.2a44 44 0 0 0 4.5-3.2 45 45 0 0 0 4.8-6c1.4-2.2 2.7-4.3 4.1-6.2a23 23 0 0 1 4.7-4.9 13 13 0 0 1 6.7-2.4Zm139.3 1.2c3.2 0 5.9.6 8 1.7 2.3 1 4 2.5 5.4 4.3 1.4 1.8 2.4 4 3 6.4.6 2.4.8 4.9.7 7.6a11 11 0 0 1-4.6 9.2 68 68 0 0 1-9.3 6 65 65 0 0 1-9.2 4.9c-3.3 1.4-6.3 3-9.1 4.6a28 28 0 0 0-7 6 14 14 0 0 0-3.2 8.6v8.9a11 11 0 0 0 1.6 7c1.4 2.4 3.1 3.5 5.3 3.5.1.2.7 0 1.8-.6a70.9 70.9 0 0 0 10.2-6.3l5.4-2.5c1.3-.6 2.2-.8 2.8-.5 1.1 0 2 .2 2.8.4.7.3 1.1 1.4 1.1 3.2-.3 3.1-1.7 6.1-4.3 9a72.7 72.7 0 0 1-17.3 14.5 45.5 45.5 0 0 0-5.7 4 13 13 0 0 1-7.2 3.4l-6.7.2a9.2 9.2 0 0 1-4.2-1.7 19.7 19.7 0 0 1-6.5-7.6 6.6 6.6 0 0 1-.7-3.6V764c0-1-.3-2-.9-3.2l-.9-1.4.7-4.3v-3.4l.4-4.5a223.4 223.4 0 0 1 2.4-16.3l.8-5.2c.6-.4 1-.8 1-1.2l-.3-1.3-.2-1.6a4 4 0 0 1 .9-2.2c0-1.7.4-3.5 1.1-5.3l1.4-3 3.2-7c.3-3 1.9-6.3 4.8-9.6a55 55 0 0 1 22.1-15.4c4-1.6 7.5-2.3 10.4-2Zm-10.2 16c-.8 0-1.6.5-2.3 1.5a50.4 50.4 0 0 0-4.6 8.4l-.7 2.4-.6 2.6c-.2.7-.1 1.4.2 1.9.3.5.9.7 1.8.7.8.1 2 0 3.4-.4a23.6 23.6 0 0 0 9-5c1.3-1.2 2-2.5 2.2-3.9v-3.6a3 3 0 0 0-.7-1.9c-.5-.6-1-1-1.6-1.3a10 10 0 0 0-2.3-1l-3.8-.4Zm124.7-47.6h4l3.6.7c1.2.4 2 1 2.7 1.7.7.8 1 1.9 1 3.3 0 .8-1 2.4-3.1 4.7l-7 7.7c-2.5 2.8-4.8 5.4-6.9 8-2.1 2.6-3.2 4.6-3.2 6 0 1.1.3 2 1 2.5.7.6 1.5 1 2.4 1.2a18.4 18.4 0 0 0 5 .5h7.5l1.4-1c1.2-.9 2.2-1.3 3-1.3 2.2 0 3.9.9 4.9 2.5a11 11 0 0 1 1.4 5.8v5.7c0 1.5-.9 2.7-2.7 3.6-1.8.8-3.8 1.4-6 1.9a53.4 53.4 0 0 1-14 .7c-.3-.2-1-.3-1.8-.3h-4.6c-.9 0-2.2.4-3.9 1.3-1.6.8-2.5 1.8-2.5 3a33.3 33.3 0 0 1-.7 7.1l-.4 2.8-1.4 2.3a8 8 0 0 0-1.1 3.6v2.3a30.2 30.2 0 0 1-3.2 12.9c-.8.7-1.4 1.4-1.8 2-.5.6-.7 2.3-.7 5v4.2c0 .9.1 1.9.5 3 .3 1.3.8 2.4 1.5 3.4.8 1 1.7 1.8 2.8 2.5a7 7 0 0 0 4 1 8 8 0 0 0 5-1.4c.7-.4 1.3-1 1.9-1.5a4 4 0 0 1 2.9 1c.6.6 1.3 1.2 1.9 2a14 14 0 0 1 1.6 3 10 10 0 0 1-1.5 4.4 38.9 38.9 0 0 1-7.9 10c-1.5 1.3-2.8 2-3.8 2s-2.1.8-3.1 2.4c-1 1.7-1.5 2.8-1.5 3.5l-2.5.4a387.7 387.7 0 0 0-8.2 2c-2 0-3.5-.2-4.6-.4s-1.8-.8-1.8-2a9.3 9.3 0 0 1-2-3 92.2 92.2 0 0 1-5.1-12.1c-.7-2-1-3.5-1-4.3v-10a221.8 221.8 0 0 1 2-10.7 126.5 126.5 0 0 0 1.8-13.4V724l3.4-8.6a126 126 0 0 1 3.5-9.6v-6.5c0-1.8-.6-3-1.9-3.4l-3-2.1c-1-.7-1.5-1.6-1.5-2.7 0-.9.3-1.8 1-2.7.7-1 1.5-1.9 2.5-2.8l3-3.1c1-1 1.8-2 2.4-3 1-2.2 2-3.5 3-4s2.1-1.1 3.3-2c2-2.1 4.1-3.9 6.4-5.3a22 22 0 0 0 9.1-12.5c.6-2 2-3.5 4.1-4.6 2-.6 3.7-1.7 5.2-3.3 1.6-1.6 2.8-2.4 3.7-2.4Zm93.1 31.6 7.8.3c3.2.1 5.8.6 7.9 1.5 2.3 0 3.8.8 4.4 2.5l2.7 5.7a26.9 26.9 0 0 1 6.1 8.7 8 8 0 0 1 .7 3l-1.8 18.8c0 4-1 8.3-2.8 13.1a40 40 0 0 1-8 12.9c-1.2 1.1-2 2.4-2.6 3.7a301 301 0 0 0-3.4 8.5c-.6 1.4-1.6 2.9-2.8 4.3a152.8 152.8 0 0 1-6.7 8 36 36 0 0 1-4.1 4c-1.5 1.1-3 2-4.5 2.6a127 127 0 0 0-9.7 5 14 14 0 0 1-3.8 1.2c-1.3.2-2.7.3-4.2.3a14 14 0 0 1-6.4-1.5 17 17 0 0 1-5.1-3.9 21.1 21.1 0 0 1-3.5-5.5c-1-2-1.4-4.1-1.4-6.2v-14.2c0-.8-.3-1.6-1-2.3-.5-.7-.8-2.7-.8-6-.2-4 .9-9 3.2-14.7a141 141 0 0 1 17.4-31.9c3-4.3 5.5-6.9 7.1-7.9 1.7-1 3.1-2 4.3-3.3a78 78 0 0 1 3.3-3.2c1-1 2.1-1.8 3.3-2.5s2.6-1 4.4-1Zm1.1 24.2c-2.4 0-4.8 1-7.4 2.8-2.5 2-4.8 4.1-6.9 6.6a81 81 0 0 0-9.1 12.8l-2.3 8a62.7 62.7 0 0 0-2 9.1v4c.6.4 1.1 1.3 1.6 2.6s1 2.5 1.7 3.8c.6 1.2 1.4 2.4 2.4 3.3.9 1 2.2 1.5 3.8 1.5a117.6 117.6 0 0 0 14.7-7.4c2-1.2 3.5-2.5 4.2-3.8a256 256 0 0 0 6.4-14.6c-.3-1.1 0-2.2 1-3.4 1-1 1.5-2.1 1.5-3.1v-6a29.5 29.5 0 0 0-2.4-9.2 20 20 0 0 0-3-5c-1.3-1.3-2.6-2-4.2-2Z"/>
  <path fill="#f2e863" d="M282.4 408c2 0 4 .5 6 1.6a5.4 5.4 0 0 1 2.8 4.9v4a68.4 68.4 0 0 1-10.9 6h-6.8c-3.2 0-5.7.8-7.5 2.5a9 9 0 0 0-2.8 7v6.3c0 3.8-.4 8-1.4 12.5l-2.9 12.9v31.7l.4 2.2a10.5 10.5 0 0 0 3 6 4 4 0 0 0 3 1h19.6c.4 0 1.7-.3 3.7-1.2a167.5 167.5 0 0 0 14-6.5 37.6 37.6 0 0 0 8.7-6c1.2-1 2.3-1.4 3.4-1.4.9-2 1.5-3.2 2-3.5.3-.4 1-.5 2.3-.5 1 0 2.2.4 3.9 1.3 1.6 1 2.5 1.8 2.5 2.7 0 .4-.7 2-2 5l-4.6 9.7c-1.9 3.6-3.8 7-6 10.3a21.5 21.5 0 0 1-5.9 6.7c-.4.5-1.8 1-4 1.1a186.5 186.5 0 0 1-16.2.8H276c-3.2 0-6.4-.3-9.6-.9s-5.3-.5-6.4.2l-3 .7-10.9 2.3a77.7 77.7 0 0 1-7.5-1.2 86.5 86.5 0 0 0-7.5-1.1c-1.2 0-2.3.1-3.4.4a27.5 27.5 0 0 0-5.5 1.9c-1.6 0-2.9-.4-3.7-1a6.2 6.2 0 0 1-1.8-2.6c-.4-1-.6-2-.7-3l-.1-2.3c0-3 1-4.8 3-5.5 2-.7 4.3-1.3 6.8-1.8 2.4-.5 4.6-1.3 6.7-2.5 2-1.2 3-3.8 3-7.8v-17.7l1.9-15.9v-7.6l.2-3.3c.1-1.6.4-3.3.7-5.2l1.1-6.7c0-1.2-.3-2.2-1-3.2a5 5 0 0 1-1-2.7v-2.4c0-4-.7-6.6-2-8.1a13.5 13.5 0 0 0-4.3-3.4c-1.6-.8-3-1.6-4.3-2.6-1.3-1-2-3-2-6a7.6 7.6 0 0 1 3.5-6.3 8.8 8.8 0 0 1 4.7-1.9h49.4Zm166.4 13.5c3.1 0 5.4.8 6.8 2.5s2 4 2 7a127.2 127.2 0 0 1-4.6 17.1l-1.7 5.7a17.4 17.4 0 0 1-1.8 8.3c-1.3.8-1.9 2.2-1.9 4.1v4.1l-.7 11.2v8.3a41 41 0 0 0 .6 5.4c.2 1 .6 2 1.3 2.7a3 3 0 0 0 2.5 1.2l3.1-4.7a78.8 78.8 0 0 0 6.9-5.7l4-3.6c1 0 1.7.4 2.4 1 .6.8.9 1.6.9 2.4l-1 1.7a10 10 0 0 1-1.8 2.6 25 25 0 0 1-4 7.2l-5.5 6-6 5.8c-2.1 2-4 4.2-5.9 6.7l-5 6.6c0 1.3-.4 2.6-1.2 3.9-.8 1.3-1.8 2.4-3 3.2a5.8 5.8 0 0 1-3.6 1c-1.3 0-2.3-.9-3-2.4-1-2.5-1.4-5-1.4-7.5s.2-4.9.6-7.2l1.4-6.7c.5-2 .7-4.1.7-6v-12c0-.6-.5-1.1-1.6-1.4l-1.6-.2c-.5 0-1.6 1.2-3.4 3.7l-6.3 8.4-7.1 9.7a55.6 55.6 0 0 1-6 7 60.7 60.7 0 0 1-5.3 5.4c-1.1 1-2.4 2-3.8 2.7a7.6 7.6 0 0 1-3.6 1.1 7 7 0 0 1-5.2-2 15 15 0 0 1-3.2-5 32.6 32.6 0 0 1-2.3-9.9l-.7-15.2L383 471a51.4 51.4 0 0 1 5.1-13.4c1-1.8 2-3.3 3-4.4a88 88 0 0 0 12.8-14 22.9 22.9 0 0 1 11.2-8c1.8-.7 3.6-1.2 5.4-1.6 1.9-.3 4-1 6.2-2.2.9 0 2-.4 3.5-1.3l4-2.7h10.2l4.4-1.9ZM419.6 445a56.8 56.8 0 0 0-14.1 15.6 54.4 54.4 0 0 0-4.3 8 16 16 0 0 0-1.6 5.7l-.2 4a23.8 23.8 0 0 0 1.9 11.4c.8 1.6 2.3 2.4 4.4 2.4 2 0 4.3-1.6 7-4.9a125.3 125.3 0 0 0 15.8-28.7l.2-4.1c.2-2.2 0-4.3-.3-6.4-.4-2-1.2-3.5-2.5-4.4-1.3-1-3.4-.5-6.3 1.4Zm143.9-108h6.1c1.2 0 2.4.2 3.6.8a8 8 0 0 0 3.5.8l6.4-1.7h3.6c1 0 2.2.3 3.5 1a17.1 17.1 0 0 1 6.4 5.5c.7 1 1 2 1 2.8a28 28 0 0 1-.9 6.8 24.7 24.7 0 0 1-9.1 13.3 24 24 0 0 1-9.1 4h-4.3c-1.7 0-3.6.5-5.6 1.3a26.6 26.6 0 0 0-10.4 7.7 7.7 7.7 0 0 0-1.8 4.6c-1.2 1-2 2.5-2.4 4.7a16 16 0 0 1-2.1 5.8 8 8 0 0 0-2.2 5.2l-.3 5-2.5 7.6c0 2-.5 4-1.4 6l-3 6.3a60.7 60.7 0 0 0-3.1 7.3c-1 2.6-1.4 5.4-1.4 8.5v4.2c0 .8.3 1.2.9 1.5.3.2.7.2 1.1.2 1.1 0 2.2-.8 3.2-2.5a67 67 0 0 1 4.1-5.7c1.7-2.1 3.7-4 6.2-5.7a16 16 0 0 1 9.3-2.6l5-1.7c3.5 0 6.2 1 8 2.9 1.8 1.9 2.7 4.5 2.7 7.7v1.7l-1.8 4.2 1 3.4a20.4 20.4 0 0 1 .8 6c0 1.5-.2 2.5-.7 2.9a105.4 105.4 0 0 1-1.1 3c0 .5 0 1 .2 1.3l.5 1.4a10.8 10.8 0 0 1-.7 5.5v6.3c0 .4-.4 1.3-1.3 2.7l-2.8 4.5-3.4 5.5a27 27 0 0 0-2.7 5.7L564 502a264.7 264.7 0 0 1-13.8 17.4 29.6 29.6 0 0 1-4 4.4c-1.7 1-3 1.9-3.9 2.8s-1.8 1.5-2.7 2c-.9.6-2 1-3.4 1.3-1.4.3-3.5.5-6.4.5l-6.3 1.6c-1.3 0-2-.3-2.5-1-.5-.5-.8-1.4-1-2.4l-.4-3.5a10 10 0 0 0-1.2-3.6c0-.7-.2-1.5-.6-2.2-.5-.8-.9-1.6-1.2-2.5l-3-3.3c-1-1-1.5-2.3-1.5-3.9 0-1.1.4-2.6 1.1-4.4.5-1 1-2 1.4-3.2v-6.3l2-19.5V472l4.4-19.9v-7.6c0-1.1.4-3.5 1.2-7.2.8-3.6 1.3-8 1.3-12.9v-5.9l6.3-24v-1.8a283.2 283.2 0 0 1 1.8-11.4l2.1-8.5 1.8-5.9c.3-2 1-4 2-5.6 1-1.6 2.4-3.9 4.4-6.8l21.6-17.6Zm-12.8 113.4c-2.1 0-4.3 1.5-6.5 4.5s-4.2 6.3-6 10.1a99.8 99.8 0 0 0-4.5 11.1c-1.3 3.6-1.9 6-1.9 7.1v8.3a14.4 14.4 0 0 0 1.4 6.4c.3.8.8 1.2 1.6 1.2h2.7c2.2-.7 4.5-2 7-3.8a50.6 50.6 0 0 0 12.3-13.1 13 13 0 0 0 2.1-6.6v-10l-1.1-4.2 1.1-3.3c0-5.1-2.7-7.7-8.2-7.7Zm108.2-28.3c2.5 0 4.7.9 6.3 2.7a8 8 0 0 1 2.5 5.6l-2 5.9c.9.8 1.5 2 1.8 3.6.2.7.2 1.5.2 2.3 0 2.8-.3 5.4-1 7.8-.7 2.4-1 5-1 8v1.7a15.2 15.2 0 0 1-1 5.1l-.8 3.2v2.3a8 8 0 0 1-.8 3.8c-.6 1-1.1 2.3-1.7 3.8-.3 1.2-.8 2.3-1.5 3.5a7.3 7.3 0 0 0-.6 6.3 11.4 11.4 0 0 0 3.6 5.1 4 4 0 0 0 2.8 1c1.2 0 2.3-.4 3.3-1a10 10 0 0 0 2.4-2.4c.8-.7 1.5-1.3 2.4-1.8.8-.5 1.8-.7 2.8-.7h4.4c.9 0 1.4.4 1.5 1.2.2.9.3 1.9.3 3 0 .4-.7 1.3-2 2.5a306.9 306.9 0 0 1-9.6 8.4 80.5 80.5 0 0 1-3.4 2.6 122.3 122.3 0 0 1-8 12.4 47.1 47.1 0 0 1-5.8 6.5c-2 2-3.8 2.9-5.4 2.9-1 0-2.2-.3-3.5-1a15.7 15.7 0 0 1-6.1-5.8c-.7-1.1-1-2.2-1-3.4v-3.4l-.3-3c-.1-.8-.7-1.2-1.6-1.2v-4l1.8-6v-9.9c0-2 .3-3.8 1-5 .5-1.3.9-3 .9-4.9V478c0-1 .3-2.4 1-4.2a635 635 0 0 0 4.3-12.2c.7-2 1-3.8 1-5.4 0-1.1-.5-2.3-1.5-3.7-1-1.3-2.6-2-4.9-2-.9 0-1.7.3-2.3.9-.7.5-2.7.8-5.8.8-.4-.1-.7-.5-1-1-.6-.9-.9-2-.9-3.2v-3.4c0-1.3 1.4-3.1 4-5.6a138 138 0 0 1 19-14c3.2-1.8 5.3-2.8 6.2-2.8Zm.6-49.9c.6 0 1.4 0 2.4-.3a203.5 203.5 0 0 1 8.3-1.6c2.1.7 3.5 2 4.1 3.6.6 1.7 1.6 3.5 2.8 5.3 0 1.1 0 2.3.3 3.4l.3 3.2a7 7 0 0 1-.9 3 10 10 0 0 0-.9 4.6l-1.2 3.6c-.6 1.4-1.2 2.7-2 3.9a17 17 0 0 1-3 3c-1.2.7-2.5 1-4 .7a15.6 15.6 0 0 1-12.5-7.2c-1.1-.9-1.5-2.1-1.2-3.8.3-1.7.5-3.2.5-4.5 0-3.8.7-6.9 2-9.3 1.4-2.4 3-4.9 5-7.6Zm105 49.9c1.7-.3 2.8 0 3.3.6.5.8 1.8 1.5 3.7 2.4a19 19 0 0 1 4.4 3 5.3 5.3 0 0 1 1.8 4l-.5 2.3c-.3 1.8-.1 3.6.5 5.3 0 1.2-.3 2.8-.8 4.5a8 8 0 0 0-.3 4.4l1.3 1.6 1.5 1.2c.5.4 1 .4 1.5.1 1.5-.3 3.1-1.6 4.9-4a84 84 0 0 0 5-8l5.1-8.7c1.7-2.8 3.2-4.7 4.6-5.7l7-1.7c1-.3 2-.3 3-.2l2.7.2c2.9 1.6 4.7 3.7 5.5 6.5l1.6 6.4c.1 2-.6 4.6-2.2 7.8-1.6 3.3-3.6 6-6 8a27.7 27.7 0 0 1-5.7 2.4l-1.7-.1-1.5-.6a9 9 0 0 0-2.2-.5l-2.4-.1c-2 0-3.8.7-5.5 2.1a96.8 96.8 0 0 0-5.2 4.4 33.5 33.5 0 0 0-8.2 20.6L776 484a15.2 15.2 0 0 0-3.3 5.1c-1 2-1.3 4-1.3 6.2.1 2-.3 4.1-1.2 6v5.9a77.7 77.7 0 0 1-2.3 13.7 41 41 0 0 1-2 5.9 27.3 27.3 0 0 1-8.6 3.2l-6 .8c-.8 0-1.8-.6-3-1.7l-1.6-1.7-3.2-6c-.1-1 0-2.6.5-5a149.7 149.7 0 0 1 3.3-14l.8-3.3c3.3-4.7 5.5-9.6 6.6-14.7 1-5.2 2.2-10.3 3.4-15.4l-1.8-13.9c-.8-1.8-1.7-2.8-2.9-2.8s-2.3.2-3.5.5a12 12 0 0 0-8 4.2 25 25 0 0 1-2.5 2.4c-.9.8-2.5 1.3-4.7 1.6-1.3 0-2-.7-2.3-2-.3-1.5-.6-2.8-1-3.9a5 5 0 0 1 .8-3.7c.7-1.2 1.7-2.3 3-3.4l4.5-3.2a44 44 0 0 0 4.5-3.2 45 45 0 0 0 4.8-6l4-6.2a23 23 0 0 1 4.8-4.9 13 13 0 0 1 6.7-2.4Zm126.8 0c2.5 0 4.7.9 6.3 2.7a8 8 0 0 1 2.5 5.6l-2 5.9c.9.8 1.5 2 1.8 3.6.2.7.2 1.5.2 2.3 0 2.8-.3 5.4-1 7.8-.7 2.4-1 5-1 8v1.7a15.2 15.2 0 0 1-1 5.1l-.8 3.2v2.3a8 8 0 0 1-.8 3.8c-.6 1-1.1 2.3-1.7 3.8-.3 1.2-.8 2.3-1.5 3.5a7.3 7.3 0 0 0-.6 6.3 11.4 11.4 0 0 0 3.6 5.1 4 4 0 0 0 2.8 1c1.2 0 2.3-.4 3.3-1a10 10 0 0 0 2.4-2.4c.8-.7 1.5-1.3 2.4-1.8.8-.5 1.8-.7 2.8-.7h4.4c.9 0 1.4.4 1.5 1.2.2.9.3 1.9.3 3 0 .4-.7 1.3-2 2.5a306.9 306.9 0 0 1-9.6 8.4 80.5 80.5 0 0 1-3.4 2.6 122.3 122.3 0 0 1-8 12.4 47.1 47.1 0 0 1-5.8 6.5c-2 2-3.8 2.9-5.4 2.9-1 0-2.2-.3-3.5-1a15.7 15.7 0 0 1-6.1-5.8c-.7-1.1-1-2.2-1-3.4v-3.4l-.3-3c-.1-.8-.7-1.2-1.6-1.2v-4l1.8-6v-9.9c0-2 .3-3.8 1-5 .5-1.3.9-3 .9-4.9V478c0-1 .3-2.4 1-4.2a635 635 0 0 0 4.3-12.2c.7-2 1-3.8 1-5.4 0-1.1-.5-2.3-1.5-3.7-1-1.3-2.6-2-4.9-2-.9 0-1.7.3-2.3.9-.7.5-2.7.8-5.8.8-.4-.1-.7-.5-1-1-.6-.9-.9-2-.9-3.2v-3.4c0-1.3 1.4-3.1 4-5.6a138 138 0 0 1 19-14c3.2-1.8 5.3-2.8 6.2-2.8Zm.6-49.9c.6 0 1.4 0 2.4-.3a203.5 203.5 0 0 1 8.3-1.6c2.1.7 3.5 2 4.1 3.6a21 21 0 0 0 2.8 5.3c0 1.1 0 2.3.3 3.4l.3 3.2a7 7 0 0 1-.9 3 10 10 0 0 0-.9 4.6l-1.2 3.6c-.6 1.4-1.2 2.7-2 3.9a17 17 0 0 1-3 3c-1.2.7-2.5 1-4 .7a15.6 15.6 0 0 1-12.5-7.2c-1.1-.9-1.5-2.1-1.2-3.8.3-1.7.5-3.2.5-4.5 0-3.8.7-6.9 2-9.3 1.4-2.4 3-4.9 5-7.6Zm105 53.5a5 5 0 0 1 3.9 1.5c.9 1 1.7 2 2.5 3.2.4 1 .6 2.3.4 4-.1 1.7-.4 3.4-.8 5a259.7 259.7 0 0 1-1.7 8l.7 3.5 2.5 4.2c.6 0 1.8-.8 3.5-2.4a199.8 199.8 0 0 0 13.6-13.8 283 283 0 0 1 14-13.7c2-1.7 3.5-2.5 4.4-2.5 1.2 0 2.2.7 3 2.1l2.4 4.5c.8 1.8 1.5 4 2.1 6.3a97.9 97.9 0 0 1-2.6 19.8 512.5 512.5 0 0 1-6.4 24.5 1425.7 1425.7 0 0 1-3.5 12.8l-.3 2-.2 2.1c0 .6.2 1.2.6 1.6.4.4 1.2.7 2.4.7l2.7-1.7 2.5-1.7a1400 1400 0 0 0 10.1-6.2c2.2-1.4 3.6-2 4.2-2 1 0 2 .4 3 1.3 1 1 1.6 1.8 1.6 2.6a49.3 49.3 0 0 1-9.1 10.2c-1.4 1.1-2.4 1.7-3 1.7 0 1.1-.4 2.2-1.2 3.2-.9 1-1.7 1.4-2.6 1.4a60.3 60.3 0 0 0-6.2 7 97.4 97.4 0 0 1-5 6.3 21.6 21.6 0 0 1-5.5 4.5 15 15 0 0 1-7.5 1.7c-1 0-2.1-.3-3.3-1a13.5 13.5 0 0 1-5.2-6 7.9 7.9 0 0 1-.8-3.1l-.7-7.6c1-3.9 2.1-8 3.5-12.3a1293.5 1293.5 0 0 0 7-21.6c.8-3 1.3-5.8 1.6-8.4V465c-.6-3.9-2.1-5.9-4.6-5.9-3.6 0-6.5.8-8.6 2.2a17.9 17.9 0 0 0-5.3 5.8 46.7 46.7 0 0 0-3.5 7.5 64.6 64.6 0 0 1-4.8 10c-.2.8-.2 1.7.1 2.9l-1 5c-.4 1.7-.9 3.3-1.5 4.9a546 546 0 0 0-8.8 25.8c.7 1.1.6 1.8-.4 2l-2.8.3-3.9-.1a20 20 0 0 1-4.9-.7c-1.6-.5-3-1.1-4.3-2-1.3-.8-2-2-2.2-3.5-.3-2.4 0-5 1-7.5a59.3 59.3 0 0 1 6.3-13.3c1-1.6 1.6-2.8 1.6-3.3v-7.6l-1.1-3.6c0-.9.3-2 .9-3.3a82 82 0 0 1 3.8-7.7c.6-1.2 1-2 1-2.6v-3l-.7-8.2c0-.8-.1-1.7-.4-2.6-.2-1-1-1.4-2.1-1.4-1 0-2 .2-3.1.6a62.2 62.2 0 0 0-6.6 2.8 7 7 0 0 1-2.4.6h-1.8c-1-.6-1.3-1.6-.8-3.3.5-1.6.8-2.8.8-3.7 3.8-5 7.5-9.2 11-13a59.4 59.4 0 0 1 17.2-12.1c1.8-.9 3.6-1.3 5.3-1.3Zm163.1-34h4l3.7.7c1.1.4 2 1 2.7 1.7.7.8 1 1.9 1 3.3 0 .8-1 2.4-3.1 4.7l-7 7.6a169 169 0 0 0-7 8c-2 2.7-3.1 4.7-3.1 6.1 0 1.1.3 2 1 2.5.7.6 1.5 1 2.4 1.2a18.4 18.4 0 0 0 5 .5h7.5l1.4-1c1.2-.9 2.2-1.3 3-1.3 2.2 0 3.9.9 4.8 2.6 1 1.6 1.5 3.5 1.5 5.7v5.7c0 1.5-.9 2.7-2.7 3.6-1.8.8-3.8 1.4-6 1.9a53.4 53.4 0 0 1-14 .7c-.3-.2-1-.3-1.8-.3h-4.6c-1 0-2.2.4-3.9 1.2-1.6.9-2.5 1.9-2.5 3a33.3 33.3 0 0 1-.7 7.2l-.4 2.7-1.4 2.4a8 8 0 0 0-1.1 3.6v2.3a30.2 30.2 0 0 1-3.2 12.9c-.8.7-1.4 1.4-1.8 2-.5.6-.7 2.3-.7 5v4.2c0 .8.1 1.9.4 3 .3 1.3.9 2.4 1.6 3.3.8 1 1.7 1.9 2.8 2.6a7 7 0 0 0 4 1 8 8 0 0 0 5-1.4l1.9-1.5a4 4 0 0 1 2.8 1c.7.6 1.4 1.2 2 2a14 14 0 0 1 1.6 3 10 10 0 0 1-1.5 4.3 38.9 38.9 0 0 1-7.9 10c-1.5 1.4-2.8 2.1-3.9 2.1s-2 .8-3 2.4a8.2 8.2 0 0 0-1.5 3.5l-2.5.4a387.7 387.7 0 0 0-8.2 2c-2 0-3.5-.2-4.7-.4s-1.7-.9-1.7-2a9.3 9.3 0 0 1-2-3 92.2 92.2 0 0 1-5.1-12.1c-.7-2-1-3.5-1-4.3v-10a221.8 221.8 0 0 1 2-10.7 126.5 126.5 0 0 0 1.8-13.4v-3.6l3.4-8.6a126 126 0 0 1 3.4-9.6v-6.5c0-1.8-.6-3-1.8-3.4l-3-2.1c-1-.7-1.5-1.6-1.5-2.8 0-.8.3-1.7 1-2.6.7-1 1.5-1.9 2.5-2.8l3-3.1c1-1 1.7-2 2.3-3 1.1-2.2 2.1-3.5 3.1-4l3.3-2c2-2.1 4.1-3.9 6.4-5.3a22 22 0 0 0 9.1-12.5c.6-2 2-3.5 4-4.6 2-.6 3.8-1.7 5.3-3.3 1.5-1.6 2.8-2.4 3.7-2.4Zm93.2 31.7c2.1 0 4.7 0 7.8.2 3.1.1 5.8.6 7.9 1.5 2.3 0 3.7.8 4.4 2.5l2.6 5.7a26.9 26.9 0 0 1 6.2 8.7 8 8 0 0 1 .7 3l-1.8 18.8c0 4-1 8.3-2.8 13a40 40 0 0 1-8 13c-1.2 1.1-2 2.3-2.6 3.7a301 301 0 0 0-3.4 8.4c-.6 1.5-1.6 3-2.8 4.4a152.8 152.8 0 0 1-6.7 8 36 36 0 0 1-4.1 4 17 17 0 0 1-4.5 2.5 127 127 0 0 0-9.8 5.1c-1.2.6-2.4 1-3.7 1.2-1.3.2-2.7.3-4.2.3a14 14 0 0 1-6.4-1.5 17 17 0 0 1-5.1-3.9 21.1 21.1 0 0 1-3.5-5.5c-1-2-1.4-4.1-1.4-6.2V496a3 3 0 0 0-1-2.3c-.5-.7-.8-2.7-.8-6-.2-4 .9-9 3.2-14.8a141 141 0 0 1 17.4-31.8c3-4.3 5.5-7 7.1-7.9 1.7-1 3.1-2 4.2-3.3a78 78 0 0 1 3.3-3.3c1.1-1 2.2-1.8 3.3-2.4s2.7-1 4.5-1Zm1.1 24a12 12 0 0 0-7.4 3c-2.5 1.8-4.8 4-7 6.5a81 81 0 0 0-9 12.8l-2.3 8a62.7 62.7 0 0 0-2 9v4.1c.6.4 1.1 1.3 1.6 2.5s1 2.6 1.7 3.9a13 13 0 0 0 2.3 3.3c1 1 2.2 1.5 4 1.5 3-1.3 5.8-2.5 8.3-3.8 2.2-1.1 4.2-2.3 6.3-3.6s3.5-2.5 4.2-3.8a256 256 0 0 0 6.4-14.6c-.3-1.1 0-2.2 1-3.4 1-1 1.5-2.1 1.5-3.1v-6a29.5 29.5 0 0 0-2.4-9.2 20 20 0 0 0-3-5 6 6 0 0 0-4.2-2ZM372.1 677a12.6 12.6 0 0 1 4.7-10 27 27 0 0 1 4.9-3.6 190.6 190.6 0 0 1 17-9.3c3.4-1.6 7.6-2.4 12.6-2.4l8.4.1c2.4.1 5 1 7.5 2.9a14 14 0 0 1 4.5 5 16.4 16.4 0 0 1 .4 11.3c-.5 1.5-1.3 3-2.3 4.2-1 1.3-2.2 2.3-3.6 3-1.4.9-3 1.2-4.7 1.2s-3-.4-4-1.1a28 28 0 0 1-2.7-2.5l-2.7-2.4a6 6 0 0 0-3.8-1.1c-2 0-4 .1-6 .5-2 .3-4 1-5.6 1.8-1.7.8-3 1.9-4 3.2a7 7 0 0 0-1.7 4.6c0 1.7.6 2.9 1.8 3.6 1.2.7 2.7 1.2 4.5 1.5l5.6.8c2 .3 3.7.9 5.4 1.7l10.6 5.3c3 1.6 6.3 3.5 10.1 6a91.5 91.5 0 0 0 9.8 4.6A56 56 0 0 1 453 718c2.7 3.2 4 7.6 4 13v4.8c0 1.7.3 3.2 1 4.5.5 1.4.8 3 .8 4.8 0 3-.6 5.4-2 7.2-1.2 1.8-2.5 4-3.7 6.3a4.7 4.7 0 0 0 0 2.9c.3.8.1 1.6-.7 2.4-.6 1.8-1.5 3-3 3.6-1.3.6-2.6 1.6-3.8 3a63 63 0 0 1-11.3 7.6 88.2 88.2 0 0 1-20.3 7.6 7 7 0 0 0-2.8 1.4c-.7.6-1.7 1-3 1s-2.4-.2-3.1-.4a18 18 0 0 0-7.9.3c-1.3.4-2.9.6-4.9.6-1.2 0-2.1-.2-2.8-.7-.7-.5-1.6-.9-2.9-1.2-1.6-.5-3.1-.8-4.4-.7-1.3 0-2.8 0-4.4-.3a6 6 0 0 1-4.1-1.4 21.2 21.2 0 0 0-8.9-4.6c-1.5-.4-3.1-1.3-4.8-2.9-1.7-.8-2.6-2-2.7-3.3a12 12 0 0 0-1.6-4.3 53.4 53.4 0 0 0-3.2-5.6c-1-1.3-1.4-3.4-1.4-6.2 0-4.1 1.7-7.7 5-10.7 3.4-3 7.4-4.6 12.1-4.6 2.9 0 5.6.6 8.2 1.8 2.6 1.2 3.9 3 3.9 5.4 0 .9-.2 1.5-.4 2s-.3.8-.3 1.4c0 1 .2 1.8.7 2.3.4.6.6 1.2.6 2 0 .2 0 .6-.3 1a3 3 0 0 0-.3 1.2c0 2.2.6 4 1.8 5.4a16 16 0 0 0 4.6 3.8 23 23 0 0 0 6.5 2.4c2.5.5 4.9.7 7.3.7 4.9 0 9.3-1 13.3-3.2 4-2 7.7-4.9 10.8-8.4 1.9-1.8 3.4-3.7 4.6-5.7a14 14 0 0 0 1.8-7.4 9 9 0 0 0-1.4-4.8c-.9-1.5-1.3-3-1.3-4.5 0-.7 0-1.1.3-1.2.2 0 .4-.2.4-.5 0-2.3-.7-4.1-2-5.6s-2.9-2.8-4.9-4c-2-1-4.1-2.1-6.5-3.1-2.3-1-4.6-2-6.9-3.2-.6-.3-1.1-.7-1.5-1.5a3 3 0 0 0-1.7-1.4c-1.5-.7-3-1.1-4.5-1.2a7 7 0 0 1-4.4-1.8 7 7 0 0 1-2.5-2.2 8.5 8.5 0 0 0-2.5-2.4c-1.6-.7-3.1-1.1-4.4-1.2-1.3 0-2.8-.7-4.4-1.8l-2.4-2.5c-.7-.7-1.4-1.7-2-2.8a13.6 13.6 0 0 0-4.4-3.4c-1.8-.8-2.6-2.3-2.6-4.4V688c0-.9-.1-1.7-.3-2.5l-.2-2.8c0-.6 0-1 .2-1.4.2-.3.3-.8.3-1.3 0-.7 0-1.3.3-1.8l.3-1.2Zm189.9 0c3.2 0 5.9.6 8 1.7 2.3 1 4 2.5 5.4 4.3 1.4 1.8 2.4 4 3 6.4.6 2.4.8 4.9.7 7.6a11 11 0 0 1-4.6 9.2 68 68 0 0 1-9.3 6 65 65 0 0 1-9.2 4.9c-3.3 1.4-6.3 3-9.1 4.6a28 28 0 0 0-7 6 14 14 0 0 0-3.2 8.6v8.9a11 11 0 0 0 1.6 7c1.4 2.4 3.1 3.5 5.3 3.5.1.2.7 0 1.8-.6a70.9 70.9 0 0 0 10.2-6.3l5.4-2.5c1.3-.6 2.2-.8 2.8-.5 1.1 0 2 .2 2.8.4.7.3 1.1 1.4 1.1 3.2-.3 3.1-1.7 6.1-4.3 9a72.7 72.7 0 0 1-17.3 14.5 45.5 45.5 0 0 0-5.7 4 13 13 0 0 1-7.2 3.4l-6.7.2a9.2 9.2 0 0 1-4.2-1.7 19.7 19.7 0 0 1-6.5-7.6 6.6 6.6 0 0 1-.7-3.6V764c0-1-.3-2-.9-3.2l-.9-1.4.7-4.3v-3.4l.4-4.5a223.4 223.4 0 0 1 2.4-16.3l.8-5.2c.6-.4 1-.8 1-1.2l-.3-1.3-.2-1.6a4 4 0 0 1 .9-2.2c0-1.7.4-3.5 1.1-5.3l1.4-3 3.2-7c.3-3 1.9-6.3 4.8-9.6a55 55 0 0 1 22.1-15.4c4-1.6 7.5-2.3 10.4-2Zm-10.2 16c-.8 0-1.6.5-2.3 1.5a50.4 50.4 0 0 0-4.6 8.4l-.7 2.4-.6 2.6c-.2.7-.1 1.4.2 1.9.3.5.9.7 1.8.7.8.1 2 0 3.4-.4a23.6 23.6 0 0 0 9-5c1.3-1.2 2-2.5 2.2-3.9v-3.6a3 3 0 0 0-.7-1.9c-.5-.6-1-1-1.6-1.3a10 10 0 0 0-2.3-1l-3.8-.4Zm117.9-15.5c2 .3 4 .7 6.4 1.3a23 23 0 0 1 6.3 2.4c1.8 1 3.3 2.5 4.3 4.2 1.1 1.8 1.5 4 1.2 7 0 1.5-.4 3-1 4.3-.7 1.5-1.6 2.8-2.5 4-1 1.2-2.1 2.1-3.3 2.8-1.3.7-2.3 1-3.2 1a163.5 163.5 0 0 0-5-.4h-3.2l-8.7.2c-3.2.2-5.4.7-6.6 1.5-1.2 0-1.9.4-2.1 1-.3.8-.4 1.6-.4 2.6l-3.2 4.7-.9 4.8-.9 3.8-.7 2.6v3.4l-1.8 5.9-1.1 1.7a53 53 0 0 1-1.6 3 44 44 0 0 0 5.1 17c1 1.4 2 2.2 3.3 2.4 2.3 0 4.6-.9 7-2.6a85 85 0 0 0 7.2-5.6l6.9-5.5a9.5 9.5 0 0 1 6-2.2c2.3.3 3.6.8 3.9 1.6.3.8.3 1.6 0 2.4-.2 2-1 4.3-2.7 6.8a76.4 76.4 0 0 1-18.3 18.6c-5 3-9.5 5.4-13.4 7.4-4 2-8.4 2.8-13.2 2.6a6.8 6.8 0 0 1-5.2-3.1c-1.4-1.9-2.5-4-3.2-6.6a52.9 52.9 0 0 1-2.3-12.5l.7-2-.3-2.8a66 66 0 0 1-.3-4.2l-.2-4.3c-.1-1.5 0-2.5 0-3.2 0-4.4.6-7.8 1.7-10.3 1-2.4 1.6-5 1.6-7.9l2.5-5.3v-4.8a418.3 418.3 0 0 0 3.3-9.2 179.6 179.6 0 0 0 4.2-12c0-.8.5-1.9 1.6-3.2a28.7 28.7 0 0 1 8.3-6.7c1.6-.9 3-1.3 4.2-1.3l1.6-.6.2-.5c0-.2 0-.3.2-.5s.7-.4 1.6-.7a36 36 0 0 0 8.7-2l3-.9c1-.2 2.4-.2 4.2 0Zm99.9-1.7c1.7-.3 2.8 0 3.3.7s1.8 1.4 3.8 2.3a19 19 0 0 1 4.3 3 5.3 5.3 0 0 1 1.8 4l-.5 2.3c-.3 1.8-.1 3.6.5 5.3 0 1.3-.3 2.8-.8 4.5a8 8 0 0 0-.3 4.4l1.3 1.7 1.5 1.1c.5.4 1 .4 1.5.1 1.5-.3 3.1-1.6 4.9-4a84 84 0 0 0 5.1-8l5-8.7c1.7-2.8 3.2-4.7 4.6-5.7l7-1.7c1-.3 2-.3 3-.2l2.7.2c2.9 1.6 4.7 3.7 5.5 6.5l1.6 6.4c.1 2-.6 4.6-2.2 7.8-1.6 3.3-3.6 6-6 8a27.7 27.7 0 0 1-5.7 2.4l-1.7-.1-1.5-.6a9 9 0 0 0-2.2-.5l-2.4-.1c-2 0-3.8.7-5.5 2.1a96.8 96.8 0 0 0-5.2 4.4 33.5 33.5 0 0 0-8 20.6l-3.8 3.7a15.2 15.2 0 0 0-3.3 5.1c-1 2-1.3 4-1.3 6.2.1 2-.3 4.1-1.2 6v5.9a77.7 77.7 0 0 1-2.3 13.7 41 41 0 0 1-2 5.9 27.3 27.3 0 0 1-8.6 3.2l-6 .8c-.8 0-1.8-.6-3-1.7l-1.6-1.7-3.1-6c-.2-1 0-2.6.4-5a149.7 149.7 0 0 1 3.3-14l.8-3.3c3.4-4.7 5.6-9.6 6.6-14.7 1-5.2 2.2-10.3 3.4-15.3l-1.8-14c-.8-1.8-1.7-2.7-2.8-2.7s-2.4 0-3.6.4c-2.4.4-4.2 1-5.2 1.8s-2 1.6-2.7 2.4a25 25 0 0 1-2.5 2.4c-1 .8-2.5 1.3-4.8 1.6-1.2 0-2-.7-2.3-2-.3-1.5-.6-2.8-1-3.9a5 5 0 0 1 .8-3.7c.7-1.2 1.7-2.3 3-3.4l4.5-3.2a44 44 0 0 0 4.5-3.2 45 45 0 0 0 4.8-6c1.4-2.2 2.7-4.3 4.1-6.2a23 23 0 0 1 4.7-4.9 13 13 0 0 1 6.7-2.4Zm139.3 1.2c3.2 0 5.9.6 8 1.7 2.3 1 4 2.5 5.4 4.3 1.4 1.8 2.4 4 3 6.4.6 2.4.8 4.9.7 7.6a11 11 0 0 1-4.6 9.2 68 68 0 0 1-9.3 6 65 65 0 0 1-9.2 4.9c-3.3 1.4-6.3 3-9.1 4.6a28 28 0 0 0-7 6 14 14 0 0 0-3.2 8.6v8.9a11 11 0 0 0 1.6 7c1.4 2.4 3.1 3.5 5.3 3.5.1.2.7 0 1.8-.6a70.9 70.9 0 0 0 10.2-6.3l5.4-2.5c1.3-.6 2.2-.8 2.8-.5 1.1 0 2 .2 2.8.4.7.3 1.1 1.4 1.1 3.2-.3 3.1-1.7 6.1-4.3 9a72.7 72.7 0 0 1-17.3 14.5 45.5 45.5 0 0 0-5.7 4 13 13 0 0 1-7.2 3.4l-6.7.2a9.2 9.2 0 0 1-4.2-1.7 19.7 19.7 0 0 1-6.5-7.6 6.6 6.6 0 0 1-.7-3.6V764c0-1-.3-2-.9-3.2l-.9-1.4.7-4.3v-3.4l.4-4.5a223.4 223.4 0 0 1 2.4-16.3l.8-5.2c.6-.4 1-.8 1-1.2l-.3-1.3-.2-1.6a4 4 0 0 1 .9-2.2c0-1.7.4-3.5 1.1-5.3l1.4-3 3.2-7c.3-3 1.9-6.3 4.8-9.6a55 55 0 0 1 22.1-15.4c4-1.6 7.5-2.3 10.4-2Zm-10.2 16c-.8 0-1.6.5-2.3 1.5a50.4 50.4 0 0 0-4.6 8.4l-.7 2.4-.6 2.6c-.2.7-.1 1.4.2 1.9.3.5.9.7 1.8.7.8.1 2 0 3.4-.4a23.6 23.6 0 0 0 9-5c1.3-1.2 2-2.5 2.2-3.9v-3.6a3 3 0 0 0-.7-1.9c-.5-.6-1-1-1.6-1.3a10 10 0 0 0-2.3-1l-3.8-.4Zm124.7-47.6h4l3.6.7c1.2.4 2 1 2.7 1.7.7.8 1 1.9 1 3.3 0 .8-1 2.4-3.1 4.7l-7 7.7c-2.5 2.8-4.8 5.4-6.9 8-2.1 2.6-3.2 4.6-3.2 6 0 1.1.3 2 1 2.5.7.6 1.5 1 2.4 1.2a18.4 18.4 0 0 0 5 .5h7.5l1.4-1c1.2-.9 2.2-1.3 3-1.3 2.2 0 3.9.9 4.9 2.5a11 11 0 0 1 1.4 5.8v5.7c0 1.5-.9 2.7-2.7 3.6-1.8.8-3.8 1.4-6 1.9a53.4 53.4 0 0 1-14 .7c-.3-.2-1-.3-1.8-.3h-4.6c-.9 0-2.2.4-3.9 1.3-1.6.8-2.5 1.8-2.5 3a33.3 33.3 0 0 1-.7 7.1l-.4 2.8-1.4 2.3a8 8 0 0 0-1.1 3.6v2.3a30.2 30.2 0 0 1-3.2 12.9c-.8.7-1.4 1.4-1.8 2-.5.6-.7 2.3-.7 5v4.2c0 .9.1 1.9.5 3 .3 1.3.8 2.4 1.5 3.4.8 1 1.7 1.8 2.8 2.5a7 7 0 0 0 4 1 8 8 0 0 0 5-1.4c.7-.4 1.3-1 1.9-1.5a4 4 0 0 1 2.9 1c.6.6 1.3 1.2 1.9 2a14 14 0 0 1 1.6 3 10 10 0 0 1-1.5 4.4 38.9 38.9 0 0 1-7.9 10c-1.5 1.3-2.8 2-3.8 2s-2.1.8-3.1 2.4c-1 1.7-1.5 2.8-1.5 3.5l-2.5.4a387.7 387.7 0 0 0-8.2 2c-2 0-3.5-.2-4.6-.4s-1.8-.8-1.8-2a9.3 9.3 0 0 1-2-3 92.2 92.2 0 0 1-5.1-12.1c-.7-2-1-3.5-1-4.3v-10a221.8 221.8 0 0 1 2-10.7 126.5 126.5 0 0 0 1.8-13.4V724l3.4-8.6a126 126 0 0 1 3.5-9.6v-6.5c0-1.8-.6-3-1.9-3.4l-3-2.1c-1-.7-1.5-1.6-1.5-2.7 0-.9.3-1.8 1-2.7.7-1 1.5-1.9 2.5-2.8l3-3.1c1-1 1.8-2 2.4-3 1-2.2 2-3.5 3-4s2.1-1.1 3.3-2c2-2.1 4.1-3.9 6.4-5.3a22 22 0 0 0 9.1-12.5c.6-2 2-3.5 4.1-4.6 2-.6 3.7-1.7 5.2-3.3 1.6-1.6 2.8-2.4 3.7-2.4Zm93.1 31.6 7.8.3c3.2.1 5.8.6 7.9 1.5 2.3 0 3.8.8 4.4 2.5l2.7 5.7a26.9 26.9 0 0 1 6.1 8.7 8 8 0 0 1 .7 3l-1.8 18.8c0 4-1 8.3-2.8 13.1a40 40 0 0 1-8 12.9c-1.2 1.1-2 2.4-2.6 3.7a301 301 0 0 0-3.4 8.5c-.6 1.4-1.6 2.9-2.8 4.3a152.8 152.8 0 0 1-6.7 8 36 36 0 0 1-4.1 4c-1.5 1.1-3 2-4.5 2.6a127 127 0 0 0-9.7 5 14 14 0 0 1-3.8 1.2c-1.3.2-2.7.3-4.2.3a14 14 0 0 1-6.4-1.5 17 17 0 0 1-5.1-3.9 21.1 21.1 0 0 1-3.5-5.5c-1-2-1.4-4.1-1.4-6.2v-14.2c0-.8-.3-1.6-1-2.3-.5-.7-.8-2.7-.8-6-.2-4 .9-9 3.2-14.7a141 141 0 0 1 17.4-31.9c3-4.3 5.5-6.9 7.1-7.9 1.7-1 3.1-2 4.3-3.3a78 78 0 0 1 3.3-3.2c1-1 2.1-1.8 3.3-2.5s2.6-1 4.4-1Zm1.1 24.2c-2.4 0-4.8 1-7.4 2.8-2.5 2-4.8 4.1-6.9 6.6a81 81 0 0 0-9.1 12.8l-2.3 8a62.7 62.7 0 0 0-2 9.1v4c.6.4 1.1 1.3 1.6 2.6s1 2.5 1.7 3.8c.6 1.2 1.4 2.4 2.4 3.3.9 1 2.2 1.5 3.8 1.5a117.6 117.6 0 0 0 14.7-7.4c2-1.2 3.5-2.5 4.2-3.8a256 256 0 0 0 6.4-14.6c-.3-1.1 0-2.2 1-3.4 1-1 1.5-2.1 1.5-3.1v-6a29.5 29.5 0 0 0-2.4-9.2 20 20 0 0 0-3-5c-1.3-1.3-2.6-2-4.2-2Z"/>
</svg>
