<?xml version="1.0" encoding="UTF-8"?><svg id="a" xmlns="http://www.w3.org/2000/svg" xmlns:xlink="http://www.w3.org/1999/xlink" viewBox="0 0 1536 1024"><defs><filter id="b" filterUnits="userSpaceOnUse"><feOffset dx="10" dy="10"/><feGaussianBlur result="c" stdDeviation="0"/><feFlood flood-color="#000" flood-opacity="1"/><feComposite in2="c" operator="in"/><feComposite in="SourceGraphic"/></filter></defs><g style="filter:url(#b);"><path d="m163.7,642.77v-207.93h30.9v207.93h-30.9Z" style="fill:#f45b69; stroke-width:0px;"/><path d="m222.77,642.77v-148.06h30.9v14.31h.61c3.23-4.67,7.12-8.51,11.66-11.54,4.54-3.02,10.35-4.53,17.42-4.53,3.83,0,7.67.63,11.51,1.9,3.83,1.27,7.27,3.36,10.3,6.28,3.03,2.92,5.45,6.67,7.27,11.24,1.82,4.58,2.73,10.18,2.73,16.79v113.6h-30.9v-102.5c0-5.45-1.32-9.73-3.94-12.85-2.63-3.11-6.36-4.67-11.21-4.67-5.86,0-9.9,1.75-12.12,5.26-2.22,3.5-3.33,8.57-3.33,15.19v99.58h-30.9Z" style="fill:#f45b69; stroke-width:0px;"/><path d="m396.66,536.18c-.2-5.06-1.87-8.86-5-11.39-3.13-2.53-6.72-3.8-10.75-3.8-4.85,0-8.59,1.51-11.21,4.53-2.63,3.02-3.94,6.48-3.94,10.37,0,2.73.71,5.4,2.12,8.03,1.41,2.63,5.05,5.01,10.91,7.15l18.18,7.01c11.51,4.28,19.44,10.12,23.78,17.52,4.34,7.4,6.51,15.48,6.51,24.24,0,6.23-1.16,12.02-3.48,17.38-2.32,5.36-5.51,10.08-9.54,14.16-4.04,4.09-8.89,7.3-14.54,9.64-5.66,2.34-11.81,3.5-18.48,3.5-12.53,0-23.02-3.8-31.51-11.39-4.24-3.7-7.68-8.32-10.3-13.87-2.63-5.55-4.04-12.02-4.24-19.42h29.08c.61,4.09,2.07,7.88,4.39,11.39,2.32,3.5,6.41,5.26,12.27,5.26,4.44,0,8.43-1.41,11.97-4.23,3.53-2.82,5.3-6.76,5.3-11.83,0-4.09-1.11-7.59-3.33-10.51-2.22-2.92-6.26-5.45-12.12-7.59l-14.84-5.26c-9.69-3.5-17.32-8.71-22.87-15.62-5.56-6.91-8.33-15.33-8.33-25.26,0-6.23,1.21-12.02,3.64-17.38,2.42-5.35,5.76-9.97,10-13.87,4.04-3.89,8.79-6.86,14.24-8.91s11.31-3.07,17.57-3.07,12.07,1.07,17.42,3.21c5.35,2.14,9.95,5.16,13.78,9.05,3.83,3.9,6.86,8.52,9.09,13.87,2.22,5.36,3.33,11.05,3.33,17.08h-29.08Z" style="fill:#f45b69; stroke-width:0px;"/><path d="m447.25,494.71v-44.97h30.9v44.97h19.09v23.36h-19.09v82.06c0,3.5.35,6.23,1.06,8.18.71,1.95,1.86,3.41,3.48,4.38,1.61.98,3.58,1.56,5.91,1.75,2.32.2,5.2.29,8.63.29v28.04h-12.72c-7.07,0-12.98-1.07-17.72-3.21-4.75-2.14-8.53-4.86-11.36-8.18-2.83-3.31-4.9-7.05-6.21-11.24-1.32-4.18-1.97-8.22-1.97-12.12v-89.95h-15.45v-23.36h15.45Z" style="fill:#f45b69; stroke-width:0px;"/><path d="m509.05,642.77v-148.06h30.9v15.77c6.26-5.45,12.42-9.73,18.48-12.85,6.06-3.11,13.53-4.67,22.42-4.67v31.54c-3.03-1.17-6.16-1.75-9.39-1.75s-6.72.54-10.45,1.61c-3.74,1.07-7.12,2.87-10.15,5.4-3.23,2.53-5.86,5.84-7.88,9.93-2.02,4.09-3.03,9.15-3.03,15.19v87.9h-30.9Z" style="fill:#f45b69; stroke-width:0px;"/><path d="m685.67,494.71v148.06h-30.9v-14.31h-.61c-3.23,4.67-7.12,8.52-11.66,11.54s-10.35,4.53-17.42,4.53c-3.84,0-7.68-.63-11.51-1.9-3.84-1.26-7.27-3.36-10.3-6.28-3.03-2.92-5.45-6.67-7.27-11.24-1.82-4.57-2.73-10.17-2.73-16.79v-113.6h30.9v102.5c0,5.45,1.31,9.74,3.94,12.85,2.62,3.12,6.36,4.67,11.21,4.67,5.86,0,9.89-1.75,12.12-5.26,2.22-3.5,3.33-8.56,3.33-15.19v-99.58h30.9Z" style="fill:#f45b69; stroke-width:0px;"/><path d="m711.11,642.77v-148.06h30.9v14.31h.61c3.23-4.67,7.12-8.51,11.66-11.54,4.54-3.02,10.35-4.53,17.42-4.53,6.66,0,12.22,1.56,16.66,4.67,4.44,3.12,8.08,6.53,10.91,10.22,3.83-4.09,8.08-7.59,12.72-10.51,4.64-2.92,11.1-4.38,19.39-4.38,3.83,0,7.77.63,11.81,1.9,4.04,1.27,7.67,3.36,10.91,6.28,3.23,2.92,5.86,6.67,7.88,11.24,2.02,4.58,3.03,10.18,3.03,16.79v113.6h-30.9v-102.5c0-5.45-1.32-9.73-3.94-12.85-2.63-3.11-6.36-4.67-11.21-4.67-5.86,0-9.9,1.75-12.12,5.26-2.22,3.5-3.33,8.57-3.33,15.19v99.58h-30.9v-102.5c0-5.45-1.32-9.73-3.94-12.85-2.63-3.11-6.36-4.67-11.21-4.67-5.86,0-9.9,1.75-12.12,5.26-2.22,3.5-3.33,8.57-3.33,15.19v99.58h-30.9Z" style="fill:#f45b69; stroke-width:0px;"/><path d="m979.82,579.99h-61.2v20.15c0,4.67,1.36,8.28,4.09,10.81,2.73,2.53,6.41,3.8,11.06,3.8,5.86,0,9.74-1.65,11.66-4.96,1.92-3.31,3.08-6.62,3.48-9.93h30.9c0,13.05-4.14,23.56-12.42,31.54-4.04,4.09-8.89,7.3-14.54,9.64-5.66,2.34-12.02,3.5-19.09,3.5-9.69,0-17.93-1.94-24.69-5.84-6.77-3.89-11.97-9.05-15.6-15.48-2.22-3.89-3.74-8.37-4.54-13.43-.81-5.06-1.21-10.61-1.21-16.65v-48.77c0-6.03.4-11.58,1.21-16.65.8-5.06,2.32-9.54,4.54-13.43,3.64-6.42,8.83-11.58,15.6-15.48,6.76-3.89,15-5.84,24.69-5.84,7.07,0,13.48,1.17,19.24,3.5,5.76,2.34,10.65,5.55,14.69,9.64,8.08,8.76,12.12,19.76,12.12,33v40.88Zm-61.2-23.36h30.29v-16.94c0-5.64-1.36-9.88-4.09-12.7-2.73-2.82-6.41-4.23-11.06-4.23s-8.33,1.41-11.06,4.23c-2.73,2.82-4.09,7.06-4.09,12.7v16.94Z" style="fill:#f45b69; stroke-width:0px;"/><path d="m1002.54,642.77v-148.06h30.9v14.31h.61c3.23-4.67,7.12-8.51,11.66-11.54,4.54-3.02,10.35-4.53,17.42-4.53,3.83,0,7.67.63,11.51,1.9,3.83,1.27,7.27,3.36,10.3,6.28,3.03,2.92,5.45,6.67,7.27,11.24,1.82,4.58,2.73,10.18,2.73,16.79v113.6h-30.9v-102.5c0-5.45-1.32-9.73-3.94-12.85-2.63-3.11-6.36-4.67-11.21-4.67-5.86,0-9.9,1.75-12.12,5.26-2.22,3.5-3.33,8.57-3.33,15.19v99.58h-30.9Z" style="fill:#f45b69; stroke-width:0px;"/><path d="m1120.39,494.71v-44.97h30.9v44.97h19.09v23.36h-19.09v82.06c0,3.5.35,6.23,1.06,8.18.71,1.95,1.86,3.41,3.48,4.38,1.61.98,3.58,1.56,5.91,1.75,2.32.2,5.2.29,8.63.29v28.04h-12.72c-7.07,0-12.98-1.07-17.72-3.21-4.75-2.14-8.53-4.86-11.36-8.18-2.83-3.31-4.9-7.05-6.21-11.24-1.32-4.18-1.97-8.22-1.97-12.12v-89.95h-15.45v-23.36h15.45Z" style="fill:#f45b69; stroke-width:0px;"/><path d="m1179.46,544.36c0-6.03.4-11.58,1.21-16.65.8-5.06,2.32-9.54,4.54-13.43,3.64-6.42,8.83-11.58,15.6-15.48,6.76-3.89,15-5.84,24.69-5.84s17.92,1.95,24.69,5.84c6.76,3.9,11.97,9.05,15.6,15.48,2.22,3.9,3.73,8.37,4.54,13.43.8,5.06,1.21,10.61,1.21,16.65v48.77c0,6.04-.41,11.59-1.21,16.65-.81,5.06-2.32,9.54-4.54,13.43-3.64,6.42-8.84,11.59-15.6,15.48-6.77,3.9-15,5.84-24.69,5.84s-17.93-1.94-24.69-5.84c-6.77-3.89-11.97-9.05-15.6-15.48-2.22-3.89-3.74-8.37-4.54-13.43-.81-5.06-1.21-10.61-1.21-16.65v-48.77Zm30.9,53.44c0,5.65,1.36,9.88,4.09,12.7,2.73,2.82,6.41,4.23,11.06,4.23s8.33-1.41,11.06-4.23c2.73-2.82,4.09-7.05,4.09-12.7v-58.11c0-5.64-1.36-9.88-4.09-12.7-2.73-2.82-6.41-4.23-11.06-4.23s-8.33,1.41-11.06,4.23c-2.73,2.82-4.09,7.06-4.09,12.7v58.11Z" style="fill:#f45b69; stroke-width:0px;"/><path d="m1350.32,536.18c-.2-5.06-1.87-8.86-5-11.39-3.13-2.53-6.72-3.8-10.75-3.8-4.85,0-8.59,1.51-11.21,4.53-2.63,3.02-3.94,6.48-3.94,10.37,0,2.73.71,5.4,2.12,8.03,1.41,2.63,5.05,5.01,10.91,7.15l18.18,7.01c11.51,4.28,19.44,10.12,23.78,17.52,4.34,7.4,6.51,15.48,6.51,24.24,0,6.23-1.16,12.02-3.48,17.38-2.32,5.36-5.51,10.08-9.54,14.16-4.04,4.09-8.89,7.3-14.54,9.64-5.66,2.34-11.81,3.5-18.48,3.5-12.52,0-23.02-3.8-31.51-11.39-4.24-3.7-7.68-8.32-10.3-13.87-2.63-5.55-4.04-12.02-4.24-19.42h29.08c.61,4.09,2.07,7.88,4.39,11.39,2.32,3.5,6.41,5.26,12.27,5.26,4.44,0,8.43-1.41,11.97-4.23,3.53-2.82,5.3-6.76,5.3-11.83,0-4.09-1.11-7.59-3.33-10.51-2.22-2.92-6.26-5.45-12.12-7.59l-14.84-5.26c-9.69-3.5-17.32-8.71-22.87-15.62-5.56-6.91-8.33-15.33-8.33-25.26,0-6.23,1.21-12.02,3.64-17.38,2.42-5.35,5.76-9.97,10-13.87,4.04-3.89,8.79-6.86,14.24-8.91,5.45-2.04,11.31-3.07,17.57-3.07s12.07,1.07,17.42,3.21c5.35,2.14,9.95,5.16,13.78,9.05,3.83,3.9,6.86,8.52,9.09,13.87,2.22,5.36,3.33,11.05,3.33,17.08h-29.08Z" style="fill:#f45b69; stroke-width:0px;"/><path d="m249.13,836.01v12.85c0,6.42-1.26,12.51-3.79,18.25-2.53,5.75-6.01,10.86-10.45,15.33-4.44,4.48-9.65,8.03-15.6,10.66-5.96,2.63-12.37,3.94-19.24,3.94-5.86,0-11.81-.78-17.87-2.34-6.06-1.56-11.51-4.28-16.36-8.18-4.85-3.89-8.84-8.91-11.97-15.04-3.13-6.13-4.7-13.97-4.7-23.51v-114.48c0-6.81,1.21-13.14,3.64-18.98,2.42-5.84,5.86-10.9,10.3-15.19,4.44-4.28,9.74-7.64,15.9-10.08,6.16-2.43,12.97-3.65,20.45-3.65,14.54,0,26.36,4.58,35.44,13.73,4.44,4.48,7.92,9.78,10.45,15.92,2.52,6.13,3.79,12.8,3.79,20v11.68h-30.9v-9.93c0-5.84-1.72-10.9-5.15-15.19-3.44-4.28-8.08-6.42-13.94-6.42-7.68,0-12.78,2.29-15.3,6.86-2.53,4.58-3.79,10.37-3.79,17.38v106.3c0,6.04,1.36,11.1,4.09,15.19,2.73,4.09,7.62,6.13,14.69,6.13,2.02,0,4.19-.34,6.51-1.02,2.32-.68,4.49-1.8,6.51-3.36,1.82-1.56,3.33-3.7,4.54-6.42,1.21-2.72,1.82-6.13,1.82-10.22v-10.22h30.9Z" style="fill:#3a7ca5; stroke-width:0px;"/><path d="m270.03,730.29c0-7.01,1.26-13.24,3.79-18.69,2.52-5.45,5.91-10.12,10.15-14.02,4.24-3.89,9.14-6.86,14.69-8.91,5.55-2.04,11.36-3.07,17.42-3.07s11.86,1.02,17.42,3.07c5.55,2.04,10.45,5.01,14.69,8.91,4.24,3.9,7.62,8.57,10.15,14.02,2.52,5.45,3.79,11.68,3.79,18.69v122.07c0,7.01-1.26,13.24-3.79,18.69-2.53,5.45-5.91,10.13-10.15,14.02-4.24,3.9-9.14,6.86-14.69,8.91-5.56,2.04-11.36,3.07-17.42,3.07s-11.87-1.02-17.42-3.07c-5.56-2.04-10.45-5.01-14.69-8.91-4.24-3.89-7.63-8.56-10.15-14.02-2.53-5.45-3.79-11.68-3.79-18.69v-122.07Zm30.9,122.07c0,4.28,1.41,7.84,4.24,10.66,2.83,2.82,6.46,4.23,10.91,4.23s8.08-1.41,10.91-4.23c2.83-2.82,4.24-6.37,4.24-10.66v-122.07c0-4.28-1.42-7.83-4.24-10.66-2.83-2.82-6.47-4.23-10.91-4.23s-8.08,1.41-10.91,4.23c-2.83,2.82-4.24,6.38-4.24,10.66v122.07Z" style="fill:#3a7ca5; stroke-width:0px;"/><path d="m446.65,895.29v-13.43c-2.02,2.14-3.94,4.14-5.76,5.99-1.82,1.85-3.84,3.46-6.06,4.82-2.23,1.36-4.75,2.44-7.57,3.21-2.83.78-6.16,1.17-10,1.17-12.93,0-21.92-4.67-26.96-14.02-1.82-3.31-3.13-7.4-3.94-12.27-.81-4.86-1.21-11.39-1.21-19.57v-56.36c0-10.71.3-18.59.91-23.65,1.21-9.73,5.95-17.03,14.24-21.9,3.83-2.53,9.59-3.8,17.27-3.8,6.06,0,11.46,1.31,16.21,3.94,4.74,2.63,8.83,6.38,12.27,11.24h.61v-73.3h30.9v207.93h-30.9Zm-30.6-48.19c0,6.04,1.21,10.91,3.64,14.6,2.42,3.7,6.26,5.55,11.51,5.55,4.64,0,8.38-1.7,11.21-5.11,2.83-3.4,4.24-7.83,4.24-13.29v-57.53c0-4.67-1.47-8.51-4.39-11.54-2.93-3.02-6.62-4.53-11.06-4.53-5.86,0-9.85,1.75-11.97,5.26s-3.18,7.59-3.18,12.27v54.32Z" style="fill:#3a7ca5; stroke-width:0px;"/><path d="m519.05,843.89l-11.81-156.53h38.78l-11.81,156.53h-15.15Zm-7.88,51.4v-29.79h30.9v29.79h-30.9Z" style="fill:#3a7ca5; stroke-width:0px;"/><path d="m579.64,895.29v-124.7h-15.15v-23.36h15.15v-20.15c0-7.2,1.11-13.29,3.33-18.25,2.22-4.96,5.25-9.1,9.09-12.41,3.64-3.31,7.82-5.64,12.57-7.01,4.74-1.36,9.64-2.04,14.69-2.04h14.24v28.04h-13.94c-6.06,0-9.09,3.41-9.09,10.22v21.61h23.02v23.36h-23.02v124.7h-30.9Z" style="fill:#3a7ca5; stroke-width:0px;"/><path d="m659,843.89l-11.81-156.53h38.78l-11.81,156.53h-15.15Zm-7.88,51.4v-29.79h30.9v29.79h-30.9Z" style="fill:#3a7ca5; stroke-width:0px;"/><path d="m748.37,852.65c0,4.67,1.36,8.28,4.09,10.81,2.73,2.53,6.41,3.8,11.06,3.8,5.86,0,9.74-1.65,11.66-4.96,1.92-3.31,3.08-6.62,3.48-9.93h30.9c0,13.05-4.14,23.56-12.42,31.54-4.04,4.09-8.89,7.3-14.54,9.64-5.66,2.34-12.02,3.5-19.09,3.5-9.69,0-17.93-1.94-24.69-5.84-6.77-3.89-11.97-9.05-15.6-15.48-2.22-3.89-3.74-8.37-4.54-13.43-.81-5.06-1.21-10.61-1.21-16.65v-48.77c0-6.03.4-11.58,1.21-16.65.8-5.06,2.32-9.54,4.54-13.43,3.64-6.42,8.83-11.58,15.6-15.48,6.76-3.89,15-5.84,24.69-5.84,7.07,0,13.48,1.17,19.24,3.5,5.76,2.34,10.65,5.55,14.69,9.64,8.08,8.76,12.12,20.15,12.12,34.17h-30.9c0-6.03-1.36-10.46-4.09-13.29-2.73-2.82-6.41-4.23-11.06-4.23s-8.33,1.41-11.06,4.23c-2.73,2.82-4.09,7.06-4.09,12.7v60.45Z" style="fill:#3a7ca5; stroke-width:0px;"/><path d="m1008.6,735.26l-26.36,80.31c-1.01,2.73-1.77,5.26-2.27,7.59-.51,2.34-.76,4.19-.76,5.55,0,2.53.5,4.58,1.51,6.13,1.01,1.56,2.83,2.34,5.45,2.34,4.85,0,9.69-1.94,14.54-5.84,4.85-3.89,9.29-8.95,13.33-15.19,4.04-6.23,7.27-13,9.69-20.3s3.64-14.46,3.64-21.46c0-10.12-2.22-19.47-6.66-28.04-4.44-8.56-10.4-15.96-17.87-22.19-7.47-6.23-16.06-11-25.75-14.31-9.69-3.31-19.99-4.96-30.9-4.96-12.72,0-24.59,2.39-35.6,7.15-11.01,4.77-20.75,11.24-29.23,19.42-8.48,8.18-15.05,17.52-19.69,28.04-4.65,10.51-6.97,21.42-6.97,32.71,0,11.88,2.37,23.02,7.12,33.44,4.74,10.42,11.36,19.42,19.84,27.01,8.48,7.79,18.28,13.92,29.39,18.4,11.1,4.48,23.33,6.72,36.66,6.72,7.27,0,14.54-.83,21.81-2.48,7.27-1.65,14.13-3.84,20.6-6.57,6.46-2.72,12.37-5.99,17.72-9.78,5.35-3.8,9.85-7.74,13.48-11.83h23.33c-4.85,7.79-10.86,14.8-18.03,21.03-7.17,6.23-15,11.49-23.48,15.77-8.69,4.28-17.93,7.55-27.72,9.78-9.8,2.24-19.84,3.36-30.14,3.36-15.75,0-30.55-2.67-44.38-8.03-13.84-5.35-25.9-12.8-36.2-22.34-10.3-9.34-18.43-20.54-24.39-33.58-5.96-13.04-8.94-27.16-8.94-42.34s3.03-28.28,9.09-41.03c6.06-12.75,14.34-23.9,24.84-33.44,10.3-9.54,22.37-17.03,36.2-22.49,13.83-5.45,28.63-8.18,44.38-8.18,14.13,0,27.57,2.14,40.29,6.42,12.72,4.28,23.93,10.32,33.63,18.11,9.69,7.79,17.27,16.99,22.72,27.6,5.45,10.61,8.18,22.34,8.18,35.19s-2.38,23.41-7.12,33.44c-4.75,10.03-10.66,18.54-17.72,25.55-7.07,7.2-14.59,12.8-22.57,16.79-7.98,3.99-15.2,5.99-21.66,5.99-6.87,0-12.32-1.51-16.36-4.53-4.04-3.02-6.47-7.64-7.27-13.87h-.61c-2.22,2.34-4.5,4.58-6.82,6.72-2.32,2.14-4.9,4.09-7.73,5.84-3.03,1.75-6.36,3.17-10,4.23-3.64,1.07-7.78,1.61-12.42,1.61-6.47,0-12.37-1.17-17.72-3.5-5.35-2.34-9.95-5.55-13.78-9.64-7.88-8.56-11.81-18.98-11.81-31.25,0-9.54,1.71-19.08,5.15-28.62,3.43-9.54,8.28-18.11,14.54-25.7,6.06-7.59,13.38-13.77,21.96-18.54,8.58-4.77,18.33-7.15,29.23-7.15,7.07,0,13.88,1.75,20.45,5.26,6.56,3.5,11.36,9.35,14.39,17.52h.61l6.06-17.81h19.09Zm-38.17,40.3c0-6.81-1.92-12.56-5.76-17.23-3.84-4.67-9.39-7.01-16.66-7.01-6.67,0-12.83,1.8-18.48,5.4-5.66,3.6-10.5,8.23-14.54,13.87-4.24,5.65-7.57,11.83-10,18.54s-3.64,13.1-3.64,19.13c0,8.18,2.27,14.46,6.82,18.84,4.54,4.38,10.65,6.57,18.33,6.57,5.65,0,11.16-1.94,16.51-5.84,5.35-3.89,10.04-8.76,14.09-14.6,4.04-5.64,7.27-11.87,9.69-18.69,2.42-6.81,3.64-13.14,3.64-18.98Z" style="fill:#3a7ca5; stroke-width:0px;"/><path d="m1131.59,895.29v-13.43c-2.02,2.14-3.94,4.14-5.76,5.99-1.82,1.85-3.84,3.46-6.06,4.82-2.22,1.36-4.75,2.44-7.57,3.21-2.83.78-6.16,1.17-10,1.17-12.93,0-21.92-4.67-26.96-14.02-1.82-3.31-3.13-7.4-3.94-12.27-.81-4.86-1.21-11.39-1.21-19.57v-56.36c0-10.71.3-18.59.91-23.65,1.21-9.73,5.95-17.03,14.24-21.9,3.83-2.53,9.59-3.8,17.27-3.8,6.06,0,11.46,1.31,16.21,3.94,4.74,2.63,8.83,6.38,12.27,11.24h.61v-73.3h30.9v207.93h-30.9Zm-30.6-48.19c0,6.04,1.21,10.91,3.64,14.6,2.42,3.7,6.26,5.55,11.51,5.55,4.64,0,8.38-1.7,11.21-5.11,2.83-3.4,4.24-7.83,4.24-13.29v-57.53c0-4.67-1.47-8.51-4.39-11.54-2.93-3.02-6.62-4.53-11.06-4.53-5.86,0-9.85,1.75-11.97,5.26s-3.18,7.59-3.18,12.27v54.32Z" style="fill:#3a7ca5; stroke-width:0px;"/><path d="m1185.21,796.87c0-6.03.4-11.58,1.21-16.65.8-5.06,2.32-9.54,4.54-13.43,3.64-6.42,8.83-11.58,15.6-15.48,6.76-3.89,15-5.84,24.69-5.84s17.92,1.95,24.69,5.84c6.76,3.9,11.97,9.05,15.6,15.48,2.22,3.9,3.73,8.37,4.54,13.43.8,5.06,1.21,10.61,1.21,16.65v48.77c0,6.04-.41,11.59-1.21,16.65-.81,5.06-2.32,9.54-4.54,13.43-3.64,6.42-8.84,11.59-15.6,15.48-6.77,3.9-15,5.84-24.69,5.84s-17.93-1.94-24.69-5.84c-6.77-3.89-11.97-9.05-15.6-15.48-2.22-3.89-3.74-8.37-4.54-13.43-.81-5.06-1.21-10.61-1.21-16.65v-48.77Zm30.9,53.44c0,5.65,1.36,9.88,4.09,12.7,2.73,2.82,6.41,4.23,11.06,4.23s8.33-1.41,11.06-4.23c2.73-2.82,4.09-7.05,4.09-12.7v-58.11c0-5.64-1.36-9.88-4.09-12.7-2.73-2.82-6.41-4.23-11.06-4.23s-8.33,1.41-11.06,4.23c-2.73,2.82-4.09,7.06-4.09,12.7v58.11Z" style="fill:#3a7ca5; stroke-width:0px;"/><path d="m1336.08,921.57v-24.53c-6.66-.78-12.78-2.53-18.33-5.26-5.56-2.72-10.35-6.23-14.39-10.51-8.48-8.76-12.72-19.76-12.72-33v-11.68h30.9v10.51c0,4.48,1.11,8.67,3.33,12.56,2.22,3.9,5.95,6.42,11.21,7.59v-67.17l-10.3-4.09c-13.33-5.26-22.27-12.22-26.81-20.88-4.54-8.66-6.82-19.52-6.82-32.56,0-14.79,3.64-27.5,10.91-38.11,7.27-10.61,18.28-16.89,33.02-18.84v-21.9h15.45v21.9c6.86.78,13.07,2.58,18.63,5.4,5.55,2.82,10.35,6.48,14.39,10.95,4.04,4.48,7.07,9.35,9.09,14.6,2.02,5.26,3.03,10.61,3.03,16.06v14.6h-30.9v-6.72c0-6.23-1.06-11.58-3.18-16.06-2.12-4.48-5.81-7.49-11.06-9.05v58.7l12.72,4.96c6.86,2.53,12.42,5.5,16.66,8.91,4.24,3.41,7.57,7.35,10,11.83,2.22,4.67,3.73,9.98,4.54,15.92.8,5.94,1.21,12.7,1.21,20.3,0,8.37-.76,16.11-2.27,23.22-1.51,7.11-3.99,13.29-7.42,18.54-3.64,5.45-8.33,9.83-14.09,13.14-5.76,3.31-12.88,5.35-21.36,6.13v24.53h-15.45Zm0-206.17c-5.25,1.95-8.74,5.36-10.45,10.22-1.72,4.87-2.57,10.42-2.57,16.65,0,7.01.71,12.32,2.12,15.92,1.41,3.6,5.05,6.77,10.91,9.49v-52.27Zm15.45,151.86c6.46-1.56,10.45-4.91,11.97-10.07,1.51-5.16,2.27-12.12,2.27-20.88,0-4.86-.15-8.95-.45-12.27-.3-3.31-.96-6.03-1.97-8.18-2.22-4.09-6.16-7.2-11.81-9.34v60.74Z" style="fill:#3a7ca5; stroke-width:0px;"/></g></svg>