<?xml version="1.0" encoding="UTF-8"?>
<svg id="logos" xmlns="http://www.w3.org/2000/svg" viewBox="0 0 1536 1024">
  <defs>
    <style>
      .cls-1 {
        fill: #a67c52;
      }

      .cls-2 {
        fill: #3a7ca5;
      }

      .cls-3 {
        fill: #f2e863;
      }
    </style>
  </defs>
  <g>
    <g>
      <path d="M466.75,855.69h-2.09c-12.2-2.5-18.3-8.28-18.3-17.34v-5.05c0-11.56,5.78-26.81,17.34-45.75,3.89-4.42,9.29-7.12,16.21-8.11,13.54,2.67,20.31,9.44,20.31,20.31,0,2.67-4.39,13.51-13.16,32.51,0,13.19-6.77,21-20.31,23.44ZM542.14,855.69h-2.09c-12.2-2.5-18.3-8.28-18.3-17.34v-5.05c0-11.56,5.78-26.81,17.34-45.75,3.89-4.42,9.29-7.12,16.21-8.11,13.54,2.67,20.31,9.44,20.31,20.31,0,2.67-4.39,13.51-13.16,32.51,0,13.19-6.77,21-20.31,23.44Z"/>
      <path d="M653.43,788.58c2.21-.06,4.33-.09,6.36-.09,38.75,0,60.22,12.78,64.4,38.35.81,5.35,1.22,10.34,1.22,14.99,0,18.88-7.12,32.1-21.35,39.65-15.28,8.08-28.85,12.11-40.7,12.11-2.03,0-3.98-.12-5.84-.35,2.03,21.91,3.05,33.76,3.05,35.56-2.5,12.9-8.95,19.35-19.35,19.35h-2c-12.72,0-20.19-12.2-22.4-36.6-1.98-18.3-2.96-32.19-2.96-41.66,0-9.94.32-21.12.96-33.55l-5.05,1.05h-10.2c-7.09,0-12.17-5.78-15.25-17.34v-3.05c0-14.06,16.27-22.86,48.8-26.41,3.54-.7,10.31-1.36,20.31-2ZM655.52,854.47c13.07-4.36,19.61-8.54,19.61-12.55v-.26c-.29-4.12-6.51-6.77-18.65-7.93l-.96,20.74Z"/>
      <path d="M805.33,791.63c33.12,0,54.47,12.2,64.05,36.6,1.34,3.89,2,8.28,2,13.16,0,12.78-10.69,25.8-32.07,39.04,28.35,9.3,42.53,18.91,42.53,28.85,0,.81-.09,1.63-.26,2.44-2.56,10.87-10.6,17.31-24.14,19.35-23.41-3.43-41.28-13.74-53.6-30.94,0,7.73.26,13.57.78,17.52.52,3.95.78,7.73.78,11.33-.41,10.28-6.51,15.66-18.3,16.12-.7.06-1.39.09-2.09.09-9.94,0-17.05-4.76-21.35-14.29-2.73-17.37-4.44-34.34-5.14-50.9.7-17.14,1.89-30.39,3.57-39.74l-3.57.17c-6.1,0-11.69-.94-16.78-2.83-5.08-1.89-7.63-7.74-7.63-17.56,0-16.27,16.94-25.74,50.81-28.41h20.39ZM805.33,854.99c11.04-3.66,16.56-7.2,16.56-10.63v-.17c-.23-3.49-5.49-5.72-15.77-6.71l-.78,17.52Z"/>
      <path d="M1011.7,816.99c2.09,4.13,3.14,7.87,3.14,11.24,0,5.05-2.35,9.3-7.06,12.72-4.82,3.49-9.56,5.23-14.21,5.23-2.91,0-5.78-.7-8.63-2.09-4.36-2.15-9.21-3.22-14.55-3.22-3.66,0-7.55.5-11.68,1.48-10.17,2.5-15.25,5.58-15.25,9.24,0,1.22,1.8,1.83,5.4,1.83,1.97,0,4.47-.2,7.5-.61,1.8-.17,3.49-.26,5.05-.26,6.1,0,10.86,1.54,14.29,4.62,3.49,3.2,5.23,7.9,5.23,14.12,0,1.34-.09,2.76-.26,4.27-.93,8.37-6.83,14.5-17.69,18.39-17.78,4.07-26.67,7.9-26.67,11.5.23,1.34.9,2,2,2h2.09c18.3,0,38.64-7.44,61-22.31,1.8-.35,3.51-.52,5.14-.52,9.76,0,15.66,6.65,17.69,19.96.23,1.57.35,3.08.35,4.53,0,13.31-9.88,23.3-29.63,29.98-18.53,6.28-36.4,9.41-53.6,9.41-3.14,0-6.25-.12-9.33-.35-20.1-1.34-33.58-11.5-40.44-30.5-.7-3.66-1.05-7.73-1.05-12.2,0-10.11,4.42-19.93,13.25-29.46-4.76-7.79-7.15-16.27-7.15-25.45,0-18.71,9.88-32.42,29.63-41.13,16.38-7.2,31.49-10.81,45.32-10.81,2.79,0,5.55.15,8.28.44,15.92,1.8,26.52,7.79,31.81,17.95Z"/>
      <path d="M1082.29,799.74c37.18,0,65.65,15.92,85.41,47.76,4.07,8.66,6.1,17.14,6.1,25.45v7.06c0,37.82-37.94,60.54-113.82,68.15h-1.05c-14.93,0-22.4-7.12-22.4-21.35,0-5.46,3.75-11.56,11.24-18.3-2.73-20.97-4.1-36.89-4.1-47.76v-17.25c0-21.79,8.13-35.7,24.4-41.75,5.11-1.34,9.85-2,14.21-2ZM1085.34,840.43l-2,3.05v9.15c.64,28.35,2.67,44.94,6.1,49.76h.96c29.17-6.28,43.75-14.76,43.75-25.45,0-17.37-14.58-29.54-43.75-36.52h-5.05Z"/>
      <path d="M1247.09,803.83h7.06c19.17,0,38.17,25.07,57,75.21,6.1,19.81,9.15,34.72,9.15,44.71v1.05c0,10.34-6.8,16.44-20.39,18.3-9.06,0-15.83-6.45-20.31-19.35l-2-1.05h-16.3c-31.2,1.63-46.8,4.01-46.8,7.15-1.63,8.54-6.68,13.62-15.16,15.25h-8.19c-8.48-1.69-13.57-6.77-15.25-15.25v-8.11c0-6.97,11.18-33.75,33.55-80.35,13.19-25.04,25.74-37.56,37.65-37.56ZM1226.35,885.23c11.33-1.57,23.47-2.35,36.43-2.35,2.38,0,4.82.03,7.32.09-3.66-12.38-10.95-24.4-21.88-36.08-8.02,11.27-15.31,24.05-21.87,38.35Z"/>
      <path d="M1340.6,779.43h2c12.2,2.5,18.3,8.25,18.3,17.26v5.05c0,11.62-5.75,26.87-17.26,45.75-3.89,4.47-9.32,7.2-16.3,8.19-13.54-2.73-20.31-9.53-20.31-20.39,0-2.61,4.42-13.45,13.25-32.51,0-13.13,6.77-20.92,20.31-23.36ZM1415.99,779.43h2c12.2,2.5,18.3,8.25,18.3,17.26v5.05c0,11.62-5.75,26.87-17.26,45.75-3.89,4.47-9.33,7.2-16.3,8.19-13.54-2.73-20.31-9.53-20.31-20.39,0-2.61,4.41-13.45,13.25-32.51,0-13.13,6.77-20.92,20.31-23.36Z"/>
    </g>
    <g>
      <path class="cls-1" d="M463.75,852.69h-2.09c-12.2-2.5-18.3-8.28-18.3-17.34v-5.05c0-11.56,5.78-26.81,17.34-45.75,3.89-4.42,9.29-7.12,16.21-8.11,13.54,2.67,20.31,9.44,20.31,20.31,0,2.67-4.39,13.51-13.16,32.51,0,13.19-6.77,21-20.31,23.44ZM539.14,852.69h-2.09c-12.2-2.5-18.3-8.28-18.3-17.34v-5.05c0-11.56,5.78-26.81,17.34-45.75,3.89-4.42,9.29-7.12,16.21-8.11,13.54,2.67,20.31,9.44,20.31,20.31,0,2.67-4.39,13.51-13.16,32.51,0,13.19-6.77,21-20.31,23.44Z"/>
      <path class="cls-1" d="M650.43,785.58c2.21-.06,4.33-.09,6.36-.09,38.75,0,60.22,12.78,64.4,38.35.81,5.35,1.22,10.34,1.22,14.99,0,18.88-7.12,32.1-21.35,39.65-15.28,8.08-28.85,12.11-40.7,12.11-2.03,0-3.98-.12-5.84-.35,2.03,21.91,3.05,33.76,3.05,35.56-2.5,12.9-8.95,19.35-19.35,19.35h-2c-12.72,0-20.19-12.2-22.4-36.6-1.98-18.3-2.96-32.19-2.96-41.66,0-9.94.32-21.12.96-33.55l-5.05,1.05h-10.2c-7.09,0-12.17-5.78-15.25-17.34v-3.05c0-14.06,16.27-22.86,48.8-26.41,3.54-.7,10.31-1.36,20.31-2ZM652.52,851.47c13.07-4.36,19.61-8.54,19.61-12.55v-.26c-.29-4.12-6.51-6.77-18.65-7.93l-.96,20.74Z"/>
      <path class="cls-1" d="M802.33,788.63c33.12,0,54.47,12.2,64.05,36.6,1.34,3.89,2,8.28,2,13.16,0,12.78-10.69,25.8-32.07,39.04,28.35,9.3,42.53,18.91,42.53,28.85,0,.81-.09,1.63-.26,2.44-2.56,10.87-10.6,17.31-24.14,19.35-23.41-3.43-41.28-13.74-53.6-30.94,0,7.73.26,13.57.78,17.52.52,3.95.78,7.73.78,11.33-.41,10.28-6.51,15.66-18.3,16.12-.7.06-1.39.09-2.09.09-9.94,0-17.05-4.76-21.35-14.29-2.73-17.37-4.44-34.34-5.14-50.9.7-17.14,1.89-30.39,3.57-39.74l-3.57.17c-6.1,0-11.69-.94-16.78-2.83-5.08-1.89-7.63-7.74-7.63-17.56,0-16.27,16.94-25.74,50.81-28.41h20.39ZM802.33,851.99c11.04-3.66,16.56-7.2,16.56-10.63v-.17c-.23-3.49-5.49-5.72-15.77-6.71l-.78,17.52Z"/>
      <path class="cls-1" d="M1008.7,813.99c2.09,4.13,3.14,7.87,3.14,11.24,0,5.05-2.35,9.3-7.06,12.72-4.82,3.49-9.56,5.23-14.21,5.23-2.91,0-5.78-.7-8.63-2.09-4.36-2.15-9.21-3.22-14.55-3.22-3.66,0-7.55.5-11.68,1.48-10.17,2.5-15.25,5.58-15.25,9.24,0,1.22,1.8,1.83,5.4,1.83,1.97,0,4.47-.2,7.5-.61,1.8-.17,3.49-.26,5.05-.26,6.1,0,10.86,1.54,14.29,4.62,3.49,3.2,5.23,7.9,5.23,14.12,0,1.34-.09,2.76-.26,4.27-.93,8.37-6.83,14.5-17.69,18.39-17.78,4.07-26.67,7.9-26.67,11.5.23,1.34.9,2,2,2h2.09c18.3,0,38.64-7.44,61-22.31,1.8-.35,3.51-.52,5.14-.52,9.76,0,15.66,6.65,17.69,19.96.23,1.57.35,3.08.35,4.53,0,13.31-9.88,23.3-29.63,29.98-18.53,6.28-36.4,9.41-53.6,9.41-3.14,0-6.25-.12-9.33-.35-20.1-1.34-33.58-11.5-40.44-30.5-.7-3.66-1.05-7.73-1.05-12.2,0-10.11,4.42-19.93,13.25-29.46-4.76-7.79-7.15-16.27-7.15-25.45,0-18.71,9.88-32.42,29.63-41.13,16.38-7.2,31.49-10.81,45.32-10.81,2.79,0,5.55.15,8.28.44,15.92,1.8,26.52,7.79,31.81,17.95Z"/>
      <path class="cls-1" d="M1079.29,796.74c37.18,0,65.65,15.92,85.41,47.76,4.07,8.66,6.1,17.14,6.1,25.45v7.06c0,37.82-37.94,60.54-113.82,68.15h-1.05c-14.93,0-22.4-7.12-22.4-21.35,0-5.46,3.75-11.56,11.24-18.3-2.73-20.97-4.1-36.89-4.1-47.76v-17.25c0-21.79,8.13-35.7,24.4-41.75,5.11-1.34,9.85-2,14.21-2ZM1082.34,837.43l-2,3.05v9.15c.64,28.35,2.67,44.94,6.1,49.76h.96c29.17-6.28,43.75-14.76,43.75-25.45,0-17.37-14.58-29.54-43.75-36.52h-5.05Z"/>
      <path class="cls-1" d="M1244.09,800.83h7.06c19.17,0,38.17,25.07,57,75.21,6.1,19.81,9.15,34.72,9.15,44.71v1.05c0,10.34-6.8,16.44-20.39,18.3-9.06,0-15.83-6.45-20.31-19.35l-2-1.05h-16.3c-31.2,1.63-46.8,4.01-46.8,7.15-1.63,8.54-6.68,13.62-15.16,15.25h-8.19c-8.48-1.69-13.57-6.77-15.25-15.25v-8.11c0-6.97,11.18-33.75,33.55-80.35,13.19-25.04,25.74-37.56,37.65-37.56ZM1223.35,882.23c11.33-1.57,23.47-2.35,36.43-2.35,2.38,0,4.82.03,7.32.09-3.66-12.38-10.95-24.4-21.88-36.08-8.02,11.27-15.31,24.05-21.87,38.35Z"/>
      <path class="cls-1" d="M1337.6,776.43h2c12.2,2.5,18.3,8.25,18.3,17.26v5.05c0,11.62-5.75,26.87-17.26,45.75-3.89,4.47-9.32,7.2-16.3,8.19-13.54-2.73-20.31-9.53-20.31-20.39,0-2.61,4.42-13.45,13.25-32.51,0-13.13,6.77-20.92,20.31-23.36ZM1412.99,776.43h2c12.2,2.5,18.3,8.25,18.3,17.26v5.05c0,11.62-5.75,26.87-17.26,45.75-3.89,4.47-9.33,7.2-16.3,8.19-13.54-2.73-20.31-9.53-20.31-20.39,0-2.61,4.41-13.45,13.25-32.51,0-13.13,6.77-20.92,20.31-23.36Z"/>
    </g>
  </g>
  <g>
    <g>
      <path d="M457.75,845.69h-2.09c-12.2-2.5-18.3-8.28-18.3-17.34v-5.05c0-11.56,5.78-26.81,17.34-45.75,3.89-4.42,9.29-7.12,16.21-8.11,13.54,2.67,20.31,9.44,20.31,20.31,0,2.67-4.39,13.51-13.16,32.51,0,13.19-6.77,21-20.31,23.44ZM533.14,845.69h-2.09c-12.2-2.5-18.3-8.28-18.3-17.34v-5.05c0-11.56,5.78-26.81,17.34-45.75,3.89-4.42,9.29-7.12,16.21-8.11,13.54,2.67,20.31,9.44,20.31,20.31,0,2.67-4.39,13.51-13.16,32.51,0,13.19-6.77,21-20.31,23.44Z"/>
      <path d="M644.43,778.58c2.21-.06,4.33-.09,6.36-.09,38.75,0,60.22,12.78,64.4,38.35.81,5.35,1.22,10.34,1.22,14.99,0,18.88-7.12,32.1-21.35,39.65-15.28,8.08-28.85,12.11-40.7,12.11-2.03,0-3.98-.12-5.84-.35,2.03,21.91,3.05,33.76,3.05,35.56-2.5,12.9-8.95,19.35-19.35,19.35h-2c-12.72,0-20.19-12.2-22.4-36.6-1.98-18.3-2.96-32.19-2.96-41.66,0-9.94.32-21.12.96-33.55l-5.05,1.05h-10.2c-7.09,0-12.17-5.78-15.25-17.34v-3.05c0-14.06,16.27-22.86,48.8-26.41,3.54-.7,10.31-1.36,20.31-2ZM646.52,844.47c13.07-4.36,19.61-8.54,19.61-12.55v-.26c-.29-4.12-6.51-6.77-18.65-7.93l-.96,20.74Z"/>
      <path d="M796.33,781.63c33.12,0,54.47,12.2,64.05,36.6,1.34,3.89,2,8.28,2,13.16,0,12.78-10.69,25.8-32.07,39.04,28.35,9.3,42.53,18.91,42.53,28.85,0,.81-.09,1.63-.26,2.44-2.56,10.87-10.6,17.31-24.14,19.35-23.41-3.43-41.28-13.74-53.6-30.94,0,7.73.26,13.57.78,17.52.52,3.95.78,7.73.78,11.33-.41,10.28-6.51,15.66-18.3,16.12-.7.06-1.39.09-2.09.09-9.94,0-17.05-4.76-21.35-14.29-2.73-17.37-4.44-34.34-5.14-50.9.7-17.14,1.89-30.39,3.57-39.74l-3.57.17c-6.1,0-11.69-.94-16.78-2.83-5.08-1.89-7.63-7.74-7.63-17.56,0-16.27,16.94-25.74,50.81-28.41h20.39ZM796.33,844.99c11.04-3.66,16.56-7.2,16.56-10.63v-.17c-.23-3.49-5.49-5.72-15.77-6.71l-.78,17.52Z"/>
      <path d="M1002.7,806.99c2.09,4.13,3.14,7.87,3.14,11.24,0,5.05-2.35,9.3-7.06,12.72-4.82,3.49-9.56,5.23-14.21,5.23-2.91,0-5.78-.7-8.63-2.09-4.36-2.15-9.21-3.22-14.55-3.22-3.66,0-7.55.5-11.68,1.48-10.17,2.5-15.25,5.58-15.25,9.24,0,1.22,1.8,1.83,5.4,1.83,1.97,0,4.47-.2,7.5-.61,1.8-.17,3.49-.26,5.05-.26,6.1,0,10.86,1.54,14.29,4.62,3.49,3.2,5.23,7.9,5.23,14.12,0,1.34-.09,2.76-.26,4.27-.93,8.37-6.83,14.5-17.69,18.39-17.78,4.07-26.67,7.9-26.67,11.5.23,1.34.9,2,2,2h2.09c18.3,0,38.64-7.44,61-22.31,1.8-.35,3.51-.52,5.14-.52,9.76,0,15.66,6.65,17.69,19.96.23,1.57.35,3.08.35,4.53,0,13.31-9.88,23.3-29.63,29.98-18.53,6.28-36.4,9.41-53.6,9.41-3.14,0-6.25-.12-9.33-.35-20.1-1.34-33.58-11.5-40.44-30.5-.7-3.66-1.05-7.73-1.05-12.2,0-10.11,4.42-19.93,13.25-29.46-4.76-7.79-7.15-16.27-7.15-25.45,0-18.71,9.88-32.42,29.63-41.13,16.38-7.2,31.49-10.81,45.32-10.81,2.79,0,5.55.15,8.28.44,15.92,1.8,26.52,7.79,31.81,17.95Z"/>
      <path d="M1073.29,789.74c37.18,0,65.65,15.92,85.41,47.76,4.07,8.66,6.1,17.14,6.1,25.45v7.06c0,37.82-37.94,60.54-113.82,68.15h-1.05c-14.93,0-22.4-7.12-22.4-21.35,0-5.46,3.75-11.56,11.24-18.3-2.73-20.97-4.1-36.89-4.1-47.76v-17.25c0-21.79,8.13-35.7,24.4-41.75,5.11-1.34,9.85-2,14.21-2ZM1076.34,830.43l-2,3.05v9.15c.64,28.35,2.67,44.94,6.1,49.76h.96c29.17-6.28,43.75-14.76,43.75-25.45,0-17.37-14.58-29.54-43.75-36.52h-5.05Z"/>
      <path d="M1238.09,793.83h7.06c19.17,0,38.17,25.07,57,75.21,6.1,19.81,9.15,34.72,9.15,44.71v1.05c0,10.34-6.8,16.44-20.39,18.3-9.06,0-15.83-6.45-20.31-19.35l-2-1.05h-16.3c-31.2,1.63-46.8,4.01-46.8,7.15-1.63,8.54-6.68,13.62-15.16,15.25h-8.19c-8.48-1.69-13.57-6.77-15.25-15.25v-8.11c0-6.97,11.18-33.75,33.55-80.35,13.19-25.04,25.74-37.56,37.65-37.56ZM1217.35,875.23c11.33-1.57,23.47-2.35,36.43-2.35,2.38,0,4.82.03,7.32.09-3.66-12.38-10.95-24.4-21.88-36.08-8.02,11.27-15.31,24.05-21.87,38.35Z"/>
      <path d="M1331.6,769.43h2c12.2,2.5,18.3,8.25,18.3,17.26v5.05c0,11.62-5.75,26.87-17.26,45.75-3.89,4.47-9.32,7.2-16.3,8.19-13.54-2.73-20.31-9.53-20.31-20.39,0-2.61,4.42-13.45,13.25-32.51,0-13.13,6.77-20.92,20.31-23.36ZM1406.99,769.43h2c12.2,2.5,18.3,8.25,18.3,17.26v5.05c0,11.62-5.75,26.87-17.26,45.75-3.89,4.47-9.33,7.2-16.3,8.19-13.54-2.73-20.31-9.53-20.31-20.39,0-2.61,4.41-13.45,13.25-32.51,0-13.13,6.77-20.92,20.31-23.36Z"/>
    </g>
    <g>
      <path class="cls-3" d="M454.75,842.69h-2.09c-12.2-2.5-18.3-8.28-18.3-17.34v-5.05c0-11.56,5.78-26.81,17.34-45.75,3.89-4.42,9.29-7.12,16.21-8.11,13.54,2.67,20.31,9.44,20.31,20.31,0,2.67-4.39,13.51-13.16,32.51,0,13.19-6.77,21-20.31,23.44ZM530.14,842.69h-2.09c-12.2-2.5-18.3-8.28-18.3-17.34v-5.05c0-11.56,5.78-26.81,17.34-45.75,3.89-4.42,9.29-7.12,16.21-8.11,13.54,2.67,20.31,9.44,20.31,20.31,0,2.67-4.39,13.51-13.16,32.51,0,13.19-6.77,21-20.31,23.44Z"/>
      <path class="cls-3" d="M641.43,775.58c2.21-.06,4.33-.09,6.36-.09,38.75,0,60.22,12.78,64.4,38.35.81,5.35,1.22,10.34,1.22,14.99,0,18.88-7.12,32.1-21.35,39.65-15.28,8.08-28.85,12.11-40.7,12.11-2.03,0-3.98-.12-5.84-.35,2.03,21.91,3.05,33.76,3.05,35.56-2.5,12.9-8.95,19.35-19.35,19.35h-2c-12.72,0-20.19-12.2-22.4-36.6-1.98-18.3-2.96-32.19-2.96-41.66,0-9.94.32-21.12.96-33.55l-5.05,1.05h-10.2c-7.09,0-12.17-5.78-15.25-17.34v-3.05c0-14.06,16.27-22.86,48.8-26.41,3.54-.7,10.31-1.36,20.31-2ZM643.52,841.47c13.07-4.36,19.61-8.54,19.61-12.55v-.26c-.29-4.12-6.51-6.77-18.65-7.93l-.96,20.74Z"/>
      <path class="cls-3" d="M793.33,778.63c33.12,0,54.47,12.2,64.05,36.6,1.34,3.89,2,8.28,2,13.16,0,12.78-10.69,25.8-32.07,39.04,28.35,9.3,42.53,18.91,42.53,28.85,0,.81-.09,1.63-.26,2.44-2.56,10.87-10.6,17.31-24.14,19.35-23.41-3.43-41.28-13.74-53.6-30.94,0,7.73.26,13.57.78,17.52.52,3.95.78,7.73.78,11.33-.41,10.28-6.51,15.66-18.3,16.12-.7.06-1.39.09-2.09.09-9.94,0-17.05-4.76-21.35-14.29-2.73-17.37-4.44-34.34-5.14-50.9.7-17.14,1.89-30.39,3.57-39.74l-3.57.17c-6.1,0-11.69-.94-16.78-2.83-5.08-1.89-7.63-7.74-7.63-17.56,0-16.27,16.94-25.74,50.81-28.41h20.39ZM793.33,841.99c11.04-3.66,16.56-7.2,16.56-10.63v-.17c-.23-3.49-5.49-5.72-15.77-6.71l-.78,17.52Z"/>
      <path class="cls-3" d="M999.7,803.99c2.09,4.13,3.14,7.87,3.14,11.24,0,5.05-2.35,9.3-7.06,12.72-4.82,3.49-9.56,5.23-14.21,5.23-2.91,0-5.78-.7-8.63-2.09-4.36-2.15-9.21-3.22-14.55-3.22-3.66,0-7.55.5-11.68,1.48-10.17,2.5-15.25,5.58-15.25,9.24,0,1.22,1.8,1.83,5.4,1.83,1.97,0,4.47-.2,7.5-.61,1.8-.17,3.49-.26,5.05-.26,6.1,0,10.86,1.54,14.29,4.62,3.49,3.2,5.23,7.9,5.23,14.12,0,1.34-.09,2.76-.26,4.27-.93,8.37-6.83,14.5-17.69,18.39-17.78,4.07-26.67,7.9-26.67,11.5.23,1.34.9,2,2,2h2.09c18.3,0,38.64-7.44,61-22.31,1.8-.35,3.51-.52,5.14-.52,9.76,0,15.66,6.65,17.69,19.96.23,1.57.35,3.08.35,4.53,0,13.31-9.88,23.3-29.63,29.98-18.53,6.28-36.4,9.41-53.6,9.41-3.14,0-6.25-.12-9.33-.35-20.1-1.34-33.58-11.5-40.44-30.5-.7-3.66-1.05-7.73-1.05-12.2,0-10.11,4.42-19.93,13.25-29.46-4.76-7.79-7.15-16.27-7.15-25.45,0-18.71,9.88-32.42,29.63-41.13,16.38-7.2,31.49-10.81,45.32-10.81,2.79,0,5.55.15,8.28.44,15.92,1.8,26.52,7.79,31.81,17.95Z"/>
      <path class="cls-3" d="M1070.29,786.74c37.18,0,65.65,15.92,85.41,47.76,4.07,8.66,6.1,17.14,6.1,25.45v7.06c0,37.82-37.94,60.54-113.82,68.15h-1.05c-14.93,0-22.4-7.12-22.4-21.35,0-5.46,3.75-11.56,11.24-18.3-2.73-20.97-4.1-36.89-4.1-47.76v-17.25c0-21.79,8.13-35.7,24.4-41.75,5.11-1.34,9.85-2,14.21-2ZM1073.34,827.43l-2,3.05v9.15c.64,28.35,2.67,44.94,6.1,49.76h.96c29.17-6.28,43.75-14.76,43.75-25.45,0-17.37-14.58-29.54-43.75-36.52h-5.05Z"/>
      <path class="cls-3" d="M1235.09,790.83h7.06c19.17,0,38.17,25.07,57,75.21,6.1,19.81,9.15,34.72,9.15,44.71v1.05c0,10.34-6.8,16.44-20.39,18.3-9.06,0-15.83-6.45-20.31-19.35l-2-1.05h-16.3c-31.2,1.63-46.8,4.01-46.8,7.15-1.63,8.54-6.68,13.62-15.16,15.25h-8.19c-8.48-1.69-13.57-6.77-15.25-15.25v-8.11c0-6.97,11.18-33.75,33.55-80.35,13.19-25.04,25.74-37.56,37.65-37.56ZM1214.35,872.23c11.33-1.57,23.47-2.35,36.43-2.35,2.38,0,4.82.03,7.32.09-3.66-12.38-10.95-24.4-21.88-36.08-8.02,11.27-15.31,24.05-21.87,38.35Z"/>
      <path class="cls-3" d="M1328.6,766.43h2c12.2,2.5,18.3,8.25,18.3,17.26v5.05c0,11.62-5.75,26.87-17.26,45.75-3.89,4.47-9.32,7.2-16.3,8.19-13.54-2.73-20.31-9.53-20.31-20.39,0-2.61,4.42-13.45,13.25-32.51,0-13.13,6.77-20.92,20.31-23.36ZM1403.99,766.43h2c12.2,2.5,18.3,8.25,18.3,17.26v5.05c0,11.62-5.75,26.87-17.26,45.75-3.89,4.47-9.33,7.2-16.3,8.19-13.54-2.73-20.31-9.53-20.31-20.39,0-2.61,4.41-13.45,13.25-32.51,0-13.13,6.77-20.92,20.31-23.36Z"/>
    </g>
  </g>
  <g>
    <g>
      <path d="M808.13,667.63c21.92,0,38.7,9.38,50.35,28.15,2.4,5.1,3.6,10.1,3.6,15v4.16c0,22.3-22.37,35.69-67.1,40.17h-.62c-8.8,0-13.2-4.2-13.2-12.59,0-3.22,2.21-6.82,6.63-10.79-1.61-12.36-2.42-21.75-2.42-28.15v-10.17c0-12.84,4.79-21.05,14.38-24.61,3.01-.79,5.81-1.18,8.38-1.18ZM809.92,691.62l-1.18,1.8v5.39c.38,16.71,1.58,26.49,3.6,29.33h.57c17.19-3.7,25.79-8.7,25.79-15,0-10.24-8.6-17.42-25.79-21.53h-2.98Z"/>
      <path d="M905.28,670.04h4.16c11.3,0,22.5,14.78,33.6,44.34,3.6,11.68,5.39,20.46,5.39,26.36v.62c0,6.1-4.01,9.69-12.02,10.79-5.34,0-9.33-3.8-11.97-11.41l-1.18-.62h-9.61c-18.39.96-27.59,2.36-27.59,4.21-.96,5.04-3.94,8.03-8.94,8.99h-4.83c-5-.99-8-3.99-8.99-8.99v-4.78c0-4.11,6.59-19.9,19.78-47.37,7.78-14.76,15.17-22.14,22.19-22.14ZM893.05,718.03c6.68-.92,13.84-1.39,21.48-1.39,1.4,0,2.84.02,4.32.05-2.16-7.29-6.46-14.38-12.9-21.27-4.73,6.64-9.03,14.18-12.9,22.6Z"/>
    </g>
    <g>
      <path class="cls-2" d="M805.13,664.63c21.92,0,38.7,9.38,50.35,28.15,2.4,5.1,3.6,10.1,3.6,15v4.16c0,22.3-22.37,35.69-67.1,40.17h-.62c-8.8,0-13.2-4.2-13.2-12.59,0-3.22,2.21-6.82,6.63-10.79-1.61-12.36-2.42-21.75-2.42-28.15v-10.17c0-12.84,4.79-21.05,14.38-24.61,3.01-.79,5.81-1.18,8.38-1.18ZM806.92,688.62l-1.18,1.8v5.39c.38,16.71,1.58,26.49,3.6,29.33h.57c17.19-3.7,25.79-8.7,25.79-15,0-10.24-8.6-17.42-25.79-21.53h-2.98Z"/>
      <path class="cls-2" d="M902.28,667.04h4.16c11.3,0,22.5,14.78,33.6,44.34,3.6,11.68,5.39,20.46,5.39,26.36v.62c0,6.1-4.01,9.69-12.02,10.79-5.34,0-9.33-3.8-11.97-11.41l-1.18-.62h-9.61c-18.39.96-27.59,2.36-27.59,4.21-.96,5.04-3.94,8.03-8.94,8.99h-4.83c-5-.99-8-3.99-8.99-8.99v-4.78c0-4.11,6.59-19.9,19.78-47.37,7.78-14.76,15.17-22.14,22.19-22.14ZM890.05,715.03c6.68-.92,13.84-1.39,21.48-1.39,1.4,0,2.84.02,4.32.05-2.16-7.29-6.46-14.38-12.9-21.27-4.73,6.64-9.03,14.18-12.9,22.6Z"/>
    </g>
  </g>
  <g>
    <g>
      <path d="M171.94,651.16c10.65,1.04,15.97,5.61,15.97,13.69-1,14.95-1.5,23.06-1.5,24.32v39.58c0,6.65-4.06,11.21-12.19,13.69h-5.28c-6.26,0-10.32-4.82-12.19-14.47,0-.91-.26-7-.78-18.26,0-35.99,2.28-53.99,6.85-53.99,1.83-3.04,4.87-4.56,9.13-4.56Z"/>
      <path d="M228.66,646.6c27.82,0,49.12,11.91,63.9,35.73,3.04,6.48,4.56,12.82,4.56,19.04v5.28c0,28.3-28.38,45.29-85.15,50.99h-.78c-11.17,0-16.76-5.33-16.76-15.97,0-4.08,2.8-8.65,8.41-13.69-2.04-15.69-3.06-27.6-3.06-35.73v-12.91c0-16.3,6.08-26.71,18.26-31.23,3.82-1,7.37-1.5,10.63-1.5ZM230.94,677.04l-1.5,2.28v6.85c.48,21.21,2,33.62,4.56,37.23h.72c21.82-4.69,32.73-11.04,32.73-19.04,0-13-10.91-22.1-32.73-27.32h-3.78Z"/>
      <path d="M351.95,649.66h5.28c14.34,0,28.56,18.76,42.64,56.27,4.56,14.82,6.85,25.97,6.85,33.45v.78c0,7.74-5.08,12.3-15.26,13.69-6.78,0-11.84-4.82-15.19-14.47l-1.5-.78h-12.19c-23.34,1.22-35.01,3-35.01,5.35-1.22,6.39-5,10.19-11.34,11.41h-6.13c-6.35-1.26-10.15-5.06-11.41-11.41v-6.06c0-5.22,8.37-25.25,25.1-60.11,9.87-18.73,19.25-28.1,28.17-28.1ZM336.44,710.56c8.48-1.17,17.56-1.76,27.25-1.76,1.78,0,3.61.02,5.48.07-2.74-9.26-8.19-18.26-16.37-26.99-6,8.43-11.45,18-16.37,28.69Z"/>
      <path d="M447.47,646.6c27.82,0,49.12,11.91,63.9,35.73,3.04,6.48,4.56,12.82,4.56,19.04v5.28c0,28.3-28.38,45.29-85.15,50.99h-.78c-11.17,0-16.76-5.33-16.76-15.97,0-4.08,2.8-8.65,8.41-13.69-2.04-15.69-3.06-27.6-3.06-35.73v-12.91c0-16.3,6.08-26.71,18.26-31.23,3.82-1,7.37-1.5,10.63-1.5ZM449.75,677.04l-1.5,2.28v6.85c.48,21.21,2,33.62,4.56,37.23h.72c21.82-4.69,32.73-11.04,32.73-19.04,0-13-10.91-22.1-32.73-27.32h-3.78Z"/>
      <path d="M613.08,659.51c1.57,3.09,2.35,5.89,2.35,8.41,0,3.78-1.76,6.96-5.28,9.52-3.61,2.61-7.15,3.91-10.63,3.91-2.17,0-4.33-.52-6.46-1.56-3.26-1.61-6.89-2.41-10.89-2.41-2.74,0-5.65.37-8.74,1.11-7.61,1.87-11.41,4.17-11.41,6.91,0,.91,1.35,1.37,4.04,1.37,1.48,0,3.35-.15,5.61-.46,1.35-.13,2.61-.2,3.78-.2,4.56,0,8.13,1.15,10.69,3.46,2.61,2.39,3.91,5.91,3.91,10.56,0,1-.07,2.07-.2,3.2-.7,6.26-5.11,10.85-13.24,13.76-13.3,3.04-19.95,5.91-19.95,8.61.17,1,.67,1.5,1.5,1.5h1.57c13.69,0,28.9-5.56,45.64-16.69,1.35-.26,2.63-.39,3.85-.39,7.3,0,11.71,4.98,13.24,14.93.17,1.17.26,2.3.26,3.39,0,9.95-7.39,17.43-22.17,22.43-13.87,4.69-27.23,7.04-40.1,7.04-2.35,0-4.67-.09-6.98-.26-15.04-1-25.12-8.61-30.25-22.82-.52-2.74-.78-5.78-.78-9.13,0-7.56,3.3-14.91,9.91-22.04-3.56-5.82-5.35-12.17-5.35-19.04,0-14,7.39-24.25,22.17-30.77,12.26-5.39,23.56-8.08,33.9-8.08,2.09,0,4.15.11,6.19.33,11.91,1.35,19.84,5.83,23.8,13.43Z"/>
    </g>
    <g>
      <path class="cls-2" d="M168.94,648.16c10.65,1.04,15.97,5.61,15.97,13.69-1,14.95-1.5,23.06-1.5,24.32v39.58c0,6.65-4.06,11.21-12.19,13.69h-5.28c-6.26,0-10.32-4.82-12.19-14.47,0-.91-.26-7-.78-18.26,0-35.99,2.28-53.99,6.85-53.99,1.83-3.04,4.87-4.56,9.13-4.56Z"/>
      <path class="cls-2" d="M225.66,643.6c27.82,0,49.12,11.91,63.9,35.73,3.04,6.48,4.56,12.82,4.56,19.04v5.28c0,28.3-28.38,45.29-85.15,50.99h-.78c-11.17,0-16.76-5.33-16.76-15.97,0-4.08,2.8-8.65,8.41-13.69-2.04-15.69-3.06-27.6-3.06-35.73v-12.91c0-16.3,6.08-26.71,18.26-31.23,3.82-1,7.37-1.5,10.63-1.5ZM227.94,674.04l-1.5,2.28v6.85c.48,21.21,2,33.62,4.56,37.23h.72c21.82-4.69,32.73-11.04,32.73-19.04,0-13-10.91-22.1-32.73-27.32h-3.78Z"/>
      <path class="cls-2" d="M348.95,646.66h5.28c14.34,0,28.56,18.76,42.64,56.27,4.56,14.82,6.85,25.97,6.85,33.45v.78c0,7.74-5.08,12.3-15.26,13.69-6.78,0-11.84-4.82-15.19-14.47l-1.5-.78h-12.19c-23.34,1.22-35.01,3-35.01,5.35-1.22,6.39-5,10.19-11.34,11.41h-6.13c-6.35-1.26-10.15-5.06-11.41-11.41v-6.06c0-5.22,8.37-25.25,25.1-60.11,9.87-18.73,19.25-28.1,28.17-28.1ZM333.44,707.56c8.48-1.17,17.56-1.76,27.25-1.76,1.78,0,3.61.02,5.48.07-2.74-9.26-8.19-18.26-16.37-26.99-6,8.43-11.45,18-16.37,28.69Z"/>
      <path class="cls-2" d="M444.47,643.6c27.82,0,49.12,11.91,63.9,35.73,3.04,6.48,4.56,12.82,4.56,19.04v5.28c0,28.3-28.38,45.29-85.15,50.99h-.78c-11.17,0-16.76-5.33-16.76-15.97,0-4.08,2.8-8.65,8.41-13.69-2.04-15.69-3.06-27.6-3.06-35.73v-12.91c0-16.3,6.08-26.71,18.26-31.23,3.82-1,7.37-1.5,10.63-1.5ZM446.75,674.04l-1.5,2.28v6.85c.48,21.21,2,33.62,4.56,37.23h.72c21.82-4.69,32.73-11.04,32.73-19.04,0-13-10.91-22.1-32.73-27.32h-3.78Z"/>
      <path class="cls-2" d="M610.08,656.51c1.57,3.09,2.35,5.89,2.35,8.41,0,3.78-1.76,6.96-5.28,9.52-3.61,2.61-7.15,3.91-10.63,3.91-2.17,0-4.33-.52-6.46-1.56-3.26-1.61-6.89-2.41-10.89-2.41-2.74,0-5.65.37-8.74,1.11-7.61,1.87-11.41,4.17-11.41,6.91,0,.91,1.35,1.37,4.04,1.37,1.48,0,3.35-.15,5.61-.46,1.35-.13,2.61-.2,3.78-.2,4.56,0,8.13,1.15,10.69,3.46,2.61,2.39,3.91,5.91,3.91,10.56,0,1-.07,2.07-.2,3.2-.7,6.26-5.11,10.85-13.24,13.76-13.3,3.04-19.95,5.91-19.95,8.61.17,1,.67,1.5,1.5,1.5h1.57c13.69,0,28.9-5.56,45.64-16.69,1.35-.26,2.63-.39,3.85-.39,7.3,0,11.71,4.98,13.24,14.93.17,1.17.26,2.3.26,3.39,0,9.95-7.39,17.43-22.17,22.43-13.87,4.69-27.23,7.04-40.1,7.04-2.35,0-4.67-.09-6.98-.26-15.04-1-25.12-8.61-30.25-22.82-.52-2.74-.78-5.78-.78-9.13,0-7.56,3.3-14.91,9.91-22.04-3.56-5.82-5.35-12.17-5.35-19.04,0-14,7.39-24.25,22.17-30.77,12.26-5.39,23.56-8.08,33.9-8.08,2.09,0,4.15.11,6.19.33,11.91,1.35,19.84,5.83,23.8,13.43Z"/>
    </g>
  </g>
</svg>