<?xml version="1.0" encoding="UTF-8"?><svg id="a" xmlns="http://www.w3.org/2000/svg" viewBox="0 0 1536 1024"><path d="M996.42,666.59c-7.53,0-13.97-3.89-18.14-10.96l-.44-.83c-1.33-2.91-2-5.96-2-9.09v-63.5c-4.23-.07-7.68-.14-10.3-.22-2.24-.07-3.9-.13-5.08-.21-1.45-.09-2.69-.34-3.76-.69l-.02.06c-5.33-1.72-9.31-4.74-11.84-8.96-2.09-3.44-3.15-7.12-3.15-10.96,0-7.28,3.69-13.6,10.38-17.8l.66-.38c2.76-1.42,5.73-2.23,8.82-2.4l.32-.02h.32c23.57.38,41.51.68,53.32.92,5.95.12,10.42.22,13.4.3,1.55.04,2.71.08,3.48.12,1.14.05,2.14.21,3.02.46l.02-.07c5.35,1.44,9.47,4.11,12.24,7.96l.29.42c2.42,3.79,3.64,7.76,3.64,11.82,0,7.29-3.67,13.59-10.33,17.74l-.65.37c-3.2,1.64-6.33,2.48-9.3,2.48h-.16c-5.7-.1-10.38-.19-14-.25v62.81c0,8.47-4.41,15.28-12.42,19.16l-.49.24-.51.18c-2.52.87-4.98,1.31-7.31,1.31ZM994.06,646.93c1.09,1.66,1.79,1.66,2.37,1.66.09,0,.39-.01.95-.17,1.78-.98,1.78-1.75,1.78-2.71v-80.94h9c1.77,0,9.32.12,23.06.37.11-.03.39-.11.86-.33,1.53-1.03,1.53-1.67,1.53-2.25,0-.5-.21-1.11-.62-1.81-.21-.2-.69-.5-1.55-.8-3.24-.14-17.14-.49-69.12-1.3-.37.04-.71.13-1.04.27-1.58,1.08-1.58,1.75-1.58,2.31,0,.34.06.84.54,1.62l.05.09c.17.28.68.61,1.39.89,1.76.11,7.1.32,23.27.5l8.9.1v81.28c0,.41.07.81.21,1.22ZM962.23,564.03l.28.09c-.09-.03-.19-.06-.28-.09ZM1030.38,559.65c.21.07.43.13.64.17-.08-.02-.17-.05-.25-.07l-.39-.1Z"/><path d="M1059.68,666.59c-7.29,0-13.61-3.69-17.8-10.39l-.37-.65c-1.43-2.76-2.23-5.74-2.4-8.84l-.02-.31v-.31c.3-20.16,1.19-81.51,1.19-83.91,0-5.31,2.06-10.35,5.95-14.57l.45-.46c4.08-3.83,9.06-5.85,14.4-5.85,7.36,0,13.74,3.79,17.98,10.66l.41.66.29.72c1.23,3.08,1.83,5.88,1.83,8.54,0,1.9-.08,8.61-.25,20.89,2.59-.03,5.84-.08,9.94-.14v-20.9c0-7.86,3.89-14.49,10.95-18.66l.45-.27.48-.21c2.93-1.3,5.91-1.96,8.85-1.96,7.05,0,13.25,3.52,17.46,9.92l.31.5c1.81,3.19,2.73,6.71,2.73,10.46v82.85c0,8.46-4.37,15.25-12.32,19.14l-.54.26-.57.19c-2.54.85-4.98,1.28-7.23,1.28-4.98,0-12.07-1.73-17.53-9.97l-.32-.53c-1.81-3.19-2.73-6.71-2.73-10.46v-20.33c-4.11.06-7.64.11-10.56.15-.27,18.05-.31,21.76-.31,22.26,0,3.49-1.04,8.76-6.01,14.04l-.4.4c-4.03,3.78-8.98,5.78-14.32,5.78ZM1057.37,647.01c1.08,1.58,1.76,1.58,2.31,1.58.49,0,1.03-.06,1.82-.73.74-.84.91-1.35.91-1.48,0-.41,0-1.66.45-31.17v-8.93l9-.07c3.64,0,13.15-.12,28.29-.37l9.15-.15v38.62c0,.52.08.95.27,1.35,1.14,1.6,1.84,1.6,2.31,1.6.02,0,.31,0,.95-.18,1.7-.96,1.7-1.74,1.7-2.7v-82.85c0-.53-.08-.95-.27-1.35-1.08-1.52-1.74-1.52-2.23-1.52-.29,0-.66.08-1.08.23-1.52,1.02-1.65,1.85-1.65,2.87v38.63l-8.86.13c-16.36.25-25.84.37-28.2.37h-9.13l.13-9.12c.25-17.89.37-27.66.37-29.87h0s-.02-.35-.27-1.11c-1.06-1.47-1.75-1.47-2.24-1.47s-1.02.06-1.85.77c-.95,1.12-.95,1.78-.95,2.11,0,1.75-.37,27.59-1.18,83.78.04.37.13.7.27,1.04Z"/><path d="M1145.46,666.59h-.19c-3.52,0-8.83-1.04-14.11-6.01l-.39-.39c-3.83-4.08-5.86-9.03-5.86-14.33v-.23c.74-28.33,1.32-49.88,1.73-64.05.2-7.14.37-12.49.49-16.05.06-1.82.11-3.19.15-4.1.05-1.03.17-1.95.36-2.77l-.09-.02c.97-4.6,2.88-8.3,5.67-11l.13-.12c3.15-2.92,6.18-4.69,9.25-5.39,1.77-.53,5.2-1.02,22.72-1.03,1-.04,4.94-.14,26.33-.52h.16c4.38,0,8.69,1.64,12.83,4.89l.39.31.36.35c4.29,4.21,6.56,9.43,6.56,15.11,0,7.43-3.72,13.78-10.49,17.91-3.12,2.15-7.76,2.89-17.36,2.9l-16.15.29-.04,1.88c4.33-.04,7.79-.06,10.47-.06,7.73,0,14.29,3.93,18.46,11.07l.28.47.22.5c1.28,2.96,1.93,5.88,1.93,8.69,0,4.98-1.73,12.07-9.97,17.53l-.53.32c-.5.28-1,.54-1.51.78,3.4-.13,4.56-.16,5.01-.16,7.05,0,13.25,3.52,17.46,9.92l.36.6c1.78,3.22,2.68,6.63,2.68,10.14,0,5-1.73,12.11-9.98,17.63-3.24,2.2-7.95,3.15-15.69,3.17-1.31.07-7.41.34-41.45,1.77h-.19ZM1143.71,647.67c.7.62,1.22.88,1.49.92,32.55-1.37,40.3-1.71,41.06-1.76l.32-.02h.26c3.92,0,5.72-.29,6.37-.43,1.56-1.15,1.56-1.88,1.56-2.37,0-.24-.03-.61-.29-1.16-1.07-1.5-1.72-1.5-2.21-1.5-.94,0-7.68.25-34.36,1.4l-10.49.45,1.19-10.71.38-16.58,1.67-8.34,7.34-.04c9.28-.05,16-.07,20.17-.07.73,0,1.2-.14,1.5-.28,1.6-1.14,1.6-1.83,1.6-2.31,0-.04,0-.38-.25-1.06-1.1-1.67-1.91-1.67-2.62-1.67-4.22,0-10.78.05-19.5.15h-.1s-9.2,0-9.2,0l.13-9.2.64-28.46,33.67-.6c5.14,0,7.42-.26,8.29-.4,1.64-1.05,1.64-1.77,1.64-2.4,0-.38,0-.98-.84-1.92-.79-.56-1.23-.7-1.35-.73-20.96.37-25.13.48-25.74.5l-.28.02h-.21c-13.31,0-17.2.3-18.22.42l-.4.1c-.22.14-.61.43-1.17.95-.02.04-.24.41-.46,1.29-.17,3.42-.73,21.41-2.37,84.1,0,.34.07.88.79,1.71ZM1193.51,646.3h0ZM1145.21,562.15c-.01.06-.03.13-.04.2l-.07.32c.04-.17.08-.34.11-.51ZM1147.83,559.35l-.12.04s.08-.03.12-.04Z"/><path d="M996.42,661.59c-4.02,0-9.69-1.47-13.84-8.5l-.19-.37c-1.03-2.25-1.55-4.61-1.55-7.01v-68.43c-6.52-.09-11.61-.18-15.16-.29-2.18-.06-3.79-.13-4.9-.2-.55-.04-1.55-.1-2.55-.44v.04c-4.17-1.34-7.24-3.63-9.12-6.81-1.6-2.62-2.42-5.44-2.42-8.36,0-3.89,1.39-9.4,8.04-13.56l.29-.17c2.13-1.1,4.42-1.72,6.81-1.85h.14s.14,0,.14,0c23.57.37,41.5.68,53.3.91,5.94.12,10.39.22,13.35.3,1.51.04,2.64.08,3.4.11.76.03,1.4.14,1.95.29l.02-.07c4.21,1.13,7.4,3.17,9.48,6.05l.13.19c1.9,2.97,2.86,6.04,2.86,9.13,0,5.58-2.76,10.25-7.97,13.49l-.29.16c-2.49,1.28-4.85,1.92-7.02,1.92-8.91-.16-15.31-.27-19.16-.33v67.89c0,6.54-3.32,11.61-9.6,14.66l-.44.18c-1.99.69-3.91,1.03-5.68,1.03ZM989.59,649.21c2.39,3.92,5.04,4.38,6.84,4.38.83,0,1.79-.18,2.85-.52,3.37-1.7,4.88-3.97,4.88-7.36v-75.94h4c1.75,0,9.35.12,23.23.37.52,0,1.55-.17,3.15-.97,3.64-2.32,4.06-4.88,4.06-6.61,0-1.53-.5-3.07-1.53-4.72-.95-1.26-2.55-2.22-4.75-2.85-2.34-.15-16.8-.5-70.17-1.34-1.17.08-2.26.37-3.31.89-3.71,2.38-4.14,4.95-4.14,6.69,0,1.44.42,2.83,1.27,4.23.89,1.5,2.41,2.57,4.66,3.31,1.18.12,5.88.36,24.27.57l3.95.05v76.34c0,1.2.24,2.34.74,3.49ZM1031.89,554.88c.08.03.17.05.25.07-.03,0-.05-.01-.08-.02l-.17-.05Z" style="fill:#44bba4;"/><path d="M1059.68,661.59c-3.89,0-9.4-1.39-13.56-8.04l-.16-.29c-1.1-2.13-1.72-4.42-1.85-6.82v-.14s0-.14,0-.14c.81-55.63,1.19-82.32,1.19-83.98,0-4.09,1.56-7.85,4.62-11.18l.2-.2c3.18-2.99,6.87-4.5,10.98-4.5s9.5,1.44,13.72,8.28l.18.29.13.32c.99,2.48,1.47,4.67,1.47,6.68,0,2.12-.1,10.41-.31,25.96,4.04-.05,10.73-.14,20-.28v-25.83c0-6.11,2.94-11.07,8.5-14.36l.41-.21c2.29-1.02,4.59-1.53,6.82-1.53,3.76,0,9.12,1.33,13.29,7.67l.14.22c1.38,2.43,2.08,5.12,2.08,7.99v82.85c0,6.54-3.29,11.6-9.52,14.65l-.49.2c-2.03.68-3.93,1.02-5.65,1.02-3.76,0-9.12-1.34-13.36-7.73l-.14-.23c-1.38-2.43-2.08-5.12-2.08-7.99v-25.41c-9.27.15-16.13.24-20.49.28-.32,21.17-.39,26.53-.39,27.2,0,3.76-1.56,7.33-4.65,10.61l-.18.18c-3.13,2.93-6.8,4.42-10.9,4.42ZM1052.99,649.45c2.38,3.71,4.95,4.14,6.69,4.14,2.02,0,3.72-.69,5.34-2.17,1.61-1.74,2.39-3.38,2.39-5.04,0-1.08.15-11.56.45-31.17l.06-3.94,3.94-.07c3.66,0,13.21-.12,28.37-.37l4.06-.07v33.54c0,1.44.32,2.73.97,3.92,2.44,3.61,4.94,4.03,6.61,4.03.79,0,1.75-.18,2.86-.53,3.32-1.69,4.8-3.97,4.8-7.35v-82.85c0-1.44-.32-2.73-.98-3.93-2.38-3.54-4.86-3.95-6.53-3.95-1.05,0-2.18.25-3.36.75-3.02,1.85-4.37,4.12-4.37,7.35v33.71l-3.94.06c-16.33.25-25.79.37-28.12.37h-4.06l.06-4.06c.25-17.91.37-27.7.37-29.94,0-.62-.14-1.71-.78-3.39-2.42-3.75-4.99-4.19-6.73-4.19-2.02,0-3.74.71-5.4,2.23-1.62,1.79-2.4,3.64-2.4,5.64,0,1.72-.37,27.61-1.19,83.95.08,1.17.37,2.26.89,3.31Z" style="fill:#44bba4;"/><path d="M1145.36,661.59h-.08c-3.81,0-7.41-1.56-10.68-4.65l-.17-.17c-2.99-3.18-4.5-6.85-4.5-10.91v-.1c.74-28.33,1.32-49.88,1.73-64.04.2-7.12.37-12.47.49-16.03.06-1.8.11-3.14.15-4.04.03-.76.13-1.41.26-1.96l-.09-.02c.76-3.6,2.19-6.44,4.25-8.44,2.62-2.43,4.96-3.82,7.21-4.27,1.18-.36,4.18-.86,21.52-.86.62-.03,3.57-.12,26.32-.52h.07c3.23,0,6.51,1.29,9.74,3.82l.33.29c3.36,3.29,5.06,7.18,5.06,11.54,0,4.02-1.43,9.64-8.23,13.72-1.81,1.29-5.13,2.08-14.71,2.08l-20.96.38-.27,11.85c6.78-.07,12-.1,15.58-.1,5.97,0,10.86,2.97,14.14,8.59l.22.43c1.01,2.33,1.52,4.58,1.52,6.71,0,3.76-1.34,9.12-7.73,13.36l-.23.14c-2.43,1.38-5.17,2.08-8.14,2.08-3.56,0-8.98.02-16.27.05l-.21,9.06c25.59-1.1,29.75-1.23,30.59-1.23,3.76,0,9.12,1.33,13.29,7.67l.16.27c1.37,2.47,2.06,5.07,2.06,7.72,0,3.79-1.35,9.21-7.79,13.5-2.29,1.58-6.32,2.3-13.01,2.31-.77.04-5.29.25-41.53,1.78h-.08ZM1140.16,651.2c1.71,1.59,3.36,2.37,5.04,2.39,33.11-1.39,40.78-1.73,41.37-1.77h.28c7.04,0,8.6-.91,8.66-.95,3.83-2.55,4.27-5.14,4.27-6.87,0-1.26-.32-2.48-.99-3.72-2.37-3.52-4.85-3.93-6.52-3.93-1.24,0-12.87.47-34.57,1.41l-4.66.2.57-5.13.38-16.36.78-3.91,3.26-.02c9.26-.05,15.98-.07,20.14-.07,1.54,0,2.87-.32,4.07-.97,3.61-2.44,4.03-4.93,4.03-6.61,0-.97-.26-2.08-.77-3.31-1.84-3.05-4.05-4.42-7.11-4.42-4.24,0-10.82.05-19.55.15h-4.21l.62-27.75,28.71-.51c7.42,0,9.69-.53,10.24-.7l.28-.16c3.1-1.82,4.48-3.96,4.48-6.94,0-2.13-.8-3.94-2.51-5.68-1.71-1.3-3.25-1.97-4.6-1.98-21.55.38-25.58.49-26.07.51h-.24c-15.54,0-18.77.42-19.42.56l-.24.08-.34.05c-.18.03-1.21.28-3.34,2.25-.81.79-1.46,2.18-1.89,4.11-.15,2.23-.69,19.12-2.4,84.77.01,1.93.75,3.66,2.25,5.29ZM1140.29,561.26s0,.03-.01.05l-.03.14c.01-.06.03-.13.04-.19ZM1146.2,554.62h-.01s0,0,.01,0Z" style="fill:#44bba4;"/><path d="M962.05,549.65c47.36.74,71.05,1.21,71.05,1.41,3.32.89,5.74,2.4,7.27,4.53,1.49,2.33,2.23,4.65,2.23,6.98,0,4.21-2.03,7.57-6.09,10.1-1.93.99-3.66,1.48-5.2,1.48-13.71-.25-21.43-.37-23.16-.37v71.94c0,5-2.45,8.69-7.35,11.06-1.58.54-3.04.82-4.38.82-4.36,0-7.82-2.18-10.39-6.53-.79-1.73-1.19-3.51-1.19-5.34v-72.38c-16.93-.2-25.39-.45-25.39-.74-3.22-1.04-5.52-2.72-6.9-5.05-1.24-2.03-1.86-4.13-1.86-6.31,0-4.21,2.05-7.6,6.16-10.17,1.63-.84,3.37-1.31,5.2-1.41Z" style="fill:#f45b69;"/><path d="M1112.01,549.65c4.06,0,7.37,1.96,9.95,5.87,1.04,1.83,1.56,3.84,1.56,6.01v82.85c0,5-2.43,8.69-7.28,11.06-1.63.55-3.09.82-4.38.82-4.06,0-7.4-1.98-10.02-5.94-1.04-1.83-1.56-3.83-1.56-6.01v-29.47c-15.29.25-24.77.37-28.43.37v.07c-.3,19.7-.45,30.07-.45,31.11,0,2.72-1.19,5.34-3.56,7.87-2.38,2.23-5.1,3.34-8.17,3.34-4.21,0-7.6-2.05-10.17-6.16-.84-1.63-1.31-3.36-1.41-5.2.79-54.29,1.19-82.3,1.19-84.04,0-3.07,1.19-5.89,3.56-8.46,2.42-2.28,5.17-3.42,8.24-3.42,4.26,0,7.7,2.13,10.32,6.38.79,1.98,1.19,3.71,1.19,5.2,0,2.33-.12,12.32-.37,29.99,2.28,0,11.63-.12,28.06-.37v-29.77c0-4.7,2.18-8.34,6.53-10.91,1.78-.79,3.51-1.19,5.2-1.19Z" style="fill:#f45b69;"/><path d="M1191.82,549.58c2.33,0,4.75.99,7.27,2.97,2.57,2.52,3.86,5.42,3.86,8.69,0,4.41-2.15,7.87-6.46,10.39-1.14.94-5.3,1.41-12.47,1.41l-24.87.45-.45,19.82h.07c8.76-.1,15.29-.15,19.6-.15,4.55,0,8.12,2.2,10.69,6.61.79,1.83,1.19,3.54,1.19,5.12,0,4.06-1.98,7.4-5.94,10.02-1.83,1.04-3.89,1.56-6.16,1.56-4.16,0-10.86.03-20.12.07l-.07.37-.37,16.18-.07.67c21.83-.94,33.41-1.41,34.74-1.41,4.06,0,7.37,1.96,9.95,5.87,1.04,1.88,1.56,3.81,1.56,5.79,0,4.11-2,7.5-6.01,10.17-1.58,1.09-5.22,1.63-10.91,1.63-.69.05-14.55.64-41.57,1.78-2.77,0-5.42-1.19-7.94-3.56-2.28-2.42-3.41-5.15-3.41-8.17,1.48-56.92,2.3-85.37,2.45-85.37.59-2.82,1.63-4.95,3.12-6.38,2.08-1.93,3.88-3.02,5.42-3.27,1.44-.49,8.31-.74,20.64-.74.79-.05,9.55-.22,26.28-.52Z" style="fill:#f45b69;"/><path d="M664.5,774.59c-4.84,0-11.7-1.62-17.02-9.3-1.78-2.4-2.92-5.49-3.47-9.44l-.09-.62v-.62c0-.83.02-1.62.07-2.37-.2-43.83-.3-71.16-.3-81.22,0-4.79,1.68-11.67,9.67-17.2,2.38-1.65,5.74-2.73,11.59-3.71l.18-.03c6.49-.95,12.33-1.43,17.34-1.43h1.71c20.29,0,35.48,6.41,45.16,19.04l.3.42c4.97,7.33,7.49,15.65,7.49,24.72,0,13.79-6.06,25.63-17.58,34.5,8.38,5.91,9.15,6.58,9.68,7.05l.38.35c4.29,4.21,6.56,9.41,6.56,15.04,0,4.83-1.6,11.71-9.2,17.13l-.54.35c-3.45,2.1-7.15,3.17-11,3.17-4.88,0-9.92-2.03-14.98-6.03l-15.18-10.7c-.43,9.45-5.3,16.41-13.82,19.69l-.52.2-.54.13c-2.35.59-4.23.86-5.9.86ZM662.14,754.85l.08.11c1.05,1.54,1.69,1.62,2.2,1.63.1-.01.42-.05,1.06-.19,1.02-.45,1.83-1.16,1.83-4.1v-3.34c0-3.08-.05-7.24-.15-12.38l-.17-9.17h12.25l32.25,22.77c2.67,2.15,3.93,2.25,3.95,2.25.3,0,.72-.05,1.36-.39,1.36-1.05,1.36-1.72,1.36-2.26,0-.36,0-.95-.91-1.93-.79-.61-3.46-2.56-12.42-8.85-2.37-1.6-4.11-2.81-5.33-3.69-2.18-1.57-5.47-3.94-5.47-8.69v-5.78l5.25-2.41c2.55-1.17,4.71-2.3,6.45-3.37,9.14-5.88,13.39-12.94,13.39-22.23,0-5.39-1.39-10.11-4.24-14.41-6.19-7.93-16.24-11.78-30.71-11.78h-1.71c-4.12,0-9.05.41-14.64,1.23-2.8.47-4.11.85-4.6,1.01-1.53,1.16-1.53,1.83-1.53,2.12,0,10.06.1,37.47.3,81.47v.37s-.03.37-.03.37c-.02.23-.03.47-.04.74.08.46.17.74.21.9ZM662.99,668.98h0ZM663.62,668.6h0s0,0,0,0ZM676.15,718.25h-9l-.07-9.82c0-6.28-.03-15.3-.07-27.06l-.03-8.07,8.02-.91c2.5-.28,5.34-.43,8.44-.43,7.46,0,13.55.99,18.63,3.02,7.51,2.99,11.82,9.47,11.82,17.79,0,6.17-2.62,11.54-7.58,15.54l-.25.2c-3.29,2.47-7.1,4.48-11.31,5.96l-.35.11c-8.12,2.5-13.92,3.67-18.24,3.67ZM685.04,689.98c.01,3.1.02,5.96.03,8.57,1.15-.31,2.43-.68,3.85-1.12,2.35-.85,4.44-1.93,6.2-3.23.78-.65.78-1,.78-1.44s-.04-.73-.08-.87c-.08-.05-.21-.12-.41-.2-2.58-1.03-6.05-1.6-10.36-1.72Z"/><path d="M776.82,774.59h-.67c-10.54,0-20.4-3.54-29.31-10.53l-.66-.57c-5.18-4.94-7.35-7.38-8.43-9.39-2.8-3.96-4.99-7.93-6.5-11.81-3.57-9.19-5.37-18.93-5.37-28.96,0-17.8,4.77-33.41,14.18-46.41l.34-.44c3.27-3.97,6.37-7.02,9.46-9.31l.08-.06c7.77-5.61,16.07-8.46,24.64-8.46h1.34c9.23,0,18.01,3.57,26.1,10.6l.46.43c4.49,4.49,7.36,8.04,9,11.11,7.55,12.79,11.38,27.6,11.38,44.03,0,18.35-4.84,33.52-14.38,45.08l-.28.32c-8.67,9.54-19.23,14.38-31.38,14.38ZM758.28,750.15c5.64,4.33,11.5,6.44,17.87,6.44h.67c6.9,0,12.76-2.72,17.92-8.33,6.81-8.34,10.13-19.29,10.13-33.45,0-13.23-3.02-25.02-8.98-35.04l-.28-.5c-.25-.48-1.37-2.36-5.62-6.63-4.71-4.03-9.31-5.98-14.06-5.98h-1.34c-4.77,0-9.37,1.64-14.06,5.02-1.81,1.35-3.85,3.38-6.06,6.04-7.13,9.95-10.6,21.61-10.6,35.62,0,7.8,1.39,15.35,4.14,22.43,1.04,2.67,2.67,5.54,4.83,8.51l.95,1.37c.62.69,1.9,2.05,4.48,4.52ZM776.67,751.28c-7.59,0-14.18-3.22-19.06-9.32l-.26-.34c-5.42-7.48-8.17-17-8.17-28.3,0-6.09.84-12.17,2.48-18.08l.14-.46c5.12-15.14,12.93-22.82,23.23-22.82,4.34,0,10.68,1.76,16.2,10.13l.28.45c5.33,9.22,8.04,20.08,8.04,32.27,0,3.13-.25,6.52-.76,10.09l-.04.27c-3.7,21.58-14.05,26.11-22.08,26.11ZM771.8,730.88c1.41,1.7,2.84,2.4,4.87,2.4.13,0,.18-.01.18-.01.02,0,2.49-1.53,4.14-11.01.37-2.69.56-5.19.56-7.45,0-8.88-1.84-16.62-5.48-23.02-.62-.91-1.09-1.42-1.39-1.7-.94.55-3.25,2.97-5.73,10.22-1.17,4.26-1.76,8.64-1.76,13.01,0,7.32,1.55,13.22,4.62,17.55Z"/><path d="M864.94,774.59h-.67c-10.54,0-20.4-3.54-29.31-10.53l-.66-.57c-5.18-4.94-7.35-7.38-8.43-9.39-2.8-3.96-4.99-7.93-6.5-11.81-3.57-9.19-5.37-18.93-5.37-28.96,0-17.8,4.77-33.41,14.18-46.41l.34-.44c3.27-3.97,6.37-7.02,9.46-9.31l.08-.06c7.77-5.61,16.06-8.46,24.64-8.46h1.34c9.23,0,18.01,3.57,26.1,10.6l.46.43c4.49,4.5,7.36,8.04,9,11.11,7.55,12.79,11.38,27.6,11.38,44.03,0,18.35-4.84,33.52-14.38,45.08l-.28.32c-8.67,9.54-19.23,14.38-31.38,14.38ZM846.4,750.15c5.64,4.33,11.5,6.44,17.87,6.44h.67c6.9,0,12.76-2.72,17.92-8.33,6.81-8.34,10.13-19.29,10.13-33.45,0-13.24-3.02-25.02-8.98-35.04l-.28-.5c-.25-.48-1.37-2.36-5.62-6.63-4.71-4.03-9.31-5.98-14.06-5.98h-1.34c-4.77,0-9.37,1.64-14.06,5.02-1.81,1.35-3.85,3.38-6.06,6.03-7.13,9.95-10.6,21.61-10.6,35.62,0,7.8,1.39,15.35,4.14,22.43,1.04,2.67,2.67,5.54,4.83,8.51l.95,1.37c.61.69,1.9,2.05,4.48,4.52ZM864.79,751.28c-7.59,0-14.18-3.22-19.06-9.32l-.26-.34c-5.42-7.48-8.17-17-8.17-28.3,0-6.09.83-12.17,2.48-18.08l.14-.46c5.12-15.14,12.93-22.82,23.23-22.82,4.35,0,10.68,1.76,16.2,10.14l.27.44c5.33,9.22,8.04,20.08,8.04,32.27,0,3.13-.25,6.52-.76,10.09l-.04.27c-3.7,21.58-14.05,26.11-22.08,26.11ZM859.92,730.88c1.41,1.7,2.83,2.4,4.87,2.4.13,0,.18-.01.18-.01.02,0,2.49-1.53,4.14-11.01.37-2.69.56-5.19.56-7.45,0-8.88-1.84-16.62-5.48-23.02-.62-.91-1.09-1.42-1.39-1.7-.94.55-3.25,2.96-5.73,10.22-1.17,4.26-1.76,8.64-1.76,13.01,0,7.32,1.55,13.22,4.62,17.55Z"/><path d="M920.84,774.59c-7.53,0-13.97-3.89-18.14-10.96l-.43-.83c-1.33-2.91-2.01-5.94-2.01-9.02v-.52c.07-.99.25-3.99,7.08-86.27l.07-.82.21-.79c1.5-5.53,4.25-9.71,8.19-12.43,3.66-2.61,7.72-3.94,12.08-3.94,4.96,0,14.08,1.8,19.74,13.79l7.03,12.48c2.86-6.71,5.12-11.64,6.83-14.92l.26-.47c4.37-7.26,11.01-11.26,18.7-11.26,4.68,0,11.39,1.56,16.9,8.96,2.01,2.49,4.12,6.71,7.34,25.47,3.6,20.15,7.29,42.97,10.95,67.76l.1.65v1.11c0,8.47-4.41,15.28-12.42,19.16l-.49.24-.51.18c-2.52.87-4.98,1.31-7.31,1.31-6.96,0-13.08-3.42-17.29-9.65-1.77-2.42-3-5.97-4.25-16.22-.54-3.44-1.05-6.69-1.53-9.74-3.9,3.8-8.84,5.84-14.34,5.84-3.6,0-9.43-.99-14.59-6.32-1.59,19.15-1.81,20.31-1.96,21.08l-.1.54-.17.52c-1.78,5.51-4.95,9.63-9.42,12.26l-.46.26c-3.3,1.69-6.68,2.55-10.04,2.55ZM918.47,754.93c1.09,1.67,1.79,1.67,2.37,1.67.41,0,.93-.14,1.53-.42.39-.29.73-.81,1.03-1.55.29-2.55,1.18-12.32,3.9-46.46l.66-8.28h10.45l1.99.97c2.51,1.27,3,2.14,6.19,7.78,1.56,2.77,3.88,6.91,6.96,12.42l.31.6c1.25,2.7,2.5,4.07,3.71,4.07.64,0,1.35,0,2.38-1.42,6.42-16,7.59-18.87,7.89-19.57l2.32-5.5h13.76l1.24,7.54c1.33,8.1,3.33,20.6,6.1,38.22l.04.32c.68,5.66,1.24,7.92,1.46,8.68,1.07,1.52,1.74,1.52,2.23,1.52.09,0,.39-.01.95-.17,1.65-.91,1.77-1.64,1.78-2.5-3.6-24.36-7.22-46.77-10.77-66.63-2.25-13.15-3.62-16.89-4.02-17.79-1.29-1.75-2.04-1.75-2.49-1.75-.67,0-1.69,0-3.15,2.34-2.63,5.09-7.01,15.24-13,30.17l-2.27,5.65h-11.35l-2.66-4.58-16.44-29.2-.16-.34c-1.68-3.66-2.94-3.66-3.55-3.66-.42,0-.91.07-1.64.6l-.19.13s-.42.36-.86,1.66c-5.32,63.99-6.73,81.6-6.94,84.56.02.31.09.62.21.94ZM982.86,668.23h0Z"/><path d="M1026.11,774.59c-7.53,0-13.97-3.89-18.14-10.96l-.44-.83c-1.33-2.91-2-5.94-2-9.01v-.52c.07-.99.25-3.99,7.08-86.27l.07-.82.21-.79c1.5-5.53,4.26-9.71,8.19-12.43,3.66-2.61,7.72-3.93,12.08-3.93,4.96,0,14.08,1.8,19.74,13.79l7.03,12.48c2.85-6.71,5.11-11.64,6.83-14.92l.26-.47c4.37-7.26,11.01-11.26,18.7-11.26,4.68,0,11.39,1.56,16.9,8.96,2.01,2.49,4.12,6.71,7.34,25.47,3.6,20.13,7.29,42.95,10.94,67.76l.1.65v1.11c0,8.47-4.41,15.28-12.42,19.16l-.48.24-.51.17c-2.52.87-4.98,1.31-7.31,1.31-6.96,0-13.08-3.42-17.29-9.65-1.77-2.42-3-5.98-4.25-16.22-.54-3.42-1.05-6.67-1.53-9.74-3.9,3.8-8.84,5.85-14.34,5.85-3.6,0-9.43-.99-14.59-6.32-1.59,19.15-1.82,20.3-1.96,21.08l-.1.54-.17.52c-1.78,5.51-4.95,9.63-9.42,12.26l-.46.25c-3.3,1.69-6.68,2.55-10.04,2.55ZM1023.74,754.93c1.09,1.67,1.79,1.67,2.37,1.67.41,0,.93-.14,1.53-.42.39-.29.73-.81,1.03-1.55.29-2.55,1.18-12.33,3.91-46.46l.66-8.28h10.47l2,.98c2.49,1.27,2.98,2.13,6.16,7.77,1.56,2.77,3.88,6.91,6.96,12.42l.31.6c1.25,2.7,2.5,4.07,3.71,4.07.64,0,1.35,0,2.38-1.43,6.42-15.99,7.59-18.87,7.89-19.57l2.32-5.5h13.76l1.24,7.54c1.33,8.11,3.39,20.97,6.1,38.22l.04.32c.68,5.66,1.23,7.92,1.46,8.67,1.07,1.52,1.74,1.52,2.23,1.52.09,0,.39-.01.95-.17,1.65-.91,1.77-1.64,1.78-2.5-3.6-24.38-7.22-46.79-10.77-66.63-2.25-13.15-3.62-16.89-4.02-17.79-1.29-1.75-2.04-1.75-2.49-1.75-.67,0-1.69,0-3.15,2.34-2.64,5.1-7.01,15.25-13,30.17l-2.27,5.65h-11.35l-2.66-4.58-16.44-29.2-.16-.34c-1.68-3.66-2.94-3.66-3.55-3.66-.42,0-.91.07-1.64.6l-.19.14s-.42.36-.86,1.66c-5.32,63.99-6.73,81.6-6.94,84.56.02.31.09.61.21.94ZM1088.13,668.23h0Z"/><path d="M1184.76,774.59c-4.92,0-11.91-1.7-17.4-9.75-1.36-1.83-2.3-4.23-4.6-14.93-2.74.13-6.54.31-11.79.58-.52,1.9-1.21,4.46-2.13,7.91l-.17.58c-1.63,4.81-4.92,8.76-9.49,11.42l-.5.27c-3.13,1.57-6.36,2.36-9.6,2.36-4.79,0-11.64-1.6-17.06-9.2l-.35-.53c-2.1-3.45-3.17-7.15-3.17-11,0-2.31,0-5.49,15.16-55.82l.04-.13c6.08-19.14,11.14-31.11,15.93-37.69l.34-.44c6.34-7.67,13.45-9.28,18.29-9.28h.07c7.7,0,18.28,3.86,25.04,22.21,5.9,15.06,12.54,38.84,20.3,72.7,1.6,6.18,1.82,8.6,1.82,10.15,0,7.46-3.91,13.9-11,18.13l-.5.3-.53.23c-2.96,1.28-5.88,1.93-8.7,1.93ZM1182.52,755.11c1.12,1.48,1.81,1.48,2.24,1.48.04,0,.37,0,1.03-.24,1.59-1.06,1.69-1.76,1.7-2.24-.03-.29-.2-1.71-1.27-5.85l-.06-.25c-7.48-32.66-14.07-56.33-19.58-70.36l-.07-.19c-1.44-3.92-4.41-10.5-8.18-10.5h-.07c-.63,0-2.07,0-4.25,2.54-2.44,3.46-6.67,11.88-13.14,32.25-11.87,39.44-14.03,48.67-14.36,50.82.03.28.12.64.38,1.12,1.05,1.36,1.7,1.36,2.19,1.36.35,0,.78-.11,1.28-.34.75-.48,1.03-.92,1.18-1.3q4.23-15.92,6.24-17.93l2.44-2.44,3.45-.18c20.44-1.06,24.56-1.2,25.86-1.2h.15c3.2,0,7.39,1.42,9.17,8.2.27,1.04.65,2.59,1.15,4.66l.05.21c1.44,6.78,2.17,9.43,2.47,10.39ZM1141.9,727.74v-8.24l-.85-2.65,1.61-2.84c.15-.48.47-1.51,1.05-3.62l.08-.29c1.74-5.51,3.09-9.71,4.02-12.5,1.68-5.05,3.42-10.27,10.06-10.27h6.63l2.04,6.34c1.76,5.69,3.8,12.85,6.04,21.28l.3,1.14v1.18c0,1.45-.34,2.86-1.01,4.22l-2.48,5.01h-5.59c-.75,0-3.36.08-12.35.65l-9.57.6Z"/><path d="M1227.59,774.59c-7.53,0-13.97-3.89-18.14-10.96l-.44-.83c-1.33-2.91-2-5.96-2-9.09v-63.5c-4.23-.07-7.68-.14-10.3-.22-2.24-.07-3.9-.13-5.08-.21-1.45-.09-2.69-.34-3.76-.69l-.02.06c-5.33-1.72-9.31-4.74-11.84-8.96-2.09-3.44-3.15-7.12-3.15-10.96,0-7.28,3.69-13.6,10.38-17.8l.66-.38c2.76-1.42,5.73-2.23,8.82-2.4l.32-.02h.32c23.57.38,41.51.68,53.32.92,5.95.12,10.42.22,13.4.3,1.55.04,2.71.08,3.48.12,1.14.05,2.14.21,3.02.46l.02-.07c5.35,1.44,9.47,4.11,12.24,7.96l.29.42c2.42,3.79,3.64,7.76,3.64,11.82,0,7.29-3.67,13.59-10.33,17.74l-.65.37c-3.2,1.64-6.33,2.48-9.3,2.48h-.16c-5.7-.1-10.38-.19-14-.25v62.81c0,8.47-4.41,15.28-12.42,19.16l-.49.24-.51.18c-2.52.87-4.98,1.31-7.31,1.31ZM1225.23,754.93c1.09,1.66,1.79,1.66,2.37,1.66.09,0,.39-.01.95-.17,1.78-.98,1.78-1.75,1.78-2.71v-80.94h9c1.77,0,9.32.12,23.06.37.11-.03.39-.11.86-.33,1.53-1.03,1.53-1.67,1.53-2.25,0-.5-.21-1.11-.62-1.81-.21-.2-.69-.5-1.55-.8-3.24-.14-17.14-.49-69.12-1.3-.37.04-.71.13-1.04.27-1.58,1.08-1.58,1.75-1.58,2.31,0,.34.06.84.54,1.62l.05.09c.17.28.68.61,1.39.89,1.76.11,7.1.32,23.27.5l8.9.1v81.28c0,.41.07.81.21,1.22ZM1193.4,672.03l.28.09c-.09-.03-.19-.06-.28-.09ZM1261.55,667.65c.21.07.43.13.64.17-.08-.02-.17-.05-.25-.07l-.39-.1Z"/><path d="M1290.81,774.59h-.19c-3.53,0-8.84-1.04-14.11-6.01l-.39-.39c-3.83-4.08-5.86-9.03-5.86-14.33v-.23c.74-28.35,1.32-49.9,1.73-64.05.2-7.14.37-12.49.49-16.05.06-1.82.11-3.19.15-4.1.05-1.03.17-1.95.36-2.77l-.09-.02c.97-4.6,2.88-8.3,5.67-11l.13-.12c3.15-2.92,6.18-4.69,9.25-5.39,1.77-.53,5.21-1.02,22.72-1.03,1-.04,4.94-.14,26.33-.52h.16c4.38,0,8.69,1.64,12.83,4.88l.39.31.36.35c4.29,4.21,6.56,9.43,6.56,15.11,0,7.43-3.72,13.78-10.49,17.91-3.12,2.14-7.76,2.89-17.36,2.9l-16.15.29-.04,1.88c4.33-.04,7.79-.06,10.47-.06,7.74,0,14.29,3.93,18.46,11.07l.28.47.22.5c1.28,2.96,1.93,5.88,1.93,8.69,0,4.98-1.73,12.07-9.97,17.53l-.53.33c-.5.28-1,.54-1.51.78,3.4-.13,4.56-.16,5.01-.16,7.05,0,13.25,3.52,17.46,9.92l.36.59c1.78,3.22,2.68,6.63,2.68,10.15,0,5-1.73,12.11-9.98,17.63-3.24,2.2-7.95,3.15-15.69,3.17-1.31.07-7.42.34-41.45,1.77h-.19ZM1289.06,755.67c.6.53,1.16.87,1.49.92,32.55-1.37,40.3-1.71,41.06-1.76l.32-.02h.26c3.92,0,5.72-.29,6.37-.43,1.56-1.15,1.56-1.88,1.56-2.37,0-.24-.03-.61-.29-1.16-1.06-1.5-1.72-1.5-2.21-1.5-.94,0-7.68.25-34.36,1.4l-10.51.45,1.21-10.72.38-16.57,1.67-8.34,7.34-.04c9.28-.05,16-.07,20.17-.07.73,0,1.2-.14,1.5-.28,1.6-1.14,1.6-1.83,1.6-2.31,0-.04,0-.38-.25-1.06-1.1-1.67-1.91-1.67-2.63-1.67-4.22,0-10.78.05-19.5.15h-.1s-9.2,0-9.2,0l.13-9.2.64-28.46,33.67-.6c5.14,0,7.42-.26,8.29-.4,1.64-1.05,1.64-1.77,1.64-2.4,0-.38,0-.98-.84-1.92-.79-.56-1.23-.7-1.35-.73-20.97.37-25.13.48-25.74.5l-.28.02h-.21c-13.31,0-17.19.3-18.22.42l-.41.11c-.22.14-.61.43-1.17.94-.02.04-.24.41-.46,1.29-.17,3.42-.73,21.42-2.37,84.1,0,.34.07.87.8,1.71ZM1338.86,754.3h0ZM1290.56,670.15c-.01.06-.03.13-.04.2l-.07.32c.04-.17.08-.34.11-.51ZM1292.47,667.51h0ZM1293.18,667.35l-.12.04s.09-.03.12-.04Z"/><path d="M1390.39,774.59h-2c-8.2,0-17.69-1.68-28.99-5.15-3.86-1.16-7.18-3.09-9.82-5.73l-.28-.29c-3.5-3.83-5.44-8.5-5.62-13.48v-.9c0-4.52,1.46-11.04,8.45-16.46l.61-.44c3.33-2.16,6.94-3.35,10.73-3.52h.56c2.76,0,6.27.77,11.73,2.59,4.7,1.25,8.85,1.94,12.36,2.05-2.29-1.03-5.31-2.29-9.29-3.79l-.22-.08c-6.88-2.79-12.93-5.94-17.98-9.34l-.56-.41c-5.23-4.14-8.25-7.26-9.92-10.25-3.84-5.68-5.92-11.79-6.18-18.18v-.37s0-1.34,0-1.34c0-8.8,2.68-17.16,7.97-24.85l.49-.65c3.32-4,6.07-6.59,8.62-8.12,6.7-4.38,13.87-6.73,21.33-7l3.56-.16h1.49c8.82,0,19.1,2.31,31.44,7.06l.19.07c8.81,3.62,13.85,10.35,14.19,18.96v.8c0,4.55-1.47,11.12-8.51,16.6l-.5.36c-3.43,2.31-7.15,3.53-11.07,3.62h-.5c-3.3,0-7.13-1.03-12.4-3.35-2.5-.84-4.65-1.44-6.49-1.86,2.24.96,4.97,2.05,8.31,3.3l.37.15c6.11,2.59,11.57,5.53,16.25,8.72l.42.31c9.93,7.66,15.21,16.99,15.67,27.75v.39s0,1.93,0,1.93c0,6.32-1.8,13.04-5.36,19.98-1.4,2.99-4.01,6.22-8.4,10.42l-.27.25c-4.87,4.3-11.31,7.4-19.13,9.22l-.43.09c-3.15.57-5.62.88-7.55.95l-3.27.16ZM1362.45,751.11c.51.46,1.24.83,2.18,1.11,9.49,2.91,17.47,4.37,23.77,4.37h1.57l3.04-.14c.57-.02,1.94-.13,4.77-.64,4.71-1.12,8.4-2.81,10.97-5.03,3.64-3.51,4.4-4.91,4.43-4.97l.19-.4c2.29-4.42,3.45-8.43,3.45-11.9v-1.71c-.28-5.14-3.05-9.71-8.47-13.94-3.61-2.44-7.9-4.73-12.75-6.8-18.3-6.86-27.74-11.95-28.21-20.49l-.09-1.53c0-1.43.24-3.04.79-5.22.86-3.39,4.14-11.2,16.25-11.71l1.39-.09h1.04c5.55,0,11.99,1.27,19.68,3.9l.76.3c3.79,1.69,5.31,1.94,5.56,1.97h.07c.25-.01.59-.08,1.1-.39,1.32-1.11,1.32-1.78,1.32-2.19v-.25c-.04-.76-.25-1.7-2.95-2.82-10.05-3.86-18.42-5.82-24.87-5.82h-1.28l-3.1.14c-4.24.14-8.25,1.5-12.27,4.16l-.47.29s-1.13.74-3.76,3.87c-3.08,4.59-4.58,9.27-4.58,14.32v1.13c.16,3.07,1.23,6,3.28,8.94l.4.58.22.46c.23.31,1.36,1.72,5.1,4.71,3.94,2.62,8.75,5.09,14.29,7.35,16.76,6.31,25.89,11.34,26.2,19.78v.55c0,2.73-.7,5.65-2.08,8.66l-.31.62c-3.08,5.54-8.93,8.54-17.4,8.91l-1.38.09h-1.11c-5.37,0-11.55-.93-18.37-2.76l-.54-.16c-4.07-1.37-5.78-1.68-6.25-1.74-.3.04-.69.15-1.19.43-1.18,1-1.18,1.59-1.18,1.99v.4c.03.43.14.95.76,1.68ZM1365.97,700.77h0s0,0,0,0Z"/><path d="M664.5,769.59c-5.23,0-9.71-2.5-12.96-7.22-1.3-1.71-2.14-4.08-2.58-7.22l-.04-.55c0-.78.02-1.53.07-2.22-.2-43.93-.3-71.31-.3-81.38,0-3.6,1.3-8.79,7.51-13.09,1.2-.84,3.29-1.84,9.56-2.88,6.33-.93,11.92-1.39,16.69-1.39h1.71c18.65,0,32.51,5.75,41.19,17.08l.13.19c4.4,6.49,6.63,13.86,6.63,21.92,0,13.77-6.54,24.94-19.44,33.21-.64.4-1.32.8-2.03,1.2.46.31.97.66,1.52,1.03,10.94,7.67,13.09,9.3,13.75,9.88l.17.16c3.36,3.29,5.06,7.15,5.06,11.47,0,5.23-2.45,9.75-7.1,13.06l-.24.16c-2.66,1.62-5.48,2.44-8.39,2.44-3.82,0-7.74-1.65-11.98-5.03l-23.17-16.34c.02,1.85.03,3.49.03,4.91v3.34c0,10.18-5.79,14.55-10.65,16.43l-.47.15c-1.92.48-3.45.71-4.68.71ZM656.92,754.32c.34,2.25.85,3.04,1.01,3.24l.16.22c2.33,3.42,4.78,3.82,6.42,3.82.24,0,.95-.04,2.49-.41,3.67-1.5,5.31-4.24,5.31-8.88v-3.34c0-3.11-.05-7.31-.15-12.47l-.08-4.08h5.57l30.71,21.67c2.73,2.19,5.18,3.35,7.07,3.35,1.4,0,2.75-.39,4.11-1.2,2.47-1.8,3.62-3.85,3.62-6.46,0-2.11-.81-3.91-2.56-5.66-.5-.41-2.79-2.13-12.96-9.26-7.79-5.28-8.61-5.83-8.61-8.25v-2.57l2.33-1.07c2.76-1.27,5.14-2.51,7.06-3.7,10.55-6.76,15.7-15.43,15.7-26.44,0-6.48-1.7-12.15-5.18-17.33-7.19-9.32-18.56-13.86-34.76-13.86h-1.71c-4.38,0-9.58.44-15.46,1.29-4.96.83-6.14,1.49-6.26,1.57-3.63,2.52-4.05,4.92-4.05,6.5,0,10.07.1,37.49.3,81.5v.16s-.01.16-.01.16c-.04.46-.06.96-.06,1.49ZM676.15,713.25h-4l-.07-4.82c0-6.28-.03-15.31-.07-27.08v-3.59s3.55-.4,3.55-.4c2.32-.26,4.97-.4,7.88-.4,6.72,0,12.36.9,16.78,2.66,5.59,2.22,8.68,6.89,8.68,13.14,0,4.6-1.98,8.63-5.72,11.65l-.11.09c-2.89,2.17-6.24,3.93-9.98,5.25l-.15.05c-7.53,2.32-13.01,3.44-16.77,3.44ZM680.02,685.03c.03,8,.05,14.6.06,19.79,2.39-.42,5.74-1.21,10.41-2.65,2.91-1.03,5.5-2.39,7.71-4.03,1.83-1.5,2.69-3.21,2.69-5.38,0-3.03-1.05-4.68-3.64-5.71-3.47-1.39-8.12-2.09-13.81-2.09-1.19,0-2.33.02-3.41.07Z" style="fill:#44bba4;"/><path d="M776.82,769.59h-.67c-9.39,0-18.21-3.18-26.22-9.46l-.29-.25c-5.42-5.17-6.98-7.11-7.59-8.37-2.67-3.73-4.73-7.44-6.14-11.04-3.34-8.6-5.03-17.73-5.03-27.14,0-16.72,4.45-31.35,13.23-43.47l.15-.2c2.97-3.6,5.85-6.45,8.58-8.47,6.94-5.01,14.25-7.54,21.76-7.54h1.34c7.99,0,15.66,3.15,22.82,9.37l.2.19c4.13,4.13,6.8,7.41,8.17,10.02,7.13,12.03,10.75,26.03,10.75,41.59,0,17.16-4.45,31.25-13.24,41.89l-.12.14c-7.69,8.46-17,12.74-27.68,12.74ZM755.01,753.95c6.62,5.14,13.53,7.64,21.14,7.64h.67c8.42,0,15.52-3.29,21.7-10.05,7.53-9.16,11.35-21.52,11.35-36.73,0-14.15-3.26-26.8-9.68-37.6l-.12-.22c-.64-1.26-2.32-3.67-6.67-8.02-5.7-4.92-11.41-7.32-17.46-7.32h-1.34c-5.87,0-11.44,1.96-17.03,6-2.14,1.58-4.52,3.95-7.04,7-7.72,10.71-11.64,23.73-11.64,38.68,0,8.42,1.51,16.58,4.48,24.24,1.2,3.08,3.04,6.32,5.45,9.64l.41.56.08.28c.35.48,1.6,1.96,5.72,5.91ZM776.67,746.28c-6.1,0-11.2-2.5-15.15-7.44l-.11-.15c-4.79-6.61-7.22-15.14-7.22-25.36,0-5.64.77-11.27,2.3-16.74l.06-.21c4.35-12.89,10.57-19.42,18.49-19.42,4.53,0,8.58,2.65,12.03,7.89l.12.2c4.89,8.45,7.37,18.46,7.37,29.77,0,2.9-.24,6.05-.71,9.39l-.02.12c-2.5,14.57-8.27,21.96-17.16,21.96ZM767.83,733.92c2.41,2.98,5.22,4.37,8.85,4.37,4.4,0,7.52-5.13,9.26-15.25.41-2.95.62-5.71.62-8.22,0-9.83-2.1-18.46-6.23-25.66-1.29-1.94-3.23-4.19-5.28-4.19-5.09,0-8.72,7.52-10.88,13.88-1.31,4.74-1.98,9.61-1.98,14.49,0,8.46,1.9,15.38,5.64,20.59Z" style="fill:#44bba4;"/><path d="M864.94,769.59h-.67c-9.39,0-18.21-3.18-26.22-9.46l-.29-.25c-5.42-5.17-6.98-7.11-7.59-8.37-2.67-3.73-4.73-7.44-6.14-11.04-3.34-8.6-5.03-17.73-5.03-27.14,0-16.72,4.45-31.35,13.23-43.47l.15-.2c2.96-3.6,5.85-6.45,8.58-8.47,6.94-5.01,14.25-7.54,21.75-7.54h1.34c7.99,0,15.66,3.15,22.82,9.37l.2.19c4.13,4.13,6.81,7.41,8.17,10.02,7.13,12.03,10.75,26.02,10.75,41.59,0,17.16-4.45,31.25-13.24,41.89l-.12.14c-7.69,8.46-17,12.74-27.68,12.74ZM843.13,753.95c6.62,5.14,13.53,7.64,21.14,7.64h.67c8.42,0,15.52-3.29,21.7-10.05,7.53-9.16,11.35-21.52,11.35-36.73,0-14.15-3.26-26.8-9.68-37.6l-.12-.22c-.64-1.26-2.32-3.67-6.67-8.02-5.7-4.92-11.41-7.32-17.46-7.32h-1.34c-5.87,0-11.44,1.96-17.03,6-2.14,1.58-4.52,3.95-7.04,7-7.72,10.71-11.64,23.73-11.64,38.68,0,8.42,1.51,16.58,4.48,24.24,1.2,3.08,3.04,6.32,5.45,9.64l.41.56.08.28c.35.48,1.59,1.96,5.72,5.91ZM837.3,747.88h0,0ZM864.79,746.28c-6.11,0-11.2-2.5-15.15-7.44l-.11-.15c-4.79-6.61-7.22-15.14-7.22-25.36,0-5.63.77-11.27,2.3-16.74l.06-.21c4.35-12.89,10.57-19.42,18.49-19.42,4.53,0,8.58,2.65,12.03,7.89l.12.2c4.89,8.45,7.37,18.46,7.37,29.77,0,2.9-.24,6.05-.71,9.39l-.02.12c-2.5,14.57-8.27,21.96-17.16,21.96ZM855.95,733.92c2.41,2.98,5.22,4.37,8.84,4.37,4.4,0,7.52-5.13,9.26-15.25.41-2.95.62-5.71.62-8.22,0-9.83-2.1-18.46-6.23-25.66-1.29-1.94-3.23-4.19-5.28-4.19-5.08,0-8.72,7.52-10.88,13.88-1.31,4.74-1.98,9.61-1.98,14.49,0,8.46,1.9,15.38,5.64,20.59Z" style="fill:#44bba4;"/><path d="M920.84,769.59c-4.02,0-9.69-1.47-13.84-8.5l-.19-.37c-1.03-2.25-1.55-4.58-1.55-6.94v-.23c.16-2.64,2.47-30.82,7.07-86.14l.03-.36.1-.35c1.19-4.37,3.28-7.62,6.24-9.65,2.8-2.01,5.9-3.03,9.2-3.03,4.63,0,11.03,1.93,15.29,11.09l12.15,21.58c4.74-11.57,8.22-19.46,10.59-23.99l.12-.21c4.4-7.31,10.27-8.84,14.41-8.84,3.55,0,8.67,1.22,12.96,7.04,1.58,1.95,3.44,6.28,6.35,23.23,3.6,20.14,7.28,42.91,10.93,67.65l.04.58v.45c0,6.54-3.32,11.61-9.6,14.66l-.44.18c-2,.69-3.91,1.04-5.68,1.04-3.74,0-9.05-1.31-13.21-7.55-1.21-1.64-2.25-4.78-3.37-14.01-1.5-9.52-2.77-17.54-3.83-24.17-.98,2.44-1.99,4.94-2.9,7.22l-.13.32-.18.29c-3.29,5.32-8.06,8.13-13.79,8.13-4.6,0-11-1.99-15.44-11.46-1.09-1.96-2.06-3.69-2.91-5.2-2.69,33.31-2.98,34.79-3.11,35.47l-.12.47c-1.39,4.31-3.81,7.5-7.2,9.49l-.21.11c-2.59,1.33-5.2,2-7.76,2ZM914,757.21c2.39,3.93,5.04,4.38,6.84,4.38,1.25,0,2.6-.36,4.01-1.06,1.55-.95,2.69-2.5,3.45-4.73.25-1.81,1.16-11.76,3.99-47.25l.29-3.68h4.65l.92.43q1.24.63,11.04,18.17l.14.27c2.9,6.24,6.1,6.96,8.25,6.96,1.8,0,4.45-.43,6.82-4.07,5.25-13.08,7.66-19.06,8.06-19.99l1.03-2.45h6.2l.55,3.35c1.33,8.09,3.32,20.58,6.09,38.19l.02.14c.95,7.88,1.72,9.93,1.93,10.36l.11.17c2.4,3.64,4.92,4.06,6.61,4.06.83,0,1.79-.18,2.85-.52,3.37-1.7,4.88-3.97,4.88-7.35v-.15c-3.62-24.55-7.27-47.14-10.85-67.14-2.79-16.3-4.42-19.2-4.72-19.62l-.14-.18c-2.52-3.45-4.95-3.85-6.57-3.85-1.95,0-4.84.51-7.5,4.87-2.7,5.19-7.17,15.54-13.29,30.78l-1.01,2.51h-5.04l-1.22-2.04-16.41-29.17c-2.7-5.89-5.91-6.58-8.09-6.58-1.63,0-3.12.51-4.57,1.55l-.08.06c-1.3.88-2.3,2.51-2.98,4.83-4.45,53.49-6.8,82.22-7.01,85.44.01,1.11.26,2.2.74,3.31ZM988.19,756.13h.01s0,0-.01,0Z" style="fill:#44bba4;"/><path d="M1026.11,769.59c-4.02,0-9.69-1.47-13.84-8.5l-.19-.37c-1.03-2.25-1.55-4.58-1.55-6.93v-.23c.16-2.64,2.47-30.82,7.07-86.14l.03-.36.1-.35c1.19-4.37,3.29-7.62,6.24-9.65,2.8-2.01,5.9-3.03,9.2-3.03,4.63,0,11.03,1.93,15.29,11.09l12.15,21.58c4.73-11.57,8.21-19.45,10.59-23.99l.12-.21c4.4-7.31,10.27-8.84,14.42-8.84,3.55,0,8.67,1.22,12.96,7.04,1.58,1.95,3.44,6.28,6.35,23.23,3.6,20.12,7.28,42.88,10.93,67.65l.04.58v.45c0,6.54-3.32,11.61-9.61,14.66l-.44.18c-1.99.69-3.91,1.04-5.68,1.04-3.74,0-9.05-1.31-13.21-7.55-1.21-1.64-2.25-4.78-3.37-14.01-1.47-9.38-2.75-17.46-3.83-24.17-.98,2.44-1.99,4.94-2.9,7.22l-.13.32-.18.29c-3.29,5.32-8.06,8.13-13.79,8.13-4.6,0-11-1.99-15.44-11.46-1.1-1.96-2.06-3.69-2.91-5.2-2.69,33.3-2.98,34.79-3.11,35.47l-.12.47c-1.39,4.31-3.81,7.5-7.2,9.49l-.21.11c-2.59,1.33-5.2,2-7.76,2ZM1019.27,757.21c2.39,3.92,5.04,4.38,6.84,4.38,1.25,0,2.59-.36,4.01-1.06,1.55-.95,2.69-2.5,3.45-4.73.21-1.58,1.04-10.18,4-47.25l.29-3.68h4.65l.93.44q1.23.63,11.03,18.17l.14.27c2.89,6.24,6.09,6.96,8.25,6.96,1.8,0,4.45-.43,6.82-4.07,5.25-13.08,7.66-19.06,8.06-19.99l1.03-2.45h6.2l.55,3.35c1.33,8.1,3.38,20.95,6.09,38.19l.02.14c.95,7.88,1.72,9.92,1.93,10.36l.11.17c2.4,3.64,4.92,4.06,6.61,4.06.83,0,1.79-.18,2.85-.52,3.37-1.7,4.88-3.97,4.88-7.35v-.15c-3.62-24.57-7.28-47.16-10.85-67.14-2.79-16.3-4.42-19.2-4.72-19.62l-.14-.18c-2.52-3.45-4.96-3.85-6.57-3.85-1.95,0-4.84.51-7.5,4.87-2.71,5.2-7.17,15.55-13.29,30.78l-1.01,2.51h-5.04l-1.22-2.04-16.41-29.17c-2.7-5.89-5.91-6.58-8.09-6.58-1.63,0-3.12.51-4.57,1.55l-.09.06c-1.3.88-2.3,2.51-2.98,4.83-4.45,53.49-6.8,82.22-7.01,85.44.01,1.11.26,2.2.74,3.31ZM1093.46,756.13h.01s0,0-.01,0Z" style="fill:#44bba4;"/><path d="M1184.76,769.59c-3.73,0-9.05-1.33-13.33-7.65-.7-.9-1.51-2.35-4.1-14.52-.26-1.11-.48-1.99-.65-2.68-3.55.14-10.1.46-19.57.95-.54,1.88-1.47,5.28-3.11,11.43l-.08.26c-1.26,3.7-3.7,6.63-7.27,8.71l-.22.12c-2.43,1.22-4.91,1.83-7.36,1.83-5.19,0-9.68-2.46-12.98-7.1l-.16-.24c-1.62-2.66-2.44-5.48-2.44-8.39,0-1.54,0-4.75,14.94-54.38,5.85-18.41,10.82-30.27,15.22-36.32l.15-.19c4.09-4.95,8.95-7.46,14.44-7.46h.07c8.9,0,15.76,6.4,20.38,19.03,5.71,14.54,12.48,38.81,20.1,72.07,1.48,5.72,1.67,7.8,1.67,8.97,0,3.98-1.49,9.62-8.56,13.83l-.46.23c-2.33,1.01-4.58,1.52-6.71,1.52ZM1178.03,757.42c2.52,3.74,5.04,4.17,6.73,4.17.97,0,2.07-.25,3.3-.76,3.97-2.45,4.43-5.06,4.43-6.82,0-.35-.1-1.89-1.43-7.01l-.03-.11c-7.54-32.9-14.2-56.81-19.79-71.07-3.38-9.23-7.71-13.87-12.91-13.87h-.07c-3,0-5.68,1.46-8.2,4.47-3.82,5.31-8.52,16.7-13.97,33.87-12.48,41.47-14.5,50.42-14.59,52.07,0,1.35.39,2.7,1.2,4.06,1.8,2.47,3.83,3.62,6.38,3.62,1.18,0,2.38-.3,3.66-.93,1.78-1.06,2.95-2.43,3.57-4.18,3.95-14.85,4.03-14.94,5.01-15.91l1.09-1.09,1.53-.08c20.55-1.07,24.45-1.19,25.6-1.19h.15c3.16,0,3.89,2.8,4.33,4.47.26,1.01.64,2.53,1.12,4.54,1.91,9.01,2.69,11.26,2.89,11.76ZM1178.07,757.51h0ZM1146.9,722.41v-3.72l-.38-1.24.71-1.35c.08-.23.4-1.15,1.3-4.37l.04-.13c1.73-5.48,3.07-9.66,3.99-12.42,1.66-4.99,2.29-6.86,5.32-6.86h2.95l.95,2.82c1.74,5.63,3.76,12.73,5.98,21.09l.13.51v.52c0,.68-.16,1.33-.49,2l-1.1,2.23h-2.48c-.99,0-4,.11-12.67.66l-4.25.27ZM1147.35,715.88s-.07.11-.11.2l.11-.2ZM1157.64,709.49c-.41,1.29-.87,2.73-1.37,4.33.92-.05,1.76-.1,2.53-.14-.39-1.44-.78-2.84-1.15-4.19Z" style="fill:#44bba4;"/><path d="M1227.59,769.59c-4.02,0-9.69-1.47-13.84-8.5l-.19-.37c-1.03-2.25-1.55-4.61-1.55-7.01v-68.43c-6.52-.09-11.61-.18-15.16-.29-2.18-.06-3.79-.13-4.9-.2-.55-.04-1.55-.1-2.55-.44v.04c-4.17-1.34-7.24-3.63-9.12-6.81-1.6-2.62-2.42-5.44-2.42-8.36,0-3.89,1.39-9.4,8.04-13.56l.29-.17c2.13-1.1,4.42-1.72,6.81-1.85h.14s.14,0,.14,0c23.57.37,41.5.68,53.3.91,5.94.12,10.39.22,13.35.3,1.51.04,2.64.08,3.4.11.76.03,1.4.14,1.95.29l.02-.07c4.21,1.13,7.4,3.17,9.48,6.05l.13.19c1.9,2.97,2.86,6.04,2.86,9.13,0,5.58-2.76,10.25-7.97,13.49l-.29.16c-2.49,1.28-4.85,1.92-7.02,1.92-8.91-.16-15.31-.27-19.16-.33v67.89c0,6.54-3.32,11.61-9.6,14.66l-.44.18c-1.99.69-3.91,1.03-5.68,1.03ZM1220.75,757.21c2.39,3.92,5.04,4.38,6.84,4.38.83,0,1.79-.18,2.85-.52,3.37-1.7,4.88-3.97,4.88-7.36v-75.94h4c1.75,0,9.35.12,23.23.37.52,0,1.55-.17,3.15-.97,3.64-2.32,4.06-4.88,4.06-6.61,0-1.53-.5-3.07-1.53-4.72-.95-1.26-2.55-2.22-4.75-2.85-2.34-.15-16.8-.5-70.17-1.34-1.17.08-2.26.37-3.31.89-3.71,2.38-4.14,4.95-4.14,6.69,0,1.44.42,2.83,1.27,4.23.89,1.5,2.41,2.57,4.66,3.31,1.18.12,5.88.36,24.27.57l3.95.05v76.34c0,1.2.24,2.34.74,3.49ZM1263.06,662.88c.08.03.17.05.25.07-.03,0-.05-.01-.08-.02l-.17-.05Z" style="fill:#44bba4;"/><path d="M1290.7,769.59h-.08c-3.81,0-7.41-1.56-10.69-4.65l-.17-.17c-2.99-3.18-4.5-6.85-4.5-10.91v-.1c.74-28.34,1.32-49.89,1.73-64.04.2-7.12.37-12.47.49-16.03.06-1.8.11-3.14.15-4.04.03-.76.13-1.41.26-1.96l-.09-.02c.76-3.6,2.19-6.44,4.25-8.43,2.61-2.43,4.96-3.82,7.21-4.28,1.18-.36,4.19-.86,21.52-.86.62-.03,3.57-.12,26.32-.52h.07c3.23,0,6.51,1.29,9.74,3.82l.33.29c3.36,3.29,5.06,7.18,5.06,11.54,0,4.02-1.43,9.64-8.23,13.72-1.81,1.29-5.13,2.08-14.7,2.08l-20.96.38-.27,11.85c6.78-.07,12-.1,15.58-.1,5.97,0,10.86,2.97,14.14,8.59l.22.43c1.01,2.33,1.52,4.59,1.52,6.71,0,3.76-1.34,9.12-7.73,13.36l-.24.14c-2.43,1.38-5.17,2.08-8.14,2.08-3.56,0-8.98.02-16.27.05l-.21,9.06c25.59-1.1,29.75-1.23,30.59-1.23,3.76,0,9.12,1.33,13.29,7.67l.16.26c1.37,2.47,2.06,5.07,2.06,7.73,0,3.79-1.35,9.2-7.79,13.5-2.29,1.58-6.32,2.3-13.01,2.31-.77.04-5.29.25-41.53,1.78h-.08ZM1285.51,759.2c1.71,1.58,3.36,2.37,5.04,2.39,33.11-1.39,40.78-1.73,41.37-1.77h.28c7.04,0,8.6-.91,8.66-.95,3.83-2.55,4.26-5.14,4.26-6.87,0-1.26-.32-2.48-.99-3.72-2.37-3.52-4.85-3.93-6.52-3.93-1.24,0-12.88.47-34.57,1.41l-4.67.2.58-5.14.38-16.36.78-3.91,3.26-.02c9.26-.05,15.98-.07,20.14-.07,1.54,0,2.87-.32,4.07-.97,3.61-2.44,4.03-4.93,4.03-6.61,0-.97-.26-2.08-.77-3.31-2.4-3.95-5.2-4.42-7.11-4.42-4.24,0-10.82.05-19.55.15h-4.21l.62-27.75,28.71-.51c7.42,0,9.69-.53,10.24-.7l.28-.16c3.1-1.82,4.48-3.96,4.48-6.94,0-2.13-.8-3.94-2.51-5.68-1.71-1.3-3.26-1.97-4.6-1.98-21.55.38-25.58.49-26.07.51h-.24c-15.53,0-18.77.42-19.42.56l-.24.08-.34.06c-.18.03-1.21.28-3.33,2.25-.81.79-1.46,2.18-1.89,4.11-.15,2.23-.69,19.12-2.4,84.77.01,1.93.75,3.66,2.25,5.29ZM1285.64,669.26s0,.03-.01.05l-.03.14c.01-.06.03-.13.04-.19ZM1291.55,662.62h-.02s.01,0,.02,0Z" style="fill:#44bba4;"/><path d="M1390.27,769.59h-1.88c-7.59,0-16.85-1.66-27.53-4.93-3.08-.92-5.7-2.44-7.75-4.49l-.12-.13c-2.73-2.99-4.18-6.45-4.31-10.28v-.73c0-4.88,2.25-9.2,6.52-12.51l.27-.19c2.57-1.67,5.34-2.59,8.23-2.72h.33c1.36,0,3.9.25,10.29,2.39,5.67,1.51,10.68,2.28,14.88,2.28h.91l.79-.07c3.52-.13,5.97-.91,6.76-2.15.52-1.16.72-2.01.79-2.59-.85-.86-4.35-3.59-17.87-8.67l-.1-.04c-6.56-2.66-12.3-5.64-17.06-8.85l-.25-.18c-4.69-3.72-7.48-6.57-8.75-8.94-3.4-4.95-5.23-10.26-5.46-15.78v-1.5c0-7.77,2.38-15.18,7.09-22.01l.22-.29c2.99-3.6,5.36-5.86,7.43-7.08,5.96-3.91,12.31-6.01,18.87-6.24l3.35-.15h1.49c8.08,0,18.05,2.26,29.65,6.73,8.92,3.66,10.99,9.94,11.17,14.56v.6c0,4.92-2.28,9.3-6.59,12.66l-.22.16c-2.62,1.77-5.44,2.69-8.38,2.76h-.39c-2.58,0-5.94-.96-10.59-3.02-6.16-2.09-11.31-3.14-15.32-3.14h-.86l-.87.07c-3.9.13-4.22,1.4-4.34,1.88-.3,1.21-.37,1.78-.39,1.98l.02.31c.76.87,4.27,3.8,20.01,9.69l.16.06c5.8,2.47,10.98,5.24,15.39,8.25l.19.14c8.71,6.71,13.33,14.79,13.73,24v.17s0,1.93,0,1.93c0,5.54-1.63,11.53-4.86,17.78-1.1,2.39-3.45,5.26-7.37,9.01l-.12.11c-4.25,3.74-9.95,6.47-16.96,8.1l-.19.04c-2.95.54-5.2.82-6.89.88l-3.16.15ZM1358.84,754.59c1.11,1.09,2.53,1.88,4.34,2.42,9.94,3.04,18.41,4.58,25.21,4.58h1.69l3.02-.14c1.32-.04,3.21-.29,5.69-.74,5.62-1.32,10.11-3.42,13.33-6.23,4.2-4.03,5.3-5.92,5.59-6.55l.1-.2c2.66-5.14,4.01-9.92,4.01-14.2v-1.84c-.32-6.78-3.76-12.62-10.53-17.86-3.93-2.67-8.59-5.16-13.83-7.39-20.52-7.68-24.86-11.9-25.08-16.17l-.08-1.21c0-.99.2-2.27.64-4.01.72-2.84,3.2-7.61,11.72-7.93l1.07-.08h1.04c4.99,0,10.9,1.19,18.07,3.63l.34.13c4.86,2.17,6.86,2.4,7.5,2.4h.3c1.28-.03,2.58-.46,3.89-1.32,2.32-1.84,3.4-3.83,3.4-6.26v-.36c-.11-2.32-.92-5.23-6.13-7.37-10.59-4.08-19.6-6.16-26.69-6.16h-1.39l-3.15.15c-5.19.17-10.05,1.8-14.86,4.98l-.21.13c-.67.39-2.25,1.58-5.26,5.18-3.75,5.51-5.58,11.18-5.58,17.33v1.25c.18,4.08,1.55,7.9,4.18,11.68l.32.54c.22.45,1.33,2.23,6.56,6.39,4.27,2.86,9.46,5.54,15.43,7.97,18.97,7.14,22.88,11.15,23.03,15.31v.37c0,2.04-.53,4.19-1.62,6.57l-.14.27c-2.19,3.94-6.7,6.08-13.39,6.35l-1.02.08h-1.11c-4.93,0-10.68-.87-17.07-2.59l-.24-.07c-5.4-1.82-7.29-2.02-7.85-2.02h-.05c-1.39.08-2.71.52-4.02,1.34-2.25,1.79-3.29,3.72-3.29,6.09v.52c.08,1.85.78,3.5,2.16,5.03Z" style="fill:#44bba4;"/><path d="M682.46,657.65h1.71c17.42,0,30.09,5.17,38.01,15.52,3.96,5.84,5.94,12.4,5.94,19.67,0,12.37-5.86,22.32-17.59,29.84-2.08,1.29-4.58,2.6-7.5,3.93,0,.2,2.3,1.86,6.9,4.97,8.12,5.69,12.57,8.88,13.36,9.58,2.57,2.52,3.86,5.39,3.86,8.61,0,3.96-1.81,7.23-5.42,9.8-2.03,1.24-4.13,1.86-6.31,1.86-2.87,0-6.06-1.41-9.58-4.23l-29.47-20.79h-.22c.1,5.2.15,9.38.15,12.55v3.34c0,6.38-2.7,10.62-8.09,12.7-1.58.4-2.82.59-3.71.59-3.96,0-7.2-1.86-9.72-5.57-.89-1.14-1.51-2.94-1.86-5.42,0-.74.02-1.43.07-2.08-.2-44.29-.3-71.47-.3-81.51,0-3.86,1.93-7.13,5.79-9.8,1.14-.79,3.79-1.53,7.94-2.23,6.09-.89,11.43-1.34,16.04-1.34ZM676,681.33c.05,11.78.07,20.81.07,27.1v.82h.07c3.32,0,8.51-1.09,15.59-3.27,3.36-1.19,6.33-2.75,8.91-4.68,2.82-2.28,4.23-5.12,4.23-8.54,0-4.65-2.05-7.79-6.16-9.43-3.96-1.58-9.06-2.38-15.29-2.38-2.77,0-5.25.12-7.42.37Z" style="fill:#f2e863;"/><path d="M774.59,657.65h1.34c7.03,0,13.76,2.8,20.19,8.39,3.86,3.86,6.36,6.9,7.5,9.13,6.83,11.48,10.25,24.7,10.25,39.64,0,16.28-4.11,29.4-12.32,39.35-6.93,7.62-15.17,11.43-24.72,11.43h-.67c-8.51,0-16.43-2.87-23.76-8.61-4.31-4.11-6.58-6.58-6.83-7.42-2.62-3.61-4.6-7.13-5.94-10.54-3.17-8.17-4.75-16.73-4.75-25.69,0-15.94,4.16-29.65,12.47-41.13,2.77-3.37,5.39-5.96,7.87-7.79,6.24-4.5,12.69-6.76,19.38-6.76ZM758.19,713.33c0,9.4,2.15,17.08,6.46,23.01,3.17,3.96,7.18,5.94,12.03,5.94,6.68,0,11.09-6.21,13.21-18.63.45-3.17.67-6.11.67-8.83,0-10.64-2.28-19.9-6.83-27.77-2.67-4.06-5.57-6.09-8.69-6.09-6.04,0-10.94,5.57-14.7,16.7-1.44,5.15-2.15,10.37-2.15,15.66Z" style="fill:#f2e863;"/><path d="M862.71,657.65h1.34c7.03,0,13.76,2.8,20.19,8.39,3.86,3.86,6.36,6.9,7.5,9.13,6.83,11.48,10.25,24.7,10.25,39.64,0,16.28-4.11,29.4-12.32,39.35-6.93,7.62-15.17,11.43-24.72,11.43h-.67c-8.51,0-16.43-2.87-23.76-8.61-4.3-4.11-6.58-6.58-6.83-7.42-2.62-3.61-4.6-7.13-5.94-10.54-3.17-8.17-4.75-16.73-4.75-25.69,0-15.94,4.16-29.65,12.47-41.13,2.77-3.37,5.39-5.96,7.87-7.79,6.24-4.5,12.69-6.76,19.38-6.76ZM846.31,713.33c0,9.4,2.15,17.08,6.46,23.01,3.17,3.96,7.18,5.94,12.03,5.94,6.68,0,11.09-6.21,13.21-18.63.45-3.17.67-6.11.67-8.83,0-10.64-2.28-19.9-6.83-27.77-2.67-4.06-5.57-6.09-8.69-6.09-6.04,0-10.94,5.57-14.7,16.7-1.44,5.15-2.15,10.37-2.15,15.66Z" style="fill:#f2e863;"/><path d="M980.45,657.65c3.86,0,7.13,1.83,9.8,5.49,1.58,1.88,3.44,9.03,5.57,21.46,3.61,20.19,7.25,42.71,10.91,67.56v.45c0,5-2.45,8.69-7.35,11.06-1.58.55-3.04.82-4.38.82-4.06,0-7.38-1.96-9.95-5.87-.94-1.19-1.83-5.27-2.67-12.25-2.72-17.32-4.75-30.04-6.09-38.16h-.15c-.4.94-3.12,7.7-8.17,20.27-2.57,4.16-6.04,6.24-10.39,6.24-5.05,0-9.01-3.09-11.88-9.28-6.14-10.99-9.25-16.5-9.35-16.55h-.07c-2.43,30.39-3.79,46.35-4.08,47.88-1.09,3.37-2.9,5.79-5.42,7.28-2.03,1.04-4.01,1.56-5.94,1.56-4.36,0-7.82-2.18-10.39-6.53-.79-1.73-1.19-3.49-1.19-5.27.15-2.57,2.5-31.25,7.05-86.04.94-3.46,2.5-5.94,4.68-7.42,2.13-1.53,4.43-2.3,6.9-2.3,5.1,0,9.01,2.97,11.73,8.91l16.26,28.88h.07c6.24-15.54,10.74-25.96,13.51-31.25,2.77-4.6,6.43-6.9,10.99-6.9Z" style="fill:#f2e863;"/><path d="M1085.72,657.65c3.86,0,7.13,1.83,9.8,5.49,1.58,1.88,3.44,9.03,5.57,21.46,3.61,20.19,7.25,42.71,10.91,67.56v.45c0,5-2.45,8.69-7.35,11.06-1.58.55-3.04.82-4.38.82-4.06,0-7.38-1.96-9.95-5.87-.94-1.19-1.83-5.27-2.67-12.25-2.72-17.32-4.75-30.04-6.09-38.16h-.15c-.4.94-3.12,7.7-8.17,20.27-2.57,4.16-6.04,6.24-10.39,6.24-5.05,0-9.01-3.09-11.88-9.28-6.14-10.99-9.26-16.5-9.35-16.55h-.07c-2.43,30.39-3.79,46.35-4.08,47.88-1.09,3.37-2.89,5.79-5.42,7.28-2.03,1.04-4.01,1.56-5.94,1.56-4.36,0-7.82-2.18-10.39-6.53-.79-1.73-1.19-3.49-1.19-5.27.15-2.57,2.5-31.25,7.05-86.04.94-3.46,2.5-5.94,4.68-7.42,2.13-1.53,4.43-2.3,6.9-2.3,5.1,0,9.01,2.97,11.73,8.91l16.26,28.88h.07c6.24-15.54,10.74-25.96,13.51-31.25,2.77-4.6,6.43-6.9,10.99-6.9Z" style="fill:#f2e863;"/><path d="M1158.25,657.95h.07c7.08,0,12.62,5.47,16.63,16.41,5.69,14.5,12.35,38.38,19.97,71.64,1.04,4.01,1.56,6.68,1.56,8.02,0,4.31-2.2,7.77-6.61,10.39-1.83.79-3.54,1.19-5.12,1.19-4.06,0-7.42-2-10.1-6.01-.59-.74-1.73-5.07-3.42-12.99-.94-3.96-1.46-5.94-1.56-5.94h-.15c-1.73,0-10.2.4-25.39,1.19-.2.2-1.53,4.95-4.01,14.25-.94,2.77-2.77,4.95-5.49,6.53-1.88.94-3.74,1.41-5.57,1.41-3.91,0-7.15-1.81-9.73-5.42-1.24-2.03-1.86-4.13-1.86-6.31,0-2.77,4.92-20.51,14.77-53.23,5.64-17.77,10.52-29.47,14.62-35.11,3.31-4.01,7.1-6.01,11.36-6.01ZM1150.83,717.86c.05.15.07.25.07.3,7.08-.45,11.38-.67,12.92-.67.05-.1.07-.17.07-.22-2.23-8.36-4.21-15.34-5.94-20.93h-.07c-.2,0-2.03,5.49-5.49,16.48-.84,3.02-1.36,4.7-1.56,5.05Z" style="fill:#f2e863;"/><path d="M1193.22,657.65c47.36.74,71.05,1.21,71.05,1.41,3.32.89,5.74,2.4,7.27,4.53,1.49,2.33,2.23,4.65,2.23,6.98,0,4.21-2.03,7.57-6.09,10.1-1.93.99-3.66,1.48-5.2,1.48-13.71-.25-21.43-.37-23.16-.37v71.94c0,5-2.45,8.69-7.35,11.06-1.58.54-3.04.82-4.38.82-4.36,0-7.82-2.18-10.39-6.53-.79-1.73-1.19-3.51-1.19-5.34v-72.38c-16.93-.2-25.39-.45-25.39-.74-3.22-1.04-5.52-2.72-6.9-5.05-1.24-2.03-1.86-4.13-1.86-6.31,0-4.21,2.05-7.6,6.16-10.17,1.63-.84,3.37-1.31,5.2-1.41Z" style="fill:#f2e863;"/><path d="M1337.17,657.58c2.33,0,4.75.99,7.28,2.97,2.57,2.52,3.86,5.42,3.86,8.69,0,4.41-2.15,7.87-6.46,10.39-1.14.94-5.3,1.41-12.47,1.41l-24.87.45-.45,19.82h.07c8.76-.1,15.29-.15,19.6-.15,4.55,0,8.12,2.2,10.69,6.61.79,1.83,1.19,3.54,1.19,5.12,0,4.06-1.98,7.4-5.94,10.02-1.83,1.04-3.89,1.56-6.16,1.56-4.16,0-10.86.03-20.12.07l-.07.37-.37,16.18-.08.67c21.83-.94,33.41-1.41,34.74-1.41,4.06,0,7.37,1.96,9.95,5.87,1.04,1.88,1.56,3.81,1.56,5.79,0,4.11-2,7.5-6.01,10.17-1.58,1.09-5.22,1.63-10.91,1.63-.69.05-14.55.64-41.57,1.78-2.77,0-5.42-1.19-7.94-3.56-2.28-2.42-3.42-5.15-3.42-8.17,1.49-56.92,2.3-85.37,2.45-85.37.59-2.82,1.63-4.95,3.12-6.38,2.08-1.93,3.88-3.02,5.42-3.27,1.43-.49,8.31-.74,20.64-.74.79-.05,9.55-.22,26.28-.52Z" style="fill:#f2e863;"/><path d="M1382.75,657.87l3.19-.15h1.49c7.62,0,17.02,2.15,28.21,6.46,5.54,2.28,8.41,5.94,8.61,10.99v.45c0,3.71-1.68,6.88-5.05,9.5-1.98,1.34-4.06,2.03-6.24,2.08h-.3c-1.98,0-5.02-.92-9.13-2.75-6.68-2.28-12.28-3.42-16.78-3.42h-1.04l-.82.07c-4.6.15-7.3,1.78-8.09,4.9-.35,1.39-.52,2.4-.52,3.04l.07.96c.1,2.87,7.62,7.1,22.57,12.69,5.59,2.38,10.49,5,14.7,7.87,7.77,5.99,11.83,12.99,12.18,21.01v1.93c0,4.95-1.49,10.29-4.46,16.04-.84,1.88-3.02,4.5-6.53,7.87-3.76,3.32-8.83,5.72-15.22,7.2-2.72.5-4.83.77-6.31.82l-3.12.15h-1.78c-7.23,0-16.01-1.58-26.36-4.75-2.47-.74-4.5-1.91-6.09-3.49-2.08-2.28-3.17-4.85-3.27-7.72v-.59c0-3.66,1.66-6.78,4.97-9.35,1.98-1.29,4.06-1.98,6.24-2.08h.15c1.68,0,4.73.74,9.13,2.23,6.09,1.63,11.43,2.45,16.04,2.45h1.11l.74-.07c5.29-.2,8.69-1.63,10.17-4.31.84-1.83,1.26-3.46,1.26-4.9v-.22c-.1-2.72-6.93-6.63-20.49-11.73-6.34-2.57-11.78-5.39-16.33-8.46-4.31-3.42-6.9-6.04-7.79-7.87-3.07-4.4-4.7-9.03-4.9-13.88v-1.34c0-6.98,2.13-13.56,6.38-19.75,2.67-3.22,4.83-5.3,6.46-6.24,5.39-3.56,11.04-5.44,16.93-5.64Z" style="fill:#f2e863;"/></svg>