<?xml version="1.0" encoding="UTF-8"?><svg id="a" xmlns="http://www.w3.org/2000/svg" viewBox="0 0 1536 1024"><path d="m156.04,823.97v-68.51c0-8.43-2.89-12.64-8.66-12.64-.91,0-2.1.09-3.57.27-2.15.28-3.68.41-4.59.41-3.62,0-5.44-1.88-5.44-5.65,0-3.99,2.51-5.99,7.52-5.99.8,0,1.65.06,2.57.17l8.37,1.03c2.73.34,6.15.51,10.25.51,2.85,0,6.27-.17,10.25-.51,9.34-.8,16.4-1.2,21.19-1.2,7.29,0,13.55.57,18.8,1.71,7.52,1.6,13.41,5.13,17.69,10.61,4.27,5.48,6.41,12.1,6.41,19.85,0,10.73-3.68,18.94-11.04,24.65-7.36,5.71-18,8.56-31.92,8.56h-19.17c-1.83,0-2.99.31-3.51.94s-.77,2.07-.77,4.34v3.41c0,14.43.43,23.18,1.29,26.25.86,3.07,3.34,4.6,7.45,4.6,1.25,0,2.45-.17,3.59-.51,2.51-.23,4.05-.34,4.62-.34,3.54,0,5.31,1.83,5.31,5.48,0,4.11-2.51,6.16-7.53,6.16l-2.4-.34-8.56-1.2c-2.4-.34-5.99-.51-10.78-.51-4,0-7.25.17-9.76.51l-9.93,1.37c-.23,0-.57.06-1.03.17h-1.2c-5.13,0-7.7-2-7.7-5.99,0-1.6.51-2.94,1.54-4.02,1.03-1.08,2.28-1.63,3.77-1.63,1.25,0,2.79.17,4.62.51.8.23,2,.34,3.59.34,5.82,0,8.73-4.27,8.73-12.81Zm15.58-77.56c-.8,1.14-1.2,4.28-1.2,9.41v25.33c0,3.08,2.17,4.85,6.5,5.31-.34,0,2.97,0,9.93,0,8.1,0,14.83-.63,20.2-1.88,10.15-2.4,15.23-9.07,15.23-20.03,0-14.49-9.24-21.74-27.73-21.74-13.69,0-21.34,1.2-22.94,3.59Z" style="fill:#fff; stroke:#fff; stroke-linecap:square; stroke-linejoin:bevel; stroke-width:2.5px;"/><path d="m283.04,849.62c-11.98,0-21.57-4.13-28.76-12.41-7.19-8.27-10.78-19.37-10.78-33.29s3.62-25.02,10.87-33.29c7.24-8.27,16.97-12.41,29.18-12.41s22.25,4.05,29.44,12.15c7.19,8.1,10.78,19.11,10.78,33.04s-3.71,25.1-11.13,33.55c-7.42,8.45-17.29,12.67-29.61,12.67Zm.86-80.1c-7.99,0-14.27,2.8-18.83,8.39-4.56,5.59-7.08,13.52-7.53,23.79v2.22c0,10.73,2.25,19.14,6.76,25.25,4.51,6.11,10.81,9.16,18.91,9.16s14.86-3.05,19.6-9.16c4.73-6.1,7.1-14.58,7.1-25.42,0-22.82-8.67-34.23-26.02-34.23Z" style="fill:#fff; stroke:#fff; stroke-linecap:square; stroke-linejoin:bevel; stroke-width:2.5px;"/><path d="m364,775.26v53.15c.12,5.81,1.67,8.72,4.67,8.72.69,0,2.13-.28,4.32-.86,1.38-.23,2.31-.34,2.77-.34,3.8,0,5.71,1.94,5.71,5.82s-2.33,5.65-6.99,5.65c-1.82,0-4.72-.23-8.7-.68-3.98-.46-7.05-.68-9.21-.68-1.82,0-4.55.23-8.19.68-3.64.46-6.31.68-8.02.68h-.85c-4.78,0-7.16-2.05-7.16-6.16,0-3.54,1.96-5.31,5.87-5.31h1.21c.69.16,1.21.24,1.56.24,2.88.64,4.54.96,5.01.96,2.07,0,3.37-.89,3.89-2.66s.83-6.38.95-13.83l.17-12.02v-57.2c-.12-3.43-.29-5.72-.51-6.87-.8-2.63-2.4-3.95-4.79-3.95-.34,0-1.83.23-4.45.69-1.26.23-2.29.34-3.08.34-3.88,0-5.82-1.82-5.82-5.48s2.28-5.65,6.85-5.65c1.25,0,2.34.06,3.25.17l4.11.51c1.82.23,3.37.34,4.62.34,1.14,0,2.85-.17,5.13-.51,2.28-.34,3.99-.51,5.13-.51,2.62,0,3.94,1.65,3.94,4.96,0,1.14-.06,2-.17,2.56-.8,8.77-1.2,21.19-1.2,37.25Z" style="fill:#fff; stroke:#fff; stroke-linecap:square; stroke-linejoin:bevel; stroke-width:2.5px;"/><path d="m467.72,796.39c0,4.34-.29,6.99-.86,7.96-.57.97-2.22,1.45-4.96,1.45h-54.43c-1.48,0-2.46.2-2.91.6-.46.4-.69,1.06-.69,1.97,0,8.56,2.57,15.69,7.7,21.4,5.13,5.71,11.52,8.56,19.17,8.56,5.02,0,9.61-1.37,13.78-4.11,4.16-2.74,6.87-6.22,8.13-10.44l1.54-4.96c.8-2.74,2.68-4.11,5.65-4.11,4.22,0,6.33,2.17,6.33,6.5,0,7.42-3.77,14.01-11.3,19.77-7.53,5.76-16.09,8.64-25.68,8.64-11.98,0-21.51-4.02-28.58-12.07-7.08-8.04-10.61-18.85-10.61-32.44s3.77-25.22,11.3-33.89c7.53-8.67,17.34-13.01,29.44-13.01,10.72,0,19.57,3.59,26.53,10.78,6.96,7.19,10.44,16.32,10.44,27.39Zm-17.46-48.44l-19.17-8.9-19,8.9c-2.97,1.37-4.96,2.05-5.99,2.05-2.4,0-3.6-.97-3.6-2.91,0-1.03,1.26-2.45,3.77-4.28l21.57-15.23c1.14-.8,2.23-1.2,3.25-1.2.91,0,2.05.4,3.42,1.2l21.57,15.23c.8.57,1.65,1.2,2.57,1.88.57.46.91,1.14,1.03,2.05v.34c0,1.94-1.14,2.91-3.42,2.91-1.03,0-3.03-.68-5.99-2.05Zm-44.67,43.99c0,1.6,1.25,2.4,3.77,2.4h40.91c2.39,0,3.59-.8,3.59-2.4,0-6.05-2.28-11.3-6.85-15.75-4.57-4.45-9.93-6.68-16.09-6.68s-12.21,2.31-17.46,6.93c-5.25,4.62-7.87,9.79-7.87,15.49Z" style="fill:#fff; stroke:#fff; stroke-linecap:square; stroke-linejoin:bevel; stroke-width:2.5px;"/><path d="m506.06,766.26v4.96c4.11-4.91,7.99-8.3,11.64-10.18s8.22-2.82,13.69-2.82c11.18,0,19.4,4.34,24.65,13.01,3.88-4.79,7.81-8.16,11.81-10.1,3.99-1.94,9.13-2.91,15.4-2.91s12.32,1.37,17.46,4.12c5.7,3.09,9.64,7.43,11.81,13.04,1.48,3.77,2.23,9.72,2.23,17.84v29.5c0,4.69.05,7.55.17,8.58.56,4.12,2.03,6.17,4.41,6.17.79,0,1.98-.2,3.56-.6,1.58-.4,2.77-.6,3.56-.6,3.95,0,5.93,1.71,5.93,5.13,0,4-2.28,5.99-6.85,5.99-1.71,0-4.31-.2-7.79-.6-3.48-.4-6.13-.6-7.96-.6-1.94,0-4.77.2-8.47.6-3.71.4-6.53.6-8.47.6-4.79,0-7.19-2-7.19-5.99,0-3.42,1.82-5.13,5.48-5.13.46,0,1.6.11,3.42.34.68.23,1.6.34,2.74.34,1.94,0,3.17-.97,3.68-2.91.51-1.94.83-6.79.94-14.55v-21.74c0-7.87-.6-13.61-1.79-17.2s-3.44-6.42-6.73-8.47-7.04-3.08-11.25-3.08c-8.07,0-13.69,2.8-16.87,8.39-2.5,4.45-3.75,12.21-3.75,23.28v12.15c0,10.73.26,17.43.77,20.11.51,2.68,1.85,4.02,4.02,4.02.68,0,1.68-.11,2.99-.34,1.31-.23,2.31-.34,3-.34,1.6,0,2.94.53,4.02,1.6,1.08,1.07,1.62,2.39,1.62,3.96,0,3.71-2.68,5.56-8.04,5.56-1.71,0-4.25-.23-7.62-.68-3.37-.46-5.9-.68-7.62-.68-2.4,0-5.02.23-7.88.68-2.85.46-5.36.68-7.53.68-4.68,0-7.02-1.94-7.02-5.82,0-3.54,1.71-5.31,5.14-5.31,1.25,0,2.22.16,2.91.48,1.6.48,2.79.72,3.6.72,2.74,0,4.16-2.92,4.28-8.77l.51-8.09v-24.94c0-9.98-1.34-16.92-4.02-20.81-2.68-3.9-7.45-5.85-14.29-5.85-7.53,0-13.29,2.75-17.29,8.26-3.31,4.47-4.96,12.27-4.96,23.4v22.88c0,4.59.06,7.28.17,8.08.45,3.9,1.71,5.85,3.77,5.85.57,0,1.77-.32,3.59-.96.23,0,.57-.08,1.03-.24h1.2c4.45,0,6.68,1.88,6.68,5.65s-2.57,5.48-7.7,5.48c-1.94,0-4.34-.17-7.19-.51-3.88-.45-7.19-.68-9.93-.68-1.37,0-3.88.17-7.53.51-4.91.46-7.87.68-8.9.68-4.57,0-6.85-1.94-6.85-5.82,0-3.54,2.21-5.31,6.62-5.31h1.05c.46.11.81.17,1.04.17l4.36.86c.12.12.35.17.7.17,3.14,0,4.82-2.79,5.05-8.39v-35.94c0-9.7-.26-15.75-.77-18.14s-1.91-3.59-4.19-3.59c-.46,0-2.05.29-4.79.86-1.14.23-2.05.34-2.74.34-4.22,0-6.33-1.82-6.33-5.48,0-3.88,2.34-5.82,7.02-5.82,1.26,0,2.97.12,5.14.34,2.17.23,4.05.34,5.65.34h3.08l4.11-.68h.51c2.74,0,4.11,1.66,4.11,4.96Z" style="fill:#fff; stroke:#fff; stroke-linecap:square; stroke-linejoin:bevel; stroke-width:2.5px;"/><path d="m666.95,797.07v22.25c0,5.71.06,9.07.17,10.1.57,5.13,2.11,7.7,4.62,7.7.57,0,1.99-.28,4.28-.86.57-.23,1.42-.34,2.57-.34,4.34,0,6.5,1.88,6.5,5.65,0,1.6-.72,2.97-2.15,4.11-1.43,1.14-3.23,1.71-5.41,1.71-1.83,0-4.61-.26-8.33-.77-3.72-.51-6.5-.77-8.33-.77-2.98,0-6.3.23-9.96.68-4.47.57-7.44.86-8.93.86-4.58,0-6.87-1.94-6.87-5.82s1.96-5.65,5.87-5.65c.92,0,2.27.17,4.06.51,1.78.34,3.14.51,4.06.51,2.76,0,4.43-3.65,5.01-10.96v-43.82c-.58-7.19-2.3-10.78-5.18-10.78-.92,0-2.22.2-3.89.6-1.67.4-2.91.6-3.71.6-4.14,0-6.22-1.82-6.22-5.48,0-3.88,2.51-5.82,7.53-5.82,2.17,0,3.71.06,4.62.17,3.65.46,5.99.68,7.02.68.91,0,2.31-.14,4.19-.43,1.88-.28,3.28-.43,4.19-.43,3.31,0,4.96,2.23,4.96,6.68,0,.46-.04,1.14-.13,2.05-.09.92-.14,1.6-.14,2.05-.09.92-.19,4.45-.28,10.61-.09,4.68-.14,9.47-.14,14.38Zm-8.9-44.84c-2.63,0-4.88-.94-6.76-2.82s-2.82-4.13-2.82-6.76.94-4.85,2.82-6.68c1.88-1.82,4.13-2.74,6.76-2.74s4.88.91,6.76,2.74c1.88,1.83,2.82,4.05,2.82,6.68s-.94,4.88-2.82,6.76-4.14,2.82-6.76,2.82Z" style="fill:#fff; stroke:#fff; stroke-linecap:square; stroke-linejoin:bevel; stroke-width:2.5px;"/><path d="m742.09,790.22c0-4.56,2.85-7.19,8.56-7.87-.57-3.99-2.48-7.13-5.73-9.41-3.25-2.28-7.45-3.42-12.58-3.42-7.88,0-14.21,3.14-19,9.41-4.79,6.28-7.19,14.61-7.19,24.99s2.25,19.14,6.76,25.25c4.51,6.11,10.75,9.16,18.74,9.16,5.02,0,9.38-1.43,13.09-4.28,3.71-2.85,6.25-6.79,7.62-11.81,1.14-3.99,1.82-6.27,2.05-6.85,1.25-2.28,3.08-3.42,5.48-3.42,1.94,0,3.54.63,4.79,1.88,1.25,1.26,1.88,2.85,1.88,4.79,0,2.85-.92,6.28-2.74,10.27-1.83,4-4,7.3-6.51,9.93-6.73,7.19-15.46,10.78-26.19,10.78-11.64,0-21.03-4.11-28.16-12.32-7.13-8.22-10.7-19-10.7-32.35,0-14.15,3.68-25.47,11.04-33.98,7.36-8.5,17.14-12.75,29.36-12.75,9.13,0,16.71,2.48,22.76,7.45,6.05,4.96,9.07,11.27,9.07,18.91,0,4.22-1.17,7.7-3.51,10.44-2.34,2.74-5.34,4.11-8.99,4.11-2.85,0-5.22-.86-7.1-2.57s-2.82-3.82-2.82-6.33Z" style="fill:#fff; stroke:#fff; stroke-linecap:square; stroke-linejoin:bevel; stroke-width:2.5px;"/><path d="m853.17,848.93c-9.36,0-15.12-4.05-17.29-12.15-5.82,8.56-14.95,12.84-27.39,12.84-9.24,0-16.63-2.28-22.16-6.85-5.54-4.56-8.3-10.67-8.3-18.31,0-9.47,4.05-16.43,12.15-20.88,3.08-1.71,5.73-2.82,7.96-3.34,2.23-.51,6.7-1.17,13.44-1.97,9.58-1.03,15.83-2.45,18.74-4.28,2.91-1.82,4.37-5.19,4.37-10.1s-1.63-8.36-4.88-11.04c-3.25-2.68-7.79-4.02-13.61-4.02-5.13,0-9.93,1.43-14.38,4.28-1.71,1.14-2.57,2.34-2.57,3.59,0,.46.51,1.03,1.54,1.71,1.6,1.14,2.4,3.08,2.4,5.82,0,2.28-.83,4.17-2.48,5.65-1.66,1.48-3.74,2.23-6.25,2.23-2.97,0-5.45-1.03-7.45-3.08-2-2.05-2.99-4.56-2.99-7.53,0-6.39,3.17-11.87,9.5-16.43,6.33-4.56,14.01-6.85,23.02-6.85,20.77,0,31.15,9.96,31.15,29.89v34.5c0,5.47.11,8.71.34,9.74.69,3.99,2.62,5.98,5.82,5.98,3.99,0,5.99-3.63,5.99-10.88v-8.33c0-3.63,1.74-5.44,5.22-5.44,3.71,0,5.56,2.74,5.56,8.22v10.61c-.23,10.95-6.05,16.43-17.46,16.43Zm-19-34.06v-12.15c-2.5,2.28-5.14,3.88-7.93,4.79-2.79.92-7.76,1.71-14.92,2.4-12.96,1.26-19.43,6.05-19.43,14.38,0,4.34,1.57,7.76,4.71,10.27,3.14,2.51,7.39,3.77,12.75,3.77,7.64,0,13.66-2.08,18.06-6.25,4.39-4.16,6.65-9.9,6.76-17.2Z" style="fill:#fff; stroke:#fff; stroke-linecap:square; stroke-linejoin:bevel; stroke-width:2.5px;"/><path d="m957.24,758.22c11.3,0,19.74,4.39,25.33,13.18v-17.29c0-4.56-.12-7.36-.34-8.39-.57-3.54-2.17-5.31-4.79-5.31-.91,0-2.2.17-3.85.51s-2.94.51-3.85.51c-4.22,0-6.33-1.82-6.33-5.48s2.85-5.65,8.56-5.65c.91,0,2.57.12,4.96.34,3.65.34,5.53.51,5.65.51,1.03,0,2.51-.14,4.45-.43,1.94-.28,3.42-.43,4.45-.43,3.19,0,4.79,2.29,4.79,6.86v1.89c-.12.34-.23,3.38-.34,9.09,0,.69-.17,5.09-.51,13.2-.23,5.72-.34,10.06-.34,13.03v45.43c.12,7.54.46,12.23,1.04,14.06.58,1.83,1.97,2.74,4.18,2.74,1.51,0,2.67-.11,3.49-.34,1.86-.23,3.14-.34,3.84-.34,4.3,0,6.45,1.88,6.45,5.65s-2.57,5.82-7.7,5.82c-1.14,0-2.88-.14-5.22-.43-2.34-.28-4.08-.43-5.22-.43-.34,0-1.66.11-3.94.34-1.37.34-2.57.51-3.59.51-3.08,0-4.62-2.05-4.62-6.16v-3.77c-6.03,8.1-14.79,12.15-26.29,12.15s-20.94-4.22-28-12.67c-7.05-8.44-10.58-19.51-10.58-33.21s3.48-24.84,10.44-33.12c6.96-8.27,16.26-12.41,27.9-12.41Zm24.64,60.42c.46-3.77.69-8.61.69-14.55,0-7.64-.29-12.84-.86-15.58-1.04-5.7-3.51-10.15-7.41-13.35-4.6-3.77-9.88-5.65-15.86-5.65-8.04,0-14.33,3.02-18.87,9.07-4.54,6.05-6.81,14.32-6.81,24.82s2.35,19.37,7.07,25.59c4.71,6.22,11.14,9.33,19.3,9.33,6.21,0,11.37-1.8,15.51-5.39,4.13-3.59,6.55-8.36,7.24-14.29Z" style="fill:#fff; stroke:#fff; stroke-linecap:square; stroke-linejoin:bevel; stroke-width:2.5px;"/><path d="m1095.2,848.93c-9.36,0-15.12-4.05-17.29-12.15-5.82,8.56-14.95,12.84-27.39,12.84-9.24,0-16.63-2.28-22.16-6.85-5.54-4.56-8.3-10.67-8.3-18.31,0-9.47,4.05-16.43,12.15-20.88,3.08-1.71,5.73-2.82,7.96-3.34,2.23-.51,6.7-1.17,13.44-1.97,9.58-1.03,15.83-2.45,18.74-4.28,2.91-1.82,4.37-5.19,4.37-10.1s-1.63-8.36-4.88-11.04c-3.25-2.68-7.79-4.02-13.61-4.02-5.13,0-9.93,1.43-14.38,4.28-1.71,1.14-2.57,2.34-2.57,3.59,0,.46.51,1.03,1.54,1.71,1.6,1.14,2.4,3.08,2.4,5.82,0,2.28-.83,4.17-2.48,5.65-1.66,1.48-3.74,2.23-6.25,2.23-2.97,0-5.45-1.03-7.45-3.08-2-2.05-2.99-4.56-2.99-7.53,0-6.39,3.17-11.87,9.5-16.43,6.33-4.56,14.01-6.85,23.02-6.85,20.77,0,31.15,9.96,31.15,29.89v34.5c0,5.47.11,8.71.34,9.74.69,3.99,2.62,5.98,5.82,5.98,3.99,0,5.99-3.63,5.99-10.88v-8.33c0-3.63,1.74-5.44,5.22-5.44,3.71,0,5.56,2.74,5.56,8.22v10.61c-.23,10.95-6.05,16.43-17.46,16.43Zm-19-34.06v-12.15c-2.5,2.28-5.14,3.88-7.93,4.79-2.79.92-7.76,1.71-14.92,2.4-12.96,1.26-19.43,6.05-19.43,14.38,0,4.34,1.57,7.76,4.71,10.27,3.14,2.51,7.39,3.77,12.75,3.77,7.64,0,13.66-2.08,18.06-6.25,4.39-4.16,6.65-9.9,6.76-17.2Z" style="fill:#fff; stroke:#fff; stroke-linecap:square; stroke-linejoin:bevel; stroke-width:2.5px;"/><path d="m1186.42,781.2l20.03,53.69,19.34-53.4c1.14-3.19,1.71-5.25,1.71-6.16,0-2.51-1.2-3.77-3.6-3.77-.91,0-2.25.17-4.02.51-1.77.34-3.11.51-4.02.51-3.77,0-5.65-1.85-5.65-5.57,0-3.93,2.74-5.9,8.22-5.9h1.37c.57.08,1.03.12,1.37.12l7.19.73c1.6.46,3.25.68,4.96.68,2.28,0,6.05-.32,11.3-.96,3.19-.38,5.48-.58,6.85-.58,4.9,0,7.36,1.91,7.36,5.73s-2,5.73-5.99,5.73c-1.26,0-2.17-.14-2.74-.41-1.71-.41-2.91-.62-3.59-.62-2.05,0-4.17,2.75-6.33,8.23l-24.13,61.75c-2.05,5.26-5.54,7.89-10.44,7.89s-8.04-2.64-10.1-7.91l-24.65-63.61c-1.6-4.24-3.48-6.36-5.65-6.36-.8,0-2,.17-3.59.51-1.6.34-2.8.51-3.59.51-3.77,0-5.65-1.77-5.65-5.31,0-4.11,2.62-6.16,7.87-6.16.91,0,1.6.06,2.05.17l7.19.91c2.4.3,4.79.46,7.19.46,1.94,0,4.79-.22,8.56-.66l5.65-.66c.57-.14,1.37-.22,2.4-.22,5.02,0,7.53,1.97,7.53,5.91,0,3.71-2.17,5.56-6.51,5.56-1.37,0-2.34-.07-2.91-.21-2.17-.55-3.54-.82-4.11-.82-1.83,0-2.74.81-2.74,2.41,0,.8.23,1.95.69,3.44l1.2,3.79Z" style="fill:#fff; stroke:#fff; stroke-linecap:square; stroke-linejoin:bevel; stroke-width:2.5px;"/><path d="m1339.1,796.39c0,4.34-.29,6.99-.86,7.96-.57.97-2.22,1.45-4.96,1.45h-54.43c-1.48,0-2.46.2-2.91.6-.46.4-.69,1.06-.69,1.97,0,8.56,2.57,15.69,7.7,21.4,5.13,5.71,11.52,8.56,19.17,8.56,5.02,0,9.61-1.37,13.78-4.11,4.16-2.74,6.87-6.22,8.13-10.44l1.54-4.96c.8-2.74,2.68-4.11,5.65-4.11,4.22,0,6.33,2.17,6.33,6.5,0,7.42-3.77,14.01-11.3,19.77-7.53,5.76-16.09,8.64-25.68,8.64-11.98,0-21.51-4.02-28.58-12.07-7.08-8.04-10.61-18.85-10.61-32.44s3.77-25.22,11.3-33.89c7.53-8.67,17.34-13.01,29.44-13.01,10.72,0,19.57,3.59,26.53,10.78,6.96,7.19,10.44,16.32,10.44,27.39Zm-62.13-4.45c0,1.6,1.25,2.4,3.77,2.4h40.91c2.39,0,3.59-.8,3.59-2.4,0-6.05-2.28-11.3-6.85-15.75-4.57-4.45-9.93-6.68-16.09-6.68s-12.21,2.31-17.46,6.93c-5.25,4.62-7.87,9.79-7.87,15.49Z" style="fill:#fff; stroke:#fff; stroke-linecap:square; stroke-linejoin:bevel; stroke-width:2.5px;"/><path d="m1355.36,829.34l55.8-56.75h-26.19c-8.56,0-13.92.26-16.09.77-2.17.51-3.25,1.86-3.25,4.02,0,.91.11,1.94.34,3.08.57,2.97.86,5.76.86,8.39,0,4.34-1.88,6.5-5.65,6.5s-5.82-2.51-5.82-7.53c0-2.17.06-3.65.17-4.45.46-3.42.69-5.88.69-7.36,0-1.14-.14-2.82-.43-5.05-.29-2.23-.43-3.91-.43-5.05,0-3.54,2.84-5.31,8.51-5.31,1.81,0,4.25.08,7.32.23,3.52.3,5.96.46,7.32.46h39.15c7.19,0,10.78,2.64,10.78,7.91,0,2.41-2.16,5.79-6.47,10.14l-55.15,56.23h40.74c6.73,0,10.1-1.96,10.1-5.89v-3.29c0-1.96-.12-3.64-.34-5.02-.23-4.39-.34-6.47-.34-6.24,0-1.96.57-3.61,1.71-4.94,1.14-1.33,2.57-2,4.28-2,3.65,0,5.48,2.17,5.48,6.5,0,1.94-.12,3.94-.34,5.99-.46,4.11-.69,7.08-.69,8.9,0,1.26.17,3.08.51,5.48.34,2.4.51,4.22.51,5.48,0,4.45-2.52,6.62-7.55,6.5h-59.87c-2.86,0-5.21-.86-7.03-2.58-1.83-1.72-2.74-3.9-2.74-6.54,0-2.98,1.37-5.84,4.11-8.59Z" style="fill:#fff; stroke:#fff; stroke-linecap:square; stroke-linejoin:bevel; stroke-width:2.5px;"/><path d="m148.54,816.47v-68.51c0-8.43-2.89-12.64-8.66-12.64-.91,0-2.1.09-3.57.27-2.15.28-3.68.41-4.59.41-3.62,0-5.44-1.88-5.44-5.65,0-3.99,2.51-5.99,7.52-5.99.8,0,1.65.06,2.57.17l8.37,1.03c2.73.34,6.15.51,10.25.51,2.85,0,6.27-.17,10.25-.51,9.34-.8,16.4-1.2,21.19-1.2,7.29,0,13.55.57,18.8,1.71,7.52,1.6,13.41,5.13,17.69,10.61,4.27,5.48,6.41,12.1,6.41,19.85,0,10.73-3.68,18.94-11.04,24.65-7.36,5.71-18,8.56-31.92,8.56h-19.17c-1.83,0-2.99.31-3.51.94s-.77,2.07-.77,4.34v3.41c0,14.43.43,23.18,1.29,26.25.86,3.07,3.34,4.6,7.45,4.6,1.25,0,2.45-.17,3.59-.51,2.51-.23,4.05-.34,4.62-.34,3.54,0,5.31,1.83,5.31,5.48,0,4.11-2.51,6.16-7.53,6.16l-2.4-.34-8.56-1.2c-2.4-.34-5.99-.51-10.78-.51-4,0-7.25.17-9.76.51l-9.93,1.37c-.23,0-.57.06-1.03.17h-1.2c-5.13,0-7.7-2-7.7-5.99,0-1.6.51-2.94,1.54-4.02,1.03-1.08,2.28-1.63,3.77-1.63,1.25,0,2.79.17,4.62.51.8.23,2,.34,3.59.34,5.82,0,8.73-4.27,8.73-12.81Zm15.58-77.56c-.8,1.14-1.2,4.28-1.2,9.41v25.33c0,3.08,2.17,4.85,6.5,5.31-.34,0,2.97,0,9.93,0,8.1,0,14.83-.63,20.2-1.88,10.15-2.4,15.23-9.07,15.23-20.03,0-14.49-9.24-21.74-27.73-21.74-13.69,0-21.34,1.2-22.94,3.59Z" style="fill:#fff; stroke:#fff; stroke-linecap:square; stroke-linejoin:bevel; stroke-width:2.5px;"/><path d="m275.54,842.12c-11.98,0-21.57-4.13-28.76-12.41-7.19-8.27-10.78-19.37-10.78-33.29s3.62-25.02,10.87-33.29c7.24-8.27,16.97-12.41,29.18-12.41s22.25,4.05,29.44,12.15c7.19,8.1,10.78,19.11,10.78,33.04s-3.71,25.1-11.13,33.55c-7.42,8.45-17.29,12.67-29.61,12.67Zm.86-80.1c-7.99,0-14.27,2.8-18.83,8.39-4.56,5.59-7.08,13.52-7.53,23.79v2.22c0,10.73,2.25,19.14,6.76,25.25,4.51,6.11,10.81,9.16,18.91,9.16s14.86-3.05,19.6-9.16c4.73-6.1,7.1-14.58,7.1-25.42,0-22.82-8.67-34.23-26.02-34.23Z" style="fill:#fff; stroke:#fff; stroke-linecap:square; stroke-linejoin:bevel; stroke-width:2.5px;"/><path d="m356.5,767.76v53.15c.12,5.81,1.67,8.72,4.67,8.72.69,0,2.13-.28,4.32-.86,1.38-.23,2.31-.34,2.77-.34,3.8,0,5.71,1.94,5.71,5.82s-2.33,5.65-6.99,5.65c-1.82,0-4.72-.23-8.7-.68-3.98-.46-7.05-.68-9.21-.68-1.82,0-4.55.23-8.19.68-3.64.46-6.31.68-8.02.68h-.85c-4.78,0-7.16-2.05-7.16-6.16,0-3.54,1.96-5.31,5.87-5.31h1.21c.69.16,1.21.24,1.56.24,2.88.64,4.54.96,5.01.96,2.07,0,3.37-.89,3.89-2.66s.83-6.38.95-13.83l.17-12.02v-57.2c-.12-3.43-.29-5.72-.51-6.87-.8-2.63-2.4-3.95-4.79-3.95-.34,0-1.83.23-4.45.69-1.26.23-2.29.34-3.08.34-3.88,0-5.82-1.82-5.82-5.48s2.28-5.65,6.85-5.65c1.25,0,2.34.06,3.25.17l4.11.51c1.82.23,3.37.34,4.62.34,1.14,0,2.85-.17,5.13-.51,2.28-.34,3.99-.51,5.13-.51,2.62,0,3.94,1.65,3.94,4.96,0,1.14-.06,2-.17,2.56-.8,8.77-1.2,21.19-1.2,37.25Z" style="fill:#fff; stroke:#fff; stroke-linecap:square; stroke-linejoin:bevel; stroke-width:2.5px;"/><path d="m460.22,788.89c0,4.34-.29,6.99-.86,7.96-.57.97-2.22,1.45-4.96,1.45h-54.43c-1.48,0-2.46.2-2.91.6-.46.4-.69,1.06-.69,1.97,0,8.56,2.57,15.69,7.7,21.4,5.13,5.71,11.52,8.56,19.17,8.56,5.02,0,9.61-1.37,13.78-4.11,4.16-2.74,6.87-6.22,8.13-10.44l1.54-4.96c.8-2.74,2.68-4.11,5.65-4.11,4.22,0,6.33,2.17,6.33,6.5,0,7.42-3.77,14.01-11.3,19.77-7.53,5.76-16.09,8.64-25.68,8.64-11.98,0-21.51-4.02-28.58-12.07-7.08-8.04-10.61-18.85-10.61-32.44s3.77-25.22,11.3-33.89c7.53-8.67,17.34-13.01,29.44-13.01,10.72,0,19.57,3.59,26.53,10.78,6.96,7.19,10.44,16.32,10.44,27.39Zm-17.46-48.44l-19.17-8.9-19,8.9c-2.97,1.37-4.96,2.05-5.99,2.05-2.4,0-3.6-.97-3.6-2.91,0-1.03,1.26-2.45,3.77-4.28l21.57-15.23c1.14-.8,2.23-1.2,3.25-1.2.91,0,2.05.4,3.42,1.2l21.57,15.23c.8.57,1.65,1.2,2.57,1.88.57.46.91,1.14,1.03,2.05v.34c0,1.94-1.14,2.91-3.42,2.91-1.03,0-3.03-.68-5.99-2.05Zm-44.67,43.99c0,1.6,1.25,2.4,3.77,2.4h40.91c2.39,0,3.59-.8,3.59-2.4,0-6.05-2.28-11.3-6.85-15.75-4.57-4.45-9.93-6.68-16.09-6.68s-12.21,2.31-17.46,6.93c-5.25,4.62-7.87,9.79-7.87,15.49Z" style="fill:#fff; stroke:#fff; stroke-linecap:square; stroke-linejoin:bevel; stroke-width:2.5px;"/><path d="m498.56,758.76v4.96c4.11-4.91,7.99-8.3,11.64-10.18s8.22-2.82,13.69-2.82c11.18,0,19.4,4.34,24.65,13.01,3.88-4.79,7.81-8.16,11.81-10.1,3.99-1.94,9.13-2.91,15.4-2.91s12.32,1.37,17.46,4.12c5.7,3.09,9.64,7.43,11.81,13.04,1.48,3.77,2.23,9.72,2.23,17.84v29.5c0,4.69.05,7.55.17,8.58.56,4.12,2.03,6.17,4.41,6.17.79,0,1.98-.2,3.56-.6,1.58-.4,2.77-.6,3.56-.6,3.95,0,5.93,1.71,5.93,5.13,0,4-2.28,5.99-6.85,5.99-1.71,0-4.31-.2-7.79-.6-3.48-.4-6.13-.6-7.96-.6-1.94,0-4.77.2-8.47.6-3.71.4-6.53.6-8.47.6-4.79,0-7.19-2-7.19-5.99,0-3.42,1.82-5.13,5.48-5.13.46,0,1.6.11,3.42.34.68.23,1.6.34,2.74.34,1.94,0,3.17-.97,3.68-2.91.51-1.94.83-6.79.94-14.55v-21.74c0-7.87-.6-13.61-1.79-17.2s-3.44-6.42-6.73-8.47-7.04-3.08-11.25-3.08c-8.07,0-13.69,2.8-16.87,8.39-2.5,4.45-3.75,12.21-3.75,23.28v12.15c0,10.73.26,17.43.77,20.11.51,2.68,1.85,4.02,4.02,4.02.68,0,1.68-.11,2.99-.34,1.31-.23,2.31-.34,3-.34,1.6,0,2.94.53,4.02,1.6,1.08,1.07,1.62,2.39,1.62,3.96,0,3.71-2.68,5.56-8.04,5.56-1.71,0-4.25-.23-7.62-.68-3.37-.46-5.9-.68-7.62-.68-2.4,0-5.02.23-7.88.68-2.85.46-5.36.68-7.53.68-4.68,0-7.02-1.94-7.02-5.82,0-3.54,1.71-5.31,5.14-5.31,1.25,0,2.22.16,2.91.48,1.6.48,2.79.72,3.6.72,2.74,0,4.16-2.92,4.28-8.77l.51-8.09v-24.94c0-9.98-1.34-16.92-4.02-20.81-2.68-3.9-7.45-5.85-14.29-5.85-7.53,0-13.29,2.75-17.29,8.26-3.31,4.47-4.96,12.27-4.96,23.4v22.88c0,4.59.06,7.28.17,8.08.45,3.9,1.71,5.85,3.77,5.85.57,0,1.77-.32,3.59-.96.23,0,.57-.08,1.03-.24h1.2c4.45,0,6.68,1.88,6.68,5.65s-2.57,5.48-7.7,5.48c-1.94,0-4.34-.17-7.19-.51-3.88-.45-7.19-.68-9.93-.68-1.37,0-3.88.17-7.53.51-4.91.46-7.87.68-8.9.68-4.57,0-6.85-1.94-6.85-5.82,0-3.54,2.21-5.31,6.62-5.31h1.05c.46.11.81.17,1.04.17l4.36.86c.12.12.35.17.7.17,3.14,0,4.82-2.79,5.05-8.39v-35.94c0-9.7-.26-15.75-.77-18.14s-1.91-3.59-4.19-3.59c-.46,0-2.05.29-4.79.86-1.14.23-2.05.34-2.74.34-4.22,0-6.33-1.82-6.33-5.48,0-3.88,2.34-5.82,7.02-5.82,1.26,0,2.97.12,5.14.34,2.17.23,4.05.34,5.65.34h3.08l4.11-.68h.51c2.74,0,4.11,1.66,4.11,4.96Z" style="fill:#fff; stroke:#fff; stroke-linecap:square; stroke-linejoin:bevel; stroke-width:2.5px;"/><path d="m659.45,789.57v22.25c0,5.71.06,9.07.17,10.1.57,5.13,2.11,7.7,4.62,7.7.57,0,1.99-.28,4.28-.86.57-.23,1.42-.34,2.57-.34,4.34,0,6.5,1.88,6.5,5.65,0,1.6-.72,2.97-2.15,4.11-1.43,1.14-3.23,1.71-5.41,1.71-1.83,0-4.61-.26-8.33-.77-3.72-.51-6.5-.77-8.33-.77-2.98,0-6.3.23-9.96.68-4.47.57-7.44.86-8.93.86-4.58,0-6.87-1.94-6.87-5.82s1.96-5.65,5.87-5.65c.92,0,2.27.17,4.06.51,1.78.34,3.14.51,4.06.51,2.76,0,4.43-3.65,5.01-10.96v-43.82c-.58-7.19-2.3-10.78-5.18-10.78-.92,0-2.22.2-3.89.6-1.67.4-2.91.6-3.71.6-4.14,0-6.22-1.82-6.22-5.48,0-3.88,2.51-5.82,7.53-5.82,2.17,0,3.71.06,4.62.17,3.65.46,5.99.68,7.02.68.91,0,2.31-.14,4.19-.43,1.88-.28,3.28-.43,4.19-.43,3.31,0,4.96,2.23,4.96,6.68,0,.46-.04,1.14-.13,2.05-.09.92-.14,1.6-.14,2.05-.09.92-.19,4.45-.28,10.61-.09,4.68-.14,9.47-.14,14.38Zm-8.9-44.84c-2.63,0-4.88-.94-6.76-2.82s-2.82-4.13-2.82-6.76.94-4.85,2.82-6.68c1.88-1.82,4.13-2.74,6.76-2.74s4.88.91,6.76,2.74c1.88,1.83,2.82,4.05,2.82,6.68s-.94,4.88-2.82,6.76-4.14,2.82-6.76,2.82Z" style="fill:#fff; stroke:#fff; stroke-linecap:square; stroke-linejoin:bevel; stroke-width:2.5px;"/><path d="m734.59,782.72c0-4.56,2.85-7.19,8.56-7.87-.57-3.99-2.48-7.13-5.73-9.41-3.25-2.28-7.45-3.42-12.58-3.42-7.88,0-14.21,3.14-19,9.41-4.79,6.28-7.19,14.61-7.19,24.99s2.25,19.14,6.76,25.25c4.51,6.11,10.75,9.16,18.74,9.16,5.02,0,9.38-1.43,13.09-4.28,3.71-2.85,6.25-6.79,7.62-11.81,1.14-3.99,1.82-6.27,2.05-6.85,1.25-2.28,3.08-3.42,5.48-3.42,1.94,0,3.54.63,4.79,1.88,1.25,1.26,1.88,2.85,1.88,4.79,0,2.85-.92,6.28-2.74,10.27-1.83,4-4,7.3-6.51,9.93-6.73,7.19-15.46,10.78-26.19,10.78-11.64,0-21.03-4.11-28.16-12.32-7.13-8.22-10.7-19-10.7-32.35,0-14.15,3.68-25.47,11.04-33.98,7.36-8.5,17.14-12.75,29.36-12.75,9.13,0,16.71,2.48,22.76,7.45,6.05,4.96,9.07,11.27,9.07,18.91,0,4.22-1.17,7.7-3.51,10.44-2.34,2.74-5.34,4.11-8.99,4.11-2.85,0-5.22-.86-7.1-2.57s-2.82-3.82-2.82-6.33Z" style="fill:#fff; stroke:#fff; stroke-linecap:square; stroke-linejoin:bevel; stroke-width:2.5px;"/><path d="m845.67,841.43c-9.36,0-15.12-4.05-17.29-12.15-5.82,8.56-14.95,12.84-27.39,12.84-9.24,0-16.63-2.28-22.16-6.85-5.54-4.56-8.3-10.67-8.3-18.31,0-9.47,4.05-16.43,12.15-20.88,3.08-1.71,5.73-2.82,7.96-3.34,2.23-.51,6.7-1.17,13.44-1.97,9.58-1.03,15.83-2.45,18.74-4.28,2.91-1.82,4.37-5.19,4.37-10.1s-1.63-8.36-4.88-11.04c-3.25-2.68-7.79-4.02-13.61-4.02-5.13,0-9.93,1.43-14.38,4.28-1.71,1.14-2.57,2.34-2.57,3.59,0,.46.51,1.03,1.54,1.71,1.6,1.14,2.4,3.08,2.4,5.82,0,2.28-.83,4.17-2.48,5.65-1.66,1.48-3.74,2.23-6.25,2.23-2.97,0-5.45-1.03-7.45-3.08-2-2.05-2.99-4.56-2.99-7.53,0-6.39,3.17-11.87,9.5-16.43,6.33-4.56,14.01-6.85,23.02-6.85,20.77,0,31.15,9.96,31.15,29.89v34.5c0,5.47.11,8.71.34,9.74.69,3.99,2.62,5.98,5.82,5.98,3.99,0,5.99-3.63,5.99-10.88v-8.33c0-3.63,1.74-5.44,5.22-5.44,3.71,0,5.56,2.74,5.56,8.22v10.61c-.23,10.95-6.05,16.43-17.46,16.43Zm-19-34.06v-12.15c-2.5,2.28-5.14,3.88-7.93,4.79-2.79.92-7.76,1.71-14.92,2.4-12.96,1.26-19.43,6.05-19.43,14.38,0,4.34,1.57,7.76,4.71,10.27,3.14,2.51,7.39,3.77,12.75,3.77,7.64,0,13.66-2.08,18.06-6.25,4.39-4.16,6.65-9.9,6.76-17.2Z" style="fill:#fff; stroke:#fff; stroke-linecap:square; stroke-linejoin:bevel; stroke-width:2.5px;"/><path d="m949.74,750.72c11.3,0,19.74,4.39,25.33,13.18v-17.29c0-4.56-.12-7.36-.34-8.39-.57-3.54-2.17-5.31-4.79-5.31-.91,0-2.2.17-3.85.51s-2.94.51-3.85.51c-4.22,0-6.33-1.82-6.33-5.48s2.85-5.65,8.56-5.65c.91,0,2.57.12,4.96.34,3.65.34,5.53.51,5.65.51,1.03,0,2.51-.14,4.45-.43,1.94-.28,3.42-.43,4.45-.43,3.19,0,4.79,2.29,4.79,6.86v1.89c-.12.34-.23,3.38-.34,9.09,0,.69-.17,5.09-.51,13.2-.23,5.72-.34,10.06-.34,13.03v45.43c.12,7.54.46,12.23,1.04,14.06.58,1.83,1.97,2.74,4.18,2.74,1.51,0,2.67-.11,3.49-.34,1.86-.23,3.14-.34,3.84-.34,4.3,0,6.45,1.88,6.45,5.65s-2.57,5.82-7.7,5.82c-1.14,0-2.88-.14-5.22-.43-2.34-.28-4.08-.43-5.22-.43-.34,0-1.66.11-3.94.34-1.37.34-2.57.51-3.59.51-3.08,0-4.62-2.05-4.62-6.16v-3.77c-6.03,8.1-14.79,12.15-26.29,12.15s-20.94-4.22-28-12.67c-7.05-8.44-10.58-19.51-10.58-33.21s3.48-24.84,10.44-33.12c6.96-8.27,16.26-12.41,27.9-12.41Zm24.64,60.42c.46-3.77.69-8.61.69-14.55,0-7.64-.29-12.84-.86-15.58-1.04-5.7-3.51-10.15-7.41-13.35-4.6-3.77-9.88-5.65-15.86-5.65-8.04,0-14.33,3.02-18.87,9.07-4.54,6.05-6.81,14.32-6.81,24.82s2.35,19.37,7.07,25.59c4.71,6.22,11.14,9.33,19.3,9.33,6.21,0,11.37-1.8,15.51-5.39,4.13-3.59,6.55-8.36,7.24-14.29Z" style="fill:#fff; stroke:#fff; stroke-linecap:square; stroke-linejoin:bevel; stroke-width:2.5px;"/><path d="m1087.7,841.43c-9.36,0-15.12-4.05-17.29-12.15-5.82,8.56-14.95,12.84-27.39,12.84-9.24,0-16.63-2.28-22.16-6.85-5.54-4.56-8.3-10.67-8.3-18.31,0-9.47,4.05-16.43,12.15-20.88,3.08-1.71,5.73-2.82,7.96-3.34,2.23-.51,6.7-1.17,13.44-1.97,9.58-1.03,15.83-2.45,18.74-4.28,2.91-1.82,4.37-5.19,4.37-10.1s-1.63-8.36-4.88-11.04c-3.25-2.68-7.79-4.02-13.61-4.02-5.13,0-9.93,1.43-14.38,4.28-1.71,1.14-2.57,2.34-2.57,3.59,0,.46.51,1.03,1.54,1.71,1.6,1.14,2.4,3.08,2.4,5.82,0,2.28-.83,4.17-2.48,5.65-1.66,1.48-3.74,2.23-6.25,2.23-2.97,0-5.45-1.03-7.45-3.08-2-2.05-2.99-4.56-2.99-7.53,0-6.39,3.17-11.87,9.5-16.43,6.33-4.56,14.01-6.85,23.02-6.85,20.77,0,31.15,9.96,31.15,29.89v34.5c0,5.47.11,8.71.34,9.74.69,3.99,2.62,5.98,5.82,5.98,3.99,0,5.99-3.63,5.99-10.88v-8.33c0-3.63,1.74-5.44,5.22-5.44,3.71,0,5.56,2.74,5.56,8.22v10.61c-.23,10.95-6.05,16.43-17.46,16.43Zm-19-34.06v-12.15c-2.5,2.28-5.14,3.88-7.93,4.79-2.79.92-7.76,1.71-14.92,2.4-12.96,1.26-19.43,6.05-19.43,14.38,0,4.34,1.57,7.76,4.71,10.27,3.14,2.51,7.39,3.77,12.75,3.77,7.64,0,13.66-2.08,18.06-6.25,4.39-4.16,6.65-9.9,6.76-17.2Z" style="fill:#fff; stroke:#fff; stroke-linecap:square; stroke-linejoin:bevel; stroke-width:2.5px;"/><path d="m1178.92,773.7l20.03,53.69,19.34-53.4c1.14-3.19,1.71-5.25,1.71-6.16,0-2.51-1.2-3.77-3.6-3.77-.91,0-2.25.17-4.02.51-1.77.34-3.11.51-4.02.51-3.77,0-5.65-1.85-5.65-5.57,0-3.93,2.74-5.9,8.22-5.9h1.37c.57.08,1.03.12,1.37.12l7.19.73c1.6.46,3.25.68,4.96.68,2.28,0,6.05-.32,11.3-.96,3.19-.38,5.48-.58,6.85-.58,4.9,0,7.36,1.91,7.36,5.73s-2,5.73-5.99,5.73c-1.26,0-2.17-.14-2.74-.41-1.71-.41-2.91-.62-3.59-.62-2.05,0-4.17,2.75-6.33,8.23l-24.13,61.75c-2.05,5.26-5.54,7.89-10.44,7.89s-8.04-2.64-10.1-7.91l-24.65-63.61c-1.6-4.24-3.48-6.36-5.65-6.36-.8,0-2,.17-3.59.51-1.6.34-2.8.51-3.59.51-3.77,0-5.65-1.77-5.65-5.31,0-4.11,2.62-6.16,7.87-6.16.91,0,1.6.06,2.05.17l7.19.91c2.4.3,4.79.46,7.19.46,1.94,0,4.79-.22,8.56-.66l5.65-.66c.57-.14,1.37-.22,2.4-.22,5.02,0,7.53,1.97,7.53,5.91,0,3.71-2.17,5.56-6.51,5.56-1.37,0-2.34-.07-2.91-.21-2.17-.55-3.54-.82-4.11-.82-1.83,0-2.74.81-2.74,2.41,0,.8.23,1.95.69,3.44l1.2,3.79Z" style="fill:#fff; stroke:#fff; stroke-linecap:square; stroke-linejoin:bevel; stroke-width:2.5px;"/><path d="m1331.6,788.89c0,4.34-.29,6.99-.86,7.96-.57.97-2.22,1.45-4.96,1.45h-54.43c-1.48,0-2.46.2-2.91.6-.46.4-.69,1.06-.69,1.97,0,8.56,2.57,15.69,7.7,21.4,5.13,5.71,11.52,8.56,19.17,8.56,5.02,0,9.61-1.37,13.78-4.11,4.16-2.74,6.87-6.22,8.13-10.44l1.54-4.96c.8-2.74,2.68-4.11,5.65-4.11,4.22,0,6.33,2.17,6.33,6.5,0,7.42-3.77,14.01-11.3,19.77-7.53,5.76-16.09,8.64-25.68,8.64-11.98,0-21.51-4.02-28.58-12.07-7.08-8.04-10.61-18.85-10.61-32.44s3.77-25.22,11.3-33.89c7.53-8.67,17.34-13.01,29.44-13.01,10.72,0,19.57,3.59,26.53,10.78,6.96,7.19,10.44,16.32,10.44,27.39Zm-62.13-4.45c0,1.6,1.25,2.4,3.77,2.4h40.91c2.39,0,3.59-.8,3.59-2.4,0-6.05-2.28-11.3-6.85-15.75-4.57-4.45-9.93-6.68-16.09-6.68s-12.21,2.31-17.46,6.93c-5.25,4.62-7.87,9.79-7.87,15.49Z" style="fill:#fff; stroke:#fff; stroke-linecap:square; stroke-linejoin:bevel; stroke-width:2.5px;"/><path d="m1347.86,821.84l55.8-56.75h-26.19c-8.56,0-13.92.26-16.09.77-2.17.51-3.25,1.86-3.25,4.02,0,.91.11,1.94.34,3.08.57,2.97.86,5.76.86,8.39,0,4.34-1.88,6.5-5.65,6.5s-5.82-2.51-5.82-7.53c0-2.17.06-3.65.17-4.45.46-3.42.69-5.88.69-7.36,0-1.14-.14-2.82-.43-5.05-.29-2.23-.43-3.91-.43-5.05,0-3.54,2.84-5.31,8.51-5.31,1.81,0,4.25.08,7.32.23,3.52.3,5.96.46,7.32.46h39.15c7.19,0,10.78,2.64,10.78,7.91,0,2.41-2.16,5.79-6.47,10.14l-55.15,56.23h40.74c6.73,0,10.1-1.96,10.1-5.89v-3.29c0-1.96-.12-3.64-.34-5.02-.23-4.39-.34-6.47-.34-6.24,0-1.96.57-3.61,1.71-4.94,1.14-1.33,2.57-2,4.28-2,3.65,0,5.48,2.17,5.48,6.5,0,1.94-.12,3.94-.34,5.99-.46,4.11-.69,7.08-.69,8.9,0,1.26.17,3.08.51,5.48.34,2.4.51,4.22.51,5.48,0,4.45-2.52,6.62-7.55,6.5h-59.87c-2.86,0-5.21-.86-7.03-2.58-1.83-1.72-2.74-3.9-2.74-6.54,0-2.98,1.37-5.84,4.11-8.59Z" style="fill:#fff; stroke:#fff; stroke-linecap:square; stroke-linejoin:bevel; stroke-width:2.5px;"/><path d="m148.54,816.47v-68.51c0-8.43-2.89-12.64-8.66-12.64-.91,0-2.1.09-3.57.27-2.15.28-3.68.41-4.59.41-3.62,0-5.44-1.88-5.44-5.65,0-3.99,2.51-5.99,7.52-5.99.8,0,1.65.06,2.57.17l8.37,1.03c2.73.34,6.15.51,10.25.51,2.85,0,6.27-.17,10.25-.51,9.34-.8,16.4-1.2,21.19-1.2,7.29,0,13.55.57,18.8,1.71,7.52,1.6,13.41,5.13,17.69,10.61,4.27,5.48,6.41,12.1,6.41,19.85,0,10.73-3.68,18.94-11.04,24.65-7.36,5.71-18,8.56-31.92,8.56h-19.17c-1.83,0-2.99.31-3.51.94s-.77,2.07-.77,4.34v3.41c0,14.43.43,23.18,1.29,26.25.86,3.07,3.34,4.6,7.45,4.6,1.25,0,2.45-.17,3.59-.51,2.51-.23,4.05-.34,4.62-.34,3.54,0,5.31,1.83,5.31,5.48,0,4.11-2.51,6.16-7.53,6.16l-2.4-.34-8.56-1.2c-2.4-.34-5.99-.51-10.78-.51-4,0-7.25.17-9.76.51l-9.93,1.37c-.23,0-.57.06-1.03.17h-1.2c-5.13,0-7.7-2-7.7-5.99,0-1.6.51-2.94,1.54-4.02,1.03-1.08,2.28-1.63,3.77-1.63,1.25,0,2.79.17,4.62.51.8.23,2,.34,3.59.34,5.82,0,8.73-4.27,8.73-12.81Zm15.58-77.56c-.8,1.14-1.2,4.28-1.2,9.41v25.33c0,3.08,2.17,4.85,6.5,5.31-.34,0,2.97,0,9.93,0,8.1,0,14.83-.63,20.2-1.88,10.15-2.4,15.23-9.07,15.23-20.03,0-14.49-9.24-21.74-27.73-21.74-13.69,0-21.34,1.2-22.94,3.59Z" style="stroke:#000; stroke-linecap:square; stroke-linejoin:bevel; stroke-width:2.5px;"/><path d="m275.54,842.12c-11.98,0-21.57-4.13-28.76-12.41-7.19-8.27-10.78-19.37-10.78-33.29s3.62-25.02,10.87-33.29c7.24-8.27,16.97-12.41,29.18-12.41s22.25,4.05,29.44,12.15c7.19,8.1,10.78,19.11,10.78,33.04s-3.71,25.1-11.13,33.55c-7.42,8.45-17.29,12.67-29.61,12.67Zm.86-80.1c-7.99,0-14.27,2.8-18.83,8.39-4.56,5.59-7.08,13.52-7.53,23.79v2.22c0,10.73,2.25,19.14,6.76,25.25,4.51,6.11,10.81,9.16,18.91,9.16s14.86-3.05,19.6-9.16c4.73-6.1,7.1-14.58,7.1-25.42,0-22.82-8.67-34.23-26.02-34.23Z" style="stroke:#000; stroke-linecap:square; stroke-linejoin:bevel; stroke-width:2.5px;"/><path d="m356.5,767.76v53.15c.12,5.81,1.67,8.72,4.67,8.72.69,0,2.13-.28,4.32-.86,1.38-.23,2.31-.34,2.77-.34,3.8,0,5.71,1.94,5.71,5.82s-2.33,5.65-6.99,5.65c-1.82,0-4.72-.23-8.7-.68-3.98-.46-7.05-.68-9.21-.68-1.82,0-4.55.23-8.19.68-3.64.46-6.31.68-8.02.68h-.85c-4.78,0-7.16-2.05-7.16-6.16,0-3.54,1.96-5.31,5.87-5.31h1.21c.69.16,1.21.24,1.56.24,2.88.64,4.54.96,5.01.96,2.07,0,3.37-.89,3.89-2.66s.83-6.38.95-13.83l.17-12.02v-57.2c-.12-3.43-.29-5.72-.51-6.87-.8-2.63-2.4-3.95-4.79-3.95-.34,0-1.83.23-4.45.69-1.26.23-2.29.34-3.08.34-3.88,0-5.82-1.82-5.82-5.48s2.28-5.65,6.85-5.65c1.25,0,2.34.06,3.25.17l4.11.51c1.82.23,3.37.34,4.62.34,1.14,0,2.85-.17,5.13-.51,2.28-.34,3.99-.51,5.13-.51,2.62,0,3.94,1.65,3.94,4.96,0,1.14-.06,2-.17,2.56-.8,8.77-1.2,21.19-1.2,37.25Z" style="stroke:#000; stroke-linecap:square; stroke-linejoin:bevel; stroke-width:2.5px;"/><path d="m460.22,788.89c0,4.34-.29,6.99-.86,7.96-.57.97-2.22,1.45-4.96,1.45h-54.43c-1.48,0-2.46.2-2.91.6-.46.4-.69,1.06-.69,1.97,0,8.56,2.57,15.69,7.7,21.4,5.13,5.71,11.52,8.56,19.17,8.56,5.02,0,9.61-1.37,13.78-4.11,4.16-2.74,6.87-6.22,8.13-10.44l1.54-4.96c.8-2.74,2.68-4.11,5.65-4.11,4.22,0,6.33,2.17,6.33,6.5,0,7.42-3.77,14.01-11.3,19.77-7.53,5.76-16.09,8.64-25.68,8.64-11.98,0-21.51-4.02-28.58-12.07-7.08-8.04-10.61-18.85-10.61-32.44s3.77-25.22,11.3-33.89c7.53-8.67,17.34-13.01,29.44-13.01,10.72,0,19.57,3.59,26.53,10.78,6.96,7.19,10.44,16.32,10.44,27.39Zm-17.46-48.44l-19.17-8.9-19,8.9c-2.97,1.37-4.96,2.05-5.99,2.05-2.4,0-3.6-.97-3.6-2.91,0-1.03,1.26-2.45,3.77-4.28l21.57-15.23c1.14-.8,2.23-1.2,3.25-1.2.91,0,2.05.4,3.42,1.2l21.57,15.23c.8.57,1.65,1.2,2.57,1.88.57.46.91,1.14,1.03,2.05v.34c0,1.94-1.14,2.91-3.42,2.91-1.03,0-3.03-.68-5.99-2.05Zm-44.67,43.99c0,1.6,1.25,2.4,3.77,2.4h40.91c2.39,0,3.59-.8,3.59-2.4,0-6.05-2.28-11.3-6.85-15.75-4.57-4.45-9.93-6.68-16.09-6.68s-12.21,2.31-17.46,6.93c-5.25,4.62-7.87,9.79-7.87,15.49Z" style="stroke:#000; stroke-linecap:square; stroke-linejoin:bevel; stroke-width:2.5px;"/><path d="m498.56,758.76v4.96c4.11-4.91,7.99-8.3,11.64-10.18s8.22-2.82,13.69-2.82c11.18,0,19.4,4.34,24.65,13.01,3.88-4.79,7.81-8.16,11.81-10.1,3.99-1.94,9.13-2.91,15.4-2.91s12.32,1.37,17.46,4.12c5.7,3.09,9.64,7.43,11.81,13.04,1.48,3.77,2.23,9.72,2.23,17.84v29.5c0,4.69.05,7.55.17,8.58.56,4.12,2.03,6.17,4.41,6.17.79,0,1.98-.2,3.56-.6,1.58-.4,2.77-.6,3.56-.6,3.95,0,5.93,1.71,5.93,5.13,0,4-2.28,5.99-6.85,5.99-1.71,0-4.31-.2-7.79-.6-3.48-.4-6.13-.6-7.96-.6-1.94,0-4.77.2-8.47.6-3.71.4-6.53.6-8.47.6-4.79,0-7.19-2-7.19-5.99,0-3.42,1.82-5.13,5.48-5.13.46,0,1.6.11,3.42.34.68.23,1.6.34,2.74.34,1.94,0,3.17-.97,3.68-2.91.51-1.94.83-6.79.94-14.55v-21.74c0-7.87-.6-13.61-1.79-17.2s-3.44-6.42-6.73-8.47-7.04-3.08-11.25-3.08c-8.07,0-13.69,2.8-16.87,8.39-2.5,4.45-3.75,12.21-3.75,23.28v12.15c0,10.73.26,17.43.77,20.11.51,2.68,1.85,4.02,4.02,4.02.68,0,1.68-.11,2.99-.34,1.31-.23,2.31-.34,3-.34,1.6,0,2.94.53,4.02,1.6,1.08,1.07,1.62,2.39,1.62,3.96,0,3.71-2.68,5.56-8.04,5.56-1.71,0-4.25-.23-7.62-.68-3.37-.46-5.9-.68-7.62-.68-2.4,0-5.02.23-7.88.68-2.85.46-5.36.68-7.53.68-4.68,0-7.02-1.94-7.02-5.82,0-3.54,1.71-5.31,5.14-5.31,1.25,0,2.22.16,2.91.48,1.6.48,2.79.72,3.6.72,2.74,0,4.16-2.92,4.28-8.77l.51-8.09v-24.94c0-9.98-1.34-16.92-4.02-20.81-2.68-3.9-7.45-5.85-14.29-5.85-7.53,0-13.29,2.75-17.29,8.26-3.31,4.47-4.96,12.27-4.96,23.4v22.88c0,4.59.06,7.28.17,8.08.45,3.9,1.71,5.85,3.77,5.85.57,0,1.77-.32,3.59-.96.23,0,.57-.08,1.03-.24h1.2c4.45,0,6.68,1.88,6.68,5.65s-2.57,5.48-7.7,5.48c-1.94,0-4.34-.17-7.19-.51-3.88-.45-7.19-.68-9.93-.68-1.37,0-3.88.17-7.53.51-4.91.46-7.87.68-8.9.68-4.57,0-6.85-1.94-6.85-5.82,0-3.54,2.21-5.31,6.62-5.31h1.05c.46.11.81.17,1.04.17l4.36.86c.12.12.35.17.7.17,3.14,0,4.82-2.79,5.05-8.39v-35.94c0-9.7-.26-15.75-.77-18.14s-1.91-3.59-4.19-3.59c-.46,0-2.05.29-4.79.86-1.14.23-2.05.34-2.74.34-4.22,0-6.33-1.82-6.33-5.48,0-3.88,2.34-5.82,7.02-5.82,1.26,0,2.97.12,5.14.34,2.17.23,4.05.34,5.65.34h3.08l4.11-.68h.51c2.74,0,4.11,1.66,4.11,4.96Z" style="stroke:#000; stroke-linecap:square; stroke-linejoin:bevel; stroke-width:2.5px;"/><path d="m659.45,789.57v22.25c0,5.71.06,9.07.17,10.1.57,5.13,2.11,7.7,4.62,7.7.57,0,1.99-.28,4.28-.86.57-.23,1.42-.34,2.57-.34,4.34,0,6.5,1.88,6.5,5.65,0,1.6-.72,2.97-2.15,4.11-1.43,1.14-3.23,1.71-5.41,1.71-1.83,0-4.61-.26-8.33-.77-3.72-.51-6.5-.77-8.33-.77-2.98,0-6.3.23-9.96.68-4.47.57-7.44.86-8.93.86-4.58,0-6.87-1.94-6.87-5.82s1.96-5.65,5.87-5.65c.92,0,2.27.17,4.06.51,1.78.34,3.14.51,4.06.51,2.76,0,4.43-3.65,5.01-10.96v-43.82c-.58-7.19-2.3-10.78-5.18-10.78-.92,0-2.22.2-3.89.6-1.67.4-2.91.6-3.71.6-4.14,0-6.22-1.82-6.22-5.48,0-3.88,2.51-5.82,7.53-5.82,2.17,0,3.71.06,4.62.17,3.65.46,5.99.68,7.02.68.91,0,2.31-.14,4.19-.43,1.88-.28,3.28-.43,4.19-.43,3.31,0,4.96,2.23,4.96,6.68,0,.46-.04,1.14-.13,2.05-.09.92-.14,1.6-.14,2.05-.09.92-.19,4.45-.28,10.61-.09,4.68-.14,9.47-.14,14.38Zm-8.9-44.84c-2.63,0-4.88-.94-6.76-2.82s-2.82-4.13-2.82-6.76.94-4.85,2.82-6.68c1.88-1.82,4.13-2.74,6.76-2.74s4.88.91,6.76,2.74c1.88,1.83,2.82,4.05,2.82,6.68s-.94,4.88-2.82,6.76-4.14,2.82-6.76,2.82Z" style="stroke:#000; stroke-linecap:square; stroke-linejoin:bevel; stroke-width:2.5px;"/><path d="m734.59,782.72c0-4.56,2.85-7.19,8.56-7.87-.57-3.99-2.48-7.13-5.73-9.41-3.25-2.28-7.45-3.42-12.58-3.42-7.88,0-14.21,3.14-19,9.41-4.79,6.28-7.19,14.61-7.19,24.99s2.25,19.14,6.76,25.25c4.51,6.11,10.75,9.16,18.74,9.16,5.02,0,9.38-1.43,13.09-4.28,3.71-2.85,6.25-6.79,7.62-11.81,1.14-3.99,1.82-6.27,2.05-6.85,1.25-2.28,3.08-3.42,5.48-3.42,1.94,0,3.54.63,4.79,1.88,1.25,1.26,1.88,2.85,1.88,4.79,0,2.85-.92,6.28-2.74,10.27-1.83,4-4,7.3-6.51,9.93-6.73,7.19-15.46,10.78-26.19,10.78-11.64,0-21.03-4.11-28.16-12.32-7.13-8.22-10.7-19-10.7-32.35,0-14.15,3.68-25.47,11.04-33.98,7.36-8.5,17.14-12.75,29.36-12.75,9.13,0,16.71,2.48,22.76,7.45,6.05,4.96,9.07,11.27,9.07,18.91,0,4.22-1.17,7.7-3.51,10.44-2.34,2.74-5.34,4.11-8.99,4.11-2.85,0-5.22-.86-7.1-2.57s-2.82-3.82-2.82-6.33Z" style="stroke:#000; stroke-linecap:square; stroke-linejoin:bevel; stroke-width:2.5px;"/><path d="m845.67,841.43c-9.36,0-15.12-4.05-17.29-12.15-5.82,8.56-14.95,12.84-27.39,12.84-9.24,0-16.63-2.28-22.16-6.85-5.54-4.56-8.3-10.67-8.3-18.31,0-9.47,4.05-16.43,12.15-20.88,3.08-1.71,5.73-2.82,7.96-3.34,2.23-.51,6.7-1.17,13.44-1.97,9.58-1.03,15.83-2.45,18.74-4.28,2.91-1.82,4.37-5.19,4.37-10.1s-1.63-8.36-4.88-11.04c-3.25-2.68-7.79-4.02-13.61-4.02-5.13,0-9.93,1.43-14.38,4.28-1.71,1.14-2.57,2.34-2.57,3.59,0,.46.51,1.03,1.54,1.71,1.6,1.14,2.4,3.08,2.4,5.82,0,2.28-.83,4.17-2.48,5.65-1.66,1.48-3.74,2.23-6.25,2.23-2.97,0-5.45-1.03-7.45-3.08-2-2.05-2.99-4.56-2.99-7.53,0-6.39,3.17-11.87,9.5-16.43,6.33-4.56,14.01-6.85,23.02-6.85,20.77,0,31.15,9.96,31.15,29.89v34.5c0,5.47.11,8.71.34,9.74.69,3.99,2.62,5.98,5.82,5.98,3.99,0,5.99-3.63,5.99-10.88v-8.33c0-3.63,1.74-5.44,5.22-5.44,3.71,0,5.56,2.74,5.56,8.22v10.61c-.23,10.95-6.05,16.43-17.46,16.43Zm-19-34.06v-12.15c-2.5,2.28-5.14,3.88-7.93,4.79-2.79.92-7.76,1.71-14.92,2.4-12.96,1.26-19.43,6.05-19.43,14.38,0,4.34,1.57,7.76,4.71,10.27,3.14,2.51,7.39,3.77,12.75,3.77,7.64,0,13.66-2.08,18.06-6.25,4.39-4.16,6.65-9.9,6.76-17.2Z" style="stroke:#000; stroke-linecap:square; stroke-linejoin:bevel; stroke-width:2.5px;"/><path d="m949.74,750.72c11.3,0,19.74,4.39,25.33,13.18v-17.29c0-4.56-.12-7.36-.34-8.39-.57-3.54-2.17-5.31-4.79-5.31-.91,0-2.2.17-3.85.51s-2.94.51-3.85.51c-4.22,0-6.33-1.82-6.33-5.48s2.85-5.65,8.56-5.65c.91,0,2.57.12,4.96.34,3.65.34,5.53.51,5.65.51,1.03,0,2.51-.14,4.45-.43,1.94-.28,3.42-.43,4.45-.43,3.19,0,4.79,2.29,4.79,6.86v1.89c-.12.34-.23,3.38-.34,9.09,0,.69-.17,5.09-.51,13.2-.23,5.72-.34,10.06-.34,13.03v45.43c.12,7.54.46,12.23,1.04,14.06.58,1.83,1.97,2.74,4.18,2.74,1.51,0,2.67-.11,3.49-.34,1.86-.23,3.14-.34,3.84-.34,4.3,0,6.45,1.88,6.45,5.65s-2.57,5.82-7.7,5.82c-1.14,0-2.88-.14-5.22-.43-2.34-.28-4.08-.43-5.22-.43-.34,0-1.66.11-3.94.34-1.37.34-2.57.51-3.59.51-3.08,0-4.62-2.05-4.62-6.16v-3.77c-6.03,8.1-14.79,12.15-26.29,12.15s-20.94-4.22-28-12.67c-7.05-8.44-10.58-19.51-10.58-33.21s3.48-24.84,10.44-33.12c6.96-8.27,16.26-12.41,27.9-12.41Zm24.64,60.42c.46-3.77.69-8.61.69-14.55,0-7.64-.29-12.84-.86-15.58-1.04-5.7-3.51-10.15-7.41-13.35-4.6-3.77-9.88-5.65-15.86-5.65-8.04,0-14.33,3.02-18.87,9.07-4.54,6.05-6.81,14.32-6.81,24.82s2.35,19.37,7.07,25.59c4.71,6.22,11.14,9.33,19.3,9.33,6.21,0,11.37-1.8,15.51-5.39,4.13-3.59,6.55-8.36,7.24-14.29Z" style="stroke:#000; stroke-linecap:square; stroke-linejoin:bevel; stroke-width:2.5px;"/><path d="m1087.7,841.43c-9.36,0-15.12-4.05-17.29-12.15-5.82,8.56-14.95,12.84-27.39,12.84-9.24,0-16.63-2.28-22.16-6.85-5.54-4.56-8.3-10.67-8.3-18.31,0-9.47,4.05-16.43,12.15-20.88,3.08-1.71,5.73-2.82,7.96-3.34,2.23-.51,6.7-1.17,13.44-1.97,9.58-1.03,15.83-2.45,18.74-4.28,2.91-1.82,4.37-5.19,4.37-10.1s-1.63-8.36-4.88-11.04c-3.25-2.68-7.79-4.02-13.61-4.02-5.13,0-9.93,1.43-14.38,4.28-1.71,1.14-2.57,2.34-2.57,3.59,0,.46.51,1.03,1.54,1.71,1.6,1.14,2.4,3.08,2.4,5.82,0,2.28-.83,4.17-2.48,5.65-1.66,1.48-3.74,2.23-6.25,2.23-2.97,0-5.45-1.03-7.45-3.08-2-2.05-2.99-4.56-2.99-7.53,0-6.39,3.17-11.87,9.5-16.43,6.33-4.56,14.01-6.85,23.02-6.85,20.77,0,31.15,9.96,31.15,29.89v34.5c0,5.47.11,8.71.34,9.74.69,3.99,2.62,5.98,5.82,5.98,3.99,0,5.99-3.63,5.99-10.88v-8.33c0-3.63,1.74-5.44,5.22-5.44,3.71,0,5.56,2.74,5.56,8.22v10.61c-.23,10.95-6.05,16.43-17.46,16.43Zm-19-34.06v-12.15c-2.5,2.28-5.14,3.88-7.93,4.79-2.79.92-7.76,1.71-14.92,2.4-12.96,1.26-19.43,6.05-19.43,14.38,0,4.34,1.57,7.76,4.71,10.27,3.14,2.51,7.39,3.77,12.75,3.77,7.64,0,13.66-2.08,18.06-6.25,4.39-4.16,6.65-9.9,6.76-17.2Z" style="stroke:#000; stroke-linecap:square; stroke-linejoin:bevel; stroke-width:2.5px;"/><path d="m1178.92,773.7l20.03,53.69,19.34-53.4c1.14-3.19,1.71-5.25,1.71-6.16,0-2.51-1.2-3.77-3.6-3.77-.91,0-2.25.17-4.02.51-1.77.34-3.11.51-4.02.51-3.77,0-5.65-1.85-5.65-5.57,0-3.93,2.74-5.9,8.22-5.9h1.37c.57.08,1.03.12,1.37.12l7.19.73c1.6.46,3.25.68,4.96.68,2.28,0,6.05-.32,11.3-.96,3.19-.38,5.48-.58,6.85-.58,4.9,0,7.36,1.91,7.36,5.73s-2,5.73-5.99,5.73c-1.26,0-2.17-.14-2.74-.41-1.71-.41-2.91-.62-3.59-.62-2.05,0-4.17,2.75-6.33,8.23l-24.13,61.75c-2.05,5.26-5.54,7.89-10.44,7.89s-8.04-2.64-10.1-7.91l-24.65-63.61c-1.6-4.24-3.48-6.36-5.65-6.36-.8,0-2,.17-3.59.51-1.6.34-2.8.51-3.59.51-3.77,0-5.65-1.77-5.65-5.31,0-4.11,2.62-6.16,7.87-6.16.91,0,1.6.06,2.05.17l7.19.91c2.4.3,4.79.46,7.19.46,1.94,0,4.79-.22,8.56-.66l5.65-.66c.57-.14,1.37-.22,2.4-.22,5.02,0,7.53,1.97,7.53,5.91,0,3.71-2.17,5.56-6.51,5.56-1.37,0-2.34-.07-2.91-.21-2.17-.55-3.54-.82-4.11-.82-1.83,0-2.74.81-2.74,2.41,0,.8.23,1.95.69,3.44l1.2,3.79Z" style="stroke:#000; stroke-linecap:square; stroke-linejoin:bevel; stroke-width:2.5px;"/><path d="m1331.6,788.89c0,4.34-.29,6.99-.86,7.96-.57.97-2.22,1.45-4.96,1.45h-54.43c-1.48,0-2.46.2-2.91.6-.46.4-.69,1.06-.69,1.97,0,8.56,2.57,15.69,7.7,21.4,5.13,5.71,11.52,8.56,19.17,8.56,5.02,0,9.61-1.37,13.78-4.11,4.16-2.74,6.87-6.22,8.13-10.44l1.54-4.96c.8-2.74,2.68-4.11,5.65-4.11,4.22,0,6.33,2.17,6.33,6.5,0,7.42-3.77,14.01-11.3,19.77-7.53,5.76-16.09,8.64-25.68,8.64-11.98,0-21.51-4.02-28.58-12.07-7.08-8.04-10.61-18.85-10.61-32.44s3.77-25.22,11.3-33.89c7.53-8.67,17.34-13.01,29.44-13.01,10.72,0,19.57,3.59,26.53,10.78,6.96,7.19,10.44,16.32,10.44,27.39Zm-62.13-4.45c0,1.6,1.25,2.4,3.77,2.4h40.91c2.39,0,3.59-.8,3.59-2.4,0-6.05-2.28-11.3-6.85-15.75-4.57-4.45-9.93-6.68-16.09-6.68s-12.21,2.31-17.46,6.93c-5.25,4.62-7.87,9.79-7.87,15.49Z" style="stroke:#000; stroke-linecap:square; stroke-linejoin:bevel; stroke-width:2.5px;"/><path d="m1347.86,821.84l55.8-56.75h-26.19c-8.56,0-13.92.26-16.09.77-2.17.51-3.25,1.86-3.25,4.02,0,.91.11,1.94.34,3.08.57,2.97.86,5.76.86,8.39,0,4.34-1.88,6.5-5.65,6.5s-5.82-2.51-5.82-7.53c0-2.17.06-3.65.17-4.45.46-3.42.69-5.88.69-7.36,0-1.14-.14-2.82-.43-5.05-.29-2.23-.43-3.91-.43-5.05,0-3.54,2.84-5.31,8.51-5.31,1.81,0,4.25.08,7.32.23,3.52.3,5.96.46,7.32.46h39.15c7.19,0,10.78,2.64,10.78,7.91,0,2.41-2.16,5.79-6.47,10.14l-55.15,56.23h40.74c6.73,0,10.1-1.96,10.1-5.89v-3.29c0-1.96-.12-3.64-.34-5.02-.23-4.39-.34-6.47-.34-6.24,0-1.96.57-3.61,1.71-4.94,1.14-1.33,2.57-2,4.28-2,3.65,0,5.48,2.17,5.48,6.5,0,1.94-.12,3.94-.34,5.99-.46,4.11-.69,7.08-.69,8.9,0,1.26.17,3.08.51,5.48.34,2.4.51,4.22.51,5.48,0,4.45-2.52,6.62-7.55,6.5h-59.87c-2.86,0-5.21-.86-7.03-2.58-1.83-1.72-2.74-3.9-2.74-6.54,0-2.98,1.37-5.84,4.11-8.59Z" style="stroke:#000; stroke-linecap:square; stroke-linejoin:bevel; stroke-width:2.5px;"/><path d="m141.04,808.97v-68.51c0-8.43-2.89-12.64-8.66-12.64-.91,0-2.1.09-3.57.27-2.15.28-3.68.41-4.59.41-3.62,0-5.44-1.88-5.44-5.65,0-3.99,2.51-5.99,7.52-5.99.8,0,1.65.06,2.57.17l8.37,1.03c2.73.34,6.15.51,10.25.51,2.85,0,6.27-.17,10.25-.51,9.34-.8,16.4-1.2,21.19-1.2,7.29,0,13.55.57,18.8,1.71,7.52,1.6,13.41,5.13,17.69,10.61,4.27,5.48,6.41,12.1,6.41,19.85,0,10.73-3.68,18.94-11.04,24.65-7.36,5.71-18,8.56-31.92,8.56h-19.17c-1.83,0-2.99.31-3.51.94s-.77,2.07-.77,4.34v3.41c0,14.43.43,23.18,1.29,26.25.86,3.07,3.34,4.6,7.45,4.6,1.25,0,2.45-.17,3.59-.51,2.51-.23,4.05-.34,4.62-.34,3.54,0,5.31,1.83,5.31,5.48,0,4.11-2.51,6.16-7.53,6.16l-2.4-.34-8.56-1.2c-2.4-.34-5.99-.51-10.78-.51-4,0-7.25.17-9.76.51l-9.93,1.37c-.23,0-.57.06-1.03.17h-1.2c-5.13,0-7.7-2-7.7-5.99,0-1.6.51-2.94,1.54-4.02,1.03-1.08,2.28-1.63,3.77-1.63,1.25,0,2.79.17,4.62.51.8.23,2,.34,3.59.34,5.82,0,8.73-4.27,8.73-12.81Zm15.58-77.56c-.8,1.14-1.2,4.28-1.2,9.41v25.33c0,3.08,2.17,4.85,6.5,5.31-.34,0,2.97,0,9.93,0,8.1,0,14.83-.63,20.2-1.88,10.15-2.4,15.23-9.07,15.23-20.03,0-14.49-9.24-21.74-27.73-21.74-13.69,0-21.34,1.2-22.94,3.59Z" style="fill:#3a7ca5; stroke:#000; stroke-linecap:square; stroke-linejoin:bevel; stroke-width:2.5px;"/><path d="m268.04,834.62c-11.98,0-21.57-4.13-28.76-12.41-7.19-8.27-10.78-19.37-10.78-33.29s3.62-25.02,10.87-33.29c7.24-8.27,16.97-12.41,29.18-12.41s22.25,4.05,29.44,12.15c7.19,8.1,10.78,19.11,10.78,33.04s-3.71,25.1-11.13,33.55c-7.42,8.45-17.29,12.67-29.61,12.67Zm.86-80.1c-7.99,0-14.27,2.8-18.83,8.39-4.56,5.59-7.08,13.52-7.53,23.79v2.22c0,10.73,2.25,19.14,6.76,25.25,4.51,6.11,10.81,9.16,18.91,9.16s14.86-3.05,19.6-9.16c4.73-6.1,7.1-14.58,7.1-25.42,0-22.82-8.67-34.23-26.02-34.23Z" style="fill:#3a7ca5; stroke:#000; stroke-linecap:square; stroke-linejoin:bevel; stroke-width:2.5px;"/><path d="m349,760.26v53.15c.12,5.81,1.67,8.72,4.67,8.72.69,0,2.13-.28,4.32-.86,1.38-.23,2.31-.34,2.77-.34,3.8,0,5.71,1.94,5.71,5.82s-2.33,5.65-6.99,5.65c-1.82,0-4.72-.23-8.7-.68-3.98-.46-7.05-.68-9.21-.68-1.82,0-4.55.23-8.19.68-3.64.46-6.31.68-8.02.68h-.85c-4.78,0-7.16-2.05-7.16-6.16,0-3.54,1.96-5.31,5.87-5.31h1.21c.69.16,1.21.24,1.56.24,2.88.64,4.54.96,5.01.96,2.07,0,3.37-.89,3.89-2.66s.83-6.38.95-13.83l.17-12.02v-57.2c-.12-3.43-.29-5.72-.51-6.87-.8-2.63-2.4-3.95-4.79-3.95-.34,0-1.83.23-4.45.69-1.26.23-2.29.34-3.08.34-3.88,0-5.82-1.82-5.82-5.48s2.28-5.65,6.85-5.65c1.25,0,2.34.06,3.25.17l4.11.51c1.82.23,3.37.34,4.62.34,1.14,0,2.85-.17,5.13-.51,2.28-.34,3.99-.51,5.13-.51,2.62,0,3.94,1.65,3.94,4.96,0,1.14-.06,2-.17,2.56-.8,8.77-1.2,21.19-1.2,37.25Z" style="fill:#3a7ca5; stroke:#000; stroke-linecap:square; stroke-linejoin:bevel; stroke-width:2.5px;"/><path d="m452.72,781.39c0,4.34-.29,6.99-.86,7.96-.57.97-2.22,1.45-4.96,1.45h-54.43c-1.48,0-2.46.2-2.91.6-.46.4-.69,1.06-.69,1.97,0,8.56,2.57,15.69,7.7,21.4,5.13,5.71,11.52,8.56,19.17,8.56,5.02,0,9.61-1.37,13.78-4.11,4.16-2.74,6.87-6.22,8.13-10.44l1.54-4.96c.8-2.74,2.68-4.11,5.65-4.11,4.22,0,6.33,2.17,6.33,6.5,0,7.42-3.77,14.01-11.3,19.77-7.53,5.76-16.09,8.64-25.68,8.64-11.98,0-21.51-4.02-28.58-12.07-7.08-8.04-10.61-18.85-10.61-32.44s3.77-25.22,11.3-33.89c7.53-8.67,17.34-13.01,29.44-13.01,10.72,0,19.57,3.59,26.53,10.78,6.96,7.19,10.44,16.32,10.44,27.39Zm-17.46-48.44l-19.17-8.9-19,8.9c-2.97,1.37-4.96,2.05-5.99,2.05-2.4,0-3.6-.97-3.6-2.91,0-1.03,1.26-2.45,3.77-4.28l21.57-15.23c1.14-.8,2.23-1.2,3.25-1.2.91,0,2.05.4,3.42,1.2l21.57,15.23c.8.57,1.65,1.2,2.57,1.88.57.46.91,1.14,1.03,2.05v.34c0,1.94-1.14,2.91-3.42,2.91-1.03,0-3.03-.68-5.99-2.05Zm-44.67,43.99c0,1.6,1.25,2.4,3.77,2.4h40.91c2.39,0,3.59-.8,3.59-2.4,0-6.05-2.28-11.3-6.85-15.75-4.57-4.45-9.93-6.68-16.09-6.68s-12.21,2.31-17.46,6.93c-5.25,4.62-7.87,9.79-7.87,15.49Z" style="fill:#3a7ca5; stroke:#000; stroke-linecap:square; stroke-linejoin:bevel; stroke-width:2.5px;"/><path d="m491.06,751.26v4.96c4.11-4.91,7.99-8.3,11.64-10.18s8.22-2.82,13.69-2.82c11.18,0,19.4,4.34,24.65,13.01,3.88-4.79,7.81-8.16,11.81-10.1,3.99-1.94,9.13-2.91,15.4-2.91s12.32,1.37,17.46,4.12c5.7,3.09,9.64,7.43,11.81,13.04,1.48,3.77,2.23,9.72,2.23,17.84v29.5c0,4.69.05,7.55.17,8.58.56,4.12,2.03,6.17,4.41,6.17.79,0,1.98-.2,3.56-.6,1.58-.4,2.77-.6,3.56-.6,3.95,0,5.93,1.71,5.93,5.13,0,4-2.28,5.99-6.85,5.99-1.71,0-4.31-.2-7.79-.6-3.48-.4-6.13-.6-7.96-.6-1.94,0-4.77.2-8.47.6-3.71.4-6.53.6-8.47.6-4.79,0-7.19-2-7.19-5.99,0-3.42,1.82-5.13,5.48-5.13.46,0,1.6.11,3.42.34.68.23,1.6.34,2.74.34,1.94,0,3.17-.97,3.68-2.91.51-1.94.83-6.79.94-14.55v-21.74c0-7.87-.6-13.61-1.79-17.2s-3.44-6.42-6.73-8.47-7.04-3.08-11.25-3.08c-8.07,0-13.69,2.8-16.87,8.39-2.5,4.45-3.75,12.21-3.75,23.28v12.15c0,10.73.26,17.43.77,20.11.51,2.68,1.85,4.02,4.02,4.02.68,0,1.68-.11,2.99-.34,1.31-.23,2.31-.34,3-.34,1.6,0,2.94.53,4.02,1.6,1.08,1.07,1.62,2.39,1.62,3.96,0,3.71-2.68,5.56-8.04,5.56-1.71,0-4.25-.23-7.62-.68-3.37-.46-5.9-.68-7.62-.68-2.4,0-5.02.23-7.88.68-2.85.46-5.36.68-7.53.68-4.68,0-7.02-1.94-7.02-5.82,0-3.54,1.71-5.31,5.14-5.31,1.25,0,2.22.16,2.91.48,1.6.48,2.79.72,3.6.72,2.74,0,4.16-2.92,4.28-8.77l.51-8.09v-24.94c0-9.98-1.34-16.92-4.02-20.81-2.68-3.9-7.45-5.85-14.29-5.85-7.53,0-13.29,2.75-17.29,8.26-3.31,4.47-4.96,12.27-4.96,23.4v22.88c0,4.59.06,7.28.17,8.08.45,3.9,1.71,5.85,3.77,5.85.57,0,1.77-.32,3.59-.96.23,0,.57-.08,1.03-.24h1.2c4.45,0,6.68,1.88,6.68,5.65s-2.57,5.48-7.7,5.48c-1.94,0-4.34-.17-7.19-.51-3.88-.45-7.19-.68-9.93-.68-1.37,0-3.88.17-7.53.51-4.91.46-7.87.68-8.9.68-4.57,0-6.85-1.94-6.85-5.82,0-3.54,2.21-5.31,6.62-5.31h1.05c.46.11.81.17,1.04.17l4.36.86c.12.12.35.17.7.17,3.14,0,4.82-2.79,5.05-8.39v-35.94c0-9.7-.26-15.75-.77-18.14s-1.91-3.59-4.19-3.59c-.46,0-2.05.29-4.79.86-1.14.23-2.05.34-2.74.34-4.22,0-6.33-1.82-6.33-5.48,0-3.88,2.34-5.82,7.02-5.82,1.26,0,2.97.12,5.14.34,2.17.23,4.05.34,5.65.34h3.08l4.11-.68h.51c2.74,0,4.11,1.66,4.11,4.96Z" style="fill:#3a7ca5; stroke:#000; stroke-linecap:square; stroke-linejoin:bevel; stroke-width:2.5px;"/><path d="m651.95,782.07v22.25c0,5.71.06,9.07.17,10.1.57,5.13,2.11,7.7,4.62,7.7.57,0,1.99-.28,4.28-.86.57-.23,1.42-.34,2.57-.34,4.34,0,6.5,1.88,6.5,5.65,0,1.6-.72,2.97-2.15,4.11-1.43,1.14-3.23,1.71-5.41,1.71-1.83,0-4.61-.26-8.33-.77-3.72-.51-6.5-.77-8.33-.77-2.98,0-6.3.23-9.96.68-4.47.57-7.44.86-8.93.86-4.58,0-6.87-1.94-6.87-5.82s1.96-5.65,5.87-5.65c.92,0,2.27.17,4.06.51,1.78.34,3.14.51,4.06.51,2.76,0,4.43-3.65,5.01-10.96v-43.82c-.58-7.19-2.3-10.78-5.18-10.78-.92,0-2.22.2-3.89.6-1.67.4-2.91.6-3.71.6-4.14,0-6.22-1.82-6.22-5.48,0-3.88,2.51-5.82,7.53-5.82,2.17,0,3.71.06,4.62.17,3.65.46,5.99.68,7.02.68.91,0,2.31-.14,4.19-.43,1.88-.28,3.28-.43,4.19-.43,3.31,0,4.96,2.23,4.96,6.68,0,.46-.04,1.14-.13,2.05-.09.92-.14,1.6-.14,2.05-.09.92-.19,4.45-.28,10.61-.09,4.68-.14,9.47-.14,14.38Zm-8.9-44.84c-2.63,0-4.88-.94-6.76-2.82s-2.82-4.13-2.82-6.76.94-4.85,2.82-6.68c1.88-1.82,4.13-2.74,6.76-2.74s4.88.91,6.76,2.74c1.88,1.83,2.82,4.05,2.82,6.68s-.94,4.88-2.82,6.76-4.14,2.82-6.76,2.82Z" style="fill:#3a7ca5; stroke:#000; stroke-linecap:square; stroke-linejoin:bevel; stroke-width:2.5px;"/><path d="m727.09,775.22c0-4.56,2.85-7.19,8.56-7.87-.57-3.99-2.48-7.13-5.73-9.41-3.25-2.28-7.45-3.42-12.58-3.42-7.88,0-14.21,3.14-19,9.41-4.79,6.28-7.19,14.61-7.19,24.99s2.25,19.14,6.76,25.25c4.51,6.11,10.75,9.16,18.74,9.16,5.02,0,9.38-1.43,13.09-4.28,3.71-2.85,6.25-6.79,7.62-11.81,1.14-3.99,1.82-6.27,2.05-6.85,1.25-2.28,3.08-3.42,5.48-3.42,1.94,0,3.54.63,4.79,1.88,1.25,1.26,1.88,2.85,1.88,4.79,0,2.85-.92,6.28-2.74,10.27-1.83,4-4,7.3-6.51,9.93-6.73,7.19-15.46,10.78-26.19,10.78-11.64,0-21.03-4.11-28.16-12.32-7.13-8.22-10.7-19-10.7-32.35,0-14.15,3.68-25.47,11.04-33.98,7.36-8.5,17.14-12.75,29.36-12.75,9.13,0,16.71,2.48,22.76,7.45,6.05,4.96,9.07,11.27,9.07,18.91,0,4.22-1.17,7.7-3.51,10.44-2.34,2.74-5.34,4.11-8.99,4.11-2.85,0-5.22-.86-7.1-2.57s-2.82-3.82-2.82-6.33Z" style="fill:#3a7ca5; stroke:#000; stroke-linecap:square; stroke-linejoin:bevel; stroke-width:2.5px;"/><path d="m838.17,833.93c-9.36,0-15.12-4.05-17.29-12.15-5.82,8.56-14.95,12.84-27.39,12.84-9.24,0-16.63-2.28-22.16-6.85-5.54-4.56-8.3-10.67-8.3-18.31,0-9.47,4.05-16.43,12.15-20.88,3.08-1.71,5.73-2.82,7.96-3.34,2.23-.51,6.7-1.17,13.44-1.97,9.58-1.03,15.83-2.45,18.74-4.28,2.91-1.82,4.37-5.19,4.37-10.1s-1.63-8.36-4.88-11.04c-3.25-2.68-7.79-4.02-13.61-4.02-5.13,0-9.93,1.43-14.38,4.28-1.71,1.14-2.57,2.34-2.57,3.59,0,.46.51,1.03,1.54,1.71,1.6,1.14,2.4,3.08,2.4,5.82,0,2.28-.83,4.17-2.48,5.65-1.66,1.48-3.74,2.23-6.25,2.23-2.97,0-5.45-1.03-7.45-3.08-2-2.05-2.99-4.56-2.99-7.53,0-6.39,3.17-11.87,9.5-16.43,6.33-4.56,14.01-6.85,23.02-6.85,20.77,0,31.15,9.96,31.15,29.89v34.5c0,5.47.11,8.71.34,9.74.69,3.99,2.62,5.98,5.82,5.98,3.99,0,5.99-3.63,5.99-10.88v-8.33c0-3.63,1.74-5.44,5.22-5.44,3.71,0,5.56,2.74,5.56,8.22v10.61c-.23,10.95-6.05,16.43-17.46,16.43Zm-19-34.06v-12.15c-2.5,2.28-5.14,3.88-7.93,4.79-2.79.92-7.76,1.71-14.92,2.4-12.96,1.26-19.43,6.05-19.43,14.38,0,4.34,1.57,7.76,4.71,10.27,3.14,2.51,7.39,3.77,12.75,3.77,7.64,0,13.66-2.08,18.06-6.25,4.39-4.16,6.65-9.9,6.76-17.2Z" style="fill:#3a7ca5; stroke:#000; stroke-linecap:square; stroke-linejoin:bevel; stroke-width:2.5px;"/><path d="m942.24,743.22c11.3,0,19.74,4.39,25.33,13.18v-17.29c0-4.56-.12-7.36-.34-8.39-.57-3.54-2.17-5.31-4.79-5.31-.91,0-2.2.17-3.85.51s-2.94.51-3.85.51c-4.22,0-6.33-1.82-6.33-5.48s2.85-5.65,8.56-5.65c.91,0,2.57.12,4.96.34,3.65.34,5.53.51,5.65.51,1.03,0,2.51-.14,4.45-.43,1.94-.28,3.42-.43,4.45-.43,3.19,0,4.79,2.29,4.79,6.86v1.89c-.12.34-.23,3.38-.34,9.09,0,.69-.17,5.09-.51,13.2-.23,5.72-.34,10.06-.34,13.03v45.43c.12,7.54.46,12.23,1.04,14.06.58,1.83,1.97,2.74,4.18,2.74,1.51,0,2.67-.11,3.49-.34,1.86-.23,3.14-.34,3.84-.34,4.3,0,6.45,1.88,6.45,5.65s-2.57,5.82-7.7,5.82c-1.14,0-2.88-.14-5.22-.43-2.34-.28-4.08-.43-5.22-.43-.34,0-1.66.11-3.94.34-1.37.34-2.57.51-3.59.51-3.08,0-4.62-2.05-4.62-6.16v-3.77c-6.03,8.1-14.79,12.15-26.29,12.15s-20.94-4.22-28-12.67c-7.05-8.44-10.58-19.51-10.58-33.21s3.48-24.84,10.44-33.12c6.96-8.27,16.26-12.41,27.9-12.41Zm24.64,60.42c.46-3.77.69-8.61.69-14.55,0-7.64-.29-12.84-.86-15.58-1.04-5.7-3.51-10.15-7.41-13.35-4.6-3.77-9.88-5.65-15.86-5.65-8.04,0-14.33,3.02-18.87,9.07-4.54,6.05-6.81,14.32-6.81,24.82s2.35,19.37,7.07,25.59c4.71,6.22,11.14,9.33,19.3,9.33,6.21,0,11.37-1.8,15.51-5.39,4.13-3.59,6.55-8.36,7.24-14.29Z" style="fill:#3a7ca5; stroke:#000; stroke-linecap:square; stroke-linejoin:bevel; stroke-width:2.5px;"/><path d="m1080.2,833.93c-9.36,0-15.12-4.05-17.29-12.15-5.82,8.56-14.95,12.84-27.39,12.84-9.24,0-16.63-2.28-22.16-6.85-5.54-4.56-8.3-10.67-8.3-18.31,0-9.47,4.05-16.43,12.15-20.88,3.08-1.71,5.73-2.82,7.96-3.34,2.23-.51,6.7-1.17,13.44-1.97,9.58-1.03,15.83-2.45,18.74-4.28,2.91-1.82,4.37-5.19,4.37-10.1s-1.63-8.36-4.88-11.04c-3.25-2.68-7.79-4.02-13.61-4.02-5.13,0-9.93,1.43-14.38,4.28-1.71,1.14-2.57,2.34-2.57,3.59,0,.46.51,1.03,1.54,1.71,1.6,1.14,2.4,3.08,2.4,5.82,0,2.28-.83,4.17-2.48,5.65-1.66,1.48-3.74,2.23-6.25,2.23-2.97,0-5.45-1.03-7.45-3.08-2-2.05-2.99-4.56-2.99-7.53,0-6.39,3.17-11.87,9.5-16.43,6.33-4.56,14.01-6.85,23.02-6.85,20.77,0,31.15,9.96,31.15,29.89v34.5c0,5.47.11,8.71.34,9.74.69,3.99,2.62,5.98,5.82,5.98,3.99,0,5.99-3.63,5.99-10.88v-8.33c0-3.63,1.74-5.44,5.22-5.44,3.71,0,5.56,2.74,5.56,8.22v10.61c-.23,10.95-6.05,16.43-17.46,16.43Zm-19-34.06v-12.15c-2.5,2.28-5.14,3.88-7.93,4.79-2.79.92-7.76,1.71-14.92,2.4-12.96,1.26-19.43,6.05-19.43,14.38,0,4.34,1.57,7.76,4.71,10.27,3.14,2.51,7.39,3.77,12.75,3.77,7.64,0,13.66-2.08,18.06-6.25,4.39-4.16,6.65-9.9,6.76-17.2Z" style="fill:#3a7ca5; stroke:#000; stroke-linecap:square; stroke-linejoin:bevel; stroke-width:2.5px;"/><path d="m1171.42,766.2l20.03,53.69,19.34-53.4c1.14-3.19,1.71-5.25,1.71-6.16,0-2.51-1.2-3.77-3.6-3.77-.91,0-2.25.17-4.02.51-1.77.34-3.11.51-4.02.51-3.77,0-5.65-1.85-5.65-5.57,0-3.93,2.74-5.9,8.22-5.9h1.37c.57.08,1.03.12,1.37.12l7.19.73c1.6.46,3.25.68,4.96.68,2.28,0,6.05-.32,11.3-.96,3.19-.38,5.48-.58,6.85-.58,4.9,0,7.36,1.91,7.36,5.73s-2,5.73-5.99,5.73c-1.26,0-2.17-.14-2.74-.41-1.71-.41-2.91-.62-3.59-.62-2.05,0-4.17,2.75-6.33,8.23l-24.13,61.75c-2.05,5.26-5.54,7.89-10.44,7.89s-8.04-2.64-10.1-7.91l-24.65-63.61c-1.6-4.24-3.48-6.36-5.65-6.36-.8,0-2,.17-3.59.51-1.6.34-2.8.51-3.59.51-3.77,0-5.65-1.77-5.65-5.31,0-4.11,2.62-6.16,7.87-6.16.91,0,1.6.06,2.05.17l7.19.91c2.4.3,4.79.46,7.19.46,1.94,0,4.79-.22,8.56-.66l5.65-.66c.57-.14,1.37-.22,2.4-.22,5.02,0,7.53,1.97,7.53,5.91,0,3.71-2.17,5.56-6.51,5.56-1.37,0-2.34-.07-2.91-.21-2.17-.55-3.54-.82-4.11-.82-1.83,0-2.74.81-2.74,2.41,0,.8.23,1.95.69,3.44l1.2,3.79Z" style="fill:#3a7ca5; stroke:#000; stroke-linecap:square; stroke-linejoin:bevel; stroke-width:2.5px;"/><path d="m1324.1,781.39c0,4.34-.29,6.99-.86,7.96-.57.97-2.22,1.45-4.96,1.45h-54.43c-1.48,0-2.46.2-2.91.6-.46.4-.69,1.06-.69,1.97,0,8.56,2.57,15.69,7.7,21.4,5.13,5.71,11.52,8.56,19.17,8.56,5.02,0,9.61-1.37,13.78-4.11,4.16-2.74,6.87-6.22,8.13-10.44l1.54-4.96c.8-2.74,2.68-4.11,5.65-4.11,4.22,0,6.33,2.17,6.33,6.5,0,7.42-3.77,14.01-11.3,19.77-7.53,5.76-16.09,8.64-25.68,8.64-11.98,0-21.51-4.02-28.58-12.07-7.08-8.04-10.61-18.85-10.61-32.44s3.77-25.22,11.3-33.89c7.53-8.67,17.34-13.01,29.44-13.01,10.72,0,19.57,3.59,26.53,10.78,6.96,7.19,10.44,16.32,10.44,27.39Zm-62.13-4.45c0,1.6,1.25,2.4,3.77,2.4h40.91c2.39,0,3.59-.8,3.59-2.4,0-6.05-2.28-11.3-6.85-15.75-4.57-4.45-9.93-6.68-16.09-6.68s-12.21,2.31-17.46,6.93c-5.25,4.62-7.87,9.79-7.87,15.49Z" style="fill:#3a7ca5; stroke:#000; stroke-linecap:square; stroke-linejoin:bevel; stroke-width:2.5px;"/><path d="m1340.36,814.34l55.8-56.75h-26.19c-8.56,0-13.92.26-16.09.77-2.17.51-3.25,1.86-3.25,4.02,0,.91.11,1.94.34,3.08.57,2.97.86,5.76.86,8.39,0,4.34-1.88,6.5-5.65,6.5s-5.82-2.51-5.82-7.53c0-2.17.06-3.65.17-4.45.46-3.42.69-5.88.69-7.36,0-1.14-.14-2.82-.43-5.05-.29-2.23-.43-3.91-.43-5.05,0-3.54,2.84-5.31,8.51-5.31,1.81,0,4.25.08,7.32.23,3.52.3,5.96.46,7.32.46h39.15c7.19,0,10.78,2.64,10.78,7.91,0,2.41-2.16,5.79-6.47,10.14l-55.15,56.23h40.74c6.73,0,10.1-1.96,10.1-5.89v-3.29c0-1.96-.12-3.64-.34-5.02-.23-4.39-.34-6.47-.34-6.24,0-1.96.57-3.61,1.71-4.94,1.14-1.33,2.57-2,4.28-2,3.65,0,5.48,2.17,5.48,6.5,0,1.94-.12,3.94-.34,5.99-.46,4.11-.69,7.08-.69,8.9,0,1.26.17,3.08.51,5.48.34,2.4.51,4.22.51,5.48,0,4.45-2.52,6.62-7.55,6.5h-59.87c-2.86,0-5.21-.86-7.03-2.58-1.83-1.72-2.74-3.9-2.74-6.54,0-2.98,1.37-5.84,4.11-8.59Z" style="fill:#3a7ca5; stroke:#000; stroke-linecap:square; stroke-linejoin:bevel; stroke-width:2.5px;"/></svg>