<?xml version="1.0" encoding="UTF-8"?><svg id="a" xmlns="http://www.w3.org/2000/svg" xmlns:xlink="http://www.w3.org/1999/xlink" viewBox="0 0 1536 1024"><defs><filter id="b" filterUnits="userSpaceOnUse"><feOffset dx="7.8" dy="7.8"/><feGaussianBlur result="c" stdDeviation="0"/><feFlood flood-color="#000" flood-opacity="1"/><feComposite in2="c" operator="in"/><feComposite in="SourceGraphic"/></filter><filter id="d" filterUnits="userSpaceOnUse"><feOffset dx="7.8" dy="7.8"/><feGaussianBlur result="e" stdDeviation="0"/><feFlood flood-color="#000" flood-opacity="1"/><feComposite in2="e" operator="in"/><feComposite in="SourceGraphic"/></filter></defs><g style="filter:url(#b);"><path d="m549.77,389.04c-11.48,5.24-24.71,7.86-39.69,7.86-13.65,0-26.25-2.25-37.81-6.74-11.57-4.49-21.59-10.86-30.08-19.09-8.49-8.24-15.14-18.1-19.97-29.58-4.83-11.48-7.24-24.13-7.24-37.94s2.45-26.96,7.36-38.44c4.91-11.48,11.69-21.25,20.34-29.33,8.65-8.07,18.8-14.27,30.45-18.6,11.65-4.32,24.21-6.49,37.69-6.49,12.48,0,24.75,2.21,36.82,6.61,12.06,4.41,21.84,10.86,29.33,19.34l-28.95,28.95c-3.99-5.49-9.24-9.57-15.72-12.23-6.49-2.66-13.15-3.99-19.97-3.99-7.49,0-14.35,1.37-20.59,4.12-6.24,2.75-11.61,6.53-16.1,11.36-4.49,4.83-7.99,10.53-10.48,17.1-2.5,6.58-3.74,13.77-3.74,21.59s1.25,15.31,3.74,21.96c2.5,6.66,5.95,12.36,10.36,17.1,4.41,4.74,9.69,8.45,15.85,11.11,6.15,2.66,12.89,3.99,20.22,3.99,8.49,0,15.89-1.66,22.21-4.99,6.32-3.33,11.4-7.65,15.23-12.98l29.7,27.96c-7.82,8.99-17.47,16.1-28.95,21.34Z" style="fill:#f2e863; stroke-width:0px;"/><path d="m675.32,301.55c-1.83-.5-3.62-.83-5.37-1-1.75-.16-3.46-.25-5.12-.25-5.49,0-10.11,1-13.85,2.99-3.74,1.99-6.74,4.4-8.99,7.22-2.25,2.82-3.87,5.89-4.87,9.21-1,3.32-1.5,6.22-1.5,8.71v63.73h-40.93v-124.15h39.44v17.97h.5c3.16-6.36,7.65-11.56,13.48-15.58,5.82-4.02,12.56-6.03,20.22-6.03,1.66,0,3.28.09,4.87.25,1.58.17,2.87.42,3.87.75l-1.75,36.19Z" style="fill:#f2e863; stroke-width:0px;"/><path d="m775.41,392.16v-17.22h-.5c-1.5,2.83-3.46,5.49-5.87,7.99-2.41,2.5-5.24,4.66-8.49,6.49-3.25,1.83-6.83,3.33-10.73,4.49-3.91,1.16-8.03,1.75-12.35,1.75-8.32,0-15.35-1.5-21.09-4.49-5.74-3-10.4-6.86-13.98-11.61-3.58-4.74-6.16-10.15-7.74-16.22-1.58-6.07-2.37-12.27-2.37-18.6v-76.88h41.18v67.39c0,3.49.25,6.82.75,9.98.5,3.16,1.46,5.99,2.87,8.49,1.41,2.5,3.28,4.45,5.62,5.87,2.33,1.42,5.41,2.12,9.24,2.12,7.15,0,12.6-2.66,16.35-7.99,3.74-5.32,5.62-11.56,5.62-18.72v-67.14h40.93v124.3h-39.44Z" style="fill:#f2e863; stroke-width:0px;"/><path d="m839.3,392.16v-31.95l58.41-60.9h-56.16v-31.45h106.08v30.7l-60.15,61.9h62.65v31.7h-110.82Z" style="fill:#f2e863; stroke-width:0px;"/><path d="m972.84,284.83c7.32-6.99,15.85-12.23,25.58-15.72s19.67-5.24,29.83-5.24,19.34,1.29,26.58,3.87c7.24,2.58,13.1,6.58,17.6,11.98,4.49,5.41,7.78,12.23,9.86,20.47,2.08,8.24,3.12,18.01,3.12,29.33v62.65h-37.44v-13.23h-.75c-3.16,5.16-7.95,9.15-14.35,11.98-6.41,2.83-13.35,4.24-20.84,4.24-4.99,0-10.15-.67-15.47-2-5.33-1.33-10.2-3.49-14.6-6.49-4.41-3-8.03-6.99-10.86-11.98-2.83-4.99-4.24-11.15-4.24-18.47,0-8.99,2.45-16.22,7.36-21.72,4.91-5.49,11.23-9.73,18.97-12.73,7.74-3,16.35-4.99,25.83-5.99,9.48-1,18.72-1.5,27.71-1.5v-2c0-6.15-2.16-10.69-6.49-13.6-4.33-2.91-9.65-4.37-15.97-4.37-5.83,0-11.44,1.25-16.85,3.74-5.41,2.5-10.03,5.49-13.85,8.99l-20.72-22.21Zm75.13,53.16h-5.24c-4.49,0-9.03.21-13.6.62-4.58.42-8.65,1.21-12.23,2.37-3.58,1.17-6.53,2.87-8.86,5.12-2.33,2.25-3.49,5.2-3.49,8.86,0,2.33.54,4.33,1.62,5.99,1.08,1.67,2.45,3,4.12,3.99,1.66,1,3.58,1.71,5.74,2.12,2.16.42,4.24.62,6.24.62,8.32,0,14.68-2.29,19.09-6.86,4.41-4.57,6.61-10.77,6.61-18.6v-4.24Z" style="fill:#f2e863; stroke-width:0px;"/></g><g style="filter:url(#d);"><path d="m468,476.21c0,9.03-1.67,16.64-5.02,22.82-3.35,6.19-7.86,11.18-13.54,14.96-5.68,3.79-12.23,6.55-19.66,8.3s-15.14,2.62-23.15,2.62h-18.56v58.31h-37.35v-154.63h56.78c8.44,0,16.34.84,23.7,2.51,7.35,1.68,13.76,4.37,19.22,8.08,5.46,3.71,9.75,8.59,12.89,14.63,3.13,6.04,4.7,13.51,4.7,22.39Zm-37.35.22c0-3.64-.73-6.62-2.18-8.95-1.46-2.33-3.42-4.15-5.9-5.46-2.48-1.31-5.28-2.18-8.41-2.62-3.13-.44-6.37-.66-9.72-.66h-16.38v36.47h15.72c3.49,0,6.84-.29,10.05-.87,3.2-.58,6.08-1.6,8.63-3.06,2.55-1.45,4.55-3.39,6.01-5.79,1.45-2.4,2.18-5.42,2.18-9.06Z" style="fill:#f45b69; stroke-width:0px;"/><path d="m476.73,489.31c6.41-6.11,13.87-10.7,22.39-13.76s17.22-4.59,26.1-4.59,16.93,1.13,23.26,3.39c6.33,2.26,11.47,5.75,15.4,10.48,3.93,4.73,6.8,10.7,8.63,17.91,1.82,7.21,2.73,15.76,2.73,25.66v54.82h-32.76v-11.58h-.66c-2.77,4.51-6.96,8.01-12.56,10.48-5.61,2.47-11.68,3.71-18.24,3.71-4.37,0-8.88-.58-13.54-1.75-4.66-1.16-8.92-3.06-12.78-5.68-3.86-2.62-7.03-6.12-9.5-10.48-2.48-4.37-3.71-9.75-3.71-16.16,0-7.86,2.15-14.2,6.44-19,4.29-4.8,9.83-8.52,16.6-11.14,6.77-2.62,14.31-4.37,22.6-5.24,8.3-.87,16.38-1.31,24.24-1.31v-1.75c0-5.39-1.89-9.35-5.68-11.9-3.79-2.55-8.45-3.82-13.98-3.82-5.1,0-10.01,1.09-14.74,3.28-4.73,2.18-8.77,4.8-12.12,7.86l-18.13-19.44Zm65.74,46.52h-4.59c-3.93,0-7.9.18-11.9.55-4.01.36-7.57,1.06-10.7,2.07-3.13,1.02-5.72,2.51-7.75,4.48-2.04,1.97-3.06,4.55-3.06,7.75,0,2.04.47,3.79,1.42,5.24.95,1.46,2.15,2.62,3.6,3.49,1.45.87,3.13,1.49,5.02,1.86,1.89.37,3.71.55,5.46.55,7.28,0,12.85-2,16.71-6.01,3.86-4,5.79-9.43,5.79-16.27v-3.71Z" style="fill:#f45b69; stroke-width:0px;"/><path d="m602.31,583.22v-165.11h36.47v165.11h-36.47Z" style="fill:#f45b69; stroke-width:0px;"/><path d="m665.43,489.31c6.41-6.11,13.87-10.7,22.39-13.76s17.22-4.59,26.1-4.59,16.93,1.13,23.26,3.39c6.33,2.26,11.47,5.75,15.4,10.48,3.93,4.73,6.8,10.7,8.63,17.91,1.82,7.21,2.73,15.76,2.73,25.66v54.82h-32.76v-11.58h-.66c-2.77,4.51-6.96,8.01-12.56,10.48-5.61,2.47-11.68,3.71-18.24,3.71-4.37,0-8.88-.58-13.54-1.75-4.66-1.16-8.92-3.06-12.78-5.68-3.86-2.62-7.03-6.12-9.5-10.48-2.48-4.37-3.71-9.75-3.71-16.16,0-7.86,2.15-14.2,6.44-19,4.29-4.8,9.83-8.52,16.6-11.14,6.77-2.62,14.31-4.37,22.6-5.24,8.3-.87,16.38-1.31,24.24-1.31v-1.75c0-5.39-1.89-9.35-5.68-11.9-3.79-2.55-8.45-3.82-13.98-3.82-5.1,0-10.01,1.09-14.74,3.28-4.73,2.18-8.77,4.8-12.12,7.86l-18.13-19.44Zm65.74,46.52h-4.59c-3.93,0-7.9.18-11.9.55-4.01.36-7.57,1.06-10.7,2.07-3.13,1.02-5.72,2.51-7.75,4.48-2.04,1.97-3.06,4.55-3.06,7.75,0,2.04.47,3.79,1.42,5.24.95,1.46,2.15,2.62,3.6,3.49,1.45.87,3.13,1.49,5.02,1.86,1.89.37,3.71.55,5.46.55,7.28,0,12.85-2,16.71-6.01,3.86-4,5.79-9.43,5.79-16.27v-3.71Z" style="fill:#f45b69; stroke-width:0px;"/><path d="m857.84,583.22h-38.66l-42.81-108.76h39.53l22.93,70.54h.66l22.93-70.54h38.22l-42.81,108.76Z" style="fill:#f45b69; stroke-width:0px;"/><path d="m984.94,503.94c-1.6-.44-3.17-.73-4.7-.87-1.53-.14-3.02-.22-4.48-.22-4.8,0-8.84.87-12.12,2.61-3.28,1.74-5.9,3.85-7.86,6.32-1.97,2.47-3.38,5.16-4.26,8.06-.87,2.9-1.31,5.44-1.31,7.62v55.76h-35.82v-108.63h34.51v15.72h.44c2.76-5.57,6.7-10.11,11.79-13.63,5.1-3.52,10.99-5.28,17.69-5.28,1.45,0,2.87.08,4.26.22,1.38.15,2.51.36,3.39.66l-1.53,31.67Z" style="fill:#f45b69; stroke-width:0px;"/><path d="m995.86,489.31c6.41-6.11,13.87-10.7,22.39-13.76s17.22-4.59,26.1-4.59,16.93,1.13,23.26,3.39c6.33,2.26,11.47,5.75,15.4,10.48,3.93,4.73,6.8,10.7,8.63,17.91,1.82,7.21,2.73,15.76,2.73,25.66v54.82h-32.76v-11.58h-.66c-2.77,4.51-6.96,8.01-12.56,10.48-5.61,2.47-11.68,3.71-18.24,3.71-4.37,0-8.88-.58-13.54-1.75-4.66-1.16-8.92-3.06-12.78-5.68-3.86-2.62-7.03-6.12-9.5-10.48-2.48-4.37-3.71-9.75-3.71-16.16,0-7.86,2.15-14.2,6.44-19,4.29-4.8,9.83-8.52,16.6-11.14,6.77-2.62,14.31-4.37,22.6-5.24,8.3-.87,16.38-1.31,24.24-1.31v-1.75c0-5.39-1.89-9.35-5.68-11.9-3.79-2.55-8.45-3.82-13.98-3.82-5.1,0-10.01,1.09-14.74,3.28-4.73,2.18-8.77,4.8-12.12,7.86l-18.13-19.44Zm65.74,46.52h-4.59c-3.93,0-7.9.18-11.9.55-4.01.36-7.57,1.06-10.7,2.07-3.13,1.02-5.72,2.51-7.75,4.48-2.04,1.97-3.06,4.55-3.06,7.75,0,2.04.47,3.79,1.42,5.24.95,1.46,2.15,2.62,3.6,3.49,1.45.87,3.13,1.49,5.02,1.86,1.89.37,3.71.55,5.46.55,7.28,0,12.85-2,16.71-6.01,3.86-4,5.79-9.43,5.79-16.27v-3.71Z" style="fill:#f45b69; stroke-width:0px;"/><path d="m1185,506.56c-2.91-2.76-6.33-5.09-10.26-6.99-3.93-1.89-8.08-2.84-12.45-2.84-3.35,0-6.44.66-9.28,1.97-2.84,1.31-4.26,3.57-4.26,6.77s1.56,5.24,4.7,6.55c3.13,1.31,8.19,2.77,15.18,4.37,4.07.87,8.19,2.11,12.34,3.71,4.15,1.6,7.9,3.71,11.25,6.33,3.35,2.62,6.04,5.83,8.08,9.61,2.04,3.79,3.06,8.3,3.06,13.54,0,6.85-1.39,12.63-4.15,17.36-2.77,4.73-6.37,8.56-10.81,11.47-4.44,2.91-9.43,5.02-14.96,6.33-5.54,1.31-11.07,1.97-16.6,1.97-8.88,0-17.58-1.42-26.1-4.26s-15.62-7.02-21.29-12.56l20.09-21.18c3.2,3.49,7.13,6.41,11.79,8.74,4.66,2.33,9.61,3.49,14.85,3.49,2.91,0,5.79-.69,8.63-2.07,2.84-1.38,4.26-3.82,4.26-7.32s-1.75-5.82-5.24-7.43c-3.49-1.6-8.95-3.28-16.38-5.02-3.79-.87-7.57-2.04-11.36-3.49-3.79-1.45-7.17-3.42-10.16-5.9-2.99-2.47-5.43-5.53-7.32-9.17-1.89-3.64-2.84-8.01-2.84-13.1,0-6.55,1.38-12.12,4.15-16.71,2.76-4.59,6.33-8.33,10.7-11.25,4.37-2.91,9.21-5.06,14.52-6.44,5.31-1.38,10.59-2.07,15.83-2.07,8.15,0,16.12,1.28,23.92,3.82,7.79,2.55,14.38,6.37,19.77,11.47l-19.66,20.31Z" style="fill:#f45b69; stroke-width:0px;"/></g></svg>