<?xml version="1.0" encoding="UTF-8"?><svg id="a" xmlns="http://www.w3.org/2000/svg" xmlns:xlink="http://www.w3.org/1999/xlink" viewBox="0 0 1536 1024"><defs><filter id="b" x="100.38" y="247.53" width="452.04" height="191.1" filterUnits="userSpaceOnUse"><feOffset dx="15" dy="15"/><feGaussianBlur result="c" stdDeviation="0"/><feFlood flood-color="#000" flood-opacity=".5"/><feComposite in2="c" operator="in"/><feComposite in="SourceGraphic"/></filter><filter id="d" x="257.38" y="388.47" width="355.9" height="175.5" filterUnits="userSpaceOnUse"><feOffset dx="15" dy="15"/><feGaussianBlur result="e" stdDeviation="0"/><feFlood flood-color="#000" flood-opacity=".5"/><feComposite in2="e" operator="in"/><feComposite in="SourceGraphic"/></filter><filter id="f" x="313.38" y="533.54" width="891.45" height="198" filterUnits="userSpaceOnUse"><feOffset dx="15" dy="15"/><feGaussianBlur result="g" stdDeviation="0"/><feFlood flood-color="#000" flood-opacity=".5"/><feComposite in2="g" operator="in"/><feComposite in="SourceGraphic"/></filter><filter id="h" x="1149.38" y="655.49" width="201.28" height="172.1" filterUnits="userSpaceOnUse"><feOffset dx="15" dy="15"/><feGaussianBlur result="i" stdDeviation="0"/><feFlood flood-color="#000" flood-opacity=".5"/><feComposite in2="i" operator="in"/><feComposite in="SourceGraphic"/></filter></defs><g style="filter:url(#b);"><path d="M161.57,408.48c-16.21-4.15-28.77-9.61-37.66-16.4,8.6-16.13,16.59-38.64,23.98-67.52,4.67-16.81,8.6-30.16,11.76-40.04l-24.09,1.02-.23,11.42c-7.54.45-18.17,1.06-31.9,1.81l-3.05-40.6c0-2.86,21.15-5.09,63.45-6.67,30.76,1.58,50.75,2.06,59.95,1.41,9.2-.64,32.35-1.04,69.45-1.19l1.58,31.1c-.53,2.26-1.43,3.36-2.71,3.28-16.06.68-34.2,1.02-54.4,1.02,5.05,9.35,11.35,20.66,18.89,33.93l27.03,48.29,20.47,30.43-31.44,11.08c-9.43-16.97-18.74-34.12-27.94-51.46-2.87.68-9.01.91-18.44.68-22.39-.53-37.44-.9-45.13-1.13-5.88,16.51-12.4,33.03-19.57,49.54ZM235.32,341.41c-9.5-18.4-18.89-36.91-28.16-55.53l-.57.11-10.41,30.2-7.8,22.06-.23.45c13.72.98,29.44,1.89,47.16,2.71Z" style="fill:#f2e863;"/><path d="M324.33,295.15c3.01-1.21,6.6-1.81,10.74-1.81h1.36c15.98.6,28.99,1.51,39.02,2.71,15,2.79,23.87,6.64,26.58,11.54,4.37,3.32,6.56,22.58,6.56,57.8,0,14.78-.38,32.42-1.13,52.93l-.11,3.51c-2.94,1.21-10.14,1.81-21.6,1.81-5.81,0-12.67-.15-20.58-.45-1.06-1.06-.75-35.21.9-102.47-1.66-4.37-4-6.71-7.01-7.01-10.93-.45-16.48,1.74-16.63,6.56l-.11,1.7,1.24,60.51-1.02,6.67-29.29,7.8-2.15-3.62-.23-35.74.11-35.63-14.02.11.11-1.81c.98-16.66,3.05-25,6.22-25l21.04-.11Z" style="fill:#f2e863;"/><path d="M525.77,378.84c-.68,7.62-3.32,13.57-7.92,17.87-3.39,4.22-12.74,6.33-28.05,6.33-3.55,0-7.43-.11-11.65-.34l-9.39-.91c-30.09-2.64-46.86-8.52-50.33-17.64l-2.6-14.25,1.02-20.36,2.49-19.45c3.54-8.97,9.05-15.31,16.51-19,11.99-3.62,25.71-4.75,41.17-3.39,2.94.3,5.81.64,8.6,1.02.45-39.89,2.6-59.91,6.45-60.06l44.79-1.13.23.79-1.24,7.13,1.58,7.01-1.24,23.53-3.05,4.75-10.41-1.7c.75,48.41,1.77,78.34,3.05,89.8ZM485.73,335.64c-2.04-6.26-7.31-9.5-15.83-9.73l-9.5,1.58-1.92,11.65-.45,6.22c-.75,8.52.57,20.4,3.96,35.63,1.96,2.71,5.47,4.3,10.52,4.75l.79.11c5.13.38,7.73.11,7.8-.79,1.58-10.1,2.68-15.53,3.28-16.29,1.28-11.38,1.73-22.43,1.36-33.14Z" style="fill:#f2e863;"/></g><g style="filter:url(#d);"><path d="M283.17,389.94l15.61.79c9.42,0,14.14,2.11,14.14,6.33-.53,4.9-.27,7.5.79,7.8h14.02l32.91.91c3.09.08,5.16,1.58,6.22,4.52l-.79,11.76c-.83,1.81-7.62,2.56-20.36,2.26h-33.59c-.23.75-.49,1.55-.79,2.38.53,10.93.79,17.19.79,18.78s-.27,4.98-.79,10.18c-.53,5.2-.66,10.54-.4,16,.26,5.47-1.19,17.32-4.35,35.57,0,2.87-.23,6.29-.68,10.29-1.36,1.43-3.13,2.15-5.32,2.15h-22.06c-1.43-.23-2.49-2.3-3.17-6.22v-3.05l9.39-49.31-1.58-35.97c-1.06-.98-2.34-1.47-3.85-1.47l-10.18.68-3.96-.68c-5.2,0-7.8-3.39-7.8-10.18l2.38-10.97,21.83.79c.53,0,0-3.92-1.58-11.76,1.06-.53,2.11-1.05,3.17-1.58Z" style="fill:#44bba4;"/><path d="M383.95,470.36l3.05-53.05-10.63.91-2.26-5.66,1.13-23.07.11-1.02,41.28,1.58c3.24.3,3.32,18.62.23,54.97l.91.11v.11c12.37,1.43,22.24,2.98,29.63,4.64,15.76,2.79,24.84,6.71,27.26,11.76,3.54,2.94,5.32,13.65,5.32,32.12,0,13.12-.9,30.27-2.71,51.46l-.34,3.51c-3.92.15-7.77.23-11.54.23-10.71,0-20.7-.83-29.97-2.49-2.11-.53-1.21-25,2.71-73.4-.23-4.83-2.41-7.28-6.56-7.35-13.57-1.13-20.55.68-20.92,5.43-.6,6.33-.72,21.19-.34,44.56v6.22l-28.05,7.46.57-39.7,1.13-19.34Z" style="fill:#44bba4;"/><path d="M528.61,486.08c-.68,4.83-1.06,9.61-1.13,14.36-.45,8.75,3.05,13.42,10.52,14.02,7.46.15,11.91-2.49,13.35-7.92l.11-.9c.3-2.64,2.71-4,7.24-4.07,9.95,0,18.89.38,26.81,1.13,2.71.38,4,3.73,3.85,10.07-.3,13.57-15.57,20.36-45.81,20.36-15.53,0-29.11-2.34-40.72-7.01-8.97-4.75-13.91-11.5-14.82-20.25-.53-6.48-.79-13.04-.79-19.68s.26-13.38.79-20.25c.45-4.52,1.73-9.2,3.85-14.02,4.3-8.9,21.53-13.35,51.69-13.35h9.39c22.39.83,35.55,3.96,39.47,9.39,3.92,4.83,5.88,13.08,5.88,24.77v7.01c0,.98-.23,1.77-.68,2.38v5.2l-68.99-1.24ZM554.62,474.09c0-.15.04-.3.11-.45,0-.98.04-1.94.11-2.88.07-.94.15-3.71.23-8.31l.11-1.81c.15-3.69-1.28-5.5-4.3-5.43l-7.92-.11c-4.37,0-7.16,2.04-8.37,6.11-1.43,4.15-2.64,8.29-3.62,12.44l23.64.45Z" style="fill:#44bba4;"/></g><g style="filter:url(#f);"><path d="M318.81,554.47c4.75-13.95,24.58-20.92,59.49-20.92h10.86c25.86,1.28,40.79,6.18,44.79,14.7,4.82,7.77,7.24,17.91,7.24,30.42l-.45,11.42c-.6,2.11-2.94,2.94-7.01,2.49l-18.32-1.36h-19.57c-.15,0-.64-2.75-1.47-8.26l-.23-8.14-1.02-13.12c0-2.86-3.7-4.37-11.08-4.52h-1.02c-6.79,0-11.73,2.6-14.82,7.8-5.66,25.18-8.48,45.05-8.48,59.61v10.41l.57,10.52c.3,7.09,2.56,11.35,6.79,12.78l6.33,2.26c10.18,0,16.36-6.56,18.55-19.68l20.81-1.24,16.4,1.24,2.94,5.09v9.95c0,21.34-17.27,32.01-51.8,32.01-18.1,0-33.82-3.77-47.16-11.31-8.07-6.79-13.65-17.64-16.74-32.57l-1.02-32.46,1.02-33.82,4.41-23.3Z" style="fill:#f45b69;"/><path d="M509.17,671.42c-6.18.53-12.1.79-17.76.79-8.75,0-16.78-.64-24.09-1.92-9.43-2.56-14.86-6.94-16.29-13.12-1.74-7.54-2.6-15.38-2.6-23.53,0-1.58.04-3.13.11-4.64.23-3.32,1.21-6.75,2.94-10.29,3.85-6.86,21.15-11.76,51.91-14.7l9.5-1.02c2.56-.15,5.05-.26,7.46-.34v-14.14c-.3-9.42-4.03-13.91-11.2-13.46-3.85.23-6.69.68-8.54,1.36-1.85.68-2.73,4.6-2.66,11.76l1.02,5.2c.07,2.71-2.45,4.19-7.58,4.41-11.39,1.21-23.87,2.15-37.44,2.83-2.71.15-4.15-2.3-4.3-7.35l-.11-2.04c1.06-10.25,6.33-19.38,15.83-27.37,9.27-4.67,18.06-7.01,26.35-7.01h1.58l2.26-.11c17.49.08,32.8,1.43,45.92,4.07,9.58,5.2,14.48,10.29,14.7,15.27l.79,6.11c.38,9.05.81,20.21,1.3,33.48.49,13.27-.21,24.7-2.09,34.27-.08,2.34.94,3.51,3.05,3.51l6.11.11c1.73.15,2.6,1.02,2.6,2.6v.23c-.3,3.92-.91,8.07-1.81,12.44-.6,2.34-2.04,3.47-4.3,3.39l-22.62.11c-11.08,0-21.11-.3-30.09-.91ZM516.86,627.64c-.08-.07-.11-.19-.11-.34-.08-.45-.13-1-.17-1.64-.04-.64-.06-1.32-.06-2.04v-2.09c0-.68.04-1.21.11-1.58v-1.24c-.08-2.71-1.7-3.88-4.86-3.51l-8.03.57c-4.37.45-7.09,2.23-8.14,5.32-3.77,9.95-5.35,19.42-4.75,28.39.07,6.41,3.96,9.35,11.65,8.82,7.54-.45,11.88-2.67,13.01-6.67l.11-.68c.07-.75.57-1.43,1.47-2.04l-.23-21.26Z" style="fill:#f45b69;"/><path d="M592.41,549.94l15.61.79c9.42,0,14.14,2.11,14.14,6.33-.53,4.9-.27,7.5.79,7.8h14.02l32.91.91c3.09.08,5.16,1.58,6.22,4.52l-.79,11.76c-.83,1.81-7.62,2.56-20.36,2.26h-33.59c-.23.75-.49,1.55-.79,2.38.53,10.93.79,17.19.79,18.78s-.27,4.98-.79,10.18c-.53,5.2-.66,10.54-.4,16,.26,5.47-1.19,17.32-4.35,35.57,0,2.87-.23,6.29-.68,10.29-1.36,1.43-3.13,2.15-5.32,2.15h-22.06c-1.43-.23-2.49-2.3-3.17-6.22v-3.05l9.39-49.31-1.58-35.97c-1.06-.98-2.34-1.47-3.85-1.47l-10.18.68-3.96-.68c-5.2,0-7.8-3.39-7.8-10.18l2.38-10.97,21.83.79c.53,0,0-3.92-1.58-11.76,1.06-.53,2.11-1.05,3.17-1.58Z" style="fill:#f45b69;"/><path d="M672.72,646.08c-.68,4.83-1.06,9.61-1.13,14.36-.45,8.75,3.05,13.42,10.52,14.02,7.46.15,11.91-2.49,13.35-7.92l.11-.9c.3-2.64,2.71-4,7.24-4.07,9.95,0,18.89.38,26.81,1.13,2.71.38,4,3.73,3.85,10.07-.3,13.57-15.57,20.36-45.81,20.36-15.53,0-29.11-2.34-40.72-7.01-8.97-4.75-13.91-11.5-14.82-20.25-.53-6.48-.79-13.04-.79-19.68s.26-13.38.79-20.25c.45-4.52,1.73-9.2,3.85-14.02,4.3-8.9,21.53-13.35,51.69-13.35h9.39c22.39.83,35.55,3.96,39.47,9.39,3.92,4.83,5.88,13.08,5.88,24.77v7.01c0,.98-.23,1.77-.68,2.38v5.2l-68.99-1.24ZM698.73,634.09c0-.15.04-.3.11-.45,0-.98.04-1.94.11-2.88.07-.94.15-3.71.23-8.31l.11-1.81c.15-3.69-1.28-5.5-4.3-5.43l-7.92-.11c-4.37,0-7.16,2.04-8.37,6.11-1.43,4.15-2.64,8.29-3.62,12.44l23.64.45Z" style="fill:#f45b69;"/><path d="M861.38,607.17c.53,21.87.79,35.4.79,40.6v1.58c-.15,8.45-.98,18.96-2.49,31.56l-.79,5.88c-.15,5.05-5.13,10.63-14.93,16.74-13.5,4.98-29.07,7.73-46.71,8.26l-2.38.11c-14.4-.45-25.15-1.92-32.23-4.41-6.86-2.87-11.2-11.61-13.01-26.24v-1.92c.15-5.05,1.58-7.65,4.3-7.8l6.56.57,14.48-1.13,14.36.23,1.7-.11c5.13-.23,7.35,1.09,6.67,3.96l.23,5.2-.23,10.41c4.15.98,8.56,1.47,13.23,1.47,7.09-.3,11.2-5.2,12.33-14.7,1.28-11.08,1.36-18.47.23-22.17-5.66,1.06-10.33,1.66-14.02,1.81l-11.76.57c-25.94.91-41.06-4.52-45.35-16.29l-1.02-2.94-.23-36.76c.15-10.33,6.37-18.44,18.66-24.32,8.22-2.19,17.46-3.43,27.71-3.73,31.06.53,48.94,3.77,53.61,9.73,5.81,3.47,9.24,11.42,10.29,23.87ZM814.1,592.92l-10.75.57c-9.5,3.62-12.97,14.86-10.41,33.71v2.94c-.23,10.03,4.6,14.74,14.48,14.14h4.07c6.11-.3,9.16-1.24,9.16-2.83l.11-2.38,2.38-39.81c-1.89-4.45-4.9-6.56-9.05-6.33Z" style="fill:#f45b69;"/><path d="M876.19,589.3c.45-6.48,20.4-11.42,59.83-14.82,10.33,0,19.64,1.43,27.94,4.3,12.14,8.22,18.21,20.06,18.21,35.51l-1.02,54.74-.68,4.3c-4.98,18.02-20.51,27.03-46.6,27.03h-11.88c-16.82,0-29.33-3.58-37.55-10.75-10.03-9.65-15.04-19.72-15.04-30.2l3.17-57c.53-4.9,1.73-9.27,3.62-13.12ZM913.4,608.87l2.15,58.02v3.28c0,2.11,3.96,3.17,11.88,3.17h5.32c12.89,0,19.34-7.16,19.34-21.49l1.24-46.37c-.6-3.09-2.71-4.98-6.33-5.66l-21.72-.57c-5.43,0-9.39,3.21-11.88,9.61Z" style="fill:#f45b69;"/><path d="M1001.06,615.09l-11.31-3.05-.34-1.58c.6-20.28,2.53-30.46,5.77-30.54l16.63-1.13c2.79-1.21,6.14-1.85,10.07-1.92l21.26.11c21.87.3,34.76,2.64,38.68,7.01,4.6,4.22,6.94,14.86,7.01,31.9v3.17l-30.43.68c-4.22,0-6.3-.38-6.22-1.13-1.36.08-2.45-6.97-3.28-21.15-1.43-1.88-3.55-2.79-6.33-2.71-9.65,0-14.48,2.23-14.48,6.67l.45,7.01-.79,15.72-1.58,41.62.45,8.6c-1.74,1.88-7.88,3.13-18.44,3.73l-9.39.45c-.23.07-.42.11-.57.11-1.21,0-2.19-1.66-2.94-4.98l-.11-2.94,6.67-47.5-.79-8.14Z" style="fill:#f45b69;"/><path d="M1161.67,577.43l2.26-3.73,22.06,12.67c2.56,1.21,3.85,2.87,3.85,4.98,0,.9-.27,1.92-.79,3.05l-3.73,7.12-54.06,104.96-4.3,8.94c-1.06.75-2.56,1.13-4.52,1.13-3.47,0-8.33-1.21-14.59-3.62l-8.6-3.17c-1.36-.75-1.32-3.28.11-7.58l1.58-3.28,27.37-44.56-12.44-25.79h-.45l-12.44-28.5-5.99-11.99c-.6-1.28-.91-2.49-.91-3.62,0-2.94,1.92-5.47,5.77-7.58l4.86-1.47c3.24-.98,6.26,1.7,9.05,8.03l4.07,9.61.45.68,11.76,27.37,5.77,11.99v.23c9.12-15.16,17.08-33.78,23.86-55.87Z" style="fill:#f45b69;"/></g><g style="filter:url(#h);"><path d="M1224.94,657.75c-8.14,87.47-12.74,137.05-13.8,148.73l-25.22,3.51-18.89,2.6h-.34c-1.36,0-1.62-.75-.79-2.26,4.15-40.26,8.29-80.49,12.44-120.68l-26.69,1.13c-1.51,0-2.26-.64-2.26-1.92v-.23l1.13-33.14,74.42,2.26Z" style="fill:#3a7ca5;"/><path d="M1235,682.41c3.09-7.31,9.91-10.97,20.47-10.97h24.09l14.48.57c15.61,0,24.84,2.41,27.71,7.24,6.41,4.45,9.61,15.91,9.61,34.38v3.62l-33.03.57h-1.24c-4.83,0-7.24-.41-7.24-1.24-1.51,0-2.71-7.62-3.62-22.85-3.55-1.96-5.96-2.94-7.24-2.94-9.65,0-14.48,2.41-14.48,7.24v1.81l1.13,13.23c6.63,3.92,22.36,8.75,47.16,14.48,6.11,1.58,10.25,4.18,12.44,7.8,6.94,7.09,10.41,18.1,10.41,33.03l-.57,6.11c0,5.05-4.83,10.45-14.48,16.17-13.42,3.32-29.14,5.54-47.16,6.67h-2.26c-18.55-1.13-29.37-2.94-32.46-5.43-9.27-9.28-13.91-18.28-13.91-27.03v-1.92c0-5.2,1.43-7.8,4.3-7.8l6.45.79,14.48-.79,15.61.79h1.92c5.28,0,7.92,1.36,7.92,4.07l-.68,5.43v10.75c4.07,1.21,8.07,1.81,11.99,1.81,7.31,0,10.97-4.75,10.97-14.25-.83-13.19-2.07-21.08-3.73-23.64l-50.67-16.85c-7.54-5.05-11.31-12.48-11.31-22.28,1.13-11.08,2.11-17.27,2.94-18.55Z" style="fill:#3a7ca5;"/></g></svg>