<?xml version="1.0" encoding="UTF-8"?><svg id="a" xmlns="http://www.w3.org/2000/svg" xmlns:xlink="http://www.w3.org/1999/xlink" viewBox="0 0 1536 1024"><defs><filter id="b" filterUnits="userSpaceOnUse"><feOffset dx="9.05" dy="9.05"/><feGaussianBlur result="c" stdDeviation="0"/><feFlood flood-color="#44bba4" flood-opacity="1"/><feComposite in2="c" operator="in"/><feComposite in="SourceGraphic"/></filter></defs><g style="filter:url(#b);"><path d="m184.61,727.38h-10.53v-7.26h8.28c-.68-3.34-1.02-7.07-1.02-11.18,0-21.59,9.68-32.39,29.05-32.39h50.84v29.05h-36.31c-4.84,0-7.26,1.11-7.26,3.34,0,2.61,2.42,3.92,7.26,3.92h14.52c9.15,0,16.15,2.42,20.99,7.26h-6.46v7.26h11.33c2.13,4.79,3.2,10.75,3.2,17.87,0,4.12-.34,7.84-1.02,11.18h-8.93v7.26h12.93v7.26h-28.98v7.19l-68.41.07v-7.26h21.79v-7.26h-14.52v-7.26h7.26v-7.26h36.31c4.84,0,7.26-1.31,7.26-3.92,0-2.23-2.42-3.34-7.26-3.34h-14.52c-2.61,0-5.04-.19-7.26-.58v-6.68h-13.58c-2.03-1.98-3.68-4.41-4.94-7.26Zm98.41,7.26v7.26h-7.26v-7.26h7.26Z" style="fill:#fff; stroke-width:0px;"/><path d="m290.28,727.38h-7.26v-7.26h7.26v-43.57h58.1c19.37,0,29.05,12.1,29.05,36.31,0,2.57-.1,4.99-.29,7.26h-7.7v7.26h6.54c-3.39,14.52-12.59,21.79-27.6,21.79h-21.79v7.26h-7.26v7.26h14.52v7.26h-21.79v7.26h-36.31v-7.26h21.79v-7.26h-14.52v-7.26h7.26v-29.05Zm7.26,7.26v7.26h7.26v-7.26h-7.26Zm29.05-29.05v14.52h7.26c4.84,0,7.26-2.42,7.26-7.26s-2.42-7.26-7.26-7.26h-7.26Zm58.1,29.05v7.26h-7.26v-7.26h7.26Z" style="fill:#fff; stroke-width:0px;"/><path d="m463.99,763.69v7.26h-21.79v7.26h-36.31v-7.26h18.01v-7.26h-10.75v-7.26h7.19v-21.79l-4.07-7.26h-9.15v-7.26h5.01l-24.55-43.57h36.31l14.52,21.79,14.52-21.79h36.31l-24.47,43.57h-8.71v7.26h4.65l-4.07,7.26v21.79h-7.19v7.26h14.52Zm-36.31-29.05v7.26h7.26v-7.26h-7.26Zm43.57,0v7.26h-7.26v-7.26h7.26Z" style="fill:#fff; stroke-width:0px;"/><path d="m569.73,727.38h-7.26v-7.26h7.26v-14.52h-21.79v-29.05h79.89v29.05h-21.79v14.52h-7.26v7.26h7.26v29.05h-7.26v7.26h14.52v7.26h-21.79v7.26h-36.31v-7.26h21.79v-7.26h-14.52v-7.26h7.26v-29.05Zm7.26,7.26v7.26h7.26v-7.26h-7.26Zm43.57,0v7.26h-7.26v-7.26h7.26Z" style="fill:#fff; stroke-width:0px;"/><path d="m649.62,727.38h-7.26v-7.26h7.26v-43.57h36.31v36.31h21.79v-36.31h36.31v43.57h-7.26v7.26h7.26v29.05h-7.26v7.26h14.52v7.26h-21.79v7.26h-21.79v-36.31h-21.79v36.31h-50.84v-7.26h21.79v-7.26h-14.52v-7.26h7.26v-29.05Zm7.26,7.26v7.26h7.26v-7.26h-7.26Zm101.67,0v7.26h-7.26v-7.26h7.26Z" style="fill:#fff; stroke-width:0px;"/><path d="m765.82,727.38h-7.26v-7.26h7.26v-43.57h72.62v29.05h-36.31v7.26h36.31v7.26h-7.26v7.26h7.26v14.52h-36.31v7.26h36.31v7.26h-7.26v7.26h14.52v7.26h-21.79v7.26h-72.62v-7.26h21.79v-7.26h-14.52v-7.26h7.26v-29.05Zm7.26,7.26v7.26h7.26v-7.26h-7.26Zm79.89,0v7.26h-7.26v-7.26h7.26Z" style="fill:#fff; stroke-width:0px;"/><path d="m900.39,727.38h-10.53v-7.26h8.28c-.68-3.34-1.02-7.07-1.02-11.18,0-21.59,9.68-32.39,29.05-32.39h50.84v29.05h-36.31c-4.84,0-7.26,1.11-7.26,3.34,0,2.61,2.42,3.92,7.26,3.92h14.52c9.15,0,16.15,2.42,20.99,7.26h-6.46v7.26h11.33c2.13,4.79,3.2,10.75,3.2,17.87,0,4.12-.34,7.84-1.02,11.18h-8.93v7.26h12.93v7.26h-28.98v7.19l-68.41.07v-7.26h21.79v-7.26h-14.52v-7.26h7.26v-7.26h36.31c4.84,0,7.26-1.31,7.26-3.92,0-2.23-2.42-3.34-7.26-3.34h-14.52c-2.61,0-5.04-.19-7.26-.58v-6.68h-13.58c-2.03-1.98-3.68-4.41-4.94-7.26Zm98.41,7.26v7.26h-7.26v-7.26h7.26Z" style="fill:#fff; stroke-width:0px;"/><path d="m1006.06,727.38h-7.26v-7.26h7.26v-43.57h58.1c19.37,0,29.05,12.1,29.05,36.31,0,2.57-.1,4.99-.29,7.26h-7.7v7.26h6.54c-3.39,14.52-12.59,21.79-27.6,21.79h-21.79v7.26h-7.26v7.26h14.52v7.26h-21.79v7.26h-36.31v-7.26h21.79v-7.26h-14.52v-7.26h7.26v-29.05Zm7.26,7.26v7.26h7.26v-7.26h-7.26Zm29.05-29.05v14.52h7.26c4.84,0,7.26-2.42,7.26-7.26s-2.42-7.26-7.26-7.26h-7.26Zm58.1,29.05v7.26h-7.26v-7.26h7.26Z" style="fill:#fff; stroke-width:0px;"/><path d="m1115,727.38h-7.26v-7.26h7.26v-43.57h36.31v43.57h-7.26v7.26h7.26v29.05h-7.26v7.26h14.52v7.26h-21.79v7.26h-36.31v-7.26h21.79v-7.26h-14.52v-7.26h7.26v-29.05Zm7.26,7.26v7.26h7.26v-7.26h-7.26Zm43.57,0v7.26h-7.26v-7.26h7.26Z" style="fill:#fff; stroke-width:0px;"/><path d="m1173.1,727.38h-7.26v-7.26h7.26v-43.57h72.62v29.05h-36.31v7.26h36.31v7.26h-7.26v7.26h7.26v14.52h-36.31v7.26h36.31v7.26h-7.26v7.26h14.52v7.26h-21.79v7.26h-72.62v-7.26h21.79v-7.26h-14.52v-7.26h7.26v-29.05Zm7.26,7.26v7.26h7.26v-7.26h-7.26Zm79.89,0v7.26h-7.26v-7.26h7.26Z" style="fill:#fff; stroke-width:0px;"/><path d="m1270.78,727.38h-10.53v-7.26h8.28c-.68-3.34-1.02-7.07-1.02-11.18,0-21.59,9.68-32.39,29.05-32.39h50.84v29.05h-36.31c-4.84,0-7.26,1.11-7.26,3.34,0,2.61,2.42,3.92,7.26,3.92h14.52c9.15,0,16.15,2.42,20.99,7.26h-6.46v7.26h11.33c2.13,4.79,3.2,10.75,3.2,17.87,0,4.12-.34,7.84-1.02,11.18h-8.93v7.26h12.93v7.26h-28.98v7.19l-68.41.07v-7.26h21.79v-7.26h-14.52v-7.26h7.26v-7.26h36.31c4.84,0,7.26-1.31,7.26-3.92,0-2.23-2.42-3.34-7.26-3.34h-14.52c-2.61,0-5.04-.19-7.26-.58v-6.68h-13.58c-2.03-1.98-3.68-4.41-4.94-7.26Zm98.41,7.26v7.26h-7.26v-7.26h7.26Z" style="fill:#fff; stroke-width:0px;"/></g></svg>