<?xml version="1.0" encoding="UTF-8"?><svg id="a" xmlns="http://www.w3.org/2000/svg" viewBox="0 0 1536 1024"><path d="m836.76,231.78c0-2.43.56-5.99,1.68-10.29,1.12-4.31,4.31-8.61,9.36-12.92s11.98-6.36,20.59-6.36c14.98,0,30.14,6.74,44.37,13.48,5.8-12.73,11.79-27.33,17.78-43.99,5.43-14.41,11.04-28.83,17.22-43.24-2.62-.38-5.43-.56-8.24-.56-20.59,0-27.89,15.91-27.89,26.77,0,.94-.75,6.36,3.56,12.35,2.06,3,5.05,4.49,8.8,4.49l-1.31,3.74c-2.43,7.49-10.86,21.15-30.51,21.15-9.36,0-16.66-2.81-22.09-8.24s-8.8-11.23-9.73-17.22c-1.12-5.99-1.69-10.67-1.69-14.23,0-5.43.94-11.98,2.81-19.66,1.87-7.67,5.99-15.91,12.17-24.52,12.54-17.22,32.76-29.39,61.03-29.39,13.29,0,24.71,2.43,34.63,7.11,11.79-15.72,25.83-25.83,43.62-25.83,13.29,0,20.78,7.11,22.84,13.85,1.12,3.18,1.69,5.99,1.69,8.42,0,3.56-.75,10.11-6.18,14.6-2.62,2.06-5.62,3.18-9.17,3.18-.94,0-1.87,0-2.81-.19l-.19-1.5c-.56-3.37-2.62-11.79-11.23-11.79-6.55,0-12.35,4.87-18.16,13.29,9.36,9.55,16.29,20.59,20.59,33.32,4.49,12.73,6.74,25.65,6.74,38.75,0,.56-.19,4.49-.19,11.61-.19,7.11-2.43,16.66-6.93,28.45-4.49,11.79-11.04,21.53-19.47,29.02-8.61,7.49-19.09,11.23-31.26,11.23-19.66,0-32.76-6.18-43.05-13.1-11.79,12.73-25.08,20.97-40.81,20.97-20.22,0-32.2-9.73-36.5-21.9-1.31-3.56-2.06-7.3-2.06-10.86Zm34.63,3.56c0,1.5.75,3.37,2.25,5.62,1.5,2.25,5.05,3.37,10.48,3.37,6.55,0,12.54-3.56,17.78-10.86-5.8-3.74-11.42-6.55-18.16-6.55-5.62,0-9.36,1.5-11.04,4.31-.75,1.31-1.31,2.81-1.31,4.12Zm75.63-8.42c9.55,0,17.6-3.37,24.15-10.11,6.55-6.55,10.67-13.67,12.73-21.34,2.06-7.49,3.18-14.04,3.18-19.66,0-4.12-.75-9.73-2.25-16.85-1.31-6.93-5.8-13.85-13.1-20.4-2.43,5.8-5.05,11.79-7.86,17.97-9.55,22.65-20.22,46.8-32.76,67.02,5.62,2.25,10.86,3.37,15.91,3.37Z" style="fill:#fff; stroke-width:0px;"/><path d="m1012.54,220.55l1.69-1.68c3.37-3.37,11.42-14.98,23.02-44.55-12.92-7.11-11.42-17.78-11.42-17.97,0-5.05,1.68-10.11,3.37-13.29l1.12-2.25,28.08,5.05-.94.94c-2.25,2.81-3.56,6.37-3.56,7.67,0,3.93,3,10.48,27.7,10.48,20.03,0,17.97,12.92,17.97,14.04,0,5.99-2.25,14.04-5.43,22.46-2.81,7.49-4.12,12.54-4.12,15.54,0,1.87-.19,5.43,5.24,5.43s8.99-4.49,10.48-7.11l.75-1.12c5.05,0,7.68,1.12,7.86,3.18,0,2.06.19,3.18.19,3.37,0,7.49-6.93,18.16-18.72,26.02-5.99,3.93-12.54,5.99-19.84,5.99-8.05,0-13.48-1.68-16.1-5.05-2.81-3.37-4.12-7.49-4.12-11.98,0-1.5-.37-7.49,4.12-20.03,2.06-6.18,4.31-12.17,6.74-17.6,4.31-10.48,5.43-14.23,5.43-15.91,0-1.31-.56-1.87-1.68-1.87-6.36,0-11.98-.37-16.66-1.12-3.56,8.42-8.99,18.72-15.91,31.07-7.11,12.36-14.79,22.46-22.84,30.51l-2.43-20.22Z" style="fill:#fff; stroke-width:0px;"/><path d="m1106.14,219.61c.19-6.93,1.5-18.53,10.48-32.01,8.99-13.29,22.84-22.65,39.87-22.65,7.86,0,13.48,2.06,16.85,6.36,3.37,4.12,5.05,8.61,5.05,13.29,0,1.12-.37,3.74-.94,7.3-.56,3.74-3.74,8.05-9.92,13.1-6.18,5.05-15.35,8.05-27.33,8.99,2.06,5.05,7.49,8.42,17.41,8.42s18.53-3.37,23.21-6.18l3.37-2.06c5.05,0,7.49.94,7.49,3s.19,3,.19,3c0,7.86-8.61,18.72-24.15,26.58-7.86,3.93-17.04,5.99-27.71,5.99-19.28,0-29.58-9.55-32.57-22.84-.75-3.37-1.12-6.74-1.31-10.29Zm52.04-23.77c3.93-3.74,5.8-6.55,5.8-8.24s.19-2.43.19-2.62c0-3.18-1.5-4.68-4.31-4.68-3.93,0-8.05,2.43-12.17,7.3-4.31,4.87-6.93,10.3-8.24,16.29,8.61-1.68,14.79-4.31,18.72-8.05Z" style="fill:#fff; stroke-width:0px;"/><path d="m1183.08,224.85c0-.94,0-3.93.37-8.8.19-4.87,2.43-11.61,6.74-20.22,4.31-8.61,10.11-15.91,17.6-21.9,7.3-5.99,16.1-8.99,26.39-8.99,8.8,0,14.23,2.43,17.41,6.18l3.37-6.18h24.9l-2.43,5.8c-3.18,8.05-8.05,20.22-10.48,30.51-1.31,5.24-1.87,9.55-1.87,12.92,0,.94.19,2.43.37,4.68.19,2.43,1.87,3.56,5.05,3.56,5.43,0,8.99-4.49,10.48-7.11l.75-1.12c4.31,0,6.55.94,7.11,2.62s.94,3,.94,3.93c0,4.12-2.81,10.86-10.11,18.34-7.49,7.67-17.97,13.67-28.64,13.67-11.98,0-17.6-5.62-19.28-14.04-7.3,8.05-15.91,14.04-26.21,14.04-8.24,0-14.23-3-17.78-8.99-3.18-5.24-4.68-11.61-4.68-18.91Zm30.7-8.42c0,3.93,1.5,5.99,4.68,5.99,5.05,0,11.04-7.3,13.48-11.61l2.81-5.05c2.06-3.74,4.87-10.11,6.18-14.79.56-2.25.94-4.12.94-5.62s.37-5.05-4.12-5.05c-3.93,0-7.68,2.06-11.23,6.37-3.56,4.3-6.55,9.17-8.99,14.6s-3.56,10.3-3.74,14.6v.56Z" style="fill:#fff; stroke-width:0px;"/><path d="m1279.48,230.28c0-.19-.94-6.55,3.74-21.53,4.49-14.79,11.61-29.02,16.66-37.44l3.56-6.36h24.9c-2.81,7.3-5.24,14.04-7.49,20.22,10.67-11.42,24.34-20.22,41.37-20.22s17.22,10.48,17.22,14.79c0,1.87-.19,4.12-.56,6.37,10.67-12.17,24.9-21.15,42.12-21.15,20.03,0,18.16,12.92,18.16,14.41,0,5.8-2.43,13.67-5.43,22.09-2.81,7.49-4.12,12.73-4.12,15.72,0,1.68-.56,5.24,5.24,5.24,5.24,0,8.99-4.49,10.48-7.11l.75-1.12c5.05,0,7.49,1.12,7.68,3.18.19,2.06.19,3.18.19,3.56,0,7.49-6.74,17.97-18.53,25.83-5.99,3.93-12.73,5.99-20.03,5.99-8.05,0-13.29-1.68-16.1-5.05-2.81-3.37-4.12-7.49-4.12-12.17,0-1.31-.37-7.3,4.12-19.84,2.06-6.18,4.31-12.17,6.74-17.6,4.49-10.48,5.62-14.23,5.62-15.91,0-1.31-.56-1.87-1.68-1.87-4.12,0-8.8,3.74-14.04,11.04-5.43,7.3-10.48,15.72-15.35,25.08-5.05,9.55-9.17,17.97-12.35,25.27l-5.05,11.04c-17.97,0-24.15-8.42-24.15-19.84s4.68-24.9,9.17-35.94c3.74-9.73,4.49-13.1,4.49-14.6,0-1.31-.56-2.06-1.68-2.06-3.93,0-8.61,3.74-13.85,11.04-5.43,7.3-10.48,15.72-15.54,25.08-5.05,9.55-9.17,17.97-12.35,25.27l-5.05,11.04c-9.17,0-15.54-2.25-19.09-6.55-3.74-4.12-5.62-9.55-5.62-15.91Z" style="fill:#fff; stroke-width:0px;"/><path d="m1011.04,342.42c0-5.43,1.31-11.23,3.93-17.78,2.43-6.55,7.3-12.35,14.6-17.6,7.3-5.24,16.66-7.86,28.08-7.86,20.97,0,34.63,9.73,46.61,20.22,9.17-11.23,24.15-17.97,44.37-17.97,11.04,0,19.66,2.06,25.83,6.36,6.18,4.31,10.11,8.99,11.61,13.67,1.5,4.68,2.25,8.61,2.25,11.79,0,3-.75,6.74-2.06,11.42-1.5,4.68-4.87,8.99-10.3,13.29-5.43,4.3-12.54,6.55-21.15,6.55-10.67,0-19.47-1.12-26.77-3.56,3.93,7.3,9.36,14.79,16.29,22.28,6.55,6.93,12.17,14.41,17.22,22.46,4.87,8.05,7.3,17.04,7.3,26.77v1.5c-1.31,20.22-13.48,39.69-35.38,51.85-11.04,5.99-24.34,8.99-40.06,8.99-29.76,0-48.67-11.23-58.97-26.96-5.05-7.67-7.86-14.23-8.42-19.66s-.94-9.17-.94-11.04c0-13.29,4.68-28.45,17.22-38.38,6.18-5.05,13.85-7.49,23.02-7.49,22.28,0,32.76,11.61,35.94,17.6l1.69,3.18c-4.31,2.43-6.93,5.24-7.86,8.24-.75,3-1.12,5.24-1.12,6.93,0,2.43.75,5.24,2.25,8.24,1.69,3,4.87,4.49,9.73,4.49,7.49,0,12.17-5.43,12.17-14.98,0-.75,0-2.62-.19-5.99-.19-3.37-2.43-9.55-6.74-18.72-2.43-5.05-4.87-9.55-7.49-13.85-8.24-13.29-11.61-23.59-11.61-32.38,0-3.93.56-8.24,1.5-12.73-6.93-5.43-13.67-9.55-21.9-9.55-7.49,0-10.86,6.37-10.86,12.73,0,.75-.75,5.24,3.56,9.92,2.25,2.25,5.05,3.37,8.61,3.37h1.68v1.31c0,4.68-3.93,17.03-30.33,17.03-9.55,0-17.22-2.62-22.65-7.86-5.43-5.24-8.8-11.61-10.11-19.28-.37-2.25-.56-4.49-.56-6.55Zm117-6.18c5.05,2.43,10.67,3.74,17.22,3.74,6.18,0,10.67-5.43,11.23-8.61.37-1.5.37-2.62.37-3.18,0-3.93-2.25-8.42-10.67-8.42-3.93,0-7.3,1.69-10.48,5.24-3.18,3.56-5.8,7.3-7.67,11.23Z" style="fill:#fff; stroke-width:0px;"/><path d="m1173.53,454.54c0-.56-.94-7.11,3.37-24.15,2.06-8.42,4.49-17.04,7.49-25.46h-8.8l4.12-15.35h10.67c3.93-9.55,7.3-17.6,10.3-23.77l4.31-9.17h25.08l-3.74,9.55c-2.43,6.36-5.24,14.23-8.42,23.4h8.61l-4.12,15.35h-9.36c-4.49,14.41-6.55,25.83-6.55,32.95,0,1.12.19,2.81.37,5.43.19,2.43,1.87,3.74,4.87,3.74,5.24,0,8.99-4.49,10.48-7.11l.56-1.12c4.31,0,6.74.94,7.3,2.62.56,1.69.94,3,.94,3.93,0,4.12-2.81,10.86-10.11,18.34-7.49,7.67-17.97,13.67-28.64,13.67-6.93,0-11.79-2.25-14.6-6.55-2.81-4.12-4.12-9.55-4.12-16.29Z" style="fill:#fff; stroke-width:0px;"/><path d="m1222.01,449.49c0-.94,0-3.93.37-8.8.19-4.87,2.43-11.61,6.74-20.22,4.31-8.61,10.11-15.91,17.6-21.9,7.3-5.99,16.1-8.99,26.39-8.99,8.8,0,14.23,2.43,17.41,6.18l3.37-6.18h24.9l-2.43,5.8c-3.18,8.05-8.05,20.22-10.48,30.51-1.31,5.24-1.87,9.55-1.87,12.92,0,.94.19,2.43.37,4.68.19,2.43,1.87,3.56,5.05,3.56,5.43,0,8.99-4.49,10.48-7.11l.75-1.12c4.31,0,6.55.94,7.11,2.62.56,1.69.94,3,.94,3.93,0,4.12-2.81,10.86-10.11,18.34-7.49,7.67-17.97,13.67-28.64,13.67-11.98,0-17.6-5.62-19.28-14.04-7.3,8.05-15.91,14.04-26.21,14.04-8.24,0-14.23-3-17.78-8.99-3.18-5.24-4.68-11.61-4.68-18.91Zm30.7-8.42c0,3.93,1.5,5.99,4.68,5.99,5.05,0,11.04-7.3,13.48-11.61l2.81-5.05c2.06-3.74,4.87-10.11,6.18-14.79.56-2.25.94-4.12.94-5.62s.37-5.05-4.12-5.05c-3.93,0-7.68,2.06-11.23,6.37-3.56,4.3-6.55,9.17-8.99,14.6s-3.56,10.3-3.74,14.6v.56Z" style="fill:#fff; stroke-width:0px;"/><path d="m1319.17,454.54c0-.56-.94-7.11,3.37-24.15,2.06-8.42,4.49-17.04,7.49-25.46h-8.8l4.12-15.35h10.67c3.93-9.55,7.3-17.6,10.3-23.77l4.31-9.17h25.08l-3.74,9.55c-2.43,6.36-5.24,14.23-8.42,23.4h8.61l-4.12,15.35h-9.36c-4.49,14.41-6.55,25.83-6.55,32.95,0,1.12.19,2.81.37,5.43.19,2.43,1.87,3.74,4.87,3.74,5.24,0,8.99-4.49,10.48-7.11l.56-1.12c4.31,0,6.74.94,7.3,2.62.56,1.69.94,3,.94,3.93,0,4.12-2.81,10.86-10.11,18.34-7.49,7.67-17.97,13.67-28.64,13.67-6.93,0-11.79-2.25-14.6-6.55-2.81-4.12-4.12-9.55-4.12-16.29Z" style="fill:#fff; stroke-width:0px;"/><path d="m1368.21,444.25c.19-6.93,1.5-18.53,10.48-32.01,8.99-13.29,22.84-22.65,39.87-22.65,7.86,0,13.48,2.06,16.85,6.36,3.37,4.12,5.05,8.61,5.05,13.29,0,1.12-.37,3.74-.94,7.3-.56,3.74-3.74,8.05-9.92,13.1-6.18,5.05-15.35,8.05-27.33,8.99,2.06,5.05,7.49,8.42,17.41,8.42s18.53-3.37,23.21-6.18l3.37-2.06c5.05,0,7.49.94,7.49,3s.19,3,.19,3c0,7.86-8.61,18.72-24.15,26.58-7.86,3.93-17.03,5.99-27.71,5.99-19.28,0-29.58-9.55-32.57-22.84-.75-3.37-1.12-6.74-1.31-10.29Zm52.04-23.77c3.93-3.74,5.8-6.55,5.8-8.24s.19-2.43.19-2.62c0-3.18-1.5-4.68-4.31-4.68-3.93,0-8.05,2.43-12.17,7.3-4.31,4.87-6.93,10.3-8.24,16.29,8.61-1.68,14.79-4.31,18.72-8.05Z" style="fill:#fff; stroke-width:0px;"/></svg>