<?xml version="1.0" encoding="UTF-8"?><svg id="a" xmlns="http://www.w3.org/2000/svg" xmlns:xlink="http://www.w3.org/1999/xlink" viewBox="0 0 1536 1024"><defs><filter id="b" filterUnits="userSpaceOnUse"><feOffset dx="14.43" dy="14.43"/><feGaussianBlur result="c" stdDeviation="0"/><feFlood flood-color="#000" flood-opacity="1"/><feComposite in2="c" operator="in"/><feComposite in="SourceGraphic"/></filter></defs><g style="filter:url(#b);"><path d="m182.24,237.94v31.75h-39.69v7.94h39.69v31.75h-39.69v7.94h39.69v31.75h-79.37v-111.12h79.37Z" style="fill:#fff; stroke-width:0px;"/><path d="m253.67,309.38c5.29-.11,7.94-5.4,7.94-15.88v-55.56h39.53v55.56c0,35.46-14.55,53.95-43.66,55.48v.08h-6.91v-.08c-29.69-1.16-44.53-19.66-44.53-55.48v-55.56h39.69v55.56c0,10.48,2.65,15.77,7.94,15.88Z" style="fill:#fff; stroke-width:0px;"/><path d="m114.13,532.94h9.92c2.86,0,4.89.42,6.11,1.27,1.22.85,1.83,2.25,1.83,4.21,0,2.17-.57,3.66-1.71,4.48-1.14.82-3.64,1.23-7.5,1.23h-23.57c-1.9,0-3.33-.48-4.29-1.43s-1.43-2.38-1.43-4.29c0-2.12.54-3.56,1.63-4.33,1.08-.77,3.19-1.15,6.31-1.15h1.51v-71.52h-1.98c-4.44,0-7.45-.42-9.01-1.27-1.56-.85-2.34-2.33-2.34-4.44,0-1.96.67-3.37,2.02-4.25,1.35-.87,3.53-1.31,6.55-1.31,2.12-.11,3.7-.16,4.76-.16h7.46c2.43,0,4.14.28,5.12.83.98.56,2.13,1.97,3.45,4.25l40,69.06v-62.71h-8.73c-2.86,0-4.93-.46-6.23-1.39-1.3-.92-1.94-2.37-1.94-4.33,0-2.17.56-3.66,1.67-4.49,1.11-.82,3.44-1.23,6.99-1.23h22.78c1.9,0,3.32.48,4.25,1.43.93.95,1.39,2.38,1.39,4.29,0,2.12-.57,3.6-1.71,4.44-1.14.85-3.21,1.27-6.23,1.27h-.95v79.93c0,1.54-.36,2.59-1.07,3.17-.71.58-2.37.87-4.96.87s-4.19-.15-4.8-.44c-.61-.29-1.63-1.65-3.06-4.09l-42.23-72.79v64.85Z" style="fill:#f45b69; stroke-width:0px;"/><path d="m251.53,534.05c-4.34,3.92-9.06,6.91-14.17,8.97-5.11,2.06-10.36,3.1-15.76,3.1-7.89,0-14.25-2.2-19.09-6.59-4.84-4.39-7.26-10.11-7.26-17.14,0-8.36,3.21-14.84,9.64-19.45,6.43-4.6,15.46-6.91,27.11-6.91,3.07,0,6.16.2,9.29.6,3.12.4,6.32,1.02,9.6,1.87v-.55c0-6.08-1.46-10.58-4.37-13.49-2.91-2.91-7.44-4.37-13.57-4.37-4.13,0-8.73,1.11-13.81,3.33-5.08,2.22-8.44,3.33-10.08,3.33-1.54,0-2.81-.62-3.81-1.87-1.01-1.24-1.51-2.84-1.51-4.8,0-3.12,2.92-5.77,8.77-7.94,5.85-2.17,13.32-3.25,22.42-3.25s16.35,2.37,21.11,7.1c4.76,4.74,7.14,11.73,7.14,20.99v35.96h3.89c3.76,0,6.27.4,7.54,1.19s1.9,2.22,1.9,4.29c0,1.9-.53,3.33-1.59,4.29-1.06.95-2.65,1.43-4.76,1.43h-12.46c-1.48,0-2.7-.45-3.65-1.35-.95-.9-1.59-2.2-1.9-3.89l-.63-4.84Zm-12.14-91.04c1.32.32,2.53.56,3.61.71,1.08.16,2.1.24,3.06.24,2.33,0,4.51-.89,6.55-2.66,2.04-1.77,3.53-2.66,4.48-2.66,1,0,1.77.25,2.3.75.53.5.79,1.23.79,2.18,0,2.54-1.85,5.2-5.56,7.98-3.7,2.78-7.91,4.17-12.62,4.17-1.64,0-3.28-.09-4.92-.28-1.64-.18-3.2-.46-4.68-.83l-9.13-2.46c-1.27-.32-2.47-.56-3.61-.71-1.14-.16-2.16-.24-3.06-.24-2.33,0-4.51.9-6.55,2.7-2.04,1.8-3.53,2.7-4.48,2.7-1.01,0-1.75-.25-2.22-.75-.48-.5-.71-1.23-.71-2.18,0-2.65,1.84-5.34,5.52-8.1,3.68-2.75,7.9-4.13,12.66-4.13,1.59,0,3.16.09,4.72.28,1.56.19,3.14.46,4.72.83l9.13,2.46Zm11.51,66.04c-2.91-.95-5.73-1.65-8.45-2.1-2.73-.45-5.44-.67-8.14-.67-8.15,0-14.58,1.38-19.29,4.13-4.71,2.75-7.06,6.46-7.06,11.11,0,3.6,1.47,6.56,4.41,8.89,2.94,2.33,6.68,3.49,11.23,3.49,6.72,0,12.95-1.76,18.69-5.28,5.74-3.52,8.61-7.18,8.61-10.99v-8.57Z" style="fill:#f45b69; stroke-width:0px;"/><path d="m372.5,507.54c0,11.32-3.86,20.59-11.59,27.78-7.73,7.2-17.75,10.79-30.08,10.79s-22.28-3.6-30-10.79c-7.73-7.2-11.59-16.46-11.59-27.78s3.86-20.57,11.59-27.74c7.73-7.17,17.73-10.75,30-10.75s22.29,3.6,30.04,10.79c7.75,7.2,11.63,16.43,11.63,27.7Zm-41.67,27.38c8.15,0,14.83-2.58,20.04-7.73,5.21-5.15,7.82-11.72,7.82-19.7s-2.62-14.57-7.86-19.78-11.91-7.81-20-7.81-14.75,2.6-19.96,7.81c-5.21,5.21-7.82,11.8-7.82,19.78s2.59,14.61,7.78,19.74c5.19,5.13,11.85,7.69,20,7.69Z" style="fill:#f45b69; stroke-width:0px;"/><path d="m95.44,735.14l-.65-17.72h8.62l4.39,19.18-7.96-3.74v-5.53c5.69,4.39,11.87,6.67,19.99,6.67,12.52,0,18.37-5.04,18.37-12.52,0-6.99-4.88-10.57-15.12-14.3l-7.48-2.76c-11.87-4.39-19.67-10.73-19.67-21.78,0-11.7,9.92-22.59,27.96-22.59,8.78,0,15.6,2.44,22.59,6.66l-.65,16.42h-8.13l-3.25-16.42,5.85,2.6v4.23c-5.2-4.06-10.73-6.18-16.58-6.18-10.08,0-15.28,4.39-15.28,11.22,0,7.32,4.06,10.08,15.12,14.14l4.88,1.79c16.26,6.01,22.43,13.65,22.43,23.73,0,12.03-10.57,23.08-31.37,23.08-9.1,0-16.09-2.11-24.06-6.18Z" style="fill:#fff; stroke-width:0px;"/><path d="m164.85,701.01c0-26.98,18.37-40.96,37.06-40.96s37.06,13.98,37.06,40.96-18.69,40.31-37.06,40.31-37.06-13.33-37.06-40.31Zm59.49,0c0-21.78-8.29-33.65-22.43-33.65s-22.43,11.87-22.43,33.65,7.97,33,22.43,33,22.43-11.22,22.43-33Z" style="fill:#fff; stroke-width:0px;"/><path d="m273.12,710.43c0,14.47,4.23,19.51,13.17,19.51,8.29,0,16.74-4.06,24.87-12.19h3.41v8.29h-8.29l5.69-2.44c-9.27,12.52-20.32,17.72-30.88,17.72-13,0-21.13-7.8-20.97-29.26l.49-42.91,3.41,3.09-15.12-3.25v-5.69l23.41-2.11,1.63,1.63-.81,22.76v24.87Zm38.69,30.07l-2.28-19.02.49-52.34,3.41,3.09-15.12-3.25v-5.69l23.08-2.11,1.63,1.63-.49,22.76v48.6l-3.9-3.9,15.12,3.25v5.69l-21.94,1.3Z" style="fill:#fff; stroke-width:0px;"/><path d="m90.24,913.14v-82.58c0-2.82,1.41-4.23,4.23-4.23h39.5c2.71,0,4.06,1.14,4.06,3.41v83.39c0,2.6,1.35,3.9,4.06,3.9h11.22c1.52,0,2.55-.27,3.09-.81.54-.54.81-1.46.81-2.76v-82.91c0-2.71,1.35-4.06,4.06-4.06h39.5c2.82,0,4.23,1.36,4.23,4.06v100.62c0,2.82-1.41,4.23-4.23,4.23h-87.46c-2.6,0-3.9-1.41-3.9-4.23v-10.24c0-2.49-1.36-3.74-4.06-3.74h-10.73c-1.19,0-2.22-.43-3.09-1.3-.87-.87-1.3-1.79-1.3-2.76Z" style="fill:#fff; stroke-width:0px;"/><path d="m397.96,848.61v82.58c0,2.71-1.36,4.06-4.06,4.06h-39.66c-2.49,0-3.74-1.25-3.74-3.74v-82.9c0-2.71-1.46-4.06-4.39-4.06h-10.89c-2.71,0-4.06,1.14-4.06,3.41v83.23c0,2.06-.81,3.25-2.44,3.58-.54.33-1.25.49-2.11.49h-39.5c-2.6,0-3.9-1.25-3.9-3.74v-82.9c0-2.71-1.36-4.06-4.06-4.06h-11.22c-2.6,0-3.9,1.14-3.9,3.41v83.23c0,2.6-1.41,3.9-4.23,3.9h-39.18c-2.93,0-4.39-1.3-4.39-3.9v-100.79c0-2.71,1.41-4.06,4.23-4.06h154.43c2.71,0,4.06,1.36,4.06,4.06v9.92c0,2.82,1.35,4.23,4.06,4.23h10.73c1.08,0,2.06.38,2.93,1.14.87.76,1.3,1.73,1.3,2.93Z" style="fill:#fff; stroke-width:0px;"/><path d="m479.65,845.68c.92-.76,1.87-1.14,2.84-1.14h10.73c2.71,0,4.06-1.41,4.06-4.23v-9.92c0-2.71,1.41-4.06,4.23-4.06h87.13c2.93,0,4.39,1.36,4.39,4.06v46.33c0,2.6-1.52,3.9-4.55,3.9h-39.18c-2.82,0-4.23-1.3-4.23-3.9v-28.12c0-2.71-1.3-4.06-3.9-4.06h-10.89c-2.93,0-4.39,1.36-4.39,4.06v82.9c0,2.49-1.36,3.74-4.06,3.74h-39.5c-2.71,0-4.06-1.35-4.06-4.06v-82.58c0-1.19.46-2.17,1.38-2.93Z" style="fill:#f2e863; stroke-width:0px;"/><path d="m717.71,915.66c-.87.71-1.9,1.06-3.09,1.06h-10.73c-2.71,0-4.06,1.36-4.06,4.06v10.24c0,2.71-1.36,4.06-4.06,4.06h-87.94c-1.19,0-2.01-.38-2.44-1.14-.33-.22-.6-.59-.81-1.14-.22-.54-.33-1.14-.33-1.79v-82.42c.11-1.19.62-2.17,1.54-2.93.92-.76,1.87-1.14,2.84-1.14h10.73c2.71,0,4.06-1.41,4.06-4.23v-9.92c0-2.71,1.41-4.06,4.23-4.06h87.62c1.41,0,2.28.33,2.6.98.76.54,1.14,1.36,1.14,2.44v83.07c0,1.19-.43,2.14-1.3,2.84Zm-61.28-71.12c-2.93,0-4.39,1.36-4.39,4.06v67.79h15.61c2.38,0,3.58-1.19,3.58-3.58v-64.86c0-2.28-1.3-3.41-3.9-3.41h-10.89Z" style="fill:#f2e863; stroke-width:0px;"/><path d="m778.51,830.08v28.45c0,2.6,1.3,3.9,3.9,3.9h58.85c2.82,0,4.23,1.3,4.23,3.9v64.86c0,2.71-1.36,4.06-4.06,4.06h-87.46c-2.82,0-4.23-1.35-4.23-4.06v-10.24c0-2.82-1.36-4.23-4.06-4.23h-10.4c-2.93,0-4.39-1.24-4.39-3.74v-82.91c0-2.49,1.35-3.74,4.06-3.74h39.5c2.71,0,4.06,1.25,4.06,3.74Zm15.12,50.56h-10.73c-2.93,0-4.39,1.3-4.39,3.9v28.45c0,2.49,1.46,3.74,4.39,3.74h10.73c2.93,0,4.39-1.24,4.39-3.74v-28.45c0-2.6-1.46-3.9-4.39-3.9Z" style="fill:#f2e863; stroke-width:0px;"/><path d="m970.16,915.66c-.87.71-1.9,1.06-3.09,1.06h-10.73c-2.71,0-4.06,1.36-4.06,4.06v10.24c0,2.71-1.36,4.06-4.06,4.06h-87.94c-1.19,0-2.01-.38-2.44-1.14-.33-.22-.6-.59-.81-1.14-.22-.54-.33-1.14-.33-1.79v-82.42c.11-1.19.62-2.17,1.54-2.93.92-.76,1.87-1.14,2.84-1.14h10.73c2.71,0,4.06-1.41,4.06-4.23v-9.92c0-2.71,1.41-4.06,4.23-4.06h87.62c1.41,0,2.28.33,2.6.98.76.54,1.14,1.36,1.14,2.44v83.07c0,1.19-.43,2.14-1.3,2.84Zm-65.51-115.66c-1.73.43-2.6,1.73-2.6,3.9v10.24c0,2.71-1.46,4.06-4.39,4.06h-20.48c-1.41,0-2.47-.46-3.17-1.38-.71-.92-1.06-1.98-1.06-3.17v-37.39c0-2.71,1.24-4.06,3.74-4.06h76.57c2.49,0,3.74,1.36,3.74,4.06v37.39c0,1.19-.35,2.25-1.06,3.17-.71.92-1.76,1.38-3.17,1.38h-20.48c-2.93,0-4.39-1.35-4.39-4.06v-10.24c0-2.17-.87-3.47-2.6-3.9h-20.65Zm4.23,44.54c-2.93,0-4.39,1.36-4.39,4.06v67.79h15.61c2.38,0,3.58-1.19,3.58-3.58v-64.86c0-2.28-1.3-3.41-3.9-3.41h-10.89Z" style="fill:#f2e863; stroke-width:0px;"/></g></svg>