<?xml version="1.0" encoding="UTF-8"?><svg id="a" xmlns="http://www.w3.org/2000/svg" viewBox="0 0 1536 1024"><path d="m629.67,102.98c0-5.43,1.31-11.23,3.93-17.78,2.43-6.55,7.3-12.35,14.6-17.6,7.3-5.24,16.66-7.86,28.08-7.86,20.97,0,34.63,9.73,46.61,20.22,9.17-11.23,24.15-17.97,44.37-17.97,11.04,0,19.66,2.06,25.83,6.36,6.18,4.31,10.11,8.99,11.61,13.67,1.5,4.68,2.25,8.61,2.25,11.79,0,3-.75,6.74-2.06,11.42-1.5,4.68-4.87,8.99-10.3,13.29-5.43,4.3-12.54,6.55-21.15,6.55-10.67,0-19.47-1.12-26.77-3.56,3.93,7.3,9.36,14.79,16.29,22.28,6.55,6.93,12.17,14.41,17.22,22.46,4.87,8.05,7.3,17.04,7.3,26.77v1.5c-1.31,20.22-13.48,39.69-35.38,51.85-11.04,5.99-24.34,8.99-40.06,8.99-29.76,0-48.67-11.23-58.97-26.96-5.05-7.67-7.86-14.23-8.42-19.66-.56-5.43-.94-9.17-.94-11.04,0-13.29,4.68-28.45,17.22-38.38,6.18-5.05,13.85-7.49,23.02-7.49,22.28,0,32.76,11.61,35.94,17.6l1.69,3.18c-4.31,2.43-6.93,5.24-7.86,8.24-.75,3-1.12,5.24-1.12,6.93,0,2.43.75,5.24,2.25,8.24,1.69,3,4.87,4.49,9.73,4.49,7.49,0,12.17-5.43,12.17-14.98,0-.75,0-2.62-.19-5.99-.19-3.37-2.43-9.55-6.74-18.72-2.43-5.05-4.87-9.55-7.49-13.85-8.24-13.29-11.61-23.59-11.61-32.38,0-3.93.56-8.24,1.5-12.73-6.93-5.43-13.67-9.55-21.9-9.55-7.49,0-10.86,6.37-10.86,12.73,0,.75-.75,5.24,3.56,9.92,2.25,2.25,5.05,3.37,8.61,3.37h1.68v1.31c0,4.68-3.93,17.03-30.33,17.03-9.55,0-17.22-2.62-22.65-7.86-5.43-5.24-8.8-11.61-10.11-19.28-.37-2.25-.56-4.49-.56-6.55Zm117-6.18c5.05,2.43,10.67,3.74,17.22,3.74,6.18,0,10.67-5.43,11.23-8.61.37-1.5.37-2.62.37-3.18,0-3.93-2.25-8.42-10.67-8.42-3.93,0-7.3,1.69-10.48,5.24-3.18,3.56-5.8,7.3-7.67,11.23Z" style="fill:#fff; stroke-width:0px;"/><path d="m793.47,202.94c0-5.8.56-16.66,9.36-30.14,8.8-13.29,23.4-22.65,43.62-22.65,9.55,0,17.22,2.06,22.65,6.36s8.8,8.99,10.11,14.04c1.31,5.05,2.06,9.55,2.06,13.29,0,6.55-1.12,17.97-10.67,31.26-9.55,13.29-24.52,22.84-43.99,22.84-17.41,0-27.7-9.55-31.45-22.84-1.12-3.93-1.68-7.86-1.68-12.17Zm47.55,4.68c5.8,0,10.48-2.25,14.04-6.55s5.8-8.24,6.36-11.79.94-6.18.94-7.86c0-3.37-.94-6.93-2.62-10.48-1.68-3.56-5.43-5.43-11.23-5.43-13.29,0-22.84,15.16-22.84,27.14,0,8.42,4.31,14.98,15.35,14.98Z" style="fill:#fff; stroke-width:0px;"/><path d="m883.32,215.48c0-.19-.94-6.55,3.74-21.53,4.49-14.79,11.61-29.02,16.66-37.44l3.56-6.36h24.9c-2.81,7.3-5.24,14.04-7.49,20.22,10.67-11.42,24.34-20.22,41.37-20.22,20.03,0,17.97,12.92,17.97,14.04,0,5.99-2.25,14.04-5.43,22.46-2.81,7.49-4.12,12.54-4.12,15.54,0,1.87-.19,5.43,5.24,5.43s8.99-4.49,10.48-7.11l.75-1.12c5.05,0,7.49,1.12,7.67,3.18.19,2.06.19,3.18.19,3.56,0,7.49-6.74,17.97-18.53,25.83-5.99,3.93-12.54,5.99-19.84,5.99-8.05,0-13.48-1.68-16.1-5.05-2.81-3.37-4.12-7.49-4.12-11.98,0-1.5-.37-7.49,4.12-20.03,2.06-6.18,4.31-12.17,6.55-17.6,4.49-10.48,5.62-14.23,5.62-15.91,0-1.31-.56-1.87-1.68-1.87-3.93,0-8.61,3.74-13.85,11.04-5.43,7.3-10.48,15.72-15.54,25.08-5.05,9.55-9.17,17.97-12.35,25.27l-5.05,11.04c-9.17,0-15.54-2.25-19.09-6.55-3.74-4.12-5.62-9.55-5.62-15.91Z" style="fill:#fff; stroke-width:0px;"/><path d="m990.03,211.55c0-12.92,3.93-29.58,9.92-46.8,5.99-17.22,12.73-32.01,17.03-41l3.18-6.55h24.9c-7.3,19.66-13.29,38.19-17.97,55.78,10.67-12.92,25.46-22.84,43.62-22.84,20.03,0,17.97,12.92,17.97,14.04,0,5.99-2.25,14.04-5.24,22.46-3,7.49-4.31,12.54-4.31,15.54,0,1.87-.37,5.43,5.43,5.43,5.24,0,8.8-4.49,10.3-7.11l.75-1.12c5.05,0,7.67,1.12,7.86,3.18,0,2.06.19,3.18.19,3.37,0,7.49-6.93,18.16-18.72,26.02-5.99,3.93-12.54,5.99-19.84,5.99-8.05,0-13.48-1.68-16.1-5.05-2.81-3.37-4.12-7.49-4.12-11.98,0-1.5-.37-7.49,4.12-20.03,2.06-6.18,4.31-12.17,6.74-17.6,4.49-10.48,5.62-14.23,5.62-15.91,0-1.31-.56-1.87-1.68-1.87-4.12,0-8.8,3.74-14.04,11.04-5.43,7.3-10.48,15.72-15.54,25.08-5.05,9.55-9.17,17.97-12.35,25.27l-4.87,11.04c-15.91,0-22.09-9.73-22.84-23.96v-2.43Z" style="fill:#fff; stroke-width:0px;"/><path d="m1092.8,217.54c0-1.5-.37-8.61,4.31-23.59,4.68-14.79,11.61-29.02,16.29-37.44l3.37-6.36h24.9l-2.43,5.8c-3.18,8.05-8.05,20.22-10.48,30.51-1.31,5.24-1.87,9.55-1.87,12.92,0,.94.19,2.43.37,4.68.19,2.43,1.87,3.56,5.05,3.56,5.24,0,8.99-4.49,10.48-7.11l.56-1.12c4.31,0,6.74.94,7.3,2.62.56,1.69.75,3,.75,4.12,0,3.93-2.62,10.67-9.92,18.16-7.49,7.67-17.97,13.67-28.64,13.67-7.86,0-13.29-2.25-16.1-6.55-2.62-3.74-3.93-8.24-3.93-13.85Zm41.56-100.34c7.67,0,14.04,6.18,14.04,14.23s-6.36,14.04-14.04,14.04c-8.05,0-14.23-6.37-14.23-14.04s6.18-14.23,14.23-14.23Z" style="fill:#fff; stroke-width:0px;"/><path d="m1141.28,215.48c0-.19-.94-6.55,3.74-21.53,4.49-14.79,11.61-29.02,16.66-37.44l3.56-6.36h24.9c-2.81,7.3-5.24,14.04-7.49,20.22,10.67-11.42,24.34-20.22,41.37-20.22,20.03,0,17.97,12.92,17.97,14.04,0,5.99-2.25,14.04-5.43,22.46-2.81,7.49-4.12,12.54-4.12,15.54,0,1.87-.19,5.43,5.24,5.43s8.99-4.49,10.48-7.11l.75-1.12c5.05,0,7.49,1.12,7.67,3.18.19,2.06.19,3.18.19,3.56,0,7.49-6.74,17.97-18.53,25.83-5.99,3.93-12.54,5.99-19.84,5.99-8.05,0-13.48-1.68-16.1-5.05-2.81-3.37-4.12-7.49-4.12-11.98,0-1.5-.37-7.49,4.12-20.03,2.06-6.18,4.31-12.17,6.55-17.6,4.49-10.48,5.62-14.23,5.62-15.91,0-1.31-.56-1.87-1.68-1.87-3.93,0-8.61,3.74-13.85,11.04-5.43,7.3-10.48,15.72-15.54,25.08-5.05,9.55-9.17,17.97-12.35,25.27l-5.05,11.04c-9.17,0-15.54-2.25-19.09-6.55-3.74-4.12-5.62-9.55-5.62-15.91Z" style="fill:#fff; stroke-width:0px;"/><path d="m1247.98,211.55c0-12.92,3.93-29.58,9.92-46.8,5.99-17.22,12.73-32.01,17.03-41l3.18-6.55h24.9c-7.3,19.66-13.29,38.19-17.97,55.78,10.67-12.92,25.46-22.84,43.62-22.84,20.03,0,17.97,12.92,17.97,14.04,0,5.99-2.25,14.04-5.24,22.46-3,7.49-4.31,12.54-4.31,15.54,0,1.87-.37,5.43,5.43,5.43,5.24,0,8.8-4.49,10.3-7.11l.75-1.12c5.05,0,7.67,1.12,7.86,3.18,0,2.06.19,3.18.19,3.37,0,7.49-6.93,18.16-18.72,26.02-5.99,3.93-12.54,5.99-19.84,5.99-8.05,0-13.48-1.68-16.1-5.05-2.81-3.37-4.12-7.49-4.12-11.98,0-1.5-.37-7.49,4.12-20.03,2.06-6.18,4.31-12.17,6.74-17.6,4.49-10.48,5.62-14.23,5.62-15.91,0-1.31-.56-1.87-1.68-1.87-4.12,0-8.8,3.74-14.04,11.04-5.43,7.3-10.48,15.72-15.54,25.08-5.05,9.55-9.17,17.97-12.35,25.27l-4.87,11.04c-15.91,0-22.09-9.73-22.84-23.96v-2.43Z" style="fill:#fff; stroke-width:0px;"/><path d="m1353.38,202.94c0-5.8.56-16.66,9.36-30.14,8.8-13.29,23.4-22.65,43.62-22.65,9.55,0,17.22,2.06,22.65,6.36s8.8,8.99,10.11,14.04c1.31,5.05,2.06,9.55,2.06,13.29,0,6.55-1.12,17.97-10.67,31.26-9.55,13.29-24.52,22.84-43.99,22.84-17.41,0-27.7-9.55-31.45-22.84-1.12-3.93-1.68-7.86-1.68-12.17Zm47.55,4.68c5.8,0,10.48-2.25,14.04-6.55s5.8-8.24,6.36-11.79.94-6.18.94-7.86c0-3.37-.94-6.93-2.62-10.48-1.68-3.56-5.43-5.43-11.23-5.43-13.29,0-22.84,15.16-22.84,27.14,0,8.42,4.31,14.98,15.35,14.98Z" style="fill:#fff; stroke-width:0px;"/><path d="m967.93,432.07c0-3,.56-7.49,1.69-13.48,1.12-6.18,4.87-12.73,11.42-19.84,6.55-6.93,13.48-11.42,20.97-13.1,7.67-1.68,13.67-2.43,18.16-2.43,8.24,0,17.41,1.5,27.52,4.31l-.75,3.37c-1.31,4.49-1.5,9.55-1.5,11.98,0,5.8.75,18.34,14.23,18.34,11.04,0,18.91-12.35,26.21-30.51,3.56-9.17,7.3-19.09,10.86-29.95,5.43-16.66,11.61-32.76,18.72-48.3-9.92.75-17.97,3.37-24.15,7.67-6.18,4.49-10.3,8.8-11.98,13.1-1.69,4.31-2.43,7.86-2.43,10.48,0,2.06.56,4.68,1.87,7.67,1.31,3.18,4.87,4.68,10.67,4.68l.19,2.81c0,7.49-3,25.65-28.08,25.65-7.68,0-13.67-2.25-18.35-6.55-4.68-4.31-7.49-8.61-8.42-13.1-.75-4.49-1.12-7.86-1.12-10.11,0-9.55,3.18-23.02,17.03-36.5,13.85-13.48,37.06-23.21,71.32-23.21.75,0,1.5,0,2.25.19h1.12c9.73-14.79,22.09-24.15,38.56-24.15,6.36,0,11.04,1.31,14.23,3.93,3.18,2.81,4.87,5.05,5.05,7.11.19,2.06.37,3.56.37,4.12,0,5.24-3.18,11.23-10.11,11.23l-1.31-1.31c-2.06-1.5-5.62-3.74-10.67-3.74-4.12,0-7.86,2.25-11.04,6.93,13.48,4.68,22.46,10.48,26.77,17.6,4.31,7.11,6.36,13.48,6.36,19.09,0,3.37-1.12,8.42-3.56,14.79-2.43,6.36-9.92,12.35-22.65,17.97,9.36,3.37,16.1,8.8,20.22,16.29,3.93,7.67,5.99,15.72,5.99,24.52,0,.75,0,3.74-.19,8.99s-2.43,12.35-6.74,21.34c-4.31,9.17-10.3,16.66-17.97,22.65-7.67,6.18-16.66,9.17-26.96,9.17s-17.22-2.06-21.9-6.36c-4.68-4.31-7.3-8.24-7.86-12.17-.37-3.74-.75-6.55-.75-8.05,0-9.17,3.74-20.59,11.98-29.01,4.12-4.31,8.61-6.37,13.48-6.37l.19.94c.56,2.43,2.81,8.24,14.04,8.24,5.62,0,9.55-1.68,11.79-4.87,2.25-3.18,3.37-6.36,3.37-9.36,0-1.5-.37-3.93-1.12-7.11-.94-3.18-4.31-6.74-10.11-10.67-5.99-3.74-14.6-5.8-26.02-6.18-8.8,24.71-19.66,48.67-35.01,67.76-15.35,19.28-35.38,31.45-62.34,31.45-13.67,0-24.52-2.81-32.76-8.61-8.42-5.8-14.23-13.1-17.41-21.71-2.25-5.8-3.37-11.61-3.37-17.6Zm179.52-81.24c4.68-5.24,7.11-10.67,7.11-16.1,0-.94-.19-3.18-.56-6.74-.56-3.74-4.87-7.67-12.92-11.61-3.93,9.92-7.86,21.34-12.17,34.63-1.12,3.18-2.25,6.55-3.18,9.92,9.55-1.5,16.85-4.87,21.71-10.11Z" style="fill:#fff; stroke-width:0px;"/><path d="m1189.02,427.58c0-5.8.56-16.66,9.36-30.14,8.8-13.29,23.4-22.65,43.62-22.65,9.55,0,17.22,2.06,22.65,6.36s8.8,8.99,10.11,14.04c1.31,5.05,2.06,9.55,2.06,13.29,0,6.55-1.12,17.97-10.67,31.26-9.55,13.29-24.52,22.84-43.99,22.84-17.41,0-27.7-9.55-31.45-22.84-1.12-3.93-1.68-7.86-1.68-12.17Zm47.55,4.68c5.8,0,10.48-2.25,14.04-6.55s5.8-8.24,6.36-11.79c.56-3.56.94-6.18.94-7.86,0-3.37-.94-6.93-2.62-10.48-1.68-3.56-5.43-5.43-11.23-5.43-13.29,0-22.84,15.16-22.84,27.14,0,8.42,4.31,14.98,15.35,14.98Z" style="fill:#fff; stroke-width:0px;"/><path d="m1278.68,440.12c0-.19-.94-6.55,3.74-21.53,4.49-14.79,11.61-29.02,16.66-37.44l3.56-6.36h24.9c-2.81,7.3-5.24,14.04-7.49,20.22,10.67-11.42,24.34-20.22,41.37-20.22s17.22,10.48,17.22,14.79c0,1.87-.19,4.12-.56,6.37,10.67-12.17,24.9-21.15,42.12-21.15,20.03,0,18.16,12.92,18.16,14.41,0,5.8-2.43,13.67-5.43,22.09-2.81,7.49-4.12,12.73-4.12,15.72,0,1.68-.56,5.24,5.24,5.24,5.24,0,8.99-4.49,10.48-7.11l.75-1.12c5.05,0,7.49,1.12,7.68,3.18.19,2.06.19,3.18.19,3.56,0,7.49-6.74,17.97-18.53,25.83-5.99,3.93-12.73,5.99-20.03,5.99-8.05,0-13.29-1.68-16.1-5.05-2.81-3.37-4.12-7.49-4.12-12.17,0-1.31-.37-7.3,4.12-19.84,2.06-6.18,4.31-12.17,6.74-17.6,4.49-10.48,5.62-14.23,5.62-15.91,0-1.31-.56-1.87-1.68-1.87-4.12,0-8.8,3.74-14.04,11.04-5.43,7.3-10.48,15.72-15.35,25.08-5.05,9.55-9.17,17.97-12.35,25.27l-5.05,11.04c-17.97,0-24.15-8.42-24.15-19.84s4.68-24.9,9.17-35.94c3.74-9.73,4.49-13.1,4.49-14.6,0-1.31-.56-2.06-1.68-2.06-3.93,0-8.61,3.74-13.85,11.04-5.43,7.3-10.48,15.72-15.54,25.08-5.05,9.55-9.17,17.97-12.35,25.27l-5.05,11.04c-9.17,0-15.54-2.25-19.09-6.55-3.74-4.12-5.62-9.55-5.62-15.91Z" style="fill:#fff; stroke-width:0px;"/></svg>