<?xml version="1.0" encoding="UTF-8"?><svg id="a" xmlns="http://www.w3.org/2000/svg" xmlns:xlink="http://www.w3.org/1999/xlink" viewBox="0 0 1536 1024"><defs><filter id="b" filterUnits="userSpaceOnUse"><feOffset dx="10.4" dy="10.4"/><feGaussianBlur result="c" stdDeviation="0"/><feFlood flood-color="#fff" flood-opacity="1"/><feComposite in2="c" operator="in"/><feComposite in="SourceGraphic"/></filter></defs><g style="filter:url(#b);"><path d="m377.01,282.27c-3.85-18.46-14.6-27.58-32.04-27.58-24.74,0-39.14,19.47-39.14,52.93s15.01,53.14,40.16,53.14c11.15,0,20.69-4.66,26.57-12.78,3.45-4.87,4.87-8.92,6.08-17.44l42.18,6.29c-3.85,17.24-8.31,27.18-16.83,37.11-12.57,14.4-32.25,22.11-56.79,22.11s-45.63-7.71-60.03-22.31c-15.01-15.21-23.53-38.94-23.53-66.11s8.52-50.9,24.54-66.72c13.99-13.59,34.48-21.09,58.21-21.09,26.16,0,46.65,8.92,59.83,26.57,6.49,8.31,9.94,15.82,12.57,27.78l-41.78,8.11Z" style="fill:#f45b69; stroke:#fff; stroke-linecap:round; stroke-linejoin:round; stroke-width:10.4px;"/><path d="m432.98,330.13c0-40.56,25.96-66.32,66.93-66.32s66.93,25.76,66.93,65.91-26.77,67.13-67.13,67.13-66.72-25.96-66.72-66.72Zm38.74-.2c0,22.51,10.55,36.1,28.19,36.1s27.78-13.18,27.78-35.69-10.34-36.1-27.58-36.1-28.39,13.39-28.39,35.69Z" style="fill:#f45b69; stroke:#fff; stroke-linecap:round; stroke-linejoin:round; stroke-width:10.4px;"/><path d="m583.25,392.19c1.22-9.53,1.62-18.05,1.62-30.62v-62.46c0-13.99-.41-22.51-1.62-30.62h40.36v8.52c0,1.22-.2,4.26-.2,5.68,12.78-12.17,25.15-17.24,41.78-17.24,13.99,0,25.15,3.85,32.65,11.36,8.11,8.11,11.56,18.05,11.56,34.07v50.9c0,11.76.61,21.9,1.62,30.42h-42.18c1.22-9.73,1.62-18.25,1.62-30.62v-41.58c0-8.11-.81-11.56-3.24-15.01-2.64-3.65-7.3-5.68-13.39-5.68-11.36,0-21.5,7.1-30.22,21.29v40.97c0,11.56.41,20.08,1.62,30.62h-41.98Z" style="fill:#f45b69; stroke:#fff; stroke-linecap:round; stroke-linejoin:round; stroke-width:10.4px;"/><path d="m748.13,264.22c0-10.14-.41-18.25-1.62-27.78h41.37c-1.01,8.31-1.62,18.05-1.62,27.78v4.26h7.3c8.92,0,13.59-.2,19.88-1.01v33.67c-6.08-.81-11.36-1.22-18.66-1.22h-8.52v51.92c0,5.68,1.01,8.52,3.65,10.34,2.23,1.42,5.48,2.23,9.33,2.23,5.27,0,9.13-1.01,14.2-3.65l3.04,30.83c-9.13,2.84-17.04,4.06-27.99,4.06-13.79,0-23.32-2.23-29.81-7.1-7.71-5.88-10.55-12.78-10.55-26.57v-62.06h-7.71c-6.49,0-11.76.41-17.64,1.22v-33.87c5.88.81,10.95,1.22,18.05,1.22h7.3v-4.26Z" style="fill:#f45b69; stroke:#fff; stroke-linecap:round; stroke-linejoin:round; stroke-width:10.4px;"/><path d="m920.51,304.99c-9.33-2.84-14.4-3.85-20.69-3.85-10.34,0-18.25,3.65-24.13,10.95-3.85,4.87-5.27,9.13-6.08,18.05v31.64c0,12.98.41,20.69,1.62,30.42h-41.98c1.22-10.14,1.62-17.44,1.62-30.62v-62.46c0-14.8-.41-21.9-1.62-30.62h40.36v16.02c9.94-12.98,22.11-18.46,40.56-18.46,6.49,0,10.55.41,20.08,2.43l-9.73,36.5Z" style="fill:#f45b69; stroke:#fff; stroke-linecap:round; stroke-linejoin:round; stroke-width:10.4px;"/><path d="m937.13,330.13c0-40.56,25.96-66.32,66.93-66.32s66.93,25.76,66.93,65.91-26.77,67.13-67.13,67.13-66.72-25.96-66.72-66.72Zm38.74-.2c0,22.51,10.55,36.1,28.19,36.1s27.78-13.18,27.78-35.69-10.34-36.1-27.58-36.1-28.39,13.39-28.39,35.69Z" style="fill:#f45b69; stroke:#fff; stroke-linecap:round; stroke-linejoin:round; stroke-width:10.4px;"/><path d="m1129.79,223.46c-1.22,8.52-1.62,16.83-1.62,30.62v107.49c0,12.17.41,19.87,1.62,30.62h-42.39c1.22-9.13,1.62-16.02,1.62-30.62v-107.49c0-14.4-.41-22.92-1.62-30.62h42.39Z" style="fill:#f45b69; stroke:#fff; stroke-linecap:round; stroke-linejoin:round; stroke-width:10.4px;"/><path d="m1183.13,341.69c2.03,16.43,11.56,25.15,27.58,25.15,8.11,0,15.21-2.64,20.48-7.5,3.04-2.84,4.46-5.07,6.08-10.34l35.29,9.94c-4.66,10.55-7.71,15.21-13.39,20.89-11.56,11.36-27.78,17.24-47.86,17.24s-35.49-5.68-47.05-17.24c-11.97-12.17-18.46-29.41-18.46-49.48,0-40.16,25.76-66.72,64.49-66.72,31.64,0,53.74,17.24,60.84,47.46,1.62,6.49,2.43,15.01,3.04,26.57,0,.81,0,2.03.2,4.06h-91.26Zm52.73-27.99c-2.84-12.98-11.56-19.87-25.55-19.87s-23.12,6.49-26.57,19.87h52.12Z" style="fill:#f45b69; stroke:#fff; stroke-linecap:round; stroke-linejoin:round; stroke-width:10.4px;"/><path d="m725.72,535.46c0-1.22,0-2.64.2-4.46-13.59,10.95-23.93,14.6-40.97,14.6-36.91,0-59.22-24.74-59.22-65.71,0-21.09,6.08-37.92,17.44-49.48,10.34-10.34,24.54-15.82,41.17-15.82s28.19,4.26,41.57,15.01c-.2-3.04-.2-4.87-.2-7.71v-16.83c0-14.2-.41-22.92-1.62-31.84h41.57c-1.22,8.52-1.62,18.25-1.62,31.84v105.05c0,13.59.41,21.9,1.62,31.84h-39.95v-6.49Zm-60.64-55.37c0,11.56,3.24,20.89,9.33,26.77,4.87,4.87,12.17,7.71,19.67,7.71,18.05,0,31.23-15.01,31.23-35.09s-12.98-33.87-31.43-33.87-28.8,13.18-28.8,34.48Z" style="fill:#f45b69; stroke:#fff; stroke-linecap:round; stroke-linejoin:round; stroke-width:10.4px;"/><path d="m819.01,491.45c2.03,16.43,11.56,25.15,27.58,25.15,8.11,0,15.21-2.64,20.48-7.5,3.04-2.84,4.46-5.07,6.08-10.34l35.29,9.94c-4.66,10.55-7.71,15.21-13.39,20.89-11.56,11.36-27.78,17.24-47.86,17.24s-35.49-5.68-47.05-17.24c-11.97-12.17-18.46-29.41-18.46-49.48,0-40.16,25.76-66.72,64.49-66.72,31.64,0,53.74,17.24,60.84,47.46,1.62,6.49,2.43,15.01,3.04,26.57,0,.81,0,2.03.2,4.06h-91.26Zm52.73-27.99c-2.84-12.98-11.56-19.87-25.55-19.87s-23.12,6.49-26.57,19.87h52.12Z" style="fill:#f45b69; stroke:#fff; stroke-linecap:round; stroke-linejoin:round; stroke-width:10.4px;"/><path d="m423.86,693.13c-8.72-1.01-16.02-1.42-33.46-1.42h-63.88c-15.41,0-21.09.2-29.81.61,1.22-8.11,1.62-15.62,1.62-29.61v-110.73c0-12.57-.41-19.67-1.62-29.61,8.31.41,13.99.61,29.81.61h64.69c13.79,0,20.69-.41,30.22-1.42v37.92c-9.33-1.01-16.63-1.42-30.22-1.42h-52.73v29.81h43.81c13.39,0,18.25-.2,30.42-1.42v37.52c-9.53-1.01-16.43-1.42-30.42-1.42h-43.81v34.07h52.32c15.41,0,24.34-.41,33.06-1.42v37.92Z" style="fill:#f45b69; stroke:#fff; stroke-linecap:round; stroke-linejoin:round; stroke-width:10.4px;"/><path d="m478.2,650.34c2.03,10.55,8.92,15.21,22.51,15.21,12.17,0,19.06-3.45,19.06-9.73,0-3.04-1.62-5.68-4.46-7.3-2.84-1.62-5.48-2.43-16.63-4.66-15.41-3.04-23.32-5.07-30.02-7.3-9.73-3.65-16.43-8.31-20.28-14.4-3.25-5.48-5.07-12.37-5.07-19.27,0-24.34,20.48-39.14,54.35-39.14,19.27,0,33.67,4.26,43.2,12.98,6.69,5.88,9.94,11.76,13.18,23.12l-39.14,4.26c-1.01-8.31-6.08-11.97-17.04-11.97s-17.04,3.45-17.04,8.72,4.26,7.5,24.34,11.97c19.88,4.26,26.16,6.08,33.26,9.73,13.18,6.49,19.47,16.43,19.47,31.03,0,10.75-3.65,20.48-10.34,26.97-9.73,9.73-26.36,14.8-48.06,14.8-25.55,0-43.6-6.9-53.34-20.28-4.06-5.68-6.08-10.55-8.11-20.28l40.16-4.46Z" style="fill:#f45b69; stroke:#fff; stroke-linecap:round; stroke-linejoin:round; stroke-width:10.4px;"/><path d="m591.36,563.74c0-10.14-.41-18.25-1.62-27.78h41.37c-1.01,8.31-1.62,18.05-1.62,27.78v4.26h7.3c8.92,0,13.59-.2,19.88-1.01v33.67c-6.08-.81-11.36-1.22-18.66-1.22h-8.52v51.92c0,5.68,1.01,8.52,3.65,10.34,2.23,1.42,5.48,2.23,9.33,2.23,5.27,0,9.13-1.01,14.2-3.65l3.04,30.83c-9.13,2.84-17.04,4.06-27.99,4.06-13.79,0-23.32-2.23-29.81-7.1-7.71-5.88-10.55-12.78-10.55-26.57v-62.06h-7.71c-6.49,0-11.76.41-17.64,1.22v-33.87c5.88.81,10.95,1.22,18.05,1.22h7.3v-4.26Z" style="fill:#f45b69; stroke:#fff; stroke-linecap:round; stroke-linejoin:round; stroke-width:10.4px;"/><path d="m667.21,629.65c0-40.56,25.96-66.32,66.93-66.32s66.93,25.76,66.93,65.91-26.77,67.13-67.13,67.13-66.72-25.96-66.72-66.72Zm38.74-.2c0,22.51,10.55,36.1,28.19,36.1s27.78-13.18,27.78-35.69-10.34-36.1-27.58-36.1-28.39,13.39-28.39,35.69Z" style="fill:#f45b69; stroke:#fff; stroke-linecap:round; stroke-linejoin:round; stroke-width:10.4px;"/><path d="m911.38,728.42c1.01-9.94,1.42-18.05,1.42-32.04v-11.76c0-2.43,0-2.64.41-7.1-11.56,9.94-24.94,14.8-41.37,14.8s-32.04-5.68-42.39-16.02c-11.15-11.15-17.04-27.78-17.04-47.86,0-25.76,9.13-44.41,26.77-55.57,9.53-5.88,20.08-8.52,33.46-8.52,16.43,0,27.99,4.06,40.56,13.99q0-.81-.2-2.03v-8.31h39.95c-1.22,8.72-1.62,17.04-1.62,31.84v96.53c0,15.01.41,23.93,1.62,32.04h-41.58Zm-30.42-66.72c18.05,0,31.64-14.4,31.64-33.46s-13.59-33.26-31.23-33.26c-6.9,0-14.2,2.84-19.27,7.1-6.29,5.88-9.94,15.62-9.94,26.77,0,19.88,11.36,32.85,28.8,32.85Z" style="fill:#f45b69; stroke:#fff; stroke-linecap:round; stroke-linejoin:round; stroke-width:10.4px;"/><path d="m1101.81,568c-1.22,9.53-1.62,18.05-1.62,30.42v62.67c0,13.99.41,22.31,1.62,30.42h-40.36v-8.72c0-1.01,0-4.06.2-5.48-13.38,12.57-24.94,17.44-42.18,17.44-13.59,0-24.54-3.85-32.25-11.36-8.11-8.11-11.56-18.05-11.56-34.07v-50.9c0-11.76-.61-21.9-1.62-30.42h42.18c-1.22,9.73-1.62,18.25-1.62,30.42v41.57c0,8.31.81,11.97,3.24,15.21,2.84,3.65,7.3,5.68,13.18,5.68,11.15,0,22.51-7.91,30.42-20.89v-41.57c0-11.36-.41-19.87-1.62-30.42h41.98Z" style="fill:#f45b69; stroke:#fff; stroke-linecap:round; stroke-linejoin:round; stroke-width:10.4px;"/><path d="m1155.14,641.21c2.03,16.43,11.56,25.15,27.58,25.15,8.11,0,15.21-2.64,20.48-7.5,3.04-2.84,4.46-5.07,6.08-10.34l35.29,9.94c-4.66,10.55-7.71,15.21-13.39,20.89-11.56,11.36-27.78,17.24-47.86,17.24s-35.49-5.68-47.05-17.24c-11.97-12.17-18.46-29.41-18.46-49.48,0-40.16,25.76-66.72,64.49-66.72,31.64,0,53.74,17.24,60.84,47.46,1.62,6.49,2.43,15.01,3.04,26.57,0,.81,0,2.03.2,4.06h-91.26Zm52.73-27.99c-2.84-12.98-11.56-19.87-25.55-19.87s-23.12,6.49-26.57,19.87h52.12Z" style="fill:#f45b69; stroke:#fff; stroke-linecap:round; stroke-linejoin:round; stroke-width:10.4px;"/></g></svg>