<?xml version="1.0" encoding="UTF-8"?><svg id="a" xmlns="http://www.w3.org/2000/svg" viewBox="0 0 1536 1024"><path d="m295.87,671.98c0,4.17-.73,7.82-2.19,10.94-1.46,3.13-3.34,5.63-5.63,7.5-2.29,1.88-5.08,3.39-8.36,4.53-3.28,1.15-6.49,1.93-9.62,2.35-3.13.42-6.46.63-10.01.63-21.89,0-35.34-.52-40.34-1.56-5.53-1.15-8.97-3.7-10.32-7.66-.84-2.5-1.25-8.08-1.25-16.73v-60.2c0-9.48.63-15.48,1.88-17.98,1.67-3.65,5.99-5.94,12.98-6.88,5.11-.73,17.46-1.09,37.06-1.09,3.54,0,6.88.21,10.01.63,3.13.42,6.33,1.2,9.62,2.35,3.28,1.15,6.07,2.66,8.36,4.53,2.29,1.88,4.17,4.38,5.63,7.5,1.46,3.13,2.19,6.78,2.19,10.94v3.6c0,1.25-.44,2.29-1.33,3.13-.89.84-1.9,1.25-3.05,1.25h-9.54c-1.25,0-2.32-.42-3.21-1.25-.89-.83-1.33-1.88-1.33-3.13v-4.69c0-1.67-.21-3.23-.62-4.69-.42-1.46-1.15-3-2.19-4.61-1.04-1.61-2.76-2.92-5.16-3.91-2.4-.99-5.32-1.49-8.76-1.49-2.81,0-5.26.34-7.35,1.02-2.09.68-3.7,1.51-4.85,2.5-1.15.99-2.09,2.19-2.81,3.6-.73,1.41-1.2,2.68-1.41,3.83-.21,1.15-.31,2.4-.31,3.75v62.54c0,1.77.23,3.44.7,5,.47,1.56,1.28,3.1,2.42,4.61,1.15,1.51,2.87,2.68,5.16,3.52,2.29.84,5.11,1.25,8.44,1.25,6.25,0,10.6-1.41,13.06-4.22,2.45-2.81,3.67-6.2,3.67-10.16v-9.69c0-1.04.36-1.93,1.09-2.66s1.61-1.09,2.66-1.09h10.32c1.15,0,2.16.44,3.05,1.33.88.89,1.33,1.9,1.33,3.05v7.82Z" style="stroke-width:0px;"/><path d="m397.81,672.13c0,4.28-.86,8.03-2.58,11.26-1.72,3.23-3.83,5.76-6.33,7.58-2.5,1.82-5.5,3.28-8.99,4.38-3.49,1.09-6.7,1.8-9.62,2.11-2.92.31-5.94.47-9.07.47h-4.06c-5.42.1-9.36.13-11.8.08-2.45-.05-5.68-.18-9.69-.39-4.01-.21-6.88-.52-8.6-.94s-3.88-1.04-6.49-1.88c-2.61-.83-4.43-1.88-5.47-3.13-1.04-1.25-2.16-2.79-3.36-4.61-1.2-1.82-2.01-3.96-2.42-6.41-.42-2.45-.63-5.29-.63-8.52v-60.35c0-3.23.21-6.07.63-8.52.42-2.45,1.3-4.59,2.66-6.41,1.35-1.82,2.58-3.36,3.67-4.61,1.09-1.25,3.05-2.27,5.86-3.05,2.81-.78,5.16-1.41,7.04-1.88,1.88-.47,5-.81,9.38-1.02,4.38-.21,7.9-.31,10.55-.31h12.74c3.13,0,6.15.16,9.07.47,2.92.31,6.12,1.02,9.62,2.11,3.49,1.09,6.49,2.56,8.99,4.38,2.5,1.82,4.61,4.35,6.33,7.58,1.72,3.23,2.58,6.98,2.58,11.26v60.35Zm-19.86-61.45c0-1.67-.21-3.23-.63-4.69-.42-1.46-1.15-3-2.19-4.61-1.04-1.61-2.76-2.89-5.16-3.83-2.4-.94-5.32-1.41-8.76-1.41-2.81,0-5.26.34-7.35,1.02-2.09.68-3.7,1.51-4.85,2.5-1.15.99-2.09,2.19-2.81,3.6-.73,1.41-1.2,2.68-1.41,3.83-.21,1.15-.31,2.35-.31,3.6v62.54c0,1.67.21,3.23.63,4.69.42,1.46,1.15,3,2.19,4.61,1.04,1.62,2.76,2.89,5.16,3.83,2.4.94,5.32,1.41,8.76,1.41s6.36-.47,8.76-1.41c2.4-.94,4.12-2.21,5.16-3.83,1.04-1.61,1.77-3.15,2.19-4.61.42-1.46.63-3.02.63-4.69v-62.54Z" style="stroke-width:0px;"/><path d="m518.83,696.68c-.94,0-1.75-.34-2.42-1.02-.68-.68-1.02-1.49-1.02-2.42v-76.14c0-.94-.34-1.74-1.02-2.42-.68-.68-1.54-1.02-2.58-1.02-1.77,0-2.87.89-3.28,2.66l-16.42,77.71c-.42,1.77-1.56,2.66-3.44,2.66h-14.07c-1.88,0-3.02-.88-3.44-2.66l-17.82-76.61c-.42-1.77-1.51-2.66-3.28-2.66-1.04,0-1.88.34-2.5,1.02-.63.68-.94,1.49-.94,2.42v75.05c0,.94-.34,1.75-1.02,2.42s-1.54,1.02-2.58,1.02h-25.49c-.94,0-1.75-.34-2.42-1.02-.68-.68-1.02-1.49-1.02-2.42v-102.57c0-.94.34-1.74,1.02-2.42.68-.68,1.49-1.02,2.42-1.02h40.5c1.88,0,3.02.89,3.44,2.66l17.67,76.93c.42,1.77,1.56,2.66,3.44,2.66s3.02-.88,3.44-2.66l16.42-76.93c.42-1.77,1.56-2.66,3.44-2.66h24.39c.94,0,1.74.34,2.42,1.02.68.68,1.02,1.49,1.02,2.42v102.57c0,.94-.34,1.75-1.02,2.42s-1.49,1.02-2.42,1.02h-11.41Z" style="stroke-width:0px;"/><path d="m638.12,672.29c0,4.07-.73,7.69-2.19,10.87-1.46,3.18-3.34,5.68-5.63,7.51-2.29,1.82-5.08,3.34-8.37,4.53-3.28,1.2-6.49,2.01-9.62,2.42-3.13.42-6.46.63-10.01.63-4.8,0-8.34-.03-10.63-.08-2.29-.05-5.37-.16-9.22-.31-3.86-.16-6.7-.39-8.52-.7-1.83-.31-4.12-.75-6.88-1.33-2.76-.57-4.77-1.28-6.02-2.11-1.25-.83-2.74-1.9-4.46-3.21-1.72-1.3-2.92-2.81-3.6-4.53-.68-1.72-1.28-3.73-1.8-6.02-.52-2.29-.78-4.85-.78-7.66v-75.83c0-2.6.88-4.79,2.66-6.57,1.77-1.77,3.96-2.66,6.57-2.66h17.36c2.5,0,4.66.89,6.49,2.66,1.82,1.77,2.74,3.96,2.74,6.57v76.93c0,1.88.23,3.57.7,5.08.47,1.51,1.28,3.02,2.42,4.53,1.15,1.51,2.87,2.68,5.16,3.52,2.29.84,5.11,1.25,8.44,1.25,6.25,0,10.6-1.38,13.06-4.14,2.45-2.76,3.67-6.18,3.67-10.24v-76.93c0-2.6.91-4.79,2.74-6.57,1.82-1.77,4.01-2.66,6.57-2.66s4.71.89,6.49,2.66c1.77,1.77,2.66,3.96,2.66,6.57v75.83Z" style="stroke-width:0px;"/><path d="m728.34,696.68c-1.67,0-2.76-.73-3.28-2.19l-30.49-79.43c-.52-1.56-1.62-2.35-3.28-2.35-.94,0-1.75.34-2.42,1.02-.68.68-1.02,1.54-1.02,2.58v76.93c0,.94-.34,1.75-1.02,2.42s-1.49,1.02-2.42,1.02h-26.27c-.94,0-1.75-.34-2.42-1.02-.68-.68-1.02-1.49-1.02-2.42v-102.57c0-.94.34-1.74,1.02-2.42.68-.68,1.49-1.02,2.42-1.02h37.68c1.56,0,2.6.73,3.13,2.19l24.86,64.89c.52,1.46,1.56,2.19,3.13,2.19,1.04,0,1.9-.34,2.58-1.02s1.02-1.49,1.02-2.42v-62.38c0-.94.34-1.74,1.02-2.42.68-.68,1.49-1.02,2.42-1.02h10.01c.94,0,1.74.34,2.42,1.02.68.68,1.02,1.49,1.02,2.42v102.57c0,.94-.34,1.75-1.02,2.42s-1.49,1.02-2.42,1.02h-15.64Z" style="stroke-width:0px;"/><path d="m774.15,696.68c-2.71,0-5-.94-6.88-2.81-1.88-1.88-2.81-4.17-2.81-6.88v-90.06c0-2.71.94-5,2.81-6.88,1.88-1.88,4.17-2.81,6.88-2.81h8.13c5,0,9.25,1.75,12.74,5.24,3.49,3.49,5.24,7.69,5.24,12.59v73.8c0,4.9-1.75,9.1-5.24,12.59-3.49,3.49-7.74,5.24-12.74,5.24h-8.13Z" style="stroke-width:0px;"/><path d="m904.08,671.98c0,4.17-.73,7.82-2.19,10.94-1.46,3.13-3.34,5.63-5.63,7.5-2.29,1.88-5.08,3.39-8.36,4.53-3.28,1.15-6.49,1.93-9.62,2.35-3.13.42-6.46.63-10.01.63-21.89,0-35.34-.52-40.34-1.56-5.53-1.15-8.97-3.7-10.32-7.66-.84-2.5-1.25-8.08-1.25-16.73v-60.2c0-9.48.63-15.48,1.88-17.98,1.67-3.65,5.99-5.94,12.98-6.88,5.11-.73,17.46-1.09,37.06-1.09,3.54,0,6.88.21,10.01.63,3.13.42,6.33,1.2,9.62,2.35,3.28,1.15,6.07,2.66,8.36,4.53,2.29,1.88,4.17,4.38,5.63,7.5,1.46,3.13,2.19,6.78,2.19,10.94v3.6c0,1.25-.44,2.29-1.33,3.13-.89.84-1.9,1.25-3.05,1.25h-9.54c-1.25,0-2.32-.42-3.21-1.25-.89-.83-1.33-1.88-1.33-3.13v-4.69c0-1.67-.21-3.23-.62-4.69-.42-1.46-1.15-3-2.19-4.61-1.04-1.61-2.76-2.92-5.16-3.91-2.4-.99-5.32-1.49-8.76-1.49-2.81,0-5.26.34-7.35,1.02-2.09.68-3.7,1.51-4.85,2.5-1.15.99-2.09,2.19-2.81,3.6-.73,1.41-1.2,2.68-1.41,3.83-.21,1.15-.31,2.4-.31,3.75v62.54c0,1.77.23,3.44.7,5,.47,1.56,1.28,3.1,2.42,4.61,1.15,1.51,2.87,2.68,5.16,3.52,2.29.84,5.11,1.25,8.44,1.25,6.25,0,10.6-1.41,13.06-4.22,2.45-2.81,3.67-6.2,3.67-10.16v-9.69c0-1.04.36-1.93,1.09-2.66s1.61-1.09,2.66-1.09h10.32c1.15,0,2.16.44,3.05,1.33.88.89,1.33,1.9,1.33,3.05v7.82Z" style="stroke-width:0px;"/><path d="m995.7,696.68c-2.29,0-4.33-.7-6.1-2.11-1.77-1.41-2.92-3.26-3.44-5.55-.84-3.85-2.79-7.04-5.86-9.54-3.08-2.5-6.65-3.75-10.71-3.75h-23.61l-1.72,8.13c-.84,3.75-2.74,6.83-5.71,9.22-2.97,2.4-6.33,3.6-10.08,3.6-5.21,0-9.46-2.03-12.74-6.1-3.28-4.07-4.3-8.65-3.05-13.76l15.01-65.67c.83-3.44,2.21-6.65,4.14-9.62,1.93-2.97,4.19-5.5,6.8-7.58,2.6-2.08,5.57-3.73,8.91-4.93,3.33-1.2,6.77-1.8,10.32-1.8,7.19,0,13.6,2.24,19.23,6.72,5.63,4.48,9.28,10.22,10.94,17.2l17.04,73.8c.63,3.02-.03,5.73-1.95,8.13-1.93,2.4-4.4,3.6-7.43,3.6Zm-44.25-46.59c-.94,4.17-.05,7.92,2.66,11.26,2.71,3.34,6.2,5,10.48,5s7.74-1.67,10.4-5c2.66-3.33,3.57-7.09,2.74-11.26l-9.69-45.97c-.42-1.88-1.56-2.81-3.44-2.81s-3.02.94-3.44,2.81l-9.69,45.97Z" style="stroke-width:0px;"/><path d="m1103.74,671.98c0,4.17-.73,7.82-2.19,10.94-1.46,3.13-3.34,5.63-5.63,7.5-2.29,1.88-5.08,3.39-8.36,4.53-3.28,1.15-6.49,1.93-9.62,2.35-3.13.42-6.46.63-10.01.63-21.89,0-35.34-.52-40.34-1.56-5.53-1.15-8.97-3.7-10.32-7.66-.84-2.5-1.25-8.08-1.25-16.73v-60.2c0-9.48.63-15.48,1.88-17.98,1.67-3.65,5.99-5.94,12.98-6.88,5.11-.73,17.46-1.09,37.06-1.09,3.54,0,6.88.21,10.01.63,3.13.42,6.33,1.2,9.62,2.35,3.28,1.15,6.07,2.66,8.36,4.53,2.29,1.88,4.17,4.38,5.63,7.5,1.46,3.13,2.19,6.78,2.19,10.94v3.6c0,1.25-.44,2.29-1.33,3.13-.89.84-1.9,1.25-3.05,1.25h-9.54c-1.25,0-2.32-.42-3.21-1.25-.89-.83-1.33-1.88-1.33-3.13v-4.69c0-1.67-.21-3.23-.62-4.69-.42-1.46-1.15-3-2.19-4.61-1.04-1.61-2.76-2.92-5.16-3.91-2.4-.99-5.32-1.49-8.76-1.49-2.81,0-5.26.34-7.35,1.02-2.09.68-3.7,1.51-4.85,2.5-1.15.99-2.09,2.19-2.81,3.6-.73,1.41-1.2,2.68-1.41,3.83-.21,1.15-.31,2.4-.31,3.75v62.54c0,1.77.23,3.44.7,5,.47,1.56,1.28,3.1,2.42,4.61,1.15,1.51,2.87,2.68,5.16,3.52,2.29.84,5.11,1.25,8.44,1.25,6.25,0,10.6-1.41,13.06-4.22,2.45-2.81,3.67-6.2,3.67-10.16v-9.69c0-1.04.36-1.93,1.09-2.66s1.61-1.09,2.66-1.09h10.32c1.15,0,2.16.44,3.05,1.33.88.89,1.33,1.9,1.33,3.05v7.82Z" style="stroke-width:0px;"/><path d="m1195.36,696.68c-2.29,0-4.33-.7-6.1-2.11-1.77-1.41-2.92-3.26-3.44-5.55-.84-3.85-2.79-7.04-5.86-9.54-3.08-2.5-6.65-3.75-10.71-3.75h-23.61l-1.72,8.13c-.84,3.75-2.74,6.83-5.71,9.22-2.97,2.4-6.33,3.6-10.08,3.6-5.21,0-9.46-2.03-12.74-6.1-3.28-4.07-4.3-8.65-3.05-13.76l15.01-65.67c.83-3.44,2.21-6.65,4.14-9.62,1.93-2.97,4.19-5.5,6.8-7.58,2.6-2.08,5.57-3.73,8.91-4.93,3.33-1.2,6.77-1.8,10.32-1.8,7.19,0,13.6,2.24,19.23,6.72,5.63,4.48,9.28,10.22,10.94,17.2l17.04,73.8c.63,3.02-.03,5.73-1.95,8.13-1.93,2.4-4.4,3.6-7.43,3.6Zm-44.25-46.59c-.94,4.17-.05,7.92,2.66,11.26,2.71,3.34,6.2,5,10.48,5s7.74-1.67,10.4-5c2.66-3.33,3.57-7.09,2.74-11.26l-9.69-45.97c-.42-1.88-1.56-2.81-3.44-2.81s-3.02.94-3.44,2.81l-9.69,45.97Z" style="stroke-width:0px;"/><path d="m1304.34,672.13c0,4.28-.86,8.03-2.58,11.26-1.72,3.23-3.83,5.76-6.33,7.58-2.5,1.82-5.5,3.28-8.99,4.38-3.49,1.09-6.7,1.8-9.62,2.11-2.92.31-5.94.47-9.07.47h-4.06c-5.42.1-9.36.13-11.8.08-2.45-.05-5.68-.18-9.69-.39-4.01-.21-6.88-.52-8.6-.94s-3.88-1.04-6.49-1.88c-2.61-.83-4.43-1.88-5.47-3.13-1.04-1.25-2.16-2.79-3.36-4.61-1.2-1.82-2.01-3.96-2.42-6.41-.42-2.45-.63-5.29-.63-8.52v-60.35c0-3.23.21-6.07.63-8.52.42-2.45,1.3-4.59,2.66-6.41,1.35-1.82,2.58-3.36,3.67-4.61,1.09-1.25,3.05-2.27,5.86-3.05,2.81-.78,5.16-1.41,7.04-1.88,1.88-.47,5-.81,9.38-1.02,4.38-.21,7.9-.31,10.55-.31h12.74c3.13,0,6.15.16,9.07.47,2.92.31,6.12,1.02,9.62,2.11,3.49,1.09,6.49,2.56,8.99,4.38,2.5,1.82,4.61,4.35,6.33,7.58,1.72,3.23,2.58,6.98,2.58,11.26v60.35Zm-19.86-61.45c0-1.67-.21-3.23-.63-4.69-.42-1.46-1.15-3-2.19-4.61-1.04-1.61-2.76-2.89-5.16-3.83-2.4-.94-5.32-1.41-8.76-1.41-2.81,0-5.26.34-7.35,1.02-2.09.68-3.7,1.51-4.85,2.5-1.15.99-2.09,2.19-2.81,3.6-.73,1.41-1.2,2.68-1.41,3.83-.21,1.15-.31,2.35-.31,3.6v62.54c0,1.67.21,3.23.63,4.69.42,1.46,1.15,3,2.19,4.61,1.04,1.62,2.76,2.89,5.16,3.83,2.4.94,5.32,1.41,8.76,1.41s6.36-.47,8.76-1.41c2.4-.94,4.12-2.21,5.16-3.83,1.04-1.61,1.77-3.15,2.19-4.61.42-1.46.63-3.02.63-4.69v-62.54Z" style="stroke-width:0px;"/><path d="m395.54,884.3c-2.29,0-4.33-.7-6.1-2.11-1.77-1.41-2.92-3.26-3.44-5.55-.84-3.85-2.79-7.04-5.86-9.54-3.08-2.5-6.65-3.75-10.71-3.75h-23.61l-1.72,8.13c-.84,3.75-2.74,6.83-5.71,9.22-2.97,2.4-6.33,3.6-10.08,3.6-5.21,0-9.46-2.03-12.74-6.1-3.28-4.07-4.3-8.65-3.05-13.76l15.01-65.67c.83-3.44,2.21-6.65,4.14-9.62,1.93-2.97,4.19-5.5,6.8-7.58,2.6-2.08,5.57-3.73,8.91-4.93,3.33-1.2,6.77-1.8,10.32-1.8,7.19,0,13.6,2.24,19.23,6.72,5.63,4.48,9.28,10.22,10.94,17.2l17.04,73.8c.63,3.02-.03,5.73-1.95,8.13-1.93,2.4-4.4,3.6-7.43,3.6Zm-44.25-46.59c-.94,4.17-.05,7.92,2.66,11.26,2.71,3.34,6.2,5,10.48,5s7.74-1.67,10.4-5c2.66-3.33,3.57-7.09,2.74-11.26l-9.69-45.97c-.42-1.88-1.56-2.81-3.44-2.81s-3.02.94-3.44,2.81l-9.69,45.97Z" style="stroke-width:0px;"/><path d="m421.34,884.3c-1.46,0-2.68-.49-3.67-1.49-.99-.99-1.49-2.21-1.49-3.67v-99.13c0-1.46.49-2.68,1.49-3.67.99-.99,2.21-1.49,3.67-1.49h25.49c1.46,0,2.68.5,3.67,1.49.99.99,1.49,2.22,1.49,3.67v88.97c0,1.46.49,2.68,1.49,3.67.99.99,2.16,1.49,3.52,1.49h32.99c1.46,0,2.68.5,3.67,1.49.99.99,1.49,2.19,1.49,3.6s-.5,2.61-1.49,3.6c-.99.99-2.22,1.49-3.67,1.49h-68.64Z" style="stroke-width:0px;"/><path d="m512.65,884.3c-2.71,0-5-.94-6.88-2.81-1.88-1.88-2.81-4.17-2.81-6.88v-90.06c0-2.71.94-5,2.81-6.88,1.88-1.88,4.17-2.81,6.88-2.81h8.13c5,0,9.25,1.75,12.74,5.24,3.49,3.49,5.24,7.69,5.24,12.59v73.8c0,4.9-1.75,9.1-5.24,12.59-3.49,3.49-7.74,5.24-12.74,5.24h-8.13Z" style="stroke-width:0px;"/><path d="m560.34,884.3c-1.46,0-2.68-.49-3.67-1.49-.99-.99-1.49-2.21-1.49-3.67v-99.13c0-1.46.49-2.68,1.49-3.67.99-.99,2.21-1.49,3.67-1.49h70.83c1.35,0,2.53.5,3.52,1.49.99.99,1.49,2.19,1.49,3.6s-.5,2.61-1.49,3.6c-.99.99-2.16,1.49-3.52,1.49h-35.18c-1.36,0-2.53.5-3.52,1.49-.99.99-1.49,2.22-1.49,3.67v28.46c0,1.36.49,2.53,1.49,3.52.99.99,2.16,1.49,3.52,1.49h25.8c1.46,0,2.68.5,3.67,1.49.99.99,1.49,2.19,1.49,3.6s-.5,2.61-1.49,3.6c-.99.99-2.22,1.49-3.67,1.49h-25.8c-1.36,0-2.53.5-3.52,1.49-.99.99-1.49,2.22-1.49,3.67v30.02c0,1.46.49,2.68,1.49,3.67.99.99,2.16,1.49,3.52,1.49h35.18c1.35,0,2.53.5,3.52,1.49.99.99,1.49,2.19,1.49,3.6s-.5,2.61-1.49,3.6c-.99.99-2.16,1.49-3.52,1.49h-70.83Z" style="stroke-width:0px;"/><path d="m720.76,884.3c-1.67,0-2.76-.73-3.28-2.19l-30.49-79.43c-.52-1.56-1.62-2.35-3.28-2.35-.94,0-1.75.34-2.42,1.02-.68.68-1.02,1.54-1.02,2.58v76.93c0,.94-.34,1.75-1.02,2.42s-1.49,1.02-2.42,1.02h-26.27c-.94,0-1.75-.34-2.42-1.02-.68-.68-1.02-1.49-1.02-2.42v-102.57c0-.94.34-1.74,1.02-2.42s1.49-1.02,2.42-1.02h37.68c1.56,0,2.6.73,3.13,2.19l24.86,64.89c.52,1.46,1.56,2.19,3.13,2.19,1.04,0,1.9-.34,2.58-1.02s1.02-1.49,1.02-2.42v-62.38c0-.94.34-1.74,1.02-2.42s1.49-1.02,2.42-1.02h10.01c.94,0,1.74.34,2.42,1.02.68.68,1.02,1.49,1.02,2.42v102.57c0,.94-.34,1.75-1.02,2.42s-1.49,1.02-2.42,1.02h-15.64Z" style="stroke-width:0px;"/><path d="m766.57,884.3c-2.71,0-5-.94-6.88-2.81-1.88-1.88-2.81-4.17-2.81-6.88v-90.06c0-2.71.94-5,2.81-6.88,1.88-1.88,4.17-2.81,6.88-2.81h8.13c5,0,9.25,1.75,12.74,5.24,3.49,3.49,5.24,7.69,5.24,12.59v73.8c0,4.9-1.75,9.1-5.24,12.59-3.49,3.49-7.74,5.24-12.74,5.24h-8.13Z" style="stroke-width:0px;"/><path d="m895.71,859.76c0,4.07-.73,7.69-2.19,10.87-1.46,3.18-3.34,5.68-5.63,7.5-2.29,1.82-5.08,3.34-8.37,4.53-3.28,1.2-6.49,1.98-9.62,2.35-3.13.36-6.46.55-10.01.55h-8.21c-2.03,0-5.08-.18-9.15-.55-4.07-.37-7.43-.83-10.08-1.41-2.66-.57-5.68-1.51-9.07-2.81-3.39-1.3-6.1-2.84-8.13-4.61-2.03-1.77-3.75-4.07-5.16-6.88-1.41-2.81-2.11-5.99-2.11-9.54v-60.35c0-17.2,17.3-25.8,51.91-25.8,3.54,0,6.88.18,10.01.55,3.13.37,6.33,1.15,9.62,2.35,3.28,1.2,6.07,2.71,8.37,4.53,2.29,1.82,4.17,4.33,5.63,7.5,1.46,3.18,2.19,6.8,2.19,10.87v2.97c0,1.46-.5,2.68-1.49,3.67-.99.99-2.16,1.49-3.52,1.49h-8.29c-1.46,0-2.68-.49-3.67-1.49-.99-.99-1.49-2.21-1.49-3.67v-4.07c0-1.67-.21-3.23-.62-4.69-.42-1.46-1.15-3-2.19-4.61-1.04-1.61-2.76-2.89-5.16-3.83-2.4-.94-5.32-1.41-8.76-1.41s-6.36.47-8.76,1.41c-2.4.94-4.12,2.22-5.16,3.83-1.04,1.62-1.77,3.15-2.19,4.61-.42,1.46-.63,3.02-.63,4.69v62.54c0,1.88.23,3.57.7,5.08.47,1.51,1.28,3.02,2.42,4.53,1.15,1.51,2.87,2.68,5.16,3.52,2.29.84,5.11,1.25,8.44,1.25,6.25,0,10.6-1.38,13.06-4.14,2.45-2.76,3.67-6.18,3.67-10.24v-19.39c0-1.46-.5-2.68-1.49-3.67-.99-.99-2.16-1.49-3.52-1.49h-1.72c-1.46,0-2.68-.49-3.67-1.49-.99-.99-1.49-2.19-1.49-3.6s.49-2.6,1.49-3.6c.99-.99,2.21-1.49,3.67-1.49h20.17c1.35,0,2.53.5,3.52,1.49.99.99,1.49,2.22,1.49,3.67v28.46Z" style="stroke-width:0px;"/><path d="m916.19,884.3c-1.46,0-2.68-.49-3.67-1.49-.99-.99-1.49-2.21-1.49-3.67v-99.13c0-1.46.49-2.68,1.49-3.67.99-.99,2.21-1.49,3.67-1.49h70.83c1.35,0,2.53.5,3.52,1.49.99.99,1.49,2.19,1.49,3.6s-.5,2.61-1.49,3.6c-.99.99-2.16,1.49-3.52,1.49h-35.18c-1.36,0-2.53.5-3.52,1.49-.99.99-1.49,2.22-1.49,3.67v28.46c0,1.36.49,2.53,1.49,3.52.99.99,2.16,1.49,3.52,1.49h25.8c1.46,0,2.68.5,3.67,1.49.99.99,1.49,2.19,1.49,3.6s-.5,2.61-1.49,3.6c-.99.99-2.22,1.49-3.67,1.49h-25.8c-1.36,0-2.53.5-3.52,1.49-.99.99-1.49,2.22-1.49,3.67v30.02c0,1.46.49,2.68,1.49,3.67.99.99,2.16,1.49,3.52,1.49h35.18c1.35,0,2.53.5,3.52,1.49.99.99,1.49,2.19,1.49,3.6s-.5,2.61-1.49,3.6c-.99.99-2.16,1.49-3.52,1.49h-70.83Z" style="stroke-width:0px;"/><path d="m1076.61,884.3c-1.67,0-2.76-.73-3.28-2.19l-30.49-79.43c-.52-1.56-1.62-2.35-3.28-2.35-.94,0-1.75.34-2.42,1.02-.68.68-1.02,1.54-1.02,2.58v76.93c0,.94-.34,1.75-1.02,2.42s-1.49,1.02-2.42,1.02h-26.27c-.94,0-1.75-.34-2.42-1.02-.68-.68-1.02-1.49-1.02-2.42v-102.57c0-.94.34-1.74,1.02-2.42s1.49-1.02,2.42-1.02h37.68c1.56,0,2.6.73,3.13,2.19l24.86,64.89c.52,1.46,1.56,2.19,3.13,2.19,1.04,0,1.9-.34,2.58-1.02s1.02-1.49,1.02-2.42v-62.38c0-.94.34-1.74,1.02-2.42s1.49-1.02,2.42-1.02h10.01c.94,0,1.74.34,2.42,1.02.68.68,1.02,1.49,1.02,2.42v102.57c0,.94-.34,1.75-1.02,2.42s-1.49,1.02-2.42,1.02h-15.64Z" style="stroke-width:0px;"/><path d="m1190.75,884.3c-2.29,0-4.33-.7-6.1-2.11-1.77-1.41-2.92-3.26-3.44-5.55-.84-3.85-2.79-7.04-5.86-9.54-3.08-2.5-6.65-3.75-10.71-3.75h-23.61l-1.72,8.13c-.84,3.75-2.74,6.83-5.71,9.22-2.97,2.4-6.33,3.6-10.08,3.6-5.21,0-9.46-2.03-12.74-6.1-3.28-4.07-4.3-8.65-3.05-13.76l15.01-65.67c.83-3.44,2.21-6.65,4.14-9.62,1.93-2.97,4.19-5.5,6.8-7.58,2.6-2.08,5.57-3.73,8.91-4.93,3.33-1.2,6.77-1.8,10.32-1.8,7.19,0,13.6,2.24,19.23,6.72,5.63,4.48,9.28,10.22,10.94,17.2l17.04,73.8c.63,3.02-.03,5.73-1.95,8.13-1.93,2.4-4.4,3.6-7.43,3.6Zm-44.25-46.59c-.94,4.17-.05,7.92,2.66,11.26,2.71,3.34,6.2,5,10.48,5s7.74-1.67,10.4-5c2.66-3.33,3.57-7.09,2.74-11.26l-9.69-45.97c-.42-1.88-1.56-2.81-3.44-2.81s-3.02.94-3.44,2.81l-9.69,45.97Z" style="stroke-width:0px;"/></svg>