<?xml version="1.0" encoding="UTF-8"?><svg id="a" xmlns="http://www.w3.org/2000/svg" viewBox="0 0 1536 1024"><path d="m369.04,834.46h-4.01c-6.43,0-6.68,1.21-6.68,6.92v44.43c0,5.71.24,7.04,6.68,7.04h4.01v11.53h-44.67v-11.53h3.03c6.68,0,6.68-1.58,6.68-7.04v-49.53l-20.88,68.1h-19.06l-19.79-67.97v49.4c0,5.83.49,7.04,6.68,7.04h3.03v11.53h-36.54v-11.53h3.76c6.19,0,6.68-1.21,6.68-7.04v-44.43c0-5.83-.49-6.92-6.68-6.92h-3.76v-11.53h45.64l13.84,48.55,14.93-48.55h47.1v11.53Z" style="fill:#3a3a3a; stroke-width:0px;"/><path d="m443.32,875.73c0,18.94-13.23,30.71-34.84,30.71s-34.72-11.53-34.72-30.71,12.99-30.83,34.59-30.83,34.96,11.9,34.96,30.83Zm-34.96-19.54c-7.04,0-8.86,6.07-8.86,19.54s1.82,19.54,9.1,19.54,8.86-6.07,8.86-19.54-1.82-19.54-9.1-19.54Z" style="fill:#3a3a3a; stroke-width:0px;"/><path d="m494.18,845.02c8.86,0,14.32,5.71,14.32,14.08,0,7.4-4.61,12.14-11.29,12.14-5.46,0-9.47-3.88-9.47-8.86,0-3.52,1.7-6.07,5.34-7.89-.97-.24-1.82-.36-2.67-.36-6.19,0-10.44,6.07-10.44,16.99v16.87c0,4.61.97,5.71,5.71,5.71h3.88v10.68h-41.27v-10.68h2.06c4.73,0,5.71-1.09,5.71-5.71v-24.52c0-4.61-.97-5.71-5.71-5.71h-2.06v-10.68h31.07v5.58c4.13-5.1,9.1-7.65,14.81-7.65Z" style="fill:#3a3a3a; stroke-width:0px;"/><path d="m511.41,857.65v-10.56h.49c9.95,0,14.69-7.04,17.12-22.33h14.32v22.33h16.87v10.56h-16.87v31.07c0,4.61,1.33,6.8,4.25,6.8,4.13,0,4.85-3.88,4.85-12.87v-5.34h10.44v7.77c0,15.17-5.58,21.73-21.36,21.73-8.38,0-14.57-2.43-18.45-7.16-3.64-4.37-3.64-9.22-3.64-15.66v-26.34h-8.01Z" style="fill:#3a3a3a; stroke-width:0px;"/><path d="m587.63,906.44c-12.14,0-18.94-5.83-18.94-16.14,0-11.41,6.68-14.81,21.24-17.36,10.68-1.82,15.78-3.03,15.78-10.44,0-5.71-4.13-9.59-11.29-9.59-2.43,0-4.73.73-7.16,2.06,4.25,1.21,6.31,3.76,6.31,7.77,0,4.98-4.13,8.38-10.56,8.38-7.65,0-11.9-3.76-11.9-10.2,0-9.59,10.2-15.9,29.25-15.9,10.92,0,18.81,1.94,22.58,4.49,5.95,4.01,6.68,8.74,6.68,16.63v22.09c0,2.55.24,3.64,2.43,3.64,2.31,0,2.55-1.33,2.55-3.64v-6.92h8.01v7.53c0,12.38-5.1,17.6-18.21,17.6-7.16,0-12.26-2.55-15.9-8.13-4.13,5.22-11.53,8.13-20.88,8.13Zm4.61-18.33c0,3.28,2.55,5.71,6.31,5.71,4.49,0,7.53-3.03,7.53-8.25v-.36l-.12-7.4c-8.74,4.73-13.72,5.71-13.72,10.32Z" style="fill:#3a3a3a; stroke-width:0px;"/><path d="m647.96,833.61h-2.67v-10.68h32.29v65.06c0,4.61.85,5.71,5.58,5.71h1.94v10.68h-39.81v-10.68h2.67c4.73,0,5.71-1.09,5.71-5.71v-48.67c0-4.61-.97-5.71-5.71-5.71Z" style="fill:#3a3a3a; stroke-width:0px;"/><path d="m744.45,874.4c3.88,12.75,13.47,20.03,25.49,20.03,7.53,0,12.14-3.52,12.14-8.5,0-7.28-8.25-7.77-21.73-11.9-10.2-3.04-16.99-5.46-20.15-7.89-6.55-4.85-9.59-10.68-9.59-18.33,0-16.02,12.87-27.31,33.14-27.31,9.83,0,18.45,1.82,26.95,6.07l2.19-4.13h11.65v28.28h-13.72c-2.67-11.53-10.07-17.12-22.46-17.12-7.65,0-12.5,4.01-12.5,8.62,0,6.43,6.92,6.68,18.69,9.35,22.82,5.22,33.99,12.14,33.99,28.28s-12.99,26.95-34.47,26.95c-9.47,0-18.33-2.06-27.19-6.55l-3.03,4.49h-11.17v-30.35h11.77Z" style="fill:#3a3a3a; stroke-width:0px;"/><path d="m812.42,857.65v-10.56h.49c9.95,0,14.69-7.04,17.12-22.33h14.32v22.33h16.87v10.56h-16.87v31.07c0,4.61,1.33,6.8,4.25,6.8,4.13,0,4.86-3.88,4.86-12.87v-5.34h10.44v7.77c0,15.17-5.58,21.73-21.36,21.73-8.38,0-14.57-2.43-18.45-7.16-3.64-4.37-3.64-9.22-3.64-15.66v-26.34h-8.01Z" style="fill:#3a3a3a; stroke-width:0px;"/><path d="m888.65,906.44c-12.14,0-18.94-5.83-18.94-16.14,0-11.41,6.68-14.81,21.24-17.36,10.68-1.82,15.78-3.03,15.78-10.44,0-5.71-4.13-9.59-11.29-9.59-2.43,0-4.73.73-7.16,2.06,4.25,1.21,6.31,3.76,6.31,7.77,0,4.98-4.13,8.38-10.56,8.38-7.65,0-11.9-3.76-11.9-10.2,0-9.59,10.2-15.9,29.25-15.9,10.92,0,18.81,1.94,22.58,4.49,5.95,4.01,6.68,8.74,6.68,16.63v22.09c0,2.55.24,3.64,2.43,3.64,2.31,0,2.55-1.33,2.55-3.64v-6.92h8.01v7.53c0,12.38-5.1,17.6-18.21,17.6-7.16,0-12.26-2.55-15.9-8.13-4.13,5.22-11.53,8.13-20.88,8.13Zm4.61-18.33c0,3.28,2.55,5.71,6.31,5.71,4.49,0,7.53-3.03,7.53-8.25v-.36l-.12-7.4c-8.74,4.73-13.72,5.71-13.72,10.32Z" style="fill:#3a3a3a; stroke-width:0px;"/><path d="m1025.2,893.7h2.43v10.68h-38.36v-10.68h1.34c4.25,0,5.1-1.21,5.1-5.71v-20.64c0-6.55-2.55-9.83-7.89-9.83s-8.98,4.37-8.98,11.65v18.81c0,4.49.97,5.71,5.22,5.71h1.21v10.68h-38.96v-10.68h2.91c4.73,0,5.71-1.09,5.71-5.71v-24.52c0-4.61-.97-5.71-5.71-5.71h-2.91v-10.68h31.92v8.86c5.22-6.92,12.5-10.44,21.24-10.44,15.29,0,20.15,6.31,20.15,21.24v21.24c0,4.61.85,5.71,5.58,5.71Z" style="fill:#3a3a3a; stroke-width:0px;"/><path d="m1066.1,833.49c-.85,0-1.94.12-3.03.12v-10.68h33.74v65.06c0,4.61.85,5.71,5.34,5.71h2.91v10.68h-30.59v-7.89c-5.7,6.8-11.29,9.83-18.81,9.83-16.02,0-24.4-10.32-24.4-30.35s9.59-31.07,23.43-31.07c7.04,0,12.99,2.43,18.21,8.62v-14.2c0-4.61-1.46-5.83-6.8-5.83Zm-1.33,24.28c-5.46,0-7.89,5.95-7.89,18.21s2.55,18.09,7.89,18.09,8.01-5.95,8.01-18.09-2.31-18.21-8.01-18.21Z" style="fill:#3a3a3a; stroke-width:0px;"/><path d="m1179.23,875.73c0,18.94-13.23,30.71-34.84,30.71s-34.72-11.53-34.72-30.71,12.99-30.83,34.59-30.83,34.96,11.9,34.96,30.83Zm-34.96-19.54c-7.04,0-8.86,6.07-8.86,19.54s1.82,19.54,9.1,19.54,8.86-6.07,8.86-19.54-1.82-19.54-9.1-19.54Z" style="fill:#3a3a3a; stroke-width:0px;"/><path d="m1184.45,858.13v-11.05h8.5v-3.28c0-16.02,7.77-23.06,26.95-23.06,13.72,0,21.61,5.95,21.61,13.96,0,5.34-4.25,9.35-10.44,9.35-5.58,0-9.35-3.4-9.35-7.77,0-2.91,1.46-5.22,4.37-6.92-1.21-.36-2.19-.61-3.16-.61-4.86,0-6.07,3.52-6.07,10.56v7.77h10.56v11.05h-10.56v29.74c0,4.73.97,5.83,5.71,5.83h5.1v10.68h-43.21v-10.68h2.91c4.73,0,5.58-1.09,5.58-5.71v-29.86h-8.5Z" style="fill:#3a3a3a; stroke-width:0px;"/><path d="m1233.36,858.13v-11.05h8.5v-3.28c0-16.02,7.77-23.06,26.95-23.06,13.72,0,21.61,5.95,21.61,13.96,0,5.34-4.25,9.35-10.44,9.35-5.58,0-9.35-3.4-9.35-7.77,0-2.91,1.46-5.22,4.37-6.92-1.21-.36-2.19-.61-3.16-.61-4.86,0-6.07,3.52-6.07,10.56v7.77h10.56v11.05h-10.56v29.74c0,4.73.97,5.83,5.71,5.83h5.1v10.68h-43.21v-10.68h2.91c4.73,0,5.58-1.09,5.58-5.71v-29.86h-8.5Z" style="fill:#3a3a3a; stroke-width:0px;"/><path d="m369.04,817.74h-4.01c-6.43,0-6.68,1.21-6.68,6.92v44.43c0,5.71.24,7.04,6.68,7.04h4.01v11.53h-44.67v-11.53h3.03c6.68,0,6.68-1.58,6.68-7.04v-49.53l-20.88,68.1h-19.06l-19.79-67.97v49.4c0,5.83.49,7.04,6.68,7.04h3.03v11.53h-36.54v-11.53h3.76c6.19,0,6.68-1.21,6.68-7.04v-44.43c0-5.83-.49-6.92-6.68-6.92h-3.76v-11.53h45.64l13.84,48.55,14.93-48.55h47.1v11.53Z" style="fill:#3a3a3a; stroke-width:0px;"/><path d="m443.32,859.01c0,18.94-13.23,30.71-34.84,30.71s-34.72-11.53-34.72-30.71,12.99-30.83,34.59-30.83,34.96,11.9,34.96,30.83Zm-34.96-19.54c-7.04,0-8.86,6.07-8.86,19.54s1.82,19.54,9.1,19.54,8.86-6.07,8.86-19.54-1.82-19.54-9.1-19.54Z" style="fill:#3a3a3a; stroke-width:0px;"/><path d="m494.18,828.3c8.86,0,14.32,5.71,14.32,14.08,0,7.4-4.61,12.14-11.29,12.14-5.46,0-9.47-3.88-9.47-8.86,0-3.52,1.7-6.07,5.34-7.89-.97-.24-1.82-.36-2.67-.36-6.19,0-10.44,6.07-10.44,16.99v16.87c0,4.61.97,5.71,5.71,5.71h3.88v10.68h-41.27v-10.68h2.06c4.73,0,5.71-1.09,5.71-5.71v-24.52c0-4.61-.97-5.71-5.71-5.71h-2.06v-10.68h31.07v5.58c4.13-5.1,9.1-7.65,14.81-7.65Z" style="fill:#3a3a3a; stroke-width:0px;"/><path d="m511.41,840.93v-10.56h.49c9.95,0,14.69-7.04,17.12-22.33h14.32v22.33h16.87v10.56h-16.87v31.07c0,4.61,1.33,6.8,4.25,6.8,4.13,0,4.85-3.88,4.85-12.87v-5.34h10.44v7.77c0,15.17-5.58,21.73-21.36,21.73-8.38,0-14.57-2.43-18.45-7.16-3.64-4.37-3.64-9.22-3.64-15.66v-26.34h-8.01Z" style="fill:#3a3a3a; stroke-width:0px;"/><path d="m587.63,889.72c-12.14,0-18.94-5.83-18.94-16.14,0-11.41,6.68-14.81,21.24-17.36,10.68-1.82,15.78-3.03,15.78-10.44,0-5.71-4.13-9.59-11.29-9.59-2.43,0-4.73.73-7.16,2.06,4.25,1.21,6.31,3.76,6.31,7.77,0,4.98-4.13,8.38-10.56,8.38-7.65,0-11.9-3.76-11.9-10.2,0-9.59,10.2-15.9,29.25-15.9,10.92,0,18.81,1.94,22.58,4.49,5.95,4.01,6.68,8.74,6.68,16.63v22.09c0,2.55.24,3.64,2.43,3.64,2.31,0,2.55-1.33,2.55-3.64v-6.92h8.01v7.53c0,12.38-5.1,17.6-18.21,17.6-7.16,0-12.26-2.55-15.9-8.13-4.13,5.22-11.53,8.13-20.88,8.13Zm4.61-18.33c0,3.28,2.55,5.71,6.31,5.71,4.49,0,7.53-3.03,7.53-8.25v-.36l-.12-7.4c-8.74,4.73-13.72,5.71-13.72,10.32Z" style="fill:#3a3a3a; stroke-width:0px;"/><path d="m647.96,816.89h-2.67v-10.68h32.29v65.06c0,4.61.85,5.71,5.58,5.71h1.94v10.68h-39.81v-10.68h2.67c4.73,0,5.71-1.09,5.71-5.71v-48.67c0-4.61-.97-5.71-5.71-5.71Z" style="fill:#3a3a3a; stroke-width:0px;"/><path d="m744.45,857.68c3.88,12.75,13.47,20.03,25.49,20.03,7.53,0,12.14-3.52,12.14-8.5,0-7.28-8.25-7.77-21.73-11.9-10.2-3.04-16.99-5.46-20.15-7.89-6.55-4.85-9.59-10.68-9.59-18.33,0-16.02,12.87-27.31,33.14-27.31,9.83,0,18.45,1.82,26.95,6.07l2.19-4.13h11.65v28.28h-13.72c-2.67-11.53-10.07-17.12-22.46-17.12-7.65,0-12.5,4.01-12.5,8.62,0,6.43,6.92,6.68,18.69,9.35,22.82,5.22,33.99,12.14,33.99,28.28s-12.99,26.95-34.47,26.95c-9.47,0-18.33-2.06-27.19-6.55l-3.03,4.49h-11.17v-30.35h11.77Z" style="fill:#3a3a3a; stroke-width:0px;"/><path d="m812.42,840.93v-10.56h.49c9.95,0,14.69-7.04,17.12-22.33h14.32v22.33h16.87v10.56h-16.87v31.07c0,4.61,1.33,6.8,4.25,6.8,4.13,0,4.86-3.88,4.86-12.87v-5.34h10.44v7.77c0,15.17-5.58,21.73-21.36,21.73-8.38,0-14.57-2.43-18.45-7.16-3.64-4.37-3.64-9.22-3.64-15.66v-26.34h-8.01Z" style="fill:#3a3a3a; stroke-width:0px;"/><path d="m888.65,889.72c-12.14,0-18.94-5.83-18.94-16.14,0-11.41,6.68-14.81,21.24-17.36,10.68-1.82,15.78-3.03,15.78-10.44,0-5.71-4.13-9.59-11.29-9.59-2.43,0-4.73.73-7.16,2.06,4.25,1.21,6.31,3.76,6.31,7.77,0,4.98-4.13,8.38-10.56,8.38-7.65,0-11.9-3.76-11.9-10.2,0-9.59,10.2-15.9,29.25-15.9,10.92,0,18.81,1.94,22.58,4.49,5.95,4.01,6.68,8.74,6.68,16.63v22.09c0,2.55.24,3.64,2.43,3.64,2.31,0,2.55-1.33,2.55-3.64v-6.92h8.01v7.53c0,12.38-5.1,17.6-18.21,17.6-7.16,0-12.26-2.55-15.9-8.13-4.13,5.22-11.53,8.13-20.88,8.13Zm4.61-18.33c0,3.28,2.55,5.71,6.31,5.71,4.49,0,7.53-3.03,7.53-8.25v-.36l-.12-7.4c-8.74,4.73-13.72,5.71-13.72,10.32Z" style="fill:#3a3a3a; stroke-width:0px;"/><path d="m1025.2,876.98h2.43v10.68h-38.36v-10.68h1.34c4.25,0,5.1-1.21,5.1-5.71v-20.64c0-6.55-2.55-9.83-7.89-9.83s-8.98,4.37-8.98,11.65v18.81c0,4.49.97,5.71,5.22,5.71h1.21v10.68h-38.96v-10.68h2.91c4.73,0,5.71-1.09,5.71-5.71v-24.52c0-4.61-.97-5.71-5.71-5.71h-2.91v-10.68h31.92v8.86c5.22-6.92,12.5-10.44,21.24-10.44,15.29,0,20.15,6.31,20.15,21.24v21.24c0,4.61.85,5.71,5.58,5.71Z" style="fill:#3a3a3a; stroke-width:0px;"/><path d="m1066.1,816.77c-.85,0-1.94.12-3.03.12v-10.68h33.74v65.06c0,4.61.85,5.71,5.34,5.71h2.91v10.68h-30.59v-7.89c-5.7,6.8-11.29,9.83-18.81,9.83-16.02,0-24.4-10.32-24.4-30.35s9.59-31.07,23.43-31.07c7.04,0,12.99,2.43,18.21,8.62v-14.2c0-4.61-1.46-5.83-6.8-5.83Zm-1.33,24.28c-5.46,0-7.89,5.95-7.89,18.21s2.55,18.09,7.89,18.09,8.01-5.95,8.01-18.09-2.31-18.21-8.01-18.21Z" style="fill:#3a3a3a; stroke-width:0px;"/><path d="m1179.23,859.01c0,18.94-13.23,30.71-34.84,30.71s-34.72-11.53-34.72-30.71,12.99-30.83,34.59-30.83,34.96,11.9,34.96,30.83Zm-34.96-19.54c-7.04,0-8.86,6.07-8.86,19.54s1.82,19.54,9.1,19.54,8.86-6.07,8.86-19.54-1.82-19.54-9.1-19.54Z" style="fill:#3a3a3a; stroke-width:0px;"/><path d="m1184.45,841.41v-11.05h8.5v-3.28c0-16.02,7.77-23.06,26.95-23.06,13.72,0,21.61,5.95,21.61,13.96,0,5.34-4.25,9.35-10.44,9.35-5.58,0-9.35-3.4-9.35-7.77,0-2.91,1.46-5.22,4.37-6.92-1.21-.36-2.19-.61-3.16-.61-4.86,0-6.07,3.52-6.07,10.56v7.77h10.56v11.05h-10.56v29.74c0,4.73.97,5.83,5.71,5.83h5.1v10.68h-43.21v-10.68h2.91c4.73,0,5.58-1.09,5.58-5.71v-29.86h-8.5Z" style="fill:#3a3a3a; stroke-width:0px;"/><path d="m1233.36,841.41v-11.05h8.5v-3.28c0-16.02,7.77-23.06,26.95-23.06,13.72,0,21.61,5.95,21.61,13.96,0,5.34-4.25,9.35-10.44,9.35-5.58,0-9.35-3.4-9.35-7.77,0-2.91,1.46-5.22,4.37-6.92-1.21-.36-2.19-.61-3.16-.61-4.86,0-6.07,3.52-6.07,10.56v7.77h10.56v11.05h-10.56v29.74c0,4.73.97,5.83,5.71,5.83h5.1v10.68h-43.21v-10.68h2.91c4.73,0,5.58-1.09,5.58-5.71v-29.86h-8.5Z" style="fill:#3a3a3a; stroke-width:0px;"/><path d="m369.04,817.74h-4.01c-6.43,0-6.68,1.21-6.68,6.92v44.43c0,5.71.24,7.04,6.68,7.04h4.01v11.53h-44.67v-11.53h3.03c6.68,0,6.68-1.58,6.68-7.04v-49.53l-20.88,68.1h-19.06l-19.79-67.97v49.4c0,5.83.49,7.04,6.68,7.04h3.03v11.53h-36.54v-11.53h3.76c6.19,0,6.68-1.21,6.68-7.04v-44.43c0-5.83-.49-6.92-6.68-6.92h-3.76v-11.53h45.64l13.84,48.55,14.93-48.55h47.1v11.53Z" style="fill:#7a7a7a; stroke-width:0px;"/><path d="m443.32,859.01c0,18.94-13.23,30.71-34.84,30.71s-34.72-11.53-34.72-30.71,12.99-30.83,34.59-30.83,34.96,11.9,34.96,30.83Zm-34.96-19.54c-7.04,0-8.86,6.07-8.86,19.54s1.82,19.54,9.1,19.54,8.86-6.07,8.86-19.54-1.82-19.54-9.1-19.54Z" style="fill:#7a7a7a; stroke-width:0px;"/><path d="m494.18,828.3c8.86,0,14.32,5.71,14.32,14.08,0,7.4-4.61,12.14-11.29,12.14-5.46,0-9.47-3.88-9.47-8.86,0-3.52,1.7-6.07,5.34-7.89-.97-.24-1.82-.36-2.67-.36-6.19,0-10.44,6.07-10.44,16.99v16.87c0,4.61.97,5.71,5.71,5.71h3.88v10.68h-41.27v-10.68h2.06c4.73,0,5.71-1.09,5.71-5.71v-24.52c0-4.61-.97-5.71-5.71-5.71h-2.06v-10.68h31.07v5.58c4.13-5.1,9.1-7.65,14.81-7.65Z" style="fill:#7a7a7a; stroke-width:0px;"/><path d="m511.41,840.93v-10.56h.49c9.95,0,14.69-7.04,17.12-22.33h14.32v22.33h16.87v10.56h-16.87v31.07c0,4.61,1.33,6.8,4.25,6.8,4.13,0,4.85-3.88,4.85-12.87v-5.34h10.44v7.77c0,15.17-5.58,21.73-21.36,21.73-8.38,0-14.57-2.43-18.45-7.16-3.64-4.37-3.64-9.22-3.64-15.66v-26.34h-8.01Z" style="fill:#7a7a7a; stroke-width:0px;"/><path d="m587.63,889.72c-12.14,0-18.94-5.83-18.94-16.14,0-11.41,6.68-14.81,21.24-17.36,10.68-1.82,15.78-3.03,15.78-10.44,0-5.71-4.13-9.59-11.29-9.59-2.43,0-4.73.73-7.16,2.06,4.25,1.21,6.31,3.76,6.31,7.77,0,4.98-4.13,8.38-10.56,8.38-7.65,0-11.9-3.76-11.9-10.2,0-9.59,10.2-15.9,29.25-15.9,10.92,0,18.81,1.94,22.58,4.49,5.95,4.01,6.68,8.74,6.68,16.63v22.09c0,2.55.24,3.64,2.43,3.64,2.31,0,2.55-1.33,2.55-3.64v-6.92h8.01v7.53c0,12.38-5.1,17.6-18.21,17.6-7.16,0-12.26-2.55-15.9-8.13-4.13,5.22-11.53,8.13-20.88,8.13Zm4.61-18.33c0,3.28,2.55,5.71,6.31,5.71,4.49,0,7.53-3.03,7.53-8.25v-.36l-.12-7.4c-8.74,4.73-13.72,5.71-13.72,10.32Z" style="fill:#7a7a7a; stroke-width:0px;"/><path d="m647.96,816.89h-2.67v-10.68h32.29v65.06c0,4.61.85,5.71,5.58,5.71h1.94v10.68h-39.81v-10.68h2.67c4.73,0,5.71-1.09,5.71-5.71v-48.67c0-4.61-.97-5.71-5.71-5.71Z" style="fill:#7a7a7a; stroke-width:0px;"/><path d="m744.45,857.68c3.88,12.75,13.47,20.03,25.49,20.03,7.53,0,12.14-3.52,12.14-8.5,0-7.28-8.25-7.77-21.73-11.9-10.2-3.04-16.99-5.46-20.15-7.89-6.55-4.85-9.59-10.68-9.59-18.33,0-16.02,12.87-27.31,33.14-27.31,9.83,0,18.45,1.82,26.95,6.07l2.19-4.13h11.65v28.28h-13.72c-2.67-11.53-10.07-17.12-22.46-17.12-7.65,0-12.5,4.01-12.5,8.62,0,6.43,6.92,6.68,18.69,9.35,22.82,5.22,33.99,12.14,33.99,28.28s-12.99,26.95-34.47,26.95c-9.47,0-18.33-2.06-27.19-6.55l-3.03,4.49h-11.17v-30.35h11.77Z" style="fill:#7a7a7a; stroke-width:0px;"/><path d="m812.42,840.93v-10.56h.49c9.95,0,14.69-7.04,17.12-22.33h14.32v22.33h16.87v10.56h-16.87v31.07c0,4.61,1.33,6.8,4.25,6.8,4.13,0,4.86-3.88,4.86-12.87v-5.34h10.44v7.77c0,15.17-5.58,21.73-21.36,21.73-8.38,0-14.57-2.43-18.45-7.16-3.64-4.37-3.64-9.22-3.64-15.66v-26.34h-8.01Z" style="fill:#7a7a7a; stroke-width:0px;"/><path d="m888.65,889.72c-12.14,0-18.94-5.83-18.94-16.14,0-11.41,6.68-14.81,21.24-17.36,10.68-1.82,15.78-3.03,15.78-10.44,0-5.71-4.13-9.59-11.29-9.59-2.43,0-4.73.73-7.16,2.06,4.25,1.21,6.31,3.76,6.31,7.77,0,4.98-4.13,8.38-10.56,8.38-7.65,0-11.9-3.76-11.9-10.2,0-9.59,10.2-15.9,29.25-15.9,10.92,0,18.81,1.94,22.58,4.49,5.95,4.01,6.68,8.74,6.68,16.63v22.09c0,2.55.24,3.64,2.43,3.64,2.31,0,2.55-1.33,2.55-3.64v-6.92h8.01v7.53c0,12.38-5.1,17.6-18.21,17.6-7.16,0-12.26-2.55-15.9-8.13-4.13,5.22-11.53,8.13-20.88,8.13Zm4.61-18.33c0,3.28,2.55,5.71,6.31,5.71,4.49,0,7.53-3.03,7.53-8.25v-.36l-.12-7.4c-8.74,4.73-13.72,5.71-13.72,10.32Z" style="fill:#7a7a7a; stroke-width:0px;"/><path d="m1025.2,876.98h2.43v10.68h-38.36v-10.68h1.34c4.25,0,5.1-1.21,5.1-5.71v-20.64c0-6.55-2.55-9.83-7.89-9.83s-8.98,4.37-8.98,11.65v18.81c0,4.49.97,5.71,5.22,5.71h1.21v10.68h-38.96v-10.68h2.91c4.73,0,5.71-1.09,5.71-5.71v-24.52c0-4.61-.97-5.71-5.71-5.71h-2.91v-10.68h31.92v8.86c5.22-6.92,12.5-10.44,21.24-10.44,15.29,0,20.15,6.31,20.15,21.24v21.24c0,4.61.85,5.71,5.58,5.71Z" style="fill:#7a7a7a; stroke-width:0px;"/><path d="m1066.1,816.77c-.85,0-1.94.12-3.03.12v-10.68h33.74v65.06c0,4.61.85,5.71,5.34,5.71h2.91v10.68h-30.59v-7.89c-5.7,6.8-11.29,9.83-18.81,9.83-16.02,0-24.4-10.32-24.4-30.35s9.59-31.07,23.43-31.07c7.04,0,12.99,2.43,18.21,8.62v-14.2c0-4.61-1.46-5.83-6.8-5.83Zm-1.33,24.28c-5.46,0-7.89,5.95-7.89,18.21s2.55,18.09,7.89,18.09,8.01-5.95,8.01-18.09-2.31-18.21-8.01-18.21Z" style="fill:#7a7a7a; stroke-width:0px;"/><path d="m1179.23,859.01c0,18.94-13.23,30.71-34.84,30.71s-34.72-11.53-34.72-30.71,12.99-30.83,34.59-30.83,34.96,11.9,34.96,30.83Zm-34.96-19.54c-7.04,0-8.86,6.07-8.86,19.54s1.82,19.54,9.1,19.54,8.86-6.07,8.86-19.54-1.82-19.54-9.1-19.54Z" style="fill:#7a7a7a; stroke-width:0px;"/><path d="m1184.45,841.41v-11.05h8.5v-3.28c0-16.02,7.77-23.06,26.95-23.06,13.72,0,21.61,5.95,21.61,13.96,0,5.34-4.25,9.35-10.44,9.35-5.58,0-9.35-3.4-9.35-7.77,0-2.91,1.46-5.22,4.37-6.92-1.21-.36-2.19-.61-3.16-.61-4.86,0-6.07,3.52-6.07,10.56v7.77h10.56v11.05h-10.56v29.74c0,4.73.97,5.83,5.71,5.83h5.1v10.68h-43.21v-10.68h2.91c4.73,0,5.58-1.09,5.58-5.71v-29.86h-8.5Z" style="fill:#7a7a7a; stroke-width:0px;"/><path d="m1233.36,841.41v-11.05h8.5v-3.28c0-16.02,7.77-23.06,26.95-23.06,13.72,0,21.61,5.95,21.61,13.96,0,5.34-4.25,9.35-10.44,9.35-5.58,0-9.35-3.4-9.35-7.77,0-2.91,1.46-5.22,4.37-6.92-1.21-.36-2.19-.61-3.16-.61-4.86,0-6.07,3.52-6.07,10.56v7.77h10.56v11.05h-10.56v29.74c0,4.73.97,5.83,5.71,5.83h5.1v10.68h-43.21v-10.68h2.91c4.73,0,5.58-1.09,5.58-5.71v-29.86h-8.5Z" style="fill:#7a7a7a; stroke-width:0px;"/><path d="m369.04,801.02h-4.01c-6.43,0-6.68,1.21-6.68,6.92v44.43c0,5.71.24,7.04,6.68,7.04h4.01v11.53h-44.67v-11.53h3.03c6.68,0,6.68-1.58,6.68-7.04v-49.53l-20.88,68.1h-19.06l-19.79-67.97v49.4c0,5.83.49,7.04,6.68,7.04h3.03v11.53h-36.54v-11.53h3.76c6.19,0,6.68-1.21,6.68-7.04v-44.43c0-5.83-.49-6.92-6.68-6.92h-3.76v-11.53h45.64l13.84,48.55,14.93-48.55h47.1v11.53Z" style="fill:#f45b69; stroke-width:0px;"/><path d="m443.32,842.29c0,18.94-13.23,30.71-34.84,30.71s-34.72-11.53-34.72-30.71,12.99-30.83,34.59-30.83,34.96,11.9,34.96,30.83Zm-34.96-19.54c-7.04,0-8.86,6.07-8.86,19.54s1.82,19.54,9.1,19.54,8.86-6.07,8.86-19.54-1.82-19.54-9.1-19.54Z" style="fill:#f45b69; stroke-width:0px;"/><path d="m494.18,811.58c8.86,0,14.32,5.71,14.32,14.08,0,7.4-4.61,12.14-11.29,12.14-5.46,0-9.47-3.88-9.47-8.86,0-3.52,1.7-6.07,5.34-7.89-.97-.24-1.82-.36-2.67-.36-6.19,0-10.44,6.07-10.44,16.99v16.87c0,4.61.97,5.71,5.71,5.71h3.88v10.68h-41.27v-10.68h2.06c4.73,0,5.71-1.09,5.71-5.71v-24.52c0-4.61-.97-5.71-5.71-5.71h-2.06v-10.68h31.07v5.58c4.13-5.1,9.1-7.65,14.81-7.65Z" style="fill:#f45b69; stroke-width:0px;"/><path d="m511.41,824.21v-10.56h.49c9.95,0,14.69-7.04,17.12-22.33h14.32v22.33h16.87v10.56h-16.87v31.07c0,4.61,1.33,6.8,4.25,6.8,4.13,0,4.85-3.88,4.85-12.87v-5.34h10.44v7.77c0,15.17-5.58,21.73-21.36,21.73-8.38,0-14.57-2.43-18.45-7.16-3.64-4.37-3.64-9.22-3.64-15.66v-26.34h-8.01Z" style="fill:#f45b69; stroke-width:0px;"/><path d="m587.63,873c-12.14,0-18.94-5.83-18.94-16.14,0-11.41,6.68-14.81,21.24-17.36,10.68-1.82,15.78-3.03,15.78-10.44,0-5.71-4.13-9.59-11.29-9.59-2.43,0-4.73.73-7.16,2.06,4.25,1.21,6.31,3.76,6.31,7.77,0,4.98-4.13,8.38-10.56,8.38-7.65,0-11.9-3.76-11.9-10.2,0-9.59,10.2-15.9,29.25-15.9,10.92,0,18.81,1.94,22.58,4.49,5.95,4.01,6.68,8.74,6.68,16.63v22.09c0,2.55.24,3.64,2.43,3.64,2.31,0,2.55-1.33,2.55-3.64v-6.92h8.01v7.53c0,12.38-5.1,17.6-18.21,17.6-7.16,0-12.26-2.55-15.9-8.13-4.13,5.22-11.53,8.13-20.88,8.13Zm4.61-18.33c0,3.28,2.55,5.71,6.31,5.71,4.49,0,7.53-3.03,7.53-8.25v-.36l-.12-7.4c-8.74,4.73-13.72,5.71-13.72,10.32Z" style="fill:#f45b69; stroke-width:0px;"/><path d="m647.96,800.17h-2.67v-10.68h32.29v65.06c0,4.61.85,5.71,5.58,5.71h1.94v10.68h-39.81v-10.68h2.67c4.73,0,5.71-1.09,5.71-5.71v-48.67c0-4.61-.97-5.71-5.71-5.71Z" style="fill:#f45b69; stroke-width:0px;"/><path d="m744.45,840.96c3.88,12.75,13.47,20.03,25.49,20.03,7.53,0,12.14-3.52,12.14-8.5,0-7.28-8.25-7.77-21.73-11.9-10.2-3.04-16.99-5.46-20.15-7.89-6.55-4.85-9.59-10.68-9.59-18.33,0-16.02,12.87-27.31,33.14-27.31,9.83,0,18.45,1.82,26.95,6.07l2.19-4.13h11.65v28.28h-13.72c-2.67-11.53-10.07-17.12-22.46-17.12-7.65,0-12.5,4.01-12.5,8.62,0,6.43,6.92,6.68,18.69,9.35,22.82,5.22,33.99,12.14,33.99,28.28s-12.99,26.95-34.47,26.95c-9.47,0-18.33-2.06-27.19-6.55l-3.03,4.49h-11.17v-30.35h11.77Z" style="fill:#f45b69; stroke-width:0px;"/><path d="m812.42,824.21v-10.56h.49c9.95,0,14.69-7.04,17.12-22.33h14.32v22.33h16.87v10.56h-16.87v31.07c0,4.61,1.33,6.8,4.25,6.8,4.13,0,4.86-3.88,4.86-12.87v-5.34h10.44v7.77c0,15.17-5.58,21.73-21.36,21.73-8.38,0-14.57-2.43-18.45-7.16-3.64-4.37-3.64-9.22-3.64-15.66v-26.34h-8.01Z" style="fill:#f45b69; stroke-width:0px;"/><path d="m888.65,873c-12.14,0-18.94-5.83-18.94-16.14,0-11.41,6.68-14.81,21.24-17.36,10.68-1.82,15.78-3.03,15.78-10.44,0-5.71-4.13-9.59-11.29-9.59-2.43,0-4.73.73-7.16,2.06,4.25,1.21,6.31,3.76,6.31,7.77,0,4.98-4.13,8.38-10.56,8.38-7.65,0-11.9-3.76-11.9-10.2,0-9.59,10.2-15.9,29.25-15.9,10.92,0,18.81,1.94,22.58,4.49,5.95,4.01,6.68,8.74,6.68,16.63v22.09c0,2.55.24,3.64,2.43,3.64,2.31,0,2.55-1.33,2.55-3.64v-6.92h8.01v7.53c0,12.38-5.1,17.6-18.21,17.6-7.16,0-12.26-2.55-15.9-8.13-4.13,5.22-11.53,8.13-20.88,8.13Zm4.61-18.33c0,3.28,2.55,5.71,6.31,5.71,4.49,0,7.53-3.03,7.53-8.25v-.36l-.12-7.4c-8.74,4.73-13.72,5.71-13.72,10.32Z" style="fill:#f45b69; stroke-width:0px;"/><path d="m1025.2,860.26h2.43v10.68h-38.36v-10.68h1.34c4.25,0,5.1-1.21,5.1-5.71v-20.64c0-6.55-2.55-9.83-7.89-9.83s-8.98,4.37-8.98,11.65v18.81c0,4.49.97,5.71,5.22,5.71h1.21v10.68h-38.96v-10.68h2.91c4.73,0,5.71-1.09,5.71-5.71v-24.52c0-4.61-.97-5.71-5.71-5.71h-2.91v-10.68h31.92v8.86c5.22-6.92,12.5-10.44,21.24-10.44,15.29,0,20.15,6.31,20.15,21.24v21.24c0,4.61.85,5.71,5.58,5.71Z" style="fill:#f45b69; stroke-width:0px;"/><path d="m1066.1,800.05c-.85,0-1.94.12-3.03.12v-10.68h33.74v65.06c0,4.61.85,5.71,5.34,5.71h2.91v10.68h-30.59v-7.89c-5.7,6.8-11.29,9.83-18.81,9.83-16.02,0-24.4-10.32-24.4-30.35s9.59-31.07,23.43-31.07c7.04,0,12.99,2.43,18.21,8.62v-14.2c0-4.61-1.46-5.83-6.8-5.83Zm-1.33,24.28c-5.46,0-7.89,5.95-7.89,18.21s2.55,18.09,7.89,18.09,8.01-5.95,8.01-18.09-2.31-18.21-8.01-18.21Z" style="fill:#f45b69; stroke-width:0px;"/><path d="m1179.23,842.29c0,18.94-13.23,30.71-34.84,30.71s-34.72-11.53-34.72-30.71,12.99-30.83,34.59-30.83,34.96,11.9,34.96,30.83Zm-34.96-19.54c-7.04,0-8.86,6.07-8.86,19.54s1.82,19.54,9.1,19.54,8.86-6.07,8.86-19.54-1.82-19.54-9.1-19.54Z" style="fill:#f45b69; stroke-width:0px;"/><path d="m1184.45,824.69v-11.05h8.5v-3.28c0-16.02,7.77-23.06,26.95-23.06,13.72,0,21.61,5.95,21.61,13.96,0,5.34-4.25,9.35-10.44,9.35-5.58,0-9.35-3.4-9.35-7.77,0-2.91,1.46-5.22,4.37-6.92-1.21-.36-2.19-.61-3.16-.61-4.86,0-6.07,3.52-6.07,10.56v7.77h10.56v11.05h-10.56v29.74c0,4.73.97,5.83,5.71,5.83h5.1v10.68h-43.21v-10.68h2.91c4.73,0,5.58-1.09,5.58-5.71v-29.86h-8.5Z" style="fill:#f45b69; stroke-width:0px;"/><path d="m1233.36,824.69v-11.05h8.5v-3.28c0-16.02,7.77-23.06,26.95-23.06,13.72,0,21.61,5.95,21.61,13.96,0,5.34-4.25,9.35-10.44,9.35-5.58,0-9.35-3.4-9.35-7.77,0-2.91,1.46-5.22,4.37-6.92-1.21-.36-2.19-.61-3.16-.61-4.86,0-6.07,3.52-6.07,10.56v7.77h10.56v11.05h-10.56v29.74c0,4.73.97,5.83,5.71,5.83h5.1v10.68h-43.21v-10.68h2.91c4.73,0,5.58-1.09,5.58-5.71v-29.86h-8.5Z" style="fill:#f45b69; stroke-width:0px;"/></svg>