<?xml version="1.0" encoding="UTF-8"?><svg id="a" xmlns="http://www.w3.org/2000/svg" xmlns:xlink="http://www.w3.org/1999/xlink" viewBox="0 0 1536 1024"><defs><filter id="b" filterUnits="userSpaceOnUse"><feOffset dx="7.8" dy="7.8"/><feGaussianBlur result="c" stdDeviation="0"/><feFlood flood-color="#000" flood-opacity="1"/><feComposite in2="c" operator="in"/><feComposite in="SourceGraphic"/></filter><filter id="d" filterUnits="userSpaceOnUse"><feOffset dx="4.51" dy="4.51"/><feGaussianBlur result="e" stdDeviation="0"/><feFlood flood-color="#000" flood-opacity="1"/><feComposite in2="e" operator="in"/><feComposite in="SourceGraphic"/></filter><filter id="f" filterUnits="userSpaceOnUse"><feOffset dx="7.8" dy="7.8"/><feGaussianBlur result="g" stdDeviation="0"/><feFlood flood-color="#000" flood-opacity="1"/><feComposite in2="g" operator="in"/><feComposite in="SourceGraphic"/></filter></defs><path d="m793.08,838.27c2.04,0,3.99-1.79,3.9-3.9s-1.71-3.9-3.9-3.9c-2.04,0-3.99,1.79-3.9,3.9s1.71,3.9,3.9,3.9h0Z" style="fill:#fff; stroke-width:0px;"/><g style="filter:url(#b);"><path d="m493.26,71.91c3.88.21,7.55.36,11.01.46,3.46.1,6.51.16,9.15.16,3.31,0,6.68-.05,10.12-.16,3.44-.1,6.97-.26,10.58-.46l-.08,4.89c-4.34.36-7.23.93-8.65,1.71-1.42.78-2.13,2.12-2.13,4.03,0,1.45.27,3.27.81,5.47.54,2.2,1.51,5.23,2.91,9.11l23.34,65.3c12.46-31.28,20.3-51.56,23.54-60.84,3.23-9.28,4.85-15.37,4.85-18.26,0-2.38-.63-4.01-1.9-4.89-1.27-.88-4.18-1.42-8.72-1.63v-4.89c3.1.21,6.17.36,9.19.46,3.02.1,5.98.16,8.88.16,2.48,0,5.25-.05,8.3-.16,3.05-.1,6.23-.26,9.54-.46v4.89h-1.16c-5.69,0-10.52,5.01-14.5,15.04-.88,2.28-1.6,4.03-2.17,5.27-14.58,35-23.96,57.77-28.15,68.32-4.19,10.55-6.39,16.67-6.59,18.38h-9.54c0-1.24-2.4-8.97-7.21-23.19-4.81-14.22-10.62-30.32-17.45-48.31-.46-1.29-1.14-3.13-2.02-5.51-7.5-20.11-14.11-30.17-19.85-30.17-.52,0-.92.01-1.2.04-.29.03-.58.07-.89.12v-4.89Z" style="fill:#3a7ca5; stroke-width:0px;"/><path d="m640.68,71.91h13.34c6.72,20.54,13.09,39.29,19.12,56.26,6.02,16.97,10.77,29.72,14.23,38.26,2.07,4.92,3.85,7.94,5.35,9.08,1.5,1.14,3.64,1.71,6.44,1.71h1.55v5.35c-4.03-.21-7.72-.36-11.05-.46-3.33-.1-6.14-.16-8.41-.16-2.9,0-6.08.05-9.54.16-3.46.1-7.13.26-11.01.46v-5.35h1.47c3.67,0,6.18-.43,7.52-1.28,1.34-.86,2.02-2.42,2.02-4.7,0-.83-.1-1.75-.31-2.76-.21-1.01-.54-2.22-1.01-3.62l-7.6-23.78c-1.96,0-4.65-.03-8.06-.08-6.2-.16-10.19-.23-11.94-.23-3.52,0-6.84.01-9.97.04-3.13.03-6.37.09-9.73.19-3.67,9.27-6.18,16.04-7.52,20.28-1.34,4.25-2.02,7.28-2.02,9.09,0,2.54.67,4.31,2.02,5.32,1.34,1.01,3.75,1.51,7.21,1.51h2.09v5.35c-3.77-.21-7.3-.36-10.58-.46-3.28-.1-6.22-.16-8.8-.16-2.07,0-4.65.05-7.75.16-3.1.1-6.46.26-10.08.46v-5.27c3.67-.1,6.58-.84,8.72-2.21,2.14-1.37,4.02-3.66,5.62-6.87,2.89-6.05,8.03-18.17,15.39-36.36,7.37-18.18,15.13-38.17,23.3-59.95Zm3.49,14.58l-17.76,46.37c.98,0,2.4.03,4.27.08,5.84.16,9.82.23,11.94.23,2.58,0,7.26-.08,14.04-.23,1.5-.05,2.64-.08,3.41-.08l-15.9-46.37Z" style="fill:#3a7ca5; stroke-width:0px;"/><path d="m776.97,155.43l22.39-50.87.93-2.09c7.39-16.7,11.08-26.57,11.08-29.62,0-.1-.03-.26-.08-.47-.05-.21-.08-.36-.08-.46,3.05.16,5.8.27,8.25.35,2.45.08,4.64.12,6.55.12,1.81,0,3.9-.04,6.28-.12,2.38-.08,4.99-.19,7.83-.35v5.35h-.93c-4.5,0-7.59.78-9.27,2.33-1.68,1.55-2.52,4.32-2.52,8.3,0,1.55.1,5.02.31,10.39.21,5.38.47,11.19.78,17.45l1.32,21.79.08,2.09c1.14,19.34,2.02,30.27,2.64,32.8.31,1.5,1.27,2.66,2.87,3.49,1.6.83,3.7,1.24,6.28,1.24h1.94v5.43c-4.08-.21-7.88-.36-11.39-.46-3.51-.1-6.42-.16-8.73-.16-2.72,0-5.79.05-9.2.16s-7.05.26-10.93.46v-5.58c.47,0,1.06.03,1.78.08.72.05,1.24.08,1.55.08,3.93,0,6.66-.7,8.18-2.09,1.52-1.4,2.29-3.93,2.29-7.6,0-1.71-.03-3.39-.08-5.04-.05-1.65-.13-3.36-.23-5.12l-3.02-66.69-31.79,73.13c-.05.1-.16.34-.31.7-2.48,5.12-4.32,10.57-5.51,16.36h-5.12c-.72-3.21-2.53-8.12-5.43-14.73l-.31-.7-31.25-70.8c-.31,5.53-.75,13.13-1.32,22.8-1.45,23.99-2.17,39.01-2.17,45.06v.78c0,6.57.74,10.53,2.21,11.9,1.47,1.37,4.48,2.05,9.03,2.05h1.63v5.43c-3.36-.21-6.58-.36-9.65-.46-3.08-.1-6.06-.16-8.96-.16-2.07,0-4.64.05-7.72.16-3.08.1-6.37.26-9.89.46v-5.43h2.17c2.95,0,5.14-.36,6.59-1.08,1.45-.72,2.58-1.99,3.41-3.8.98-2.12,1.99-10.7,3.02-25.75.26-4.14.49-7.42.7-9.85l1.4-18.77v-.23c1.4-18.56,2.09-29.11,2.09-31.64,0-3.26-.79-5.53-2.37-6.82-1.58-1.29-4.56-1.94-8.96-1.94h-1.24v-5.35c.41,0,1.09.03,2.02.08,6,.36,10.18.54,12.56.54,1.81,0,5.25-.16,10.31-.46,1.6-.1,2.82-.16,3.64-.16v.46c0,4.6,8.75,26.32,26.26,65.14l8.06,17.91Z" style="fill:#3a7ca5; stroke-width:0px;"/><path d="m912.95,69.35c7.86,0,14.88,1.12,21.05,3.37s11.77,5.73,16.79,10.43c6,5.69,10.58,12.28,13.76,19.78s4.77,15.46,4.77,23.88-1.68,16.7-5.04,24.35c-3.36,7.65-8.14,14.24-14.35,19.78-4.96,4.45-10.74,7.92-17.33,10.43s-13.2,3.76-19.81,3.76c-8.27,0-15.89-1.53-22.84-4.58-6.95-3.05-13.09-7.57-18.42-13.57-4.86-5.48-8.57-11.63-11.13-18.46-2.56-6.82-3.84-14.01-3.84-21.56,0-8.17,1.54-15.88,4.61-23.15,3.08-7.26,7.53-13.64,13.38-19.12,5.27-4.96,11.22-8.76,17.84-11.4,6.62-2.64,13.47-3.96,20.55-3.96Zm39.24,60.18c0-15.04-3.88-27.39-11.63-37.03-7.75-9.64-17.53-14.46-29.31-14.46s-20.41,4.14-27.26,12.41-10.27,19.34-10.27,33.19c0,15.41,3.89,28.05,11.67,37.92,7.78,9.88,17.51,14.81,29.2,14.81s20.36-4.25,27.26-12.76c6.9-8.5,10.35-19.86,10.35-34.08Z" style="fill:#3a7ca5; stroke-width:0px;"/><path d="m1049.51,75.25c0,3.83.22,7.6.66,11.32.44,3.72,1.12,7.39,2.05,11.01l-6.05,1.16c-.88-6.41-3.35-11.17-7.41-14.27-4.06-3.1-9.79-4.65-17.18-4.65-6.82,0-12.37,1.66-16.63,4.96-4.26,3.31-6.4,7.57-6.4,12.79,0,8.58,9.1,15.92,27.3,22.02,2.43.78,4.29,1.4,5.58,1.86,8.32,2.9,14.45,6.61,18.38,11.13,3.93,4.52,5.89,10.12,5.89,16.79,0,10.29-3.9,18.62-11.71,25.01-7.81,6.39-18.15,9.58-31.02,9.58-4.91,0-9.71-.4-14.38-1.2-4.68-.8-9.42-2.06-14.23-3.76.05-.52.09-1.12.12-1.82.03-.7.04-1.72.04-3.06,0-3.67-.21-7.29-.62-10.86s-1.03-7.13-1.86-10.7l6.98-1.63c.88,8.48,3.54,14.68,7.99,18.61,4.45,3.93,11.04,5.89,19.77,5.89,7.65,0,13.88-1.92,18.69-5.78,4.81-3.85,7.21-8.8,7.21-14.85,0-8.58-7.5-15.25-22.49-20.01-2.12-.67-3.77-1.21-4.96-1.63-10.39-3.36-17.84-7.47-22.33-12.33-4.5-4.86-6.75-11.06-6.75-18.61,0-8.89,3.52-16.31,10.55-22.26,7.03-5.94,15.85-8.92,26.44-8.92,3.88,0,7.81.31,11.79.93,3.98.62,8.84,1.71,14.58,3.26Z" style="fill:#3a7ca5; stroke-width:0px;"/></g><g style="filter:url(#d);"><path d="m721.19,150.35h11.11c5.6,17.11,10.91,32.73,15.92,46.87,5.02,14.14,8.97,24.76,11.85,31.87,1.72,4.1,3.21,6.62,4.46,7.56,1.25.95,3.04,1.42,5.36,1.42h1.29v4.46c-3.36-.17-6.43-.3-9.21-.39-2.78-.09-5.11-.13-7.01-.13-2.41,0-5.06.04-7.95.13-2.89.09-5.94.22-9.17.39v-4.46h1.23c3.06,0,5.15-.35,6.27-1.07,1.12-.71,1.68-2.02,1.68-3.92,0-.69-.09-1.46-.26-2.3-.17-.84-.45-1.85-.84-3.01l-6.33-19.81c-1.64,0-3.88-.02-6.72-.07-5.17-.13-8.48-.19-9.95-.19-2.93,0-5.7.01-8.3.03-2.61.02-5.31.08-8.11.16-3.06,7.73-5.15,13.36-6.27,16.9-1.12,3.54-1.68,6.06-1.68,7.58,0,2.12.56,3.59,1.68,4.43,1.12.84,3.12,1.26,6.01,1.26h1.74v4.46c-3.14-.17-6.08-.3-8.82-.39-2.74-.09-5.18-.13-7.33-.13-1.72,0-3.88.04-6.46.13-2.58.09-5.38.22-8.4.39v-4.39c3.06-.09,5.48-.7,7.27-1.84,1.79-1.14,3.35-3.05,4.68-5.72,2.41-5.04,6.69-15.14,12.82-30.29,6.14-15.15,12.61-31.8,19.41-49.94Zm2.91,12.14l-14.79,38.63c.82,0,2,.02,3.55.07,4.87.13,8.18.19,9.95.19,2.15,0,6.05-.06,11.69-.19,1.25-.04,2.2-.07,2.84-.07l-13.24-38.63Z" style="fill:#f45b69; stroke-width:0px;"/><path d="m824.68,148.21c6.55,0,12.39.94,17.54,2.81,5.15,1.87,9.81,4.77,13.99,8.69,5,4.74,8.82,10.23,11.47,16.47,2.65,6.25,3.97,12.88,3.97,19.9s-1.4,13.91-4.2,20.29c-2.8,6.38-6.78,11.87-11.95,16.47-4.13,3.71-8.95,6.6-14.44,8.69-5.49,2.09-10.99,3.13-16.51,3.13-6.89,0-13.23-1.27-19.02-3.81-5.79-2.54-10.91-6.31-15.34-11.31-4.05-4.56-7.14-9.69-9.27-15.38-2.13-5.68-3.2-11.67-3.2-17.96,0-6.8,1.28-13.23,3.84-19.28,2.56-6.05,6.28-11.36,11.14-15.92,4.39-4.13,9.35-7.3,14.86-9.5,5.51-2.2,11.22-3.29,17.12-3.29Zm32.69,50.13c0-12.53-3.23-22.81-9.69-30.85-6.46-8.03-14.6-12.05-24.42-12.05s-17,3.45-22.71,10.34c-5.71,6.89-8.56,16.11-8.56,27.65,0,12.83,3.24,23.37,9.72,31.59,6.48,8.23,14.59,12.34,24.32,12.34s16.96-3.54,22.71-10.63c5.75-7.08,8.62-16.55,8.62-28.39Z" style="fill:#f45b69; stroke-width:0px;"/></g><g style="filter:url(#f);"><path d="m307.83,739.32v5.49c0,7.54.27,15.37.81,23.5.54,8.13,1.35,16.66,2.42,25.6l-11.79,1.94c-2.16-15.51-9.48-27.59-21.97-36.26-12.49-8.67-28.81-13-48.94-13-26.81,0-47.51,8.21-62.1,24.63-14.59,16.42-21.89,39.71-21.89,69.86,0,32.2,8.37,58.23,25.12,78.09,16.74,19.87,38.47,29.8,65.17,29.8,16.8,0,31.36-3.88,43.69-11.63,12.33-7.75,21.94-19.11,28.83-34.08l10.82,5.33c-3.45,7-6.57,14.13-9.37,21.4-2.8,7.27-5.28,14.56-7.43,21.89-11.63,5.28-23.48,9.26-35.53,11.95-12.06,2.69-24.17,4.04-36.34,4.04-35.75,0-64.69-11.06-86.82-33.19s-33.19-51.23-33.19-87.3,11.68-64.47,35.05-86.82c23.36-22.34,53.57-33.51,90.61-33.51,10.98,0,22.58,1.02,34.81,3.07,12.22,2.05,24.9,5.12,38.04,9.21Z" style="fill:#f2e863; stroke-width:0px;"/><path d="m341.91,732.05c7.54.43,15.02.75,22.45.97,7.43.22,14.7.32,21.8.32,6.03,0,12.76-.11,20.19-.32,7.43-.21,15.29-.54,23.58-.97v10.98h-2.75c-7,0-12.25.81-15.75,2.42-3.5,1.62-5.95,4.31-7.35,8.08-.86,2.48-1.48,6.49-1.86,12.04-.38,5.55-.57,14.58-.57,27.08v112.67c0,12.72.29,21.66.89,26.83.59,5.17,1.54,9,2.83,11.48,1.4,2.7,3.9,4.63,7.51,5.82,3.61,1.19,8.69,1.78,15.26,1.78h3.39v11.31c-9.26-.43-17.82-.75-25.68-.97-7.86-.21-14.43-.32-19.71-.32-6.25,0-13.3.11-21.16.32-7.86.22-16.1.54-24.71.97v-11.31h3.23c6.67,0,11.79-.59,15.34-1.78,3.55-1.19,6.03-3.12,7.43-5.82,1.51-2.91,2.56-7.68,3.15-14.31.59-6.63.89-18.61.89-35.96v-88.74c0-16.92-.22-28.96-.65-36.13-.43-7.17-1.13-12.15-2.1-14.95-1.29-3.77-3.63-6.47-7.03-8.08s-8.64-2.42-15.75-2.42h-2.91v-10.98Z" style="fill:#f2e863; stroke-width:0px;"/><path d="m451.9,732.05c5.06.43,9.99.75,14.78.97,4.79.22,9.5.32,14.13.32,3.45,0,7.48-.11,12.11-.32,4.63-.21,9.63-.54,15.02-.97,1.4,3.55,3.34,7.21,5.81,10.98,2.48,3.77,5.6,7.91,9.37,12.44l133.25,157.64c-.32-16.37-.65-38.06-.97-65.09-.86-56.75-1.83-87.27-2.91-91.58-1.29-4.95-3.58-8.4-6.86-10.34-3.29-1.94-8.64-2.91-16.07-2.91h-5.01v-11.14c1.29,0,3.23.06,5.81.16,15.29.75,26.06,1.13,32.3,1.13s17.44-.38,33.27-1.13c2.26-.11,3.98-.16,5.17-.16l-.16,11.14c-.65-.11-1.35-.19-2.1-.24-.75-.05-1.78-.08-3.07-.08-14.43,0-21.75,20.08-21.97,60.25-.11,10.12-.16,18.04-.16,23.74l-.65,42.96c-.22,6.36-.35,12.9-.4,19.62-.06,6.73-.08,15.96-.08,27.7,0,13.03.16,23.18.49,30.45.32,7.27.86,13.11,1.62,17.52h-17.93c-1.83-4.3-8.35-12.92-19.54-25.84l-1.62-1.94-138.58-162.97v3.71c.65,100.79,1.72,154.09,3.23,159.9,1.29,4.95,3.58,8.4,6.87,10.34,3.28,1.94,8.53,2.91,15.75,2.91h4.84v11.31c-1.62-.11-3.98-.21-7.11-.32-15.08-.65-25.36-.97-30.85-.97s-11.12.11-17.53.32c-6.41.22-13.16.54-20.27.97v-11.14c.65,0,1.37.03,2.18.08.81.06,1.86.08,3.15.08,14.43,0,21.75-19.97,21.97-59.92.11-10.12.16-18.04.16-23.74l.81-42.96c.11-9.26.19-18.28.24-27.05.05-8.77.08-18.82.08-30.12,0-9.26-1.78-15.67-5.33-19.22s-9.85-5.33-18.9-5.33h-4.36v-11.14Z" style="fill:#f2e863; stroke-width:0px;"/><path d="m725.19,732.05c18.84.65,35.7,1.13,50.56,1.45,14.86.32,27.67.49,38.44.49,11.95,0,24.04-.16,36.26-.49,12.22-.32,24.63-.81,37.23-1.45.11,8.08.43,16.34.97,24.79.54,8.45,1.18,16.93,1.94,25.44l-10.82.97c-.86-12.92-4.85-21.67-11.95-26.25-7.11-4.58-22.45-6.86-46.03-6.86-6.03,0-17.07.16-33.11.48-3.23.11-5.6.16-7.11.16-.22,12.92-.54,28.75-.97,47.49-.43,18.74-.7,30.91-.81,36.5h5.01c6.35,0,14.29.08,23.82.24,9.53.16,15.91.24,19.14.24,15.61,0,25.92-1.45,30.93-4.36s7.73-8.29,8.16-16.15l10.17.97c-.75,6.68-1.32,12.87-1.7,18.58-.38,5.71-.57,10.98-.57,15.83,0,2.8.27,8.83.81,18.09.21,3.34.38,5.87.48,7.59l-10.5.32v-1.29c0-9.15-2.67-15.34-8-18.58s-17.79-4.85-37.39-4.85h-40.38c0,5.28-.06,12.57-.16,21.89-.11,9.32-.16,16.02-.16,20.11,0,7.11.05,14.51.16,22.21.11,7.7.32,16.72.65,27.05,5.38.65,11.49,1.13,18.33,1.45,6.84.32,14.35.48,22.53.48,27.03,0,44.82-2.61,53.38-7.83,8.56-5.22,15.37-15.26,20.43-30.12l11.63,3.88c-3.23,8.94-6.08,17.71-8.56,26.33-2.48,8.62-4.63,17.18-6.46,25.68-16.91-.65-32.63-1.13-47.16-1.45-14.54-.32-27.68-.48-39.41-.48-16.05,0-41.89.59-77.53,1.78l-5.81.16v-10.5c.75.11,1.48.19,2.18.24.7.06,1.75.08,3.15.08,14.32,0,21.59-20.13,21.8-60.41.11-10.12.21-18.04.32-23.74l.65-44.09c.11-9.47.19-18.68.24-27.62.05-8.94.08-18.63.08-29.07,0-9.26-1.72-15.67-5.17-19.22-3.45-3.55-9.59-5.33-18.41-5.33h-1.29v-10.82Z" style="fill:#f2e863; stroke-width:0px;"/><path d="m1069.46,906l46.64-105.96,1.94-4.36c15.38-34.78,23.08-55.34,23.08-61.7,0-.21-.06-.54-.16-.97-.11-.43-.16-.75-.16-.97,6.35.32,12.08.57,17.19.73s9.66.24,13.64.24c3.77,0,8.13-.08,13.08-.24,4.95-.16,10.39-.4,16.31-.73v11.14h-1.94c-9.37,0-15.8,1.62-19.3,4.85s-5.25,8.99-5.25,17.28c0,3.23.21,10.45.65,21.64.43,11.2.97,23.31,1.61,36.34l2.74,45.39.16,4.36c2.37,40.27,4.2,63.05,5.49,68.32.65,3.12,2.64,5.55,5.98,7.27,3.34,1.72,7.7,2.58,13.08,2.58h4.04v11.31c-8.51-.43-16.42-.75-23.73-.97-7.31-.21-13.37-.32-18.19-.32-5.67,0-12.06.11-19.16.32-7.1.22-14.68.54-22.76.97v-11.63c.97,0,2.21.05,3.71.16,1.51.11,2.58.16,3.23.16,8.18,0,13.86-1.45,17.04-4.36,3.17-2.91,4.76-8.18,4.76-15.83,0-3.55-.06-7.05-.16-10.5-.11-3.44-.27-7-.48-10.66l-6.3-138.91-66.22,152.31c-.11.22-.32.7-.65,1.45-5.17,10.66-8.99,22.02-11.47,34.08h-10.66c-1.51-6.68-5.28-16.9-11.31-30.69l-.65-1.45-65.09-147.47c-.65,11.52-1.56,27.35-2.75,47.49-3.02,49.96-4.52,81.24-4.52,93.84v1.62c0,13.68,1.53,21.94,4.6,24.79,3.07,2.85,9.34,4.28,18.82,4.28h3.39v11.31c-7-.43-13.7-.75-20.11-.97-6.41-.21-12.63-.32-18.66-.32-4.31,0-9.67.11-16.07.32-6.41.22-13.27.54-20.59.97v-11.31h4.52c6.14,0,10.71-.75,13.73-2.26,3.01-1.51,5.38-4.14,7.11-7.91,2.04-4.41,4.14-22.29,6.3-53.62.54-8.61,1.02-15.45,1.45-20.51l2.91-39.09v-.48c2.91-38.66,4.36-60.62,4.36-65.9,0-6.78-1.64-11.52-4.93-14.21-3.29-2.69-9.5-4.04-18.66-4.04h-2.58v-11.14c.86,0,2.26.06,4.2.16,12.49.75,21.21,1.13,26.17,1.13,3.77,0,10.93-.32,21.48-.97,3.34-.21,5.87-.32,7.59-.32v.97c0,9.58,18.23,54.81,54.69,135.68l16.78,37.31Z" style="fill:#f2e863; stroke-width:0px;"/><path d="m1325.55,732.05h27.78c14,42.78,27.27,81.84,39.81,117.19,12.54,35.34,22.42,61.91,29.64,79.68,4.31,10.24,8.02,16.54,11.15,18.91,3.12,2.37,7.59,3.56,13.41,3.56h3.23v11.14c-8.4-.43-16.07-.75-23.02-.97-6.95-.21-12.79-.32-17.52-.32-6.03,0-12.65.11-19.87.32-7.22.22-14.86.54-22.94.97v-11.14h3.07c7.64,0,12.87-.89,15.67-2.67,2.8-1.78,4.2-5.04,4.2-9.79,0-1.73-.22-3.64-.65-5.74-.43-2.1-1.13-4.61-2.1-7.53l-15.83-49.53c-4.09,0-9.69-.05-16.8-.16-12.92-.32-21.21-.48-24.87-.48-7.32,0-14.24.03-20.75.08-6.52.06-13.27.19-20.27.4-7.65,19.32-12.87,33.4-15.67,42.25-2.8,8.85-4.2,15.16-4.2,18.94,0,5.29,1.4,8.98,4.2,11.09,2.8,2.11,7.81,3.16,15.02,3.16h4.36v11.14c-7.86-.43-15.21-.75-22.05-.97-6.84-.21-12.95-.32-18.33-.32-4.31,0-9.69.11-16.15.32-6.46.22-13.46.54-21,.97v-10.98c7.64-.21,13.7-1.75,18.17-4.61,4.47-2.86,8.37-7.62,11.71-14.31,6.03-12.61,16.72-37.85,32.06-75.72,15.34-37.88,31.52-79.5,48.54-124.87Zm7.27,30.37l-36.99,96.59c2.04,0,5.01.06,8.88.16,12.17.32,20.46.49,24.87.49,5.38,0,15.13-.16,29.23-.49,3.12-.11,5.49-.16,7.11-.16l-33.11-96.59Z" style="fill:#f2e863; stroke-width:0px;"/></g></svg>