<?xml version="1.0" encoding="UTF-8"?><svg id="a" xmlns="http://www.w3.org/2000/svg" xmlns:xlink="http://www.w3.org/1999/xlink" viewBox="0 0 1536 1024"><defs><filter id="b" x="125.21" y="717.54" width="1281.48" height="185.88" filterUnits="userSpaceOnUse"><feOffset dx="10" dy="10"/><feGaussianBlur result="c" stdDeviation="0"/><feFlood flood-color="#126fc4" flood-opacity="1"/><feComposite in2="c" operator="in"/><feComposite in="SourceGraphic"/></filter></defs><polygon points="791.53 653.6 723.53 785.6 791.53 785.6 715.53 991.6 896.53 742.6 804.53 742.6 896.53 653.6 791.53 653.6" style="fill:#ec9a00;"/><polygon points="776.53 645.6 708.53 777.6 776.53 777.6 700.53 983.6 881.53 734.6 789.53 734.6 881.53 645.6 776.53 645.6" style="fill:#f2e863;"/><g style="filter:url(#b);"><path d="M305.19,885.41l-31.17,5.96-16.4-88.06-.52-.15c-1.76,4.04-5.64,13.19-11.64,27.44-6,14.25-12.07,29.39-18.2,45.44h-24.32c-6.06-16.02-12.21-31.34-18.46-45.96-6.25-14.62-10.06-23.56-11.43-26.82l-.5-.02c-.65,3.13-2.82,13.78-6.52,31.95-3.7,18.17-7.23,36.87-10.6,56.08l-30.22-5.76c6.84-30.47,12.71-57.99,17.63-82.57,4.92-24.58,7.76-38.75,8.54-42.53l31.35-3.32c.91,2.54,4.52,11.82,10.84,27.83,6.31,16.02,13.67,34.31,22.07,54.88h.78c6.71-16.34,13.83-33.85,21.39-52.54,7.55-18.68,11.62-28.74,12.21-30.18l31.93,2.73c.33,2.21,2.69,15.48,7.08,39.79s9.78,52.91,16.16,85.79Z" style="fill:#f9c0d8;"/><path d="M423.94,889.61c-2.34,0-8.82-.03-19.43-.1-10.61-.06-21.16-.1-31.64-.1-9.05,0-17.87.03-26.46.1-8.59.07-14.84.1-18.75.1.06-3.45.15-10.96.24-22.53.1-11.56.15-26.21.15-43.93,0-7.49-.03-17.04-.1-28.63-.07-11.6-.16-23.42-.29-35.48,4.43,0,10.73.02,18.9.05,8.17.03,16.39.05,24.66.05,11.26,0,22.3-.02,33.11-.05,10.81-.03,16.93-.05,18.36-.05v24.12c-1.11,0-5.37-.03-12.79-.1-7.42-.06-14.88-.1-22.36-.1-4.36,0-9.44.02-15.23.05-5.79.03-10.35.05-13.67.05,0,4.9-.03,10.06-.1,15.48-.07,5.42-.1,10.32-.1,14.7,3.38,0,7.7.02,12.94.05,5.24.03,9.55.05,12.94.05,8.4,0,16.26-.03,23.58-.1,7.32-.06,12-.1,14.01-.1v19.43c-1.3,0-6.35-.03-15.14-.1-8.79-.06-16.15-.1-22.07-.1-3.32,0-7.67.02-13.04.05-5.37.03-9.78.05-13.23.05,0,7.62.02,14.15.05,19.58.03,5.44.08,9.88.15,13.33,3.91.07,9.11.11,15.62.15,6.51.03,12.4.05,17.68.05,7.42,0,14.16-.03,20.21-.1,6.05-.06,9.99-.1,11.82-.1v24.22Z" style="fill:#f9c0d8;"/><path d="M561.73,821.74c-.07,4.94-.15,10.45-.24,16.53s-.15,11.36-.15,15.84c0,6.11.05,12.27.15,18.48.1,6.21.15,11.88.15,17.02-.85.21-3.84.48-8.98.79-5.14.32-9.51.48-13.09.48-14.71,0-27.95-1.51-39.7-4.54-11.75-3.03-22.61-8.48-32.57-16.36-6.58-5.14-11.85-11.59-15.82-19.34-3.97-7.75-5.96-16.6-5.96-26.56,0-11,2.73-20.83,8.2-29.49,5.47-8.66,13.28-15.92,23.44-21.78,8.2-4.95,17.89-8.72,29.05-11.33,11.17-2.6,23.49-3.91,36.96-3.91,1.69,0,3.21.02,4.54.05,1.33.03,2.62.05,3.86.05l3.52,27.05h-8.3c-6.71,0-13.8.55-21.29,1.66-7.49,1.11-14.26,2.9-20.31,5.37-8.2,3.32-14.67,8.04-19.38,14.16-4.72,6.12-7.08,12.86-7.08,20.21,0,8.14,1.87,14.98,5.62,20.51,3.74,5.53,8.51,9.86,14.31,12.99,4.56,2.41,9.59,4.25,15.09,5.52,5.5,1.27,11.18,2.04,17.04,2.29,0-1.24-.02-5.63-.05-13.18-.03-7.55-.11-18.39-.24-32.52h31.25Z" style="fill:#f9c0d8;"/><path d="M713.78,881.85l-31.87,10.69c-.67-2.15-2.35-6.87-5.02-14.16-2.67-7.29-5.84-15.53-9.52-24.71h-49.71c-3.8,9.31-7.04,17.61-9.72,24.9-2.68,7.29-4.33,11.95-4.93,13.96l-29.96-10.21c1.76-3.9,8.54-19.41,20.36-46.51,11.82-27.11,23.1-53.09,33.84-77.95h33.11c11.2,26.16,22.69,52.86,34.47,80.1,11.78,27.24,18.1,41.86,18.95,43.88ZM659.78,833.36c-2.48-6.64-5.19-13.95-8.14-21.93-2.95-7.98-5.9-15.81-8.85-23.5h-.39c-2.47,6.33-5.42,14.15-8.83,23.46-3.42,9.31-6.18,16.64-8.3,21.98l-.03.1h34.58l-.04-.1Z" style="fill:#f9c0d8;"/><path d="M849.23,880.72l-29.83,11.62c-2.41-3.52-7.16-9.8-14.25-18.85-7.09-9.05-17.86-23.08-32.3-42.09l.49-1.95c2.15-.45,4.98-1.56,8.5-3.32,3.52-1.76,6.45-3.77,8.79-6.05,2.41-2.41,4.23-4.95,5.47-7.62,1.24-2.67,1.86-6.09,1.86-10.25s-1.03-7.52-3.08-10.64-4.87-5.44-8.45-6.93c-2.93-1.24-5.96-2-9.08-2.29s-6.15-.44-9.08-.44h-5.86c-.07,7.75-.11,15.67-.15,23.78-.03,8.11-.05,15.38-.05,21.83,0,10.61.03,22.22.1,34.81.06,12.6.13,21.7.2,27.29h-32.32c.06-5.14.15-12.71.24-22.71.1-9.99.15-24.76.15-44.29,0-5.21-.02-12.66-.05-22.36-.03-9.7-.15-23.5-.34-41.41,1.89,0,5.81-.06,11.77-.2,5.96-.13,11.51-.2,16.65-.2,9.7,0,18.12.29,25.24.88s13.85,1.95,20.17,4.1c9.05,3,15.77,7.41,20.17,13.23,4.39,5.83,6.59,12.39,6.59,19.68,0,8.33-2.31,15.46-6.93,21.39-4.62,5.92-9.34,10.39-14.16,13.38v.59c6.75,8.53,13.96,17.2,21.62,26.03,7.66,8.82,13.64,16.49,17.92,23Z" style="fill:#f45b69;"/><path d="M995.23,824.28c0,10.42-1.87,20.02-5.62,28.81-3.74,8.79-9.03,16.34-15.87,22.66-6.45,5.99-13.67,10.43-21.68,13.33s-16.57,4.35-25.68,4.35-17.45-1.38-25.39-4.15c-7.94-2.77-15.01-6.92-21.19-12.45-6.97-6.25-12.44-13.87-16.41-22.85-3.97-8.98-5.96-18.91-5.96-29.79,0-10.09,1.64-19.29,4.93-27.59,3.29-8.3,8.28-15.77,14.99-22.41,6.12-6.12,13.35-10.81,21.68-14.06,8.33-3.25,17.38-4.88,27.15-4.88s18.44,1.51,26.61,4.54c8.17,3.03,15.35,7.47,21.53,13.33,6.97,6.58,12.19,14.24,15.67,23,3.48,8.76,5.22,18.15,5.22,28.17ZM962.02,825.3c0-6.57-1.11-13.09-3.32-19.56-2.21-6.47-5.6-11.82-10.16-16.05-2.87-2.73-6.15-4.88-9.86-6.44s-7.85-2.34-12.4-2.34-8.63.8-12.4,2.39c-3.78,1.59-7.26,3.95-10.45,7.07-4.04,4.03-7.18,9.09-9.42,15.17-2.25,6.08-3.37,12.34-3.37,18.78,0,7.09,1.12,13.59,3.37,19.51,2.25,5.92,5.52,10.89,9.81,14.92,2.86,2.73,6.22,4.91,10.06,6.54,3.84,1.63,8.01,2.44,12.5,2.44s8.45-.78,12.26-2.34,7.24-3.8,10.3-6.73c3.97-3.77,7.14-8.62,9.52-14.53,2.38-5.92,3.56-12.19,3.56-18.83Z" style="fill:#f45b69;"/><path d="M1132.53,851.04c0,7.29-2.25,13.77-6.74,19.43-4.5,5.66-10.91,10.03-19.25,13.09-6.78,2.48-14.61,4.17-23.51,5.08-8.89.91-18.65,1.37-29.27,1.37-5.73,0-11.73-.08-17.98-.24-6.26-.16-10.88-.31-13.88-.44.13-10.68.23-21.58.29-32.69.06-11.11.1-23.05.1-35.82,0-13.94-.07-27.57-.2-40.9-.13-13.32-.2-20.34-.2-21.06,1.11,0,4.72-.13,10.84-.39,6.12-.26,12.7-.39,19.73-.39,10.61,0,19.43.29,26.46.88,7.03.59,13.41,1.76,19.14,3.52,7.23,2.22,12.96,5.66,17.19,10.32,4.23,4.66,6.35,10.39,6.35,17.17,0,6.2-1.81,11.83-5.42,16.92-3.61,5.09-8.42,8.84-14.4,11.25v.69c3.79.52,7.33,1.45,10.63,2.78,3.3,1.33,6.25,3.14,8.87,5.42,3.85,2.93,6.69,6.36,8.52,10.3,1.83,3.94,2.74,8.51,2.74,13.72ZM1099.33,847.42c0-2.99-.59-5.6-1.76-7.81-1.17-2.21-2.77-4.23-4.79-6.05-1.76-1.5-4.1-2.73-7.03-3.71s-6.09-1.46-9.47-1.46c-2.6,0-4.75.03-6.45.1-1.69.07-2.73.1-3.12.1l-2.73-12.4c3.45-.13,6.67-.63,9.67-1.52,2.99-.88,5.5-2.04,7.52-3.48,2.15-1.63,3.92-3.64,5.32-6.02,1.4-2.38,2.1-5.3,2.1-8.76,0-2.94-.77-5.65-2.29-8.13-1.53-2.48-3.63-4.44-6.3-5.87-2.28-1.11-4.96-1.93-8.06-2.45-3.09-.52-6.36-.78-9.81-.78-1.76,0-3.56.03-5.42.1-1.86.07-3.11.1-3.76.1-.13,6.58-.21,13.88-.24,21.9-.03,8.02-.05,15.12-.05,21.31s.03,15.2.1,26.45c.06,11.24.1,17.32.1,18.23.91,0,2.29.05,4.15.15s3.96.15,6.3.15c5.08,0,9.98-.28,14.7-.83,4.72-.55,8.64-1.71,11.77-3.47,2.99-1.56,5.34-3.71,7.03-6.45,1.69-2.73,2.54-5.86,2.54-9.38Z" style="fill:#f45b69;"/><path d="M1290.64,824.28c0,10.42-1.87,20.02-5.62,28.81-3.74,8.79-9.03,16.34-15.87,22.66-6.45,5.99-13.67,10.43-21.68,13.33s-16.57,4.35-25.68,4.35-17.45-1.38-25.39-4.15c-7.94-2.77-15.01-6.92-21.19-12.45-6.97-6.25-12.44-13.87-16.41-22.85-3.97-8.98-5.96-18.91-5.96-29.79,0-10.09,1.64-19.29,4.93-27.59,3.29-8.3,8.28-15.77,14.99-22.41,6.12-6.12,13.35-10.81,21.68-14.06,8.33-3.25,17.38-4.88,27.15-4.88s18.44,1.51,26.61,4.54c8.17,3.03,15.35,7.47,21.53,13.33,6.97,6.58,12.19,14.24,15.67,23,3.48,8.76,5.22,18.15,5.22,28.17ZM1261.24,738.88l-12.9,13.82-26.55-19.53h-.29l-26.66,18.85-12.79-13.82,29.59-20.65h19.92l29.69,21.34ZM1257.43,825.3c0-6.57-1.11-13.09-3.32-19.56-2.21-6.47-5.6-11.82-10.16-16.05-2.87-2.73-6.15-4.88-9.86-6.44s-7.85-2.34-12.4-2.34-8.63.8-12.4,2.39c-3.78,1.59-7.26,3.95-10.45,7.07-4.04,4.03-7.18,9.09-9.42,15.17-2.25,6.08-3.37,12.34-3.37,18.78,0,7.09,1.12,13.59,3.37,19.51,2.25,5.92,5.52,10.89,9.81,14.92,2.86,2.73,6.22,4.91,10.06,6.54,3.84,1.63,8.01,2.44,12.5,2.44s8.45-.78,12.26-2.34,7.24-3.8,10.3-6.73c3.97-3.77,7.14-8.62,9.52-14.53,2.38-5.92,3.56-12.19,3.56-18.83Z" style="fill:#f45b69;"/><path d="M1396.69,851.43c0,7.16-1.87,13.33-5.62,18.51-3.74,5.18-8.84,9.46-15.28,12.84-5.66,3-12.65,5.21-20.95,6.64s-16.68,2.15-25.15,2.15c-6.12,0-11.61-.11-16.46-.34-4.85-.23-8.06-.41-9.62-.54l-2.93-26.27c.78.13,3.76.34,8.94.63s9.81.44,13.92.44c3.06,0,6.87-.26,11.43-.78,4.56-.52,8.37-1.24,11.43-2.15,4.1-1.24,6.98-2.82,8.64-4.74,1.66-1.92,2.49-4.28,2.49-7.08,0-3.12-.91-5.75-2.73-7.86-1.82-2.11-4.95-4.31-9.38-6.59-2.73-1.37-6.43-3.09-11.08-5.18-4.66-2.08-8.64-4.17-11.96-6.25-6.38-3.84-10.95-8.17-13.72-12.99-2.77-4.82-4.15-10.16-4.15-16.02,0-5.01,1.03-9.52,3.08-13.53s4.77-7.44,8.15-10.3c5.14-4.69,12.14-8.3,21-10.84,8.85-2.54,19.3-3.81,31.35-3.81,5.73,0,10.66.08,14.79.24,4.13.16,6.72.31,7.76.44l3.32,26.27c-1.63-.06-4.2-.24-7.71-.54s-7.91-.44-13.18-.44c-3.65,0-7.15.26-10.5.78-3.35.52-6.56,1.3-9.62,2.34-2.87.91-5.13,2.28-6.79,4.1-1.66,1.82-2.49,4.04-2.49,6.64,0,2.41.91,4.67,2.73,6.79,1.82,2.12,5.01,4.38,9.57,6.79,2.99,1.5,6.49,3.16,10.5,4.98,4,1.82,7.93,3.84,11.77,6.05,6.18,3.65,10.81,7.91,13.87,12.79,3.06,4.88,4.59,10.48,4.59,16.8Z" style="fill:#f45b69;"/></g></svg>