<?xml version="1.0" encoding="UTF-8"?><svg id="a" xmlns="http://www.w3.org/2000/svg" xmlns:xlink="http://www.w3.org/1999/xlink" viewBox="0 0 1536 1024"><defs><filter id="b" filterUnits="userSpaceOnUse"><feOffset dx="12.12" dy="12.12"/><feGaussianBlur result="c" stdDeviation="0"/><feFlood flood-color="#000" flood-opacity="1"/><feComposite in2="c" operator="in"/><feComposite in="SourceGraphic"/></filter></defs><g style="filter:url(#b);"><path d="m100.32,801.85c4.44,0,6.66-4.2,6.66-12.6v-47.38h33.12v46.65c0,31.1-13.26,46.65-39.79,46.65h-13.33v-33.32h13.33Z" style="fill:#fff; stroke-width:0px;"/><path d="m206.75,835.17c-12.89,0-23.88-4.55-32.99-13.66-9.11-9.11-13.66-20.1-13.66-32.99s4.55-23.88,13.66-32.99,20.1-13.66,32.99-13.66,23.88,4.55,32.99,13.66c9.11,9.11,13.66,20.1,13.66,32.99s-4.55,23.88-13.66,32.99-20.1,13.66-32.99,13.66Zm0-59.98c-3.69,0-6.83,1.3-9.43,3.9-2.6,2.6-3.9,5.74-3.9,9.43s1.3,6.83,3.9,9.43c2.6,2.6,5.74,3.9,9.43,3.9s6.83-1.3,9.43-3.9c2.6-2.6,3.9-5.74,3.9-9.43s-1.3-6.83-3.9-9.43c-2.6-2.6-5.74-3.9-9.43-3.9Z" style="fill:#fff; stroke-width:0px;"/><path d="m353.37,835.17h-33.32c-12.89,0-23.88-4.55-32.99-13.66-9.11-9.11-13.66-20.1-13.66-32.99s4.55-23.88,13.66-32.99,20.1-13.66,32.99-13.66h33.32v33.32h-33.32c-3.69,0-6.83,1.3-9.43,3.9-2.6,2.6-3.9,5.74-3.9,9.43s1.3,6.83,3.9,9.43c2.6,2.6,5.74,3.9,9.43,3.9v-13.33h33.32v46.65Z" style="fill:#fff; stroke-width:0px;"/><path d="m420.01,835.17c-12.89,0-23.88-4.55-32.99-13.66-9.11-9.11-13.66-20.1-13.66-32.99s4.55-23.88,13.66-32.99,20.1-13.66,32.99-13.66,23.88,4.55,32.99,13.66c9.11,9.11,13.66,20.1,13.66,32.99s-4.55,23.88-13.66,32.99-20.1,13.66-32.99,13.66Zm0-59.98c-3.69,0-6.83,1.3-9.43,3.9-2.6,2.6-3.9,5.74-3.9,9.43s1.3,6.83,3.9,9.43c2.6,2.6,5.74,3.9,9.43,3.9s6.83-1.3,9.43-3.9c2.6-2.6,3.9-5.74,3.9-9.43s-1.3-6.83-3.9-9.43c-2.6-2.6-5.74-3.9-9.43-3.9Z" style="fill:#fff; stroke-width:0px;"/><path d="m557.17,741.87c12.88,0,23.88,4.55,32.99,13.66,9.11,9.11,13.66,20.1,13.66,32.99s-4.55,23.88-13.66,32.99-20.1,13.66-32.99,13.66h-36.65v-93.3h36.65Zm0,59.98c3.69,0,6.83-1.3,9.43-3.9,2.6-2.6,3.9-5.74,3.9-9.43s-1.3-6.83-3.9-9.43c-2.6-2.6-5.74-3.9-9.43-3.9h-3.33v26.66h3.33Z" style="fill:#fff; stroke-width:0px;"/><path d="m675.26,741.87l29.92,93.3h-33.32l-13.33-39.99-13.33,39.99h-33.32l29.39-93.3h33.99Z" style="fill:#fff; stroke-width:0px;"/><path d="m778.31,879.14c-6.64-.93-11.09-4.38-13.34-10.35-2.26-5.97-3.78-12.48-4.58-19.51-2.92-20.97-4.38-43.34-4.38-67.1,0-26.02,1.06-46.13,3.19-60.33l.6-5.18c1.33-8.36,6.44-12.87,15.33-13.54,5.18,0,9.62,2.72,13.34,8.16.4.67.86,1.13,1.39,1.39,2.25.67,3.58,2.52,3.98,5.58,5.44,26.15,13.14,51.71,23.1,76.66l1,1.99c1.59-2.12,6.04-11.81,13.34-29.07,3.85-9.03,9.56-21.5,17.12-37.43,2.12-4.25,4.65-6.37,7.57-6.37,2.39,0,4.31,1.46,5.77,4.38.66,2.39,1,4.91,1,7.57l-.2,49.98c0,23.89,1.66,47.79,4.98,71.68v1.59c0,3.19-1.79,5.05-5.38,5.58-1.86,0-3.12-.83-3.78-2.49-.67-1.66-1.13-3.55-1.39-5.67l-.2-1c-3.19-27.08-4.78-54.16-4.78-81.24l.4-27.48h-.6l-16.33,37.04c-2.12,4.91-4.32,9.76-6.57,14.54-3.85,7.96-7.7,11.95-11.55,11.95-2.26,0-4.15-1.19-5.67-3.58-1.53-2.39-2.96-5.18-4.28-8.36-7.3-18.32-13.47-37.04-18.52-56.15,0-.13-.03-.33-.1-.6-.07-.26-.17-.53-.3-.8-.13-.26-.33-.53-.6-.8-.67,7.57-1,15.13-1,22.7l-.2,19.71c0,31.73,2.39,57.35,7.17,76.86.4,1.46.6,2.92.6,4.38,0,4.25-1.43,7.87-4.28,10.85-2.86,2.99-6.41,4.48-10.65,4.48h-1.19Zm-6.57-53.46c.26-.73.4-1.69.4-2.89-.8-11.68-1.2-23.23-1.2-34.65.13-8.49.26-17.16.4-25.98.13-8.83.66-17.62,1.59-26.38v-.6c0-1.86-.93-2.79-2.79-2.79-2.92,0-4.38,16.99-4.38,50.97l-.2,15.13.2,6.17c.26,6.37.66,12.74,1.19,19.12.13,1.99,1,2.99,2.59,2.99,1.19,0,1.92-.36,2.19-1.1Zm1.19,11.95c.66-.73,1-1.62,1-2.69,0-2.92-1.26-4.38-3.78-4.38-2.39,0-3.65,1.33-3.78,3.98,0,1.06.36,2.03,1.09,2.89.73.87,1.69,1.29,2.89,1.29,1.06,0,1.92-.36,2.59-1.1Zm1.69,11.55c.73-.86,1.1-1.76,1.1-2.69,0-2.39-1.33-3.65-3.98-3.78-2.39,0-3.58,1.33-3.58,3.98,0,1.06.36,1.96,1.09,2.69.73.73,1.62,1.1,2.69,1.1s1.96-.43,2.69-1.29Z" style="fill:#f45b69; stroke-width:0px;"/><path d="m955.05,741.87v26.66h-33.32v6.66h33.32v26.66h-33.32v6.66h33.32v26.66h-66.64v-93.3h66.64Z" style="fill:#fff; stroke-width:0px;"/><path d="m1001.7,741.87h46.65v26.66h-33.32c-4.44,0-6.67,1.02-6.67,3.07,0,2.4,2.22,3.6,6.67,3.6h13.33c17.77,0,26.66,9.91,26.66,29.72s-8.89,30.26-26.66,30.26h-46.65v-26.66h33.32c4.44,0,6.66-1.2,6.66-3.6,0-2.04-2.22-3.07-6.66-3.07h-13.33c-17.77,0-26.66-10.09-26.66-30.26s8.89-29.72,26.66-29.72Z" style="fill:#fff; stroke-width:0px;"/><path d="m1089.5,874.05c-6.18-.87-10.32-4.08-12.42-9.64-2.1-5.56-3.52-11.62-4.27-18.17-2.72-19.53-4.08-40.36-4.08-62.49,0-24.23.99-42.96,2.97-56.19l.56-4.82c1.23-7.79,5.99-11.99,14.28-12.61,4.82,0,8.96,2.54,12.42,7.6.37.62.8,1.05,1.3,1.3,2.1.62,3.34,2.35,3.71,5.19,5.07,24.36,12.24,48.15,21.51,71.39l.93,1.85c1.48-1.98,5.62-11,12.42-27.07,3.58-8.41,8.9-20.03,15.95-34.86,1.98-3.96,4.33-5.93,7.05-5.93,2.23,0,4.02,1.36,5.38,4.08.62,2.23.93,4.58.93,7.05l-.19,46.55c0,22.25,1.54,44.51,4.64,66.76v1.48c0,2.97-1.67,4.7-5.01,5.19-1.73,0-2.91-.77-3.52-2.32-.62-1.54-1.05-3.31-1.3-5.29l-.19-.93c-2.97-25.22-4.45-50.44-4.45-75.66l.37-25.59h-.56l-15.21,34.49c-1.98,4.58-4.02,9.09-6.12,13.54-3.59,7.42-7.17,11.13-10.75,11.13-2.1,0-3.87-1.11-5.29-3.34-1.42-2.23-2.75-4.82-3.99-7.79-6.8-17.06-12.55-34.49-17.25-52.29,0-.12-.03-.31-.09-.56-.06-.25-.16-.49-.28-.74-.12-.25-.31-.49-.56-.74-.62,7.05-.93,14.09-.93,21.14l-.19,18.36c0,29.55,2.22,53.41,6.68,71.58.37,1.36.56,2.72.56,4.08,0,3.96-1.33,7.33-3.99,10.11-2.66,2.78-5.97,4.17-9.92,4.17h-1.11Zm-6.12-49.79c.25-.68.37-1.58.37-2.69-.74-10.88-1.11-21.63-1.11-32.27.12-7.91.25-15.98.37-24.2.12-8.22.62-16.41,1.48-24.57v-.56c0-1.73-.87-2.6-2.6-2.6-2.72,0-4.08,15.83-4.08,47.47l-.18,14.09.18,5.75c.25,5.93.62,11.87,1.11,17.8.12,1.85.93,2.78,2.41,2.78,1.11,0,1.79-.34,2.04-1.02Zm1.11,11.13c.62-.68.93-1.51.93-2.5,0-2.72-1.18-4.08-3.52-4.08-2.23,0-3.4,1.24-3.52,3.71,0,.99.34,1.89,1.02,2.69.68.81,1.58,1.21,2.69,1.21.99,0,1.79-.34,2.41-1.02Zm1.58,10.76c.68-.8,1.02-1.64,1.02-2.5,0-2.23-1.24-3.4-3.71-3.52-2.23,0-3.34,1.24-3.34,3.71,0,.99.34,1.83,1.02,2.5.68.68,1.51,1.02,2.5,1.02s1.82-.4,2.5-1.21Z" style="fill:#f2e863; stroke-width:0px;"/><path d="m1226.27,741.87v93.3h-33.32v-93.3h33.32Z" style="fill:#fff; stroke-width:0px;"/><path d="m1292.91,741.87h33.32v33.32h-33.32c-3.69,0-6.83,1.3-9.43,3.9-2.6,2.6-3.9,5.74-3.9,9.43s1.3,6.83,3.9,9.43c2.6,2.6,5.74,3.9,9.43,3.9h33.32v33.32h-33.32c-12.89,0-23.88-4.55-32.99-13.66-9.11-9.11-13.66-20.1-13.66-32.99s4.55-23.88,13.66-32.99,20.1-13.66,32.99-13.66Z" style="fill:#fff; stroke-width:0px;"/><path d="m1412.87,741.87v26.66h-33.32v6.66h33.32v26.66h-33.32v6.66h33.32v26.66h-66.64v-93.3h66.64Z" style="fill:#fff; stroke-width:0px;"/></g></svg>