<?xml version="1.0" encoding="UTF-8"?><svg id="a" xmlns="http://www.w3.org/2000/svg" xmlns:xlink="http://www.w3.org/1999/xlink" viewBox="0 0 1536 1024"><defs><filter id="b" filterUnits="userSpaceOnUse"><feOffset dx="4" dy="4"/><feGaussianBlur result="c" stdDeviation="0"/><feFlood flood-color="#fff" flood-opacity="1"/><feComposite in2="c" operator="in"/><feComposite in="SourceGraphic"/></filter><filter id="d" filterUnits="userSpaceOnUse"><feOffset dx="4" dy="4"/><feGaussianBlur result="e" stdDeviation="0"/><feFlood flood-color="#fff" flood-opacity="1"/><feComposite in2="e" operator="in"/><feComposite in="SourceGraphic"/></filter></defs><g style="filter:url(#b);"><path d="m654.36,577.98c-2.96-3.76-6.83-6.76-11.6-8.98-4.78-2.22-9.38-3.33-13.82-3.33-2.29,0-4.61.2-6.96.61-2.35.4-4.47,1.18-6.35,2.32-1.88,1.14-3.46,2.62-4.74,4.44-1.28,1.82-1.92,4.14-1.92,6.96,0,2.42.5,4.44,1.51,6.05,1.01,1.61,2.49,3.03,4.44,4.24,1.95,1.21,4.27,2.32,6.96,3.33,2.69,1.01,5.71,2.05,9.08,3.13,4.84,1.61,9.88,3.4,15.13,5.35,5.25,1.95,10.02,4.54,14.32,7.77,4.3,3.23,7.87,7.23,10.69,12,2.82,4.78,4.24,10.73,4.24,17.85,0,8.21-1.51,15.3-4.54,21.28-3.03,5.99-7.1,10.93-12.2,14.83-5.11,3.9-10.96,6.79-17.55,8.67-6.59,1.88-13.38,2.82-20.37,2.82-10.22,0-20.11-1.78-29.65-5.35-9.55-3.56-17.48-8.64-23.8-15.23l22.59-23c3.5,4.31,8.1,7.9,13.82,10.79,5.71,2.89,11.4,4.34,17.05,4.34,2.55,0,5.04-.27,7.46-.81,2.42-.54,4.54-1.41,6.35-2.62,1.82-1.21,3.26-2.82,4.34-4.84,1.07-2.02,1.61-4.44,1.61-7.26s-.67-4.97-2.02-6.86c-1.35-1.88-3.26-3.6-5.75-5.14-2.49-1.54-5.58-2.96-9.28-4.24-3.7-1.28-7.9-2.65-12.61-4.14-4.57-1.48-9.05-3.23-13.42-5.25-4.37-2.02-8.27-4.61-11.7-7.77-3.43-3.16-6.19-6.99-8.27-11.5-2.09-4.5-3.13-9.99-3.13-16.44,0-7.93,1.61-14.73,4.84-20.38,3.23-5.65,7.46-10.29,12.71-13.92,5.25-3.63,11.16-6.29,17.75-7.97,6.59-1.68,13.24-2.52,19.97-2.52,8.07,0,16.31,1.48,24.71,4.44,8.4,2.96,15.77,7.33,22.09,13.11l-21.99,23.2Z" style="fill:#44bba4; stroke-width:0px;"/><path d="m731.02,607.84v38.48c0,4.73.91,8.27,2.72,10.63,1.82,2.36,5.07,3.54,9.78,3.54,1.61,0,3.33-.13,5.14-.4,1.82-.27,3.33-.67,4.54-1.21l.4,24.21c-2.29.81-5.18,1.51-8.67,2.12-3.5.61-6.99.91-10.49.91-6.73,0-12.37-.84-16.95-2.53-4.57-1.68-8.24-4.11-10.99-7.28-2.76-3.17-4.74-6.94-5.95-11.33-1.21-4.38-1.82-9.27-1.82-14.66v-42.47h-16.14v-24.61h15.94v-26.43h32.48v26.43h23.6v24.61h-23.6Z" style="fill:#44bba4; stroke-width:0px;"/><path d="m836.32,683.69v-13.92h-.4c-1.21,2.29-2.79,4.44-4.74,6.46-1.95,2.02-4.24,3.77-6.86,5.25-2.62,1.48-5.52,2.69-8.67,3.63-3.16.94-6.49,1.41-9.99,1.41-6.73,0-12.41-1.21-17.05-3.63-4.64-2.42-8.41-5.55-11.3-9.38-2.89-3.83-4.98-8.2-6.25-13.11-1.28-4.91-1.92-9.92-1.92-15.03v-62.13h33.29v54.47c0,2.82.2,5.52.61,8.07.4,2.56,1.18,4.84,2.32,6.86,1.14,2.02,2.65,3.6,4.54,4.74,1.88,1.14,4.37,1.71,7.46,1.71,5.78,0,10.19-2.15,13.21-6.46,3.03-4.3,4.54-9.35,4.54-15.13v-54.27h33.08v100.46h-31.87Z" style="fill:#44bba4; stroke-width:0px;"/><path d="m963.41,615.7c-1.89-2.42-4.44-4.37-7.67-5.85-3.23-1.48-6.52-2.22-9.88-2.22s-6.66.71-9.48,2.12-5.25,3.3-7.26,5.65c-2.02,2.35-3.6,5.08-4.74,8.17-1.14,3.09-1.71,6.39-1.71,9.88s.54,6.79,1.61,9.88c1.07,3.09,2.65,5.82,4.74,8.17,2.08,2.35,4.57,4.21,7.46,5.55,2.89,1.35,6.15,2.02,9.78,2.02,3.36,0,6.69-.64,9.99-1.92,3.29-1.28,5.95-3.13,7.97-5.55l18.36,22.39c-4.17,4.03-9.55,7.2-16.14,9.48-6.59,2.29-13.59,3.43-20.98,3.43-7.94,0-15.34-1.21-22.22-3.63-6.88-2.42-12.85-5.95-17.93-10.59-5.07-4.64-9.07-10.25-11.97-16.84-2.91-6.59-4.36-14.05-4.36-22.39s1.45-15.6,4.36-22.19c2.91-6.59,6.9-12.21,11.97-16.84,5.07-4.64,11.05-8.2,17.93-10.69,6.88-2.49,14.22-3.73,22.02-3.73,3.63,0,7.23.34,10.79,1.01,3.56.67,6.99,1.58,10.29,2.72,3.29,1.14,6.32,2.56,9.08,4.24,2.75,1.68,5.14,3.53,7.16,5.55l-19.16,22.19Z" style="fill:#44bba4; stroke-width:0px;"/><path d="m1103.41,683.69h-40.95l-32.88-48.21h-.61v48.21h-33.29v-152.51h33.29v92.8h.61l32.08-40.75h40.14l-38.73,45.39,40.35,55.07Z" style="fill:#44bba4; stroke-width:0px;"/><path d="m528.59,923.24c-9.28,4.24-19.97,6.35-32.08,6.35-11.03,0-21.22-1.82-30.56-5.45-9.35-3.63-17.45-8.77-24.31-15.43-6.86-6.66-12.24-14.63-16.14-23.91-3.9-9.28-5.85-19.5-5.85-30.66s1.98-21.79,5.95-31.07c3.97-9.28,9.45-17.18,16.44-23.7,6.99-6.52,15.2-11.53,24.61-15.03,9.41-3.5,19.57-5.25,30.46-5.25,10.09,0,20,1.78,29.76,5.35,9.75,3.57,17.65,8.78,23.7,15.63l-23.4,23.4c-3.23-4.44-7.46-7.73-12.71-9.88-5.24-2.15-10.63-3.23-16.14-3.23-6.05,0-11.6,1.11-16.64,3.33-5.04,2.22-9.38,5.28-13.01,9.18-3.63,3.9-6.46,8.51-8.47,13.82-2.02,5.31-3.03,11.13-3.03,17.45s1.01,12.38,3.03,17.75c2.02,5.38,4.81,9.99,8.37,13.82,3.56,3.83,7.83,6.83,12.81,8.98,4.97,2.15,10.42,3.23,16.34,3.23,6.86,0,12.84-1.34,17.95-4.03,5.11-2.69,9.21-6.18,12.31-10.49l24.01,22.59c-6.32,7.26-14.12,13.01-23.4,17.25Z" style="fill:#44bba4; stroke-width:0px;"/><path d="m631.07,925.76v-13.92h-.4c-1.21,2.29-2.79,4.44-4.74,6.46-1.95,2.02-4.24,3.77-6.86,5.25-2.62,1.48-5.52,2.69-8.67,3.63-3.16.94-6.49,1.41-9.99,1.41-6.73,0-12.41-1.21-17.05-3.63-4.64-2.42-8.41-5.55-11.3-9.38-2.89-3.83-4.98-8.2-6.25-13.11-1.28-4.91-1.92-9.92-1.92-15.03v-62.13h33.29v54.47c0,2.82.2,5.52.61,8.07.4,2.56,1.18,4.84,2.32,6.86,1.14,2.02,2.65,3.6,4.54,4.74,1.88,1.14,4.37,1.71,7.46,1.71,5.78,0,10.19-2.15,13.21-6.46,3.03-4.3,4.54-9.35,4.54-15.13v-54.27h33.08v100.46h-31.87Z" style="fill:#44bba4; stroke-width:0px;"/><path d="m747.87,854.96c-2.69-2.55-5.85-4.71-9.48-6.46-3.63-1.75-7.46-2.62-11.5-2.62-3.1,0-5.95.6-8.57,1.82-2.62,1.21-3.93,3.3-3.93,6.25s1.44,4.84,4.34,6.05c2.89,1.21,7.56,2.56,14.02,4.03,3.76.81,7.56,1.95,11.4,3.43,3.83,1.48,7.29,3.43,10.39,5.85,3.09,2.42,5.58,5.38,7.46,8.88,1.88,3.5,2.82,7.67,2.82,12.51,0,6.32-1.28,11.67-3.83,16.04-2.56,4.37-5.89,7.9-9.99,10.59-4.1,2.69-8.71,4.64-13.82,5.85-5.11,1.21-10.22,1.82-15.33,1.82-8.2,0-16.24-1.31-24.11-3.93-7.87-2.62-14.42-6.49-19.67-11.6l18.56-19.57c2.96,3.23,6.59,5.92,10.89,8.07,4.3,2.15,8.88,3.23,13.72,3.23,2.69,0,5.35-.64,7.97-1.92,2.62-1.28,3.93-3.53,3.93-6.76s-1.61-5.38-4.84-6.86c-3.23-1.48-8.27-3.03-15.13-4.64-3.5-.81-6.99-1.88-10.49-3.23-3.5-1.34-6.63-3.16-9.38-5.45-2.76-2.29-5.01-5.11-6.76-8.47-1.75-3.36-2.62-7.39-2.62-12.1,0-6.05,1.28-11.2,3.83-15.43,2.55-4.24,5.85-7.7,9.88-10.39,4.03-2.69,8.5-4.67,13.42-5.95,4.91-1.28,9.78-1.92,14.63-1.92,7.53,0,14.89,1.18,22.09,3.53,7.19,2.35,13.28,5.88,18.26,10.59l-18.16,18.76Z" style="fill:#44bba4; stroke-width:0px;"/><path d="m819.88,849.91v38.48c0,4.73.91,8.27,2.72,10.63,1.82,2.36,5.07,3.54,9.78,3.54,1.61,0,3.33-.13,5.14-.4,1.82-.27,3.33-.67,4.54-1.21l.4,24.21c-2.29.81-5.18,1.51-8.67,2.12-3.5.61-6.99.91-10.49.91-6.73,0-12.38-.84-16.95-2.53-4.57-1.68-8.24-4.11-10.99-7.28-2.76-3.17-4.74-6.94-5.95-11.33-1.21-4.38-1.82-9.27-1.82-14.66v-42.47h-16.14v-24.61h15.94v-26.43h32.48v26.43h23.6v24.61h-23.6Z" style="fill:#44bba4; stroke-width:0px;"/><path d="m965.53,875.13c0,8.21-1.48,15.63-4.44,22.29-2.96,6.66-6.99,12.31-12.1,16.95-5.11,4.64-11.03,8.24-17.75,10.79-6.73,2.55-13.92,3.83-21.58,3.83s-14.69-1.28-21.48-3.83c-6.79-2.55-12.71-6.15-17.75-10.79-5.04-4.64-9.05-10.29-12-16.95-2.96-6.66-4.44-14.09-4.44-22.29s1.48-15.6,4.44-22.19c2.96-6.59,6.96-12.17,12-16.74,5.04-4.57,10.96-8.07,17.75-10.49,6.79-2.42,13.95-3.63,21.48-3.63s14.86,1.21,21.58,3.63c6.72,2.42,12.64,5.92,17.75,10.49,5.11,4.57,9.14,10.16,12.1,16.74,2.96,6.59,4.44,13.99,4.44,22.19Zm-31.87,0c0-3.23-.54-6.39-1.61-9.48-1.08-3.09-2.62-5.82-4.64-8.17-2.02-2.35-4.51-4.27-7.46-5.75-2.96-1.48-6.39-2.22-10.29-2.22s-7.33.74-10.29,2.22c-2.96,1.48-5.42,3.4-7.36,5.75-1.95,2.35-3.43,5.08-4.44,8.17-1.01,3.09-1.51,6.25-1.51,9.48s.5,6.39,1.51,9.48c1.01,3.1,2.52,5.88,4.54,8.37,2.02,2.49,4.5,4.47,7.46,5.95,2.96,1.48,6.39,2.22,10.29,2.22s7.33-.74,10.29-2.22c2.96-1.48,5.45-3.46,7.46-5.95,2.02-2.49,3.53-5.28,4.54-8.37,1.01-3.09,1.51-6.25,1.51-9.48Z" style="fill:#44bba4; stroke-width:0px;"/><path d="m1114.81,925.76v-54.87c0-2.82-.2-5.55-.6-8.17-.4-2.62-1.14-4.87-2.22-6.76-1.08-1.88-2.52-3.39-4.34-4.54-1.82-1.14-4.21-1.71-7.16-1.71s-5.28.61-7.36,1.82c-2.09,1.21-3.83,2.82-5.25,4.84-1.41,2.02-2.46,4.34-3.13,6.96-.67,2.62-1.01,5.35-1.01,8.17v54.27h-33.08v-57.29c0-5.78-1.14-10.35-3.43-13.72-2.29-3.36-5.92-5.04-10.89-5.04-5.25,0-9.31,2.09-12.21,6.25-2.89,4.17-4.34,9.28-4.34,15.33v54.47h-33.29v-100.46h32.08v13.92h.4c1.21-2.15,2.72-4.24,4.54-6.25,1.82-2.02,4-3.8,6.56-5.35,2.55-1.54,5.41-2.79,8.57-3.73,3.16-.94,6.62-1.41,10.39-1.41,7.26,0,13.42,1.48,18.46,4.44,5.04,2.96,8.98,7.2,11.8,12.71,3.36-5.25,7.67-9.41,12.91-12.51,5.25-3.09,11.63-4.64,19.16-4.64,6.86,0,12.61,1.25,17.25,3.73,4.64,2.49,8.37,5.72,11.2,9.68,2.82,3.97,4.87,8.41,6.15,13.31,1.28,4.91,1.92,9.72,1.92,14.42v62.13h-33.08Z" style="fill:#44bba4; stroke-width:0px;"/><path d="m1232.01,854.96c-2.69-2.55-5.85-4.71-9.48-6.46-3.63-1.75-7.46-2.62-11.5-2.62-3.1,0-5.95.6-8.57,1.82-2.62,1.21-3.93,3.3-3.93,6.25s1.44,4.84,4.34,6.05c2.89,1.21,7.56,2.56,14.02,4.03,3.76.81,7.56,1.95,11.4,3.43,3.83,1.48,7.29,3.43,10.39,5.85,3.09,2.42,5.58,5.38,7.46,8.88,1.88,3.5,2.82,7.67,2.82,12.51,0,6.32-1.28,11.67-3.83,16.04-2.56,4.37-5.88,7.9-9.99,10.59-4.1,2.69-8.71,4.64-13.82,5.85-5.11,1.21-10.22,1.82-15.33,1.82-8.21,0-16.24-1.31-24.11-3.93s-14.42-6.49-19.67-11.6l18.56-19.57c2.96,3.23,6.59,5.92,10.89,8.07,4.3,2.15,8.88,3.23,13.72,3.23,2.69,0,5.35-.64,7.97-1.92,2.62-1.28,3.93-3.53,3.93-6.76s-1.61-5.38-4.84-6.86c-3.23-1.48-8.27-3.03-15.13-4.64-3.5-.81-6.99-1.88-10.49-3.23-3.5-1.34-6.63-3.16-9.38-5.45-2.76-2.29-5.01-5.11-6.76-8.47-1.75-3.36-2.62-7.39-2.62-12.1,0-6.05,1.28-11.2,3.83-15.43,2.55-4.24,5.85-7.7,9.88-10.39,4.04-2.69,8.5-4.67,13.42-5.95,4.91-1.28,9.78-1.92,14.63-1.92,7.53,0,14.89,1.18,22.09,3.53,7.19,2.35,13.28,5.88,18.26,10.59l-18.16,18.76Z" style="fill:#44bba4; stroke-width:0px;"/></g><g style="filter:url(#d);"><path d="m820.58,754.29c-1.58,6.02-4.1,11.18-7.55,15.5-3.45,4.31-7.5,7.68-12.14,10.1-4.64,2.42-9.68,3.92-15.1,4.5-5.43.58-10.95.13-16.57-1.35-5.53-1.45-10.53-3.77-15.02-6.95-4.49-3.18-8.14-6.96-10.94-11.33-2.81-4.38-4.65-9.29-5.54-14.74-.89-5.45-.54-11.19,1.04-17.2,1.58-6.02,4.09-11.16,7.53-15.42,3.44-4.26,7.45-7.59,12.03-9.97,4.58-2.38,9.59-3.81,15.04-4.28,5.45-.47,10.93.02,16.46,1.47,5.62,1.48,10.67,3.75,15.13,6.82,4.47,3.07,8.13,6.78,11,11.11,2.87,4.34,4.75,9.21,5.65,14.61.9,5.4.56,11.11-1.02,17.13Zm-23.38-6.14c.62-2.37.83-4.79.64-7.27-.2-2.48-.8-4.77-1.83-6.89-1.03-2.11-2.48-4-4.37-5.65-1.89-1.65-4.26-2.86-7.12-3.61-2.86-.75-5.52-.87-7.97-.35-2.46.52-4.63,1.45-6.51,2.8-1.88,1.35-3.49,3.06-4.83,5.14-1.34,2.08-2.31,4.29-2.94,6.66-.62,2.37-.86,4.78-.72,7.25.14,2.46.72,4.8,1.72,7.01,1,2.21,2.44,4.15,4.33,5.8,1.88,1.66,4.26,2.86,7.12,3.61,2.86.75,5.52.87,7.97.35,2.45-.52,4.66-1.49,6.62-2.93,1.96-1.44,3.61-3.19,4.94-5.27,1.34-2.07,2.31-4.3,2.94-6.66Z" style="fill:#f45b69; stroke-width:0px;"/><path d="m874.61,808.17l10.57-40.25c.54-2.07.89-4.09,1.04-6.05.15-1.96.01-3.77-.4-5.4-.42-1.64-1.23-3.06-2.44-4.28-1.21-1.21-2.9-2.11-5.07-2.68-2.17-.57-4.18-.65-6.03-.24-1.85.41-3.51,1.21-4.98,2.41-1.48,1.19-2.74,2.68-3.78,4.46-1.05,1.78-1.84,3.71-2.39,5.78l-10.49,39.95-24.41-6.41,19.34-73.69,23.53,6.18-2.68,10.21.3.08c1.3-1.34,2.87-2.59,4.7-3.75,1.83-1.15,3.85-2.02,6.06-2.6,2.21-.58,4.54-.92,6.99-1.01,2.45-.09,4.96.19,7.52.87,4.93,1.29,8.89,3.28,11.88,5.96,2.99,2.68,5.17,5.71,6.55,9.08,1.38,3.37,2.06,7,2.04,10.9-.02,3.9-.51,7.67-1.47,11.32l-11.96,45.57-24.42-6.41Z" style="fill:#f45b69; stroke-width:0px;"/></g></svg>