<?xml version="1.0" encoding="UTF-8"?><svg id="a" xmlns="http://www.w3.org/2000/svg" viewBox="0 0 1536 1024"><path d="m109.62,785.74c0,12.04.13,16.65,1.02,22.28h-27.53c.9-5.63,1.15-10.76,1.15-21.9v-66.33c0-8.45-.26-12.68-1.02-18.7,5.25.26,8.84.38,18.7.38h37.01c11.27,0,15.49-.13,21.51-.9v24.33c-5.63-.64-10.63-.9-21.38-.9h-29.45v21h24.07c9.99,0,14.85-.26,20.49-.9v23.69c-5.63-.64-10.76-.9-20.49-.9h-24.07v18.82Z" style="fill:#3a7ca5; stroke-width:0px;"/><path d="m199.38,701.48c-.77,5.25-1.02,9.6-1.02,18.95v68.64c0,8.84.26,13.57,1.02,18.95h-28.17c.77-4.99,1.02-10.37,1.02-18.95v-68.64c0-9.6-.26-13.32-1.02-18.95h28.17Z" style="fill:#3a7ca5; stroke-width:0px;"/><path d="m234.2,808.02c-8.84,0-14.09.13-18.95.38.77-4.48,1.02-10.12,1.02-18.7v-67.61c0-8.96-.26-14.47-1.02-20.62h27.92c-.9,6.66-1.02,10.24-1.02,20.23v63.51h30.99c10.88,0,15.24-.13,21.26-.9v24.59c-4.74-.64-11.01-.9-21.26-.9h-38.93Z" style="fill:#3a7ca5; stroke-width:0px;"/><path d="m383.38,808.92c-5.51-.64-10.12-.9-21.13-.9h-40.34c-9.73,0-13.32.13-18.82.38.77-5.12,1.02-9.86,1.02-18.7v-69.92c0-7.94-.26-12.42-1.02-18.7,5.25.26,8.84.38,18.82.38h40.85c8.71,0,13.06-.26,19.08-.9v23.95c-5.89-.64-10.5-.9-19.08-.9h-33.29v18.82h27.66c8.45,0,11.52-.13,19.21-.9v23.69c-6.02-.64-10.37-.9-19.21-.9h-27.66v21.51h33.04c9.73,0,15.37-.26,20.87-.9v23.95Z" style="fill:#3a7ca5; stroke-width:0px;"/><path d="m424.6,701.48c-.77,5.25-1.02,9.6-1.02,18.95v68.64c0,8.84.26,13.57,1.02,18.95h-28.17c.77-4.99,1.02-10.37,1.02-18.95v-68.64c0-9.6-.26-13.32-1.02-18.95h28.17Z" style="fill:#3a7ca5; stroke-width:0px;"/><path d="m505.14,808.02c-.77-4.1-2.31-9.35-6.27-19.98-4.1-11.14-5.63-14.09-8.84-16.9-2.69-2.43-5.89-3.46-9.99-3.46h-13.06v21c0,8.71.26,13.45,1.02,19.34h-27.53c.77-5.89,1.02-9.73,1.02-19.21v-68.89c0-7.94-.26-12.68-1.02-18.82,5.63.26,10.37.38,19.08.38h33.29c20.74,0,32.78,10.76,32.78,29.2,0,9.09-2.56,16.26-7.56,21-3.2,2.95-5.89,4.35-12.17,6.4,6.53,2.05,9.48,4.99,13.57,14.09,1.92,4.1,3.71,8.45,9.48,22.28,1.41,3.59,2.95,6.79,6.15,13.57h-29.96Zm-18.18-62.23c7.56,0,12.17-4.61,12.17-11.91s-4.1-10.88-12.04-10.88h-20.1v22.79h19.98Z" style="fill:#3a7ca5; stroke-width:0px;"/><path d="m618.33,808.02c-1.02-6.15-1.79-9.48-3.07-13.83l-3.46-10.88h-36.5l-3.46,10.88c-1.67,5.12-2.56,9.09-3.2,13.83h-29.96c1.92-3.84,3.07-6.92,6.15-15.62l27.66-77.09c2.3-6.27,3.46-10.12,4.1-13.83h33.42c.9,3.71,1.79,7.04,4.35,13.83l27.79,77.09c2.43,6.79,4.48,12.04,6.15,15.62h-29.96Zm-24.97-84.64l-11.91,38.42h24.07l-12.16-38.42Z" style="fill:#3a7ca5; stroke-width:0px;"/><path d="m700.92,719.92c0-8.71-.26-12.93-1.15-18.82,5.12.26,8.32.38,18.95.38h26.76c15.75,0,28.43,4.35,37.01,12.68,9.35,9.22,14.09,22.67,14.09,39.7s-5.12,31.63-14.85,41.36c-8.58,8.45-20.74,12.81-35.98,12.81h-27.02c-9.86,0-13.45.13-18.82.38.77-5.63,1.02-9.86,1.02-18.7v-69.79Zm42.51,65.69c8.32,0,14.21-2.18,18.82-6.79,5.25-5.38,8.07-13.96,8.07-24.59s-2.43-18.82-7.43-23.82c-4.48-4.48-10.63-6.53-19.85-6.53h-16.77v61.72h17.16Z" style="fill:#3a7ca5; stroke-width:0px;"/><path d="m889.66,808.92c-5.51-.64-10.12-.9-21.13-.9h-40.34c-9.73,0-13.32.13-18.82.38.77-5.12,1.02-9.86,1.02-18.7v-69.92c0-7.94-.26-12.42-1.02-18.7,5.25.26,8.84.38,18.82.38h40.85c8.71,0,13.06-.26,19.08-.9v23.95c-5.89-.64-10.5-.9-19.08-.9h-33.29v18.82h27.66c8.45,0,11.52-.13,19.21-.9v23.69c-6.02-.64-10.37-.9-19.21-.9h-27.66v21.51h33.04c9.73,0,15.37-.26,20.87-.9v23.95Z" style="fill:#3a7ca5; stroke-width:0px;"/><path d="m971.86,785.74c0,12.04.13,16.65,1.02,22.28h-27.53c.9-5.63,1.15-10.76,1.15-21.9v-66.33c0-8.45-.26-12.68-1.02-18.7,5.25.26,8.84.38,18.7.38h37.01c11.27,0,15.49-.13,21.51-.9v24.33c-5.63-.64-10.63-.9-21.38-.9h-29.45v21h24.07c9.99,0,14.85-.26,20.49-.9v23.69c-5.63-.64-10.76-.9-20.49-.9h-24.07v18.82Z" style="fill:#3a7ca5; stroke-width:0px;"/><path d="m1099.65,808.02c-1.02-6.15-1.79-9.48-3.07-13.83l-3.46-10.88h-36.49l-3.46,10.88c-1.66,5.12-2.56,9.09-3.2,13.83h-29.96c1.92-3.84,3.07-6.92,6.15-15.62l27.66-77.09c2.3-6.27,3.46-10.12,4.1-13.83h33.42c.9,3.71,1.79,7.04,4.35,13.83l27.79,77.09c2.43,6.79,4.48,12.04,6.15,15.62h-29.96Zm-24.97-84.64l-11.91,38.42h24.07l-12.17-38.42Z" style="fill:#3a7ca5; stroke-width:0px;"/><path d="m1182.88,788.69c0,7.68.26,13.32,1.02,19.34h-28.3c.77-6.02,1.02-11.27,1.02-19.34v-64.54h-15.11c-8.07,0-10.24.13-19.34.9v-24.46c4.23.51,11.27.9,19.08.9h56.09c8.96,0,14.09-.26,19.98-.9v24.46c-5.76-.64-10.76-.9-19.98-.9h-14.47v64.54Z" style="fill:#3a7ca5; stroke-width:0px;"/><path d="m1327.32,754.24c0,33.81-20.62,56.21-51.73,56.21s-51.6-21.9-51.6-55.83,20.23-55.45,51.73-55.45,51.6,21.51,51.6,55.06Zm-26.63.26c0-20.74-9.48-33.29-24.97-33.29s-25.23,12.68-25.23,33.29,9.6,33.81,25.23,33.81,24.97-12.81,24.97-33.81Z" style="fill:#3a7ca5; stroke-width:0px;"/><path d="m1363.55,773.32c.51,4.61,1.41,6.92,3.33,9.48,3.07,3.84,8.45,6.02,14.98,6.02,9.86,0,15.75-4.35,15.75-11.52,0-3.97-2.05-7.43-5.38-8.96-2.69-1.28-5.89-2.18-19.21-5.25-11.78-2.56-15.88-4.1-20.62-7.43-8.07-5.63-12.42-14.21-12.42-24.59,0-19.72,15.88-32.14,41.1-32.14,16.26,0,28.68,4.99,35.6,14.6,3.2,4.23,4.74,8.07,6.4,15.37l-27.15,2.95c-1.54-8.32-6.15-11.78-15.88-11.78-7.81,0-13.57,4.23-13.57,10.12,0,3.59,1.92,6.27,6.02,8.2q2.56,1.15,17.67,4.23c9.73,2.05,15.88,4.23,20.74,7.3,9.22,5.76,13.83,14.34,13.83,26.12,0,9.6-3.07,17.8-8.96,23.56-7.43,7.17-18.7,10.88-33.68,10.88-10.88,0-21.64-2.3-28.56-6.27-6.4-3.59-11.14-9.09-13.83-16.39-1.28-3.07-1.92-6.02-2.82-11.91l26.63-2.56Z" style="fill:#3a7ca5; stroke-width:0px;"/><path d="m109.62,809.12c0,12.04.13,16.65,1.02,22.28h-27.53c.9-5.63,1.15-10.76,1.15-21.9v-66.33c0-8.45-.26-12.68-1.02-18.7,5.25.26,8.84.38,18.7.38h37.01c11.27,0,15.49-.13,21.51-.9v24.33c-5.63-.64-10.63-.9-21.38-.9h-29.45v21h24.07c9.99,0,14.85-.26,20.49-.9v23.69c-5.63-.64-10.76-.9-20.49-.9h-24.07v18.82Z" style="fill:#3a7ca5; stroke-width:0px;"/><path d="m199.38,724.86c-.77,5.25-1.02,9.6-1.02,18.95v68.64c0,8.84.26,13.57,1.02,18.95h-28.17c.77-4.99,1.02-10.37,1.02-18.95v-68.64c0-9.6-.26-13.32-1.02-18.95h28.17Z" style="fill:#3a7ca5; stroke-width:0px;"/><path d="m234.2,831.4c-8.84,0-14.09.13-18.95.38.77-4.48,1.02-10.12,1.02-18.7v-67.61c0-8.96-.26-14.47-1.02-20.62h27.92c-.9,6.66-1.02,10.24-1.02,20.23v63.51h30.99c10.88,0,15.24-.13,21.26-.9v24.59c-4.74-.64-11.01-.9-21.26-.9h-38.93Z" style="fill:#3a7ca5; stroke-width:0px;"/><path d="m383.38,832.29c-5.51-.64-10.12-.9-21.13-.9h-40.34c-9.73,0-13.32.13-18.82.38.77-5.12,1.02-9.86,1.02-18.7v-69.92c0-7.94-.26-12.42-1.02-18.7,5.25.26,8.84.38,18.82.38h40.85c8.71,0,13.06-.26,19.08-.9v23.95c-5.89-.64-10.5-.9-19.08-.9h-33.29v18.82h27.66c8.45,0,11.52-.13,19.21-.9v23.69c-6.02-.64-10.37-.9-19.21-.9h-27.66v21.51h33.04c9.73,0,15.37-.26,20.87-.9v23.95Z" style="fill:#3a7ca5; stroke-width:0px;"/><path d="m424.6,724.86c-.77,5.25-1.02,9.6-1.02,18.95v68.64c0,8.84.26,13.57,1.02,18.95h-28.17c.77-4.99,1.02-10.37,1.02-18.95v-68.64c0-9.6-.26-13.32-1.02-18.95h28.17Z" style="fill:#3a7ca5; stroke-width:0px;"/><path d="m505.14,831.4c-.77-4.1-2.31-9.35-6.27-19.98-4.1-11.14-5.63-14.09-8.84-16.9-2.69-2.43-5.89-3.46-9.99-3.46h-13.06v21c0,8.71.26,13.45,1.02,19.34h-27.53c.77-5.89,1.02-9.73,1.02-19.21v-68.89c0-7.94-.26-12.68-1.02-18.82,5.63.26,10.37.38,19.08.38h33.29c20.74,0,32.78,10.76,32.78,29.2,0,9.09-2.56,16.26-7.56,21-3.2,2.95-5.89,4.35-12.17,6.4,6.53,2.05,9.48,4.99,13.57,14.09,1.92,4.1,3.71,8.45,9.48,22.28,1.41,3.59,2.95,6.79,6.15,13.57h-29.96Zm-18.18-62.23c7.56,0,12.17-4.61,12.17-11.91s-4.1-10.88-12.04-10.88h-20.1v22.79h19.98Z" style="fill:#3a7ca5; stroke-width:0px;"/><path d="m618.33,831.4c-1.02-6.15-1.79-9.48-3.07-13.83l-3.46-10.88h-36.5l-3.46,10.88c-1.67,5.12-2.56,9.09-3.2,13.83h-29.96c1.92-3.84,3.07-6.92,6.15-15.62l27.66-77.09c2.3-6.27,3.46-10.12,4.1-13.83h33.42c.9,3.71,1.79,7.04,4.35,13.83l27.79,77.09c2.43,6.79,4.48,12.04,6.15,15.62h-29.96Zm-24.97-84.64l-11.91,38.42h24.07l-12.16-38.42Z" style="fill:#3a7ca5; stroke-width:0px;"/><path d="m700.92,743.3c0-8.71-.26-12.93-1.15-18.82,5.12.26,8.32.38,18.95.38h26.76c15.75,0,28.43,4.35,37.01,12.68,9.35,9.22,14.09,22.67,14.09,39.7s-5.12,31.63-14.85,41.36c-8.58,8.45-20.74,12.81-35.98,12.81h-27.02c-9.86,0-13.45.13-18.82.38.77-5.63,1.02-9.86,1.02-18.7v-69.79Zm42.51,65.69c8.32,0,14.21-2.18,18.82-6.79,5.25-5.38,8.07-13.96,8.07-24.59s-2.43-18.82-7.43-23.82c-4.48-4.48-10.63-6.53-19.85-6.53h-16.77v61.72h17.16Z" style="fill:#3a7ca5; stroke-width:0px;"/><path d="m889.66,832.29c-5.51-.64-10.12-.9-21.13-.9h-40.34c-9.73,0-13.32.13-18.82.38.77-5.12,1.02-9.86,1.02-18.7v-69.92c0-7.94-.26-12.42-1.02-18.7,5.25.26,8.84.38,18.82.38h40.85c8.71,0,13.06-.26,19.08-.9v23.95c-5.89-.64-10.5-.9-19.08-.9h-33.29v18.82h27.66c8.45,0,11.52-.13,19.21-.9v23.69c-6.02-.64-10.37-.9-19.21-.9h-27.66v21.51h33.04c9.73,0,15.37-.26,20.87-.9v23.95Z" style="fill:#3a7ca5; stroke-width:0px;"/><path d="m971.86,809.12c0,12.04.13,16.65,1.02,22.28h-27.53c.9-5.63,1.15-10.76,1.15-21.9v-66.33c0-8.45-.26-12.68-1.02-18.7,5.25.26,8.84.38,18.7.38h37.01c11.27,0,15.49-.13,21.51-.9v24.33c-5.63-.64-10.63-.9-21.38-.9h-29.45v21h24.07c9.99,0,14.85-.26,20.49-.9v23.69c-5.63-.64-10.76-.9-20.49-.9h-24.07v18.82Z" style="fill:#3a7ca5; stroke-width:0px;"/><path d="m1099.65,831.4c-1.02-6.15-1.79-9.48-3.07-13.83l-3.46-10.88h-36.49l-3.46,10.88c-1.66,5.12-2.56,9.09-3.2,13.83h-29.96c1.92-3.84,3.07-6.92,6.15-15.62l27.66-77.09c2.3-6.27,3.46-10.12,4.1-13.83h33.42c.9,3.71,1.79,7.04,4.35,13.83l27.79,77.09c2.43,6.79,4.48,12.04,6.15,15.62h-29.96Zm-24.97-84.64l-11.91,38.42h24.07l-12.17-38.42Z" style="fill:#3a7ca5; stroke-width:0px;"/><path d="m1182.88,812.06c0,7.68.26,13.32,1.02,19.34h-28.3c.77-6.02,1.02-11.27,1.02-19.34v-64.54h-15.11c-8.07,0-10.24.13-19.34.9v-24.46c4.23.51,11.27.9,19.08.9h56.09c8.96,0,14.09-.26,19.98-.9v24.46c-5.76-.64-10.76-.9-19.98-.9h-14.47v64.54Z" style="fill:#3a7ca5; stroke-width:0px;"/><path d="m1327.32,777.61c0,33.81-20.62,56.21-51.73,56.21s-51.6-21.9-51.6-55.83,20.23-55.45,51.73-55.45,51.6,21.51,51.6,55.06Zm-26.63.26c0-20.74-9.48-33.29-24.97-33.29s-25.23,12.68-25.23,33.29,9.6,33.81,25.23,33.81,24.97-12.81,24.97-33.81Z" style="fill:#3a7ca5; stroke-width:0px;"/><path d="m1363.55,796.69c.51,4.61,1.41,6.92,3.33,9.48,3.07,3.84,8.45,6.02,14.98,6.02,9.86,0,15.75-4.35,15.75-11.52,0-3.97-2.05-7.43-5.38-8.96-2.69-1.28-5.89-2.18-19.21-5.25-11.78-2.56-15.88-4.1-20.62-7.43-8.07-5.63-12.42-14.21-12.42-24.59,0-19.72,15.88-32.14,41.1-32.14,16.26,0,28.68,4.99,35.6,14.6,3.2,4.23,4.74,8.07,6.4,15.37l-27.15,2.95c-1.54-8.32-6.15-11.78-15.88-11.78-7.81,0-13.57,4.23-13.57,10.12,0,3.59,1.92,6.27,6.02,8.2q2.56,1.15,17.67,4.23c9.73,2.05,15.88,4.23,20.74,7.3,9.22,5.76,13.83,14.34,13.83,26.12,0,9.6-3.07,17.8-8.96,23.56-7.43,7.17-18.7,10.88-33.68,10.88-10.88,0-21.64-2.3-28.56-6.27-6.4-3.59-11.14-9.09-13.83-16.39-1.28-3.07-1.92-6.02-2.82-11.91l26.63-2.56Z" style="fill:#3a7ca5; stroke-width:0px;"/><path d="m109.62,809.12c0,12.04.13,16.65,1.02,22.28h-27.53c.9-5.63,1.15-10.76,1.15-21.9v-66.33c0-8.45-.26-12.68-1.02-18.7,5.25.26,8.84.38,18.7.38h37.01c11.27,0,15.49-.13,21.51-.9v24.33c-5.63-.64-10.63-.9-21.38-.9h-29.45v21h24.07c9.99,0,14.85-.26,20.49-.9v23.69c-5.63-.64-10.76-.9-20.49-.9h-24.07v18.82Z" style="fill:#3a7ca5; stroke-width:0px;"/><path d="m199.38,724.86c-.77,5.25-1.02,9.6-1.02,18.95v68.64c0,8.84.26,13.57,1.02,18.95h-28.17c.77-4.99,1.02-10.37,1.02-18.95v-68.64c0-9.6-.26-13.32-1.02-18.95h28.17Z" style="fill:#3a7ca5; stroke-width:0px;"/><path d="m234.2,831.4c-8.84,0-14.09.13-18.95.38.77-4.48,1.02-10.12,1.02-18.7v-67.61c0-8.96-.26-14.47-1.02-20.62h27.92c-.9,6.66-1.02,10.24-1.02,20.23v63.51h30.99c10.88,0,15.24-.13,21.26-.9v24.59c-4.74-.64-11.01-.9-21.26-.9h-38.93Z" style="fill:#3a7ca5; stroke-width:0px;"/><path d="m383.38,832.29c-5.51-.64-10.12-.9-21.13-.9h-40.34c-9.73,0-13.32.13-18.82.38.77-5.12,1.02-9.86,1.02-18.7v-69.92c0-7.94-.26-12.42-1.02-18.7,5.25.26,8.84.38,18.82.38h40.85c8.71,0,13.06-.26,19.08-.9v23.95c-5.89-.64-10.5-.9-19.08-.9h-33.29v18.82h27.66c8.45,0,11.52-.13,19.21-.9v23.69c-6.02-.64-10.37-.9-19.21-.9h-27.66v21.51h33.04c9.73,0,15.37-.26,20.87-.9v23.95Z" style="fill:#3a7ca5; stroke-width:0px;"/><path d="m424.6,724.86c-.77,5.25-1.02,9.6-1.02,18.95v68.64c0,8.84.26,13.57,1.02,18.95h-28.17c.77-4.99,1.02-10.37,1.02-18.95v-68.64c0-9.6-.26-13.32-1.02-18.95h28.17Z" style="fill:#3a7ca5; stroke-width:0px;"/><path d="m505.14,831.4c-.77-4.1-2.31-9.35-6.27-19.98-4.1-11.14-5.63-14.09-8.84-16.9-2.69-2.43-5.89-3.46-9.99-3.46h-13.06v21c0,8.71.26,13.45,1.02,19.34h-27.53c.77-5.89,1.02-9.73,1.02-19.21v-68.89c0-7.94-.26-12.68-1.02-18.82,5.63.26,10.37.38,19.08.38h33.29c20.74,0,32.78,10.76,32.78,29.2,0,9.09-2.56,16.26-7.56,21-3.2,2.95-5.89,4.35-12.17,6.4,6.53,2.05,9.48,4.99,13.57,14.09,1.92,4.1,3.71,8.45,9.48,22.28,1.41,3.59,2.95,6.79,6.15,13.57h-29.96Zm-18.18-62.23c7.56,0,12.17-4.61,12.17-11.91s-4.1-10.88-12.04-10.88h-20.1v22.79h19.98Z" style="fill:#3a7ca5; stroke-width:0px;"/><path d="m618.33,831.4c-1.02-6.15-1.79-9.48-3.07-13.83l-3.46-10.88h-36.5l-3.46,10.88c-1.67,5.12-2.56,9.09-3.2,13.83h-29.96c1.92-3.84,3.07-6.92,6.15-15.62l27.66-77.09c2.3-6.27,3.46-10.12,4.1-13.83h33.42c.9,3.71,1.79,7.04,4.35,13.83l27.79,77.09c2.43,6.79,4.48,12.04,6.15,15.62h-29.96Zm-24.97-84.64l-11.91,38.42h24.07l-12.16-38.42Z" style="fill:#3a7ca5; stroke-width:0px;"/><path d="m700.92,743.3c0-8.71-.26-12.93-1.15-18.82,5.12.26,8.32.38,18.95.38h26.76c15.75,0,28.43,4.35,37.01,12.68,9.35,9.22,14.09,22.67,14.09,39.7s-5.12,31.63-14.85,41.36c-8.58,8.45-20.74,12.81-35.98,12.81h-27.02c-9.86,0-13.45.13-18.82.38.77-5.63,1.02-9.86,1.02-18.7v-69.79Zm42.51,65.69c8.32,0,14.21-2.18,18.82-6.79,5.25-5.38,8.07-13.96,8.07-24.59s-2.43-18.82-7.43-23.82c-4.48-4.48-10.63-6.53-19.85-6.53h-16.77v61.72h17.16Z" style="fill:#3a7ca5; stroke-width:0px;"/><path d="m889.66,832.29c-5.51-.64-10.12-.9-21.13-.9h-40.34c-9.73,0-13.32.13-18.82.38.77-5.12,1.02-9.86,1.02-18.7v-69.92c0-7.94-.26-12.42-1.02-18.7,5.25.26,8.84.38,18.82.38h40.85c8.71,0,13.06-.26,19.08-.9v23.95c-5.89-.64-10.5-.9-19.08-.9h-33.29v18.82h27.66c8.45,0,11.52-.13,19.21-.9v23.69c-6.02-.64-10.37-.9-19.21-.9h-27.66v21.51h33.04c9.73,0,15.37-.26,20.87-.9v23.95Z" style="fill:#3a7ca5; stroke-width:0px;"/><path d="m971.86,809.12c0,12.04.13,16.65,1.02,22.28h-27.53c.9-5.63,1.15-10.76,1.15-21.9v-66.33c0-8.45-.26-12.68-1.02-18.7,5.25.26,8.84.38,18.7.38h37.01c11.27,0,15.49-.13,21.51-.9v24.33c-5.63-.64-10.63-.9-21.38-.9h-29.45v21h24.07c9.99,0,14.85-.26,20.49-.9v23.69c-5.63-.64-10.76-.9-20.49-.9h-24.07v18.82Z" style="fill:#3a7ca5; stroke-width:0px;"/><path d="m1099.65,831.4c-1.02-6.15-1.79-9.48-3.07-13.83l-3.46-10.88h-36.49l-3.46,10.88c-1.66,5.12-2.56,9.09-3.2,13.83h-29.96c1.92-3.84,3.07-6.92,6.15-15.62l27.66-77.09c2.3-6.27,3.46-10.12,4.1-13.83h33.42c.9,3.71,1.79,7.04,4.35,13.83l27.79,77.09c2.43,6.79,4.48,12.04,6.15,15.62h-29.96Zm-24.97-84.64l-11.91,38.42h24.07l-12.17-38.42Z" style="fill:#3a7ca5; stroke-width:0px;"/><path d="m1182.88,812.06c0,7.68.26,13.32,1.02,19.34h-28.3c.77-6.02,1.02-11.27,1.02-19.34v-64.54h-15.11c-8.07,0-10.24.13-19.34.9v-24.46c4.23.51,11.27.9,19.08.9h56.09c8.96,0,14.09-.26,19.98-.9v24.46c-5.76-.64-10.76-.9-19.98-.9h-14.47v64.54Z" style="fill:#3a7ca5; stroke-width:0px;"/><path d="m1327.32,777.61c0,33.81-20.62,56.21-51.73,56.21s-51.6-21.9-51.6-55.83,20.23-55.45,51.73-55.45,51.6,21.51,51.6,55.06Zm-26.63.26c0-20.74-9.48-33.29-24.97-33.29s-25.23,12.68-25.23,33.29,9.6,33.81,25.23,33.81,24.97-12.81,24.97-33.81Z" style="fill:#3a7ca5; stroke-width:0px;"/><path d="m1363.55,796.69c.51,4.61,1.41,6.92,3.33,9.48,3.07,3.84,8.45,6.02,14.98,6.02,9.86,0,15.75-4.35,15.75-11.52,0-3.97-2.05-7.43-5.38-8.96-2.69-1.28-5.89-2.18-19.21-5.25-11.78-2.56-15.88-4.1-20.62-7.43-8.07-5.63-12.42-14.21-12.42-24.59,0-19.72,15.88-32.14,41.1-32.14,16.26,0,28.68,4.99,35.6,14.6,3.2,4.23,4.74,8.07,6.4,15.37l-27.15,2.95c-1.54-8.32-6.15-11.78-15.88-11.78-7.81,0-13.57,4.23-13.57,10.12,0,3.59,1.92,6.27,6.02,8.2q2.56,1.15,17.67,4.23c9.73,2.05,15.88,4.23,20.74,7.3,9.22,5.76,13.83,14.34,13.83,26.12,0,9.6-3.07,17.8-8.96,23.56-7.43,7.17-18.7,10.88-33.68,10.88-10.88,0-21.64-2.3-28.56-6.27-6.4-3.59-11.14-9.09-13.83-16.39-1.28-3.07-1.92-6.02-2.82-11.91l26.63-2.56Z" style="fill:#3a7ca5; stroke-width:0px;"/><path d="m109.62,832.49c0,12.04.13,16.65,1.02,22.28h-27.53c.9-5.63,1.15-10.76,1.15-21.9v-66.33c0-8.45-.26-12.68-1.02-18.7,5.25.26,8.84.38,18.7.38h37.01c11.27,0,15.49-.13,21.51-.9v24.33c-5.63-.64-10.63-.9-21.38-.9h-29.45v21h24.07c9.99,0,14.85-.26,20.49-.9v23.69c-5.63-.64-10.76-.9-20.49-.9h-24.07v18.82Z" style="fill:#3a7ca5; stroke-width:0px;"/><path d="m199.38,748.23c-.77,5.25-1.02,9.6-1.02,18.95v68.64c0,8.84.26,13.57,1.02,18.95h-28.17c.77-4.99,1.02-10.37,1.02-18.95v-68.64c0-9.6-.26-13.32-1.02-18.95h28.17Z" style="fill:#3a7ca5; stroke-width:0px;"/><path d="m234.2,854.77c-8.84,0-14.09.13-18.95.38.77-4.48,1.02-10.12,1.02-18.7v-67.61c0-8.96-.26-14.47-1.02-20.62h27.92c-.9,6.66-1.02,10.24-1.02,20.23v63.51h30.99c10.88,0,15.24-.13,21.26-.9v24.59c-4.74-.64-11.01-.9-21.26-.9h-38.93Z" style="fill:#3a7ca5; stroke-width:0px;"/><path d="m383.38,855.67c-5.51-.64-10.12-.9-21.13-.9h-40.34c-9.73,0-13.32.13-18.82.38.77-5.12,1.02-9.86,1.02-18.7v-69.92c0-7.94-.26-12.42-1.02-18.7,5.25.26,8.84.38,18.82.38h40.85c8.71,0,13.06-.26,19.08-.9v23.95c-5.89-.64-10.5-.9-19.08-.9h-33.29v18.82h27.66c8.45,0,11.52-.13,19.21-.9v23.69c-6.02-.64-10.37-.9-19.21-.9h-27.66v21.51h33.04c9.73,0,15.37-.26,20.87-.9v23.95Z" style="fill:#3a7ca5; stroke-width:0px;"/><path d="m424.6,748.23c-.77,5.25-1.02,9.6-1.02,18.95v68.64c0,8.84.26,13.57,1.02,18.95h-28.17c.77-4.99,1.02-10.37,1.02-18.95v-68.64c0-9.6-.26-13.32-1.02-18.95h28.17Z" style="fill:#3a7ca5; stroke-width:0px;"/><path d="m505.14,854.77c-.77-4.1-2.31-9.35-6.27-19.98-4.1-11.14-5.63-14.09-8.84-16.9-2.69-2.43-5.89-3.46-9.99-3.46h-13.06v21c0,8.71.26,13.45,1.02,19.34h-27.53c.77-5.89,1.02-9.73,1.02-19.21v-68.89c0-7.94-.26-12.68-1.02-18.82,5.63.26,10.37.38,19.08.38h33.29c20.74,0,32.78,10.76,32.78,29.2,0,9.09-2.56,16.26-7.56,21-3.2,2.95-5.89,4.35-12.17,6.4,6.53,2.05,9.48,4.99,13.57,14.09,1.92,4.1,3.71,8.45,9.48,22.28,1.41,3.59,2.95,6.79,6.15,13.57h-29.96Zm-18.18-62.23c7.56,0,12.17-4.61,12.17-11.91s-4.1-10.88-12.04-10.88h-20.1v22.79h19.98Z" style="fill:#3a7ca5; stroke-width:0px;"/><path d="m618.33,854.77c-1.02-6.15-1.79-9.48-3.07-13.83l-3.46-10.88h-36.5l-3.46,10.88c-1.67,5.12-2.56,9.09-3.2,13.83h-29.96c1.92-3.84,3.07-6.92,6.15-15.62l27.66-77.09c2.3-6.27,3.46-10.12,4.1-13.83h33.42c.9,3.71,1.79,7.04,4.35,13.83l27.79,77.09c2.43,6.79,4.48,12.04,6.15,15.62h-29.96Zm-24.97-84.64l-11.91,38.42h24.07l-12.16-38.42Z" style="fill:#3a7ca5; stroke-width:0px;"/><path d="m700.92,766.67c0-8.71-.26-12.93-1.15-18.82,5.12.26,8.32.38,18.95.38h26.76c15.75,0,28.43,4.35,37.01,12.68,9.35,9.22,14.09,22.67,14.09,39.7s-5.12,31.63-14.85,41.36c-8.58,8.45-20.74,12.81-35.98,12.81h-27.02c-9.86,0-13.45.13-18.82.38.77-5.63,1.02-9.86,1.02-18.7v-69.79Zm42.51,65.69c8.32,0,14.21-2.18,18.82-6.79,5.25-5.38,8.07-13.96,8.07-24.59s-2.43-18.82-7.43-23.82c-4.48-4.48-10.63-6.53-19.85-6.53h-16.77v61.72h17.16Z" style="fill:#3a7ca5; stroke-width:0px;"/><path d="m889.66,855.67c-5.51-.64-10.12-.9-21.13-.9h-40.34c-9.73,0-13.32.13-18.82.38.77-5.12,1.02-9.86,1.02-18.7v-69.92c0-7.94-.26-12.42-1.02-18.7,5.25.26,8.84.38,18.82.38h40.85c8.71,0,13.06-.26,19.08-.9v23.95c-5.89-.64-10.5-.9-19.08-.9h-33.29v18.82h27.66c8.45,0,11.52-.13,19.21-.9v23.69c-6.02-.64-10.37-.9-19.21-.9h-27.66v21.51h33.04c9.73,0,15.37-.26,20.87-.9v23.95Z" style="fill:#3a7ca5; stroke-width:0px;"/><path d="m971.86,832.49c0,12.04.13,16.65,1.02,22.28h-27.53c.9-5.63,1.15-10.76,1.15-21.9v-66.33c0-8.45-.26-12.68-1.02-18.7,5.25.26,8.84.38,18.7.38h37.01c11.27,0,15.49-.13,21.51-.9v24.33c-5.63-.64-10.63-.9-21.38-.9h-29.45v21h24.07c9.99,0,14.85-.26,20.49-.9v23.69c-5.63-.64-10.76-.9-20.49-.9h-24.07v18.82Z" style="fill:#3a7ca5; stroke-width:0px;"/><path d="m1099.65,854.77c-1.02-6.15-1.79-9.48-3.07-13.83l-3.46-10.88h-36.49l-3.46,10.88c-1.66,5.12-2.56,9.09-3.2,13.83h-29.96c1.92-3.84,3.07-6.92,6.15-15.62l27.66-77.09c2.3-6.27,3.46-10.12,4.1-13.83h33.42c.9,3.71,1.79,7.04,4.35,13.83l27.79,77.09c2.43,6.79,4.48,12.04,6.15,15.62h-29.96Zm-24.97-84.64l-11.91,38.42h24.07l-12.17-38.42Z" style="fill:#3a7ca5; stroke-width:0px;"/><path d="m1182.88,835.44c0,7.68.26,13.32,1.02,19.34h-28.3c.77-6.02,1.02-11.27,1.02-19.34v-64.54h-15.11c-8.07,0-10.24.13-19.34.9v-24.46c4.23.51,11.27.9,19.08.9h56.09c8.96,0,14.09-.26,19.98-.9v24.46c-5.76-.64-10.76-.9-19.98-.9h-14.47v64.54Z" style="fill:#3a7ca5; stroke-width:0px;"/><path d="m1327.32,800.99c0,33.81-20.62,56.21-51.73,56.21s-51.6-21.9-51.6-55.83,20.23-55.45,51.73-55.45,51.6,21.51,51.6,55.06Zm-26.63.26c0-20.74-9.48-33.29-24.97-33.29s-25.23,12.68-25.23,33.29,9.6,33.81,25.23,33.81,24.97-12.81,24.97-33.81Z" style="fill:#3a7ca5; stroke-width:0px;"/><path d="m1363.55,820.07c.51,4.61,1.41,6.92,3.33,9.48,3.07,3.84,8.45,6.02,14.98,6.02,9.86,0,15.75-4.35,15.75-11.52,0-3.97-2.05-7.43-5.38-8.96-2.69-1.28-5.89-2.18-19.21-5.25-11.78-2.56-15.88-4.1-20.62-7.43-8.07-5.63-12.42-14.21-12.42-24.59,0-19.72,15.88-32.14,41.1-32.14,16.26,0,28.68,4.99,35.6,14.6,3.2,4.23,4.74,8.07,6.4,15.37l-27.15,2.95c-1.54-8.32-6.15-11.78-15.88-11.78-7.81,0-13.57,4.23-13.57,10.12,0,3.59,1.92,6.27,6.02,8.2q2.56,1.15,17.67,4.23c9.73,2.05,15.88,4.23,20.74,7.3,9.22,5.76,13.83,14.34,13.83,26.12,0,9.6-3.07,17.8-8.96,23.56-7.43,7.17-18.7,10.88-33.68,10.88-10.88,0-21.64-2.3-28.56-6.27-6.4-3.59-11.14-9.09-13.83-16.39-1.28-3.07-1.92-6.02-2.82-11.91l26.63-2.56Z" style="fill:#3a7ca5; stroke-width:0px;"/><path d="m109.62,809.12c0,12.04.13,16.65,1.02,22.28h-27.53c.9-5.63,1.15-10.76,1.15-21.9v-66.33c0-8.45-.26-12.68-1.02-18.7,5.25.26,8.84.38,18.7.38h37.01c11.27,0,15.49-.13,21.51-.9v24.33c-5.63-.64-10.63-.9-21.38-.9h-29.45v21h24.07c9.99,0,14.85-.26,20.49-.9v23.69c-5.63-.64-10.76-.9-20.49-.9h-24.07v18.82Z" style="fill:#f45b69; stroke-width:0px;"/><path d="m199.38,724.86c-.77,5.25-1.02,9.6-1.02,18.95v68.64c0,8.84.26,13.57,1.02,18.95h-28.17c.77-4.99,1.02-10.37,1.02-18.95v-68.64c0-9.6-.26-13.32-1.02-18.95h28.17Z" style="fill:#f45b69; stroke-width:0px;"/><path d="m234.2,831.4c-8.84,0-14.09.13-18.95.38.77-4.48,1.02-10.12,1.02-18.7v-67.61c0-8.96-.26-14.47-1.02-20.62h27.92c-.9,6.66-1.02,10.24-1.02,20.23v63.51h30.99c10.88,0,15.24-.13,21.26-.9v24.59c-4.74-.64-11.01-.9-21.26-.9h-38.93Z" style="fill:#f45b69; stroke-width:0px;"/><path d="m383.38,832.29c-5.51-.64-10.12-.9-21.13-.9h-40.34c-9.73,0-13.32.13-18.82.38.77-5.12,1.02-9.86,1.02-18.7v-69.92c0-7.94-.26-12.42-1.02-18.7,5.25.26,8.84.38,18.82.38h40.85c8.71,0,13.06-.26,19.08-.9v23.95c-5.89-.64-10.5-.9-19.08-.9h-33.29v18.82h27.66c8.45,0,11.52-.13,19.21-.9v23.69c-6.02-.64-10.37-.9-19.21-.9h-27.66v21.51h33.04c9.73,0,15.37-.26,20.87-.9v23.95Z" style="fill:#f45b69; stroke-width:0px;"/><path d="m424.6,724.86c-.77,5.25-1.02,9.6-1.02,18.95v68.64c0,8.84.26,13.57,1.02,18.95h-28.17c.77-4.99,1.02-10.37,1.02-18.95v-68.64c0-9.6-.26-13.32-1.02-18.95h28.17Z" style="fill:#f45b69; stroke-width:0px;"/><path d="m505.14,831.4c-.77-4.1-2.31-9.35-6.27-19.98-4.1-11.14-5.63-14.09-8.84-16.9-2.69-2.43-5.89-3.46-9.99-3.46h-13.06v21c0,8.71.26,13.45,1.02,19.34h-27.53c.77-5.89,1.02-9.73,1.02-19.21v-68.89c0-7.94-.26-12.68-1.02-18.82,5.63.26,10.37.38,19.08.38h33.29c20.74,0,32.78,10.76,32.78,29.2,0,9.09-2.56,16.26-7.56,21-3.2,2.95-5.89,4.35-12.17,6.4,6.53,2.05,9.48,4.99,13.57,14.09,1.92,4.1,3.71,8.45,9.48,22.28,1.41,3.59,2.95,6.79,6.15,13.57h-29.96Zm-18.18-62.23c7.56,0,12.17-4.61,12.17-11.91s-4.1-10.88-12.04-10.88h-20.1v22.79h19.98Z" style="fill:#f45b69; stroke-width:0px;"/><path d="m618.33,831.4c-1.02-6.15-1.79-9.48-3.07-13.83l-3.46-10.88h-36.5l-3.46,10.88c-1.67,5.12-2.56,9.09-3.2,13.83h-29.96c1.92-3.84,3.07-6.92,6.15-15.62l27.66-77.09c2.3-6.27,3.46-10.12,4.1-13.83h33.42c.9,3.71,1.79,7.04,4.35,13.83l27.79,77.09c2.43,6.79,4.48,12.04,6.15,15.62h-29.96Zm-24.97-84.64l-11.91,38.42h24.07l-12.16-38.42Z" style="fill:#f45b69; stroke-width:0px;"/><path d="m700.92,743.3c0-8.71-.26-12.93-1.15-18.82,5.12.26,8.32.38,18.95.38h26.76c15.75,0,28.43,4.35,37.01,12.68,9.35,9.22,14.09,22.67,14.09,39.7s-5.12,31.63-14.85,41.36c-8.58,8.45-20.74,12.81-35.98,12.81h-27.02c-9.86,0-13.45.13-18.82.38.77-5.63,1.02-9.86,1.02-18.7v-69.79Zm42.51,65.69c8.32,0,14.21-2.18,18.82-6.79,5.25-5.38,8.07-13.96,8.07-24.59s-2.43-18.82-7.43-23.82c-4.48-4.48-10.63-6.53-19.85-6.53h-16.77v61.72h17.16Z" style="fill:#f45b69; stroke-width:0px;"/><path d="m889.66,832.29c-5.51-.64-10.12-.9-21.13-.9h-40.34c-9.73,0-13.32.13-18.82.38.77-5.12,1.02-9.86,1.02-18.7v-69.92c0-7.94-.26-12.42-1.02-18.7,5.25.26,8.84.38,18.82.38h40.85c8.71,0,13.06-.26,19.08-.9v23.95c-5.89-.64-10.5-.9-19.08-.9h-33.29v18.82h27.66c8.45,0,11.52-.13,19.21-.9v23.69c-6.02-.64-10.37-.9-19.21-.9h-27.66v21.51h33.04c9.73,0,15.37-.26,20.87-.9v23.95Z" style="fill:#f45b69; stroke-width:0px;"/><path d="m971.86,809.12c0,12.04.13,16.65,1.02,22.28h-27.53c.9-5.63,1.15-10.76,1.15-21.9v-66.33c0-8.45-.26-12.68-1.02-18.7,5.25.26,8.84.38,18.7.38h37.01c11.27,0,15.49-.13,21.51-.9v24.33c-5.63-.64-10.63-.9-21.38-.9h-29.45v21h24.07c9.99,0,14.85-.26,20.49-.9v23.69c-5.63-.64-10.76-.9-20.49-.9h-24.07v18.82Z" style="fill:#f45b69; stroke-width:0px;"/><path d="m1099.65,831.4c-1.02-6.15-1.79-9.48-3.07-13.83l-3.46-10.88h-36.49l-3.46,10.88c-1.66,5.12-2.56,9.09-3.2,13.83h-29.96c1.92-3.84,3.07-6.92,6.15-15.62l27.66-77.09c2.3-6.27,3.46-10.12,4.1-13.83h33.42c.9,3.71,1.79,7.04,4.35,13.83l27.79,77.09c2.43,6.79,4.48,12.04,6.15,15.62h-29.96Zm-24.97-84.64l-11.91,38.42h24.07l-12.17-38.42Z" style="fill:#f45b69; stroke-width:0px;"/><path d="m1182.88,812.06c0,7.68.26,13.32,1.02,19.34h-28.3c.77-6.02,1.02-11.27,1.02-19.34v-64.54h-15.11c-8.07,0-10.24.13-19.34.9v-24.46c4.23.51,11.27.9,19.08.9h56.09c8.96,0,14.09-.26,19.98-.9v24.46c-5.76-.64-10.76-.9-19.98-.9h-14.47v64.54Z" style="fill:#f45b69; stroke-width:0px;"/><path d="m1327.32,777.61c0,33.81-20.62,56.21-51.73,56.21s-51.6-21.9-51.6-55.83,20.23-55.45,51.73-55.45,51.6,21.51,51.6,55.06Zm-26.63.26c0-20.74-9.48-33.29-24.97-33.29s-25.23,12.68-25.23,33.29,9.6,33.81,25.23,33.81,24.97-12.81,24.97-33.81Z" style="fill:#f45b69; stroke-width:0px;"/><path d="m1363.55,796.69c.51,4.61,1.41,6.92,3.33,9.48,3.07,3.84,8.45,6.02,14.98,6.02,9.86,0,15.75-4.35,15.75-11.52,0-3.97-2.05-7.43-5.38-8.96-2.69-1.28-5.89-2.18-19.21-5.25-11.78-2.56-15.88-4.1-20.62-7.43-8.07-5.63-12.42-14.21-12.42-24.59,0-19.72,15.88-32.14,41.1-32.14,16.26,0,28.68,4.99,35.6,14.6,3.2,4.23,4.74,8.07,6.4,15.37l-27.15,2.95c-1.54-8.32-6.15-11.78-15.88-11.78-7.81,0-13.57,4.23-13.57,10.12,0,3.59,1.92,6.27,6.02,8.2q2.56,1.15,17.67,4.23c9.73,2.05,15.88,4.23,20.74,7.3,9.22,5.76,13.83,14.34,13.83,26.12,0,9.6-3.07,17.8-8.96,23.56-7.43,7.17-18.7,10.88-33.68,10.88-10.88,0-21.64-2.3-28.56-6.27-6.4-3.59-11.14-9.09-13.83-16.39-1.28-3.07-1.92-6.02-2.82-11.91l26.63-2.56Z" style="fill:#f45b69; stroke-width:0px;"/><path d="m109.62,832.49c0,12.04.13,16.65,1.02,22.28h-27.53c.9-5.63,1.15-10.76,1.15-21.9v-66.33c0-8.45-.26-12.68-1.02-18.7,5.25.26,8.84.38,18.7.38h37.01c11.27,0,15.49-.13,21.51-.9v24.33c-5.63-.64-10.63-.9-21.38-.9h-29.45v21h24.07c9.99,0,14.85-.26,20.49-.9v23.69c-5.63-.64-10.76-.9-20.49-.9h-24.07v18.82Z" style="fill:#f45b69; stroke-width:0px;"/><path d="m199.38,748.23c-.77,5.25-1.02,9.6-1.02,18.95v68.64c0,8.84.26,13.57,1.02,18.95h-28.17c.77-4.99,1.02-10.37,1.02-18.95v-68.64c0-9.6-.26-13.32-1.02-18.95h28.17Z" style="fill:#f45b69; stroke-width:0px;"/><path d="m234.2,854.77c-8.84,0-14.09.13-18.95.38.77-4.48,1.02-10.12,1.02-18.7v-67.61c0-8.96-.26-14.47-1.02-20.62h27.92c-.9,6.66-1.02,10.24-1.02,20.23v63.51h30.99c10.88,0,15.24-.13,21.26-.9v24.59c-4.74-.64-11.01-.9-21.26-.9h-38.93Z" style="fill:#f45b69; stroke-width:0px;"/><path d="m383.38,855.67c-5.51-.64-10.12-.9-21.13-.9h-40.34c-9.73,0-13.32.13-18.82.38.77-5.12,1.02-9.86,1.02-18.7v-69.92c0-7.94-.26-12.42-1.02-18.7,5.25.26,8.84.38,18.82.38h40.85c8.71,0,13.06-.26,19.08-.9v23.95c-5.89-.64-10.5-.9-19.08-.9h-33.29v18.82h27.66c8.45,0,11.52-.13,19.21-.9v23.69c-6.02-.64-10.37-.9-19.21-.9h-27.66v21.51h33.04c9.73,0,15.37-.26,20.87-.9v23.95Z" style="fill:#f45b69; stroke-width:0px;"/><path d="m424.6,748.23c-.77,5.25-1.02,9.6-1.02,18.95v68.64c0,8.84.26,13.57,1.02,18.95h-28.17c.77-4.99,1.02-10.37,1.02-18.95v-68.64c0-9.6-.26-13.32-1.02-18.95h28.17Z" style="fill:#f45b69; stroke-width:0px;"/><path d="m505.14,854.77c-.77-4.1-2.31-9.35-6.27-19.98-4.1-11.14-5.63-14.09-8.84-16.9-2.69-2.43-5.89-3.46-9.99-3.46h-13.06v21c0,8.71.26,13.45,1.02,19.34h-27.53c.77-5.89,1.02-9.73,1.02-19.21v-68.89c0-7.94-.26-12.68-1.02-18.82,5.63.26,10.37.38,19.08.38h33.29c20.74,0,32.78,10.76,32.78,29.2,0,9.09-2.56,16.26-7.56,21-3.2,2.95-5.89,4.35-12.17,6.4,6.53,2.05,9.48,4.99,13.57,14.09,1.92,4.1,3.71,8.45,9.48,22.28,1.41,3.59,2.95,6.79,6.15,13.57h-29.96Zm-18.18-62.23c7.56,0,12.17-4.61,12.17-11.91s-4.1-10.88-12.04-10.88h-20.1v22.79h19.98Z" style="fill:#f45b69; stroke-width:0px;"/><path d="m618.33,854.77c-1.02-6.15-1.79-9.48-3.07-13.83l-3.46-10.88h-36.5l-3.46,10.88c-1.67,5.12-2.56,9.09-3.2,13.83h-29.96c1.92-3.84,3.07-6.92,6.15-15.62l27.66-77.09c2.3-6.27,3.46-10.12,4.1-13.83h33.42c.9,3.71,1.79,7.04,4.35,13.83l27.79,77.09c2.43,6.79,4.48,12.04,6.15,15.62h-29.96Zm-24.97-84.64l-11.91,38.42h24.07l-12.16-38.42Z" style="fill:#f45b69; stroke-width:0px;"/><path d="m700.92,766.67c0-8.71-.26-12.93-1.15-18.82,5.12.26,8.32.38,18.95.38h26.76c15.75,0,28.43,4.35,37.01,12.68,9.35,9.22,14.09,22.67,14.09,39.7s-5.12,31.63-14.85,41.36c-8.58,8.45-20.74,12.81-35.98,12.81h-27.02c-9.86,0-13.45.13-18.82.38.77-5.63,1.02-9.86,1.02-18.7v-69.79Zm42.51,65.69c8.32,0,14.21-2.18,18.82-6.79,5.25-5.38,8.07-13.96,8.07-24.59s-2.43-18.82-7.43-23.82c-4.48-4.48-10.63-6.53-19.85-6.53h-16.77v61.72h17.16Z" style="fill:#f45b69; stroke-width:0px;"/><path d="m889.66,855.67c-5.51-.64-10.12-.9-21.13-.9h-40.34c-9.73,0-13.32.13-18.82.38.77-5.12,1.02-9.86,1.02-18.7v-69.92c0-7.94-.26-12.42-1.02-18.7,5.25.26,8.84.38,18.82.38h40.85c8.71,0,13.06-.26,19.08-.9v23.95c-5.89-.64-10.5-.9-19.08-.9h-33.29v18.82h27.66c8.45,0,11.52-.13,19.21-.9v23.69c-6.02-.64-10.37-.9-19.21-.9h-27.66v21.51h33.04c9.73,0,15.37-.26,20.87-.9v23.95Z" style="fill:#f45b69; stroke-width:0px;"/><path d="m971.86,832.49c0,12.04.13,16.65,1.02,22.28h-27.53c.9-5.63,1.15-10.76,1.15-21.9v-66.33c0-8.45-.26-12.68-1.02-18.7,5.25.26,8.84.38,18.7.38h37.01c11.27,0,15.49-.13,21.51-.9v24.33c-5.63-.64-10.63-.9-21.38-.9h-29.45v21h24.07c9.99,0,14.85-.26,20.49-.9v23.69c-5.63-.64-10.76-.9-20.49-.9h-24.07v18.82Z" style="fill:#f45b69; stroke-width:0px;"/><path d="m1099.65,854.77c-1.02-6.15-1.79-9.48-3.07-13.83l-3.46-10.88h-36.49l-3.46,10.88c-1.66,5.12-2.56,9.09-3.2,13.83h-29.96c1.92-3.84,3.07-6.92,6.15-15.62l27.66-77.09c2.3-6.27,3.46-10.12,4.1-13.83h33.42c.9,3.71,1.79,7.04,4.35,13.83l27.79,77.09c2.43,6.79,4.48,12.04,6.15,15.62h-29.96Zm-24.97-84.64l-11.91,38.42h24.07l-12.17-38.42Z" style="fill:#f45b69; stroke-width:0px;"/><path d="m1182.88,835.44c0,7.68.26,13.32,1.02,19.34h-28.3c.77-6.02,1.02-11.27,1.02-19.34v-64.54h-15.11c-8.07,0-10.24.13-19.34.9v-24.46c4.23.51,11.27.9,19.08.9h56.09c8.96,0,14.09-.26,19.98-.9v24.46c-5.76-.64-10.76-.9-19.98-.9h-14.47v64.54Z" style="fill:#f45b69; stroke-width:0px;"/><path d="m1327.32,800.99c0,33.81-20.62,56.21-51.73,56.21s-51.6-21.9-51.6-55.83,20.23-55.45,51.73-55.45,51.6,21.51,51.6,55.06Zm-26.63.26c0-20.74-9.48-33.29-24.97-33.29s-25.23,12.68-25.23,33.29,9.6,33.81,25.23,33.81,24.97-12.81,24.97-33.81Z" style="fill:#f45b69; stroke-width:0px;"/><path d="m1363.55,820.07c.51,4.61,1.41,6.92,3.33,9.48,3.07,3.84,8.45,6.02,14.98,6.02,9.86,0,15.75-4.35,15.75-11.52,0-3.97-2.05-7.43-5.38-8.96-2.69-1.28-5.89-2.18-19.21-5.25-11.78-2.56-15.88-4.1-20.62-7.43-8.07-5.63-12.42-14.21-12.42-24.59,0-19.72,15.88-32.14,41.1-32.14,16.26,0,28.68,4.99,35.6,14.6,3.2,4.23,4.74,8.07,6.4,15.37l-27.15,2.95c-1.54-8.32-6.15-11.78-15.88-11.78-7.81,0-13.57,4.23-13.57,10.12,0,3.59,1.92,6.27,6.02,8.2q2.56,1.15,17.67,4.23c9.73,2.05,15.88,4.23,20.74,7.3,9.22,5.76,13.83,14.34,13.83,26.12,0,9.6-3.07,17.8-8.96,23.56-7.43,7.17-18.7,10.88-33.68,10.88-10.88,0-21.64-2.3-28.56-6.27-6.4-3.59-11.14-9.09-13.83-16.39-1.28-3.07-1.92-6.02-2.82-11.91l26.63-2.56Z" style="fill:#f45b69; stroke-width:0px;"/><path d="m109.62,832.49c0,12.04.13,16.65,1.02,22.28h-27.53c.9-5.63,1.15-10.76,1.15-21.9v-66.33c0-8.45-.26-12.68-1.02-18.7,5.25.26,8.84.38,18.7.38h37.01c11.27,0,15.49-.13,21.51-.9v24.33c-5.63-.64-10.63-.9-21.38-.9h-29.45v21h24.07c9.99,0,14.85-.26,20.49-.9v23.69c-5.63-.64-10.76-.9-20.49-.9h-24.07v18.82Z" style="fill:#44bba4; stroke-width:0px;"/><path d="m199.38,748.23c-.77,5.25-1.02,9.6-1.02,18.95v68.64c0,8.84.26,13.57,1.02,18.95h-28.17c.77-4.99,1.02-10.37,1.02-18.95v-68.64c0-9.6-.26-13.32-1.02-18.95h28.17Z" style="fill:#44bba4; stroke-width:0px;"/><path d="m234.2,854.77c-8.84,0-14.09.13-18.95.38.77-4.48,1.02-10.12,1.02-18.7v-67.61c0-8.96-.26-14.47-1.02-20.62h27.92c-.9,6.66-1.02,10.24-1.02,20.23v63.51h30.99c10.88,0,15.24-.13,21.26-.9v24.59c-4.74-.64-11.01-.9-21.26-.9h-38.93Z" style="fill:#44bba4; stroke-width:0px;"/><path d="m383.38,855.67c-5.51-.64-10.12-.9-21.13-.9h-40.34c-9.73,0-13.32.13-18.82.38.77-5.12,1.02-9.86,1.02-18.7v-69.92c0-7.94-.26-12.42-1.02-18.7,5.25.26,8.84.38,18.82.38h40.85c8.71,0,13.06-.26,19.08-.9v23.95c-5.89-.64-10.5-.9-19.08-.9h-33.29v18.82h27.66c8.45,0,11.52-.13,19.21-.9v23.69c-6.02-.64-10.37-.9-19.21-.9h-27.66v21.51h33.04c9.73,0,15.37-.26,20.87-.9v23.95Z" style="fill:#44bba4; stroke-width:0px;"/><path d="m424.6,748.23c-.77,5.25-1.02,9.6-1.02,18.95v68.64c0,8.84.26,13.57,1.02,18.95h-28.17c.77-4.99,1.02-10.37,1.02-18.95v-68.64c0-9.6-.26-13.32-1.02-18.95h28.17Z" style="fill:#44bba4; stroke-width:0px;"/><path d="m505.14,854.77c-.77-4.1-2.31-9.35-6.27-19.98-4.1-11.14-5.63-14.09-8.84-16.9-2.69-2.43-5.89-3.46-9.99-3.46h-13.06v21c0,8.71.26,13.45,1.02,19.34h-27.53c.77-5.89,1.02-9.73,1.02-19.21v-68.89c0-7.94-.26-12.68-1.02-18.82,5.63.26,10.37.38,19.08.38h33.29c20.74,0,32.78,10.76,32.78,29.2,0,9.09-2.56,16.26-7.56,21-3.2,2.95-5.89,4.35-12.17,6.4,6.53,2.05,9.48,4.99,13.57,14.09,1.92,4.1,3.71,8.45,9.48,22.28,1.41,3.59,2.95,6.79,6.15,13.57h-29.96Zm-18.18-62.23c7.56,0,12.17-4.61,12.17-11.91s-4.1-10.88-12.04-10.88h-20.1v22.79h19.98Z" style="fill:#44bba4; stroke-width:0px;"/><path d="m618.33,854.77c-1.02-6.15-1.79-9.48-3.07-13.83l-3.46-10.88h-36.5l-3.46,10.88c-1.67,5.12-2.56,9.09-3.2,13.83h-29.96c1.92-3.84,3.07-6.92,6.15-15.62l27.66-77.09c2.3-6.27,3.46-10.12,4.1-13.83h33.42c.9,3.71,1.79,7.04,4.35,13.83l27.79,77.09c2.43,6.79,4.48,12.04,6.15,15.62h-29.96Zm-24.97-84.64l-11.91,38.42h24.07l-12.16-38.42Z" style="fill:#44bba4; stroke-width:0px;"/><path d="m700.92,766.67c0-8.71-.26-12.93-1.15-18.82,5.12.26,8.32.38,18.95.38h26.76c15.75,0,28.43,4.35,37.01,12.68,9.35,9.22,14.09,22.67,14.09,39.7s-5.12,31.63-14.85,41.36c-8.58,8.45-20.74,12.81-35.98,12.81h-27.02c-9.86,0-13.45.13-18.82.38.77-5.63,1.02-9.86,1.02-18.7v-69.79Zm42.51,65.69c8.32,0,14.21-2.18,18.82-6.79,5.25-5.38,8.07-13.96,8.07-24.59s-2.43-18.82-7.43-23.82c-4.48-4.48-10.63-6.53-19.85-6.53h-16.77v61.72h17.16Z" style="fill:#44bba4; stroke-width:0px;"/><path d="m889.66,855.67c-5.51-.64-10.12-.9-21.13-.9h-40.34c-9.73,0-13.32.13-18.82.38.77-5.12,1.02-9.86,1.02-18.7v-69.92c0-7.94-.26-12.42-1.02-18.7,5.25.26,8.84.38,18.82.38h40.85c8.71,0,13.06-.26,19.08-.9v23.95c-5.89-.64-10.5-.9-19.08-.9h-33.29v18.82h27.66c8.45,0,11.52-.13,19.21-.9v23.69c-6.02-.64-10.37-.9-19.21-.9h-27.66v21.51h33.04c9.73,0,15.37-.26,20.87-.9v23.95Z" style="fill:#44bba4; stroke-width:0px;"/><path d="m971.86,832.49c0,12.04.13,16.65,1.02,22.28h-27.53c.9-5.63,1.15-10.76,1.15-21.9v-66.33c0-8.45-.26-12.68-1.02-18.7,5.25.26,8.84.38,18.7.38h37.01c11.27,0,15.49-.13,21.51-.9v24.33c-5.63-.64-10.63-.9-21.38-.9h-29.45v21h24.07c9.99,0,14.85-.26,20.49-.9v23.69c-5.63-.64-10.76-.9-20.49-.9h-24.07v18.82Z" style="fill:#44bba4; stroke-width:0px;"/><path d="m1099.65,854.77c-1.02-6.15-1.79-9.48-3.07-13.83l-3.46-10.88h-36.49l-3.46,10.88c-1.66,5.12-2.56,9.09-3.2,13.83h-29.96c1.92-3.84,3.07-6.92,6.15-15.62l27.66-77.09c2.3-6.27,3.46-10.12,4.1-13.83h33.42c.9,3.71,1.79,7.04,4.35,13.83l27.79,77.09c2.43,6.79,4.48,12.04,6.15,15.62h-29.96Zm-24.97-84.64l-11.91,38.42h24.07l-12.17-38.42Z" style="fill:#44bba4; stroke-width:0px;"/><path d="m1182.88,835.44c0,7.68.26,13.32,1.02,19.34h-28.3c.77-6.02,1.02-11.27,1.02-19.34v-64.54h-15.11c-8.07,0-10.24.13-19.34.9v-24.46c4.23.51,11.27.9,19.08.9h56.09c8.96,0,14.09-.26,19.98-.9v24.46c-5.76-.64-10.76-.9-19.98-.9h-14.47v64.54Z" style="fill:#44bba4; stroke-width:0px;"/><path d="m1327.32,800.99c0,33.81-20.62,56.21-51.73,56.21s-51.6-21.9-51.6-55.83,20.23-55.45,51.73-55.45,51.6,21.51,51.6,55.06Zm-26.63.26c0-20.74-9.48-33.29-24.97-33.29s-25.23,12.68-25.23,33.29,9.6,33.81,25.23,33.81,24.97-12.81,24.97-33.81Z" style="fill:#44bba4; stroke-width:0px;"/><path d="m1363.55,820.07c.51,4.61,1.41,6.92,3.33,9.48,3.07,3.84,8.45,6.02,14.98,6.02,9.86,0,15.75-4.35,15.75-11.52,0-3.97-2.05-7.43-5.38-8.96-2.69-1.28-5.89-2.18-19.21-5.25-11.78-2.56-15.88-4.1-20.62-7.43-8.07-5.63-12.42-14.21-12.42-24.59,0-19.72,15.88-32.14,41.1-32.14,16.26,0,28.68,4.99,35.6,14.6,3.2,4.23,4.74,8.07,6.4,15.37l-27.15,2.95c-1.54-8.32-6.15-11.78-15.88-11.78-7.81,0-13.57,4.23-13.57,10.12,0,3.59,1.92,6.27,6.02,8.2q2.56,1.15,17.67,4.23c9.73,2.05,15.88,4.23,20.74,7.3,9.22,5.76,13.83,14.34,13.83,26.12,0,9.6-3.07,17.8-8.96,23.56-7.43,7.17-18.7,10.88-33.68,10.88-10.88,0-21.64-2.3-28.56-6.27-6.4-3.59-11.14-9.09-13.83-16.39-1.28-3.07-1.92-6.02-2.82-11.91l26.63-2.56Z" style="fill:#44bba4; stroke-width:0px;"/><path d="m109.62,855.86c0,12.04.13,16.65,1.02,22.28h-27.53c.9-5.63,1.15-10.76,1.15-21.9v-66.33c0-8.45-.26-12.68-1.02-18.7,5.25.26,8.84.38,18.7.38h37.01c11.27,0,15.49-.13,21.51-.9v24.33c-5.63-.64-10.63-.9-21.38-.9h-29.45v21h24.07c9.99,0,14.85-.26,20.49-.9v23.69c-5.63-.64-10.76-.9-20.49-.9h-24.07v18.82Z" style="fill:#f2e863; stroke-width:0px;"/><path d="m199.38,771.61c-.77,5.25-1.02,9.6-1.02,18.95v68.64c0,8.84.26,13.57,1.02,18.95h-28.17c.77-4.99,1.02-10.37,1.02-18.95v-68.64c0-9.6-.26-13.32-1.02-18.95h28.17Z" style="fill:#f2e863; stroke-width:0px;"/><path d="m234.2,878.15c-8.84,0-14.09.13-18.95.38.77-4.48,1.02-10.12,1.02-18.7v-67.61c0-8.96-.26-14.47-1.02-20.62h27.92c-.9,6.66-1.02,10.24-1.02,20.23v63.51h30.99c10.88,0,15.24-.13,21.26-.9v24.59c-4.74-.64-11.01-.9-21.26-.9h-38.93Z" style="fill:#f2e863; stroke-width:0px;"/><path d="m383.38,879.04c-5.51-.64-10.12-.9-21.13-.9h-40.34c-9.73,0-13.32.13-18.82.38.77-5.12,1.02-9.86,1.02-18.7v-69.92c0-7.94-.26-12.42-1.02-18.7,5.25.26,8.84.38,18.82.38h40.85c8.71,0,13.06-.26,19.08-.9v23.95c-5.89-.64-10.5-.9-19.08-.9h-33.29v18.82h27.66c8.45,0,11.52-.13,19.21-.9v23.69c-6.02-.64-10.37-.9-19.21-.9h-27.66v21.51h33.04c9.73,0,15.37-.26,20.87-.9v23.95Z" style="fill:#f2e863; stroke-width:0px;"/><path d="m424.6,771.61c-.77,5.25-1.02,9.6-1.02,18.95v68.64c0,8.84.26,13.57,1.02,18.95h-28.17c.77-4.99,1.02-10.37,1.02-18.95v-68.64c0-9.6-.26-13.32-1.02-18.95h28.17Z" style="fill:#f2e863; stroke-width:0px;"/><path d="m505.14,878.15c-.77-4.1-2.31-9.35-6.27-19.98-4.1-11.14-5.63-14.09-8.84-16.9-2.69-2.43-5.89-3.46-9.99-3.46h-13.06v21c0,8.71.26,13.45,1.02,19.34h-27.53c.77-5.89,1.02-9.73,1.02-19.21v-68.89c0-7.94-.26-12.68-1.02-18.82,5.63.26,10.37.38,19.08.38h33.29c20.74,0,32.78,10.76,32.78,29.2,0,9.09-2.56,16.26-7.56,21-3.2,2.95-5.89,4.35-12.17,6.4,6.53,2.05,9.48,4.99,13.57,14.09,1.92,4.1,3.71,8.45,9.48,22.28,1.41,3.59,2.95,6.79,6.15,13.57h-29.96Zm-18.18-62.23c7.56,0,12.17-4.61,12.17-11.91s-4.1-10.88-12.04-10.88h-20.1v22.79h19.98Z" style="fill:#f2e863; stroke-width:0px;"/><path d="m618.33,878.15c-1.02-6.15-1.79-9.48-3.07-13.83l-3.46-10.88h-36.5l-3.46,10.88c-1.67,5.12-2.56,9.09-3.2,13.83h-29.96c1.92-3.84,3.07-6.92,6.15-15.62l27.66-77.09c2.3-6.27,3.46-10.12,4.1-13.83h33.42c.9,3.71,1.79,7.04,4.35,13.83l27.79,77.09c2.43,6.79,4.48,12.04,6.15,15.62h-29.96Zm-24.97-84.64l-11.91,38.42h24.07l-12.16-38.42Z" style="fill:#f2e863; stroke-width:0px;"/><path d="m700.92,790.05c0-8.71-.26-12.93-1.15-18.82,5.12.26,8.32.38,18.95.38h26.76c15.75,0,28.43,4.35,37.01,12.68,9.35,9.22,14.09,22.67,14.09,39.7s-5.12,31.63-14.85,41.36c-8.58,8.45-20.74,12.81-35.98,12.81h-27.02c-9.86,0-13.45.13-18.82.38.77-5.63,1.02-9.86,1.02-18.7v-69.79Zm42.51,65.69c8.32,0,14.21-2.18,18.82-6.79,5.25-5.38,8.07-13.96,8.07-24.59s-2.43-18.82-7.43-23.82c-4.48-4.48-10.63-6.53-19.85-6.53h-16.77v61.72h17.16Z" style="fill:#f2e863; stroke-width:0px;"/><path d="m889.66,879.04c-5.51-.64-10.12-.9-21.13-.9h-40.34c-9.73,0-13.32.13-18.82.38.77-5.12,1.02-9.86,1.02-18.7v-69.92c0-7.94-.26-12.42-1.02-18.7,5.25.26,8.84.38,18.82.38h40.85c8.71,0,13.06-.26,19.08-.9v23.95c-5.89-.64-10.5-.9-19.08-.9h-33.29v18.82h27.66c8.45,0,11.52-.13,19.21-.9v23.69c-6.02-.64-10.37-.9-19.21-.9h-27.66v21.51h33.04c9.73,0,15.37-.26,20.87-.9v23.95Z" style="fill:#f2e863; stroke-width:0px;"/><path d="m971.86,855.86c0,12.04.13,16.65,1.02,22.28h-27.53c.9-5.63,1.15-10.76,1.15-21.9v-66.33c0-8.45-.26-12.68-1.02-18.7,5.25.26,8.84.38,18.7.38h37.01c11.27,0,15.49-.13,21.51-.9v24.33c-5.63-.64-10.63-.9-21.38-.9h-29.45v21h24.07c9.99,0,14.85-.26,20.49-.9v23.69c-5.63-.64-10.76-.9-20.49-.9h-24.07v18.82Z" style="fill:#f2e863; stroke-width:0px;"/><path d="m1099.65,878.15c-1.02-6.15-1.79-9.48-3.07-13.83l-3.46-10.88h-36.49l-3.46,10.88c-1.66,5.12-2.56,9.09-3.2,13.83h-29.96c1.92-3.84,3.07-6.92,6.15-15.62l27.66-77.09c2.3-6.27,3.46-10.12,4.1-13.83h33.42c.9,3.71,1.79,7.04,4.35,13.83l27.79,77.09c2.43,6.79,4.48,12.04,6.15,15.62h-29.96Zm-24.97-84.64l-11.91,38.42h24.07l-12.17-38.42Z" style="fill:#f2e863; stroke-width:0px;"/><path d="m1182.88,858.81c0,7.68.26,13.32,1.02,19.34h-28.3c.77-6.02,1.02-11.27,1.02-19.34v-64.54h-15.11c-8.07,0-10.24.13-19.34.9v-24.46c4.23.51,11.27.9,19.08.9h56.09c8.96,0,14.09-.26,19.98-.9v24.46c-5.76-.64-10.76-.9-19.98-.9h-14.47v64.54Z" style="fill:#f2e863; stroke-width:0px;"/><path d="m1327.32,824.36c0,33.81-20.62,56.21-51.73,56.21s-51.6-21.9-51.6-55.83,20.23-55.45,51.73-55.45,51.6,21.51,51.6,55.06Zm-26.63.26c0-20.74-9.48-33.29-24.97-33.29s-25.23,12.68-25.23,33.29,9.6,33.81,25.23,33.81,24.97-12.81,24.97-33.81Z" style="fill:#f2e863; stroke-width:0px;"/><path d="m1363.55,843.44c.51,4.61,1.41,6.92,3.33,9.48,3.07,3.84,8.45,6.02,14.98,6.02,9.86,0,15.75-4.35,15.75-11.52,0-3.97-2.05-7.43-5.38-8.96-2.69-1.28-5.89-2.18-19.21-5.25-11.78-2.56-15.88-4.1-20.62-7.43-8.07-5.63-12.42-14.21-12.42-24.59,0-19.72,15.88-32.14,41.1-32.14,16.26,0,28.68,4.99,35.6,14.6,3.2,4.23,4.74,8.07,6.4,15.37l-27.15,2.95c-1.54-8.32-6.15-11.78-15.88-11.78-7.81,0-13.57,4.23-13.57,10.12,0,3.59,1.92,6.27,6.02,8.2q2.56,1.15,17.67,4.23c9.73,2.05,15.88,4.23,20.74,7.3,9.22,5.76,13.83,14.34,13.83,26.12,0,9.6-3.07,17.8-8.96,23.56-7.43,7.17-18.7,10.88-33.68,10.88-10.88,0-21.64-2.3-28.56-6.27-6.4-3.59-11.14-9.09-13.83-16.39-1.28-3.07-1.92-6.02-2.82-11.91l26.63-2.56Z" style="fill:#f2e863; stroke-width:0px;"/></svg>