<?xml version="1.0" encoding="UTF-8"?><svg id="a" xmlns="http://www.w3.org/2000/svg" xmlns:xlink="http://www.w3.org/1999/xlink" viewBox="0 0 1536 1024"><defs><filter id="b" filterUnits="userSpaceOnUse"><feOffset dx="6.89" dy="6.89"/><feGaussianBlur result="c" stdDeviation="0"/><feFlood flood-color="#000" flood-opacity="1"/><feComposite in2="c" operator="in"/><feComposite in="SourceGraphic"/></filter></defs><g style="filter:url(#b);"><path d="m133.59,746.33c0-3.25.69-5.53,2.07-6.83,1.38-1.3,2.81-1.95,4.27-1.95,5.04,0,9.19,6.91,12.44,20.74,3.25,13.83,6.75,39.36,10.49,76.6.98,9.92,1.5,15,1.59,15.25.08.24,1.01.37,2.81.37.98,0,1.99-.81,3.05-2.44,1.06-1.62,2.48-4.15,4.27-7.56,1.79-3.42,3.74-6.42,5.85-9.03,2.93-3.74,5.41-7.44,7.44-11.1,2.03-3.66,3.05-6.38,3.05-8.17,0-1.14,2.56-4.96,7.68-11.47,5.12-6.5,11.06-14.35,17.81-23.54,6.75-9.19,11.42-16.96,14.03-23.3,2.76-6.5,6.22-11.22,10.37-14.15s7.6-3.01,10.37-.24c1.46,1.63,2.11,15,1.95,40.13-.16,25.13-1.06,40.86-2.68,47.21-1.14,4.23-2.07,9.39-2.81,15.49-.73,6.1-1.46,11.1-2.2,15-.73,3.9-1.75,6.59-3.05,8.05-1.63,1.79-3.46,2.77-5.49,2.93-2.04.16-3.7-.49-5-1.95-1.3-1.62-1.59-6.83-.85-15.61.73-8.78,2.07-17.32,4.03-25.62,1.62-6.99,2.68-16.95,3.17-29.88s0-19.88-1.46-20.86c-.82-.49-2.4.77-4.76,3.78-2.36,3.01-3.54,5.41-3.54,7.2,0,1.14-1.43,3.5-4.27,7.08-2.85,3.58-6.43,8.21-10.73,13.91-4.31,5.7-7.77,11.14-10.37,16.34-1.79,3.9-3.9,7.73-6.34,11.47l-13.91,22.44c-1.46,2.28-3.29,5.98-5.49,11.1-2.2,5.12-4.23,9.27-6.1,12.44-1.87,3.17-3.7,4.76-5.49,4.76-1.46,0-3.13-1.06-5-3.17-1.87-2.11-2.81-3.98-2.81-5.61s-.65-3.98-1.95-7.08c-1.3-3.09-2.8-7.32-4.51-12.69s-2.89-11.38-3.54-18.05c-.65-6.99-1.63-16.1-2.93-27.32-1.3-11.22-2.2-20-2.68-26.35-.82-8.45-1.63-12.69-2.44-12.69-1.3,0-3.5,2.77-6.59,8.29-3.09,5.53-4.63,9.43-4.63,11.71,0,3.09-2.77,10.17-8.29,21.22l-8.29,16.83v22.44c0,13.83-.49,21.39-1.46,22.69-.33.65-1.14,1.3-2.44,1.95-1.79.65-3.13.94-4.03.85-.9-.08-2.07-.77-3.54-2.07-1.46-1.3-2.36-3.25-2.68-5.86-.33-2.6-.49-8.78-.49-18.54,0-11.71.57-20.29,1.71-25.74,1.14-5.45,3.98-12.72,8.54-21.83,2.44-4.88,4.59-10.53,6.46-16.96,1.87-6.42,5.25-13.54,10.12-21.35,6.18-9.59,9.27-16.02,9.27-19.27Z" style="fill:#f2e863; stroke-width:0px;"/><path d="m258,802.44l15.86-15.86h29.52c12.2,0,20.82.33,25.86.98,5.04.65,9.15,1.95,12.32,3.9,3.17,1.95,6.95,5.45,11.34,10.49,3.25,3.9,5.16,6.75,5.73,8.54.57,1.79.85,5.85.85,12.2,0,10.57-1.95,19.64-5.86,27.2s-9.19,12.65-15.86,15.25c-3.09,1.14-13.5,1.71-31.23,1.71-6.34,0-11.43-.04-15.25-.12-3.82-.08-7.65-.37-11.47-.85-3.82-.49-6.71-1.06-8.66-1.71-1.95-.65-3.9-1.79-5.86-3.42-1.95-1.62-3.29-3.25-4.02-4.88-.73-1.62-1.43-4.06-2.07-7.32-.65-3.25-1.02-6.5-1.1-9.76-.08-3.25-.12-7.56-.12-12.93v-23.42Zm68.06,3.42c-1.79-2.28-3.74-3.58-5.86-3.9-2.12-.32-8.54-.49-19.27-.49h-21.47l-3.42,4.63c-1.46,2.12-2.4,4.48-2.81,7.08-.41,2.6-.61,7.65-.61,15.12,0,8.29.2,13.38.61,15.25.4,1.87,1.67,3.62,3.78,5.25,1.95,1.63,4.47,2.6,7.56,2.93,3.09.33,10.33.49,21.71.49s18.42-.2,21.59-.61c3.17-.4,5.65-1.34,7.44-2.81,2.93-2.28,5.25-5.85,6.95-10.73,1.71-4.88,2.4-9.76,2.07-14.64-.16-3.9-.61-6.34-1.34-7.32-.73-.98-2.89-2.11-6.46-3.42-4.72-1.79-8.21-4.06-10.49-6.83Z" style="fill:#f2e863; stroke-width:0px;"/><path d="m366.56,791.46c1.95-2.11,3.5-3.17,4.64-3.17,1.46,0,3.09,1.06,4.88,3.17,1.79,2.12,2.68,3.99,2.68,5.61.16,2.44.57,4.88,1.22,7.32.65,2.44,1.38,3.66,2.2,3.66s1.95-1.71,3.42-5.12c1.62-3.9,4.79-6.75,9.51-8.54,4.71-1.79,11.55-2.68,20.49-2.68,6.34,0,11.1.33,14.27.98,3.17.65,5.81,2.24,7.93,4.76,2.11,2.52,3.45,5.78,4.03,9.76.57,3.99.85,9.8.85,17.44,0,12.2.49,20,1.46,23.42,2.76,9.6,4.06,16.51,3.9,20.74-.16,4.23-1.87,6.34-5.12,6.34-4.23,0-7.28-3.29-9.15-9.88-1.87-6.59-3.13-18.01-3.78-34.28-.33-13.66-1.1-21.18-2.32-22.57-1.22-1.38-5.49-2.07-12.81-2.07s-11.79.65-13.42,1.95c-1.14.98-2.68,4.19-4.63,9.64-1.95,5.45-4.07,9.39-6.34,11.83-1.95,2.12-3.17,4.35-3.66,6.71-.49,2.36-.9,7.77-1.22,16.22-.33,12.2-1.06,18.99-2.2,20.37-1.14,1.38-3.17,1.91-6.1,1.59-3.58-.32-6.02-2.89-7.32-7.68-1.3-4.8-2.28-14.92-2.93-30.37-.33-4.88-.61-9.55-.85-14.03-.24-4.47-.45-8.05-.61-10.73-.16-2.68-.37-5.12-.61-7.32-.24-2.2-.37-3.9-.37-5.12s-.04-2.23-.12-3.05c-.08-.81,0-1.5.24-2.07.24-.57.49-1.01.73-1.34.24-.32.61-.81,1.1-1.46Z" style="fill:#f2e863; stroke-width:0px;"/><path d="m465.36,785.12c1.3-1.79,3.01-2.81,5.12-3.05,2.11-.24,8.21-.2,18.3.12,13.82.33,22.85,1.55,27.08,3.66,4.55,2.28,7.28,4.39,8.17,6.34.89,1.95.2,4.07-2.07,6.34l-3.66,3.42-10.98-2.93c-7.32-2.11-13.99-3.17-20-3.17l-9.03-.24v19.76l6.59.98c3.74.49,6.62,1.3,8.66,2.44,2.03,1.14,6.54,4.48,13.54,10,6.34,5.04,10.41,8.99,12.2,11.83,1.79,2.85,2.52,6.63,2.2,11.34-.16,2.28-.53,4.23-1.1,5.86-.57,1.63-1.58,2.97-3.05,4.03-1.46,1.06-2.81,1.91-4.03,2.56-1.22.65-3.33,1.1-6.34,1.34-3.01.24-5.57.41-7.68.49-2.12.08-5.45.21-10,.37h-4.64c-7.16,0-12.85.04-17.08.12-4.23.08-7.4-.2-9.51-.85-2.12-.65-3.5-1.38-4.15-2.2-.65-.81-.98-2.11-.98-3.9,0-1.3.08-2.32.24-3.05.16-.73.61-1.38,1.34-1.95.73-.57,1.62-1.01,2.68-1.34,1.06-.32,2.72-.61,5-.85,2.28-.24,4.76-.37,7.44-.37h10.61c15.45,0,23.58-.61,24.4-1.83.81-1.22-1.55-4.59-7.08-10.12-4.07-4.06-6.99-6.5-8.78-7.32-1.79-.81-5.12-1.38-10-1.71-2.93-.16-5.12-.37-6.59-.61s-2.93-.73-4.39-1.46c-1.46-.73-2.44-1.46-2.93-2.2-.49-.73-.94-2.11-1.34-4.15-.41-2.03-.65-4.11-.73-6.22-.08-2.11-.12-5.28-.12-9.51,0-12.03.89-19.35,2.68-21.96Z" style="fill:#f2e863; stroke-width:0px;"/><path d="m564.4,748.77c1.79-1.95,3.33-2.93,4.63-2.93s2.84.98,4.63,2.93c.98,1.14,1.67,3.46,2.07,6.95.4,3.5.69,10.04.85,19.64l.49,23.66,13.17.73c7.48.49,12.24,1.18,14.27,2.07,2.03.9,3.05,2.68,3.05,5.37s-1.02,4.43-3.05,5.25c-2.04.82-6.79,1.46-14.27,1.95l-13.17.98-.73,27.81c-.49,18.54-1.22,28.46-2.2,29.76-.82,1.46-2.16,2.12-4.03,1.95-1.87-.16-3.7-1.06-5.49-2.68-1.3-1.14-2.12-3.33-2.44-6.59-.33-3.25-.49-10.81-.49-22.69v-26.84l-5.61-2.44c-3.9-1.62-8.38-2.44-13.42-2.44-5.86,0-9.92-1.3-12.2-3.9-2.28-2.6-1.71-5.37,1.71-8.29,1.3-1.14,2.97-1.87,5-2.2,2.03-.32,5.65-.32,10.86,0l12.69.49.49-22.93c.32-9.11.69-15.37,1.1-18.78.4-3.42,1.1-5.69,2.07-6.83Z" style="fill:#f2e863; stroke-width:0px;"/><path d="m612.46,842.93c0-7.81.32-14.31.98-19.52.65-5.2,1.38-8.78,2.2-10.73.81-1.95,1.58-3.9,2.32-5.85.73-1.95,1.1-3.9,1.1-5.86s2.68-5.69,8.05-11.22l8.05-8.29,13.66.73c6.67.33,13.13,1.34,19.39,3.05,6.26,1.71,10.86,3.78,13.78,6.22,2.93,2.44,3.01,8.62.24,18.54-.65,3.09-1.38,5.41-2.2,6.95-.82,1.55-1.79,2.97-2.93,4.27-1.14,1.3-2.93,2.24-5.37,2.81-2.44.57-5.17.98-8.17,1.22-3.01.24-7.36.53-13.05.85l-22.44.73-.49,13.91c-.33,8.13.24,13.17,1.71,15.12,1.46,1.95,5.45,2.93,11.95,2.93,3.74,0,7.48.45,11.22,1.34,3.74.9,6.46,1.79,8.17,2.68,1.71.9,3.66,1.46,5.86,1.71,2.2.24,3.78-.28,4.76-1.59,3.09-2.93,6.06-3.54,8.9-1.83,2.84,1.71,4.27,4.92,4.27,9.64s-2.89,7.4-8.66,8.54c-5.78,1.14-12.89.24-21.35-2.68-6.18-2.11-11.63-3.17-16.34-3.17-4.39,0-9.07-.81-14.03-2.44-4.96-1.62-8.09-3.33-9.39-5.12-1.46-1.95-2.2-9.59-2.2-22.93Zm48.06-43.91c-6.51-2.6-11.71-3.37-15.61-2.32-3.9,1.06-6.79,2.68-8.66,4.88-1.87,2.2-2.65,4.11-2.32,5.73.32,1.3,1.38,2.16,3.17,2.56,1.79.41,6.01.77,12.69,1.1,7.15.16,11.5.08,13.05-.24,1.54-.32,2.72-1.38,3.54-3.17.81-2.44.89-4.11.24-5-.65-.89-2.68-2.07-6.1-3.54Z" style="fill:#f2e863; stroke-width:0px;"/><path d="m721.99,781.7c1.14,0,1.99-.16,2.56-.49.57-.32,1.01-.69,1.34-1.1.32-.4,1.38-.77,3.17-1.1,1.79-.32,4.47-.49,8.05-.49,5.53,0,10.33.94,14.39,2.81,4.06,1.87,6.67,4.35,7.81,7.44,3.09,7.97,4.59,13.62,4.51,16.96-.08,3.33-1.75,5.98-5,7.93-2.12,1.3-4.72.04-7.81-3.78-3.09-3.82-4.64-6.71-4.64-8.66,0-2.93-.73-5.25-2.2-6.95-1.46-1.71-3.42-2.56-5.85-2.56-3.26,0-6.26,1.14-9.03,3.42-2.77,2.28-4.48,5.12-5.12,8.54-.82,2.93-2.52,7.4-5.12,13.42-2.6,6.02-3.9,9.76-3.9,11.22s-.53,3.42-1.59,5.85c-1.06,2.44-2.16,5.98-3.29,10.61-1.14,4.63-1.71,10.29-1.71,16.96,0,7.65-.45,12.61-1.34,14.88-.9,2.28-2.89,3.42-5.98,3.42-2.44,0-4.27-.57-5.49-1.71-1.22-1.14-2.32-3.82-3.29-8.05-.98-4.23-1.63-9.59-1.95-16.1-.33-6.5-.65-16.1-.98-28.79-.33-16.1-.37-26.26-.12-30.49.24-4.23,1.01-6.99,2.32-8.29,4.88-5.53,8.05-4.23,9.51,3.9.65,2.6.98,5.94.98,10,0,13.01,1.95,13.91,5.85,2.68.49-1.14.98-2.44,1.46-3.9,3.74-11.71,7.89-17.57,12.44-17.57Z" style="fill:#f2e863; stroke-width:0px;"/><path d="m908.37,730.47c.65-.65,4.03-.77,10.12-.37,6.1.41,11.71.9,16.83,1.46,5.12.57,11.06,1.3,17.81,2.2,6.75.9,11.02,1.43,12.81,1.59,6.18.65,10.25,1.95,12.2,3.9,1.3,1.46,1.95,2.52,1.95,3.17s-.73,1.79-2.2,3.42c-1.3,1.46-2.77,2.36-4.39,2.68-1.63.33-4.96.24-10-.24-7.65-.49-15.04-1.22-22.2-2.2-7.16-.98-12.12-1.75-14.88-2.32-2.77-.57-5.73-.73-8.9-.49-3.17.24-5.82,1.14-7.93,2.68-2.12,1.55-4.96,4.11-8.54,7.68-2.77,2.93-4.51,5.25-5.25,6.95-.73,1.71-1.18,4.19-1.34,7.44v7.56l9.03,2.2c6.01,1.46,15.21,2.2,27.57,2.2,9.27,0,15.25.33,17.93.98,2.68.65,7.2,2.6,13.54,5.85,9.27,4.72,15,8.9,17.2,12.56,2.2,3.66,3.45,11.02,3.78,22.08.32,10.41-.08,17.53-1.22,21.35-1.14,3.82-3.9,7.52-8.29,11.1-6.67,5.21-12.97,8.42-18.91,9.64-5.94,1.22-18.99,1.83-39.15,1.83-17.24,0-27.85-.16-31.84-.49-3.99-.32-6.95-1.3-8.9-2.93-2.6-2.11-3.99-4.51-4.15-7.2-.16-2.68.81-4.71,2.93-6.1,2.11-1.38,4.71-1.34,7.81.12,2.6,1.14,13.91,1.71,33.91,1.71,16.26,0,27.53-.61,33.79-1.83,6.26-1.22,11.34-3.7,15.25-7.44,1.95-1.95,3.17-3.86,3.66-5.73.49-1.87.73-5.81.73-11.83,0-6.34-.24-10.37-.73-12.08s-1.79-3.62-3.9-5.73c-4.07-3.9-8.74-6.59-14.03-8.05-5.29-1.46-13.87-2.52-25.74-3.17-7.48-.32-13.42-.69-17.81-1.1-4.39-.4-8.5-1.01-12.32-1.83-3.82-.81-6.59-1.71-8.29-2.68-1.71-.98-3.21-2.4-4.51-4.27-1.3-1.87-2.12-3.9-2.44-6.1-.33-2.2-.49-5.16-.49-8.9,0-6.34,1.01-11.91,3.05-16.71,2.03-4.8,4.67-8.01,7.93-9.64,1.95-1.14,5.2-3.45,9.76-6.95,4.55-3.5,7.48-5.49,8.78-5.98Z" style="fill:#f2e863; stroke-width:0px;"/><path d="m1005.46,773.65c0-4.72,1.62-11.47,4.88-20.25,3.25-8.78,4.88-13.58,4.88-14.39,0-1.3.89-2.93,2.68-4.88,1.79-1.95,3.37-2.93,4.76-2.93s3.05,1.06,5,3.17c1.3,1.46,2.03,2.89,2.2,4.27.16,1.38-.16,4.11-.98,8.17-.82,3.74-2.04,7.52-3.66,11.34-1.63,3.82-2.89,6.91-3.78,9.27-.9,2.36-1.18,4.19-.85,5.49.49,2.28,2.36,3.13,5.61,2.56,3.25-.57,6.75-2.32,10.49-5.25,2.28-1.79,7.32-5,15.13-9.64,7.81-4.64,15.37-10.04,22.69-16.22,3.09-2.76,5.04-4.27,5.85-4.51.81-.24,2.03.37,3.66,1.83,2.11,1.79,3.17,3.62,3.17,5.49s-.9,4.27-2.68,7.2c-1.63,2.6-5.37,6.14-11.22,10.61-5.86,4.48-11.31,7.85-16.34,10.12-2.6,1.3-5.65,3.21-9.15,5.73-3.5,2.52-6.51,4.68-9.03,6.46-2.52,1.79-4.35,2.68-5.49,2.68-1.79,0-3.38.82-4.76,2.44-1.38,1.63-1.75,3.17-1.1,4.63.32,1.14,3.7,4.27,10.12,9.39,6.42,5.12,10.12,8.82,11.1,11.1,1.3,3.26,6.46,10.29,15.49,21.1,9.03,10.82,13.78,17.53,14.27,20.13.81,4.23,2.84,10.25,6.1,18.05,1.14,2.93,1.22,5.41.24,7.44-.98,2.03-2.93,3.05-5.86,3.05-2.77,0-5.85-3.05-9.27-9.15-3.42-6.1-5.12-10.04-5.12-11.83,0-1.3-.9-3.21-2.68-5.73-1.79-2.52-4.35-5.89-7.68-10.12-3.34-4.23-5.98-7.72-7.93-10.49-3.09-4.72-8.5-10.98-16.22-18.79-7.73-7.81-12.32-11.71-13.78-11.71-1.14,0-2.93,4.11-5.37,12.32-2.44,8.21-3.9,15.33-4.39,21.35-.98,11.22-2.36,19.36-4.15,24.4-1.79,5.04-4.23,7.56-7.32,7.56-2.77,0-4.63-.65-5.61-1.95-.98-1.3-1.3-3.33-.98-6.1.32-2.76.89-5.69,1.71-8.78.81-3.09,1.67-7.07,2.56-11.95.89-4.88,1.34-9.43,1.34-13.66,0-6.5.81-12.11,2.44-16.83,2.28-6.99,4.35-14.84,6.22-23.54,1.87-8.7,2.81-14.92,2.81-18.66Z" style="fill:#f2e863; stroke-width:0px;"/><path d="m1092.06,842.93c0-7.81.32-14.31.98-19.52.65-5.2,1.38-8.78,2.2-10.73.81-1.95,1.58-3.9,2.32-5.85.73-1.95,1.1-3.9,1.1-5.86s2.68-5.69,8.05-11.22l8.05-8.29,13.66.73c6.67.33,13.13,1.34,19.39,3.05,6.26,1.71,10.86,3.78,13.78,6.22,2.93,2.44,3.01,8.62.24,18.54-.65,3.09-1.38,5.41-2.2,6.95-.82,1.55-1.79,2.97-2.93,4.27-1.14,1.3-2.93,2.24-5.37,2.81-2.44.57-5.17.98-8.17,1.22-3.01.24-7.36.53-13.05.85l-22.44.73-.49,13.91c-.33,8.13.24,13.17,1.71,15.12,1.46,1.95,5.45,2.93,11.95,2.93,3.74,0,7.48.45,11.22,1.34,3.74.9,6.46,1.79,8.17,2.68,1.71.9,3.66,1.46,5.86,1.71,2.2.24,3.78-.28,4.76-1.59,3.09-2.93,6.06-3.54,8.9-1.83,2.84,1.71,4.27,4.92,4.27,9.64s-2.89,7.4-8.66,8.54c-5.78,1.14-12.89.24-21.35-2.68-6.18-2.11-11.63-3.17-16.34-3.17-4.39,0-9.07-.81-14.03-2.44-4.96-1.62-8.09-3.33-9.39-5.12-1.46-1.95-2.2-9.59-2.2-22.93Zm48.06-43.91c-6.51-2.6-11.71-3.37-15.61-2.32-3.9,1.06-6.79,2.68-8.66,4.88-1.87,2.2-2.65,4.11-2.32,5.73.32,1.3,1.38,2.16,3.17,2.56,1.79.41,6.01.77,12.69,1.1,7.15.16,11.5.08,13.05-.24,1.54-.32,2.72-1.38,3.54-3.17.81-2.44.89-4.11.24-5-.65-.89-2.68-2.07-6.1-3.54Z" style="fill:#f2e863; stroke-width:0px;"/><path d="m1204.04,748.77c1.79-1.95,3.33-2.93,4.63-2.93s2.84.98,4.63,2.93c.98,1.14,1.67,3.46,2.07,6.95.4,3.5.69,10.04.85,19.64l.49,23.66,13.17.73c7.48.49,12.24,1.18,14.27,2.07,2.03.9,3.05,2.68,3.05,5.37s-1.02,4.43-3.05,5.25c-2.04.82-6.79,1.46-14.27,1.95l-13.17.98-.73,27.81c-.49,18.54-1.22,28.46-2.2,29.76-.82,1.46-2.16,2.12-4.03,1.95-1.87-.16-3.7-1.06-5.49-2.68-1.3-1.14-2.12-3.33-2.44-6.59-.33-3.25-.49-10.81-.49-22.69v-26.84l-5.61-2.44c-3.9-1.62-8.38-2.44-13.42-2.44-5.86,0-9.92-1.3-12.2-3.9-2.28-2.6-1.71-5.37,1.71-8.29,1.3-1.14,2.97-1.87,5-2.2,2.03-.32,5.65-.32,10.86,0l12.69.49.49-22.93c.32-9.11.69-15.37,1.1-18.78.4-3.42,1.1-5.69,2.07-6.83Z" style="fill:#f2e863; stroke-width:0px;"/><path d="m1333.08,803.17c-.82,0-5.21-3.01-13.17-9.03-7.97-6.02-12.36-9.03-13.17-9.03-1.46,0-4.96.57-10.49,1.71-3.9.82-6.63,1.87-8.17,3.17-1.55,1.3-4.03,4.47-7.44,9.51-4.88,7.32-7.32,11.79-7.32,13.42,0,.65-.53,2.81-1.59,6.46-1.06,3.66-2.12,7.36-3.17,11.1-1.06,3.74-1.55,7.68-1.46,11.83.08,4.15,1.1,7.12,3.05,8.9,1.3,1.14,8.13,3.17,20.49,6.1,12.36,2.93,18.94,4.56,19.76,4.88,2.76.98,7.15,1.46,13.17,1.46,7.48,0,12.36,1.71,14.64,5.12,1.62,2.28.65,4.39-2.93,6.34-1.46,1.3-5.57,1.71-12.32,1.22-6.75-.49-13.01-1.18-18.79-2.07-5.77-.89-11.92-1.91-18.42-3.05-6.51-1.14-10.25-1.79-11.22-1.95-7-.81-12.44-3.82-16.35-9.03-3.9-5.2-5.94-11.26-6.1-18.17-.16-6.91.89-14.19,3.17-21.83,2.28-6.34,3.42-10.33,3.42-11.95,0-1.79,2.52-6.42,7.56-13.91,5.04-7.48,8.86-12.2,11.47-14.15,1.62-1.3,4.63-2.76,9.03-4.39,4.39-1.62,8.29-2.93,11.71-3.9s5.2-1.46,5.37-1.46c3.25-.32,12.44,3.99,27.57,12.93,1.14.49,2.4,1.46,3.78,2.93,1.38,1.46,2.4,2.93,3.05,4.39,1.3,2.77,1.95,4.6,1.95,5.49s-.73,2.07-2.2,3.54c-1.95,2.28-3.58,3.42-4.88,3.42Z" style="fill:#f2e863; stroke-width:0px;"/><path d="m1384.07,737.55c0-1.3.65-2.93,1.95-4.88,1.3-1.95,2.97-3.37,5-4.27,2.03-.89,4.35-.04,6.95,2.56.98,1.14,1.58,2.07,1.83,2.81.24.73-.61,4.11-2.56,10.12-1.95,6.02-5.61,14.8-10.98,26.35-4.72,10.25-6.87,15.58-6.46,15.98.4.41,2.72-.85,6.95-3.78,2.93-1.95,5.49-3.13,7.68-3.54,2.2-.4,7.11-.45,14.76-.12l16.1.49,5.12,5.86c3.9,4.55,6.42,9.64,7.56,15.25,1.14,5.61,1.71,15.82,1.71,30.62,0,17.73.65,28.71,1.95,32.93.81,2.93,1.14,4.92.98,5.98-.16,1.06-1.06,2.4-2.68,4.03-2.12,2.28-4.15,2.97-6.1,2.07-1.95-.89-3.99-3.45-6.1-7.68-1.14-2.28-1.87-5.49-2.2-9.64-.33-4.15-.49-11.91-.49-23.3,0-7.81-.16-14.03-.49-18.66-.33-4.63-.82-8.66-1.46-12.08-.65-3.42-1.71-5.85-3.17-7.32-1.46-1.46-3.17-2.52-5.12-3.17-1.95-.65-4.72-.98-8.29-.98-4.07,0-7.12.33-9.15.98-2.04.65-4.84,2.28-8.42,4.88-3.9,2.93-6.51,5.49-7.81,7.68-1.3,2.2-2.44,4.76-3.42,7.68-.98,2.93-2.68,5.94-5.12,9.03-2.93,3.74-5.25,8.5-6.95,14.27-1.71,5.77-2.81,10.98-3.29,15.61-.49,4.64-1.46,8.75-2.93,12.32-1.46,3.58-3.5,5.53-6.1,5.85-3.58.49-5.94-.37-7.08-2.56-1.14-2.2-1.46-6.62-.98-13.29.65-9.76,1.75-17.77,3.29-24.03,1.54-6.26,3.05-10.57,4.51-12.93,1.46-2.36,2.97-5.57,4.51-9.64,1.54-4.06,2.68-9.03,3.42-14.88.73-5.86,2.03-10.89,3.9-15.13,1.87-4.23,3.82-8.01,5.85-11.34,2.03-3.33,3.45-6.3,4.27-8.9.49-1.79,2.11-5.28,4.88-10.49,2.76-5.2,4.15-8.78,4.15-10.73Z" style="fill:#f2e863; stroke-width:0px;"/></g></svg>