<?xml version="1.0" encoding="UTF-8"?><svg id="a" xmlns="http://www.w3.org/2000/svg" xmlns:xlink="http://www.w3.org/1999/xlink" viewBox="0 0 1536 1024"><defs><filter id="b" filterUnits="userSpaceOnUse"><feOffset dx="6.93" dy="6.93"/><feGaussianBlur result="c" stdDeviation="0"/><feFlood flood-color="#000" flood-opacity="1"/><feComposite in2="c" operator="in"/><feComposite in="SourceGraphic"/></filter><filter id="d" filterUnits="userSpaceOnUse"><feOffset dx="6.93" dy="6.93"/><feGaussianBlur result="e" stdDeviation="0"/><feFlood flood-color="#000" flood-opacity="1"/><feComposite in2="e" operator="in"/><feComposite in="SourceGraphic"/></filter></defs><g style="filter:url(#b);"><path d="m171.41,875.03c0,8.22.27,14.25,1.1,20.7h-30.29c.82-6.44,1.1-12.06,1.1-20.7v-69.08h-16.17c-8.63,0-10.96.14-20.7.96v-26.18c4.52.55,12.06.96,20.42.96h60.03c9.59,0,15.08-.27,21.38-.96v26.18c-6.17-.69-11.51-.96-21.38-.96h-15.49v69.08Z" style="fill:#fff; stroke-width:0px;"/><path d="m304.75,896.69c-5.89-.69-10.83-.96-22.61-.96h-43.17c-10.42,0-14.25.14-20.15.41.82-5.48,1.1-10.55,1.1-20.01v-74.83c0-8.5-.27-13.29-1.1-20.01,5.62.27,9.46.41,20.15.41h43.72c9.32,0,13.98-.27,20.42-.96v25.63c-6.3-.69-11.24-.96-20.42-.96h-35.63v20.15h29.6c9.05,0,12.33-.14,20.56-.96v25.36c-6.44-.69-11.1-.96-20.56-.96h-29.6v23.03h35.36c10.42,0,16.45-.27,22.34-.96v25.63Z" style="fill:#fff; stroke-width:0px;"/><path d="m343.81,858.58c.55,4.94,1.51,7.4,3.56,10.14,3.29,4.11,9.05,6.44,16.04,6.44,10.55,0,16.86-4.66,16.86-12.33,0-4.25-2.19-7.95-5.76-9.59-2.88-1.37-6.3-2.33-20.56-5.62-12.61-2.74-16.99-4.39-22.07-7.95-8.63-6.03-13.29-15.21-13.29-26.31,0-21.11,16.99-34.4,43.99-34.4,17.41,0,30.7,5.34,38.1,15.62,3.43,4.52,5.07,8.63,6.85,16.45l-29.06,3.15c-1.64-8.91-6.58-12.61-16.99-12.61-8.36,0-14.53,4.52-14.53,10.83,0,3.84,2.06,6.71,6.44,8.77q2.74,1.23,18.91,4.52c10.42,2.19,17,4.52,22.2,7.81,9.87,6.17,14.8,15.35,14.8,27.96,0,10.28-3.29,19.05-9.59,25.22-7.95,7.67-20.01,11.65-36.05,11.65-11.65,0-23.16-2.47-30.56-6.71-6.85-3.84-11.92-9.73-14.8-17.54-1.37-3.29-2.06-6.44-3.02-12.75l28.51-2.74Z" style="fill:#fff; stroke-width:0px;"/><path d="m481.96,875.03c0,8.22.27,14.25,1.1,20.7h-30.29c.82-6.44,1.1-12.06,1.1-20.7v-69.08h-16.17c-8.63,0-10.96.14-20.7.96v-26.18c4.52.55,12.06.96,20.42.96h60.03c9.59,0,15.08-.27,21.38-.96v26.18c-6.17-.69-11.51-.96-21.38-.96h-15.49v69.08Z" style="fill:#fff; stroke-width:0px;"/><path d="m615.3,896.69c-5.89-.69-10.83-.96-22.61-.96h-43.17c-10.42,0-14.25.14-20.15.41.82-5.48,1.1-10.55,1.1-20.01v-74.83c0-8.5-.27-13.29-1.1-20.01,5.62.27,9.46.41,20.15.41h43.72c9.32,0,13.98-.27,20.42-.96v25.63c-6.3-.69-11.24-.96-20.42-.96h-35.63v20.15h29.6c9.05,0,12.33-.14,20.56-.96v25.36c-6.44-.69-11.1-.96-20.56-.96h-29.6v23.03h35.36c10.42,0,16.45-.27,22.34-.96v25.63Z" style="fill:#fff; stroke-width:0px;"/><path d="m676.15,801.43c0-9.32-.27-13.84-1.23-20.15,5.48.27,8.91.41,20.28.41h28.64c16.86,0,30.43,4.66,39.61,13.57,10,9.87,15.08,24.26,15.08,42.49s-5.48,33.85-15.9,44.27c-9.18,9.04-22.2,13.71-38.51,13.71h-28.92c-10.55,0-14.39.14-20.15.41.82-6.03,1.1-10.55,1.1-20.01v-74.69Zm45.5,70.31c8.91,0,15.21-2.33,20.15-7.26,5.62-5.76,8.63-14.94,8.63-26.31s-2.6-20.15-7.95-25.49c-4.8-4.8-11.38-6.99-21.24-6.99h-17.95v66.06h18.37Z" style="fill:#fff; stroke-width:0px;"/><path d="m899.4,838.16c0,36.18-22.07,60.17-55.37,60.17s-55.23-23.44-55.23-59.76,21.65-59.34,55.37-59.34,55.23,23.03,55.23,58.93Zm-28.51.27c0-22.2-10.14-35.63-26.73-35.63s-27,13.57-27,35.63,10.28,36.18,27,36.18,26.73-13.71,26.73-36.18Z" style="fill:#fff; stroke-width:0px;"/><path d="m983.82,858.58c.55,4.94,1.51,7.4,3.56,10.14,3.29,4.11,9.05,6.44,16.04,6.44,10.55,0,16.86-4.66,16.86-12.33,0-4.25-2.19-7.95-5.76-9.59-2.88-1.37-6.3-2.33-20.56-5.62-12.61-2.74-16.99-4.39-22.07-7.95-8.63-6.03-13.29-15.21-13.29-26.31,0-21.11,16.99-34.4,43.99-34.4,17.41,0,30.7,5.34,38.1,15.62,3.43,4.52,5.07,8.63,6.85,16.45l-29.06,3.15c-1.64-8.91-6.58-12.61-16.99-12.61-8.36,0-14.53,4.52-14.53,10.83,0,3.84,2.06,6.71,6.44,8.77q2.74,1.23,18.91,4.52c10.42,2.19,17,4.52,22.2,7.81,9.87,6.17,14.8,15.35,14.8,27.96,0,10.28-3.29,19.05-9.59,25.22-7.95,7.67-20.01,11.65-36.05,11.65-11.65,0-23.16-2.47-30.56-6.71-6.85-3.84-11.92-9.73-14.8-17.54-1.37-3.29-2.06-6.44-3.02-12.75l28.51-2.74Z" style="fill:#fff; stroke-width:0px;"/><path d="m1170.62,838.16c0,36.18-22.07,60.17-55.37,60.17s-55.23-23.44-55.23-59.76,21.65-59.34,55.37-59.34,55.23,23.03,55.23,58.93Zm-28.51.27c0-22.2-10.14-35.63-26.73-35.63s-27,13.57-27,35.63,10.28,36.18,27,36.18,26.73-13.71,26.73-36.18Z" style="fill:#fff; stroke-width:0px;"/><path d="m1212.69,871.88c0,12.88.14,17.82,1.1,23.85h-29.47c.96-6.03,1.23-11.51,1.23-23.44v-70.99c0-9.05-.27-13.57-1.1-20.01,5.62.27,9.46.41,20.01.41h39.61c12.06,0,16.58-.14,23.03-.96v26.04c-6.03-.69-11.38-.96-22.89-.96h-31.52v22.48h25.77c10.69,0,15.9-.28,21.93-.96v25.36c-6.03-.69-11.51-.96-21.93-.96h-25.77v20.15Z" style="fill:#fff; stroke-width:0px;"/><path d="m1349.47,895.73c-1.1-6.58-1.92-10.14-3.29-14.8l-3.7-11.65h-39.06l-3.7,11.65c-1.78,5.48-2.74,9.73-3.43,14.8h-32.07c2.06-4.11,3.29-7.4,6.58-16.72l29.6-82.51c2.47-6.72,3.7-10.83,4.39-14.8h35.77c.96,3.97,1.92,7.54,4.66,14.8l29.74,82.51c2.6,7.26,4.8,12.88,6.58,16.72h-32.07Zm-32.76-117.18l-7.26-9.73,32.07-29.33,14.39,19.19-39.2,19.87Zm6.03,26.59l-12.75,41.12h25.77l-13.02-41.12Z" style="fill:#fff; stroke-width:0px;"/></g><path d="m1452.52,817.36c.43-.69.12-2.2-1.11-1.86l-.8,2.61,1.91-.75Z" style="fill:#f5707c; stroke-width:0px;"/><path d="m1443.97,812.86c-1.42,1.3-3.04,3.56-2.01,5.89,1.37-2.53,1.75-1.51,3.22-4.51,1.24-.34,2.21.75,2.03,1.71.42-.68,1.96.5,2.57-1.14-1.69-1.94-3.75-1.95-5.84-.23-.48-.55-.06-1.24.03-1.72Z" style="fill:#f5707c; stroke-width:0px;"/><path d="m1321.95,813.01l.8.28c-.22-.16-.49-.25-.8-.28Z" style="fill:#f5707c; stroke-width:0px;"/><path d="m1246.39,814.18c.57-.08.8-.35.83-.58-.53.19-.96.36-.83.58Z" style="fill:#f5707c; stroke-width:0px;"/><path d="m1233.4,811.77c.28.07.51.1.77.15-.3-.23-.59-.35-.77-.15Z" style="fill:#f5707c; stroke-width:0px;"/><path d="m1321.95,813.01l-2.04-.74c-.11.85,1.06.59,2.04.74Z" style="fill:#f5707c; stroke-width:0px;"/><path d="m1427.37,819.66c.42-.14.76-.39,1.07-.72-.34.12-.68.23-1.02.31-.01.14-.03.26-.05.41Z" style="fill:#f5707c; stroke-width:0px;"/><path d="m1355.17,809.78l.61-.02c.17-.3.33-.66.47-1.07l-1.09,1.09Z" style="fill:#f5707c; stroke-width:0px;"/><path d="m1380.7,808.51c-.58-.08-.71,2.12-.9,3.09.3-.91.71-1.36,1.21-1.54,0-.42-.1-.91-.31-1.54Z" style="fill:#f5707c; stroke-width:0px;"/><path d="m1421.34,810.98l.71-.33c-.18.1-.5.2-.71.33Z" style="fill:#f5707c; stroke-width:0px;"/><path d="m1336.87,809.93c-.05-.32-.16-.61-.26-.77,0,.27.11.53.26.77Z" style="fill:#f5707c; stroke-width:0px;"/><path d="m622.89,850.84c.02-.16-.02-.25-.02-.39-.14.23-.18.38.02.39Z" style="fill:#f5707c; stroke-width:0px;"/><path d="m592.9,841l.41-.13c.03-.42.06-.83.05-1.23l-.45,1.36Z" style="fill:#f5707c; stroke-width:0px;"/><path d="m1209.71,809.77s.06.02.11.04c.61-.27.26-.21-.11-.04Z" style="fill:#f5707c; stroke-width:0px;"/><path d="m993.16,818.8c2.52,1.87-3.91,2.65-.14,4.7-.37-.85,3.24-3.53.14-4.7Z" style="fill:#f5707c; stroke-width:0px;"/><path d="m1426.7,819.4c-.34.04-.69.07-1.05.06.48.06.8.04,1.05-.06Z" style="fill:#f5707c; stroke-width:0px;"/><path d="m993.02,823.5s0,.02,0,.02l.39.19c-.16-.08-.25-.14-.39-.21Z" style="fill:#f5707c; stroke-width:0px;"/><path d="m1155.39,812.95c.12.38.35.67.59.94-.03-.22-.16-.49-.59-.94Z" style="fill:#f5707c; stroke-width:0px;"/><path d="m1196,814.68l-1.01-.26c.4.19.73.24,1.01.26Z" style="fill:#f5707c; stroke-width:0px;"/><path d="m1134.46,816.76c-.55-.15-.75-.45-1.48-.12.07.11.14.18.24.26.26-.31.61-.46,1.24-.13Z" style="fill:#f5707c; stroke-width:0px;"/><path d="m1112.58,817.53c.12.16.28.28.42.43.22-.05.47-.09.69-.14l-1.11-.29Z" style="fill:#f5707c; stroke-width:0px;"/><path d="m689.37,847.51c-.5-.6-.82-1.27-1.08-1.93.39,1.54-2.81,2.21,1.08,1.93Z" style="fill:#f5707c; stroke-width:0px;"/><path d="m1427.32,818.43c-.11.56-.29.84-.62.97.25-.03.49-.09.72-.14.05-.33.06-.64-.11-.82Z" style="fill:#f5707c; stroke-width:0px;"/><path d="m1134.17,834.08l-3.49-.2c.98.18,2.25.25,3.49.2Z" style="fill:#f5707c; stroke-width:0px;"/><path d="m846.39,841.83l-.79.29c.31.04.59-.03.79-.29Z" style="fill:#f5707c; stroke-width:0px;"/><path d="m1120.37,834.55c-.65-.75-1.32-1.18-2.01-1.45-.14.18-.3.32-.38.58l2.39.87Z" style="fill:#f5707c; stroke-width:0px;"/><path d="m688.28,845.55s0,.02,0,.02c0,0,0-.02,0-.02Z" style="fill:#f5707c; stroke-width:0px;"/><path d="m665.55,851.54c3.32-.05,1.46-2.87,2.11-4.55,3.93-.95,1.9,2.06,3.3,3.48,2.44-.85,4.25-3.56,6.09-3.51.15.47.52.63.12,1.24,2.53-2.38,7.75-.38,10.69-3.36.23.25.36.48.42.7-.54-1.43-.67-2.89-.6-3.94,1.48-.1,2.69-1.91,3.32-.05-.91-.02-.96.74-1.37,1.34l1.53-.87c1.49,2.66-2.09,1.01-2.02,3.01,3.01-.98,6.47-3.34,8.82-2.66.58,2.63-5.41,1.08-2.22,3.32l-3.63-.89c2.89,4.08-2.2-.22.48,4.16,4.76.6,5.25-1.53,10-.92,1.01-1.51-.43-2.16.59-3.67,6.62-2.87,5.51,6.48,10.33,2.78,1.22-1.81,1.6-5.17,5.17-3.52l-1.1,3.03c4.6.14,2.47-4.39,7.34-2.54-.81,1.21-3.57,1.12-2.86,1.45,3.19,2.26,2.14-1.77,4.53-1.85l.59,2.63c4.87-.58,10.18-2.68,15.57-3.35-.27.8-1.17,1.66.12,2.43,6.77-1.56,14.57-.17,21.2,1.17l2.43-2.37c.59,0,1.12,1,.5,1.46,2.59.78.08-1.46,1.28-2.4,1.45-.21,1.97,1.25,1.07,1.97,4.46-2.09,12.74-4.62,17.59-2.33l-.91.71c3.74.8,4.03-4.83,7.54-2.82l-.65.43c8.09.72,16.92-1.68,23.18,1.56,1.06-3.34,8.02,1.2,8.38-3.42,4.68,2.12,3.39,2.99,9.92,4.3,1.74.15,2.48-2.96,4.6-3.51l.13,2.4,2.82-2.62,1.64,2.82,1.98-.69c-.8-.12-1.74-1.02-1.64-1.72,3.1-1.2,7.7,1.41,7.82,2.64l7.34-2.29c-.13.97-1.36,1.35-2.32,2,3.87-2.59.81,2.51,4.35.14-.5-.53.21-1.44.28-1.93,1.86,1.39,5.97,1.26,9,.55l-.53,1.68c5.51.23,11.56-1.19,17.74-1.37-2.24-.7-1.83-3.58-.03-3.92l.81,2.52c1.11-1.61-1.92-.89.41-2.9,2.32.21,1.65,2.83.35,3.71l2.77-.98c.19.75-.45,1.17-.59,2.15,1.1-1.62,4.92,2.38,6.49-.41l.18.75c6.17-.19,8.94-1.16,13.96-1.46.02-2.2,2-1.78,3.44-3.6,3.72.57,7.87,2.16,12.32,1.82,3.09-1.2.85-1.89,2.21-3.24.3,1.99,4.74,1.65,2.48,3.16,5.33-.51,6.81-.63,13.51-2.49-.76-.79-1.6-1.12-1.19-1.82,1.21-.37,2.82.74,2.67,1.71l-.32.22c7.48-3.26,17.7,5.22,23.59.85l-.33.22,6.19-2.38c2.89.25-1.68,1.56.5,2.72,6.64-3.56,10.69.12,16.17-2.29,4.51,5.74,15.26-.94,21.2,2.62l-.38-1.38c1.45-1.41,1.84.73,2.96,1.01-.19-1.07-1.67-1.19-.76-1.98,12.66-2.11,26.33,1.13,39.41,1.93,4.78.21,2.46-7.27,8.59-4.16l-1.62,2.63c9.52-3.42,19.69-.57,29.02-3.51-.54.61-.53,1.39-1.45,1.41,2.05,1.8,7.36-.16,7.35-1.69,1.47.12.39,1.37,1.32,2.11,2.03,1.04,4.93-2.56,6.05-.73.19.3-.54.63-.9.78,1.27-.95,6.07.02,4.75-2.09,3.57.91,6.73-1.19,9.6,0,1.76-2.48,6.09.95,6.56-2.48-.13,3.54,6.3,2.63,8.48.9-.71,1.09,1.98,1.04,1.16,2.54,2.55-.14,4.87-.87,4.36-2.67,4.85,4.06,9.33-3.72,12.17,1.6,7.52-2.15,14.49-3.68,21.28-4.73-.13,3.52-7.53.61-7.11,4.29,6.42-1.67,10.05-4.82,16.49-4.19,1.68.42-.89,1.56-1.43,2.18,6.41-1.67,12.51-.11,18.19-2.22,0,.33-.61.71-1.19,1,1.13-.15,2.65.43,2.47-1.17l-1.09.47c-1.89-2.26,4.34-5,4.5-6.23-1.77,4.65,5.72.96,2.86,6.85.74-.33,1.65-1.12,1.44-2.18,1.12.27,1.49.89.41,2.14,4.03-1.01,2.53-2.66,6.21-2.75.01.78-.72,1.1-1.07,2.02,1.81-1.57,3.63-3.15,6.76-2.6-.17.47.21,1.07-.72,1.09,5.33-.42,8.96-4.33,14.87-3.07-1.61,3.42,2.03,1.04,2.44,3.94l3.12-.98-1.31-1.37c2.76-.04,5.13-2.25,7.53-1.38l-2.01,1.27,5.15-.73-2.96-1c2.74-1.6-.43-3.67,3.27-2.99-.74.32,2.76-.06,4.26,1.61,0,0,0,0,0,0,1.33-.97,2.7-2,4.77-1.34.56.91-.32,3.23.05,3.84,1.26-2.48,6.44-.89,8.05-3.54-.55.63-.53,2.16-.33,2.46l1.06-2.02c1.3.59,1.5.89,1.33,2.11,3.86.23-1.35-3.65,3.27-2.22-.35.17-.17.46-.91.79,4.61.67,8.81-1.56,13.05-.73,1.34,2.89-3.65.84-2.15,3.26,6.05-.74,12.45-3.94,18.35-3.45l-1.11-.29c.67-4.16,4.44,1.89,7.35-.16-.72.33-.88,2.33-.69,1.86,4.05.53,8.19-1.3,14.24-2.81l-.72,1.09c2.4.87,6.26.33,8.84.73.72-1.09,2.19-.96,1.25-2.48,8.1,5.78,14.95-3.76,22.13,1.04-.84.04-1.96,1-1.3.98l5.93-1.18c-.53-1.79-.82-1.06-2.12-2.42.72-1.09,2.37-1.98,3.85-2.03-2.64,1.29.12,2.89,1.32,3.86-.21-.55.16-1.17.05-1.73,3.23,3.1.4-3.64,4.73-1.63l-.19.95c1.58-.54,3-1.84,4.73-1.63.78,2.06-1.66,1.03-1.71,2.75,2.41-.2,4.63-4.11,6.88-2.11-1,.62-2.48.68-3.48,1.29,2.46,2.37,2.72,1.73,4.5,2.06l-.18-.05,4.12.97-1.06-.63c2.83-5.54,6.11-1.2,10.06-4.9-3.84,3.5-.59,1.97-.81,4.34,1.06.62,2.67,1.3,2.24,1.98,1.86-1.97,3.26,1.39,5.88-1.49.15.76,2.06,0,1.69,1.93,2.48-.68-.64-1.3-.46-2.26,3.76-2.73,9.16,2.84,14.58-.91,4.73-1.63,5.52-4.22,9.92-5.65,1.54,1.17-1.13,2.81-1.13,2.81,2.45,1.04,4.26.77,6.51-.18-.44.68.06,1.23.78,2.06,1.82-.26,1.13-2.81,3.57-1.77-.38.86-.87,2.24-1.72,3.12,2.13-.77,4.2-2.26,6.41-3.03.64,1.3-1.28,2.06-2.03,2.95,2.48-.68,6.45-1.42,7.15-3.55l-1.63-.69c.91-.13.53,1.78-.13,2.19-2.09,1.72-3.12-.62-3.27-1.38l1.57-.54c-1.78-4.4-6.35.93-9.55.78l1.22-3.29-3.18,2.8c-.73-.82-1.26-2.62.3-3.15-2.34-1.52-1.99,1.22-4.02-.5-.23-.27-.13-.43.06-.57l-2.2,1.04c.42-.7-.45-2.28.94-1.86-4.08-1.73-6.39,2.65-7.99.25l.33-.21c-5.53,1.29-.46,2.4-4.54,5.34l-3.01-5.78-.47,2.4c-.58-.07-1.72-.21-1.54-1.16-2.08,1.7.4,1.02-.79,2.6-2.84-2.07-7.59,1.28-8.35-2.49-.93,1.84,2.69,1.3-.22,2.66-.98-4.05-3.39.82-5.98-.97.7-2.13,3.14-1.1.54-2.89-1.4,3.61-4.95-.61-7.06.14,0,2.84-4.59,1.34-8.14,2.41.19-.96-6.78-1.33-10.15-2.24l.08-.48c-.55,2.88-4,2.46-6.48,3.14.04-1.72.47-2.41,1.79-3.22l-2.35.09c-.52.94-1.24,1.44-2.75,1.82l.52-2.16c-3.12.22-6.21,2.73-10.28,1.44-.16,2,3.39,5.45-.82,6.93-.19-1.07-.42-2.91.68-3.39-.36.16-1.27.94-2.02.51l1.64-1.87c-1.86-.73-.91,1.55-2.38,1.43-.02-1.54-1.12-1.06-.95-2.29.37-.16,1.3.59,1.84-.03-1.66-.22-3.69-1.06-4.39-2.21.17.87.07,2.07-1.13,2.31-3.12.22-1.13-1.81-2.98-2.54-.72,1.1-2.75.06-2.73,2.36-.92.02-1.12-1.05-1.5-1.66-1.58,1.07-7.55.55-5.64,2.93l.42.15c-.08.05-.17.06-.26.11h.01s-.01,0-.01,0c-5.23,2.47-11.06-.93-16.29.24l-.02-.77c-3.11.99-6.97.76-9.16,2.49-.93.03-2.24-1.33-1.88-2.26-2.38.66-2.62,1.53-6.13.38,2.37-1.43-.87-1.16,2.44-1.07-3.14-.56-3.89-1.77-7.17.45,1.07-2.01-2.43-2.4-3.9-1.76l2.23,1.34c-1.66.34-3.12.22-4.61.1l.71-2.62c-6.49-2.94-11.33,5.76-16.37.65-1.63,1.87,3.51,1.16,2.07,3.33-2.95-.25-6.14-3.87-7.06-3.84-4.07-1.3-3.62,3.92-7.87,3.08.57.9,1.16,3.36-1.95,4.34-2.95-.24-3.75-3.76-1.92-4.56.7-.1,1.05.18,1.03.49.94-.37,2.17-.81.97-1.77l-.35.94c-1.49-.89-5.53-.66-4.63-2.21-2.19.96-.9,1.55.76,1.97-3.82-1.21-5.89.16-9.8-.61.63.49,1.24,1.56.63,1.57-5.73-.95-2.45,1.84-6.29,2.38-2.24-1.34.67-3.39-3.17-2.08-2.4-.87-.59-2.44.33-3.22-3.48,1.9-6.65-.95-8.68-1.2l1.84-.81c-1.1.48-2.01.5-2.94.53l1.13,1.81c-1.1-.29-2.03-.26-2.04-1.03-1.09,1.25.97,3.05-1.21,4.78-1.49-.89-4.41,1.16-4.99-1.28,4.62.68-.59-2.45,3.28-2.98-.74.32-1.65.34-2.76.05-.17-.27.14-.51.43-.66-4.46-2.04-1.92,2.85-6.47,2.94.53-1.4-1.14-2.59-1.88-2.27,1.83-.03.96,2.28-.69,3.4-2.95-.98-3.14.91-4.67.84l1.76.45c-.54,1.4-2.01,1.27-4.03,1.78-.21-1.07,1.82-.81,1.08-1.25-2.17,2.51-5.19-2.34-8.28-.6-1.49-.89-.23-2.59-1.53-3.19-3.47,1.92-3.89-1.77-7.54-.16,1.13,1.82,1.3,1.36-1.25,3.26l6.05-1.52-3.82,2.84c1.84-.04,3.84-1.3,4.96-1.02-1.81,1.58-1.64,1.11-.7,2.62-2.61-2.7-4.94,1.8-7.91.01l-.07-4.61c-4.45-1.9-7.69,2.63-13.41,1.66l1.85.74c-.7,1.85-3.5.38-5.31,1.18.12-1.55-1.05-2.07-1.87-3,.13,1.14-4.16.04-4.57,3.13l-2.61-1.94c-4.62-.67-5.08,4.56-9.51,4.19,1.27-1.72-.77-2.74,2.14-4.04-1.47.03-2.81-.2-2.79.86-.89-.93-4.01,2.21-5.41.8-.6.7-.75,2.32-2.4,2.24-.19-.31-.02-.76-.02-.76.02.76-2.55,1.12-1.05,2.78-4.7-4.65-12.66.78-16.75-3.21-3.2.63-7.05,1.25-9.96,1.47.17-.47-.02-.77.54-.63-4.07-1.29-2.32,4.5-6.96,3.06-2.42-2.41,2.39-1.43.89-2.32-.81-5.04-5.5.88-8.68-1.97l.74-.32c-2.41-1.64-5.68,2.12-9.54,1.88,0,0,.17-.45,0-.77-2.54,2.67-7.5,3.7-11.17,4.54,1.08-2.02,1.65-1.11.87-3.1-1.65.34.6,3.22-2.7,3.89-1.11-1.05-3.54-1.91-3.93-4.05l3.12-.22c-1.7-2.73-4.04.23-5.7-.19l.17-1.22c-4.77.56-4.74,3.62-9.89,3.58l.56.9c-2.71,3.13-2.42-1.63-5.14.72l-.95-3.05c-1.83.81-6.4,3.2-9.71,3.89,1.81-2.35,5.66-3.65,8.02-5.08-1.84.04-6.24.44-7.15,1.99.73-.32,1.64-1.11,2.39-.66-2.17,2.5-5.1,3.79-8.77,3.86.45-5.99-9.6-1.18-12.42-5.72-6.41,2.43-12.9-.5-20.44.11,2.84,4.55-2.2.21-1.57,4.96-1.75.37-2.42.31-2.59,0l-5.43-2.66c-1.31-1.34,1.64-1.11,1.44-2.17-3.86-.23-1.69-1.97-4.28-3.14.58,1.69-1.26,2.49-3.47,1.91l3.17,2.09c-5.3,2.72-4.79-3.84-10.13-1.14l1.66-1.56c-2.75.98-10.27.32-12.87,4.24-.51-.53-1.21-1.81,0-2.2-6.67-.35-14.67,4.58-19.93,2.4l.46-1.18c-1.23.38-2.09,2.26-3.68,1.14.06-.48.46-1.18-.12-1.23-.64.42-3.23,2.16-4.9,1.53l1.36-1.36c-6.54-1.3-9.85,3.53-15.27,4.52-.1-3.43-5.25-4.37-7.82-4.84l.07-.49c-7.57-.17-12.74,3.28-19.7,4.87-4.47-3.58-14.77-1.05-21.83-2.91,1.09.59-.08,2.68-1.31,3.07-1.66-.64-4.45,2.54-4.3-.62l.59.04c-1.34-3.04-4.68-2.11-7.31-2.1l-.29,4.13c-7.08-5.75-17.95,2.82-21.88-2.42-1.62,1.09-3.68,1.14-5.29,2.23v-2.21c-4.61-.41-6.91-.6-12.58.12l1.11-1.62c-3.21-.03-3.83,6.5-6.78,6.73l-1-3.26c-5.59.24-11.35-2.46-16.78.72.07-.48.21-1.44,1.11-1.61-2.64,0-10.26-1.88-9.15,2.61-.17-2.94-5.78-.09-8.76,1.31l.4-2.19c-2.46,2.86-2.51,3.62-6.04,4.52-.85-.25-.8-1.71.34-1.2-2.85-1.04-2.12,2.13-5.57,1.09l1.22-1.43c-2.9-.07-2.64.67-4.18,2.34-1.79.93-5.51-.36-6-2.31-.35,1.21-1.88,2.87-3.6,2.36-.26-.73.35-1.22.65-1.45-4.89-1.31-7.11,2.77-10.51.75-.09-.72-.32-1.07-.61-1.28,3.84-.08,6.94-.07,6.66.1-.07-2-3.18-2.25-.81-5.1-2.44,1.59-6.59,5.02-9.65,4.18-.15-.19-.3-.37-.42-.68l.31-.24c-.71-.18-1.32.03-1.9.39-.98-.3-1.6-.52-2.53-.52-.41-1.64-3.59-.77-5.14-.8.2,2.19-1.84,1.9.12,3.65-.25-.15.28-.27,1.31-.4.23-.07.5-.11.65-.25-.03.06-.06.13-.1.2,1.01-.1,2.34-.19,3.84-.28-1.18,1.16-2.43,2.13-4.18.98-.75,1.44-1.57,2.91-2.04,3.61-2.22-2.98-6.36-4.5-7-6.36-4.68,1.39-11.11,1.19-13.94,5.41-1.33.58-1.59-1.13-2.11-1.76.76-.44,1.69-.41,2.09-1.01-2.65,1.15-7.95.68-8.49,3.58-3.43-1.18,1.81-2.71-2.82-2.08l.6-.9c-9.31-4.28-14.63,7.85-24.98,2.3.72.34,1.07.49,1.23.97-11.66-2.21-23.76,3.26-35.32-.48-3.27-.72-3.56,1.13-5.5,2.59l-.78-2.33-3.29,2.83c-4.73,2.15-8.51-5.49-14.46-1.52l.84,1.56c-2.19-.22-6.88,1.17-6.58-.66-.21.3-.66,1.67-1.54.88l-.11-1.23-5.29,2.29c-4.19-.75.48-4.91-5.59-4.94-2.24.55-6.3,3.81-5.43,4.6.91.03,2.35.69,2.46,1.92l-2.04.71c-.25,3.64-1.71,7.41,3.44,9.78l3.45-2.34,1.2,1.72-2.97.21c1.74,1.6,2.76.1,3.92-.95.32.93.83,1.56,1.55,1.89l3.35-3.58c.47,1.41-1.46,2.87.89,3.57,1.57-1.67-1.67-3.13.99-4.28,1.74,1.59,1.3,2.95,3.23,1.47.31.93-.09,1.54-.86,1.97,1.73-1.18,4.65-.63,5.5-2.59,1.83,1.98,5.94-.73,5.88,2.71.53-.84,3.01-2.8,4.63-3-2.82,4.21,6.07.03,5.44,4.47,2.06-3.77,7.86-1.91,11.67-4.1-.21.3-.61.91-.96.73,2.19.23,2.87,1.33,4.29,1.98.18-3.06,3.55-3.88,5.32-5.83,2.78,2.85-1.5,3.64-.57,6.44-.22-2.47,4.57-2.63,3.59-4.66,2.11,1.75,1.79.82,2.94,3.32.23-3.83,1.88-.71,3.5-3.12,3.03,1.78.89,3.55,4.1,2.28,1.59,1.12-1.26,2.57-1.26,2.57Zm77.17-9.25s0,.04,0,.04c-.66.07-1.23.14-1.59.18.33-.04.79-.1,1.59-.22Zm6.5-.26c-.79-.06-1.78-.04-2.82.01-.25-.75-.03-1.54.62-1.52-.34.52,1.21.9,2.2,1.51Zm-14.28-14.71c1.02-.35,1.38.07,1.53.52-.48.05-1.05.15-1.79.32-.03.08-.09.18-.11.27.08-.42.18-.82.37-1.11Z" style="fill:#f5707c; stroke-width:0px;"/><path d="m733.2,830.25c-.15.05-.23.15-.42.17.22.19.42.34.63.47.12-.24.24-.47.34-.7-.19.02-.38.03-.55.05Z" style="fill:#f5707c; stroke-width:0px;"/><path d="m1322.89,813.33l-.14-.05c.12.08.22.17.3.3-.1-.1-.1-.17-.16-.26Z" style="fill:#f5707c; stroke-width:0px;"/><polygon points="839.18 843.16 839.15 842.6 838.6 843.1 839.18 843.16" style="fill:#f5707c; stroke-width:0px;"/><path d="m1358.96,819.63c.07.19.22.39.49.54-.03-.14-.24-.33-.49-.54Z" style="fill:#f5707c; stroke-width:0px;"/><path d="m1374.46,819.59l2.21.71c-.96-.41-1.66-.6-2.21-.71Z" style="fill:#f5707c; stroke-width:0px;"/><path d="m1386.39,820.27c.14-.39.17-.68.2-.95,0,0-.02,0-.02-.01l-.18.96Z" style="fill:#f5707c; stroke-width:0px;"/><path d="m1197.32,829.32c-.16.02-.32.05-.46.11-1.06.46-.34.27.46-.11Z" style="fill:#f5707c; stroke-width:0px;"/><path d="m1253.43,822.27c-.58.42-1.16.83-1.77,1.1,1.01.13,1.79.15,1.77-1.1Z" style="fill:#f5707c; stroke-width:0px;"/><path d="m1134.55,834.11s0-.02,0-.04c-.13.01-.25,0-.39.01l.38.02Z" style="fill:#f5707c; stroke-width:0px;"/><path d="m1249.04,823.42c1.02.4,1.85.28,2.62-.05-.83-.12-1.8-.31-2.62.05Z" style="fill:#f5707c; stroke-width:0px;"/><path d="m1437.99,819.5l.58.07c-.01-.15.02-.26.06-.35l-.63.28Z" style="fill:#f5707c; stroke-width:0px;"/><path d="m1438.62,819.22l.63-.28c-.29,0-.55.04-.63.28Z" style="fill:#f5707c; stroke-width:0px;"/><path d="m1440.57,818.34l-1.32.6c.46-.01,1.04.04,1.32-.6Z" style="fill:#f5707c; stroke-width:0px;"/><path d="m1422.2,819.03l-.15.8c.09-.17.15-.43.15-.8Z" style="fill:#f5707c; stroke-width:0px;"/><path d="m1417.43,819.42c1.15.14,2.92,1.6,4.5,1.04l.13-.64c-.71,1.21-3.59-1.78-4.62-.41Z" style="fill:#f5707c; stroke-width:0px;"/><path d="m1397.11,810.28l4.03.5c-.73-.82-1.69-1.93.13-2.19-5.14-2.35,1.11,1.86-4.16,1.7Z" style="fill:#f5707c; stroke-width:0px;"/><path d="m1384.64,809.48c2.14-.47-.07-1.23.03-1.71-1.34.82-1.66,1.02-.03,1.71Z" style="fill:#f5707c; stroke-width:0px;"/><path d="m1294.77,812.55l.15-2c-1.65.34.01.77-.15,2Z" style="fill:#f5707c; stroke-width:0px;"/><polygon points="1277.94 823.44 1279.6 824.62 1280.31 822.77 1277.94 823.44" style="fill:#f5707c; stroke-width:0px;"/><polygon points="1267.31 809.58 1268.02 809.27 1265.28 810.09 1267.31 809.58" style="fill:#f5707c; stroke-width:0px;"/><path d="m1116.4,815.46l.59,2.44c1.11-.48,1.25-3.25-.59-2.44Z" style="fill:#f5707c; stroke-width:0px;"/><path d="m1051.33,820.18c-.75-1.2-2.61-1.93-3.7-.69,1.47.12,2.96,1.03,3.7.69Z" style="fill:#f5707c; stroke-width:0px;"/><polygon points="855.79 822.87 857.07 822 854.62 822.77 855.79 822.87" style="fill:#f5707c; stroke-width:0px;"/><path d="m1397.18,877.71c.48-.75.46-2.56-.67-2.33l-1.11,2.95,1.78-.62Z" style="fill:#f5707c; stroke-width:0px;"/><path d="m1390.47,871.27c-1.44,1.33-3.21,3.76-2.69,6.64,1.59-2.78,1.76-1.53,3.51-4.85,1.13-.23,1.8,1.19,1.49,2.28.47-.74,1.62.86,2.42-.99-1.16-2.51-2.95-2.8-5.04-1.07-.33-.71.15-1.46.3-2.02Z" style="fill:#f5707c; stroke-width:0px;"/><path d="m1284.47,854.77l.65.44c-.17-.22-.39-.36-.65-.44Z" style="fill:#f5707c; stroke-width:0px;"/><path d="m1218.65,845.81c.51-.02.75-.3.81-.57-.49.15-.89.29-.81.57Z" style="fill:#f5707c; stroke-width:0px;"/><path d="m1207.75,841.22c.23.12.43.19.64.28-.22-.31-.46-.49-.64-.28Z" style="fill:#f5707c; stroke-width:0px;"/><path d="m1284.47,854.77l-1.66-1.15c-.23.98.82.83,1.66,1.15Z" style="fill:#f5707c; stroke-width:0px;"/><path d="m1374.97,876.98c.39-.11.72-.36,1.05-.7-.32.1-.62.18-.94.22-.03.16-.06.3-.11.47Z" style="fill:#f5707c; stroke-width:0px;"/><path d="m1313.84,855.52l.54.05c.2-.33.39-.73.58-1.19l-1.12,1.13Z" style="fill:#f5707c; stroke-width:0px;"/><path d="m1336.22,857.52c-.49-.17-.95,2.39-1.27,3.5.4-1.03.83-1.5,1.3-1.65.06-.49.06-1.08-.03-1.85Z" style="fill:#f5707c; stroke-width:0px;"/><path d="m1371.12,865.97l.67-.29c-.18.09-.46.16-.67.29Z" style="fill:#f5707c; stroke-width:0px;"/><path d="m1297.91,853.19c0-.39-.04-.73-.1-.94-.04.32.01.64.1.94Z" style="fill:#f5707c; stroke-width:0px;"/><path d="m671.21,803.62c.04-.18.03-.3.05-.46-.16.25-.22.42-.05.46Z" style="fill:#f5707c; stroke-width:0px;"/><path d="m646.74,787.98l.37-.1c.09-.48.18-.96.24-1.44l-.61,1.54Z" style="fill:#f5707c; stroke-width:0px;"/><path d="m1187.49,835.63s.05.04.09.06c.57-.23.26-.22-.09-.06Z" style="fill:#f5707c; stroke-width:0px;"/><path d="m997.95,816.63c1.89,2.54-3.82,2.58-.87,5.5-.19-1.04,3.38-3.7.87-5.5Z" style="fill:#f5707c; stroke-width:0px;"/><path d="m1374.43,876.58c-.3,0-.61-.02-.92-.08.41.13.69.15.92.08Z" style="fill:#f5707c; stroke-width:0px;"/><path d="m997.08,822.13s0,.02,0,.02l.31.28c-.13-.12-.2-.2-.3-.3Z" style="fill:#f5707c; stroke-width:0px;"/><path d="m1139.8,831.94c.05.47.2.83.36,1.18.01-.27-.06-.6-.36-1.18Z" style="fill:#f5707c; stroke-width:0px;"/><path d="m1174.79,839.52l-.84-.44c.32.27.59.39.84.44Z" style="fill:#f5707c; stroke-width:0px;"/><path d="m1121.01,833.55c-.45-.25-.58-.62-1.27-.35.05.14.1.24.16.34.27-.33.61-.46,1.1.01Z" style="fill:#f5707c; stroke-width:0px;"/><path d="m1101.88,831.45c.08.21.2.37.3.56.2-.03.42-.05.62-.07l-.92-.49Z" style="fill:#f5707c; stroke-width:0px;"/><path d="m729.49,808.8c-.34-.77-.51-1.6-.63-2.42.09,1.87-2.79,2.21.63,2.42Z" style="fill:#f5707c; stroke-width:0px;"/><path d="m1375.12,875.53c-.18.64-.38.94-.69,1.05.22,0,.44-.03.65-.07.1-.38.15-.74.04-.98Z" style="fill:#f5707c; stroke-width:0px;"/><path d="m1117.99,853.83l-3-.72c.82.35,1.91.6,3,.72Z" style="fill:#f5707c; stroke-width:0px;"/><path d="m866.78,823.59l-.73.23c.26.09.52.04.73-.23Z" style="fill:#f5707c; stroke-width:0px;"/><path d="m1105.93,852.5c-.44-.97-.96-1.56-1.51-1.97-.15.19-.31.34-.43.63l1.94,1.35Z" style="fill:#f5707c; stroke-width:0px;"/><path d="m728.86,806.36s0,.03,0,.03c0,0,0-.02,0-.03Z" style="fill:#f5707c; stroke-width:0px;"/><path d="m708.16,810.28c2.89.39,1.73-3.17,2.56-5.05,3.56-.58,1.32,2.67,2.31,4.54,2.26-.66,4.26-3.59,5.85-3.28.06.57.35.81-.1,1.47,2.58-2.44,6.79.62,9.82-2.48.16.32.23.62.25.88-.24-1.75-.12-3.48.11-4.7,1.3.09,2.65-1.88,2.89.39-.79-.15-.95.73-1.4,1.39l1.47-.81c.87,3.32-1.98.9-2.24,3.25,2.77-.74,6.15-3.04,8.08-1.91.08,3.17-4.87.52-2.46,3.6l-3.01-1.54c1.86,5.18-1.87-.55-.25,4.95,4.04,1.36,4.81-1.08,8.83.29,1.12-1.63-.02-2.6,1.1-4.23,6.21-2.47,3.75,8.35,8.53,4.67,1.35-1.96,2.22-5.85,5.06-3.43l-1.44,3.41c3.97.79,2.85-4.82,6.78-1.98-.9,1.3-3.28.82-2.72,1.31,2.41,3.08,2.14-1.79,4.23-1.56l.09,3.17c4.32-.02,9.27-1.76,14.06-1.8-.36.9-1.28,1.79-.28,2.86,6.13-.9,12.68,1.79,18.22,4.27l2.49-2.45c.51.09.81,1.32.2,1.78,2.13,1.27.3-1.7,1.5-2.64,1.3-.05,1.51,1.74.62,2.46,4.21-1.85,11.81-3.68,15.65-.33l-.9.71c3.12,1.45,4.27-5.12,7-2.27l-.63.41c6.91,1.95,14.96.34,19.89,5,1.45-3.77,6.78,2.5,7.83-2.86,3.72,3.13,2.47,3.97,7.93,6.4,1.48.42,2.63-3.13,4.56-3.49l-.27,2.83,2.87-2.69.98,3.53,1.83-.53c-.68-.25-1.34-1.43-1.15-2.24,2.88-.98,6.46,2.71,6.37,4.17l6.74-1.68c-.27,1.12-1.4,1.39-2.34,2.02,3.78-2.51.3,3.05,3.76.75-.35-.69.42-1.66.55-2.22,1.39,1.89,4.99,2.3,7.73,1.87l-.73,1.89c4.75,1.03,10.23.18,15.63.82-1.83-1.12-1.02-4.46.6-4.61l.3,3.06c1.23-1.74-1.53-1.31.82-3.34,1.98.57.98,3.55-.29,4.4l2.56-.77c.05.91-.58,1.32-.86,2.44,1.21-1.75,3.9,3.47,5.7.4l.04.91c5.39.62,7.95-.14,12.36.2.37-2.57,2.03-1.81,3.56-3.75,3.14,1.18,6.5,3.61,10.41,3.82,2.88-.98,1.04-2.1,2.44-3.5-.06,2.37,3.85,2.58,1.65,4.05,4.71.13,6.01.19,12.13-1.07-.53-1.03-1.21-1.53-.75-2.29,1.11-.27,2.33,1.26,2.05,2.37l-.31.21c7.02-2.8,14.54,8.54,20.35,4.22l-.32.21,5.75-1.95c2.47.68-1.71,1.6,0,3.26,6.34-3.27,9.26,1.6,14.41-.48,3,7.35,13.41.99,18,5.98l-.11-1.67c1.49-1.46,1.48,1.11,2.41,1.59,0-1.28-1.26-1.63-.35-2.42,11.34-.74,22.69,4.92,33.92,7.66,4.12.9,3.3-8.19,8.13-3.71l-1.83,2.87c8.82-2.71,17.19,2.03,25.77-.15-.57.65-.68,1.55-1.49,1.45,1.5,2.4,6.42.82,6.65-.98,1.26.35.12,1.66.81,2.66,1.6,1.49,4.69-2.33,5.38-.03.12.37-.57.66-.91.8,1.26-.94,5.27.86,4.46-1.81,2.96,1.55,6.04-.48,8.34,1.3,1.92-2.67,5.14,1.95,6.1-2.01-.68,4.13,5.05,3.95,7.22,2.21-.79,1.18,1.56,1.49.6,3.14,2.24.19,4.37-.36,4.21-2.53,3.56,5.42,8.7-3.09,10.31,3.54,6.87-1.5,13.17-2.33,19.24-2.65-.67,4.12-6.63-.32-6.86,4.06,5.84-1.08,9.5-4.28,14.99-2.66,1.39.73-1.02,1.71-1.59,2.36,5.84-1.08,10.88,1.58,16.16-.12-.06.38-.65.75-1.19,1.01,1.01-.02,2.24.86,2.33-1.03l-1.02.4c-1.28-2.91,4.56-5.27,4.9-6.7-2.28,5.21,4.82,1.9,1.39,8.43.69-.28,1.61-1.08,1.6-2.36.93.47,1.15,1.24.01,2.57,3.66-.63,2.62-2.77,5.83-2.38-.11.91-.8,1.19-1.25,2.23,1.82-1.6,3.66-3.2,6.29-2.12-.22.53.01,1.28-.8,1.18,4.7.24,8.48-3.85,13.41-1.57-1.95,3.79,1.6,1.5,1.49,4.96l2.87-.72-.92-1.79c2.4.32,4.81-1.94,6.76-.59l-1.95,1.21,4.59-.15-2.41-1.58c2.63-1.5.22-4.37,3.32-3.06-.69.28,2.41.31,3.44,2.47,0,0,0,0,0,0,1.31-.96,2.67-1.97,4.36-.93.34,1.15-.79,3.75-.57,4.51,1.49-2.74,5.73-.17,7.56-3.06-.58.66-.8,2.46-.68,2.85l1.25-2.22c1.03.87,1.16,1.25.82,2.66,3.31.8-.59-4.47,3.19-2.15-.33.15-.22.52-.91.8,3.9,1.42,7.9-.62,11.45.93.7,3.57-3.31.49-2.39,3.54,5.38-.04,11.44-2.92,16.49-1.54l-.91-.49c1.25-4.79,3.56,2.83,6.41.82-.68.29-1.13,2.61-.9,2.09,3.43,1.17,7.32-.4,12.82-1.35l-.8,1.18c1.95,1.35,5.39,1.25,7.56,2.06.8-1.18,2.06-.83,1.48-2.74,6.11,7.89,13.59-2.37,19.06,4.25-.73-.07-1.87.9-1.28.97l5.34-.58c-.18-2.17-.54-1.36-1.46-3.13.8-1.19,2.38-2,3.67-1.85-2.5,1.15-.36,3.41.53,4.71-.1-.67.33-1.35.32-2.02,2.31,4.08.93-4.22,4.37-1.27l-.32,1.09c1.46-.42,2.9-1.75,4.37-1.26.35,2.52-1.61.98-1.93,2.99,2.12.09,4.67-4.19,6.31-1.53-.97.59-2.26.45-3.23,1.03,1.76,3.11,2.08,2.41,3.58,3.03l-.14-.08,3.43,1.7-.82-.88c3.35-6.11,5.5-.57,9.52-4.37-3.89,3.59-.82,2.23-1.4,4.98.82.87,2.11,1.89,1.63,2.63,1.93-2.06,2.61,2.08,5.34-.94,0,.91,1.79.29,1.16,2.49,2.26-.46-.34-1.62-.04-2.72,3.7-2.69,7.51,4.58,12.81.92,4.37-1.27,5.47-4.2,9.52-5.28,1.15,1.58-1.43,3.14-1.43,3.14,1.96,1.55,3.58,1.48,5.68.68-.49.74-.15,1.44.35,2.52,1.62-.06,1.43-3.14,3.39-1.59-.47.96-1.11,2.5-1.99,3.42,1.97-.62,4.01-2.08,6.05-2.67.34,1.62-1.44,2.24-2.24,3.18,2.27-.46,5.83-.79,6.77-3.18l-1.31-1.04c.81-.03.18,2.17-.46,2.55-2.09,1.73-2.61-1.16-2.62-2.07l1.45-.42c-.84-5.41-5.66.23-8.42-.39l1.59-3.69-3.21,2.85c-.5-1.06-.68-3.24.76-3.66-1.79-2.11-1.92,1.16-3.41-1.13-.15-.35-.05-.52.15-.66l-2.08.92c.47-.76-.03-2.73,1.11-2.05-3.27-2.59-5.98,2.24-6.98-.8l.32-.2c-5.01.75-.78,2.75-4.8,5.64l-1.69-7.19-.79,2.75c-.49-.16-1.46-.48-1.15-1.58-2.08,1.71.18,1.25-1.1,2.95-2.14-2.82-6.8.46-6.85-4.07-1.1,2.03,2.13,1.9-.61,3.1-.21-4.89-3.07.49-5.04-1.95.95-2.4,2.9-.86.93-3.32-1.8,4.04-4.2-1.39-6.15-.8-.46,3.33-4.2.94-7.45,1.71.32-1.1-5.68-2.48-8.46-4.01l.15-.55c-.94,3.31-3.87,2.34-6.13,2.8.31-2.01.79-2.76,2.07-3.53l-2.06-.21c-.6,1.03-1.31,1.53-2.68,1.76l.79-2.46c-2.75-.16-5.83,2.36-9.16.29-.46,2.33,2.07,6.86-1.82,8.02,0-1.29.11-3.48,1.14-3.89-.34.13-1.25.93-1.84.32l1.72-1.97c-1.5-1.12-1.03,1.69-2.29,1.35.23-1.81-.8-1.4-.46-2.82.35-.14,1.03.87,1.6.21-1.41-.48-3.03-1.75-3.46-3.19.01,1.04-.27,2.44-1.35,2.56-2.75-.17-.69-2.28-2.19-3.39-.8,1.19-2.4-.31-2.75,2.4-.8-.1-.81-1.38-1.03-2.15-1.55,1.04-6.64-.39-5.37,2.67l.34.23c-.07.05-.15.04-.24.09h.01s-.01,0-.01,0c-4.93,2.18-9.46-2.6-14.19-1.95l.11-.91c-2.86.73-6.18-.06-8.36,1.67-.81-.09-1.73-1.87-1.27-2.91-2.17.45-2.52,1.44-5.39-.39,2.29-1.35-.57-1.48,2.29-.92-2.64-1.08-3.1-2.6-6.3-.45,1.25-2.21-1.73-3.15-3.1-2.6l1.73,1.87c-1.5.18-2.75-.17-4.02-.51l1.04-2.98c-5.17-4.33-10.76,5.21-14.33-1.48-1.71,1.97,2.87,1.84,1.27,4.19-2.52-.7-4.71-5.38-5.52-5.47-3.33-2.08-3.77,4.1-7.33,2.54.35,1.14.47,4.1-2.39,4.82-2.53-.69-2.65-4.92-.93-5.62.63-.02.89.36.82.72.87-.3,2.01-.65,1.13-1.95l-.45,1.05c-1.15-1.25-4.7-1.53-3.67-3.22-2.06.82-1.03,1.7.35,2.42-3.12-1.94-5.14-.62-8.42-2.05.47.66.83,2,.29,1.92-4.83-1.9-2.42,1.83-5.84,1.93-1.73-1.87,1.12-3.89-2.42-2.87-1.95-1.35-.12-2.94.8-3.74-3.32,1.76-5.62-2.02-7.35-2.6l1.73-.7c-1.03.42-1.83.31-2.64.22l.69,2.28c-.91-.49-1.72-.58-1.6-1.49-1.14,1.32.35,3.71-1.82,5.45-1.15-1.25-4.01.76-4.13-2.18,3.9,1.42-.12-2.95,3.32-3.05-.69.27-1.49.17-2.41-.32-.11-.34.2-.58.48-.72-3.55-3.01-2.12,3.08-6.09,2.57.68-1.57-.58-3.19-1.27-2.92,1.6.21.47,2.8-1.14,3.89-2.41-1.55-2.88.64-4.19.34l1.46.76c-.7,1.57-1.95,1.22-3.78,1.54-.01-1.29,1.71-.7,1.14-1.32-2.29,2.65-4.13-3.46-7.1-1.83-1.15-1.24.21-3.08-.82-3.95-3.32,1.77-3.09-2.6-6.53-1.21.69,2.29.91,1.78-1.6,3.66l5.5-.95-3.77,2.81c1.6.21,3.55-1,4.47-.52-1.83,1.61-1.6,1.08-1.03,2.98-1.84-3.53-4.57,1.43-6.87-1.07l.68-5.42c-3.56-2.84-7.1,2.03-11.92.12l1.49,1.12c-.9,2.08-3.1-.04-4.8.66.35-1.8-.58-2.57-1.14-3.77-.07,1.35-3.62-.52-4.47,3.05l-1.95-2.63c-3.9-1.42-5.15,4.66-8.93,3.62,1.38-1.84-.23-3.32,2.51-4.45-1.28-.16-2.41-.62-2.56.63-.63-1.22-3.84,2.05-4.83.2-.63.74-1.02,2.62-2.45,2.31-.12-.38.1-.89.1-.89-.1.89-2.4.97-1.36,3.11-3.34-6.09-11.12-.81-14.04-6.05-2.88.3-6.32.51-8.89.36.22-.52.11-.9.57-.66-3.33-2.07-2.74,4.97-6.53,2.64-1.72-3.16,2.3-1.35,1.15-2.6.1-6.03-4.92.28-7.23-3.5l.69-.28c-1.83-2.25-5.27,1.71-8.59.91,0,0,.22-.51.12-.9-2.64,2.79-7.1,3.31-10.43,3.8,1.26-2.22,1.61-1.07,1.25-3.51-1.49.18,0,3.86-2.96,4.2-.8-1.38-2.77-2.73-2.76-5.29l2.75.16c-1.04-3.43-3.55-.28-4.92-1.01l.34-1.41c-4.24,0-4.69,3.6-9.16,2.85l.35,1.14c-2.85,3.3-1.84-2.24-4.58.15l-.34-3.71c-1.72.69-6.07,2.88-9.05,3.24,1.94-2.51,5.5-3.5,7.78-4.87-1.61-.2-5.49-.34-6.53,1.36.69-.28,1.6-1.08,2.18-.45-2.29,2.63-5.04,3.75-8.23,3.33,1.34-6.97-8.15-2.69-9.88-8.41-5.95,1.97-11.12-2.35-17.77-2.66,1.74,5.73-1.94-.06-2.16,5.6-1.58.19-2.15.03-2.25-.35l-4.29-3.87c-.92-1.76,1.6-1.08,1.6-2.35-3.32-.8-1.15-2.54-3.21-4.27.23,2.06-1.49,2.75-3.32,1.77l2.42,2.89c-5.04,2.47-3.55-5.16-8.62-2.73l1.7-1.6c-2.55.77-8.97-1.03-11.86,3.22-.36-.7-.76-2.29.36-2.58-5.74-1.32-13.48,3.37-17.69.09l.59-1.32c-1.13.28-2.17,2.37-3.38.84.13-.56.59-1.32.09-1.46-.63.41-3.15,2.09-4.5,1.13l1.4-1.41c-5.48-2.42-9.12,2.8-13.98,3.22.46-4.04-3.86-5.85-6.02-6.75l.14-.56c-6.55-1.23-11.59,2.11-17.89,3.02-3.31-4.81-12.66-3.26-18.49-6.39.85.84-.5,3.13-1.63,3.42-1.34-.98-4.27,2.37-3.63-1.32l.5.13c-.68-3.76-3.73-3.11-6.02-3.47l-.91,4.81c-5.23-7.72-16.04.85-18.62-5.83-1.58,1.05-3.38.84-4.95,1.89l.36-2.59c-3.95-1.11-5.92-1.65-10.95-1.58l1.22-1.75c-2.78-.48-4.37,7.11-6.97,6.97l-.35-3.97c-4.9-.48-9.47-4.43-14.69-1.45.14-.56.41-1.67,1.22-1.74-2.29-.36-8.61-3.61-8.37,1.81.33-3.48-5.01-.9-7.82.34l.69-2.51c-2.59,3.02-2.76,3.91-5.97,4.47-.7-.42-.42-2.12.49-1.36-2.31-1.61-2.18,2.21-5.01.52l1.29-1.51c-2.51-.48-2.4.42-4.01,2.17-1.7.85-4.73-1.18-4.84-3.53-.5,1.37-2.09,3.11-3.51,2.27-.1-.9.5-1.38.8-1.61-4.04-2.21-6.62,2.28-9.25-.55.03-.85-.11-1.3-.32-1.58,3.35.43,6.04.87,5.77,1.03.26-2.36-2.41-3.07.11-6.09-2.37,1.54-6.53,4.99-9.05,3.59-.1-.24-.2-.48-.26-.85l.3-.23c-.58-.3-1.16-.14-1.71.2-.8-.48-1.31-.83-2.11-.95-.1-1.98-3-1.4-4.34-1.64-.17,2.59-1.9,1.98-.47,4.3-.19-.21.29-.28,1.2-.29.21-.05.46-.07.61-.2-.03.07-.07.15-.12.22.9.02,2.06.09,3.38.2-1.21,1.19-2.45,2.17-3.79.58-.88,1.58-1.83,3.2-2.35,3.96-1.45-3.81-4.81-6.15-5.06-8.42-4.29.99-9.84-.12-12.97,4.44-1.24.49-1.2-1.54-1.55-2.35.73-.41,1.53-.25,1.97-.9-2.49.98-7.01-.28-7.95,3.04-2.79-1.86,2.01-2.94-2.12-2.83l.66-.98c-7.4-6.3-13.96,7.21-22.07-.72.57.49.85.73.92,1.31-9.78-4.18-21.16.57-30.6-5.39-2.73-1.29-3.27.84-5.19,2.29l-.31-2.84-3.31,2.87c-4.46,1.88-6.52-7.61-12.32-3.76l.48,1.94c-1.87-.56-6.17.43-5.61-1.68-.23.32-.84,1.88-1.48.82l.1-1.46-4.96,1.97c-3.52-1.45,1.2-5.7-4.07-6.57-2.03.34-6.08,3.6-5.45,4.66.79.16,1.93,1.13,1.83,2.59l-1.89.56c-.8,4.24-2.67,8.47,1.43,11.94l3.37-2.27.76,2.18-2.61-.16c1.26,2.11,2.38.49,3.56-.58.13,1.13.47,1.95,1.04,2.43l3.48-3.75c.18,1.71-1.72,3.17.21,4.32,1.63-1.74-.95-3.9,1.54-4.89,1.26,2.1.66,3.64,2.57,2.17.12,1.13-.32,1.79-1.06,2.2,1.69-1.15,4.14-.11,5.19-2.29,1.27,2.57,5.27-.05,4.67,3.98.59-.92,3.07-2.88,4.5-2.89-3.12,4.56,5.27.87,4.01,5.99,2.4-4.15,7.13-1.17,10.79-3.21-.23.32-.68.98-.95.73,1.87.57,2.28,1.95,3.41,2.91.64-3.57,3.71-4.07,5.55-6.11,1.96,3.73-1.89,4.07-1.52,7.48.2-2.93,4.39-2.46,3.86-4.98,1.55,2.35,1.43,1.21,2.02,4.3.81-4.47,1.75-.58,3.54-3.18,2.34,2.5.2,4.29,3.2,3.24,1.2,1.53-1.5,2.84-1.5,2.84Zm68.51-.31s0,.04,0,.05c-.59,0-1.09,0-1.41,0,.29,0,.7-.01,1.42-.04Zm5.69.59c-.68-.18-1.54-.29-2.45-.37-.1-.91.22-1.81.78-1.7-.38.56.91,1.22,1.67,2.07Zm-10.05-19.22c.94-.27,1.19.27,1.25.82-.43,0-.94.03-1.61.14-.04.09-.1.2-.14.3.14-.48.29-.94.5-1.26Z" style="fill:#f5707c; stroke-width:0px;"/><path d="m770.32,794.54c-.14.04-.22.14-.39.15.16.25.31.46.47.64.14-.26.28-.52.41-.77-.17,0-.34-.01-.49-.01Z" style="fill:#f5707c; stroke-width:0px;"/><path d="m1285.23,855.28l-.11-.07c.09.11.17.22.21.4-.07-.13-.06-.21-.1-.32Z" style="fill:#f5707c; stroke-width:0px;"/><polygon points="860.31 824.16 860.38 823.51 859.82 824.02 860.31 824.16" style="fill:#f5707c; stroke-width:0px;"/><path d="m1315.56,867.59c.03.23.13.48.34.7,0-.17-.15-.42-.34-.7Z" style="fill:#f5707c; stroke-width:0px;"/><path d="m1329.02,869.67l1.81,1.13c-.77-.61-1.35-.93-1.81-1.13Z" style="fill:#f5707c; stroke-width:0px;"/><path d="m1339.28,872.09c.18-.44.26-.77.33-1.08,0,0-.01,0-.02-.02l-.31,1.1Z" style="fill:#f5707c; stroke-width:0px;"/><path d="m1173.6,856.87c-.14,0-.28.02-.41.07-1,.4-.33.27.41-.07Z" style="fill:#f5707c; stroke-width:0px;"/><path d="m1223.47,856.27c-.57.41-1.14.81-1.72,1.04.85.29,1.53.42,1.72-1.04Z" style="fill:#f5707c; stroke-width:0px;"/><path d="m1118.32,853.91s0-.02.01-.04c-.12,0-.22-.02-.34-.04l.33.08Z" style="fill:#f5707c; stroke-width:0px;"/><path d="m1219.47,857.02c.82.61,1.56.58,2.28.3-.7-.25-1.52-.61-2.28-.3Z" style="fill:#f5707c; stroke-width:0px;"/><path d="m1384.22,878.24l.49.16c.01-.17.06-.31.11-.41l-.59.25Z" style="fill:#f5707c; stroke-width:0px;"/><path d="m1384.81,878l.59-.24c-.26-.03-.48-.03-.59.24Z" style="fill:#f5707c; stroke-width:0px;"/><path d="m1386.65,877.23l-1.24.52c.4.05.9.19,1.24-.52Z" style="fill:#f5707c; stroke-width:0px;"/><path d="m1370.58,875.53l-.26.92c.11-.18.2-.48.26-.92Z" style="fill:#f5707c; stroke-width:0px;"/><path d="m1366.37,875.34c.97.32,2.28,2.27,3.74,1.84l.21-.73c-.81,1.32-2.83-2.58-3.95-1.11Z" style="fill:#f5707c; stroke-width:0px;"/><path d="m1350.19,861.84l3.42,1.14c-.5-1.06-1.16-2.5.46-2.56-4.09-3.46.67,2.33-3.88,1.42Z" style="fill:#f5707c; stroke-width:0px;"/><path d="m1339.48,859.19c1.93-.26.14-1.45.3-2-1.29.78-1.61.97-.3,2Z" style="fill:#f5707c; stroke-width:0px;"/><path d="m1260.93,850.51l.45-2.33c-1.49.18-.11.91-.45,2.33Z" style="fill:#f5707c; stroke-width:0px;"/><polygon points="1244.57 860.99 1245.83 862.61 1246.74 860.53 1244.57 860.99" style="fill:#f5707c; stroke-width:0px;"/><polygon points="1237.55 843.28 1238.22 843.01 1235.71 843.6 1237.55 843.28" style="fill:#f5707c; stroke-width:0px;"/><path d="m1105.54,829.55l.12,2.94c1.04-.41,1.6-3.64-.12-2.94Z" style="fill:#f5707c; stroke-width:0px;"/><path d="m1048.26,826.2c-.46-1.52-1.96-2.62-3.1-1.31,1.26.34,2.41,1.61,3.1,1.31Z" style="fill:#f5707c; stroke-width:0px;"/><polygon points="877.98 802.63 879.23 801.79 876.98 802.36 877.98 802.63" style="fill:#f5707c; stroke-width:0px;"/><g style="filter:url(#d);"><path d="m735.1,941.83l-2.36,8.27-1.57,2.36c-2.1,3.15-4.13,4.72-6.1,4.72-1.57,0-3.67-1.12-6.3-3.34l-3.94-5.71-1.77-3.54-.79-3.54-1.77-5.9v-8.66l-.59-7.48.59-4.13-.39-1.18-4.92,6.89h-.59l-.2.59-3.34,5.31-5.51,5.9-4.13,5.71-4.33,4.13c-1.18,2.1-2.56,3.94-4.13,5.51l-3.94,2.75-2.36,3.15-4.33,1.38-1.77,2.16-4.33.79-3.54,2.16h-.59l-.39.79-6.1-.79-7.28-5.12c-1.97-2.23-3.22-4.65-3.74-7.28.26-.13.52-.36.79-.69.26-.33.46-.56.59-.69-.13-.13-.85-.46-2.16-.98l-1.77-3.94.98-1.38-.98-2.36.98-2.75-.39-3.54,1.38-5.71v-6.1l1.38-1.77v-4.13l1.38-2.56.39-2.95.39-.39v-2.56l1.97-3.15.39-2.75,1.18-1.97.59-1.18.79-4.72,1.38-4.13.98-.98.39-2.56,2.56-2.75c.26-.65.85-2.03,1.77-4.13l4.92-2.16,3.15-3.34,9.05-2.56c1.44,0,2.56-.06,3.35-.2l1.38.79.39-1.57,4.53-.39,1.57.59,1.38-.2,1.18.98,3.74.2.79-.59.98.79,1.97.2v1.38l.79.59,3.94.79,2.95,3.34,3.94,2.95.98,1.97.2.2.79-2.75,1.18-2.56-.39-4.53.79-8.26-1.18-3.15,1.57-2.36-.79-2.17.59-5.51-.69-4.72-2.07-1.38,3.15-3.15v-2.16c0-2.23-.85-4.65-2.56-7.28h1.18l2.16-3.15c1.97-.39,3.74-.59,5.31-.59,1.84,0,3.35.39,4.53,1.18,2.1.66,3.15,3.81,3.15,9.44h-.98l-.2.79,1.77,1.57-1.18,3.15,1.77,3.74-.98,1.18c.39.92.59,1.84.59,2.75s-.2,1.9-.59,2.95l.98,1.18c.26.53.39,1.38.39,2.56,0,1.45-.33,2.75-.98,3.94-.66,8.26-1.25,13.38-1.77,15.35.13.39.2.98.2,1.77,0,1.05-.2,2.16-.59,3.35v1.18c0,1.57-.29,3.35-.85,5.31l-.64,5.9-1.07,1.57.79,1.77-.79,2.95.79,2.56-1.57,6.1.79,4.53v2.56l.24,3.94c.23.92.35,1.77.35,2.56,0,.66-.2,1.18-.59,1.57l1.57,1.18-1.57,3.94,1.57,4.13-.59,1.18.59,1.18-.59,1.18.59.59,1.77,1.57,3.34.39,5.12,2.16Zm-29.32-48.02l-.79-.39c-.92-.52-1.74-1.38-2.47-2.55-.72-1.18-1.41-2.36-2.07-3.54-1.32-.39-2.44-1.25-3.35-2.55h-1.18l-3.55-2.16-4.54-.98-4.34.41-4.66,1.32-1.21-1.11-1.56.59v.79l-1.77.39c-1.18,2.09-3.02,3.93-5.51,5.49l-1.57,3.34-1.57,1.18-1.38,3.14-.59,6.47-1.77,1.57v3.53l-1.57,1.37-.13,4.71-3.29,6.52-.54,3.14-.36,5.11,1.18,2.17-1.18,2.16.98,1.38-1.97,3.54,1.01,1.77.81,2.36,1.16.82,1.37.03,1.77-1.57,1.57.2,3.34-1.38.39-1.18,3.73-1.38.39-1.18,2.36-1.38v-.39l4.92-5.13,2.36-.98,1.18-2.56,2.56-.39,3.15-3.55-.59-.39,1.37-1.38,1.95-4.14,1.75-1.78.97-4.33,3.12-.99,2.22-3.11.82-.59v-3.54l2.95-1.37,4.13-7.47Z" style="fill:#3a7ca5; stroke-width:0px;"/><path d="m816.56,939.87c0,1.57-1.18,3.54-3.54,5.9-.66,2.1-1.64,3.81-2.95,5.12l-1.18.2-2.16,3.74-3.54.59-3.74,2.36-1.97,3.54h-2.16c-1.44.56-2.63.91-3.54,1.02l-1.18,1.53h-1.77c-1.71,0-3.34,1.11-4.92,3.35l-2.75-2.36h-2.36c-1.71,0-3.15-.33-4.33-.98h-3.34l-1.57-.97c-4.99-.78-8.13-2.67-9.44-5.66v-.59l-2.36-1.17-1.18-3.31-2.36-1.56v-2.93l-2.36-8.58v-7.02l1.18-3.12v-4.1l.98-3.12-.2-1.37,1.38-2.34-.39.39c0-1.18.33-2.42.98-3.74v-.98l-.59-4.72c0-2.23.98-4.2,2.95-5.9.13-.26.2-.66.2-1.18s-.23-1.6-.69-3.25c-.46-1.64-.69-2.79-.69-3.44,0-1.57.39-3.21,1.18-4.92,1.05,1.57,2.56,2.36,4.53,2.36h.59c.26-.52.85-1.11,1.77-1.77,1.05-3.28,2.49-6.03,4.33-8.26l.79-.79c0-.52.39-2.03,1.18-4.53h1.57l.39-.98,1.57-.39c.65-1.05,1.08-1.67,1.28-1.87.2-.2,1.6-1.02,4.23-2.46.52-.92,1.31-1.77,2.36-2.56.52-.26,1.18-.52,1.97-.79l.79-1.18c3.54-1.18,5.77-1.77,6.69-1.77,1.05,0,2.03.26,2.95.79l.98-.2,1.38.79c1.57,1.18,3.15,2.16,4.72,2.95l3.35,2.56v.79c3.02,2.36,4.53,5.71,4.53,10.03l-.59,1.97.59,6.49-1.77,1.18-1.97,5.12-3.74,4.13-.2,3.15c-4.2,3.02-8.07,5.45-11.61,7.28-1.18,1.84-3.02,2.75-5.51,2.75h-.59l-3.74,2.36h-3.15l-4.72,1.97-3.54-1.77h-.39c-.26,1.06-.53,2.64-.79,4.75l-1.57,1.19-.2,2.37-1.18,3.37c.26,3.17.39,5.21.39,6.14l-.65.6c0,1.71-.06,2.97-.17,3.76,0,.13-.06.33-.16.59v.59c0,1.06.52,1.92,1.57,2.57.39,1.59,1.05,2.58,1.97,2.97l1.38,1.19,4.33,1.19v.59l1.57.4h6.69l3.94-.58,1.97-1.36,1.18-.39,1.97-2.92.98-.2,4.92-1.56c.52-.91,1.38-1.68,2.56-2.33l.59-.97c2.62-.52,4.13-1.88,4.53-4.09,1.84-1.81,4.2-2.72,7.08-2.72h.79c2.49,2.89,3.74,5.25,3.74,7.08Zm-19.48-56.67c0-.39-.2-1.18-.59-2.36l-.98-.2-.39.2h-.79c-.26.13-.53.2-.79.2-.13,0-.33-.06-.59-.2h-.59l-1.97,1.38-1.77.2-.98.39-3.34,4.33-2.16,1.57-3.15,5.51-1.77,1.18c-.39,2.23-1.31,4.13-2.75,5.71l-.79,1.38c1.44-.92,3.08-1.38,4.92-1.38l1.38-.59.59-1.77,2.75.2,1.57-2.36h1.18l2.16.79.98-2.95h1.38v-2.16l2.56-.59.59-.59.39-1.77,2.56-3.74c.26-.65.39-1.44.39-2.36Z" style="fill:#3a7ca5; stroke-width:0px;"/><path d="m989.51,891.66c0,3.02-.92,5.77-2.75,8.26-3.54,1.45-6.49,2.16-8.85,2.16-.53,0-1.25-.13-2.16-.39-.92-.26-1.51-.39-1.77-.39l-5.12,2.56-4.72-.39-2.75.98-1.38-.39-3.54,1.97-2.95-.79h-8.46.79l-3.55.98h-.59l-1.38,1.38-2.76-.98-1.58.98-4.34-1.38-2.57,1.38c-3.16-.79-5-1.18-5.53-1.18-1.45,0-3.23.46-5.33,1.38l-8.89.79-.79-.98-3.36.85-.2,1.14,1.76,9.84-.42.98.59,1.96v2.55c.66,1.97,1.11,3.93,1.38,5.89l2.36,2.36-.39,1.18,3.94,4.91c4.06,2.88,7.15,4.32,9.25,4.32h.39c.26,0,.59-.06.98-.2h.79c.52,0,1.25.2,2.16.59l1.77-.2c1.7-.39,4.13-.85,7.28-1.38l2.16-1.18.39-.79,1.38-.2,1.57-.98.98.59,3.15-.98,2.56-1.57.98-1.38,3.35-2.56,2.56-.39,4.72-3.54c3.28-.52,5.64-3.15,7.08-7.87l.59.2.2-.59,2.56-.2,3.74-3.15,1.38-.2c.39-.13.85-.2,1.38-.2,2.49,0,4,2.43,4.53,7.28l-8.66,10.23-2.16.59-.79,1.18-3.74,3.94-5.31,3.15-4.33,4.13-1.38-.2-1.57,1.57-8.85,3.34-3.54,3.94-2.56-.98-.98,1.77-1.77-.59-.98.98-6.49-1.18-6.69,2.75-6.69-2.16-8.46-3.94c-7.22-3.41-12.79-12.85-16.72-28.33v-2.16l-1.57-4.53,1.57-1.97-.98-5.51-.2-1.77-3.34-3.74v-2.36c0-3.8,1.05-6.43,3.15-7.87.39-1.05,1.11-2.03,2.16-2.95l-.79-.59v-8.26l2.4-6.3.55-3.15-1.97.2h-.79c-1.84,0-3.41-.62-4.72-1.87-1.31-1.24-1.97-2.72-1.97-4.43,0-1.97,1.25-4.2,3.74-6.69l1.38-1.38,1.77-.79c2.1-.92,3.74-1.38,4.92-1.38h3.74l1.97-3.34,8.85.59.59.59c1.18-.22,2.95-.34,5.31-.34l3.94-.84h.98c1.7-.52,3.35-1.57,4.92-3.15l2.95,1.77h4.92l19.68-1.77,1.97,1.18,2.75-.7,1.57-1.86,3.94,2.56,1.38-1.18,4.33,1.77,2.95-.59,1.57.59,6.3-.59,1.38.98,3.15.59c3.02.53,4.53,1.97,4.53,4.33,0,1.57-.56,2.95-1.67,4.13-1.12,1.18-2.26,1.77-3.44,1.77h-.79l-2.16,1.18-3.94-1.18-1.77.2c-.39.13-.92.2-1.57.2-1.31,0-2.49-.26-3.54-.79l-.59-.79c-1.31.26-2.16.39-2.56.39-.53,0-1.18-.13-1.97-.39-1.31.92-3.74,1.71-7.28,2.36-1.84,0-3.87-.06-6.1-.2,0-.13.26-.59.79-1.38l-5.12,1.57h-.39c-.92,0-2.63.92-5.12,2.75l-2.56-1.18-1.18.79-4.72-1.38-2.75,1.38h-3.94l-5.9,1.18-4.92,2.16-1.38-.79-2.56,1.77h-2.56l-.59.98.59,2.36-3.34,3.93,1.57.2.02,5.5,2.14,2.38-1.77,1.57c-1.31,2.23-1.96,3.74-1.96,4.52,0,.53.39.92,1.18,1.18l2.36-.79c.65-.13,1.31-.2,1.97-.2,1.97.27,3.41.53,4.33.79l3.54-1.38,3.15.59h9.64c.52,0,1.57-.46,3.15-1.38,1.05.53,2.56.79,4.53.79.26,0,.72-.06,1.38-.2h1.97c-.26,0-.53-.07-.79-.2h.59c.79,0,3.15.33,7.08.98.39-.22,2.43-.44,6.1-.65,2.1-.22,3.41-.33,3.94-.33,1.97,0,3.87.07,5.71.2l1.77-.2c1.84-1.05,3.54-1.57,5.12-1.57,1.18,0,2.36.2,3.54.59l2.75-.59,2.36.98,7.87-1.97v1.77Z" style="fill:#3a7ca5; stroke-width:0px;"/><path d="m1055.61,934.55c0,1.45-.52,2.62-1.57,3.54-1.05,1.57-2.75,3.22-5.09,4.92l-1.96,1.38-1.76,2.36-1.76.79-2.75,1.77-1.96.2-.78.79c-2.61.79-4.64,2.1-6.08,3.94-.92.66-1.76.98-2.55.98-.52,0-.98-.06-1.37-.2-2.22,1.31-5.1,1.97-8.62,1.97-3.01,0-4.96-.26-5.88-.79l-3.53-1.97-1.17-1.97v-.59c0-1.7-.75-3.08-2.24-4.13l-.81-3.94-1.63-1.77-1.02-7.28v-7.48l.59-1.18c-.39-.79-.59-1.64-.59-2.56.65-5.51.98-8.98.98-10.43l-1.77-3.54,1.77-2.95.59-4.92-.39-3.35,1.18-2.95-1.18-3.94,2.12-2.75.24-1.77v-16.53l.59-8.46-.59-1.57v-13.18l1.15-11.8c5.38-1.31,7.75-1.97,7.11-1.97,2.05,0,3.71,1.12,5,3.35l.38,1.57,2.88,2.95-.79,4.13v.79c-.37,2.49-.83,4.13-1.38,4.92l.59,4.13.79,3.74-1.38,4.13c0,2.23-.33,4.26-.98,6.1,0,.66-.13,1.71-.39,3.15l-.2,1.18,1.57,2.16-.59,2.16c.39,1.05.59,1.77.59,2.16,0,.79-.33,1.84-.98,3.15l.39,1.77-1.18,6.3v4.13l-1.38,4.13.79,3.74-.79,8.66.59.98-.98,4.53-.39,5.51c-.26.79-.39,1.25-.39,1.38,0,2.23-.07,4.07-.2,5.51l.59,2.75v2.95l1.18,2.56-.2.98c.78.66,1.5,1.71,2.15,3.15h1.76l2.55.79,1.17-1.57,1.76-.2c.78-.26,1.37-.39,1.76-.39h.59c1.3-.26,2.35-.92,3.13-1.97l1.17-.59c.91-1.44,2.41-2.43,4.5-2.95.65-.52,1.89-1.57,3.72-3.15,0-1.83,1.11-3.21,3.33-4.13,1.96,0,3.26-.33,3.91-.98,2.61.39,4.27,1.08,4.99,2.07.72.98,1.08,2.85,1.08,5.61Z" style="fill:#3a7ca5; stroke-width:0px;"/><path d="m1127.43,939.87c0,1.57-1.18,3.54-3.54,5.9-.66,2.1-1.64,3.81-2.95,5.12l-1.18.2-2.16,3.74-3.54.59-3.74,2.36-1.97,3.54h-2.16c-1.44.56-2.63.91-3.54,1.02l-1.18,1.53h-1.77c-1.71,0-3.34,1.11-4.92,3.35l-2.75-2.36h-2.36c-1.71,0-3.15-.33-4.33-.98h-3.34l-1.57-.97c-4.99-.78-8.13-2.67-9.44-5.66v-.59l-2.36-1.17-1.18-3.31-2.36-1.56v-2.93l-2.36-8.58v-7.02l1.18-3.12v-4.1l.98-3.12-.2-1.37,1.38-2.34-.39.39c0-1.18.33-2.42.98-3.74v-.98l-.59-4.72c0-2.23.98-4.2,2.95-5.9.13-.26.2-.66.2-1.18s-.23-1.6-.69-3.25c-.46-1.64-.69-2.79-.69-3.44,0-1.57.39-3.21,1.18-4.92,1.05,1.57,2.56,2.36,4.53,2.36h.59c.26-.52.85-1.11,1.77-1.77,1.05-3.28,2.49-6.03,4.33-8.26l.79-.79c0-.52.39-2.03,1.18-4.53h1.57l.39-.98,1.57-.39c.65-1.05,1.08-1.67,1.28-1.87.2-.2,1.6-1.02,4.23-2.46.52-.92,1.31-1.77,2.36-2.56.52-.26,1.18-.52,1.97-.79l.79-1.18c3.54-1.18,5.77-1.77,6.69-1.77,1.05,0,2.03.26,2.95.79l.98-.2,1.38.79c1.57,1.18,3.15,2.16,4.72,2.95l3.35,2.56v.79c3.02,2.36,4.53,5.71,4.53,10.03l-.59,1.97.59,6.49-1.77,1.18-1.97,5.12-3.74,4.13-.2,3.15c-4.2,3.02-8.07,5.45-11.61,7.28-1.18,1.84-3.02,2.75-5.51,2.75h-.59l-3.74,2.36h-3.15l-4.72,1.97-3.54-1.77h-.39c-.26,1.06-.53,2.64-.79,4.75l-1.57,1.19-.2,2.37-1.18,3.37c.26,3.17.39,5.21.39,6.14l-.65.6c0,1.71-.06,2.97-.17,3.76,0,.13-.06.33-.16.59v.59c0,1.06.52,1.92,1.57,2.57.39,1.59,1.05,2.58,1.97,2.97l1.38,1.19,4.33,1.19v.59l1.57.4h6.69l3.94-.58,1.97-1.36,1.18-.39,1.97-2.92.98-.2,4.92-1.56c.52-.91,1.38-1.68,2.56-2.33l.59-.97c2.62-.52,4.13-1.88,4.53-4.09,1.84-1.81,4.2-2.72,7.08-2.72h.79c2.49,2.89,3.74,5.25,3.74,7.08Zm-19.48-56.67c0-.39-.2-1.18-.59-2.36l-.98-.2-.39.2h-.79c-.26.13-.53.2-.79.2-.13,0-.33-.06-.59-.2h-.59l-1.97,1.38-1.77.2-.98.39-3.34,4.33-2.16,1.57-3.15,5.51-1.77,1.18c-.39,2.23-1.31,4.13-2.75,5.71l-.79,1.38c1.44-.92,3.08-1.38,4.92-1.38l1.38-.59.59-1.77,2.75.2,1.57-2.36h1.18l2.16.79.98-2.95h1.38v-2.16l2.56-.59.59-.59.39-1.77,2.56-3.74c.26-.65.39-1.44.39-2.36Z" style="fill:#3a7ca5; stroke-width:0px;"/><path d="m1265.16,924.13c0,1.05-.85,2.43-2.56,4.13l-2.16,3.35-.79,3.94-1.77.59-.39,1.18c-2.1.66-3.61,2.3-4.53,4.92-1.45,1.84-3.02,3.15-4.72,3.94-.66.66-1.25,1.12-1.77,1.38l-.98,1.77-1.77.39-5.12,2.75-6.69.79-1.77-.39-2.95.59-1.18-1.38c-1.84-.92-3.15-1.84-3.94-2.75-1.57-.39-2.75-1.64-3.54-3.74-2.23-2.62-3.34-4.72-3.34-6.3v-.59l-1.38-2.36-.39-.39-1.18-3.54-1.77-3.74.39-4.53-1.97-2.56-2.95-16.92c-.39-2.23-.59-4.13-.59-5.71l-.4-.98-1-1.38-1.8,2.35-7.18,7.43-2.59,4.1-1.27,2.81-2.13,3.15-1.55,1.57.2.98-2.75,6.11-1.57,1.97-1.97.39-1.77,1.78c0,2.62-1.25,4.33-3.74,5.12l-.39.39c-1.18,2.89-2.49,4.66-3.94,5.32l-1.77,2.76c-2.89,2.63-4.79,4.27-5.71,4.92-.39,1.31-1.12,2.43-2.16,3.34-.26.4-.72.92-1.38,1.58-.39,2.23-2.23,3.8-5.51,4.72l-2.16.59c-2.63-.13-4.79-1.64-6.49-4.53l-2.95-4.92,1.18-4.72-.59-2.56.39-.39.2-2.56-2.16-4.72,1.57-2.36-.79-2.56,1.53-2.75.44-4.53-.59-.79,1.18-2.76-.44-1.38-.15-3.15.59-5.9c-.39-1.31-.59-2.16-.59-2.56v-1.57l-.59-1.57.59-6.3v-10.62l3.44-5.9c3.95.66,6.7,1.54,8.23,2.66,1.53,1.12,2.3,3.12,2.3,6v1.77l1.57,2.36-.79,4.13.79,7.87-1.38,3.74.59,4.13v3.34l-1.77,2.16,1.77,3.54-1.52,2.16-.25,2.16,1.18,2.16-1.57,4.13-.59,1.77v1.77l.98,1.97,3.35-3.34c0-1.97.65-3.28,1.97-3.94.13-1.31.65-2.29,1.57-2.95l-.59-.59,2.56-2.36.59-.79v-1.77l3.15-2.36.79-1.97,1.77-1.18,7.67-8.66c-.66.79-2.82,3.21-6.49,7.28v.39l.39-1.38,2.56-2.95,1.77-3.34v-1.97l2.95-.98.39-2.56.79-.79.2-.98v-1.38l2.75-2.75v-.98c-.13-.39-.2-.65-.2-.79,0-2.36,1.31-3.67,3.94-3.94,1.18-2.36,2.95-3.74,5.31-4.13l1.18-1.77.39-.39c1.18-1.7,2.95-2.88,5.31-3.54l1.77-2.16h4.72l2.36,2.76,2.16,1.18.2.59,1.38.39.39,4.13,3.34,1.97-1.38,4.33,2.16,4.72v5.51l1.57,7.48.39,7.08,1.77,4.13,1.18,5.12c.79.79,1.38,1.9,1.77,3.35l3.54.98v3.94l1.97,2.16v.59l.79.2.79,1.18.79-.98c-.26,0,.06.07.98.2,1.44,0,2.95-1.31,4.53-3.94l2.37-.53.59-1c.39-1.07,1.18-1.87,2.36-2.4l1.38.2.79-.79.2-.98.59-.79c1.31-.92,2.16-2.29,2.56-4.13l2.16-2.36.39-1.77,1.38-3.15,3.74-1.38,5.31,1.77,1.77,5.71c0,.13.06.27.2.39v.59Z" style="fill:#3a7ca5; stroke-width:0px;"/><path d="m1344.45,925.31l-3.74,3.54-.2,1.18c-.39,2.36-1.51,4.26-3.34,5.71-3.15,5.9-7.54,10.23-13.18,12.98l-2.95,2.36-2.56.39-3.15,2.36-2.16.2-4.92,3.15-3.15-.39-3.54,1.97-2.75-1.18-1.38,1.18-3.74-.59-3.74.59-1.38-1.18-3.94-.79-5.71-4.33-3.15-3.93c-1.97-2.49-2.95-4.59-2.95-6.3v-.59l-1.97-2.95v-2.56c-.39-1.57-.59-3.02-.59-4.33v-1.38l-.98-3.35.98-2.36-.79-1.57,2.36-3.74-.59-3.15,1.57-5.12.79-1.18.79-4.72-.39-.79,2.36-2.56.39-1.97,1.57-4.53,2.56-5.51,3.54-3.15.79-1.77,1.18-2.16.39-1.97,3.15-3.74c.79-.26,1.7-.52,2.75-.79.52-2.49,3.8-3.94,9.84-4.33,5.12,1.05,8.39,2.43,9.84,4.13,1.44.27,2.56.86,3.34,1.77l4.13.2,2.75,3.54c.64,1.31,1.08,2.62,1.34,3.92l1.53,1.57-.59,2.95c.14.92.21,2.37.21,4.33l1.05.79v2.96l.79,6.1c-2.79,2.76-5.97,4.33-9.56,4.73-1.86-3.43-4.18-6.01-6.97-7.72v-6.53l-1.38-2.18.15-1.58-2.04-2.3-.99-.73-1.78.59h-2.57c-1.72.39-3.36,1.63-4.94,3.73-1.58,2.09-3.16,4.32-4.74,6.67l-.2,1.96-1.19.98v3.53l-2.56,2.75-3.15,8.63.2,2.36-1.57,3.53.59,4.31-1.18.59-.39,5.49.2.98,2.37,2.35.99,4.12,2.77.79.2,1.57,3.33.67,2.56.68c.92-.52,2.03-.79,3.34-.79h1.38c1.57-.65,3.02-.98,4.33-.98.92-.39,2.1-.79,3.54-1.18,1.57-2.1,3.8-3.15,6.69-3.15h1.18c.65,0,1.11-.32,1.38-.98,1.44-2.23,3.74-3.67,6.88-4.33,3.67-3.28,5.77-5.9,6.3-7.87,1.83-1.05,3.01-2.69,3.54-4.92l1.18-.79.59-4.53c6.03.92,9.05,3.94,9.05,9.05v1.57Z" style="fill:#3a7ca5; stroke-width:0px;"/><path d="m1425.71,909.96l-1.18,3.54c0,3.41-.2,6.1-.59,8.07l-1.18,1.97v2.16l-.98,1.38-.59,2.75-2.16,2.16-1.38,4.92-1.57.59-.79,2.16-2.36,1.38-1.57,3.34-2.36,1.18-.2,2.36-3.74,1.38c-1.71,2.36-3.81,3.87-6.3,4.53l-.79.2c-1.84,2.76-4.26,4.13-7.28,4.13-1.31.79-2.82,1.18-4.53,1.18l-1.97,1.38-1.97.59-2.56,1.97h-2.56l-2.75.59-3.34-1.38-8.46-.59-2.95-4.53-4.33-4.53.98-3.15-2.95-6.69.98-2.56-.59-4.72.59-2.95v-3.93c0-2.49.68-4.33,2.04-5.51.14-1.31,1.02-3.47,2.65-6.49h1.02l-.59-1.38.59-2.75v-2.95c1.05-1.18,1.64-1.97,1.77-2.36l-.59-2.75v-.79c.92-1.84,1.38-3.74,1.38-5.71l4.13-5.71c.65-.52,1.11-.92,1.38-1.18l-.2-.79h.79l2.95-3.34.2-4.53,4.92-1.77c1.84-1.18,3.02-3.15,3.54-5.9h2.56c1.44-.79,2.75-1.18,3.94-1.18s2.29.26,3.34.79l2.16.2,5.12-1.97,2.75,2.56,2.16,1.38h1.57l2.95,1.57h1.57c1.7,1.57,3.67,3.74,5.9,6.49l.39.98,1.38.79,4.13,5.31,3.74,9.25v1.97l1.77,6.89Zm-12.99,4.66l-.2-.98c-.92-.92-1.45-1.9-1.57-2.95l.59-.98-1.77-3.73.39-3.73-.79-.98c-1.71-1.31-2.63-2.36-2.75-3.14-1.18-.52-1.77-1.83-1.77-3.93l-1.18-.2-2.36-3.93-1.77-1.37-4.13-1.57-1.57-.39c-.79,0-1.31-.26-1.57-.79l-3.94,4.3-2.56,5.48-4.13,2.15-.59,2.15-1.97.98-.79,5.09-2.36,1.17c-.53,1.83-.79,3.52-.79,5.09l-3.15,2.93.98.59c0,1.56-.66,2.93-1.98,4.11-.44,1.17-1.03,2.48-1.76,3.91v4.69l-2.16,5.28.39.98v5.47l-.79,2.74.2,2.74,1.77,2.54,2.75.98.98.39h6.68l.79-1.97h.78c.79,0,1.25.2,1.38.59l1.77-.59,1.57.59,2.56-1.78.39-.6,1.77-.4c.92-1.45,3.08-2.91,6.48-4.36l.39-.99,3.93-2.78,2.16-3.17,3.15-1.57.21-.98,1.03-2.16v-2.55l2.36-1.96.79-1.38.98-1.18c-.53-1.57-.79-2.68-.79-3.34,0-1.18.39-2.42,1.18-3.73l.79-.79Z" style="fill:#3a7ca5; stroke-width:0px;"/></g></svg>