<?xml version="1.0" encoding="UTF-8"?><svg id="a" xmlns="http://www.w3.org/2000/svg" viewBox="0 0 1536 1024"><path d="m430,320.22c-2.85-3.4-4.27-8.75-4.27-16.03,0-3.33.43-6.02,1.31-8.08.87-2.06,2.1-3.96,3.68-5.7,1.58-1.74,3.52-3.48,5.82-5.22,2.29-1.74,4.95-3.88,7.96-6.41-3.17-1.58-5.86-3.76-8.07-6.53-2.22-2.77-4-5.74-5.34-8.91-1.35-3.17-2.34-6.53-2.97-10.09-.63-3.56-.95-7.01-.95-10.33,0-4.91.91-9.5,2.73-13.78,1.82-4.27,4.31-7.96,7.48-11.04,3.17-3.09,6.89-5.5,11.16-7.24,4.27-1.74,8.87-2.61,13.77-2.61,6.49,0,12.35,1.31,17.58,3.92,5.23,2.61,9.7,6.1,13.42,10.45,3.72,4.36,6.57,9.38,8.55,15.08,1.98,5.7,2.97,11.64,2.97,17.81,0,4.43-1.15,8.31-3.44,11.64-2.3,3.33-5.58,5.62-9.86,6.89,2.85-.47,5.14-.79,6.89-.95,1.74-.16,3.96-.24,6.65-.24,1.27,0,2.97.08,5.11.24,2.14.16,3.84.32,5.11.48-3.33-1.11-5.54-2.29-6.65-3.56-1.11-1.27-1.66-2.77-1.66-4.51s.24-3.44.71-5.11c.48-1.66.71-3.52.71-5.58,0-2.22-.2-4.55-.59-7.01-.4-2.45-.59-4.87-.59-7.24,0-5.07.87-9.58,2.61-13.54,1.74-3.96,4.19-7.32,7.36-10.09,3.17-2.77,6.92-4.91,11.28-6.41,4.35-1.5,9.14-2.26,14.37-2.26,6.17,0,11.88,1.39,17.1,4.16,5.23,2.77,9.7,6.41,13.42,10.92,3.72,4.51,6.61,9.62,8.67,15.32,2.06,5.7,3.09,11.48,3.09,17.34,0,4.59-.59,9.42-1.78,14.49-1.19,5.07-2.61,9.9-4.27,14.49-1.66,4.59-3.44,8.59-5.34,11.99-1.9,3.41-3.64,5.58-5.23,6.53,7.28,6.02,13.06,12.31,17.34,18.88,4.28,6.57,6.41,14.77,6.41,24.58,0,5.7-1.11,11.44-3.32,17.22-2.22,5.78-5.19,10.92-8.91,15.44-3.72,4.51-8.12,8.19-13.18,11.04-5.07,2.85-10.45,4.28-16.15,4.28-3.64,0-7.8-.79-12.47-2.38-4.67-1.58-9.07-3.88-13.18-6.89-4.12-3.01-7.64-6.69-10.57-11.04-2.93-4.35-4.39-9.3-4.39-14.84,0-7.44.99-14.8,2.97-22.09,1.98-7.28,5.97-15.44,11.99-24.46-2.85,2.06-5.66,3.53-8.43,4.39-2.77.87-6.29,1.31-10.57,1.31-3.96,0-7.44-.39-10.45-1.19-3.01-.79-6.1-1.98-9.26-3.56.79,2.22,2.26,4.36,4.39,6.41,2.14,2.06,4.39,4.12,6.77,6.18,3.32,3.17,5.74,6.73,7.24,10.69,1.5,3.96,2.26,8.07,2.26,12.35,0,7.12-1.35,13.74-4.04,19.83-2.69,6.1-6.26,11.32-10.69,15.67-4.43,4.36-9.54,7.8-15.32,10.33-5.78,2.53-11.84,3.8-18.17,3.8-4.27,0-8.47-1.23-12.59-3.68-4.12-2.45-7.8-5.66-11.04-9.62-3.25-3.96-5.9-8.31-7.96-13.06-2.06-4.75-3.09-9.42-3.09-14.01.48-7.92,2.61-14.25,6.41-19,3.8-4.75,8.47-8.79,14.01-12.11-6.81-1.74-11.64-4.31-14.49-7.72Z" style="fill:#fff; stroke:#3a7ca5; stroke-miterlimit:10; stroke-width:4.03px;"/><path d="m717.14,207.05c3.96,1.42,7.6,3.41,10.93,5.94,3.32,2.53,6.06,5.54,8.19,9.02,2.14,3.49,3.21,7.21,3.21,11.16,0,8.39-2.3,16.19-6.89,23.39-4.59,7.21-10.85,12.15-18.76,14.84-3.64,1.27-6.93,2.14-9.86,2.61-2.93.48-5.58.71-7.96.71-4.12,0-7.52-.51-10.21-1.54-2.69-1.03-4.99-2.26-6.89-3.68-1.9-1.42-3.53-2.85-4.87-4.27-1.35-1.42-2.73-2.45-4.16-3.09.95,2.06,2.14,3.88,3.56,5.46,1.42,1.58,2.97,2.97,4.63,4.16,1.66,1.19,3.28,2.22,4.87,3.09,1.58.87,3.01,1.63,4.27,2.26-.79.95-1.43,1.66-1.9,2.14-.48.47-1.35,1.42-2.61,2.85,2.22-1.58,4.67-2.77,7.36-3.56,2.69-.79,5.34-1.38,7.96-1.78,2.61-.39,4.95-.63,7.01-.71,2.06-.08,3.56-.12,4.51-.12,2.85,0,5.58.52,8.19,1.54,2.61,1.03,4.95,2.38,7.01,4.04,2.06,1.66,3.72,3.68,4.99,6.06,1.27,2.38,1.9,4.83,1.9,7.36,0,9.5-2.93,16.62-8.79,21.38-5.86,4.75-13.22,7.12-22.09,7.12-3.48,0-7.24-.32-11.28-.95-4.04-.63-7.24-1.11-9.62-1.42.63.63,1.74,1.27,3.33,1.9,1.58.63,4.91,1.51,9.98,2.61-2.06,1.27-4.12,2.42-6.18,3.44-2.06,1.03-3.72,2.49-4.99,4.39,4.12-2.21,8.59-4.07,13.42-5.58,4.83-1.5,10.25-2.26,16.27-2.26,4.43,0,8.39,1.27,11.88,3.8,3.48,2.53,6.41,5.62,8.79,9.26,2.38,3.64,4.16,7.6,5.34,11.88,1.19,4.27,1.78,8.16,1.78,11.64s-.56,6.89-1.66,10.69c-1.11,3.8-2.85,7.36-5.23,10.69-2.38,3.33-5.46,6.06-9.26,8.19-3.8,2.14-8.39,3.21-13.78,3.21-4.27,0-7.92-.2-10.92-.59-3.01-.39-5.54-.95-7.6-1.66-2.06-.71-3.76-1.54-5.11-2.49-1.35-.95-2.49-1.98-3.44-3.09-1.58-1.58-3.09-3.17-4.51-4.75-1.42-1.58-3.48-2.93-6.17-4.04-5.07,5.86-11.04,10.09-17.93,12.71-6.89,2.61-14.13,3.92-21.73,3.92-3.8,0-7.48-.71-11.04-2.14s-6.69-3.4-9.38-5.94c-2.69-2.53-4.83-5.54-6.41-9.02-1.58-3.48-2.38-7.2-2.38-11.16,0-5.54.99-10.81,2.97-15.79,1.98-4.99,4.79-9.62,8.43-13.89-4.59-5.54-8.19-11.24-10.81-17.1-2.61-5.86-3.92-12.51-3.92-19.95,0-3.01.24-6.41.71-10.21.48-3.8,1.11-7.6,1.9-11.4.79-3.8,1.82-7.44,3.09-10.92,1.27-3.48,2.69-6.33,4.27-8.55-1.9-2.85-3.48-5.94-4.75-9.26-1.27-3.33-1.9-6.49-1.9-9.5,0-4.43.59-8.79,1.78-13.06,1.19-4.28,3.05-8.03,5.58-11.28,2.53-3.24,5.7-5.86,9.5-7.84,3.8-1.98,8.31-2.97,13.54-2.97,2.22,0,4.27.47,6.17,1.42,1.9.95,3.72,2.1,5.46,3.44,1.74,1.35,3.4,2.81,4.99,4.39,1.58,1.58,3.17,2.93,4.75,4.04,2.53-2.21,5.34-4.19,8.43-5.94,3.09-1.74,6.45-2.61,10.09-2.61,2.22,0,4.19.71,5.94,2.14,1.74,1.42,3.24,2.53,4.51,3.33,2.06-3.64,5.38-6.25,9.98-7.84,4.59-1.58,8.71-2.38,12.35-2.38s7.2.71,11.16,2.14Z" style="fill:#fff; stroke:#3a7ca5; stroke-miterlimit:10; stroke-width:4.03px;"/><path d="m823.77,210.49c4.12-3.72,9.5-5.58,16.15-5.58,4.12,0,8.59.83,13.42,2.49,4.83,1.66,9.3,3.96,13.42,6.89,4.12,2.93,7.52,6.45,10.21,10.57,2.69,4.12,4.04,8.63,4.04,13.54,0,1.42-.12,2.69-.36,3.8-.24,1.11-.59,2.46-1.07,4.04,2.06.95,4.35,2.42,6.89,4.39,2.53,1.98,4.87,4.39,7.01,7.24,2.14,2.85,3.92,6.06,5.34,9.62s2.14,7.33,2.14,11.28c0,4.28-.32,8.63-.95,13.06-.63,4.43-1.86,8.51-3.68,12.23-1.82,3.72-4.36,6.77-7.6,9.14-3.25,2.38-7.56,3.56-12.94,3.56h-2.38c-.79,0-1.58-.08-2.38-.24,1.58.63,3.21,1.62,4.87,2.97,1.66,1.35,3.17,2.93,4.51,4.75,1.34,1.82,2.41,3.68,3.21,5.58.79,1.9,1.19,3.8,1.19,5.7,0,.95-.12,2.38-.36,4.28-.24,1.9-.75,3.72-1.54,5.46,1.74-1.58,3.68-2.81,5.82-3.68,2.14-.87,4.71-1.31,7.72-1.31,4.27,0,8.08.87,11.4,2.61,3.33,1.74,6.13,4.08,8.43,7.01,2.29,2.93,4,6.26,5.11,9.97,1.11,3.72,1.66,7.56,1.66,11.52,0,8.87-2.14,15-6.41,18.41-4.27,3.41-10.69,5.11-19.24,5.11-7.12,0-13.34-.2-18.64-.59-5.31-.39-9.66-1.34-13.06-2.85-3.41-1.5-5.98-3.68-7.72-6.53-1.74-2.85-2.69-6.73-2.85-11.64-4.12,0-7.8-.55-11.04-1.66-3.25-1.11-6.1-2.61-8.55-4.51-2.46-1.9-4.67-4.19-6.65-6.89-1.98-2.69-3.76-5.62-5.34-8.79-2.22,8.87-4.51,16.15-6.89,21.85s-5.03,10.13-7.96,13.3c-2.93,3.17-6.17,5.34-9.74,6.53s-7.72,1.78-12.47,1.78c-5.86,0-10.49-1.78-13.89-5.34-3.41-3.56-6.02-7.8-7.84-12.71-1.82-4.91-2.97-9.82-3.44-14.73-.47-4.91-.79-8.71-.95-11.4.32-7.12,1.82-13.58,4.51-19.36,2.69-5.78,6.02-11.12,9.98-16.03-2.06-1.11-4.32-2.61-6.77-4.51-2.46-1.9-4.79-4.07-7.01-6.53-2.22-2.45-4.08-5.18-5.58-8.19-1.51-3.01-2.26-6.17-2.26-9.5,0-5.07.95-9.86,2.85-14.37,1.9-4.51,4.91-8.35,9.02-11.52-2.22-3.01-4.2-6.21-5.94-9.62-1.74-3.4-2.61-7.24-2.61-11.52s1.15-8.31,3.44-12.11c2.29-3.8,5.18-7.12,8.67-9.97,3.48-2.85,7.32-5.11,11.52-6.77,4.19-1.66,8.11-2.49,11.76-2.49,5.86,0,10.92,1.31,15.2,3.92,4.27,2.61,7.36,7.33,9.26,14.13.79-6.81,3.24-12.07,7.36-15.79Zm-5.7,46.43c-1.42,1.9-3.05,3.6-4.87,5.11-1.82,1.51-3.68,2.81-5.58,3.92-1.9,1.11-3.48,1.9-4.75,2.38,3.17,1.74,5.5,4.04,7.01,6.89,1.5,2.85,2.33,6.02,2.49,9.5v3.33c0,.95-.16,1.98-.47,3.09,1.42-.48,3.09-.71,4.99-.71,1.74,0,3.36.16,4.87.47,1.5.32,2.81.63,3.92.95-.32-1.27-.48-2.38-.48-3.33v-2.85c0-2.85.48-5.22,1.42-7.12.95-1.9,2.06-3.48,3.33-4.75,1.27-1.27,2.69-2.33,4.27-3.21,1.58-.87,3.09-1.7,4.51-2.49-3.48-1.58-6.85-4-10.09-7.24-3.25-3.24-5.82-6.61-7.72-10.09-.48,2.22-1.43,4.27-2.85,6.17Z" style="fill:#fff; stroke:#3a7ca5; stroke-miterlimit:10; stroke-width:4.03px;"/><path d="m1033.6,380.54c-1.98,2.77-4.32,5.23-7.01,7.36-2.69,2.14-5.58,3.84-8.67,5.11-3.09,1.27-6.29,1.9-9.62,1.9-5.07,0-10.18-1.22-15.32-3.68-5.15-2.45-9.54-5.34-13.18-8.67-1.27,3.8-3.84,6.81-7.72,9.02-3.88,2.22-7.88,3.33-11.99,3.33-4.43,0-8.51-1.03-12.23-3.09-3.72-2.06-6.97-4.75-9.74-8.07-2.77-3.33-4.95-7.12-6.53-11.4-1.58-4.28-2.38-8.71-2.38-13.3,0-4.28.63-8.71,1.9-13.3,1.27-4.59,3.01-9.06,5.23-13.42,2.22-4.35,4.83-8.47,7.84-12.35,3.01-3.88,6.25-7.24,9.74-10.09-2.38-2.06-4.71-4.31-7.01-6.77-2.3-2.45-4.36-5.07-6.17-7.84-1.82-2.77-3.29-5.74-4.39-8.91-1.11-3.17-1.66-6.49-1.66-9.98s.51-6.73,1.54-10.21c1.03-3.48,2.22-6.65,3.56-9.5,1.34-2.85,2.53-5.3,3.56-7.36,1.03-2.06,1.54-3.32,1.54-3.8-.95-.95-1.86-1.74-2.73-2.38-.87-.63-1.66-1.42-2.38-2.38-.71-.95-1.31-2.26-1.78-3.92-.47-1.66-.71-4-.71-7.01,0-4.12.91-7.72,2.73-10.81,1.82-3.09,4.16-5.7,7.01-7.84,2.85-2.14,6.09-3.72,9.74-4.75,3.64-1.03,7.36-1.54,11.16-1.54,2.53,0,5.23.24,8.07.71,2.85.47,5.58,1.23,8.19,2.26,2.61,1.03,5.02,2.38,7.24,4.04,2.22,1.66,3.96,3.68,5.23,6.06.63-.63,1.7-1.5,3.21-2.61,1.5-1.11,3.44-2.22,5.82-3.33,2.38-1.11,5.26-2.02,8.67-2.73,3.4-.71,7.32-1.07,11.76-1.07,5.86,0,11.95,1.23,18.29,3.68,6.33,2.46,12.15,5.82,17.46,10.09,5.3,4.28,9.66,9.23,13.06,14.84,3.4,5.62,5.11,11.6,5.11,17.93,4.12,0,8.11,1.47,11.99,4.39,3.88,2.93,7.28,6.77,10.21,11.52,2.93,4.75,5.3,10.02,7.12,15.79,1.82,5.78,2.73,11.52,2.73,17.22,0,9.5-1.9,18.41-5.7,26.72s-8.91,15.6-15.32,21.85c-6.41,6.26-13.86,11.2-22.32,14.84-8.47,3.64-17.46,5.46-26.96,5.46-1.74,0-2.93-.24-3.56-.71-1.11,3.01-2.65,5.9-4.63,8.67Zm-16.03-99.16c-1.27,3.64-3.09,7.01-5.46,10.09-2.38,3.09-5.19,5.7-8.43,7.84-3.25,2.14-6.85,3.44-10.81,3.92,2.69,1.27,4.87,3.41,6.53,6.41,1.66,3.01,2.49,5.78,2.49,8.31,0,1.11-.04,2.42-.12,3.92-.08,1.51-.2,2.97-.36,4.39-.16,1.42-.4,2.73-.71,3.92-.32,1.19-.79,2.1-1.42,2.73,3.64-2.69,7.08-4.87,10.33-6.53,3.24-1.66,7.32-3.12,12.23-4.39-1.43-.79-2.93-1.86-4.51-3.21-1.58-1.34-2.38-2.97-2.38-4.87,0-3.48.63-6.97,1.9-10.45,1.27-3.48,3.01-6.65,5.23-9.5,2.22-2.85,4.71-5.3,7.48-7.36,2.77-2.06,5.74-3.48,8.91-4.28-2.53,0-4.95-.39-7.24-1.19-2.3-.79-4.27-1.78-5.94-2.97-1.66-1.19-2.97-2.45-3.92-3.8-.95-1.34-1.43-2.73-1.43-4.16h-.47c0,3.8-.63,7.52-1.9,11.16Z" style="fill:#fff; stroke:#3a7ca5; stroke-miterlimit:10; stroke-width:4.03px;"/><path d="m627.84,790.87c2.77,3.09,4.16,6.85,4.16,11.28,0,2.38-.63,4.63-1.9,6.77-1.27,2.14-2.85,4.16-4.75,6.06-1.9,1.9-3.96,3.76-6.17,5.58-2.22,1.82-4.27,3.53-6.18,5.11,6.33,7.6,11.08,15.91,14.25,24.94,3.17,9.02,4.75,18.37,4.75,28.02,0,6.33-.91,12.63-2.73,18.88-1.82,6.26-4.51,11.92-8.08,16.98-3.56,5.07-8.04,9.18-13.42,12.35-5.38,3.17-11.56,4.75-18.53,4.75-6.33,0-11.84-1.35-16.51-4.04-4.67-2.69-8.55-6.06-11.64-10.09-3.09-4.04-5.43-8.51-7.01-13.42-1.58-4.91-2.38-9.58-2.38-14.01,0-1.27.08-2.57.24-3.92.16-1.34.39-2.65.71-3.92,1.42-1.27,3.01-2.97,4.75-5.11,1.74-2.14,3.36-4.39,4.87-6.77,1.5-2.38,2.77-4.67,3.8-6.89,1.03-2.21,1.54-4.04,1.54-5.46,0-3.17-.44-6.65-1.31-10.45-.87-3.8-1.31-7.12-1.31-9.97,0-3.17.87-5.54,2.61-7.12,1.74-1.58,3.72-2.69,5.94-3.33.79-.32,1.94-1.03,3.44-2.14,1.5-1.11,2.41-2.29,2.73-3.56-.63,0-1.42.2-2.38.59-.95.4-2.85,1.31-5.7,2.73-4.43,2.38-7.21,4.71-8.31,7.01-1.11,2.3-1.66,4.55-1.66,6.77,0,2.54.43,5.07,1.31,7.6.87,2.53,1.31,4.99,1.31,7.36,0,4.43-.99,8.55-2.97,12.35-1.98,3.8-4.51,7.12-7.6,9.98-3.09,2.85-6.45,5.11-10.09,6.77-3.64,1.66-7.12,2.49-10.45,2.49-4.59,0-9.11-.91-13.54-2.73-4.43-1.82-8.35-4.28-11.76-7.36-3.41-3.09-6.17-6.73-8.31-10.93-2.14-4.19-3.21-8.67-3.21-13.42,0-2.69.32-5.46.95-8.31.63-2.85,1.34-5.46,2.14-7.84.63-.63,1.38-1.42,2.26-2.38.87-.95,1.7-1.98,2.49-3.09.79-1.11,1.43-2.26,1.9-3.44.48-1.19.63-2.26.48-3.21-1.58,1.74-3.29,3.8-5.11,6.17-1.82,2.38-4,3.56-6.53,3.56-2.85,0-5.34-.67-7.48-2.02-2.14-1.34-4.32-2.65-6.53-3.92.16,1.74.87,3.17,2.14,4.28,1.27,1.11,2.65,2.06,4.16,2.85,1.5.79,3.01,1.39,4.51,1.78,1.5.4,2.65.59,3.44.59-.16,2.53-.44,4.95-.83,7.24-.4,2.3-.59,4.79-.59,7.48,0,6.65,1.86,12.91,5.58,18.76,3.72,5.86,8.98,11.01,15.79,15.44v5.23c0,4.91-1.47,9.62-4.39,14.13-2.93,4.51-6.57,8.47-10.92,11.88-4.36,3.41-9.11,6.14-14.25,8.19-5.15,2.06-9.86,3.09-14.13,3.09-3.8,0-7.6-.71-11.4-2.14-3.8-1.42-7.21-3.36-10.21-5.82-3.01-2.45-5.46-5.46-7.36-9.03s-2.85-7.48-2.85-11.76c0-4.59.95-8.71,2.85-12.35,1.9-3.64,4.43-7.12,7.6-10.45-3.64-3.01-6.65-7.01-9.02-11.99s-3.56-10.01-3.56-15.08c0-2.69.43-5.46,1.31-8.31.87-2.85,1.94-5.66,3.21-8.43,1.27-2.77,2.61-5.42,4.04-7.96,1.43-2.53,2.77-4.75,4.04-6.65-1.27-4.59-2.97-9.06-5.11-13.42-2.14-4.35-3.21-9.06-3.21-14.13,0-5.86,1.27-11.71,3.8-17.58,2.53-5.86,6.02-11.12,10.45-15.79,4.43-4.67,9.5-8.47,15.2-11.4,5.7-2.93,11.79-4.39,18.29-4.39,4.75,0,9.86,1.03,15.32,3.09,5.46,2.06,10.57,4.83,15.32,8.31,4.75,3.49,8.67,7.56,11.76,12.23,3.09,4.67,4.63,9.62,4.63,14.84l.95,9.26c0-3.01.79-6.33,2.38-9.97,1.58-3.64,3.56-7.24,5.94-10.81s4.91-6.89,7.6-9.97c2.69-3.09,5.14-5.74,7.36-7.96,3.8-3.64,8.11-6.06,12.94-7.24,4.83-1.19,9.77-1.78,14.84-1.78,3.48,0,7.32.52,11.52,1.54,4.19,1.03,8.11,2.61,11.76,4.75,3.64,2.14,6.65,4.79,9.03,7.96,2.38,3.17,3.56,6.89,3.56,11.16,0,1.58-.12,3.25-.36,4.99-.24,1.74-.56,3.41-.95,4.99-.4,1.58-.87,2.97-1.42,4.16-.56,1.19-1.15,2.02-1.78,2.49,2.53,2.54,5.18,5.34,7.96,8.43Z" style="fill:#fff; stroke:#3a7ca5; stroke-miterlimit:10; stroke-width:4.03px;"/><path d="m654.56,785.05c-2.22-3.48-3.33-7.28-3.33-11.4,0-2.69.63-5.07,1.9-7.12,1.27-2.06,2.89-3.8,4.87-5.23,1.98-1.42,4.16-2.53,6.53-3.32,2.38-.79,4.67-1.19,6.89-1.19-2.69-3.33-4.04-6.49-4.04-9.5,0-1.74.48-3.24,1.43-4.51.95-1.27,2.1-2.33,3.44-3.21,1.34-.87,2.81-1.5,4.39-1.9,1.58-.39,3.09-.59,4.51-.59,4.59,0,8.11,1.66,10.57,4.99,2.45,3.33,3.68,6.65,3.68,9.98,5.86.79,10.29,3.21,13.3,7.24,3.01,4.04,4.51,8.35,4.51,12.94,0,4.12-1.31,7.84-3.92,11.16s-6.69,4.99-12.23,4.99c.63,1.27,1.58,3.25,2.85,5.94,1.27,2.69,2.53,5.58,3.8,8.67,1.27,3.09,2.38,6.14,3.32,9.14.95,3.01,1.43,5.46,1.43,7.36,0,1.74-.12,3.68-.36,5.82s-.71,4.24-1.42,6.29c-.71,2.06-1.66,3.84-2.85,5.34-1.19,1.51-2.73,2.42-4.63,2.73,3.96,3.17,7.72,6.77,11.28,10.81s6.69,8.35,9.38,12.94c2.69,4.59,4.79,9.34,6.29,14.25,1.5,4.91,2.26,9.9,2.26,14.96s-1.07,9.94-3.21,14.61c-2.14,4.67-5.23,8.79-9.26,12.35s-8.99,6.45-14.84,8.67c-5.86,2.22-12.59,3.33-20.19,3.33-6.17,0-11.6-1.15-16.27-3.44-4.67-2.29-8.59-5.34-11.76-9.14-3.17-3.8-5.54-8.15-7.12-13.06-1.58-4.91-2.38-10.05-2.38-15.44,0-7.12.99-13.3,2.97-18.52,1.98-5.23,4.35-9.54,7.12-12.94,2.77-3.4,5.7-5.94,8.79-7.6,3.09-1.66,5.74-2.49,7.96-2.49-3.17-2.53-6.02-5.97-8.55-10.33-2.53-4.35-3.8-8.82-3.8-13.42,0-2.69.27-5.62.83-8.79.55-3.17,1.22-6.25,2.02-9.26.79-3.01,1.62-5.82,2.49-8.43.87-2.61,1.62-4.79,2.26-6.53-5.07-1.26-8.71-3.64-10.92-7.12Z" style="fill:#fff; stroke:#3a7ca5; stroke-miterlimit:10; stroke-width:4.03px;"/><path d="m824.37,905.46c.16-.79.55-2.29,1.19-4.51.63-2.22.95-3.8.95-4.75,0-4.28-.91-7.99-2.73-11.16-1.82-3.17-4.08-6.09-6.77-8.79-3.17-3.33-6.1-6.81-8.79-10.45-2.69-3.64-4.04-8.23-4.04-13.77-.63,4.43-2.77,8.43-6.41,11.99-3.64,3.56-7.68,5.34-12.11,5.34,3.96.63,8.11,1.39,12.47,2.26,4.35.87,8.35,2.26,11.99,4.16,3.64,1.9,6.65,4.48,9.02,7.72,2.38,3.25,3.56,7.48,3.56,12.71,0,4.43-.99,8.55-2.97,12.35-1.98,3.8-4.55,7.05-7.72,9.74-3.17,2.69-6.69,4.83-10.57,6.41-3.88,1.58-7.8,2.38-11.76,2.38-5.54,0-10.89-1.22-16.03-3.68-5.15-2.45-9.78-5.74-13.89-9.86-4.12-4.12-7.4-8.83-9.86-14.13-2.46-5.3-3.68-10.81-3.68-16.51s.59-11.08,1.78-15.67c1.19-4.59,3.68-9.03,7.48-13.3-4.91-3.64-8.51-8.67-10.81-15.08-2.3-6.41-3.44-12.71-3.44-18.88s1.22-12.19,3.68-18.05c2.45-5.86,6.45-10.45,11.99-13.78-2.22,0-4.24-.71-6.06-2.14-1.82-1.42-3.37-3.17-4.63-5.22-1.27-2.06-2.22-4.28-2.85-6.65-.63-2.38-.95-4.59-.95-6.65,0-3.48.79-6.85,2.38-10.09,1.58-3.24,3.64-6.13,6.17-8.67,2.53-2.53,5.42-4.55,8.67-6.06,3.24-1.5,6.61-2.26,10.09-2.26,6.81,0,13.81.87,21.02,2.61,7.2,1.74,13.77,4.28,19.71,7.6,5.94,3.33,10.81,7.44,14.61,12.35,3.8,4.91,5.7,10.53,5.7,16.86,0,3.96-.56,7.6-1.66,10.92-1.11,3.33-3.01,6.57-5.7,9.74.95-.32,1.82-.47,2.61-.47h2.85c4.75,0,9.06,1.15,12.94,3.44,3.88,2.3,7.12,5.27,9.74,8.91,2.61,3.64,4.63,7.76,6.06,12.35,1.42,4.59,2.14,9.11,2.14,13.54,0,2.69-.2,4.67-.59,5.94-.4,1.27-.99,3.01-1.78,5.23,2.22-2.06,3.68-4.12,4.39-6.18.71-2.06,1.07-3.56,1.07-4.51,0-3.33-.36-6.85-1.07-10.57-.71-3.72-1.82-7.28-3.33-10.69-1.51-3.4-3.41-6.53-5.7-9.38-2.3-2.85-5.03-5.14-8.19-6.89-1.27-4.12-2.18-8.51-2.73-13.18-.56-4.67-.83-9.14-.83-13.42,0-5.07.83-9.89,2.49-14.49,1.66-4.59,3.96-8.59,6.89-11.99,2.93-3.4,6.53-6.09,10.81-8.08,4.27-1.98,9.02-2.97,14.25-2.97,6.17,0,11.2,1.39,15.08,4.16,3.88,2.77,6.97,6.33,9.26,10.69,2.29,4.36,3.88,9.18,4.75,14.49.87,5.31,1.31,10.41,1.31,15.32,0,5.54-.68,10.77-2.02,15.67-1.35,4.91-3.6,9.74-6.77,14.49,2.69,3.17,4.83,6.57,6.41,10.21,1.58,3.64,2.38,7.52,2.38,11.64,0,3.17-.52,6.1-1.54,8.79-1.03,2.69-2.81,5.07-5.34,7.12-1.27-1.58-2.49-2.77-3.68-3.56-1.19-.79-2.42-1.42-3.68-1.9,3.32,4.43,5.9,8.39,7.72,11.88,1.82,3.48,3.12,6.65,3.92,9.5.79,2.85,1.27,5.46,1.43,7.84.16,2.38.24,4.59.24,6.65,0,6.65-1.19,12.83-3.56,18.53s-5.66,10.65-9.86,14.84-9.11,7.48-14.73,9.86c-5.62,2.38-11.76,3.56-18.41,3.56-2.22,0-5.23-.59-9.02-1.78-3.8-1.19-7.56-2.77-11.28-4.75-3.72-1.98-6.93-4.23-9.62-6.77-2.69-2.53-4.04-5.14-4.04-7.84v-.24Z" style="fill:#fff; stroke:#3a7ca5; stroke-miterlimit:10; stroke-width:4.03px;"/><path d="m1019.47,912.71c-1.98,2.77-4.32,5.23-7.01,7.36-2.69,2.14-5.58,3.84-8.67,5.11-3.09,1.27-6.29,1.9-9.62,1.9-5.07,0-10.18-1.22-15.32-3.68-5.15-2.45-9.54-5.34-13.18-8.67-1.27,3.8-3.84,6.81-7.72,9.02-3.88,2.22-7.88,3.33-11.99,3.33-4.43,0-8.51-1.03-12.23-3.09-3.72-2.06-6.97-4.75-9.74-8.07-2.77-3.33-4.95-7.12-6.53-11.4-1.58-4.28-2.38-8.71-2.38-13.3,0-4.28.63-8.71,1.9-13.3,1.27-4.59,3.01-9.06,5.23-13.42,2.22-4.35,4.83-8.47,7.84-12.35,3.01-3.88,6.25-7.24,9.74-10.09-2.38-2.06-4.71-4.31-7.01-6.77-2.3-2.45-4.36-5.07-6.17-7.84-1.82-2.77-3.29-5.74-4.39-8.91-1.11-3.17-1.66-6.49-1.66-9.98s.51-6.73,1.54-10.21c1.03-3.48,2.22-6.65,3.56-9.5,1.34-2.85,2.53-5.3,3.56-7.36,1.03-2.06,1.54-3.32,1.54-3.8-.95-.95-1.86-1.74-2.73-2.38-.87-.63-1.66-1.42-2.38-2.38-.71-.95-1.31-2.26-1.78-3.92-.47-1.66-.71-4-.71-7.01,0-4.12.91-7.72,2.73-10.81,1.82-3.09,4.16-5.7,7.01-7.84,2.85-2.14,6.09-3.72,9.74-4.75,3.64-1.03,7.36-1.54,11.16-1.54,2.53,0,5.23.24,8.07.71,2.85.47,5.58,1.23,8.19,2.26,2.61,1.03,5.02,2.38,7.24,4.04,2.22,1.66,3.96,3.68,5.23,6.06.63-.63,1.7-1.5,3.21-2.61,1.5-1.11,3.44-2.22,5.82-3.33,2.38-1.11,5.26-2.02,8.67-2.73,3.4-.71,7.32-1.07,11.76-1.07,5.86,0,11.95,1.23,18.29,3.68,6.33,2.46,12.15,5.82,17.46,10.09,5.3,4.28,9.66,9.23,13.06,14.84,3.4,5.62,5.11,11.6,5.11,17.93,4.12,0,8.11,1.47,11.99,4.39,3.88,2.93,7.28,6.77,10.21,11.52,2.93,4.75,5.3,10.02,7.12,15.79,1.82,5.78,2.73,11.52,2.73,17.22,0,9.5-1.9,18.41-5.7,26.72s-8.91,15.6-15.32,21.85c-6.41,6.26-13.86,11.2-22.32,14.84-8.47,3.64-17.46,5.46-26.96,5.46-1.74,0-2.93-.24-3.56-.71-1.11,3.01-2.65,5.9-4.63,8.67Zm-16.03-99.16c-1.27,3.64-3.09,7.01-5.46,10.09-2.38,3.09-5.19,5.7-8.43,7.84-3.25,2.14-6.85,3.44-10.81,3.92,2.69,1.27,4.87,3.41,6.53,6.41,1.66,3.01,2.49,5.78,2.49,8.31,0,1.11-.04,2.42-.12,3.92-.08,1.51-.2,2.97-.36,4.39-.16,1.42-.4,2.73-.71,3.92-.32,1.19-.79,2.1-1.42,2.73,3.64-2.69,7.08-4.87,10.33-6.53,3.24-1.66,7.32-3.12,12.23-4.39-1.43-.79-2.93-1.86-4.51-3.21-1.58-1.34-2.38-2.97-2.38-4.87,0-3.48.63-6.97,1.9-10.45,1.27-3.48,3.01-6.65,5.23-9.5,2.22-2.85,4.71-5.3,7.48-7.36,2.77-2.06,5.74-3.48,8.91-4.28-2.53,0-4.95-.39-7.24-1.19-2.3-.79-4.27-1.78-5.94-2.97-1.66-1.19-2.97-2.45-3.92-3.8-.95-1.34-1.43-2.73-1.43-4.16h-.47c0,3.8-.63,7.52-1.9,11.16Z" style="fill:#fff; stroke:#3a7ca5; stroke-miterlimit:10; stroke-width:4.03px;"/></svg>