<?xml version="1.0" encoding="UTF-8"?><svg id="a" xmlns="http://www.w3.org/2000/svg" xmlns:xlink="http://www.w3.org/1999/xlink" viewBox="0 0 1536 1024"><defs><filter id="b" filterUnits="userSpaceOnUse"><feOffset dx="5.88" dy="5.88"/><feGaussianBlur result="c" stdDeviation="0"/><feFlood flood-color="#000" flood-opacity="1"/><feComposite in2="c" operator="in"/><feComposite in="SourceGraphic"/></filter></defs><g style="filter:url(#b);"><path d="m216.88,792.09c-1.66,8.93-2.92,17.79-3.79,26.57-.87,8.78-1.39,17.76-1.56,26.95h-12.43l-1.05-23.31-32.07-.72c-3.77,25.34-6.48,49.75-8.13,73.21l20.74.67c-1.71,9.13-3.11,18.23-4.17,27.31l-50.24,3.08-1.35-33.12,17.95,1.05v-72.19l-29.38-.84-4.3,25.2-12.26.67,2.06-50.24,119.99-4.3Z" style="fill:#f2e863; stroke-width:0px;"/><path d="m320.42,785.89c8.04,34.87,18.39,70.42,31.06,106.67l17.45.84-2.95,24.36-52.64,3.79-3.29-30.72,23.14,1.01-7.59-21.58-54.37,2.28-11.04,19.68,19.47.51-1.35,25.71-51.29,3.96c.48-7.59.72-12.81.72-15.68,0-3.76-.24-9.17-.72-16.23l16.94,1.01c3.03-6.18,5.8-11.84,8.3-16.98,2.5-5.14,5.77-11.84,9.82-20.1s7.59-15.48,10.64-21.66c3.05-6.18,5.6-11.34,7.65-15.47l-23.31.34,5.02-26.59c19.3,0,38.74-1.71,58.33-5.14Zm-5.35-46.78l-31.4,37.42-9.69-5.18,18.5-40.38,22.59,8.13Zm4.68,117.04l-17.45-40.58-22.97,39.53,40.42,1.05Z" style="fill:#f2e863; stroke-width:0px;"/><path d="m537.22,794.32c6.35,0,11.31.11,14.88.34,24.98-.59,39.24-.93,42.78-1.01-1.85,13.05-3.01,22.58-3.46,28.62l-16.06-1.39-4.47,102.92-21.58.34-62.33-96.17-4.64,68.89,18.8,1.05-1.01,26.22-47.16,1.39-.34-31.73,13.82,1.69-.67-73.54-24.36-1.56,4.85-25.33,49.18-2.11,60.27,108.61-.88-80.33-20.02-.51,2.4-26.38Z" style="fill:#f2e863; stroke-width:0px;"/><path d="m697.24,785.89c8.04,34.87,18.39,70.42,31.06,106.67l17.45.84-2.95,24.36-52.64,3.79-3.29-30.72,23.14,1.01-7.59-21.58-54.37,2.28-11.04,19.68,19.47.51-1.35,25.71-51.29,3.96c.48-7.59.72-12.81.72-15.68,0-3.76-.24-9.17-.72-16.23l16.94,1.01c3.03-6.18,5.8-11.84,8.3-16.98,2.5-5.14,5.77-11.84,9.82-20.1s7.59-15.48,10.64-21.66c3.05-6.18,5.6-11.34,7.65-15.47l-23.31.34,5.02-26.59c19.3,0,38.74-1.71,58.33-5.14Zm-.67,70.25l-17.45-40.58-22.97,39.53,40.42,1.05Z" style="fill:#f2e863; stroke-width:0px;"/><path d="m925.79,789.31l16.94-.67c-2.16,17.5-4.02,37.65-5.56,60.44l-13.78,2.23.67-18.46c-5.96-3.06-10.5-5.3-13.63-6.7-3.13-1.4-6.65-2.54-10.54-3.41-3.89-.87-8.61-1.36-14.14-1.48-6.46,0-12.67,1.03-18.61,3.08s-11.28,4.99-16.01,8.83-8.54,8.39-11.42,13.68c-2.88,5.28-4.5,11.03-4.87,17.24,0,6.97,2.72,12.58,8.18,16.84,5.45,4.26,12.49,7.28,21.12,9.06,8.62,1.79,17.84,2.71,27.65,2.76,11.15-.14,21.8-1.12,31.95-2.95l21.24-4.64-5.01,24.15c-6.66,2.61-12.08,4.75-16.28,6.41-4.2,1.66-8.7,3.25-13.5,4.76-4.8,1.52-9.68,2.71-14.64,3.58-4.96.87-10.1,1.31-15.44,1.31-.48,0-1.18-.03-2.11-.08s-1.62-.08-2.06-.08c-8.03-.31-15.58-1.73-22.65-4.28s-13.37-6.25-18.92-11.13c-5.55-4.87-9.9-10.94-13.06-18.18-3.16-7.25-4.74-15.5-4.74-24.74.39-10.06,2.27-19.72,5.62-28.97,3.36-9.26,7.98-17.54,13.86-24.84,5.88-7.3,12.86-13.21,20.92-17.72,8.06-4.51,16.74-7.09,26.04-7.73.93-.11,2.32-.17,4.17-.17,4.02,0,7.79.46,11.31,1.39,3.53.93,6.92,2.23,10.17,3.9,3.26,1.67,6.97,3.88,11.12,6.64l5.01,3.46,1.01-13.49Z" style="fill:#f2e863; stroke-width:0px;"/><path d="m1047.17,785.89c8.04,34.87,18.39,70.42,31.06,106.67l17.45.84-2.95,24.36-52.64,3.79-3.29-30.72,23.14,1.01-7.59-21.58-54.37,2.28-11.04,19.68,19.47.51-1.35,25.71-51.29,3.96c.48-7.59.72-12.81.72-15.68,0-3.76-.24-9.17-.72-16.23l16.94,1.01c3.03-6.18,5.8-11.84,8.3-16.98,2.5-5.14,5.77-11.84,9.82-20.1s7.59-15.48,10.64-21.66c3.05-6.18,5.6-11.34,7.65-15.47l-23.31.34,5.02-26.59c19.3,0,38.74-1.71,58.33-5.14Zm-.67,70.25l-17.45-40.58-22.97,39.53,40.42,1.05Z" style="fill:#f2e863; stroke-width:0px;"/><path d="m1209.8,895.47c2.95,1.24,6.86,2.05,11.72,2.44,1.94-.11,4.45-.34,7.52-.67,3.08-.34,5.64-.58,7.69-.72-2.11,9.3-3.48,18.39-4.13,27.27l-38.69,4.17-8.47-27.82c-.9-2.92-1.77-5.69-2.61-8.3-.84-2.61-1.71-4.85-2.61-6.72-.9-1.87-2.15-3.71-3.75-5.52-1.6-1.81-3.55-3.36-5.86-4.66-2.14-1.29-4.8-2.23-7.99-2.8-3.19-.58-7.34-1.1-12.45-1.56-5.11-.46-8.32-.79-9.61-.99l-2.91,26.26,22.76,2.4c-2.53,9.22-4.07,17.27-4.64,24.15l-49.9,4.51v-33.84l14.16,1.39,3.12-75.44-20.02-.34,5.14-23.64,33.67-3.29c19.22-1.63,33.03-2.44,41.43-2.44,7.36,0,13.96.42,19.79,1.24,5.83.83,11,2.25,15.51,4.26,4.51,2.01,8.07,4.87,10.68,8.58,2.61,3.71,3.92,8.34,3.92,13.91,0,20.48-13.46,36.88-40.37,49.18l-5.02,2.44,4.3,3.29c2.44,1.88,4.57,4.52,6.38,7.9s3.5,6.45,5.08,9.19,3.62,4.8,6.15,6.17Zm-44.88-74.22l-19.01-.84-4.3,35.74h10.54c37.06,0,55.59-6.56,55.59-19.68-.25-7.9-14.53-12.97-42.82-15.21Z" style="fill:#f2e863; stroke-width:0px;"/><path d="m1340.45,785.89c8.04,34.87,18.39,70.42,31.06,106.67l17.45.84-2.95,24.36-52.64,3.79-3.29-30.72,23.14,1.01-7.59-21.58-54.37,2.28-11.04,19.68,19.47.51-1.35,25.71-51.29,3.96c.48-7.59.72-12.81.72-15.68,0-3.76-.24-9.17-.72-16.23l16.94,1.01c3.03-6.18,5.8-11.84,8.3-16.98,2.5-5.14,5.77-11.84,9.82-20.1s7.59-15.48,10.64-21.66c3.05-6.18,5.6-11.34,7.65-15.47l-23.31.34,5.02-26.59c19.3,0,38.74-1.71,58.33-5.14Zm-.67,70.25l-17.45-40.58-22.97,39.53,40.42,1.05Z" style="fill:#f2e863; stroke-width:0px;"/><path d="m1415.04,893.74c4.69.17,8.65,1.84,11.88,5,3.23,3.17,4.85,7.03,4.85,11.58s-1.66,8.59-4.99,11.92c-3.33,3.33-7.35,5-12.07,5s-8.63-1.51-11.99-4.54-5.12-6.81-5.29-11.37c0-4.61,1.69-8.7,5.08-12.26s7.34-5.34,11.86-5.34h.67Zm27.6-103.04c-8.96,27.41-15.47,57.49-19.51,90.23l-13.78-1.73c0-2.11.06-4.91.17-8.42.11-3.51.17-6.04.17-7.58,0-20.56-.93-42.59-2.78-66.09,12.64-1.46,24.56-3.59,35.74-6.4Z" style="fill:#f2e863; stroke-width:0px;"/></g></svg>