<?xml version="1.0" encoding="UTF-8"?><svg id="a" xmlns="http://www.w3.org/2000/svg" viewBox="0 0 1536 1024"><path d="m150.33,910.8h-35.49l-18.23-127.78h31.66l9.4,93.82,37.99-93.82h34.34l-59.67,127.78Z" style="fill:#3a7ca5; stroke-width:0px;"/><path d="m230.71,910.8h-30.7l22.45-127.78h30.7l-22.45,127.78Z" style="fill:#3a7ca5; stroke-width:0px;"/><path d="m332.97,780.72c6.39,0,12.57.51,18.51,1.54,5.95,1.03,11.73,2.94,17.36,5.76l-5.56,22.64c-3.84-1.66-8.15-3.04-12.95-4.12-4.8-1.09-9.75-1.63-14.87-1.63-6.91,0-13.14,1.22-18.71,3.65-5.56,2.43-10.3,5.85-14.2,10.26-3.9,4.41-6.88,9.75-8.92,16.02-2.05,6.27-3.07,13.3-3.07,21.1,0,11.26,3.07,19.57,9.21,24.94s14.45,8.06,24.94,8.06c4.99,0,9.59-.32,13.81-.96,4.22-.64,8.5-1.73,12.85-3.26l3.07,22.45c-5.63,2.3-11.19,3.87-16.69,4.7-5.5.83-11.45,1.25-17.84,1.25-10.11,0-18.9-1.44-26.38-4.32s-13.72-6.84-18.71-11.9c-4.99-5.05-8.73-11-11.22-17.84-2.49-6.84-3.74-14.16-3.74-21.97,0-10.87,1.63-20.94,4.89-30.22,3.26-9.27,7.99-17.33,14.2-24.17,6.2-6.84,13.84-12.21,22.93-16.12,9.08-3.9,19.44-5.85,31.08-5.85Z" style="fill:#3a7ca5; stroke-width:0px;"/><path d="m392.26,783.02h76.74l-4.22,23.98h-46.05l-4.8,27.05h43.74l-4.22,23.98h-43.55l-5.18,28.78h46.62l-4.22,23.98h-77.32l22.45-127.78Z" style="fill:#3a7ca5; stroke-width:0px;"/><path d="m473.79,872.81l4.22-23.98h52.19l-4.22,23.98h-52.19Z" style="fill:#3a7ca5; stroke-width:0px;"/><path d="m620.56,780.72c6.39,0,12.57.51,18.51,1.54,5.95,1.03,11.73,2.94,17.36,5.76l-5.56,22.64c-3.84-1.66-8.15-3.04-12.95-4.12-4.8-1.09-9.75-1.63-14.87-1.63-6.91,0-13.14,1.22-18.71,3.65-5.56,2.43-10.3,5.85-14.2,10.26-3.9,4.41-6.88,9.75-8.92,16.02-2.05,6.27-3.07,13.3-3.07,21.1,0,11.26,3.07,19.57,9.21,24.94s14.45,8.06,24.94,8.06c4.99,0,9.59-.32,13.81-.96,4.22-.64,8.5-1.73,12.85-3.26l3.07,22.45c-5.63,2.3-11.19,3.87-16.69,4.7-5.5.83-11.45,1.25-17.84,1.25-10.11,0-18.9-1.44-26.38-4.32s-13.72-6.84-18.71-11.9c-4.99-5.05-8.73-11-11.22-17.84-2.49-6.84-3.74-14.16-3.74-21.97,0-10.87,1.63-20.94,4.89-30.22,3.26-9.27,7.99-17.33,14.2-24.17,6.2-6.84,13.84-12.21,22.93-16.12,9.08-3.9,19.44-5.85,31.08-5.85Z" style="fill:#3a7ca5; stroke-width:0px;"/><path d="m744.5,885.86h-47.77l-12.28,24.94h-33.77l69.84-127.78h33.96l25.33,127.78h-31.46l-3.84-24.94Zm-35.88-24.17h32.23l-7.29-51.61-24.94,51.61Z" style="fill:#3a7ca5; stroke-width:0px;"/><path d="m882.07,890.08h-31.46l-13.81-51.8-16.12,72.52h-29.16l28.59-127.78h28.97l21.49,77.89,47.96-77.89h31.08l-16.12,127.78h-29.16l9.21-71.56-31.46,50.84Z" style="fill:#3a7ca5; stroke-width:0px;"/><path d="m1062.99,819.28c0,8.06-1.6,15.03-4.8,20.91-3.2,5.88-7.55,10.81-13.05,14.77-5.5,3.97-11.83,6.91-18.99,8.83-7.17,1.92-14.65,2.88-22.45,2.88h-9.21l-7.87,44.13h-30.7l22.45-127.78h42.21c6.65,0,12.63.9,17.94,2.69,5.31,1.79,9.75,4.29,13.33,7.48,3.58,3.2,6.33,7.04,8.25,11.51,1.92,4.48,2.88,9.34,2.88,14.58Zm-58.13,23.98c3.58,0,7.03-.39,10.36-1.16,3.32-.77,6.27-2,8.83-3.68,2.56-1.68,4.57-3.91,6.04-6.69,1.47-2.78,2.21-6.11,2.21-9.99,0-4.65-1.44-8.37-4.32-11.15-2.88-2.78-6.75-4.17-11.61-4.17h-11.32l-6.52,36.84h6.33Z" style="fill:#3a7ca5; stroke-width:0px;"/><path d="m1085.43,783.02h76.74l-4.22,23.98h-46.05l-4.8,27.05h43.74l-4.22,23.98h-43.55l-5.18,28.78h46.62l-4.22,23.98h-77.32l22.45-127.78Z" style="fill:#3a7ca5; stroke-width:0px;"/><path d="m1246.79,885.86h-47.77l-12.28,24.94h-33.77l69.84-127.78h33.96l25.33,127.78h-31.46l-3.84-24.94Zm14.01-114.73c-3.33,0-6.69-.45-10.07-1.34-3.39-.89-6.62-1.92-9.69-3.07-2.94-1.02-5.41-1.95-7.39-2.78-1.98-.83-3.93-1.25-5.85-1.25-2.69,0-4.64.7-5.85,2.11-1.22,1.41-2.27,3.45-3.17,6.14l-17.65-5.76c2.04-9.21,5.34-15.45,9.88-18.71,4.54-3.26,10.01-4.89,16.4-4.89,3.32,0,6.33.35,9.02,1.05,2.69.71,5.88,1.7,9.59,2.97,3.07,1.03,5.76,2.01,8.06,2.97,2.3.96,4.41,1.44,6.33,1.44,2.56,0,4.35-.67,5.37-2.01,1.02-1.34,1.92-3.1,2.69-5.28l15.73,6.91c-2.05,7.55-5.02,13.02-8.92,16.4-3.9,3.39-8.73,5.08-14.49,5.08Zm-49.88,90.56h32.23l-7.29-51.61-24.94,51.61Z" style="fill:#3a7ca5; stroke-width:0px;"/><path d="m1423.49,834.63c0,9.59-1.66,19.09-4.99,28.49-3.33,9.4-8.09,17.81-14.29,25.23-6.21,7.42-13.81,13.4-22.83,17.94-9.02,4.54-19.22,6.81-30.6,6.81-9.59,0-17.94-1.47-25.04-4.41-7.1-2.94-12.98-6.91-17.65-11.9-4.67-4.99-8.12-10.71-10.36-17.17-2.24-6.46-3.36-13.14-3.36-20.05,0-11.13,1.76-21.49,5.28-31.08,3.52-9.59,8.44-17.94,14.77-25.04,6.33-7.1,13.94-12.66,22.83-16.69,8.89-4.03,18.77-6.04,29.64-6.04,9.59,0,17.94,1.41,25.04,4.22,7.1,2.82,12.98,6.69,17.65,11.61,4.67,4.92,8.15,10.65,10.46,17.17,2.3,6.52,3.45,13.5,3.45,20.91Zm-70.99,54.3c6.52,0,12.28-1.56,17.27-4.7,4.99-3.13,9.18-7.22,12.57-12.28,3.39-5.05,5.98-10.71,7.77-16.98,1.79-6.27,2.69-12.53,2.69-18.8,0-4.09-.51-8.02-1.53-11.8-1.03-3.77-2.66-7.1-4.89-9.98-2.24-2.88-5.12-5.18-8.63-6.91-3.52-1.73-7.77-2.59-12.76-2.59-6.52,0-12.25,1.6-17.17,4.8-4.92,3.2-9.08,7.32-12.47,12.38-3.39,5.05-5.95,10.71-7.67,16.98-1.73,6.27-2.59,12.47-2.59,18.61,0,4.1.51,8.03,1.54,11.8,1.02,3.77,2.62,7.1,4.8,9.98,2.17,2.88,4.99,5.18,8.44,6.91s7.67,2.59,12.66,2.59Z" style="fill:#3a7ca5; stroke-width:0px;"/><path d="m176.6,910.8h-35.49l-18.23-127.78h31.66l9.4,93.82,37.99-93.82h34.34l-59.67,127.78Z" style="fill:#fff; stroke-width:0px;"/><path d="m256.98,910.8h-30.7l22.45-127.78h30.7l-22.45,127.78Z" style="fill:#fff; stroke-width:0px;"/><path d="m359.24,780.72c6.39,0,12.57.51,18.51,1.54,5.95,1.03,11.73,2.94,17.36,5.76l-5.56,22.64c-3.84-1.66-8.15-3.04-12.95-4.12-4.8-1.09-9.75-1.63-14.87-1.63-6.91,0-13.14,1.22-18.71,3.65-5.56,2.43-10.3,5.85-14.2,10.26-3.9,4.41-6.88,9.75-8.92,16.02-2.05,6.27-3.07,13.3-3.07,21.1,0,11.26,3.07,19.57,9.21,24.94s14.45,8.06,24.94,8.06c4.99,0,9.59-.32,13.81-.96,4.22-.64,8.5-1.73,12.85-3.26l3.07,22.45c-5.63,2.3-11.19,3.87-16.69,4.7-5.5.83-11.45,1.25-17.84,1.25-10.11,0-18.9-1.44-26.38-4.32s-13.72-6.84-18.71-11.9c-4.99-5.05-8.73-11-11.22-17.84-2.49-6.84-3.74-14.16-3.74-21.97,0-10.87,1.63-20.94,4.89-30.22,3.26-9.27,7.99-17.33,14.2-24.17,6.2-6.84,13.84-12.21,22.93-16.12,9.08-3.9,19.44-5.85,31.08-5.85Z" style="fill:#fff; stroke-width:0px;"/><path d="m418.53,783.02h76.74l-4.22,23.98h-46.05l-4.8,27.05h43.74l-4.22,23.98h-43.55l-5.18,28.78h46.62l-4.22,23.98h-77.32l22.45-127.78Z" style="fill:#fff; stroke-width:0px;"/><path d="m500.06,872.81l4.22-23.98h52.19l-4.22,23.98h-52.19Z" style="fill:#fff; stroke-width:0px;"/><path d="m646.83,780.72c6.39,0,12.57.51,18.51,1.54,5.95,1.03,11.73,2.94,17.36,5.76l-5.56,22.64c-3.84-1.66-8.15-3.04-12.95-4.12-4.8-1.09-9.75-1.63-14.87-1.63-6.91,0-13.14,1.22-18.71,3.65-5.56,2.43-10.3,5.85-14.2,10.26-3.9,4.41-6.88,9.75-8.92,16.02-2.05,6.27-3.07,13.3-3.07,21.1,0,11.26,3.07,19.57,9.21,24.94s14.45,8.06,24.94,8.06c4.99,0,9.59-.32,13.81-.96,4.22-.64,8.5-1.73,12.85-3.26l3.07,22.45c-5.63,2.3-11.19,3.87-16.69,4.7-5.5.83-11.45,1.25-17.84,1.25-10.11,0-18.9-1.44-26.38-4.32s-13.72-6.84-18.71-11.9c-4.99-5.05-8.73-11-11.22-17.84-2.49-6.84-3.74-14.16-3.74-21.97,0-10.87,1.63-20.94,4.89-30.22,3.26-9.27,7.99-17.33,14.2-24.17,6.2-6.84,13.84-12.21,22.93-16.12,9.08-3.9,19.44-5.85,31.08-5.85Z" style="fill:#fff; stroke-width:0px;"/><path d="m770.77,885.86h-47.77l-12.28,24.94h-33.77l69.84-127.78h33.96l25.33,127.78h-31.46l-3.84-24.94Zm-35.88-24.17h32.23l-7.29-51.61-24.94,51.61Z" style="fill:#fff; stroke-width:0px;"/><path d="m908.33,890.08h-31.46l-13.81-51.8-16.12,72.52h-29.16l28.59-127.78h28.97l21.49,77.89,47.96-77.89h31.08l-16.12,127.78h-29.16l9.21-71.56-31.46,50.84Z" style="fill:#fff; stroke-width:0px;"/><path d="m1089.25,819.28c0,8.06-1.6,15.03-4.8,20.91-3.2,5.88-7.55,10.81-13.05,14.77-5.5,3.97-11.83,6.91-18.99,8.83-7.17,1.92-14.65,2.88-22.45,2.88h-9.21l-7.87,44.13h-30.7l22.45-127.78h42.21c6.65,0,12.63.9,17.94,2.69,5.31,1.79,9.75,4.29,13.33,7.48,3.58,3.2,6.33,7.04,8.25,11.51,1.92,4.48,2.88,9.34,2.88,14.58Zm-58.13,23.98c3.58,0,7.03-.39,10.36-1.16,3.32-.77,6.27-2,8.83-3.68,2.56-1.68,4.57-3.91,6.04-6.69,1.47-2.78,2.21-6.11,2.21-9.99,0-4.65-1.44-8.37-4.32-11.15-2.88-2.78-6.75-4.17-11.61-4.17h-11.32l-6.52,36.84h6.33Z" style="fill:#fff; stroke-width:0px;"/><path d="m1111.7,783.02h76.74l-4.22,23.98h-46.05l-4.8,27.05h43.74l-4.22,23.98h-43.55l-5.18,28.78h46.62l-4.22,23.98h-77.32l22.45-127.78Z" style="fill:#fff; stroke-width:0px;"/><path d="m1273.05,885.86h-47.77l-12.28,24.94h-33.77l69.84-127.78h33.96l25.33,127.78h-31.46l-3.84-24.94Zm14.01-114.73c-3.33,0-6.69-.45-10.07-1.34-3.39-.89-6.62-1.92-9.69-3.07-2.94-1.02-5.41-1.95-7.39-2.78-1.98-.83-3.93-1.25-5.85-1.25-2.69,0-4.64.7-5.85,2.11-1.22,1.41-2.27,3.45-3.17,6.14l-17.65-5.76c2.04-9.21,5.34-15.45,9.88-18.71,4.54-3.26,10.01-4.89,16.4-4.89,3.32,0,6.33.35,9.02,1.05,2.69.71,5.88,1.7,9.59,2.97,3.07,1.03,5.76,2.01,8.06,2.97,2.3.96,4.41,1.44,6.33,1.44,2.56,0,4.35-.67,5.37-2.01,1.02-1.34,1.92-3.1,2.69-5.28l15.73,6.91c-2.05,7.55-5.02,13.02-8.92,16.4-3.9,3.39-8.73,5.08-14.49,5.08Zm-49.88,90.56h32.23l-7.29-51.61-24.94,51.61Z" style="fill:#fff; stroke-width:0px;"/><path d="m1449.76,834.63c0,9.59-1.66,19.09-4.99,28.49-3.33,9.4-8.09,17.81-14.29,25.23-6.21,7.42-13.81,13.4-22.83,17.94-9.02,4.54-19.22,6.81-30.6,6.81-9.59,0-17.94-1.47-25.04-4.41-7.1-2.94-12.98-6.91-17.65-11.9-4.67-4.99-8.12-10.71-10.36-17.17-2.24-6.46-3.36-13.14-3.36-20.05,0-11.13,1.76-21.49,5.28-31.08,3.52-9.59,8.44-17.94,14.77-25.04,6.33-7.1,13.94-12.66,22.83-16.69,8.89-4.03,18.77-6.04,29.64-6.04,9.59,0,17.94,1.41,25.04,4.22,7.1,2.82,12.98,6.69,17.65,11.61,4.67,4.92,8.15,10.65,10.46,17.17,2.3,6.52,3.45,13.5,3.45,20.91Zm-70.99,54.3c6.52,0,12.28-1.56,17.27-4.7,4.99-3.13,9.18-7.22,12.57-12.28,3.39-5.05,5.98-10.71,7.77-16.98,1.79-6.27,2.69-12.53,2.69-18.8,0-4.09-.51-8.02-1.53-11.8-1.03-3.77-2.66-7.1-4.89-9.98-2.24-2.88-5.12-5.18-8.63-6.91-3.52-1.73-7.77-2.59-12.76-2.59-6.52,0-12.25,1.6-17.17,4.8-4.92,3.2-9.08,7.32-12.47,12.38-3.39,5.05-5.95,10.71-7.67,16.98-1.73,6.27-2.59,12.47-2.59,18.61,0,4.1.51,8.03,1.54,11.8,1.02,3.77,2.62,7.1,4.8,9.98,2.17,2.88,4.99,5.18,8.44,6.91s7.67,2.59,12.66,2.59Z" style="fill:#fff; stroke-width:0px;"/></svg>