<?xml version="1.0" encoding="UTF-8"?><svg id="a" xmlns="http://www.w3.org/2000/svg" xmlns:xlink="http://www.w3.org/1999/xlink" viewBox="0 0 1536 1024"><defs><filter id="b" x="200.97" y="556.74" width="470.59" height="159.2" filterUnits="userSpaceOnUse"><feOffset dx="4" dy="4"/><feGaussianBlur result="c" stdDeviation="0"/><feFlood flood-color="#fff" flood-opacity="1"/><feComposite in2="c" operator="in"/><feComposite in="SourceGraphic"/></filter><filter id="d" x="434.37" y="776.34" width="524.8" height="152" filterUnits="userSpaceOnUse"><feOffset dx="3" dy="3"/><feGaussianBlur result="e" stdDeviation="0"/><feFlood flood-color="#000" flood-opacity="1"/><feComposite in2="e" operator="in"/><feComposite in="SourceGraphic"/></filter></defs><g style="filter:url(#b);"><path d="M235.77,703.54c-3.07,1.73-6.93,3.53-11.6,5.4-4.67,1.87-9.53,2.8-14.6,2.8-3.07,0-5.27-.27-6.6-.8-1.33-.53-2-1.6-2-3.2,0-.8.2-1.77.6-2.9.4-1.13.93-1.7,1.6-1.7.27,0,.6.2,1,.6.8,1.07,2,1.67,3.6,1.8,1.6.13,3.33.2,5.2.2,2.8-.13,5.33-1.1,7.6-2.9,2.27-1.8,3.93-4.23,5-7.3.53-1.87,1.07-4.8,1.6-8.8.53-4,.97-8.8,1.3-14.4.33-5.6.6-11.83.8-18.7.2-6.87.3-14.1.3-21.7,0-17.33-.47-30.83-1.4-40.5-.93-9.67-2.13-15.23-3.6-16.7-1.47-1.2-3.3-2-5.5-2.4-2.2-.4-4.43-.6-6.7-.6-1.07,0-2.13.03-3.2.1-1.07.07-1.93.1-2.6.1-.8,0-1.43-.3-1.9-.9-.47-.6-.7-1.23-.7-1.9,0-2.4.87-3.6,2.6-3.6.93,0,2.6.1,5,.3,2.4.2,5.17.4,8.3.6,3.13.2,6.43.37,9.9.5,3.47.13,6.6.2,9.4.2,3.47,0,6.7-.53,9.7-1.6,3-1.07,6.1-2.27,9.3-3.6,3.2-1.33,6.7-2.53,10.5-3.6,3.8-1.07,8.23-1.6,13.3-1.6,13.07,0,24.3,1.87,33.7,5.6,9.4,3.73,17.1,8.77,23.1,15.1,6,6.33,10.43,13.6,13.3,21.8,2.87,8.2,4.3,16.7,4.3,25.5,0,10.4-1.83,20.8-5.5,31.2-3.67,10.4-8.9,19.77-15.7,28.1-6.8,8.33-15.03,15.07-24.7,20.2-9.67,5.13-20.43,7.7-32.3,7.7-2.53,0-5.7-.23-9.5-.7-3.8-.47-7.7-1.1-11.7-1.9-4-.8-7.9-1.7-11.7-2.7-3.8-1-6.97-2.03-9.5-3.1ZM282.77,703.74c7.87,0,14.73-1.9,20.6-5.7,5.87-3.8,10.77-8.8,14.7-15,3.93-6.2,6.9-13.3,8.9-21.3s3-16.2,3-24.6c0-8.93-1.1-17.77-3.3-26.5-2.2-8.73-5.57-16.53-10.1-23.4-4.54-6.87-10.17-12.4-16.9-16.6-6.73-4.2-14.57-6.3-23.5-6.3-1.47,0-3.27.17-5.4.5-2.13.33-4.2.97-6.2,1.9-2,.93-3.8,2.13-5.4,3.6-1.6,1.47-2.67,3.33-3.2,5.6-.4,1.73-.77,4.13-1.1,7.2-.33,3.07-.67,6.63-1,10.7-.33,4.07-.57,8.47-.7,13.2-.13,4.73-.2,9.63-.2,14.7,0,11.47.03,21.07.1,28.8.07,7.73.17,14,.3,18.8.13,4.8.3,8.37.5,10.7.2,2.33.37,3.9.5,4.7.4,2.27,1.37,4.5,2.9,6.7,1.53,2.2,3.53,4.23,6,6.1,2.47,1.87,5.33,3.37,8.6,4.5,3.27,1.13,6.9,1.7,10.9,1.7Z" style="fill:#f45b69;"/><path d="M426.77,645.54c-.8-4.13-1.73-7.83-2.8-11.1-1.07-3.27-2.4-6-4-8.2-1.6-2.2-3.53-3.87-5.8-5-2.27-1.13-5.07-1.7-8.4-1.7-2.93,0-5.63.53-8.1,1.6-2.47,1.07-4.6,2.33-6.4,3.8-1.8,1.47-3.2,2.93-4.2,4.4-1,1.47-1.57,2.6-1.7,3.4-.13,1.07-.73,1.6-1.8,1.6-1.87,0-3.6-.67-5.2-2-1.6-1.33-2.4-2.93-2.4-4.8,0-1.07.13-1.87.4-2.4,3.07-1.73,6.8-3.6,11.2-5.6,4.4-2,8.97-3.87,13.7-5.6,4.73-1.73,9.43-3.17,14.1-4.3,4.67-1.13,8.87-1.7,12.6-1.7,5.6,0,9.9.8,12.9,2.4,3,1.6,5.23,3.87,6.7,6.8,1.47,2.93,2.37,6.37,2.7,10.3.33,3.93.63,8.17.9,12.7.4,6.8.93,13.37,1.6,19.7.67,6.33,1.67,11.93,3,16.8,1.33,4.87,3.03,8.8,5.1,11.8,2.07,3,4.63,4.5,7.7,4.5,1.47,0,3.07-.27,4.8-.8,1.73-.53,3.4-1.17,5-1.9,1.6-.73,3.03-1.47,4.3-2.2,1.27-.73,2.1-1.23,2.5-1.5,1.2,0,1.93.6,2.2,1.8,0,.67-.13,1.27-.4,1.8-.27.27-1.27.93-3,2-1.73,1.07-3.87,2.33-6.4,3.8-2.53,1.47-5.33,3.03-8.4,4.7-3.07,1.67-6.1,3.23-9.1,4.7-3,1.47-5.77,2.67-8.3,3.6-2.53.93-4.53,1.4-6,1.4-1.73,0-3.23-.7-4.5-2.1-1.27-1.4-2.37-3.27-3.3-5.6-.93-2.33-1.73-5.03-2.4-8.1-.67-3.07-1.27-6.27-1.8-9.6-2.4,2-5.47,4.37-9.2,7.1-3.73,2.73-7.8,5.3-12.2,7.7-4.4,2.4-8.9,4.43-13.5,6.1-4.6,1.67-9.03,2.5-13.3,2.5-3.6,0-6.73-.57-9.4-1.7-2.67-1.13-4.9-2.63-6.7-4.5-1.8-1.87-3.13-4.03-4-6.5-.87-2.47-1.3-5.03-1.3-7.7,0-4.27,1.3-7.77,3.9-10.5,2.6-2.73,6.63-5.57,12.1-8.5,2.53-1.33,6.07-3.1,10.6-5.3,4.53-2.2,9.17-4.43,13.9-6.7,4.73-2.27,9.13-4.43,13.2-6.5,4.07-2.07,7.03-3.7,8.9-4.9ZM432.57,676.54c-.4-2.27-.8-4.73-1.2-7.4-.4-2.67-.8-5.2-1.2-7.6-.4-2.4-.77-4.47-1.1-6.2-.33-1.73-.57-2.87-.7-3.4-2.13.8-4.53,1.73-7.2,2.8-2.67,1.07-5.33,2.23-8,3.5-2.67,1.27-5.2,2.53-7.6,3.8-2.4,1.27-4.4,2.43-6,3.5-3.07,2-5.4,4-7,6-1.6,2-2.4,4.4-2.4,7.2,0,3.87,1.13,7.27,3.4,10.2,2.27,2.93,5.8,4.4,10.6,4.4,2.53,0,5.17-.46,7.9-1.4,2.73-.93,5.27-2,7.6-3.2,2.33-1.2,4.37-2.4,6.1-3.6,1.73-1.2,2.93-2.13,3.6-2.8,1.07-1.07,1.9-1.96,2.5-2.7.6-.73.83-1.77.7-3.1Z" style="fill:#f45b69;"/><path d="M571.16,679.94c.27-.27.5-.23.7.1.2.33.33.8.4,1.4.07.6.03,1.23-.1,1.9-.13.67-.4,1.2-.8,1.6-2.67,2.53-6,5.2-10,8s-8.13,5.4-12.4,7.8c-1.2.67-2.87,1.53-5,2.6-2.13,1.07-4.5,2.1-7.1,3.1-2.6,1-5.27,1.87-8,2.6-2.73.73-5.3,1.1-7.7,1.1-4.8,0-9.33-.93-13.6-2.8-4.27-1.87-8-4.43-11.2-7.7-3.2-3.27-5.7-7.17-7.5-11.7-1.8-4.53-2.7-9.47-2.7-14.8,0-5.73.8-11.13,2.4-16.2,1.6-5.07,3.43-9.6,5.5-13.6,2.07-4,4.03-7.37,5.9-10.1,1.87-2.73,3.13-4.77,3.8-6.1-2.53-.13-4.83-.23-6.9-.3-2.07-.07-4.03-.1-5.9-.1-4.27,0-7.87.03-10.8.1-2.93.07-5.54.37-7.8.9-1.07.27-2.07.8-3,1.6-.93.8-1.73,1.4-2.4,1.8l-1.1-1.1c-.46-.47-.7-.97-.7-1.5,0-.27.07-.47.2-.6,0-.13.87-.9,2.6-2.3,1.73-1.4,3.9-3.07,6.5-5,2.6-1.93,5.47-4.07,8.6-6.4,3.13-2.33,6.13-4.5,9-6.5,2.87-2,5.33-3.7,7.4-5.1,2.07-1.4,3.43-2.23,4.1-2.5.8-.27,1.6-.13,2.4.4.8.53,1.07.93.8,1.2-.4.27-1,.77-1.8,1.5-.8.73-1.07,1.37-.8,1.9,1.46,1.2,4,2.27,7.6,3.2,3.6.93,7.67,1.7,12.2,2.3,4.53.6,9.2,1.07,14,1.4,4.8.33,9.13.5,13,.5,5.73,0,10.33-.17,13.8-.5,3.47-.33,6.33-.77,8.6-1.3,2.13-.53,3.53-.93,4.2-1.2.13,0,.4.2.8.6.4.4.6.87.6,1.4,0,.27-.97.93-2.9,2-1.93,1.07-3.9,2.2-5.9,3.4-1.2.67-2.63,1.53-4.3,2.6-1.67,1.07-3.47,2.1-5.4,3.1-1.93,1-3.97,1.9-6.1,2.7-2.13.8-4.2,1.27-6.2,1.4-2,.27-4.33.47-7,.6-2.67.13-5.47.23-8.4.3-2.93.07-5.9.13-8.9.2-3,.07-5.77.1-8.3.1-.4.67-1.03,1.77-1.9,3.3-.87,1.53-1.7,3.5-2.5,5.9-.8,2.4-1.54,5.13-2.2,8.2-.67,3.07-1,6.4-1,10,0,5.47.83,10.5,2.5,15.1,1.67,4.6,4,8.57,7,11.9,3,3.33,6.57,5.93,10.7,7.8,4.13,1.87,8.6,2.8,13.4,2.8,2.8,0,5.5-.33,8.1-1,2.6-.67,5.07-1.53,7.4-2.6,2.33-1.07,4.5-2.23,6.5-3.5,2-1.27,3.73-2.5,5.2-3.7l2.4-2.2Z" style="fill:#f45b69;"/><path d="M663.36,684.34c-1.47,1.6-3.73,3.8-6.8,6.6-3.07,2.8-6.77,5.6-11.1,8.4-4.33,2.8-9.17,5.2-14.5,7.2-5.33,2-11,3-17,3-5.47,0-10.8-.83-16-2.5-5.2-1.67-9.87-4.2-14-7.6-4.13-3.4-7.43-7.73-9.9-13-2.47-5.27-3.7-11.57-3.7-18.9,0-6,.4-11.17,1.2-15.5.8-4.33,1.87-8.13,3.2-11.4,1.33-3.27,2.83-6.07,4.5-8.4,1.67-2.33,3.37-4.43,5.1-6.3,2.13-2.4,4.73-4.67,7.8-6.8,3.07-2.13,6.37-4.07,9.9-5.8,3.53-1.73,7.27-3.1,11.2-4.1,3.93-1,7.9-1.5,11.9-1.5,7.2,0,12.83,1.2,16.9,3.6,4.07,2.4,6.1,5.73,6.1,10,0,2.67-.8,5.13-2.4,7.4,1.33-.4,3.03-1.07,5.1-2,2.07-.93,4.17-1.9,6.3-2.9,2.13-1,4.03-1.9,5.7-2.7,1.67-.8,2.77-1.4,3.3-1.8.27-.27.57-.37.9-.3.33.07.5.3.5.7,0,1.73-.33,3.17-1,4.3-.67,1.13-1.47,2.03-2.4,2.7-2.13,1.33-5.2,3-9.2,5s-8.43,4.1-13.3,6.3c-4.87,2.2-9.9,4.4-15.1,6.6-5.2,2.2-10.1,4.3-14.7,6.3-4.6,2-8.6,3.77-12,5.3-3.4,1.53-5.7,2.63-6.9,3.3,0,4.53.9,8.77,2.7,12.7,1.8,3.93,4.3,7.37,7.5,10.3,3.2,2.93,7.03,5.23,11.5,6.9,4.47,1.67,9.37,2.5,14.7,2.5,4.8,0,9.13-.5,13-1.5,3.87-1,7.13-2.13,9.8-3.4,2.67-1.27,4.77-2.4,6.3-3.4,1.53-1,2.37-1.5,2.5-1.5.53,0,1.07.23,1.6.7.53.47.8.97.8,1.5ZM592.96,653.74c2.27-.8,4.83-1.77,7.7-2.9,2.87-1.13,5.67-2.37,8.4-3.7,2.73-1.33,5.23-2.6,7.5-3.8,2.27-1.2,4-2.27,5.2-3.2,2.4-1.73,3.6-4.67,3.6-8.8,0-1.6-.3-3.27-.9-5-.6-1.73-1.5-3.3-2.7-4.7-1.2-1.4-2.67-2.53-4.4-3.4-1.73-.87-3.67-1.3-5.8-1.3-1.87,0-3.87.63-6,1.9-2.13,1.27-4.13,3.33-6,6.2-1.87,2.87-3.43,6.67-4.7,11.4-1.27,4.73-1.9,10.5-1.9,17.3Z" style="fill:#f45b69;"/></g><g style="filter:url(#d);"><path d="M553.17,912.94c.8,3.2,3.6,5.2,8.4,6,1.2.13,1.8.8,1.8,2,0,.67-.33,1.27-1,1.8-.67.53-1.53.8-2.6.8-2,0-4.67-.13-8-.4-3.33-.27-8.07-.4-14.2-.4-4.93,0-9.27.17-13,.5-3.73.33-6,.57-6.8.7-.67,0-1.13-.2-1.4-.6-.27-.4-.4-.87-.4-1.4s.1-1.07.3-1.6c.2-.53.5-.8.9-.8.93-.13,1.87-.4,2.8-.8.93-.4,1.8-.93,2.6-1.6.4-.4.9-2.53,1.5-6.4.6-3.87,1.13-8.97,1.6-15.3.47-6.33.87-13.63,1.2-21.9.33-8.27.5-17,.5-26.2v-21.6c0-6.67-.33-12.07-1-16.2-1.2-8.8-4-15.57-8.4-20.3-4.4-4.73-9.53-7.1-15.4-7.1-5.2,0-10.33,1.43-15.4,4.3-5.07,2.87-9.6,7.07-13.6,12.6-4,5.53-7.23,12.4-9.7,20.6-2.47,8.2-3.7,17.57-3.7,28.1,0,11.6,1.3,21.7,3.9,30.3,2.6,8.6,6.03,15.8,10.3,21.6,4.27,5.8,9.17,10.13,14.7,13,5.53,2.87,11.3,4.3,17.3,4.3h1.1c.47,0,.83-.07,1.1-.2.53-.27.87-.27,1,0,.13.27.13.63,0,1.1-.13.47-.3.93-.5,1.4-.2.47-.43.77-.7.9-1.33.93-3.2,1.77-5.6,2.5-2.4.73-5.73,1.1-10,1.1-7.07,0-14.1-1.63-21.1-4.9-7-3.27-13.27-7.83-18.8-13.7-5.53-5.87-10-12.97-13.4-21.3-3.4-8.33-5.1-17.5-5.1-27.5,0-14.27,2.07-26.46,6.2-36.6,4.13-10.13,9.77-18.4,16.9-24.8,7.13-6.4,15.4-11.1,24.8-14.1,9.4-3,19.43-4.5,30.1-4.5,3.87,0,7.4.4,10.6,1.2s6,1.77,8.4,2.9c2.4,1.13,4.37,2.23,5.9,3.3,1.53,1.07,2.57,1.87,3.1,2.4,1.07-.8,3.23-1.77,6.5-2.9,3.27-1.13,7-2.2,11.2-3.2,4.2-1,8.57-1.87,13.1-2.6,4.53-.73,8.67-1.1,12.4-1.1,10.13.27,19.03,1.93,26.7,5,7.67,3.07,14.07,7.17,19.2,12.3,5.13,5.13,9,11.07,11.6,17.8,2.6,6.73,3.9,13.9,3.9,21.5,0,14.27-1.9,26.97-5.7,38.1-3.8,11.13-8.9,20.57-15.3,28.3-6.4,7.73-13.8,13.63-22.2,17.7-8.4,4.07-17.2,6.1-26.4,6.1-.8,0-1.33-.3-1.6-.9-.27-.6-.37-1.23-.3-1.9.07-.67.3-1.23.7-1.7.4-.47.8-.63,1.2-.5.67.27,1.2.4,1.6.4h1.6c5.46,0,10.6-1.87,15.4-5.6,4.8-3.73,9-8.9,12.6-15.5,3.6-6.6,6.43-14.4,8.5-23.4,2.07-9,3.1-18.83,3.1-29.5,0-19.87-3.03-35.33-9.1-46.4-6.07-11.07-15.43-16.6-28.1-16.6-3.87,0-7.47.8-10.8,2.4-3.33,1.6-6.23,3.7-8.7,6.3-2.47,2.6-4.47,5.57-6,8.9-1.53,3.33-2.5,6.73-2.9,10.2-.67,4.67-1.07,12.13-1.2,22.4-.13,10.27-.27,22.67-.4,37.2-.13,10.67-.03,19.97.3,27.9.33,7.93.97,13.3,1.9,16.1Z" style="fill:#f2e863;"/><path d="M715.37,860.54c-.8-4.13-1.73-7.83-2.8-11.1-1.07-3.27-2.4-6-4-8.2-1.6-2.2-3.53-3.87-5.8-5-2.27-1.13-5.07-1.7-8.4-1.7-2.93,0-5.63.53-8.1,1.6-2.47,1.07-4.6,2.33-6.4,3.8-1.8,1.47-3.2,2.93-4.2,4.4-1,1.47-1.57,2.6-1.7,3.4-.13,1.07-.73,1.6-1.8,1.6-1.87,0-3.6-.67-5.2-2-1.6-1.33-2.4-2.93-2.4-4.8,0-1.07.13-1.87.4-2.4,3.07-1.73,6.8-3.6,11.2-5.6,4.4-2,8.97-3.87,13.7-5.6,4.73-1.73,9.43-3.17,14.1-4.3,4.67-1.13,8.87-1.7,12.6-1.7,5.6,0,9.9.8,12.9,2.4,3,1.6,5.23,3.87,6.7,6.8,1.47,2.93,2.37,6.37,2.7,10.3.33,3.93.63,8.17.9,12.7.4,6.8.93,13.37,1.6,19.7.67,6.33,1.67,11.93,3,16.8,1.33,4.87,3.03,8.8,5.1,11.8,2.07,3,4.63,4.5,7.7,4.5,1.47,0,3.07-.27,4.8-.8,1.73-.53,3.4-1.17,5-1.9,1.6-.73,3.03-1.47,4.3-2.2,1.27-.73,2.1-1.23,2.5-1.5,1.2,0,1.93.6,2.2,1.8,0,.67-.13,1.27-.4,1.8-.27.27-1.27.93-3,2-1.73,1.07-3.87,2.33-6.4,3.8-2.53,1.47-5.33,3.03-8.4,4.7-3.07,1.67-6.1,3.23-9.1,4.7-3,1.47-5.77,2.67-8.3,3.6-2.53.93-4.53,1.4-6,1.4-1.73,0-3.23-.7-4.5-2.1-1.27-1.4-2.37-3.27-3.3-5.6-.93-2.33-1.73-5.03-2.4-8.1-.67-3.07-1.27-6.27-1.8-9.6-2.4,2-5.47,4.37-9.2,7.1-3.73,2.73-7.8,5.3-12.2,7.7-4.4,2.4-8.9,4.43-13.5,6.1-4.6,1.67-9.03,2.5-13.3,2.5-3.6,0-6.73-.57-9.4-1.7-2.67-1.13-4.9-2.63-6.7-4.5-1.8-1.87-3.13-4.03-4-6.5-.87-2.47-1.3-5.03-1.3-7.7,0-4.27,1.3-7.77,3.9-10.5,2.6-2.73,6.63-5.57,12.1-8.5,2.53-1.33,6.07-3.1,10.6-5.3,4.53-2.2,9.17-4.43,13.9-6.7,4.73-2.27,9.13-4.43,13.2-6.5,4.07-2.07,7.03-3.7,8.9-4.9ZM721.17,891.54c-.4-2.27-.8-4.73-1.2-7.4-.4-2.67-.8-5.2-1.2-7.6-.4-2.4-.77-4.47-1.1-6.2-.33-1.73-.57-2.87-.7-3.4-2.13.8-4.53,1.73-7.2,2.8-2.67,1.07-5.33,2.23-8,3.5-2.67,1.27-5.2,2.53-7.6,3.8-2.4,1.27-4.4,2.43-6,3.5-3.07,2-5.4,4-7,6-1.6,2-2.4,4.4-2.4,7.2,0,3.87,1.13,7.27,3.4,10.2,2.27,2.93,5.8,4.4,10.6,4.4,2.53,0,5.17-.46,7.9-1.4,2.73-.93,5.27-2,7.6-3.2,2.33-1.2,4.37-2.4,6.1-3.6,1.73-1.2,2.93-2.13,3.6-2.8,1.07-1.07,1.9-1.96,2.5-2.7.6-.73.83-1.77.7-3.1Z" style="fill:#f2e863;"/><path d="M859.77,894.94c.27-.27.5-.23.7.1.2.33.33.8.4,1.4.07.6.03,1.23-.1,1.9-.13.67-.4,1.2-.8,1.6-2.67,2.53-6,5.2-10,8s-8.13,5.4-12.4,7.8c-1.2.67-2.87,1.53-5,2.6-2.13,1.07-4.5,2.1-7.1,3.1-2.6,1-5.27,1.87-8,2.6-2.73.73-5.3,1.1-7.7,1.1-4.8,0-9.33-.93-13.6-2.8-4.27-1.87-8-4.43-11.2-7.7-3.2-3.27-5.7-7.17-7.5-11.7-1.8-4.53-2.7-9.47-2.7-14.8,0-5.73.8-11.13,2.4-16.2,1.6-5.07,3.43-9.6,5.5-13.6,2.07-4,4.03-7.37,5.9-10.1,1.87-2.73,3.13-4.77,3.8-6.1-2.53-.13-4.83-.23-6.9-.3-2.07-.07-4.03-.1-5.9-.1-4.27,0-7.87.03-10.8.1-2.93.07-5.54.37-7.8.9-1.07.27-2.07.8-3,1.6-.93.8-1.73,1.4-2.4,1.8l-1.1-1.1c-.46-.47-.7-.97-.7-1.5,0-.27.07-.47.2-.6,0-.13.87-.9,2.6-2.3,1.73-1.4,3.9-3.07,6.5-5,2.6-1.93,5.47-4.07,8.6-6.4,3.13-2.33,6.13-4.5,9-6.5,2.87-2,5.33-3.7,7.4-5.1,2.07-1.4,3.43-2.23,4.1-2.5.8-.27,1.6-.13,2.4.4.8.53,1.07.93.8,1.2-.4.27-1,.77-1.8,1.5-.8.73-1.07,1.37-.8,1.9,1.46,1.2,4,2.27,7.6,3.2,3.6.93,7.67,1.7,12.2,2.3,4.53.6,9.2,1.07,14,1.4,4.8.33,9.13.5,13,.5,5.73,0,10.33-.17,13.8-.5,3.47-.33,6.33-.77,8.6-1.3,2.13-.53,3.53-.93,4.2-1.2.13,0,.4.2.8.6.4.4.6.87.6,1.4,0,.27-.97.93-2.9,2-1.93,1.07-3.9,2.2-5.9,3.4-1.2.67-2.63,1.53-4.3,2.6-1.67,1.07-3.47,2.1-5.4,3.1-1.93,1-3.97,1.9-6.1,2.7-2.13.8-4.2,1.27-6.2,1.4-2,.27-4.33.47-7,.6-2.67.13-5.47.23-8.4.3-2.93.07-5.9.13-8.9.2-3,.07-5.77.1-8.3.1-.4.67-1.03,1.77-1.9,3.3-.87,1.53-1.7,3.5-2.5,5.9-.8,2.4-1.54,5.13-2.2,8.2-.67,3.07-1,6.4-1,10,0,5.47.83,10.5,2.5,15.1,1.67,4.6,4,8.57,7,11.9,3,3.33,6.57,5.93,10.7,7.8,4.13,1.87,8.6,2.8,13.4,2.8,2.8,0,5.5-.33,8.1-1,2.6-.67,5.07-1.53,7.4-2.6,2.33-1.07,4.5-2.23,6.5-3.5,2-1.27,3.73-2.5,5.2-3.7l2.4-2.2Z" style="fill:#f2e863;"/><path d="M951.96,899.34c-1.47,1.6-3.73,3.8-6.8,6.6-3.07,2.8-6.77,5.6-11.1,8.4-4.33,2.8-9.17,5.2-14.5,7.2-5.33,2-11,3-17,3-5.47,0-10.8-.83-16-2.5-5.2-1.67-9.87-4.2-14-7.6-4.13-3.4-7.43-7.73-9.9-13-2.47-5.27-3.7-11.57-3.7-18.9,0-6,.4-11.17,1.2-15.5.8-4.33,1.87-8.13,3.2-11.4,1.33-3.27,2.83-6.07,4.5-8.4,1.67-2.33,3.37-4.43,5.1-6.3,2.13-2.4,4.73-4.67,7.8-6.8,3.07-2.13,6.37-4.07,9.9-5.8,3.53-1.73,7.27-3.1,11.2-4.1,3.93-1,7.9-1.5,11.9-1.5,7.2,0,12.83,1.2,16.9,3.6,4.07,2.4,6.1,5.73,6.1,10,0,2.67-.8,5.13-2.4,7.4,1.33-.4,3.03-1.07,5.1-2,2.07-.93,4.17-1.9,6.3-2.9,2.13-1,4.03-1.9,5.7-2.7,1.67-.8,2.77-1.4,3.3-1.8.27-.27.57-.37.9-.3.33.07.5.3.5.7,0,1.73-.33,3.17-1,4.3-.67,1.13-1.47,2.03-2.4,2.7-2.13,1.33-5.2,3-9.2,5s-8.43,4.1-13.3,6.3c-4.87,2.2-9.9,4.4-15.1,6.6-5.2,2.2-10.1,4.3-14.7,6.3-4.6,2-8.6,3.77-12,5.3-3.4,1.53-5.7,2.63-6.9,3.3,0,4.53.9,8.77,2.7,12.7,1.8,3.93,4.3,7.37,7.5,10.3,3.2,2.93,7.03,5.23,11.5,6.9,4.47,1.67,9.37,2.5,14.7,2.5,4.8,0,9.13-.5,13-1.5,3.87-1,7.13-2.13,9.8-3.4,2.67-1.27,4.77-2.4,6.3-3.4,1.53-1,2.37-1.5,2.5-1.5.53,0,1.07.23,1.6.7.53.47.8.97.8,1.5ZM881.57,868.74c2.27-.8,4.83-1.77,7.7-2.9,2.87-1.13,5.67-2.37,8.4-3.7,2.73-1.33,5.23-2.6,7.5-3.8,2.27-1.2,4-2.27,5.2-3.2,2.4-1.73,3.6-4.67,3.6-8.8,0-1.6-.3-3.27-.9-5-.6-1.73-1.5-3.3-2.7-4.7-1.2-1.4-2.67-2.53-4.4-3.4-1.73-.87-3.67-1.3-5.8-1.3-1.87,0-3.87.63-6,1.9-2.13,1.27-4.13,3.33-6,6.2-1.87,2.87-3.43,6.67-4.7,11.4-1.27,4.73-1.9,10.5-1.9,17.3Z" style="fill:#f2e863;"/></g><path d="M699.28,749.01v6.54c-4.3,3.91-7.75,6.51-10.35,7.81-2.6,1.3-6.35,1.82-11.23,1.56-8.46,10.03-15.92,15.04-22.36,15.04-3.65,0-6.97-1.2-9.96-3.61-3-2.41-5.39-5.7-7.18-9.86-1.79-4.17-2.69-8.82-2.69-13.96,0-4.17,1.38-8.79,4.15-13.87,2.77-5.08,6.35-9.81,10.74-14.21s9.1-7.94,14.11-10.64c5.01-2.7,9.67-4.05,13.96-4.05,3.06,0,5.47.47,7.23,1.42,1.76.94,2.64,2.26,2.64,3.96,0,1.3-.75,2.8-2.25,4.49,2.47.52,4.17,1.38,5.08,2.59.91,1.21,1.37,3.4,1.37,6.59s-.73,7.06-2.2,11.82c-1.46,4.75-3.47,9.21-6.01,13.38l1.76,1.76h1.46c1.11,0,2.2-.28,3.27-.83,1.07-.55,2.03-1.14,2.88-1.76.85-.62,2.7-2,5.57-4.15ZM679.16,723.32c-5.4,3.26-10.03,6.2-13.87,8.84-3.84,2.64-7.1,5.31-9.77,8.01-2.67,2.7-4.46,5.42-5.37,8.15-1.63,7.29-2.44,11.23-2.44,11.82,0,4.3,2.99,6.45,8.98,6.45,2.8,0,7.49-2.41,14.06-7.23-1.11-3.06-1.66-5.99-1.66-8.79,0-4.1.85-8.28,2.54-12.55,1.69-4.26,4.2-9.16,7.52-14.7Z" style="fill:#fff;"/><path d="M698.11,756.72v-6.35c3.52-4.17,6.18-7.71,8.01-10.64-2.08-.72-3.6-1.59-4.54-2.64-.94-1.04-1.42-2.6-1.42-4.69,0-2.34.98-5.31,2.93-8.89,1.95-3.58,4.36-6.93,7.23-10.06,2.86-3.12,5.47-5.14,7.81-6.05.91-.46,1.79-.68,2.64-.68,1.3,0,1.95.62,1.95,1.86,0,1.11-1.01,3.35-3.03,6.74,13.41-2.08,21.88-3.12,25.39-3.12,1.37,0,2.31.13,2.83.39,1.11.59,2.02,1.95,2.73,4.1.72,2.15,1.07,4.3,1.07,6.45,0,1.37-.6,2.85-1.81,4.44-1.21,1.6-3.27,3.92-6.2,6.98-3.45,3.71-6.35,7.75-8.69,12.11-2.34,4.36-3.52,7.65-3.52,9.86,0,3.06,1.89,4.59,5.66,4.59,3.97,0,10.87-4.04,20.7-12.11v6.54c-5.4,5.66-9.86,10.12-13.38,13.38-3.52,3.26-6.77,5.84-9.77,7.76-3,1.92-5.66,2.88-8.01,2.88-2.73,0-5.01-1.25-6.84-3.76-1.82-2.51-2.73-6.14-2.73-10.89,0-2.8.72-5.99,2.15-9.57,1.43-3.58,3.53-7.47,6.3-11.67,2.77-4.2,5.88-8.38,9.33-12.55-1.82.39-3.87.8-6.15,1.22-2.28.42-4.69.86-7.23,1.32-2.54.46-4.49.81-5.86,1.07-4.04,8.07-9.9,15.4-17.58,21.97Z" style="fill:#fff;"/></svg>