<?xml version="1.0" encoding="UTF-8"?><svg id="a" xmlns="http://www.w3.org/2000/svg" xmlns:xlink="http://www.w3.org/1999/xlink" viewBox="0 0 1536 1024"><defs><filter id="b" filterUnits="userSpaceOnUse"><feOffset dx="7.43" dy="7.43"/><feGaussianBlur result="c" stdDeviation="0"/><feFlood flood-color="#000" flood-opacity="1"/><feComposite in2="c" operator="in"/><feComposite in="SourceGraphic"/></filter><filter id="d" filterUnits="userSpaceOnUse"><feOffset dx="4.77" dy="4.77"/><feGaussianBlur result="e" stdDeviation="0"/><feFlood flood-color="#000" flood-opacity="1"/><feComposite in2="e" operator="in"/><feComposite in="SourceGraphic"/></filter></defs><path d="m768.29,513.62c3.59,0,3.6-5.59,0-5.59s-3.6,5.59,0,5.59h0Z" style="fill:#fff; stroke-width:0px;"/><g style="filter:url(#b);"><path d="m583.4,421.55c0,.28-.14.71-.43,1.28l-4.16,3.52-4.37,6.29h-3.52l-2.13.43-.21-1.92-1.28-2.66.21-2.13-.21-2.02c-1.07-1.99-1.67-3.73-1.81-5.22h-1.71l-.85-2.34-3.73-7.24-.64-3.73-5.43-9.37c-.64-1.28-.96-2.73-.96-4.37.07-.28.12-.53.16-.75.03-.21.05-.53.05-.96-1.28-.64-2.27-1.53-2.98-2.66-2.56-4.26-4.08-7.74-4.58-10.44l-3.73-1.7c-.64,3.2-1.88,4.79-3.73,4.79h-.43l-11.08-2.02-3.94.21-2.88-.43-15.23,2.02-8.95-.43-4.79,1.28-3.73-1.28-2.88-.75c-.92,1.21-1.7,1.99-2.34,2.34-.64.36-1.46.53-2.45.53h-.64l-9.38-.64-3.52.85-4.58.21c-1.56.36-3.3,2.77-5.22,7.24l-1.92,4.15-1.17.43c-2.06,5.47-4.72,10.62-7.99,15.45l-.21,2.24-1.6,2.34-5.86,13.1c-.43,1.28-2.02,2.24-4.79,2.88l.21,1.7c-.85.14-2.02.21-3.52.21-2.06,0-4.23-.78-6.5-2.34l4.15-7.24,2.98-3.73,2.45-3.94,1.49-2.34,1.49-2.02v-.85c2.91-.43,4.37-1.74,4.37-3.94v-2.56l3.3-3.94,4.58-10.01,2.66-3.73,2.98-6.6,3.52-6.71,4.15-7.03,4.37-4.15c.28-.28.43-.64.43-1.07,0-.57-.36-1.21-1.07-1.92,1.28-.92,2.2-1.69,2.77-2.29.57-.6,1.1-1.44,1.6-2.5l-1.28-2.02,1.28-2.13,1.7-5.01c.21-.43,1.1-1.31,2.66-2.66l-.21-1.07,4.79-12.25,3.73-10.01c.71-1.85,2.31-4.12,4.79-6.82l-.85-2.34.64-2.88c.43-2.06.83-3.48,1.22-4.26.39-.78,1.07-1.35,2.02-1.7.96-.35,2.18-.67,3.67-.96l.64-1.6-1.07-3.2c-.29-.85-.43-1.45-.43-1.81,0-.99.43-1.7,1.28-2.13l7.24-4.79,1.49-3.3c1.49-1.85,3.48-2.88,5.96-3.09l1.28,4.37h1.28l-.43,1.17,1.49,3.2,3.09,3.94,3.94,7.24,2.13,5.86,2.66,4.79-2.66.85c0,.78.32,1.46.96,2.02,2.56,1.49,3.83,2.88,3.83,4.15l-.21,1.92,2.45,2.66,2.88,4.79,1.49,2.56.21.85-.85,2.02.43,2.13,1.49,2.02,3.09,2.56,3.73,7.46,1.92,3.3v2.56c2.77,2.42,4.15,4.26,4.15,5.54,0,.14-.14.64-.43,1.49l2.13,2.13,4.79,8.1c.43.64.76,1.19,1.01,1.65.25.46.67,1.21,1.28,2.24.6,1.03,1.01,1.76,1.23,2.18,1.21,1.85,1.9,3.05,2.08,3.62.18.57.3,1.56.37,2.98,2.49,1.21,3.73,2.59,3.73,4.15,0,.14-.11.28-.32.43l-.43,4.58c0-.14.14.36.43,1.49l4.37,2.24,1.38,1.92.64,2.02c.28,1.07,1.45,2.13,3.52,3.2v2.45l3.62,3.73,3.52,5.86,1.81,2.13c.85,1.07,1.53,2.2,2.02,3.41.5,1.21.75,2.06.75,2.56Zm-43.78-54.76l-.96-.85.43-.75-.43-1.07h-2.13c-.85-.99-1.53-3.69-2.02-8.1l-.21-2.13-4.05-1.07-5.11-10.12h-1.49l-6.5-12.78.85-2.45-.64-2.66-5.01-2.56-7.67-15.23c-.28-.78-1.95-2.41-5.01-4.9l-1.28.96-1.38,4.37-.85.21c-.85,2.98-1.49,4.83-1.92,5.54-.43.71-1.32,1.7-2.66,2.98-1.85,1.63-2.88,3.3-3.09,5.01l-.43,2.56-4.79,10.55c-.5,1.28-.96,2.38-1.38,3.3-.43.92-.71,1.53-.85,1.81-.14.28-.39.68-.75,1.17-.36.5-.75.92-1.17,1.28l-.85,2.24c-.57,1.42-1.03,2.29-1.38,2.61-.36.32-1.14.52-2.34.59l-.21,2.45c-.29,3.62-.87,6.29-1.76,7.99-.89,1.7-2.4,3.27-4.53,4.69l1.92,2.98c-.85.07-1.49.32-1.92.75-.43.43-.78,1.14-1.07,2.13l-.75,2.66,1.81.21,3.52,1.07,2.77-.43,2.45.85.43-.85,1.92-.21,13.74.85,8.74-.64,3.51,1.49c.5-.5.87-.8,1.12-.91.25-.11,1.01-.21,2.29-.32s3.27-.34,5.97-.69l2.88-.43-.43,1.07.85.43c.64,0,1.42-.57,2.34-1.7l2.88-.21c3.76-.35,6.6-.62,8.52-.8,1.92-.18,3.09-.32,3.52-.43.43-.11,1.08-.39,1.97-.85.89-.46,1.76-1.01,2.61-1.65Z" style="fill:#44bba4; stroke-width:0px;"/><path d="m715.82,415.58l-1.28,2.02-2.45,1.49-2.13,2.24,1.07,2.34c-1.78,1.92-3.16,2.88-4.15,2.88l-4.37.43-2.98,1.92-2.45.75h-.21l-5.65-.96-14.7.64-13.74-1.28-10.65.64c-2.42,0-4.15-.43-5.22-1.28l-2.88-1.49-2.34-.43v2.34c-2.2.71-4.01,1.07-5.43,1.07-2.2,0-5.04-.36-8.52-1.07l.43.85-3.3-.43c-.57-.07-1.07-.18-1.49-.32-.43-.14-.96-.53-1.6-1.17l-2.13.21.21.64-2.88.64-13.96,1.6-2.34.43c-1.78,0-2.66-.68-2.66-2.02v-1.92l4.15-1.6v-1.49l1.49-1.07c.21-2.7.53-4.53.96-5.49.43-.96,1.35-2.04,2.77-3.25l-.85-3.09.43-10.87-.43-2.88,2.24-3.41-2.45-1.81,1.49-3.52.75-3.2,1.28-2.66-1.6-3.09.53-2.34-.53-1.81.32-2.98-.53-3.3.75-8.1v-4.79l1.92-4.15.64-2.34-2.56-1.07-.75-11.82c1.13-.28,1.95-.92,2.45-1.92l-1.07-5.54-2.24-.43c-1-4.47-1.49-9.76-1.49-15.87,0-2.49.35-4.76,1.07-6.82l-1.07-2.34-.64-6.18-1.38-2.56h-1.28l-1.7-2.88,2.13-1.92,2.66-1.07,3.09-2.66,6.07-1.92,1.7-1.17,2.24-.64,2.34.85h1.38v1.38l.64.64-.21,7.78.21,3.73c0,1.28-.14,2.15-.43,2.61-.28.46-.82.98-1.6,1.54l-.64,2.24.64.64,1.6-.21v1.28l-.75.64,1.38,4.37v.21l-.64,6.82.64,6.07v2.24l-.85,8.42h-1.6c-.71,1.78-1.07,2.95-1.07,3.52,0,2.13.96,3.52,2.88,4.15l-.21,2.45.21,16.73c0,4.83-.53,8.84-1.6,12.04l-.85-.64c-.71.92-1.07,1.63-1.07,2.13,0-.07.14.53.43,1.81l2.34.64.53,3.52v3.2l-.32.43-.43,10.55-.21,3.2c-1.14,1-1.7,1.81-1.7,2.45,0,.5.57,1.21,1.7,2.13l.21,6.18-.64,6.29c0,1.92.69,3.3,2.08,4.15s3.53,1.28,6.45,1.28c1.42,0,3.76-.21,7.03-.64l.64.85,2.56.21,3.52,1.6,2.24.21c.99-.14,1.85-.89,2.56-2.24l13.32.75,8.31-.32,8.95-1.07,1.49.21v2.24c2.49.85,4.15,1.28,5.01,1.28.71,0,1.81-.21,3.3-.64,0-.99.19-1.72.59-2.18.39-.46,1.15-.98,2.29-1.54l1.7.21c1.49,0,3.59-.57,6.29-1.7.71.78,1.31,1.3,1.81,1.54.5.25,1.07.37,1.7.37,1.85-2.63,4.54-3.94,8.1-3.94l5.01.64Z" style="fill:#44bba4; stroke-width:0px;"/><path d="m753.74,287.11l-.43,3.3-.64,3.52-2.13,3.62,1.49,11.19c0,1.49-.82,3.91-2.45,7.24v1.92l1.6.64-.21,3.3.43,8.74c0,1.63-.14,2.82-.43,3.57-.28.75-.96,1.65-2.02,2.72l1.6,2.45-.21,3.2v2.88l-2.24,3.73,1.07,2.77c.64,1.56.96,2.59.96,3.09l-.53,5.86v6.39l-1.49,5.01v.85c0,1.07.57,1.95,1.7,2.66v3.94l.32,2.34.21,4.58v1.7l-2.02,5.97,2.02,1.07-.75,1.7.96,5.97-.43,10.01.64,4.15.21,2.77c-6.46,5.82-10.9,8.74-13.32,8.74l-1.28-.21-.32,1.17-3.83.85-1.81-2.66c1.35-2.49,2.02-4.44,2.02-5.86v-2.45l2.77-9.37v-6.92l4.79-.85.21-.96c0-.64-.36-1.56-1.06-2.77l-2.56.21-.53-.43-.64.64.43-3.52.21-4.79.75-7.88-.21-4.15,1.92-2.98c-1.28-1.21-2.04-2.15-2.29-2.82-.25-.67-.37-1.93-.37-3.78s.53-3.8,1.6-5.86l-1.6-1.7v-3.09l.21-10.23c0-.64-.07-1.1-.21-1.39l-.43-2.13-.21-2.24c.92-.85,1.39-1.85,1.39-2.98l-2.02-2.24.85-1.7-.85-7.88,1.28-3.94v-.43c0-1.14-.71-2.38-2.13-3.73l-.21-2.13-.64-9.37.64-3.94-1.49-2.24.21-3.41v-6.18c.78-1.28,1.85-1.92,3.2-1.92l5.54-.43c.85-.14,1.99-1.53,3.41-4.15l3.73-1.07,3.52-1.38c-.14,0,.35.14,1.49.43.43,1.56.64,2.66.64,3.3Z" style="fill:#44bba4; stroke-width:0px;"/><path d="m921.42,415.16l-1.38,4.58-2.34-.21c-.85,0-1.46.21-1.81.64l-2.13,4.58-2.88,2.02-.85,1.07-3.94-.43-4.58,2.24h-.21l-5.22-1.6-.64-.21-12.04.43-3.41-.43-1.17-1.7c-4.33.85-6.78,1.28-7.35,1.28l-3.94-.21-2.66.43-.85-2.13h-1.28l-1.06.21-3.73,1.92-20.99.21-3.09,1.49c-2.34-1.56-4.15-2.34-5.43-2.34l-1.07.21-5.43,1.49-6.18-1.28-18.75.64c-.64,0-3.3-.85-7.99-2.56l1.06-2.45,2.56-6.07.43-5.75,1.17-5.22v-7.99l.64-3.09-.43-24.71.43-6.29-.21-2.34-.64-2.45,4.37-.21c-.78-1.7-1.46-2.91-2.02-3.62-.57-.71-1.56-1.6-2.98-2.66l-.53-1.81.53-7.88-.96-13.53.96-5.22.43-2.13-2.24-.64-.85-2.24-.43-6.92-1.28-2.24-.21-1.07.21-2.66.85-1.28,5.86,1.49-1.7-1.49c-1.07-.78-1.6-1.49-1.6-2.13,0-.35.14-.96.43-1.81l-1.71-.64-2.13.64c-.21-3.48-.44-5.79-.69-6.92-.25-1.14-.69-1.81-1.33-2.02l-4.15-1.7,1.07-2.24c.5-.57,1.67-1.21,3.51-1.92l2.02-.64c3.48-1.63,6.14-2.45,7.99-2.45h.21c.07,0,.18.07.32.21l15.66,2.66,7.24.64,4.05,1.28c2.63-.99,4.4-1.49,5.33-1.49.43,0,.71.07.85.21l16.09,1.7,14.17-.85,5.54,1.6,3.2-.75v-1.28c4.9-.5,8.49-1.14,10.76-1.92,3.12-1.21,5.01-1.81,5.65-1.81l2.13.43c-.36,1.63-.8,2.79-1.33,3.46-.53.68-1.69,1.44-3.46,2.29-.14,1.28-.39,2.17-.75,2.66-.36.5-1.38,1.21-3.09,2.13-3.69,1.7-6.75,2.56-9.16,2.56h-1.17l-5.65-.43-4.79.64-9.8-1.07-2.24-.21c-1.99-1.28-3.94-1.92-5.86-1.92-1.49,1.7-4.26,2.56-8.31,2.56l-3.2-.21-.53-1.92-2.13.64-3.09,1.28-14.59-1.28-2.34,3.52.85.85v.85l.43,5.65-.85,8.31.43,3.09.21,2.34,2.13.64,14.59,1.39c.99,0,2.45.71,4.37,2.13l3.3-.64c1.99-.71,3.44-1.07,4.37-1.07h.21l11.4.64,6.71.21h6.07c1.28,0,2.36-.11,3.25-.32.89-.21,1.86-.6,2.93-1.17l8.1,1.49,1.92-.43,4.58-1.07,8.31-.21,8.74-1.17c.99.28,1.99.82,2.98,1.6l2.24-1.39c1.42-1.14,2.73-1.7,3.94-1.7l2.34.21,2.45-.21v3.3l-2.88,1.92-6.5,5.65c-.78.64-1.53.96-2.24.96h-.43l-7.14-.96-9.16.32-5.01-1.17-17.9,1.17-3.3-.32c-.78-1.42-1.67-2.13-2.66-2.13-.57,0-1,.07-1.28.21l-4.79,1.92-13.96-1.49-6.82,2.45-4.79-1.39-3.94,2.45-11.72-.85-.85,1.49.43,5.65-1.81,5.75.96,1.7,1.49,1.92-1.49,4.58c1.07,1.99,1.71,3.45,1.92,4.37l-.43,3.52.85,9.8v.21c0,.92-.78,2.38-2.34,4.37,1.85,2.34,2.77,4.26,2.77,5.75,0,.43-.14.92-.43,1.49l-2.88,6.07,3.09,5.43,1.28,20.35,3.3.64,14.38,5.01,4.79-.64c1.14,0,2.73.57,4.79,1.7,1.42-1.28,2.45-1.92,3.09-1.92h.43l9.8,1.92,5.96-.64,5.22,1.07,12.68-.85,3.62.64,6.18.21,2.13.75-.64-1.6,2.45-.43,10.01-.21,2.13-.85,12.46-2.24c.35-.07,1.17-.27,2.45-.59s2.06-.48,2.34-.48c.43,0,1.31.21,2.66.64Z" style="fill:#44bba4; stroke-width:0px;"/><path d="m1053.83,329.4c-.28.71-1.07,1.38-2.34,2.02.99,2.2,1.49,3.52,1.49,3.94l-.43,8.74.43,6.92-1.28,5.01.43,7.03-.64,9.8.64,5.65-.64,3.73.43,10.01-.21,2.88-.64-1.07c-1.21.92-1.81,1.78-1.81,2.56,0,1.42,1.03,2.81,3.09,4.15.57,2.56.85,4.51.85,5.86,0,2.84-.55,5.52-1.65,8.04-1.1,2.52-3.11,6.06-6.02,10.6l-1.49,2.34-4.15,2.45-.85-2.45-5.01-7.67-6.39-7.99-4.79-8.31-1.71-2.24.43-2.34c0-1.7-1.24-3.52-3.73-5.43-3.48-2.91-5.43-4.69-5.86-5.33l-5.86-10.44-3.09-3.73-1.92-5.43c-1.21-2.91-3.48-4.37-6.82-4.37l-1.28-2.56-6.18-10.12-1.71-5.65-3.51-3.94-.64.85-1.7-1.07c-4.9-8.31-9.55-13.6-13.96-15.87.57-1.77.85-3.09.85-3.94,0-1.77-.68-2.66-2.02-2.66l-2.34.85c-1.14-1.14-2.1-1.7-2.88-1.7l-2.13,1.07,2.34,5.01-2.56.96.64,1.7-.85,4.58.43,9.16-.64,3.09-1.81.85.21,2.56,1.81,6.18c.14.14.21.23.21.27v.16c0,1.14-.89,2.88-2.66,5.22l.85,4.37.96,2.45v31.32l1.28,9.16v.21c0,.07-.07.25-.21.53l-1.28,6.07.21,1.28c1.28.71,1.92,1.53,1.92,2.45s-1.74,3.91-5.22,8.95l-1.28,1.92-2.45-.21c-1.35,1.63-2.45,2.45-3.3,2.45h-.21l-2.34-.21-1.81.43.21-2.66c.21-1.99.53-3.3.96-3.94l2.34-2.98,1.81-2.66-2.45-2.13.64-2.45,1.28-3.09c-.71-2.13-1.07-3.34-1.07-3.62.07-.14.12-.27.16-.37.04-.11.05-.23.05-.37l1.6-5.65-.53-12.25c.64-1.07,1.74-1.77,3.3-2.13v-1.07l-2.34-2.88.43-2.34-.43-2.24.64-6.07c0-.07-.02-.14-.05-.21-.04-.07-.09-.14-.16-.21l-1.38-4.58.75-6.18-.43-4.37c0-1.42.99-2.8,2.98-4.15l-.21-2.56-1.49-3.52c0-.71.21-1.74.64-3.09-1.28-1.07-1.92-2.2-1.92-3.41,0-1.28.43-3.48,1.28-6.6l-1.06-1.49-.21-3.09-.96-7.35c0-.5.32-1.53.96-3.09v-2.45c0-4.33-.39-6.99-1.17-7.99l-4.79-5.97.85-2.34,2.66-1.6c1.77-.99,3.02-1.81,3.73-2.45s1.28-1.56,1.71-2.77l1.81-1.07,5.01-5.86c.28-.28.71-.43,1.28-.43,1.63,0,2.88,1,3.73,2.98l4.79,9.37,1.92,2.45,1.81,3.3-.64.64c1.7,1.7,3.94,4.9,6.71,9.59l5.43,9.16c1.21,2.13,1.81,3.37,1.81,3.73,0,.85-.32,1.63-.96,2.34l4.37,2.45-.64,1.92,1.81,2.24,4.37,6.29,3.2,3.09,1.17,3.52,9.59,10.23-2.02,1.07c.35,1.42.82,2.36,1.38,2.82.57.46,1.71.84,3.41,1.12l5.01,6.92-1.49.21,2.88,2.02c1.99,1.42,3.27,2.56,3.83,3.41.57.85.96,2.2,1.17,4.05l1.49,1.49-.21,1.49c0,1.56.5,3.23,1.49,5.01l2.45,1.6c3.05,1.35,4.65,2.13,4.79,2.34l4.58,7.03,2.34,1.49,3.09,2.66,1.07-2.45-.21-12.89,2.24-5.22c-1.49-1.56-2.24-2.95-2.24-4.15,0-.71.07-1.21.21-1.49l1.38-4.37.64-15.23,1.7-3.3-1.28-3.3.85-5.01v-.21c0-.92-.85-1.74-2.56-2.45l-.53-27.7c.99-.07,1.65-.34,1.97-.8.32-.46.55-1.4.69-2.82l-3.3-2.45-.43-3.73c-.36-3.12-.8-5.18-1.33-6.18-.53-.99-1.62-1.49-3.25-1.49-.29-1.14-.43-1.99-.43-2.56,0-2.63,3.05-4.72,9.16-6.29.99-1.49,1.86-2.52,2.61-3.09.75-.57,2.36-1.39,4.85-2.45.85,1.42,1.28,2.73,1.28,3.94l-.43,3.09.64,2.34-.21,4.15.21,8.95c0,1.78-.21,3.3-.64,4.58l-.85,4.37v.21l1.7,7.03-.43,5.22.64,2.34Z" style="fill:#44bba4; stroke-width:0px;"/></g><g style="filter:url(#d);"><path d="m303.39,585.12l-1.19,1.88-2.27,1.38-1.98,2.08.99,2.17c-1.65,1.78-2.93,2.67-3.85,2.67l-4.05.4-2.77,1.78-2.27.69h-.2l-5.24-.89-13.64.59-12.75-1.19-9.88.59c-2.24,0-3.85-.4-4.84-1.19l-2.67-1.38-2.17-.4v2.17c-2.04.66-3.72.99-5.04.99-2.04,0-4.68-.33-7.91-.99l.4.79-3.06-.4c-.53-.07-.99-.17-1.38-.3-.4-.13-.89-.49-1.48-1.09l-1.98.2.2.59-2.67.59-12.95,1.48-2.17.4c-1.65,0-2.47-.63-2.47-1.88v-1.78l3.85-1.48v-1.38l1.38-.99c.2-2.5.49-4.2.89-5.09s1.25-1.89,2.57-3.01l-.79-2.87.4-10.08-.4-2.67,2.08-3.16-2.27-1.68,1.38-3.26.69-2.96,1.19-2.47-1.48-2.87.49-2.17-.49-1.68.3-2.77-.49-3.06.69-7.51v-4.45l1.78-3.85.59-2.17-2.37-.99-.69-10.97c1.05-.26,1.81-.86,2.27-1.78l-.99-5.14-2.08-.4c-.92-4.15-1.38-9.06-1.38-14.73,0-2.31.33-4.41.99-6.33l-.99-2.17-.59-5.73-1.29-2.37h-1.19l-1.58-2.67,1.98-1.78,2.47-.99,2.87-2.47,5.63-1.78,1.58-1.09,2.08-.59,2.17.79h1.29v1.28l.59.59-.2,7.21.2,3.46c0,1.19-.13,1.99-.4,2.42-.26.43-.76.91-1.48,1.43l-.59,2.08.59.59,1.48-.2v1.19l-.69.59,1.28,4.05v.2l-.59,6.32.59,5.63v2.08l-.79,7.81h-1.48c-.66,1.65-.99,2.73-.99,3.26,0,1.98.89,3.26,2.67,3.85l-.2,2.27.2,15.52c0,4.48-.49,8.2-1.48,11.17l-.79-.59c-.66.86-.99,1.52-.99,1.98,0-.06.13.49.4,1.68l2.17.59.49,3.26v2.96l-.3.4-.39,9.78-.2,2.96c-1.05.92-1.58,1.68-1.58,2.27,0,.46.53,1.12,1.58,1.98l.2,5.73-.59,5.83c0,1.78.64,3.06,1.93,3.85,1.28.79,3.28,1.19,5.98,1.19,1.32,0,3.49-.2,6.52-.59l.59.79,2.37.2,3.26,1.48,2.08.2c.92-.13,1.71-.82,2.37-2.08l12.35.69,7.71-.3,8.3-.99,1.38.2v2.08c2.31.79,3.85,1.19,4.65,1.19.66,0,1.68-.2,3.06-.59,0-.92.18-1.6.54-2.03.36-.43,1.07-.9,2.12-1.43l1.58.2c1.38,0,3.33-.53,5.83-1.58.66.73,1.22,1.2,1.68,1.43.46.23.99.35,1.58.35,1.71-2.44,4.21-3.66,7.51-3.66l4.64.59Z" style="fill:#f2e863; stroke-width:0px;"/><path d="m451.92,590.66c0,.26-.13.66-.4,1.19l-3.85,3.26-4.05,5.83h-3.26l-1.98.4-.2-1.78-1.19-2.47.2-1.98-.2-1.88c-.99-1.84-1.55-3.46-1.68-4.84h-1.58l-.79-2.17-3.46-6.72-.59-3.46-5.04-8.7c-.59-1.19-.89-2.54-.89-4.05.06-.26.11-.49.15-.69.03-.2.05-.49.05-.89-1.19-.59-2.11-1.42-2.77-2.47-2.37-3.95-3.79-7.18-4.25-9.69l-3.46-1.58c-.59,2.96-1.75,4.45-3.46,4.45h-.4l-10.28-1.88-3.66.2-2.67-.4-14.13,1.88-8.3-.4-4.45,1.19-3.46-1.19-2.67-.69c-.86,1.12-1.58,1.85-2.17,2.17-.59.33-1.35.49-2.27.49h-.59l-8.7-.59-3.26.79-4.25.2c-1.45.33-3.06,2.57-4.84,6.72l-1.78,3.85-1.09.4c-1.91,5.07-4.38,9.85-7.41,14.33l-.2,2.08-1.48,2.17-5.44,12.16c-.4,1.19-1.88,2.08-4.45,2.67l.2,1.58c-.79.13-1.88.2-3.26.2-1.91,0-3.92-.73-6.03-2.17l3.85-6.72,2.77-3.46,2.27-3.66,1.38-2.17,1.38-1.88v-.79c2.7-.4,4.05-1.61,4.05-3.66v-2.37l3.06-3.66,4.25-9.29,2.47-3.46,2.77-6.13,3.26-6.23,3.85-6.52,4.05-3.85c.26-.26.4-.59.4-.99,0-.53-.33-1.12-.99-1.78,1.19-.86,2.04-1.56,2.57-2.12.53-.56,1.02-1.33,1.48-2.32l-1.19-1.88,1.19-1.98,1.58-4.65c.2-.4,1.02-1.22,2.47-2.47l-.2-.99,4.45-11.37,3.46-9.29c.66-1.71,2.14-3.82,4.45-6.32l-.79-2.17.59-2.67c.39-1.91.77-3.23,1.14-3.95.36-.72.99-1.25,1.88-1.58.89-.33,2.03-.63,3.41-.89l.59-1.48-.99-2.96c-.26-.79-.4-1.35-.4-1.68,0-.92.4-1.58,1.19-1.98l6.72-4.45,1.38-3.06c1.38-1.71,3.23-2.67,5.53-2.87l1.19,4.05h1.19l-.4,1.09,1.38,2.96,2.87,3.66,3.66,6.72,1.98,5.44,2.47,4.45-2.47.79c0,.73.3,1.35.89,1.88,2.37,1.38,3.56,2.67,3.56,3.85l-.2,1.78,2.27,2.47,2.67,4.45,1.38,2.37.2.79-.79,1.88.4,1.98,1.38,1.88,2.87,2.37,3.46,6.92,1.78,3.06v2.37c2.57,2.24,3.85,3.95,3.85,5.14,0,.13-.13.59-.4,1.38l1.98,1.98,4.45,7.51c.4.59.71,1.1.94,1.53.23.43.63,1.12,1.19,2.08.56.96.94,1.63,1.14,2.03,1.12,1.71,1.76,2.83,1.93,3.36.16.53.28,1.45.35,2.77,2.31,1.12,3.46,2.41,3.46,3.85,0,.13-.1.26-.3.4l-.4,4.25c0-.13.13.33.4,1.38l4.05,2.08,1.28,1.78.59,1.88c.26.99,1.35,1.98,3.26,2.96v2.27l3.36,3.46,3.26,5.44,1.68,1.98c.79.99,1.42,2.04,1.88,3.16.46,1.12.69,1.91.69,2.37Zm-40.62-50.8l-.89-.79.4-.69-.4-.99h-1.98c-.79-.92-1.42-3.43-1.88-7.51l-.2-1.98-3.75-.99-4.74-9.39h-1.38l-6.03-11.86.79-2.27-.59-2.47-4.64-2.37-7.12-14.13c-.26-.72-1.81-2.24-4.65-4.55l-1.19.89-1.29,4.05-.79.2c-.79,2.77-1.38,4.48-1.78,5.14-.4.66-1.22,1.58-2.47,2.77-1.71,1.52-2.67,3.06-2.87,4.64l-.4,2.37-4.45,9.78c-.46,1.19-.89,2.21-1.28,3.06-.4.86-.66,1.42-.79,1.68-.13.26-.36.63-.69,1.09-.33.46-.69.86-1.09,1.19l-.79,2.08c-.53,1.32-.96,2.12-1.29,2.42-.33.3-1.05.48-2.17.54l-.2,2.27c-.26,3.36-.81,5.83-1.63,7.41-.83,1.58-2.22,3.03-4.2,4.35l1.78,2.77c-.79.07-1.38.3-1.78.69s-.73,1.05-.99,1.98l-.69,2.47,1.68.2,3.26.99,2.57-.4,2.27.79.4-.79,1.78-.2,12.75.79,8.1-.59,3.26,1.38c.46-.46.81-.74,1.04-.84.23-.1.94-.2,2.12-.3,1.19-.1,3.03-.31,5.53-.64l2.67-.4-.39.99.79.4c.59,0,1.32-.53,2.17-1.58l2.67-.2c3.49-.33,6.13-.58,7.91-.74,1.78-.16,2.87-.3,3.26-.4.39-.1,1-.36,1.83-.79.82-.43,1.63-.94,2.42-1.53Z" style="fill:#f2e863; stroke-width:0px;"/><path d="m570.72,505.17c-.26.66-.99,1.28-2.17,1.88.92,2.04,1.38,3.26,1.38,3.66l-.39,8.1.39,6.42-1.19,4.64.4,6.52-.59,9.09.59,5.24-.59,3.46.39,9.29-.2,2.67-.59-.99c-1.12.86-1.68,1.65-1.68,2.37,0,1.32.96,2.6,2.87,3.85.53,2.37.79,4.18.79,5.44,0,2.64-.51,5.12-1.53,7.46-1.02,2.34-2.88,5.62-5.58,9.83l-1.38,2.17-3.85,2.27-.79-2.27-4.64-7.12-5.93-7.41-4.45-7.71-1.58-2.08.4-2.17c0-1.58-1.15-3.26-3.46-5.04-3.23-2.7-5.04-4.35-5.44-4.94l-5.44-9.69-2.87-3.46-1.78-5.04c-1.12-2.7-3.23-4.05-6.33-4.05l-1.19-2.37-5.73-9.39-1.58-5.24-3.26-3.66-.59.79-1.58-.99c-4.55-7.71-8.86-12.62-12.95-14.73.53-1.65.79-2.87.79-3.66,0-1.65-.63-2.47-1.88-2.47l-2.17.79c-1.05-1.05-1.94-1.58-2.67-1.58l-1.98.99,2.17,4.65-2.37.89.59,1.58-.79,4.25.4,8.5-.59,2.87-1.68.79.2,2.37,1.68,5.73c.13.13.2.21.2.25v.15c0,1.05-.83,2.67-2.47,4.84l.79,4.05.89,2.27v29.06l1.19,8.5v.2c0,.07-.07.23-.2.49l-1.19,5.63.2,1.19c1.19.66,1.78,1.42,1.78,2.27s-1.62,3.62-4.84,8.3l-1.19,1.78-2.27-.2c-1.25,1.51-2.27,2.27-3.06,2.27h-.2l-2.17-.2-1.68.4.2-2.47c.2-1.84.49-3.06.89-3.66l2.17-2.77,1.68-2.47-2.27-1.98.59-2.27,1.19-2.87c-.66-1.98-.99-3.1-.99-3.36.06-.13.11-.25.15-.35.03-.1.05-.21.05-.35l1.48-5.24-.49-11.37c.59-.99,1.61-1.65,3.06-1.98v-.99l-2.17-2.67.4-2.17-.4-2.08.59-5.63c0-.06-.02-.13-.05-.2-.03-.06-.08-.13-.15-.2l-1.29-4.25.69-5.73-.39-4.05c0-1.32.92-2.6,2.77-3.85l-.2-2.37-1.38-3.26c0-.66.2-1.61.59-2.87-1.19-.99-1.78-2.04-1.78-3.16,0-1.19.39-3.23,1.19-6.13l-.99-1.38-.2-2.87-.89-6.82c0-.46.3-1.42.89-2.87v-2.27c0-4.02-.36-6.49-1.09-7.41l-4.45-5.53.79-2.17,2.47-1.48c1.65-.92,2.8-1.68,3.46-2.27.66-.59,1.19-1.45,1.58-2.57l1.68-.99,4.64-5.44c.26-.26.66-.4,1.19-.4,1.52,0,2.67.92,3.46,2.77l4.45,8.7,1.78,2.27,1.68,3.06-.59.59c1.58,1.58,3.66,4.55,6.23,8.89l5.04,8.5c1.12,1.98,1.68,3.13,1.68,3.46,0,.79-.3,1.52-.89,2.17l4.05,2.27-.59,1.78,1.68,2.08,4.05,5.83,2.96,2.87,1.09,3.26,8.89,9.49-1.88.99c.33,1.32.76,2.19,1.29,2.62.53.43,1.58.78,3.16,1.04l4.65,6.42-1.38.2,2.67,1.88c1.84,1.32,3.03,2.37,3.56,3.16.53.79.89,2.04,1.09,3.76l1.38,1.38-.2,1.38c0,1.45.46,3,1.38,4.65l2.27,1.48c2.83,1.25,4.31,1.98,4.45,2.17l4.25,6.52,2.17,1.38,2.87,2.47.99-2.27-.2-11.96,2.08-4.84c-1.38-1.45-2.08-2.73-2.08-3.85,0-.66.06-1.12.2-1.38l1.29-4.05.59-14.13,1.58-3.06-1.19-3.06.79-4.65v-.2c0-.86-.79-1.61-2.37-2.27l-.49-25.7c.92-.06,1.53-.31,1.83-.74.3-.43.51-1.3.64-2.62l-3.06-2.27-.39-3.46c-.33-2.9-.74-4.81-1.24-5.73-.49-.92-1.5-1.38-3.01-1.38-.26-1.05-.4-1.84-.4-2.37,0-2.44,2.83-4.38,8.5-5.83.92-1.38,1.73-2.34,2.42-2.87.69-.53,2.19-1.28,4.5-2.27.79,1.32,1.19,2.54,1.19,3.66l-.4,2.87.59,2.17-.2,3.85.2,8.3c0,1.65-.2,3.06-.59,4.25l-.79,4.05v.2l1.58,6.52-.4,4.84.59,2.17Z" style="fill:#f2e863; stroke-width:0px;"/><path d="m723.31,587.99c0,1.98-.46,3.79-1.38,5.44l-1.88-.2-1.38.2-2.67,1.48-6.82-.99-6.72,2.37h-10.28l-12.75,1.58h-.69l-4.25-.4c-3.49,1.78-6.59,2.67-9.29,2.67l-1.98-.2-6.33-.79-14.33-.59-3.85-.89-5.44-.99-2.67-.59-.79-2.47c-1.25,0-2.21-.4-2.87-1.19-1.52.66-2.44.99-2.77.99-.73,0-1.94-.53-3.66-1.58l-2.08-.99c-.13-1.78-.73-3.26-1.78-4.45-1.32.53-2.27.79-2.87.79-.4,0-.73-.13-.99-.4l-.99-.99-4.45-4.25-2.67-5.34-2.47-2.77-2.77-4.05-1.48-3.46c.99-1.84,1.55-3.66,1.68-5.44l-1.09-1.48-3.56-.59-1.68-3.66c-.66-.99-.99-1.91-.99-2.77,0-.59.06-1.22.2-1.88v-.2l-1.38-7.91c-.13-.53-.2-1.38-.2-2.57,0-1.65.33-3.43.99-5.34l-1.19-1.98,1.19-6.32c.2-2.37.46-4.2.79-5.49.33-1.28.92-2.55,1.78-3.8-.13-.26-.2-.59-.2-.99,0-.46.43-1.48,1.28-3.06l.59-2.17,3.85-1.68-.2-3.46c0-.79.13-1.32.4-1.58l5.04-6.42,2.47-4.45,2.57-2.27,2.67-3.85,4.84-3.66,1.58-2.77,9.39-3.85,3.16-2.47,3.66-.59,1.29-.99,1.78-1.28,1.98-.99c3.56-1.32,6.39-2.11,8.5-2.37l8.79-.2,4.25-1.88,8.2-.79,5.14-.99,9.49,1.19h3.06c1.71,1.91,2.7,2.87,2.96,2.87.92,0,1.81-.63,2.67-1.88h.99l.39-.79,2.27.4,5.63,2.47,3.85.2c1.65,0,2.47.66,2.47,1.98,0,1.05-.96,1.94-2.87,2.67-2.04,1.58-3.53,2.37-4.45,2.37l-1.78-.59c-1.25,2.57-2.6,3.85-4.05,3.85h-.89l-3.85-1.38-4.45-1.19-3.16-2.27-4.65-1.19-4.45-1.68-11.56.89-6.72.2c-3.75.2-6.59.86-8.5,1.98l-6.62,4.05-6.52,3.06-8.1,5.63-3.46,1.58-2.17,4.55c-3.23.59-4.84,1.71-4.84,3.36,0,.79.26,1.62.79,2.47l-1.88,2.37c-.79,1.38-1.78,2.41-2.96,3.06l.59,2.87-.99,2.37-3.26,10.57-1.19,3.06-.89,3.66.4,2.17v2.08l-.59,1.78-.79-.4.4,1.58c-1.58,1.05-2.37,2.01-2.37,2.87,0,.59.53,1.48,1.58,2.67l3.06.99v2.57c0,.99.2,1.94.59,2.87-1.25,1.05-1.88,2.01-1.88,2.87,0,.4.16.79.49,1.19l2.57-.99.99,1.98,2.08,6.72,2.17,3.85-.79,3.66,1.19,1.98h1.09c1.19,0,2.14.36,2.87,1.09.72.73,1.45,2.04,2.17,3.95l.79,2.08.99.99-2.37,1.38,1.38,1.09,3.66-.89,2.67,1.88,1.98,1.19,2.27,2.08,3.85,1.38,6.82,4.25,3.46,1.19-.59,2.08c2.37.26,3.92.53,4.65.79l3.06.99,8.3.2,1.98,1.28,2.08-.89,7.41-.59,4.05-.59,2.08-.2c.92,0,2.01.33,3.26.99l1.98-1.19c2.11-.92,3.59-1.38,4.45-1.38h.2l3.06.2,3.85-.59-.2-1.09,1.78-.79c1.71-.53,2.75-.9,3.11-1.14.36-.23,1-.81,1.93-1.73l.39.69c2.31-.79,3.46-1.81,3.46-3.06l-.79-3.06.2-7.71-.79-11.07,1.58-3.46v-.79c0-1.38-.73-2.6-2.17-3.66l-.39-2.08-.4-3.66.4-2.17-2.08-.2-7.51-.59-5.04-.4-1.98.2-4.25.4c-.26,0-.96-.2-2.08-.59l.59-2.87c.92-.26,1.51-.49,1.78-.69.26-.2.76-.92,1.48-2.17l1.48-1.58c1.91.79,3.72,1.19,5.44,1.19h1.58l23.32-1.38,2.77.2c1.51,2.5,2.27,4.45,2.27,5.83,0,.92-.69,1.75-2.08,2.47v1.78h1.29l-.2,3.66.2,2.08c0,1.05-.12,1.83-.35,2.32-.23.49-.74,1.07-1.53,1.73l1.09,4.84c.92,1.25,1.38,2.8,1.38,4.64s-.26,3.72-.79,5.44c-1.52.13-2.5.44-2.96.94-.46.49-.69,1.6-.69,3.31l5.04,4.45-.2,6.32.2,1.78Z" style="fill:#f2e863; stroke-width:0px;"/><path d="m881.33,467.42l-.2,6.03-1.98,7.31.2,3.66-.4,2.77,1.19,4.65v.2c0,1.19-.76,3.03-2.27,5.53l-1.38,2.57-2.17.59,1.38,2.08c1.51,2.04,2.5,3.44,2.96,4.2.46.76.69,1.5.69,2.22l-.99,5.93v3.26l-1.28.4.79.99-.79,3.26v.4l1.88,11.96-.59,2.37c-1.65.73-2.47,1.62-2.47,2.67s.89,2.27,2.67,3.66l.2,8.5-.89,2.37c-.26,1.05-.4,1.55-.4,1.48,0,.73.43,1.85,1.29,3.36.66,1.45.99,2.8.99,4.05,0,1.12-.46,2.41-1.38,3.85,1.32,1.45,2.11,2.41,2.37,2.87l-.2,7.91.39,9.88v1.28c-1.65.33-3,.81-4.05,1.43-1.05.63-3.13,2.16-6.23,4.6l-.89,1.38-1.78-.2-3.85,3.06c-.66-1.45-.99-2.8-.99-4.05,0-2.31.53-4.05,1.58-5.24h1.48c-.07-1.05-.26-1.78-.59-2.17-.33-.4-1.09-.76-2.27-1.09l.2-9.88.79-.69-.59-4.65c-.59-.4-1.12-.59-1.58-.59-.13,0-.28.02-.44.05-.17.03-.38.08-.64.15l-.99,1.09h-1.58c-.86,0-1.48.2-1.88.59l-2.37,1.58-4.05,1.78-14.82,10.18-4.84,1.78-6.42,3.46-8.7,3.06-6.72,1.98c-2.57,1.25-4.58,1.88-6.03,1.88h-3.66l-6.13,1.98-5.44.2-3.46.4-3.06-.4-7.21-1.38-4.45-2.08-3.26-.99-4.05-3.85-1.58-1.78-3.26.4-2.08-1.58-.99-2.08-3.66-2.87c-.66-.99-.99-3.06-.99-6.23v-1.58l-3.06-1.68-1.19-3.46-1.38-6.03-1.09-2.27,2.87-5.04c-1.71-1.45-2.92-2.78-3.61-4-.69-1.22-1.04-2.65-1.04-4.3s.26-2.93.79-4.05l2.47-5.83.2-7.91,1.58-1.58c1.32.26,2.21.4,2.67.4.92,0,1.38-.43,1.38-1.28s-.66-1.58-1.98-2.17v-4.05l-2.08-.59,2.47-12.16.99-2.27.99-1.78,2.27-6.92,1.58-2.37.79-2.27,2.47-2.37c-.26-1.12-.4-2.21-.4-3.26,0-2.37,1.48-5.67,4.45-9.88l-1.88-1.28-2.17,1.28c-.53-2.24-.79-3.52-.79-3.85,0-1.05.54-1.99,1.63-2.82,1.09-.82,2.36-1.24,3.8-1.24l2.47.2.79-1.88,2.57-.4,9.78-4.65,2.77-1.19c1.38,1.65,2.08,3.06,2.08,4.25,0,.73-.26,1.25-.79,1.58l-2.08,1.68-4.25,6.23-1.38.99-.2,3.06-2.67,4.05-3.66,5.04-2.17,3.46-2.47,9.69-2.37,7.51-.49,5.83-2.77,7.91-.2,3.66-1.68,7.51.89,4.84-1.09,3.66,3.46,11.17.2,2.17c-.79.07-1.45.48-1.98,1.24-.53.76-.79,1.63-.79,2.62,0,1.25,1.12,2.08,3.36,2.47l1.09,2.37,1.78,4.65,4.64,6.52.79,2.17,2.08.89,3.66,2.96,9.29,2.87,6.03,1.58,3.66,1.28c1.71,1.98,3,2.96,3.85,2.96.72,0,1.68-1.19,2.87-3.56l11.46-.69,2.08,1.88,2.17-.99,7.12-2.67,2.67-2.08,7.51-3.36,5.04-4.25,2.37-.4,6.72-4.25,4.65-1.28.79-1.19-1.78-1.19,2.17-1.48,3.26-2.57,6.13-9.78,2.96-2.37c.53-.72.79-2.08.79-4.05v-7.12l.2-7.31c.99-.79,1.61-1.47,1.88-2.03.26-.56.4-1.63.4-3.21l-3.46-2.57-.99-22.14,1.19-1.98c-.66-1.19-.99-2.14-.99-2.87,0-1.12.33-2.54.99-4.25l-.99-.79-.2-2.47-.79-8.5c0-.79.53-2.08,1.58-3.85l-4.45-4.64,1.19-3.16h1.88c2.04-2.11,3.72-3.39,5.04-3.85l2.27-.79,1.98-1.28,2.67.4c1.12-1.91,1.94-3.06,2.47-3.46.53-.4,1.58-.59,3.16-.59l.99,2.67v2.27Z" style="fill:#f2e863; stroke-width:0px;"/><path d="m1043.41,590.66c0,.26-.13.66-.4,1.19l-3.85,3.26-4.05,5.83h-3.26l-1.98.4-.2-1.78-1.19-2.47.2-1.98-.2-1.88c-.99-1.84-1.55-3.46-1.68-4.84h-1.58l-.79-2.17-3.46-6.72-.59-3.46-5.04-8.7c-.59-1.19-.89-2.54-.89-4.05.06-.26.11-.49.15-.69.03-.2.05-.49.05-.89-1.19-.59-2.11-1.42-2.77-2.47-2.37-3.95-3.79-7.18-4.25-9.69l-3.46-1.58c-.59,2.96-1.75,4.45-3.46,4.45h-.4l-10.28-1.88-3.66.2-2.67-.4-14.13,1.88-8.3-.4-4.45,1.19-3.46-1.19-2.67-.69c-.86,1.12-1.58,1.85-2.17,2.17-.59.33-1.35.49-2.27.49h-.59l-8.7-.59-3.26.79-4.25.2c-1.45.33-3.06,2.57-4.84,6.72l-1.78,3.85-1.09.4c-1.91,5.07-4.38,9.85-7.41,14.33l-.2,2.08-1.48,2.17-5.44,12.16c-.4,1.19-1.88,2.08-4.45,2.67l.2,1.58c-.79.13-1.88.2-3.26.2-1.91,0-3.92-.73-6.03-2.17l3.85-6.72,2.77-3.46,2.27-3.66,1.38-2.17,1.38-1.88v-.79c2.7-.4,4.05-1.61,4.05-3.66v-2.37l3.06-3.66,4.25-9.29,2.47-3.46,2.77-6.13,3.26-6.23,3.85-6.52,4.05-3.85c.26-.26.4-.59.4-.99,0-.53-.33-1.12-.99-1.78,1.19-.86,2.04-1.56,2.57-2.12.53-.56,1.02-1.33,1.48-2.32l-1.19-1.88,1.19-1.98,1.58-4.65c.2-.4,1.02-1.22,2.47-2.47l-.2-.99,4.45-11.37,3.46-9.29c.66-1.71,2.14-3.82,4.45-6.32l-.79-2.17.59-2.67c.39-1.91.77-3.23,1.14-3.95.36-.72.99-1.25,1.88-1.58.89-.33,2.03-.63,3.41-.89l.59-1.48-.99-2.96c-.26-.79-.4-1.35-.4-1.68,0-.92.4-1.58,1.19-1.98l6.72-4.45,1.38-3.06c1.38-1.71,3.23-2.67,5.53-2.87l1.19,4.05h1.19l-.4,1.09,1.38,2.96,2.87,3.66,3.66,6.72,1.98,5.44,2.47,4.45-2.47.79c0,.73.3,1.35.89,1.88,2.37,1.38,3.56,2.67,3.56,3.85l-.2,1.78,2.27,2.47,2.67,4.45,1.38,2.37.2.79-.79,1.88.4,1.98,1.38,1.88,2.87,2.37,3.46,6.92,1.78,3.06v2.37c2.57,2.24,3.85,3.95,3.85,5.14,0,.13-.13.59-.4,1.38l1.98,1.98,4.45,7.51c.4.59.71,1.1.94,1.53.23.43.63,1.12,1.19,2.08.56.96.94,1.63,1.14,2.03,1.12,1.71,1.76,2.83,1.93,3.36.16.53.28,1.45.35,2.77,2.31,1.12,3.46,2.41,3.46,3.85,0,.13-.1.26-.3.4l-.4,4.25c0-.13.13.33.4,1.38l4.05,2.08,1.28,1.78.59,1.88c.26.99,1.35,1.98,3.26,2.96v2.27l3.36,3.46,3.26,5.44,1.68,1.98c.79.99,1.42,2.04,1.88,3.16.46,1.12.69,1.91.69,2.37Zm-40.62-50.8l-.89-.79.4-.69-.4-.99h-1.98c-.79-.92-1.42-3.43-1.88-7.51l-.2-1.98-3.75-.99-4.74-9.39h-1.38l-6.03-11.86.79-2.27-.59-2.47-4.64-2.37-7.12-14.13c-.26-.72-1.81-2.24-4.65-4.55l-1.19.89-1.29,4.05-.79.2c-.79,2.77-1.38,4.48-1.78,5.14-.4.66-1.22,1.58-2.47,2.77-1.71,1.52-2.67,3.06-2.87,4.64l-.4,2.37-4.45,9.78c-.46,1.19-.89,2.21-1.28,3.06-.4.86-.66,1.42-.79,1.68-.13.26-.36.63-.69,1.09-.33.46-.69.86-1.09,1.19l-.79,2.08c-.53,1.32-.96,2.12-1.29,2.42-.33.3-1.05.48-2.17.54l-.2,2.27c-.26,3.36-.81,5.83-1.63,7.41-.83,1.58-2.22,3.03-4.2,4.35l1.78,2.77c-.79.07-1.38.3-1.78.69s-.73,1.05-.99,1.98l-.69,2.47,1.68.2,3.26.99,2.57-.4,2.27.79.4-.79,1.78-.2,12.75.79,8.1-.59,3.26,1.38c.46-.46.81-.74,1.04-.84.23-.1.94-.2,2.12-.3,1.19-.1,3.03-.31,5.53-.64l2.67-.4-.39.99.79.4c.59,0,1.32-.53,2.17-1.58l2.67-.2c3.49-.33,6.13-.58,7.91-.74,1.78-.16,2.87-.3,3.26-.4.39-.1,1-.36,1.83-.79.82-.43,1.63-.94,2.42-1.53Z" style="fill:#f2e863; stroke-width:0px;"/><path d="m1182.66,587.99c0,1.98-.46,3.79-1.38,5.44l-1.88-.2-1.38.2-2.67,1.48-6.82-.99-6.72,2.37h-10.28l-12.75,1.58h-.69l-4.25-.4c-3.49,1.78-6.59,2.67-9.29,2.67l-1.98-.2-6.33-.79-14.33-.59-3.85-.89-5.44-.99-2.67-.59-.79-2.47c-1.25,0-2.21-.4-2.87-1.19-1.52.66-2.44.99-2.77.99-.73,0-1.94-.53-3.66-1.58l-2.08-.99c-.13-1.78-.73-3.26-1.78-4.45-1.32.53-2.27.79-2.87.79-.4,0-.73-.13-.99-.4l-.99-.99-4.45-4.25-2.67-5.34-2.47-2.77-2.77-4.05-1.48-3.46c.99-1.84,1.55-3.66,1.68-5.44l-1.09-1.48-3.56-.59-1.68-3.66c-.66-.99-.99-1.91-.99-2.77,0-.59.06-1.22.2-1.88v-.2l-1.38-7.91c-.13-.53-.2-1.38-.2-2.57,0-1.65.33-3.43.99-5.34l-1.19-1.98,1.19-6.32c.2-2.37.46-4.2.79-5.49.33-1.28.92-2.55,1.78-3.8-.13-.26-.2-.59-.2-.99,0-.46.43-1.48,1.28-3.06l.59-2.17,3.85-1.68-.2-3.46c0-.79.13-1.32.4-1.58l5.04-6.42,2.47-4.45,2.57-2.27,2.67-3.85,4.84-3.66,1.58-2.77,9.39-3.85,3.16-2.47,3.66-.59,1.29-.99,1.78-1.28,1.98-.99c3.56-1.32,6.39-2.11,8.5-2.37l8.79-.2,4.25-1.88,8.2-.79,5.14-.99,9.49,1.19h3.06c1.71,1.91,2.7,2.87,2.96,2.87.92,0,1.81-.63,2.67-1.88h.99l.39-.79,2.27.4,5.63,2.47,3.85.2c1.65,0,2.47.66,2.47,1.98,0,1.05-.96,1.94-2.87,2.67-2.04,1.58-3.53,2.37-4.45,2.37l-1.78-.59c-1.25,2.57-2.6,3.85-4.05,3.85h-.89l-3.85-1.38-4.45-1.19-3.16-2.27-4.65-1.19-4.45-1.68-11.56.89-6.72.2c-3.75.2-6.59.86-8.5,1.98l-6.62,4.05-6.52,3.06-8.1,5.63-3.46,1.58-2.17,4.55c-3.23.59-4.84,1.71-4.84,3.36,0,.79.26,1.62.79,2.47l-1.88,2.37c-.79,1.38-1.78,2.41-2.96,3.06l.59,2.87-.99,2.37-3.26,10.57-1.19,3.06-.89,3.66.4,2.17v2.08l-.59,1.78-.79-.4.4,1.58c-1.58,1.05-2.37,2.01-2.37,2.87,0,.59.53,1.48,1.58,2.67l3.06.99v2.57c0,.99.2,1.94.59,2.87-1.25,1.05-1.88,2.01-1.88,2.87,0,.4.16.79.49,1.19l2.57-.99.99,1.98,2.08,6.72,2.17,3.85-.79,3.66,1.19,1.98h1.09c1.19,0,2.14.36,2.87,1.09.72.73,1.45,2.04,2.17,3.95l.79,2.08.99.99-2.37,1.38,1.38,1.09,3.66-.89,2.67,1.88,1.98,1.19,2.27,2.08,3.85,1.38,6.82,4.25,3.46,1.19-.59,2.08c2.37.26,3.92.53,4.65.79l3.06.99,8.3.2,1.98,1.28,2.08-.89,7.41-.59,4.05-.59,2.08-.2c.92,0,2.01.33,3.26.99l1.98-1.19c2.11-.92,3.59-1.38,4.45-1.38h.2l3.06.2,3.85-.59-.2-1.09,1.78-.79c1.71-.53,2.75-.9,3.11-1.14.36-.23,1-.81,1.93-1.73l.39.69c2.31-.79,3.46-1.81,3.46-3.06l-.79-3.06.2-7.71-.79-11.07,1.58-3.46v-.79c0-1.38-.73-2.6-2.17-3.66l-.39-2.08-.4-3.66.4-2.17-2.08-.2-7.51-.59-5.04-.4-1.98.2-4.25.4c-.26,0-.96-.2-2.08-.59l.59-2.87c.92-.26,1.51-.49,1.78-.69.26-.2.76-.92,1.48-2.17l1.48-1.58c1.91.79,3.72,1.19,5.44,1.19h1.58l23.32-1.38,2.77.2c1.51,2.5,2.27,4.45,2.27,5.83,0,.92-.69,1.75-2.08,2.47v1.78h1.29l-.2,3.66.2,2.08c0,1.05-.12,1.83-.35,2.32-.23.49-.74,1.07-1.53,1.73l1.09,4.84c.92,1.25,1.38,2.8,1.38,4.64s-.26,3.72-.79,5.44c-1.52.13-2.5.44-2.96.94-.46.49-.69,1.6-.69,3.31l5.04,4.45-.2,6.32.2,1.78Z" style="fill:#f2e863; stroke-width:0px;"/><path d="m1334.26,584.73l-1.28,4.25-2.17-.2c-.79,0-1.35.2-1.68.59l-1.98,4.25-2.67,1.88-.79.99-3.66-.4-4.25,2.08h-.2l-4.84-1.48-.59-.2-11.17.4-3.16-.4-1.09-1.58c-4.02.79-6.29,1.19-6.82,1.19l-3.66-.2-2.47.4-.79-1.98h-1.19l-.99.2-3.46,1.78-19.47.2-2.87,1.38c-2.17-1.45-3.85-2.17-5.04-2.17l-.99.2-5.04,1.38-5.73-1.19-17.39.59c-.59,0-3.06-.79-7.41-2.37l.99-2.27,2.37-5.63.4-5.34,1.09-4.84v-7.41l.59-2.87-.4-22.93.4-5.83-.2-2.17-.59-2.27,4.05-.2c-.73-1.58-1.35-2.7-1.88-3.36-.53-.66-1.45-1.48-2.77-2.47l-.49-1.68.49-7.31-.89-12.55.89-4.84.4-1.98-2.08-.59-.79-2.08-.4-6.42-1.19-2.08-.2-.99.2-2.47.79-1.19,5.44,1.38-1.58-1.38c-.99-.72-1.48-1.38-1.48-1.98,0-.33.13-.89.4-1.68l-1.58-.59-1.98.59c-.2-3.23-.41-5.37-.64-6.42-.23-1.05-.64-1.68-1.24-1.88l-3.85-1.58.99-2.08c.46-.53,1.55-1.12,3.26-1.78l1.88-.59c3.23-1.51,5.7-2.27,7.41-2.27h.2c.07,0,.16.07.3.2l14.53,2.47,6.72.59,3.75,1.19c2.44-.92,4.08-1.38,4.94-1.38.4,0,.66.07.79.2l14.92,1.58,13.14-.79,5.14,1.48,2.96-.69v-1.19c4.55-.46,7.87-1.05,9.98-1.78,2.9-1.12,4.64-1.68,5.24-1.68l1.98.4c-.33,1.52-.74,2.59-1.24,3.21-.49.63-1.57,1.33-3.21,2.12-.13,1.19-.36,2.01-.69,2.47-.33.46-1.28,1.12-2.87,1.98-3.43,1.58-6.26,2.37-8.5,2.37h-1.09l-5.24-.4-4.45.59-9.09-.99-2.08-.2c-1.85-1.19-3.66-1.78-5.44-1.78-1.38,1.58-3.95,2.37-7.71,2.37l-2.96-.2-.49-1.78-1.98.59-2.87,1.19-13.54-1.19-2.17,3.26.79.79v.79l.4,5.24-.79,7.71.39,2.87.2,2.17,1.98.59,13.54,1.28c.92,0,2.27.66,4.05,1.98l3.06-.59c1.84-.66,3.19-.99,4.05-.99h.2l10.58.59,6.23.2h5.63c1.19,0,2.19-.1,3.01-.3.82-.2,1.73-.56,2.72-1.09l7.51,1.38,1.78-.4,4.25-.99,7.71-.2,8.1-1.09c.92.26,1.84.76,2.77,1.48l2.08-1.28c1.32-1.05,2.54-1.58,3.66-1.58l2.17.2,2.27-.2v3.06l-2.67,1.78-6.03,5.24c-.73.59-1.42.89-2.08.89h-.4l-6.62-.89-8.5.3-4.64-1.09-16.6,1.09-3.06-.3c-.73-1.32-1.55-1.98-2.47-1.98-.53,0-.92.07-1.19.2l-4.45,1.78-12.95-1.38-6.33,2.27-4.45-1.28-3.66,2.27-10.87-.79-.79,1.38.4,5.24-1.68,5.34.89,1.58,1.38,1.78-1.38,4.25c.99,1.85,1.58,3.2,1.78,4.05l-.4,3.26.79,9.09v.2c0,.86-.73,2.21-2.17,4.05,1.71,2.17,2.57,3.95,2.57,5.34,0,.4-.13.86-.39,1.38l-2.67,5.63,2.87,5.04,1.19,18.88,3.06.59,13.34,4.64,4.45-.59c1.05,0,2.54.53,4.45,1.58,1.32-1.19,2.27-1.78,2.87-1.78h.4l9.09,1.78,5.53-.59,4.84.99,11.76-.79,3.36.59,5.73.2,1.98.69-.59-1.48,2.27-.4,9.29-.2,1.98-.79,11.56-2.08c.33-.06,1.09-.25,2.27-.54,1.19-.3,1.91-.44,2.17-.44.4,0,1.22.2,2.47.59Z" style="fill:#f2e863; stroke-width:0px;"/></g></svg>