<?xml version="1.0" encoding="UTF-8"?><svg id="a" xmlns="http://www.w3.org/2000/svg" xmlns:xlink="http://www.w3.org/1999/xlink" viewBox="0 0 1536 1024"><defs><filter id="b" filterUnits="userSpaceOnUse"><feOffset dx="12.27" dy="12.27"/><feGaussianBlur result="c" stdDeviation="0"/><feFlood flood-color="#fff" flood-opacity="1"/><feComposite in2="c" operator="in"/><feComposite in="SourceGraphic"/></filter></defs><g style="filter:url(#b);"><path d="m110.01,757.24c0,7.26,1.1,13.67,3.3,19.23,2.2,5.56,5.12,10.22,8.75,13.99,3.63,3.77,7.81,6.63,12.54,8.58,4.73,1.95,9.66,2.93,14.77,2.93,3.91,0,7.55-.67,10.94-2.02,3.38-1.35,6.55-3.18,9.49-5.49,2.94-2.31,5.71-4.98,8.29-8.01,2.59-3.03,5.06-6.22,7.43-9.57l11.47,8.42c-2.48,3.96-5.46,7.79-8.95,11.47-3.49,3.69-7.41,6.93-11.76,9.74-4.35,2.81-9.08,5.05-14.2,6.73-5.12,1.68-10.54,2.52-16.26,2.52-9.63,0-18.5-1.4-26.62-4.21-8.12-2.81-15.12-6.77-21-11.88-5.89-5.12-10.48-11.27-13.78-18.45-3.3-7.18-4.95-15.17-4.95-23.98s1.57-16.37,4.7-23.52c3.14-7.15,7.55-13.33,13.25-18.53,5.69-5.2,12.52-9.26,20.47-12.17,7.95-2.92,16.74-4.37,26.37-4.37,6.44,0,12.32.76,17.66,2.27,5.34,1.51,10.19,3.6,14.57,6.27,4.37,2.67,8.28,5.86,11.72,9.57,3.44,3.71,6.48,7.8,9.12,12.26l-11.55,8.09c-2.37-3.36-4.94-6.52-7.72-9.49-2.78-2.97-5.74-5.57-8.87-7.8-3.14-2.23-6.44-3.99-9.9-5.28-3.47-1.29-7.07-1.94-10.81-1.94-5.12,0-10,.96-14.65,2.89-4.65,1.93-8.74,4.77-12.26,8.54-3.52,3.77-6.33,8.43-8.42,13.99-2.09,5.56-3.14,11.97-3.14,19.23Z" style="fill:#3a7ca5; stroke-width:0px;"/><path d="m220.43,701.36h27.4v111.91h-27.4v-111.91Z" style="fill:#3a7ca5; stroke-width:0px;"/><path d="m275.89,701.36h17.58l63.8,71.14v-71.14h17.17v113.56h-11.8l-69.33-78.57v76.92h-17.41v-111.91Z" style="fill:#3a7ca5; stroke-width:0px;"/><path d="m486.1,701.36v9.57h-56.12v36.89h46.63v9.57h-46.63v44.4h56.12v11.47h-83.6v-111.91h83.6Z" style="fill:#3a7ca5; stroke-width:0px;"/><path d="m572.1,758.72h46.46v43.08c-3.58,1.93-7.15,3.69-10.73,5.28-3.58,1.6-7.4,2.97-11.47,4.13-4.07,1.16-8.51,2.06-13.33,2.72-4.82.66-10.22.99-16.22.99-9.63,0-18.5-1.35-26.62-4.04-8.12-2.7-15.13-6.49-21.05-11.39-5.92-4.9-10.52-10.81-13.82-17.74-3.3-6.93-4.95-14.61-4.95-23.03,0-8.91,1.65-17.06,4.95-24.43,3.3-7.37,7.89-13.7,13.78-18.98,5.89-5.28,12.89-9.38,21-12.3,8.12-2.92,16.99-4.37,26.62-4.37,5.67,0,11.13.77,16.38,2.31,5.25,1.54,10.11,3.58,14.57,6.11,4.46,2.53,8.47,5.43,12.05,8.71,3.58,3.27,6.52,6.64,8.83,10.11l-11.31,10.32c-2.37-3.36-4.84-6.46-7.43-9.33-2.59-2.86-5.34-5.35-8.25-7.47-2.92-2.12-6.04-3.78-9.37-4.99-3.33-1.21-6.89-1.82-10.69-1.82-5.78,0-11.16,1.05-16.13,3.14-4.98,2.09-9.3,5.1-12.96,9.04-3.66,3.93-6.52,8.76-8.58,14.48-2.06,5.72-3.09,12.21-3.09,19.48s1.1,13.67,3.3,19.23c2.2,5.56,5.2,10.23,9,14.03s8.24,6.67,13.33,8.62c5.09,1.95,10.55,2.93,16.38,2.93,3.47,0,6.74-.45,9.82-1.36,3.08-.91,5.91-2.3,8.5-4.17v-29.71h-18.98v-9.57Z" style="fill:#3a7ca5; stroke-width:0px;"/><path d="m645.88,701.36h42.09c7.26,0,13.6.76,19.02,2.27,5.42,1.51,9.93,3.63,13.53,6.35,3.6,2.72,6.31,5.96,8.13,9.7,1.82,3.74,2.72,7.81,2.72,12.21,0,3.19-.62,6.2-1.86,9.04-1.24,2.83-2.97,5.45-5.2,7.84-2.23,2.39-4.92,4.51-8.09,6.35-3.16,1.84-6.64,3.37-10.44,4.58l39.86,53.56h-29.88l-37.55-50.59h-4.87v50.59h-27.48v-111.91Zm27.48,51.5h5.94c3.36,0,6.46-.47,9.33-1.4,2.86-.94,5.34-2.27,7.43-4,2.09-1.73,3.73-3.86,4.91-6.4,1.18-2.53,1.77-5.39,1.77-8.58,0-2.97-.45-5.69-1.36-8.17-.91-2.48-2.16-4.61-3.76-6.4-1.6-1.79-3.52-3.18-5.78-4.17-2.26-.99-4.7-1.49-7.35-1.49h-11.14v40.6Z" style="fill:#3a7ca5; stroke-width:0px;"/><path d="m809.7,699.05l52.49,114.22h-28.06l-14.03-30.54h-43.49l-14.69,30.54h-18.65l54.55-114.22h11.88Zm-27.9,73.29h33.67l-16.59-36.15-17.08,36.15Z" style="fill:#3a7ca5; stroke-width:0px;"/><path d="m958.18,701.36v9.57h-52.9v36.89h46.63v9.57h-46.63v55.87h-27.48v-111.91h80.38Z" style="fill:#3a7ca5; stroke-width:0px;"/><path d="m975.43,701.36h27.4v111.91h-27.4v-111.91Z" style="fill:#3a7ca5; stroke-width:0px;"/><path d="m1070.75,814.93c-6.71,0-12.59-.78-17.62-2.35-5.03-1.57-9.31-3.73-12.83-6.48-3.52-2.75-6.33-6.04-8.42-9.86-2.09-3.82-3.52-8.02-4.29-12.59h19.06c.66,2.81,1.62,5.42,2.89,7.84,1.27,2.42,2.87,4.53,4.83,6.31,1.95,1.79,4.26,3.19,6.93,4.21,2.67,1.02,5.76,1.53,9.28,1.53,2.31,0,4.61-.25,6.89-.74,2.28-.5,4.33-1.31,6.15-2.43,1.82-1.13,3.27-2.59,4.37-4.37,1.1-1.79,1.65-4,1.65-6.64,0-3.3-.85-6.24-2.56-8.83-1.71-2.59-3.96-4.94-6.77-7.06-2.81-2.12-6-4.09-9.57-5.9-3.58-1.82-7.24-3.64-10.98-5.49-3.74-1.84-7.4-3.78-10.98-5.82-3.58-2.03-6.77-4.3-9.57-6.81-2.81-2.5-5.06-5.34-6.77-8.5-1.71-3.16-2.56-6.78-2.56-10.85,0-4.46.98-8.57,2.93-12.34,1.95-3.77,4.77-7.04,8.46-9.82,3.69-2.78,8.2-4.95,13.53-6.52,5.34-1.57,11.42-2.35,18.24-2.35,5.61,0,10.7.77,15.27,2.31,4.57,1.54,8.6,3.67,12.09,6.4,3.49,2.72,6.42,5.92,8.79,9.57,2.36,3.66,4.18,7.58,5.45,11.76h-17.25c-.99-2.64-2.15-5.17-3.47-7.59-1.32-2.42-2.94-4.54-4.87-6.35-1.93-1.82-4.26-3.26-7.02-4.33-2.75-1.07-6.02-1.61-9.82-1.61-3.58,0-6.59.47-9.04,1.4-2.45.94-4.42,2.13-5.9,3.59-1.49,1.46-2.56,3.08-3.22,4.87-.66,1.79-.99,3.54-.99,5.24,0,2.97.88,5.67,2.64,8.09,1.76,2.42,4.09,4.68,6.97,6.77,2.89,2.09,6.18,4.09,9.86,5.98,3.69,1.9,7.44,3.81,11.27,5.74,3.82,1.93,7.58,3.95,11.27,6.07,3.69,2.12,6.97,4.44,9.86,6.97,2.89,2.53,5.21,5.34,6.97,8.42,1.76,3.08,2.64,6.55,2.64,10.4,0,4.57-.94,8.8-2.81,12.71-1.87,3.91-4.65,7.3-8.34,10.19-3.69,2.89-8.27,5.16-13.74,6.81-5.48,1.65-11.79,2.48-18.94,2.48Z" style="fill:#3a7ca5; stroke-width:0px;"/><path d="m1234.32,701.36v9.57h-38.71v102.34h-27.4v-102.34h-38.79v-9.57h104.9Z" style="fill:#3a7ca5; stroke-width:0px;"/><path d="m1294.41,699.05l52.49,114.22h-28.06l-14.03-30.54h-43.49l-14.69,30.54h-18.65l54.55-114.22h11.88Zm-27.9,73.29h33.67l-16.59-36.15-17.08,36.15Z" style="fill:#3a7ca5; stroke-width:0px;"/><path d="m1402.36,814.93c-6.71,0-12.59-.78-17.62-2.35-5.03-1.57-9.31-3.73-12.83-6.48-3.52-2.75-6.33-6.04-8.42-9.86-2.09-3.82-3.52-8.02-4.29-12.59h19.06c.66,2.81,1.62,5.42,2.89,7.84,1.27,2.42,2.87,4.53,4.83,6.31,1.95,1.79,4.26,3.19,6.93,4.21,2.67,1.02,5.76,1.53,9.28,1.53,2.31,0,4.61-.25,6.89-.74,2.28-.5,4.33-1.31,6.15-2.43,1.82-1.13,3.27-2.59,4.37-4.37,1.1-1.79,1.65-4,1.65-6.64,0-3.3-.85-6.24-2.56-8.83-1.71-2.59-3.96-4.94-6.77-7.06-2.81-2.12-6-4.09-9.57-5.9-3.58-1.82-7.24-3.64-10.98-5.49-3.74-1.84-7.4-3.78-10.98-5.82-3.58-2.03-6.77-4.3-9.57-6.81-2.81-2.5-5.06-5.34-6.77-8.5-1.71-3.16-2.56-6.78-2.56-10.85,0-4.46.98-8.57,2.93-12.34,1.95-3.77,4.77-7.04,8.46-9.82,3.69-2.78,8.2-4.95,13.53-6.52,5.34-1.57,11.42-2.35,18.24-2.35,5.61,0,10.7.77,15.27,2.31,4.57,1.54,8.6,3.67,12.09,6.4,3.49,2.72,6.42,5.92,8.79,9.57,2.36,3.66,4.18,7.58,5.45,11.76h-17.25c-.99-2.64-2.15-5.17-3.47-7.59-1.32-2.42-2.94-4.54-4.87-6.35-1.93-1.82-4.26-3.26-7.02-4.33-2.75-1.07-6.02-1.61-9.82-1.61-3.58,0-6.59.47-9.04,1.4-2.45.94-4.42,2.13-5.9,3.59-1.49,1.46-2.56,3.08-3.22,4.87-.66,1.79-.99,3.54-.99,5.24,0,2.97.88,5.67,2.64,8.09,1.76,2.42,4.09,4.68,6.97,6.77,2.89,2.09,6.18,4.09,9.86,5.98,3.69,1.9,7.44,3.81,11.27,5.74,3.82,1.93,7.58,3.95,11.27,6.07,3.69,2.12,6.97,4.44,9.86,6.97,2.89,2.53,5.21,5.34,6.97,8.42,1.76,3.08,2.64,6.55,2.64,10.4,0,4.57-.94,8.8-2.81,12.71-1.87,3.91-4.65,7.3-8.34,10.19-3.69,2.89-8.27,5.16-13.74,6.81-5.48,1.65-11.79,2.48-18.94,2.48Z" style="fill:#3a7ca5; stroke-width:0px;"/><path d="m517.21,809.88l52.49,114.22h-28.06l-14.03-30.54h-43.49l-14.69,30.54h-18.65l54.55-114.22h11.88Zm-27.9,73.29h33.67l-16.59-36.15-17.08,36.15Z" style="fill:#44bba4; stroke-width:0px;"/><path d="m585.3,812.19h26.74l38.71,76.42,38.13-76.42h26.16v111.91h-27.4v-72.96l-36.56,72.96h-10.56l-37.8-73.78v73.78h-17.41v-111.91Z" style="fill:#44bba4; stroke-width:0px;"/><path d="m796.66,809.88l52.49,114.22h-28.06l-14.03-30.54h-43.49l-14.69,30.54h-18.65l54.55-114.22h11.88Zm-27.9,73.29h33.67l-16.59-36.15-17.08,36.15Z" style="fill:#44bba4; stroke-width:0px;"/><path d="m864.75,812.19h40.6c10.45,0,20.06,1.23,28.8,3.67,8.75,2.45,16.29,6.01,22.61,10.69,6.33,4.68,11.24,10.43,14.73,17.25,3.49,6.82,5.24,14.61,5.24,23.36,0,7.87-1.49,15.26-4.46,22.16-2.97,6.91-7.3,12.94-13,18.12-5.69,5.17-12.7,9.24-21,12.21-8.31,2.97-17.83,4.46-28.56,4.46h-44.98v-111.91Zm27.48,100.44h14.61c5.39,0,10.47-.99,15.23-2.97,4.76-1.98,8.93-4.9,12.5-8.75,3.58-3.85,6.4-8.58,8.46-14.2s3.09-12.05,3.09-19.31c0-6.27-.98-12.09-2.93-17.46-1.95-5.36-4.66-10-8.13-13.91-3.47-3.91-7.61-6.97-12.42-9.2-4.82-2.23-10.08-3.34-15.8-3.34h-14.61v89.13Z" style="fill:#44bba4; stroke-width:0px;"/><path d="m1062.41,926.58c-9.02,0-17.44-1.46-25.25-4.37-7.81-2.92-14.58-7-20.3-12.26-5.72-5.25-10.22-11.5-13.49-18.73-3.27-7.23-4.91-15.17-4.91-23.81s1.64-16.24,4.91-23.31c3.27-7.07,7.77-13.14,13.49-18.2,5.72-5.06,12.49-9,20.3-11.8,7.81-2.81,16.23-4.21,25.25-4.21s17.43,1.42,25.21,4.25c7.78,2.83,14.55,6.78,20.3,11.84,5.75,5.06,10.28,11.1,13.58,18.12,3.3,7.01,4.95,14.7,4.95,23.07,0,5.94-.74,11.54-2.23,16.8-1.49,5.25-3.6,10.08-6.35,14.48-2.75,4.4-6.05,8.34-9.9,11.8-3.85,3.47-8.16,6.41-12.92,8.83-4.76,2.42-9.89,4.28-15.39,5.57-5.5,1.29-11.25,1.94-17.25,1.94Zm0-9.41c5.45,0,10.26-1.25,14.44-3.76,4.18-2.5,7.68-5.96,10.48-10.36,2.81-4.4,4.94-9.64,6.4-15.72,1.46-6.08,2.19-12.72,2.19-19.93s-.73-13.59-2.19-19.48c-1.46-5.89-3.59-10.95-6.4-15.19-2.81-4.24-6.3-7.54-10.48-9.9-4.18-2.36-9-3.55-14.44-3.55s-10.34,1.18-14.53,3.55c-4.18,2.37-7.68,5.67-10.48,9.9-2.81,4.24-4.92,9.3-6.35,15.19-1.43,5.89-2.15,12.38-2.15,19.48s.71,13.85,2.15,19.93c1.43,6.08,3.55,11.32,6.35,15.72,2.81,4.4,6.3,7.85,10.48,10.36,4.18,2.5,9.02,3.76,14.53,3.76Z" style="fill:#44bba4; stroke-width:0px;"/><path d="m1151.13,812.19h42.09c7.26,0,13.6.76,19.02,2.27,5.42,1.51,9.93,3.63,13.53,6.35,3.6,2.72,6.31,5.96,8.13,9.7,1.82,3.74,2.72,7.81,2.72,12.21,0,3.19-.62,6.2-1.86,9.04-1.24,2.83-2.97,5.45-5.2,7.84-2.23,2.39-4.92,4.51-8.09,6.35-3.16,1.84-6.64,3.37-10.44,4.58l39.86,53.56h-29.88l-37.55-50.59h-4.87v50.59h-27.48v-111.91Zm27.48,51.5h5.94c3.36,0,6.46-.47,9.33-1.4,2.86-.94,5.34-2.27,7.43-4,2.09-1.73,3.73-3.86,4.91-6.4,1.18-2.53,1.77-5.39,1.77-8.58,0-2.97-.45-5.69-1.36-8.17-.91-2.48-2.16-4.61-3.76-6.4-1.6-1.79-3.52-3.18-5.78-4.17-2.26-.99-4.7-1.49-7.35-1.49h-11.14v40.6Z" style="fill:#44bba4; stroke-width:0px;"/><path d="m1345,812.19v9.57h-56.12v36.89h46.63v9.57h-46.63v44.4h56.12v11.47h-83.6v-111.91h83.6Z" style="fill:#44bba4; stroke-width:0px;"/><path d="m1402.36,925.75c-6.71,0-12.59-.78-17.62-2.35-5.03-1.57-9.31-3.73-12.83-6.48-3.52-2.75-6.33-6.04-8.42-9.86-2.09-3.82-3.52-8.02-4.29-12.59h19.06c.66,2.81,1.62,5.42,2.89,7.84,1.27,2.42,2.87,4.53,4.83,6.31,1.95,1.79,4.26,3.19,6.93,4.21,2.67,1.02,5.76,1.53,9.28,1.53,2.31,0,4.61-.25,6.89-.74,2.28-.5,4.33-1.31,6.15-2.43,1.82-1.13,3.27-2.59,4.37-4.37,1.1-1.79,1.65-4,1.65-6.64,0-3.3-.85-6.24-2.56-8.83-1.71-2.59-3.96-4.94-6.77-7.06-2.81-2.12-6-4.09-9.57-5.9-3.58-1.82-7.24-3.64-10.98-5.49-3.74-1.84-7.4-3.78-10.98-5.82-3.58-2.03-6.77-4.3-9.57-6.81-2.81-2.5-5.06-5.34-6.77-8.5-1.71-3.16-2.56-6.78-2.56-10.85,0-4.46.98-8.57,2.93-12.34,1.95-3.77,4.77-7.04,8.46-9.82,3.69-2.78,8.2-4.95,13.53-6.52,5.34-1.57,11.42-2.35,18.24-2.35,5.61,0,10.7.77,15.27,2.31,4.57,1.54,8.6,3.67,12.09,6.4,3.49,2.72,6.42,5.92,8.79,9.57,2.36,3.66,4.18,7.58,5.45,11.76h-17.25c-.99-2.64-2.15-5.17-3.47-7.59-1.32-2.42-2.94-4.54-4.87-6.35-1.93-1.82-4.26-3.26-7.02-4.33-2.75-1.07-6.02-1.61-9.82-1.61-3.58,0-6.59.47-9.04,1.4-2.45.94-4.42,2.13-5.9,3.59-1.49,1.46-2.56,3.08-3.22,4.87-.66,1.79-.99,3.54-.99,5.24,0,2.97.88,5.67,2.64,8.09,1.76,2.42,4.09,4.68,6.97,6.77,2.89,2.09,6.18,4.09,9.86,5.98,3.69,1.9,7.44,3.81,11.27,5.74,3.82,1.93,7.58,3.95,11.27,6.07,3.69,2.12,6.97,4.44,9.86,6.97,2.89,2.53,5.21,5.34,6.97,8.42,1.76,3.08,2.64,6.55,2.64,10.4,0,4.57-.94,8.8-2.81,12.71-1.87,3.91-4.65,7.3-8.34,10.19-3.69,2.89-8.27,5.16-13.74,6.81-5.48,1.65-11.79,2.48-18.94,2.48Z" style="fill:#44bba4; stroke-width:0px;"/></g></svg>