<svg xmlns="http://www.w3.org/2000/svg" xml:space="preserve" width="1473" height="1028" fill-rule="evenodd" stroke-linejoin="round" stroke-miterlimit="2" clip-rule="evenodd">
  <path d="M199.951 866.184H184.4c-1.008 16.272-10.368 25.92-23.04 25.92-14.976 0-20.304-11.952-20.304-37.008 0-24.624 5.473-36.288 19.44-36.288 12.097 0 18.433 8.496 21.743 26.496h17.281V805.56h-15.696l-2.448 5.328c-8.208-4.608-17.135-6.768-27.503-6.768-31.105 0-51.264 20.304-51.264 51.264 0 32.976 18.72 51.12 51.983 51.12 28.513 0 44.64-14.4 45.36-40.32m59.76 3.456c0 15.984-2.016 23.184-10.512 23.184-8.64 0-10.8-7.2-10.8-23.184s2.16-23.184 10.513-23.184c8.639 0 10.799 7.2 10.799 23.184m-10.8-36.576c-25.632 0-41.04 13.824-41.04 36.576s15.408 36.432 41.183 36.432c25.633 0 41.33-13.968 41.33-36.432s-15.697-36.576-41.472-36.576m84.239 9.216v-6.624h-36.864v12.672h2.448c5.615 0 6.767 1.296 6.767 6.768v29.088c0 5.472-1.152 6.768-6.767 6.768h-2.448v12.672h48.96v-12.672h-4.608c-5.616 0-6.768-1.296-6.768-6.768v-20.016c0-12.96 5.04-20.16 12.383-20.16 1.008 0 2.016.144 3.168.432-4.32 2.16-6.336 5.184-6.336 9.36 0 5.904 4.753 10.512 11.234 10.512 7.919 0 13.391-5.616 13.391-14.4 0-9.936-6.48-16.704-16.992-16.704-6.767 0-12.672 3.024-17.568 9.072m76.751 0v-6.624H373.04v12.672h2.447c5.617 0 6.77 1.296 6.77 6.768v29.088c0 5.472-1.153 6.768-6.77 6.768h-2.447v12.672H422v-12.672h-4.608c-5.615 0-6.768-1.296-6.768-6.768v-20.016c0-12.96 5.04-20.16 12.384-20.16 1.008 0 2.016.144 3.168.432-4.32 2.16-6.336 5.184-6.336 9.36 0 5.904 4.751 10.512 11.232 10.512 7.92 0 13.391-5.616 13.391-14.4 0-9.936-6.478-16.704-16.99-16.704-6.77 0-12.673 3.024-17.57 9.072M479.456 861c0-9.936 4.032-15.12 10.368-15.12 6.625 0 10.512 4.896 10.512 14.112V861zm45.503 19.008h-17.711c-1.584 8.352-6.623 12.816-13.967 12.816-8.785 0-13.825-6.192-13.825-17.712v-1.44h45.217v-2.448c0-24.624-12.817-38.16-36.001-38.16-23.471 0-38.448 14.256-38.448 36.576 0 22.464 14.688 36.576 38.736 36.576 20.88 0 32.689-8.496 36-26.208m45.072 4.176v-48.528h-38.015v12.672h2.88c5.614 0 6.766 1.296 6.766 6.768v29.088c0 5.472-1.152 6.768-6.767 6.768h-2.88v12.672h47.231v-12.672H576.8c-5.616 0-6.768-1.296-6.768-6.768m-29.088-66.96c0 7.344 5.617 12.96 12.96 12.96 7.2 0 12.96-5.76 12.96-12.96s-5.76-13.104-12.96-13.104-12.96 5.76-12.96 13.104m95.616 52.416c0 15.984-2.017 23.184-10.511 23.184-8.64 0-10.8-7.2-10.8-23.184s2.16-23.184 10.511-23.184c8.64 0 10.8 7.2 10.8 23.184m-10.8-36.576c-25.633 0-41.04 13.824-41.04 36.576s15.407 36.432 41.184 36.432c25.632 0 41.328-13.968 41.328-36.432s-15.696-36.576-41.472-36.576m143.711 36.864c0 14.4-3.168 21.456-9.504 21.456s-9.36-7.056-9.36-21.456c0-14.544 2.882-21.6 9.36-21.6 6.77 0 9.504 7.056 9.504 21.6m.145-43.488v16.848c-6.192-7.344-13.248-10.224-21.6-10.224-16.415 0-27.793 13.68-27.793 36.864 0 23.76 9.937 36 28.945 36 8.928 0 15.552-3.6 22.32-11.664v9.36h36.289v-12.672h-3.457c-5.328 0-6.336-1.296-6.336-6.768V807h-40.033v12.672c1.297 0 2.593-.144 3.601-.144 6.336 0 8.064 1.44 8.064 6.912m95.472 43.2c0 15.984-2.016 23.184-10.512 23.184-8.64 0-10.8-7.2-10.8-23.184s2.16-23.184 10.512-23.184c8.64 0 10.8 7.2 10.8 23.184m-10.8-36.576c-25.631 0-41.04 13.824-41.04 36.576s15.409 36.432 41.184 36.432c25.631 0 41.327-13.968 41.327-36.432s-15.696-36.576-41.471-36.576m140.687 70.56h58.608v-13.68h-5.04c-7.055 0-7.919-2.592-10.367-10.224L1015.568 807h-34.992l-25.343 73.008c-2.305 6.624-5.328 9.936-10.512 9.936h-3.601v13.68h43.2v-13.68h-4.752c-4.463 0-6.768-1.008-6.768-2.736s.576-3.456 1.295-5.472l3.026-9.216h26.064l3.454 10.368c.433 1.44.577 2.88.577 4.176 0 2.88-2.304 2.88-7.92 2.88h-4.32zm3.6-44.928h-16.991l8.207-29.232z"/>
  <path d="M1086.849 844.152v-8.496h-36.865v12.672h2.447c5.617 0 6.769 1.296 6.769 6.768v29.088c0 5.472-1.152 6.768-6.769 6.768h-2.447v12.672h43.92v-12.672h-.577c-4.75 0-5.759-1.728-5.759-6.768v-20.16c0-10.656 2.591-15.84 8.928-15.84 5.616 0 7.632 3.456 7.632 11.52v24.48c0 5.04-.72 6.768-4.609 6.768h-1.439v12.672h40.464v-12.672h-1.583c-4.034 0-4.609-1.728-4.609-6.768v-20.448c0-10.512 2.735-15.552 9.072-15.552 5.616 0 7.488 3.6 7.488 11.52v24.48c0 5.328-.864 6.624-6.048 6.768v12.672h42.912v-12.672h-1.727c-5.617 0-6.769-1.296-6.769-6.768v-25.92c0-17.568-5.617-25.2-23.615-25.2-8.352 0-16.13 3.024-22.896 9.072-4.034-6.192-10.225-9.072-19.153-9.072-9.648 0-17.567 3.456-24.767 11.088m156.095 25.488c0 15.984-2.016 23.184-10.512 23.184-8.64 0-10.8-7.2-10.8-23.184s2.16-23.184 10.511-23.184c8.64 0 10.8 7.2 10.8 23.184m-10.8-36.576c-25.632 0-41.04 13.824-41.04 36.576s15.408 36.432 41.183 36.432c25.633 0 41.33-13.968 41.33-36.432s-15.697-36.576-41.474-36.576m84.242 9.216v-6.624h-36.864v12.672h2.448c5.615 0 6.767 1.296 6.767 6.768v29.088c0 5.472-1.152 6.768-6.767 6.768h-2.448v12.672h48.96v-12.672h-4.607c-5.617 0-6.77-1.296-6.77-6.768v-20.016c0-12.96 5.04-20.16 12.385-20.16 1.007 0 2.015.144 3.168.432-4.32 2.16-6.337 5.184-6.337 9.36 0 5.904 4.753 10.512 11.234 10.512 7.919 0 13.391-5.616 13.391-14.4 0-9.936-6.48-16.704-16.992-16.704-6.767 0-12.672 3.024-17.568 9.072"/>
  <g fill="#f45b69">
    <path d="M209.951 857.184H194.4c-1.008 16.272-10.368 25.92-23.04 25.92-14.976 0-20.304-11.952-20.304-37.008 0-24.624 5.473-36.288 19.44-36.288 12.097 0 18.433 8.496 21.743 26.496h17.281V796.56h-15.696l-2.448 5.328c-8.208-4.608-17.135-6.768-27.503-6.768-31.105 0-51.264 20.304-51.264 51.264 0 32.976 18.72 51.12 51.983 51.12 28.513 0 44.64-14.4 45.36-40.32m59.76 3.456c0 15.984-2.016 23.184-10.512 23.184-8.64 0-10.8-7.2-10.8-23.184s2.16-23.184 10.513-23.184c8.639 0 10.799 7.2 10.799 23.184m-10.8-36.576c-25.632 0-41.04 13.824-41.04 36.576s15.408 36.432 41.183 36.432c25.633 0 41.33-13.968 41.33-36.432s-15.697-36.576-41.472-36.576m84.239 9.216v-6.624h-36.864v12.672h2.448c5.615 0 6.767 1.296 6.767 6.768v29.088c0 5.472-1.152 6.768-6.767 6.768h-2.448v12.672h48.96v-12.672h-4.608c-5.616 0-6.768-1.296-6.768-6.768v-20.016c0-12.96 5.04-20.16 12.383-20.16 1.008 0 2.016.144 3.168.432-4.32 2.16-6.336 5.184-6.336 9.36 0 5.904 4.753 10.512 11.234 10.512 7.919 0 13.391-5.616 13.391-14.4 0-9.936-6.48-16.704-16.992-16.704-6.767 0-12.672 3.024-17.568 9.072m76.751 0v-6.624H383.04v12.672h2.447c5.617 0 6.77 1.296 6.77 6.768v29.088c0 5.472-1.153 6.768-6.77 6.768h-2.447v12.672H432v-12.672h-4.608c-5.615 0-6.768-1.296-6.768-6.768v-20.016c0-12.96 5.04-20.16 12.384-20.16 1.008 0 2.016.144 3.168.432-4.32 2.16-6.336 5.184-6.336 9.36 0 5.904 4.751 10.512 11.232 10.512 7.92 0 13.391-5.616 13.391-14.4 0-9.936-6.478-16.704-16.99-16.704-6.77 0-12.673 3.024-17.57 9.072M489.456 852c0-9.936 4.032-15.12 10.368-15.12 6.625 0 10.512 4.896 10.512 14.112V852zm45.503 19.008h-17.711c-1.584 8.352-6.623 12.816-13.967 12.816-8.785 0-13.825-6.192-13.825-17.712v-1.44h45.217v-2.448c0-24.624-12.817-38.16-36.001-38.16-23.471 0-38.448 14.256-38.448 36.576 0 22.464 14.688 36.576 38.736 36.576 20.88 0 32.689-8.496 36-26.208m45.072 4.176v-48.528h-38.015v12.672h2.88c5.614 0 6.766 1.296 6.766 6.768v29.088c0 5.472-1.152 6.768-6.767 6.768h-2.88v12.672h47.231v-12.672H586.8c-5.616 0-6.768-1.296-6.768-6.768m-29.088-66.96c0 7.344 5.617 12.96 12.96 12.96 7.2 0 12.96-5.76 12.96-12.96s-5.76-13.104-12.96-13.104-12.96 5.76-12.96 13.104m95.616 52.416c0 15.984-2.017 23.184-10.511 23.184-8.64 0-10.8-7.2-10.8-23.184s2.16-23.184 10.511-23.184c8.64 0 10.8 7.2 10.8 23.184m-10.8-36.576c-25.633 0-41.04 13.824-41.04 36.576s15.407 36.432 41.184 36.432c25.632 0 41.328-13.968 41.328-36.432s-15.696-36.576-41.472-36.576m143.711 36.864c0 14.4-3.168 21.456-9.504 21.456s-9.36-7.056-9.36-21.456c0-14.544 2.882-21.6 9.36-21.6 6.77 0 9.504 7.056 9.504 21.6m.145-43.488v16.848c-6.192-7.344-13.248-10.224-21.6-10.224-16.415 0-27.793 13.68-27.793 36.864 0 23.76 9.937 36 28.945 36 8.928 0 15.552-3.6 22.32-11.664v9.36h36.289v-12.672h-3.457c-5.328 0-6.336-1.296-6.336-6.768V798h-40.033v12.672c1.297 0 2.593-.144 3.601-.144 6.336 0 8.064 1.44 8.064 6.912m95.472 43.2c0 15.984-2.016 23.184-10.512 23.184-8.64 0-10.8-7.2-10.8-23.184s2.16-23.184 10.512-23.184c8.64 0 10.8 7.2 10.8 23.184m-10.8-36.576c-25.631 0-41.04 13.824-41.04 36.576s15.409 36.432 41.184 36.432c25.631 0 41.327-13.968 41.327-36.432s-15.696-36.576-41.471-36.576m140.687 70.56h58.608v-13.68h-5.04c-7.055 0-7.919-2.592-10.367-10.224L1025.568 798h-34.992l-25.343 73.008c-2.305 6.624-5.328 9.936-10.512 9.936h-3.601v13.68h43.2v-13.68h-4.752c-4.463 0-6.768-1.008-6.768-2.736s.576-3.456 1.295-5.472l3.026-9.216h26.064l3.454 10.368c.433 1.44.577 2.88.577 4.176 0 2.88-2.304 2.88-7.92 2.88h-4.32zm3.6-44.928h-16.991l8.207-29.232z"/>
    <path d="M1096.849 835.152v-8.496h-36.865v12.672h2.447c5.617 0 6.769 1.296 6.769 6.768v29.088c0 5.472-1.152 6.768-6.769 6.768h-2.447v12.672h43.92v-12.672h-.577c-4.75 0-5.759-1.728-5.759-6.768v-20.16c0-10.656 2.591-15.84 8.928-15.84 5.616 0 7.632 3.456 7.632 11.52v24.48c0 5.04-.72 6.768-4.609 6.768h-1.439v12.672h40.464v-12.672h-1.583c-4.034 0-4.609-1.728-4.609-6.768v-20.448c0-10.512 2.735-15.552 9.072-15.552 5.616 0 7.488 3.6 7.488 11.52v24.48c0 5.328-.864 6.624-6.048 6.768v12.672h42.912v-12.672h-1.727c-5.617 0-6.769-1.296-6.769-6.768v-25.92c0-17.568-5.617-25.2-23.615-25.2-8.352 0-16.13 3.024-22.896 9.072-4.034-6.192-10.225-9.072-19.153-9.072-9.648 0-17.567 3.456-24.767 11.088m156.095 25.488c0 15.984-2.016 23.184-10.512 23.184-8.64 0-10.8-7.2-10.8-23.184s2.16-23.184 10.511-23.184c8.64 0 10.8 7.2 10.8 23.184m-10.8-36.576c-25.632 0-41.04 13.824-41.04 36.576s15.408 36.432 41.183 36.432c25.633 0 41.33-13.968 41.33-36.432s-15.697-36.576-41.474-36.576m84.242 9.216v-6.624h-36.864v12.672h2.448c5.615 0 6.767 1.296 6.767 6.768v29.088c0 5.472-1.152 6.768-6.767 6.768h-2.448v12.672h48.96v-12.672h-4.607c-5.617 0-6.77-1.296-6.77-6.768v-20.016c0-12.96 5.04-20.16 12.385-20.16 1.007 0 2.015.144 3.168.432-4.32 2.16-6.337 5.184-6.337 9.36 0 5.904 4.753 10.512 11.234 10.512 7.919 0 13.391-5.616 13.391-14.4 0-9.936-6.48-16.704-16.992-16.704-6.767 0-12.672 3.024-17.568 9.072"/>
  </g>
  <g fill="#fff">
    <path d="M202.951 849.184H187.4c-1.008 16.272-10.368 25.92-23.04 25.92-14.976 0-20.304-11.952-20.304-37.008 0-24.624 5.473-36.288 19.44-36.288 12.097 0 18.433 8.496 21.743 26.496h17.281V788.56h-15.696l-2.448 5.328c-8.208-4.608-17.135-6.768-27.503-6.768-31.105 0-51.264 20.304-51.264 51.264 0 32.976 18.72 51.12 51.983 51.12 28.513 0 44.64-14.4 45.36-40.32m59.76 3.456c0 15.984-2.016 23.184-10.512 23.184-8.64 0-10.8-7.2-10.8-23.184s2.16-23.184 10.513-23.184c8.639 0 10.799 7.2 10.799 23.184m-10.8-36.576c-25.632 0-41.04 13.824-41.04 36.576s15.408 36.432 41.183 36.432c25.633 0 41.33-13.968 41.33-36.432s-15.697-36.576-41.472-36.576m84.239 9.216v-6.624h-36.864v12.672h2.448c5.615 0 6.767 1.296 6.767 6.768v29.088c0 5.472-1.152 6.768-6.767 6.768h-2.448v12.672h48.96v-12.672h-4.608c-5.616 0-6.768-1.296-6.768-6.768v-20.016c0-12.96 5.04-20.16 12.383-20.16 1.008 0 2.016.144 3.168.432-4.32 2.16-6.336 5.184-6.336 9.36 0 5.904 4.753 10.512 11.234 10.512 7.919 0 13.391-5.616 13.391-14.4 0-9.936-6.48-16.704-16.992-16.704-6.767 0-12.672 3.024-17.568 9.072m76.751 0v-6.624H376.04v12.672h2.447c5.617 0 6.77 1.296 6.77 6.768v29.088c0 5.472-1.153 6.768-6.77 6.768h-2.447v12.672H425v-12.672h-4.608c-5.615 0-6.768-1.296-6.768-6.768v-20.016c0-12.96 5.04-20.16 12.384-20.16 1.008 0 2.016.144 3.168.432-4.32 2.16-6.336 5.184-6.336 9.36 0 5.904 4.751 10.512 11.232 10.512 7.92 0 13.391-5.616 13.391-14.4 0-9.936-6.478-16.704-16.99-16.704-6.77 0-12.673 3.024-17.57 9.072M482.456 844c0-9.936 4.032-15.12 10.368-15.12 6.625 0 10.512 4.896 10.512 14.112V844zm45.503 19.008h-17.711c-1.584 8.352-6.623 12.816-13.967 12.816-8.785 0-13.825-6.192-13.825-17.712v-1.44h45.217v-2.448c0-24.624-12.817-38.16-36.001-38.16-23.471 0-38.448 14.256-38.448 36.576 0 22.464 14.688 36.576 38.736 36.576 20.88 0 32.689-8.496 36-26.208m45.072 4.176v-48.528h-38.015v12.672h2.88c5.614 0 6.766 1.296 6.766 6.768v29.088c0 5.472-1.152 6.768-6.767 6.768h-2.88v12.672h47.231v-12.672H579.8c-5.616 0-6.768-1.296-6.768-6.768m-29.088-66.96c0 7.344 5.617 12.96 12.96 12.96 7.2 0 12.96-5.76 12.96-12.96s-5.76-13.104-12.96-13.104-12.96 5.76-12.96 13.104m95.616 52.416c0 15.984-2.017 23.184-10.511 23.184-8.64 0-10.8-7.2-10.8-23.184s2.16-23.184 10.511-23.184c8.64 0 10.8 7.2 10.8 23.184m-10.8-36.576c-25.633 0-41.04 13.824-41.04 36.576s15.407 36.432 41.184 36.432c25.632 0 41.328-13.968 41.328-36.432s-15.696-36.576-41.472-36.576m143.711 36.864c0 14.4-3.168 21.456-9.504 21.456s-9.36-7.056-9.36-21.456c0-14.544 2.882-21.6 9.36-21.6 6.77 0 9.504 7.056 9.504 21.6m.145-43.488v16.848c-6.192-7.344-13.248-10.224-21.6-10.224-16.415 0-27.793 13.68-27.793 36.864 0 23.76 9.937 36 28.945 36 8.928 0 15.552-3.6 22.32-11.664v9.36h36.289v-12.672h-3.457c-5.328 0-6.336-1.296-6.336-6.768V790h-40.033v12.672c1.297 0 2.593-.144 3.601-.144 6.336 0 8.064 1.44 8.064 6.912m95.472 43.2c0 15.984-2.016 23.184-10.512 23.184-8.64 0-10.8-7.2-10.8-23.184s2.16-23.184 10.512-23.184c8.64 0 10.8 7.2 10.8 23.184m-10.8-36.576c-25.631 0-41.04 13.824-41.04 36.576s15.409 36.432 41.184 36.432c25.631 0 41.327-13.968 41.327-36.432s-15.696-36.576-41.471-36.576m140.687 70.56h58.608v-13.68h-5.04c-7.055 0-7.919-2.592-10.367-10.224L1018.568 790h-34.992l-25.343 73.008c-2.305 6.624-5.328 9.936-10.512 9.936h-3.601v13.68h43.2v-13.68h-4.752c-4.463 0-6.768-1.008-6.768-2.736s.576-3.456 1.295-5.472l3.026-9.216h26.064l3.454 10.368c.433 1.44.577 2.88.577 4.176 0 2.88-2.304 2.88-7.92 2.88h-4.32zm3.6-44.928h-16.991l8.207-29.232z"/>
    <path d="M1089.849 827.152v-8.496h-36.865v12.672h2.447c5.617 0 6.769 1.296 6.769 6.768v29.088c0 5.472-1.152 6.768-6.769 6.768h-2.447v12.672h43.92v-12.672h-.577c-4.75 0-5.759-1.728-5.759-6.768v-20.16c0-10.656 2.591-15.84 8.928-15.84 5.616 0 7.632 3.456 7.632 11.52v24.48c0 5.04-.72 6.768-4.609 6.768h-1.439v12.672h40.464v-12.672h-1.583c-4.034 0-4.609-1.728-4.609-6.768v-20.448c0-10.512 2.735-15.552 9.072-15.552 5.616 0 7.488 3.6 7.488 11.52v24.48c0 5.328-.864 6.624-6.048 6.768v12.672h42.912v-12.672h-1.727c-5.617 0-6.769-1.296-6.769-6.768v-25.92c0-17.568-5.617-25.2-23.615-25.2-8.352 0-16.13 3.024-22.896 9.072-4.034-6.192-10.225-9.072-19.153-9.072-9.648 0-17.567 3.456-24.767 11.088m156.095 25.488c0 15.984-2.016 23.184-10.512 23.184-8.64 0-10.8-7.2-10.8-23.184s2.16-23.184 10.511-23.184c8.64 0 10.8 7.2 10.8 23.184m-10.8-36.576c-25.632 0-41.04 13.824-41.04 36.576s15.408 36.432 41.183 36.432c25.633 0 41.33-13.968 41.33-36.432s-15.697-36.576-41.474-36.576m84.242 9.216v-6.624h-36.864v12.672h2.448c5.615 0 6.767 1.296 6.767 6.768v29.088c0 5.472-1.152 6.768-6.767 6.768h-2.448v12.672h48.96v-12.672h-4.607c-5.617 0-6.77-1.296-6.77-6.768v-20.016c0-12.96 5.04-20.16 12.385-20.16 1.007 0 2.015.144 3.168.432-4.32 2.16-6.337 5.184-6.337 9.36 0 5.904 4.753 10.512 11.234 10.512 7.919 0 13.391-5.616 13.391-14.4 0-9.936-6.48-16.704-16.992-16.704-6.767 0-12.672 3.024-17.568 9.072"/>
  </g>
</svg>
