<?xml version="1.0" encoding="UTF-8"?><svg id="a" xmlns="http://www.w3.org/2000/svg" xmlns:xlink="http://www.w3.org/1999/xlink" viewBox="0 0 1536 1024"><defs><filter id="b" filterUnits="userSpaceOnUse"><feOffset dx="7.8" dy="7.8"/><feGaussianBlur result="c" stdDeviation="0"/><feFlood flood-color="#000" flood-opacity="1"/><feComposite in2="c" operator="in"/><feComposite in="SourceGraphic"/></filter><filter id="d" filterUnits="userSpaceOnUse"><feOffset dx="7.8" dy="7.8"/><feGaussianBlur result="e" stdDeviation="0"/><feFlood flood-color="#000" flood-opacity="1"/><feComposite in2="e" operator="in"/><feComposite in="SourceGraphic"/></filter></defs><g style="filter:url(#b);"><path d="m236.35,915.11l-1.33-.44-1.99,2.88-5.09.66-4.43,1.55-6.2-1.33-1.11.44-4.21,2.88c-1.04-.89-2.29-1.63-3.77-2.21l-3.99,3.77-3.1-3.1-1.33.44c-.44-.44-.92-.89-1.44-1.33-.52-.44-.85-.74-1-.89h-9.52l-1.55-1.77c-1.18-.29-2.66-.67-4.43-1.11-2.21-.59-4.36-1.25-6.42-1.99h-2.66l-1.99-2.21h-.89c-1.18,0-2.47-.74-3.88-2.21-1.41-1.47-2.33-2.29-2.77-2.44-2.96-1.47-5.98-3.06-9.08-4.76-3.1-1.7-5.46-4.02-7.09-6.98-3.1-1.62-5.46-3.4-7.09-5.32l-6.2-4.87-7.31-7.09-1.55-.66-4.21-3.99-1.55-.22-.66.22c-.89.3-1.77.44-2.66.44s-1.85-.18-2.88-.55c-1.03-.37-1.77-2.77-2.21-7.2l1.99-2.21c.89-3.1,2.36-5.61,4.43-7.53l6.2-.66v.44c0,.44.22.89.66,1.33h3.1c.15.89,1.33,1.33,3.54,1.33s5.17-.22,8.86-.66v-1.33c1.77.3,4.43.44,7.97.44,4.72,0,8.71-.37,11.96-1.11l2.88-1.33,4.87-.89,6.2-.66.89.22,1.11-.44c1.18-.44,3.17-.96,5.98-1.55l1.77-.67,1.99-1.11h.89l2.44-1.77,6.42-1.99c1.47-.74,2.21-1.33,2.21-1.77,0-.59-.37-1.18-1.11-1.77l-5.55-4.87-2.22-.44-1.33-.89c-.89-.89-2.15-1.55-3.77-1.99l-2.89.08-4.65-1.76-3.1-.09-2.88-2.66h-4.43l-2.21-.22-12.62-.89-.66-.22-.89.22-3.1-.67-1.99.44-6.86-.83-7.3,1.19-3.76-1.07-3.54.47-2.7-.54-3.5,1.47-1.77-.68-3.33,1.33h-1.55c-.3,1.19-.44,2.08-.44,2.67,0,.3.07.59.22.89v.89l-.55,11.13c-.37,1.34-.55,2.67-.55,4,0,2.37.74,4.6,2.21,6.68l-2.21,3.12.89,5.79-1.55,5.79c-.89,3.27-1.33,6.6-1.33,10.02v10.24l1.55,13.13.44,1.78-1.99,8.45v1.78c0,3.86-4.73,5.79-14.17,5.79l1.55-11.74-.89-2.21-2.66-11.3c-.44-1.18-.66-2.21-.66-3.1,0-1.18.37-2.66,1.11-4.43-.89-.89-1.33-1.84-1.33-2.88,0-1.47.66-3.4,1.99-5.76-.44-1.18-.66-2.51-.66-3.99v-6.2c1.47-2.07,2.21-3.25,2.21-3.54s-.74-1.7-2.21-4.21l1.77-4.43-.66-3.77.89-.89.22-2.21-2.21-8.86,1.11-3.99-1.11-7.31h-5.32l-5.32,5.98c-1.33-2.11-3.69-3.91-7.09-5.42-2.36-1.96-3.54-4.07-3.54-6.33,0-1.96,1.03-4.14,3.1-6.55l5.09-3.39,7.97-.68h7.53c1.47-3.39,4.57-5.09,9.3-5.09h5.98l1.33,3.77,3.77-1.33,6.2,1.11,8.42-1.11,12.18,1.55h16.61l7.97,1.11h7.97l.66,1.11h2.21v-.66l14.62,5.54,5.98,2.66,4.65.44,1.77,1.99c6.64,5.02,10.41,10.34,11.3,15.95l-.22,1.11c-.59,2.81-1.92,5.24-3.99,7.31l-9.08,9.08-5.54.44-1.11.44c-2.36,1.33-5.24,2.21-8.64,2.66l-1.77,1.55-6.87,1.77h-1.11c-1.48,0-2.66.3-3.54.89l-5.32,4.65-4.65-2.66-.66.22-2.44,1.33-1.55-1.55c-.3.74-1.03,1.63-2.21,2.66l-4.21-1.55-3.99,1.55-1.11-.89-1.33.44.67.44,1.8,2.4,8.33,6.54,2.44,3.53,2.22,2.21,1.33,3.09,5.1.22,7.31,6.84,3.33,1.32,4.65,2.65,4.43,1.1,5.54,1.99,3.1-.22,2.66-1.55,1.11,2.88,3.77-.66.66,1.33,2.66.67,7.54-.67,3.1.67,9.75-1.77,7.09-1.55,1.11-1.99h3.1l4.21-5.09c3.54,3.99,5.32,7.09,5.32,9.3l.22,1.11c0,1.48-3.54,4.65-10.63,9.52Z" style="fill:#3a7ca5; stroke-width:0px;"/><path d="m315.86,901.38c0,1.77-1.33,3.99-3.99,6.64-.74,2.36-1.85,4.28-3.32,5.76l-1.33.22-2.44,4.21-3.99.67-4.21,2.66-2.21,3.99h-2.44c-1.63.64-2.96,1.02-3.99,1.15l-1.33,1.73h-1.99c-1.92,0-3.77,1.25-5.54,3.76l-3.1-2.66h-2.66c-1.92,0-3.54-.37-4.87-1.11h-3.77l-1.77-1.1c-5.61-.88-9.16-3-10.63-6.37v-.66l-2.66-1.32-1.33-3.73-2.66-1.76v-3.29l-2.66-9.66v-7.9l1.33-3.52v-4.61l1.11-3.51-.22-1.54,1.55-2.63-.44.44c0-1.33.37-2.73,1.11-4.21v-1.11l-.66-5.32c0-2.51,1.11-4.72,3.32-6.64.15-.29.22-.74.22-1.33s-.26-1.81-.77-3.65c-.52-1.84-.78-3.14-.78-3.88,0-1.77.44-3.62,1.33-5.54,1.18,1.77,2.88,2.66,5.09,2.66h.66c.29-.59.96-1.25,1.99-1.99,1.18-3.69,2.8-6.79,4.87-9.3l.89-.89c0-.59.44-2.29,1.33-5.09h1.77l.44-1.11,1.77-.44c.74-1.18,1.22-1.88,1.44-2.1.22-.22,1.81-1.14,4.76-2.77.59-1.03,1.47-1.99,2.66-2.88.59-.29,1.33-.59,2.21-.89l.89-1.33c3.99-1.33,6.5-1.99,7.53-1.99,1.18,0,2.29.3,3.32.89l1.11-.22,1.55.89c1.77,1.33,3.54,2.44,5.32,3.32l3.77,2.88v.89c3.4,2.66,5.09,6.42,5.09,11.29l-.66,2.21.66,7.31-1.99,1.33-2.21,5.76-4.21,4.65-.22,3.54c-4.73,3.4-9.08,6.13-13.07,8.19-1.33,2.07-3.4,3.1-6.2,3.1h-.66l-4.21,2.66h-3.54l-5.32,2.21-3.99-1.99h-.44c-.3,1.19-.59,2.97-.89,5.35l-1.77,1.34-.22,2.67-1.33,3.79c.29,3.57.44,5.87.44,6.91l-.74.67c0,1.93-.06,3.34-.19,4.23,0,.15-.06.37-.18.67v.67c0,1.19.59,2.16,1.77,2.9.44,1.79,1.18,2.9,2.21,3.34l1.55,1.34,4.87,1.34v.67l1.77.45h7.53l4.43-.66,2.21-1.53,1.33-.44,2.21-3.28,1.11-.22,5.54-1.75c.59-1.02,1.55-1.9,2.88-2.63l.66-1.09c2.95-.58,4.65-2.12,5.09-4.6,2.07-2.04,4.72-3.07,7.97-3.07h.89c2.8,3.25,4.21,5.91,4.21,7.97Zm-21.93-63.79c0-.44-.22-1.33-.66-2.66l-1.11-.22-.44.22h-.89c-.3.15-.59.22-.89.22-.15,0-.37-.07-.66-.22h-.66l-2.21,1.55-1.99.22-1.11.44-3.77,4.87-2.44,1.77-3.54,6.2-1.99,1.33c-.44,2.51-1.48,4.65-3.1,6.42l-.89,1.55c1.62-1.03,3.47-1.55,5.54-1.55l1.55-.67.66-1.99,3.1.22,1.77-2.66h1.33l2.44.89,1.11-3.32h1.55v-2.44l2.88-.67.66-.66.44-1.99,2.88-4.21c.29-.74.44-1.62.44-2.66Z" style="fill:#3a7ca5; stroke-width:0px;"/><path d="m393.15,874.37l-4.87,3.75-6.2-1.11-2.88.44-5.98.66h-15.5l-5.32.66-1.55-.66-8.19,1.33c-.89-.89-1.63-1.33-2.21-1.33-.89,0-1.92.44-3.1,1.33l-3.77-.67h-4.21l-3.77-4.87v-4.43l2.88-.22,2.21-2.88,5.54,1.77h7.53v.63l2.21.47,1.55-1.11h17.72l.44,1.11.89-.22.89.67,2.88-.89c1.18.59,2.66.89,4.43.89,1.18,0,2.44-.22,3.77-.67l3.54.89h2.66c5.02,0,7.82,1.49,8.42,4.45Z" style="fill:#3a7ca5; stroke-width:0px;"/></g><g style="filter:url(#d);"><path d="m484.04,852.24c-2.93-14.04-11.11-20.98-24.37-20.98-18.82,0-29.77,14.81-29.77,40.26s11.42,40.42,30.54,40.42c8.48,0,15.74-3.55,20.21-9.72,2.62-3.7,3.7-6.79,4.63-13.27l32.09,4.78c-2.93,13.11-6.32,20.67-12.8,28.23-9.56,10.95-24.53,16.81-43.19,16.81s-34.71-5.86-45.66-16.97c-11.42-11.57-17.89-29.62-17.89-50.29s6.48-38.72,18.67-50.75c10.64-10.34,26.23-16.04,44.27-16.04,19.9,0,35.48,6.79,45.51,20.21,4.94,6.32,7.56,12.03,9.56,21.13l-31.78,6.17Z" style="fill:#fff; stroke-width:0px;"/><path d="m592.49,871.37c0-7.4-4.47-10.8-14.66-10.8s-15.12,3.24-17.43,10.8l-29.46-4.78c3.08-9.1,6.48-14.04,12.96-18.67,8.33-5.86,19.75-8.79,34.71-8.79,11.42,0,22.52,2.16,28.54,5.4,9.87,5.4,14.19,13.88,14.19,27.77v41.65c0,9.41.31,14.96,1.08,21.91h-29.93v-7.1c-8.64,6.63-17.28,9.26-29.93,9.26-11.72,0-20.52-2.78-26.69-8.49-5.55-5.09-8.48-12.5-8.48-20.98,0-9.72,3.86-17.43,11.26-22.52,7.87-5.55,18.2-8.79,32.09-10.03,6.02-.62,10.64-.77,21.75-1.08v-3.55Zm0,23.29c-13.73.31-20.36,1.08-26.69,3.09-5.55,1.85-8.95,5.71-8.95,10.18,0,5.55,4.63,8.79,12.65,8.79,6.32,0,13.27-2.31,17.43-5.86,3.55-3.08,5.55-7.25,5.55-11.88v-4.32Z" style="fill:#fff; stroke-width:0px;"/><path d="m665.77,904.38c1.54,8.02,6.79,11.57,17.12,11.57,9.26,0,14.5-2.62,14.5-7.4,0-2.31-1.23-4.32-3.39-5.55-2.16-1.23-4.17-1.85-12.65-3.55-11.72-2.31-17.74-3.86-22.83-5.55-7.4-2.78-12.5-6.33-15.43-10.95-2.47-4.17-3.86-9.41-3.86-14.66,0-18.51,15.58-29.77,41.34-29.77,14.66,0,25.61,3.24,32.86,9.87,5.09,4.47,7.56,8.95,10.03,17.59l-29.77,3.24c-.77-6.33-4.63-9.1-12.96-9.1s-12.96,2.62-12.96,6.63,3.24,5.71,18.51,9.1c15.12,3.24,19.9,4.63,25.3,7.41,10.03,4.94,14.81,12.5,14.81,23.6,0,8.18-2.78,15.58-7.87,20.52-7.4,7.4-20.05,11.26-36.56,11.26-19.44,0-33.17-5.24-40.57-15.43-3.09-4.32-4.63-8.02-6.17-15.43l30.54-3.39Z" style="fill:#fff; stroke-width:0px;"/><path d="m751.85,838.51c0-7.71-.31-13.88-1.23-21.13h31.47c-.77,6.33-1.23,13.73-1.23,21.13v3.24h5.55c6.79,0,10.34-.15,15.12-.77v25.61c-4.63-.62-8.64-.93-14.19-.93h-6.48v39.49c0,4.32.77,6.48,2.78,7.87,1.7,1.08,4.17,1.7,7.1,1.7,4.01,0,6.94-.77,10.8-2.78l2.31,23.45c-6.94,2.16-12.96,3.08-21.29,3.08-10.49,0-17.74-1.7-22.68-5.4-5.86-4.47-8.02-9.72-8.02-20.21v-47.21h-5.86c-4.94,0-8.95.31-13.42.93v-25.76c4.47.62,8.33.93,13.73.93h5.55v-3.24Z" style="fill:#fff; stroke-width:0px;"/><path d="m845.8,841.75c-.93,6.33-1.23,12.5-1.23,23.29v47.51c0,8.33.46,16.66,1.23,23.29h-32.24c.93-7.56,1.23-13.42,1.23-23.29v-47.51c0-10.03-.31-16.35-1.23-23.29h32.24Zm-.46-34.25v23.14h-31.32v-23.14h31.32Z" style="fill:#fff; stroke-width:0px;"/><path d="m862.15,935.85c.93-7.25,1.23-13.73,1.23-23.29v-47.51c0-10.64-.31-17.12-1.23-23.29h30.7v6.48c0,.93-.15,3.24-.15,4.32,9.72-9.26,19.13-13.11,31.78-13.11,10.64,0,19.13,2.93,24.84,8.64,6.17,6.17,8.79,13.73,8.79,25.92v38.72c0,8.95.46,16.66,1.23,23.14h-32.09c.93-7.4,1.23-13.88,1.23-23.29v-31.62c0-6.17-.62-8.79-2.47-11.42-2.01-2.78-5.55-4.32-10.18-4.32-8.64,0-16.35,5.4-22.99,16.2v31.16c0,8.79.31,15.27,1.23,23.29h-31.93Z" style="fill:#fff; stroke-width:0px;"/><path d="m996.05,933.23c5.4,6.94,13.27,10.49,23.45,10.49,8.48,0,15.12-2.31,18.82-6.79,3.24-3.7,4.63-8.33,4.94-16.51-7.87,7.1-16.2,10.18-28.08,10.18-26.84,0-43.81-17.59-43.81-45.66s17.43-45.51,43.81-45.51c11.42,0,19.75,2.62,28.08,8.95v-6.63h30.24c-.93,6.94-1.23,12.34-1.23,21.44v54.15c0,18.51-5.24,31.01-16.04,38.57-8.33,5.86-21.29,9.1-36.72,9.1-20.98,0-34.86-5.25-45.66-17.12l22.21-14.66Zm24.84-24.84c12.65,0,21.75-9.72,21.75-23.45s-9.1-23.6-21.6-23.6-20.36,9.41-20.36,23.76,8.02,23.29,20.21,23.29Z" style="fill:#fff; stroke-width:0px;"/><path d="m1224.99,852.24c-2.93-14.04-11.11-20.98-24.37-20.98-18.82,0-29.77,14.81-29.77,40.26s11.42,40.42,30.54,40.42c8.48,0,15.74-3.55,20.21-9.72,2.62-3.7,3.7-6.79,4.63-13.27l32.09,4.78c-2.93,13.11-6.32,20.67-12.8,28.23-9.56,10.95-24.53,16.81-43.19,16.81s-34.71-5.86-45.66-16.97c-11.42-11.57-17.89-29.62-17.89-50.29s6.48-38.72,18.67-50.75c10.64-10.34,26.23-16.04,44.27-16.04,19.9,0,35.48,6.79,45.51,20.21,4.94,6.32,7.56,12.03,9.56,21.13l-31.78,6.17Z" style="fill:#fff; stroke-width:0px;"/><path d="m1333.44,871.37c0-7.4-4.47-10.8-14.66-10.8s-15.12,3.24-17.43,10.8l-29.46-4.78c3.08-9.1,6.48-14.04,12.96-18.67,8.33-5.86,19.75-8.79,34.71-8.79,11.42,0,22.52,2.16,28.54,5.4,9.87,5.4,14.19,13.88,14.19,27.77v41.65c0,9.41.31,14.96,1.08,21.91h-29.93v-7.1c-8.64,6.63-17.28,9.26-29.93,9.26-11.72,0-20.52-2.78-26.69-8.49-5.55-5.09-8.48-12.5-8.48-20.98,0-9.72,3.86-17.43,11.26-22.52,7.87-5.55,18.2-8.79,32.09-10.03,6.02-.62,10.64-.77,21.75-1.08v-3.55Zm0,23.29c-13.73.31-20.36,1.08-26.69,3.09-5.55,1.85-8.95,5.71-8.95,10.18,0,5.55,4.63,8.79,12.65,8.79,6.32,0,13.27-2.31,17.43-5.86,3.55-3.08,5.55-7.25,5.55-11.88v-4.32Z" style="fill:#fff; stroke-width:0px;"/><path d="m1411.96,807.5c-.93,6.48-1.23,12.8-1.23,23.29v81.76c0,9.26.31,15.12,1.23,23.29h-32.24c.93-6.94,1.23-12.19,1.23-23.29v-81.76c0-10.95-.31-17.43-1.23-23.29h32.24Z" style="fill:#fff; stroke-width:0px;"/><path d="m1460.4,807.5c-.93,6.48-1.23,12.8-1.23,23.29v81.76c0,9.26.31,15.12,1.23,23.29h-32.24c.93-6.94,1.23-12.19,1.23-23.29v-81.76c0-10.95-.31-17.43-1.23-23.29h32.24Z" style="fill:#fff; stroke-width:0px;"/></g></svg>