<?xml version="1.0" encoding="UTF-8"?><svg id="a" xmlns="http://www.w3.org/2000/svg" xmlns:xlink="http://www.w3.org/1999/xlink" viewBox="0 0 1536 1024"><defs><filter id="b" filterUnits="userSpaceOnUse"><feOffset dx="7.5" dy="7.5"/><feGaussianBlur result="c" stdDeviation="0"/><feFlood flood-color="#000" flood-opacity="1"/><feComposite in2="c" operator="in"/><feComposite in="SourceGraphic"/></filter></defs><g style="filter:url(#b);"><path d="m414.26,141.73c0-2.35,1.26-4.12,3.78-5.3,2.52-1.17,5.3-1.77,8.33-1.77s5.8.5,8.33,1.51c2.52,1.01,3.78,2.52,3.78,4.54.33,15.82.5,30.7.5,44.66v41.13c0,13.46.08,27.17.25,41.13.17,13.96.42,29.02.76,45.17,0,12.79.17,24.22.5,34.31.33,10.09,1.34,21.53,3.03,34.31,2.69,2.02,6.98,2.86,12.87,2.52,5.88-.33,11.94-1.09,18.17-2.27,6.22-1.17,12.11-2.52,17.66-4.04,5.55-1.51,9.34-2.78,11.35-3.78,2.02-1.01,3.95-.67,5.8,1.01,1.84,1.69,3.45,3.78,4.79,6.31,1.34,2.52,2.1,5.22,2.27,8.07.17,2.86-.59,4.79-2.27,5.8-5.05,2.36-12.11,4.54-21.19,6.56-9.08,2.02-18.25,3.53-27.5,4.54-9.26,1.01-17.66,1.51-25.23,1.51s-12.2-.84-13.88-2.52c-2.36-1.68-4.21-4.54-5.55-8.58-1.35-4.04-2.36-9.67-3.03-16.91-.68-7.23-1.1-16.23-1.26-27-.17-10.76-.25-23.72-.25-38.86-.34-16.15-.59-31.2-.76-45.17-.17-13.96-.34-27.67-.5-41.13-.17-13.45-.25-27.16-.25-41.13s-.17-28.84-.5-44.66Z" style="fill:#f2e863; stroke-width:0px;"/><path d="m526.79,407.67c-2.7,0-4.46-1.18-5.3-3.53-.84-2.35-1.26-4.87-1.26-7.57s.33-5.21,1.01-7.57c.67-2.35,1.51-3.86,2.52-4.54l72.16-7.57c2.02-.67,3.61.17,4.79,2.52,1.17,2.36,1.77,5.05,1.77,8.07s-.5,5.89-1.51,8.58c-1.01,2.7-2.86,4.21-5.55,4.54l-68.63,7.06Zm1.01-245.25c-2.36,0-4.04-1.09-5.05-3.28-1.01-2.18-1.51-4.62-1.51-7.32s.33-5.21,1.01-7.57c.67-2.35,1.68-4.04,3.03-5.05l70.14-5.05c1.68,0,3.03,1.18,4.04,3.53,1.01,2.36,1.59,4.97,1.77,7.82.17,2.86-.25,5.55-1.26,8.07-1.01,2.52-2.7,3.96-5.05,4.29l-67.12,4.54Zm20.69-7.06c.67-3.7,2.1-6.47,4.29-8.33,2.18-1.85,4.54-2.78,7.06-2.78s4.96.84,7.32,2.52c2.35,1.69,4.04,4.21,5.05,7.57.67,21.19,1.09,41.21,1.26,60.05.17,18.85.17,37.43,0,55.76-.17,18.34-.43,36.92-.76,55.76-.34,18.85-.5,38.86-.5,60.05-.34,4.04-1.69,7.15-4.04,9.34-2.36,2.19-4.88,3.37-7.57,3.53-2.7.17-5.3-.76-7.82-2.78-2.52-2.02-3.96-5.05-4.29-9.08,0-21.19.17-41.21.5-60.05.33-18.84.58-37.42.76-55.76.17-18.33.17-36.92,0-55.76-.17-18.84-.59-38.86-1.26-60.05Z" style="fill:#f2e863; stroke-width:0px;"/><path d="m611.06,139.71c.67-3.03,2.18-5.3,4.54-6.81,2.35-1.51,5.05-2.27,8.07-2.27s5.97.68,8.83,2.02c2.85,1.35,4.96,3.2,6.31,5.55l67.62,226.58,2.52-239.2c-.34-2.35.84-4.2,3.53-5.55,2.69-1.34,5.72-2.02,9.08-2.02s6.39.43,9.08,1.26c2.69.84,4.04,2.27,4.04,4.29-.34,25.23-.68,49.38-1.01,72.42-.34,23.05-.84,45.92-1.51,68.63-.68,22.71-1.35,45.84-2.02,69.39-.68,23.55-1.35,48.28-2.02,74.18,0,2.69-1.43,4.87-4.29,6.56-2.86,1.68-6.14,2.78-9.84,3.28-3.71.5-7.32.33-10.85-.5-3.53-.84-5.98-2.44-7.32-4.79l-59.04-198.83c-.68,31.97-.76,64.26-.25,96.89.5,32.64.42,64.26-.25,94.87-.68,2.02-2.36,3.7-5.05,5.05-2.7,1.34-5.55,2.18-8.58,2.52-3.03.33-5.8.08-8.33-.76-2.52-.84-3.96-2.61-4.29-5.3l1.01-267.46Z" style="fill:#f2e863; stroke-width:0px;"/><path d="m753.87,300.68c-2.02-.33-3.45-1.77-4.29-4.29-.84-2.52-1.26-5.12-1.26-7.82s.42-5.21,1.26-7.57c.84-2.35,2.27-3.7,4.29-4.04l126.66-19.68c1.34,0,2.6,1.18,3.78,3.53,1.17,2.36,1.93,4.97,2.27,7.82.33,2.86.25,5.55-.25,8.07-.5,2.52-1.94,3.96-4.29,4.29l-128.18,19.68Zm3.53-164.01c.67-2.02,2.27-3.61,4.79-4.79,2.52-1.17,5.12-1.85,7.82-2.02,2.69-.17,5.21.25,7.57,1.26,2.35,1.01,3.53,2.7,3.53,5.05.67,46.09.92,91.76.76,137.01-.17,45.25-.43,90.92-.76,137.01-.34,2.02-1.69,3.61-4.04,4.79-2.36,1.17-4.88,1.85-7.57,2.02-2.7.17-5.3-.25-7.82-1.26s-3.96-2.7-4.29-5.05c.33-46.09.58-91.76.76-137.01.17-45.24-.09-90.91-.76-137.01Zm83.77-3.53c.67-2.02,2.18-3.61,4.54-4.79,2.35-1.17,4.87-1.84,7.57-2.02,2.69-.17,5.21.25,7.57,1.26,2.35,1.01,3.7,2.7,4.04,5.05,1.34,49.79,1.77,99.25,1.26,148.36-.5,49.12-.93,98.58-1.26,148.36-.34,1.34-1.69,2.52-4.04,3.53-2.36,1.01-4.88,1.68-7.57,2.02-2.7.33-5.3.17-7.82-.5-2.52-.68-3.96-2.02-4.29-4.04.33-49.79.76-99.33,1.26-148.61.5-49.28.08-98.82-1.26-148.61Z" style="fill:#f2e863; stroke-width:0px;"/><path d="m994.58,269.9c2.02-1.01,3.95-.84,5.8.5,1.84,1.35,3.45,3.2,4.79,5.55,1.34,2.36,2.1,4.79,2.27,7.32.17,2.52-.25,4.29-1.26,5.3-.68.68-4.04,2.27-10.09,4.79-6.06,2.52-13.29,5.55-21.7,9.08-8.41,3.53-17.58,7.24-27.5,11.1-9.93,3.87-19.1,7.49-27.5,10.85-8.41,3.37-15.56,6.23-21.45,8.58-5.89,2.36-9.17,3.53-9.84,3.53-2.02.68-4.12,0-6.31-2.02-2.19-2.02-3.96-4.46-5.3-7.32-1.35-2.85-1.94-5.8-1.77-8.83.17-3.03,1.59-5.21,4.29-6.56,1.68-.67,5.55-2.1,11.61-4.29,6.06-2.18,13.2-4.71,21.45-7.57,8.24-2.85,16.91-5.88,25.99-9.08,9.08-3.19,17.58-6.22,25.48-9.08,7.9-2.85,14.71-5.38,20.44-7.57,5.72-2.18,9.25-3.61,10.6-4.29Zm-72.16-143.82c.33-3.36,2.02-5.8,5.05-7.32,3.03-1.51,6.47-2.18,10.34-2.02,3.86.17,7.4,1.1,10.6,2.78,3.19,1.69,5.12,4.21,5.8,7.57l54,257.87c2.02,2.36,2.44,4.97,1.26,7.82-1.18,2.86-3.03,5.22-5.55,7.06-2.52,1.85-5.39,2.86-8.58,3.03-3.2.17-5.98-1.43-8.33-4.79l-45.42-220.02-21.19,233.14c-.68,2.02-2.11,3.7-4.29,5.05-2.19,1.34-4.63,2.02-7.32,2.02s-5.39-.68-8.07-2.02c-2.7-1.35-4.72-3.71-6.06-7.06l27.75-283.1Z" style="fill:#f2e863; stroke-width:0px;"/><path d="m1117.7,221.46c1.01,3.03.5,5.72-1.51,8.07-2.02,2.36-4.46,4.04-7.32,5.05-2.86,1.01-5.64,1.18-8.33.5-2.7-.67-4.38-2.35-5.05-5.05-1.01-2.69-2.52-6.81-4.54-12.36s-4.38-11.43-7.06-17.66c-2.7-6.22-5.72-12.02-9.08-17.41-3.37-5.38-6.81-9.41-10.35-12.11-3.53-2.69-7.24-3.28-11.1-1.77-3.87,1.51-7.49,6.14-10.85,13.88-5.39,19.18-6.23,36.08-2.52,50.72,3.7,14.63,11.43,29.69,23.21,45.16,4.04,5.05,9.5,11.28,16.4,18.67,6.89,7.4,13.54,15.23,19.93,23.47,6.39,8.25,11.61,16.74,15.64,25.48,4.04,8.75,5.21,16.99,3.53,24.73-2.02,8.75-7.24,15.73-15.64,20.94-8.41,5.22-17.75,8.5-28.01,9.84-10.27,1.35-20.11.84-29.52-1.51-9.42-2.35-16.15-6.56-20.18-12.62-2.7-4.37-4.63-8.41-5.8-12.11-1.18-3.7-1.77-7.14-1.77-10.34s.42-6.31,1.26-9.34c.84-3.03,1.77-6.22,2.78-9.59,1.01-2.02,2.85-3.36,5.55-4.04,2.69-.67,5.3-.67,7.82,0,2.52.68,4.79,1.94,6.81,3.78,2.02,1.85,2.85,4.12,2.52,6.81-.68,2.7-1.01,5.05-1.01,7.06s-.17,4.38-.5,7.06c0,3.71,2.6,6.48,7.82,8.33,5.21,1.85,11.02,2.78,17.41,2.78s12.28-.92,17.66-2.78c5.38-1.84,8.24-4.79,8.58-8.83.33-5.72-1.44-11.94-5.3-18.67-3.87-6.73-8.5-13.45-13.88-20.19-5.38-6.73-10.94-13.03-16.65-18.92-5.72-5.88-10.27-11.02-13.62-15.39-6.73-8.41-12.62-17.66-17.66-27.75-5.05-10.09-8.83-20.52-11.35-31.29-2.52-10.76-3.36-21.7-2.52-32.8.84-11.1,3.79-21.7,8.83-31.79,3.03-5.72,7.23-11.43,12.62-17.16,5.38-5.72,11.43-8.58,18.17-8.58,9.41,0,17.58,2.61,24.47,7.82,6.89,5.22,12.87,11.78,17.91,19.68,5.05,7.91,9.34,16.4,12.87,25.48s6.64,17.33,9.34,24.73Z" style="fill:#f2e863; stroke-width:0px;"/><path d="m327.71,652.76c.33-4.04.5-9.5.5-16.4s-.5-13.7-1.51-20.44c-1.01-6.73-2.44-12.62-4.29-17.66-1.85-5.05-4.46-7.57-7.82-7.57-5.05-.33-9.93,4.97-14.63,15.9-4.71,10.94-8.83,24.22-12.36,39.87-3.53,15.64-6.31,31.71-8.33,48.19-2.02,16.49-2.86,30.11-2.52,40.88.33,6.06.58,12.54.76,19.43.17,6.9.76,13.8,1.77,20.69,1.01,6.9,2.6,13.46,4.79,19.68,2.18,6.23,5.63,11.69,10.34,16.4,7.74,8.07,15.14,12.03,22.2,11.86,7.06-.17,13.37-2.69,18.92-7.57,5.55-4.87,10.01-11.27,13.37-19.18,3.36-7.9,5.21-15.72,5.55-23.47.67-3.7,2.27-6.31,4.79-7.82s5.12-2.1,7.82-1.77c2.69.34,5.21,1.26,7.57,2.78,2.35,1.51,3.53,3.45,3.53,5.8,0,15.82-3.37,29.77-10.09,41.88-6.73,12.11-15.23,21.12-25.48,27-10.27,5.88-21.37,7.99-33.31,6.31-11.95-1.69-22.96-8.58-33.05-20.69-6.05-7.4-10.77-15.56-14.13-24.47-3.37-8.91-5.72-18.08-7.07-27.5-1.35-9.41-2.02-19-2.02-28.76s.33-19.18,1.01-28.26c.33-6.73.92-15.14,1.77-25.23.84-10.09,2.18-20.69,4.04-31.79,1.85-11.1,4.2-22.2,7.07-33.31,2.85-11.1,6.56-21.11,11.1-30.03,4.54-8.91,9.92-16.23,16.15-21.95,6.22-5.72,13.7-8.74,22.46-9.08,8.07-.33,14.63,3.03,19.68,10.09,5.05,7.06,8.74,15.48,11.1,25.23,2.35,9.76,3.61,19.77,3.79,30.03.17,10.27-.43,18.09-1.77,23.47-1.69,2.02-3.87,3.53-6.56,4.54-2.7,1.01-5.13,1.44-7.32,1.26-2.19-.17-4.12-.92-5.8-2.27-1.69-1.34-2.36-3.36-2.02-6.06Z" style="fill:#f2e863; stroke-width:0px;"/><path d="m391.3,627.53c-2.02,1.69-4.04,1.69-6.06,0-2.02-1.68-3.79-3.86-5.3-6.56-1.51-2.69-2.44-5.55-2.78-8.58s.17-5.21,1.51-6.56c4.71-2.35,9.5-4.46,14.38-6.31,4.87-1.85,9.67-4.12,14.38-6.81l1.01-28.76c-.34-2.35.76-4.04,3.28-5.05s5.38-1.34,8.58-1.01c3.19.34,6.22,1.26,9.08,2.78,2.85,1.51,4.29,3.62,4.29,6.31l-.5,19.68c17.49-2.35,32.55-.08,45.16,6.81,12.62,6.9,20.77,19.77,24.47,38.6,1.34,7.06,1.17,14.97-.5,23.72-1.69,8.75-4.54,17.75-8.58,27-4.04,9.26-9,18.34-14.89,27.25-5.89,8.92-12.2,16.91-18.92,23.97,9.75,3.71,22.96,9,39.61,15.9,16.65,6.9,37.76,14.89,63.33,23.97,2.02,1.01,3.19,2.95,3.53,5.8.33,2.86,0,5.64-1.01,8.33-1.01,2.7-2.61,4.97-4.79,6.81-2.19,1.85-4.63,2.27-7.32,1.26l-113.54-41.38-9.59,9.08-4.04,79.73c0,2.02-1.26,3.45-3.78,4.29-2.52.84-5.22,1.17-8.07,1.01-2.86-.17-5.64-.93-8.33-2.27-2.7-1.35-4.38-3.36-5.05-6.06.67-12.11,1.01-24.14,1.01-36.08v-37.6c-4.71-6.06-6.73-11.86-6.05-17.41.67-5.55,3.03-10.17,7.06-13.88l4.04-115.56c-3.71,1.69-7.06,3.37-10.09,5.05-3.03,1.69-4.88,2.52-5.55,2.52Zm41.88-16.15c-.68,19.18-1.26,38.53-1.77,58.03-.5,19.52-1.1,38.69-1.77,57.53,1.01.34,2.02.84,3.03,1.51,5.38-5.72,11.52-12.78,18.42-21.19,6.89-8.41,12.87-17.24,17.91-26.49,5.05-9.25,8.66-18.58,10.85-28.01,2.18-9.41,1.26-18.17-2.78-26.24-1.69-3.03-4.12-5.72-7.32-8.07-3.2-2.35-6.9-4.2-11.1-5.55-4.21-1.34-8.5-2.18-12.87-2.52-4.38-.33-8.58,0-12.62,1.01Z" style="fill:#f2e863; stroke-width:0px;"/><path d="m536.13,605.83c0-2.02,1.26-3.78,3.79-5.3,2.52-1.51,5.3-2.6,8.33-3.28,3.03-.67,5.8-.58,8.33.25,2.52.84,3.78,2.61,3.78,5.3.33,5.72,1.01,14.81,2.02,27.25,1.01,12.45,2.35,26.16,4.04,41.13,1.68,14.97,3.7,30.45,6.06,46.43,2.35,15.98,4.96,30.53,7.82,43.65,2.85,13.12,6.06,23.72,9.59,31.79s7.48,11.95,11.86,11.61c3.7-.67,7.74-5.12,12.11-13.37,4.37-8.24,8.91-22.28,13.62-42.14l2.02-163.5c.33-2.35,1.77-4.04,4.29-5.05,2.52-1.01,5.12-1.34,7.82-1.01,2.69.34,5.21,1.1,7.57,2.27,2.35,1.18,3.7,2.44,4.04,3.78.33,44.41.58,81.92.76,112.53.17,30.62.25,55.85.25,75.7v70.4c0,5.21-.09,8.58-.25,10.09-.17,1.51-.25,2.6-.25,3.28.33,1.68-.59,2.94-2.78,3.78-2.19.84-4.63,1.26-7.32,1.26s-5.3-.34-7.82-1.01c-2.52-.68-3.96-1.85-4.29-3.53l-.5-52.99c-1.01,2.7-2.61,5.72-4.79,9.08-2.19,3.37-4.63,6.56-7.32,9.59-2.7,3.03-5.55,5.64-8.58,7.82-3.03,2.19-5.89,3.62-8.58,4.29-9.08,2.02-16.91-1.68-23.46-11.1-6.56-9.41-12.2-21.95-16.91-37.6-4.72-15.64-8.58-32.97-11.61-51.98-3.03-19-5.47-37.34-7.32-55.01-1.85-17.66-3.2-33.31-4.04-46.93-.84-13.62-1.6-22.79-2.27-27.5Z" style="fill:#f2e863; stroke-width:0px;"/><path d="m677.93,591.2c-1.69.34-2.95-.76-3.79-3.28-.84-2.52-1.35-5.3-1.51-8.33-.17-3.03.25-5.8,1.26-8.33,1.01-2.52,2.52-3.61,4.54-3.28l74.69,3.53c4.71,1.35,8.07,4.12,10.09,8.33,2.02,4.21,2.18,8.16.5,11.86l-67.12,229.1,83.26-3.03c1.68-.33,3.03.5,4.04,2.52,1.01,2.02,1.68,4.46,2.02,7.32.33,2.86.17,5.64-.5,8.33-.68,2.7-1.69,4.54-3.03,5.55l-106.98,2.52c-3.37-.67-5.64-2.02-6.81-4.04-1.18-2.02-1.77-5.72-1.77-11.1l71.66-232.13c.33-.67-1.85-1.26-6.56-1.77-4.72-.5-10.43-.92-17.16-1.26-6.73-.33-13.55-.67-20.44-1.01-6.9-.33-12.36-.84-16.4-1.51Z" style="fill:#f2e863; stroke-width:0px;"/><path d="m896.43,706.25c2.02-1.01,3.95-.84,5.8.5,1.84,1.35,3.45,3.2,4.79,5.55,1.34,2.36,2.1,4.79,2.27,7.32.17,2.52-.25,4.29-1.26,5.3-.68.68-4.04,2.27-10.09,4.79-6.06,2.52-13.29,5.55-21.7,9.08-8.41,3.53-17.58,7.24-27.5,11.1-9.93,3.87-19.1,7.49-27.5,10.85-8.41,3.37-15.56,6.23-21.45,8.58-5.89,2.36-9.17,3.53-9.84,3.53-2.02.68-4.12,0-6.31-2.02-2.19-2.02-3.96-4.46-5.3-7.32-1.35-2.85-1.94-5.8-1.77-8.83.17-3.03,1.59-5.21,4.29-6.56,1.68-.67,5.55-2.1,11.61-4.29,6.06-2.18,13.2-4.71,21.45-7.57,8.24-2.85,16.91-5.88,25.99-9.08,9.08-3.19,17.58-6.22,25.48-9.08,7.9-2.85,14.71-5.38,20.44-7.57,5.72-2.18,9.25-3.61,10.6-4.29Zm-72.16-143.82c.33-3.36,2.02-5.8,5.05-7.32,3.03-1.51,6.47-2.18,10.34-2.02,3.86.17,7.4,1.1,10.6,2.78,3.19,1.69,5.12,4.21,5.8,7.57l54,257.87c2.02,2.36,2.44,4.97,1.26,7.82-1.18,2.86-3.03,5.22-5.55,7.06-2.52,1.85-5.39,2.86-8.58,3.03-3.2.17-5.98-1.43-8.33-4.79l-45.42-220.02-21.19,233.14c-.68,2.02-2.11,3.7-4.29,5.05-2.19,1.34-4.63,2.02-7.32,2.02s-5.39-.68-8.07-2.02c-2.7-1.35-4.72-3.71-6.06-7.06l27.75-283.1Z" style="fill:#f2e863; stroke-width:0px;"/><path d="m927.71,585.14c1.34-6.06,5.12-9.84,11.35-11.35,6.22-1.51,11.86-.92,16.91,1.77,11.1,5.72,21.11,12.79,30.03,21.19,8.91,8.41,16.73,17.66,23.46,27.75,6.73,10.09,12.44,20.69,17.16,31.79,4.71,11.1,8.58,22.2,11.61,33.31,4.37,18.51,5.8,35.75,4.29,51.73-1.51,15.98-5.98,30.28-13.37,42.89-7.4,12.62-17.66,23.21-30.78,31.79s-29.1,14.72-47.94,18.42c-1.69,2.36-3.87,3.96-6.56,4.79-2.7.84-5.3,1.01-7.82.5-2.52-.5-4.88-1.77-7.06-3.78-2.19-2.02-3.45-4.54-3.79-7.57v-.5l2.52-242.73Zm87.3,109.51c-2.02-7.06-4.79-14.89-8.33-23.47-3.53-8.58-7.91-17.16-13.12-25.74-5.22-8.58-11.28-16.57-18.17-23.97-6.9-7.4-14.38-13.29-22.46-17.66l-3.03,204.88c14.13-1.68,26.07-6.13,35.83-13.37,9.75-7.23,17.41-16.15,22.96-26.75,5.55-10.6,8.83-22.28,9.84-35.07,1.01-12.78-.17-25.74-3.53-38.86Z" style="fill:#f2e863; stroke-width:0px;"/><path d="m1154.8,706.25c2.02-1.01,3.95-.84,5.8.5,1.84,1.35,3.45,3.2,4.79,5.55,1.34,2.36,2.1,4.79,2.27,7.32.17,2.52-.25,4.29-1.26,5.3-.68.68-4.04,2.27-10.09,4.79-6.06,2.52-13.29,5.55-21.7,9.08-8.41,3.53-17.58,7.24-27.5,11.1-9.93,3.87-19.1,7.49-27.5,10.85-8.41,3.37-15.56,6.23-21.45,8.58-5.89,2.36-9.17,3.53-9.84,3.53-2.02.68-4.12,0-6.31-2.02-2.19-2.02-3.96-4.46-5.3-7.32-1.35-2.85-1.94-5.8-1.77-8.83.17-3.03,1.59-5.21,4.29-6.56,1.68-.67,5.55-2.1,11.61-4.29,6.06-2.18,13.2-4.71,21.45-7.57,8.24-2.85,16.91-5.88,25.99-9.08,9.08-3.19,17.58-6.22,25.48-9.08,7.9-2.85,14.71-5.38,20.44-7.57,5.72-2.18,9.25-3.61,10.6-4.29Zm-72.16-143.82c.33-3.36,2.02-5.8,5.05-7.32,3.03-1.51,6.47-2.18,10.34-2.02,3.86.17,7.4,1.1,10.6,2.78,3.19,1.69,5.12,4.21,5.8,7.57l54,257.87c2.02,2.36,2.44,4.97,1.26,7.82-1.18,2.86-3.03,5.22-5.55,7.06-2.52,1.85-5.39,2.86-8.58,3.03-3.2.17-5.98-1.43-8.33-4.79l-45.42-220.02-21.19,233.14c-.68,2.02-2.11,3.7-4.29,5.05-2.19,1.34-4.63,2.02-7.32,2.02s-5.39-.68-8.07-2.02c-2.7-1.35-4.72-3.71-6.06-7.06l27.75-283.1Z" style="fill:#f2e863; stroke-width:0px;"/><path d="m1277.93,657.81c1.01,3.03.5,5.72-1.51,8.07-2.02,2.36-4.46,4.04-7.32,5.05-2.86,1.01-5.64,1.18-8.33.5-2.7-.67-4.38-2.35-5.05-5.05-1.01-2.69-2.52-6.81-4.54-12.36s-4.38-11.43-7.06-17.66c-2.7-6.22-5.72-12.02-9.08-17.41-3.37-5.38-6.81-9.41-10.35-12.11-3.53-2.69-7.24-3.28-11.1-1.77-3.87,1.51-7.49,6.14-10.85,13.88-5.39,19.18-6.23,36.08-2.52,50.72,3.7,14.63,11.43,29.69,23.21,45.16,4.04,5.05,9.5,11.28,16.4,18.67,6.89,7.4,13.54,15.23,19.93,23.47,6.39,8.25,11.61,16.74,15.64,25.48,4.04,8.75,5.21,16.99,3.53,24.73-2.02,8.75-7.24,15.73-15.64,20.94-8.41,5.22-17.75,8.5-28.01,9.84-10.27,1.35-20.11.84-29.52-1.51-9.42-2.35-16.15-6.56-20.18-12.62-2.7-4.37-4.63-8.41-5.8-12.11-1.18-3.7-1.77-7.14-1.77-10.34s.42-6.31,1.26-9.34c.84-3.03,1.77-6.22,2.78-9.59,1.01-2.02,2.85-3.36,5.55-4.04,2.69-.67,5.3-.67,7.82,0,2.52.68,4.79,1.94,6.81,3.78,2.02,1.85,2.85,4.12,2.52,6.81-.68,2.7-1.01,5.05-1.01,7.06s-.17,4.38-.5,7.06c0,3.71,2.6,6.48,7.82,8.33,5.21,1.85,11.02,2.78,17.41,2.78s12.28-.92,17.66-2.78c5.38-1.84,8.24-4.79,8.58-8.83.33-5.72-1.44-11.94-5.3-18.67-3.87-6.73-8.5-13.45-13.88-20.19-5.38-6.73-10.94-13.03-16.65-18.92-5.72-5.88-10.27-11.02-13.62-15.39-6.73-8.41-12.62-17.66-17.66-27.75-5.05-10.09-8.83-20.52-11.35-31.29-2.52-10.76-3.36-21.7-2.52-32.8.84-11.1,3.79-21.7,8.83-31.79,3.03-5.72,7.23-11.43,12.62-17.16,5.38-5.72,11.43-8.58,18.17-8.58,9.41,0,17.58,2.61,24.47,7.82,6.89,5.22,12.87,11.78,17.91,19.68,5.05,7.91,9.34,16.4,12.87,25.48s6.64,17.33,9.34,24.73Z" style="fill:#f2e863; stroke-width:0px;"/></g><path d="m54.27,449.01c5.4,7.85,11.43,15.14,18.09,21.87,1.2.91,2.48,1.68,3.85,2.31,3.91,1.99,7.97,3.64,12.07,5.21,18.42,7.01,37.49,12.21,56.57,17.06,64.44,16.39,130.58,26.83,196.97,30.68,41.86,2.43,83.9,2.18,125.7-1.22,22.32-1.81,44.57-4.51,66.66-8.17,23.08-3.83,45.93-8.9,68.77-13.93,38.36-8.46,76.56-17.6,114.82-26.45,27.53-6.37,55.12-12.57,83.01-17.1,24.18-3.93,48.57-6.45,73.09-6.59,27.67-.16,55.25,2.65,82.52,7.21,35.3,5.91,70.11,14.62,104.6,24.14,22.73,6.28,45.28,13.19,68.12,19.08,22.26,5.74,44.69,10.82,67.27,15.13,36.91,7.06,74.28,12.16,111.84,13.92,28.22,1.33,56.6.83,84.65-2.8,21.24-2.75,42.27-7.32,62.56-14.22,8.37-2.85,16.6-6.05,24.62-9.78,7.02-3.27,13.9-6.82,20.78-10.37-.73-.79-1.66-1.26-2.79-1.39-3.67-1.05-7.37-2.02-11.09-2.91-3.71-.93-7.43-1.79-11.18-2.55-1.06-.4-2.1-.42-3.12-.06-6.79,2.19-13.21,5.33-19.74,8.22-3.66,1.82-7.47,3.23-11.43,4.24-3.98,1.19-7.98,2.29-12.01,3.32-19.37,4.92-39.19,7.89-59.11,9.42-27.06,2.08-54.24,1.44-81.29-.48-31.75-2.26-63.27-6.71-94.58-12.38-21.82-3.95-43.51-8.67-65.07-13.82-23.71-5.67-47.09-12.45-70.62-18.75-36.67-9.82-73.77-18.7-111.37-24.14-29.02-4.2-58.37-6.29-87.7-5.53-24.99.65-49.85,3.43-74.51,7.44-27.23,4.43-54.24,10.17-81.14,16.27-36.61,8.3-73.16,16.85-109.88,24.63-22.27,4.72-44.6,9.25-67.06,12.93-21.75,3.56-43.65,6.16-65.62,7.87-38.93,3.04-78.03,3.27-117.01,1.12-66.19-3.64-131.94-14.25-196.3-30-12.18-2.98-24.32-6.15-36.4-9.51-9.47-2.64-18.94-5.29-28.09-8.94-6.13-2.44-12.31-4.82-18.38-7.42-1.88-.99-3.86-1.69-5.94-2.11-1.59-.45-3.18-.9-4.77-1.37,5.88,6.75,11.76,13.5,17.64,20.24.58-.58,1-.78.62-1.62l-1.28-1.73c-1.67-1.89-3.38-3.74-5.14-5.55-2.68-2.81-5.38-5.61-8.17-8.32-1.04-1.01-2.5-2.81-4.05-3.1Z" style="fill:#f45b69; opacity:.11; stroke-width:0px;"/><path d="m56.29,451.15c5.49,8.76,11.66,16.97,18.5,24.64,1.43,1.14,2.97,2.1,4.62,2.9,5.22,2.75,10.86,4.76,16.4,6.75,19.9,7.12,40.45,12.49,60.98,17.48,66.39,16.16,134.47,26.06,202.75,28.85,42.46,1.74,85.05.66,127.33-3.69,16.79-1.73,33.56-3.98,50.21-6.78,23.09-3.88,45.95-9,68.79-14.07,38.35-8.51,76.55-17.68,114.82-26.54,29.18-6.76,58.45-13.37,88.07-17.9,25.73-3.93,51.69-6.08,77.73-5.52,28.29.6,56.42,4.24,84.2,9.46,31.32,5.9,62.27,13.77,92.97,22.29,22.72,6.31,45.26,13.24,68.09,19.13,22.26,5.74,44.69,10.82,67.27,15.13,36.94,7.04,74.34,12.11,111.93,13.8,28.28,1.27,56.72.69,84.8-3.06,21.28-2.84,42.33-7.53,62.62-14.57,8.36-2.9,16.58-6.17,24.59-9.93,7.02-3.3,13.89-6.88,20.75-10.49-.69-.87-1.6-1.43-2.75-1.68-3.69-1.44-7.4-2.79-11.15-4.07-3.73-1.32-7.48-2.56-11.27-3.72-1.05-.51-2.12-.64-3.2-.38-6.83,2.22-13.27,5.42-19.81,8.37-3.68,1.86-7.52,3.32-11.51,4.38-3.99,1.23-8,2.37-12.03,3.43-19.41,5.09-39.3,8.21-59.29,9.87-27.13,2.24-54.39,1.72-81.53-.14-31.81-2.18-63.37-6.58-94.74-12.22-21.83-3.93-43.53-8.63-65.09-13.79-23.69-5.66-47.05-12.45-70.56-18.8-36.58-9.88-73.59-18.84-111.09-24.44-28.93-4.32-58.2-6.56-87.45-5.93-24.95.54-49.77,3.22-74.4,7.19-27.23,4.38-54.22,10.11-81.11,16.21-36.65,8.32-73.23,16.91-109.98,24.76-22.3,4.76-44.66,9.36-67.16,13.11-21.78,3.62-43.72,6.29-65.73,8.06-38.99,3.15-78.16,3.47-117.21,1.41-66.29-3.49-132.17-13.96-196.65-29.64-12.19-2.97-24.34-6.13-36.44-9.48-9.48-2.63-19-5.22-28.15-8.86-6.09-2.42-12.24-4.78-18.21-7.49-1.86-1.02-3.81-1.78-5.86-2.28-1.58-.5-3.16-1.04-4.72-1.61,6.06,7.64,12.12,15.29,18.18,22.93l.89-.88c-.15-1.08-.66-2.01-1.51-2.78-2.44-3.02-4.95-5.98-7.53-8.88-2.54-2.94-5.14-5.82-7.8-8.64-.65-.95-1.5-1.57-2.55-1.87Z" style="fill:#f45b69; opacity:.11; stroke-width:0px;"/><path d="m75.67,468.71c-.59,1.03-.76,1.42-.32,2.62.48,1.33,1.43,2.61,2.37,3.65.35.39.7.78,1.07,1.15,1.49,1.45,2.89,2.13,4.73,2.96,5.25,2.39,10.8,4.06,16.23,5.97,15.96,5.61,32.49,9.88,48.87,14.04,24.88,6.32,50.08,11.61,75.38,15.95,101.6,17.45,206.04,21.09,308.02,4.54,20.29-3.29,40.36-7.56,60.42-12.04,16.46-3.67,32.9-7.4,49.33-11.21,31.49-7.29,62.9-14.94,94.42-22.13,47.12-10.75,95.06-20.72,143.63-20.18,50.76.56,100.72,10.89,149.7,23.51,14.59,3.76,29.11,7.75,43.6,11.89,20.07,5.74,40.04,11.8,60.25,17.03,37.12,9.59,74.79,17.35,112.78,22.53,50.54,6.89,102.13,9.38,152.77,2.24,21.56-3.04,42.95-8.21,63.41-15.69,15.89-5.81,31.02-13.23,45.82-21.4,1.04-.58-.69-1.4-.96-1.49-.97-.34-2.73-.99-3.73-.45-12.51,6.79-25.19,13.1-38.44,18.32-16.63,6.55-33.94,11.23-51.46,14.71-22.27,4.42-44.98,6.28-67.65,6.88-15.71.41-31.46-.05-47.15-1.02-8.72-.54-17.43-1.25-26.13-2.13-14.05-1.8-28.11-3.61-42.16-5.41-39.14-5.82-77.84-14.79-115.99-25.19-21.75-5.93-43.29-12.62-65.05-18.52-13.71-3.71-27.46-7.23-41.27-10.54-50.77-12.15-102.66-20.51-155-17.55-51.19,2.9-101.4,15.26-151.13,26.97-34.81,8.19-69.62,16.39-104.53,24.16-20,4.45-39.98,8.94-60.18,12.41-19.37,3.33-38.85,5.86-58.41,7.75-98.72,9.52-199.09,1.67-295.92-19.11-21.49-4.61-42.87-9.82-63.97-16.01-7.56-2.22-15.06-4.55-22.5-7.13-3.46-1.14-6.89-2.33-10.31-3.56-3.26-.97-5.96-2.83-8.12-5.58l-.28.75.88-.94c.99-1.06-2.41-3.79-3.01-2.73Z" style="fill:#f45b69; opacity:.11; stroke-width:0px;"/><path d="m73.56,477.99c-.41.54-.64.8-.53,1.51.24,1.62,1.05,3.22,1.71,4.68.52,1.15,1.07,2.43,1.9,3.39,1.59,1.84,4.27,2.95,6.37,4.03,4.23,2.19,8.74,3.75,13.22,5.34,7.42,2.63,14.95,4.94,22.5,7.15,19.43,5.69,39.11,10.56,58.89,14.91,55.34,12.17,111.72,20.05,168.31,23.06,70.45,3.74,141.52-.1,210.82-13.64,20.23-3.95,40.34-8.63,60.44-13.18,15.51-3.51,31-7.09,46.47-10.71,28.08-6.58,56.12-13.38,84.27-19.65,22.87-5.09,45.85-9.81,69.06-13.09,20.75-2.93,41.61-4.53,62.57-4.5,50.5.07,100.63,10.75,149.31,23.25,14.57,3.74,29.08,7.72,43.54,11.85,17.07,4.88,34.07,10.01,51.22,14.6,37.67,10.09,75.85,18.29,114.45,23.93,55.71,8.14,113.24,11.53,169.03,2.18,18.59-3.12,36.98-7.73,54.72-14.14,15.93-5.75,31.06-13.17,45.85-21.36,1.08-.6-.11-1.48-.68-1.94-.84-.64-1.72-1.23-2.63-1.77-.47-.39-1.01-.58-1.6-.57-14.72,7.8-29.74,14.88-45.54,20.25-20.7,7.04-42.17,11.65-63.84,14.4-60.51,7.69-122.16,1.62-181.97-8.75-21.93-3.8-43.71-8.48-65.34-13.7-23.55-5.69-46.78-12.4-70.08-18.99-35.67-10.09-71.64-19.4-108.12-26.08-27.55-5.04-55.41-8.51-83.44-8.99-24.17-.41-48.26,1.49-72.16,4.98-27.16,3.97-54.01,9.78-80.77,15.85-36.95,8.38-73.78,17.24-110.76,25.48-22.83,5.09-45.68,10.28-68.67,14.59-22.37,4.2-44.93,7.39-67.58,9.64-39.96,3.98-80.17,5.02-120.29,3.58-67.57-2.43-134.87-11.95-200.67-27.45-12.34-2.91-24.63-6.03-36.85-9.41-9.58-2.65-19.21-5.37-28.62-8.61-6.1-2.11-12.53-4.05-18.12-7.31-1.99-1.16-4.38-2.21-6.06-3.83,1.06,2.52,2.13,5.05,3.19,7.57l.99-1.58c.93-.86-1.17-3.42-1.53-3.97-.02-.03-2.31-3.92-2.99-3.02Z" style="fill:#f45b69; opacity:.11; stroke-width:0px;"/><path d="m53.55,447.7c4.8,16.59,13.96,27.85,27.49,33.78,2.71,1.22,5.47,2.35,8.26,3.38,7.83,2.97,15.81,5.58,23.82,7.99,24.07,7.24,48.57,13.16,73.15,18.34,66.49,14.02,134.4,21.95,202.37,22.48,43.42.34,86.89-2.37,129.86-8.65,39.61-5.78,78.65-15.05,117.64-23.98,35.53-8.14,70.94-16.82,106.52-24.73,26.16-5.82,52.46-11.16,79.07-14.5,24.16-3.03,48.47-4.23,72.8-3.12,29.07,1.32,57.93,5.69,86.42,11.53,32.57,6.68,64.75,15.23,96.71,24.39,23.32,6.68,46.57,13.47,70.16,19.15,21.63,5.21,43.41,9.79,65.33,13.59,35.75,6.2,71.93,10.43,108.23,11.32,24.26.59,48.62-.31,72.68-3.55,21.21-2.86,42.19-7.56,62.41-14.61,8.32-2.9,16.51-6.17,24.48-9.92,6.99-3.29,13.83-6.87,20.66-10.48-.74-.96-1.72-1.62-2.94-1.97-3.97-1.81-7.97-3.55-12.01-5.2-4.02-1.7-8.07-3.32-12.15-4.86-1.11-.62-2.26-.85-3.47-.7-6.8,2.11-13.21,5.26-19.73,8.13-3.67,1.82-7.49,3.23-11.46,4.22-3.95,1.16-7.91,2.24-11.91,3.23-19.25,4.81-38.95,7.7-58.72,9.18-26.98,2.02-54.05,1.35-81.01-.59-31.74-2.28-63.24-6.74-94.54-12.4-21.82-3.95-43.52-8.66-65.09-13.81-23.71-5.65-47.08-12.43-70.62-18.73-36.7-9.81-73.84-18.69-111.47-24.07-29.11-4.17-58.56-6.19-87.97-5.37-25.03.7-49.93,3.5-74.63,7.52-27.23,4.43-54.23,10.15-81.13,16.25-36.62,8.3-73.19,16.84-109.94,24.59-22.23,4.69-44.54,9.19-66.97,12.84-21.71,3.53-43.58,6.11-65.51,7.8-38.86,3-77.9,3.2-116.81,1.03-66.11-3.69-131.77-14.35-196.06-30.08-12.19-2.98-24.34-6.15-36.43-9.51-9.46-2.62-18.92-5.23-28.04-8.9-6.09-2.45-12.25-4.76-18.27-7.37-1.88-1-3.87-1.72-5.95-2.16-1.62-.48-3.24-.95-4.87-1.41,6.46,9.25,12.92,18.5,19.38,27.76.65-.69,1.01-.9.64-1.87l-1.4-2.29c-1.83-2.57-3.71-5.1-5.63-7.6-2.94-3.87-5.9-7.73-8.95-11.51-.8-1.11-1.69-2.15-2.66-3.12-.45-.67-1.04-1.15-1.79-1.43Z" style="fill:#f45b69; opacity:.11; stroke-width:0px;"/><path d="m53.38,447.95c5.95,8.73,12.5,16.95,19.65,24.66,1.43,1.08,2.96,2,4.6,2.77,5.27,2.7,10.9,4.72,16.46,6.71,19.9,7.12,40.41,12.51,60.92,17.52,66.33,16.18,134.35,26.16,202.58,29.03,42.42,1.79,84.98.77,127.23-3.53,16.78-1.71,33.54-3.93,50.18-6.7,23.08-3.84,45.93-8.92,68.77-13.96,38.35-8.47,76.55-17.61,114.81-26.46,29.18-6.75,58.45-13.36,88.07-17.92,25.73-3.96,51.71-6.15,77.76-5.67,28.31.53,56.48,4.08,84.3,9.24,31.36,5.82,62.34,13.66,93.07,22.15,22.73,6.28,45.28,13.2,68.12,19.09s44.69,10.82,67.27,15.13c36.92,7.05,74.29,12.15,111.86,13.89,28.23,1.31,56.63.79,84.68-2.87,21.24-2.77,42.27-7.37,62.55-14.31,8.36-2.86,16.58-6.08,24.59-9.81,7.02-3.27,13.9-6.82,20.77-10.4-.78-.86-1.78-1.39-2.98-1.6-3.95-1.32-7.93-2.55-11.93-3.7-3.99-1.2-8-2.32-12.03-3.35-1.12-.48-2.25-.57-3.37-.27-6.8,2.13-13.2,5.26-19.71,8.13-3.65,1.82-7.46,3.21-11.42,4.2-3.96,1.16-7.95,2.25-11.96,3.25-19.31,4.82-39.07,7.72-58.91,9.19-27.01,2.01-54.13,1.32-81.12-.63-31.73-2.29-63.22-6.76-94.5-12.43-21.81-3.96-43.5-8.67-65.06-13.82-23.71-5.67-47.1-12.44-70.65-18.73-36.71-9.81-73.86-18.66-111.51-24.04-29.08-4.15-58.5-6.18-87.87-5.35-25.02.7-49.9,3.52-74.59,7.55-27.23,4.44-54.24,10.17-81.14,16.27-36.6,8.3-73.15,16.83-109.87,24.58-22.24,4.69-44.56,9.2-67,12.84-21.72,3.53-43.6,6.1-65.55,7.79-38.88,3-77.94,3.18-116.87,1-66.13-3.7-131.8-14.37-196.11-30.13-12.18-2.98-24.31-6.15-36.39-9.51-9.46-2.63-18.92-5.28-28.05-8.94-6.14-2.46-12.32-4.82-18.42-7.39-1.9-.99-3.89-1.69-5.99-2.1-1.61-.45-3.23-.9-4.84-1.34,6.42,7.7,12.84,15.41,19.26,23.11.63-.62,1.02-.81.61-1.7l-1.4-1.95c-1.82-2.15-3.69-4.26-5.6-6.34-2.92-3.22-5.86-6.42-8.89-9.54-.93-.95-2.81-3.44-4.38-3.64Z" style="fill:#f45b69; opacity:.11; stroke-width:0px;"/><path d="m64.23,463.52c3.41,6.02,6.82,12.03,10.23,18.05.51.4,1.02.81,1.52,1.21,1.19.88,2.68,1.58,4.01,2.26,4.01,2.05,8.18,3.69,12.4,5.26,22.25,8.23,45.46,14.07,68.51,19.52,32.57,7.7,65.51,13.85,98.65,18.45,43.09,5.98,86.68,9.45,130.19,9.6,46.41.16,92.77-2.94,138.62-10.23,25.98-4.13,51.66-9.82,77.32-15.59,20.65-4.64,41.26-9.39,61.86-14.23,36.65-8.6,73.22-17.72,110.18-24.94,13.55-2.65,27.17-5.02,40.86-6.85,16.07-2.14,32.16-3.34,48.36-3.9h-.62c3.42-.03,6.84-.07,10.25-.1h-.63c3.44.04,6.88.09,10.32.13h-.63c3.47.11,6.94.24,10.41.37l-.63-.03,10.55.64-.63-.04c3.57.3,7.14.6,10.72.89l-.63-.05c3.64.38,7.28.77,10.92,1.15l-.63-.07c3.72.47,7.44.94,11.16,1.41l-.63-.08c3.81.56,7.62,1.12,11.43,1.68l-.63-.1c3.91.65,7.83,1.3,11.74,1.95l-.63-.11c25.47,4.69,50.65,10.4,75.72,16.89,32.54,8.41,64.57,18.68,97.11,27.09,32.33,8.36,65.06,15.32,98.07,20.44,26.92,4.18,54.09,7.24,81.32,8.31,39.74,1.56,80.11-.16,118.87-9.75,13.12-3.24,26.01-7.24,38.58-12.2,12.35-4.87,24.09-10.92,35.81-17.12-.19-.67-.65-1.12-1.38-1.34-2.01-1.03-4.06-1.98-6.15-2.85-2.07-.92-4.16-1.76-6.29-2.52-.66-.37-1.3-.4-1.92-.08-6.94,2.59-13.58,5.9-20.3,9.03-3.87,1.97-7.87,3.59-12.02,4.87-4.12,1.41-8.27,2.72-12.44,3.95-17.09,5.01-34.63,8.45-52.3,10.64-26.52,3.29-53.32,3.76-80,2.6-30.98-1.35-61.83-4.83-92.42-9.83-21.21-3.46-42.3-7.64-63.27-12.36-23.89-5.37-47.49-11.65-71.05-18.3-33.5-9.47-67.15-18.44-101.29-25.32-28.03-5.65-56.38-9.75-84.95-11.24-24.71-1.28-49.43-.46-74.02,2.28-24,2.67-47.75,7.06-71.39,11.92-33.27,6.84-66.27,14.94-99.38,22.51-20.55,4.7-41.12,9.34-61.75,13.71-17.12,3.63-34.26,7.22-51.5,10.25-43.24,7.59-87.12,11.41-131,12-70.2.94-140.27-6.5-209.1-20.06-24.08-4.74-48.01-10.29-71.72-16.62-10.33-2.76-20.77-5.44-30.91-8.85-6.91-2.32-13.64-5.21-20.39-7.96l.59.29c-2.98-1.63-5.89-3.3-8.97-4.73l.58.29c-1.12-.53-2.2-1.12-3.25-1.78,2.91,5.38,5.83,10.76,8.74,16.15l.02-1.02-.09.64.91-.96c.41-.43-.42-1.72-.58-2.06-1.47-2.91-3.61-5.56-5.49-8.21-1.17-1.65-2.3-3.46-3.74-4.88-.37-.36-1.38-1.37-1.22-.08Z" style="fill:#f45b69; opacity:.11; stroke-width:0px;"/><path d="m75.58,469.79c-.38.91-.43,1.37-.06,2.3.46,1.17,1.28,2.22,1.95,3.27,2.75,4.23,7.35,6.52,11.88,8.49,2.32,1,4.83,1.74,7.23,2.54,2.76.93,5.51,1.93,8.28,2.85,6.82,2.27,13.74,4.29,20.65,6.26,21.7,6.2,43.68,11.45,65.76,16.04,56.72,11.79,114.47,19.06,172.37,21.16,71.14,2.59,142.46-2.96,212.07-18.03,32.33-7,64.57-14.48,96.77-22.06,27.53-6.48,55.01-13.18,82.64-19.24,43.15-9.47,86.81-17.1,131.15-16.28,49.24.91,97.81,11.23,145.32,23.49,14.61,3.77,29.16,7.78,43.66,11.93,20.08,5.75,40.07,11.83,60.3,17.06,34.71,8.98,69.89,16.3,105.38,21.45,55.5,8.05,112.78,11.34,168.34,1.9,18.41-3.13,36.52-7.8,54.1-14.1,15.81-5.67,30.8-13.12,45.52-21.15,1.43-.78-1.8-1.63-1.82-1.63-1.31-.33-2.64-.6-3.98-.82-.73-.22-1.44-.22-2.15-.01-6.68,3.43-13.34,6.9-20.13,10.1-7.86,3.7-15.91,6.94-24.1,9.81-19.98,7.01-40.72,11.7-61.69,14.57-23.9,3.28-48.1,4.23-72.2,3.67-36.13-.83-72.14-5.05-107.72-11.21-21.88-3.79-43.62-8.36-65.2-13.55-23.65-5.69-46.96-12.47-70.33-19.17-32.14-9.22-64.51-17.83-97.27-24.58-28.73-5.92-57.83-10.4-87.16-11.74-24.54-1.12-49.06.11-73.41,3.21-26.61,3.39-52.91,8.73-79.08,14.56-35.51,7.92-70.85,16.61-106.32,24.74-38.79,8.89-77.62,18.16-117.02,23.94-42.78,6.28-86.05,9.02-129.28,8.73-67.74-.45-135.44-8.22-201.71-22.16-24.47-5.15-48.79-11.12-72.77-18.25-4.43-1.3-8.83-2.65-13.22-4.08-3.62-1.36-7.28-2.6-10.99-3.7-3.83-1.21-7.42-2.88-10.8-5.01-1.1-.82-2.12-1.73-3.06-2.72l1.49,2.05-.72-1.12,1.32,2.78.86-1.62c.82-.82-1.47-2.64-1.81-2.97-.06-.06-2.59-2.74-3.03-1.72Z" style="fill:#f45b69; opacity:.11; stroke-width:0px;"/><path d="m59.37,455.63c4.22,7.84,8.71,15.52,13.48,23.03.88,1.7,2.12,3.05,3.71,4.06,2.97,2.11,6.4,3.6,9.74,5,16.77,7.06,34.6,11.81,52.15,16.43,62.59,16.47,126.93,27.04,191.49,31.55,41.35,2.88,82.89,3.19,124.26.48,22.16-1.45,44.27-3.76,66.24-7.01,23.04-3.4,45.8-8.11,68.54-13.11,39.88-8.76,79.6-18.2,119.35-27.52,30.02-7.04,60.09-14.08,90.51-19.19,25.84-4.34,51.93-7.1,78.15-7.08,27.65.02,55.19,3.05,82.41,7.8,35.23,6.15,69.96,15.01,104.37,24.63,22.7,6.35,45.23,13.31,68.06,19.21,22.26,5.75,44.7,10.83,67.28,15.12,36.96,7.02,74.39,12.03,111.99,13.63,28.3,1.21,56.75.53,84.83-3.35,21.28-2.94,42.31-7.73,62.57-14.89,8.36-2.95,16.57-6.28,24.57-10.1,7-3.34,13.85-6.96,20.69-10.6-.49-.87-1.24-1.48-2.25-1.8-3.13-1.61-6.3-3.15-9.51-4.61-3.19-1.5-6.41-2.93-9.66-4.28-.9-.56-1.85-.75-2.83-.55-6.92,2.25-13.44,5.54-20.05,8.57-3.77,1.94-7.7,3.47-11.78,4.58-4.03,1.27-8.08,2.45-12.15,3.55-19.56,5.27-39.61,8.54-59.78,10.3-27.27,2.38-54.69,1.96-81.98.17-31.94-2.1-63.64-6.45-95.14-12.07-21.86-3.9-43.59-8.6-65.19-13.76-23.64-5.65-46.93-12.45-70.37-18.85-36.37-9.92-73.15-18.97-110.44-24.72-28.73-4.43-57.82-6.83-86.9-6.34-24.83.42-49.54,3-74.06,6.89-27.21,4.32-54.18,10.04-81.03,16.16-36.76,8.37-73.45,17.03-110.31,24.97-22.39,4.82-44.84,9.5-67.42,13.31-21.87,3.69-43.9,6.42-66,8.25-39.12,3.25-78.43,3.66-117.63,1.68-66.5-3.37-132.59-13.74-197.3-29.34-12.25-2.95-24.45-6.1-36.6-9.45-9.48-2.61-19.06-5.14-28.2-8.82-5.93-2.39-11.97-4.69-17.68-7.58-1.73-1.06-3.57-1.86-5.52-2.4-1.19-.43-2.37-.88-3.53-1.37,4.83,8.24,9.66,16.48,14.49,24.72l.97-1.98c-.03-1.06-.42-2.01-1.17-2.84-2.06-3.15-4.2-6.25-6.4-9.31-2.16-3.08-4.4-6.12-6.7-9.1-.54-.99-1.3-1.67-2.3-2.04Z" style="fill:#f45b69; opacity:.11; stroke-width:0px;"/><path d="m53.4,447.69c5.88,9.41,12.34,18.38,19.39,26.9.75.57,1.53,1.11,2.34,1.61,4.22,2.62,9.02,4.39,13.64,6.14,18.43,6.98,37.53,12.17,56.62,17.02,64.45,16.36,130.61,26.72,197,30.5,41.86,2.38,83.9,2.08,125.69-1.36,22.31-1.84,44.55-4.57,66.63-8.26,23.06-3.86,45.9-8.96,68.72-14.01,38.34-8.49,76.52-17.64,114.77-26.49,27.53-6.37,55.12-12.58,83.02-17.09,24.2-3.92,48.61-6.4,73.15-6.5,27.7-.11,55.29,2.76,82.58,7.38,35.31,5.98,70.11,14.74,104.6,24.29,22.73,6.3,45.28,13.23,68.13,19.12,22.26,5.74,44.69,10.82,67.27,15.12,36.91,7.04,74.29,12.11,111.85,13.82,28.22,1.28,56.6.73,84.64-2.99,21.21-2.81,42.2-7.44,62.45-14.42,8.34-2.87,16.54-6.11,24.53-9.84,7-3.27,13.86-6.84,20.71-10.42-.75-.91-1.72-1.5-2.92-1.78-3.91-1.56-7.86-3.04-11.83-4.44-3.96-1.45-7.94-2.81-11.96-4.09-1.1-.55-2.23-.71-3.39-.48-6.8,2.11-13.21,5.26-19.72,8.12-3.66,1.82-7.47,3.22-11.44,4.2-3.95,1.16-7.93,2.23-11.93,3.23-19.27,4.8-38.99,7.68-58.78,9.16-26.98,2.01-54.07,1.32-81.03-.63-36.96-2.67-73.65-8.19-109.99-15.38-22.53-4.46-44.96-9.52-67.22-15.19-23.02-5.86-45.8-12.65-68.82-18.54-31.56-8.07-63.44-15.3-95.7-19.9-29.11-4.15-58.55-6.17-87.95-5.33-26.73.76-53.31,3.91-79.66,8.37-29.61,5.01-58.94,11.52-88.22,18.2-37.94,8.66-75.85,17.46-113.99,25.19-22.31,4.52-44.72,8.88-67.29,11.95-16.28,2.22-32.61,4.03-49,5.29-41.33,3.18-82.89,3.22-124.25.58-66.93-4.27-133.4-15.65-198.38-32.14-11.58-2.94-23.15-6-34.63-9.33-4.77-1.34-9.49-2.81-14.18-4.41-3.71-1.36-7.37-2.82-11-4.39-3.17-1.2-6.34-2.42-9.5-3.66-2.32-.98-4.63-1.96-6.93-2.97-2.47-.84-5.1-1.44-7.62-2.11,6.33,8.46,12.66,16.92,18.99,25.39.63-.65,1-.86.63-1.78l-1.37-2.11c-1.79-2.36-3.63-4.67-5.52-6.95-2.88-3.54-5.78-7.06-8.77-10.5-.79-1.02-1.66-1.96-2.6-2.83-.44-.62-1.03-1.04-1.75-1.26Z" style="fill:#f45b69; opacity:.11; stroke-width:0px;"/><path d="m60.51,456.49c3.79,11.82,10.43,20.46,19.9,25.91,2.2,1.15,4.45,2.21,6.74,3.17,6.95,2.94,14.17,5.35,21.36,7.65,22.75,7.27,46.07,12.97,69.38,18.12,64.98,14.37,131.41,22.88,197.96,24.45,43.01,1.02,86.11-.9,128.81-6.26,45.42-5.69,90.02-16.17,134.58-26.42,31.64-7.27,63.19-14.92,94.84-22.15,28.41-6.49,56.97-12.65,85.88-16.52,25.71-3.44,51.63-4.84,77.55-3.6,24.96,1.19,49.78,4.66,74.3,9.34,36.55,6.98,72.59,16.56,108.33,26.84,23.3,6.7,46.52,13.49,70.1,19.17,21.64,5.21,43.43,9.79,65.36,13.58,31.87,5.52,64.07,9.45,96.4,10.85,28.31,1.23,56.79.58,84.89-3.25,21.31-2.91,42.38-7.67,62.68-14.81,8.38-2.94,16.61-6.25,24.63-10.07,7.01-3.34,13.87-6.94,20.73-10.57-.5-.82-1.25-1.36-2.25-1.62-3.08-1.37-6.2-2.65-9.35-3.86-3.13-1.25-6.29-2.43-9.48-3.52-.9-.49-1.82-.6-2.75-.34-6.91,2.3-13.42,5.6-20.02,8.67-3.75,1.96-7.67,3.5-11.75,4.64-4.04,1.3-8.1,2.51-12.18,3.64-19.6,5.4-39.71,8.76-59.94,10.6-27.32,2.49-54.79,2.13-82.14.38-31.95-2.04-63.66-6.36-95.17-11.97-21.86-3.89-43.59-8.59-65.17-13.76-23.64-5.66-46.94-12.47-70.38-18.89-36.35-9.96-73.11-19.06-110.38-24.91-28.68-4.5-57.72-7-86.77-6.6-24.82.35-49.52,2.88-74.02,6.75-27.21,4.3-54.18,10.03-81.04,16.15-36.75,8.37-73.42,17.06-110.26,25.04-22.4,4.85-44.86,9.57-67.45,13.43-21.88,3.74-43.93,6.5-66.05,8.37-39.15,3.31-78.5,3.79-117.74,1.86-66.55-3.27-132.71-13.55-197.47-29.12-12.24-2.94-24.44-6.09-36.57-9.43-9.5-2.62-19.09-5.15-28.25-8.81-5.96-2.38-12.03-4.72-17.74-7.66-1.73-1.07-3.57-1.89-5.52-2.46-1.18-.44-2.35-.91-3.51-1.43,4.76,7.24,9.52,14.48,14.28,21.72-.17-.86.16-1.49.99-1.9-.04-.98-.43-1.84-1.17-2.57-2.04-2.78-4.14-5.51-6.32-8.19-2.14-2.71-4.34-5.36-6.6-7.96-.55-.89-1.3-1.46-2.25-1.71Z" style="fill:#f45b69; opacity:.11; stroke-width:0px;"/><path d="m74.93,479.34c-.43.57-.65.82-.55,1.56.23,1.63,1.06,3.22,1.75,4.69.54,1.14,1.11,2.44,1.94,3.4,1.63,1.89,4.32,3.04,6.48,4.15,4.24,2.16,8.74,3.74,13.22,5.31,7.47,2.61,15.05,4.92,22.64,7.14,19.41,5.67,39.05,10.56,58.79,14.9,55.37,12.18,111.79,20,168.41,22.98,70.44,3.72,141.52-.14,210.8-13.72,20.19-3.96,40.25-8.66,60.3-13.22,15.48-3.52,30.95-7.1,46.4-10.73,28.06-6.59,56.07-13.4,84.2-19.67,22.89-5.1,45.89-9.82,69.12-13.08,20.81-2.92,41.74-4.5,62.75-4.43,50.53.17,100.63,10.84,149.34,23.37,14.57,3.75,29.08,7.73,43.55,11.86,17.07,4.88,34.07,10.01,51.23,14.61,37.66,10.08,75.84,18.28,114.43,23.91,55.72,8.13,113.26,11.48,169.06,2.07,18.53-3.12,36.82-7.76,54.47-14.21,15.9-5.81,31.02-13.2,45.81-21.39,1.08-.6-.1-1.48-.68-1.96-.85-.65-1.73-1.26-2.64-1.81-.48-.4-1.01-.59-1.61-.59-14.72,7.8-29.75,14.83-45.5,20.3-20.5,7.12-41.74,11.76-63.25,14.53-28.32,3.66-57.08,4.26-85.58,2.78-32.37-1.69-64.56-5.65-96.49-11.26-21.91-3.85-43.68-8.46-65.31-13.67-23.56-5.68-46.8-12.4-70.11-19-35.67-10.11-71.64-19.46-108.12-26.19-24.35-4.5-48.94-7.76-73.69-8.83-25.88-1.11-51.73.3-77.39,3.78-28.9,3.91-57.45,10.1-85.87,16.56-31.61,7.18-63.13,14.77-94.74,21.97-22.31,5.08-44.63,10.13-67.03,14.79-22.47,4.68-45.07,8.51-67.86,11.28-42.9,5.21-86.2,6.98-129.4,5.82-66.69-1.8-133.24-10.49-198.31-25.13-23.26-5.23-46.41-11.16-69.16-18.31-4.02-1.26-8.03-2.58-12.01-3.95-3.19-1.13-6.36-2.3-9.52-3.51-2.09-1.11-4.15-2.27-6.17-3.48-1.07-.52-2.03-1.19-2.89-2.01.92,2.32,1.84,4.65,2.76,6.97l1.02-1.63c.93-.86-1.22-3.42-1.58-3.95-.02-.03-2.35-3.89-3.03-2.99Z" style="fill:#f45b69; opacity:.11; stroke-width:0px;"/></svg>