<?xml version="1.0" encoding="UTF-8"?><svg id="a" xmlns="http://www.w3.org/2000/svg" xmlns:xlink="http://www.w3.org/1999/xlink" viewBox="0 0 1536 1024"><defs><filter id="b" filterUnits="userSpaceOnUse"><feOffset dx="7.8" dy="7.8"/><feGaussianBlur result="c" stdDeviation="0"/><feFlood flood-color="#000" flood-opacity="1"/><feComposite in2="c" operator="in"/><feComposite in="SourceGraphic"/></filter></defs><g style="filter:url(#b);"><path d="m683.94,423.02c-.41,0-.78-.03-1.12-.1-.34-.07-.71-.1-1.12-.1-.81,0-2.74.81-5.78,2.43-3.04,1.62-6.9,3.45-11.56,5.48-4.66,2.03-9.97,3.79-15.92,5.27-5.95,1.49-12.17,2.23-18.66,2.23-8.52,0-16.7-1.08-24.54-3.25-7.84-2.16-14.77-5.51-20.79-10.04-6.02-4.53-10.78-10.17-14.3-16.93-3.52-6.76-5.27-14.67-5.27-23.73s1.76-16.8,5.27-23.63c3.51-6.83,8.28-12.54,14.3-17.14,6.01-4.59,12.94-8.04,20.79-10.34,7.84-2.3,16.02-3.45,24.54-3.45,6.9,0,13.15.54,18.76,1.62,5.61,1.08,10.51,2.23,14.7,3.45,4.19,1.22,7.5,2.37,9.94,3.45,2.43,1.08,3.92,1.62,4.46,1.62.67,0,1.25-.34,1.72-1.01.47-.67.84-1.22,1.12-1.62l3.04,2.43-15.82,24.54-2.03-1.42c0-.41-.03-.81-.1-1.22-.07-.41-.17-.88-.3-1.42-.27-1.49-1.62-3.01-4.06-4.56-2.43-1.55-5.44-2.94-9.02-4.16-3.58-1.22-7.37-2.23-11.36-3.04-3.99-.81-7.67-1.22-11.05-1.22-5.68,0-11.12.81-16.33,2.43-5.21,1.62-9.73,3.99-13.59,7.1-3.85,3.11-6.93,6.93-9.23,11.46-2.3,4.53-3.45,9.7-3.45,15.51s1.15,10.99,3.45,15.51c2.3,4.53,5.37,8.35,9.23,11.46,3.85,3.11,8.38,5.48,13.59,7.1,5.2,1.62,10.65,2.43,16.33,2.43,4.33,0,8.85-.51,13.59-1.52,4.73-1.01,9.06-2.3,12.98-3.85,3.92-1.55,7.2-3.31,9.84-5.27,2.64-1.96,3.95-3.82,3.95-5.58,0-.94-.27-1.75-.81-2.43l2.84-1.62,13.38,21.5-1.62,1.62Z" style="fill:#fff; stroke:#000; stroke-miterlimit:10; stroke-width:2.6px;"/><path d="m718.62,433.97c2.16,0,3.65-.23,4.46-.71.81-.47,1.22-1.25,1.22-2.33v-75.85c0-1.08-.41-1.86-1.22-2.33-.81-.47-2.3-.71-4.46-.71v-3.65h30.83v3.65c-3.79,0-5.68,1.01-5.68,3.04v75.85c0,2.03,1.89,3.04,5.68,3.04v3.65h-30.83v-3.65Z" style="fill:#fff; stroke:#000; stroke-miterlimit:10; stroke-width:2.6px;"/><path d="m805.82,433.97c.67,0,1.35-.23,2.03-.71.67-.47,1.01-1.25,1.01-2.33v-67.53h-26.36c-1.08,0-2.1.27-3.04.81-.95.54-1.42,1.42-1.42,2.64h-3.65v-23.32h3.65c0,1.9.47,3.18,1.42,3.85.94.68,1.96,1.01,3.04,1.01h72.2c1.08,0,2.09-.34,3.04-1.01.94-.67,1.42-1.96,1.42-3.85h3.65v23.32h-3.65c0-1.22-.48-2.09-1.42-2.64-.95-.54-1.96-.81-3.04-.81h-26.36v67.53c0,2.03,1.22,3.04,3.65,3.04v3.65h-26.16v-3.65Z" style="fill:#fff; stroke:#000; stroke-miterlimit:10; stroke-width:2.6px;"/><path d="m881.46,355.49c-.95-1.22-2.1-2.09-3.45-2.64-1.35-.54-2.64-.81-3.85-.81v-3.65h33.46v3.65c-.68,0-1.42.24-2.23.71-.81.48-1.22,1.12-1.22,1.93s.27,1.56.81,2.23c.54.68,1.15,1.49,1.83,2.43l20.48,26.77,18.05-25.15c1.22-1.76,2.13-3.07,2.74-3.96.61-.88.91-1.72.91-2.54,0-1.08-.34-1.75-1.01-2.03-.68-.27-1.35-.41-2.03-.41v-3.65h31.03v3.65c-1.62,0-3.42.91-5.37,2.74-1.96,1.83-3.69,3.69-5.17,5.58l-31.03,40.15v30.42c0,2.03,1.28,3.04,3.85,3.04v3.65h-26.97v-3.65c2.43,0,3.65-1.01,3.65-3.04v-31.23l-34.48-44.21Z" style="fill:#fff; stroke:#000; stroke-miterlimit:10; stroke-width:2.6px;"/><path d="m304.4,608.18v-3.65c5,0,7.5-1.22,7.5-3.65v-92.07c0-2.43-2.5-3.65-7.5-3.65v-3.65h71.39c12.98,0,23.19,2.4,30.62,7.2,7.43,4.8,11.15,12.95,11.15,24.44s-3.72,19.64-11.15,24.44c-7.44,4.8-17.64,7.2-30.62,7.2h-40.76v36.1c0,2.43,2.16,3.65,6.49,3.65v3.65h-37.11Zm73.82-62.06c4.46,0,8.28-.88,11.46-2.64,3.17-1.75,4.77-5.2,4.77-10.34s-1.59-8.58-4.77-10.34c-3.18-1.76-7-2.64-11.46-2.64h-43.2v25.96h43.2Z" style="fill:#fff; stroke:#000; stroke-miterlimit:10; stroke-width:2.6px;"/><path d="m469.08,518.95v3.65c-3.11,0-4.66,1.01-4.66,3.04v67.53h54.76c1.62,0,2.97-.37,4.06-1.12,1.08-.74,1.62-1.79,1.62-3.14h3.65v21.29h-3.65c0-1.08-.54-1.69-1.62-1.83-1.08-.14-2.43-.2-4.06-.2h-79.5v-3.65c3.51,0,5.27-1.01,5.27-3.04v-75.85c0-2.03-1.76-3.04-5.27-3.04v-3.65h29.41Z" style="fill:#fff; stroke:#000; stroke-miterlimit:10; stroke-width:2.6px;"/><path d="m540.06,604.53c1.62-.27,2.94-1.05,3.95-2.33,1.01-1.28,1.79-2.47,2.33-3.55l30.22-65.91c.81-1.89,1.45-3.41,1.93-4.56.47-1.15.71-2.26.71-3.35,0-.81-.17-1.32-.51-1.52-.34-.2-.71-.44-1.12-.71v-3.65h30.62v3.65c-.41.27-.85.48-1.32.61-.48.14-.71.68-.71,1.62,0,.81.3,1.79.91,2.94.61,1.15,1.25,2.47,1.93,3.95l32.85,68.95c.67,1.22,1.42,2.1,2.23,2.64.81.54,1.69.95,2.64,1.22v3.65h-28.8v-3.04c.68,0,1.38-.2,2.13-.61.74-.41,1.12-1.15,1.12-2.23,0-.81-.14-1.55-.41-2.23-.27-.67-.61-1.55-1.01-2.64l-5.48-11.56h-43.4l-5.68,10.95c-.54,1.08-.98,2.06-1.32,2.94-.34.88-.51,1.66-.51,2.33,0,1.08.34,1.76,1.01,2.03.67.27,1.62.41,2.84.41v3.65h-27.18v-3.65Zm67.74-33.67l-16.43-34.07-14.4,34.07h30.83Z" style="fill:#fff; stroke:#000; stroke-miterlimit:10; stroke-width:2.6px;"/><path d="m666.2,604.53c2.43,0,3.65-1.01,3.65-3.04v-75.85c0-2.03-1.22-3.04-3.65-3.04v-3.65h29.81v3.65c-.95.14-1.42.48-1.42,1.01,0,.68,1.49,2.5,4.46,5.48l48.67,51.51v-54.96c0-2.03-1.35-3.04-4.06-3.04v-3.65h24.74v3.65c-2.43,0-3.65,1.01-3.65,3.04v75.85c0,2.03,1.22,3.04,3.65,3.04v3.65h-26.36v-3.65c.94,0,1.42-.34,1.42-1.01,0-.54-.64-1.49-1.93-2.84-1.29-1.35-2.74-2.91-4.36-4.66l-50.29-53.54v59.01c0,2.03,1.42,3.04,4.26,3.04v3.65h-24.94v-3.65Z" style="fill:#fff; stroke:#000; stroke-miterlimit:10; stroke-width:2.6px;"/><path d="m801.46,604.53c2.43,0,3.65-1.01,3.65-3.04v-75.85c0-2.03-1.22-3.04-3.65-3.04v-3.65h29.81v3.65c-.95.14-1.42.48-1.42,1.01,0,.68,1.49,2.5,4.46,5.48l48.67,51.51v-54.96c0-2.03-1.35-3.04-4.06-3.04v-3.65h24.74v3.65c-2.43,0-3.65,1.01-3.65,3.04v75.85c0,2.03,1.22,3.04,3.65,3.04v3.65h-26.36v-3.65c.94,0,1.42-.34,1.42-1.01,0-.54-.64-1.49-1.93-2.84-1.29-1.35-2.74-2.91-4.36-4.66l-50.29-53.54v59.01c0,2.03,1.42,3.04,4.26,3.04v3.65h-24.94v-3.65Z" style="fill:#fff; stroke:#000; stroke-miterlimit:10; stroke-width:2.6px;"/><path d="m938.55,604.53c2.16,0,3.65-.23,4.46-.71.81-.47,1.22-1.25,1.22-2.33v-75.85c0-1.08-.41-1.86-1.22-2.33-.81-.47-2.3-.71-4.46-.71v-3.65h30.83v3.65c-3.79,0-5.68,1.01-5.68,3.04v75.85c0,2.03,1.89,3.04,5.68,3.04v3.65h-30.83v-3.65Z" style="fill:#fff; stroke:#000; stroke-miterlimit:10; stroke-width:2.6px;"/><path d="m1004.26,604.53c2.43,0,3.65-1.01,3.65-3.04v-75.85c0-2.03-1.22-3.04-3.65-3.04v-3.65h29.81v3.65c-.95.14-1.42.48-1.42,1.01,0,.68,1.49,2.5,4.46,5.48l48.67,51.51v-54.96c0-2.03-1.35-3.04-4.06-3.04v-3.65h24.74v3.65c-2.43,0-3.65,1.01-3.65,3.04v75.85c0,2.03,1.22,3.04,3.65,3.04v3.65h-26.36v-3.65c.94,0,1.42-.34,1.42-1.01,0-.54-.64-1.49-1.93-2.84-1.29-1.35-2.74-2.91-4.36-4.66l-50.29-53.54v59.01c0,2.03,1.42,3.04,4.26,3.04v3.65h-24.94v-3.65Z" style="fill:#fff; stroke:#000; stroke-miterlimit:10; stroke-width:2.6px;"/><path d="m1218.62,548.36l-2.43-1.42c.27-1.35.41-2.09.41-2.23,0-1.22-.88-2.54-2.64-3.95-1.76-1.42-4.06-2.74-6.9-3.96-2.84-1.22-6.05-2.2-9.63-2.94-3.58-.74-7.2-1.12-10.85-1.12-5,0-9.73.58-14.2,1.72-4.46,1.15-8.38,2.98-11.76,5.48-3.38,2.5-6.08,5.71-8.11,9.63-2.03,3.92-3.04,8.72-3.04,14.4s1.08,10.44,3.25,14.3c2.16,3.85,4.97,6.96,8.42,9.33,3.45,2.37,7.27,4.09,11.46,5.17,4.19,1.08,8.25,1.62,12.17,1.62,5.81,0,11.32-.41,16.53-1.22,5.2-.81,9.97-2.36,14.3-4.67v-12.78h-20.89c-1.49,0-2.77.3-3.85.91-1.08.61-1.76,1.72-2.03,3.35h-3.65v-20.89h3.65c.27,1.35.94,2.23,2.03,2.64,1.08.41,2.36.61,3.85.61h39.75v3.65c-1.22.54-2.03,1.15-2.43,1.83-.41.68-.61,1.69-.61,3.04v19.27c0,1.22.17,2.06.51,2.53.34.48,1.18.98,2.54,1.52v2.43c-1.22.81-3.14,1.93-5.78,3.35-2.64,1.42-5.95,2.81-9.94,4.16-3.99,1.35-8.62,2.47-13.89,3.35-5.27.88-11.15,1.32-17.64,1.32-8.79,0-16.73-.98-23.83-2.94-7.1-1.96-13.12-4.9-18.05-8.82-4.94-3.92-8.72-8.69-11.36-14.3-2.64-5.61-3.95-12-3.95-19.17s1.32-13.55,3.95-19.16c2.64-5.61,6.42-10.41,11.36-14.4,4.93-3.99,10.95-7.03,18.05-9.13,7.1-2.09,15.04-3.14,23.83-3.14,5.27,0,9.94.48,13.99,1.42,4.06.95,7.57,1.96,10.55,3.04,3.11,1.08,5.61,2.1,7.5,3.04,1.89.95,3.31,1.42,4.26,1.42,1.08,0,1.89-.1,2.43-.3.54-.2,1.22-.64,2.03-1.32l2.43,1.22-11.76,22.11Z" style="fill:#fff; stroke:#000; stroke-miterlimit:10; stroke-width:2.6px;"/></g></svg>