<?xml version="1.0" encoding="UTF-8"?><svg id="a" xmlns="http://www.w3.org/2000/svg" xmlns:xlink="http://www.w3.org/1999/xlink" viewBox="0 0 1536 1024"><defs><filter id="b" filterUnits="userSpaceOnUse"><feOffset dx="7.8" dy="7.8"/><feGaussianBlur result="c" stdDeviation="0"/><feFlood flood-color="#000" flood-opacity="1"/><feComposite in2="c" operator="in"/><feComposite in="SourceGraphic"/></filter></defs><g style="filter:url(#b);"><path d="m231.51,242.24c-.66-.97-1-2.11-1-3.44,0-2.17-.12-3.68-.36-4.52-.6-1.93-.9-3.47-.9-4.61s-.21-2.14-.63-2.98c-.42-.84-1.48-1.75-3.16-2.71-2.17-.97-4.76-1.45-7.78-1.45-1.33,0-2.29,1.08-2.89,3.25-.36,2.77-.75,4.64-1.17,5.61-.42.96-1.06,1.45-1.9,1.45-.97,0-1.6-.24-1.9-.72-.3-.48-.45-3.14-.45-7.96-.84-4.58-1.27-9.1-1.27-13.56,0-1.69.09-3.34.27-4.97s.27-3.35.27-5.15c0-2.41-.09-4.82-.27-7.23-.18-2.41-.27-4.88-.27-7.41l.18-3.62c0-2.17-.72-4.19-2.17-6.06-1.45-1.87-3.44-2.8-5.97-2.8-3.01,0-4.82,1.03-5.42,3.07-.48,1.45-.75,2.89-.81,4.34-.06,1.45-.24,2.65-.54,3.62-.3.97-.94,1.45-1.9,1.45-.84,0-1.39-.3-1.63-.9-.24-.6-.36-1.63-.36-3.07s-.09-2.74-.27-3.89c-.18-1.14-.63-2.2-1.36-3.16-.97.84-1.54,1.75-1.72,2.71-.18.97-.27,2.29-.27,3.98,0,7.48-.18,13.74-.54,18.81-.48,5.55-1.51,15.19-3.07,28.93-.24,3.74-.45,5.88-.63,6.42s-.81.87-1.9.99c-.85,0-1.39-.54-1.63-1.63-.24-1.08-.42-2.41-.54-3.98-.24-2.41-.72-4.7-1.45-6.87-.72-2.17-2.53-3.25-5.42-3.25l-3.25.18c-1.45,0-2.89-.36-4.34-1.08-.36-.24-.72-.36-1.08-.36-.6,0-1.03.48-1.27,1.45l-.9,5.42c-.84,2.65-1.27,5.42-1.27,8.32,0,1.32-.33,2.38-1,3.16-.66.78-1.36,1.18-2.08,1.18-1.45,0-2.17-1.21-2.17-3.62l.18-3.07c0-2.41-.12-4.82-.36-7.23-.24-2.41-.36-4.82-.36-7.23,0-2.05.18-4.1.54-6.15.6-3.98,1.2-9.88,1.81-17.72.24-4.1.36-8.74.36-13.92-.24-2.41-.36-5.42-.36-9.04,0-4.82.09-9.95.27-15.37.18-5.42.27-10.37.27-14.83,0-5.9-.24-10.43-.72-13.56-.24.84-.51,1.72-.81,2.62-.3.9-.48,1.75-.54,2.53-.06.79-.3,1.39-.72,1.81s-.93.63-1.54.63c-.97,0-1.54-.66-1.72-1.99-.18-1.32-.27-4.46-.27-9.4-.36-1.81-.54-4.34-.54-7.59,0-2.89.54-5.81,1.63-8.77,1.08-2.95,3.37-5.88,6.87-8.77,1.45-.96,3.07-1.45,4.88-1.45,1.08,0,2.17.06,3.25.18,1.08.12,2.11.18,3.07.18,1.08,0,2.08-.09,2.98-.27.9-.18,1.78-.27,2.62-.27,2.77,0,5.33.39,7.68,1.18,2.35.79,3.53,2.44,3.53,4.97s.18,4.7.54,6.51c.24,1.33.42,5.37.54,12.11l-.18,13.2c0,3.5.54,5.73,1.63,6.69,1.08.97,3.68,1.45,7.78,1.45h6.69c4.22-.24,6.33-1.93,6.33-5.06,0-.96-.12-2.05-.36-3.25-.24-1.2-.36-2.53-.36-3.98l-.18-7.23.18-.54c0-.6-.06-.96-.18-1.08-1.21-.84-1.81-1.81-1.81-2.89,0-.72.12-1.63.36-2.71.48-1.93.72-5.42.72-10.49,0-2.17.42-3.8,1.27-4.88.84-1.08,2.23-1.93,4.16-2.53,3.25-1.08,6.51-1.63,9.76-1.63l7.78.36c2.17,0,3.92.88,5.24,2.62,1.32,1.75,1.99,3.71,1.99,5.88,0,1.45-.06,2.77-.18,3.98-.36,2.29-.54,5.37-.54,9.22,0,6.39.66,14.89,1.99,25.5.36,2.29.54,3.74.54,4.34-.24,1.93-.6,2.98-1.08,3.16-.48.18-.9.33-1.27.45-.97,0-1.45.48-1.45,1.45.24,26.88.42,40.75.54,41.59.12,8.8.6,15.73,1.45,20.79.24.84.36,1.75.36,2.71,0,1.33-.24,3.68-.72,7.05,0,5.54-.09,9.01-.27,10.4-.18,1.38-.51,3.16-.99,5.33-.48,1.45-1.15,2.17-1.99,2.17-.72,0-1.42-.48-2.08-1.45Z" style="fill:#f45b69; stroke-width:0px;"/><path d="m322.92,265.75c-2.05-.24-3.07-5-3.07-14.28l.18-13.02c0-4.94-.27-9.25-.81-12.93-.54-3.68-1.9-5.51-4.07-5.51-.97,0-2.17.57-3.62,1.72-1.45,1.14-3.47,2.14-6.06,2.98-2.59.84-7.02,1.27-13.29,1.27-7.84-.6-13.38-1.81-16.64-3.62-1.81-1.08-3.25-1.63-4.34-1.63-1.45,0-2.41,1.51-2.89,4.52l-.72,4.34c-.97,3.5-1.45,7.05-1.45,10.67l.18,1.45c-.36,2.41-1.27,3.62-2.71,3.62-.97,0-1.9-.6-2.8-1.81-.9-1.21-1.36-3.07-1.36-5.61l.18-2.89c0-9.16-1.63-20.98-4.88-35.44l-1.81-7.96c-.84-4.34-1.39-7.41-1.63-9.22-.24-1.81-.42-2.86-.54-3.16-.12-.3-.3-.45-.54-.45-2.65,0-3.98-1.93-3.98-5.79,0-2.89.51-6.51,1.54-10.85,1.02-4.34,2.23-9.07,3.62-14.19,1.38-5.12,2.74-10.4,4.07-15.82.36-1.2,1.14-3.22,2.35-6.06,1.2-2.83,2.62-5.81,4.25-8.95,1.63-3.13,3.34-5.72,5.15-7.78,5.66-6.27,10.88-10,15.64-11.21,4.76-1.2,9.31-1.81,13.65-1.81h6.33c3.13,0,6.87,1.39,11.21,4.16,4.34,2.77,7.65,5.61,9.95,8.5,4.22,5.06,7.71,12.15,10.49,21.25,2.77,9.1,4.16,19.44,4.16,31.01,0,9.4-1.21,19.41-3.62,30.02-.12.84-.18,2.14-.18,3.89s-.06,3.53-.18,5.33c-.12,1.81-.39,3.38-.81,4.7-.42,1.33-1.17,1.99-2.26,1.99-.48,0-.9-.09-1.27-.27-.36-.18-.79-.33-1.27-.45-.24,0-.42.09-.54.27-.12.18-.18.36-.18.54s-.06.33-.18.45c-1.33,4.82-1.99,8.8-1.99,11.93-.12,6.39-.3,12.39-.54,17.99-.24,5.61-.36,11.12-.36,16.54l.18,7.78c0,2.65-.72,3.98-2.17,3.98l-.36-.18Zm-22.24-72.33c5.18-5.66,7.78-18.2,7.78-37.61,0-9.28-.97-17.12-2.89-23.51-.48-1.08-1.99-2.41-4.52-3.98-1.08-.6-2.05-.9-2.89-.9-3.74,1.08-6,3.23-6.78,6.42-.79,3.2-1.18,6.36-1.18,9.49v3.44c0,1.33-.06,2.53-.18,3.62-.24,1.57-.97,2.35-2.17,2.35s-1.99-.6-2.35-1.81c-.36-1.2-.54-2.47-.54-3.8-.12-2.17-.54-4.1-1.27-5.79l-1.08,9.22c-.24,1.33-.36,2.65-.36,3.98s.06,2.92.18,4.79c.12,1.87.18,4.13.18,6.78l.72,7.59c0,1.21-.18,2.29-.54,3.25-.36.97-.54,1.81-.54,2.53,0,1.33.48,2.53,1.45,3.62.48.84,1,1.87,1.54,3.07.54,1.21.81,2.83.81,4.88s.66,3.74,1.99,5.06c1.33,1.33,2.77,1.99,4.34,1.99,2.65,0,5.42-1.57,8.32-4.7Z" style="fill:#f45b69; stroke-width:0px;"/><path d="m348.59,256.34l.36-3.44c.24-1.45.36-3.32.36-5.61,0-4.7-.42-9.07-1.27-13.11-.84-4.04-1.27-8.59-1.27-13.65l.18-5.42c.24-2.65.36-5.36.36-8.14l.18-16.45c.12-6.63.36-11.03.72-13.2.24-1.33.42-3.31.54-5.97,0-.48-.18-.84-.54-1.08-1.57-.96-2.35-2.53-2.35-4.7,0-1.81.24-3.92.72-6.33.72-3.01,1.08-6.09,1.08-9.22,0-1.2-.06-2.35-.18-3.44-.12-1.08-.18-2.23-.18-3.44,0-4.22.18-7.56.54-10.04.36-2.47.66-5.45.9-8.95,0-1.33-.06-2.26-.18-2.8-.12-.54-.18-1.29-.18-2.26,0-2.17.54-6.63,1.63-13.38.36-2.65,1.36-4.34,2.98-5.06s3.46-1.08,5.51-1.08c1.57-.12,3.07-.36,4.52-.72,2.17-.6,4.34-.9,6.51-.9,1.45,0,3.04.06,4.79.18,1.75.12,3.89.18,6.42.18l8.14-.18c5.42,0,11.81,1.39,19.17,4.16l3.07,1.08c2.29.48,4.46,1.39,6.51,2.71,10.37,7.72,15.55,17.6,15.55,29.65,0,4.34-.48,8.65-1.45,12.93-.97,4.28-2.05,8.41-3.25,12.39-2.41,8.44-3.62,14.53-3.62,18.26v2.17c0,1.21-.6,1.81-1.81,1.81-1.08,0-1.69-.6-1.81-1.81-.48-3.98-1.06-6.75-1.72-8.32-.66-1.57-1.6-2.35-2.8-2.35-1.33,0-2.68.45-4.07,1.36-1.39.9-2.08,2.08-2.08,3.53,0,1.08.27,2.44.81,4.07.54,1.63,1.23,2.98,2.08,4.07,3.37,5.06,7.17,14.71,11.39,28.93.36,1.45.72,2.59,1.08,3.44,1.45,4.46,2.17,7.29,2.17,8.5,0,.6-.12,1.02-.36,1.27-.84.96-1.39,1.93-1.63,2.89-.24.96-.42,2.11-.54,3.44,0,2.29-.54,5.91-1.63,10.85-.48,1.45-1.27,2.17-2.35,2.17-1.57,0-2.35-1.27-2.35-3.8,0-2.05.21-3.65.63-4.79.42-1.15.63-2.32.63-3.53,0-5.06-2.17-7.59-6.51-7.59-.97,0-1.96.06-2.98.18-1.03.12-1.84.18-2.44.18l-1.27-.18c-.61,0-.97.48-1.08,1.45-.12,1.57-.39,3.13-.81,4.7-.42,1.57-.63,3.31-.63,5.24l.18,2.53c-.12,1.2-.79,1.81-1.99,1.81-.6-.12-.97-.33-1.08-.63-.12-.3-.24-1.24-.36-2.8-.24-9.28-1.99-17.42-5.24-24.41l-.54-1.27c-.48-2.05-1.63-3.13-3.44-3.25-.72,0-1.39-1.14-1.99-3.44l-.36-1.81c-.48-4.1-2.35-9.34-5.61-15.73-1.33-2.77-2.65-4.76-3.98-5.97.24.84.36,2.11.36,3.8,0,3.62-.3,8.35-.9,14.19-.6,5.85-.9,10.88-.9,15.1v3.07c0,1.93-.27,3.86-.81,5.79-.54,1.93-.88,3.86-.99,5.79,0,.96-.27,1.78-.81,2.44-.54.66-1.18.99-1.9.99-1.08,0-1.96-.94-2.62-2.8-.66-1.87-1.84-2.8-3.53-2.8l-3.8.36c-1.21,0-2.44-.21-3.71-.63-1.27-.42-2.26-.63-2.98-.63-1.93,0-2.96,1.51-3.07,4.52-.6,5.18-.9,9.7-.9,13.56l.18,9.4c0,2.17-.15,3.8-.45,4.88-.3,1.08-.99,1.63-2.08,1.63-1.93,0-2.89-1.51-2.89-4.52Zm43.04-105.6l4.7.18c1.2,0,2.23-.18,3.07-.54.84-.36,1.75-1.63,2.71-3.8,1.69-3.74,2.53-6.57,2.53-8.5,0-1.57-.36-3.44-1.08-5.61,0,.12-.09.27-.27.45-.18.18-.27.39-.27.63l.18,1.27c0,1.69-.24,3.38-.72,5.06l-.54,2.71c-.6,2.53-1.57,3.8-2.89,3.8-.6,0-1.17-.3-1.72-.9-.54-.6-.81-1.45-.81-2.53l.18-3.8c0-5.18-.39-8.38-1.17-9.58-.79-1.2-1.99-2.17-3.62-2.89-1.63-.72-2.98-1.08-4.07-1.08-1.81.36-3.44,1.45-4.88,3.25-1.45,1.81-2.17,3.5-2.17,5.06l-.36,13.74c0,1.81.09,2.98.27,3.53.18.54.57.81,1.18.81,4.94-.84,8.2-1.27,9.76-1.27Z" style="fill:#f45b69; stroke-width:0px;"/><path d="m443.16,256.34l.36-3.44c.24-1.45.36-3.32.36-5.61,0-4.7-.42-9.07-1.27-13.11-.84-4.04-1.27-8.59-1.27-13.65l.18-5.42c.24-2.65.36-5.36.36-8.14l.18-16.45c.12-6.63.36-11.03.72-13.2.24-1.33.42-3.31.54-5.97,0-.48-.18-.84-.54-1.08-1.57-.96-2.35-2.53-2.35-4.7,0-1.81.24-3.92.72-6.33.72-3.01,1.08-6.09,1.08-9.22,0-1.2-.06-2.35-.18-3.44-.12-1.08-.18-2.23-.18-3.44,0-4.22.18-7.56.54-10.04.36-2.47.66-5.45.9-8.95,0-1.33-.06-2.26-.18-2.8-.12-.54-.18-1.29-.18-2.26,0-2.17.54-6.63,1.63-13.38.36-2.65,1.36-4.34,2.98-5.06s3.46-1.08,5.51-1.08c1.57-.12,3.07-.36,4.52-.72,2.17-.6,4.34-.9,6.51-.9,1.45,0,3.04.06,4.79.18,1.75.12,3.89.18,6.42.18l8.14-.18c5.42,0,11.81,1.39,19.17,4.16l3.07,1.08c2.29.48,4.46,1.39,6.51,2.71,10.37,7.72,15.55,17.6,15.55,29.65,0,4.34-.48,8.65-1.45,12.93-.97,4.28-2.05,8.41-3.25,12.39-2.41,8.44-3.62,14.53-3.62,18.26v2.17c0,1.21-.6,1.81-1.81,1.81-1.08,0-1.69-.6-1.81-1.81-.48-3.98-1.06-6.75-1.72-8.32-.66-1.57-1.6-2.35-2.8-2.35-1.33,0-2.68.45-4.07,1.36-1.39.9-2.08,2.08-2.08,3.53,0,1.08.27,2.44.81,4.07.54,1.63,1.23,2.98,2.08,4.07,3.37,5.06,7.17,14.71,11.39,28.93.36,1.45.72,2.59,1.08,3.44,1.45,4.46,2.17,7.29,2.17,8.5,0,.6-.12,1.02-.36,1.27-.84.96-1.39,1.93-1.63,2.89-.24.96-.42,2.11-.54,3.44,0,2.29-.54,5.91-1.63,10.85-.48,1.45-1.27,2.17-2.35,2.17-1.57,0-2.35-1.27-2.35-3.8,0-2.05.21-3.65.63-4.79.42-1.15.63-2.32.63-3.53,0-5.06-2.17-7.59-6.51-7.59-.97,0-1.96.06-2.98.18-1.03.12-1.84.18-2.44.18l-1.27-.18c-.61,0-.97.48-1.08,1.45-.12,1.57-.39,3.13-.81,4.7-.42,1.57-.63,3.31-.63,5.24l.18,2.53c-.12,1.2-.79,1.81-1.99,1.81-.6-.12-.97-.33-1.08-.63-.12-.3-.24-1.24-.36-2.8-.24-9.28-1.99-17.42-5.24-24.41l-.54-1.27c-.48-2.05-1.63-3.13-3.44-3.25-.72,0-1.39-1.14-1.99-3.44l-.36-1.81c-.48-4.1-2.35-9.34-5.61-15.73-1.33-2.77-2.65-4.76-3.98-5.97.24.84.36,2.11.36,3.8,0,3.62-.3,8.35-.9,14.19-.6,5.85-.9,10.88-.9,15.1v3.07c0,1.93-.27,3.86-.81,5.79-.54,1.93-.88,3.86-.99,5.79,0,.96-.27,1.78-.81,2.44-.54.66-1.18.99-1.9.99-1.08,0-1.96-.94-2.62-2.8-.66-1.87-1.84-2.8-3.53-2.8l-3.8.36c-1.21,0-2.44-.21-3.71-.63-1.27-.42-2.26-.63-2.98-.63-1.93,0-2.96,1.51-3.07,4.52-.6,5.18-.9,9.7-.9,13.56l.18,9.4c0,2.17-.15,3.8-.45,4.88-.3,1.08-.99,1.63-2.08,1.63-1.93,0-2.89-1.51-2.89-4.52Zm43.04-105.6l4.7.18c1.2,0,2.23-.18,3.07-.54.84-.36,1.75-1.63,2.71-3.8,1.69-3.74,2.53-6.57,2.53-8.5,0-1.57-.36-3.44-1.08-5.61,0,.12-.09.27-.27.45-.18.18-.27.39-.27.63l.18,1.27c0,1.69-.24,3.38-.72,5.06l-.54,2.71c-.6,2.53-1.57,3.8-2.89,3.8-.6,0-1.17-.3-1.72-.9-.54-.6-.81-1.45-.81-2.53l.18-3.8c0-5.18-.39-8.38-1.17-9.58-.79-1.2-1.99-2.17-3.62-2.89-1.63-.72-2.98-1.08-4.07-1.08-1.81.36-3.44,1.45-4.88,3.25-1.45,1.81-2.17,3.5-2.17,5.06l-.36,13.74c0,1.81.09,2.98.27,3.53.18.54.57.81,1.18.81,4.94-.84,8.2-1.27,9.76-1.27Z" style="fill:#f45b69; stroke-width:0px;"/><path d="m539.99,249.74c-.66-1.15-.99-2.44-.99-3.89v-2.35c-.12-1.08-.36-3.32-.72-6.69-.36-3.38-.75-6.93-1.17-10.67-.42-3.74-.63-6.33-.63-7.78l.36-7.23c.36-6.15.54-12.41.54-18.81,0-3.13-.06-5.42-.18-6.87v-1.08c0-.84.06-1.63.18-2.35.12-.72.18-1.51.18-2.35v-3.98c-.24-4.46-.36-10.06-.36-16.82v-17.18c0-1.2-.36-2.14-1.08-2.8-.72-.66-1.08-1.78-1.08-3.35l.18-2.89c.72-5.42,1.08-9.7,1.08-12.84,0-3.49-.18-6.03-.54-7.59l-.18-3.07c0-1.08.36-2.56,1.08-4.43.72-1.87,1.78-3.53,3.16-4.97,1.38-1.45,3.1-2.17,5.15-2.17,1.2,0,2.68.21,4.43.63,1.75.42,3.77.63,6.06.63,1.57,0,2.74-.09,3.53-.27.78-.18,1.72-.33,2.8-.45,2.17,0,3.74,1.06,4.7,3.16.96,2.11,1.45,4.31,1.45,6.6,0,1.21-.15,2.29-.45,3.25-.3.97-.45,3.2-.45,6.69,0,4.1.15,9.1.45,15.01.3,5.91.45,10.97.45,15.19,0,3.14-.09,5.24-.27,6.33-.18,1.08-.27,2.05-.27,2.89,0,3.01.6,6.03,1.81,9.04.72,2.65,1.14,5.37,1.27,8.14l.9,7.23c0,1.69-.84,2.77-2.53,3.25-1.08.36-1.63.97-1.63,1.81l.18,2.89c0,1.93-.12,3.8-.36,5.61-.24,1.81-.36,3.62-.36,5.42.24,4.1.78,7.35,1.63,9.76.6,1.93.9,3.68.9,5.24s-.54,2.95-1.63,4.16c-.24.36-.36.78-.36,1.27v2.89c0,5.06-.97,11.27-2.89,18.62-.36,1.08-.9,1.63-1.63,1.63-.48,0-1.06-.33-1.72-.99s-1.12-1.96-1.36-3.89l-.54-5.24c-.36-4.46-.69-6.81-.99-7.05-.3-.24-1.06-.36-2.26-.36l-7.41.36c-.72,0-1.21.36-1.45,1.08l-1.08,3.8c-1.21,2.77-1.81,5.54-1.81,8.32l.18,1.99c0,3.37-.15,5.76-.45,7.14-.3,1.38-.88,2.08-1.72,2.08-.72,0-1.42-.57-2.08-1.72Z" style="fill:#f45b69; stroke-width:0px;"/><path d="m610.24,247.3c-.72-1.81-1.08-3.62-1.08-5.42v-3.07c0-1.93-.18-3.86-.54-5.79-.12-1.33-.24-2.8-.36-4.43-.12-1.63-1.08-2.44-2.89-2.44l-2.53.18c-2.53,0-4.4-.18-5.61-.54-.84-.24-1.51-.36-1.99-.36-.97,0-1.75.54-2.35,1.63-.97,2.05-1.57,3.77-1.81,5.15-.24,1.38-.36,2.47-.36,3.25s-.09,1.38-.27,1.81c-.18.42-.7.69-1.54.81-.97,0-1.75-.48-2.35-1.45-.6-.97-1.08-2.02-1.45-3.16-.36-1.15-.54-2.02-.54-2.62,0-2.41-.39-4.79-1.17-7.14-.79-2.35-1.18-4.73-1.18-7.14l.54-6.69c0-2.17.42-4.46,1.27-6.87l-.18-2.35c0-1.45.18-2.74.54-3.89.36-1.14.54-3.28.54-6.42l-.18-12.84c0-1.93.12-3.8.36-5.61.24-1.81.36-4.76.36-8.86,0-3.01-.06-6.21-.18-9.58-.12-3.37-.27-6.27-.45-8.68-.18-2.41-.27-3.68-.27-3.8-.72-2.17-1.08-4.28-1.08-6.33,0-1.57.06-3.04.18-4.43.12-1.38.18-2.68.18-3.89,0-1.08-.12-2.17-.36-3.25-.12.36-.27.72-.45,1.08-.18.36-.42.7-.72.99-.3.3-.63.45-.99.45-1.08-.12-1.81-.51-2.17-1.18-.36-.66-.54-1.66-.54-2.98,0-3.86.48-7.56,1.45-11.12.96-3.55,2.53-6.48,4.7-8.77,2.17-2.29,5-3.44,8.5-3.44l5.97.54c2.53.36,5.72.54,9.58.54l6.33-.18c1.33,0,2.59.18,3.8.54,1.2.36,3.19.54,5.97.54,1.81,0,3.98-.24,6.51-.72,3.13-.48,6.15-.72,9.04-.72s5.72.54,8.5,1.63l1.08.18c.72,0,1.6-.18,2.62-.54,1.02-.36,2.2-.54,3.53-.54,1.93,0,3.89.97,5.88,2.89,1.99,1.93,2.98,4.4,2.98,7.41,0,1.08-.21,2.29-.63,3.62-.42,1.33-.63,2.77-.63,4.34v2.35c0,2.17-.18,4.04-.54,5.61-.36,1.57-.54,2.89-.54,3.98l.36,5.24c0,2.17-.54,5.55-1.63,10.13-.36,1.45-1.08,2.17-2.17,2.17-1.57-.12-2.35-1.32-2.35-3.62,0-.84.03-1.51.09-1.99.06-.48.15-1.02.27-1.63.12-.6.24-1.33.36-2.17,0-1.69-.9-3.74-2.71-6.15-.24-.36-.45-.66-.63-.9-.18-.24-.36-.39-.54-.45-.18-.06-.45-.09-.81-.09h-3.25c-10.13-.12-15.31-.24-15.55-.36-1.81-.48-3.56-.72-5.24-.72-1.93,0-3.8.15-5.61.45-1.81.3-3.53.54-5.15.72-1.63.18-2.44,1.3-2.44,3.35v1.27c.48,2.05.72,4.16.72,6.33l.18,3.8c.24,1.81,1.63,2.71,4.16,2.71.96,0,2.2-.06,3.71-.18,1.51-.12,3.28-.18,5.33-.18,2.29,0,4.82.24,7.59.72,4.22,1.08,6.33,3.62,6.33,7.59l-.18,1.99c-.36,2.29-.54,4.52-.54,6.69-.12,3.5-.39,5.79-.81,6.87-.42,1.08-.94,1.99-1.54,2.71-1.93,2.41-3.2,6.63-3.8,12.66v.9c0,1.21-.15,2.38-.45,3.53-.3,1.15-1.06,1.72-2.26,1.72s-1.99-.3-2.35-.9c-.36-.6-.54-1.57-.54-2.89l.18-8.32c0-1.69-.06-2.95-.18-3.8-.12-.84-.39-1.38-.81-1.63-.42-.24-2.92-.36-7.5-.36-1.81,0-3.07.42-3.8,1.27-.72.84-1.33,1.87-1.81,3.07-.48,1.21-.72,2.05-.72,2.53,0,.6.09,1.24.27,1.9.18.66.27,1.54.27,2.62l-.18,8.86c0,2.89-.36,5.79-1.08,8.68-.48,2.41-.72,4.34-.72,5.79,0,1.93.21,3.4.63,4.43.42,1.02.63,2.38.63,4.07,0,1.32-.3,3.13-.9,5.42-.84,3.62-1.27,6.93-1.27,9.95,0,2.41.09,4.49.27,6.24.18,1.75.27,3.22.27,4.43s-.21,2.29-.63,3.25c-.42.96-1.06,1.45-1.9,1.45-.72,0-1.39-.48-1.99-1.45Z" style="fill:#f45b69; stroke-width:0px;"/><path d="m677.23,249.74c-.66-1.15-.99-2.44-.99-3.89v-2.35c-.12-1.08-.36-3.32-.72-6.69-.36-3.38-.75-6.93-1.17-10.67-.42-3.74-.63-6.33-.63-7.78l.36-7.23c.36-6.15.54-12.41.54-18.81,0-3.13-.06-5.42-.18-6.87v-1.08c0-.84.06-1.63.18-2.35.12-.72.18-1.51.18-2.35v-3.98c-.24-4.46-.36-10.06-.36-16.82v-17.18c0-1.2-.36-2.14-1.08-2.8-.72-.66-1.08-1.78-1.08-3.35l.18-2.89c.72-5.42,1.08-9.7,1.08-12.84,0-3.49-.18-6.03-.54-7.59l-.18-3.07c0-1.08.36-2.56,1.08-4.43.72-1.87,1.78-3.53,3.16-4.97,1.38-1.45,3.1-2.17,5.15-2.17,1.2,0,2.68.21,4.43.63,1.75.42,3.77.63,6.06.63,1.57,0,2.74-.09,3.53-.27.78-.18,1.72-.33,2.8-.45,2.17,0,3.74,1.06,4.7,3.16.96,2.11,1.45,4.31,1.45,6.6,0,1.21-.15,2.29-.45,3.25-.3.97-.45,3.2-.45,6.69,0,4.1.15,9.1.45,15.01.3,5.91.45,10.97.45,15.19,0,3.14-.09,5.24-.27,6.33-.18,1.08-.27,2.05-.27,2.89,0,3.01.6,6.03,1.81,9.04.72,2.65,1.14,5.37,1.27,8.14l.9,7.23c0,1.69-.84,2.77-2.53,3.25-1.08.36-1.63.97-1.63,1.81l.18,2.89c0,1.93-.12,3.8-.36,5.61-.24,1.81-.36,3.62-.36,5.42.24,4.1.78,7.35,1.63,9.76.6,1.93.9,3.68.9,5.24s-.54,2.95-1.63,4.16c-.24.36-.36.78-.36,1.27v2.89c0,5.06-.97,11.27-2.89,18.62-.36,1.08-.9,1.63-1.63,1.63-.48,0-1.06-.33-1.72-.99s-1.12-1.96-1.36-3.89l-.54-5.24c-.36-4.46-.69-6.81-.99-7.05-.3-.24-1.06-.36-2.26-.36l-7.41.36c-.72,0-1.21.36-1.45,1.08l-1.08,3.8c-1.21,2.77-1.81,5.54-1.81,8.32l.18,1.99c0,3.37-.15,5.76-.45,7.14-.3,1.38-.88,2.08-1.72,2.08-.72,0-1.42-.57-2.08-1.72Z" style="fill:#f45b69; stroke-width:0px;"/><path d="m791.96,246.58c-.72-1.45-1.08-2.77-1.08-3.98l.18-3.62c0-1.08-.21-2.38-.63-3.89-.42-1.51-1.24-3.2-2.44-5.06-1.21-1.87-2.44-3.07-3.71-3.62s-2.86-.81-4.79-.81h-3.98c-2.05.24-4.58.36-7.59.36-5.06,0-11.88-.54-20.43-1.63-1.33-.36-2.53-.99-3.62-1.9s-1.99-1.36-2.71-1.36c-1.81,0-2.89.72-3.25,2.17-.24.96-.42,2.35-.54,4.16,0,4.34-.9,6.51-2.71,6.51-.97,0-1.93-.66-2.89-1.99-.97-1.81-1.45-3.74-1.45-5.79l-.18-3.98.18-1.99c0-2.17-.3-4.28-.9-6.33-.6-2.05-1.27-4.1-1.99-6.15-.48-.84-.9-1.99-1.27-3.44-1.21-5.54-2.71-8.32-4.52-8.32l-1.08.18c-2.65,0-3.98-3.01-3.98-9.04l.36-4.16c0-4.7-.18-8.98-.54-12.84-.36-4.7-.54-9.52-.54-14.47,0-8.2,1.02-14.83,3.07-19.89l1.27-3.25c1.81-4.46,4.16-8.56,7.05-12.3,1.45-1.93,2.83-3.98,4.16-6.15.96-1.69,3.46-4.1,7.5-7.23,4.04-3.13,8.59-5.72,13.65-7.78.96-.24,1.96-.36,2.98-.36s1.96-.06,2.8-.18c3.37-.84,6.75-1.27,10.13-1.27,10.37,0,19.89,3.38,28.57,10.13,2.41,2.05,3.62,4.46,3.62,7.23,0,.84-.12,1.75-.36,2.71-.36,1.93-.54,3.86-.54,5.79v1.45c0,2.65-.42,4.82-1.27,6.51-.6,1.08-1.33,1.63-2.17,1.63-.48,0-1.08-.24-1.81-.72-.72-.48-1.39-.72-1.99-.72-1.33,0-2.5,1.08-3.53,3.25-1.03,2.17-1.54,4.34-1.54,6.51,0,1.57.12,3.01.36,4.34.24,1.33.36,2.53.36,3.62,0,3.01-1.45,4.58-4.34,4.7-1.57,0-2.59-.69-3.07-2.08-.48-1.38-.72-3.1-.72-5.15,0-2.17.12-4.43.36-6.78.24-2.35.36-4.55.36-6.6,0-3.01-.66-5.06-1.99-6.15-3.98-1.81-7.78-2.71-11.39-2.71-4.46,0-8.5,1.75-12.12,5.24l-1.27,1.08c-4.94,3.38-7.59,9.28-7.96,17.72,0,1.57-.18,3.44-.54,5.61-.48,1.45-.72,3.8-.72,7.05,0,6.51.48,12.3,1.45,17.36.36,2.53.99,4.25,1.9,5.15s1.66,2.38,2.26,4.43c.6,2.05,1.63,3.25,3.07,3.62.72.12,1.45.39,2.17.81.72.42,1.51,1.36,2.35,2.8,1.33,1.81,3.31,2.71,5.97,2.71,3.25,0,6.93-.87,11.03-2.62,4.1-1.75,7.41-3.4,9.95-4.97.36-.24.84-.36,1.45-.36,1.08,0,2.29.48,3.62,1.45,1.33.97,2.23,2.17,2.71,3.62.96,3.14,1.96,5.58,2.98,7.32,1.02,1.75,1.93,3.14,2.71,4.16.78,1.03,1.38,1.93,1.81,2.71.42.79.63,1.78.63,2.98l-.18,2.17c-1.81,8.2-2.71,17.06-2.71,26.58l-.36,5.06c-.6,1.93-1.45,2.89-2.53,2.89-1.33,0-2.35-.72-3.07-2.17Z" style="fill:#f45b69; stroke-width:0px;"/><path d="m956.5,246.58c-.72-1.45-1.08-2.77-1.08-3.98l.18-3.62c0-1.08-.21-2.38-.63-3.89-.42-1.51-1.24-3.2-2.44-5.06-1.21-1.87-2.44-3.07-3.71-3.62s-2.86-.81-4.79-.81h-3.98c-2.05.24-4.58.36-7.59.36-5.06,0-11.88-.54-20.43-1.63-1.33-.36-2.53-.99-3.62-1.9s-1.99-1.36-2.71-1.36c-1.81,0-2.89.72-3.25,2.17-.24.96-.42,2.35-.54,4.16,0,4.34-.9,6.51-2.71,6.51-.97,0-1.93-.66-2.89-1.99-.97-1.81-1.45-3.74-1.45-5.79l-.18-3.98.18-1.99c0-2.17-.3-4.28-.9-6.33-.6-2.05-1.27-4.1-1.99-6.15-.48-.84-.9-1.99-1.27-3.44-1.21-5.54-2.71-8.32-4.52-8.32l-1.08.18c-2.65,0-3.98-3.01-3.98-9.04l.36-4.16c0-4.7-.18-8.98-.54-12.84-.36-4.7-.54-9.52-.54-14.47,0-8.2,1.02-14.83,3.07-19.89l1.27-3.25c1.81-4.46,4.16-8.56,7.05-12.3,1.45-1.93,2.83-3.98,4.16-6.15.96-1.69,3.46-4.1,7.5-7.23,4.04-3.13,8.59-5.72,13.65-7.78.96-.24,1.96-.36,2.98-.36s1.96-.06,2.8-.18c3.37-.84,6.75-1.27,10.13-1.27,10.37,0,19.89,3.38,28.57,10.13,2.41,2.05,3.62,4.46,3.62,7.23,0,.84-.12,1.75-.36,2.71-.36,1.93-.54,3.86-.54,5.79v1.45c0,2.65-.42,4.82-1.27,6.51-.6,1.08-1.33,1.63-2.17,1.63-.48,0-1.08-.24-1.81-.72-.72-.48-1.39-.72-1.99-.72-1.33,0-2.5,1.08-3.53,3.25-1.03,2.17-1.54,4.34-1.54,6.51,0,1.57.12,3.01.36,4.34.24,1.33.36,2.53.36,3.62,0,3.01-1.45,4.58-4.34,4.7-1.57,0-2.59-.69-3.07-2.08-.48-1.38-.72-3.1-.72-5.15,0-2.17.12-4.43.36-6.78.24-2.35.36-4.55.36-6.6,0-3.01-.66-5.06-1.99-6.15-3.98-1.81-7.78-2.71-11.39-2.71-4.46,0-8.5,1.75-12.12,5.24l-1.27,1.08c-4.94,3.38-7.59,9.28-7.96,17.72,0,1.57-.18,3.44-.54,5.61-.48,1.45-.72,3.8-.72,7.05,0,6.51.48,12.3,1.45,17.36.36,2.53.99,4.25,1.9,5.15s1.66,2.38,2.26,4.43c.6,2.05,1.63,3.25,3.07,3.62.72.12,1.45.39,2.17.81.72.42,1.51,1.36,2.35,2.8,1.33,1.81,3.31,2.71,5.97,2.71,3.25,0,6.93-.87,11.03-2.62,4.1-1.75,7.41-3.4,9.95-4.97.36-.24.84-.36,1.45-.36,1.08,0,2.29.48,3.62,1.45,1.33.97,2.23,2.17,2.71,3.62.96,3.14,1.96,5.58,2.98,7.32,1.02,1.75,1.93,3.14,2.71,4.16.78,1.03,1.38,1.93,1.81,2.71.42.79.63,1.78.63,2.98l-.18,2.17c-1.81,8.2-2.71,17.06-2.71,26.58l-.36,5.06c-.6,1.93-1.45,2.89-2.53,2.89-1.33,0-2.35-.72-3.07-2.17Z" style="fill:#f45b69; stroke-width:0px;"/><path d="m975.31,256.34l.36-3.44c.24-1.45.36-3.32.36-5.61,0-4.7-.42-9.07-1.27-13.11-.84-4.04-1.27-8.59-1.27-13.65l.18-5.42c.24-2.65.36-5.36.36-8.14l.18-16.45c.12-6.63.36-11.03.72-13.2.24-1.33.42-3.31.54-5.97,0-.48-.18-.84-.54-1.08-1.57-.96-2.35-2.53-2.35-4.7,0-1.81.24-3.92.72-6.33.72-3.01,1.08-6.09,1.08-9.22,0-1.2-.06-2.35-.18-3.44-.12-1.08-.18-2.23-.18-3.44,0-4.22.18-7.56.54-10.04.36-2.47.66-5.45.9-8.95,0-1.33-.06-2.26-.18-2.8-.12-.54-.18-1.29-.18-2.26,0-2.17.54-6.63,1.63-13.38.36-2.65,1.36-4.34,2.98-5.06s3.46-1.08,5.51-1.08c1.57-.12,3.07-.36,4.52-.72,2.17-.6,4.34-.9,6.51-.9,1.45,0,3.04.06,4.79.18,1.75.12,3.89.18,6.42.18l8.14-.18c5.42,0,11.81,1.39,19.17,4.16l3.07,1.08c2.29.48,4.46,1.39,6.51,2.71,10.37,7.72,15.55,17.6,15.55,29.65,0,4.34-.48,8.65-1.45,12.93-.97,4.28-2.05,8.41-3.25,12.39-2.41,8.44-3.62,14.53-3.62,18.26v2.17c0,1.21-.6,1.81-1.81,1.81-1.08,0-1.69-.6-1.81-1.81-.48-3.98-1.06-6.75-1.72-8.32-.66-1.57-1.6-2.35-2.8-2.35-1.33,0-2.68.45-4.07,1.36-1.39.9-2.08,2.08-2.08,3.53,0,1.08.27,2.44.81,4.07.54,1.63,1.23,2.98,2.08,4.07,3.37,5.06,7.17,14.71,11.39,28.93.36,1.45.72,2.59,1.08,3.44,1.45,4.46,2.17,7.29,2.17,8.5,0,.6-.12,1.02-.36,1.27-.84.96-1.39,1.93-1.63,2.89-.24.96-.42,2.11-.54,3.44,0,2.29-.54,5.91-1.63,10.85-.48,1.45-1.27,2.17-2.35,2.17-1.57,0-2.35-1.27-2.35-3.8,0-2.05.21-3.65.63-4.79.42-1.15.63-2.32.63-3.53,0-5.06-2.17-7.59-6.51-7.59-.97,0-1.96.06-2.98.18-1.03.12-1.84.18-2.44.18l-1.27-.18c-.61,0-.97.48-1.08,1.45-.12,1.57-.39,3.13-.81,4.7-.42,1.57-.63,3.31-.63,5.24l.18,2.53c-.12,1.2-.79,1.81-1.99,1.81-.6-.12-.97-.33-1.08-.63-.12-.3-.24-1.24-.36-2.8-.24-9.28-1.99-17.42-5.24-24.41l-.54-1.27c-.48-2.05-1.63-3.13-3.44-3.25-.72,0-1.39-1.14-1.99-3.44l-.36-1.81c-.48-4.1-2.35-9.34-5.61-15.73-1.33-2.77-2.65-4.76-3.98-5.97.24.84.36,2.11.36,3.8,0,3.62-.3,8.35-.9,14.19-.6,5.85-.9,10.88-.9,15.1v3.07c0,1.93-.27,3.86-.81,5.79-.54,1.93-.88,3.86-.99,5.79,0,.96-.27,1.78-.81,2.44-.54.66-1.18.99-1.9.99-1.08,0-1.96-.94-2.62-2.8-.66-1.87-1.84-2.8-3.53-2.8l-3.8.36c-1.21,0-2.44-.21-3.71-.63-1.27-.42-2.26-.63-2.98-.63-1.93,0-2.96,1.51-3.07,4.52-.6,5.18-.9,9.7-.9,13.56l.18,9.4c0,2.17-.15,3.8-.45,4.88-.3,1.08-.99,1.63-2.08,1.63-1.93,0-2.89-1.51-2.89-4.52Zm43.04-105.6l4.7.18c1.2,0,2.23-.18,3.07-.54.84-.36,1.75-1.63,2.71-3.8,1.69-3.74,2.53-6.57,2.53-8.5,0-1.57-.36-3.44-1.08-5.61,0,.12-.09.27-.27.45-.18.18-.27.39-.27.63l.18,1.27c0,1.69-.24,3.38-.72,5.06l-.54,2.71c-.6,2.53-1.57,3.8-2.89,3.8-.6,0-1.17-.3-1.72-.9-.54-.6-.81-1.45-.81-2.53l.18-3.8c0-5.18-.39-8.38-1.17-9.58-.79-1.2-1.99-2.17-3.62-2.89-1.63-.72-2.98-1.08-4.07-1.08-1.81.36-3.44,1.45-4.88,3.25-1.45,1.81-2.17,3.5-2.17,5.06l-.36,13.74c0,1.81.09,2.98.27,3.53.18.54.57.81,1.18.81,4.94-.84,8.2-1.27,9.76-1.27Z" style="fill:#f45b69; stroke-width:0px;"/><path d="m1072.13,249.74c-.66-1.15-.99-2.44-.99-3.89v-2.35c-.12-1.08-.36-3.32-.72-6.69-.36-3.38-.75-6.93-1.17-10.67-.42-3.74-.63-6.33-.63-7.78l.36-7.23c.36-6.15.54-12.41.54-18.81,0-3.13-.06-5.42-.18-6.87v-1.08c0-.84.06-1.63.18-2.35.12-.72.18-1.51.18-2.35v-3.98c-.24-4.46-.36-10.06-.36-16.82v-17.18c0-1.2-.36-2.14-1.08-2.8-.72-.66-1.08-1.78-1.08-3.35l.18-2.89c.72-5.42,1.08-9.7,1.08-12.84,0-3.49-.18-6.03-.54-7.59l-.18-3.07c0-1.08.36-2.56,1.08-4.43.72-1.87,1.78-3.53,3.16-4.97,1.38-1.45,3.1-2.17,5.15-2.17,1.2,0,2.68.21,4.43.63,1.75.42,3.77.63,6.06.63,1.57,0,2.74-.09,3.53-.27.78-.18,1.72-.33,2.8-.45,2.17,0,3.74,1.06,4.7,3.16.96,2.11,1.45,4.31,1.45,6.6,0,1.21-.15,2.29-.45,3.25-.3.97-.45,3.2-.45,6.69,0,4.1.15,9.1.45,15.01.3,5.91.45,10.97.45,15.19,0,3.14-.09,5.24-.27,6.33-.18,1.08-.27,2.05-.27,2.89,0,3.01.6,6.03,1.81,9.04.72,2.65,1.14,5.37,1.27,8.14l.9,7.23c0,1.69-.84,2.77-2.53,3.25-1.08.36-1.63.97-1.63,1.81l.18,2.89c0,1.93-.12,3.8-.36,5.61-.24,1.81-.36,3.62-.36,5.42.24,4.1.78,7.35,1.63,9.76.6,1.93.9,3.68.9,5.24s-.54,2.95-1.63,4.16c-.24.36-.36.78-.36,1.27v2.89c0,5.06-.97,11.27-2.89,18.62-.36,1.08-.9,1.63-1.63,1.63-.48,0-1.06-.33-1.72-.99s-1.12-1.96-1.36-3.89l-.54-5.24c-.36-4.46-.69-6.81-.99-7.05-.3-.24-1.06-.36-2.26-.36l-7.41.36c-.72,0-1.21.36-1.45,1.08l-1.08,3.8c-1.21,2.77-1.81,5.54-1.81,8.32l.18,1.99c0,3.37-.15,5.76-.45,7.14-.3,1.38-.88,2.08-1.72,2.08-.72,0-1.42-.57-2.08-1.72Z" style="fill:#f45b69; stroke-width:0px;"/><path d="m1113.54,246.58c-.42-.36-.63-.9-.63-1.63-.97-11.21-1.45-19.23-1.45-24.05,0-4.46.48-7.84,1.45-10.13,1.08-2.89,1.63-7.41,1.63-13.56,0-1.2.15-2.74.45-4.61.3-1.87.45-3.53.45-4.97,0-2.29-.6-3.44-1.81-3.44-1.93,0-2.89-1.08-2.89-3.25.72-9.88,2.35-19.59,4.88-29.11l1.81-6.87c.36-1.69.54-2.89.54-3.62-.24-.48-.48-.9-.72-1.27-.24-.36-.36-.84-.36-1.45s.09-1.32.27-2.17c.18-.84.27-1.93.27-3.25,0-1.69-.36-3.68-1.08-5.97-.72-2.29-1.08-4.28-1.08-5.97,0-1.57.12-3.19.36-4.88.48-2.17.72-6.21.72-12.11,0-4.82,2.23-7.23,6.69-7.23,3.25,0,5.48-.12,6.69-.36,1.2-.24,2.65-.42,4.34-.54,1.45,0,2.92.15,4.43.45,1.51.3,3.1.45,4.79.45.84,0,1.27.48,1.27,1.45.12,0,.69,1.39,1.72,4.16,1.02,2.77,1.84,5.55,2.44,8.32.36,2.17.93,4.46,1.72,6.87.78,2.41,1.42,5,1.9,7.78.36,3.25,1.14,6.33,2.35,9.22.48,1.21.78,2.44.9,3.71.12,1.27.39,2.41.81,3.44.42,1.03,1.29,1.6,2.62,1.72.36,0,.63-.24.81-.72.18-.48.39-1.14.63-1.99.48-2.05,2.11-7.35,4.88-15.91.24-.72.36-1.38.36-1.99,0-.96-.18-1.78-.54-2.44-.36-.66-.54-1.36-.54-2.08,0-.96.48-2.17,1.45-3.62,1.81-3.49,3.01-7.11,3.62-10.85.12-.96.3-1.87.54-2.71,1.57-4.46,4.34-6.69,8.32-6.69,1.33.12,2.62.27,3.89.45,1.27.18,3.04.27,5.33.27,2.05,0,3.68-.12,4.88-.36,2.89,0,4.91,1.42,6.06,4.25,1.14,2.83,1.72,6,1.72,9.49,0,2.77-.15,5.61-.45,8.5-.3,2.89-.45,5.67-.45,8.32s.24,4.94.72,6.87c0,.72-.12,1.39-.36,1.99-.24.6-.36,1.27-.36,1.99.48,3.86.72,8.56.72,14.1.36,5.42.96,10.07,1.81,13.92.72,3.01,1.08,5.55,1.08,7.59,0,1.69-.3,3.01-.9,3.98-.6.97-.9,1.93-.9,2.89l.18,2.35c.48,1.45.72,4.7.72,9.76,0,3.98.21,7.08.63,9.31.42,2.23.96,5.94,1.63,11.12.66,5.18.99,9.7.99,13.56,0,1.69-.12,3.07-.36,4.16-.48,2.53-.81,4.55-1,6.06-.18,1.51-.39,2.56-.63,3.16-.24.6-.72.9-1.45.9s-1.21-.18-1.45-.54c-.24-.36-.36-1.03-.36-1.99l.18-2.89c0-7.59-1.75-11.39-5.24-11.39l-3.25.18c-2.29,0-4.13-.06-5.51-.18-1.39-.12-2.5-.18-3.35-.18-1.45,0-2.53.24-3.25.72-.72.48-1.27,1.38-1.63,2.71-1.33,4.46-1.99,8.98-1.99,13.56,0,2.17-.06,3.37-.18,3.62v.36c-.12.24-.21.54-.27.9-.06.36-.18.75-.36,1.18-.18.42-.63.63-1.36.63-1.21-.12-1.93-.94-2.17-2.44-.24-1.51-.36-3.65-.36-6.42v-1.81c0-3.38-.24-7.41-.72-12.11v-1.99c0-2.65.54-5.24,1.63-7.78.36-.72.54-1.21.54-1.45-.72-2.17-1.15-5.48-1.27-9.95-.12-4.46-.18-9.16-.18-14.1,0-12.78-.54-19.71-1.63-20.79-1.69,2.53-3.23,5.24-4.61,8.14-1.39,2.89-2.56,5.09-3.53,6.6-.97,1.51-1.69,3.29-2.17,5.33-.36,1.08-.97,1.63-1.81,1.63-1.33,0-2.23-1.2-2.71-3.62,0-1.57-.66-3.92-1.99-7.05-2.65-6.27-4.46-9.52-5.42-9.76-.97,2.89-1.45,5.18-1.45,6.87l.18,1.99c0,3.62-.36,7.48-1.08,11.57-.36,2.17-.57,4.37-.63,6.6-.06,2.23-.33,4.58-.81,7.05-.48,2.47-.9,5-1.27,7.59-.36,2.59-.84,5.15-1.45,7.68-.72,3.86-1.18,6.9-1.36,9.13-.18,2.23-.45,3.86-.81,4.88-.36,1.02-1.08,1.6-2.17,1.72-.6,0-1.03-.15-1.27-.45-.24-.3-.42-.6-.54-.9-.12-.3-.24-.51-.36-.63-.36-.84-.54-1.87-.54-3.07v-.72c0-1.08-.3-2.17-.9-3.25-.6-1.08-2.83-1.81-6.69-2.17-4.7,0-7.35,2.53-7.96,7.59-.36,2.29-.54,4.64-.54,7.05,0,5.42-.54,8.62-1.63,9.58-.48.36-.97.54-1.45.54s-.94-.18-1.36-.54Z" style="fill:#f45b69; stroke-width:0px;"/><path d="m1223.93,261.95l.18-2.89c-1.33-6.51-1.99-11.88-1.99-16.09v-1.08c0-2.89-.21-5.46-.63-7.68-.42-2.23-1.42-4.25-2.98-6.06-.6-.48-.99-.97-1.17-1.45-.18-.48-.42-1.24-.72-2.26-.3-1.03-1.36-4.01-3.16-8.95-.48-.97-.72-1.99-.72-3.07,0-.6.18-1.21.54-1.81.84-1.45,1.42-3.01,1.72-4.7.3-1.69.51-3.86.63-6.51.12-3.62.6-8.68,1.45-15.19,0-2.05-.12-3.64-.36-4.79-.24-1.14-.36-2.26-.36-3.35l.18-8.86c.24-5.06.42-10.28.54-15.64.12-5.36.24-9.01.36-10.94,0-1.45-.15-2.86-.45-4.25-.3-1.38-.45-2.74-.45-4.07l.18-1.08c0-.72.06-1.2.18-1.45-.12-.6-.54-.9-1.27-.9h-.72c-1.21,0-1.81-.96-1.81-2.89,0-2.05.42-5.42,1.27-10.13.48-2.41.72-4.22.72-5.42v-.9c0-1.57.27-3.13.81-4.7.54-1.57,1.96-2.95,4.25-4.16,3.25-1.45,6.45-2.17,9.58-2.17,1.93,0,4.04.12,6.33.36,3.25.48,7.89.72,13.92.72,2.89,0,5.63-.09,8.23-.27,2.59-.18,6.96-.27,13.11-.27,1.57,0,3.04-.21,4.43-.63,1.38-.42,4.01-.63,7.87-.63,2.41,0,5.48.18,9.22.54,2.77.48,4.43,2.02,4.97,4.61.54,2.59.81,5.27.81,8.05v2.35c0,2.29-.24,4.37-.72,6.24-.48,1.87-1.03,3.83-1.63,5.88-1.81,4.46-3.38,11.57-4.7,21.34-.12,1.33-.42,2.59-.9,3.8-.48,1.21-1.45,1.81-2.89,1.81-2.05-.12-3.07-2.29-3.07-6.51,0-2.05.12-4.19.36-6.42.24-2.23.36-4.13.36-5.7,0-3.01-.54-4.52-1.63-4.52-.48.12-.94.24-1.36.36-.42.12-1.06.18-1.9.18-1.08,0-2.14-.12-3.16-.36-1.03-.24-2.02-.36-2.98-.36h-5.97c-2.17,0-4.28.24-6.33.72-.48.12-1.03.18-1.63.18-1.21,0-2.47-.18-3.8-.54-1.33-.36-2.65-.6-3.98-.72-2.17,0-3.25.9-3.25,2.71v2.17c-.36,1.08-.54,2.23-.54,3.44,0,1.57.15,3.07.45,4.52.3,1.45.51,2.83.63,4.16.12.84.36,1.27.72,1.27s.78-.12,1.27-.36c.96-.48,2.35-.72,4.16-.72.72,0,1.54.15,2.44.45.9.3,2.26.45,4.07.45l4.7-.18c2.05,0,3.86.42,5.42,1.27,1.57.84,2.35,2.77,2.35,5.79v7.05c0,3.74-.72,7.23-2.17,10.49-.97,2.89-1.45,6.03-1.45,9.4v1.45c0,.97-.09,1.81-.27,2.53-.18.72-.88,1.08-2.08,1.08-1.93,0-2.89-1.27-2.89-3.8,0-1.08.09-2.05.27-2.89.18-.84.27-1.69.27-2.53,0-.72-.54-1.08-1.63-1.08-3.14,0-5.33.15-6.6.45-1.27.3-2.26.6-2.98.9-.72.3-1.45.45-2.17.45-.6,0-1.15-.09-1.63-.27-.48-.18-1.03-.33-1.63-.45-.6,0-.9.3-.9.9l.18,1.45c.36.72.54,1.69.54,2.89,0,1.33-.09,2.56-.27,3.71-.18,1.15-.27,2.2-.27,3.16,0,1.81.66,3.29,1.99,4.43,1.33,1.15,4.4,1.72,9.22,1.72,1.69,0,3.25-.06,4.7-.18,1.45-.12,3.25-.24,5.42-.36,2.89,0,6.57.27,11.03.81,4.46.54,7.65,1.36,9.58,2.44,2.53,1.45,4.34,3.47,5.42,6.06,1.08,2.59,1.63,6.6,1.63,12.02,0,6.03-.54,14.52-1.63,25.5-.36,2.77-1.08,4.79-2.17,6.06-1.08,1.27-2.23,1.9-3.44,1.9-1.08,0-2.02-.42-2.8-1.27-.79-.84-1.18-1.99-1.18-3.44,0-.84.15-1.81.45-2.89.3-1.08.45-2.17.45-3.25,0-2.29-.42-4.52-1.27-6.69-.24-.97-.45-1.84-.63-2.62-.18-.79-.51-1.27-1-1.45-.48-.18-1.17-.27-2.08-.27s-1.72-.06-2.44-.18c-2.41-.24-4.82-.36-7.23-.36-1.45,0-2.56.06-3.35.18-.79.12-1.66.18-2.62.18s-1.96-.09-2.98-.27c-1.03-.18-2.14-.27-3.34-.27-3.5,0-6.63-.3-9.4-.9-2.29-.48-4.4-.72-6.33-.72-2.29,0-4.31.69-6.06,2.08-1.75,1.38-3.25,4.01-4.52,7.87-1.27,3.86-2.32,9.46-3.16,16.82l-.18,4.88v1.27c0,2.41-.3,4.82-.9,7.23-1.08,2.77-2.17,4.16-3.25,4.16-2.29,0-3.44-2.35-3.44-7.05Z" style="fill:#f45b69; stroke-width:0px;"/><path d="m1307.47,244.95c-.36-.84-.54-1.93-.54-3.25,0-6.63-.12-13.08-.36-19.35-.24-3.5-.36-6.33-.36-8.5,0-4.46.72-7.41,2.17-8.86,4.46-4.46,7.59-8.2,9.4-11.21,1.81-3.01,4.04-4.52,6.69-4.52,1.93,0,3.98.84,6.15,2.53l3.25,2.53c1.93,1.21,3.73,2.65,5.42,4.34.6.6,1.38.9,2.35.9,1.33,0,2.68-.27,4.07-.81,1.38-.54,2.5-.81,3.34-.81,3.13-.36,5.36-1.75,6.69-4.16,1.33-2.41,1.99-4.94,1.99-7.59,0-2.17-.33-4.1-1-5.79-.66-1.69-1.57-2.71-2.71-3.07-1.15-.36-2.26-.78-3.34-1.27-1.69-.72-3.5-1.2-5.42-1.45-.72,0-1.15.48-1.27,1.45-.48,1.69-.72,3.2-.72,4.52v3.07c0,.97-.15,1.66-.45,2.08-.3.42-.93.63-1.9.63-1.57,0-2.47-1.51-2.71-4.52-.24-3.01-.97-5.36-2.17-7.05-1.45-1.45-3.92-2.65-7.41-3.62-2.41-.84-4.76-1.84-7.05-2.98-2.29-1.14-4.04-2.74-5.24-4.79-.48-.48-1.15-.75-1.99-.81-.85-.06-1.66-.33-2.44-.81-.79-.48-1.24-1.51-1.36-3.07-.36-6.27-.97-11.15-1.81-14.65-.72-2.53-1.08-4.94-1.08-7.23,0-2.65.66-5.66,1.99-9.04l1.81-6.69c1.93-7.11,6.39-12.84,13.38-17.18,2.53-1.57,4.22-2.41,5.06-2.53,2.05-.24,4.04-.72,5.97-1.45,3.13-1.08,7.83-1.63,14.1-1.63,4.1,0,6.93.18,8.5.54,1.56.36,4.22.54,7.96.54,3.01,0,5.97,1.63,8.86,4.88,1.08,1.08,1.99,1.81,2.71,2.17,2.29.72,4.19,2.11,5.7,4.16,1.51,2.05,2.26,4.22,2.26,6.51v3.25l-.18,1.45.18,11.03c0,4.1-.18,7.44-.54,10.04-.36,2.59-1.27,3.89-2.71,3.89-.72,0-1.21-.27-1.45-.81-.24-.54-.42-1.42-.54-2.62,0-.72.06-1.47.18-2.26.12-.78.18-1.66.18-2.62,0-.48-.06-1.08-.18-1.81-.12-.72-.3-1.36-.54-1.9-.24-.54-.54-.81-.9-.81-.24,0-.48.24-.72.72-.48.97-1.08,1.69-1.81,2.17-.72.48-1.36.88-1.9,1.18-.54.3-1,.51-1.36.63-2.17,1.33-3.5,2.59-3.98,3.8-.48,1.21-.72,2.23-.72,3.07v.54c0,1.69-.66,2.53-1.99,2.53-1.08-.12-1.78-.57-2.08-1.36-.3-.78-.45-1.84-.45-3.16,0-4.46-.18-7.59-.54-9.4-.36-1.81-1.21-3.44-2.53-4.88-2.89-2.41-6.09-3.92-9.58-4.52-1.21-.48-2.41-.84-3.62-1.08-1.69,0-3.01,2.23-3.98,6.69l-.9,4.52c-.24.97-.84,1.45-1.81,1.45-1.57,0-2.35-1.99-2.35-5.97-1.69,3.01-2.53,5.61-2.53,7.78,0,3.01,1,5.37,2.98,7.05,1.99,1.69,3.89,2.53,5.7,2.53.48-.12.87-.21,1.17-.27.3-.06,1.11-.09,2.44-.09,3.98,0,8.56,1.15,13.74,3.44,5.18,2.29,8.98,4.4,11.39,6.33,3.62,2.77,6.72,5.94,9.31,9.49,2.59,3.56,3.89,7.75,3.89,12.57l-.18,7.59-.18,4.34-1.08,5.97c-.48,3.01-.97,4.97-1.45,5.88-.48.9-.79,1.96-.9,3.16l-3.8,25.31c-.36,3.01-1.51,4.52-3.44,4.52-1.33-.12-2.17-.81-2.53-2.08-.36-1.27-.54-3.34-.54-6.24,0-2.29-.09-3.92-.27-4.88-.18-.97-.63-1.45-1.36-1.45l-1.08.18-5.06,2.35c-1.81.72-3.25,1.32-4.34,1.81-1.08.48-2.83.72-5.24.72l-9.95-.18c-3.25,0-6.57.36-9.94,1.08-.72,0-1.42-.09-2.08-.27-.66-.18-1.3-.27-1.9-.27-.72,0-1.36.33-1.9.99-.54.66-.88,2.14-1,4.43,0,.84-.21,1.47-.63,1.9-.42.42-.88.63-1.36.63-1.45,0-2.53-1.39-3.25-4.16-1.08-3.86-3.56-7.48-7.41-10.85-.6-.48-1.15-.72-1.63-.72-1.08,0-1.63,2.11-1.63,6.33l.18,4.7v5.42c0,2.77-.21,5.18-.63,7.23-.42,2.05-1.36,3.07-2.8,3.07-1.21,0-1.99-.42-2.35-1.27Z" style="fill:#f45b69; stroke-width:0px;"/></g></svg>