<?xml version="1.0" encoding="UTF-8"?><svg id="a" xmlns="http://www.w3.org/2000/svg" viewBox="0 0 1536 1024"><path d="m856.33,688.34c11.81-3.12,28.22-5.18,49.22-6.15-15.43-1.07-26.37-3.17-32.81-6.3,8.69-3.12,21.14-5.22,37.35-6.3-20.21-.98-35.06-3.03-44.53-6.15,11.72-3.12,28.07-5.22,49.07-6.3-15.33-1.07-26.22-3.17-32.67-6.3,8.69-3.12,21.09-5.18,37.21-6.15-20.21-1.07-35.06-3.17-44.53-6.3,11.91-3.12,28.27-5.22,49.07-6.3-15.33-.98-26.22-3.03-32.67-6.15,8.79-3.12,21.19-5.22,37.21-6.3h94.92l-7.91,37.5h-58.74l-6.88,18.75h42.77l-13.62,37.5h-42.77l-20.51,56.25h-41.89c-20.12-1.07-34.96-3.17-44.53-6.3,11.72-3.12,28.08-5.18,49.07-6.15-15.33-1.07-26.27-3.17-32.81-6.3,8.69-3.12,21.14-5.22,37.35-6.3h.15c-20.41-.98-35.35-3.03-44.82-6.15,11.92-3.12,28.32-5.22,49.22-6.3h.15c-15.53-1.07-26.51-3.17-32.96-6.3,8.79-3.12,21.24-5.18,37.35-6.15h.15c-20.21-1.07-35.11-3.17-44.68-6.3,11.62-3.12,28.03-5.22,49.22-6.3-15.43-.98-26.32-3.03-32.67-6.15,8.59-3.12,21-5.22,37.21-6.3-20.31-1.07-35.2-3.17-44.68-6.3Z" style="fill:#fff; stroke:#fff; stroke-miterlimit:10; stroke-width:7.5px;"/><path d="m1037.24,682.18c-15.04-1.17-25.44-3.27-31.2-6.3,9.47-3.12,22.36-5.22,38.67-6.3-19.83-.98-34.13-3.03-42.92-6.15,12.5-3.12,29.3-5.22,50.39-6.3-15.04-1.07-25.39-3.17-31.05-6.3,9.38-3.12,22.21-5.18,38.53-6.15-19.83-1.07-34.13-3.17-42.92-6.3,12.6-3.12,29.44-5.22,50.54-6.3-15.04-.98-25.39-3.03-31.05-6.15,9.38-3.03,22.21-5.13,38.53-6.3h52.88l-19.19,150h-45.7l3.08-21.53h-22.71l-12.74,21.53h-45.7c-19.72-1.07-33.98-3.17-42.77-6.3,12.4-3.12,29.15-5.18,50.24-6.15-14.94-1.07-25.29-3.17-31.05-6.3,9.38-3.12,22.22-5.22,38.53-6.3h.15c-19.92-.98-34.28-3.03-43.07-6.15,12.5-3.12,29.3-5.22,50.39-6.3h.15c-15.14-1.17-25.54-3.27-31.2-6.3,9.47-3.03,22.31-5.08,38.53-6.15h.15c-19.83-1.07-34.13-3.17-42.92-6.3,12.4-3.12,29.2-5.22,50.39-6.3-14.94-.98-25.25-3.03-30.91-6.15,9.28-3.03,22.07-5.13,38.38-6.3-19.92-1.07-34.18-3.17-42.77-6.3,12.4-3.12,29.15-5.18,50.24-6.15h.15Zm33.54,28.42l1.61-11.72-7.03,11.72h5.42Z" style="fill:#fff; stroke:#fff; stroke-miterlimit:10; stroke-width:7.5px;"/><path d="m1123.81,663.43c11.81-3.12,28.27-5.22,49.37-6.3-15.04-1.17-25.78-3.27-32.23-6.3,8.59-3.03,20.85-5.13,36.77-6.3l.15-.15c-16.9-1.27-29.59-3.27-38.09-6.01,11.91-3.12,28.66-5.42,50.24-6.88-9.87-1.37-17.24-3.22-22.12-5.57,8.88-3.12,21.68-5.22,38.38-6.3h73.68l-7.76,37.5h-57.13l-6.74,18.75h36.77l12.45,19.34-20.07,55.08-26.37,19.34h-78.81c-20.31-1.07-35.3-3.17-44.97-6.3,11.82-3.12,28.32-5.18,49.51-6.15-15.53-1.07-26.61-3.17-33.25-6.3,8.79-3.12,21.39-5.22,37.79-6.3h.15c-20.21-.98-35.06-3.03-44.53-6.15,11.92-3.12,28.27-5.22,49.07-6.3h56.1c-15.53-1.07-26.56-3.17-33.11-6.3,8.88-3.12,21.43-5.18,37.65-6.15h-18.6c-20.21-1.07-35.16-3.17-44.82-6.3,6.74-1.76,15.18-3.61,25.34-5.57-16.21-1.66-27.49-4.05-33.84-7.18,6.45-2.34,14.99-4.25,25.63-5.71-21.09-1.27-36.38-3.47-45.85-6.59,11.92-3.12,28.42-5.18,49.51-6.15-15.53-1.07-26.56-3.17-33.11-6.3,8.79-3.12,21.34-5.22,37.65-6.3-20.31-.98-35.25-3.03-44.82-6.15Z" style="fill:#fff; stroke:#fff; stroke-miterlimit:10; stroke-width:7.5px;"/><path d="m1316.14,682.18c-15.33-1.07-26.22-3.17-32.67-6.3,8.69-3.12,21.09-5.22,37.21-6.3-20.12-.98-34.91-3.03-44.38-6.15,11.72-3.12,28.03-5.22,48.93-6.3h-31.2l.29-.44c-12.5-1.17-21.58-3.12-27.25-5.86,8.01-2.83,19.09-4.78,33.25-5.86l.29-.59c-18.36-1.07-31.98-3.08-40.87-6.01,11.52-3.03,27.25-5.08,47.17-6.15l.15-.29c-14.45-1.07-24.76-3.08-30.91-6.01,8.79-3.12,21.24-5.22,37.35-6.3h97.27l-7.91,37.5h-30.91l-41.02,112.5h-46.73c-20.02-1.07-34.81-3.17-44.38-6.3,11.72-3.12,28.03-5.18,48.93-6.15-15.23-1.07-26.12-3.17-32.67-6.3,8.69-3.12,21.09-5.22,37.21-6.3-20.21-.98-35.06-3.03-44.53-6.15,11.91-3.12,28.27-5.22,49.07-6.3-15.33-1.07-26.22-3.17-32.67-6.3,8.79-3.12,21.19-5.18,37.21-6.15-20.02-1.07-34.82-3.17-44.38-6.3,11.62-3.12,27.93-5.22,48.93-6.3h.15c-15.33-.98-26.17-3.03-32.52-6.15,8.59-3.12,20.9-5.22,36.91-6.3h.15c-20.21-1.07-35.06-3.17-44.53-6.3,11.81-3.12,28.12-5.18,48.93-6.15h.15Z" style="fill:#fff; stroke:#fff; stroke-miterlimit:10; stroke-width:7.5px;"/><path d="m854.57,905.84c8.79-3.12,21.19-5.18,37.21-6.15-20.02-1.07-34.81-3.17-44.38-6.3,11.62-3.12,27.98-5.22,49.07-6.3-15.33-.98-26.17-3.03-32.52-6.15,8.59-3.12,20.95-5.22,37.06-6.3-20.21-1.07-35.06-3.17-44.53-6.3,11.81-3.12,28.17-5.18,49.07-6.15-15.33-1.07-26.22-3.17-32.67-6.3,8.69-3.12,21.09-5.22,37.21-6.3-20.12-.98-34.91-3.03-44.38-6.15,11.72-3.12,28.03-5.22,48.93-6.3-15.23-1.07-26.07-3.17-32.52-6.3,8.69-3.03,21.04-5.08,37.06-6.15-20.12-1.07-34.91-3.17-44.38-6.3,11.81-3.12,28.12-5.22,48.93-6.3-15.23-1.07-26.07-3.12-32.52-6.15,8.69-3.03,21.04-5.13,37.06-6.3h78.66l12.45,19.34-40.58,111.33-26.37,19.34h-78.81c-20.02-1.07-34.81-3.17-44.38-6.3,11.72-3.12,28.03-5.18,48.93-6.15-15.23-1.07-26.12-3.17-32.67-6.3,8.69-3.12,21.09-5.22,37.21-6.3-20.21-.98-35.06-3.03-44.53-6.15,11.92-3.12,28.27-5.22,49.07-6.3-15.33-1.07-26.22-3.17-32.67-6.3Zm88.92,6.3l27.39-75h-14.36l-27.39,75h14.36Z" style="fill:#fff; stroke:#fff; stroke-miterlimit:10; stroke-width:7.5px;"/><path d="m1002.67,855.88c8.79-3.12,21.39-5.22,37.79-6.3-20.41-.98-35.4-3.03-44.97-6.15,11.81-3.12,28.32-5.22,49.51-6.3-15.53-1.07-26.56-3.17-33.11-6.3,8.79-3.12,21.34-5.18,37.65-6.15-20.41-1.07-35.4-3.17-44.97-6.3,11.91-3.12,28.42-5.22,49.51-6.3-15.53-.98-26.56-3.03-33.11-6.15,8.79-3.12,21.34-5.22,37.65-6.3h78.66l12.45,19.34-25.49,70.02-22.71,16.55,5.86,44.09h-46l-3.66-32.52-11.87,32.52h-41.89c-20.31-1.07-35.3-3.17-44.97-6.3,11.82-3.12,28.32-5.18,49.51-6.15-15.53-1.07-26.61-3.17-33.25-6.3,8.79-3.12,21.39-5.22,37.79-6.3-20.51-.98-35.54-3.03-45.12-6.15,12.01-3.12,28.56-5.22,49.66-6.3-15.63-1.07-26.71-3.17-33.25-6.3,8.89-3.12,21.48-5.18,37.79-6.15-20.31-1.07-35.3-3.17-44.97-6.3,11.72-3.12,28.22-5.22,49.51-6.3-15.53-.98-26.51-3.03-32.96-6.15,8.69-3.12,21.19-5.22,37.5-6.3h.15c-20.51-1.07-35.54-3.17-45.12-6.3,11.91-3.12,28.47-5.18,49.66-6.15-15.63-1.07-26.71-3.17-33.25-6.3Zm86.28,14.94l12.3-33.69h-14.36l-12.3,33.69h14.36Z" style="fill:#fff; stroke:#fff; stroke-miterlimit:10; stroke-width:7.5px;"/><path d="m1181.52,862.18c-15.04-1.17-25.44-3.27-31.2-6.3,9.47-3.12,22.36-5.22,38.67-6.3-19.83-.98-34.13-3.03-42.92-6.15,12.5-3.12,29.3-5.22,50.39-6.3-15.04-1.07-25.39-3.17-31.05-6.3,9.38-3.12,22.21-5.18,38.53-6.15-19.83-1.07-34.13-3.17-42.92-6.3,12.6-3.12,29.44-5.22,50.54-6.3-15.04-.98-25.39-3.03-31.05-6.15,9.38-3.03,22.21-5.13,38.53-6.3h52.88l-19.19,150h-45.7l3.08-21.53h-22.71l-12.74,21.53h-45.7c-19.72-1.07-33.98-3.17-42.77-6.3,12.4-3.12,29.15-5.18,50.24-6.15-14.94-1.07-25.29-3.17-31.05-6.3,9.38-3.12,22.22-5.22,38.53-6.3h.15c-19.92-.98-34.28-3.03-43.07-6.15,12.5-3.12,29.3-5.22,50.39-6.3h.15c-15.14-1.17-25.54-3.27-31.2-6.3,9.47-3.03,22.31-5.08,38.53-6.15h.15c-19.83-1.07-34.13-3.17-42.92-6.3,12.4-3.12,29.2-5.22,50.39-6.3-14.94-.98-25.25-3.03-30.91-6.15,9.28-3.03,22.07-5.13,38.38-6.3-19.92-1.07-34.18-3.17-42.77-6.3,12.4-3.12,29.15-5.18,50.24-6.15h.15Zm33.54,28.42l1.61-11.72-7.03,11.72h5.42Z" style="fill:#fff; stroke:#fff; stroke-miterlimit:10; stroke-width:7.5px;"/><path d="m1258.13,855.88c8.1-3.12,20.21-5.22,36.33-6.3-20.51-.98-35.89-3.03-46.14-6.15,11.23-3.12,27.25-5.22,48.05-6.3-15.63-1.07-27.05-3.17-34.28-6.3,8.1-3.12,20.16-5.18,36.18-6.15-20.51-1.07-35.89-3.17-46.14-6.3,11.23-3.12,27.25-5.22,48.05-6.3-15.72-.98-27.1-3.03-34.13-6.15,8.1-3.12,20.12-5.22,36.04-6.3h41.75l-10.99,69.58,39.55-69.58h41.75l-10.99,69.58,39.55-69.58h41.75l-86.57,150h-48.19l8.06-52.15-30.18,52.15h-48.19c-20.71-1.07-36.18-3.17-46.44-6.3,11.23-3.12,27.34-5.18,48.34-6.15h-.15c-15.72-1.07-27.25-3.17-34.57-6.3,8.11-3.12,20.26-5.22,36.47-6.3-20.71-.98-36.18-3.03-46.44-6.15,11.33-3.12,27.49-5.22,48.49-6.3-15.92-1.07-27.49-3.17-34.72-6.3,8.2-3.12,20.36-5.18,36.47-6.15-20.51-1.07-35.94-3.17-46.29-6.3,11.13-3.12,27.2-5.22,48.19-6.3-15.72-.98-27.15-3.03-34.28-6.15,8.1-3.12,20.16-5.22,36.18-6.3-20.61-1.07-35.98-3.17-46.14-6.3,11.04-3.12,27.05-5.18,48.05-6.15-15.72-1.07-27.2-3.17-34.42-6.3Z" style="fill:#fff; stroke:#fff; stroke-miterlimit:10; stroke-width:7.5px;"/><path d="m848.83,678.34c11.81-3.12,28.22-5.18,49.22-6.15-15.43-1.07-26.37-3.17-32.81-6.3,8.69-3.12,21.14-5.22,37.35-6.3-20.21-.98-35.06-3.03-44.53-6.15,11.72-3.12,28.07-5.22,49.07-6.3-15.33-1.07-26.22-3.17-32.67-6.3,8.69-3.12,21.09-5.18,37.21-6.15-20.21-1.07-35.06-3.17-44.53-6.3,11.91-3.12,28.27-5.22,49.07-6.3-15.33-.98-26.22-3.03-32.67-6.15,8.79-3.12,21.19-5.22,37.21-6.3h94.92l-7.91,37.5h-58.74l-6.88,18.75h42.77l-13.62,37.5h-42.77l-20.51,56.25h-41.89c-20.12-1.07-34.96-3.17-44.53-6.3,11.72-3.12,28.08-5.18,49.07-6.15-15.33-1.07-26.27-3.17-32.81-6.3,8.69-3.12,21.14-5.22,37.35-6.3h.15c-20.41-.98-35.35-3.03-44.82-6.15,11.92-3.12,28.32-5.22,49.22-6.3h.15c-15.53-1.07-26.51-3.17-32.96-6.3,8.79-3.12,21.24-5.18,37.35-6.15h.15c-20.21-1.07-35.11-3.17-44.68-6.3,11.62-3.12,28.03-5.22,49.22-6.3-15.43-.98-26.32-3.03-32.67-6.15,8.59-3.12,21-5.22,37.21-6.3-20.31-1.07-35.2-3.17-44.68-6.3Z" style="fill:#f45b69; stroke-width:0px;"/><path d="m1029.74,672.18c-15.04-1.17-25.44-3.27-31.2-6.3,9.47-3.12,22.36-5.22,38.67-6.3-19.83-.98-34.13-3.03-42.92-6.15,12.5-3.12,29.3-5.22,50.39-6.3-15.04-1.07-25.39-3.17-31.05-6.3,9.38-3.12,22.21-5.18,38.53-6.15-19.83-1.07-34.13-3.17-42.92-6.3,12.6-3.12,29.44-5.22,50.54-6.3-15.04-.98-25.39-3.03-31.05-6.15,9.38-3.03,22.21-5.13,38.53-6.3h52.88l-19.19,150h-45.7l3.08-21.53h-22.71l-12.74,21.53h-45.7c-19.72-1.07-33.98-3.17-42.77-6.3,12.4-3.12,29.15-5.18,50.24-6.15-14.94-1.07-25.29-3.17-31.05-6.3,9.38-3.12,22.22-5.22,38.53-6.3h.15c-19.92-.98-34.28-3.03-43.07-6.15,12.5-3.12,29.3-5.22,50.39-6.3h.15c-15.14-1.17-25.54-3.27-31.2-6.3,9.47-3.03,22.31-5.08,38.53-6.15h.15c-19.83-1.07-34.13-3.17-42.92-6.3,12.4-3.12,29.2-5.22,50.39-6.3-14.94-.98-25.25-3.03-30.91-6.15,9.28-3.03,22.07-5.13,38.38-6.3-19.92-1.07-34.18-3.17-42.77-6.3,12.4-3.12,29.15-5.18,50.24-6.15h.15Zm33.54,28.42l1.61-11.72-7.03,11.72h5.42Z" style="fill:#f45b69; stroke-width:0px;"/><path d="m1116.31,653.43c11.81-3.12,28.27-5.22,49.37-6.3-15.04-1.17-25.78-3.27-32.23-6.3,8.59-3.03,20.85-5.13,36.77-6.3l.15-.15c-16.9-1.27-29.59-3.27-38.09-6.01,11.91-3.12,28.66-5.42,50.24-6.88-9.87-1.37-17.24-3.22-22.12-5.57,8.88-3.12,21.68-5.22,38.38-6.3h73.68l-7.76,37.5h-57.13l-6.74,18.75h36.77l12.45,19.34-20.07,55.08-26.37,19.34h-78.81c-20.31-1.07-35.3-3.17-44.97-6.3,11.82-3.12,28.32-5.18,49.51-6.15-15.53-1.07-26.61-3.17-33.25-6.3,8.79-3.12,21.39-5.22,37.79-6.3h.15c-20.21-.98-35.06-3.03-44.53-6.15,11.92-3.12,28.27-5.22,49.07-6.3h56.1c-15.53-1.07-26.56-3.17-33.11-6.3,8.88-3.12,21.43-5.18,37.65-6.15h-18.6c-20.21-1.07-35.16-3.17-44.82-6.3,6.74-1.76,15.18-3.61,25.34-5.57-16.21-1.66-27.49-4.05-33.84-7.18,6.45-2.34,14.99-4.25,25.63-5.71-21.09-1.27-36.38-3.47-45.85-6.59,11.92-3.12,28.42-5.18,49.51-6.15-15.53-1.07-26.56-3.17-33.11-6.3,8.79-3.12,21.34-5.22,37.65-6.3-20.31-.98-35.25-3.03-44.82-6.15Z" style="fill:#f45b69; stroke-width:0px;"/><path d="m1308.64,672.18c-15.33-1.07-26.22-3.17-32.67-6.3,8.69-3.12,21.09-5.22,37.21-6.3-20.12-.98-34.91-3.03-44.38-6.15,11.72-3.12,28.03-5.22,48.93-6.3h-31.2l.29-.44c-12.5-1.17-21.58-3.12-27.25-5.86,8.01-2.83,19.09-4.78,33.25-5.86l.29-.59c-18.36-1.07-31.98-3.08-40.87-6.01,11.52-3.03,27.25-5.08,47.17-6.15l.15-.29c-14.45-1.07-24.76-3.08-30.91-6.01,8.79-3.12,21.24-5.22,37.35-6.3h97.27l-7.91,37.5h-30.91l-41.02,112.5h-46.73c-20.02-1.07-34.81-3.17-44.38-6.3,11.72-3.12,28.03-5.18,48.93-6.15-15.23-1.07-26.12-3.17-32.67-6.3,8.69-3.12,21.09-5.22,37.21-6.3-20.21-.98-35.06-3.03-44.53-6.15,11.91-3.12,28.27-5.22,49.07-6.3-15.33-1.07-26.22-3.17-32.67-6.3,8.79-3.12,21.19-5.18,37.21-6.15-20.02-1.07-34.82-3.17-44.38-6.3,11.62-3.12,27.93-5.22,48.93-6.3h.15c-15.33-.98-26.17-3.03-32.52-6.15,8.59-3.12,20.9-5.22,36.91-6.3h.15c-20.21-1.07-35.06-3.17-44.53-6.3,11.81-3.12,28.12-5.18,48.93-6.15h.15Z" style="fill:#f45b69; stroke-width:0px;"/><path d="m847.07,895.84c8.79-3.12,21.19-5.18,37.21-6.15-20.02-1.07-34.81-3.17-44.38-6.3,11.62-3.12,27.98-5.22,49.07-6.3-15.33-.98-26.17-3.03-32.52-6.15,8.59-3.12,20.95-5.22,37.06-6.3-20.21-1.07-35.06-3.17-44.53-6.3,11.81-3.12,28.17-5.18,49.07-6.15-15.33-1.07-26.22-3.17-32.67-6.3,8.69-3.12,21.09-5.22,37.21-6.3-20.12-.98-34.91-3.03-44.38-6.15,11.72-3.12,28.03-5.22,48.93-6.3-15.23-1.07-26.07-3.17-32.52-6.3,8.69-3.03,21.04-5.08,37.06-6.15-20.12-1.07-34.91-3.17-44.38-6.3,11.81-3.12,28.12-5.22,48.93-6.3-15.23-1.07-26.07-3.12-32.52-6.15,8.69-3.03,21.04-5.13,37.06-6.3h78.66l12.45,19.34-40.58,111.33-26.37,19.34h-78.81c-20.02-1.07-34.81-3.17-44.38-6.3,11.72-3.12,28.03-5.18,48.93-6.15-15.23-1.07-26.12-3.17-32.67-6.3,8.69-3.12,21.09-5.22,37.21-6.3-20.21-.98-35.06-3.03-44.53-6.15,11.92-3.12,28.27-5.22,49.07-6.3-15.33-1.07-26.22-3.17-32.67-6.3Zm88.92,6.3l27.39-75h-14.36l-27.39,75h14.36Z" style="fill:#f45b69; stroke-width:0px;"/><path d="m995.17,845.88c8.79-3.12,21.39-5.22,37.79-6.3-20.41-.98-35.4-3.03-44.97-6.15,11.81-3.12,28.32-5.22,49.51-6.3-15.53-1.07-26.56-3.17-33.11-6.3,8.79-3.12,21.34-5.18,37.65-6.15-20.41-1.07-35.4-3.17-44.97-6.3,11.91-3.12,28.42-5.22,49.51-6.3-15.53-.98-26.56-3.03-33.11-6.15,8.79-3.12,21.34-5.22,37.65-6.3h78.66l12.45,19.34-25.49,70.02-22.71,16.55,5.86,44.09h-46l-3.66-32.52-11.87,32.52h-41.89c-20.31-1.07-35.3-3.17-44.97-6.3,11.82-3.12,28.32-5.18,49.51-6.15-15.53-1.07-26.61-3.17-33.25-6.3,8.79-3.12,21.39-5.22,37.79-6.3-20.51-.98-35.54-3.03-45.12-6.15,12.01-3.12,28.56-5.22,49.66-6.3-15.63-1.07-26.71-3.17-33.25-6.3,8.89-3.12,21.48-5.18,37.79-6.15-20.31-1.07-35.3-3.17-44.97-6.3,11.72-3.12,28.22-5.22,49.51-6.3-15.53-.98-26.51-3.03-32.96-6.15,8.69-3.12,21.19-5.22,37.5-6.3h.15c-20.51-1.07-35.54-3.17-45.12-6.3,11.91-3.12,28.47-5.18,49.66-6.15-15.63-1.07-26.71-3.17-33.25-6.3Zm86.28,14.94l12.3-33.69h-14.36l-12.3,33.69h14.36Z" style="fill:#f45b69; stroke-width:0px;"/><path d="m1174.02,852.18c-15.04-1.17-25.44-3.27-31.2-6.3,9.47-3.12,22.36-5.22,38.67-6.3-19.83-.98-34.13-3.03-42.92-6.15,12.5-3.12,29.3-5.22,50.39-6.3-15.04-1.07-25.39-3.17-31.05-6.3,9.38-3.12,22.21-5.18,38.53-6.15-19.83-1.07-34.13-3.17-42.92-6.3,12.6-3.12,29.44-5.22,50.54-6.3-15.04-.98-25.39-3.03-31.05-6.15,9.38-3.03,22.21-5.13,38.53-6.3h52.88l-19.19,150h-45.7l3.08-21.53h-22.71l-12.74,21.53h-45.7c-19.72-1.07-33.98-3.17-42.77-6.3,12.4-3.12,29.15-5.18,50.24-6.15-14.94-1.07-25.29-3.17-31.05-6.3,9.38-3.12,22.22-5.22,38.53-6.3h.15c-19.92-.98-34.28-3.03-43.07-6.15,12.5-3.12,29.3-5.22,50.39-6.3h.15c-15.14-1.17-25.54-3.27-31.2-6.3,9.47-3.03,22.31-5.08,38.53-6.15h.15c-19.83-1.07-34.13-3.17-42.92-6.3,12.4-3.12,29.2-5.22,50.39-6.3-14.94-.98-25.25-3.03-30.91-6.15,9.28-3.03,22.07-5.13,38.38-6.3-19.92-1.07-34.18-3.17-42.77-6.3,12.4-3.12,29.15-5.18,50.24-6.15h.15Zm33.54,28.42l1.61-11.72-7.03,11.72h5.42Z" style="fill:#f45b69; stroke-width:0px;"/><path d="m1250.63,845.88c8.1-3.12,20.21-5.22,36.33-6.3-20.51-.98-35.89-3.03-46.14-6.15,11.23-3.12,27.25-5.22,48.05-6.3-15.63-1.07-27.05-3.17-34.28-6.3,8.1-3.12,20.16-5.18,36.18-6.15-20.51-1.07-35.89-3.17-46.14-6.3,11.23-3.12,27.25-5.22,48.05-6.3-15.72-.98-27.1-3.03-34.13-6.15,8.1-3.12,20.12-5.22,36.04-6.3h41.75l-10.99,69.58,39.55-69.58h41.75l-10.99,69.58,39.55-69.58h41.75l-86.57,150h-48.19l8.06-52.15-30.18,52.15h-48.19c-20.71-1.07-36.18-3.17-46.44-6.3,11.23-3.12,27.34-5.18,48.34-6.15h-.15c-15.72-1.07-27.25-3.17-34.57-6.3,8.11-3.12,20.26-5.22,36.47-6.3-20.71-.98-36.18-3.03-46.44-6.15,11.33-3.12,27.49-5.22,48.49-6.3-15.92-1.07-27.49-3.17-34.72-6.3,8.2-3.12,20.36-5.18,36.47-6.15-20.51-1.07-35.94-3.17-46.29-6.3,11.13-3.12,27.2-5.22,48.19-6.3-15.72-.98-27.15-3.03-34.28-6.15,8.1-3.12,20.16-5.22,36.18-6.3-20.61-1.07-35.98-3.17-46.14-6.3,11.04-3.12,27.05-5.18,48.05-6.15-15.72-1.07-27.2-3.17-34.42-6.3Z" style="fill:#f45b69; stroke-width:0px;"/></svg>