<?xml version="1.0" encoding="UTF-8"?><svg id="a" xmlns="http://www.w3.org/2000/svg" xmlns:xlink="http://www.w3.org/1999/xlink" viewBox="0 0 1536 1024"><defs><filter id="b" filterUnits="userSpaceOnUse"><feOffset dx="7.5" dy="7.5"/><feGaussianBlur result="c" stdDeviation="0"/><feFlood flood-color="#000" flood-opacity="1"/><feComposite in2="c" operator="in"/><feComposite in="SourceGraphic"/></filter></defs><g style="filter:url(#b);"><path d="m395.16,970.72c-.81-2.02-1.21-4.04-1.21-6.06v-3.43c0-2.16-.2-4.31-.61-6.46-.14-1.48-.27-3.13-.4-4.95-.14-1.82-1.21-2.73-3.23-2.73l-2.83.2c-2.83,0-4.92-.2-6.26-.61-.94-.27-1.69-.4-2.22-.4-1.08,0-1.95.61-2.63,1.82-1.08,2.29-1.75,4.21-2.02,5.76-.27,1.55-.4,2.76-.4,3.64s-.1,1.55-.3,2.02c-.2.47-.78.77-1.72.91-1.08,0-1.95-.54-2.63-1.62-.68-1.08-1.21-2.26-1.62-3.54-.4-1.28-.61-2.26-.61-2.93,0-2.7-.44-5.35-1.31-7.98-.88-2.63-1.31-5.29-1.31-7.98l.61-7.48c0-2.42.47-4.98,1.42-7.68l-.2-2.63c0-1.62.2-3.06.61-4.34.4-1.28.61-3.67.61-7.17l-.2-14.34c0-2.15.13-4.24.4-6.26.27-2.02.4-5.32.4-9.9,0-3.37-.07-6.94-.2-10.71-.14-3.77-.3-7-.5-9.7-.2-2.69-.3-4.11-.3-4.24-.81-2.42-1.21-4.78-1.21-7.07,0-1.75.07-3.4.2-4.95.13-1.55.2-3,.2-4.34,0-1.21-.14-2.42-.4-3.64-.14.4-.3.81-.5,1.21s-.47.78-.81,1.11-.71.5-1.11.5c-1.21-.13-2.02-.57-2.42-1.31-.4-.74-.61-1.85-.61-3.33,0-4.31.54-8.45,1.62-12.43,1.08-3.97,2.83-7.24,5.25-9.8,2.42-2.56,5.59-3.84,9.5-3.84l6.67.61c2.83.4,6.4.61,10.71.61l7.07-.2c1.48,0,2.89.2,4.24.61,1.34.4,3.57.61,6.67.61,2.02,0,4.45-.27,7.27-.81,3.5-.54,6.87-.81,10.1-.81s6.4.61,9.5,1.82l1.21.2c.81,0,1.78-.2,2.93-.61,1.14-.4,2.46-.61,3.94-.61,2.15,0,4.34,1.08,6.57,3.23,2.22,2.16,3.33,4.92,3.33,8.28,0,1.21-.24,2.56-.71,4.04-.47,1.48-.71,3.1-.71,4.85v2.63c0,2.42-.2,4.51-.61,6.26-.4,1.75-.61,3.23-.61,4.44l.4,5.86c0,2.42-.61,6.2-1.82,11.31-.4,1.62-1.21,2.42-2.42,2.42-1.75-.13-2.63-1.48-2.63-4.04,0-.94.03-1.68.1-2.22.07-.54.17-1.14.3-1.82.13-.67.27-1.48.4-2.42,0-1.88-1.01-4.17-3.03-6.87-.27-.4-.5-.74-.71-1.01-.2-.27-.4-.44-.61-.5-.2-.07-.5-.1-.91-.1h-3.64c-11.31-.13-17.11-.27-17.38-.4-2.02-.54-3.97-.81-5.86-.81-2.16,0-4.24.17-6.26.5-2.02.34-3.94.61-5.76.81-1.82.2-2.73,1.45-2.73,3.74v1.41c.54,2.29.81,4.65.81,7.07l.2,4.24c.27,2.02,1.82,3.03,4.65,3.03,1.08,0,2.46-.07,4.14-.2,1.68-.13,3.67-.2,5.96-.2,2.56,0,5.39.27,8.49.81,4.71,1.21,7.07,4.04,7.07,8.49l-.2,2.22c-.4,2.56-.61,5.05-.61,7.48-.14,3.91-.44,6.46-.91,7.68-.47,1.21-1.04,2.22-1.72,3.03-2.16,2.7-3.57,7.41-4.24,14.14v1.01c0,1.35-.17,2.66-.5,3.94-.34,1.28-1.18,1.92-2.53,1.92s-2.22-.33-2.63-1.01c-.4-.67-.61-1.75-.61-3.23l.2-9.29c0-1.88-.07-3.3-.2-4.24-.14-.94-.44-1.55-.91-1.82-.47-.27-3.27-.4-8.38-.4-2.02,0-3.43.47-4.24,1.42-.81.94-1.48,2.09-2.02,3.43-.54,1.35-.81,2.29-.81,2.83,0,.68.1,1.38.3,2.12.2.74.3,1.72.3,2.93l-.2,9.9c0,3.23-.4,6.47-1.21,9.7-.54,2.7-.81,4.85-.81,6.47,0,2.15.23,3.8.71,4.95.47,1.14.71,2.66.71,4.55,0,1.48-.34,3.5-1.01,6.06-.94,4.04-1.41,7.74-1.41,11.11,0,2.69.1,5.02.3,6.97.2,1.95.3,3.6.3,4.95s-.24,2.56-.71,3.64c-.47,1.08-1.18,1.62-2.12,1.62-.81,0-1.55-.54-2.22-1.62Z" style="fill:#f45b69; stroke-width:0px;"/><path d="m476.99,987.09l.2-3.23c-1.48-7.27-2.22-13.27-2.22-17.98v-1.21c0-3.23-.24-6.1-.71-8.59-.47-2.49-1.58-4.75-3.33-6.77-.67-.54-1.11-1.08-1.31-1.62-.2-.54-.47-1.38-.81-2.53-.34-1.15-1.52-4.48-3.54-10-.54-1.08-.81-2.22-.81-3.43,0-.68.2-1.35.61-2.02.94-1.62,1.58-3.37,1.92-5.25.33-1.88.57-4.31.71-7.27.13-4.04.67-9.7,1.62-16.97,0-2.29-.14-4.07-.4-5.35-.27-1.28-.4-2.53-.4-3.74l.2-9.9c.27-5.66.47-11.48.61-17.48.13-5.99.27-10.07.4-12.22,0-1.62-.17-3.2-.5-4.75-.34-1.55-.5-3.06-.5-4.55l.2-1.21c0-.81.07-1.35.2-1.62-.14-.67-.61-1.01-1.41-1.01h-.81c-1.35,0-2.02-1.08-2.02-3.23,0-2.29.47-6.06,1.41-11.31.54-2.69.81-4.71.81-6.06v-1.01c0-1.75.3-3.5.91-5.25.61-1.75,2.19-3.3,4.75-4.65,3.64-1.62,7.2-2.42,10.71-2.42,2.15,0,4.51.14,7.07.4,3.64.54,8.82.81,15.56.81,3.23,0,6.29-.1,9.19-.3,2.9-.2,7.78-.3,14.65-.3,1.75,0,3.4-.23,4.95-.71,1.55-.47,4.48-.71,8.79-.71,2.69,0,6.13.2,10.3.61,3.1.54,4.95,2.26,5.56,5.15.61,2.9.91,5.89.91,8.99v2.63c0,2.56-.27,4.88-.81,6.97-.54,2.09-1.15,4.28-1.82,6.57-2.02,4.98-3.77,12.93-5.25,23.84-.14,1.48-.47,2.9-1.01,4.24-.54,1.35-1.62,2.02-3.23,2.02-2.29-.13-3.43-2.56-3.43-7.27,0-2.29.13-4.68.4-7.17.27-2.49.4-4.61.4-6.36,0-3.37-.61-5.05-1.82-5.05-.54.14-1.04.27-1.51.4-.47.14-1.18.2-2.12.2-1.21,0-2.39-.13-3.54-.4-1.15-.27-2.26-.4-3.33-.4h-6.67c-2.42,0-4.78.27-7.07.81-.54.14-1.15.2-1.82.2-1.35,0-2.76-.2-4.24-.61-1.48-.4-2.96-.67-4.45-.81-2.42,0-3.64,1.01-3.64,3.03v2.42c-.4,1.21-.61,2.49-.61,3.84,0,1.75.17,3.43.5,5.05.33,1.62.57,3.17.71,4.65.13.94.4,1.41.81,1.41s.88-.13,1.41-.4c1.08-.54,2.63-.81,4.65-.81.81,0,1.72.17,2.73.5,1.01.34,2.53.5,4.55.5l5.25-.2c2.29,0,4.31.47,6.06,1.42,1.75.94,2.63,3.1,2.63,6.46v7.88c0,4.18-.81,8.08-2.42,11.72-1.08,3.23-1.62,6.74-1.62,10.51v1.62c0,1.08-.1,2.02-.3,2.83-.2.81-.98,1.21-2.32,1.21-2.16,0-3.23-1.41-3.23-4.24,0-1.21.1-2.29.3-3.23.2-.94.3-1.88.3-2.83,0-.81-.61-1.21-1.82-1.21-3.5,0-5.96.17-7.38.5-1.41.34-2.53.68-3.33,1.01-.81.34-1.62.5-2.42.5-.68,0-1.28-.1-1.82-.3-.54-.2-1.15-.37-1.82-.5-.67,0-1.01.34-1.01,1.01l.2,1.62c.4.81.61,1.89.61,3.23,0,1.48-.1,2.86-.3,4.14-.2,1.28-.3,2.46-.3,3.54,0,2.02.74,3.67,2.22,4.95,1.48,1.28,4.92,1.92,10.3,1.92,1.88,0,3.64-.07,5.25-.2,1.62-.13,3.64-.27,6.06-.4,3.23,0,7.34.3,12.33.91,4.98.61,8.55,1.52,10.71,2.73,2.83,1.62,4.85,3.87,6.06,6.77,1.21,2.9,1.82,7.37,1.82,13.44,0,6.73-.61,16.23-1.82,28.49-.4,3.1-1.21,5.35-2.42,6.77s-2.49,2.12-3.84,2.12c-1.21,0-2.26-.47-3.13-1.41-.88-.94-1.31-2.22-1.31-3.84,0-.94.17-2.02.51-3.23.33-1.21.5-2.42.5-3.64,0-2.56-.47-5.05-1.41-7.48-.27-1.08-.51-2.06-.71-2.93-.2-.88-.57-1.41-1.11-1.62-.54-.2-1.31-.3-2.32-.3s-1.92-.07-2.73-.2c-2.7-.27-5.39-.4-8.08-.4-1.62,0-2.86.07-3.74.2-.88.13-1.85.2-2.93.2s-2.19-.1-3.33-.3c-1.15-.2-2.39-.3-3.74-.3-3.91,0-7.41-.34-10.51-1.01-2.56-.54-4.92-.81-7.07-.81-2.56,0-4.82.77-6.77,2.32-1.95,1.55-3.64,4.48-5.05,8.79-1.41,4.31-2.59,10.57-3.54,18.79l-.2,5.46v1.41c0,2.69-.34,5.39-1.01,8.08-1.21,3.1-2.42,4.65-3.64,4.65-2.56,0-3.84-2.63-3.84-7.88Z" style="fill:#f45b69; stroke-width:0px;"/><path d="m576.39,958.2l.4-7.07c0-1.89-.34-4.18-1.01-6.87-.4-1.08-.91-1.92-1.52-2.53s-1.35-1.11-2.22-1.52c-.88-.4-1.65-1.01-2.32-1.82-.67-.81-1.01-2.22-1.01-4.24,0-3.5,1.14-8.21,3.43-14.14,1.62-4.85,2.89-9.63,3.84-14.34.67-3.37,1.68-6.67,3.03-9.9l.2-.61c0-.54-.4-.88-1.21-1.01-1.89-.54-2.83-1.62-2.83-3.23,0-.54.51-2.29,1.52-5.25,1.01-2.96,2.15-6.13,3.43-9.5,1.28-3.37,2.46-6.13,3.54-8.28,2.29-4.98,3.84-10.37,4.65-16.16.27-1.34.67-2.63,1.21-3.84.67-1.75,1.08-3.57,1.21-5.46.4-5.12,1.18-11.01,2.32-17.68,1.14-6.67,2.53-11.68,4.14-15.05.67-1.62,1.62-2.93,2.83-3.94,1.21-1.01,2.83-1.52,4.85-1.52h1.41c2.56,0,5.08-.2,7.58-.61,2.49-.4,4.88-.61,7.17-.61h11.31c1.62,0,3.57,1.65,5.86,4.95,2.29,3.3,3.84,6.9,4.65,10.81,1.34,5.79,3.1,10.24,5.25,13.33,2.15,3.1,3.57,6.67,4.24,10.71,0,1.08-.37,1.85-1.11,2.32-.74.47-1.11,1.11-1.11,1.92.13,2.96.67,5.76,1.62,8.38.94,2.63,1.42,5.86,1.42,9.7s.94,7.51,2.83,11.01c2.42,5.12,4.98,15.56,7.68,31.32,1.75,9.83,3.37,16.97,4.85,21.42,1.35,3.23,2.02,5.99,2.02,8.28,0,1.75-.37,3-1.11,3.74-.74.74-1.45,1.31-2.12,1.72-.68.4-1.25.81-1.72,1.21-.47.4-.71,1.01-.71,1.82v7.68c0,3.77-.07,6.33-.2,7.68-.4,3.23-1.42,4.85-3.03,4.85-1.08,0-1.89-1.08-2.42-3.23l-.2-10.71c-.4-2.42-.74-4.11-1.01-5.05-.27-.94-.81-1.55-1.62-1.82-.81-.27-2.06-.44-3.74-.5-1.69-.07-4.01-.3-6.97-.71h-.81c-.81,0-1.31.3-1.52.91-.2.61-.3,1.65-.3,3.13s-.07,3.5-.2,6.06c-.14,1.08-.47,1.92-1.01,2.53-.54.61-1.15.91-1.82.91-.81,0-1.69-.61-2.63-1.82-.94-1.21-1.41-2.49-1.41-3.84v-1.01c0-1.89-.27-3.74-.81-5.56-.54-1.82-.81-3.67-.81-5.56l.2-1.82c0-.94-.17-1.65-.51-2.12-.34-.47-.64-.91-.91-1.31-1.08-4.31-1.75-7.81-2.02-10.51-.14-2.02-.37-3.57-.71-4.65-.34-1.08-1.18-1.62-2.53-1.62-.54,0-1.01-.07-1.41-.2-2.16-.81-4.24-1.21-6.26-1.21-2.96,0-5.86.4-8.69,1.21-1.21.4-2.29.71-3.23.91-.94.2-1.72,1.65-2.32,4.34-.61,2.7-1.15,5.76-1.62,9.19-.47,3.44-.98,6.57-1.51,9.4-.27,1.08-.4,2.22-.4,3.43v3.43c0,2.02-.34,3.7-1.01,5.05-.67,1.34-1.48,2.02-2.42,2.02-.81,0-1.42-.34-1.82-1.01-.4-.68-.61-1.48-.61-2.42l.2-3.84c0-2.16-1.15-3.3-3.43-3.43-.4,0-.91-.34-1.52-1.01-.61-.68-1.38-1.01-2.32-1.01-1.21,0-2.29.54-3.23,1.62-2.16,3.91-3.23,7.74-3.23,11.52v3.84c0,5.52-1.21,8.28-3.64,8.28-2.02,0-3.03-3.17-3.03-9.5Zm50.92-76.98c0-1.21-.74-4.31-2.22-9.29l-2.42-10.1c-.27-1.21-1.08-2.29-2.42-3.23-.27,4.31-1.04,8.32-2.32,12.02-1.28,3.71-2.05,7.38-2.32,11.01,1.48.27,2.89.4,4.24.4h7.07c.27-.13.4-.4.4-.81Z" style="fill:#f45b69; stroke-width:0px;"/><path d="m681.65,980.83l.4-3.84c.27-1.62.4-3.71.4-6.26,0-5.25-.47-10.14-1.41-14.65-.94-4.51-1.42-9.6-1.42-15.25l.2-6.06c.27-2.96.4-5.99.4-9.09l.2-18.39c.13-7.41.4-12.32.81-14.75.27-1.48.47-3.7.61-6.67,0-.54-.2-.94-.61-1.21-1.75-1.08-2.63-2.83-2.63-5.25,0-2.02.27-4.38.81-7.07.81-3.37,1.21-6.8,1.21-10.3,0-1.34-.07-2.63-.2-3.84-.14-1.21-.2-2.49-.2-3.84,0-4.71.2-8.45.61-11.21.4-2.76.74-6.09,1.01-10,0-1.48-.07-2.53-.2-3.13-.14-.61-.2-1.45-.2-2.53,0-2.42.61-7.41,1.82-14.95.4-2.96,1.52-4.85,3.33-5.66,1.82-.81,3.87-1.21,6.16-1.21,1.75-.13,3.43-.4,5.05-.81,2.42-.67,4.85-1.01,7.27-1.01,1.62,0,3.4.07,5.35.2,1.95.14,4.34.2,7.17.2l9.09-.2c6.06,0,13.2,1.55,21.42,4.65l3.43,1.21c2.56.54,4.98,1.55,7.27,3.03,11.58,8.62,17.38,19.67,17.38,33.13,0,4.85-.54,9.67-1.62,14.45-1.08,4.78-2.29,9.39-3.64,13.84-2.7,9.43-4.04,16.23-4.04,20.41v2.42c0,1.35-.68,2.02-2.02,2.02-1.21,0-1.89-.67-2.02-2.02-.54-4.44-1.18-7.54-1.92-9.29-.74-1.75-1.79-2.63-3.13-2.63-1.48,0-3,.5-4.55,1.52-1.55,1.01-2.32,2.32-2.32,3.94,0,1.21.3,2.73.91,4.55.61,1.82,1.38,3.33,2.32,4.55,3.77,5.66,8.01,16.43,12.73,32.33.4,1.62.81,2.89,1.21,3.84,1.62,4.98,2.42,8.15,2.42,9.5,0,.67-.14,1.14-.4,1.41-.94,1.08-1.55,2.15-1.82,3.23-.27,1.08-.47,2.36-.61,3.84,0,2.56-.61,6.6-1.82,12.12-.54,1.62-1.41,2.42-2.63,2.42-1.75,0-2.63-1.41-2.63-4.24,0-2.29.23-4.08.71-5.35.47-1.28.71-2.59.71-3.94,0-5.66-2.42-8.49-7.27-8.49-1.08,0-2.19.07-3.33.2-1.15.13-2.05.2-2.73.2l-1.41-.2c-.68,0-1.08.54-1.21,1.62-.14,1.75-.44,3.5-.91,5.25-.47,1.75-.71,3.7-.71,5.86l.2,2.83c-.14,1.34-.88,2.02-2.22,2.02-.68-.14-1.08-.37-1.21-.71-.14-.34-.27-1.38-.4-3.13-.27-10.37-2.22-19.47-5.86-27.28l-.61-1.41c-.54-2.29-1.82-3.5-3.84-3.64-.81,0-1.55-1.28-2.22-3.84l-.4-2.02c-.54-4.58-2.63-10.44-6.26-17.58-1.48-3.1-2.96-5.32-4.45-6.67.27.94.4,2.36.4,4.24,0,4.04-.34,9.33-1.01,15.86-.68,6.53-1.01,12.15-1.01,16.87v3.43c0,2.15-.3,4.31-.91,6.47-.61,2.15-.98,4.31-1.11,6.47,0,1.08-.3,1.99-.91,2.73-.61.74-1.31,1.11-2.12,1.11-1.21,0-2.19-1.05-2.93-3.13-.74-2.09-2.06-3.13-3.94-3.13l-4.24.4c-1.35,0-2.73-.24-4.14-.71-1.41-.47-2.53-.71-3.33-.71-2.16,0-3.3,1.68-3.43,5.05-.68,5.79-1.01,10.84-1.01,15.15l.2,10.51c0,2.42-.17,4.24-.5,5.46-.34,1.21-1.11,1.82-2.32,1.82-2.16,0-3.23-1.69-3.23-5.05Zm48.09-117.99l5.25.2c1.34,0,2.49-.2,3.43-.61.94-.4,1.95-1.82,3.03-4.24,1.88-4.17,2.83-7.34,2.83-9.5,0-1.75-.4-3.84-1.21-6.26,0,.14-.1.3-.3.5s-.3.44-.3.71l.2,1.41c0,1.89-.27,3.77-.81,5.66l-.61,3.03c-.67,2.83-1.75,4.24-3.23,4.24-.68,0-1.31-.33-1.92-1.01-.61-.67-.91-1.62-.91-2.83l.2-4.24c0-5.79-.44-9.36-1.31-10.71-.88-1.34-2.22-2.42-4.04-3.23-1.82-.81-3.33-1.21-4.55-1.21-2.02.4-3.84,1.62-5.46,3.64s-2.42,3.91-2.42,5.66l-.4,15.36c0,2.02.1,3.33.3,3.94.2.61.64.91,1.31.91,5.52-.94,9.16-1.41,10.91-1.41Z" style="fill:#f45b69; stroke-width:0px;"/><path d="m866.72,968.1c-.4-.94-.61-2.16-.61-3.64,0-7.41-.14-14.62-.4-21.62-.27-3.91-.4-7.07-.4-9.5,0-4.98.81-8.28,2.42-9.9,4.98-4.98,8.49-9.16,10.51-12.53,2.02-3.37,4.51-5.05,7.48-5.05,2.15,0,4.44.94,6.87,2.83l3.64,2.83c2.15,1.35,4.17,2.96,6.06,4.85.67.68,1.55,1.01,2.63,1.01,1.48,0,3-.3,4.55-.91,1.55-.61,2.79-.91,3.74-.91,3.5-.4,5.99-1.95,7.48-4.65,1.48-2.69,2.22-5.52,2.22-8.49,0-2.42-.37-4.58-1.11-6.47-.74-1.88-1.75-3.03-3.03-3.43-1.28-.4-2.53-.87-3.74-1.41-1.89-.81-3.91-1.34-6.06-1.62-.81,0-1.28.54-1.41,1.62-.54,1.89-.81,3.57-.81,5.05v3.43c0,1.08-.17,1.85-.51,2.32-.34.47-1.04.71-2.12.71-1.75,0-2.76-1.68-3.03-5.05-.27-3.37-1.08-5.99-2.42-7.88-1.62-1.62-4.38-2.96-8.28-4.04-2.7-.94-5.32-2.05-7.88-3.33-2.56-1.28-4.51-3.06-5.86-5.35-.54-.54-1.28-.84-2.22-.91-.94-.07-1.85-.37-2.73-.91-.88-.54-1.38-1.68-1.52-3.43-.4-7-1.08-12.46-2.02-16.37-.81-2.83-1.21-5.52-1.21-8.08,0-2.96.74-6.33,2.22-10.1l2.02-7.48c2.15-7.95,7.14-14.35,14.95-19.19,2.83-1.75,4.71-2.69,5.66-2.83,2.29-.27,4.51-.81,6.67-1.62,3.5-1.21,8.75-1.82,15.76-1.82,4.58,0,7.74.2,9.5.61,1.75.4,4.71.61,8.89.61,3.37,0,6.67,1.82,9.9,5.46,1.21,1.21,2.22,2.02,3.03,2.42,2.56.81,4.68,2.36,6.36,4.65,1.68,2.29,2.53,4.72,2.53,7.27v3.64l-.2,1.62.2,12.33c0,4.58-.2,8.32-.61,11.21-.4,2.9-1.41,4.34-3.03,4.34-.81,0-1.35-.3-1.62-.91-.27-.61-.47-1.58-.61-2.93,0-.81.07-1.65.2-2.53.13-.87.2-1.85.2-2.93,0-.54-.07-1.21-.2-2.02-.14-.81-.34-1.51-.61-2.12-.27-.61-.61-.91-1.01-.91-.27,0-.54.27-.81.81-.54,1.08-1.21,1.89-2.02,2.42-.81.54-1.52.98-2.12,1.31-.61.34-1.11.57-1.52.71-2.42,1.48-3.91,2.9-4.44,4.24-.54,1.35-.81,2.49-.81,3.43v.61c0,1.89-.74,2.83-2.22,2.83-1.21-.13-1.99-.64-2.32-1.52-.34-.87-.5-2.05-.5-3.54,0-4.98-.2-8.49-.61-10.51-.4-2.02-1.35-3.84-2.83-5.46-3.23-2.69-6.8-4.38-10.71-5.05-1.35-.54-2.7-.94-4.04-1.21-1.89,0-3.37,2.49-4.45,7.48l-1.01,5.05c-.27,1.08-.94,1.62-2.02,1.62-1.75,0-2.63-2.22-2.63-6.67-1.89,3.37-2.83,6.26-2.83,8.69,0,3.37,1.11,6,3.33,7.88,2.22,1.89,4.34,2.83,6.36,2.83.54-.13.98-.23,1.31-.3.33-.07,1.24-.1,2.73-.1,4.45,0,9.56,1.28,15.36,3.84,5.79,2.56,10.03,4.92,12.73,7.07,4.04,3.1,7.51,6.64,10.41,10.61,2.9,3.97,4.34,8.66,4.34,14.04l-.2,8.49-.2,4.85-1.21,6.67c-.54,3.37-1.08,5.56-1.62,6.57-.54,1.01-.88,2.19-1.01,3.54l-4.24,28.29c-.4,3.37-1.69,5.05-3.84,5.05-1.48-.14-2.42-.91-2.83-2.32-.4-1.41-.61-3.74-.61-6.97,0-2.56-.1-4.38-.3-5.46-.2-1.08-.71-1.62-1.51-1.62l-1.21.2-5.66,2.63c-2.02.81-3.64,1.48-4.85,2.02-1.21.54-3.17.81-5.86.81l-11.11-.2c-3.64,0-7.34.4-11.11,1.21-.81,0-1.58-.1-2.32-.3-.74-.2-1.45-.3-2.12-.3-.81,0-1.51.37-2.12,1.11-.61.74-.98,2.39-1.11,4.95,0,.94-.24,1.65-.71,2.12-.47.47-.98.71-1.52.71-1.62,0-2.83-1.55-3.64-4.65-1.21-4.31-3.97-8.35-8.28-12.12-.68-.54-1.28-.81-1.82-.81-1.21,0-1.82,2.35-1.82,7.07l.2,5.25v6.06c0,3.1-.24,5.79-.71,8.08-.47,2.29-1.51,3.43-3.13,3.43-1.35,0-2.22-.47-2.63-1.41Z" style="fill:#f45b69; stroke-width:0px;"/><path d="m1019.47,954.56c0-3.37-.47-6.13-1.41-8.28l-.4-1.41c-.4-1.21-1.21-1.92-2.42-2.12-1.21-.2-2.29-.3-3.23-.3h-1.62c-1.21,0-2.29-.07-3.23-.2-.81,0-1.55.47-2.22,1.42-2.29,3.1-3.64,6.26-4.04,9.5,0,1.88-.68,2.83-2.02,2.83-.81,0-1.31-.17-1.52-.5-.2-.34-.37-1.04-.5-2.12v-.61c0-2.42-1.28-7.54-3.84-15.36-.4-1.35-.61-2.7-.61-4.04,0-1.21.2-2.36.61-3.43,1.08-3.23,1.82-7.48,2.22-12.73s.74-10.51,1.01-15.76c.13-7,.47-11.78,1.01-14.34,0-.81-.2-1.28-.61-1.41-.4-.13-.88-.2-1.41-.2s-1.04-.13-1.52-.4c-.47-.27-.71-.87-.71-1.82v-1.01c.94-6.33,1.62-10.74,2.02-13.23.4-2.49.71-4.31.91-5.46.2-1.14.3-2.32.3-3.54l-.81-19.8c0-1.48-.57-2.96-1.72-4.45-1.15-1.48-2.46-2.29-3.94-2.42-4.85-.54-7.95-.81-9.29-.81-2.29,0-4.24.54-5.86,1.62-1.62,1.08-2.56,3.23-2.83,6.47,0,.68-.07,1.41-.2,2.22-.14.81-.2,1.69-.2,2.63l.2,2.63c0,1.08-.14,2.19-.4,3.33-.27,1.15-.4,2.26-.4,3.33l.2,1.82c0,.27-.17.54-.5.81-.34.27-.71.4-1.11.4-.81,0-1.65-.61-2.53-1.82-.88-1.21-1.31-4.24-1.31-9.09l.4-5.25c0-2.83-.34-5.25-1.01-7.27-.67-2.02-1.01-4.24-1.01-6.67,0-1.48.17-3.13.5-4.95.33-1.82.5-4.95.5-9.4,0-2.83.67-5.08,2.02-6.77,1.34-1.68,4.92-2.53,10.71-2.53,3.77,0,8.62.4,14.55,1.21,2.02.14,4.98.2,8.89.2,6.19,0,13.4-.13,21.62-.4l15.76-.2,6.06.2,7.68-.4c2.02,0,3.87.5,5.56,1.52,1.68,1.01,2.53,3.87,2.53,8.59v10.71c0,2.02-.27,3.71-.81,5.05-.94,2.7-1.55,6.47-1.82,11.31,0,2.96-1.01,4.45-3.03,4.45-1.08,0-1.75-.51-2.02-1.52-.27-1.01-.44-2.02-.5-3.03-.07-1.01-.17-1.92-.3-2.73-.54-2.69-1.25-4.31-2.12-4.85-.88-.54-2.29-.81-4.24-.81s-3.74-.13-5.35-.4l-3.23-.4c-2.02,0-3.81.71-5.35,2.12-1.55,1.42-2.53,3.27-2.93,5.56-.81,6.33-1.41,19.8-1.82,40.41-.27,8.08-.4,15.02-.4,20.81,1.08,5.39,1.62,10.58,1.62,15.56,0,3.37-.4,5.52-1.21,6.46-.27.68-.4,1.35-.4,2.02l.4,5.05c0,3.37-.61,8.08-1.82,14.14-.27,2.02-.4,3.97-.4,5.86s-.14,3.47-.4,4.75c-.27,1.28-1.01,1.92-2.22,1.92-1.62,0-2.42-.88-2.42-2.63Z" style="fill:#f45b69; stroke-width:0px;"/><path d="m1071.39,980.83l.4-3.84c.27-1.62.4-3.71.4-6.26,0-5.25-.47-10.14-1.41-14.65-.94-4.51-1.42-9.6-1.42-15.25l.2-6.06c.27-2.96.4-5.99.4-9.09l.2-18.39c.13-7.41.4-12.32.81-14.75.27-1.48.47-3.7.61-6.67,0-.54-.2-.94-.61-1.21-1.75-1.08-2.63-2.83-2.63-5.25,0-2.02.27-4.38.81-7.07.81-3.37,1.21-6.8,1.21-10.3,0-1.34-.07-2.63-.2-3.84-.14-1.21-.2-2.49-.2-3.84,0-4.71.2-8.45.61-11.21.4-2.76.74-6.09,1.01-10,0-1.48-.07-2.53-.2-3.13-.14-.61-.2-1.45-.2-2.53,0-2.42.61-7.41,1.82-14.95.4-2.96,1.52-4.85,3.33-5.66,1.82-.81,3.87-1.21,6.16-1.21,1.75-.13,3.43-.4,5.05-.81,2.42-.67,4.85-1.01,7.27-1.01,1.62,0,3.4.07,5.35.2,1.95.14,4.34.2,7.17.2l9.09-.2c6.06,0,13.2,1.55,21.42,4.65l3.43,1.21c2.56.54,4.98,1.55,7.27,3.03,11.58,8.62,17.38,19.67,17.38,33.13,0,4.85-.54,9.67-1.62,14.45-1.08,4.78-2.29,9.39-3.64,13.84-2.7,9.43-4.04,16.23-4.04,20.41v2.42c0,1.35-.68,2.02-2.02,2.02-1.21,0-1.89-.67-2.02-2.02-.54-4.44-1.18-7.54-1.92-9.29-.74-1.75-1.79-2.63-3.13-2.63-1.48,0-3,.5-4.55,1.52-1.55,1.01-2.32,2.32-2.32,3.94,0,1.21.3,2.73.91,4.55.61,1.82,1.38,3.33,2.32,4.55,3.77,5.66,8.01,16.43,12.73,32.33.4,1.62.81,2.89,1.21,3.84,1.62,4.98,2.42,8.15,2.42,9.5,0,.67-.14,1.14-.4,1.41-.94,1.08-1.55,2.15-1.82,3.23-.27,1.08-.47,2.36-.61,3.84,0,2.56-.61,6.6-1.82,12.12-.54,1.62-1.41,2.42-2.63,2.42-1.75,0-2.63-1.41-2.63-4.24,0-2.29.23-4.08.71-5.35.47-1.28.71-2.59.71-3.94,0-5.66-2.42-8.49-7.27-8.49-1.08,0-2.19.07-3.33.2-1.15.13-2.05.2-2.73.2l-1.41-.2c-.68,0-1.08.54-1.21,1.62-.14,1.75-.44,3.5-.91,5.25-.47,1.75-.71,3.7-.71,5.86l.2,2.83c-.14,1.34-.88,2.02-2.22,2.02-.68-.14-1.08-.37-1.21-.71-.14-.34-.27-1.38-.4-3.13-.27-10.37-2.22-19.47-5.86-27.28l-.61-1.41c-.54-2.29-1.82-3.5-3.84-3.64-.81,0-1.55-1.28-2.22-3.84l-.4-2.02c-.54-4.58-2.63-10.44-6.26-17.58-1.48-3.1-2.96-5.32-4.45-6.67.27.94.4,2.36.4,4.24,0,4.04-.34,9.33-1.01,15.86-.68,6.53-1.01,12.15-1.01,16.87v3.43c0,2.15-.3,4.31-.91,6.47-.61,2.15-.98,4.31-1.11,6.47,0,1.08-.3,1.99-.91,2.73-.61.74-1.31,1.11-2.12,1.11-1.21,0-2.19-1.05-2.93-3.13-.74-2.09-2.06-3.13-3.94-3.13l-4.24.4c-1.35,0-2.73-.24-4.14-.71-1.41-.47-2.53-.71-3.33-.71-2.16,0-3.3,1.68-3.43,5.05-.68,5.79-1.01,10.84-1.01,15.15l.2,10.51c0,2.42-.17,4.24-.5,5.46-.34,1.21-1.11,1.82-2.32,1.82-2.16,0-3.23-1.69-3.23-5.05Zm48.09-117.99l5.25.2c1.34,0,2.49-.2,3.43-.61.94-.4,1.95-1.82,3.03-4.24,1.88-4.17,2.83-7.34,2.83-9.5,0-1.75-.4-3.84-1.21-6.26,0,.14-.1.3-.3.5s-.3.44-.3.71l.2,1.41c0,1.89-.27,3.77-.81,5.66l-.61,3.03c-.67,2.83-1.75,4.24-3.23,4.24-.68,0-1.31-.33-1.92-1.01-.61-.67-.91-1.62-.91-2.83l.2-4.24c0-5.79-.44-9.36-1.31-10.71-.88-1.34-2.22-2.42-4.04-3.23-1.82-.81-3.33-1.21-4.55-1.21-2.02.4-3.84,1.62-5.46,3.64s-2.42,3.91-2.42,5.66l-.4,15.36c0,2.02.1,3.33.3,3.94.2.61.64.91,1.31.91,5.52-.94,9.16-1.41,10.91-1.41Z" style="fill:#f45b69; stroke-width:0px;"/><path d="m1186.56,987.09l.2-3.23c-1.48-7.27-2.22-13.27-2.22-17.98v-1.21c0-3.23-.24-6.1-.71-8.59-.47-2.49-1.58-4.75-3.33-6.77-.67-.54-1.11-1.08-1.31-1.62-.2-.54-.47-1.38-.81-2.53-.34-1.15-1.52-4.48-3.54-10-.54-1.08-.81-2.22-.81-3.43,0-.68.2-1.35.61-2.02.94-1.62,1.58-3.37,1.92-5.25.33-1.88.57-4.31.71-7.27.13-4.04.67-9.7,1.62-16.97,0-2.29-.14-4.07-.4-5.35-.27-1.28-.4-2.53-.4-3.74l.2-9.9c.27-5.66.47-11.48.61-17.48.13-5.99.27-10.07.4-12.22,0-1.62-.17-3.2-.5-4.75-.34-1.55-.5-3.06-.5-4.55l.2-1.21c0-.81.07-1.35.2-1.62-.14-.67-.61-1.01-1.41-1.01h-.81c-1.35,0-2.02-1.08-2.02-3.23,0-2.29.47-6.06,1.41-11.31.54-2.69.81-4.71.81-6.06v-1.01c0-1.75.3-3.5.91-5.25.61-1.75,2.19-3.3,4.75-4.65,3.64-1.62,7.2-2.42,10.71-2.42,2.15,0,4.51.14,7.07.4,3.64.54,8.82.81,15.56.81,3.23,0,6.29-.1,9.19-.3,2.9-.2,7.78-.3,14.65-.3,1.75,0,3.4-.23,4.95-.71,1.55-.47,4.48-.71,8.79-.71,2.69,0,6.13.2,10.3.61,3.1.54,4.95,2.26,5.56,5.15.61,2.9.91,5.89.91,8.99v2.63c0,2.56-.27,4.88-.81,6.97-.54,2.09-1.15,4.28-1.82,6.57-2.02,4.98-3.77,12.93-5.25,23.84-.14,1.48-.47,2.9-1.01,4.24-.54,1.35-1.62,2.02-3.23,2.02-2.29-.13-3.43-2.56-3.43-7.27,0-2.29.13-4.68.4-7.17.27-2.49.4-4.61.4-6.36,0-3.37-.61-5.05-1.82-5.05-.54.14-1.04.27-1.51.4-.47.14-1.18.2-2.12.2-1.21,0-2.39-.13-3.54-.4-1.15-.27-2.26-.4-3.33-.4h-6.67c-2.42,0-4.78.27-7.07.81-.54.14-1.15.2-1.82.2-1.35,0-2.76-.2-4.24-.61-1.48-.4-2.96-.67-4.45-.81-2.42,0-3.64,1.01-3.64,3.03v2.42c-.4,1.21-.61,2.49-.61,3.84,0,1.75.17,3.43.5,5.05.33,1.62.57,3.17.71,4.65.13.94.4,1.41.81,1.41s.88-.13,1.41-.4c1.08-.54,2.63-.81,4.65-.81.81,0,1.72.17,2.73.5,1.01.34,2.53.5,4.55.5l5.25-.2c2.29,0,4.31.47,6.06,1.42,1.75.94,2.63,3.1,2.63,6.46v7.88c0,4.18-.81,8.08-2.42,11.72-1.08,3.23-1.62,6.74-1.62,10.51v1.62c0,1.08-.1,2.02-.3,2.83-.2.81-.98,1.21-2.32,1.21-2.16,0-3.23-1.41-3.23-4.24,0-1.21.1-2.29.3-3.23.2-.94.3-1.88.3-2.83,0-.81-.61-1.21-1.82-1.21-3.5,0-5.96.17-7.38.5-1.41.34-2.53.68-3.33,1.01-.81.34-1.62.5-2.42.5-.68,0-1.28-.1-1.82-.3-.54-.2-1.15-.37-1.82-.5-.67,0-1.01.34-1.01,1.01l.2,1.62c.4.81.61,1.89.61,3.23,0,1.48-.1,2.86-.3,4.14-.2,1.28-.3,2.46-.3,3.54,0,2.02.74,3.67,2.22,4.95,1.48,1.28,4.92,1.92,10.3,1.92,1.88,0,3.64-.07,5.25-.2,1.62-.13,3.64-.27,6.06-.4,3.23,0,7.34.3,12.33.91,4.98.61,8.55,1.52,10.71,2.73,2.83,1.62,4.85,3.87,6.06,6.77,1.21,2.9,1.82,7.37,1.82,13.44,0,6.73-.61,16.23-1.82,28.49-.4,3.1-1.21,5.35-2.42,6.77s-2.49,2.12-3.84,2.12c-1.21,0-2.26-.47-3.13-1.41-.88-.94-1.31-2.22-1.31-3.84,0-.94.17-2.02.51-3.23.33-1.21.5-2.42.5-3.64,0-2.56-.47-5.05-1.41-7.48-.27-1.08-.51-2.06-.71-2.93-.2-.88-.57-1.41-1.11-1.62-.54-.2-1.31-.3-2.32-.3s-1.92-.07-2.73-.2c-2.7-.27-5.39-.4-8.08-.4-1.62,0-2.86.07-3.74.2-.88.13-1.85.2-2.93.2s-2.19-.1-3.33-.3c-1.15-.2-2.39-.3-3.74-.3-3.91,0-7.41-.34-10.51-1.01-2.56-.54-4.92-.81-7.07-.81-2.56,0-4.82.77-6.77,2.32-1.95,1.55-3.64,4.48-5.05,8.79-1.41,4.31-2.59,10.57-3.54,18.79l-.2,5.46v1.41c0,2.69-.34,5.39-1.01,8.08-1.21,3.1-2.42,4.65-3.64,4.65-2.56,0-3.84-2.63-3.84-7.88Z" style="fill:#f45b69; stroke-width:0px;"/><path d="m1290.81,987.09l.2-3.23c-1.48-7.27-2.22-13.27-2.22-17.98v-1.21c0-3.23-.24-6.1-.71-8.59-.47-2.49-1.58-4.75-3.33-6.77-.67-.54-1.11-1.08-1.31-1.62-.2-.54-.47-1.38-.81-2.53-.34-1.15-1.52-4.48-3.54-10-.54-1.08-.81-2.22-.81-3.43,0-.68.2-1.35.61-2.02.94-1.62,1.58-3.37,1.92-5.25.33-1.88.57-4.31.71-7.27.13-4.04.67-9.7,1.62-16.97,0-2.29-.14-4.07-.4-5.35-.27-1.28-.4-2.53-.4-3.74l.2-9.9c.27-5.66.47-11.48.61-17.48.13-5.99.27-10.07.4-12.22,0-1.62-.17-3.2-.5-4.75-.34-1.55-.5-3.06-.5-4.55l.2-1.21c0-.81.07-1.35.2-1.62-.14-.67-.61-1.01-1.41-1.01h-.81c-1.35,0-2.02-1.08-2.02-3.23,0-2.29.47-6.06,1.41-11.31.54-2.69.81-4.71.81-6.06v-1.01c0-1.75.3-3.5.91-5.25.61-1.75,2.19-3.3,4.75-4.65,3.64-1.62,7.2-2.42,10.71-2.42,2.15,0,4.51.14,7.07.4,3.64.54,8.82.81,15.56.81,3.23,0,6.29-.1,9.19-.3,2.9-.2,7.78-.3,14.65-.3,1.75,0,3.4-.23,4.95-.71,1.55-.47,4.48-.71,8.79-.71,2.69,0,6.13.2,10.3.61,3.1.54,4.95,2.26,5.56,5.15.61,2.9.91,5.89.91,8.99v2.63c0,2.56-.27,4.88-.81,6.97-.54,2.09-1.15,4.28-1.82,6.57-2.02,4.98-3.77,12.93-5.25,23.84-.14,1.48-.47,2.9-1.01,4.24-.54,1.35-1.62,2.02-3.23,2.02-2.29-.13-3.43-2.56-3.43-7.27,0-2.29.13-4.68.4-7.17.27-2.49.4-4.61.4-6.36,0-3.37-.61-5.05-1.82-5.05-.54.14-1.04.27-1.51.4-.47.14-1.18.2-2.12.2-1.21,0-2.39-.13-3.54-.4-1.15-.27-2.26-.4-3.33-.4h-6.67c-2.42,0-4.78.27-7.07.81-.54.14-1.15.2-1.82.2-1.35,0-2.76-.2-4.24-.61-1.48-.4-2.96-.67-4.45-.81-2.42,0-3.64,1.01-3.64,3.03v2.42c-.4,1.21-.61,2.49-.61,3.84,0,1.75.17,3.43.5,5.05.33,1.62.57,3.17.71,4.65.13.94.4,1.41.81,1.41s.88-.13,1.41-.4c1.08-.54,2.63-.81,4.65-.81.81,0,1.72.17,2.73.5,1.01.34,2.53.5,4.55.5l5.25-.2c2.29,0,4.31.47,6.06,1.42,1.75.94,2.63,3.1,2.63,6.46v7.88c0,4.18-.81,8.08-2.42,11.72-1.08,3.23-1.62,6.74-1.62,10.51v1.62c0,1.08-.1,2.02-.3,2.83-.2.81-.98,1.21-2.32,1.21-2.16,0-3.23-1.41-3.23-4.24,0-1.21.1-2.29.3-3.23.2-.94.3-1.88.3-2.83,0-.81-.61-1.21-1.82-1.21-3.5,0-5.96.17-7.38.5-1.41.34-2.53.68-3.33,1.01-.81.34-1.62.5-2.42.5-.68,0-1.28-.1-1.82-.3-.54-.2-1.15-.37-1.82-.5-.67,0-1.01.34-1.01,1.01l.2,1.62c.4.81.61,1.89.61,3.23,0,1.48-.1,2.86-.3,4.14-.2,1.28-.3,2.46-.3,3.54,0,2.02.74,3.67,2.22,4.95,1.48,1.28,4.92,1.92,10.3,1.92,1.88,0,3.64-.07,5.25-.2,1.62-.13,3.64-.27,6.06-.4,3.23,0,7.34.3,12.33.91,4.98.61,8.55,1.52,10.71,2.73,2.83,1.62,4.85,3.87,6.06,6.77,1.21,2.9,1.82,7.37,1.82,13.44,0,6.73-.61,16.23-1.82,28.49-.4,3.1-1.21,5.35-2.42,6.77s-2.49,2.12-3.84,2.12c-1.21,0-2.26-.47-3.13-1.41-.88-.94-1.31-2.22-1.31-3.84,0-.94.17-2.02.51-3.23.33-1.21.5-2.42.5-3.64,0-2.56-.47-5.05-1.41-7.48-.27-1.08-.51-2.06-.71-2.93-.2-.88-.57-1.41-1.11-1.62-.54-.2-1.31-.3-2.32-.3s-1.92-.07-2.73-.2c-2.7-.27-5.39-.4-8.08-.4-1.62,0-2.86.07-3.74.2-.88.13-1.85.2-2.93.2s-2.19-.1-3.33-.3c-1.15-.2-2.39-.3-3.74-.3-3.91,0-7.41-.34-10.51-1.01-2.56-.54-4.92-.81-7.07-.81-2.56,0-4.82.77-6.77,2.32-1.95,1.55-3.64,4.48-5.05,8.79-1.41,4.31-2.59,10.57-3.54,18.79l-.2,5.46v1.41c0,2.69-.34,5.39-1.01,8.08-1.21,3.1-2.42,4.65-3.64,4.65-2.56,0-3.84-2.63-3.84-7.88Z" style="fill:#f45b69; stroke-width:0px;"/><path d="m1438.1,954.56c0-3.37-.47-6.13-1.41-8.28l-.4-1.41c-.4-1.21-1.21-1.92-2.42-2.12-1.21-.2-2.29-.3-3.23-.3h-1.62c-1.21,0-2.29-.07-3.23-.2-.81,0-1.55.47-2.22,1.42-2.29,3.1-3.64,6.26-4.04,9.5,0,1.88-.68,2.83-2.02,2.83-.81,0-1.31-.17-1.52-.5-.2-.34-.37-1.04-.5-2.12v-.61c0-2.42-1.28-7.54-3.84-15.36-.4-1.35-.61-2.7-.61-4.04,0-1.21.2-2.36.61-3.43,1.08-3.23,1.82-7.48,2.22-12.73s.74-10.51,1.01-15.76c.13-7,.47-11.78,1.01-14.34,0-.81-.2-1.28-.61-1.41-.4-.13-.88-.2-1.41-.2s-1.04-.13-1.52-.4c-.47-.27-.71-.87-.71-1.82v-1.01c.94-6.33,1.62-10.74,2.02-13.23.4-2.49.71-4.31.91-5.46.2-1.14.3-2.32.3-3.54l-.81-19.8c0-1.48-.57-2.96-1.72-4.45-1.15-1.48-2.46-2.29-3.94-2.42-4.85-.54-7.95-.81-9.29-.81-2.29,0-4.24.54-5.86,1.62-1.62,1.08-2.56,3.23-2.83,6.47,0,.68-.07,1.41-.2,2.22-.14.81-.2,1.69-.2,2.63l.2,2.63c0,1.08-.14,2.19-.4,3.33-.27,1.15-.4,2.26-.4,3.33l.2,1.82c0,.27-.17.54-.5.81-.34.27-.71.4-1.11.4-.81,0-1.65-.61-2.53-1.82-.88-1.21-1.31-4.24-1.31-9.09l.4-5.25c0-2.83-.34-5.25-1.01-7.27-.67-2.02-1.01-4.24-1.01-6.67,0-1.48.17-3.13.5-4.95.33-1.82.5-4.95.5-9.4,0-2.83.67-5.08,2.02-6.77,1.34-1.68,4.92-2.53,10.71-2.53,3.77,0,8.62.4,14.55,1.21,2.02.14,4.98.2,8.89.2,6.19,0,13.4-.13,21.62-.4l15.76-.2,6.06.2,7.68-.4c2.02,0,3.87.5,5.56,1.52,1.68,1.01,2.53,3.87,2.53,8.59v10.71c0,2.02-.27,3.71-.81,5.05-.94,2.7-1.55,6.47-1.82,11.31,0,2.96-1.01,4.45-3.03,4.45-1.08,0-1.75-.51-2.02-1.52-.27-1.01-.44-2.02-.5-3.03-.07-1.01-.17-1.92-.3-2.73-.54-2.69-1.25-4.31-2.12-4.85-.88-.54-2.29-.81-4.24-.81s-3.74-.13-5.35-.4l-3.23-.4c-2.02,0-3.81.71-5.35,2.12-1.55,1.42-2.53,3.27-2.93,5.56-.81,6.33-1.41,19.8-1.82,40.41-.27,8.08-.4,15.02-.4,20.81,1.08,5.39,1.62,10.58,1.62,15.56,0,3.37-.4,5.52-1.21,6.46-.27.68-.4,1.35-.4,2.02l.4,5.05c0,3.37-.61,8.08-1.82,14.14-.27,2.02-.4,3.97-.4,5.86s-.14,3.47-.4,4.75c-.27,1.28-1.01,1.92-2.22,1.92-1.62,0-2.42-.88-2.42-2.63Z" style="fill:#f45b69; stroke-width:0px;"/></g></svg>