<?xml version="1.0" encoding="UTF-8"?><svg id="a" xmlns="http://www.w3.org/2000/svg" xmlns:xlink="http://www.w3.org/1999/xlink" viewBox="0 0 1536 1024"><defs><filter id="b" filterUnits="userSpaceOnUse"><feOffset dx="7.27" dy="7.27"/><feGaussianBlur result="c" stdDeviation="0"/><feFlood flood-color="#000" flood-opacity="1"/><feComposite in2="c" operator="in"/><feComposite in="SourceGraphic"/></filter></defs><g style="filter:url(#b);"><path d="m264.83,582.87l.93-116.63h-.7l-42.83,116.63h-27.93l-41.67-116.63h-.7l.93,116.63h-37.48v-164.81h56.64l37.53,105.69h.93l35.89-105.69h57.57v164.81h-39.11Z" style="fill:#f2e863; stroke-width:0px;"/><path d="m377.04,429.92c0,2.95-.58,5.7-1.75,8.26-1.16,2.56-2.72,4.77-4.66,6.63-1.94,1.86-4.27,3.34-6.98,4.42-2.72,1.09-5.55,1.63-8.5,1.63-6.21,0-11.41-2.05-15.6-6.17-4.19-4.11-6.29-9.04-6.29-14.78,0-2.79.54-5.47,1.63-8.03,1.08-2.56,2.64-4.77,4.66-6.63,2.02-1.86,4.34-3.38,6.98-4.54,2.64-1.16,5.51-1.75,8.61-1.75,2.95,0,5.78.55,8.5,1.63,2.71,1.09,5.04,2.56,6.98,4.42,1.94,1.86,3.49,4.07,4.66,6.63,1.16,2.56,1.75,5.32,1.75,8.26Zm-40.97,152.94v-115.93h38.18v115.93h-38.18Z" style="fill:#f2e863; stroke-width:0px;"/><path d="m483.65,582.87l-24.91-35.62-25.61,35.62h-44.23l46.33-60.76-41.9-55.17h44.46l21.65,30.96,21.88-30.96h43.07l-41.67,55.17,45.86,60.76h-44.93Z" style="fill:#f2e863; stroke-width:0px;"/><path d="m652.66,526.3v4.66c0,1.55-.08,3.03-.23,4.42h-84.04c.31,3.26,1.28,6.21,2.91,8.85,1.63,2.64,3.72,4.93,6.29,6.87,2.56,1.94,5.43,3.46,8.61,4.54,3.18,1.09,6.48,1.63,9.89,1.63,6.05,0,11.17-1.12,15.36-3.38,4.19-2.25,7.6-5.16,10.24-8.73l26.54,16.76c-5.43,7.91-12.61,14.01-21.53,18.27-8.93,4.27-19.29,6.4-31.08,6.4-8.69,0-16.92-1.36-24.68-4.07-7.76-2.71-14.55-6.67-20.37-11.87-5.82-5.2-10.4-11.6-13.73-19.21-3.34-7.6-5-16.3-5-26.07s1.63-18.04,4.89-25.72c3.26-7.68,7.68-14.2,13.27-19.55s12.18-9.5,19.79-12.45c7.6-2.95,15.83-4.42,24.68-4.42s16.37,1.44,23.51,4.31c7.14,2.87,13.27,7.02,18.39,12.45,5.12,5.43,9.12,12.03,11.99,19.79,2.87,7.76,4.31,16.61,4.31,26.54Zm-35.15-14.67c0-6.05-1.9-11.25-5.7-15.6-3.8-4.34-9.51-6.52-17.11-6.52-3.72,0-7.14.58-10.24,1.75-3.11,1.16-5.82,2.76-8.15,4.77-2.33,2.02-4.19,4.39-5.59,7.1-1.4,2.72-2.17,5.55-2.33,8.5h49.12Z" style="fill:#f2e863; stroke-width:0px;"/><path d="m764.16,582.87v-15.13h-.47c-3.72,5.9-9.04,10.44-15.95,13.62-6.91,3.18-14.24,4.77-22,4.77-8.69,0-16.45-1.71-23.28-5.12-6.83-3.41-12.61-7.95-17.34-13.62-4.74-5.66-8.34-12.22-10.82-19.67-2.48-7.45-3.72-15.21-3.72-23.28s1.28-15.79,3.84-23.16c2.56-7.37,6.21-13.85,10.94-19.44,4.73-5.59,10.47-10.01,17.23-13.27s14.32-4.89,22.7-4.89,15.75,1.63,21.65,4.89c5.9,3.26,10.48,6.83,13.73,10.71h.47v-72.4h38.18v175.99h-35.15Zm-1.4-58.2c0-3.72-.66-7.37-1.98-10.94-1.32-3.57-3.18-6.75-5.59-9.54-2.41-2.79-5.32-5.04-8.73-6.75-3.42-1.71-7.3-2.56-11.64-2.56s-8.46.85-11.87,2.56c-3.42,1.71-6.29,3.92-8.61,6.63-2.33,2.72-4.07,5.86-5.24,9.43-1.16,3.57-1.75,7.22-1.75,10.94s.58,7.41,1.75,11.06c1.16,3.65,2.91,6.87,5.24,9.66,2.33,2.79,5.2,5.05,8.61,6.75,3.41,1.71,7.37,2.56,11.87,2.56s8.22-.85,11.64-2.56c3.41-1.71,6.32-3.96,8.73-6.75,2.4-2.79,4.27-5.97,5.59-9.54,1.32-3.57,1.98-7.22,1.98-10.94Z" style="fill:#f2e863; stroke-width:0px;"/><path d="m949.69,579.96c-10.71,4.89-23.05,7.33-37.01,7.33-12.73,0-24.48-2.1-35.27-6.29-10.79-4.19-20.14-10.13-28.05-17.81s-14.12-16.88-18.62-27.59c-4.5-10.71-6.75-22.5-6.75-35.38s2.29-25.14,6.87-35.85c4.58-10.71,10.9-19.82,18.97-27.35,8.07-7.53,17.54-13.31,28.4-17.34,10.86-4.03,22.58-6.05,35.15-6.05,11.64,0,23.08,2.06,34.34,6.17,11.25,4.11,20.37,10.13,27.35,18.04l-27,27c-3.72-5.12-8.61-8.92-14.67-11.41-6.05-2.48-12.26-3.72-18.62-3.72-6.98,0-13.39,1.28-19.21,3.84-5.82,2.56-10.83,6.09-15.02,10.59-4.19,4.5-7.45,9.82-9.78,15.95-2.33,6.13-3.49,12.84-3.49,20.14s1.16,14.28,3.49,20.49c2.33,6.21,5.55,11.52,9.66,15.95,4.11,4.42,9.04,7.88,14.78,10.36,5.74,2.48,12.03,3.72,18.86,3.72,7.91,0,14.82-1.55,20.72-4.66,5.9-3.1,10.63-7.14,14.2-12.1l27.7,26.07c-7.3,8.38-16.3,15.01-27,19.9Z" style="fill:#f45b69; stroke-width:0px;"/><path d="m992.06,582.87v-175.99h38.88v175.99h-38.88Z" style="fill:#f45b69; stroke-width:0px;"/><path d="m1137.32,582.87v-16.06h-.46c-1.4,2.64-3.22,5.12-5.47,7.45-2.25,2.33-4.89,4.35-7.92,6.05-3.03,1.71-6.37,3.1-10.01,4.19-3.65,1.08-7.49,1.63-11.52,1.63-7.76,0-14.32-1.4-19.67-4.19-5.35-2.79-9.7-6.4-13.04-10.82-3.34-4.42-5.74-9.46-7.22-15.13-1.48-5.66-2.21-11.44-2.21-17.34v-71.7h38.41v62.85c0,3.26.23,6.37.7,9.31.47,2.95,1.36,5.59,2.68,7.91,1.32,2.33,3.06,4.15,5.24,5.47,2.17,1.32,5.04,1.98,8.61,1.98,6.67,0,11.76-2.48,15.25-7.45,3.49-4.96,5.24-10.78,5.24-17.46v-62.62h38.18v115.93h-36.78Z" style="fill:#f45b69; stroke-width:0px;"/><path d="m1318.89,526.3v4.66c0,1.55-.08,3.03-.23,4.42h-84.04c.31,3.26,1.28,6.21,2.91,8.85,1.63,2.64,3.72,4.93,6.29,6.87,2.56,1.94,5.43,3.46,8.61,4.54,3.18,1.09,6.48,1.63,9.89,1.63,6.05,0,11.17-1.12,15.36-3.38,4.19-2.25,7.6-5.16,10.24-8.73l26.54,16.76c-5.43,7.91-12.61,14.01-21.53,18.27-8.93,4.27-19.29,6.4-31.08,6.4-8.69,0-16.92-1.36-24.68-4.07-7.76-2.71-14.55-6.67-20.37-11.87-5.82-5.2-10.4-11.6-13.73-19.21-3.34-7.6-5-16.3-5-26.07s1.63-18.04,4.89-25.72c3.26-7.68,7.68-14.2,13.27-19.55s12.18-9.5,19.79-12.45c7.6-2.95,15.83-4.42,24.68-4.42s16.37,1.44,23.51,4.31c7.14,2.87,13.27,7.02,18.39,12.45,5.12,5.43,9.12,12.03,11.99,19.79,2.87,7.76,4.31,16.61,4.31,26.54Zm-35.15-14.67c0-6.05-1.9-11.25-5.7-15.6-3.8-4.34-9.51-6.52-17.11-6.52-3.72,0-7.14.58-10.24,1.75-3.11,1.16-5.82,2.76-8.15,4.77-2.33,2.02-4.19,4.39-5.59,7.1-1.4,2.72-2.17,5.55-2.33,8.5h49.12Z" style="fill:#f45b69; stroke-width:0px;"/><path d="m1410.84,501.16c-3.11-2.95-6.75-5.43-10.94-7.45-4.19-2.02-8.61-3.03-13.27-3.03-3.57,0-6.87.7-9.89,2.1s-4.54,3.8-4.54,7.22,1.67,5.59,5,6.98c3.33,1.4,8.73,2.95,16.18,4.66,4.34.93,8.73,2.25,13.15,3.96,4.42,1.71,8.42,3.96,11.99,6.75,3.57,2.79,6.44,6.21,8.61,10.24,2.17,4.04,3.26,8.85,3.26,14.43,0,7.3-1.48,13.47-4.42,18.51-2.95,5.04-6.79,9.12-11.52,12.22-4.74,3.11-10.05,5.35-15.95,6.75-5.9,1.4-11.8,2.09-17.69,2.09-9.47,0-18.74-1.51-27.82-4.54-9.08-3.03-16.64-7.49-22.7-13.39l21.42-22.58c3.41,3.72,7.6,6.83,12.57,9.31,4.96,2.48,10.24,3.72,15.83,3.72,3.1,0,6.17-.73,9.19-2.21,3.03-1.47,4.54-4.07,4.54-7.8s-1.86-6.21-5.59-7.91c-3.72-1.71-9.54-3.49-17.46-5.35-4.04-.93-8.07-2.17-12.11-3.72-4.04-1.55-7.65-3.64-10.82-6.29-3.18-2.64-5.78-5.9-7.8-9.78-2.02-3.88-3.03-8.53-3.03-13.97,0-6.98,1.47-12.92,4.42-17.81,2.95-4.89,6.75-8.88,11.41-11.99,4.66-3.1,9.81-5.39,15.48-6.87,5.66-1.47,11.29-2.21,16.88-2.21,8.69,0,17.19,1.36,25.49,4.07,8.3,2.72,15.32,6.79,21.07,12.22l-20.95,21.65Z" style="fill:#f45b69; stroke-width:0px;"/></g></svg>