<?xml version="1.0" encoding="UTF-8"?><svg id="a" xmlns="http://www.w3.org/2000/svg" viewBox="0 0 1536 1024"><path d="m495.55,698.42c-3.46,0-6.33-1.15-8.83-4.03,5.18-3.07,8.64-10.17,8.64-16.51,0-6.72-3.65-12.86-14.2-12.86s-17.66,5.95-17.66,17.47c0,28.22,43.19,32.06,43.19,73.52,0,32.25-26.11,47.99-53.94,47.99-21.88,0-40.69-9.6-40.69-33.02,0-20.73,14.78-31.48,28.22-31.48,6.72,0,16.32,2.69,16.89,12.67-10.37,0-22.46,4.8-22.46,18.04,0,9.6,6.14,18.43,18.43,18.43s22.27-9.41,22.27-25.53c0-32.82-39.35-44.53-39.35-72.75,0-19.96,19.58-34.36,44.34-34.36,9.02,0,30.9,1.92,30.9,23.04,0,11.13-6.14,19.39-15.74,19.39Z" style="fill:#f2e863; stroke-width:0px;"/><path d="m590.76,732.97c.77.38,1.54.38,2.11.38,8.83,0,21.31-5.76,29.56-11.52l1.73,5.18c-7.29,7.87-19.96,13.63-33.98,15.93-3.07,35.51-22.27,57.78-45.88,57.78-17.85,0-30.71-8.45-30.71-30.33s13.05-68.14,52.6-68.14c16.51,0,24.57,10.56,24.57,30.71Zm-16.51,10.56c-4.03-.96-5.18-4.22-5.18-8.06,0-5.38,2.5-8.83,5.95-10.37-.38-8.06-2.3-11.13-7.29-11.13-13.63,0-25.53,35.13-25.53,53.94,0,12.67,2.5,15.55,9.79,15.55,9.41,0,19.2-17.28,22.27-39.93Z" style="fill:#f2e863; stroke-width:0px;"/><path d="m648.92,720.69c-6.91,0-12.09,8.06-14.97,17.66l-13.05,61.62h-27.64l20.35-95.98h27.64l-2.11,9.98c8.06-9.21,16.51-10.75,22.46-10.75,12.29,0,21.31,6.33,21.31,21.69s-9.21,38.78-9.21,49.52c0,4.8,1.92,8.06,7.68,8.06,8.45,0,11.9-6.91,16.12-16.89h8.06c-10.75,31.48-25.53,35.51-35.7,35.51-16.7,0-22.65-10.75-22.65-21.69,0-13.05,8.64-36.66,8.64-48.95,0-6.33-2.3-9.79-6.91-9.79Z" style="fill:#f2e863; stroke-width:0px;"/><path d="m745.67,720.69c-7.49,0-13.44,11.71-14.59,16.89l-13.25,62.39h-27.64l27.83-130.53,28.41-3.84-10.37,48.37c8.06-9.21,16.51-10.75,22.46-10.75,12.29,0,21.31,6.33,21.31,21.69s-9.21,38.78-9.21,49.52c0,4.8,1.92,8.06,7.68,8.06,8.45,0,11.9-6.91,16.12-16.89h8.06c-10.75,31.48-25.53,35.51-35.7,35.51-16.7,0-22.65-10.75-22.65-21.69,0-13.05,8.64-36.66,8.64-48.95,0-6.33-2.3-9.79-7.1-9.79Z" style="fill:#f2e863; stroke-width:0px;"/><path d="m928.03,698.04c2.3,49.72,4.22,57.2,4.22,69.87,0,24.95-18.04,33.21-33.78,33.21-22.84,0-26.68-13.82-26.68-25.53s7.1-18.24,13.82-18.24,9.98,2.5,9.98,8.06c0,4.61-4.22,8.64-9.21,8.64-1.92,0-4.22-.58-5.18-2.5,0,9.02,3.84,14.4,11.13,14.4,8.45,0,12.09-4.42,12.09-17.85,0-10.75-2.11-16.7-4.22-52.21-9.41,14.2-20.35,22.84-32.25,26.49-2.69,35.9-21.69,58.35-45.49,58.35-17.85,0-30.71-8.45-30.71-30.33s12.48-68.14,52.02-68.14c16.32,0,24.38,10.37,24.57,30.14,9.79-.58,20.35-11.71,31.29-30.52l28.41-3.84Zm-76.21,45.69c-3.07-1.15-4.61-3.84-4.61-8.64,0-5.18,2.11-8.45,5.37-9.98-.38-8.06-2.5-11.13-7.29-11.13-13.63,0-24.95,35.13-24.95,53.94,0,12.67,2.5,15.55,9.79,15.55,9.41,0,18.81-17.28,21.69-39.74Z" style="fill:#f2e863; stroke-width:0px;"/><path d="m1145.87,759.21c0,12.72-15.89,28.4-35,31.58-17.5,62.25-49.28,63.61-71.84,63.61-31.78,0-47.67-22.49-47.67-45.89,0-21.81,13.82-44.53,41.68-50.21-15.66-8.41-22.8-21.58-22.8-34.53,0-20.67,18.42-41.12,51.12-41.12,21.42,0,42.37,8.41,42.37,30.44,0,12.04-4.38,20.9-16.12,20.9-3.68,0-8.75-.91-13.13-5.91,5.76-1.59,10.13-12.95,10.13-18.63,0-3.63-.46-16.81-15.2-16.81-16.81,0-28.09,12.72-28.09,27.94,0,13.18,8.75,27.94,30.4,37.49-29.24,11.81-40.07,29.99-40.07,45.67,0,16.58,12.2,30.22,26.94,30.22,15.89,0,34.54-9.54,41.68-42.71-5.76-.46-11.05-1.36-16.35-1.36-9.9,0-17.27,3.41-21.65,10.22l-1.61-.23c4.61-18.63,20.72-32.03,44.44-32.03,6.45,0,11.74,1.14,17.5,1.14,8.52,0,17.96-2.95,21.88-9.77h1.38Z" style="fill:#3a7ca5; stroke-width:0px;"/><path d="m478.63,817.56l-13.63,64.11c19.39-1.54,33.59-26.68,33.59-47.22,0-14.2-6.91-26.11-23.8-26.11-31.1,0-49.72,17.47-49.72,46.65,0,9.79,2.5,11.33,2.69,13.05-13.24,0-20.54-4.8-20.54-18.62,0-25.53,35.32-49.91,67.38-49.91s45.3,18.04,45.3,37.82c0,24.38-20.92,51.44-55.48,51.44h-.96l-11.71,54.71h-27.64l26.11-122.08,28.41-3.84Z" style="fill:#f2e863; stroke-width:0px;"/><path d="m555.8,928.51c15.16,0,24.38-8.45,33.98-19.39h6.53c-10.94,17.66-27.26,35.51-52.79,35.51-18.04,0-29.95-8.83-29.95-30.52s12.48-68.34,51.83-68.34c17.08,0,21.12,8.83,21.12,18.43,0,22.07-21.12,39.16-44.15,40.5-.19,2.69-.38,5.38-.38,7.68,0,13.05,4.61,16.12,13.82,16.12Zm11.13-72.56c-9.79,0-19.2,20.54-23.03,39.54,14.78-.96,27.83-15.74,27.83-31.67,0-4.8-1.15-7.87-4.8-7.87Z" style="fill:#f2e863; stroke-width:0px;"/><path d="m671.16,909.12c-9.98,11.52-20.54,18.81-29.37,24-8.06,8.45-20.35,11.52-30.14,11.52-19.58,0-28.03-12.86-28.03-24.57,0-8.83,4.99-15.36,10.17-17.85,10.75-19,17.66-38.01,23.61-56.82l28.41-3.84c2.3,49.72,4.22,57.2,4.22,69.87,0,2.69-.19,4.99-.77,7.29,5.18-3.07,10.17-6.53,13.82-9.6h8.06Zm-72.18,9.41c-1.92,0-4.22-.58-5.18-2.5,0,9.02,3.26,13.44,11.71,13.44s16.7-4.42,16.7-17.85c0-9.98-1.73-15.93-3.65-45.49-3.84,12.48-9.21,24-15.55,36.28,2.5,1.15,4.42,3.46,4.42,6.72,0,4.61-3.46,9.41-8.45,9.41Z" style="fill:#f2e863; stroke-width:0px;"/><path d="m755.24,847.5l-13.82,65.26c-.58,2.5-.77,4.42-.77,6.14,0,5.38,2.5,8.25,7.87,8.25,7.49,0,12.67-8.45,15.55-18.04h8.06c-10.94,31.29-28.22,35.51-38.58,35.51s-17.66-6.14-18.81-17.66c-5.95,8.83-14.97,17.66-28.6,17.66s-25.53-8.06-25.53-30.9c0-25.91,15.93-67.18,49.33-67.18,10.94,0,15.55,4.22,15.55,9.79v1.34l2.11-10.17h27.64Zm-66.22,63.54c0,14.78,6.14,14.97,9.6,14.97,5.57,0,13.63-5.76,15.93-16.89l9.21-43.38c0-2.3-1.73-7.29-7.87-7.29-16.32,0-26.87,34.55-26.87,52.6Z" style="fill:#f2e863; stroke-width:0px;"/><path d="m864.27,809.11l-22.07,103.66c-.58,2.5-.77,4.42-.77,6.14,0,5.38,2.5,7.1,7.87,7.1,7.49,0,12.67-7.29,15.55-16.89h8.06c-10.94,31.29-28.22,34.36-38.58,34.36s-17.28-5.76-18.81-16.51c-5.76,8.83-14.78,17.66-28.41,17.66s-25.53-8.06-25.53-30.9c0-25.91,15.93-67.18,49.33-67.18,10.94,0,15.55,4.22,15.55,9.79v.77l9.41-44.15,28.41-3.84Zm-48.95,100.01l9.41-43.96c-.38-2.3-2.11-6.72-7.87-6.72-16.32,0-26.87,34.55-26.87,52.6,0,14.78,6.14,14.97,9.6,14.97,5.37,0,13.25-5.38,15.74-15.93v-.96Z" style="fill:#f2e863; stroke-width:0px;"/><path d="m904.58,928.51c15.16,0,24.38-8.45,33.98-19.39h6.53c-10.94,17.66-27.26,35.51-52.79,35.51-18.04,0-29.95-8.83-29.95-30.52s12.48-68.34,51.83-68.34c17.08,0,21.12,8.83,21.12,18.43,0,22.07-21.12,39.16-44.15,40.5-.19,2.69-.38,5.38-.38,7.68,0,13.05,4.61,16.12,13.82,16.12Zm11.13-72.56c-9.79,0-19.2,20.54-23.03,39.54,14.78-.96,27.83-15.74,27.83-31.67,0-4.8-1.15-7.87-4.8-7.87Z" style="fill:#f2e863; stroke-width:0px;"/><path d="m987.51,809.11l-22.07,103.66c-.58,2.5-.77,4.42-.77,6.14,0,5.38,2.5,7.1,7.87,7.1,7.49,0,14.4-7.29,17.28-16.89h8.06c-10.94,31.29-29.95,35.51-40.31,35.51-11.52,0-20.54-6.91-20.54-23.03,0-3.65.58-7.87,1.54-12.48l20.54-96.17,28.41-3.84Z" style="fill:#f2e863; stroke-width:0px;"/><path d="m1123.41,841.55c2.3,49.72,4.22,57.2,4.22,69.87,0,24.95-18.04,33.21-33.78,33.21-22.84,0-26.68-13.82-26.68-25.53s7.1-18.24,13.82-18.24,9.98,2.5,9.98,8.06c0,4.61-4.22,8.64-9.21,8.64-1.92,0-4.22-.58-5.18-2.5,0,9.02,3.84,14.4,11.13,14.4,8.45,0,12.09-4.42,12.09-17.85,0-10.75-2.11-16.7-4.22-52.21-9.41,14.2-20.35,22.84-32.25,26.49-2.69,35.9-21.69,58.35-45.49,58.35-17.85,0-30.71-8.45-30.71-30.33s12.48-68.14,52.02-68.14c16.32,0,24.38,10.37,24.57,30.14,9.79-.58,20.35-11.71,31.29-30.52l28.41-3.84Zm-76.21,45.69c-3.07-1.15-4.61-3.84-4.61-8.64,0-5.18,2.11-8.45,5.37-9.98-.38-8.06-2.5-11.13-7.29-11.13-13.63,0-24.95,35.13-24.95,53.94,0,12.67,2.5,15.55,9.79,15.55,9.41,0,18.81-17.28,21.69-39.74Z" style="fill:#f2e863; stroke-width:0px;"/></svg>