<?xml version="1.0" encoding="UTF-8"?><svg id="a" xmlns="http://www.w3.org/2000/svg" xmlns:xlink="http://www.w3.org/1999/xlink" viewBox="0 0 1536 1024"><defs><filter id="b" filterUnits="userSpaceOnUse"><feOffset dx="7.45" dy="7.45"/><feGaussianBlur result="c" stdDeviation="0"/><feFlood flood-color="#000" flood-opacity="1"/><feComposite in2="c" operator="in"/><feComposite in="SourceGraphic"/></filter></defs><g style="filter:url(#b);"><path d="m98.98,449.16v-3.49c4.78,0,7.17-1.16,7.17-3.49v-87.96c0-2.33-2.39-3.49-7.17-3.49v-3.49h68.2c12.4,0,22.15,2.29,29.26,6.88,7.1,4.59,10.66,12.37,10.66,23.35s-3.55,18.76-10.66,23.35c-7.11,4.59-16.86,6.88-29.26,6.88h-38.94v34.49c0,2.32,2.06,3.49,6.2,3.49v3.49h-35.46Zm70.53-59.29c4.26,0,7.91-.84,10.95-2.52,3.03-1.68,4.55-4.97,4.55-9.88s-1.52-8.2-4.55-9.88c-3.04-1.68-6.68-2.52-10.95-2.52h-41.27v24.8h41.27Z" style="fill:#fff; stroke:#000; stroke-miterlimit:10; stroke-width:2.48px;"/><path d="m256.31,363.91v3.49c-2.97,0-4.46.97-4.46,2.91v64.52h52.31c1.55,0,2.84-.35,3.88-1.07,1.03-.71,1.55-1.71,1.55-3h3.49v20.34h-3.49c0-1.04-.52-1.62-1.55-1.74-1.04-.13-2.32-.19-3.88-.19h-75.95v-3.49c3.36,0,5.04-.97,5.04-2.91v-72.46c0-1.94-1.68-2.91-5.04-2.91v-3.49h28.09Z" style="fill:#fff; stroke:#000; stroke-miterlimit:10; stroke-width:2.48px;"/><path d="m324.12,445.67c1.55-.26,2.81-1,3.78-2.23.97-1.23,1.71-2.36,2.23-3.39l28.87-62.97c.77-1.81,1.39-3.26,1.84-4.36.45-1.1.68-2.16.68-3.2,0-.78-.16-1.26-.48-1.45-.32-.19-.68-.42-1.07-.68v-3.49h29.26v3.49c-.39.26-.81.45-1.26.58-.45.13-.68.65-.68,1.55,0,.77.29,1.71.87,2.81.58,1.1,1.19,2.36,1.84,3.78l31.39,65.88c.64,1.16,1.36,2,2.13,2.52.77.52,1.61.91,2.52,1.16v3.49h-27.51v-2.91c.64,0,1.32-.19,2.03-.58.71-.39,1.07-1.1,1.07-2.13,0-.77-.13-1.48-.39-2.13-.26-.64-.58-1.48-.97-2.52l-5.23-11.04h-41.46l-5.42,10.46c-.52,1.04-.94,1.97-1.26,2.81-.32.84-.48,1.58-.48,2.23,0,1.04.32,1.68.97,1.94.64.26,1.55.39,2.71.39v3.49h-25.96v-3.49Zm64.71-32.16l-15.69-32.55-13.76,32.55h29.45Z" style="fill:#fff; stroke:#000; stroke-miterlimit:10; stroke-width:2.48px;"/><path d="m444.63,445.67c2.33,0,3.49-.97,3.49-2.91v-72.46c0-1.94-1.16-2.91-3.49-2.91v-3.49h28.48v3.49c-.9.13-1.36.45-1.36.97,0,.65,1.42,2.39,4.26,5.23l46.5,49.21v-52.51c0-1.94-1.29-2.91-3.88-2.91v-3.49h23.64v3.49c-2.32,0-3.49.97-3.49,2.91v72.46c0,1.94,1.16,2.91,3.49,2.91v3.49h-25.19v-3.49c.9,0,1.36-.32,1.36-.97,0-.51-.61-1.42-1.84-2.71-1.23-1.29-2.62-2.78-4.17-4.46l-48.05-51.15v56.38c0,1.94,1.36,2.91,4.07,2.91v3.49h-23.83v-3.49Z" style="fill:#fff; stroke:#000; stroke-miterlimit:10; stroke-width:2.48px;"/><path d="m648.85,381.92c0-2.45-2-3.68-6.01-3.68h-47.28v19.38h29.84c2.19,0,3.81-.16,4.84-.48,1.03-.32,1.55-1.19,1.55-2.62h3.49v20.54h-3.88c.39-1.42-.13-2.29-1.55-2.62-1.42-.32-3.42-.48-6.01-.48h-28.29v22.86h49.6c1.55,0,2.84-.35,3.88-1.07,1.03-.71,1.55-1.65,1.55-2.81h3.49v20.34h-3.49c0-1.16-.52-1.81-1.55-1.94-1.04-.13-2.33-.19-3.88-.19h-71.11v-3.49c.65,0,1.29-.22,1.94-.68.65-.45.97-1.19.97-2.23v-72.46c0-1.03-.32-1.77-.97-2.23-.65-.45-1.29-.68-1.94-.68v-3.49h68.78c4,0,6.01-1.16,6.01-3.49h3.49v21.51h-3.49Z" style="fill:#fff; stroke:#000; stroke-miterlimit:10; stroke-width:2.48px;"/><path d="m674.23,423l2.71.97c0,.91.03,1.91.1,3,.06,1.1.42,2.03,1.07,2.81.9,1.42,3.2,2.81,6.88,4.17,3.68,1.36,7.91,2.04,12.69,2.04,5.55,0,9.72-.87,12.5-2.62,2.78-1.74,4.17-5.26,4.17-10.56v-50.57c0-1.42-.58-2.58-1.74-3.49-1.16-.9-2.2-1.36-3.1-1.36v-3.49h28.87v3.49c-1.29,0-2.52.45-3.68,1.36-1.16.91-1.74,2.07-1.74,3.49v52.89c0,4.65-.91,8.59-2.71,11.82-1.81,3.23-4.3,5.81-7.46,7.75-3.17,1.94-6.91,3.26-11.24,3.97-4.33.71-9.01,1.07-14.05,1.07-2.84,0-5.62-.23-8.33-.68-2.71-.45-5.23-1.03-7.56-1.74-2.33-.71-4.39-1.36-6.2-1.94-1.81-.58-3.29-.87-4.46-.87-1.04,0-1.81.23-2.33.68-.52.45-1.1,1-1.74,1.65l-1.74-1.55,9.11-22.28Z" style="fill:#fff; stroke:#000; stroke-miterlimit:10; stroke-width:2.48px;"/><path d="m754.82,445.67c1.55-.26,2.81-1,3.78-2.23.97-1.23,1.71-2.36,2.23-3.39l28.87-62.97c.77-1.81,1.39-3.26,1.84-4.36.45-1.1.68-2.16.68-3.2,0-.78-.16-1.26-.48-1.45-.32-.19-.68-.42-1.07-.68v-3.49h29.26v3.49c-.39.26-.81.45-1.26.58-.45.13-.68.65-.68,1.55,0,.77.29,1.71.87,2.81.58,1.1,1.19,2.36,1.84,3.78l31.39,65.88c.64,1.16,1.36,2,2.13,2.52.77.52,1.61.91,2.52,1.16v3.49h-27.51v-2.91c.64,0,1.32-.19,2.03-.58.71-.39,1.07-1.1,1.07-2.13,0-.77-.13-1.48-.39-2.13-.26-.64-.58-1.48-.97-2.52l-5.23-11.04h-41.46l-5.42,10.46c-.52,1.04-.94,1.97-1.26,2.81-.32.84-.48,1.58-.48,2.23,0,1.04.32,1.68.97,1.94.64.26,1.55.39,2.71.39v3.49h-25.96v-3.49Zm64.71-32.16l-15.69-32.55-13.76,32.55h29.45Z" style="fill:#fff; stroke:#000; stroke-miterlimit:10; stroke-width:2.48px;"/><path d="m877.66,445.67c.64-.13,1.19-.39,1.65-.78.45-.39.68-1.29.68-2.71v-70.91c0-1.81-.16-2.91-.48-3.29-.32-.39-.94-.58-1.84-.58v-3.49h26.93v3.49c-1.29,0-1.94.58-1.94,1.74,0,.52.22,1.2.68,2.03.45.84,1.13,2.03,2.03,3.58l23.64,43.59,23.83-43.4c.9-1.55,1.61-2.81,2.13-3.78.51-.97.77-1.65.77-2.03,0-1.16-.52-1.74-1.55-1.74v-3.49h27.32v3.49c-.65,0-1.26.16-1.84.48-.58.32-.87,1-.87,2.04v72.85c0,1.04.29,1.78.87,2.23.58.45,1.19.68,1.84.68v3.49h-22.48v-3.49c2.71,0,3.88-.97,3.49-2.91v-54.44h-.39l-32.94,60.84h-1.55l-31.19-60.84h.19-.39v54.44c0,1.94,1.1,2.91,3.29,2.91v3.49h-21.89v-3.49Z" style="fill:#fff; stroke:#000; stroke-miterlimit:10; stroke-width:2.48px;"/><path d="m1090.21,381.92c0-2.45-2-3.68-6.01-3.68h-47.28v19.38h29.84c2.19,0,3.81-.16,4.84-.48,1.03-.32,1.55-1.19,1.55-2.62h3.49v20.54h-3.88c.39-1.42-.13-2.29-1.55-2.62-1.42-.32-3.42-.48-6.01-.48h-28.29v22.86h49.6c1.55,0,2.84-.35,3.88-1.07,1.03-.71,1.55-1.65,1.55-2.81h3.49v20.34h-3.49c0-1.16-.52-1.81-1.55-1.94-1.04-.13-2.33-.19-3.88-.19h-71.11v-3.49c.65,0,1.29-.22,1.94-.68.65-.45.97-1.19.97-2.23v-72.46c0-1.03-.32-1.77-.97-2.23-.65-.45-1.29-.68-1.94-.68v-3.49h68.78c4,0,6.01-1.16,6.01-3.49h3.49v21.51h-3.49Z" style="fill:#fff; stroke:#000; stroke-miterlimit:10; stroke-width:2.48px;"/><path d="m1122.95,445.67c2.33,0,3.49-.97,3.49-2.91v-72.46c0-1.94-1.16-2.91-3.49-2.91v-3.49h28.48v3.49c-.9.13-1.36.45-1.36.97,0,.65,1.42,2.39,4.26,5.23l46.5,49.21v-52.51c0-1.94-1.29-2.91-3.88-2.91v-3.49h23.64v3.49c-2.32,0-3.49.97-3.49,2.91v72.46c0,1.94,1.16,2.91,3.49,2.91v3.49h-25.19v-3.49c.9,0,1.36-.32,1.36-.97,0-.51-.61-1.42-1.84-2.71-1.23-1.29-2.62-2.78-4.17-4.46l-48.05-51.15v56.38c0,1.94,1.36,2.91,4.07,2.91v3.49h-23.83v-3.49Z" style="fill:#fff; stroke:#000; stroke-miterlimit:10; stroke-width:2.48px;"/><path d="m1272.72,445.67c.65,0,1.29-.22,1.94-.68.65-.45.97-1.19.97-2.23v-64.52h-25.19c-1.04,0-2,.26-2.91.77-.91.52-1.36,1.36-1.36,2.52h-3.49v-22.28h3.49c0,1.81.45,3.04,1.36,3.68.9.65,1.87.97,2.91.97h68.98c1.03,0,2-.32,2.91-.97.9-.64,1.36-1.87,1.36-3.68h3.49v22.28h-3.49c0-1.16-.45-2-1.36-2.52-.91-.51-1.87-.77-2.91-.77h-25.19v64.52c0,1.94,1.16,2.91,3.49,2.91v3.49h-24.99v-3.49Z" style="fill:#fff; stroke:#000; stroke-miterlimit:10; stroke-width:2.48px;"/><path d="m1392.46,362.74c7.1,0,13.79.91,20.05,2.71,6.26,1.81,11.72,4.52,16.37,8.14,4.65,3.62,8.33,8.17,11.04,13.66,2.71,5.49,4.07,11.92,4.07,19.28s-1.36,13.79-4.07,19.28c-2.71,5.49-6.39,10.04-11.04,13.66-4.65,3.62-10.11,6.23-16.37,7.85-6.27,1.62-12.95,2.42-20.05,2.42s-13.79-.8-20.05-2.42c-6.27-1.61-11.72-4.23-16.37-7.85-4.65-3.62-8.33-8.17-11.04-13.66-2.71-5.49-4.07-11.92-4.07-19.28s1.36-13.79,4.07-19.28c2.71-5.49,6.39-10.04,11.04-13.66,4.65-3.61,10.11-6.33,16.37-8.14,6.26-1.81,12.95-2.71,20.05-2.71Zm0,14.34c-4.14,0-8.17.68-12.11,2.04-3.94,1.36-7.46,3.29-10.56,5.81-3.1,2.52-5.59,5.59-7.46,9.2-1.87,3.62-2.81,7.75-2.81,12.4s.94,8.79,2.81,12.4c1.87,3.62,4.36,6.68,7.46,9.2,3.1,2.52,6.62,4.46,10.56,5.81,3.94,1.36,7.97,2.04,12.11,2.04s8.17-.68,12.11-2.04c3.94-1.36,7.46-3.29,10.56-5.81,3.1-2.52,5.59-5.58,7.46-9.2,1.87-3.61,2.81-7.75,2.81-12.4s-.94-8.78-2.81-12.4c-1.87-3.62-4.36-6.68-7.46-9.2-3.1-2.52-6.62-4.46-10.56-5.81-3.94-1.36-7.98-2.04-12.11-2.04Z" style="fill:#fff; stroke:#000; stroke-miterlimit:10; stroke-width:2.48px;"/><path d="m446.57,513.68c-2.84,0-4.26,1.16-4.26,3.49v58.13c0,8.14,2.62,13.73,7.85,16.76,5.23,3.04,12.88,4.55,22.96,4.55s17.73-1.52,22.96-4.55c5.23-3.03,7.85-8.62,7.85-16.76v-58.13c0-2.33-1.94-3.49-5.81-3.49v-3.49h31v3.49c-3.1,0-4.65,1.16-4.65,3.49v57.16c0,7.62-1.1,13.92-3.29,18.89-2.2,4.97-5.49,8.95-9.88,11.92-4.39,2.97-9.85,4.97-16.37,6.01-6.52,1.03-14.05,1.55-22.57,1.55s-16.05-.52-22.57-1.55c-6.52-1.03-11.98-3.03-16.37-6.01-4.39-2.97-7.69-6.94-9.88-11.92-2.2-4.97-3.29-11.27-3.29-18.89v-57.16c0-2.33-1.81-3.49-5.43-3.49v-3.49h31.78v3.49Z" style="fill:#fff; stroke:#000; stroke-miterlimit:10; stroke-width:2.48px;"/><path d="m610.48,526.86c11.49,0,20.47,1.91,26.93,5.72,6.46,3.81,9.69,10.3,9.69,19.47,0,3.49-.65,6.59-1.94,9.3-1.29,2.71-3,5.07-5.13,7.07-2.13,2-4.49,3.62-7.07,4.84-2.59,1.23-5.23,2.17-7.94,2.81l18.99,27.71c1.03,1.42,2.16,2.49,3.39,3.2,1.23.71,2.55,1.26,3.97,1.65v3.49h-29.64v-3.49c1.68,0,2.52-.58,2.52-1.74,0-1.29-.97-3.29-2.91-6.01l-15.31-22.86h-26.93v27.71c0,1.04.42,1.78,1.26,2.23.84.45,1.65.68,2.42.68v3.49h-25.77v-3.49c2.32,0,3.49-.97,3.49-2.91v-72.46c0-1.94-1.16-2.91-3.49-2.91v-3.49h53.48Zm-.39,36.81c12.66,0,18.99-4,18.99-12.01,0-3.23-1.52-5.78-4.55-7.65-3.04-1.87-7.85-2.81-14.43-2.81h-30.61v22.47h30.61Z" style="fill:#fff; stroke:#000; stroke-miterlimit:10; stroke-width:2.48px;"/><path d="m678.29,533.25c0-1.03-.48-1.77-1.45-2.23-.97-.45-1.97-.68-3-.68v-3.49h60.26c4.91,0,9.14.58,12.69,1.74,3.55,1.16,6.52,2.75,8.91,4.75,2.39,2,4.17,4.3,5.33,6.88,1.16,2.58,1.74,5.3,1.74,8.14,0,2.33-.39,4.49-1.16,6.49-.78,2-1.78,3.81-3,5.42-1.23,1.62-2.59,3.07-4.07,4.36-1.49,1.29-3,2.32-4.55,3.1v.19c1.81.78,3.61,1.81,5.43,3.1,1.81,1.29,3.42,2.84,4.84,4.65,1.42,1.81,2.58,3.88,3.49,6.2.9,2.33,1.36,4.84,1.36,7.56,0,3.1-.58,6.01-1.74,8.72s-3,5.1-5.52,7.17c-2.52,2.07-5.81,3.71-9.88,4.94-4.07,1.23-8.95,1.84-14.63,1.84h-59.48v-3.49c1.03,0,2.03-.22,3-.68.97-.45,1.45-1.19,1.45-2.23v-72.46Zm53.09,27.32c3.1,0,6.01-.64,8.72-1.94,2.71-1.29,4.07-3.94,4.07-7.94,0-2.07-.39-3.71-1.16-4.94-.77-1.23-1.74-2.19-2.91-2.91-1.16-.71-2.52-1.16-4.07-1.36-1.55-.19-3.1-.29-4.65-.29h-34.49v19.38h34.49Zm-.39,37.2c5.94,0,10.01-.97,12.21-2.91,2.19-1.94,3.29-4.65,3.29-8.14,0-4-1.42-6.97-4.26-8.91-2.84-1.94-7.62-2.91-14.34-2.91h-31v22.86h34.1Z" style="fill:#fff; stroke:#000; stroke-miterlimit:10; stroke-width:2.48px;"/><path d="m781.56,608.62c1.55-.26,2.81-1,3.78-2.23.97-1.23,1.71-2.36,2.23-3.39l28.87-62.97c.77-1.81,1.39-3.26,1.84-4.36.45-1.1.68-2.16.68-3.2,0-.78-.16-1.26-.48-1.45-.32-.19-.68-.42-1.07-.68v-3.49h29.26v3.49c-.39.26-.81.45-1.26.58-.45.13-.68.65-.68,1.55,0,.77.29,1.71.87,2.81.58,1.1,1.19,2.36,1.84,3.78l31.39,65.88c.64,1.16,1.36,2,2.13,2.52.77.52,1.61.91,2.52,1.16v3.49h-27.51v-2.91c.64,0,1.32-.19,2.03-.58.71-.39,1.07-1.1,1.07-2.13,0-.77-.13-1.48-.39-2.13-.26-.64-.58-1.48-.97-2.52l-5.23-11.04h-41.46l-5.42,10.46c-.52,1.04-.94,1.97-1.26,2.81-.32.84-.48,1.58-.48,2.23,0,1.04.32,1.68.97,1.94.64.26,1.55.39,2.71.39v3.49h-25.96v-3.49Zm64.71-32.16l-15.69-32.55-13.76,32.55h29.45Z" style="fill:#fff; stroke:#000; stroke-miterlimit:10; stroke-width:2.48px;"/><path d="m902.07,608.62c2.33,0,3.49-.97,3.49-2.91v-72.46c0-1.94-1.16-2.91-3.49-2.91v-3.49h28.48v3.49c-.9.13-1.36.45-1.36.97,0,.65,1.42,2.39,4.26,5.23l46.5,49.21v-52.51c0-1.94-1.29-2.91-3.88-2.91v-3.49h23.64v3.49c-2.32,0-3.49.97-3.49,2.91v72.46c0,1.94,1.16,2.91,3.49,2.91v3.49h-25.19v-3.49c.9,0,1.36-.32,1.36-.97,0-.51-.61-1.42-1.84-2.71-1.23-1.29-2.62-2.78-4.17-4.46l-48.05-51.15v56.38c0,1.94,1.36,2.91,4.07,2.91v3.49h-23.83v-3.49Z" style="fill:#fff; stroke:#000; stroke-miterlimit:10; stroke-width:2.48px;"/><path d="m1074.71,525.69c7.1,0,13.79.91,20.05,2.71,6.26,1.81,11.72,4.52,16.37,8.14,4.65,3.62,8.33,8.17,11.04,13.66,2.71,5.49,4.07,11.92,4.07,19.28s-1.36,13.79-4.07,19.28c-2.71,5.49-6.39,10.04-11.04,13.66-4.65,3.62-10.11,6.23-16.37,7.85-6.27,1.62-12.95,2.42-20.05,2.42s-13.79-.8-20.05-2.42c-6.27-1.61-11.72-4.23-16.37-7.85-4.65-3.62-8.33-8.17-11.04-13.66-2.71-5.49-4.07-11.92-4.07-19.28s1.36-13.79,4.07-19.28c2.71-5.49,6.39-10.04,11.04-13.66,4.65-3.61,10.11-6.33,16.37-8.14,6.26-1.81,12.95-2.71,20.05-2.71Zm0,14.34c-4.14,0-8.17.68-12.11,2.04-3.94,1.36-7.46,3.29-10.56,5.81-3.1,2.52-5.59,5.59-7.46,9.2-1.87,3.62-2.81,7.75-2.81,12.4s.94,8.79,2.81,12.4c1.87,3.62,4.36,6.68,7.46,9.2,3.1,2.52,6.62,4.46,10.56,5.81,3.94,1.36,7.97,2.04,12.11,2.04s8.17-.68,12.11-2.04c3.94-1.36,7.46-3.29,10.56-5.81,3.1-2.52,5.59-5.58,7.46-9.2,1.87-3.61,2.81-7.75,2.81-12.4s-.94-8.78-2.81-12.4c-1.87-3.62-4.36-6.68-7.46-9.2-3.1-2.52-6.62-4.46-10.56-5.81-3.94-1.36-7.98-2.04-12.11-2.04Z" style="fill:#fff; stroke:#000; stroke-miterlimit:10; stroke-width:2.48px;"/></g></svg>