<?xml version="1.0" encoding="UTF-8"?><svg id="a" xmlns="http://www.w3.org/2000/svg" viewBox="0 0 1536 1024"><path d="m597.74,340.7c3.22-.02,5.63.75,7.24,2.34,1.61,1.59,2.84,3.61,3.7,6.05.86,2.44,1.34,4.96,1.45,7.53.11,2.57.16,4.72.16,6.42v6.94c-1.29,5.64-3.49,10.8-6.59,15.49-3.11,4.69-7.13,7.09-12.06,7.15-3.22.04-6.65-1.1-10.29-3.44-3.64-2.34-7.72-3.6-12.22-3.78-4.72-.19-9.33,1.44-13.83,4.87-4.5,3.43-8.58,7.46-12.22,12.1-3.64,4.64-6.59,9.33-8.84,14.12-2.25,4.79-3.38,8.57-3.38,11.4v23.25c0,2.8.43,7.66,1.29,14.53.86,6.87,2.25,13.97,4.18,21.26,1.93,7.3,4.45,13.82,7.56,19.52,3.11,5.7,7.02,8.73,11.74,9.01,2.57-.93,3.86-1.41,6.44-2.41,4.93.16,9.54-.47,13.83-1.81,4.29-1.34,8.25-4.05,11.9-8.09,4.71-6.11,9.22-11.07,13.51-14.85,1.29-1.24,2.79-2.18,4.5-2.82,1.71-.64,3.22-1.04,4.5-1.2.43.39.96.99,1.61,1.78,1.29,1.6,1.93,3.04,1.93,4.36,0,4.83-1.72,10.6-5.15,17.29-3.43,6.69-7.56,13.13-12.38,19.25-4.82,6.11-9.76,11.34-14.79,15.63-5.04,4.29-9.17,6.42-12.38,6.49-1.03.02-1.54.03-2.57.04-3.01.69-5.86,1.42-8.36,1.89-2.27.43-4.62.7-6.76,1-2.14.3-3.65.39-4.5.32-1.72-.15-4.13-1.16-7.24-3.11-3.11-1.95-6.38-4.29-9.81-7.04-3.43-2.75-6.54-5.65-9.33-8.66-2.79-3.01-4.5-5.53-5.15-7.5-.86-.9-1.99-3.39-3.38-7.48-1.4-4.09-2.79-8.66-4.18-13.69-1.39-5.03-2.57-9.96-3.54-14.78-.96-4.82-1.45-8.37-1.45-10.63v-10.56c-.64-1.56-1.29-3.01-1.93-4.35-1.07-2.61-1.73-4.85-1.61-6.31.2-2.41,1.04-5.1,1.61-7.39.46-1.87.86-3.99,1.29-6.16.43-2.17.64-3.96.64-5.34v-7.61c0-.69-.21-1.62-.64-2.77-.43-1.16-.81-2.48-1.29-3.65-.52-1.28-1.18-2.75-1.61-4.26,1.42-3.9,2.12-5.87,3.54-9.85v-6.64c1.71-3.54,3.32-6.81,4.82-9.78,1.29-2.54,2.63-4.97,4.02-7.31,1.39-2.33,3.24-4.14,3.7-5,1.38-2.63,2.25-8.19,4.82-11.39,2.58-3.2,5.63-6.13,9.17-8.83,3.54-2.7,7.34-5.2,11.42-7.51,4.07-2.3,8.15-4.68,12.22-7.13,2.36-.33,4.74-.84,7.08-1.42,1.69-.42,3.49-.81,5.31-1.22,1.82-.42,3.06-.62,3.7-.59,2.57.1,3.86.14,6.43.21,4.89.14,7.33.18,12.22.22,3.99-1.61,5.98-2.44,9.97-4.11Z" style="stroke-width:0px;"/><path d="m688.11,361.41c3-1.02,6.7-2.19,11.1-3.52,4.39-1.33,8.09-1.9,11.1-1.73,3.22-1.17,5.31-.68,6.27,1.45.97,2.13,2.2,4.45,3.7,6.95.85.49,1.88,1.21,3.06,2.16,1.18.95,2.25,1.99,3.22,3.11.97,1.12,1.77,2.35,2.41,3.68.64,1.34.96,2.6.96,3.8-1.03,11.13-1.54,16.7-2.57,27.81,0,5.57-1.29,12.33-3.86,20.36-2.57,8.03-6.33,16-11.25,23.9-1.72,2.48-2.95,4.85-3.7,7.13-.75,2.28-1.5,4.61-2.25,6.99-.75,2.39-1.61,4.86-2.57,7.45-.97,2.59-2.3,5.37-4.02,8.2-1.25,2.05-2.74,4.5-4.34,7.32-1.61,2.81-3.32,5.73-5.14,8.75-1.82,3.01-3.75,5.89-5.79,8.59-2.04,2.71-4.13,5-6.27,6.85-3.22,3.18-5.9,5.86-8.04,8.07-2.15,2.22-4.08,4.11-5.79,5.7-1.72,1.59-3.49,2.95-5.31,4.07-1.83,1.12-3.81,2.16-5.95,3.09-3.22,1.41-6.22,2.01-9.01,1.47-2.79-.54-5.2-1.7-7.24-3.47-2.03-1.77-3.7-4.01-4.99-6.68-1.28-2.67-1.93-5.6-1.93-8.74v-21.27c0-1.29-.43-2.38-1.28-3.29-.85-.91-1.2-3.93-1.29-8.85-.1-6.16,1.29-14.2,4.5-23.78,3.22-9.58,7.02-19.13,11.42-28.64,4.39-9.51,8.79-19.14,13.18-27.57,4.39-8.42,7.77-13.81,10.13-16.21,2.36-2.38,4.34-4.82,5.95-7.27,1.61-2.45,3.16-4.72,4.66-6.8,1.5-2.07,3.05-3.88,4.66-5.43,1.61-1.54,3.7-2.75,6.27-3.62Zm1.61,36.51c-3.43,1.39-6.92,4.23-10.46,8.56-3.54,4.33-6.81,9.01-9.81,14-3.01,5-5.68,9.88-8.04,14.61-2.36,4.74-3.97,8.15-4.82,10.22-1.29,5.45-1.93,8.16-3.22,13.57-.86,3.35-1.56,6.52-2.09,9.49-.54,2.98-.8,4.78-.8,5.42v6.01c.85.28,1.61,1.23,2.25,2.84.64,1.61,1.45,3.15,2.41,4.6.97,1.46,2.09,2.63,3.38,3.5,1.29.88,3.11.79,5.47-.27,4.28-3.77,8.33-7.45,11.9-11.01,3-2.98,5.95-6.19,8.85-9.42,2.89-3.23,5-6.08,5.95-8.38,1.36-3.3,2.73-7.54,4.34-12.2,1.61-4.65,3.16-9.08,4.66-13.28-.43-1.43.05-3.3,1.45-5.6,1.39-2.29,2.09-4.16,2.09-5.6v-8.64c0-1.03-.27-2.71-.81-5.06-.53-2.35-1.4-4.67-2.57-6.99-1.18-2.31-2.63-4.17-4.34-5.57-1.71-1.4-3.65-1.68-5.79-.82Z" style="stroke-width:0px;"/><path d="m847.95,218.32c6.22-.17,10.13.86,11.74,3.03,1.61,2.17,2.41,4.64,2.41,7.52v3.58c0,1.77-.97,3.77-2.9,6.08-1.93,2.31-4.29,4.59-7.07,6.83-2.79,2.25-5.74,4.32-8.85,6.2-3.11,1.88-5.74,3.06-7.88,3.45-2.79.51-5.15.65-7.08.41-1.93-.25-3.75-.22-5.47.08-4.5.81-9.17,2.66-13.99,5.7-4.82,3.04-7.44,8.13-9.16,12.34-1.1,2.68-2.52,5.38-2.41,7.29.11,1.92-.27,4.01-1.13,6.29-1.93,4.11-3.91,9.38-5.95,15.87-2.04,6.5-3.05,12.39-3.05,17.51,0,.53-.16,1.48-.48,2.83-.32,1.36-.72,2.85-1.13,4.41-.45,1.74-.86,3.63-1.29,5.58v8.31c-1.8,9.44-2.7,14.21-4.5,23.86.43,2.34.37,5.31-.16,8.93-.54,3.62-1.34,7.88-2.41,12.79-1.07,4.92-2.14,10.24-3.22,15.95-1.07,5.71-1.83,11.56-2.25,17.52,0,1.11.27,2.76.81,4.96.54,2.2,1.55,2.87,3.05,2.04,1.93-1.08,4.02-2.79,6.27-5.14,2.25-2.34,4.45-4.92,6.59-7.72,2.14-2.8,4.34-5.7,6.6-8.7,2.25-3,4.34-5.71,6.27-8.14,4.07-5.51,8.25-10.68,12.54-15.53,4.29-4.84,8.47-8.21,12.55-10.19.77.44,1.16.65,1.93,1.09,0,1.86-.64,4.33-1.93,7.44-1.29,3.11-2.9,6.45-4.83,10.03-1.93,3.58-4.08,7.14-6.43,10.66-2.36,3.53-4.61,6.5-6.75,8.9-4.29,4.81-7.77,9.77-10.45,14.86-2.68,5.1-6.27,10.84-10.77,17.27-1.5,3.6-3.81,7.19-6.92,10.75-3.11,3.57-6.16,7.21-9.16,10.24-2.99,3.01-7.13,6.78-11.74,11.29-4.61,4.51-8.52,7.74-11.74,9.64-2.36,1.4-4.02,2.05-4.99,1.95s-1.56-.74-1.77-1.94c-.21-1.2-.16-2.94.16-5.21.32-2.27.48-4.93.48-7.97v-18.3c0-2.67.59-5.68,1.77-9.01,1.18-3.32,1.77-6.22,1.77-8.71v-5.74c0,1.53.21.7.64-2.5.43-3.19.97-7.88,1.61-14.06.64-6.17,1.18-13.39,1.61-21.67.43-8.27.64-16.83.64-25.7,0-1.16.59-3.1,1.77-5.81,1.18-2.71,1.77-4.72,1.77-6.07v-10.37c1.29-6.07,2.25-11.88,2.89-17.46.64-5.58,1.29-11.05,1.93-16.4.64-5.35,1.5-10.79,2.57-16.3,1.07-5.5,3.11-11.33,5.15-16.94,1.86-5.13,4.5-10.82,8.36-16.04,3.86-5.21,7.29-10.54,10.29-15.99,1.5-2.46,3.16-4.72,4.99-6.79,1.82-2.06,4.13-3.79,6.92-5.18,3-4.07,7.13-7.29,12.38-9.64,5.25-2.35,10.34-3.48,15.27-3.62,9.65-.27,14.47-.4,24.12-.66Z" style="stroke-width:0px;"/><path d="m888.15,290.17c3-.89,6.7-.82,11.1-1.06,4.39-.24,8.09-.04,11.09.54,3.22-.22,5.31.44,6.27,1.97.97,1.53,2.2,3.24,3.7,5.15.85.48,1.88,1.16,3.06,2.02,1.18.86,2.25,1.78,3.22,2.73.97.95,1.77,1.95,2.41,2.99.64,1.04.96,1.97.96,2.79-1.03,7.29-1.54,11.03-2.57,18.68,0,3.97-1.29,8.51-3.86,13.78-2.57,5.27-6.33,10.32-11.25,15.29-1.72,1.52-2.95,3.09-3.7,4.71-.75,1.62-1.5,3.29-2.25,5.01-.75,1.73-1.61,3.53-2.57,5.42-.97,1.89-2.3,3.89-4.02,5.87-1.25,1.44-2.74,3.19-4.34,5.26-1.61,2.07-3.33,4.24-5.15,6.52-1.82,2.28-3.75,4.84-5.79,7.17-2.04,2.33-4.13,4.32-6.27,5.97-3.22,2.82-5.9,5.27-8.04,7.31-2.15,2.05-4.08,3.84-5.79,5.36-1.72,1.53-3.49,2.88-5.31,4.04-1.83,1.17-3.81,2.29-5.95,3.38-3.22,1.64-6.22,2.58-9.01,2.81-2.79.23-5.21-.12-7.24-1.05-2.03-.93-3.7-2.33-4.99-4.18-1.28-1.85-1.93-4.09-1.93-6.71,0-7.01,0-10.49,0-17.4,0-1.03-.43-1.76-1.28-2.17-.85-.42-1.2-2.69-1.29-6.54-.11-4.74,1.29-11.58,4.5-19.95,3.22-8.38,7.02-16.72,11.42-24.92,4.39-8.2,8.79-15.42,13.18-21.74,4.39-6.31,7.77-10.25,10.13-12.1,2.36-1.84,4.34-3.64,5.95-5.4,1.61-1.75,3.16-3.36,4.66-4.83,1.5-1.46,3.05-2.75,4.66-3.87,1.61-1.12,3.7-2.06,6.27-2.82Zm1.61,23.6c-3.43.47-6.92,3.29-10.46,6.59-3.54,3.3-6.81,6.88-9.81,10.73-3.01,3.86-5.68,7.68-8.04,11.42-2.36,3.74-3.97,6.48-4.82,8.13-1.29,4.21-1.93,6.33-3.22,10.63-.86,2.67-1.56,5.21-2.09,7.59-.54,2.39-.8,3.85-.8,4.34v4.74c.85.09,1.61.73,2.25,1.93.64,1.2,1.45,2.31,2.41,3.36.97,1.05,2.09,1.85,3.38,2.41,1.29.56,3.11.28,5.47-.82,4.28-3.51,8.31-6.79,11.9-9.88,3-2.58,5.95-5.29,8.85-7.95,2.89-2.67,5-4.89,5.95-6.54,1.34-2.34,2.73-5.46,4.34-8.75,1.61-3.29,3.16-6.34,4.66-9.19-.43-1.14.05-2.44,1.45-3.88,1.39-1.43,2.09-2.66,2.09-3.7v-6.22c0-.73-.27-1.98-.81-3.73-.53-1.75-1.4-3.52-2.57-5.32-1.18-1.8-2.63-3.3-4.34-4.51-1.71-1.21-3.65-1.68-5.79-1.38Z" style="stroke-width:0px;"/><path d="m983.66,286.98c2.31-.02,3.91.26,4.66.96.75.7,2.6,1.53,5.31,2.62,2.33.94,4.39,2.15,6.11,3.39,1.72,1.25,2.77,2.85,2.58,4.03-.09.54-.44,1.32-.64,2.07-.44,1.63-.22,3.31.64,5.01,0,1.19-.38,2.56-1.13,4.11-.75,1.56-.98,3.1-.48,4.02.3.56,1.07,1.22,1.93,1.88.64.5,1.34.97,2.09,1.42s1.45.6,2.09.43c2.14.08,4.45-.8,6.92-2.64,2.46-1.84,4.88-3.93,7.24-6.29,2.36-2.35,4.72-4.63,7.08-6.83,2.36-2.19,4.5-3.56,6.43-4.09,3.99.22,5.98.36,9.97.67,1.28.04,2.73.33,4.34.88,1.61.55,2.84.95,3.7,1.19,4.07,2.65,6.65,5.61,7.72,8.76,1.07,3.14,1.97,5.71,2.25,7.36.34,1.94-.81,4.47-3.06,7.03-2.25,2.56-5.09,4.32-8.52,5.34-1.5.08-2.9.09-4.18.04-1.29-.05-2.57-.13-3.86-.24-1.07-.32-1.88-.6-2.41-.82-.53-.23-1.25-.64-2.09-1.13-1.03-.6-2.09-1.04-3.05-1.37-.97-.33-2.09-.66-3.38-.99-2.79-.72-5.42-.65-7.88.16-2.47.81-4.88,1.73-7.24,2.75-3.65,2.13-6.49,4.87-8.52,8.16-2.04,3.29-2.29,8.57-3.05,9.78-.42.66-3.27,1.66-5.31,2.82-2.04,1.17-3.57,2.81-4.66,4.52-1.15,1.78-1.88,3.8-1.77,5.95.11,2.15-.48,4.16-1.77,6.03.21,1.75.21,3.74,0,5.96-.21,2.23-.59,4.56-1.12,6.99-.54,2.44-1.23,4.77-2.09,6.98-.86,2.22-1.83,5-2.89,5.91-.87.74-3.33,1.2-5.47,1.72-2.14.51-4.46.86-6.75,1.19-2.52.37-5.43.86-8.36,1.03-1.04.06-2.47-.52-4.18-1.66-.86-.57-1.61-1.15-2.25-1.72-1.8-2.47-2.7-3.7-4.5-6.14-.21-1.05,0-2.91.64-5.53.64-2.61,1.39-5.25,2.25-7.9.85-2.65,1.66-5,2.41-7.09.75-2.08,1.13-3.25,1.13-3.54,4.71-4.91,7.83-9.81,9.33-14.93,1.5-5.11,3.1-10.1,4.82-14.95-1.03-5.5-1.54-8.21-2.57-13.58-1.08-1.79-2.41-2.73-4.02-2.79-1.61-.06-3.3.06-4.98.25-3.36.38-5.9.89-7.4,1.63-1.5.74-2.79,1.53-3.86,2.36-1.07.83-2.25,1.64-3.54,2.42-1.28.78-3.66,1.51-6.75,1.77-1.64.14-2.79-.57-3.22-1.93-.43-1.36-.88-2.59-1.29-3.66-.45-1.19-.11-2.43.96-3.64,1.07-1.2,2.52-2.34,4.34-3.41,1.82-1.06,3.91-2.11,6.27-3.14,2.35-1.02,4.5-2.05,6.43-3.09,2.57-1.69,4.82-3.51,6.75-5.47,1.93-1.96,3.86-3.76,5.79-5.41,1.93-1.65,4.13-3.01,6.59-4.07,2.46-1.06,5.7-1.52,9.49-1.55Z" style="stroke-width:0px;"/><path d="m427.91,658.22c1.5.95,2.46,1.67,2.89,2.19.43.52,1.29,1.85,2.58,3.94,22.13,13.15,33.19,18.04,55.32,25.35,10.81,4.95,16.21,7.05,27.02,10.69,3.6.78,5.4,1.13,9.01,1.79,6,1.09,11.1,3.18,15.28,6.38,4.18,3.2,7.56,6.62,10.13,10.32,2.57,3.71,4.45,7.32,5.63,10.87,1.18,3.55,1.77,6.25,1.77,8.15,0,2.15-.27,4.52-.8,7.1-.54,2.58-1.61,5.08-3.22,7.48-1.61,2.41-4.02,4.53-7.24,6.36-3.22,1.83-7.51,2.95-12.86,3.32-.86-.08-2.04-.03-3.54.13-1.5.16-3.01.38-4.5.66-1.5.28-2.89.5-4.18.68-1.29.17-2.25.22-2.9.15-1.5-.17-3.59-.5-6.27-1.02-2.68-.52-5.36-1.26-8.04-2.21-2.68-.96-4.99-2.03-6.91-3.19-1.93-1.16-2.89-2.49-2.89-3.96,0-1.87.85-2.98,2.57-3.34,1.72-.36,3.91-.47,6.6-.35,2.68.12,5.57.19,8.68.2,3.11.01,6-.48,8.68-1.45,2.68-.97,4.88-2.79,6.59-5.44,1.71-2.64,2.57-6.52,2.57-11.71,0-.78-.11-1.67-.32-2.68-.21-1.01-.97-2.06-2.25-3.17-1.72-1.7-4.18-3.41-7.4-5.18-3.22-1.77-6.6-3.44-10.13-5.01-3.54-1.57-6.81-2.97-9.81-4.14-3.01-1.17-4.94-1.91-5.79-2.15-2.19-.6-3.28-.91-5.47-1.56-.86-.25-1.83-.33-2.9-.23-1.07.1-2.04.3-2.89.6-.86.3-1.45.76-1.77,1.38-.32.62-.16,1.31.48,2.08v37.5c0,4.81,0,7.21,0,11.97,1.42,3.94,2.12,5.88,3.54,9.7-.64,1.79-1.4,3.43-1.93,4.78-.47,1.2-.8,2.56-1.12,3.8-.32,1.24-.48,2.13-.48,2.67,0,3.76,1.61,6.28,4.82,7.51,3.22,1.23,6.7,1.98,10.46,2.28,3.75.3,7.24.67,10.45,1.09,3.22.42,4.82,1.59,4.82,3.52v1.99c0,.48-.32,1.1-.96,1.86-.64.76-1.4,1.52-2.25,2.28-.86.76-1.82,1.4-2.89,1.92-1.07.52-2.04.78-2.89.76-2.19-.04-3.28-.07-5.47-.11-1.72-.04-4.4-.43-8.04-1.23-3.65-.8-6.33-1.25-8.04-1.31-8.23-.27-12.35-.42-20.59-.75-.86-.03-2.63,0-5.31.11-2.68.11-5.63.29-8.85.54-3.21.25-6.33.44-9.33.57-3.01.12-5.26.16-6.76.1-2.36-.09-4.61-.22-6.75-.39-2.14-.17-4.02-.64-5.63-1.4-1.61-.77-2.95-1.85-4.02-3.24-1.07-1.39-1.61-3.44-1.61-6.11,0-1.24.05-2.71.16-4.38.1-1.68.54-3.22,1.29-4.62.75-1.39,1.88-2.51,3.38-3.33,1.5-.82,3.75-.97,6.75-.52,1.42,1.02,2.12,1.53,3.54,2.52,4.76.66,7.14.97,11.9,1.57,5.79.73,8.68-1.07,8.68-5.33,0-2.74,0-4.11,0-6.85,1.42-3.14,2.12-4.69,3.54-7.76-1.42-2-2.12-3.02-3.54-5.08.43-1.13,1.06-2.18,1.61-3.08.45-.74.86-1.63,1.29-2.44.43-.81.64-1.44.64-1.89,0-1.06-.59-2.65-1.77-4.8-1.18-2.15-1.77-3.87-1.77-5.1,0-.46.16-.8.48-1.02.32-.21.75-.55,1.29-1.01.53-.46.96-1.1,1.28-1.92.32-.82.48-2.15.48-3.98v-12.88c0-.92-.59-2.18-1.77-3.77-1.18-1.6-1.77-3.59-1.77-5.93v-6.57c0-1.56.53-3.14,1.61-4.71.64-.81,1.69-1.88,1.93-2.67.48-1.58-1.4-4.96-4.18-8-2.79-3.05-6.43-5.74-10.94-8.12-1.41-.75-2.12-1.13-3.54-1.9-.64-.35-1.93-1.22-3.86-2.65-1.93-1.43-3.97-3.08-6.11-4.97-2.15-1.89-4.02-3.8-5.63-5.71-1.61-1.9-2.41-3.42-2.41-4.48,0-1.6.48-2.69,1.45-3.28.97-.59,2.14-.85,3.54-.8,1.39.05,2.79.28,4.18.67,1.39.39,2.52.85,3.38,1.39Z" style="stroke-width:0px;"/><path d="m666.88,705.97c4.5-1.66,7.72-1.99,9.65-.89,1.93,1.09,2.89,3.25,2.89,6.41,0,.6-.32,2.04-.97,4.29-.64,2.24-1.45,4.75-2.41,7.49-.96,2.74-1.98,5.51-3.05,8.28-1.08,2.78-1.93,4.95-2.57,6.54,0,1.13-.11,2.32-.32,3.57-.21,1.25-.88,3.74-2.25,5.3-1.13,1.28-2.57,2.83-2.57,4.65v3.93c-.38,4.35-.58,6.49-.96,10.7v7.53c0,.38.05,1.05.16,1.97.11.93.32,1.85.64,2.74.32.89.91,1.63,1.77,2.19.85.57,2.03.75,3.54.54,1.8-1.94,2.7-2.94,4.5-4.96,1.29-.87,2.79-1.94,4.5-3.25,1.71-1.31,3.43-2.61,5.15-3.9,1.93-1.46,3.86-3.03,5.79-4.71,1.29-.26,2.36-.13,3.22.42.85.54,1.29,1.25,1.29,2.12-.52.79-.77,1.18-1.29,1.96-.86,1.3-1.72,2.3-2.57,3.01-1.5,3.08-3.43,5.77-5.79,8.08-2.36,2.31-4.93,4.51-7.72,6.59-2.79,2.08-5.63,4.12-8.52,6.11-2.9,1.99-5.63,4.13-8.2,6.39-2.83,2.34-4.25,3.47-7.08,5.61,0,.99-.59,2.03-1.77,3.07-1.18,1.05-2.57,1.85-4.18,2.43-1.61.58-3.33.83-5.14.78-1.83-.05-3.44-.65-4.34-1.77-1.32-1.63-1.93-3.71-1.93-5.56s.32-3.67.97-5.47c.64-1.8,1.28-3.53,1.93-5.2.64-1.67.97-3.3.97-4.89v-9.69c0-.59-.76-.97-2.25-1.16-.86-.09-1.61-.13-2.25-.11-.64.02-2.25,1.1-4.82,3.18-2.57,2.08-5.52,4.42-8.84,6.97-3.32,2.56-6.7,5.08-10.13,7.58-3.43,2.5-6.22,4.25-8.36,5.31-.64.42-1.67,1.04-3.05,1.82-1.39.79-2.89,1.55-4.5,2.27-1.61.73-3.38,1.37-5.31,1.94-1.93.57-3.65.85-5.15.84-3.01,0-5.47-.54-7.4-1.6-1.93-1.06-3.43-2.32-4.5-3.77-1.07-1.45-1.88-2.92-2.41-4.39-.53-1.47-.81-2.54-.81-3.2-.38-4.74-.58-7.16-.96-12.07,1.8-7.92,2.7-11.97,4.5-20.3,0-.36.32-1.18.97-2.49.64-1.3,1.5-2.73,2.57-4.28,1.07-1.55,2.31-3.08,3.7-4.6,1.39-1.51,2.84-2.76,4.34-3.74,6.22-3.3,12.22-7.51,18.01-12.75,2.79-2.42,5.47-4.26,8.04-5.45,2.57-1.2,5.15-2.19,7.72-2.98,2.57-.79,5.15-1.46,7.72-2.03,2.57-.56,5.47-1.55,8.68-3,1.29-.14,2.95-.76,4.99-1.91,2.04-1.15,3.91-2.27,5.63-3.35,3.6-.47,5.4-1.74,9.01-3,2.19-.76,3.28-1.15,5.47-1.93,2.44-1.67,3.67-2.51,6.11-4.22Zm-41.17,32.06c-3.79,2-7.51,4.63-10.93,7.25-3.43,2.62-6.43,5.17-9,7.69-2.58,2.52-4.61,4.83-6.11,6.95-1.5,2.12-2.25,3.77-2.25,4.95,0,.6-.11,1.7-.32,3.28-.21,1.59-.11,3.23.32,4.91.43,1.68,1.24,3.18,2.41,4.5,1.18,1.31,3.27,1.97,6.27,1.96,2.79-.01,6.06-1.34,9.81-4.07,3.75-2.73,7.29-5.87,10.61-9.49,3.32-3.61,6.11-7.08,8.36-10.35,2.25-3.27,3.38-5.28,3.38-5.93,0-.51.1-1.77.32-3.81.21-2.03.05-4-.48-5.87-.53-1.87-1.72-3.18-3.54-3.9-1.82-.72-4.99-.11-8.84,1.93Z" style="stroke-width:0px;"/><path d="m808.39,530.93c6.22-3.58,10.13-4.06,11.74-1.48,1.61,2.58,2.41,6.11,2.41,10.59v5.56c0,2.74-.97,6.2-2.9,10.37-1.93,4.17-4.29,8.34-7.07,12.47-2.79,4.14-5.74,7.96-8.85,11.47-3.11,3.52-5.74,5.84-7.88,6.99-2.79,1.5-5.15,2.39-7.08,2.68-1.93.28-3.75.9-5.47,1.84-4.5,2.46-9.17,6.25-13.99,11.29-4.82,5.04-7.43,11.4-9.16,16.55-1.14,3.39-2.52,6.5-2.41,8.53.11,2.04-.27,4.38-1.12,7-1.93,4.8-3.91,10.72-5.95,17.71-2.04,6.99-3.05,13.01-3.05,18.16,0,.53-.16,1.5-.48,2.88-.32,1.38-.72,2.89-1.13,4.47-.45,1.75-.86,3.64-1.29,5.57v8.18c-1.8,9.25-2.7,13.81-4.5,22.8.43,2.27.37,5.1-.16,8.44-.54,3.35-1.34,7.23-2.41,11.6-1.07,4.37-2.15,9.04-3.22,13.97-1.07,4.93-1.82,9.97-2.25,15.14,0,.98.27,2.54.81,4.66.53,2.12,1.55,3.08,3.05,2.84,1.93-.31,4.02-1.14,6.27-2.54,2.25-1.39,4.45-3.06,6.59-5.01,2.14-1.96,4.34-4.04,6.59-6.27,2.25-2.23,4.34-4.29,6.27-6.16,4.07-4.33,8.25-8.5,12.54-12.49,4.29-3.98,8.47-6.58,12.55-7.62.77.74,1.16,1.12,1.93,1.87,0,2.17-.64,4.85-1.93,7.99-1.29,3.14-2.9,6.38-4.83,9.68-1.93,3.3-4.08,6.4-6.43,9.29-2.36,2.89-4.61,5.15-6.75,6.79-4.29,3.29-7.77,6.9-10.45,10.83-2.68,3.93-6.27,7.96-10.77,11.96-1.5,2.71-3.81,4.96-6.92,6.74-3.11,1.78-6.26,3.6-9.16,4.78-2.98,1.21-7.14,2.48-11.74,4.04-4.61,1.57-8.52,2.31-11.74,2.36-2.36.04-4.02-.18-4.99-.65-.96-.47-1.56-1.19-1.77-2.16-.21-.97-.16-2.23.16-3.79.32-1.56.48-3.47.48-5.75v-13.75c0-2.02.59-4.13,1.77-6.38,1.18-2.24,1.77-4.35,1.77-6.29v-4.48c0,1.2.21.6.64-1.82.43-2.42.97-6,1.61-10.82.64-4.82,1.18-10.56,1.61-17.26.43-6.7.64-13.74.64-21.1,0-.96.59-2.57,1.77-4.86,1.18-2.29,1.77-4.02,1.77-5.16v-8.82c1.29-5.27,2.25-10.41,2.89-15.36.64-4.95,1.29-9.88,1.93-14.75.64-4.87,1.5-9.92,2.57-15.18,1.07-5.25,3.08-11.05,5.15-17.03,1.85-5.34,4.5-11.65,8.36-18.2,3.86-6.54,7.29-13.3,10.29-20.25,1.5-3.2,3.16-6.33,4.99-9.39,1.82-3.05,4.13-6.03,6.92-8.94,3-5.97,7.12-11.77,12.38-17.39,5.25-5.62,10.34-9.91,15.27-12.83,9.65-5.71,14.47-8.56,24.12-14.11Z" style="stroke-width:0px;"/><path d="m855.66,629.74c4.36-1.43,8.31-2.33,11.42-1.79,3.1.53,5.63,1.94,7.56,4.2,1.93,2.27,3.33,5.23,4.18,8.84.86,3.62,1.07,7.79.97,12.16-.14,6.12-2.15,12.01-6.43,17.09-4.29,5.08-8.95,9.63-13.19,13.67-4.07,3.89-8.42,7.98-13.03,11.51-4.61,3.54-8.9,7.17-12.86,10.88-3.97,3.71-7.29,7.64-9.97,11.77-2.68,4.14-4.13,8.87-4.34,14.28v13.58c-.43,3.76.32,7.23,2.25,10.53,1.93,3.3,5.78,3.85,7.4,4.36.16.05,1.07-.26,2.57-1.38,1.5-1.11,3.16-2.43,4.99-3.96,1.82-1.52,3.65-3.13,5.47-4.8,1.82-1.67,3.16-2.94,4.02-3.78,3.22-2.15,5.73-3.93,7.56-5.31,1.82-1.37,3.35-1.64,4.02-1.58,1.11.11,2.79-.24,3.86.06,1.07.3,1.73,2.14,1.61,5.15-.21,5.18-2.47,10.85-6.11,16.22-3.65,5.39-7.61,10.35-11.9,14.87-4.29,4.52-8.47,8.39-12.54,11.63-4.08,3.25-6.75,5.52-8.04,6.93-3.65,3.55-7.03,5.41-10.13,5.73-3.11.32-6.45.7-9.49.63-1.83-.04-3.91-.93-5.95-2.3-2.04-1.37-3.86-2.97-5.47-4.81-1.61-1.84-2.84-3.72-3.7-5.66-.86-1.94-1.18-3.6-.97-5.02v-5.09c0-1.39-.43-2.84-1.29-4.32-.43-.74-.86-1.38-1.29-1.91.39-2.42.58-3.64.97-6.07v-4.75c0-.79.21-2.95.64-6.49.43-3.54.96-7.41,1.61-11.62.64-4.2,1.23-8.22,1.77-12.03.53-3.81.72-6.83,1.13-7.6.38-.73,1.29-1.55,1.29-2.15s-.11-1.17-.32-1.71c-.21-.53-.32-1.25-.32-2.15s.43-2.06,1.29-3.52c0-2.39.53-5.04,1.61-7.98.64-1.6,1.29-3.21,1.93-4.82,1.8-4.55,2.7-6.85,4.5-11.47.43-4.59,2.68-9.97,6.75-16.28,4.07-6.31,8.85-12.53,14.31-18.63,5.47-6.1,11.09-11.56,16.89-16.3,5.79-4.74,10.97-7.57,14.79-8.83Zm-14.47,29.85c-1.07.38-2.14,1.58-3.22,3.58-1.07,2-2.25,4.2-3.22,6.46-1.12,2.63-2.14,5.58-3.22,8.52-.21,1.15-.54,2.49-.96,4.02-.43,1.54-.75,2.94-.97,4.18-.21,1.25-.1,2.19.32,2.8.43.62,1.38.58,2.57.33.95-.2,2.68-.83,4.83-2.14,2.14-1.31,4.34-2.99,6.59-5.01,2.25-2.02,4.29-4.27,6.11-6.74,1.82-2.46,2.84-4.86,3.06-7.17v-5.69c0-1.11-.32-2.01-.97-2.67-.64-.66-1.51-1-2.25-1.22-.79-.23-1.93-.54-3.22-.53-2.19.51-3.28.76-5.47,1.28Z" style="stroke-width:0px;"/><path d="m953.11,560.37c1.93-.04,3.81,0,5.63.1,1.82.11,3.54.47,5.14,1.07,1.61.6,2.9,1.57,3.86,2.87.97,1.31,1.45,3.14,1.45,5.47,0,1.4-1.5,3.97-4.5,7.77-3,3.8-6.27,7.99-9.81,12.59-3.54,4.6-6.81,9.14-9.81,13.59-3.01,4.45-4.5,7.89-4.5,10.26,0,1.91.48,3.32,1.45,4.25.97.93,2.09,1.57,3.38,1.91,1.29.34,2.62.56,4.02.68,1.39.11,2.41.18,3.05.18,4.25.01,6.37.04,10.61.16.43-.47,1.07-1.05,1.93-1.75,1.71-1.39,3.11-2.05,4.18-2,3.22.14,5.52,1.72,6.92,4.7,1.39,2.97,2.09,6.29,2.09,9.93v9.85c0,2.69-1.29,4.67-3.86,5.99-2.57,1.32-5.42,2.29-8.52,2.91-3.11.62-6.11,1.03-9,1.21-2.89.19-4.67.3-5.31.29-3.22-.03-5.04-.2-5.47-.57-.43-.37-1.29-.55-2.57-.54-2.57.02-3.86.04-6.43.08-1.29.02-3.11.79-5.47,2.32-2.36,1.53-3.54,3.28-3.54,5.23,0,2.69-.11,5.08-.32,7.17-.21,2.09-.45,3.89-.64,5.36-.23,1.72-.29,3.57-.64,4.83-.38,1.37-1.29,2.88-1.93,4.13-1.08,2.51-1.61,4.63-1.61,6.37v4.11c0,4.24-.53,8.89-1.61,13.93-1.08,5.06-2.04,8.12-2.89,9.14-1.08,1.29-1.93,2.51-2.57,3.66-.64,1.15-.97,4.14-.97,8.97,0,3.06,0,4.59,0,7.66,0,1.54.21,3.4.64,5.57.43,2.18,1.18,4.17,2.25,5.97,1.07,1.79,2.36,3.34,3.86,4.63,1.5,1.28,3.43,1.92,5.79,1.92,2.78,0,5.15-.92,7.08-2.74.85-.78,1.71-1.69,2.57-2.72,1.72,0,3.06.6,4.02,1.77.96,1.17,1.96,2.44,2.73,3.72.88,1.47,1.61,3.4,2.25,5.49,0,2.09-.7,4.83-2.09,8.23-1.4,3.41-3.05,6.75-4.98,10.05-1.93,3.3-3.97,6.2-6.11,8.72-2.14,2.52-3.97,3.78-5.47,3.78s-2.95,1.53-4.34,4.6c-1.4,3.07-2.09,5.28-2.09,6.62-.64,0-1.83.27-3.54.81s-3.49,1.04-5.14,1.61c-2.11.73-4.51,1.78-6.43,2.02-2.43.3-4.99-.19-6.6-.59-1.61-.4-2.41-1.67-2.41-3.8-.64-.53-1.61-2.46-2.9-5.77-1.28-3.31-2.57-6.94-3.86-10.87-1.29-3.93-2.41-7.67-3.38-11.34-.97-3.67-1.45-6.26-1.45-7.8v-17.98c0-1.01.27-3.39.8-7.13.53-3.73,1.18-7.87,1.93-12.38.75-4.51,1.39-9.01,1.93-13.39.53-4.37.8-7.92.8-10.64v-6.28c1.72-5.74,3.5-10.94,4.83-15.32,1.15-3.8,2.14-7.6,3.22-10.94,1.07-3.33,1.61-5.24,1.61-5.72v-11.14c0-3.1-1.29-4.78-2.57-5.49-1.19-.66-2.68-2.13-4.18-3.16-1.5-1.03-2.25-2.47-2.25-4.35,0-1.4.48-2.91,1.45-4.53.96-1.61,2.14-3.31,3.54-5.09,1.39-1.77,2.79-3.61,4.18-5.5,1.39-1.88,2.52-3.69,3.38-5.4,1.5-3.64,2.95-5.93,4.34-6.88,1.39-.95,2.95-2.2,4.67-3.75,2.78-3.74,5.79-6.92,9.01-9.5,3.21-2.58,6.21-6.41,9-11.47,1.72-3.36,3-6.68,3.86-9.97.86-3.28,2.94-6.48,5.79-7.96,2.35-1.22,5.25-2.96,7.4-5.69,2.14-2.72,3.86-4.1,5.14-4.13Z" style="stroke-width:0px;"/><path d="m1033.51,570.53c1.93.57,3.81,1.2,5.63,1.89,1.82.7,3.54,1.61,5.14,2.73,1.61,1.12,2.89,2.48,3.86,4.07.97,1.59,1.45,3.52,1.45,5.78,0,1.36-1.5,3.35-4.5,6.11-3,2.77-6.27,5.9-9.81,9.44-3.54,3.54-6.81,7.17-9.81,10.83-3.01,3.67-4.5,6.74-4.5,9.1,0,1.89.48,3.41,1.45,4.55.97,1.14,2.09,2.02,3.38,2.65,1.28.63,2.63,1.15,4.02,1.59,1.39.43,2.41.73,3.05.88,4.25,1,6.37,1.54,10.61,2.7.43-.34,1.07-.75,1.93-1.2,1.72-.9,3.11-1.18,4.18-.85,3.22.97,5.52,3.09,6.92,6.26,1.39,3.17,2.09,6.46,2.09,9.88v9.22c0,2.52-1.29,4.07-3.86,4.74-2.57.67-5.42.97-8.52.91-3.11-.06-6.11-.28-9-.67-2.89-.39-4.67-.62-5.31-.75-3.22-.65-5.04-1.16-5.47-1.59-.43-.44-1.28-.78-2.57-1.01-2.57-.46-3.86-.68-6.43-1.1-1.29-.21-3.11.22-5.47,1.33-2.36,1.11-3.54,2.66-3.54,4.6,0,2.68-.11,5.04-.32,7.08-.21,2.05-.45,3.8-.64,5.23-.23,1.67-.29,3.5-.64,4.7-.37,1.26-1.28,2.67-1.93,3.83-1.08,2.34-1.61,4.39-1.61,6.11v4.08c0,4.21-.53,8.74-1.61,13.62-1.07,4.89-2.04,7.82-2.89,8.75-1.08,1.17-1.93,2.3-2.57,3.39-.64,1.08-.97,4.02-.97,8.82v7.59c0,1.52.21,3.38.64,5.56.43,2.18,1.18,4.2,2.25,6.03,1.07,1.84,2.36,3.43,3.86,4.78,1.5,1.35,3.43,2.09,5.79,2.22,2.78.16,5.14-.57,7.08-2.2.85-.7,1.71-1.51,2.57-2.45,1.72.13,3.06.79,4.02,1.98.96,1.19,1.96,2.46,2.73,3.74.88,1.46,1.61,3.35,2.25,5.37,0,1.99-.7,4.54-2.09,7.71-1.4,3.17-3.05,6.27-4.98,9.34-1.93,3.07-3.97,5.79-6.11,8.14-2.14,2.36-3.97,3.53-5.47,3.5-1.5-.03-2.95,1.41-4.34,4.35-1.4,2.94-2.09,5.07-2.09,6.37-.64,0-1.83.24-3.54.75-1.71.51-3.49.98-5.14,1.52-2.11.7-4.51,1.7-6.43,1.93-2.44.28-4.98-.22-6.59-.62-1.61-.4-2.41-1.67-2.41-3.78-.64-.53-1.61-2.45-2.89-5.77-1.28-3.31-2.57-6.95-3.86-10.91-1.29-3.96-2.41-7.85-3.38-11.66-.97-3.81-1.45-6.5-1.45-8.06v-18.31c0-1.03.27-3.42.8-7.14.53-3.71,1.18-7.81,1.93-12.25.75-4.44,1.39-8.88,1.93-13.3.54-4.41.8-8,.8-10.78v-6.42c1.71-5.7,3.5-10.84,4.82-15.15,1.16-3.76,2.14-7.52,3.22-10.79,1.07-3.27,1.61-5.14,1.61-5.64v-11.43c0-3.18-1.28-5.12-2.57-6.05-1.24-.89-2.68-2.61-4.18-3.92-1.5-1.3-2.25-2.92-2.25-4.87,0-1.46.48-2.96,1.45-4.48.96-1.52,2.14-3.09,3.54-4.7,1.39-1.6,2.79-3.26,4.18-4.96,1.39-1.7,2.52-3.36,3.38-4.97,1.5-3.48,2.95-5.56,4.34-6.26,1.39-.7,2.95-1.67,4.67-2.91,2.78-3.26,5.79-5.86,9-7.75,3.21-1.9,6.22-5.07,9-9.49,1.72-2.97,3-5.99,3.86-9.09.86-3.09,3.08-5.77,5.79-6.42,2.35-.56,5.25-1.46,7.4-3.53,2.14-2.07,3.86-2.9,5.14-2.52Z" style="stroke-width:0px;"/><path d="m1107.8,651.67c4.25,2.54,8.31,5.46,11.42,8.77,3.11,3.31,5.63,6.83,7.56,10.46,1.93,3.64,3.33,7.3,4.18,10.97s1.07,7.29.97,10.6c-.15,4.85-2.15,7.87-6.43,8.97-4.29,1.1-8.95,1.79-13.19,2.58-3.91.72-8.42,1.72-13.03,2.25-4.61.53-8.9,1.56-12.87,3.03-3.97,1.48-7.29,3.72-9.97,6.65-2.68,2.94-4.13,7.27-4.34,12.88,0,5.7,0,8.56,0,14.29-.43,3.79.32,7.73,2.25,11.74,1.93,4.01,5.72,5.66,7.4,6.59.18.1,1.07.03,2.57-.64,1.5-.67,3.16-1.47,4.99-2.38,1.82-.91,3.65-1.85,5.47-2.81,1.82-.96,3.16-1.67,4.02-2.14,3.22-.86,5.73-1.53,7.56-2.06,1.82-.54,3.25-.22,4.02.12,1.13.5,2.79.84,3.86,1.48,1.07.65,1.73,2.4,1.61,4.85-.21,4.09-2.47,8.1-6.11,11.71-3.65,3.61-7.61,7.06-11.9,10.34-4.29,3.28-8.47,6.28-12.54,8.89-4.08,2.62-6.75,4.66-8.04,5.96-3.65,3.25-7.03,5.02-10.13,5.17-3.11.15-6.48.37-9.49.12-1.82-.16-3.91-1.29-5.95-3.03-2.04-1.74-3.86-3.79-5.47-6.16-1.61-2.37-2.84-4.8-3.7-7.28-.86-2.48-1.18-4.58-.97-6.27,0-2.49,0-3.73,0-6.22,0-1.7-.43-3.55-1.28-5.57-.43-1-.86-1.89-1.29-2.66.39-2.89.58-4.34.96-7.22v-5.82c0-.97.21-3.56.64-7.73.43-4.17.96-8.69,1.61-13.52.64-4.82,1.23-9.39,1.77-13.71.54-4.31.68-7.85,1.13-8.54.33-.51,1.29-1.19,1.29-1.9s-.11-1.44-.32-2.19c-.21-.74-.32-1.65-.32-2.72s.43-2.22,1.29-3.47c0-2.82.53-5.66,1.61-8.47.64-1.5,1.29-2.99,1.93-4.48,1.8-4.21,2.7-6.29,4.5-10.39.43-4.96,2.68-9.62,6.75-13.72,4.07-4.09,8.85-7.25,14.31-9.33,5.47-2.08,11.1-2.95,16.89-2.63,5.79.33,10.78,2.22,14.79,4.63Zm-14.48,16.29c-1.07-.45-2.15-.11-3.22,1.06-1.07,1.17-2.29,2.55-3.22,4.05-1.12,1.8-2.15,4.07-3.22,6.3-.21,1.02-.53,2.16-.96,3.43-.43,1.28-.75,2.49-.97,3.62-.21,1.14-.11,2.16.32,3.06.43.9,1.44,1.49,2.57,1.98,1.02.43,2.68.87,4.83.96,2.14.09,4.34-.1,6.59-.54,2.25-.44,4.29-1.16,6.11-2.19,1.82-1.02,2.84-2.48,3.06-4.44v-5.23c0-1.02-.32-2.09-.97-3.2-.64-1.11-1.49-2.07-2.25-2.87-.86-.91-1.93-2-3.22-2.99-2.19-1.22-3.28-1.81-5.47-2.99Z" style="stroke-width:0px;"/><path d="m588.99,330.47c3.22.03,5.63.84,7.24,2.47,1.61,1.63,2.84,3.69,3.7,6.17.86,2.48,1.34,5.03,1.45,7.63.11,2.6.16,4.77.16,6.49v7.02c-1.29,5.68-3.49,10.86-6.59,15.52-3.11,4.67-7.13,7.01-12.06,6.96-3.22-.03-6.65-1.26-10.29-3.69-3.64-2.44-7.72-3.78-12.22-4.05-4.72-.28-9.33,1.27-13.83,4.62-4.5,3.35-8.58,7.31-12.22,11.88-3.64,4.57-6.59,9.2-8.84,13.94-2.25,4.74-3.38,8.48-3.38,11.32v23.26c0,2.8.43,7.68,1.29,14.59.86,6.91,2.25,14.07,4.18,21.46,1.93,7.39,4.45,14.04,7.56,19.89,3.11,5.85,7.02,9.07,11.74,9.55,2.57-.83,3.86-1.26,6.44-2.16,4.93.36,9.54-.08,13.83-1.26,4.29-1.17,8.25-3.76,11.9-7.71,4.71-6,9.22-10.86,13.51-14.53,1.29-1.21,2.79-2.11,4.5-2.69,1.71-.58,3.22-.93,4.5-1.05.43.41.96,1.04,1.61,1.87,1.29,1.67,1.93,3.17,1.93,4.51,0,4.91-1.72,10.72-5.15,17.38-3.43,6.67-7.56,13.04-12.38,19.04-4.82,6-9.76,11.07-14.79,15.18-5.04,4.11-9.17,6.07-12.38,5.98-1.03-.03-1.54-.04-2.57-.08-3.01.55-5.87,1.15-8.36,1.51-2.27.32-4.62.48-6.75.68-2.14.2-3.65.22-4.5.1-1.72-.24-4.13-1.37-7.24-3.48-3.11-2.12-6.38-4.63-9.81-7.55-3.43-2.92-6.54-5.99-9.33-9.13-2.79-3.15-4.5-5.75-5.14-7.75-.86-.94-1.99-3.48-3.38-7.63-1.4-4.16-2.79-8.78-4.18-13.86-1.39-5.08-2.58-10.05-3.54-14.9-.97-4.84-1.45-8.4-1.45-10.66v-10.52c-.64-1.58-1.29-3.04-1.93-4.4-1.07-2.63-1.73-4.88-1.61-6.34.2-2.38,1.04-5.04,1.61-7.29.46-1.85.86-3.94,1.29-6.09.43-2.14.64-3.92.64-5.29v-7.58c0-.69-.21-1.62-.64-2.78-.43-1.16-.81-2.49-1.29-3.66-.52-1.29-1.18-2.77-1.61-4.28,1.42-3.84,2.12-5.78,3.54-9.7v-6.61c1.71-3.48,3.32-6.69,4.82-9.62,1.29-2.5,2.63-4.9,4.02-7.19,1.39-2.29,3.25-4.07,3.7-4.91,1.38-2.59,2.25-8.12,4.82-11.26,2.58-3.14,5.63-6.03,9.17-8.67,3.53-2.64,7.34-5.09,11.42-7.34,4.07-2.25,8.15-4.57,12.22-6.97,2.36-.3,4.74-.79,7.08-1.33,1.69-.4,3.49-.77,5.31-1.16,1.82-.39,3.06-.58,3.7-.55,2.57.13,3.86.19,6.43.3,4.89.2,7.33.28,12.22.39,3.99-1.57,5.98-2.37,9.97-3.99Z" style="fill:#fff; stroke-width:0px;"/><path d="m679.36,355.21c3-.95,6.7-2.02,11.1-3.24,4.39-1.22,8.09-1.69,11.1-1.42,3.22-1.09,5.31-.53,6.27,1.68.97,2.21,2.2,4.62,3.7,7.21.85.52,1.88,1.3,3.06,2.3,1.18,1.01,2.25,2.1,3.22,3.27.97,1.17,1.77,2.45,2.41,3.83.64,1.38.96,2.68.96,3.91-1.03,11.33-1.54,16.99-2.57,28.27,0,5.67-1.29,12.51-3.86,20.6-2.57,8.09-6.33,16.09-11.25,23.98-1.72,2.47-2.95,4.85-3.7,7.14-.75,2.3-1.5,4.64-2.25,7.03-.75,2.4-1.61,4.89-2.57,7.49-.97,2.6-2.3,5.39-4.02,8.2-1.25,2.05-2.74,4.49-4.34,7.3-1.61,2.81-3.32,5.72-5.15,8.72-1.82,3-3.75,5.86-5.79,8.54-2.04,2.69-4.13,4.94-6.27,6.75-3.22,3.13-5.9,5.76-8.04,7.93-2.15,2.18-4.08,4.04-5.79,5.59-1.72,1.56-3.49,2.88-5.31,3.96-1.83,1.08-3.81,2.04-5.95,2.67-3.22.95-6.22,1.1-9,.41-2.79-.69-5.2-2-7.24-3.91-2.03-1.91-3.7-4.28-4.99-7.07-1.28-2.79-1.93-5.81-1.93-9.02v-21.71c0-1.31-.43-2.45-1.29-3.41-.85-.96-1.2-4.06-1.29-9.07-.11-6.29,1.29-14.42,4.5-24.06,3.22-9.64,7.02-19.25,11.42-28.81,4.39-9.55,8.79-17.44,13.18-25.89,4.39-8.45,7.77-13.85,10.13-16.22,2.36-2.36,4.34-4.77,5.95-7.24,1.61-2.45,3.16-4.72,4.66-6.8,1.5-2.07,3.05-3.87,4.66-5.4,1.61-1.53,3.7-2.69,6.27-3.51Zm1.61,37.34c-3.43,1.31-6.92,4.09-10.46,8.4-3.54,4.3-6.81,8.97-9.81,13.96-3.01,5-5.68,9.88-8.04,14.63-2.36,4.75-3.97,8.17-4.82,10.24-1.29,5.5-1.93,8.08-3.22,13.29-.86,3.22-1.56,6.28-2.09,9.19-.54,2.92-.8,4.7-.8,5.34v6.13c.85.47,1.61,1.6,2.25,3.37.64,1.78,1.45,3.51,2.41,5.18.97,1.68,2.09,2.78,3.38,3.71,1.29.93,3.11.9,5.47-.11,4.28-3.69,8.33-7.31,11.9-10.81,3-2.94,5.95-6.1,8.85-9.3,2.89-3.19,5-6.03,5.95-8.34,1.36-3.31,2.73-7.58,4.34-12.26,1.61-4.68,3.16-9.13,4.66-13.36-.43-1.47.05-3.36,1.45-5.65,1.39-2.29,2.09-4.17,2.09-5.63v-8.79c0-1.05-.27-2.77-.81-5.18-.53-2.41-1.4-4.8-2.57-7.2-1.18-2.39-2.63-4.34-4.34-5.82-1.71-1.48-3.65-1.83-5.79-1.01Z" style="fill:#fff; stroke-width:0px;"/><path d="m839.2,213.02c6.22,0,10.13,1.17,11.74,3.45,1.61,2.28,2.41,4.85,2.41,7.82v3.69c0,1.82-.97,3.85-2.9,6.18-1.93,2.33-4.29,4.61-7.07,6.85-2.79,2.24-5.74,4.3-8.85,6.15-3.11,1.85-5.74,3-7.88,3.35-2.79.45-5.15.54-7.08.23-1.93-.31-3.75-.33-5.47-.06-4.5.71-9.17,2.48-13.99,5.47-4.82,2.99-7.43,8.12-9.16,12.42-1.09,2.71-2.52,5.45-2.41,7.42.11,1.97-.27,4.11-1.13,6.42-1.93,4.16-3.91,9.51-5.95,16.1-2.04,6.6-3.05,12.59-3.05,17.83,0,.54-.16,1.5-.48,2.88-.32,1.38-.72,2.89-1.12,4.48-.45,1.77-.86,3.68-1.29,5.66v8.48c-1.8,9.58-2.7,14.42-4.5,24.19.43,2.4.37,5.41-.16,9.07-.53,3.66-1.34,7.98-2.41,12.94-1.07,4.97-2.15,10.35-3.22,16.11-1.07,5.77-1.83,11.68-2.25,17.7,0,1.12.27,2.8.81,5.03.53,2.23,1.55,2.93,3.05,2.11,1.93-1.06,4.02-2.77,6.27-5.1,2.25-2.33,4.45-4.91,6.59-7.71,2.14-2.8,4.34-5.7,6.59-8.71,2.25-3,4.34-5.71,6.27-8.15,4.07-5.52,8.25-10.7,12.54-15.55,4.29-4.85,8.47-8.21,12.55-10.18.77.45,1.16.67,1.93,1.11,0,1.88-.64,4.36-1.93,7.49-1.29,3.13-2.9,6.49-4.83,10.08-1.93,3.6-4.08,7.17-6.43,10.7-2.36,3.54-4.61,6.52-6.75,8.92-4.29,4.81-7.77,9.79-10.45,14.9-2.68,5.12-6.27,10.87-10.77,17.31-1.5,3.62-3.81,7.21-6.92,10.77-3.11,3.57-6.16,7.21-9.17,10.22-2.99,3-7.13,6.75-11.74,11.24-4.61,4.49-8.52,7.68-11.74,9.55-2.36,1.37-4.02,2-4.99,1.89-.96-.11-1.56-.78-1.77-1.99-.21-1.22-.16-2.97.16-5.26.32-2.29.48-4.97.48-8.04v-18.51c0-2.71.59-5.74,1.77-9.09,1.17-3.34,1.77-6.27,1.77-8.79v-5.82c0,1.56.21.72.64-2.52.43-3.23.97-7.97,1.61-14.23.64-6.26,1.18-13.58,1.61-21.99.43-8.41.64-17.12.64-26.17,0-1.18.59-3.15,1.77-5.88,1.18-2.73,1.77-4.77,1.77-6.14v-10.59c1.29-6.17,2.25-12.08,2.89-17.78.64-5.69,1.29-11.28,1.93-16.74.64-5.46,1.5-11.02,2.57-16.64,1.07-5.61,3.12-11.55,5.15-17.24,1.86-5.22,4.5-10.99,8.36-16.25,3.86-5.25,7.29-10.64,10.29-16.16,1.5-2.49,3.16-4.78,4.99-6.86,1.82-2.08,4.13-3.79,6.92-5.15,3-4.12,7.13-7.32,12.38-9.6,5.25-2.27,10.34-3.3,15.27-3.3,9.65,0,14.47,0,24.12,0Z" style="fill:#fff; stroke-width:0px;"/><path d="m879.4,287.17c3-.88,6.7-2.51,11.1-2.76,4.39-.25,8.09-.08,11.09.49,3.22-.24,5.31.41,6.27,1.92.97,1.51,2.2,3.21,3.7,5.1.85.47,1.88,1.14,3.06,1.99,1.18.85,2.25,1.75,3.22,2.69.97.94,1.77,1.93,2.41,2.96.64,1.03.96,1.95.96,2.77-1.03,7.29-1.54,11.02-2.57,18.68,0,3.97-1.29,8.52-3.86,13.83-2.57,5.31-6.33,10.42-11.25,15.46-1.72,1.54-2.95,3.13-3.7,4.76-.75,1.63-1.5,3.32-2.25,5.05-.75,1.74-1.61,3.56-2.57,5.47-.97,1.9-2.3,3.93-4.02,5.93-1.25,1.46-2.74,3.4-4.34,5.73-1.61,2.33-3.33,4.76-5.15,7.31-1.82,2.55-3.75,5.01-5.79,7.36-2.04,2.36-4.13,4.38-6.27,6.06-3.22,2.87-5.9,5.36-8.04,7.43-2.15,2.08-4.08,3.9-5.79,5.44-1.72,1.55-3.49,2.92-5.31,4.11-1.83,1.19-3.81,2.35-5.95,3.46-3.22,1.68-6.22,2.66-9.01,2.92-2.79.26-5.21-.07-7.24-.98-2.03-.91-3.7-2.3-4.99-4.15-1.28-1.84-1.93-4.09-1.93-6.72v-17.47c0-1.04-.44-1.77-1.29-2.19-.85-.42-1.2-2.71-1.29-6.58-.1-4.77,1.29-11.65,4.5-20.08,3.22-8.43,7.02-16.81,11.42-25.07,4.39-8.25,8.79-15.51,13.18-21.85,4.39-6.34,7.77-10.29,10.13-12.14,2.36-1.84,4.34-3.65,5.95-5.41,1.61-1.76,3.16-3.37,4.66-4.84,1.5-1.46,3.05-2.76,4.66-3.88,1.61-1.12,3.7-2.05,6.27-2.81Zm1.61,23.63c-3.43,1.19-6.92,3.4-10.45,6.71-3.54,3.31-6.81,6.91-9.81,10.78-3.01,3.88-5.68,7.71-8.04,11.47-2.36,3.76-3.97,6.51-4.82,8.17-1.29,4.23-1.93,6.37-3.22,10.68-.86,2.68-1.56,5.23-2.09,7.63-.54,2.4-.8,3.86-.8,4.36v4.75c.85.09,1.61.73,2.25,1.92.64,1.19,1.45,2.31,2.41,3.35.97,1.04,2.09,1.84,3.38,2.39,1.29.55,3.11.25,5.47-.87,4.28-3.55,8.31-6.87,11.9-10,3-2.61,5.95-5.35,8.85-8.05,2.89-2.7,5-5,5.95-6.84,1.34-2.6,2.74-5.97,4.34-9.57,1.61-3.6,3.16-6.96,4.66-9.83-.43-1.14.05-2.45,1.45-3.9,1.39-1.44,2.09-2.68,2.09-3.73v-6.23c0-.74-.27-1.98-.81-3.73-.53-1.75-1.4-3.52-2.57-5.31-1.18-1.79-2.63-3.12-4.34-3.97-1.71-.85-3.65-.92-5.79-.18Z" style="fill:#fff; stroke-width:0px;"/><path d="m974.91,281.25c2.31-.07,3.91.18,4.66.85.75.68,2.6,1.45,5.31,2.46,2.33.87,4.39,2.01,6.11,3.2,1.72,1.18,2.77,2.74,2.58,3.9-.09.54-.44,1.31-.64,2.05-.44,1.62-.22,3.27.64,4.92,0,1.17-.38,2.53-1.13,4.08-.75,1.55-.98,3.08-.48,3.98.3.54,1.07,1.17,1.93,1.8.64.47,1.34.92,2.09,1.34s1.45.55,2.09.36c2.14.01,4.45-.93,6.92-2.82,2.46-1.88,4.88-4.02,7.24-6.4,2.36-2.38,4.72-4.69,7.08-6.91,2.36-2.22,4.5-3.62,6.43-4.2,3.99.1,5.98.16,9.97.35,1.28,0,2.73.24,4.34.72,1.61.49,2.84.84,3.7,1.03,4.07,2.44,6.65,5.24,7.72,8.26,1.07,3.02,1.97,5.5,2.25,7.08.34,1.88-.81,4.38-3.06,6.96-2.25,2.58-5.09,4.41-8.52,5.54-1.5.13-2.9.2-4.18.2-1.29,0-2.57-.03-3.86-.08-1.07-.28-1.88-.51-2.41-.71-.53-.2-1.25-.58-2.09-1.03-1.03-.55-2.09-.94-3.05-1.23-.97-.29-2.09-.58-3.38-.85-2.79-.6-5.42-.44-7.88.44-2.47.88-4.88,1.87-7.24,2.96-3.65,2.22-6.49,5.02-8.52,8.34-2.04,3.32-2.29,8.53-3.05,9.77-.42.69-3.27,1.76-5.31,2.98-2.04,1.23-3.56,2.91-4.66,4.65-1.15,1.82-1.88,3.84-1.77,5.97.11,2.13-.48,4.14-1.77,6.05.21,1.73.21,3.71,0,5.93-.21,2.22-.59,4.56-1.12,7-.54,2.45-1.23,4.8-2.09,7.04-.86,2.25-1.81,5.04-2.89,6.01-.88.78-3.33,1.33-5.47,1.92-2.14.59-4.46,1.02-6.75,1.44-2.52.46-5.43,1.05-8.36,1.32-1.04.1-2.47-.44-4.18-1.53-.86-.55-1.61-1.1-2.25-1.65-1.8-2.42-2.7-3.63-4.5-6.02-.21-1.05,0-2.91.64-5.55.64-2.63,1.39-5.29,2.25-7.97.85-2.67,1.66-5.05,2.41-7.15.75-2.1,1.12-3.28,1.12-3.57,4.71-5.03,7.83-10.01,9.33-15.14,1.5-5.13,3.11-10.14,4.82-15-1.03-5.43-1.54-8.12-2.57-13.42-1.08-1.76-2.41-2.65-4.02-2.67-1.61-.03-3.3.13-4.98.35-3.36.45-5.9,1-7.4,1.77-1.5.77-2.79,1.58-3.86,2.42-1.07.85-2.25,1.67-3.54,2.47-1.28.8-3.66,1.57-6.75,1.89-1.64.17-2.79-.52-3.22-1.87-.43-1.35-.88-2.57-1.28-3.63-.45-1.18-.11-2.42.96-3.64,1.07-1.21,2.52-2.37,4.34-3.46,1.82-1.09,3.91-2.16,6.27-3.22,2.35-1.06,4.5-2.11,6.43-3.18,2.57-1.73,4.83-3.57,6.75-5.55,1.93-1.98,3.86-3.8,5.79-5.47,1.93-1.67,4.13-3.05,6.59-4.15,2.46-1.1,5.71-1.61,9.49-1.71Z" style="fill:#fff; stroke-width:0px;"/><path d="m419.16,645.33c1.5,1.06,2.46,1.85,2.89,2.41.43.55,1.29,1.97,2.58,4.2,22.13,14.72,33.19,20.28,55.32,28.73,10.81,5.53,16.21,7.9,27.02,12.01,3.6.93,5.4,1.35,9.01,2.15,6,1.32,11.1,3.62,15.28,6.99,4.18,3.38,7.56,6.94,10.13,10.76,2.57,3.82,4.45,7.53,5.63,11.16,1.18,3.63,1.77,6.38,1.77,8.3,0,2.18-.27,4.58-.8,7.18-.54,2.61-1.61,5.12-3.22,7.53-1.61,2.42-4.02,4.53-7.24,6.32-3.22,1.8-7.51,2.86-12.86,3.12-.86-.1-2.04-.08-3.54.05-1.5.13-3.01.32-4.5.57-1.5.25-2.89.45-4.18.6-1.29.15-2.25.17-2.9.08-1.5-.21-3.59-.6-6.27-1.2-2.68-.6-5.36-1.43-8.04-2.48-2.68-1.06-4.99-2.22-6.91-3.47-1.93-1.25-2.9-2.65-2.9-4.16,0-1.92.85-3.04,2.57-3.36,1.72-.32,3.91-.36,6.59-.17,2.68.2,5.57.35,8.68.45,3.11.1,6-.33,8.68-1.25,2.68-.93,4.88-2.72,6.6-5.38,1.71-2.65,2.57-6.59,2.57-11.87,0-.79-.11-1.71-.32-2.73-.21-1.03-.97-2.12-2.25-3.3-1.72-1.78-4.18-3.6-7.4-5.51-3.22-1.91-6.6-3.72-10.13-5.45-3.54-1.73-6.81-3.27-9.81-4.58-3.01-1.31-4.93-2.14-5.79-2.42-2.19-.7-3.28-1.06-5.47-1.81-.86-.29-1.83-.41-2.9-.35-1.07.06-2.04.23-2.89.5-.86.28-1.45.72-1.77,1.34-.32.62-.16,1.34.48,2.15v28.5c0,4.05,0,6.07,0,10.09v12.35c1.42,4.11,2.12,6.13,3.54,10.12-.64,1.83-1.4,3.51-1.93,4.89-.47,1.23-.8,2.63-1.13,3.9-.32,1.28-.48,2.2-.48,2.75,0,3.89,1.61,6.54,4.82,7.9,3.22,1.35,6.7,2.2,10.46,2.6,3.75.39,7.24.84,10.45,1.34,3.22.5,4.82,1.74,4.82,3.73v2.05c0,.5-.32,1.13-.96,1.9-.64.78-1.4,1.55-2.25,2.32-.86.77-1.82,1.42-2.89,1.94-1.07.52-2.04.77-2.89.74-2.19-.09-3.28-.13-5.47-.22-1.72-.07-4.4-.53-8.04-1.44-3.65-.91-6.33-1.44-8.04-1.54-8.23-.47-12.35-.73-20.59-1.3-.86-.06-2.63-.07-5.31-.03-2.68.04-5.63.14-8.85.3-3.21.16-6.33.27-9.33.3-3.01.03-5.26,0-6.75-.12-2.36-.18-4.61-.39-6.76-.65-2.14-.26-4.02-.81-5.63-1.67-1.61-.86-2.95-2.04-4.02-3.53-1.07-1.49-1.61-3.65-1.61-6.43,0-1.3.05-2.82.16-4.57.11-1.74.54-3.34,1.29-4.77.75-1.43,1.88-2.55,3.38-3.34s3.75-.87,6.76-.29c1.42,1.12,2.12,1.67,3.54,2.75,4.76.86,7.14,1.27,11.9,2.05,5.79.95,8.68-.82,8.68-5.25v-7.12c1.41-3.22,2.12-4.8,3.54-7.94-1.42-2.13-2.12-3.2-3.54-5.39.43-1.16,1.06-2.23,1.61-3.14.45-.75.86-1.66,1.29-2.48.43-.82.64-1.47.64-1.94,0-1.1-.59-2.77-1.77-5.04-1.18-2.27-1.77-4.07-1.77-5.35,0-.48.16-.82.48-1.04.32-.21.75-.54,1.29-1,.53-.45.96-1.1,1.28-1.94.32-.84.48-2.2.48-4.1v-13.32c0-.95-.59-2.27-1.77-3.97-1.18-1.7-1.77-3.78-1.77-6.2v-6.78c0-1.62.53-3.22,1.61-4.79.64-.81,1.69-1.88,1.93-2.67.49-1.63-1.4-5.17-4.18-8.44-2.78-3.27-6.43-6.22-10.94-8.91-1.41-.84-2.12-1.27-3.54-2.14-.64-.4-1.93-1.35-3.86-2.93-1.93-1.57-3.97-3.39-6.11-5.45-2.15-2.07-4.02-4.14-5.63-6.2-1.61-2.06-2.41-3.66-2.41-4.77,0-1.65.48-2.76,1.45-3.32.97-.55,2.14-.77,3.54-.64,1.39.13,2.79.44,4.18.91,1.39.47,2.52,1.01,3.38,1.62Z" style="fill:#fff; stroke-width:0px;"/><path d="m658.13,703.13c4.5-1.66,7.72-1.98,9.65-.91,1.93,1.08,2.89,3.21,2.89,6.35,0,.6-.32,2.03-.97,4.25-.64,2.23-1.45,4.71-2.41,7.44-.96,2.72-1.98,5.47-3.05,8.23-1.08,2.76-1.93,4.91-2.57,6.5,0,1.12-.11,2.3-.32,3.53-.21,1.24-.89,3.71-2.25,5.26-1.13,1.28-2.57,2.82-2.57,4.62v3.88c-.38,4.29-.58,6.4-.96,10.55v7.4c0,.38.05,1.02.16,1.93.11.91.32,1.8.64,2.68.32.87.91,1.58,1.77,2.12.85.54,2.03.7,3.54.46,1.8-1.94,2.7-2.93,4.5-4.95,1.29-.87,2.79-1.96,4.5-3.27,1.71-1.31,3.43-2.62,5.15-3.92,1.93-1.47,3.86-3.05,5.79-4.72,1.29-.28,2.36-.17,3.22.34.85.51,1.29,1.2,1.29,2.04-.52.78-.77,1.17-1.29,1.94-.86,1.29-1.72,2.29-2.57,3-1.5,3.04-3.43,5.71-5.79,8.01-2.36,2.31-4.93,4.51-7.72,6.6-2.79,2.09-5.63,4.15-8.52,6.15-2.9,2.01-5.63,4.15-8.2,6.41-2.83,2.35-4.25,3.51-7.08,5.54,0,.97-.59,1.97-1.77,2.99-1.18,1.02-2.57,1.81-4.18,2.4-1.61.58-3.33.85-5.14.8-1.82-.05-3.43-.66-4.34-1.79-1.32-1.65-1.93-3.76-1.93-5.63s.32-3.72.97-5.54c.64-1.82,1.28-3.57,1.93-5.26.64-1.69.97-3.34.97-4.94v-9.77c0-.59-.75-.98-2.25-1.18-.86-.09-1.61-.13-2.25-.12-.64.02-2.25,1.11-4.82,3.2-2.57,2.09-5.52,4.44-8.85,7.01-3.32,2.57-6.7,5.12-10.13,7.64-3.43,2.53-6.22,4.29-8.36,5.36-.64.43-1.67,1.05-3.05,1.84-1.39.8-2.89,1.56-4.5,2.3-1.61.73-3.38,1.39-5.31,1.96-1.93.57-3.65.85-5.15.84-3.01-.02-5.47-.58-7.4-1.67-1.93-1.1-3.43-2.39-4.5-3.88-1.07-1.49-1.88-3-2.41-4.5-.53-1.51-.81-2.61-.81-3.28-.38-4.84-.58-7.31-.96-12.32,1.8-8.04,2.7-12.15,4.5-20.57,0-.36.32-1.2.97-2.51.64-1.31,1.5-2.74,2.57-4.3,1.07-1.56,2.31-3.08,3.7-4.59,1.39-1.5,2.84-2.75,4.34-3.72,6.22-3.24,12.22-7.39,18.01-12.59,2.79-2.4,5.47-4.21,8.04-5.38,2.57-1.17,5.14-2.14,7.72-2.9,2.58-.76,5.15-1.42,7.72-1.96,2.57-.54,5.47-1.51,8.68-2.93,1.29-.13,2.95-.74,4.98-1.88,2.03-1.14,3.91-2.24,5.63-3.31,3.6-.45,5.4-.69,9-1.19,2.19-.31,3.28-1.11,5.47-1.89,2.45-1.66,3.67-2.5,6.11-4.2Zm-41.17,30.08c-3.79,1.98-7.51,4.59-10.93,7.19-3.43,2.6-6.43,5.14-9,7.65-2.57,2.52-4.61,4.82-6.11,6.95-1.5,2.13-2.25,3.78-2.25,4.98,0,.6-.11,1.72-.32,3.32-.21,1.6-.11,3.27.32,4.97s1.24,3.23,2.41,4.57c1.18,1.34,3.27,2.02,6.27,2.02,2.79,0,6.06-1.32,9.81-4.05,3.75-2.73,7.29-5.89,10.61-9.52,3.32-3.62,6.11-7.1,8.36-10.37,2.25-3.27,3.38-5.29,3.38-5.94,0-.51.11-1.78.32-3.82.21-2.04.05-4.01-.48-5.89-.53-1.88-1.72-3.2-3.54-3.93-1.82-.73-4.99-.14-8.84,1.87Z" style="fill:#fff; stroke-width:0px;"/><path d="m799.64,528.26c6.21-3.66,10.13-4.21,11.74-1.69,1.61,2.52,2.41,6,2.41,10.43v5.5c0,2.71-.97,6.15-2.9,10.32-1.93,4.17-4.29,8.33-7.07,12.47-2.79,4.15-5.74,7.99-8.85,11.52-3.11,3.54-5.74,5.89-7.88,7.07-2.79,1.54-5.15,2.47-7.08,2.78s-3.75.96-5.47,1.92c-4.5,2.51-9.17,6.34-13.99,11.39-4.82,5.06-7.43,11.4-9.16,16.5-1.15,3.38-2.52,6.46-2.41,8.47.11,2.02-.27,4.34-1.13,6.93-1.93,4.77-3.91,10.65-5.95,17.57-2.04,6.93-3.05,12.87-3.05,17.95,0,.53-.16,1.48-.48,2.84-.32,1.37-.72,2.86-1.13,4.42-.45,1.73-.86,3.59-1.29,5.5v8.03c-1.8,9.12-2.7,13.62-4.5,22.46.43,2.21.37,4.98-.16,8.26-.54,3.29-1.34,7.11-2.41,11.4-1.07,4.3-2.15,8.89-3.22,13.72-1.07,4.84-1.82,9.77-2.25,14.81,0,.96.27,2.46.81,4.51.53,2.05,1.55,2.95,3.05,2.68,1.93-.35,4.02-1.22,6.27-2.64,2.25-1.42,4.45-3.1,6.59-5.06,2.14-1.96,4.34-4.05,6.59-6.29,2.25-2.23,4.34-4.29,6.27-6.17,4.07-4.33,8.25-8.52,12.54-12.52,4.29-4,8.47-6.65,12.55-7.79.77.7,1.16,1.05,1.93,1.77,0,2.12-.64,4.74-1.93,7.84-1.29,3.1-2.9,6.29-4.83,9.56-1.93,3.27-4.08,6.35-6.43,9.23-2.36,2.88-4.61,5.14-6.75,6.8-4.29,3.33-7.77,6.93-10.45,10.82-2.68,3.89-6.27,7.91-10.77,11.91-1.5,2.67-3.81,4.92-6.92,6.73-3.11,1.81-6.25,3.67-9.16,4.89-2.98,1.25-7.14,2.6-11.74,4.24-4.61,1.65-8.52,2.47-11.74,2.61-2.36.1-4.02-.06-4.99-.49-.96-.43-1.56-1.11-1.77-2.04-.21-.93-.16-2.15.16-3.67.32-1.52.48-3.38.48-5.58v-13.36c0-1.97.59-4.04,1.77-6.25,1.17-2.21,1.77-4.28,1.77-6.17v-4.37c0,1.17.21.58.64-1.79.43-2.37.97-5.88,1.61-10.61.64-4.73,1.18-10.36,1.61-16.94.43-6.58.64-13.5.64-20.74,0-.95.59-2.54,1.77-4.82,1.18-2.27,1.77-3.99,1.77-5.11v-8.7c1.29-5.22,2.25-10.3,2.89-15.21.64-4.9,1.29-9.78,1.93-14.61.64-4.83,1.5-9.84,2.57-15.06,1.07-5.21,3.08-10.98,5.15-16.92,1.85-5.31,4.5-11.59,8.36-18.12,3.86-6.52,7.29-13.25,10.29-20.18,1.5-3.19,3.16-6.31,4.99-9.36,1.82-3.04,4.13-6.02,6.92-8.93,3-5.95,7.13-11.75,12.38-17.38,5.25-5.63,10.34-9.95,15.27-12.91,9.65-5.79,14.47-8.68,24.12-14.36Z" style="fill:#fff; stroke-width:0px;"/><path d="m846.91,624.38c4.37-1.54,8.31-2.54,11.42-2.11,3.1.42,5.63,1.72,7.56,3.88,1.93,2.17,3.33,5.02,4.18,8.53.86,3.52,1.07,7.59.97,11.88-.14,5.99-2.15,11.82-6.43,16.93-4.29,5.11-8.94,9.69-13.19,13.78-4.07,3.93-8.42,8.06-13.03,11.65-4.61,3.6-8.9,7.28-12.86,11.02-3.97,3.75-7.29,7.68-9.97,11.79-2.68,4.12-4.13,8.77-4.34,14.05v13.22c-.43,3.67.32,7.03,2.25,10.18,1.93,3.15,5.75,3.55,7.4,4.02.15.04,1.07-.28,2.57-1.42,1.5-1.13,3.16-2.46,4.99-4.01,1.82-1.54,3.65-3.15,5.47-4.83,1.82-1.68,3.16-2.95,4.02-3.8,3.22-2.19,5.73-4,7.56-5.4,1.82-1.39,3.35-1.7,4.02-1.66,1.13.08,2.79-.32,3.86-.06,1.07.26,1.73,2.04,1.61,4.97-.21,5.05-2.47,10.64-6.11,15.98-3.65,5.35-7.61,10.3-11.9,14.81-4.29,4.52-8.47,8.4-12.54,11.67-4.08,3.27-6.75,5.55-8.04,6.96-3.65,3.55-7.03,5.45-10.13,5.85-3.11.4-6.44.87-9.49.89-1.83.01-3.91-.79-5.95-2.06-2.04-1.27-3.86-2.77-5.47-4.5-1.61-1.74-2.84-3.53-3.7-5.38s-1.18-3.46-.97-4.84v-4.94c0-1.35-.43-2.74-1.28-4.16-.43-.7-.86-1.31-1.29-1.82.39-2.36.58-3.55.97-5.93v-4.62c0-.77.21-2.87.64-6.33.43-3.45.96-7.24,1.61-11.35.64-4.11,1.23-8.04,1.77-11.77.53-3.73.72-6.68,1.13-7.45.39-.73,1.29-1.55,1.29-2.13s-.11-1.14-.32-1.66c-.21-.51-.32-1.21-.32-2.08s.43-2.03,1.29-3.47c0-2.34.53-4.93,1.61-7.83.64-1.58,1.29-3.17,1.93-4.76,1.8-4.5,2.7-6.77,4.5-11.34.43-4.5,2.68-9.83,6.75-16.13,4.07-6.29,8.85-12.52,14.31-18.66,5.47-6.13,11.1-11.65,16.89-16.47,5.79-4.82,10.96-7.76,14.79-9.11Zm-14.47,29.69c-1.07.41-2.14,1.61-3.22,3.6-1.07,1.99-2.25,4.17-3.22,6.42-1.12,2.6-2.14,5.52-3.22,8.43-.21,1.13-.53,2.45-.96,3.96-.43,1.52-.75,2.89-.97,4.11-.21,1.23-.1,2.14.32,2.73.43.59,1.38.52,2.57.24.95-.22,2.68-.89,4.83-2.24,2.14-1.35,4.34-3.05,6.59-5.1,2.25-2.05,4.29-4.3,6.11-6.78,1.82-2.47,2.84-4.84,3.06-7.11v-5.56c0-1.08-.32-1.95-.97-2.59-.64-.63-1.51-.93-2.25-1.12-.79-.2-1.93-.47-3.22-.42-2.19.56-3.28.85-5.47,1.43Z" style="fill:#fff; stroke-width:0px;"/><path d="m944.36,551.35c1.93-.11,3.81-.14,5.63-.09s3.54.34,5.15.88c1.61.54,2.89,1.45,3.86,2.71.97,1.27,1.45,3.06,1.45,5.37,0,1.39-1.5,3.99-4.5,7.84-3,3.85-6.27,8.1-9.81,12.76-3.54,4.66-6.81,9.24-9.81,13.71-3.01,4.48-4.5,7.91-4.5,10.26,0,1.88.48,3.27,1.45,4.17.97.9,2.09,1.5,3.38,1.8,1.28.31,2.62.49,4.02.57,1.39.08,2.41.12,3.05.1,4.25-.09,6.37-.11,10.61-.1.43-.47,1.07-1.07,1.93-1.78,1.72-1.42,3.11-2.11,4.18-2.09,3.22.06,5.52,1.58,6.92,4.5,1.39,2.92,2.09,6.2,2.09,9.82v9.79c0,2.67-1.29,4.67-3.86,6.04-2.57,1.37-5.42,2.38-8.52,3.06-3.11.68-6.11,1.14-9,1.38-2.9.25-4.67.39-5.31.4-3.22.04-5.04-.1-5.47-.45-.43-.35-1.28-.51-2.57-.48-2.57.07-3.86.11-6.43.22-1.29.05-3.11.85-5.47,2.41-2.36,1.56-3.54,3.31-3.54,5.24,0,2.66-.11,5.03-.32,7.09-.21,2.07-.45,3.86-.64,5.31-.23,1.7-.29,3.54-.64,4.78-.38,1.36-1.28,2.87-1.93,4.12-1.08,2.5-1.61,4.61-1.61,6.32v4.06c0,4.19-.53,8.79-1.61,13.8-1.07,5.02-2.04,8.05-2.89,9.08-1.08,1.29-1.93,2.51-2.57,3.66-.64,1.15-.97,4.1-.97,8.88v7.58c0,1.52.21,3.36.64,5.51.43,2.15,1.18,4.12,2.25,5.88,1.07,1.77,2.36,3.29,3.86,4.55,1.5,1.26,3.43,1.88,5.79,1.85,2.78-.03,5.14-.95,7.08-2.77.85-.78,1.71-1.69,2.57-2.72,1.72,0,3.06.57,4.02,1.72s1.96,2.41,2.73,3.68c.88,1.45,1.61,3.37,2.25,5.45,0,2.08-.7,4.8-2.09,8.19-1.4,3.39-3.05,6.72-4.98,10-1.93,3.28-3.97,6.18-6.11,8.69-2.14,2.51-3.97,3.77-5.47,3.77-1.5,0-2.95,1.53-4.34,4.58-1.4,3.05-2.09,5.24-2.09,6.57-.64,0-1.83.27-3.54.81-1.71.54-3.49,1.04-5.14,1.62-2.11.73-4.51,1.78-6.43,2.02-2.43.31-4.98-.17-6.59-.56-1.61-.39-2.41-1.59-2.41-3.7-.64-.5-1.61-2.36-2.89-5.54-1.28-3.18-2.57-6.64-3.86-10.38-1.29-3.74-2.41-7.37-3.38-10.93-.97-3.55-1.45-6.06-1.45-7.56v-17.53c0-.98.27-3.31.8-6.98.53-3.66,1.18-7.71,1.93-12.14.75-4.43,1.39-8.84,1.93-13.21.53-4.37.8-7.88.8-10.54v-6.14c1.72-5.95,3.49-11.36,4.83-15.98,1.15-3.96,2.14-8,3.22-11.3,1.07-3.3,1.61-5.19,1.61-5.66v-10.97c0-3.05-1.29-4.86-2.57-5.28-1.11-.37-2.69-1.49-4.18-2.16-1.5-.68-2.25-1.92-2.25-3.75,0-1.38.48-2.97,1.45-4.77.96-1.8,2.14-3.74,3.54-5.81,1.39-2.06,2.79-3.97,4.18-5.87,1.39-1.89,2.52-3.69,3.38-5.4,1.5-3.62,2.95-5.91,4.34-6.88,1.39-.97,2.95-2.25,4.67-3.82,2.78-3.76,5.79-6.97,9.01-9.6,3.21-2.63,6.22-6.49,9-11.56,1.72-3.36,3-6.68,3.86-9.95.85-3.26,2.92-6.47,5.79-8.03,2.36-1.28,5.25-3.1,7.4-5.86,2.14-2.76,3.86-4.18,5.14-4.25Z" style="fill:#fff; stroke-width:0px;"/><path d="m1024.76,558.75c1.93.5,3.81,1.07,5.63,1.7,1.82.63,3.54,1.5,5.14,2.56,1.61,1.07,2.89,2.4,3.86,3.96.97,1.57,1.45,3.49,1.45,5.76,0,1.37-1.5,3.42-4.5,6.3-3,2.88-6.27,6.12-9.81,9.78-3.54,3.65-6.81,7.38-9.81,11.13-3.01,3.75-4.5,6.87-4.5,9.23,0,1.9.48,3.4,1.45,4.52.97,1.12,2.09,1.98,3.38,2.58,1.28.6,2.62,1.1,4.02,1.5,1.39.4,2.41.68,3.05.82,4.25.91,6.37,1.41,10.61,2.48.43-.36,1.07-.78,1.93-1.25,1.71-.95,3.11-1.26,4.18-.96,3.22.9,5.52,2.98,6.92,6.16,1.39,3.17,2.09,6.48,2.09,9.93v9.32c0,2.54-1.29,4.13-3.86,4.85-2.57.72-5.42,1.07-8.52,1.06-3.11-.01-6.11-.18-9-.53-2.89-.35-4.67-.55-5.31-.67-3.22-.6-5.04-1.08-5.47-1.51-.43-.43-1.28-.76-2.57-.97-2.57-.42-3.86-.62-6.43-.99-1.29-.19-3.11.27-5.47,1.42-2.36,1.15-3.54,2.72-3.54,4.66,0,2.68-.11,5.04-.32,7.09-.21,2.05-.45,3.81-.64,5.24-.23,1.68-.29,3.5-.64,4.71-.37,1.27-1.28,2.69-1.93,3.86-1.08,2.36-1.61,4.41-1.61,6.13v4.08c0,4.21-.53,8.75-1.61,13.65-1.07,4.9-2.04,7.84-2.89,8.78-1.08,1.18-1.93,2.32-2.57,3.41-.64,1.09-.97,4.03-.97,8.83v7.59c0,1.52.21,3.38.64,5.56.43,2.18,1.18,4.2,2.25,6.03,1.07,1.84,2.36,3.43,3.86,4.79,1.5,1.35,3.43,2.09,5.79,2.23,2.78.16,5.14-.57,7.08-2.21.85-.7,1.71-1.52,2.57-2.46,1.71.13,3.06.8,4.02,1.99.96,1.2,1.96,2.48,2.73,3.77.88,1.47,1.61,3.37,2.25,5.42,0,2-.7,4.57-2.09,7.75-1.4,3.18-3.05,6.3-4.98,9.38-1.93,3.08-3.97,5.8-6.11,8.15-2.14,2.36-3.97,3.52-5.47,3.48-1.5-.04-2.95,1.4-4.34,4.34-1.4,2.94-2.09,5.08-2.09,6.38-.64-.01-1.82.23-3.54.72-1.71.49-3.49.96-5.14,1.49-2.11.68-4.51,1.68-6.43,1.89-2.44.27-4.99-.25-6.59-.66-1.61-.41-2.41-1.68-2.41-3.79-.64-.54-1.61-2.46-2.89-5.77-1.28-3.31-2.57-6.95-3.86-10.9-1.29-3.95-2.41-7.83-3.38-11.63-.97-3.8-1.45-6.48-1.45-8.04v-18.24c0-1.03.27-3.41.8-7.11.53-3.7,1.18-7.78,1.93-12.22.75-4.43,1.39-8.86,1.93-13.26.53-4.4.8-7.98.8-10.74v-6.39c1.72-5.7,3.5-10.84,4.83-15.14,1.16-3.76,2.14-7.52,3.22-10.79,1.07-3.27,1.61-5.15,1.61-5.64v-11.38c0-3.17-1.28-5.07-2.57-5.97-1.23-.86-2.68-2.54-4.18-3.81-1.5-1.27-2.25-2.86-2.25-4.79,0-1.45.48-2.95,1.45-4.49.96-1.53,2.14-3.12,3.54-4.75,1.39-1.62,2.79-3.3,4.18-5.03,1.39-1.72,2.52-3.4,3.38-5.02,1.5-3.5,2.95-5.6,4.34-6.34,1.39-.73,2.94-1.74,4.67-3.01,2.78-3.32,5.79-5.99,9-7.97,3.21-1.98,6.22-5.23,9-9.73,1.72-3.02,3-6.08,3.86-9.2.86-3.11,3.06-5.86,5.79-6.6,2.35-.64,5.25-1.63,7.4-3.78,2.14-2.15,3.86-3.03,5.14-2.7Z" style="fill:#fff; stroke-width:0px;"/><path d="m1099.05,638.56c4.24,2.47,8.31,5.34,11.42,8.65,3.11,3.31,5.63,6.85,7.56,10.54,1.93,3.7,3.33,7.44,4.18,11.22.86,3.78,1.07,7.52.97,10.95-.15,5.04-2.15,8.2-6.43,9.41-4.29,1.21-8.96,1.99-13.19,2.85-3.91.79-8.42,1.86-13.03,2.44-4.61.58-8.9,1.67-12.86,3.2-3.97,1.53-7.29,3.83-9.97,6.83-2.68,3-4.13,7.4-4.34,13.11,0,5.8,0,8.7,0,14.52-.43,3.86.32,7.86,2.25,11.96,1.93,4.1,5.73,5.82,7.4,6.77.19.11,1.07.04,2.57-.63,1.5-.67,3.16-1.47,4.99-2.39,1.82-.91,3.65-1.86,5.47-2.83,1.82-.97,3.16-1.68,4.02-2.16,3.22-.86,5.73-1.53,7.56-2.07,1.82-.54,3.25-.21,4.02.15,1.13.52,2.79.88,3.86,1.55,1.07.67,1.73,2.48,1.61,5.01-.21,4.22-2.47,8.34-6.11,12-3.65,3.67-7.61,7.16-11.9,10.45-4.29,3.29-8.47,6.29-12.54,8.89-4.08,2.61-6.75,4.63-8.04,5.94-3.65,3.24-7.03,4.99-10.13,5.08-3.11.1-6.49.27-9.49-.04-1.82-.19-3.91-1.37-5.95-3.16-2.04-1.8-3.86-3.89-5.47-6.31-1.61-2.42-2.84-4.89-3.7-7.4-.86-2.51-1.18-4.63-.97-6.35,0-2.51,0-3.77,0-6.28,0-1.72-.43-3.59-1.28-5.63-.43-1.02-.86-1.92-1.29-2.69.39-2.92.58-4.38.97-7.28,0-2.35,0-3.53,0-5.88,0-.98.21-3.59.64-7.8.43-4.21.96-8.77,1.61-13.64.64-4.87,1.23-9.48,1.77-13.84.53-4.36.68-7.92,1.12-8.62.33-.52,1.29-1.21,1.29-1.92s-.11-1.46-.32-2.21c-.21-.75-.32-1.67-.32-2.74s.43-2.25,1.29-3.51c0-2.85.53-5.71,1.61-8.57.64-1.52,1.29-3.04,1.93-4.55,1.8-4.27,2.7-6.38,4.5-10.55.43-5.02,2.68-9.76,6.75-13.98,4.07-4.21,8.85-7.51,14.31-9.74,5.46-2.23,11.1-3.26,16.89-3.08,5.79.18,10.78,1.97,14.79,4.31Zm-14.48,17.02c-1.07-.44-2.14-.07-3.22,1.15-1.07,1.21-2.29,2.64-3.22,4.19-1.12,1.86-2.15,4.18-3.22,6.47-.21,1.04-.54,2.21-.96,3.5-.43,1.31-.75,2.54-.97,3.69-.21,1.16-.11,2.2.32,3.11s1.44,1.5,2.57,1.98c1.02.43,2.68.86,4.83.92,2.14.06,4.34-.16,6.59-.63,2.25-.47,4.29-1.25,6.11-2.33,1.82-1.08,2.84-2.59,3.06-4.6v-5.36c0-1.05-.32-2.13-.97-3.26-.64-1.12-1.49-2.09-2.25-2.89-.86-.91-1.93-2.01-3.22-2.99-2.19-1.2-3.28-1.79-5.47-2.94Z" style="fill:#fff; stroke-width:0px;"/></svg>