<?xml version="1.0" encoding="UTF-8"?><svg id="a" xmlns="http://www.w3.org/2000/svg" xmlns:xlink="http://www.w3.org/1999/xlink" viewBox="0 0 1536 1024"><defs><filter id="b" filterUnits="userSpaceOnUse"><feOffset dx="8" dy="8"/><feGaussianBlur result="c" stdDeviation="0"/><feFlood flood-color="#000" flood-opacity="1"/><feComposite in2="c" operator="in"/><feComposite in="SourceGraphic"/></filter><filter id="d" filterUnits="userSpaceOnUse"><feOffset dx="3" dy="3"/><feGaussianBlur result="e" stdDeviation="0"/><feFlood flood-color="#000" flood-opacity="1"/><feComposite in2="e" operator="in"/><feComposite in="SourceGraphic"/></filter></defs><g style="filter:url(#b);"><path d="m193.65,515.22c-2.84-5.44-8.02-8.17-15.53-8.17-4.14,0-7.56,1.11-10.24,3.34-2.69,2.22-4.8,5.83-6.33,10.81-1.53,4.99-2.61,11.5-3.22,19.56-.61,8.05-.92,17.91-.92,29.56,0,12.42.42,22.47,1.27,30.14.84,7.67,2.15,13.61,3.91,17.83,1.76,4.22,3.99,7.06,6.67,8.51,2.68,1.46,5.79,2.19,9.32,2.19,2.91,0,5.64-.5,8.17-1.5,2.53-1,4.72-2.99,6.56-5.98,1.84-2.99,3.3-7.21,4.37-12.65,1.07-5.44,1.61-12.61,1.61-21.51h33.13c0,8.9-.69,17.33-2.07,25.31-1.38,7.98-3.95,14.95-7.71,20.94-3.76,5.98-9.05,10.66-15.87,14.03-6.83,3.37-15.68,5.06-26.57,5.06-12.42,0-22.32-2-29.68-5.98-7.36-3.99-13-9.74-16.91-17.25-3.91-7.51-6.44-16.49-7.59-26.92-1.15-10.43-1.73-21.93-1.73-34.51s.58-23.89,1.73-34.39c1.15-10.5,3.68-19.52,7.59-27.03,3.91-7.51,9.55-13.38,16.91-17.6,7.36-4.22,17.25-6.33,29.68-6.33s21.13,1.92,27.95,5.75c6.82,3.84,11.92,8.71,15.3,14.61,3.37,5.91,5.48,12.27,6.33,19.1.84,6.83,1.27,13.23,1.27,19.21h-33.13c0-11.96-1.42-20.67-4.26-26.11Z" style="fill:#f9cf6f; stroke-width:0px;"/><path d="m249.55,533.63c1.15-10.5,3.68-19.52,7.59-27.03,3.91-7.51,9.55-13.38,16.91-17.6,7.36-4.22,17.25-6.33,29.68-6.33s22.32,2.11,29.68,6.33c7.36,4.22,13,10.09,16.91,17.6,3.91,7.52,6.44,16.53,7.59,27.03,1.15,10.51,1.73,21.97,1.73,34.39s-.58,24.08-1.73,34.51c-1.15,10.43-3.68,19.4-7.59,26.92-3.91,7.52-9.55,13.27-16.91,17.25-7.36,3.99-17.25,5.98-29.68,5.98s-22.32-2-29.68-5.98c-7.36-3.99-13-9.74-16.91-17.25-3.91-7.51-6.44-16.49-7.59-26.92-1.15-10.43-1.73-21.93-1.73-34.51s.58-23.89,1.73-34.39Zm32.21,62.58c.54,7.75,1.61,14.03,3.22,18.87,1.61,4.83,3.91,8.36,6.9,10.58,2.99,2.23,6.94,3.34,11.85,3.34s8.86-1.11,11.85-3.34c2.99-2.22,5.29-5.75,6.9-10.58,1.61-4.83,2.68-11.12,3.22-18.87.54-7.74.81-17.14.81-28.18s-.27-20.4-.81-28.07c-.54-7.67-1.61-13.96-3.22-18.87-1.61-4.91-3.91-8.47-6.9-10.7-2.99-2.22-6.94-3.34-11.85-3.34s-8.86,1.11-11.85,3.34c-2.99,2.22-5.29,5.79-6.9,10.7-1.61,4.91-2.69,11.2-3.22,18.87-.54,7.67-.8,17.02-.8,28.07s.27,20.44.8,28.18Z" style="fill:#f9cf6f; stroke-width:0px;"/><path d="m429.12,485.89l23.47,115.95h.46l23.7-115.95h49v164.27h-30.37v-131.14h-.46l-29.22,131.14h-25.77l-29.22-131.14h-.46v131.14h-30.37v-164.27h49.23Z" style="fill:#f9cf6f; stroke-width:0px;"/><path d="m551.05,485.89h33.13v164.27h-33.13v-164.27Z" style="fill:#f9cf6f; stroke-width:0px;"/><path d="m687.02,598.39h.46v-112.5h30.37v164.27h-37.73l-40.49-115.03h-.46v115.03h-30.37v-164.27h38.19l40.03,112.5Z" style="fill:#f9cf6f; stroke-width:0px;"/><path d="m812.75,525.23c-.69-3.22-1.8-6.17-3.34-8.86-1.54-2.68-3.49-4.91-5.87-6.67-2.38-1.76-5.25-2.65-8.63-2.65-7.98,0-13.73,4.45-17.25,13.34-3.53,8.9-5.29,23.62-5.29,44.17,0,9.82.31,18.71.92,26.69.61,7.98,1.73,14.76,3.34,20.36,1.61,5.6,3.91,9.89,6.9,12.88s6.86,4.49,11.62,4.49c1.99,0,4.18-.54,6.56-1.61,2.38-1.07,4.6-2.68,6.67-4.83,2.07-2.15,3.8-4.87,5.18-8.17,1.38-3.3,2.07-7.17,2.07-11.62v-16.79h-21.86v-24.39h53.6v88.57h-24.39v-15.18h-.46c-3.99,6.44-8.78,11.01-14.38,13.69-5.6,2.68-12.31,4.03-20.13,4.03-10.12,0-18.37-1.76-24.73-5.29-6.37-3.53-11.35-8.97-14.95-16.33-3.61-7.36-6.02-16.45-7.25-27.26-1.23-10.81-1.84-23.35-1.84-37.62s.88-25.92,2.65-36.35c1.76-10.43,4.79-19.13,9.09-26.11,4.29-6.98,9.97-12.23,17.02-15.76,7.05-3.53,15.88-5.29,26.46-5.29,18.1,0,31.13,4.49,39.11,13.46,7.97,8.97,11.96,21.82,11.96,38.54h-31.75c0-3.07-.34-6.21-1.04-9.43Z" style="fill:#f9cf6f; stroke-width:0px;"/><path d="m950.67,603.68c0,3.83.31,7.33.92,10.47.61,3.15,1.76,5.79,3.45,7.94,1.69,2.15,3.95,3.83,6.79,5.06,2.84,1.23,6.4,1.84,10.7,1.84,5.06,0,9.62-1.65,13.69-4.95,4.06-3.3,6.1-8.4,6.1-15.3,0-3.68-.5-6.86-1.5-9.55-1-2.68-2.65-5.1-4.95-7.25-2.3-2.15-5.33-4.1-9.09-5.87-3.76-1.76-8.4-3.57-13.92-5.41-7.36-2.45-13.73-5.14-19.09-8.05-5.37-2.91-9.86-6.33-13.46-10.24-3.61-3.91-6.25-8.43-7.94-13.57-1.69-5.14-2.53-11.08-2.53-17.83,0-16.26,4.52-28.37,13.57-36.35,9.05-7.97,21.47-11.96,37.27-11.96,7.36,0,14.15.8,20.36,2.42,6.21,1.61,11.58,4.22,16.1,7.82,4.52,3.61,8.05,8.21,10.58,13.8,2.53,5.6,3.8,12.31,3.8,20.13v4.6h-31.75c0-7.82-1.38-13.84-4.14-18.06-2.76-4.22-7.36-6.33-13.8-6.33-3.68,0-6.75.54-9.2,1.61-2.46,1.08-4.41,2.5-5.87,4.26-1.46,1.77-2.46,3.8-2.99,6.1-.54,2.3-.81,4.68-.81,7.13,0,5.06,1.07,9.32,3.22,12.77,2.15,3.45,6.75,6.64,13.8,9.55l25.54,11.04c6.29,2.76,11.42,5.64,15.42,8.63,3.99,2.99,7.17,6.21,9.55,9.66,2.38,3.45,4.03,7.25,4.95,11.39.92,4.14,1.38,8.74,1.38,13.8,0,17.33-5.03,29.95-15.07,37.85-10.05,7.9-24.04,11.85-41.99,11.85s-32.09-4.06-40.15-12.19c-8.05-8.13-12.08-19.79-12.08-34.97v-6.67h33.13v4.83Z" style="fill:#f9cf6f; stroke-width:0px;"/><path d="m1041.66,533.63c1.15-10.5,3.68-19.52,7.59-27.03,3.91-7.51,9.55-13.38,16.91-17.6,7.36-4.22,17.25-6.33,29.68-6.33s22.32,2.11,29.68,6.33c7.36,4.22,13,10.09,16.91,17.6,3.91,7.52,6.44,16.53,7.59,27.03,1.15,10.51,1.73,21.97,1.73,34.39s-.58,24.08-1.73,34.51c-1.15,10.43-3.68,19.4-7.59,26.92-3.91,7.52-9.55,13.27-16.91,17.25-7.36,3.99-17.25,5.98-29.68,5.98s-22.32-2-29.68-5.98c-7.36-3.99-13-9.74-16.91-17.25-3.91-7.51-6.44-16.49-7.59-26.92-1.15-10.43-1.73-21.93-1.73-34.51s.58-23.89,1.73-34.39Zm32.21,62.58c.54,7.75,1.61,14.03,3.22,18.87,1.61,4.83,3.91,8.36,6.9,10.58,2.99,2.23,6.94,3.34,11.85,3.34s8.86-1.11,11.85-3.34c2.99-2.22,5.29-5.75,6.9-10.58,1.61-4.83,2.68-11.12,3.22-18.87.54-7.74.81-17.14.81-28.18s-.27-20.4-.81-28.07c-.54-7.67-1.61-13.96-3.22-18.87-1.61-4.91-3.91-8.47-6.9-10.7-2.99-2.22-6.94-3.34-11.85-3.34s-8.86,1.11-11.85,3.34c-2.99,2.22-5.29,5.79-6.9,10.7-1.61,4.91-2.69,11.2-3.22,18.87-.54,7.67-.8,17.02-.8,28.07s.27,20.44.8,28.18Z" style="fill:#f9cf6f; stroke-width:0px;"/><path d="m1169.57,533.63c1.15-10.5,3.68-19.52,7.59-27.03,3.91-7.51,9.55-13.38,16.91-17.6,7.36-4.22,17.25-6.33,29.68-6.33s22.32,2.11,29.68,6.33c7.36,4.22,13,10.09,16.91,17.6,3.91,7.52,6.44,16.53,7.59,27.03,1.15,10.51,1.73,21.97,1.73,34.39s-.58,24.08-1.73,34.51c-1.15,10.43-3.68,19.4-7.59,26.92-3.91,7.52-9.55,13.27-16.91,17.25-7.36,3.99-17.25,5.98-29.68,5.98s-22.32-2-29.68-5.98c-7.36-3.99-13-9.74-16.91-17.25-3.91-7.51-6.44-16.49-7.59-26.92-1.15-10.43-1.73-21.93-1.73-34.51s.58-23.89,1.73-34.39Zm32.21,62.58c.54,7.75,1.61,14.03,3.22,18.87,1.61,4.83,3.91,8.36,6.9,10.58,2.99,2.23,6.94,3.34,11.85,3.34s8.86-1.11,11.85-3.34c2.99-2.22,5.29-5.75,6.9-10.58,1.61-4.83,2.68-11.12,3.22-18.87.54-7.74.81-17.14.81-28.18s-.27-20.4-.81-28.07c-.54-7.67-1.61-13.96-3.22-18.87-1.61-4.91-3.91-8.47-6.9-10.7-2.99-2.22-6.94-3.34-11.85-3.34s-8.86,1.11-11.85,3.34c-2.99,2.22-5.29,5.79-6.9,10.7-1.61,4.91-2.69,11.2-3.22,18.87-.54,7.67-.8,17.02-.8,28.07s.27,20.44.8,28.18Z" style="fill:#f9cf6f; stroke-width:0px;"/><path d="m1377.43,598.39h.46v-112.5h30.37v164.27h-37.73l-40.49-115.03h-.46v115.03h-30.37v-164.27h38.19l40.03,112.5Z" style="fill:#f9cf6f; stroke-width:0px;"/></g><g style="filter:url(#d);"><path d="m588.47,403.12c2.99,2.99,3.68,6.21,3.68,10.12,0,5.98-1.84,13.34-1.84,22.09,0,2.07,0,4.14.23,6.21,2.99-11.5,10.12-36.12,21.17-36.12.69,0,1.15,0,1.84.23,10.81,2.53,10.12,15.64,10.81,24.39,0,.69,0,1.15.23,1.15,0,0,.69-2.53,4.14-10.12,2.76-6.67,6.44-15.64,13.57-15.64,1.61,0,3.22.23,5.06,1.15,14.03,6.44,8.97,29.22,12.42,49.46,8.28-3.22,12.88-18.87,15.18-27.61.23-.92.92-1.38,1.61-1.38.92,0,1.84.69,1.84,1.84v.69c-2.53,10.12-9.2,37.04-23.47,37.04-1.61,0-3.45-.46-5.29-1.15-15.64-6.44-8.05-31.75-14.26-48.31-4.6,3.45-8.28,17.94-9.89,24.16v3.68c0,13.57-5.06,20.01-8.97,20.01-.69,0-1.38-.23-1.84-.46-10.81-6.9-8.74-24.85-10.35-45.78-7.82,4.6-11.73,38.65-12.88,44.4-.46,2.76-3.45,4.83-6.21,4.83-.46,0-1.15,0-1.61-.23-12.88-5.29-13.34-19.55-13.34-31.52v-4.6c0-11.04.69-26.69,11.5-30.14.46-.23,1.15-.23,1.84-.23,1.61,0,3.45.69,4.83,1.84Z" style="fill:#fff; stroke-width:0px;"/><path d="m712.01,412.55c2.53-5.98,6.21-8.05,9.89-8.05,4.83,0,9.43,4.6,9.43,9.66,0,.69,0,1.38-.23,2.07-2.3,8.51-5.98,17.94-5.98,27.15,0,2.3.23,4.6.69,6.9.23.92,1.15,4.6,1.15,5.29v.23h.23c2.3,0,10.81-10.58,13.34-24.39.23-.92.92-1.38,1.84-1.38s2.3.69,2.3,1.84c0,.23-.23.46-.23.69-3.45,11.04-8.05,34.05-22.78,34.05-1.61,0-3.45-.23-5.52-.92-8.05-2.99-11.04-10.58-11.27-19.79-7.36,14.26-15.18,20.01-21.63,20.01-8.51,0-14.49-9.2-14.49-22.08,0-13.8,8.05-39.11,24.16-41.18h1.84c5.98,0,14.95,3.91,17.25,9.89Zm-23.7,31.98c0,.92,0,1.61.23,2.3.69,2.99,1.84,4.37,3.22,4.37,4.14,0,10.35-10.35,14.03-18.17,1.61-8.05,3.45-12.65,3.45-13.57-.92-4.14-2.53-5.75-4.37-5.75-6.67,0-16.56,20.71-16.56,30.83Z" style="fill:#fff; stroke-width:0px;"/><path d="m755.49,411.63c.69,2.07.92,4.83.92,8.05,0,7.82-1.38,17.71-1.38,24.85,0,5.06.46,8.74,2.76,9.66h.46c3.68,0,12.42-11.04,17.02-27.61-.23-2.07-.46-3.91-.46-5.52,0-9.2,3.91-12.42,8.05-12.42,2.76,0,5.52,1.61,7.13,3.68,6.21,8.05,6.9,21.85,7.59,32.44,6.21-4.14,11.73-8.97,15.18-15.87.23-.69.69-.92,1.38-.92s1.61.69,1.61,1.61c0,.23,0,.69-.23.92-4.37,7.82-10.81,13.11-17.71,17.71.46,4.83.46,9.43.46,13.8,0,39.11-14.95,53.37-28.07,53.37-9.89,0-18.86-8.28-18.86-20.48,0-10.81,7.13-24.85,27.15-38.42,0-6.67-.69-13.8-1.61-20.02-3.45,10.12-11.5,29.91-23.01,31.98-.92.23-1.84.23-2.76.23-11.73,0-16.1-15.64-16.1-31.29,0-11.27,2.3-22.55,5.52-27.61,1.84-2.76,4.37-3.91,6.9-3.91,3.45,0,6.9,1.84,8.05,5.75Zm1.61,82.82c0,5.06,2.07,8.28,5.06,8.28,3.45,0,8.28-4.6,12.42-15.87,3.22-8.28,3.91-17.02,4.14-25.77-16.1,11.96-21.62,25.08-21.62,33.36Z" style="fill:#fff; stroke-width:0px;"/><path d="m836.47,365.16c0,1.15,0,2.3-.46,3.45-5.98,20.25-9.66,35.2-9.66,53.37,0,3.45.23,6.9.46,10.58,4.14-18.63,11.96-26.23,19.79-26.23,8.97,0,17.94,10.58,20.47,26.69,4.83-.23,9.43-.92,13.34-3.45.46-.23.69-.46,1.15-.46.92,0,1.84.92,1.84,2.07,0,2.07-3.45,5.52-15.18,5.52h-.69c0,1.15.23,2.3.23,3.45,0,16.1-8.28,31.06-21.17,31.06-.92,0-1.84,0-2.99-.23-7.59-1.38-12.19-8.97-12.19-17.02,0-8.51,4.83-17.25,16.1-20.01-.92-4.6-2.3-8.05-9.43-14.72-6.9,5.98-8.97,16.79-8.97,27.61,0,6.44.69,12.65,1.38,17.94v1.38c0,4.6-3.45,6.67-7.36,6.67s-7.82-2.07-9.43-5.75c-5.06-13.34-7.59-28.76-7.59-44.63,0-20.48,4.14-41.64,11.5-58.89,1.84-4.6,5.75-6.67,9.66-6.67,4.83,0,9.2,2.99,9.2,8.28Zm-.46,84.43v.69c0,3.91,1.61,5.98,3.91,5.98,3.45,0,8.05-5.52,8.05-16.1v-2.76c-6.21,1.84-11.73,5.75-11.96,12.19Z" style="fill:#fff; stroke-width:0px;"/><path d="m909.4,411.4c1.84,2.99,2.53,5.75,2.53,8.28,0,9.2-9.2,16.1-18.63,17.71.69,10.12,7.13,19.32,15.18,19.32,6.9,0,15.18-7.13,21.17-27.38.23-.92.92-1.15,1.61-1.15.92,0,1.61.46,1.61,1.38v.46c-8.28,28.07-22.32,39.34-34.51,39.34-13.34,0-24.85-13.11-24.85-32.67,0-3.45.46-7.13,1.15-10.81,2.99-15.64,11.73-23.01,20.25-23.24,5.52,0,10.81,2.99,14.49,8.74Zm-9.66,6.67c-3.91,3.45-5.75,8.74-6.44,14.26,9.66-2.53,13.11-8.28,13.11-11.96,0-2.3-1.15-3.91-2.99-3.91-1.15,0-2.3.46-3.68,1.61Z" style="fill:#fff; stroke-width:0px;"/></g></svg>