<?xml version="1.0" encoding="UTF-8"?><svg id="a" xmlns="http://www.w3.org/2000/svg" xmlns:xlink="http://www.w3.org/1999/xlink" viewBox="0 0 1536 1024"><defs><filter id="b" filterUnits="userSpaceOnUse"><feOffset dx="15" dy="15"/><feGaussianBlur result="c" stdDeviation="0"/><feFlood flood-color="#fff1a1" flood-opacity="1"/><feComposite in2="c" operator="in"/><feComposite in="SourceGraphic"/></filter></defs><g style="filter:url(#b);"><path d="m168.04,933.28c-7.9,8.5-34.78,3.95-34.39-11.07.2-8.1,1.98-16.21,3.16-24.31,3.56-24.7,3.75-50.79,5.14-75.69.59-9.68.79-19.57,2.57-29.25,1.19-5.93,3.75-16.01,10.28-18.38,9.49-3.36,26.88.4,28.66,12.06,5.53-3.16,11.86-5.14,18.38-5.34,58.5-2.57,59.09,94.86,14.03,100,7.31,10.67,12.45,22.93,19.17,33.99,1.58,2.57,2.57,5.34,1.98,8.3-1.98,10.87-24.9,17.98-32.21,8.5-12.25-16.21-17.19-37.35-27.67-54.74l-1.98-.79c.2,12.06.79,48.22-7.12,56.72Zm32.61-121.35c-2.17-3.36-6.13-5.73-10.08-3.95-12.65,6.13-16.21,46.84-3.16,51.19,13.04,4.35,21.54-33.99,13.24-47.23Z" style="fill:#f45b69; stroke-width:0px;"/><path d="m313.89,937.62c-17,9.09-36.76.99-45.65-15.22-4.15-7.71-6.92-16.21-8.5-24.7-3.75-19.76-3.56-39.72-1.58-59.69.99-9.49,4.55-43.68,11.46-49.8,2.17-1.78,4.94-2.77,7.71-3.16,6.52-.79,18.38,1.58,21.34,8.1,6.92,14.82-18.78,82.02,1.78,104.55,3.56,3.95,10.08,5.14,14.82,2.96,19.17-8.89,26.88-71.54,26.48-90.91-.2-7.11-.59-19.76,2.17-26.29,5.34-12.65,26.68-8.89,30.24,1.78,1.98,6.32-1.78,40.32-2.37,49.61-1.78,26.29-2.57,52.37-1.78,78.66.2,7.91,1.19,16.21-.2,24.11-.59,3.16-1.98,6.13-4.94,7.71-4.15,2.17-9.88,2.17-14.43,1.78-20.95-1.98-19.57-15.81-16.8-32.21-3.95,8.89-11.07,17.98-19.76,22.73Z" style="fill:#f45b69; stroke-width:0px;"/><path d="m426.34,895.13c-.99,13.04.79,33.79-9.49,43.48-12.45,11.86-30.44-.2-32.02-15.42-2.17-20.55,11.86-118.97,22.13-136.76,4.35-7.51,14.82-11.46,23.12-9.09,6.52,1.98,10.87,8.89,13.44,14.82,8.7,20.95,10.47,44.47,14.82,66.4,3.36-20.16,5.34-41.7,15.22-60.08,4.15-7.91,15.22-19.17,25.3-16.4,4.94,1.38,8.7,5.93,11.07,10.28,12.06,22.13,26.09,103.76,24.7,129.25-1.19,21.94-27.08,28.26-34.39,7.51-8.7-24.51-10.28-70.95-11.46-97.63-5.14,17.39-9.49,35.57-12.65,53.36-.99,4.94-1.19,9.88-2.57,14.82-.99,3.16-1.98,6.72-4.54,8.89-2.17,1.78-4.74,2.57-7.51,2.17-5.53-.59-10.47-4.35-13.44-8.89-4.55-6.72-13.04-52.96-15.42-63.64-3.36,18.58-4.74,38.14-6.32,56.92Z" style="fill:#f45b69; stroke-width:0px;"/><path d="m550.45,907.78c-18.38-30.63-3.95-100.59,23.72-122.53,6.13-4.74,13.24-8.1,20.75-9.49,77.67-14.62,92.29,132.02,31.82,155.73-24.9,9.68-62.25-.2-76.29-23.72Zm63.64-93.08c-26.29-14.62-52.37,76.09-9.49,79.84,30.63,2.77,28.26-69.37,9.49-79.84Z" style="fill:#f45b69; stroke-width:0px;"/><path d="m706.97,933.28c-7.91,8.5-34.78,3.95-34.39-11.07.2-8.1,1.98-16.21,3.16-24.31,3.56-24.7,3.75-50.79,5.14-75.69.59-9.68.79-19.57,2.57-29.25,1.19-5.93,3.75-16.01,10.28-18.38,9.49-3.36,26.88.4,28.66,12.06,5.53-3.16,11.86-5.14,18.38-5.34,58.5-2.57,59.09,94.86,14.03,100,7.31,10.67,12.45,22.93,19.17,33.99,1.58,2.57,2.57,5.34,1.98,8.3-1.98,10.87-24.9,17.98-32.21,8.5-12.25-16.21-17.19-37.35-27.67-54.74l-1.98-.79c.2,12.06.79,48.22-7.11,56.72Zm32.61-121.35c-2.17-3.36-6.13-5.73-10.08-3.95-12.65,6.13-16.21,46.84-3.16,51.19,13.04,4.35,21.54-33.99,13.24-47.23Z" style="fill:#f45b69; stroke-width:0px;"/><path d="m959.33,929.92c-4.35,13.83-24.7,17.79-33.2,6.32-7.71-10.28-2.77-54.55-1.19-68.18l-23.12,1.38c1.78,17.59,1.78,52.77-19.17,59.68-5.73,1.98-18.18.99-22.53-3.75-3.95-4.35-1.98-19.96-1.58-25.89.79-12.45,1.78-24.9,1.38-37.35-.79-23.12-8.7-49.61-.79-71.94,2.17-6.52,6.52-10.87,13.04-13.04,9.68-3.36,22.33-1.38,26.29,9.29,3.36,9.09,3.56,19.17,3.56,28.85,0,10.47-.39,20.75-.99,31.23,8.89-.59,17.98-.4,26.88-1.38,2.17-13.83,7.31-60.87,11.66-70.36,4.54-10.47,22.53-10.47,28.26-.99,6.13,10.08-2.37,56.33-4.35,68.97,16.4,0,17.39,15.22,9.88,20.95-3.56,2.57-8.3,2.57-12.45,3.56-.79,14.23,1.58,52.17-1.58,62.65Z" style="fill:#f45b69; stroke-width:0px;"/><path d="m1016.05,915.1c-2.96,13.83-9.09,19.17-23.71,15.61-3.16-.79-6.72-1.98-8.3-5.14-2.17-4.55,4.94-31.23,6.32-37.95-1.78,0-3.75,0-5.53.4-10.08-.4-12.25-17.98,9.88-19.76,3.56-16.21,16.6-73.12,28.46-83.2,6.52-5.73,21.74-7.11,29.45-3.16,3.36,1.78,5.93,4.55,7.51,7.91,9.68,19.96,12.65,60.28,16.4,83.2,18.97,5.53,16.6,25.3,3.56,25.1.59,5.93,3.56,19.17.59,24.31-2.17,3.76-7.71,5.93-11.86,6.52-23.72,3.16-23.32-20.36-25.3-37.75l-22.13-3.36c-1.58,9.09-3.36,18.18-5.34,27.27Zm24.9-44.67c-1.98-14.82-3.95-30.04-6.92-44.86-2.96,14.43-6.52,28.46-9.49,42.89,5.53.59,10.87,1.19,16.4,1.98Z" style="fill:#f45b69; stroke-width:0px;"/><path d="m1100.05,927.94c-6.92-5.93-7.71-22.53,1.78-26.29,10.47-4.15,37.35,8.1,45.65-4.15,1.78-2.77,1.78-6.72.79-9.68-8.1-24.11-67.79-29.64-54.74-76.29,4.74-17,15.81-27.67,33.2-30.83,28.06-5.14,51.98,8.5,54.55,38.34.4,3.75.4,7.71-1.19,11.07-2.37,4.94-8.7,8.1-14.03,6.72-13.24-3.56-1.98-29.05-18.58-35.57-6.13-2.37-15.81.79-17.79,7.51-5.34,18.18,24.9,32.81,36.56,40.71,17.79,11.86,27.27,34.19,19.17,54.74-3.95,10.08-11.27,18.58-20.75,23.72-16.6,8.89-49.21,13.04-64.62,0Z" style="fill:#f45b69; stroke-width:0px;"/><path d="m1268.82,930.51c-3.75-4.15-3.75-21.15-3.95-27.08-.2-9.68-.59-19.57-.99-29.25-.79-19.76-1.38-46.64-4.94-65.61-.99-5.14-2.96-10.08-3.56-15.22-.99-7.11,1.78-10.67,8.5-13.24,6.32-2.37,22.33-4.74,27.27,1.19,3.75,4.55,5.34,24.51,5.93,31.03.99,11.86,1.38,23.72,2.37,35.57,1.58,19.57,4.55,39.33,4.74,59.09,0,6.52,0,13.83-1.98,20.16-1.78,5.73-6.72,7.91-12.25,8.7-6.13.79-16.8-.59-21.15-5.34Z" style="fill:#f45b69; stroke-width:0px;"/><path d="m1390.55,880.9c2.96,16.21,5.53,33.4,1.58,49.61-3.76,15.61-32.21,19.57-40.51,6.72-2.57-3.95-2.96-9.29-3.36-14.03-2.77-39.33-.79-79.25-8.3-118.38-7.9,2.77-26.88,9.88-31.62-.59-1.58-3.56-2.77-11.86.2-15.02,2.57-2.77,28.46-7.51,33.2-8.1,12.45-1.78,68.58-9.88,63.04,14.43-2.37,11.07-18.38,7.31-26.88,8.1,3.16,25.89,7.91,51.58,12.65,77.27Z" style="fill:#f45b69; stroke-width:0px;"/></g></svg>