<?xml version="1.0" encoding="UTF-8"?><svg id="a" xmlns="http://www.w3.org/2000/svg" xmlns:xlink="http://www.w3.org/1999/xlink" viewBox="0 0 1536 1024"><defs><filter id="b" filterUnits="userSpaceOnUse"><feOffset dx="6" dy="6"/><feGaussianBlur result="c" stdDeviation="0"/><feFlood flood-color="#000" flood-opacity="1"/><feComposite in2="c" operator="in"/><feComposite in="SourceGraphic"/></filter></defs><g style="filter:url(#b);"><path d="m275.29,609.5c-6.07,1.67-13.27,2.5-21.61,2.5-12.28,0-22.07-1.97-29.34-5.91s-12.85-9.63-16.72-17.06c-3.87-7.43-6.37-16.3-7.51-26.62-1.14-10.31-1.71-21.69-1.71-34.12s.57-23.62,1.71-34.01c1.14-10.39,3.64-19.3,7.51-26.73,3.87-7.43,9.44-13.23,16.72-17.4,7.28-4.17,17.06-6.26,29.34-6.26s22.07,2.09,29.34,6.26c7.28,4.17,12.85,9.97,16.72,17.4,3.87,7.43,6.37,16.34,7.51,26.73,1.14,10.39,1.71,21.72,1.71,34.01,0,13.8-.76,26.31-2.27,37.53-1.52,11.22-4.93,20.7-10.24,28.43l17.52,17.06-19.34,17.52-19.34-19.34Zm-43.33-53.34c.53,7.66,1.59,13.88,3.19,18.65,1.59,4.78,3.87,8.27,6.82,10.46,2.96,2.2,6.86,3.3,11.71,3.3s8.76-1.1,11.72-3.3c2.96-2.2,5.23-5.69,6.82-10.46,1.59-4.78,2.65-10.99,3.18-18.65.53-7.66.8-16.95.8-27.87s-.27-20.17-.8-27.75c-.53-7.58-1.59-13.8-3.18-18.65-1.59-4.85-3.87-8.38-6.82-10.58-2.96-2.2-6.86-3.3-11.72-3.3s-8.76,1.1-11.71,3.3c-2.96,2.2-5.23,5.73-6.82,10.58-1.59,4.86-2.66,11.07-3.19,18.65-.53,7.59-.8,16.83-.8,27.75s.26,20.21.8,27.87Z" style="fill:#f2e863; stroke-width:0px;"/><path d="m389.71,595.17c-3.34,6.07-7.66,10.39-12.97,12.97-5.31,2.58-11.37,3.87-18.2,3.87-10.01,0-17.71-2.62-23.09-7.85-5.39-5.23-8.08-13.99-8.08-26.27v-90.76h31.39v84.4c0,6.37,1.06,10.81,3.18,13.31,2.12,2.5,5.53,3.75,10.24,3.75,11.07,0,16.61-6.75,16.61-20.25v-81.21h31.39v122.38h-30.03v-14.33h-.45Z" style="fill:#f2e863; stroke-width:0px;"/><path d="m467.96,562.87c0,3.64.26,7.17.8,10.58.53,3.41,1.4,6.45,2.62,9.1,1.21,2.66,2.8,4.78,4.78,6.37,1.97,1.59,4.4,2.39,7.28,2.39,5.31,0,9.17-1.89,11.6-5.69,2.42-3.79,4.09-9.55,5-17.29h28.21c-.61,14.26-4.4,25.1-11.37,32.53-6.98,7.43-17.97,11.15-32.98,11.15-11.37,0-20.25-1.9-26.62-5.69s-11.07-8.79-14.1-15.01c-3.04-6.22-4.89-13.19-5.57-20.93-.68-7.73-1.02-15.47-1.02-23.2,0-8.19.57-16.07,1.71-23.66,1.14-7.58,3.41-14.33,6.83-20.25,3.41-5.91,8.3-10.61,14.67-14.1,6.37-3.49,14.86-5.23,25.48-5.23,9.1,0,16.57,1.48,22.41,4.44,5.84,2.96,10.42,7.13,13.76,12.51,3.33,5.38,5.61,11.91,6.82,19.56,1.21,7.66,1.82,16.19,1.82,25.59v7.05h-62.1v9.78Zm31.17-40.83c-.46-3.56-1.25-6.6-2.39-9.1-1.14-2.5-2.73-4.4-4.78-5.69-2.05-1.29-4.66-1.93-7.85-1.93s-5.8.72-7.85,2.16c-2.05,1.44-3.68,3.34-4.89,5.69-1.22,2.35-2.09,4.97-2.62,7.85-.53,2.88-.8,5.77-.8,8.64v4.78h32.08c-.15-4.7-.46-8.83-.91-12.4Z" style="fill:#f2e863; stroke-width:0px;"/><path d="m569.42,573.56c0,5.31,1.4,9.59,4.21,12.85,2.8,3.26,6.86,4.89,12.17,4.89,4.85,0,8.72-1.21,11.6-3.64,2.88-2.42,4.32-6.06,4.32-10.92,0-3.94-1.14-6.94-3.41-8.99-2.27-2.05-4.93-3.68-7.96-4.89l-22.07-7.96c-8.64-3.03-15.17-7.31-19.56-12.85-4.4-5.53-6.6-12.63-6.6-21.27,0-5,.83-9.74,2.5-14.22,1.67-4.47,4.32-8.38,7.96-11.72,3.64-3.33,8.3-5.99,13.99-7.96,5.69-1.97,12.55-2.96,20.59-2.96,14.25,0,24.8,3.04,31.62,9.1,6.82,6.07,10.24,14.64,10.24,25.71v5h-28.21c0-6.37-1.02-11.03-3.07-13.99-2.05-2.96-5.65-4.44-10.81-4.44-3.95,0-7.39,1.1-10.35,3.3-2.96,2.2-4.44,5.5-4.44,9.9,0,3.04.95,5.77,2.84,8.19,1.89,2.43,5.5,4.47,10.81,6.14l18.88,6.37c9.86,3.34,16.83,7.7,20.93,13.08,4.09,5.38,6.14,12.7,6.14,21.95,0,6.52-1.14,12.17-3.41,16.95-2.27,4.78-5.42,8.76-9.44,11.94-4.02,3.18-8.8,5.46-14.33,6.82-5.54,1.36-11.64,2.05-18.31,2.05-8.8,0-16.12-.84-21.95-2.5-5.84-1.67-10.46-4.17-13.88-7.51-3.41-3.33-5.8-7.39-7.17-12.17s-2.05-10.12-2.05-16.04v-4.32h28.21v4.09Z" style="fill:#f2e863; stroke-width:0px;"/><path d="m688.22,452.09v35.03h18.2v21.38h-18.2v66.2c0,4.86.72,8.3,2.16,10.35,1.44,2.05,4.44,3.07,8.99,3.07,1.21,0,2.42-.04,3.64-.11,1.21-.07,2.35-.19,3.41-.34v21.84c-3.49,0-6.86.11-10.12.34-3.26.23-6.71.34-10.35.34-6.07,0-11.03-.42-14.9-1.25-3.87-.83-6.82-2.5-8.87-5-2.05-2.5-3.45-5.8-4.21-9.9-.76-4.09-1.14-9.25-1.14-15.47v-70.06h-15.92v-21.38h15.92v-35.03h31.39Z" style="fill:#44bba4; stroke-width:0px;"/><path d="m749.87,445.26v26.84h-31.39v-26.84h31.39Zm0,41.86v122.38h-31.39v-122.38h31.39Z" style="fill:#44bba4; stroke-width:0px;"/><path d="m770.34,520.56c1.67-8.04,4.4-14.75,8.19-20.13,3.79-5.38,8.76-9.48,14.9-12.28,6.14-2.8,13.68-4.21,22.63-4.21,9.4-.15,17.21,1.1,23.43,3.75,6.22,2.66,11.15,6.71,14.79,12.17,3.64,5.46,6.22,12.21,7.73,20.25,1.51,8.04,2.28,17.44,2.28,28.21s-.84,19.72-2.5,27.75c-1.67,8.04-4.4,14.75-8.19,20.13-3.79,5.38-8.76,9.37-14.9,11.94s-13.69,3.87-22.63,3.87c-9.4.15-17.21-1.02-23.43-3.53-6.22-2.5-11.15-6.44-14.79-11.83-3.64-5.38-6.22-12.13-7.73-20.25-1.52-8.11-2.28-17.48-2.28-28.09s.83-19.71,2.5-27.75Zm29.34,45.04c.3,5.31,1.02,9.86,2.16,13.65,1.14,3.79,2.84,6.75,5.12,8.87,2.27,2.13,5.31,3.18,9.1,3.18,6.37,0,10.77-3.33,13.19-10.01,2.42-6.67,3.64-17.67,3.64-32.98s-1.22-26.31-3.64-32.98c-2.43-6.67-6.82-10.01-13.19-10.01-3.79,0-6.82,1.06-9.1,3.18-2.28,2.13-3.98,5.08-5.12,8.87-1.14,3.79-1.86,8.34-2.16,13.65-.31,5.31-.46,11.07-.46,17.29s.15,11.98.46,17.29Z" style="fill:#44bba4; stroke-width:0px;"/><path d="m911.15,487.12v14.33h.46c3.33-6.06,7.66-10.5,12.97-13.31,5.31-2.8,11.37-4.21,18.2-4.21,10.01,0,17.7,2.73,23.09,8.19,5.38,5.46,8.08,14.33,8.08,26.62v90.76h-31.39v-84.4c0-6.37-1.06-10.81-3.18-13.31-2.13-2.5-5.54-3.75-10.24-3.75-11.07,0-16.61,6.75-16.61,20.25v81.21h-31.39v-122.38h30.03Z" style="fill:#44bba4; stroke-width:0px;"/><path d="m1140.42,447.08v51.41h.46c3.33-4.85,7.09-8.49,11.26-10.92,4.17-2.42,9.21-3.64,15.13-3.64,12.89,0,22.37,5.04,28.43,15.13,6.06,10.09,9.1,26.5,9.1,49.25s-3.04,39.05-9.1,48.91c-6.07,9.86-15.55,14.79-28.43,14.79-6.37,0-11.72-1.14-16.04-3.41-4.32-2.27-8.23-6.29-11.71-12.06h-.46v12.97h-30.03v-162.42h31.39Zm3.07,131.37c2.05,6.75,6.56,10.12,13.53,10.12s11.26-3.37,13.31-10.12c2.05-6.75,3.07-16.79,3.07-30.14s-1.02-23.39-3.07-30.14c-2.05-6.75-6.48-10.12-13.31-10.12s-11.49,3.38-13.53,10.12c-2.05,6.75-3.07,16.8-3.07,30.14s1.02,23.39,3.07,30.14Z" style="fill:#f45b69; stroke-width:0px;"/><path d="m1255.3,447.08v162.42h-31.39v-162.42h31.39Z" style="fill:#f45b69; stroke-width:0px;"/><path d="m1304.2,562.87c0,3.64.26,7.17.8,10.58.53,3.41,1.4,6.45,2.62,9.1,1.21,2.66,2.8,4.78,4.78,6.37,1.97,1.59,4.4,2.39,7.28,2.39,5.31,0,9.17-1.89,11.6-5.69,2.42-3.79,4.09-9.55,5-17.29h28.21c-.61,14.26-4.4,25.1-11.37,32.53-6.98,7.43-17.97,11.15-32.98,11.15-11.37,0-20.25-1.9-26.62-5.69s-11.07-8.79-14.1-15.01c-3.04-6.22-4.89-13.19-5.57-20.93-.68-7.73-1.02-15.47-1.02-23.2,0-8.19.57-16.07,1.71-23.66,1.14-7.58,3.41-14.33,6.83-20.25,3.41-5.91,8.3-10.61,14.67-14.1,6.37-3.49,14.86-5.23,25.48-5.23,9.1,0,16.57,1.48,22.41,4.44,5.84,2.96,10.42,7.13,13.76,12.51,3.33,5.38,5.61,11.91,6.82,19.56,1.21,7.66,1.82,16.19,1.82,25.59v7.05h-62.1v9.78Zm31.17-40.83c-.46-3.56-1.25-6.6-2.39-9.1-1.14-2.5-2.73-4.4-4.78-5.69-2.05-1.29-4.66-1.93-7.85-1.93s-5.8.72-7.85,2.16c-2.05,1.44-3.68,3.34-4.89,5.69-1.22,2.35-2.09,4.97-2.62,7.85-.53,2.88-.8,5.77-.8,8.64v4.78h32.08c-.15-4.7-.46-8.83-.91-12.4Z" style="fill:#f45b69; stroke-width:0px;"/><path d="m967.27,645.96l42.99,162.42h-34.12l-7.51-34.35h-43.22l-7.51,34.35h-34.12l42.99-162.42h40.49Zm-4.32,101.23l-15.7-73.02h-.46l-15.7,73.02h31.85Z" style="fill:#3a7ca5; stroke-width:0px;"/><path d="m1050.75,686v16.38h.46c3.18-5.91,7.05-10.65,11.6-14.22,4.55-3.56,10.08-5.35,16.61-5.35.91,0,1.85.04,2.84.11.99.08,1.93.19,2.84.34v30.03c-1.67-.15-3.3-.26-4.89-.34-1.59-.07-3.22-.11-4.89-.11-2.73,0-5.46.38-8.19,1.14-2.73.76-5.23,2.01-7.51,3.75-2.28,1.75-4.09,4.02-5.46,6.82-1.36,2.81-2.05,6.26-2.05,10.35v73.48h-31.39v-122.38h30.03Z" style="fill:#3a7ca5; stroke-width:0px;"/><path d="m1134.69,650.96v35.03h18.2v21.38h-18.2v66.2c0,4.86.72,8.3,2.16,10.35,1.44,2.05,4.44,3.07,8.99,3.07,1.21,0,2.42-.04,3.64-.11,1.21-.07,2.35-.19,3.41-.34v21.84c-3.49,0-6.86.11-10.12.34-3.26.23-6.71.34-10.35.34-6.07,0-11.03-.42-14.9-1.25-3.87-.83-6.82-2.5-8.87-5-2.05-2.5-3.45-5.8-4.21-9.9-.76-4.09-1.14-9.25-1.14-15.47v-70.06h-15.92v-21.38h15.92v-35.03h31.39Z" style="fill:#3a7ca5; stroke-width:0px;"/><path d="m995.78,556.43c0-7.13,1.14-13.08,3.41-17.86,2.28-4.78,5.35-8.64,9.21-11.6s8.42-5.08,13.65-6.37c5.23-1.29,10.8-1.93,16.72-1.93,9.4,0,16.98.91,22.75,2.73,5.76,1.82,10.24,4.4,13.42,7.73,3.18,3.34,5.35,7.32,6.48,11.94,1.14,4.63,1.71,9.67,1.71,15.13v64.38c0,5.77.26,10.24.8,13.42.53,3.18,1.55,6.6,3.07,10.24h-30.03c-1.06-1.97-1.86-4.06-2.39-6.26-.53-2.2-1.02-4.36-1.48-6.48h-.46c-3.64,6.37-7.85,10.5-12.62,12.4-4.78,1.89-10.96,2.84-18.54,2.84-5.46,0-10.09-.95-13.88-2.84-3.79-1.89-6.82-4.51-9.1-7.85-2.28-3.33-3.95-7.09-5-11.26-1.06-4.17-1.59-8.3-1.59-12.4,0-5.76.6-10.73,1.82-14.9,1.21-4.17,3.07-7.73,5.57-10.69,2.5-2.96,5.69-5.42,9.55-7.39,3.87-1.97,8.53-3.71,13.99-5.23l17.74-4.78c4.7-1.21,7.96-2.88,9.78-5,1.82-2.12,2.73-5.23,2.73-9.33,0-4.7-1.1-8.38-3.3-11.03-2.2-2.65-5.95-3.98-11.26-3.98-4.86,0-8.5,1.44-10.92,4.32-2.43,2.88-3.64,6.75-3.64,11.6v3.41h-28.21v-2.96Zm50.5,30.6c-2.43.99-4.63,1.71-6.6,2.16-6.37,1.36-10.92,3.64-13.65,6.82s-4.09,7.51-4.09,12.97c0,4.7.91,8.72,2.73,12.06,1.82,3.34,4.85,5,9.1,5,2.12,0,4.32-.34,6.6-1.02,2.28-.68,4.36-1.78,6.26-3.3,1.89-1.51,3.45-3.49,4.66-5.91,1.21-2.42,1.82-5.31,1.82-8.64v-24.11c-2.13,1.67-4.4,3-6.82,3.98Z" style="fill:#3a7ca5; stroke-width:0px;"/></g></svg>