<?xml version="1.0" encoding="UTF-8"?><svg id="a" xmlns="http://www.w3.org/2000/svg" xmlns:xlink="http://www.w3.org/1999/xlink" viewBox="0 0 1536 1024"><defs><filter id="b" filterUnits="userSpaceOnUse"><feOffset dx="7.5" dy="7.5"/><feGaussianBlur result="c" stdDeviation="0"/><feFlood flood-color="#000" flood-opacity="1"/><feComposite in2="c" operator="in"/><feComposite in="SourceGraphic"/></filter></defs><g style="filter:url(#b);"><path d="m203.73,225.06c1.2-3,3.23-5.64,6.09-7.89,2.85-2.25,6.01-3.75,9.47-4.51,3.45-.75,6.91-.75,10.37,0,3.45.75,6.23,2.63,8.34,5.64l29.75,174.02,34.71-169.06c1.2-2.4,3-4.13,5.41-5.18,2.4-1.05,4.8-1.5,7.21-1.35,2.4.15,4.51.9,6.31,2.25,1.8,1.35,2.85,3.09,3.16,5.18l30.66,238.93c-.3,2.11-1.43,3.83-3.38,5.18-1.96,1.35-4.13,2.25-6.54,2.71-2.41.45-4.73.45-6.99,0s-3.68-1.58-4.28-3.38l-23.44-176.72-32.01,150.12c-.9,1.8-2.41,3.31-4.51,4.51-2.11,1.2-4.44,1.8-6.99,1.8s-5.04-.52-7.44-1.58c-2.41-1.05-4.36-2.78-5.86-5.18l-29.3-178.52-6.76,214.14c-.3,2.1-1.58,3.61-3.83,4.51-2.25.9-4.58,1.35-6.99,1.35s-4.59-.68-6.54-2.03c-1.96-1.35-2.93-3.23-2.93-5.63l6.31-249.3Z" style="fill:#f2e863; stroke-width:0px;"/><path d="m367.82,473.46c-1.21.3-2.33-.53-3.38-2.48-1.06-1.96-1.8-4.21-2.25-6.76-.45-2.55-.45-4.96,0-7.21.45-2.25,1.58-3.68,3.38-4.28l83.4-9.47c.9,0,1.87,1.06,2.93,3.16,1.05,2.11,1.8,4.44,2.25,6.99.45,2.56.45,4.96,0,7.21-.45,2.25-1.58,3.54-3.38,3.83l-82.95,9.02Zm.9-233.52c-.9-.3-1.73-1.42-2.48-3.38-.75-1.95-1.28-4.06-1.58-6.31-.3-2.25-.3-4.43,0-6.54.3-2.1,1.2-3.61,2.71-4.51l73.48-5.41c1.5.61,2.71,1.88,3.61,3.83.9,1.96,1.35,4.13,1.35,6.54s-.38,4.66-1.13,6.76c-.75,2.11-1.88,3.46-3.38,4.06l-72.58,4.96Zm25.7-9.47c.6-3.3,1.8-5.78,3.61-7.44,1.8-1.65,3.83-2.48,6.09-2.48s4.51.75,6.76,2.25c2.25,1.51,3.83,3.76,4.73,6.76,0,20.44-.16,39.9-.45,58.38-.3,18.48-.61,36.74-.9,54.77-.3,18.03-.61,36.29-.9,54.77-.3,18.48-.45,38.09-.45,58.83,0,3.61-1.06,6.39-3.16,8.34-2.11,1.95-4.44,2.93-6.99,2.93s-4.96-.9-7.21-2.7c-2.25-1.8-3.54-4.51-3.83-8.11,0-20.44.15-39.9.45-58.38.3-18.48.6-36.74.9-54.77.3-18.03.6-36.29.9-54.77.3-18.48.45-37.94.45-58.38Z" style="fill:#f2e863; stroke-width:0px;"/><path d="m553.55,308.91c0,1.51-1.06,2.86-3.16,4.06-2.11,1.2-4.36,1.96-6.76,2.25-2.41.3-4.81.08-7.21-.68-2.41-.75-3.76-2.32-4.06-4.73-.3-5.71-1.21-12.09-2.71-19.16-1.51-7.06-3.68-13.75-6.54-20.06-2.86-6.31-6.09-11.79-9.69-16.46-3.61-4.66-7.52-7.51-11.72-8.57-4.21-1.05-8.57.23-13.07,3.83-4.51,3.61-8.87,10.37-13.07,20.29-3.91,9.62-3.83,20.22.23,31.78,4.06,11.57,9.84,23.07,17.36,34.49,7.51,11.43,15.7,22.39,24.57,32.91,8.86,10.52,16.15,19.54,21.87,27.05,3.3,3.91,6.31,8.11,9.02,12.62,2.7,4.51,4.35,9.32,4.96,14.43,1.5,10.52-1.21,19.31-8.12,26.37-6.92,7.06-15.48,11.65-25.7,13.75-5.71.9-11.8,1.28-18.26,1.13-6.47-.15-12.4-1.27-17.81-3.38-5.41-2.1-9.85-5.33-13.3-9.69-3.46-4.35-5.04-10.29-4.73-17.81,0-1.2.37-2.7,1.13-4.51.75-1.8,1.5-3.61,2.25-5.41.75-1.8,1.42-3.3,2.03-4.51.6-1.2,1.05-1.95,1.35-2.25.9-1.8,2.63-2.63,5.18-2.48,2.55.16,5.11.9,7.66,2.25,2.55,1.35,4.58,3.01,6.09,4.96,1.5,1.96,1.65,3.54.45,4.73-.61,1.51-1.28,3.31-2.03,5.41-.75,2.11-.68,4.36.23,6.76,1.2,2.41,4.13,3.83,8.79,4.28,4.66.45,9.47,0,14.43-1.35s9.24-3.45,12.85-6.31c3.61-2.85,4.8-6.54,3.61-11.04-.9-3.3-2.48-6.91-4.73-10.82-2.25-3.9-4.73-7.73-7.44-11.5-2.71-3.75-5.34-7.28-7.89-10.59-2.56-3.3-4.73-6.01-6.54-8.11-6.31-8.11-13.23-16.91-20.74-26.37-7.52-9.47-14.13-19.39-19.84-29.75-5.71-10.37-9.69-21.19-11.95-32.46-2.25-11.27-1.13-22.61,3.38-34.04,3.3-8.41,7.66-15.85,13.07-22.32,5.41-6.46,11.42-11.12,18.03-13.98,6.61-2.85,13.52-3.61,20.74-2.25,7.21,1.35,14.43,5.49,21.64,12.4,4.21,4.21,7.89,9.4,11.04,15.55,3.16,6.16,5.78,12.7,7.89,19.61,2.1,6.92,3.68,13.83,4.73,20.74,1.05,6.92,1.87,13.23,2.48,18.93Z" style="fill:#f2e863; stroke-width:0px;"/><path d="m629.29,294.03c.3-3.61.45-8.49.45-14.65s-.45-12.24-1.35-18.26c-.9-6.01-2.18-11.27-3.83-15.78-1.66-4.51-3.99-6.76-6.99-6.76-4.51-.3-8.87,4.44-13.07,14.2-4.21,9.77-7.89,21.64-11.04,35.61-3.16,13.98-5.63,28.33-7.44,43.05-1.8,14.73-2.56,26.9-2.25,36.52.3,5.41.52,11.2.68,17.36.15,6.16.68,12.33,1.58,18.48.9,6.16,2.32,12.02,4.28,17.58,1.95,5.56,5.03,10.45,9.24,14.65,6.91,7.21,13.52,10.75,19.84,10.59,6.31-.15,11.95-2.4,16.91-6.76,4.96-4.35,8.94-10.07,11.95-17.13,3-7.06,4.66-14.05,4.96-20.96.6-3.3,2.03-5.64,4.28-6.99,2.25-1.35,4.58-1.87,6.99-1.58,2.4.3,4.66,1.13,6.76,2.48,2.1,1.35,3.16,3.09,3.16,5.18,0,14.13-3.01,26.6-9.02,37.42-6.02,10.82-13.6,18.86-22.77,24.12-9.17,5.25-19.09,7.14-29.75,5.64-10.67-1.51-20.51-7.66-29.53-18.48-5.41-6.61-9.62-13.9-12.62-21.86-3.01-7.96-5.11-16.15-6.31-24.57-1.2-8.41-1.8-16.98-1.8-25.7s.3-17.13.9-25.25c.3-6.01.82-13.52,1.58-22.54.75-9.02,1.95-18.48,3.61-28.4,1.65-9.92,3.75-19.84,6.31-29.75,2.55-9.92,5.86-18.86,9.92-26.82,4.06-7.96,8.86-14.5,14.43-19.61,5.56-5.11,12.24-7.81,20.06-8.11,7.21-.3,13.07,2.71,17.58,9.02,4.51,6.31,7.81,13.83,9.92,22.54,2.1,8.72,3.23,17.66,3.38,26.82.15,9.17-.38,16.16-1.58,20.96-1.51,1.8-3.46,3.16-5.86,4.06-2.41.9-4.58,1.28-6.54,1.13-1.96-.15-3.68-.82-5.18-2.03-1.51-1.2-2.11-3-1.8-5.41Z" style="fill:#f2e863; stroke-width:0px;"/><path d="m795.64,355.34c0,21.64-2.48,40.2-7.44,55.68-4.96,15.48-11.43,27.43-19.39,35.84-7.97,8.42-16.61,13.23-25.92,14.43-9.32,1.2-18.26-1.5-26.82-8.11-8.57-6.61-16.16-17.2-22.77-31.78-6.61-14.57-10.82-33.43-12.62-56.58-2.4-28.25-1.2-52.29,3.61-72.13,4.8-19.84,11.42-35.16,19.84-45.98,8.41-10.82,17.88-16.91,28.4-18.26,10.52-1.35,20.43,2.25,29.75,10.82,9.31,8.57,17.13,22.47,23.44,41.7,6.31,19.24,9.62,44.03,9.92,74.39Zm-21.19-3.61c.3-22.84-1.51-41.62-5.41-56.35-3.91-14.72-8.95-25.62-15.1-32.68-6.16-7.06-12.7-10.29-19.61-9.69-6.92.61-13.07,4.96-18.48,13.07s-9.54,19.99-12.4,35.61c-2.86,15.63-3.23,35.02-1.13,58.16,2.71,29.15,7.96,50.34,15.78,63.56,7.81,13.23,15.78,19.16,23.89,17.81,8.11-1.35,15.4-9.62,21.86-24.79,6.46-15.17,9.99-36.74,10.59-64.69Z" style="fill:#f2e863; stroke-width:0px;"/><path d="m816.83,225.06c1.2-3,3.23-5.64,6.09-7.89,2.85-2.25,6.01-3.75,9.47-4.51,3.45-.75,6.91-.75,10.37,0,3.45.75,6.23,2.63,8.34,5.64l29.75,174.02,34.71-169.06c1.2-2.4,3-4.13,5.41-5.18,2.4-1.05,4.8-1.5,7.21-1.35,2.4.15,4.51.9,6.31,2.25,1.8,1.35,2.85,3.09,3.16,5.18l30.66,238.93c-.3,2.11-1.43,3.83-3.38,5.18-1.96,1.35-4.13,2.25-6.54,2.71-2.41.45-4.73.45-6.99,0s-3.68-1.58-4.28-3.38l-23.44-176.72-32.01,150.12c-.9,1.8-2.41,3.31-4.51,4.51-2.11,1.2-4.44,1.8-6.99,1.8s-5.04-.52-7.44-1.58c-2.41-1.05-4.36-2.78-5.86-5.18l-29.3-178.52-6.76,214.14c-.3,2.1-1.58,3.61-3.83,4.51-2.25.9-4.58,1.35-6.99,1.35s-4.59-.68-6.54-2.03c-1.96-1.35-2.93-3.23-2.93-5.63l6.31-249.3Z" style="fill:#f2e863; stroke-width:0px;"/><path d="m981.82,225.06c1.2-3,3.23-5.64,6.09-7.89,2.85-2.25,6.01-3.75,9.47-4.51,3.45-.75,6.91-.75,10.37,0,3.45.75,6.23,2.63,8.34,5.64l29.75,174.02,34.71-169.06c1.2-2.4,3-4.13,5.41-5.18,2.4-1.05,4.8-1.5,7.21-1.35,2.4.15,4.51.9,6.31,2.25,1.8,1.35,2.85,3.09,3.16,5.18l30.66,238.93c-.3,2.11-1.43,3.83-3.38,5.18-1.96,1.35-4.13,2.25-6.54,2.71-2.41.45-4.73.45-6.99,0s-3.68-1.58-4.28-3.38l-23.44-176.72-32.01,150.12c-.9,1.8-2.41,3.31-4.51,4.51-2.11,1.2-4.44,1.8-6.99,1.8s-5.04-.52-7.44-1.58c-2.41-1.05-4.36-2.78-5.86-5.18l-29.3-178.52-6.76,214.14c-.3,2.1-1.58,3.61-3.83,4.51-2.25.9-4.58,1.35-6.99,1.35s-4.59-.68-6.54-2.03c-1.96-1.35-2.93-3.23-2.93-5.63l6.31-249.3Z" style="fill:#f2e863; stroke-width:0px;"/><path d="m1126.99,266.53c-.9-2.4-.3-4.35,1.8-5.86,2.1-1.5,4.51-2.48,7.21-2.93,2.71-.45,5.33-.3,7.89.45,2.55.75,3.83,2.18,3.83,4.28.6,9.92,1.27,20.89,2.03,32.91.75,12.02,1.65,24.2,2.71,36.52,1.05,12.33,2.25,24.34,3.61,36.07,1.35,11.72,3.08,22.25,5.18,31.56,2.1,9.32,4.58,17.13,7.44,23.44,2.85,6.31,6.09,10.07,9.69,11.27,4.8-2.71,9.09-6.83,12.85-12.4,3.75-5.56,6.91-12.32,9.47-20.29,2.55-7.96,4.35-16.75,5.41-26.37,1.05-9.62,1.58-19.84,1.58-30.66v-126.68c0-3,.97-5.03,2.93-6.09,1.95-1.05,4.28-1.58,6.99-1.58s5.18.53,7.44,1.58c2.25,1.06,3.53,2.18,3.83,3.38.6,44.48,1.13,81.37,1.58,110.68.45,29.3.9,52.9,1.35,70.78.45,17.89.82,31.18,1.13,39.9.3,8.72.52,14.81.68,18.26.15,3.46.23,5.49.23,6.09v3.16c0,1.8-1.06,3.3-3.16,4.51-2.11,1.2-4.44,2.03-6.99,2.48-2.56.45-4.96.3-7.21-.45-2.25-.75-3.54-2.33-3.83-4.73v-.9c-.3-4.21-.53-7.73-.68-10.59-.15-2.85-.3-5.56-.45-8.11-.16-2.55-.3-5.25-.45-8.11-.16-2.85-.38-6.38-.68-10.59-2.71,7.21-6.24,13.45-10.59,18.71-4.36,5.26-9.02,9.09-13.98,11.5-4.96,2.41-9.92,3.09-14.88,2.03-4.96-1.05-9.24-4.28-12.85-9.69-5.71-8.11-10.45-20.06-14.2-35.84-3.76-15.78-6.76-32.61-9.02-50.49-2.25-17.88-3.99-35.61-5.18-53.2-1.2-17.58-2.11-32.23-2.7-43.95Z" style="fill:#f2e863; stroke-width:0px;"/><path d="m1253.22,452.27c-.3-4.51.97-7.89,3.83-10.14,2.85-2.25,6.09-3.38,9.69-3.38s6.76,1.06,9.47,3.16c2.7,2.11,3.9,5.26,3.61,9.47,0,4.51-1.51,7.89-4.51,10.14-3.01,2.25-6.24,3.38-9.69,3.38s-6.54-1.05-9.24-3.16c-2.71-2.1-3.76-5.25-3.16-9.47Z" style="fill:#f2e863; stroke-width:0px;"/><path d="m1296.94,452.27c-.3-4.51.97-7.89,3.83-10.14,2.85-2.25,6.09-3.38,9.69-3.38s6.76,1.06,9.47,3.16c2.7,2.11,3.9,5.26,3.61,9.47,0,4.51-1.51,7.89-4.51,10.14-3.01,2.25-6.24,3.38-9.69,3.38s-6.54-1.05-9.24-3.16c-2.71-2.1-3.76-5.25-3.16-9.47Z" style="fill:#f2e863; stroke-width:0px;"/><path d="m1340.66,452.27c-.3-4.51.97-7.89,3.83-10.14,2.85-2.25,6.09-3.38,9.69-3.38s6.76,1.06,9.47,3.16c2.7,2.11,3.9,5.26,3.61,9.47,0,4.51-1.51,7.89-4.51,10.14-3.01,2.25-6.24,3.38-9.69,3.38s-6.54-1.05-9.24-3.16c-2.71-2.1-3.76-5.25-3.16-9.47Z" style="fill:#f2e863; stroke-width:0px;"/><path d="m303.58,842.09c-.3-4.51.97-7.89,3.83-10.14,2.85-2.25,6.09-3.38,9.69-3.38s6.76,1.06,9.47,3.16c2.7,2.11,3.9,5.26,3.61,9.47,0,4.51-1.51,7.89-4.51,10.14-3.01,2.25-6.24,3.38-9.69,3.38s-6.54-1.05-9.24-3.16c-2.71-2.1-3.76-5.25-3.16-9.47Z" style="fill:#f2e863; stroke-width:0px;"/><path d="m347.31,842.09c-.3-4.51.97-7.89,3.83-10.14,2.85-2.25,6.09-3.38,9.69-3.38s6.76,1.06,9.47,3.16c2.7,2.11,3.9,5.26,3.61,9.47,0,4.51-1.51,7.89-4.51,10.14-3.01,2.25-6.24,3.38-9.69,3.38s-6.54-1.05-9.24-3.16c-2.71-2.1-3.76-5.25-3.16-9.47Z" style="fill:#f2e863; stroke-width:0px;"/><path d="m391.03,842.09c-.3-4.51.97-7.89,3.83-10.14,2.85-2.25,6.09-3.38,9.69-3.38s6.76,1.06,9.47,3.16c2.7,2.11,3.9,5.26,3.61,9.47,0,4.51-1.51,7.89-4.51,10.14-3.01,2.25-6.24,3.38-9.69,3.38s-6.54-1.05-9.24-3.16c-2.71-2.1-3.76-5.25-3.16-9.47Z" style="fill:#f2e863; stroke-width:0px;"/><path d="m430.24,615.33c.6-2.7,1.95-4.73,4.06-6.09,2.1-1.35,4.51-2.03,7.21-2.03s5.33.61,7.89,1.8c2.55,1.2,4.43,2.86,5.64,4.96l60.41,202.42,2.25-213.69c-.3-2.1.75-3.75,3.16-4.96,2.4-1.2,5.11-1.8,8.11-1.8s5.71.38,8.12,1.13c2.4.75,3.61,2.03,3.61,3.83-.3,22.54-.61,44.11-.9,64.69-.3,20.59-.75,41.02-1.35,61.31-.61,20.29-1.21,40.95-1.8,61.99-.61,21.04-1.2,43.13-1.8,66.27,0,2.4-1.28,4.35-3.83,5.86-2.56,1.5-5.49,2.48-8.79,2.93-3.31.45-6.54.3-9.69-.45-3.16-.75-5.34-2.18-6.54-4.28l-52.75-177.62c-.61,28.56-.68,57.41-.23,86.56.45,29.16.37,57.41-.22,84.75-.61,1.8-2.11,3.3-4.51,4.51-2.41,1.2-4.96,1.95-7.66,2.25-2.7.3-5.18.07-7.44-.68-2.25-.75-3.54-2.33-3.83-4.73l.9-238.93Z" style="fill:#f2e863; stroke-width:0px;"/><path d="m556.47,854.71c-2.41,0-3.99-1.05-4.73-3.16-.75-2.1-1.13-4.35-1.13-6.76s.3-4.66.9-6.76c.6-2.1,1.35-3.45,2.25-4.06l64.47-6.76c1.8-.6,3.23.15,4.28,2.25,1.05,2.11,1.58,4.51,1.58,7.21s-.45,5.26-1.35,7.66c-.9,2.41-2.56,3.76-4.96,4.06l-61.31,6.31Zm.9-219.1c-2.11,0-3.61-.97-4.51-2.93-.9-1.95-1.35-4.13-1.35-6.54s.3-4.66.9-6.76c.6-2.1,1.5-3.61,2.71-4.51l62.66-4.51c1.5,0,2.71,1.06,3.61,3.16.9,2.11,1.42,4.44,1.58,6.99.15,2.56-.23,4.96-1.13,7.21-.9,2.25-2.41,3.54-4.51,3.83l-59.96,4.06Zm18.48-6.31c.6-3.3,1.87-5.78,3.83-7.44,1.95-1.65,4.06-2.48,6.31-2.48s4.43.75,6.54,2.25c2.1,1.51,3.61,3.76,4.51,6.76.6,18.93.97,36.82,1.13,53.65.15,16.84.15,33.44,0,49.82-.16,16.38-.38,32.99-.68,49.82-.3,16.84-.45,34.71-.45,53.65-.3,3.61-1.51,6.39-3.61,8.34-2.11,1.96-4.36,3.01-6.76,3.16-2.41.16-4.73-.68-6.99-2.48s-3.54-4.51-3.83-8.11c0-18.93.15-36.81.45-53.65.3-16.83.52-33.43.68-49.82.15-16.38.15-32.98,0-49.82-.16-16.83-.53-34.71-1.13-53.65Z" style="fill:#f2e863; stroke-width:0px;"/><path d="m689.91,701.43c.3-6.61.07-13.75-.68-21.41-.75-7.66-1.96-14.65-3.61-20.96-1.66-6.31-3.68-11.57-6.09-15.78-2.41-4.21-5.11-6.16-8.11-5.86-2.41.3-5.49,2.56-9.24,6.76-3.76,4.21-6.54,12.02-8.34,23.44-1.8,9.92-3.23,20.59-4.28,32.01-1.06,11.43-1.73,23.15-2.03,35.16-.3,12.02,0,23.75.9,35.16.9,11.43,2.55,22.09,4.96,32.01,1.2,5.41,3.53,10.14,6.99,14.2,3.45,4.06,7.28,7.06,11.5,9.02,4.21,1.96,8.57,2.56,13.07,1.8,4.51-.75,8.71-3.53,12.62-8.34,3.61-4.51,6.09-9.24,7.44-14.2,1.35-4.96,2.18-10.89,2.48-17.81.9-3,2.48-5.03,4.73-6.09,2.25-1.05,4.58-1.35,6.99-.9,2.4.45,4.58,1.43,6.54,2.93,1.95,1.51,2.93,3.16,2.93,4.96,0,6.31-1.13,13.68-3.38,22.09-2.25,8.42-5.49,15.48-9.69,21.19-4.81,6.61-10.45,11.5-16.91,14.65-6.47,3.16-13.07,4.66-19.84,4.51-6.76-.15-13.23-1.8-19.39-4.96-6.16-3.16-11.35-7.73-15.55-13.75-5.71-7.81-9.85-17.81-12.4-29.98-2.56-12.17-4.13-25.02-4.73-38.54-.61-13.52-.53-26.75.22-39.67.75-12.92,1.58-23.89,2.48-32.91.6-7.21,1.58-15.62,2.93-25.25,1.35-9.62,3.23-17.88,5.63-24.79,1.8-6.31,4.43-11.72,7.89-16.23,3.45-4.51,7.36-7.89,11.72-10.14,4.35-2.25,8.86-3.38,13.52-3.38s9.24,1.35,13.75,4.06c4.8,3.31,9.09,8.42,12.85,15.33,3.75,6.92,6.76,14.5,9.02,22.77,2.25,8.27,3.68,16.91,4.28,25.92.6,9.02,0,17.43-1.8,25.25-.3,1.8-1.51,3.01-3.61,3.61-2.11.61-4.28.83-6.54.68-2.25-.15-4.36-.82-6.31-2.03-1.96-1.2-2.93-2.71-2.93-4.51Z" style="fill:#f2e863; stroke-width:0px;"/><path d="m838.23,731.64c1.8-.9,3.53-.75,5.18.45,1.65,1.2,3.08,2.86,4.28,4.96,1.2,2.11,1.87,4.28,2.03,6.54.15,2.25-.23,3.83-1.13,4.73-.61.61-3.61,2.03-9.02,4.28-5.41,2.25-11.88,4.96-19.39,8.11-7.52,3.16-15.71,6.47-24.57,9.92-8.87,3.46-17.06,6.69-24.57,9.69-7.52,3.01-13.91,5.56-19.16,7.66-5.26,2.11-8.19,3.16-8.79,3.16-1.8.61-3.68,0-5.63-1.8-1.96-1.8-3.54-3.98-4.73-6.54-1.21-2.55-1.73-5.18-1.58-7.89.15-2.71,1.42-4.66,3.83-5.86,1.5-.6,4.96-1.87,10.37-3.83,5.41-1.95,11.79-4.21,19.16-6.76,7.36-2.55,15.1-5.25,23.22-8.11,8.12-2.85,15.7-5.56,22.77-8.11,7.06-2.55,13.14-4.8,18.26-6.76,5.11-1.95,8.26-3.23,9.47-3.83Zm-64.47-128.48c.3-3,1.8-5.18,4.51-6.54,2.71-1.35,5.78-1.95,9.24-1.8,3.45.16,6.61.98,9.47,2.48,2.85,1.51,4.58,3.76,5.18,6.76l48.24,230.37c1.8,2.11,2.18,4.44,1.13,6.99-1.06,2.56-2.71,4.66-4.96,6.31-2.25,1.66-4.81,2.56-7.66,2.71-2.86.15-5.34-1.28-7.44-4.28l-40.57-196.56-18.93,208.28c-.61,1.8-1.88,3.3-3.83,4.51-1.96,1.2-4.13,1.8-6.54,1.8s-4.81-.61-7.21-1.8c-2.41-1.2-4.21-3.31-5.41-6.31l24.79-252.91Z" style="fill:#f2e863; stroke-width:0px;"/><path d="m846.34,643.73c-1.8.3-3.08-.68-3.83-2.93-.75-2.25-1.13-4.73-1.13-7.44s.3-5.18.9-7.44c.6-2.25,1.5-3.23,2.71-2.93l91.07-9.02c1.2,0,2.25,1.2,3.16,3.61.9,2.41,1.35,4.96,1.35,7.66s-.45,5.11-1.35,7.21c-.9,2.11-2.56,3.01-4.96,2.71l-87.91,8.57Zm33.81-5.41c.6-3.3,1.8-5.78,3.61-7.44,1.8-1.65,3.83-2.48,6.09-2.48s4.51.83,6.76,2.48c2.25,1.66,3.83,3.99,4.73,6.99l2.71,209.18c.6,2.11-.16,3.76-2.25,4.96-2.11,1.2-4.58,1.88-7.44,2.03-2.86.15-5.49-.23-7.89-1.13-2.41-.9-3.61-2.55-3.61-4.96l-2.71-209.63Z" style="fill:#f2e863; stroke-width:0px;"/><path d="m957.69,854.71c-2.41,0-3.99-1.05-4.73-3.16-.75-2.1-1.13-4.35-1.13-6.76s.3-4.66.9-6.76c.6-2.1,1.35-3.45,2.25-4.06l64.47-6.76c1.8-.6,3.23.15,4.28,2.25,1.05,2.11,1.58,4.51,1.58,7.21s-.45,5.26-1.35,7.66c-.9,2.41-2.56,3.76-4.96,4.06l-61.31,6.31Zm.9-219.1c-2.11,0-3.61-.97-4.51-2.93-.9-1.95-1.35-4.13-1.35-6.54s.3-4.66.9-6.76c.6-2.1,1.5-3.61,2.71-4.51l62.66-4.51c1.5,0,2.71,1.06,3.61,3.16.9,2.11,1.42,4.44,1.58,6.99.15,2.56-.23,4.96-1.13,7.21-.9,2.25-2.41,3.54-4.51,3.83l-59.96,4.06Zm18.48-6.31c.6-3.3,1.87-5.78,3.83-7.44,1.95-1.65,4.06-2.48,6.31-2.48s4.43.75,6.54,2.25c2.1,1.51,3.61,3.76,4.51,6.76.6,18.93.97,36.82,1.13,53.65.15,16.84.15,33.44,0,49.82-.16,16.38-.38,32.99-.68,49.82-.3,16.84-.45,34.71-.45,53.65-.3,3.61-1.51,6.39-3.61,8.34-2.11,1.96-4.36,3.01-6.76,3.16-2.41.16-4.73-.68-6.99-2.48s-3.54-4.51-3.83-8.11c0-18.93.15-36.81.45-53.65.3-16.83.52-33.43.68-49.82.15-16.38.15-32.98,0-49.82-.16-16.83-.53-34.71-1.13-53.65Z" style="fill:#f2e863; stroke-width:0px;"/><path d="m1140.27,742.91c1.8,21.94.07,40.65-5.18,56.13-5.26,15.48-12.17,27.35-20.74,35.61-8.57,8.27-18.19,12.85-28.85,13.75-10.67.9-20.44-2.18-29.3-9.24-8.87-7.06-16.23-18.18-22.09-33.36-5.86-15.17-8.34-34.78-7.44-58.83.9-24.94,4.06-46.05,9.47-63.34,5.41-17.28,11.95-30.5,19.61-39.67,7.66-9.16,16-14.12,25.02-14.88,9.02-.75,17.58,2.86,25.7,10.82,8.12,7.97,15.25,20.51,21.41,37.64,6.16,17.13,10.29,38.93,12.4,65.37Zm-93.77,3.61c-.9,18.34.45,33.44,4.06,45.31,3.61,11.88,8.41,20.67,14.43,26.37,6.01,5.71,12.47,8.42,19.38,8.11,6.91-.3,13.3-3.45,19.16-9.47,5.86-6.01,10.52-14.8,13.98-26.37,3.45-11.57,4.58-25.77,3.38-42.6-1.8-27.34-6.16-49.43-13.07-66.27-6.92-16.83-14.43-26.3-22.54-28.4-8.11-2.1-15.86,4.13-23.22,18.71-7.37,14.58-12.55,39.45-15.55,74.61Z" style="fill:#f2e863; stroke-width:0px;"/><path d="m1152.44,615.33c.6-2.7,1.95-4.73,4.06-6.09,2.1-1.35,4.51-2.03,7.21-2.03s5.33.61,7.89,1.8c2.55,1.2,4.43,2.86,5.64,4.96l60.41,202.42,2.25-213.69c-.3-2.1.75-3.75,3.16-4.96,2.4-1.2,5.11-1.8,8.11-1.8s5.71.38,8.12,1.13c2.4.75,3.61,2.03,3.61,3.83-.3,22.54-.61,44.11-.9,64.69-.3,20.59-.75,41.02-1.35,61.31-.61,20.29-1.21,40.95-1.8,61.99-.61,21.04-1.2,43.13-1.8,66.27,0,2.4-1.28,4.35-3.83,5.86-2.56,1.5-5.49,2.48-8.79,2.93-3.31.45-6.54.3-9.69-.45-3.16-.75-5.34-2.18-6.54-4.28l-52.75-177.62c-.61,28.56-.68,57.41-.23,86.56.45,29.16.37,57.41-.22,84.75-.61,1.8-2.11,3.3-4.51,4.51-2.41,1.2-4.96,1.95-7.66,2.25-2.7.3-5.18.07-7.44-.68-2.25-.75-3.54-2.33-3.83-4.73l.9-238.93Z" style="fill:#f2e863; stroke-width:0px;"/></g><path d="m94.28,494.89c5.31,6.66,10.62,13.33,15.93,19.99.47.49.94.99,1.41,1.48,1.16,1.08,2.72,1.84,4.11,2.58,5.29,2.83,10.91,5.02,16.51,7.13,21.07,7.97,42.92,13.85,64.76,19.28,75.48,18.77,153.44,28.74,231.26,27.72,45.36-.6,90.72-4.99,135.22-13.89,24.64-4.93,49.1-10.91,73.54-16.78,20.88-5.02,41.71-10.2,62.55-15.38,31.27-7.77,62.56-15.68,94.28-21.45,14.23-2.59,28.55-4.72,42.96-6.04,15.54-1.41,31.04-1.68,46.62-1.33l-.81-.04,10.35.5-.81-.06c3.5.26,7,.51,10.5.77l-.81-.07c3.56.35,7.13.69,10.69,1.04l-.8-.09c3.64.44,7.28.88,10.91,1.32l-.8-.11,11.17,1.6-.79-.13c23.76,3.9,47.22,8.87,70.54,14.88,13.82,3.56,27.59,7.39,41.28,11.42,16.32,4.81,32.52,10.05,48.87,14.76,57.27,16.51,116.11,29.1,175.68,33.06,38.88,2.59,78.4,1.57,116.53-7.11,14.45-3.29,28.74-7.65,42.44-13.32,11.33-4.69,22.11-10.46,32.86-16.34-.72-.76-1.63-1.2-2.73-1.31-3.59-.97-7.2-1.86-10.83-2.67-3.62-.85-7.26-1.63-10.91-2.32-1.04-.37-2.05-.38-3.03,0-6.8,2.33-13.22,5.6-19.75,8.59-3.68,1.88-7.52,3.35-11.51,4.41-4.02,1.24-8.08,2.39-12.16,3.44-16.98,4.38-34.31,7.04-51.77,8.59-26.98,2.4-54.2,1.54-81.15-.63-32.22-2.59-64.14-7.69-95.81-14.09-22.31-4.51-44.49-9.82-66.47-15.74-22.58-6.08-44.88-13.15-67.45-19.27-30.34-8.22-60.98-15.42-92.08-20.09-27.84-4.18-56.07-6.05-84.21-5-24.2.9-48.23,4.02-72.04,8.32-26.73,4.83-53.23,10.92-79.64,17.29-33.89,8.17-67.74,16.46-101.78,23.99-18.88,4.18-37.83,8.19-56.89,11.48-20.95,3.62-42.08,6.24-63.27,7.95-37.46,3.01-75.1,3.11-112.6.74-61.59-3.88-122.76-14.42-182.46-29.97-10.36-2.7-20.68-5.53-30.95-8.54-9.32-2.73-18.63-5.48-27.6-9.23-6.03-2.52-12.11-4.98-18.08-7.65-1.85-1.02-3.81-1.75-5.87-2.19-1.58-.47-3.16-.95-4.73-1.44,5.65,6.6,11.3,13.19,16.95,19.79.58-.56,1.04-.77.67-1.61l-1.23-1.69c-1.61-1.84-3.26-3.65-4.96-5.42-2.59-2.75-5.19-5.48-7.88-8.12-1.01-1-2.4-2.73-3.92-3.03Z" style="fill:#f45b69; opacity:.11; stroke-width:0px;"/><path d="m96.24,496.99c4.76,12.05,12.17,21.1,22.23,27.13,2.19,1.17,4.43,2.25,6.72,3.23,6.86,2.99,13.96,5.51,21.05,7.9,19.02,6.41,38.54,11.56,58.05,16.28,61.89,14.98,125.39,23.99,189.05,25.94,41.45,1.27,83.03-.51,124.16-5.84,16.34-2.12,32.64-4.8,48.79-8.07,22.1-4.47,44.04-9.83,65.96-15.09,33.54-8.04,66.95-16.61,100.47-24.75,26-6.32,52.12-12.37,78.58-16.45,21.7-3.34,43.55-5.11,65.51-4.91,27.07.24,54.07,3.92,80.6,9.14,30.1,5.92,59.78,13.92,89.2,22.58,22.26,6.55,44.31,13.76,66.71,19.85,22,5.98,44.21,11.24,66.58,15.63,32.19,6.32,64.8,10.93,97.57,12.68,28.3,1.52,56.82.98,84.9-3.13,18.72-2.74,37.23-7.08,55.07-13.42,8.5-3.02,16.83-6.45,24.93-10.43,7.07-3.47,13.95-7.26,20.83-11.1-.68-.84-1.58-1.37-2.69-1.6-3.6-1.34-7.22-2.61-10.88-3.8-3.64-1.23-7.3-2.39-10.99-3.46-1.03-.48-2.06-.59-3.11-.33-6.84,2.37-13.27,5.71-19.83,8.76-3.71,1.93-7.57,3.45-11.6,4.56-4.03,1.28-8.1,2.47-12.19,3.56-17.02,4.55-34.42,7.35-51.94,9.02-27.05,2.58-54.36,1.84-81.42-.26-32.27-2.5-64.25-7.55-95.97-13.93-22.32-4.49-44.51-9.79-66.48-15.71-22.56-6.07-44.82-13.18-67.36-19.35-30.25-8.28-60.8-15.57-91.82-20.38-27.74-4.3-55.88-6.34-83.95-5.42-24.16.79-48.15,3.82-71.93,8.07-26.73,4.78-53.22,10.88-79.61,17.25-33.93,8.19-67.82,16.53-101.89,24.14-18.91,4.22-37.89,8.3-56.98,11.65-20.99,3.69-42.15,6.38-63.39,8.14-37.52,3.12-75.24,3.32-112.82,1.04-61.7-3.73-122.99-14.13-182.8-29.62-10.37-2.68-20.7-5.51-30.98-8.51-9.33-2.72-18.69-5.41-27.67-9.15-5.99-2.49-12.04-4.94-17.9-7.73-1.83-1.04-3.75-1.83-5.79-2.36-1.25-.42-2.49-.86-3.72-1.32,5.48,7.66,10.96,15.33,16.45,22.99-.16-.85.18-1.46,1-1.84-.14-1.05-.63-1.95-1.46-2.71-2.36-2.94-4.78-5.83-7.27-8.67-2.45-2.87-4.96-5.68-7.53-8.44-.63-.93-1.45-1.54-2.47-1.83Z" style="fill:#f45b69; opacity:.11; stroke-width:0px;"/><path d="m115.08,514.29c-.51.84-.79,1.3-.54,2.3.36,1.44,1.32,2.76,2.26,3.89,1.2,1.45,2.5,2.62,4.19,3.48,4.71,2.38,9.67,4.08,14.62,5.88,15.23,5.55,30.81,10.12,46.46,14.32,18.3,4.92,36.77,9.27,55.35,13.01,101.04,20.3,205.8,25.34,307.65,7.92,16.71-2.86,33.26-6.43,49.77-10.3,18.78-4.41,37.54-8.92,56.27-13.53,28.32-6.97,56.58-14.24,84.92-21.15,44.1-10.74,88.85-20.75,134.48-20.87,46.36-.12,92.14,9.61,136.73,21.5,13.73,3.66,27.4,7.59,41.01,11.66,16.27,4.87,32.44,10.1,48.72,14.91,37.6,11.12,76.05,19.94,114.8,25.96,50.6,7.86,102.9,11.22,153.7,3.16,19-3.01,37.78-7.72,55.81-14.47,16.16-6.05,31.41-13.91,46.28-22.61,1-.59-.69-1.35-.96-1.44-.94-.32-2.7-.94-3.65-.39-12.54,7.22-25.28,13.96-38.72,19.36-16.98,6.82-34.7,11.74-52.69,15.06-23.08,4.25-46.66,5.98-70.11,5.82-12.09-.09-24.17-.54-36.23-1.42-8.82-.64-17.63-1.48-26.42-2.49-14.26-2.09-28.53-4.18-42.79-6.27-40.03-6.77-79.43-17.14-118.22-29.03-32.02-9.82-64.05-19.53-96.66-27.23-24.71-5.84-49.8-10.79-75.11-13.15-20.41-1.9-40.85-2.3-61.3-.84-48.33,3.45-95.57,16.03-142.4,27.73-34.03,8.5-68.06,17-102.22,24.99-16.58,3.88-33.16,7.73-49.93,10.77-18.7,3.39-37.51,5.96-56.42,7.85-93,9.3-187.7,1.36-278.71-19.41-20.61-4.71-41.1-10.06-61.28-16.38-6.24-1.95-12.37-4.01-18.51-6.25-3.4-1.18-6.78-2.41-10.14-3.69-3.23-1.01-5.84-2.94-7.82-5.8l-.29.72.92-.95c.97-.99-2.23-3.65-2.85-2.62Z" style="fill:#f45b69; opacity:.11; stroke-width:0px;"/><path d="m113,523.32c-.43.53-.64.76-.57,1.47.17,1.56.93,3.12,1.54,4.55.68,1.57,1.32,3,2.6,4.14.75.66,1.58,1.15,2.44,1.66,2.08,1.24,4.22,2.44,6.43,3.46,5.8,2.68,12.02,4.73,18.05,6.77,7,2.36,14.06,4.55,21.14,6.62,21.91,6.42,44.09,11.86,66.43,16.54,56.3,11.81,113.67,18.7,171.2,19.75,31.16.57,62.32-.61,93.33-3.71,19.05-1.91,38.04-4.51,56.89-7.93,19.71-3.58,39.19-8.23,58.67-12.84,31.57-7.48,63.04-15.35,94.51-23.22,24.63-6.16,49.26-12.36,74.12-17.55,20.77-4.34,41.75-7.93,62.91-9.67,21.66-1.78,43.45-1.52,65.08.63,21.04,2.1,41.91,5.88,62.55,10.47,31.06,6.9,61.71,15.69,92.11,25.03,17.18,5.28,34.32,10.7,51.67,15.43,16.78,4.57,33.68,8.67,50.67,12.37,33.34,7.26,67.28,12.53,101.32,14.99,49.42,3.57,100.34,1.2,147.62-14.77,18.76-6.33,36.34-15.05,53.39-25.07,1.02-.6-.1-1.42-.67-1.87s-3.23-2.7-4.11-2.21c-14.79,8.31-29.94,15.79-45.99,21.37-18.22,6.33-37.13,10.61-56.22,13.26-28.33,3.94-57.05,4.32-85.56,2.62-32.85-1.96-65.52-6.68-97.77-13.08-22.36-4.44-44.55-9.73-66.55-15.7-22.34-6.07-44.37-13.18-66.6-19.64-29.32-8.52-58.91-16.31-88.91-22.04-24.8-4.74-49.87-8-75.14-8.56-23.32-.51-46.56,1.38-69.6,4.96-24.47,3.81-48.63,9.31-72.7,15.06-35.52,8.48-70.9,17.58-106.44,26-22.06,5.22-44.14,10.65-66.39,14.97-16.3,3.16-32.68,5.87-49.16,7.94-41.38,5.21-83.17,6.85-124.84,5.43-63.74-2.17-127.28-11.48-189.21-26.66-19.56-4.79-39.03-10.11-58.15-16.44-3.85-1.22-7.64-2.58-11.39-4.09-3.19-1.2-6.37-2.44-9.53-3.73-1.95-1.12-3.86-2.29-5.75-3.52-.97-.44-1.86-1-2.67-1.69l2.45,6.84,1.08-1.62c.91-.82-1.1-3.29-1.44-3.82-.03-.05-2.17-3.76-2.87-2.9Z" style="fill:#f45b69; opacity:.11; stroke-width:0px;"/><path d="m93.59,493.62c5.76,9.94,12.07,19.5,18.94,28.67.75.6,1.51,1.18,2.28,1.74,4,2.82,8.9,4.61,13.4,6.4,18.09,7.21,36.93,12.56,55.74,17.54,58.43,15.47,118.49,25.39,178.82,29.25,40.33,2.58,80.86,2.38,121.14-1.09,16.08-1.38,32.15-3.29,48.1-5.74,22.27-3.42,44.22-8.19,66.16-13.27,38.39-8.89,76.6-18.51,114.85-27.98,27.12-6.72,54.29-13.37,81.8-18.35,23.42-4.24,47.09-7.08,70.91-7.38,26.55-.33,53,2.47,79.12,7.12,29.03,5.17,57.66,12.51,86,20.57,21.16,6.02,42.08,12.82,63.19,18.98,22.64,6.61,45.51,12.44,68.57,17.4,37.33,8.03,75.24,13.88,113.39,15.9,25.17,1.33,50.5,1.02,75.54-1.98,21.8-2.62,43.38-7.3,64.08-14.68,8.46-3.02,16.75-6.45,24.81-10.42,7.04-3.47,13.89-7.25,20.73-11.09-.73-.92-1.69-1.55-2.88-1.87-3.87-1.7-7.78-3.33-11.72-4.88-3.92-1.59-7.87-3.11-11.85-4.55-1.08-.59-2.21-.8-3.37-.63-6.81,2.25-13.21,5.53-19.73,8.49-3.69,1.88-7.54,3.34-11.54,4.38-3.99,1.21-8.01,2.33-12.05,3.35-19.65,4.99-39.87,7.86-60.1,9-24.07,1.35-48.15.59-72.17-1.35-37.55-3.04-74.77-9.36-111.55-17.46-20.02-4.41-39.93-9.34-59.68-14.85-19.53-5.45-38.9-11.45-58.48-16.75-34.11-9.22-68.64-17.23-103.74-21.56-24.19-2.98-48.59-4.24-72.95-3.29-25.89,1.01-51.59,4.53-77.05,9.28-29.11,5.44-57.94,12.31-86.72,19.28-32.47,7.86-64.95,15.73-97.62,22.76-21.52,4.63-43.13,9.01-64.91,12.22-20.8,3.07-41.75,5.17-62.74,6.4-34.64,2.02-69.42,1.62-104.02-.87-60.74-4.38-121.05-15.22-179.89-30.83-11.39-3.02-22.75-6.19-34.02-9.61-4.69-1.38-9.34-2.9-13.94-4.54-3.64-1.39-7.23-2.9-10.78-4.51-3.11-1.24-6.22-2.5-9.32-3.78-2.27-1.01-4.53-2.03-6.79-3.07-2.45-.89-5.07-1.55-7.58-2.29,6.21,9.03,12.42,18.07,18.63,27.1.66-.68,1.06-.88.69-1.85l-1.35-2.23c-1.76-2.51-3.58-4.98-5.44-7.41-2.83-3.78-5.69-7.54-8.64-11.23-.77-1.09-1.63-2.1-2.57-3.04-.43-.66-1.01-1.12-1.73-1.4Z" style="fill:#f45b69; opacity:.11; stroke-width:0px;"/><path d="m93.42,493.86c5.71,8.54,11.99,16.6,18.85,24.18,1.38,1.12,2.88,2.07,4.48,2.85,5.16,2.78,10.71,4.88,16.19,6.94,19.52,7.35,39.72,12.96,59.94,18.06,60.21,15.2,121.88,24.89,183.93,27.94,35.56,1.75,71.26,1.3,106.74-1.68,21.57-1.81,43.07-4.55,64.39-8.29,22.33-3.92,44.4-9.13,66.46-14.31,32.89-7.71,65.64-15.95,98.43-24.05,28.74-7.11,57.55-14.2,86.74-19.25,24.82-4.3,50.01-7.01,75.23-6.64,23.4.34,46.65,2.85,69.69,6.87,33.92,5.93,67.3,14.79,100.32,24.46,16.33,4.79,32.54,9.96,48.87,14.77,22.62,6.66,45.52,12.43,68.57,17.4,37.33,8.05,75.23,13.95,113.38,16.04,25.17,1.38,50.49,1.16,75.55-1.73,21.83-2.52,43.46-7.1,64.22-14.36,8.5-2.97,16.83-6.36,24.93-10.3,7.07-3.44,13.96-7.2,20.85-11-.77-.82-1.75-1.33-2.92-1.51-3.86-1.22-7.74-2.37-11.64-3.43-3.89-1.11-7.81-2.14-11.74-3.09-1.1-.45-2.19-.52-3.28-.22-6.8,2.27-13.2,5.53-19.72,8.49-3.67,1.88-7.51,3.33-11.5,4.36-4.01,1.22-8.04,2.34-12.1,3.37-16.92,4.29-34.19,6.89-51.58,8.39-26.92,2.32-54.07,1.42-80.97-.77-32.19-2.62-64.09-7.74-95.73-14.14-22.31-4.51-44.49-9.82-66.47-15.73-22.59-6.07-44.9-13.14-67.49-19.24-30.38-8.2-61.07-15.37-92.22-19.98-27.9-4.13-56.19-5.93-84.38-4.82-24.23.96-48.28,4.11-72.12,8.42-26.73,4.84-53.23,10.92-79.63,17.28-33.88,8.16-67.73,16.43-101.76,23.93-18.86,4.16-37.79,8.14-56.83,11.4-20.93,3.59-42.03,6.18-63.19,7.86-37.42,2.96-75.01,3.02-112.46.63-61.53-3.93-122.63-14.53-182.26-30.08-10.35-2.7-20.67-5.54-30.94-8.54-9.31-2.73-18.61-5.47-27.57-9.23-6.04-2.53-12.12-4.98-18.12-7.62-1.87-1.01-3.84-1.74-5.92-2.17-1.6-.47-3.2-.94-4.81-1.41,6.17,7.53,12.34,15.06,18.51,22.58.63-.61,1.06-.79.66-1.69l-1.35-1.9c-1.76-2.1-3.56-4.16-5.41-6.18-2.82-3.14-5.65-6.27-8.58-9.31-.9-.94-2.71-3.34-4.23-3.56Z" style="fill:#f45b69; opacity:.11; stroke-width:0px;"/><path d="m103.9,509.07c.82,1.68,1.63,3.36,2.45,5.04.97,1.96,1.99,3.9,3.04,5.81.93,1.72,1.84,3.51,2.97,5.11.84,1.19,1.51,2.11,2.74,2.99.87.62,1.8,1.18,2.74,1.69,4.32,2.34,8.78,4.29,13.36,6.07,9.27,3.61,18.73,6.67,28.26,9.52,28.61,8.56,57.73,15.47,87.05,21.09,38.67,7.42,77.87,12.64,117.19,14.99,43.14,2.57,86.41,2.16,129.43-2.08,24.49-2.41,48.8-6.09,72.93-10.93,14.05-2.82,28-6.22,41.94-9.51,10.58-2.49,21.15-5.03,31.71-7.6,38.51-9.37,76.85-19.5,115.47-28.38,15.37-3.53,30.79-6.85,46.34-9.51,15.67-2.68,31.41-4.51,47.26-5.67l-.6.03,9.86-.48-.6.02c3.29-.07,6.58-.15,9.87-.22h-.61c3.31.02,6.61.03,9.92.04h-.61c11.2.33,22.33.93,33.48,2.1,12.27,1.29,24.4,3.22,36.55,5.31l-.61-.11,11.57,2.22-.61-.12c3.98.84,7.96,1.67,11.94,2.51l-.61-.13c23.9,5.44,47.57,11.63,71.1,18.51,12.57,3.67,25.07,7.56,37.58,11.42,17.74,5.47,35.57,10.62,53.57,15.17,28.6,7.23,57.53,13.19,86.73,17.47,23.94,3.51,48.1,6.01,72.3,6.61,35.7.89,71.95-1.42,106.53-10.89,11.83-3.24,23.4-7.18,34.72-11.92,11.37-4.76,22.17-10.76,32.9-16.79-.2-.64-.65-1.07-1.35-1.28-1.96-.96-3.96-1.85-5.99-2.67-2.01-.86-4.05-1.64-6.12-2.34-.65-.35-1.27-.36-1.86-.04-6.96,2.78-13.61,6.25-20.36,9.51-7.97,3.84-16.28,6.71-24.76,9.2-17.51,5.15-35.44,8.64-53.58,10.66-23.63,2.63-47.47,2.84-71.19,1.65-31.38-1.57-62.59-5.61-93.49-11.28-21.64-3.97-43.13-8.75-64.47-14.11-18.01-4.53-35.8-9.7-53.58-15.04-36.04-10.81-72.39-21.22-109.41-28.13-24.61-4.59-49.45-7.93-74.49-8.8-22.17-.77-44.34.44-66.33,3.26-23.45,3.01-46.65,7.75-69.7,12.93-28.33,6.36-56.46,13.55-84.67,20.4-19.8,4.8-39.62,9.53-59.49,14.01-19.2,4.34-38.45,8.54-57.85,11.9-39.07,6.76-78.65,10.17-118.29,10.59-63.54.68-126.98-6.3-189.21-18.92-23.67-4.8-47.16-10.47-70.41-16.98-10.16-2.85-20.43-5.64-30.39-9.14-6.8-2.4-13.41-5.37-20.04-8.21l.57.29c-2.92-1.67-5.75-3.39-8.78-4.85l.56.29c-1.1-.54-2.16-1.15-3.18-1.82,2.77,5.26,5.55,10.52,8.32,15.78l.07-1.04-.09.62.96-.97c.4-.4-.4-1.68-.56-2-1.41-2.84-3.48-5.42-5.29-8.01-1.12-1.61-2.22-3.37-3.62-4.76-.39-.39-1.28-1.31-1.18-.09Z" style="fill:#f45b69; opacity:.11; stroke-width:0px;"/><path d="m115.02,515.35c-.58,1.25-.35,1.94.27,3.18,1,1.99,2.3,4.02,3.93,5.56,2.42,2.29,5.9,3.96,8.89,5.3,3.21,1.25,6.45,2.44,9.72,3.56,3.89,1.49,7.82,2.86,11.79,4.12,22.4,7.3,45.24,13.28,68.2,18.5,31.37,7.12,63.11,12.65,95.04,16.54,80.19,9.76,161.99,9.17,241.58-5.37,22.4-4.09,44.53-9.51,66.66-14.82,19.88-4.77,39.74-9.67,59.57-14.64,31.73-7.94,63.38-16.27,95.36-23.14,25.55-5.49,51.38-9.96,77.5-11.45,25.46-1.45,50.94.09,76.16,3.81,31.34,4.63,62.19,12.27,92.68,20.78,19.58,5.46,38.96,11.51,58.38,17.5,23.29,7.18,46.75,13.75,70.49,19.29,38.62,9.01,77.91,15.73,117.5,18.52,29.53,2.08,59.32,2,88.71-1.8,22.09-2.86,43.94-7.86,64.83-15.63,16.06-5.98,31.15-13.78,45.96-22.33,1.37-.79-1.77-1.55-1.8-1.56-1.29-.3-2.58-.55-3.89-.73-.71-.2-1.41-.19-2.1.02-6.68,3.64-13.35,7.31-20.17,10.68-7.93,3.91-16.09,7.31-24.41,10.3-17.55,6.3-35.76,10.65-54.19,13.42-27.79,4.17-56.13,4.91-84.17,3.35-32.62-1.81-65.02-6.24-97.07-12.52-22.34-4.37-44.51-9.63-66.48-15.6-17.46-4.74-34.69-10.15-52-15.42-34.56-10.53-69.45-20.33-104.91-27.38-23.75-4.73-47.81-8.16-72.03-9.12-23.73-.94-47.41.64-70.89,4.07-26.11,3.82-51.88,9.61-77.53,15.78-30.34,7.3-60.56,15.13-90.88,22.52-42.67,10.39-85.41,21.24-129.03,26.79-36.04,4.59-72.31,6.7-108.63,6.3-64.89-.71-129.73-8.92-192.96-23.42-20.54-4.71-40.93-10.09-61.04-16.37-4.36-1.34-8.7-2.74-13.02-4.21-3.56-1.42-7.16-2.7-10.82-3.85-5.21-1.95-10.11-3.87-13.59-8.22l2.01,3.85.96-1.65c1.21-1.16-4.19-5.37-4.59-4.51Z" style="fill:#f45b69; opacity:.11; stroke-width:0px;"/><path d="m99.21,501.36c2.7,11.27,8.19,20.13,16.47,26.6.93.67,1.89,1.3,2.89,1.87,5.03,2.93,10.6,5,16.02,7.04,19.53,7.36,39.8,12.91,60.02,17.97,60.31,15.1,122.09,24.61,184.22,27.46,35.61,1.63,71.35,1.06,106.87-2.06,21.59-1.89,43.1-4.72,64.43-8.55,22.33-4.01,44.41-9.33,66.48-14.57,32.88-7.81,65.64-16.11,98.44-24.26,28.73-7.14,57.54-14.24,86.74-19.24,24.83-4.25,50.02-6.85,75.23-6.31,23.38.5,46.6,3.18,69.6,7.36,33.85,6.15,67.15,15.16,100.1,24.94,16.3,4.84,32.49,10.05,48.8,14.88,22.61,6.69,45.52,12.46,68.56,17.41,37.37,8.02,75.33,13.84,113.52,15.79,25.23,1.29,50.61.92,75.71-2.17,21.88-2.69,43.52-7.48,64.26-14.99,8.5-3.08,16.82-6.57,24.91-10.61,7.04-3.52,13.91-7.35,20.76-11.21-.48-.84-1.22-1.41-2.2-1.72-3.05-1.52-6.14-2.97-9.27-4.34-3.1-1.41-6.24-2.75-9.41-4.01-.88-.53-1.8-.7-2.75-.5-6.93,2.42-13.45,5.84-20.08,8.98-3.79,2.01-7.75,3.6-11.88,4.77-4.08,1.33-8.18,2.56-12.32,3.7-17.16,4.71-34.72,7.65-52.41,9.42-27.2,2.73-54.68,2.09-81.9.06-32.41-2.42-64.52-7.42-96.37-13.78-22.34-4.46-44.55-9.77-66.54-15.69-22.48-6.06-44.64-13.21-67.08-19.42-30.06-8.32-60.41-15.71-91.23-20.65-27.54-4.41-55.49-6.62-83.38-5.86-24.04.66-47.93,3.59-71.59,7.78-26.72,4.73-53.19,10.83-79.55,17.22-34.05,8.25-68.05,16.66-102.23,24.37-19,4.28-38.05,8.43-57.22,11.85-21.08,3.76-42.34,6.52-63.67,8.35-37.66,3.23-75.53,3.51-113.26,1.32-61.91-3.6-123.43-13.91-183.48-29.33-10.42-2.67-20.79-5.49-31.12-8.49-9.33-2.7-18.76-5.33-27.72-9.11-5.83-2.46-11.78-4.84-17.37-7.81-1.7-1.08-3.51-1.91-5.44-2.48-1.18-.44-2.34-.92-3.49-1.42,4.62,8.05,9.23,16.1,13.85,24.15-.14-.9.21-1.56,1.05-2.01-.02-1.03-.4-1.95-1.13-2.77-1.99-3.07-4.05-6.1-6.18-9.08-2.09-3.01-4.24-5.97-6.47-8.87-.52-.96-1.26-1.63-2.22-1.99Z" style="fill:#f45b69; opacity:.11; stroke-width:0px;"/><path d="m93.44,493.61c5.64,9.21,11.83,18,18.59,26.37.72.59,1.48,1.14,2.27,1.64,4.15,2.67,8.83,4.53,13.4,6.35,18.09,7.21,36.9,12.58,55.7,17.57,58.42,15.49,118.46,25.47,178.77,29.39,40.32,2.62,80.85,2.46,121.12-.96,16.08-1.36,32.15-3.25,48.1-5.68,22.27-3.39,44.23-8.13,66.18-13.19,38.41-8.85,76.63-18.45,114.88-27.92,27.12-6.71,54.3-13.36,81.8-18.35,23.42-4.25,47.07-7.12,70.88-7.46,26.54-.38,52.99,2.36,79.11,6.96,29.04,5.11,57.67,12.41,86.02,20.44,21.16,6,42.08,12.78,63.2,18.94,22.64,6.6,45.51,12.44,68.57,17.4,37.32,8.04,75.23,13.92,113.38,15.98,25.16,1.36,50.48,1.1,75.52-1.84,21.8-2.56,43.39-7.18,64.11-14.49,8.47-2.99,16.79-6.39,24.86-10.34,7.05-3.45,13.92-7.22,20.78-11.03-.74-.87-1.69-1.43-2.86-1.69-3.82-1.46-7.67-2.84-11.55-4.14-3.86-1.35-7.75-2.62-11.66-3.81-1.08-.52-2.18-.66-3.29-.42-6.8,2.25-13.2,5.52-19.72,8.48-3.68,1.88-7.52,3.34-11.52,4.37-4,1.21-8.02,2.33-12.07,3.35-19.67,4.98-39.91,7.84-60.16,8.97-24.08,1.34-48.17.57-72.19-1.39-37.55-3.05-74.76-9.38-111.52-17.49-20.02-4.41-39.93-9.35-59.67-14.86-19.54-5.45-38.92-11.45-58.5-16.74-34.11-9.21-68.65-17.21-103.76-21.53-24.18-2.97-48.58-4.22-72.93-3.26-25.89,1.03-51.59,4.55-77.04,9.31-29.12,5.45-57.94,12.32-86.72,19.28-32.46,7.86-64.94,15.73-97.59,22.74-21.52,4.63-43.13,9-64.92,12.2-20.81,3.06-41.75,5.16-62.75,6.38-34.64,2.01-69.43,1.61-104.03-.9-60.73-4.39-121.05-15.24-179.87-30.87-11.38-3.02-22.74-6.19-34-9.62-4.69-1.39-9.33-2.9-13.94-4.55-3.64-1.4-7.24-2.91-10.8-4.51-3.12-1.24-6.24-2.5-9.34-3.79-2.29-1-4.57-2.02-6.84-3.05-2.45-.87-5.06-1.51-7.56-2.22,6.08,8.27,12.16,16.53,18.24,24.8.64-.64,1.05-.84.68-1.76l-1.32-2.06c-1.73-2.3-3.51-4.56-5.33-6.78-2.78-3.45-5.58-6.89-8.47-10.25-.76-.99-1.6-1.92-2.52-2.76-.43-.61-.99-1.02-1.69-1.23Z" style="fill:#f45b69; opacity:.11; stroke-width:0px;"/><path d="m100.31,502.21c3.57,11.57,9.94,20.08,19.11,25.54,2.16,1.19,4.36,2.29,6.62,3.28,6.83,3.04,13.94,5.54,21.01,7.91,19.04,6.39,38.58,11.54,58.1,16.25,61.95,14.93,125.51,23.87,189.22,25.73,41.49,1.21,83.09-.62,124.26-6.02,16.35-2.15,32.66-4.86,48.82-8.15,22.11-4.51,44.06-9.91,66-15.2,33.55-8.09,66.97-16.68,100.5-24.84,25.99-6.32,52.11-12.38,78.57-16.43,21.69-3.32,43.54-5.04,65.48-4.78,27.05.31,54.01,4.09,80.51,9.38,30.06,6,59.7,14.06,89.08,22.75,22.24,6.58,44.27,13.81,66.66,19.9,22,5.99,44.21,11.24,66.59,15.63,32.22,6.31,64.86,10.88,97.66,12.58,28.35,1.47,56.9.87,85.01-3.33,18.75-2.8,37.28-7.22,55.13-13.64,8.52-3.06,16.87-6.55,24.97-10.58,7.06-3.51,13.94-7.34,20.81-11.19-.5-.79-1.23-1.31-2.2-1.54-3.01-1.28-6.05-2.49-9.12-3.61-3.05-1.17-6.13-2.27-9.24-3.28-.88-.46-1.77-.56-2.67-.29-6.92,2.46-13.44,5.91-20.05,9.1-3.78,2.03-7.73,3.64-11.84,4.84-4.09,1.36-8.2,2.62-12.35,3.79-17.2,4.83-34.81,7.86-52.56,9.71-27.25,2.84-54.79,2.28-82.07.29-32.42-2.36-64.54-7.33-96.4-13.69-22.34-4.45-44.54-9.76-66.53-15.7-22.48-6.07-44.65-13.23-67.09-19.48-30.04-8.36-60.36-15.8-91.15-20.83-27.49-4.49-55.39-6.81-83.25-6.12-24.03.59-47.91,3.47-71.57,7.64-26.73,4.71-53.2,10.82-79.57,17.22-34.04,8.26-68.03,16.7-102.19,24.45-19.01,4.31-38.07,8.5-57.25,11.96-21.09,3.81-42.37,6.6-63.72,8.47-37.7,3.3-75.6,3.64-113.37,1.51-61.96-3.51-123.54-13.72-183.63-29.11-10.41-2.67-20.78-5.48-31.11-8.47-9.34-2.71-18.78-5.34-27.77-9.1-5.86-2.45-11.83-4.87-17.43-7.89-1.7-1.1-3.51-1.94-5.43-2.54-1.23-.46-2.43-.99-3.6-1.6,4.63,6.78,9.26,13.56,13.89,20.34l.97-.93c-.03-.95-.41-1.79-1.13-2.5-1.97-2.71-4-5.37-6.1-7.98-2.06-2.64-4.19-5.23-6.38-7.76-.53-.87-1.26-1.42-2.18-1.67Z" style="fill:#f45b69; opacity:.11; stroke-width:0px;"/><path d="m114.34,524.63c-.52.66-.7.9-.55,1.81.24,1.47.94,2.91,1.54,4.26.83,1.86,1.65,3.45,3.26,4.72.99.78,2.25,1.41,3.34,2.03,2.36,1.33,4.75,2.51,7.26,3.53,13.34,5.41,27.18,9.6,40.99,13.6,24.23,7.02,48.86,12.77,73.6,17.66,60.13,11.86,121.49,18.11,182.81,17.52,34.46-.33,68.89-2.89,102.99-7.86,38.78-5.66,76.8-15.21,114.83-24.52,29.08-7.12,58.07-14.56,87.14-21.7,24.74-6.08,49.57-12,74.7-16.25,20.17-3.41,40.52-5.62,60.98-5.94,24.14-.38,48.31,1.82,72.1,5.9,25.44,4.37,50.55,10.39,75.45,17.17,36.75,10.01,72.81,22.38,109.66,32.06,33.79,8.88,68.07,16.09,102.7,20.78,29.26,3.96,58.87,6.2,88.41,5.54,33.92-.75,67.85-5.43,100.04-16.36,18.56-6.3,36-15.05,52.86-24.97,1.03-.6-.09-1.42-.67-1.88s-3.25-2.75-4.13-2.26c-14.79,8.31-29.94,15.74-45.95,21.42-18.04,6.4-36.72,10.7-55.66,13.38-28.37,4-57.16,4.46-85.73,2.81-32.82-1.89-65.48-6.6-97.72-12.99-22.35-4.43-44.53-9.71-66.52-15.67-22.38-6.07-44.43-13.19-66.69-19.66-29.3-8.53-58.86-16.36-88.83-22.16-24.8-4.79-49.86-8.05-75.12-8.71-23.5-.62-46.91,1.21-70.13,4.8-24.49,3.78-48.67,9.31-72.76,15.06-35.45,8.47-70.75,17.58-106.21,26.04-21.93,5.23-43.88,10.7-66.01,15.04-16.29,3.19-32.66,5.9-49.13,7.99-41.38,5.25-83.18,6.93-124.86,5.56-63.84-2.1-127.49-11.23-189.5-26.44-19.47-4.78-38.84-10.11-57.89-16.4-3.96-1.3-7.9-2.66-11.82-4.09-3.14-1.17-6.26-2.38-9.37-3.64-2.05-1.14-4.06-2.34-6.04-3.59-1.02-.5-1.91-1.16-2.69-1.99.85,2.25,1.7,4.5,2.55,6.75l1.12-1.66c.91-.82-1.15-3.29-1.49-3.8-.04-.06-2.21-3.73-2.9-2.87Z" style="fill:#f45b69; opacity:.11; stroke-width:0px;"/></svg>