<?xml version="1.0" encoding="UTF-8"?><svg id="a" xmlns="http://www.w3.org/2000/svg" viewBox="0 0 1536 1024"><path d="m272.88,377.19c-19.34.97-31.75-4.82-37.05-17.91-.22-.72-.33-1.08-.56-1.8-3.36-10.92-.37-18.98,9.06-24.05,1.95-.88,3.82-1.63,5.43-2.1,2.89-.85,4.82-1.02,5.56-.45.4.18.77.66.96,1.29.39,2.54.97,4.93,1.68,7.38.87,2.99,1.87,5.29,2.91,6.82,1.71,2.52,5,4.53,9.39,6.33,5.29,2.17,10.38,3.51,14.81,3.67,4.5.16,8.11-.18,10.74-.89,8.32-2.26,11.3-8.1,8.8-17.59-1.61-6.12-6.02-12.99-13.37-20.58-6.99-7.21-15.42-13.74-25.37-19.49-15.4-8.83-25.83-14.12-30.98-16.15-2.96-1.1-6.82-3.2-11.47-6.24-10.08-6.24-16.74-11.58-19.73-16.1-2.98-4.51-5.03-8.33-5.95-11.3-1.23-3.97-1.67-8.18-1.23-12.76,1.99-21.14,16.79-37.61,35.6-46.23,3.77-1.75,8.43-3.44,13.89-4.93,8.49-2.32,15.76-3.56,21.9-3.88,19.38-.07,32.36,6.74,39.11,20.06.79,1.75,1.75,4.11,2.26,6.84.4,2.12.43,5.94.45,10.87.02,4.14-.19,7.15-.79,9.13-.86,2.83-3.27,4.78-7.22,5.77-3.5.87-6.58,1.07-9.03.42-1.13-.2-1.89-.79-2.23-1.67-.12-.48-.18-.71-.3-1.19-.44-1.74-.92-3.98-1.43-6.55-.34-1.75-.64-3.44-1.03-5-2.68-10.52-8.14-17.61-16.59-21.17-3.53-1.71-5.88-2.43-6.69-2.44-.84-.01-1.6.03-1.94.12-1.04.28-2.07,1.04-3.12,2.2-6.14,8-7.37,18.72-3.7,32.11.65,2.37,1.33,4.26,2,5.52.8,1.5,2.02,3.36,3.88,5.3,3.03,3.58,6.93,6.82,11.81,9.81s13.29,7.19,24.9,12.71c11.98,5.7,20.93,10.72,26.78,14.64s10.69,8.45,14.6,13.11c5.33,6.34,8.86,12.38,10.16,17.99.79,3.4.88,7.75.24,13.22-.45,3.88-1.08,6.94-1.93,9.08-7.29,16.57-26.98,31.24-43.17,37.64-4.11,1.79-8.81,3.45-13.92,4.87-7.4,2.05-13.46,3.29-18.12,3.56Zm-48.34-134c-.05-11.01.6-18.68,1.65-23,.97-3.97,1.26-6.36,1.03-7.17-.23-.82-1.43-1.22-3.52-1.44-2.01-.21-4.01-.11-5.73.39-3.67,1.07-6.14,4.5-7.55,10.21-1.39,5.63-1.22,11.21.38,16.54.79,2.62,1.64,4.45,2.5,5.46,1.17,1.36,3.09,2.12,5.81,2.2,1.12.06,1.96,0,2.75-.23,2.25-.67,2.79-1.32,2.68-2.96Zm8.28,15.77c-.61-2.08-2.14-3.6-4.58-4.46-1.58-.42-3.28-.41-4.96.09-2.24.66-3.17,1.63-2.82,2.81.27.91.9,1.8,2.01,2.65,2.68,2.06,5.42,2.72,7.98,1.97,2.01-.59,2.8-1.61,2.37-3.06Zm110.02,63.8c1.86-5.97.6-9.46.4-10.28-.76-3.22-2.6-5.67-5.42-6.96-2.37-1.09-4.8-1.38-6.97-.85-1.3.32-1.86.84-1.66,1.67.04.18.22.43.4.68,1.12,1.28,2.13,4.05,3.13,8.18.78,3.21,1.12,5.67,1.09,7.31-.02,1.35,0,2.33.16,2.97.18.73.66,1.3,1.56,1.76,1.29.66,2.47.86,3.43.63,1.71-.41,3.01-2.08,3.87-5.1Z" style="stroke-width:0px;"/><path d="m426.39,339.34c-5.22-.35-10.09-3.61-14.91-9.22-4.27-4.98-7.89-11.13-10.52-18.6-2.63-7.46-5.49-18.73-8.58-34-.74-3.66-1.12-5.5-1.86-9.16-1.54-7.59-2.66-13.55-3.29-17.92-.8-5.5-1.35-12.21-1.81-19.96-.62-10.46-.97-18.97-.8-25.26.18-6.86,1.04-13.39,2.71-19.59.69-3.21,1.03-5.2.89-5.94-.13-.65-.76-.81-1.81-.61-.73.22-1.09.33-1.82.55-3.74,1.22-15.13,3.99-34.06,8.76-1.44-.85-2.16-1.27-3.61-2.12-3.21-1.91-5.19-4.28-5.84-7.23-.61-2.77,4.12-6.33,14.2-10.5,18.32-7.57,39.23-12.81,58.58-16.1,6.2-1.05,12.52-2.07,18.79-2.86,20.21-2.54,32.23-2.53,35.72-.09,1.58.91,3,2.42,4.39,4.51,1.38,2.09,2.27,4.06,2.53,5.83.53,3.64-1.43,4.12-3.42,4.41-1.05.16-2.25.25-3.79.18-1.43-.06-4.43.23-8.73.75-4.3.52-9.04,1.12-13.82,1.9-8.17,1.32-13.24,2.23-14.9,2.67-1.45.38-2.13.84-2.09,1.12.07.14.11.21.18.35,1.84,3.04,3.85,10.64,5.96,23.02.65,3.82,1.37,8.01,2.03,12.58.62,4.3,1.46,9.24,2.39,14.72,3.23,19.08,6.83,38.23,10.87,57.14,2.66,12.46,4.72,21.7,6.31,27.37.96,3.43,1.76,6.5,2.2,9.11.42,2.51.57,4.69.41,6.35-.43,3.33-2.14,6.2-5.33,8.67-4.88,4.1-11.59,6.92-20.17,8.51-2.54.47-4.91.73-7.01.65Zm-11.56-60.17c.83-.34,1.15-1.75.64-4.44-.77-4.08-2.31-4.95-7.16-4.01-2.76.53-3.95,2.02-3.46,4.52.51,2.59,1.75,4.21,3.76,4.65,1.41.31,2.68.35,3.78.14.77-.15,1.68-.54,2.45-.85Zm-6.11-18.82c1.22-.23,2.11-.7,2.41-1.23.27-.48-.06-5.75-.62-15.45s-1.19-16.2-1.81-19.54c-.19-1.02-.46-1.83-.89-2.23-.76-.91-3.88-1.28-5.7-.94-1.93.37-3.09,1.65-3.74,3.8-1.06,4.24-.27,13.04,2.33,26.38.67,3.43,1.33,5.61,1.88,6.66,1.23,2.17,2.9,3.09,4.92,2.8.49-.09.73-.14,1.22-.23Z" style="stroke-width:0px;"/><path d="m558.66,318.41c-26.79-2.52-49.42-19.59-59.7-44.18-3.45-8.57-6.14-19.44-8.04-32.71-2.01-14.02-2.48-26.37-1.34-37.09.61-5.69,1.87-12.46,3.86-20.27s3.98-14.17,6.08-18.92c6.43-13.33,15.93-22.73,28.63-28.09,4.95-1.81,10.22-3.06,15.79-3.65,3.32-.35,6.78-.52,10.27-.4,9.5.27,16.71,1.98,21.65,5.14,1.52,1,2.41,2.31,2.61,3.84.19,1.53-.43,3.75-1.55,6.58-.88,2.22-1.31,3.91-1.23,4.75.06.66,1.67,1.3,4.89,1.84,4.52.76,9.26,1.95,14.09,3.55,4.84,1.6,8.62,3.4,11.21,5.19,8.81,6.44,15.58,16.97,20.09,31.44,1.66,6.04,2.76,14.3,3.41,24.57.76,11.87.64,21.86-.33,29.73-2.19,17.76-6.49,32.22-12.56,43.08-3.07,5.72-6.34,10.23-9.72,13.44-3.32,3.16-7.66,6-12.84,8-4.23,1.63-8.4,2.56-12.35,3.04-3.95.47-6.18.79-6.93.87-6.09.61-11.49.71-15.97.25Zm-50.52-101.07c2.82-.47,3.33-1.01,3.8-3.64.23-.89.26-1.56.19-2.12-.08-.66-.26-1.11-.64-1.35-.79-.75-2.66-1.09-5.21-.84-2.76.26-5.09,2.61-4.75,4.35.35,1.75,1.32,2.96,2.55,3.47.86.36,1.9.41,3.15.25.36-.05.54-.07.91-.12Zm6.43-21.2c.19-.31.29-.51.25-.79-.04-.28,1.68-5.27,5.31-14.74,3.39-8.85,6.14-15.5,8.12-19.89,1.4-3.11,2.04-4.89,1.98-5.46-.14-1.22-6.13-2.61-9.66-2.19-3.76.45-7.44,4.85-10.62,13.11-3.52,9.12-5.31,17.44-5.67,24.44-.08,1.15-.07,2.1.01,2.76.15,1.12,1.02,2.05,2.48,2.91,1.64.97,3.11,1.5,4.49,1.32,1.49-.19,2.59-.71,3.31-1.47Zm66.08,100.19c3.46-3.84,5.92-6.91,7.57-9.24,9.04-12.95,15.11-29.72,18.01-50.4.94-6.79,1.04-14.38.42-22.57-.63-8.19-1.92-14.62-3.8-19.5-5.2-12-12.19-20.54-20.73-25.66-4.31-2.37-7.58-3.4-9.68-3.2-1.28.12-2.76,4.52-4.37,13.31-3.48,23.05-6.54,45.92-4.04,69.18.87,8.12,2.43,16.18,4.65,23.82,2.86,9.85,6.13,17.13,9.86,21.79.84.98,1.26,1.47,2.09,2.46Z" style="stroke-width:0px;"/><path d="m666.53,304.58c-3.12-3.61-6.23-13.93-9.58-29.69-4.31-20.31-7.13-41.92-8.14-62.63-.79-16.25-.79-31.67.36-46.15,1.39-17.43,4.02-29.61,7.9-36.21,2.91-4.94,7.33-6.68,16.27-7.01,3.93-.15,6.81-.04,8.59.17,1.91.23,3.96.72,6.13,1.51,3.61,1.12,6.27,3.07,8.01,5.73,1.69,2.59,3.12,6.63,4.08,12.18.81,4.7,1.46,7.05,1.93,7.04.23,0,.58-.3.92-.96,6.17-8.26,11.52-14.48,15.98-18.69,4.46-4.21,8.84-7.09,13-8.72,7.02-2.59,13.24-2.21,14.19-2.21,4.3,0,8.36.5,12.17,1.38,23.23,5.59,40.13,23.65,46.09,46.54,1.87,6.96,2.64,14.54,2.36,22.66-.55,15.95-3.69,28.9-9.55,38.13-8.53,13.45-19.74,22.98-32.76,28.39-5.68,2.48-10.66,4.05-15.07,4.7-4.3.64-10.49.92-18.43.98-9.14.07-13.71.13-22.84.32.25,8.15.38,12.23.63,20.38.08,3.87.02,6.81-.04,8.97-.07,2.82-.61,4.93-1.49,6.26-.85,1.28-2.21,2.69-4.23,4.16-6.16,4.21-14.04,6.5-23.7,6.87-5.69.22-10.2-1.12-12.77-4.1Zm26.29-72.11c.44-.3.58-3.23.43-8.79-.2-7.17-1.16-22.06-2.52-44.32-.74-12.11-1.84-19.12-3.42-21.05-.85-1.01-2.15-1.54-3.91-1.48-3.04.1-4.06,1.27-3.66,12.78.13,3.68.49,8.83.87,15.08,2.96,48.42,4.7,48.29,9.44,48.91,1.01-.03,2.01-.44,2.77-1.12Zm24,13.35c15.76-3.45,27.32-14.57,35.01-33.51,2.75-6.88,4.63-12.91,5.47-18.09.84-5.19,1.36-12.07,1.43-20.76.19-23.7-1.13-35.51-3.96-35.53-2.36-.01-6.28,2.14-11.82,6.48-16.88,14.42-27.43,35.4-34.82,55.95-1.65,4.38-2.47,6.56-4.1,10.94,1.19,17.82,2.22,29.79,3.13,35.91,4.78-.57,8-1,9.66-1.4Zm68.43-16.05c.81-.93,1.28-1.76,1.3-2.52.03-1.32-1.18-2.3-3.65-3.01-1.23-.31-2.36-.52-3.37-.54-2.82-.06-4.19,1.15-4.24,3.6-.04,2.17.72,3.51,2.18,3.82s2.46.52,3.02.53c1.68.04,3.27-.59,4.76-1.88Zm7.53-16.24c1.31-2.32,2.7-5.62,3.92-9.8,1.56-5.37,2.39-10.88,2.55-16.36.22-7.08-1.04-12.14-3.62-14.37-2.41-2.07-4.59-1.92-5.17-1.93-1.04-.03-1.93.24-2.46.88-.49.59-1.4,6.03-2.69,15.99-1.37,10.62-2.12,17.8-2.2,21.58-.06,2.74.14,3.87,1.93,4.95,1.23.69,2.35,1.09,3.6,1.13,1.93.05,3.3-.67,4.14-2.06Z" style="stroke-width:0px;"/><path d="m825.95,235.36c-1.1-.43-2.19-1.23-3.15-2.32-2.79-3.05-4.1-6.7-3.93-10.85.16-3.87,1.1-4.68,3.3-5.72,5.68-2.68,22.67-3.44,51.02-1.39,6.8.49,12.25,1.14,16.39,1.83,5.93.99,10.98,2.46,14.9,4.4,4.67,2.32,6.66,6.78,6.04,13.35-.42,4.42-1.39,4.98-18.45,4.23-21.86-.96-40.4-1.38-55.07-2.15-5.71-.3-9.39-.75-11.05-1.4Z" style="stroke-width:0px;"/><path d="m940.14,311.92c-19.95-17.2-11.37-60.9-9.32-82.81.37-4,1.01-8.18,1.52-12.28,2.42-19.23,5.13-40.01,14.39-56.85,4.22-7.68,9.52-9.69,19.04-8.55,13.4,1.6,21.62,6.42,24.49,14.24.73,1.62,1.21,3.51,1.5,5.63.54,4.04-.36,14.06-2.52,29.86-4.73,34.55-6.27,73.13-16.33,104.78-1.53,4.81-6.56,7.64-13.86,8.09-4.8.3-8.54.36-11.01.06-3-.36-5.64-1.05-7.9-2.17Zm10.24-92.33c1.32-.51,2.16-1.58,2.33-3.25.32-3.23-3.18-5.31-5.91-5.62-2.05-.23-3.38.38-3.88,1.75-.11.56-.16.84-.27,1.39-.25,2.25.59,3.96,2.42,5.02,1.19.61,2.29,1.02,3.08,1.11.57.06,1.27-.04,2.23-.41Zm4.45-18.4c6.94-18.67,10.51-28.41,10.61-29.26.33-2.72-5.36-4.54-6.06-4.62-2.91-.34-6.03,2.74-9.06,9.13-2.33,4.93-3.71,10.13-4.31,15.48-.2,1.78-.32,3.23-.35,4.14-.09,2.9,2.39,4.54,5.71,4.92,1.38.08,2.07.12,3.45.21Z" style="stroke-width:0px;"/><path d="m1023.72,333.85c-17.74-7.47-26.33-18.04-25.44-32.13.11-.75.17-1.12.28-1.87,1.69-11.3,7.82-17.28,18.44-17.79,2.12.05,4.12.18,5.76.45,2.95.48,4.75,1.16,5.17,1.99.28.33.41.93.3,1.58-.74,2.46-1.25,4.87-1.67,7.38-.51,3.07-.6,5.58-.33,7.41.45,3.01,2.53,6.24,5.69,9.76,3.8,4.24,7.79,7.64,11.69,9.7,3.97,2.09,7.35,3.34,10.02,3.83,8.44,1.55,13.63-2.43,15.48-12.07,1.19-6.21.2-14.32-3.13-24.33-3.16-9.52-7.92-19.04-14.37-28.52-10.01-14.61-17.07-23.88-20.8-27.93-2.18-2.26-4.73-5.83-7.58-10.57-6.33-9.97-9.99-17.67-10.72-23.03-.73-5.36-.92-9.68-.47-12.76.61-4.11,2.02-8.1,4.39-12.04,10.82-18.17,31.14-26.69,51.75-26.35,4.13.05,9.04.54,14.58,1.55,8.61,1.57,15.68,3.59,21.33,5.94,17.44,8.3,26.2,20.04,26.52,34.98-.05,1.92-.2,4.46-.92,7.14-.56,2.09-2.18,5.54-4.28,10-1.77,3.75-3.25,6.37-4.65,7.9-1.99,2.18-5,2.9-8.99,2.08-3.53-.73-6.37-1.88-8.3-3.52-.93-.67-1.36-1.52-1.29-2.47.1-.48.14-.72.24-1.2.35-1.76.89-3.99,1.54-6.53.44-1.72.91-3.38,1.23-4.95,2.13-10.65.27-19.4-5.78-26.25-2.43-3.07-4.23-4.72-4.95-5.08-.75-.37-1.45-.66-1.8-.73-1.05-.2-2.31.04-3.75.64-8.96,4.56-14.68,13.71-17.15,27.37-.44,2.42-.64,4.41-.58,5.84.07,1.7.36,3.9,1.19,6.45,1.18,4.53,3.28,9.14,6.37,13.95,3.09,4.81,8.84,12.22,16.89,22.21,8.31,10.31,14.21,18.7,17.77,24.77,3.57,6.07,5.98,12.24,7.49,18.13,2.06,8.02,2.64,14.99,1.39,20.61-.76,3.41-2.55,7.36-5.49,12.03-2.08,3.31-3.98,5.79-5.66,7.36-13.7,11.78-37.72,16.53-55.07,15.32-4.46-.16-9.4-.69-14.59-1.61-7.52-1.34-13.48-2.83-17.77-4.6Zm14.38-141.72c4.69-9.95,8.58-16.59,11.38-20.04,2.57-3.17,3.87-5.19,4.01-6.03s-.76-1.72-2.53-2.82c-1.71-1.06-3.54-1.83-5.3-2.12-3.75-.61-7.43,1.41-11.15,5.95-3.67,4.48-5.91,9.58-6.77,15.09-.42,2.71-.45,4.72-.11,6,.46,1.73,1.85,3.25,4.25,4.49.98.54,1.75.85,2.56.98,2.3.37,3.07.02,3.67-1.51Zm.62,17.8c.35-2.14-.37-4.18-2.19-6-1.24-1.06-2.76-1.79-4.48-2.06-2.29-.37-3.54.11-3.73,1.32-.15.93.03,2.01.66,3.26,1.51,3.01,3.68,4.79,6.3,5.22,2.05.33,3.2-.24,3.44-1.73Zm71.29,105.02c4.26-4.58,4.62-8.27,4.8-9.1.7-3.23.1-6.23-1.88-8.62-1.67-2.01-3.73-3.31-5.91-3.77-1.31-.28-2.04-.04-2.21.79-.04.19.01.49.06.79.45,1.64.17,4.57-.71,8.73-.68,3.23-1.43,5.6-2.17,7.07-.6,1.2-1.01,2.1-1.14,2.75-.16.74.03,1.45.65,2.26.88,1.15,1.85,1.84,2.82,2.05,1.72.37,3.6-.58,5.69-2.93Z" style="stroke-width:0px;"/><path d="m1231.18,381.73c-2.9-1.56-4.71-4.67-4.98-9.56-.27-4.79.63-13.09,2.55-24.64.71-4.29,1.29-7.98,1.84-11.07.55-3.08.89-4.66.95-4.84.05-.18-2.38-.99-7.2-2.37-4.28-1.23-14.75-3.95-31.37-7.69-1.05,2.89-1.57,4.33-2.61,7.22-2.84,8.52-6.22,12.09-12.23,13.96-7.06,2.2-15.44,2.06-24.45-.16-5.72-1.41-9.53-3.78-11.3-7.21-.78-1.45-1.13-3.76-1.1-6.76-.08-6.81.6-14.84,1.91-23.99.84-5.89,3.72-19.3,8.58-40.07,3.25-13.88,5.96-24.32,8.15-31.25,2.42-7.64,5.42-14.92,9.05-21.63,8.07-15.75,13-18.31,28.33-14.47,10.14,2.54,16.37,6.03,18.76,10.47,1.72,2.31,2.49,5.72,2.52,9.94.03,4.16-.65,9.56-2.12,15.75-1.47,6.19-2.92,12.31-4.45,18.06-1.17,4.38-6.05,21.74-14.68,51.97,11.3,3.01,18.78,5.12,22.32,6.2,4.4,1.34,9.62,3.21,15.64,5.45,7.35-24.51,12.67-41.55,16.07-51.17,4.16-11.76,7.64-20.42,10.39-25.98,7.07-14.31,12.89-24.62,17.22-30.65,4.35-6.06,8.13-9.11,11.19-9.26,2.55-.12,5.47.28,8.82,1.31,6.47,1.99,12.98,5.1,17.96,9.38,3.86,3.31,4.74,7.25,4.51,13.15-.12,3.06-.74,6.77-1.98,10.77-1.21,3.91-1.96,6.41-2.22,7.22-2.42,7.45-6.49,18.76-12.02,34.01-6.01,16.58-10.91,30.7-14.6,42.11-4.33,13.38-8.02,26.13-10.9,38.05-2.29,9.45-4.34,16.95-6.12,22.43-.88,2.69-1.7,4.51-2.54,5.33-.84.82-2.16,1.68-4.09,2.35-4.89,2-10.27,2.74-16.36,2.23-5.98-.5-10.54-1.19-13.75-2.17-2.07-.63-4.02-1.5-5.73-2.42Zm-62.97-108.1c2.37-.59,2.51-2.59,2.6-2.96.61-2.48.02-5.83-2.31-6.4-.78-.19-2.2-1.12-2.42-1.17-1.67-.4-4.39.69-4.81,2.43-.13.55-.22,1.4-.13,2.49.31,3.08,1.61,4.95,3.93,5.51.88.21,1.92.27,3.14.08Zm7.38-20.94c.99-1.6,2.28-4.51,4.05-8.72,3.66-8.69,5.96-14.38,6.66-17.22.46-1.83.57-3.26.32-4.2-.45-2.06-2.69-3.78-6.7-5.15-.37-.05-.56-.08-.93-.13-2.92-.42-5.92,6.05-9.12,19.36-1.35,5.6-2.15,9.17-2.32,10.61-.16,1.36.23,2.48,1.04,3.07,1.03,1.12,2.8,2.04,4.85,2.44.97.19,1.74.14,2.15-.06Zm70.42,90.02c.11.03.69.13,1.46.15.9.02,2.11-2.18,3.44-6.36,1.33-4.18,2.95-11.38,5.04-21.26,1.43-6.74,3.67-15.26,6.73-25.38,1.56-5.01,2.34-7.52,3.91-12.53,1.8-5.96,2.43-9.42,1.89-10.28-.49-.78-1.15-1.43-2.15-1.73-1.89-.57-3.28-.39-4.24.41-1.79,1.54-4.95,9.76-9.35,24.6-5.74,19.37-8.94,35.36-9.66,47.85-.19,1.81.25,3.03,1.34,3.66.64.35.96.52,1.59.87Z" style="stroke-width:0px;"/><path d="m245.53,364.78c-19.55,1.29-32.16-4.29-37.64-17.3-.23-.72-.35-1.08-.58-1.8-3.51-10.87-.56-18.99,8.92-24.23,1.96-.91,3.85-1.69,5.47-2.19,2.91-.9,4.86-1.1,5.62-.54.41.17.79.65.98,1.28.42,2.54,1.03,4.92,1.78,7.35.91,2.98,1.94,5.27,3.01,6.78,1.75,2.49,5.1,4.45,9.56,6.18,5.37,2.08,10.54,3.34,15.02,3.43,4.56.09,8.2-.31,10.85-1.07,8.39-2.4,11.34-8.29,8.72-17.75-1.69-6.09-6.22-12.9-13.73-20.37-7.14-7.1-15.73-13.5-25.85-19.08-15.66-8.58-26.26-13.71-31.49-15.65-3-1.05-6.93-3.09-11.66-6.05-10.25-6.08-17.04-11.31-20.1-15.78s-5.17-8.25-6.13-11.21c-1.28-3.95-1.77-8.16-1.37-12.75,1.82-21.31,16.68-37.98,35.5-46.85,3.79-1.81,8.48-3.58,13.99-5.16,8.55-2.46,15.89-3.81,22.08-4.24,19.58-.38,32.77,6.22,39.74,19.45.82,1.74,1.81,4.08,2.35,6.8.42,2.12.49,5.94.57,10.87.06,4.14-.11,7.16-.7,9.15-.83,2.84-3.25,4.84-7.24,5.89-3.53.93-6.64,1.17-9.12.57-1.15-.18-1.91-.76-2.27-1.64-.13-.47-.19-.71-.32-1.19-.47-1.73-.97-3.97-1.51-6.53-.37-1.74-.68-3.43-1.1-4.98-2.82-10.48-8.42-17.5-16.98-20.91-3.58-1.66-5.96-2.33-6.78-2.33s-1.61.06-1.96.16c-1.05.29-2.08,1.07-3.13,2.25-6.13,8.1-7.26,18.86-3.41,32.19.68,2.36,1.38,4.24,2.08,5.49.83,1.49,2.07,3.33,3.97,5.24,3.1,3.53,7.08,6.71,12.04,9.63,4.97,2.92,13.51,6.98,25.3,12.32,12.17,5.51,21.28,10.38,27.23,14.22s10.9,8.29,14.91,12.88c5.46,6.26,9.09,12.24,10.46,17.83.83,3.39.97,7.74.38,13.23-.42,3.89-1.02,6.97-1.86,9.12-8.16,18.89-26.53,28.7-43.28,38.37-4.14,1.85-8.88,3.6-14.03,5.1-7.46,2.17-13.58,3.52-18.29,3.86Zm-50.23-133.31c-.17-11.01.42-18.71,1.44-23.05.93-3.99,1.21-6.38.96-7.2-.25-.81-1.46-1.2-3.57-1.38-2.04-.18-4.06-.05-5.79.49-3.7,1.14-6.16,4.61-7.53,10.34-1.35,5.66-1.12,11.24.55,16.55.82,2.61,1.7,4.43,2.59,5.42,1.2,1.34,3.15,2.08,5.89,2.11,1.13.04,1.98-.02,2.78-.27,2.27-.7,2.81-1.36,2.68-3Zm8.53,15.65c-.64-2.08-2.2-3.57-4.68-4.39-1.6-.39-3.32-.36-5.02.17-2.26.7-3.19,1.69-2.82,2.86.28.9.93,1.79,2.06,2.62,2.73,2.01,5.51,2.63,8.09,1.84,2.02-.62,2.81-1.66,2.37-3.1Zm111.89,62.05c1.82-6.01.5-9.47.3-10.3-.8-3.21-2.69-5.63-5.55-6.88-2.41-1.05-4.87-1.3-7.05-.74-1.31.34-1.87.87-1.66,1.69.05.18.23.43.41.67,1.14,1.27,2.2,4.02,3.25,8.13.82,3.2,1.2,5.65,1.18,7.3-.01,1.35.02,2.33.19,2.97.19.73.68,1.29,1.6,1.73,1.31.64,2.51.82,3.48.57,1.73-.44,3.02-2.13,3.86-5.17Z" style="fill:#fff; stroke-width:0px;"/><path d="m400.44,324.42c-5.29-.27-10.25-3.45-15.18-8.99-4.37-4.92-8.1-11.01-10.84-18.44s-5.75-18.65-9.05-33.88c-.79-3.65-1.19-5.48-1.98-9.13-1.64-7.57-2.83-13.51-3.52-17.88-.86-5.48-1.5-12.19-2.05-19.93-.75-10.46-1.19-18.96-1.09-25.25.11-6.87.9-13.41,2.52-19.64.66-3.23.98-5.22.83-5.96-.13-.65-.78-.8-1.83-.58-.73.23-1.1.35-1.83.58-3.77,1.27-15.24,4.23-34.33,9.3-1.47-.83-2.2-1.24-3.67-2.06-3.26-1.86-5.29-4.2-5.98-7.14-.65-2.76,4.09-6.4,14.24-10.73,18.96-8.09,39.18-12.92,59.02-17.01,6.18-1.27,12.63-2.26,18.96-3.15,20.39-2.85,32.54-3.02,36.1-.63,1.61.89,3.06,2.38,4.49,4.44s2.34,4.02,2.62,5.8c.58,3.64-1.4,4.14-3.4,4.46-1.06.17-2.27.28-3.83.24-1.45-.04-4.48.3-8.81.88-4.34.59-9.12,1.26-13.95,2.11-8.24,1.45-13.35,2.43-15.03,2.89-1.46.4-2.15.88-2.1,1.16.07.14.11.21.19.35,1.89,3.01,4.01,10.59,6.29,22.94.7,3.81,1.47,7.99,2.19,12.56.67,4.29,1.58,9.22,2.59,14.69,3.49,19.04,7.34,38.13,11.64,56.99,2.83,12.42,5.02,21.64,6.69,27.28,1.01,3.41,1.85,6.48,2.33,9.08.46,2.51.63,4.68.49,6.34-.4,3.33-2.09,6.24-5.29,8.75-4.89,4.18-11.65,7.1-20.31,8.83-2.57.51-4.96.8-7.08.75Zm-12.35-60.01c.84-.35,1.14-1.77.59-4.46-.83-4.07-2.39-4.92-7.29-3.9-2.78.58-3.98,2.08-3.45,4.58.54,2.59,1.81,4.18,3.85,4.6,1.43.29,2.72.3,3.82.08.77-.16,1.69-.56,2.47-.89Zm-6.39-18.74c1.23-.25,2.12-.73,2.42-1.27.27-.48-.13-5.75-.8-15.44-.67-9.69-1.38-16.19-2.05-19.52-.21-1.02-.49-1.83-.92-2.22-.78-.9-3.94-1.22-5.77-.85-1.95.4-3.11,1.7-3.73,3.85-1.02,4.26-.13,13.04,2.65,26.35.71,3.42,1.4,5.59,1.97,6.63,1.27,2.15,2.97,3.04,5,2.72.49-.1.74-.15,1.23-.25Z" style="fill:#fff; stroke-width:0px;"/><path d="m534.01,301.49c-26.96-2.1-50.15-18.71-60.91-43.3-3.59-8.52-6.44-19.35-8.51-32.59-2.19-13.99-2.82-26.33-1.79-37.08.55-5.71,1.74-12.5,3.66-20.33,1.92-7.83,3.85-14.23,5.92-19.01,6.34-13.42,15.83-22.97,28.6-28.51,4.98-1.88,10.29-3.21,15.91-3.88,3.35-.4,6.85-.62,10.37-.55,9.6.14,16.91,1.74,21.94,4.83,1.55.98,2.47,2.27,2.68,3.81.21,1.53-.39,3.75-1.49,6.61-.86,2.23-1.27,3.93-1.18,4.77.07.66,1.7,1.27,4.97,1.77,4.58.7,9.38,1.82,14.29,3.35,4.91,1.53,8.75,3.27,11.4,5.03,8.98,6.32,15.96,16.75,20.69,31.15,1.75,6.02,2.96,14.26,3.75,24.52.92,11.86.92,21.85.03,29.73-2,17.79-6.17,32.31-12.17,43.26-3.03,5.76-6.29,10.32-9.67,13.58-3.32,3.2-7.67,6.1-12.89,8.18-4.26,1.7-8.47,2.68-12.46,3.21-3.99.53-6.25.88-7,.97-6.16.7-11.61.88-16.16.48Zm-52.28-100.34c2.85-.51,3.35-1.05,3.8-3.69.22-.89.25-1.56.17-2.12-.09-.65-.27-1.11-.66-1.34-.81-.74-2.7-1.05-5.27-.77-2.78.31-5.11,2.68-4.75,4.42.37,1.75,1.37,2.95,2.61,3.43.87.35,1.93.38,3.19.2.37-.05.55-.08.92-.13Zm6.25-21.3c.19-.31.28-.52.24-.8-.04-.28,1.64-5.29,5.19-14.82,3.32-8.9,6.02-15.59,7.97-20.01,1.38-3.13,2.01-4.92,1.93-5.49-.16-1.22-6.23-2.52-9.79-2.05-3.79.51-7.46,4.96-10.58,13.26-3.44,9.18-5.16,17.52-5.45,24.52-.07,1.16-.05,2.11.05,2.76.16,1.12,1.06,2.03,2.55,2.87,1.67.94,3.16,1.45,4.55,1.26,1.5-.21,2.61-.75,3.33-1.52Zm68.01,99.23c3.45-3.89,5.9-6.99,7.55-9.34,8.98-13.08,14.92-29.94,17.6-50.65.86-6.81.88-14.39.14-22.57-.73-8.18-2.12-14.6-4.08-19.44-5.41-11.93-12.58-20.36-21.27-25.37-4.39-2.31-7.71-3.29-9.82-3.06-1.29.14-2.73,4.56-4.25,13.37-3.23,23.09-6.06,46-3.25,69.24.98,8.11,2.65,16.15,4.99,23.75,3.02,9.81,6.41,17.04,10.24,21.65.86.97,1.29,1.46,2.15,2.42Z" style="fill:#fff; stroke-width:0px;"/><path d="m642.97,286.12c-3.2-3.56-6.48-13.84-10.06-29.56-4.62-20.24-7.74-41.83-9.02-62.52-1.01-16.24-1.2-31.66-.21-46.15,1.19-17.45,3.69-29.67,7.53-36.31,2.87-4.98,7.32-6.78,16.35-7.23,3.97-.2,6.88-.14,8.69.05,1.93.2,4.01.67,6.21,1.43,3.66,1.07,6.37,2.98,8.17,5.62,1.75,2.57,3.24,6.59,4.28,12.12.88,4.69,1.56,7.03,2.04,7.01.24,0,.58-.3.92-.98,6.13-8.34,11.45-14.63,15.9-18.91,4.45-4.27,8.84-7.2,13.02-8.89,7.06-2.69,13.35-2.38,14.31-2.39,4.34-.05,8.45.39,12.31,1.22,23.43,5.24,40.81,23.01,47.19,45.94,1.98,6.93,2.87,14.51,2.69,22.62-.34,15.95-3.34,28.95-9.13,38.25-8.44,13.56-19.64,23.23-32.74,28.82-5.71,2.56-10.73,4.19-15.18,4.9-4.34.69-10.59,1.06-18.63,1.23-9.24.19-13.86.31-23.09.62.36,8.15.54,12.22.9,20.37.13,3.87.1,6.81.08,8.97-.03,2.82-.56,4.94-1.43,6.28-.84,1.29-2.2,2.72-4.22,4.21-6.17,4.29-14.11,6.7-23.89,7.19-5.76.29-10.33-.98-12.97-3.92Zm25.67-72.46c.44-.3.55-3.24.32-8.8-.3-7.17-1.45-22.04-3.12-44.28-.91-12.1-2.1-19.09-3.72-21.01-.87-1-2.2-1.51-3.97-1.43-3.07.14-4.08,1.33-3.53,12.83.18,3.68.61,8.82,1.07,15.07,3.61,48.38,5.37,48.22,10.17,48.77,1.02-.04,2.02-.46,2.79-1.16Zm24.44,13.03c15.9-3.66,27.43-14.93,34.96-33.98,2.69-6.92,4.51-12.97,5.29-18.16.78-5.2,1.21-12.09,1.17-20.78-.12-23.7-1.61-35.49-4.48-35.47-2.39.02-6.32,2.22-11.85,6.64-16.83,14.6-27.24,35.73-34.47,56.42-1.61,4.4-2.41,6.6-4,11,1.43,17.8,2.63,29.76,3.63,35.86,4.82-.64,8.07-1.11,9.75-1.53Zm68.97-16.96c.81-.94,1.27-1.78,1.28-2.54.01-1.32-1.23-2.28-3.73-2.96-1.25-.29-2.39-.49-3.42-.5-2.85-.02-4.22,1.2-4.24,3.66-.01,2.17.78,3.5,2.25,3.79s2.49.49,3.06.49c1.7.01,3.3-.63,4.79-1.94Zm7.39-16.34c1.29-2.34,2.66-5.65,3.83-9.86,1.51-5.39,2.27-10.92,2.36-16.39.12-7.08-1.21-12.13-3.86-14.32-2.47-2.04-4.67-1.86-5.25-1.87-1.06-.01-1.95.27-2.47.92-.48.6-1.34,6.05-2.5,16.02-1.24,10.63-1.9,17.83-1.93,21.6-.02,2.74.2,3.87,2.02,4.93,1.25.67,2.4,1.06,3.66,1.08,1.95.02,3.33-.71,4.15-2.12Z" style="fill:#fff; stroke-width:0px;"/><path d="m803.27,214.78c-1.12-.42-2.23-1.21-3.22-2.28-2.86-3.02-4.24-6.64-4.12-10.8.11-3.87,1.05-4.69,3.26-5.76,5.7-2.75,22.87-3.73,51.54-2.04,6.88.41,12.39.98,16.59,1.62,6,.91,11.13,2.32,15.11,4.22,4.75,2.27,6.82,6.69,6.29,13.28-.36,4.42-1.34,5-18.58,4.46-22.1-.68-40.86-.87-55.69-1.46-5.78-.23-9.5-.63-11.19-1.26Z" style="fill:#fff; stroke-width:0px;"/><path d="m919.78,289.92c-20.34-16.85-12.37-60.75-10.61-82.7.32-4,.9-8.2,1.36-12.29,2.17-19.26,4.63-40.1,13.72-57.02,4.16-7.73,9.47-9.81,19.1-8.78,13.55,1.44,21.92,6.16,24.94,13.94.76,1.61,1.27,3.49,1.59,5.61.61,4.03-.16,14.07-2.11,29.89-4.27,34.6-5.27,73.24-14.97,104.98-1.48,4.83-6.52,7.71-13.89,8.25-4.85.35-8.63.46-11.13.19-3.04-.33-5.72-.98-8.02-2.08Zm9.02-92.46c1.32-.52,2.16-1.61,2.31-3.27.28-3.24-3.29-5.27-6.06-5.55-2.07-.21-3.41.42-3.89,1.8-.1.56-.15.84-.25,1.4-.22,2.25.66,3.95,2.52,4.99,1.21.59,2.33.99,3.13,1.07.57.06,1.28-.06,2.24-.44Zm4.23-18.45c6.74-18.76,10.2-28.54,10.3-29.39.29-2.72-5.48-4.47-6.19-4.55-2.95-.31-6.05,2.82-9.02,9.24-2.29,4.96-3.6,10.17-4.13,15.53-.18,1.79-.27,3.23-.29,4.15-.05,2.9,2.48,4.51,5.84,4.85,1.4.07,2.09.1,3.49.17Z" style="fill:#fff; stroke-width:0px;"/><path d="m1004.59,310.87c-18.04-7.26-26.88-17.73-26.19-31.84.1-.75.15-1.12.25-1.87,1.54-11.32,7.65-17.37,18.37-18.01,2.15.03,4.17.13,5.83.38,2.99.44,4.82,1.1,5.26,1.93.29.33.43.92.33,1.58-.71,2.47-1.19,4.88-1.57,7.4-.47,3.08-.53,5.59-.23,7.41.5,3.01,2.65,6.21,5.89,9.7,3.91,4.19,7.99,7.56,11.96,9.57,4.04,2.04,7.48,3.25,10.18,3.71,8.55,1.46,13.74-2.59,15.46-12.25,1.11-6.23-.02-14.32-3.53-24.3-3.34-9.49-8.29-18.96-14.94-28.36-10.33-14.5-17.6-23.69-21.43-27.69-2.23-2.24-4.86-5.77-7.82-10.49-6.54-9.9-10.35-17.55-11.17-22.9s-1.07-9.67-.66-12.76c.55-4.12,1.92-8.12,4.25-12.1,10.72-18.38,31.14-27.07,51.86-26.97,4.17,0,9.13.43,14.74,1.38,8.72,1.47,15.89,3.41,21.62,5.7,17.73,8.1,26.75,19.75,27.3,34.68-.02,1.92-.13,4.47-.82,7.15-.53,2.09-2.12,5.57-4.17,10.05-1.73,3.77-3.19,6.41-4.57,7.95-1.98,2.21-5.01,2.96-9.04,2.19-3.57-.68-6.46-1.8-8.43-3.42-.95-.66-1.39-1.51-1.34-2.46.09-.48.13-.72.22-1.21.33-1.76.84-4,1.46-6.55.42-1.73.87-3.39,1.16-4.97,1.99-10.67-.02-19.41-6.23-26.19-2.5-3.04-4.34-4.68-5.08-5.03-.76-.36-1.47-.64-1.83-.71-1.07-.19-2.33.07-3.78.68-8.98,4.67-14.62,13.88-16.91,27.57-.4,2.42-.58,4.42-.5,5.85.1,1.7.42,3.9,1.3,6.44,1.26,4.52,3.45,9.11,6.65,13.88,3.2,4.77,9.11,12.12,17.39,22.02,8.55,10.22,14.63,18.55,18.33,24.57,3.7,6.03,6.23,12.18,7.85,18.05,2.21,8,2.9,14.96,1.72,20.6-.71,3.42-2.46,7.39-5.36,12.1-2.05,3.33-3.93,5.84-5.61,7.42-15.46,13.49-36.18,14.44-55.4,15.94-4.51-.11-9.51-.58-14.76-1.45-7.62-1.26-13.67-2.68-18.03-4.4Zm12.41-141.92c4.58-10.01,8.42-16.7,11.19-20.17,2.55-3.2,3.83-5.24,3.96-6.08.13-.84-.79-1.71-2.6-2.79-1.74-1.04-3.61-1.79-5.38-2.06-3.79-.57-7.48,1.5-11.17,6.08-3.63,4.52-5.83,9.66-6.61,15.17-.39,2.71-.39,4.73-.02,6,.49,1.72,1.92,3.23,4.36,4.44.99.53,1.78.83,2.6.95,2.33.34,3.1-.02,3.68-1.56Zm.89,17.79c.32-2.15-.43-4.17-2.3-5.98-1.26-1.05-2.82-1.75-4.56-2.01-2.32-.34-3.57.15-3.75,1.36-.13.93.06,2.01.71,3.25,1.57,2.99,3.79,4.75,6.44,5.14,2.08.31,3.22-.28,3.45-1.77Zm73.6,104.23c4.23-4.63,4.54-8.33,4.71-9.16.66-3.24,0-6.24-2.03-8.6-1.72-1.99-3.82-3.27-6.02-3.71-1.32-.26-2.06-.02-2.22.81-.04.19.02.49.07.79.48,1.63.24,4.57-.58,8.74-.64,3.24-1.36,5.62-2.08,7.09-.59,1.21-.98,2.12-1.11,2.76-.15.74.05,1.45.69,2.25.91,1.14,1.9,1.82,2.88,2.02,1.74.35,3.63-.62,5.7-2.99Z" style="fill:#fff; stroke-width:0px;"/><path d="m1214.92,356.49c-2.95-1.53-4.83-4.63-5.18-9.51-.35-4.79.43-13.11,2.18-24.68.65-4.3,1.18-8,1.68-11.09.51-3.09.83-4.67.88-4.85.05-.18-2.42-.97-7.31-2.3-4.34-1.18-14.96-3.79-31.79-7.36-1.01,2.9-1.51,4.35-2.52,7.25-2.73,8.56-6.09,12.16-12.12,14.1-7.1,2.28-15.56,2.22-24.7.1-5.8-1.35-9.68-3.67-11.52-7.09-.81-1.44-1.2-3.75-1.21-6.75-.19-6.81.38-14.86,1.55-24.02.76-5.9,3.46-19.35,8.04-40.18,3.07-13.92,5.64-24.4,7.74-31.35,2.32-7.67,5.24-14.99,8.8-21.74,7.9-15.84,12.84-18.47,28.37-14.79,10.28,2.43,16.61,5.85,19.1,10.26,1.78,2.29,2.6,5.7,2.69,9.92.1,4.16-.51,9.57-1.89,15.78-1.39,6.21-2.75,12.35-4.21,18.12-1.11,4.39-5.76,21.82-13.99,52.16,11.45,2.89,19.04,4.92,22.63,5.96,4.46,1.3,9.76,3.1,15.88,5.28,7.03-24.6,12.12-41.71,15.4-51.38,4.01-11.81,7.38-20.51,10.06-26.11,6.91-14.4,12.61-24.78,16.88-30.85,4.3-6.11,8.05-9.21,11.14-9.39,2.57-.15,5.52.22,8.92,1.21,6.56,1.92,13.16,4.96,18.26,9.19,3.95,3.28,4.9,7.2,4.76,13.11-.07,3.06-.64,6.78-1.82,10.8-1.15,3.93-1.87,6.44-2.12,7.25-2.32,7.48-6.24,18.84-11.57,34.17-5.79,16.66-10.51,30.84-14.04,42.3-4.15,13.44-7.67,26.24-10.38,38.19-2.15,9.48-4.1,17.01-5.81,22.51-.84,2.7-1.64,4.53-2.47,5.36-.84.83-2.15,1.71-4.09,2.39-4.9,2.05-10.33,2.85-16.48,2.41-6.04-.44-10.66-1.08-13.92-2.02-2.1-.61-4.08-1.46-5.82-2.36Zm-65.29-107.49c2.38-.61,2.49-2.62,2.58-2.99.58-2.48-.07-5.83-2.43-6.37-.79-.18-2.24-1.09-2.46-1.14-1.69-.38-4.43.74-4.82,2.49-.12.55-.2,1.41-.09,2.5.36,3.08,1.71,4.94,4.06,5.47.89.21,1.94.25,3.17.05Zm7.12-21.03c.97-1.62,2.23-4.54,3.96-8.77,3.55-8.74,5.79-14.45,6.46-17.3.43-1.84.52-3.27.26-4.21-.49-2.05-2.77-3.75-6.84-5.08-.38-.05-.57-.07-.94-.12-2.95-.38-5.88,6.12-8.91,19.47-1.27,5.62-2.02,9.2-2.17,10.64-.14,1.37.27,2.48,1.09,3.06,1.06,1.11,2.86,2.01,4.94,2.39.99.18,1.76.12,2.17-.08Zm72.52,89.32c.11.03.7.12,1.48.13.91,0,2.1-2.2,3.37-6.4,1.27-4.19,2.79-11.42,4.74-21.33,1.33-6.76,3.46-15.31,6.38-25.47,1.5-5.03,2.24-7.55,3.74-12.58,1.72-5.99,2.3-9.45,1.74-10.3-.51-.78-1.18-1.42-2.2-1.71-1.92-.55-3.31-.35-4.27.45-1.78,1.56-4.84,9.82-9.04,24.72-5.48,19.44-8.46,35.48-8.98,47.99-.17,1.82.3,3.03,1.41,3.64.65.34.97.51,1.62.86Z" style="fill:#fff; stroke-width:0px;"/></svg>