<?xml version="1.0" encoding="UTF-8"?><svg id="a" xmlns="http://www.w3.org/2000/svg" xmlns:xlink="http://www.w3.org/1999/xlink" viewBox="0 0 1536 1024"><defs><filter id="b" filterUnits="userSpaceOnUse"><feOffset dx="6.47" dy="6.47"/><feGaussianBlur result="c" stdDeviation="0"/><feFlood flood-color="#000" flood-opacity="1"/><feComposite in2="c" operator="in"/><feComposite in="SourceGraphic"/></filter></defs><g style="filter:url(#b);"><path d="m148.98,806.38l12.16-1.92c-1.59,9.62-2.5,19.79-2.74,30.52.16,1.34.23,3.44.23,6.31l-9.19,2.27-.58-10.97-2.85-.96c-4.42-1.73-8.2-2.93-11.35-3.62-3.14-.69-6.88-1.03-11.2-1.03s-8.76.81-13.19,2.43-8.47,3.94-12.12,6.95c-3.65,3.02-6.58,6.69-8.8,11.03s-3.36,9.09-3.42,14.27c0,3.59,1.18,6.61,3.53,9.06s5.54,4.29,9.56,5.51,8.51,1.88,13.5,1.98c4.38-.1,8.77-.59,13.15-1.47,4.38-.88,8.54-2.15,12.47-3.81,3.93-1.66,7.26-3.63,9.99-5.92l2.04-1.54-31.33-1.19.58-9.28,43.87-2.62-4.42,32.87-7.51,4.66c-2.37,1.55-5.57,3.22-9.6,5.02-4.03,1.79-8.49,3.33-13.35,4.61s-9.57,1.92-14.11,1.92c-6.56-.14-12.26-1.24-17.12-3.32s-8.88-5.04-12.07-8.9c-3.19-3.86-5.56-8.49-7.1-13.89-1.54-5.4-2.31-11.51-2.31-18.34.19-6.71,1.51-13.15,3.96-19.33,2.44-6.18,5.79-11.69,10.05-16.54,4.26-4.85,9.19-8.7,14.81-11.56,5.61-2.86,11.54-4.41,17.79-4.64,4.38,0,8.21.51,11.48,1.53,3.27,1.02,7.03,2.78,11.27,5.28l3.81,2.04.12-7.39Z" style="fill:#f2e863; stroke-width:0px;"/><path d="m264.68,806.85c-.95,5.51-1.43,12.38-1.43,20.63l-10.74-.49-3.46,35.64c-.7,8.15-1.96,14.88-3.8,20.21-1.83,5.32-5.29,9.66-10.37,13.02-5.08,3.35-12.39,5.03-21.93,5.03-8.94,0-15.69-1.49-20.25-4.48s-7.52-6.84-8.89-11.55c-1.37-4.71-2.1-10.66-2.2-17.83.16-3.08.23-7.49.23-13.21l-.47-27.41-11.93.35,1.92-18.59,38.84-1.19c-1.26,8.96-1.98,15.63-2.15,20.02h-11.32l-3.08,28.99c-.17,2.08-.42,4.62-.73,7.63.1,3.86.79,6.8,2.07,8.82,1.28,2.02,3.4,3.43,6.36,4.24,2.96.8,7.22,1.26,12.79,1.35,7,0,12.31-1.45,15.93-4.34s5.98-6.65,7.08-11.28c1.11-4.63,1.66-10.27,1.66-16.93v-19.3l-16.9-.73,3.43-17.75,39.33-.84Z" style="fill:#f2e863; stroke-width:0px;"/><path d="m337.61,840.08l-.23-14.67h-34.68l-1.92,20.49,28.02-1.66-1.42,12.75-27.06-.81-1.78,18.6c9.17.72,17.99,1.19,26.45,1.43,1.75-.08,4.13-.15,7.16-.22,3.03-.07,5.76-.16,8.2-.28l2.15-16.8h10.01c-1.2,8.46-1.92,16.76-2.15,24.91.33,4.91.49,8.32.49,10.24-14.39.56-38.82,2.04-73.28,4.42l-.26-24.9,10.5.7-.23-49.34h-17.05c1.86-7.63,3.05-13.54,3.58-17.75,25.87,0,50.98-1.15,75.32-3.46-1.14,11.13-1.82,21.69-2.04,31.69.16,1.03.23,2.58.23,4.65h-10.01Z" style="fill:#f2e863; stroke-width:0px;"/><path d="m445.08,807.69c-2.83,12.11-4.69,23.91-5.59,35.4l-10.27.23.96-9.51c-5.61-2.35-10.26-4-13.95-4.97-3.69-.97-8.22-1.5-13.57-1.6-4.09,0-8.3.48-12.61,1.42-4.32.95-7.92,2.32-10.81,4.1-2.89,1.78-4.37,3.84-4.45,6.16,0,3.02,1.66,5.12,4.99,6.29,3.33,1.17,7.86,2.01,13.6,2.51l17.25,1.66c5.02.47,9.24.99,12.64,1.58,3.4.59,6.66,1.56,9.78,2.91,3.11,1.35,5.62,3.26,7.52,5.74,1.9,2.48,2.85,5.66,2.85,9.54-.12,4.94-1.39,9.37-3.81,13.26-2.42,3.9-5.66,7.16-9.7,9.79-4.04,2.63-8.57,4.6-13.59,5.93s-10.08,1.99-15.2,1.99c-14.9-.23-28.72-4.04-41.49-11.43l4.19-16.55c4.09,1.57,9.77,2.94,17.03,4.12,7.26,1.17,14.34,1.82,21.22,1.93,5.33-.1,10.11-.53,14.34-1.29,4.23-.77,7.62-1.97,10.17-3.61,2.55-1.64,3.91-3.74,4.09-6.3,0-1.92-1.12-3.13-3.36-3.64s-5.25-.76-9.03-.76h-20.28c-5.78,0-11.34-.69-16.67-2.08-5.33-1.39-9.73-3.74-13.18-7.07-3.45-3.33-5.18-7.7-5.18-13.13.35-5.24,1.5-10.02,3.46-14.34,1.96-4.32,4.61-8.04,7.96-11.16,3.35-3.11,7.24-5.5,11.69-7.16s9.29-2.49,14.53-2.49c4.36.23,8.2.78,11.52,1.63,3.32.85,6.37,1.92,9.16,3.2,2.79,1.28,6.58,3.17,11.38,5.65l1.69-7.75,10.71-.23Z" style="fill:#f2e863; stroke-width:0px;"/><path d="m537.68,807.69c-2.83,12.11-4.69,23.91-5.59,35.4l-10.27.23.96-9.51c-5.61-2.35-10.26-4-13.95-4.97-3.69-.97-8.22-1.5-13.57-1.6-4.09,0-8.3.48-12.61,1.42-4.32.95-7.92,2.32-10.81,4.1-2.89,1.78-4.37,3.84-4.45,6.16,0,3.02,1.66,5.12,4.99,6.29,3.33,1.17,7.86,2.01,13.6,2.51l17.25,1.66c5.02.47,9.24.99,12.64,1.58,3.4.59,6.66,1.56,9.78,2.91,3.11,1.35,5.62,3.26,7.52,5.74,1.9,2.48,2.85,5.66,2.85,9.54-.12,4.94-1.39,9.37-3.81,13.26-2.42,3.9-5.66,7.16-9.7,9.79-4.04,2.63-8.57,4.6-13.59,5.93s-10.08,1.99-15.2,1.99c-14.9-.23-28.72-4.04-41.49-11.43l4.19-16.55c4.09,1.57,9.77,2.94,17.03,4.12,7.26,1.17,14.34,1.82,21.22,1.93,5.33-.1,10.11-.53,14.34-1.29,4.23-.77,7.62-1.97,10.17-3.61,2.55-1.64,3.91-3.74,4.09-6.3,0-1.92-1.12-3.13-3.36-3.64s-5.25-.76-9.03-.76h-20.28c-5.78,0-11.34-.69-16.67-2.08-5.33-1.39-9.73-3.74-13.18-7.07-3.45-3.33-5.18-7.7-5.18-13.13.35-5.24,1.5-10.02,3.46-14.34,1.96-4.32,4.61-8.04,7.96-11.16,3.35-3.11,7.24-5.5,11.69-7.16s9.29-2.49,14.53-2.49c4.36.23,8.2.78,11.52,1.63,3.32.85,6.37,1.92,9.16,3.2,2.79,1.28,6.58,3.17,11.38,5.65l1.69-7.75,10.71-.23Z" style="fill:#f2e863; stroke-width:0px;"/><path d="m671.84,881.32l21.21-54.93-13.47-.23,3.46-18.01,39.81-2.04c-1.26,6.13-1.89,13-1.89,20.63l-10.01-.58-33.49,72.32-13.47.46-11.7-57.31-22.99,57.54-11.93,1.19-20.25-72.91-9.28-.26,2.12-18.59,39.34-1.42c-1.59,7.56-2.71,14.32-3.35,20.28l-13.47-.26,11.7,53.88,23.25-71.28,15.6-1.66,8.82,73.17Z" style="fill:#f2e863; stroke-width:0px;"/><path d="m816.29,827.47l-3.81,50.04,13.59.46c-.25,2.09-.53,4.27-.83,6.52s-.56,4.25-.77,6.01c-.21,1.76-.4,3.66-.55,5.72-11.35,0-23.46.76-36.34,2.27.47-3.68.7-7.34.7-10.97s-.23-7.38-.7-11.2l13.59,1.19.47-18.59-44.92-.96-1.69,20.01,12.77.73c-1.34,7.54-2.09,13.58-2.27,18.1-10.84.52-21.01,1.24-30.52,2.15l-.23-22.17,9.77.73v-50.3h-16.09l2.39-17.86,41.83-1.92c-.29,2.25-.64,4.91-1.03,7.99-.4,3.07-.71,5.59-.93,7.55-.22,1.96-.4,3.62-.54,4.97l-11.2-.73-2.04,22.17,44.22-2.97.23-19.2-14.31-.46v-17.4l40.99-2.5c-.17,1.67-.32,3.25-.42,4.76-.11,1.5-.22,3.27-.35,5.31-.13,2.04-.23,3.8-.31,5.29-.08,1.49-.19,3.4-.35,5.73l-10.36-.47Z" style="fill:#f2e863; stroke-width:0px;"/><path d="m921.72,836.99c.56,2.77.84,6.27.84,10.5,0,.79-.02,1.96-.06,3.49-.04,1.53-.06,2.71-.06,3.52-.6,7.25-2.06,13.74-4.38,19.46-2.32,5.72-5.43,10.57-9.34,14.53-3.91,3.97-8.56,6.98-13.96,9.05-5.4,2.07-11.47,3.1-18.2,3.1-8.8-.23-16.38-2.17-22.72-5.8s-11.13-8.6-14.37-14.88c-3.24-6.28-4.86-13.37-4.86-21.27.06-8.11.9-15.4,2.53-21.89,1.63-6.49,4.15-12.08,7.56-16.77,3.41-4.69,7.76-8.35,13.03-10.97s11.55-4.07,18.82-4.36h2.62c7.1,0,13.65,1.25,19.67,3.74,6.01,2.49,11.03,6.18,15.05,11.07,4.02,4.89,6.63,10.72,7.81,17.49Zm-76.37,5.6c-.12.39-.36,2.02-.73,4.89.27,2.47.59,4.65.96,6.55,1.07,5.2,3.23,9.61,6.5,13.22,3.27,3.61,7.34,6.31,12.2,8.08,4.87,1.78,10.19,2.67,15.97,2.67,7.02-.43,12.54-1.16,16.57-2.2,4.02-1.04,7.41-3.45,10.17-7.24s4.17-9.54,4.25-17.27c0-6.08-1.34-10.77-4.03-14.08-2.69-3.31-6.19-5.53-10.5-6.66-4.32-1.13-9.48-1.69-15.49-1.69h-1.92c-9.25.14-16.86,1.2-22.82,3.19-5.96,1.99-9.67,5.5-11.13,10.53Z" style="fill:#f2e863; stroke-width:0px;"/><path d="m1056.12,881.32l21.21-54.93-13.47-.23,3.46-18.01,39.81-2.04c-1.26,6.13-1.89,13-1.89,20.63l-10.01-.58-33.49,72.32-13.47.46-11.7-57.31-22.99,57.54-11.93,1.19-20.25-72.91-9.28-.26,2.12-18.59,39.34-1.42c-1.59,7.56-2.71,14.32-3.35,20.28l-13.47-.26,11.7,53.88,23.25-71.28,15.6-1.66,8.82,73.17Z" style="fill:#f2e863; stroke-width:0px;"/><path d="m1200.57,827.47l-3.81,50.04,13.59.46c-.25,2.09-.53,4.27-.83,6.52s-.56,4.25-.77,6.01c-.21,1.76-.4,3.66-.55,5.72-11.35,0-23.46.76-36.34,2.27.47-3.68.7-7.34.7-10.97s-.23-7.38-.7-11.2l13.59,1.19.47-18.59-44.92-.96-1.69,20.01,12.77.73c-1.34,7.54-2.09,13.58-2.27,18.1-10.84.52-21.01,1.24-30.52,2.15l-.23-22.17,9.77.73v-50.3h-16.09l2.39-17.86,41.83-1.92c-.29,2.25-.64,4.91-1.03,7.99-.4,3.07-.71,5.59-.93,7.55-.22,1.96-.4,3.62-.54,4.97l-11.2-.73-2.04,22.17,44.22-2.97.23-19.2-14.31-.46v-17.4l40.99-2.5c-.17,1.67-.32,3.25-.42,4.76-.11,1.5-.22,3.27-.35,5.31-.13,2.04-.23,3.8-.31,5.29-.08,1.49-.19,3.4-.35,5.73l-10.36-.47Z" style="fill:#f2e863; stroke-width:0px;"/><path d="m1283.37,802.57c5.55,24.07,12.69,48.61,21.44,73.63l12.04.58-2.04,16.82-36.34,2.62-2.27-21.21,15.97.7-5.24-14.9-37.53,1.57-7.62,13.59,13.44.35-.93,17.75-35.41,2.73c.33-5.24.49-8.84.49-10.82,0-2.6-.17-6.33-.49-11.2l11.69.7c2.09-4.27,4-8.18,5.73-11.72s3.99-8.17,6.78-13.88,5.24-10.69,7.35-14.95,3.86-7.83,5.28-10.68l-16.09.23,3.46-18.36c13.32,0,26.75-1.18,40.26-3.55Zm-.47,48.5l-12.04-28.02-15.85,27.29,27.9.73Z" style="fill:#f2e863; stroke-width:0px;"/><path d="m1397.17,806.85c-1.14,6.17-2.02,12.28-2.62,18.34-.6,6.06-.96,12.26-1.08,18.6h-8.58l-.73-16.09-22.14-.5c-2.6,17.5-4.47,34.34-5.61,50.53l14.31.47c-1.18,6.3-2.14,12.59-2.88,18.85l-34.68,2.12-.93-22.87,12.39.73v-49.83l-20.28-.58-2.97,17.4-8.47.47,1.43-34.68,82.83-2.97Z" style="fill:#f2e863; stroke-width:0px;"/><path d="m1421,824.25c.87.12,1.58.71,2.14,1.77s.83,2.35.83,3.84c0,2.39-.75,4.45-2.25,6.2-1.5,1.75-3.77,2.62-6.79,2.62-3.3,0-5.96-1.23-7.99-3.68-2.03-2.45-3.1-5.48-3.21-9.09.1-3.41,1.1-6.73,3.01-9.95,1.91-3.22,4.83-5.88,8.77-7.99s8.79-3.2,14.55-3.27c5.88,0,11.18.95,15.9,2.85,4.72,1.9,8.46,4.65,11.2,8.23,2.74,3.59,4.12,7.8,4.12,12.63,0,3.01-.72,5.71-2.15,8.1-1.44,2.4-3.56,4.84-6.37,7.35-2.81,2.5-5.33,4.72-7.56,6.65s-4.01,3.83-5.35,5.69c-2.83,4.29-5.01,8.69-6.55,13.21l-9.31-2.38,1.19-3.43c1.34-4.07,2.97-7.69,4.89-10.85,1.92-3.16,4.3-6.5,7.14-10.02,2.84-3.52,4.68-5.88,5.53-7.07.84-1.19,1.34-2.53,1.5-4,0-2.19-.89-3.95-2.66-5.27-1.77-1.32-3.98-2.24-6.62-2.76-2.64-.52-5.34-.79-8.12-.79-4.27,0-6.53.4-6.78,1.19.06,0,.18.04.38.12.19.08.39.12.58.12Zm8.32,51.96c2.13,0,4.12.52,5.95,1.57,1.83,1.05,3.29,2.47,4.36,4.28s1.62,3.78,1.62,5.93c0,3.26-1.16,6.06-3.49,8.41s-5.14,3.52-8.44,3.52-6.06-1.17-8.35-3.5c-2.29-2.34-3.43-5.14-3.43-8.42s1.14-6.06,3.43-8.35c2.29-2.29,5.07-3.43,8.35-3.43Z" style="fill:#f2e863; stroke-width:0px;"/></g></svg>