<?xml version="1.0" encoding="UTF-8"?><svg id="a" xmlns="http://www.w3.org/2000/svg" viewBox="0 0 1536 1024"><path d="m433.01,324.85c1.31.47,2.16.93,2.54,1.38.37.45,1.13,1.75,2.25,3.88,19.39,6.86,29.09,9.53,48.48,13.72,9.47,4.33,14.21,6.39,23.67,10.26,3.16.51,4.73.75,7.89,1.2,5.26.75,9.72,3.76,13.39,9.11,3.66,5.36,6.63,11.4,8.88,18.12,2.25,6.73,3.9,13.42,4.93,20.09,1.03,6.66,1.55,11.79,1.55,15.41,0,4.11-.23,8.66-.7,13.65-.47,4.99-1.41,9.86-2.82,14.59-1.41,4.73-3.52,8.95-6.34,12.61-2.82,3.66-6.58,5.97-11.27,6.8-.75-.13-1.79-.01-3.1.33-1.31.34-2.64.79-3.95,1.34-1.31.55-2.54,1-3.66,1.33-1.13.33-1.97.43-2.54.3-1.32-.3-3.15-.91-5.5-1.86-2.35-.95-4.7-2.28-7.04-3.99-2.35-1.72-4.37-3.6-6.06-5.63-1.69-2.02-2.54-4.31-2.54-6.85,0-3.23.75-5.19,2.25-5.89,1.5-.7,3.43-1.01,5.78-.95,2.34.06,4.88.03,7.61-.14,2.72-.16,5.26-1.24,7.61-3.23s4.27-5.53,5.78-10.61c1.5-5.08,2.26-12.42,2.26-22.05,0-1.45-.1-3.09-.28-4.92-.19-1.84-.84-3.69-1.97-5.57-1.5-2.9-3.66-5.67-6.48-8.35-2.82-2.67-5.78-5.04-8.88-7.11-3.1-2.07-5.97-3.76-8.59-5.07-2.63-1.31-4.32-2.07-5.07-2.25-1.92-.46-2.87-.7-4.79-1.18-.75-.19-1.6-.05-2.54.4-.94.46-1.79,1.05-2.54,1.78-.75.73-1.27,1.63-1.55,2.72-.28,1.09-.14,2.18.42,3.27v81.41c1.24,6.61,1.86,9.91,3.1,16.5-.56,2.95-1.22,5.61-1.69,7.8-.43,2.02-.71,4.16-.99,6.17-.28,2.02-.42,3.48-.42,4.37,0,6.28,1.41,10.87,4.23,13.7,2.82,2.83,5.87,4.92,9.16,6.2,3.28,1.28,6.35,2.56,9.16,3.87,2.81,1.31,4.23,3.73,4.23,7.35v3.73c0,.91-.28,2.01-.84,3.31-.57,1.3-1.22,2.58-1.97,3.81-.75,1.23-1.6,2.21-2.54,2.91-.94.71-1.79.93-2.53.68-1.92-.64-2.88-.98-4.79-1.68-1.5-.55-3.85-2.04-7.04-4.57-3.2-2.53-5.54-4.19-7.04-4.87-7.22-3.28-10.82-5.12-18.04-9.29-.75-.43-2.3-1.16-4.65-2.27-2.35-1.11-4.94-2.31-7.75-3.66-2.82-1.35-5.54-2.84-8.17-4.44-2.63-1.61-4.61-2.97-5.92-3.99-2.07-1.61-4.04-3.25-5.92-4.89-1.88-1.65-3.52-3.51-4.93-5.53-1.41-2.02-2.58-4.22-3.52-6.56-.94-2.34-1.41-5.02-1.41-8.05,0-1.41.04-3.03.14-4.87.09-1.83.47-3.33,1.13-4.5.66-1.17,1.64-1.83,2.96-2,1.31-.17,3.28.78,5.92,2.77,1.24,1.93,1.86,2.9,3.1,4.81,4.17,3.09,6.26,4.56,10.43,7.35,5.07,3.39,7.61,1.88,7.61-4.17,0-3.89,0-5.83,0-9.73,1.24-4.08,1.86-6.14,3.1-10.31-1.24-3.17-1.86-4.75-3.1-7.92.38-1.53.94-2.94,1.41-4.13.41-1.03.75-2.22,1.13-3.33.37-1.11.56-2.01.56-2.66,0-1.53-.52-3.89-1.55-7.04-1.03-3.16-1.55-5.6-1.55-7.36,0-.66.14-1.13.42-1.43.28-.29.66-.76,1.13-1.41.47-.64.84-1.56,1.13-2.75.28-1.18.42-3.1.42-5.75v-18.58c0-1.33-.52-3.06-1.55-5.16-1.03-2.11-1.55-4.82-1.55-8.13,0-3.71,0-5.57,0-9.29,0-2.21.47-4.57,1.41-7.1.56-1.34,1.46-3.01,1.69-4.38.47-2.74-1.22-6.71-3.66-10.04-2.44-3.33-5.64-5.7-9.58-7.24-1.24-.48-1.86-.73-3.1-1.22-.56-.23-1.69-.89-3.38-2.01-1.69-1.12-3.48-2.45-5.36-3.99-1.88-1.54-3.52-3.13-4.93-4.79-1.41-1.65-2.11-3.09-2.11-4.34,0-1.86.42-3.33,1.27-4.44.84-1.11,1.88-1.94,3.1-2.52,1.22-.57,2.44-.96,3.66-1.14,1.22-.18,2.21-.15,2.96.12Z" style="stroke-width:0px;"/><path d="m642.4,376.46c3.94-.4,6.76-.32,8.45,1.96,1.69,2.28,2.54,5.83,2.54,10.68,0,.92-.28,3.04-.85,6.33-.56,3.29-1.27,6.98-2.11,11.04-.84,4.06-1.74,8.19-2.68,12.38-.94,4.19-1.69,7.51-2.26,9.96,0,1.8-.09,3.69-.28,5.66-.19,1.97-.55,5.76-1.97,8.11-.89,1.48-2.25,3.9-2.25,6.89v6.46c-.34,7.06-.51,10.57-.85,17.52v12.57c0,.64.05,1.75.14,3.32.1,1.57.28,3.12.56,4.64.28,1.52.8,2.76,1.55,3.72.75.96,1.78,1.25,3.1.7,1.58-3.41,2.37-5.12,3.95-8.56,1.13-1.52,2.44-3.39,3.95-5.61,1.5-2.22,3.01-4.39,4.51-6.52,1.69-2.41,3.38-4.95,5.07-7.6,1.13-.5,2.07-.38,2.82.33.75.72,1.13,1.7,1.13,2.96-.45,1.21-.68,1.81-1.13,3.02-.75,2.02-1.51,3.61-2.25,4.78-1.32,4.77-3.01,9.11-5.07,13.03-2.07,3.92-4.32,7.81-6.77,11.65-2.44,3.84-4.93,7.72-7.47,11.63-2.54,3.92-4.93,7.58-7.19,11.9-2.48,4.5-3.72,6.76-6.2,11.25,0,1.84-.52,3.87-1.55,6.1-1.03,2.22-2.25,4.1-3.66,5.62-1.41,1.51-2.92,2.45-4.51,2.78-1.6.33-3.03-.59-3.8-2.56-1.25-3.18-1.69-7.02-1.69-10.68s.28-7.32.85-10.93c.56-3.61,1.13-7.08,1.69-10.4.56-3.32.84-6.48.84-9.49v-18.24c0-1.09-.66-1.74-1.97-1.97-.75-.09-1.41-.1-1.97-.01-.56.09-1.98,2.25-4.23,6.45-2.25,4.2-4.84,9-7.75,14.36-2.92,5.36-5.87,10.76-8.88,16.18-3.01,5.43-5.45,9.32-7.33,11.71-.56.94-1.46,2.29-2.68,4.06-1.22,1.77-2.54,3.48-3.95,5.14-1.41,1.66-2.96,3.16-4.65,4.49-1.69,1.33-3.2,2.03-4.51,2.11-2.63.15-4.79-.88-6.48-3.05-1.69-2.17-3.01-4.78-3.95-7.78-.94-3.01-1.64-6.05-2.11-9.08-.47-3.04-.7-5.25-.7-6.6-.34-9.76-.51-14.68-.84-24.6,1.58-16.04,2.37-24.16,3.94-40.6,0-.71.28-2.33.85-4.91.56-2.57,1.31-5.38,2.25-8.43.94-3.04,2.02-6.04,3.24-8.99,1.22-2.94,2.49-5.36,3.8-7.26,5.45-6.37,10.71-14.3,15.78-23.8,2.44-4.38,4.79-7.58,7.05-9.59,2.25-2,4.51-3.59,6.76-4.77,2.25-1.18,4.51-2.14,6.76-2.86,2.25-.72,4.79-2.14,7.61-4.25,1.13-.07,2.58-.95,4.37-2.64,1.78-1.69,3.43-3.31,4.93-4.87,3.16-.24,4.73-.37,7.89-.65,1.92-.17,2.87-.26,4.79-.44,2.14-1.49,3.21-2.24,5.36-3.73Zm-36.07,42.64c-3.39,3.46-6.58,8.06-9.58,12.82s-5.63,9.54-7.89,14.33c-2.25,4.79-4.04,9.24-5.36,13.37-1.32,4.13-1.97,7.34-1.97,9.66,0,1.16-.1,3.31-.28,6.43-.19,3.12-.09,6.35.28,9.65.38,3.3,1.08,6.25,2.11,8.8,1.03,2.55,2.86,3.74,5.5,3.53,2.44-.2,5.31-3.05,8.59-8.57,3.28-5.52,6.38-11.73,9.3-18.64,2.91-6.91,5.36-13.34,7.33-19.29,1.97-5.94,2.96-9.51,2.96-10.66,0-.92.09-3.17.28-6.78.19-3.61.05-7.08-.42-10.42-.47-3.34-1.51-5.72-3.1-7.11-1.59-1.4-4.5-.42-7.75,2.89Z" style="stroke-width:0px;"/><path d="m766.4,221.57c5.45-.31,8.88,1.17,10.29,4.34,1.41,3.17,2.11,6.8,2.11,10.96v5.16c0,2.54-.85,5.37-2.54,8.56-1.69,3.2-3.76,6.28-6.2,9.26-2.44,2.98-5.03,5.67-7.75,8.05-2.73,2.39-5.03,3.81-6.91,4.22-2.44.53-4.51.58-6.2.15-1.69-.43-3.29-.51-4.79-.19-3.95.82-8.03,2.98-12.26,6.61-4.23,3.63-6.39,9.57-8.03,15.11-.97,3.28-2.21,6.57-2.11,8.97.09,2.41-.24,4.99-.99,7.75-1.69,4.93-3.43,11.25-5.21,18.95-1.79,7.71-2.68,14.68-2.68,20.82,0,.64-.14,1.75-.42,3.33-.28,1.59-.63,3.31-.99,5.13-.39,2.03-.75,4.2-1.13,6.46v9.8c-1.58,10.86-2.37,16.28-3.94,27.12.37,2.76.33,6.15-.14,10.2-.47,4.05-1.18,8.78-2.12,14.17-.94,5.4-1.88,11.21-2.82,17.4-.94,6.2-1.6,12.55-1.97,19.03,0,1.22.24,3.08.71,5.56.47,2.48,1.36,3.38,2.68,2.69,1.69-.88,3.52-2.45,5.5-4.69,1.97-2.24,3.9-4.76,5.78-7.55,1.88-2.79,3.8-5.7,5.78-8.74,1.97-3.03,3.8-5.78,5.49-8.26,3.57-5.65,7.23-10.97,10.99-15.98,3.76-5,7.42-8.41,10.99-10.27.68.58,1.02.86,1.69,1.43,0,2.13-.57,4.88-1.69,8.28-1.13,3.4-2.53,7.01-4.23,10.84-1.69,3.82-3.57,7.58-5.64,11.24-2.07,3.67-4.04,6.71-5.92,9.11-3.76,4.81-6.81,9.83-9.16,15.05-2.35,5.23-5.49,11-9.44,17.3-1.32,3.67-3.34,7.2-6.06,10.56-2.73,3.37-5.4,6.78-8.03,9.54-2.59,2.7-6.25,6.07-10.28,10.06-4.04,3.99-7.47,6.69-10.29,8.11-2.07,1.05-3.53,1.42-4.37,1.16-.84-.27-1.36-1.06-1.55-2.35-.19-1.29-.14-3.1.14-5.43.28-2.32.42-5.08.42-8.29v-19.43c0-2.86.52-5.97,1.55-9.35,1.03-3.37,1.55-6.4,1.55-9.09v-6.23c0,1.67.19.8.56-2.61.37-3.4.84-8.42,1.41-15.11.56-6.68,1.03-14.58,1.41-23.75.38-9.17.56-18.77.56-28.85,0-1.32.52-3.44,1.55-6.37,1.03-2.92,1.55-5.15,1.55-6.7v-11.93c1.13-6.84,1.97-13.48,2.54-19.94.56-6.45,1.13-12.82,1.69-19.09.56-6.27,1.32-12.67,2.26-19.18.94-6.5,2.73-13.38,4.51-20.07,1.66-6.23,3.95-12.94,7.33-19.22,3.38-6.28,6.39-12.84,9.02-19.69,1.31-3.08,2.77-5.94,4.37-8.57,1.59-2.62,3.62-4.83,6.06-6.61,2.63-5.29,6.25-9.54,10.85-12.72,4.6-3.18,9.06-4.8,13.39-5.04,8.45-.47,12.68-.71,21.14-1.18Z" style="stroke-width:0px;"/><path d="m833.75,212.04c3.95-.11,7.23.58,9.86,1.99,2.63,1.41,4.79,3.05,6.48,4.96,1.69,1.91,2.91,3.87,3.66,5.94.75,2.07,1.13,3.76,1.13,5.1,0,1.07-1.13,2.67-3.38,4.88-2.25,2.22-4.7,4.52-7.33,6.94-3.2,2.93-6.67,6.15-10.43,9.72-1.32,1.3-2.72,2.19-4.23,2.64-1.51.45-3.01.83-4.51,1.13-2.07.42-3.9.9-5.5,1.47-1.6.56-3.15,1.64-4.65,3.25-3.95,2.77-7.04,5.95-9.3,9.5-2.26,3.55-4.14,7.34-5.64,11.34,0,.69-.24,1.95-.7,3.79-.47,1.85-1.04,3.82-1.69,5.92-.66,2.1-1.22,4.1-1.69,5.98-.47,1.89-.71,3.19-.71,3.89-1.24,5.02-1.86,7.55-3.1,12.66-.19.6-.71,2.73-1.55,6.42-.85,3.7-1.74,7.88-2.68,12.57-.94,4.69-1.79,9.29-2.54,13.77-.75,4.49-1.13,7.67-1.13,9.48,0,.73.09,1.42.28,2.06.37,1.29,1.13,1.67,2.25,1.15,2.25-1.03,4.98-3.64,8.17-7.74,3.19-4.1,6.76-8.21,10.71-12.33,1.13-1.52,2.72-3.58,4.79-6.15,2.06-2.57,4.23-5.1,6.48-7.61,2.25-2.5,4.46-4.69,6.62-6.61,2.16-1.91,3.99-3.13,5.5-3.7,1.92-.73,2.87-1.09,4.79-1.81,3.57-1.34,6.3-1,8.17.99,1.88,1.98,3.24,4.46,4.09,7.45.85,3,1.36,5.94,1.55,8.82.19,2.89.28,4.58.28,5.07-.34,3.43-.51,5.16-.84,8.63,0,.98.14,2.96.42,5.95.28,2.99.42,5.65.42,7.97,0,.5-.14,1.18-.42,2.06-.28.88-.61,1.82-.99,2.83-.38,1.01-.75,2.1-1.13,3.29v4.79c0,2.19-.24,3.79-.71,4.78-.47.99-.7,2.68-.7,5.06-.94,3.2-1.95,5.82-3.1,7.46-1.18,1.67-2.3,3.49-2.96,5.39-.66,1.9-2,3.81-2.68,5.29-1.05,2.32-1.97,6.71-3.66,11.14-1.69,4.44-3.85,8.71-6.48,12.84-1.32,1.98-2.54,4.4-3.66,7.27-1.13,2.88-2.3,5.8-3.52,8.75-1.22,2.96-2.73,5.77-4.51,8.44-1.79,2.67-3.9,4.72-6.34,6.14-1.24.72-1.86,1.08-3.1,1.81-4.06,2.38-6.09,3.57-10.15,5.98-.56.33-1.6.9-3.1,1.7-1.5.8-3.01,1.42-4.51,1.85-1.51.43-2.82.47-3.95.12-1.12-.35-1.69-1.55-1.69-3.6,0-1.3.52-3.19,1.55-5.66,1.03-2.46,2.16-4.93,3.38-7.41,1.22-2.47,2.49-4.86,3.8-7.19,1.31-2.32,2.25-4.01,2.82-5.07,2.82-3.82,5.44-7.59,7.89-11.33,2.44-3.73,4.32-6.49,5.64-8.3,3.76-4.78,6.06-8.65,6.9-11.69.84-3.03,1.92-6.23,3.24-9.57,2.63-6.15,4.7-11.08,6.2-14.88,1.5-3.79,2.25-7.49,2.25-11.09v-10.01c0-.68-.19-1.61-.56-2.8-.37-1.18-1.04-2.2-1.97-3.05-.94-.84-2.12-1.46-3.52-1.84-1.41-.38-3.05-.15-4.93.7-1.13.51-2.02,1.4-2.68,2.66-.66,1.26-2.3,3.19-4.93,5.83-6.76,7.92-12.12,15.8-16.06,23.51-3.95,7.71-7.51,15.68-10.71,23.87-1.13,4.49-2.07,9.14-2.82,13.92-.75,4.79-1.5,9.59-2.25,14.41-.75,4.82-1.5,9.51-2.25,14.06-.75,4.56-1.47,9.4-2.82,13.19-1.13,3.16-3.34,6.35-5.5,9.05-2.16,2.7-3.99,4.51-5.5,5.4-2.82,1.68-4.93,2.17-6.34,1.49-1.41-.69-2.49-1.86-3.24-3.52-.75-1.65-1.17-3.56-1.27-5.71-.1-2.14-.14-3.79-.14-4.94v-27.1c0-.77.56-3.68,1.69-8.73,1.13-5.04,2.4-10.68,3.8-16.89,1.41-6.22,2.68-12.19,3.8-17.92,1.13-5.74,1.35-10.35,1.69-12.6.24-1.58.99-3.43,1.27-4.9.28-1.47.64-2.88.99-4.18.39-1.47.66-2.97.85-4.39v-8.01c0-.76.05-1.4.14-1.92.09-.51.61-1.17,1.55-1.96,0-.38.09-.8.28-1.26.19-.46.28-.88.28-1.26v-5.7c0-.57.28-1.97.84-4.19.56-2.22,1.22-4.71,1.97-7.46.75-2.75,1.41-5.45,1.97-8.11.56-2.65.85-4.63.85-5.95v-17.16c0-5.44.7-10.53,2.11-15.22,1.41-4.68,2.49-8.38,3.24-11.15.34-3.19.51-4.77.85-7.94.18-1.33.89-3.47,2.11-6.37,1.22-2.9,2.59-5.85,4.09-8.82,1.5-2.97,3-5.72,4.51-8.26,1.5-2.53,2.65-4.19,3.38-4.72.99-.71,1.92-1.74,2.4-3.19.47-1.44.94-2.97,1.41-4.57.47-1.6,1.13-3.17,1.97-4.7.85-1.53,2.3-2.72,4.37-3.56.37-.03.94-.12,1.69-.27.74-.15,1.5-.41,2.25-.8.37-.36.94-.57,1.69-.63.75-.06,1.5-.12,2.26-.18,1.5-1.41,3.71-2.94,6.62-4.53,2.91-1.59,5.87-3.05,8.88-4.39,3.38-1.5,7.14-2.81,11.27-3.92Z" style="stroke-width:0px;"/><path d="m913.5,287.55c3.8-.14,7.28,0,10,.86,2.72.85,4.93,2.1,6.62,3.76,1.69,1.66,2.92,3.62,3.67,5.89.75,2.27.93,4.8.84,7.34-.13,3.59-1.88,6.86-5.64,9.49-3.76,2.64-7.81,5.01-11.55,7.26-3.53,2.12-7.38,4.51-11.41,6.61-4.04,2.1-7.8,4.4-11.27,6.89-3.48,2.49-6.39,5.98-8.74,9.46-2.35,3.48-3.62,7.3-3.8,11.44v10.32c-.38,2.97.28,5.48,1.97,7.52,1.69,2.04,4.85,1.36,6.48,1.41.12,0,.94-.54,2.26-1.55,1.31-1.01,2.77-2.17,4.37-3.47,1.59-1.29,3.19-2.62,4.79-3.95,1.59-1.33,2.77-2.32,3.52-2.96,2.82-1.72,5.03-3.07,6.62-4.08,1.59-1.01,2.91-1.26,3.52-1.24,1.06.03,2.44-.27,3.38-.12.94.15,1.51,1.36,1.41,3.29-.18,3.35-2.16,7.2-5.36,11.16-3.2,3.97-6.67,7.89-10.43,11.77-3.76,3.89-7.42,7.53-10.99,10.85-3.57,3.34-5.92,6.23-7.04,7.78-3.2,4.02-6.16,6.77-8.88,8.19-2.72,1.42-5.57,2.99-8.31,4.16-1.58.67-3.43.76-5.21.39-1.79-.37-3.38-1.04-4.79-2.01-1.41-.98-2.49-2.15-3.24-3.54-.75-1.38-1.04-2.73-.84-4.05v-4.45c0-1.22-.38-2.33-1.13-3.35-.38-.5-.75-.93-1.13-1.26.34-2.25.51-3.37.84-5.6v-4.12c0-.68.19-2.62.56-5.78.37-3.15.84-6.59,1.41-10.29.56-3.7,1.08-7.18,1.55-10.46.47-3.27.64-5.79.99-6.49.36-.72,1.13-1.48,1.13-1.97s-.1-.94-.28-1.34c-.19-.4-.28-.97-.28-1.71s.38-1.75,1.13-3.04c0-1.94.47-4.15,1.41-6.63.56-1.35,1.13-2.7,1.69-4.05,1.58-3.79,2.37-5.67,3.95-9.37.37-3.57,2.35-7.86,5.92-12.72,3.57-4.86,7.75-9.48,12.54-13.81,4.79-4.33,9.72-7.32,14.79-9.4,5.07-2.08,9.53-2.92,12.96-3.04Zm-12.68,16.83c-.94.11-1.88.76-2.82,1.96-.94,1.2-1.97,2.54-2.82,3.96-.97,1.63-1.88,3.56-2.82,5.49-.19.77-.47,1.7-.84,2.81-.38,1.11-.66,2.12-.85,3.01-.19.9-.09,1.55.28,1.94.37.39,1.21.29,2.25.21.86-.07,2.35-.38,4.23-1.12,1.88-.74,3.8-1.69,5.78-2.85,1.97-1.16,3.76-2.46,5.35-3.89,1.59-1.43,2.49-2.87,2.68-4.32v-3.65c0-.71-.28-1.32-.85-1.83-.56-.51-1.3-.82-1.97-1.07-.71-.26-1.69-.6-2.82-.76-1.92.04-2.87.06-4.79.12Z" style="stroke-width:0px;"/><path d="m998.89,259.84c1.69.14,3.33.31,4.93.52,1.59.21,3.1.54,4.51.99,1.41.45,2.54,1.08,3.38,1.86.84.79,1.27,1.82,1.27,3.08,0,.76-1.32,2.04-3.94,3.84-2.63,1.81-5.5,3.78-8.6,5.96-3.1,2.17-5.96,4.34-8.59,6.49-2.63,2.15-3.94,3.9-3.94,5.19,0,1.04.42,1.85,1.27,2.44.84.59,1.83,1.03,2.96,1.33,1.13.3,2.3.54,3.52.73,1.22.19,2.11.32,2.68.38,3.72.4,5.58.63,9.3,1.12.37-.21.94-.47,1.69-.76,1.5-.59,2.72-.81,3.66-.67,2.82.41,4.84,1.53,6.06,3.34,1.22,1.8,1.83,3.73,1.83,5.76v5.49c0,1.5-1.13,2.44-3.38,2.86-2.25.42-4.75.61-7.47.6-2.73-.01-5.36-.11-7.89-.3-2.53-.19-4.09-.29-4.65-.36-2.82-.32-4.42-.58-4.79-.81-.38-.24-1.13-.41-2.26-.52-2.25-.21-3.38-.3-5.64-.47-1.13-.08-2.73.21-4.79.89-2.07.68-3.1,1.58-3.1,2.67,0,1.49-.1,2.82-.28,3.97-.19,1.15-.39,2.15-.56,2.95-.2.94-.29,2.04-.56,2.66-.32.73-1.13,1.54-1.69,2.21-.94,1.36-1.41,2.53-1.41,3.5v2.31c0,2.39-.47,4.98-1.41,7.81-.94,2.83-1.79,4.55-2.54,5.12-.94.72-1.69,1.4-2.25,2.05-.56.65-.84,2.35-.84,5.13v4.39c0,.88.18,1.95.56,3.2.38,1.25,1.04,2.39,1.97,3.42.94,1.03,2.07,1.91,3.38,2.66,1.31.74,3,1.13,5.07,1.17,2.44.05,4.51-.38,6.2-1.33.75-.41,1.5-.88,2.25-1.42,1.5.09,2.68.5,3.52,1.23.84.72,1.71,1.49,2.4,2.28.75.87,1.41,2.04,1.97,3.27,0,1.18-.61,2.67-1.83,4.5-1.22,1.83-2.68,3.63-4.37,5.41-1.69,1.78-3.48,3.36-5.35,4.75-1.88,1.39-3.48,2.09-4.79,2.09-1.32,0-2.58.89-3.8,2.67-1.22,1.79-1.83,3.09-1.83,3.87-.56.02-1.6.2-3.1.58-1.5.38-3.04.75-4.51,1.18-1.86.55-3.88,1.32-5.64,1.63-2.22.39-4.37.32-5.78.25-1.41-.07-2.11-.74-2.11-2.02-.56-.25-1.41-1.3-2.54-3.14-1.13-1.84-2.26-3.88-3.38-6.11-1.13-2.22-2.11-4.42-2.96-6.59-.84-2.16-1.27-3.71-1.27-4.65,0-4.4,0-6.59,0-10.91,0-.61.23-2.06.7-4.31.47-2.25,1.04-4.73,1.69-7.41.66-2.67,1.22-5.32,1.69-7.93.47-2.61.71-4.7.71-6.3v-3.69c1.5-3.41,3.07-6.45,4.23-8.99.99-2.16,1.88-4.39,2.82-6.29.94-1.9,1.41-2.98,1.41-3.25v-6.37c0-1.77-1.02-2.72-2.25-3.22-1.04-.42-2.35-1.31-3.66-1.95-1.32-.64-1.97-1.5-1.97-2.58,0-.81.42-1.66,1.27-2.55.84-.89,1.88-1.81,3.1-2.76,1.22-.94,2.44-1.91,3.66-2.9,1.22-.99,2.2-1.94,2.96-2.85,1.31-1.95,2.58-3.13,3.8-3.57,1.22-.43,2.58-1.02,4.08-1.76,2.44-1.87,5.07-3.38,7.89-4.54,2.82-1.16,5.44-2.99,7.89-5.49,1.5-1.68,2.63-3.36,3.38-5.06.75-1.7,2.6-3.23,5.07-3.77,2.2-.49,4.6-1.13,6.48-2.41,1.88-1.28,3.38-1.87,4.51-1.78Z" style="stroke-width:0px;"/><path d="m1090.47,308.35c3.94,1.51,6.76,3.62,8.45,6.26,1.69,2.65,2.54,5.71,2.54,9.12,0,.65-.28,1.94-.85,3.87-.56,1.92-1.27,4.01-2.11,6.27-.85,2.25-1.74,4.51-2.68,6.77-.94,2.26-1.69,4.04-2.26,5.35,0,1.28-.09,2.56-.28,3.81-.19,1.26-.99,3.77-1.97,4.36-.76.45-2.25,1.33-2.25,3.47v4.65c-.34,4.87-.51,7.31-.85,12.19v9.35c0,.48.05,1.35.14,2.61.1,1.25.28,2.58.56,3.95.28,1.38.8,2.74,1.55,4.1.75,1.36,1.78,2.46,3.1,3.32,1.58-1.12,2.37-1.69,3.95-2.81,1.13-.07,2.44-.23,3.95-.45,1.5-.22,3.01-.39,4.51-.53,1.69-.15,3.38-.4,5.07-.72,1.13.81,2.07,1.92,2.82,3.33.75,1.41,1.13,2.65,1.13,3.68-.45.49-.68.73-1.13,1.22-.75.81-1.51,1.27-2.25,1.39-1.32,2.43-3.01,4.1-5.07,5.01-2.07.92-4.33,1.62-6.76,2.12-2.44.5-4.93,1.03-7.47,1.6-2.53.57-4.93,1.59-7.19,3.04-2.48,1.4-3.72,2.11-6.2,3.56,0,1.44-.52,2.6-1.55,3.49-1.03.88-2.26,1.34-3.66,1.39-1.41.04-2.92-.43-4.51-1.4-1.6-.97-2.99-2.62-3.8-4.79-1.22-3.24-1.69-6.48-1.69-9.2s.28-5.22.85-7.5c.56-2.28,1.13-4.44,1.69-6.48.56-2.04.84-4.14.84-6.31,0-3.33,0-5,0-8.31v-4.6c0-.76-.66-1.61-1.97-2.52-.75-.49-1.41-.87-1.97-1.11-.56-.25-1.98.45-4.23,2.13-2.25,1.68-4.84,3.63-7.75,5.86-2.91,2.23-5.87,4.54-8.88,6.93-3.01,2.39-5.45,4.08-7.33,4.98-.56.42-1.46,1.01-2.68,1.77-1.22.76-2.54,1.47-3.95,2.13-1.41.66-2.96,1.19-4.65,1.59-1.69.4-3.2.46-4.51.16-2.63-.6-4.79-1.79-6.48-3.62-1.69-1.83-3.01-3.83-3.95-6.02-.94-2.19-1.64-4.32-2.11-6.4-.47-2.08-.7-3.57-.7-4.46-.34-6.46-.51-9.65-.84-15.98,1.58-9.95,2.37-14.83,3.94-24.44,0-.42.28-1.36.85-2.81.56-1.45,1.31-2.99,2.25-4.64.94-1.65,2.02-3.23,3.24-4.74,1.22-1.51,2.49-2.69,3.8-3.54,5.45-2.68,10.71-6.09,15.78-10.31,2.44-1.93,4.79-3.16,7.05-3.72,2.25-.56,4.51-.85,6.76-.89,2.25-.04,4.51.09,6.76.38,2.26.29,4.79.29,7.61-.01,1.13.34,2.58.33,4.37-.06,1.78-.38,3.43-.77,4.93-1.17,3.16,1.03,4.74,1.57,7.89,2.69,1.92.68,2.87,1.03,4.79,1.74,2.14-.03,3.21-.05,5.36-.07Zm-36.07,12.12c-3.25.87-6.58,2.61-9.58,4.52-3,1.91-5.64,3.99-7.89,6.22-2.25,2.24-4.04,4.43-5.35,6.59-1.32,2.16-1.97,3.95-1.97,5.38,0,.72-.1,2.02-.28,3.91-.19,1.89-.09,3.94.28,6.13.38,2.19,1.08,4.27,2.11,6.23,1.03,1.96,2.86,3.32,5.5,4.13,2.44.75,5.31,0,8.59-2.26,3.28-2.25,6.38-4.96,9.3-8.16,2.91-3.2,5.35-6.26,7.33-9.21,1.97-2.95,2.96-4.8,2.96-5.55,0-.59.09-2.01.28-4.24.19-2.23.05-4.52-.42-6.83-.47-2.31-1.51-4.23-3.1-5.73-1.6-1.5-4.42-2.02-7.75-1.13Z" style="stroke-width:0px;"/><path d="m544.34,639.29c3.16.25,4.73.35,7.89.47.75.03,1.51.51,2.26,1.45.75.93,1.28,2.08,1.69,3.23.48,1.34,1.03,2.82,1.41,4.33v6.29c0,5.22-2.25,9.52-6.76,12.72-4.51,3.2-12.86,5.56-17.47,3.42-.33-.15-.84-.69-1.41-1.07-1.13-.74-2.16-1.19-3.1-1.34-1.32-.21-2.63-.29-3.95-.24-1.31.05-2.35.29-3.1.72-1.13.65-2.4,1.98-3.8,3.98-1.41,2-2.73,4.12-3.95,6.34-1.22,2.23-2.3,4.32-3.24,6.3-.94,1.98-1.51,3.3-1.69,3.96-.56,1.99-.84,2.98-1.41,4.96-1.13,2.13-2.3,3.96-3.52,5.48-1.22,1.53-2.26,3.17-3.1,4.92-.85,1.75-1.55,3.67-2.12,5.76-.56,2.09-.14,5.95-.84,7.71-.26.64-1.64,2.56-2.68,5.28-1.03,2.73-1.97,5.61-2.82,8.65-.85,3.04-1.55,5.83-2.11,8.38-.56,2.55-.84,4.03-.84,4.43v3.88c0,.68-.14,1.74-.42,3.18-.28,1.44-.56,2.94-.85,4.51-.28,1.57-.56,3.04-.84,4.41-.28,1.37-.42,2.25-.42,2.66-.56,1.39-.89,2.68-.99,3.88-.1,1.19-.02,2.23.14,3.04.21,1.06.47,2.01.84,2.72,0,.4-.14,1.11-.42,2.14-.28,1.03-.42,2.14-.42,3.33s.19,2.24.56,3.14c.37.9,1.31,1.43,2.82,1.59,2.44.26,4.93-.08,7.47-.98,2.54-.9,4.84-1.98,6.91-3.23,2.07-1.25,3.9-2.36,5.49-3.33,1.59-.97,2.77-1.41,3.52-1.34,1.13.11,2.21.6,3.24,1.44,1.03.84,1.55,1.76,1.55,2.74-1.88,1.2-3.48,2.49-4.79,3.67-1.25,1.13-2.45,2.31-3.38,3.54-.94,1.23-1.41,2.53-1.41,3.89-.75,1.31-1.88,2.56-3.38,3.76-1.5,1.2-3.2,2.5-5.07,3.89-1.88,1.39-3.71,2.83-5.5,4.32-1.79,1.49-3.34,3.05-4.65,4.65,0,.38-.42.84-1.27,1.39-.84.55-1.83,1.07-2.96,1.55-1.13.48-2.3.94-3.52,1.37-1.22.43-2.11.7-2.68.83-4.32,2.14-7.99,3.8-10.99,4.88-3,1.08-4.51.89-4.51-.63-1.88.68-3.2.51-3.95-.55-.75-1.06-1.27-2.63-1.55-4.69-.28-2.06-.33-4.42-.14-7.05.19-2.62.33-5.09.42-7.37.1-2.28.05-4.22-.14-5.82-.19-1.6-.75-2.46-1.69-2.57-1.51-.17-3.43.36-5.78,1.65-2.35,1.29-4.84,2.93-7.47,4.95-1.69,1.06-3.66,2.63-5.92,4.78-2.25,2.16-4.56,4.33-6.9,6.53-2.35,2.19-4.6,4.18-6.76,5.94-2.16,1.75-3.8,2.67-4.93,2.65-1.88-.03-3.76-.52-5.64-1.5-1.88-.99-3.52-2.22-4.93-3.69-1.41-1.47-2.58-3.19-3.52-5.13-.94-1.95-1.41-3.94-1.41-5.94v-4.35c0-4.9,0-7.34,0-12.24,0-.54.18-1.83.56-3.84.38-2.01.89-4.24,1.41-6.62.59-2.71,1.22-5.74,1.97-8.94,0-.71.14-1.66.42-2.83.28-1.17.58-2.31.99-3.2.48-1.05,1.13-2.24,1.69-3.49v-2.11c.37-1.65.71-3.34,1.13-4.92.33-1.26.66-2.59.84-3.92.19-1.33.28-2.26.28-2.79,1.13-2.23,1.93-4.36,2.4-6.44.47-2.07,2.46-4.34,3.24-5.98,1.1-2.33,2.02-6.19,4.37-7.9,2.35-1.71,5.12-2.95,8.31-3.75,3.19-.8,6.43-1.44,9.72-1.93,3.28-.5,6.24-1.33,8.88-2.47,1.13.44,2.16.76,3.1.96,1.87.4,3.85-.36,4.79-.49,2.2-.31,6.06,1.35,8.03,1.72,1.97.38,3.57.42,4.79.17,1.22-.26,2.07-.82,2.54-1.69.47-.86.8-2.29.99-4.27.9-2.15,1.35-3.22,2.25-5.37,1.01-4.99,1.52-7.49,2.54-12.5.9-3.11,1.35-4.67,2.25-7.78,0-.44.19-1.4.56-2.88.37-1.48.84-3.01,1.41-4.57.56-1.56,1.13-3.02,1.69-4.36.56-1.35.94-2.13,1.13-2.36.37-.6.56-1.13.56-1.57v-2c0-.59.28-1.38.85-2.36.56-.98,1.22-2.08,1.97-3.29.75-1.21,1.6-2.36,2.54-3.44.94-1.08,1.78-2.09,2.53-3.03,1.88-1.29,3.95-2.84,6.2-4.67,2.25-1.83,4.6-3.51,7.05-5.07,2.44-1.56,4.98-2.88,7.61-3.98,2.63-1.1,5.36-1.6,8.17-1.51.9.17,1.35.26,2.25.42,2.82.5,4.55.46,5.21-.04.66-.5,1.55-.67,2.68-.52,4.4,1.32,6.59,1.92,10.99,2.99Zm-82.3,91.6c-3.76-1.13-7.42-1.33-10.99-.51-3.57.83-6.72,2.25-9.44,4.34-2.72,2.09-4.93,4.48-6.62,7.15-1.69,2.68-2.54,5.26-2.54,7.68,0,.65-.23,2.31-.7,5.01-.47,2.7-.56,5.51-.28,8.4.28,2.89,1.27,5.48,2.96,7.72,1.69,2.25,4.7,3.26,9.02,3.12,3.56-.12,7-1.41,10.29-3.77,3.28-2.35,6.1-5.24,8.45-8.66,2.35-3.42,4.13-7.08,5.36-11.03,1.22-3.94,1.64-7.8,1.55-11.36-.03-1.12-.34-2.25-.85-3.25-.39-.78-1.08-1.71-2.11-2.66-1.04-.95-2.4-1.68-4.09-2.18Z" style="stroke-width:0px;"/><path d="m575.9,726.13c3.8.18,7.28.52,10,1.48,2.72.96,4.93,2.28,6.62,3.97,1.69,1.69,2.92,3.64,3.66,5.85.75,2.21.93,4.64.84,7.01-.13,3.35-1.88,6.3-5.63,8.41-3.76,2.11-7.78,3.79-11.55,5.3-3.5,1.4-7.38,2.89-11.42,3.98-4.04,1.09-7.8,2.28-11.27,3.57-3.48,1.29-6.39,2.83-8.74,4.63-2.35,1.8-3.62,4.2-3.8,7.18,0,3.01,0,4.51,0,7.47-.38,1.98.28,3.97,1.97,5.95,1.69,1.98,4.66,2.5,6.48,3.07.15.05.94-.03,2.26-.44,1.31-.41,2.77-.91,4.37-1.5,1.59-.58,3.19-1.19,4.79-1.84,1.59-.64,2.77-1.13,3.52-1.46,2.82-.73,5.03-1.35,6.62-1.83,1.59-.48,2.86-.48,3.52-.37,1.11.18,2.44.15,3.38.39.94.24,1.51,1.22,1.41,2.58-.18,2.33-2.16,4.87-5.36,7.11-3.2,2.24-6.67,4.29-10.43,6.16-3.76,1.87-7.42,3.49-10.99,4.87-3.57,1.38-5.92,2.39-7.04,3.04-3.2,1.61-6.15,2.47-8.88,2.56-2.72.09-5.59.21-8.31.1-1.64-.07-3.43-.6-5.21-1.42-1.79-.82-3.38-1.8-4.79-2.93-1.41-1.13-2.49-2.3-3.24-3.5s-1.04-2.22-.85-3.04v-3.04c0-.83-.38-1.75-1.13-2.75-.38-.5-.75-.94-1.13-1.32.34-1.43.51-2.15.84-3.58v-2.92c0-.49.19-1.79.56-3.9.37-2.11.84-4.41,1.41-6.9.57-2.49,1.08-4.86,1.55-7.12.47-2.26.72-4.2.99-4.5.29-.33,1.13-.64,1.13-1.01s-.1-.77-.28-1.16c-.19-.4-.28-.88-.28-1.45s.38-1.19,1.13-1.86c0-1.52.47-3.05,1.41-4.6.56-.82,1.13-1.65,1.69-2.48,1.58-2.34,2.37-3.52,3.95-5.87.37-2.78,2.35-5.48,5.92-8.13,3.57-2.66,7.75-5.01,12.54-7.1,4.79-2.09,9.72-3.79,14.79-5.09,5.07-1.3,9.52-1.71,12.96-1.55Zm-12.68,14.35c-.94-.04-1.88.4-2.82,1.31-.94.91-1.98,1.93-2.82,3.01-.96,1.24-1.88,2.75-2.82,4.21-.19.62-.47,1.33-.84,2.12-.37.79-.66,1.53-.85,2.21-.19.68-.09,1.25.28,1.7.37.46,1.21.66,2.25.79.89.11,2.35.13,4.23-.15,1.88-.28,3.8-.76,5.78-1.43,1.97-.67,3.76-1.52,5.36-2.54,1.59-1.02,2.49-2.17,2.68-3.43v-3.24c0-.64-.28-1.22-.85-1.74-.56-.52-1.3-.89-1.97-1.2-.72-.33-1.69-.75-2.82-1.05-1.92-.22-2.87-.33-4.79-.57Z" style="stroke-width:0px;"/><path d="m756.82,649.9c2.82-1.36,4.93-1.78,6.34-1.25,1.41.54,2.49,1.57,3.24,3.08.75,1.52,1.17,3.25,1.27,5.17.1,1.93.14,3.55.14,4.87v5.35c-1.13,4.82-3.05,9.58-5.78,14.23-2.73,4.66-6.25,7.8-10.57,9.54-2.82,1.13-5.83,1.48-9.02,1.09-3.19-.39-6.76.25-10.71,1.86-4.14,1.69-8.18,4.66-12.12,8.81-3.95,4.15-7.52,8.52-10.71,13.09-3.2,4.57-5.78,8.85-7.75,12.89-1.97,4.04-2.96,6.93-2.96,8.78v15.17c0,1.82.37,4.83,1.13,9.02.75,4.2,1.97,8.39,3.66,12.66,1.69,4.27,3.9,7.97,6.62,11.16,2.72,3.19,6.15,4.62,10.29,4.12,2.25-1.02,3.38-1.55,5.64-2.61,4.32-.55,8.36-1.51,12.12-2.94,3.76-1.43,7.23-3.84,10.43-7.32,4.13-5.21,8.07-9.63,11.83-13.1,1.13-1.13,2.44-2.04,3.95-2.71,1.5-.67,2.82-1.12,3.94-1.35.38.3.85.77,1.41,1.41,1.13,1.29,1.69,2.51,1.69,3.65,0,4.17-1.51,9.25-4.51,14.99-3.01,5.74-6.62,11.11-10.85,16.05-4.23,4.94-8.55,8.99-12.96,12.23-4.42,3.24-8.03,4.77-10.85,4.83-.9.02-1.35.03-2.26.05-2.63.54-5.12,1.13-7.33,1.56-2,.39-4.05.68-5.92,1-1.88.32-3.2.48-3.95.49-1.51.01-3.62-.5-6.34-1.46-2.72-.97-5.59-2.08-8.59-3.31-3-1.23-5.73-2.49-8.17-3.79-2.44-1.3-3.94-2.43-4.51-3.46-.75-.35-1.74-1.58-2.96-3.67-1.22-2.09-2.44-4.42-3.66-7-1.22-2.57-2.26-5.12-3.1-7.66-.85-2.54-1.27-4.47-1.27-5.81v-6.29c-.56-.71-1.13-1.34-1.69-1.91-.94-1.17-1.5-2.33-1.41-3.18.17-1.56.9-3.42,1.41-5.05.4-1.28.75-2.74,1.13-4.23.38-1.49.56-2.67.56-3.51v-4.68c0-.43-.19-.91-.56-1.45-.37-.54-.74-1.23-1.13-1.72-.43-.54-1.04-1.2-1.41-1.95,1.24-3.01,1.86-4.54,3.1-7.63v-4.17c1.5-2.98,2.91-5.75,4.23-8.31,1.13-2.19,2.3-4.34,3.52-6.46,1.22-2.12,2.78-3.89,3.24-4.87,1.01-2.15,1.97-6.34,4.23-9.59,2.25-3.25,4.93-6.57,8.03-9.96,3.1-3.39,6.43-6.77,10-10.16,3.57-3.38,7.14-6.82,10.71-10.32,2.07-1.28,4.13-2.67,6.2-4.12,1.48-1.04,3.05-2.1,4.65-3.2,1.59-1.09,2.68-1.78,3.24-2.04,2.25-1.05,3.38-1.59,5.63-2.65,4.28-2.02,6.43-3.03,10.71-5.07,3.49-2.85,5.24-4.29,8.73-7.19Z" style="stroke-width:0px;"/><path d="m836,644.19c2.63-1.05,5.87-2.23,9.72-3.52,3.84-1.28,7.09-1.76,9.72-1.42,2.82-1.06,4.65-.41,5.5,1.97.85,2.38,1.93,5.02,3.24,7.96.75.65,1.65,1.59,2.68,2.83,1.03,1.24,1.97,2.59,2.82,4.04.84,1.45,1.55,3.01,2.11,4.69.56,1.68.84,3.22.84,4.61-.9,12.71-1.35,19.12-2.25,32.04,0,6.66-1.13,14.37-3.38,23.01-2.25,8.65-5.54,16.65-9.86,23.85-1.51,2.18-2.59,4.44-3.24,6.8-.66,2.37-1.31,4.8-1.97,7.27-.66,2.48-1.41,5.02-2.26,7.63-.85,2.6-2,5.25-3.52,7.73-1.09,1.78-2.4,3.94-3.8,6.42-1.41,2.49-2.92,5.04-4.51,7.61-1.6,2.58-3.29,4.92-5.07,6.99-1.79,2.08-3.62,3.62-5.5,4.62-2.82,1.98-5.17,3.65-7.04,5.07-1.88,1.42-3.57,2.58-5.07,3.51-1.5.93-3.06,1.57-4.65,1.94-1.6.37-3.34.57-5.21.61-2.82.07-5.45-.62-7.89-2-2.44-1.38-4.56-3.21-6.34-5.46-1.79-2.25-3.24-4.78-4.37-7.6-1.12-2.81-1.69-5.69-1.69-8.68v-19.96c0-1.19-.38-2.22-1.13-3.07-.75-.85-1.05-3.61-1.13-8.06-.09-5.57,1.13-12.77,3.95-21.63,2.82-8.85,6.15-17.86,10-27.09,3.85-9.21,7.7-17.71,11.55-25.4,3.85-7.68,6.81-12.73,8.88-14.99,2.06-2.25,3.8-4.56,5.21-6.89,1.41-2.33,2.77-4.51,4.09-6.51,1.31-2,2.68-3.76,4.09-5.29,1.41-1.52,3.24-2.74,5.5-3.64Zm1.41,36.53c-3.01,1-6.06,3.5-9.16,7.43-3.1,3.93-5.97,8.18-8.59,12.72-2.64,4.55-4.98,8.96-7.04,13.24-2.07,4.28-3.48,7.34-4.23,9.21-1.13,5.07-1.69,7.6-2.82,12.63-.75,3.1-1.36,6.06-1.83,8.86-.47,2.81-.7,4.52-.7,5.15v5.94c.75.48,1.41,1.62,1.97,3.41.56,1.79,1.27,3.57,2.12,5.33.84,1.77,1.83,3.32,2.96,4.65,1.13,1.33,2.72,1.86,4.79,1.57,3.76-2.48,7.31-4.96,10.43-7.46,2.62-2.11,5.21-4.51,7.75-6.97,2.54-2.46,4.4-4.88,5.21-7.05,1.21-3.22,2.4-7.42,3.8-12.07,1.41-4.64,2.77-9.07,4.09-13.28-.38-1.75.04-3.67,1.27-5.81,1.22-2.13,1.83-4.01,1.83-5.62v-9.61c0-1.14-.23-3.08-.7-5.78-.47-2.7-1.22-5.43-2.26-8.15-1.03-2.72-2.3-4.95-3.8-6.68-1.5-1.73-3.2-2.28-5.07-1.66Z" style="stroke-width:0px;"/><path d="m919.7,618.54c2.01-.53,3.43-.38,4.09.76.66,1.14,2.36,2.31,4.65,3.64,2.03,1.18,3.85,2.91,5.36,4.77,1.5,1.86,2.44,4.35,2.25,6.81-.09,1.14-.38,2.57-.56,4.03-.39,3.17-.19,6.23.56,9.15,0,2.21-.33,4.86-.99,7.96-.66,3.1-.92,5.85-.42,7.61.26.92.94,1.96,1.69,2.94.56.73,1.18,1.41,1.83,2.01.65.61,1.27.67,1.83.16,1.88-.52,3.9-2.92,6.06-7.16,2.16-4.24,4.27-8.95,6.34-14.13,2.07-5.17,4.13-10.2,6.2-15.08,2.07-4.87,3.95-8.13,5.64-9.8,3.49-1.1,5.24-1.63,8.74-2.65,1.13-.44,2.4-.5,3.8-.18,1.41.31,2.49.5,3.24.55,3.57,2.9,5.82,6.8,6.76,11.64.94,4.84,1.72,8.75,1.97,11.39.32,3.31-.7,7.95-2.68,13.51-1.97,5.57-4.47,10.15-7.47,13.74-1.32.93-2.54,1.69-3.66,2.26-1.13.57-2.25,1.09-3.38,1.55-.94-.04-1.65-.13-2.11-.27-.47-.14-1.1-.54-1.83-1.01-.87-.55-1.83-.87-2.68-1.02-.84-.15-1.83-.24-2.96-.26-2.44-.06-4.75,1.17-6.91,3.65-2.16,2.49-4.27,5.12-6.34,7.88-3.2,5.29-5.68,11.31-7.47,18.06-1.79,6.75-1.42,15.16-2.68,19.02-.48,1.47-2.87,4.07-4.65,6.8-1.79,2.73-3.08,6.02-4.08,9.55-1.02,3.59-1.65,7.43-1.55,11.35s-.42,7.74-1.55,11.43c.19,3.16.19,6.79,0,10.9-.19,4.12-.52,8.44-.99,12.98-.47,4.55-1.08,8.91-1.83,13.09-.75,4.18-1.25,8.94-2.54,11.15-.72,1.24-2.92,2.58-4.79,3.67-1.88,1.09-3.97,1.84-5.92,2.45-2.19.69-4.82,1.5-7.33,1.64-.89.05-2.16-1.09-3.66-3.25-.75-1.08-1.41-2.16-1.97-3.24-1.58-4.53-2.37-6.79-3.95-11.28-.19-1.87,0-5.08.56-9.61.56-4.53,1.22-9.1,1.97-13.72.75-4.61,1.45-8.76,2.11-12.44.66-3.67.99-5.75.99-6.28,4.13-8.68,6.86-17.74,8.17-27.12,1.31-9.38,2.72-18.63,4.23-27.75-.9-9.92-1.35-14.83-2.25-24.54-.94-3.15-2.11-4.67-3.52-4.58-1.41.09-2.9.5-4.37,1.02-2.87,1.01-5.17,2.14-6.48,3.57-1.32,1.44-2.44,2.8-3.38,4.5-.94,1.7-1.97,3.37-3.1,4.99-1.13,1.63-3.24,3.32-5.92,4.23-1.36.46-2.44-.59-2.82-2.89-.38-2.29-.78-4.36-1.13-6.15-.4-2.02-.1-4.19.84-6.48.94-2.28,2.21-4.55,3.8-6.79,1.59-2.24,3.43-4.56,5.5-6.95,2.07-2.39,3.95-4.6,5.64-6.68,2.26-3.31,4.23-6.9,5.92-10.75,1.69-3.85,3.38-7.45,5.07-10.81,1.69-3.36,3.62-6.26,5.78-8.71,2.16-2.45,5.1-3.95,8.31-4.8Z" style="stroke-width:0px;"/><path d="m1035.8,627.85c3.65,1.08,7.28,2.64,10,5.12,2.72,2.48,4.93,5.49,6.62,9,1.69,3.51,2.92,7.36,3.67,11.54.75,4.18.94,8.55.85,12.87-.13,6.19-1.88,10.96-5.64,14.05-3.76,3.09-7.93,5.67-11.55,7.95-3.51,2.2-7.38,4.71-11.41,6.58-4.04,1.87-7.8,4.12-11.27,6.71-3.48,2.59-6.39,5.81-8.74,9.62-2.35,3.81-3.62,8.91-3.8,15.25v16.07c-.38,4.33.28,8.67,1.97,13,1.69,4.33,5.22,6,6.48,6.71.16.09.94-.08,2.26-1.02,1.31-.94,2.77-2.06,4.37-3.36,1.59-1.29,3.2-2.64,4.79-4.03,1.59-1.39,2.77-2.43,3.52-3.12,2.82-1.52,5.03-2.75,6.62-3.72,1.59-.96,2.88-.83,3.52-.58.9.35,2.44.5,3.38,1.09s1.52,2.6,1.41,5.69c-.18,5.2-2.16,10.47-5.35,15.35-3.2,4.89-6.67,9.48-10.43,13.76-3.76,4.28-7.42,8.08-10.99,11.34-3.57,3.27-5.92,5.71-7.04,7.26-3.2,3.86-6.16,5.95-8.88,6.19-2.72.24-5.73.56-8.31.33-1.57-.14-3.43-1.36-5.21-3.24-1.79-1.88-3.38-4.09-4.79-6.64-1.41-2.54-2.49-5.15-3.24-7.82-.75-2.67-1.04-4.93-.84-6.78v-6.75c0-1.85-.38-3.83-1.13-5.96-.38-1.06-.75-1.99-1.13-2.79.34-3.15.51-4.73.84-7.86v-6.28c0-1.04.19-3.85.56-8.4.38-4.54.84-9.45,1.41-14.72.56-5.27,1.08-10.26,1.55-14.98.47-4.72.53-8.44.99-9.34.31-.62,1.13-1.47,1.13-2.24s-.09-1.53-.28-2.3c-.19-.77-.28-1.73-.28-2.87s.38-2.45,1.13-3.93c0-3.04.47-6.17,1.41-9.39.56-1.72,1.13-3.45,1.69-5.18,1.58-4.87,2.37-7.29,3.95-12.1.37-5.45,2.35-10.96,5.92-16.42,3.57-5.46,7.75-10.22,12.54-14.21,4.79-3.98,9.72-6.9,14.79-8.73,5.07-1.82,9.54-1.73,12.96-.72Zm-12.68,24.51c-.94-.16-1.88.6-2.82,2.28-.94,1.68-1.99,3.59-2.82,5.61-1,2.43-1.88,5.24-2.82,8.07-.19,1.21-.47,2.59-.84,4.14-.38,1.56-.66,3.01-.85,4.34-.19,1.34-.09,2.47.28,3.37.38.91,1.29,1.33,2.25,1.58.85.22,2.35.3,4.23-.18,1.88-.48,3.8-1.31,5.78-2.48,1.97-1.17,3.76-2.65,5.35-4.45,1.59-1.79,2.49-3.87,2.68-6.26v-6.16c0-1.2-.28-2.34-.85-3.42-.56-1.07-1.33-1.91-1.97-2.54-.75-.74-1.69-1.64-2.82-2.33-1.92-.64-2.87-.95-4.79-1.56Z" style="stroke-width:0px;"/><path d="m1129.08,663.14c2.82,1.72,5.36,4.7,7.61,8.78,2.26,4.09,3.38,7.42,3.38,10.05,0,2.07-1.5,2.87-4.51,2.58-3.01-.29-6.39-.78-10.15-1.43-3.76-.65-7.47-1.2-11.13-1.65-3.66-.45-6.06-.11-7.19.89-1.69,1.18-2.91,2.87-3.66,5.02-.75,2.16-1.13,4.53-1.13,7.11s.38,5.17,1.13,7.79c.75,2.61,1.84,5.13,2.82,7.37,1.4,3.21,2.87,7.06,4.65,10.89,1.78,3.83,3.43,8.05,4.93,12.63,1.5,4.58,2.77,9.56,3.8,14.93,1.03,5.37,1.55,11.17,1.55,17.47,0,5.49-1.69,10.69-5.07,15.94-3.38,5.26-7.71,9.95-12.96,14.14-4.13,2.32-7.33,4.32-9.58,5.89-2.25,1.57-4.23,2.86-5.92,3.83-1.69.97-3.34,1.61-4.93,1.91-1.6.31-3.62.43-6.06.37-4.06-.1-6.09-.14-10.15-.23-.94-.02-2.17.07-3.67.28-1.5.21-3.04.6-4.51,1.01-1.8.5-3.85.91-5.92,1.38-.68,0-1.01-.01-1.69-.02-2.48-.03-3.72-.05-6.2-.08-5.26-.07-7.89-3.52-7.89-10.34,0-1.77.85-4.53,2.54-8.22,1.69-3.7,3.8-7.21,6.34-10.52,2.54-3.31,5.21-6.19,8.03-8.65,2.81-2.45,5.26-3.54,7.33-3.34.56.05,1.5.68,2.82,1.88,1.31,1.2,2.86,2.48,4.65,3.83,1.78,1.35,3.8,2.65,6.06,3.91,2.26,1.26,4.79,2,7.61,2.26,1.88.17,3.62-.35,5.21-1.55,1.59-1.2,2.96-2.68,4.09-4.45,1.12-1.76,1.97-3.66,2.54-5.7.56-2.03.85-3.82.84-5.37,0-3.77-1.22-8.55-3.66-14.47-2.44-5.92-5.17-12.1-8.17-18.52-3-6.43-5.73-12.59-8.17-18.45-2.44-5.86-3.67-10.56-3.67-14.02v-3.81c.75-3.73,1.88-7.45,3.38-11.13,1.5-3.67,3.2-6.9,5.07-9.67,1.88-2.77,3.94-5.02,6.2-6.75,2.25-1.72,5.21-1.87,7.33-1.97,1.08-.05,2.68-1.19,4.09-2.54,1.41-1.34,2.69-2.84,3.8-3.79,1.23-1.05,2.86-2.02,4.09-3.01,1.22-.99,2.49-1.35,3.81-1.09,1.5-.69,3.85-.3,7.05,1.26,3.19,1.55,5.54,2.8,7.05,3.68,2.48,1.44,3.72,2.18,6.2,3.7Z" style="stroke-width:0px;"/><path d="m425.51,313.72c1.31.47,2.16.92,2.54,1.37.37.45,1.13,1.72,2.25,3.81,19.39,6.83,29.09,9.53,48.48,13.83,9.47,4.36,14.21,6.45,23.67,10.4,3.16.54,4.73.79,7.89,1.28,5.26.8,9.72,3.85,13.39,9.25,3.66,5.4,6.63,11.49,8.88,18.26,2.25,6.78,3.9,13.52,4.93,20.23,1.03,6.7,1.55,11.86,1.55,15.49,0,4.12-.23,8.69-.7,13.69-.47,5-1.41,9.87-2.82,14.58-1.41,4.71-3.52,8.9-6.34,12.49-2.82,3.6-6.58,5.81-11.27,6.51-.75-.15-1.79-.06-3.1.24-1.31.31-2.64.72-3.95,1.23-1.31.52-2.54.93-3.66,1.23-1.13.3-1.97.38-2.54.23-1.32-.34-3.15-1-5.5-2.01-2.35-1.01-4.7-2.41-7.04-4.19-2.35-1.78-4.37-3.71-6.06-5.78-1.69-2.06-2.54-4.37-2.54-6.9,0-3.22.75-5.14,2.25-5.81,1.5-.66,3.43-.92,5.78-.8,2.34.12,4.88.15,7.61.05,2.72-.1,5.26-1.11,7.61-3.05,2.35-1.93,4.27-5.43,5.78-10.48,1.5-5.05,2.26-12.38,2.26-22,0-1.45-.1-3.09-.28-4.93-.19-1.84-.84-3.7-1.97-5.6-1.51-2.92-3.66-5.73-6.48-8.44-2.82-2.71-5.78-5.11-8.88-7.22-3.1-2.1-5.97-3.82-8.59-5.16-2.63-1.34-4.32-2.11-5.07-2.3-1.92-.48-2.87-.73-4.79-1.24-.75-.2-1.6-.08-2.54.36-.94.44-1.79,1.02-2.53,1.73-.75.72-1.27,1.6-1.55,2.68-.28,1.08-.14,2.16.42,3.25,0,18.17,0,27.19,0,45.12,0,6.43,0,9.64,0,16.04v19.68c1.24,6.61,1.86,9.91,3.1,16.51-.56,2.92-1.22,5.55-1.69,7.71-.43,1.99-.71,4.12-.99,6.11-.28,2-.42,3.44-.42,4.33,0,6.25,1.41,10.87,4.23,13.8,2.82,2.93,5.87,5.13,9.16,6.54,3.28,1.41,6.35,2.8,9.16,4.21,2.82,1.42,4.23,3.9,4.23,7.51v3.73c0,.91-.28,2-.84,3.28-.57,1.28-1.23,2.53-1.97,3.73-.75,1.21-1.6,2.14-2.54,2.81-.94.67-1.79.86-2.54.58-1.92-.72-2.88-1.1-4.79-1.88-1.51-.61-3.85-2.2-7.05-4.86-3.2-2.66-5.54-4.42-7.04-5.16-7.22-3.57-10.82-5.57-18.04-10.03-.75-.46-2.3-1.26-4.65-2.46-2.35-1.21-4.94-2.52-7.75-3.99-2.82-1.47-5.54-3.07-8.17-4.79-2.63-1.72-4.61-3.16-5.92-4.23-2.07-1.69-4.05-3.41-5.92-5.13-1.88-1.72-3.52-3.64-4.93-5.7-1.41-2.07-2.58-4.28-3.52-6.63-.94-2.35-1.41-5-1.41-7.97,0-1.38.04-2.97.14-4.77.09-1.79.47-3.25,1.13-4.36.66-1.11,1.64-1.71,2.96-1.81,1.31-.1,3.28.92,5.92,3,1.24,1.96,1.86,2.93,3.1,4.88,4.17,3.23,6.26,4.77,10.43,7.7,5.07,3.57,7.61,2.17,7.61-3.81v-9.62c1.24-3.98,1.86-6,3.1-10.08-1.24-3.17-1.86-4.76-3.1-7.93.38-1.5.94-2.88,1.41-4.04.41-1.01.75-2.17,1.13-3.26.37-1.09.56-1.97.56-2.62,0-1.51-.52-3.86-1.55-7.01-1.03-3.15-1.55-5.58-1.55-7.31,0-.65.14-1.11.42-1.4.28-.28.66-.73,1.13-1.36.47-.62.85-1.52,1.13-2.68.28-1.16.42-3.05.42-5.67v-18.34c0-1.31-.52-3.02-1.55-5.12-1.04-2.1-1.55-4.78-1.55-8.05v-9.16c0-2.18.47-4.49,1.41-6.97.57-1.31,1.46-2.95,1.69-4.29.47-2.69-1.22-6.63-3.66-9.93-2.44-3.31-5.64-5.67-9.58-7.22-1.24-.49-1.86-.73-3.1-1.23-.56-.23-1.69-.89-3.38-2.01-1.69-1.12-3.48-2.44-5.36-3.96-1.88-1.52-3.52-3.1-4.93-4.73-1.41-1.62-2.11-3.04-2.11-4.25,0-1.82.42-3.25,1.27-4.32.85-1.07,1.88-1.88,3.1-2.44,1.22-.55,2.44-.92,3.66-1.1,1.22-.17,2.21-.14,2.96.13Z" style="fill:#fff; stroke-width:0px;"/><path d="m634.9,367.59c3.94-.32,6.76.86,8.45,3.56,1.69,2.7,2.54,6.14,2.54,11.07,0,.94-.28,3.09-.84,6.42-.56,3.34-1.27,7.02-2.11,10.96-.84,3.94-1.74,7.93-2.68,11.96-.94,4.04-1.69,7.24-2.26,9.6,0,1.84-.09,3.74-.28,5.69-.19,1.96-.55,5.59-1.97,7.95-.89,1.47-2.25,3.9-2.25,6.95v6.58c-.34,7.18-.51,10.75-.85,17.82v12.82c0,.65.05,1.79.14,3.39.1,1.61.28,3.19.56,4.75.28,1.56.8,2.85,1.55,3.86.75,1.01,1.78,1.37,3.1,1.07,1.58-3.17,2.37-4.75,3.95-7.93,1.13-1.32,2.44-3.02,3.95-5.23,1.5-2.21,3.01-4.37,4.51-6.49,1.69-2.4,3.38-4.93,5.07-7.57,1.13-.47,2.07-.33,2.82.42.75.75,1.13,1.75,1.13,3.03-.45,1.21-.68,1.82-1.13,3.03-.75,2.02-1.51,3.62-2.25,4.78-1.32,4.8-3.01,9.16-5.07,13.07-2.07,3.92-4.29,7.95-6.76,11.61-2.3,3.42-4.93,6.99-7.47,10.55-2.54,3.57-4.93,7.51-7.19,11.83-2.48,4.5-3.72,6.75-6.2,11.23,0,1.88-.52,3.93-1.55,6.16-1.03,2.23-2.25,4.09-3.66,5.58-1.41,1.48-2.92,2.37-4.51,2.63-1.6.26-3.03-.73-3.8-2.78-1.25-3.3-1.69-7.23-1.69-10.97s.28-7.44.85-11.1c.56-3.66,1.13-7.17,1.69-10.52.56-3.36.84-6.56.84-9.63v-18.55c0-1.11-.66-1.8-1.97-2.07-.75-.12-1.41-.15-1.97-.08-.56.07-1.98,2.22-4.23,6.41-2.25,4.19-4.84,8.97-7.75,14.31-2.91,5.34-5.88,10.71-8.88,16.09-3.01,5.39-5.45,9.24-7.33,11.59-.56.93-1.46,2.27-2.68,4.01-1.22,1.74-2.54,3.43-3.95,5.05-1.41,1.62-2.96,3.08-4.65,4.36-1.69,1.27-3.2,1.92-4.51,1.94-2.63.04-4.79-1.09-6.48-3.35-1.69-2.27-3.01-4.95-3.95-8.03-.94-3.08-1.65-6.17-2.12-9.26-.47-3.08-.7-5.32-.7-6.69-.34-9.86-.51-14.83-.84-24.84,1.58-16.12,2.37-24.27,3.94-40.79,0-.71.28-2.34.85-4.92.56-2.57,1.31-5.38,2.25-8.43.94-3.04,2.02-6.03,3.24-8.98,1.22-2.93,2.49-5.34,3.8-7.22,5.45-6.29,10.71-14.17,15.78-23.64,2.44-4.37,4.79-7.55,7.05-9.53,2.25-1.97,4.51-3.54,6.76-4.69,2.25-1.15,4.51-2.07,6.76-2.75,2.25-.69,4.79-2.06,7.61-4.14,1.13-.05,2.58-.91,4.37-2.59,1.78-1.67,3.43-3.29,4.93-4.84,3.16-.18,4.74-.28,7.89-.5,1.92-.13,2.87-.2,4.79-.35,2.14-1.47,3.21-2.2,5.35-3.68Zm-36.07,42.43c-3.39,3.42-6.58,8-9.58,12.74-3.01,4.74-5.64,9.5-7.89,14.28-2.25,4.79-4.04,9.23-5.36,13.36-1.32,4.14-1.97,7.37-1.97,9.7,0,1.18-.1,3.34-.28,6.49-.19,3.15-.09,6.42.28,9.76.38,3.35,1.08,6.35,2.11,8.97,1.03,2.62,2.86,3.88,5.5,3.75,2.44-.12,5.31-2.91,8.59-8.39,3.28-5.49,6.38-11.69,9.3-18.61,2.91-6.91,5.35-13.37,7.33-19.35,1.97-5.97,2.96-9.57,2.96-10.74,0-.93.09-3.21.28-6.87.19-3.65.05-7.18-.42-10.58-.47-3.4-1.51-5.83-3.1-7.28-1.59-1.45-4.5-.53-7.75,2.75Z" style="fill:#fff; stroke-width:0px;"/><path d="m758.9,214.23c5.45-.16,8.88,1.46,10.29,4.76,1.41,3.3,2.11,7.05,2.11,11.32v5.29c0,2.6-.85,5.48-2.54,8.7-1.69,3.23-3.76,6.33-6.2,9.31-2.44,2.98-5.03,5.67-7.75,8.02-2.73,2.37-5.03,3.76-6.9,4.12-2.45.47-4.51.46-6.2-.03-1.69-.49-3.29-.62-4.79-.34-3.95.73-8.03,2.82-12.26,6.41-4.23,3.59-6.38,9.58-8.03,15.22-.97,3.31-2.21,6.65-2.11,9.11.09,2.47-.24,5.09-.99,7.89-1.69,4.99-3.43,11.39-5.22,19.2-1.79,7.81-2.68,14.9-2.68,21.16,0,.65-.14,1.78-.42,3.38-.28,1.61-.63,3.36-.99,5.2-.39,2.05-.75,4.26-1.13,6.55v9.98c-1.58,11.01-2.37,16.51-3.94,27.49.37,2.81.33,6.26-.14,10.36-.47,4.11-1.18,8.89-2.12,14.34-.94,5.46-1.88,11.33-2.82,17.59-.94,6.27-1.6,12.69-1.97,19.24,0,1.23.24,3.12.71,5.65.47,2.52,1.36,3.45,2.68,2.79,1.69-.85,3.52-2.4,5.5-4.62,1.97-2.22,3.9-4.72,5.78-7.51,1.88-2.78,3.8-5.69,5.78-8.71,1.97-3.02,3.8-5.77,5.49-8.24,3.57-5.64,7.23-10.95,10.99-15.95,3.76-4.99,7.42-8.36,10.99-10.17.68.6,1.02.89,1.69,1.49,0,2.15-.56,4.93-1.69,8.35-1.13,3.42-2.54,7.05-4.23,10.88-1.69,3.84-3.57,7.59-5.63,11.26-2.07,3.67-4.04,6.71-5.92,9.09-3.76,4.79-6.81,9.8-9.16,15.03-2.35,5.24-5.49,11-9.44,17.29-1.32,3.68-3.34,7.2-6.06,10.54-2.73,3.34-5.4,6.74-8.03,9.46-2.58,2.67-6.25,5.99-10.28,9.93-4.04,3.94-7.47,6.58-10.29,7.96-2.07,1.01-3.53,1.36-4.37,1.06-.84-.29-1.36-1.1-1.55-2.41-.19-1.31-.14-3.14.14-5.48.28-2.34.42-5.13.42-8.38v-19.66c0-2.89.52-6.04,1.55-9.43,1.03-3.38,1.55-6.44,1.55-9.17v-6.31c0,1.69.19.82.56-2.63.37-3.44.85-8.52,1.41-15.3.56-6.77,1.03-14.77,1.41-24.08.38-9.31.56-19.07.56-29.32,0-1.34.52-3.48,1.55-6.43,1.03-2.95,1.55-5.2,1.55-6.77v-12.16c1.13-6.94,1.97-13.69,2.54-20.26.56-6.56,1.13-13.05,1.69-19.43.56-6.39,1.31-12.89,2.26-19.52.94-6.62,2.73-13.6,4.51-20.38,1.66-6.33,3.95-13.12,7.33-19.45,3.38-6.33,6.39-12.96,9.02-19.9,1.31-3.12,2.77-6.01,4.37-8.66,1.59-2.64,3.62-4.85,6.06-6.6,2.63-5.35,6.25-9.61,10.85-12.74,4.6-3.13,9.06-4.67,13.39-4.79,8.45-.24,12.68-.36,21.14-.6Z" style="fill:#fff; stroke-width:0px;"/><path d="m826.25,206.37c3.95,0,7.23.8,9.86,2.32,2.63,1.52,4.79,3.26,6.48,5.26,1.69,2,2.91,4.05,3.66,6.18.75,2.13,1.13,3.88,1.13,5.25,0,1.1-1.13,2.7-3.38,4.91-2.25,2.21-4.7,4.51-7.33,6.91-3.2,2.92-6.67,6.13-10.43,9.68-1.32,1.3-2.73,2.17-4.23,2.59-1.51.43-3.01.77-4.51,1.04-2.07.37-3.9.83-5.5,1.36-1.6.54-3.15,1.59-4.65,3.2-3.95,2.73-7.04,5.9-9.3,9.46-2.26,3.57-4.14,7.39-5.64,11.43,0,.7-.24,1.98-.7,3.85-.47,1.88-1.04,3.87-1.69,6-.66,2.13-1.22,4.15-1.69,6.06-.47,1.91-.71,3.24-.71,3.95-1.24,5.08-1.86,7.65-3.1,12.82-.19.61-.71,2.76-1.55,6.5-.84,3.74-1.74,7.98-2.68,12.72-.94,4.74-1.79,9.4-2.54,13.94-.75,4.54-1.13,7.76-1.13,9.6,0,.74.09,1.44.28,2.09.37,1.31,1.13,1.71,2.25,1.21,2.25-1,4.98-3.6,8.17-7.69,3.19-4.09,6.76-8.2,10.71-12.3,1.13-1.52,2.72-3.58,4.79-6.15,2.06-2.56,4.23-5.1,6.48-7.59,2.25-2.49,4.46-4.68,6.62-6.58,2.16-1.9,3.99-3.1,5.5-3.66,1.92-.7,2.87-1.06,4.79-1.76,3.57-1.3,6.3-.91,8.17,1.11,1.88,2.03,3.24,4.54,4.09,7.58.85,3.03,1.36,6,1.55,8.91.19,2.91.28,4.62.28,5.1-.34,3.45-.51,5.19-.84,8.68,0,.98.14,2.97.42,5.98.28,3.01.42,5.68.42,8.01,0,.5-.14,1.19-.42,2.07-.28.88-.61,1.83-.99,2.84-.38,1.02-.75,2.11-1.13,3.3v4.81c0,2.2-.24,3.8-.71,4.79-.47.99-.7,2.68-.7,5.08-.94,3.2-1.95,5.83-3.1,7.48-1.18,1.68-2.3,3.5-2.96,5.41-.66,1.9-2,3.82-2.68,5.31-1.05,2.33-1.97,6.73-3.66,11.17-1.69,4.45-3.85,8.73-6.48,12.87-1.32,1.98-2.54,4.41-3.66,7.29-1.13,2.89-2.3,5.81-3.52,8.77-1.22,2.97-2.72,5.78-4.51,8.46-1.79,2.67-3.9,4.73-6.34,6.15-1.24.72-1.86,1.09-3.1,1.81-4.06,2.38-6.09,3.58-10.15,5.98-.56.33-1.6.9-3.1,1.69-1.5.8-3.01,1.41-4.51,1.84-1.5.43-2.82.46-3.95.1-1.12-.36-1.69-1.57-1.69-3.63,0-1.31.52-3.2,1.55-5.68,1.03-2.47,2.16-4.94,3.38-7.42,1.22-2.47,2.49-4.87,3.8-7.21,1.31-2.32,2.25-4.02,2.82-5.08,2.82-3.82,5.45-7.59,7.89-11.34,2.44-3.73,4.32-6.5,5.64-8.31,3.76-4.78,6.06-8.66,6.9-11.71.84-3.05,1.92-6.25,3.24-9.6,2.63-6.17,4.7-11.12,6.2-14.93,1.5-3.8,2.25-7.52,2.25-11.15v-10.09c0-.68-.19-1.63-.56-2.83-.37-1.2-1.04-2.23-1.97-3.1-.94-.86-2.11-1.5-3.52-1.9-1.41-.41-3.06-.2-4.93.64-1.13.5-2.02,1.39-2.68,2.65-.66,1.26-2.3,3.19-4.93,5.82-6.76,7.9-12.12,15.79-16.06,23.53-3.95,7.73-7.52,15.73-10.71,23.96-1.13,4.52-2.07,9.2-2.82,14.01-.75,4.82-1.5,9.66-2.25,14.5-.75,4.85-1.5,9.57-2.25,14.14-.75,4.58-1.47,9.45-2.82,13.25-1.13,3.17-3.34,6.36-5.5,9.05-2.16,2.69-3.99,4.49-5.5,5.37-2.82,1.66-4.93,2.13-6.34,1.42-1.41-.71-2.49-1.91-3.24-3.59-.75-1.68-1.17-3.61-1.27-5.77-.1-2.16-.14-3.83-.14-4.99,0-10.9,0-16.38,0-27.37,0-.78.57-3.71,1.69-8.8,1.13-5.08,2.4-10.76,3.8-17.03,1.41-6.27,2.68-12.29,3.8-18.08,1.13-5.79,1.34-10.46,1.69-12.75.24-1.6.99-3.46,1.27-4.95.28-1.48.64-2.91.99-4.23.39-1.49.65-3,.84-4.44v-8.13c0-.77.05-1.42.14-1.95.1-.52.61-1.17,1.55-1.96,0-.38.09-.81.28-1.28.19-.46.28-.89.28-1.28v-5.79c0-.58.28-2,.84-4.24.56-2.25,1.22-4.76,1.97-7.54.75-2.78,1.41-5.51,1.97-8.21.56-2.69.85-4.7.85-6.04v-17.5c0-5.55.7-10.73,2.11-15.48,1.41-4.74,2.49-8.49,3.24-11.31.34-3.25.51-4.87.85-8.1.18-1.35.89-3.52,2.11-6.46,1.22-2.93,2.58-5.91,4.09-8.92,1.5-3,3-5.78,4.51-8.33,1.5-2.55,2.65-4.23,3.38-4.75.99-.7,1.92-1.73,2.4-3.21.47-1.47.94-3.02,1.41-4.65.47-1.63,1.13-3.22,1.97-4.77.84-1.54,2.3-2.72,4.37-3.53.37-.02.94-.1,1.69-.23.74-.13,1.5-.38,2.25-.76.37-.36.94-.56,1.69-.6.75-.04,1.5-.08,2.26-.12,1.5-1.41,3.71-2.91,6.62-4.47,2.91-1.55,5.87-2.97,8.88-4.26,3.38-1.45,7.14-2.69,11.27-3.72Z" style="fill:#fff; stroke-width:0px;"/><path d="m906,282.74c3.81-.15,7.28-.03,10,.8,2.72.82,4.93,2.06,6.62,3.7,1.69,1.64,2.92,3.58,3.66,5.83.75,2.25.94,4.77.84,7.3-.13,3.57-1.88,6.86-5.63,9.52-3.76,2.67-7.81,5.07-11.56,7.35-3.53,2.15-7.38,4.56-11.41,6.68-4.04,2.12-7.8,4.7-11.27,7.89-3.48,3.19-6.39,6.54-8.74,10.03-2.35,3.49-3.62,7.31-3.8,11.43v10.28c-.38,2.97.28,5.45,1.97,7.45,1.69,2,4.83,1.27,6.48,1.3.12,0,.94-.49,2.26-1.71,1.31-1.22,2.77-2.62,4.37-4.19,1.59-1.56,3.2-3,4.79-4.35,1.59-1.35,2.77-2.34,3.52-2.99,2.82-1.75,5.03-3.11,6.62-4.14,1.59-1.03,2.91-1.28,3.52-1.27,1.06.02,2.44-.29,3.38-.15.94.14,1.51,1.35,1.41,3.28-.18,3.36-2.16,7.23-5.36,11.24-3.2,4.01-6.67,7.97-10.43,11.89-3.76,3.93-7.42,7.9-10.99,11.68-3.57,3.79-5.92,6.5-7.04,8.05-3.2,4.06-6.16,6.84-8.88,8.31-2.72,1.47-5.56,3.08-8.31,4.29-1.59.7-3.43.81-5.21.48-1.79-.34-3.38-.98-4.79-1.94-1.41-.95-2.49-2.11-3.24-3.48-.75-1.37-1.04-2.71-.84-4.03v-4.44c0-1.21-.38-2.32-1.13-3.33-.38-.5-.75-.92-1.13-1.25.34-2.25.51-3.37.84-5.6v-4.11c0-.68.19-2.62.56-5.78.38-3.15.84-6.59,1.41-10.3.56-3.71,1.08-7.19,1.55-10.47.47-3.28.64-5.8.99-6.5.36-.73,1.13-1.49,1.13-1.98s-.1-.94-.28-1.34-.28-.97-.28-1.71.38-1.75,1.13-3.05c0-1.95.47-4.16,1.41-6.65.56-1.36,1.13-2.71,1.69-4.06,1.58-3.8,2.37-5.68,3.95-9.39.37-3.58,2.35-7.88,5.92-12.75,3.57-4.87,7.75-9.48,12.54-13.82,4.79-4.33,9.72-8.81,14.79-10.9,5.07-2.08,9.53-2.94,12.96-3.08Zm-12.68,16.84c-.94.11-1.88.88-2.82,2.28-.94,1.39-1.96,2.93-2.82,4.54-.97,1.84-1.88,3.95-2.82,6.07-.19.81-.47,1.77-.84,2.88-.38,1.11-.66,2.12-.85,3.01-.19.9-.09,1.55.28,1.93.37.39,1.19.26,2.25-.04.85-.24,2.35-.87,4.23-1.99,1.88-1.13,3.8-2.13,5.78-3.3,1.97-1.17,3.76-2.47,5.35-3.91,1.6-1.44,2.49-2.87,2.68-4.33v-3.64c0-.71-.28-1.31-.85-1.82-.56-.5-1.3-.82-1.97-1.06-.71-.26-1.69-.59-2.82-.75-1.92.05-2.87.07-4.79.13Z" style="fill:#fff; stroke-width:0px;"/><path d="m991.38,254.39c1.69.11,3.33.25,4.93.43,1.59.18,3.1.48,4.51.9,1.41.42,2.54,1.01,3.38,1.77.85.76,1.27,1.76,1.27,3,0,.75-1.32,2.03-3.94,3.85-2.63,1.82-5.5,3.82-8.6,6.02-3.1,2.2-5.96,4.39-8.59,6.56-2.63,2.17-3.94,3.92-3.94,5.2,0,1.03.42,1.82,1.27,2.39.84.57,1.83.99,2.96,1.26,1.13.27,2.3.49,3.52.65,1.22.16,2.11.27,2.68.32,3.72.32,5.58.5,9.3.91.37-.22.94-.48,1.69-.79,1.5-.61,2.72-.86,3.66-.74,2.82.34,4.84,1.4,6.06,3.14,1.22,1.74,1.83,3.63,1.83,5.62v5.4c0,1.47-1.13,2.43-3.38,2.9-2.25.47-4.75.73-7.47.78-2.73.06-5.36.03-7.89-.1-2.53-.13-4.09-.19-4.65-.24-2.82-.25-4.42-.47-4.79-.7-.38-.23-1.13-.38-2.26-.46-2.25-.16-3.38-.22-5.64-.34-1.13-.06-2.73.26-4.79.98-2.07.72-3.1,1.63-3.1,2.71,0,1.48-.1,2.8-.28,3.94-.19,1.15-.39,2.14-.56,2.94-.2.93-.29,2.03-.56,2.65-.32.73-1.13,1.56-1.69,2.23-.94,1.37-1.41,2.54-1.41,3.51v2.3c0,2.37-.47,4.96-1.41,7.79-.94,2.83-1.79,4.57-2.54,5.15-.94.73-1.69,1.43-2.25,2.09-.56.66-.84,2.36-.84,5.13v4.38c0,.88.18,1.94.56,3.18.38,1.24,1.04,2.36,1.97,3.36.94,1,2.07,1.86,3.38,2.57,1.31.71,3,1.05,5.07,1.04,2.44-.01,4.51-.5,6.2-1.49.75-.42,1.5-.92,2.25-1.48,1.5.05,2.68.43,3.52,1.12.85.69,1.71,1.43,2.4,2.2.75.84,1.41,1.98,1.97,3.19,0,1.18-.61,2.68-1.83,4.54-1.22,1.86-2.68,3.7-4.37,5.52-1.69,1.83-3.48,3.45-5.35,4.89-1.88,1.44-3.48,2.19-4.79,2.22-1.32.03-2.58.96-3.8,2.77-1.22,1.82-1.83,3.13-1.83,3.91-.56.03-1.6.25-3.1.66-1.5.42-3.04.83-4.51,1.3-1.86.6-3.88,1.42-5.63,1.77-2.22.44-4.37.42-5.78.38-1.41-.04-2.11-.7-2.11-1.97-.56-.24-1.41-1.27-2.53-3.1-1.13-1.82-2.26-3.84-3.38-6.05-1.13-2.21-2.11-4.39-2.96-6.54-.84-2.15-1.27-3.7-1.27-4.63v-10.91c0-.61.23-2.06.7-4.32.47-2.26,1.03-4.74,1.69-7.43.66-2.68,1.22-5.33,1.69-7.95.47-2.61.71-4.7.71-6.3v-3.68c1.5-3.42,3.07-6.48,4.23-9.02.99-2.17,1.88-4.4,2.82-6.31.94-1.91,1.41-2.98,1.41-3.26v-6.34c0-1.76-1.02-2.69-2.25-3.17-1.04-.41-2.35-1.27-3.66-1.9-1.32-.62-1.97-1.47-1.97-2.55,0-.8.42-1.65,1.27-2.55.84-.89,1.88-1.82,3.1-2.77,1.22-.95,2.44-1.93,3.67-2.93,1.22-1,2.2-1.95,2.96-2.86,1.31-1.95,2.58-3.14,3.8-3.59,1.22-.44,2.58-1.05,4.08-1.8,2.44-1.89,5.07-3.41,7.89-4.6,2.82-1.18,5.44-3.04,7.89-5.54,1.5-1.68,2.63-3.35,3.38-5.04.75-1.68,2.6-3.22,5.07-3.79,2.21-.51,4.6-1.18,6.48-2.47,1.88-1.28,3.38-1.89,4.51-1.82Z" style="fill:#fff; stroke-width:0px;"/><path d="m1082.97,299.5c3.94,1.34,6.76,3.28,8.45,5.79,1.69,2.51,2.54,5.46,2.54,8.78,0,.63-.28,1.9-.84,3.8-.56,1.89-1.27,3.96-2.11,6.19-.84,2.23-1.74,4.47-2.68,6.7-.94,2.24-1.69,4.01-2.26,5.31,0,1.25-.09,2.5-.28,3.73-.19,1.24-.97,3.71-1.97,4.34-.78.49-2.25,1.39-2.25,3.48v4.54c-.34,4.78-.51,7.17-.85,11.96v9.15c0,.47.05,1.32.14,2.55.1,1.22.28,2.51.56,3.85.28,1.34.8,2.65,1.55,3.94.75,1.29,1.78,2.32,3.1,3.1,1.58-1.18,2.37-1.77,3.95-2.94,1.13-.13,2.44-.34,3.95-.64,1.5-.29,3.01-.53,4.51-.74,1.69-.23,3.38-.56,5.07-.96,1.13.73,2.07,1.77,2.82,3.11.75,1.34,1.13,2.52,1.13,3.54-.45.5-.68.75-1.13,1.24-.75.83-1.51,1.32-2.25,1.47-1.32,2.44-3.01,4.15-5.07,5.15-2.07,1-4.33,1.8-6.76,2.42-2.44.62-4.93,1.27-7.47,1.96-2.54.69-4.93,1.82-7.19,3.36-2.48,1.51-3.72,2.27-6.2,3.83,0,1.42-.52,2.59-1.55,3.51-1.03.92-2.26,1.44-3.66,1.56s-2.92-.27-4.51-1.14c-1.6-.88-2.99-2.43-3.8-4.52-1.21-3.13-1.69-6.3-1.69-8.99,0-2.68.28-5.16.85-7.44.56-2.27,1.13-4.43,1.69-6.46s.84-4.12.84-6.25v-12.7c0-.75-.66-1.55-1.97-2.39-.75-.45-1.41-.79-1.97-1.01-.56-.22-1.98.53-4.23,2.28-2.25,1.75-4.84,3.78-7.75,6.11-2.91,2.33-5.87,4.73-8.88,7.23-3.01,2.5-5.45,4.27-7.33,5.25-.56.44-1.46,1.06-2.68,1.87-1.22.81-2.54,1.57-3.95,2.28-1.41.71-2.96,1.31-4.65,1.77-1.69.47-3.2.59-4.51.35-2.63-.49-4.79-1.59-6.48-3.34-1.69-1.76-3.01-3.7-3.95-5.83-.94-2.14-1.65-4.23-2.11-6.29-.47-2.06-.7-3.52-.7-4.4-.34-6.4-.51-9.57-.85-15.84,1.58-9.93,2.37-14.79,3.94-24.34,0-.42.28-1.35.85-2.8.56-1.45,1.31-3,2.25-4.66.94-1.65,2.02-3.24,3.24-4.77,1.22-1.52,2.49-2.72,3.8-3.6,5.45-2.8,10.71-6.31,15.78-10.61,2.44-1.96,4.79-3.25,7.05-3.86,2.25-.61,4.51-.97,6.76-1.07,2.25-.1,4.51-.05,6.76.16,2.26.21,4.79.13,7.61-.25,1.13.3,2.58.24,4.37-.19,1.78-.43,3.43-.86,4.93-1.3,3.16.91,4.74,1.38,7.89,2.36,1.92.6,2.87.9,4.79,1.53,2.14-.11,3.21-.16,5.36-.25Zm-36.07,13.07c-3.26.96-6.58,2.78-9.58,4.75-3,1.97-5.64,4.1-7.89,6.38-2.25,2.27-4.04,4.5-5.35,6.67-1.32,2.17-1.97,3.97-1.97,5.38,0,.71-.1,1.99-.28,3.87-.19,1.87-.09,3.89.28,6.04.38,2.15,1.08,4.18,2.11,6.08,1.03,1.9,2.86,3.17,5.5,3.87,2.44.65,5.31-.22,8.59-2.57,3.28-2.35,6.38-5.14,9.3-8.4,2.91-3.26,5.35-6.36,7.33-9.33,1.97-2.97,2.96-4.82,2.96-5.55,0-.58.09-1.97.28-4.17.19-2.19.05-4.43-.42-6.67-.47-2.25-1.51-4.09-3.1-5.5-1.6-1.41-4.41-1.83-7.75-.84Z" style="fill:#fff; stroke-width:0px;"/><path d="m536.84,632.52c3.16.37,4.73.51,7.89.75.75.06,1.51.57,2.26,1.53.75.96,1.28,2.13,1.69,3.29.48,1.36,1.03,2.86,1.41,4.39v6.31c0,5.24-2.25,9.49-6.76,12.58-4.51,3.09-12.86,5.19-17.47,2.88-.33-.17-.84-.73-1.41-1.12-1.13-.79-2.16-1.28-3.1-1.46-1.32-.26-2.63-.39-3.95-.38-1.31,0-2.35.21-3.1.61-1.13.61-2.4,1.92-3.8,3.89-1.41,1.98-2.73,4.07-3.95,6.27-1.22,2.21-2.3,4.3-3.24,6.27-.94,1.98-1.51,3.29-1.69,3.96-.56,2-.84,2.99-1.41,4.98-1.13,2.12-2.3,3.94-3.52,5.44-1.22,1.51-2.26,3.14-3.1,4.89-.84,1.76-1.55,3.69-2.11,5.8-.56,2.11-.13,6.04-.84,7.83-.25.63-1.65,2.55-2.68,5.3-1.03,2.75-1.97,5.67-2.82,8.75-.85,3.08-1.55,5.92-2.11,8.51-.57,2.59-.85,4.09-.85,4.51,0,1.59,0,2.38,0,3.97,0,.7-.14,1.78-.42,3.24-.28,1.47-.57,3-.85,4.6-.28,1.6-.56,3.1-.84,4.49-.28,1.4-.42,2.3-.42,2.71-.56,1.41-.89,2.73-.99,3.95-.1,1.22-.02,2.28.14,3.12.21,1.1.47,2.07.85,2.81,0,.41-.14,1.14-.42,2.19-.28,1.05-.42,2.19-.42,3.42s.19,2.31.56,3.24c.37.93,1.31,1.5,2.82,1.69,2.44.32,4.93.02,7.47-.85,2.54-.87,4.83-1.93,6.91-3.17,2.07-1.24,3.9-2.34,5.49-3.3,1.59-.96,2.77-1.39,3.52-1.3,1.13.14,2.21.65,3.24,1.54,1.03.88,1.55,1.83,1.55,2.84-1.88,1.19-3.48,2.48-4.79,3.67-1.25,1.13-2.44,2.32-3.38,3.56-.94,1.24-1.41,2.57-1.41,3.96-.75,1.33-1.88,2.6-3.38,3.8-1.5,1.21-3.2,2.51-5.07,3.9-1.88,1.4-3.71,2.84-5.5,4.35-1.79,1.5-3.34,3.07-4.65,4.71,0,.39-.42.86-1.27,1.41-.84.55-1.83,1.06-2.96,1.54-1.13.47-2.3.92-3.52,1.34-1.22.42-2.11.68-2.68.8-4.32,2.12-7.99,3.75-10.99,4.8-3,1.05-4.51.81-4.51-.76-1.88.66-3.2.45-3.95-.66-.75-1.12-1.27-2.75-1.55-4.89-.28-2.14-.33-4.58-.14-7.29.19-2.71.33-5.25.42-7.6.1-2.35.05-4.36-.14-6.02-.19-1.65-.75-2.56-1.69-2.7-1.51-.22-3.43.28-5.78,1.54-2.35,1.27-4.84,2.89-7.47,4.9-1.69,1.04-3.66,2.61-5.92,4.77-2.25,2.16-4.56,4.35-6.9,6.55-2.35,2.2-4.6,4.19-6.76,5.94-2.16,1.75-3.8,2.64-4.93,2.59-1.88-.09-3.76-.66-5.64-1.75-1.88-1.09-3.52-2.42-4.93-4-1.41-1.58-2.58-3.39-3.52-5.45-.94-2.06-1.41-4.14-1.41-6.21,0-1.8,0-2.7,0-4.51v-12.68c0-.56.18-1.89.56-3.95.38-2.07.89-4.36,1.41-6.8.59-2.78,1.22-5.89,1.97-9.18,0-.73.14-1.71.42-2.91.28-1.2.58-2.36.99-3.27.48-1.06,1.13-2.28,1.69-3.54v-2.18c.37-1.69.71-3.43,1.13-5.04.33-1.28.66-2.65.84-4.02.19-1.37.28-2.33.28-2.87,1.13-2.25,1.93-4.43,2.4-6.55.47-2.12,2.46-4.41,3.24-6.05,1.13-2.38,2.02-6.3,4.37-7.97,2.35-1.67,5.12-2.84,8.32-3.53,3.19-.69,6.43-1.22,9.72-1.61,3.28-.39,6.24-1.13,8.88-2.19,1.13.49,2.16.86,3.1,1.1,1.88.48,3.87-.23,4.79-.33,2.2-.24,6.06,1.6,8.03,2.06s3.57.56,4.79.34c1.22-.22,2.07-.77,2.54-1.64.47-.87.8-2.31.99-4.33.9-2.16,1.35-3.24,2.25-5.4,1.01-5.06,1.52-7.59,2.54-12.65.9-3.14,1.35-4.7,2.25-7.84,0-.45.19-1.42.56-2.91.37-1.49.84-3.03,1.41-4.59s1.13-3.02,1.69-4.37c.56-1.34.94-2.13,1.13-2.35.37-.6.56-1.12.56-1.57v-2.03c0-.6.28-1.39.84-2.36.57-.97,1.22-2.06,1.97-3.26.75-1.2,1.59-2.32,2.54-3.38.94-1.06,1.78-2.04,2.54-2.96,1.88-1.23,3.95-2.7,6.2-4.45,2.25-1.75,4.6-3.35,7.05-4.82,2.44-1.47,4.98-2.69,7.61-3.69,2.63-.99,5.36-1.38,8.17-1.18.9.21,1.35.31,2.25.51,2.82.62,4.55.65,5.21.17.66-.48,1.55-.62,2.68-.42,4.4,1.5,6.59,2.18,10.99,3.42Zm-82.3,90c-3.76-1.28-7.42-1.62-10.99-.9-3.57.72-6.72,2.08-9.44,4.13-2.73,2.05-4.93,4.43-6.62,7.13-1.69,2.7-2.54,5.33-2.54,7.83,0,.67-.24,2.38-.7,5.14-.47,2.77-.56,5.67-.28,8.66.28,2.99,1.27,5.7,2.96,8.08,1.69,2.38,4.7,3.52,9.02,3.51,3.57-.01,7-1.24,10.29-3.57,3.28-2.33,6.1-5.21,8.45-8.67,2.35-3.45,4.13-7.16,5.36-11.18,1.22-4.01,1.64-7.96,1.55-11.62-.03-1.15-.34-2.32-.85-3.37-.4-.81-1.08-1.79-2.11-2.8-1.04-1.01-2.4-1.8-4.09-2.38Z" style="fill:#fff; stroke-width:0px;"/><path d="m568.4,720.67c3.79.24,7.28.64,10,1.65,2.72,1.01,4.93,2.37,6.62,4.08,1.69,1.72,2.92,3.7,3.67,5.93.75,2.23.93,4.69.84,7.07-.13,3.38-1.88,6.33-5.64,8.42-3.76,2.09-7.79,3.74-11.55,5.22-3.5,1.37-7.38,2.83-11.42,3.89-4.04,1.06-7.8,2.2-11.27,3.46-3.48,1.26-6.39,2.78-8.74,4.57-2.35,1.79-3.62,4.22-3.8,7.25v7.61c-.38,2.02.28,4.06,1.97,6.1,1.69,2.04,4.67,2.61,6.48,3.21.16.05.94-.02,2.26-.43,1.31-.41,2.77-.9,4.37-1.48,1.59-.57,3.19-1.18,4.79-1.82,1.59-.64,2.77-1.12,3.52-1.45,2.82-.72,5.03-1.32,6.62-1.8,1.59-.48,2.86-.46,3.52-.35,1.1.19,2.44.17,3.38.43.94.25,1.51,1.25,1.41,2.63-.18,2.36-2.16,4.93-5.36,7.18-3.2,2.26-6.67,4.32-10.43,6.2-3.76,1.88-7.42,3.5-10.99,4.88-3.57,1.38-5.92,2.4-7.04,3.05-3.2,1.62-6.16,2.47-8.88,2.54-2.73.06-5.6.16-8.31,0-1.64-.09-3.43-.65-5.21-1.52-1.79-.87-3.38-1.89-4.79-3.07-1.41-1.18-2.49-2.4-3.24-3.64-.75-1.24-1.04-2.29-.84-3.14v-3.11c0-.86-.38-1.8-1.13-2.84-.38-.52-.75-.98-1.13-1.38.34-1.46.51-2.19.84-3.66v-2.99c0-.5.19-1.83.56-3.99.38-2.16.84-4.5,1.41-7.04.56-2.53,1.08-4.95,1.55-7.25.47-2.3.72-4.27.99-4.58.29-.32,1.13-.63,1.13-1.01s-.1-.79-.28-1.19c-.19-.41-.28-.9-.28-1.48s.38-1.21,1.13-1.88c0-1.55.47-3.1,1.41-4.66.56-.83,1.13-1.66,1.69-2.49,1.58-2.35,2.37-3.53,3.95-5.89.37-2.82,2.35-5.51,5.92-8.13,3.57-2.62,7.75-4.91,12.54-6.92,4.79-2.02,9.72-3.63,14.79-4.84,5.07-1.21,9.51-1.55,12.96-1.33Zm-12.68,14.27c-.94-.06-1.88.37-2.82,1.28-.94.91-1.98,1.92-2.82,3-.96,1.24-1.88,2.75-2.82,4.21-.19.63-.47,1.34-.84,2.14-.38.8-.66,1.54-.85,2.22-.19.68-.09,1.26.28,1.73.37.47,1.21.69,2.25.83.89.12,2.35.17,4.23-.09,1.88-.26,3.8-.71,5.78-1.36,1.97-.65,3.76-1.48,5.36-2.5,1.59-1.01,2.49-2.15,2.68-3.43v-3.27c0-.64-.28-1.23-.85-1.77-.56-.54-1.3-.92-1.97-1.24-.73-.34-1.69-.78-2.82-1.1-1.92-.25-2.87-.38-4.79-.65Z" style="fill:#fff; stroke-width:0px;"/><path d="m749.32,646.26c2.82-1.39,4.93-1.84,6.34-1.34,1.41.5,2.49,1.5,3.24,2.98.75,1.48,1.18,3.18,1.27,5.08.1,1.9.14,3.5.14,4.8v5.28c-1.13,4.77-3.06,9.5-5.78,14.14-2.72,4.64-6.25,7.82-10.57,9.62-2.82,1.17-5.83,1.58-9.02,1.25-3.19-.32-6.76.37-10.71,2.03-4.14,1.73-8.18,4.74-12.12,8.9-3.95,4.16-7.52,8.53-10.71,13.09-3.2,4.56-5.78,8.83-7.75,12.84-1.97,4.02-2.96,6.89-2.96,8.72v14.95c0,1.79.38,4.75,1.13,8.85.75,4.11,1.97,8.2,3.66,12.34,1.69,4.15,3.9,7.72,6.62,10.77,2.72,3.05,6.15,4.36,10.29,3.77,2.25-1.06,3.38-1.6,5.64-2.69,4.32-.65,8.36-1.69,12.12-3.19,3.76-1.49,7.23-3.94,10.43-7.43,4.13-5.2,8.07-9.62,11.83-13.12,1.13-1.14,2.44-2.06,3.95-2.76,1.5-.7,2.82-1.18,3.94-1.43.38.29.85.73,1.41,1.34,1.13,1.23,1.69,2.41,1.69,3.52,0,4.08-1.51,9.07-4.51,14.76-3.01,5.68-6.62,11.02-10.85,15.95-4.23,4.93-8.55,8.99-12.96,12.27-4.42,3.28-8.03,4.86-10.85,5-.9.04-1.35.07-2.26.11-2.63.6-5.12,1.24-7.33,1.71-2,.43-4.04.77-5.92,1.13-1.88.37-3.2.56-3.95.58-1.51.05-3.62-.39-6.34-1.26-2.72-.87-5.59-1.88-8.59-3-3-1.12-5.73-2.28-8.17-3.49-2.44-1.21-3.94-2.28-4.51-3.27-.75-.32-1.74-1.51-2.96-3.52-1.22-2.01-2.44-4.27-3.66-6.77-1.22-2.49-2.26-4.97-3.1-7.45-.84-2.47-1.27-4.37-1.27-5.69v-6.19c-.56-.69-1.13-1.3-1.69-1.85-.94-1.13-1.5-2.27-1.41-3.11.17-1.54.91-3.39,1.41-5.01.4-1.27.75-2.72,1.13-4.2.37-1.47.56-2.64.56-3.48v-4.63c0-.42-.19-.9-.56-1.43-.38-.53-.74-1.21-1.13-1.69-.43-.53-1.04-1.18-1.41-1.92,1.24-3,1.86-4.52,3.1-7.6v-4.14c1.5-2.97,2.91-5.73,4.23-8.28,1.13-2.18,2.3-4.32,3.52-6.44,1.22-2.11,2.78-3.88,3.24-4.86,1-2.14,1.97-6.31,4.23-9.55,2.25-3.25,4.93-6.56,8.03-9.95,3.1-3.39,6.43-6.78,10-10.17,3.57-3.39,7.14-6.83,10.71-10.34,2.07-1.29,4.14-2.7,6.2-4.15,1.48-1.05,3.05-2.12,4.65-3.22,1.59-1.1,2.68-1.79,3.24-2.06,2.25-1.07,3.38-1.61,5.63-2.69,4.28-2.06,6.43-3.09,10.71-5.17,3.49-2.88,5.24-4.33,8.73-7.25Z" style="fill:#fff; stroke-width:0px;"/><path d="m828.5,638.79c2.63-1.1,5.87-2.35,9.72-3.72,3.84-1.37,7.09-1.92,9.72-1.67,2.82-1.12,4.65-.53,5.5,1.78.85,2.31,1.93,4.88,3.24,7.72.75.62,1.65,1.52,2.68,2.71,1.03,1.19,1.97,2.49,2.82,3.88.84,1.4,1.55,2.91,2.11,4.54.56,1.63.84,3.13.84,4.5-.9,12.49-1.35,18.79-2.25,31.48,0,6.52-1.13,14.11-3.38,22.63-2.25,8.53-5.54,16.44-9.86,23.61-1.51,2.17-2.59,4.41-3.24,6.74-.66,2.34-1.31,4.73-1.97,7.16-.66,2.44-1.41,4.94-2.26,7.51-.85,2.57-2.01,5.18-3.52,7.64-1.09,1.77-2.4,3.91-3.8,6.38-1.41,2.47-2.92,4.99-4.51,7.55-1.6,2.56-3.29,4.89-5.07,6.96-1.79,2.08-3.62,3.63-5.5,4.66-2.82,2.01-5.17,3.7-7.04,5.14-1.88,1.43-3.57,2.62-5.07,3.56-1.5.94-3.06,1.61-4.65,2.01-1.6.4-3.34.65-5.21.74-2.82.14-5.45-.45-7.89-1.73-2.44-1.28-4.56-2.99-6.34-5.13-1.79-2.14-3.24-4.57-4.37-7.28-1.12-2.71-1.69-5.5-1.69-8.41v-19.47c0-1.16-.38-2.15-1.13-2.96-.75-.81-1.05-3.49-1.13-7.84-.09-5.43,1.13-12.52,3.95-21.27,2.82-8.74,6.15-17.66,10-26.8,3.85-9.14,7.7-17.57,11.56-25.23,3.85-7.65,6.81-12.68,8.87-14.96,2.06-2.27,3.8-4.58,5.21-6.91,1.41-2.33,2.77-4.5,4.09-6.5,1.31-2,2.68-3.77,4.09-5.3,1.41-1.53,3.24-2.78,5.5-3.72Zm1.41,35.82c-3.01,1.06-6.06,3.6-9.16,7.54-3.1,3.94-5.97,8.19-8.59,12.71-2.64,4.53-4.98,8.92-7.04,13.16-2.07,4.25-3.48,7.28-4.23,9.14-1.13,5-1.69,7.49-2.82,12.44-.75,3.06-1.36,5.96-1.83,8.72-.47,2.76-.7,4.44-.7,5.05v5.8c.75.45,1.41,1.54,1.97,3.27.56,1.73,1.27,3.44,2.12,5.15s1.83,3.19,2.96,4.46c1.13,1.27,2.72,1.74,4.79,1.4,3.75-2.52,7.31-5.05,10.43-7.58,2.62-2.14,5.21-4.55,7.75-7.03,2.54-2.47,4.39-4.89,5.21-7.03,1.21-3.18,2.4-7.32,3.8-11.91,1.41-4.58,2.77-8.95,4.09-13.11-.38-1.7.04-3.6,1.27-5.72,1.22-2.12,1.83-3.98,1.83-5.55v-9.41c0-1.12-.23-3-.7-5.64-.47-2.63-1.22-5.28-2.26-7.92-1.03-2.63-2.3-4.79-3.8-6.44-1.5-1.66-3.2-2.14-5.07-1.48Z" style="fill:#fff; stroke-width:0px;"/><path d="m912.2,609.81c2.01-.57,3.43-.45,4.08.66.66,1.11,2.36,2.22,4.65,3.48,2.03,1.12,3.85,2.79,5.35,4.6,1.5,1.81,2.44,4.25,2.25,6.68-.09,1.13-.38,2.55-.56,4-.39,3.14-.19,6.16.56,9.03,0,2.18-.33,4.81-.99,7.89-.66,3.08-.92,5.8-.42,7.54.26.91.94,1.93,1.69,2.88.56.72,1.18,1.37,1.83,1.96.66.59,1.27.64,1.83.13,1.88-.55,3.9-2.95,6.06-7.19,2.16-4.23,4.27-8.95,6.34-14.12,2.07-5.16,4.13-10.19,6.2-15.06,2.07-4.87,3.95-8.14,5.63-9.83,3.49-1.16,5.24-1.72,8.74-2.81,1.13-.46,2.4-.55,3.8-.26,1.41.28,2.49.45,3.24.48,3.57,2.81,5.82,6.64,6.76,11.44.94,4.8,1.72,8.69,1.97,11.3.32,3.29-.7,7.93-2.68,13.5-1.97,5.58-4.47,10.17-7.47,13.78-1.32.95-2.54,1.71-3.66,2.3-1.13.59-2.25,1.12-3.38,1.59-.94-.02-1.65-.1-2.11-.24-.47-.14-1.1-.52-1.83-.97-.87-.53-1.83-.84-2.68-.98-.84-.14-1.83-.21-2.96-.22-2.44-.02-4.75,1.23-6.9,3.72-2.16,2.5-4.27,5.14-6.34,7.91-3.2,5.29-5.69,11.29-7.47,18-1.79,6.72-1.43,15.06-2.68,18.89-.48,1.47-2.87,4.07-4.65,6.78-1.79,2.72-3.09,6-4.08,9.5-1.02,3.57-1.65,7.38-1.55,11.26.1,3.88-.42,7.67-1.55,11.34.19,3.13.19,6.73,0,10.81-.19,4.08-.52,8.37-.99,12.88-.47,4.51-1.08,8.84-1.83,12.99-.75,4.15-1.25,8.88-2.54,11.07-.72,1.23-2.92,2.57-4.79,3.65-1.88,1.08-3.96,1.84-5.92,2.45-2.19.69-4.82,1.51-7.33,1.65-.89.05-2.16-1.07-3.66-3.21-.75-1.05-1.41-2.1-1.97-3.14-1.58-4.41-2.37-6.59-3.95-10.89-.19-1.82,0-4.97.56-9.46.56-4.48,1.22-9.04,1.97-13.66.75-4.61,1.45-8.78,2.11-12.49.66-3.7.99-5.8.99-6.32,4.13-9.09,6.86-17.62,8.17-26.91,1.32-9.29,2.72-18.45,4.23-27.47-.9-9.79-1.35-14.63-2.25-24.2-.94-3.09-2.11-4.57-3.52-4.46-1.41.11-2.9.55-4.37,1.08-2.87,1.05-5.17,2.78-6.48,4.46-1.32,1.69-2.44,3.38-3.38,5.08-.94,1.69-1.97,3.36-3.1,4.98-1.13,1.63-3.23,3.35-5.92,4.31-1.36.49-2.44-.51-2.82-2.75-.37-2.24-.78-4.25-1.13-6-.4-1.97-.1-4.11.84-6.38.94-2.26,2.21-4.52,3.8-6.77,1.6-2.24,3.43-4.57,5.5-6.97,2.07-2.4,3.95-4.8,5.63-7.21,2.26-3.75,4.23-7.86,5.92-11.69,1.69-3.82,3.38-7.41,5.07-10.76,1.69-3.34,3.62-6.25,5.78-8.71,2.16-2.46,5.1-4.02,8.31-4.93Z" style="fill:#fff; stroke-width:0px;"/><path d="m1028.3,616.68c3.65,1.01,7.28,2.52,10,4.96,2.72,2.44,4.93,5.43,6.62,8.94,1.69,3.5,2.92,7.36,3.67,11.55.75,4.19.94,8.6.84,12.95-.13,6.24-1.88,11.06-5.64,14.21-3.76,3.15-7.93,5.78-11.55,8.09-3.51,2.24-7.38,4.78-11.41,6.69-4.04,1.91-7.8,4.19-11.27,6.81-3.48,2.62-6.39,5.86-8.74,9.69-2.35,3.83-3.62,8.93-3.8,15.27v16.08c-.38,4.33.28,8.68,1.97,13.01,1.69,4.34,5.22,6.02,6.48,6.73.16.09.94-.07,2.26-1.02,1.31-.94,2.77-2.06,4.37-3.36,1.59-1.29,3.2-2.64,4.79-4.03,1.59-1.39,2.77-2.43,3.52-3.13,2.82-1.52,5.03-2.75,6.62-3.72,1.59-.97,2.88-.83,3.52-.58.9.36,2.45.51,3.38,1.11.94.6,1.52,2.62,1.41,5.73-.18,5.24-2.16,10.53-5.35,15.43-3.2,4.9-6.67,9.5-10.43,13.77-3.76,4.28-7.42,8.07-10.99,11.32-3.57,3.26-5.92,5.69-7.04,7.23-3.2,3.85-6.16,5.92-8.88,6.14-2.72.22-5.73.52-8.31.28-1.57-.14-3.43-1.38-5.21-3.26-1.79-1.89-3.38-4.1-4.79-6.65-1.41-2.54-2.49-5.15-3.24-7.82-.75-2.66-1.04-4.92-.84-6.77,0-2.7,0-4.04,0-6.73,0-1.84-.38-3.83-1.13-5.95-.38-1.05-.75-1.99-1.13-2.78.34-3.14.51-4.71.84-7.84v-6.26c0-1.04.19-3.84.56-8.37.38-4.52.84-9.42,1.41-14.68.56-5.26,1.08-10.23,1.55-14.94.47-4.7.54-8.41.99-9.32.31-.63,1.13-1.48,1.13-2.24,0-.76-.1-1.53-.28-2.29-.19-.77-.28-1.72-.28-2.86s.38-2.45,1.13-3.93c0-3.03.47-6.15,1.41-9.37.56-1.72,1.13-3.45,1.69-5.18,1.58-4.87,2.37-7.29,3.95-12.11.37-5.44,2.35-10.96,5.92-16.45,3.57-5.49,7.75-10.32,12.54-14.38,4.79-4.06,9.72-7.06,14.79-8.98,5.07-1.92,9.55-1.91,12.96-.96Zm-12.68,24.76c-.94-.15-1.88.63-2.82,2.32-.94,1.69-1.99,3.62-2.82,5.65-1,2.44-1.88,5.27-2.82,8.11-.19,1.21-.47,2.59-.84,4.15-.38,1.56-.66,3.01-.85,4.35-.19,1.34-.09,2.47.28,3.37.38.91,1.29,1.32,2.25,1.56.85.21,2.35.27,4.23-.23,1.88-.5,3.81-1.35,5.78-2.54,1.97-1.19,3.76-2.69,5.35-4.51,1.59-1.81,2.49-3.91,2.68-6.3v-6.18c0-1.21-.28-2.35-.85-3.42-.56-1.06-1.33-1.9-1.97-2.52-.75-.73-1.69-1.62-2.82-2.3-1.92-.61-2.87-.91-4.79-1.5Z" style="fill:#fff; stroke-width:0px;"/><path d="m1121.58,650.66c2.82,1.7,5.36,4.69,7.61,8.83,2.26,4.15,3.38,7.56,3.38,10.27,0,2.13-1.51,2.99-4.51,2.75-3.01-.24-6.39-.69-10.15-1.3-3.76-.61-7.47-1.11-11.13-1.52-3.66-.41-6.06-.03-7.19,1-1.69,1.22-2.91,2.96-3.66,5.16-.75,2.2-1.13,4.63-1.13,7.25s.38,5.27,1.13,7.92c.75,2.66,1.84,5.22,2.82,7.49,1.4,3.27,2.87,7.19,4.65,11.1,1.78,3.91,3.43,8.22,4.93,12.91,1.5,4.69,2.77,9.8,3.8,15.31,1.03,5.51,1.55,11.47,1.55,17.93,0,5.63-1.69,10.95-5.07,16.28-3.38,5.33-7.71,10.05-12.96,14.22-4.13,2.28-7.33,4.26-9.58,5.82-2.25,1.56-4.23,2.83-5.92,3.78-1.69.95-3.34,1.57-4.93,1.85-1.6.28-3.62.37-6.06.26-4.06-.18-6.09-.26-10.15-.42-.94-.04-2.17.04-3.66.22-1.5.19-3.04.56-4.51.95-1.8.47-3.85.86-5.92,1.3-.68-.02-1.01-.03-1.69-.05-2.48-.07-3.72-.1-6.2-.17-5.26-.14-7.89-3.65-7.89-10.51,0-1.78.85-4.55,2.54-8.25,1.69-3.71,3.8-7.23,6.34-10.55,2.54-3.32,5.21-6.2,8.03-8.65,2.81-2.45,5.26-3.53,7.32-3.32.56.06,1.51.7,2.82,1.93,1.31,1.22,2.86,2.53,4.65,3.92,1.78,1.38,3.8,2.73,6.06,4.03,2.26,1.3,4.79,2.09,7.61,2.39,1.88.2,3.62-.3,5.21-1.5,1.59-1.2,2.96-2.69,4.09-4.47,1.12-1.78,1.97-3.7,2.54-5.77.56-2.06.84-3.88.84-5.46,0-3.84-1.22-8.72-3.66-14.76-2.44-6.04-5.17-12.33-8.17-18.85-3-6.52-5.73-12.77-8.17-18.69-2.44-5.92-3.67-10.67-3.67-14.17,0-1.54,0-2.31,0-3.85.75-3.77,1.88-7.55,3.38-11.28,1.5-3.73,3.2-7.01,5.07-9.83,1.88-2.82,3.94-5.13,6.2-6.91,2.25-1.78,5.22-1.96,7.33-2.1,1.08-.07,2.68-1.25,4.09-2.64,1.41-1.38,2.68-2.93,3.8-3.92,1.23-1.09,2.86-2.11,4.09-3.14,1.22-1.03,2.49-1.42,3.81-1.19,1.5-.73,3.85-.38,7.05,1.13,3.19,1.52,5.54,2.74,7.05,3.61,2.48,1.42,3.72,2.15,6.2,3.64Z" style="fill:#fff; stroke-width:0px;"/></svg>