<?xml version="1.0" encoding="UTF-8"?><svg id="a" xmlns="http://www.w3.org/2000/svg" viewBox="0 0 1536 1024"><path d="m200.04,779.71c3.92,0,5.55-3.38,5.55-10.42v-.81h10.01c-.41,19.75-7.71,29.49-21.78,29.49-7.98,0-14.61-3.38-20.97-10.42-7.58,2.71-15.02,3.92-22.73,3.92-30.57,0-50.46-18.8-50.46-48.03s19.48-48.16,52.76-48.16,52.49,18.4,52.49,48.16c0,13.93-3.65,24.49-11.91,33.01,2.71,2.16,4.87,3.25,7.03,3.25Zm-49.11-34.23c6.9,0,13.39,3.79,20.02,11.23.27-3.79.27-7.71.27-11.77,0-24.22-4.6-35.85-17.99-35.85s-19.08,10.01-19.08,31.39c0,4.6.54,10.55,1.35,17.86,1.89-8.52,7.03-12.85,15.42-12.85Zm-2.3,18.4c-4.33,0-7.17,3.11-7.17,7.31,0,5.28,4.06,8.79,10.69,8.79,4.46,0,8.79-1.49,13.12-4.33-5.82-7.85-11.63-11.77-16.64-11.77Z" style="fill:#3a3a3a; stroke-width:0px;"/><path d="m245.23,791.21c-17.05,0-22.32-7.04-22.32-23.67v-24.35c0-5.14-1.08-6.36-6.36-6.36h-2.16v-11.91h35.17v41.26c0,7.31,2.71,10.96,8.66,10.96s10.01-4.87,10.01-12.99v-20.97c0-5.14-.95-6.36-6.22-6.36h-2.71v-11.91h35.58v45.59c0,5.14,1.08,6.36,6.36,6.36h2.84v11.91h-35.17v-9.33c-5.82,7.71-13.93,11.77-23.67,11.77Z" style="fill:#3a3a3a; stroke-width:0px;"/><path d="m345.48,791.21c-22.59,0-36.39-13.26-36.39-34.36s14.07-34.36,36.12-34.36,33.82,12.72,33.82,35.85v2.3h-42.48v1.35c0,10.82,4.73,16.64,12.99,16.64,6.9,0,11.63-4.19,13.12-12.04h16.64c-3.11,16.64-14.2,24.62-33.82,24.62Zm10.69-42.48v-.95c0-8.66-3.65-13.26-9.88-13.26s-9.74,4.87-9.74,14.21h19.62Z" style="fill:#3a3a3a; stroke-width:0px;"/><path d="m443.42,722.48c8.39,0,14.2,2.71,17.99,8.52,6.36-5.68,13.66-8.52,21.51-8.52,16.91,0,22.19,7.17,22.19,23.67v24.35c0,5.14,1.08,6.36,6.36,6.36h1.62v11.91h-40.31v-11.91c4.87-.13,5.68-1.35,5.68-6.36v-23c0-7.44-1.76-10.82-7.03-10.82-5.95,0-8.52,4.74-8.52,14.61v19.21c0,4.74.54,6.36,4.33,6.36h1.49v11.91h-38.01v-11.91h1.35c3.65,0,4.33-1.62,4.33-6.36v-23c0-7.58-1.89-10.82-7.17-10.82-5.95,0-8.39,4.87-8.39,14.88v18.94c0,4.74.95,6.36,5.41,6.36h.54v11.91h-41.26v-11.91h2.3c5.28,0,6.36-1.22,6.36-6.36v-27.33c0-5.14-1.08-6.36-6.36-6.36h-2.3v-11.91h34.63v7.98c6.76-7.17,14.2-10.42,23.27-10.42Z" style="fill:#3a3a3a; stroke-width:0px;"/><path d="m648.52,776.87h2.71v11.91h-42.75v-11.91h1.49c4.74,0,5.68-1.35,5.68-6.36v-23c0-7.31-2.84-10.96-8.79-10.96s-10.01,4.87-10.01,12.99v20.97c0,5.01,1.08,6.36,5.82,6.36h1.35v11.91h-43.43v-11.91h3.25c5.28,0,6.36-1.22,6.36-6.36v-27.33c0-5.14-1.08-6.36-6.36-6.36h-3.25v-11.91h35.58v9.88c5.82-7.71,13.93-11.63,23.67-11.63,17.05,0,22.46,7.04,22.46,23.67v23.67c0,5.14.95,6.36,6.22,6.36Z" style="fill:#3a3a3a; stroke-width:0px;"/><path d="m675.57,791.07c-13.53,0-21.1-6.49-21.1-17.99,0-12.72,7.44-16.5,23.67-19.35,11.91-2.03,17.59-3.38,17.59-11.63,0-6.36-4.6-10.69-12.58-10.69-2.71,0-5.28.81-7.98,2.3,4.74,1.35,7.03,4.19,7.03,8.66,0,5.55-4.6,9.33-11.77,9.33-8.52,0-13.26-4.19-13.26-11.36,0-10.69,11.36-17.72,32.6-17.72,12.18,0,20.97,2.17,25.16,5.01,6.63,4.46,7.44,9.74,7.44,18.53v24.62c0,2.84.27,4.06,2.71,4.06,2.57,0,2.84-1.49,2.84-4.06v-7.71h8.93v8.39c0,13.8-5.68,19.62-20.29,19.62-7.98,0-13.66-2.84-17.72-9.06-4.6,5.82-12.85,9.06-23.27,9.06Zm-6.09-77.11c2.3-12.45,7.71-18.67,16.23-18.67,1.76,0,3.52.27,5.55.81l8.39,2.17c1.22.27,2.44.54,3.25.54,3.52,0,5.28-2.03,6.63-6.49h5.82c-2.44,12.45-7.98,18.67-15.96,18.67-1.49,0-3.11-.27-4.87-.68l-8.12-2.3c-1.76-.41-3.11-.68-4.06-.68-3.65,0-6.09,2.3-7.03,6.63h-5.82Zm11.23,56.68c0,3.65,2.84,6.36,7.03,6.36,5.01,0,8.39-3.38,8.39-9.2v-.41l-.14-8.25c-9.74,5.28-15.29,6.36-15.29,11.5Z" style="fill:#3a3a3a; stroke-width:0px;"/><path d="m818.7,756.84c0,21.1-14.75,34.23-38.83,34.23s-38.69-12.85-38.69-34.23,14.48-34.36,38.56-34.36,38.96,13.26,38.96,34.36Zm-38.96-21.78c-7.85,0-9.88,6.76-9.88,21.78s2.03,21.78,10.15,21.78,9.88-6.76,9.88-21.78-2.03-21.78-10.15-21.78Z" style="fill:#3a3a3a; stroke-width:0px;"/><path d="m925.99,722.48c8.39,0,14.2,2.71,17.99,8.52,6.36-5.68,13.66-8.52,21.51-8.52,16.91,0,22.19,7.17,22.19,23.67v24.35c0,5.14,1.08,6.36,6.36,6.36h1.62v11.91h-40.31v-11.91c4.87-.13,5.68-1.35,5.68-6.36v-23c0-7.44-1.76-10.82-7.03-10.82-5.95,0-8.52,4.74-8.52,14.61v19.21c0,4.74.54,6.36,4.33,6.36h1.49v11.91h-38.01v-11.91h1.35c3.65,0,4.33-1.62,4.33-6.36v-23c0-7.58-1.89-10.82-7.17-10.82-5.95,0-8.39,4.87-8.39,14.88v18.94c0,4.74.95,6.36,5.41,6.36h.54v11.91h-41.26v-11.91h2.3c5.28,0,6.36-1.22,6.36-6.36v-27.33c0-5.14-1.08-6.36-6.36-6.36h-2.3v-11.91h34.63v7.98c6.76-7.17,14.21-10.42,23.27-10.42Z" style="fill:#3a3a3a; stroke-width:0px;"/><path d="m1020.96,791.07c-13.53,0-21.1-6.49-21.1-17.99,0-12.72,7.44-16.5,23.67-19.35,11.91-2.03,17.59-3.38,17.59-11.63,0-6.36-4.6-10.69-12.58-10.69-2.71,0-5.28.81-7.98,2.3,4.74,1.35,7.03,4.19,7.03,8.66,0,5.55-4.6,9.33-11.77,9.33-8.52,0-13.26-4.19-13.26-11.36,0-10.69,11.36-17.72,32.6-17.72,12.18,0,20.97,2.17,25.16,5.01,6.63,4.46,7.44,9.74,7.44,18.53v24.62c0,2.84.27,4.06,2.71,4.06,2.57,0,2.84-1.49,2.84-4.06v-7.71h8.93v8.39c0,13.8-5.68,19.62-20.29,19.62-7.98,0-13.66-2.84-17.72-9.06-4.6,5.82-12.85,9.06-23.27,9.06Zm5.14-20.43c0,3.65,2.84,6.36,7.03,6.36,5.01,0,8.39-3.38,8.39-9.2v-.41l-.14-8.25c-9.74,5.28-15.29,6.36-15.29,11.5Z" style="fill:#3a3a3a; stroke-width:0px;"/><path d="m1084.41,736.69v-11.77h.54c11.09,0,16.37-7.85,19.08-24.89h15.96v24.89h18.8v11.77h-18.8v34.63c0,5.14,1.49,7.58,4.73,7.58,4.6,0,5.41-4.33,5.41-14.34v-5.95h11.63v8.66c0,16.91-6.22,24.22-23.81,24.22-9.33,0-16.23-2.71-20.56-7.98-4.06-4.87-4.06-10.28-4.06-17.45v-29.36h-8.93Z" style="fill:#3a3a3a; stroke-width:0px;"/><path d="m1169.36,791.07c-13.53,0-21.1-6.49-21.1-17.99,0-12.72,7.44-16.5,23.67-19.35,11.91-2.03,17.59-3.38,17.59-11.63,0-6.36-4.6-10.69-12.58-10.69-2.71,0-5.28.81-7.98,2.3,4.73,1.35,7.03,4.19,7.03,8.66,0,5.55-4.6,9.33-11.77,9.33-8.52,0-13.26-4.19-13.26-11.36,0-10.69,11.36-17.72,32.6-17.72,12.18,0,20.97,2.17,25.16,5.01,6.63,4.46,7.44,9.74,7.44,18.53v24.62c0,2.84.27,4.06,2.71,4.06,2.57,0,2.84-1.49,2.84-4.06v-7.71h8.93v8.39c0,13.8-5.68,19.62-20.29,19.62-7.98,0-13.66-2.84-17.72-9.06-4.6,5.82-12.85,9.06-23.27,9.06Zm5.14-20.43c0,3.65,2.84,6.36,7.03,6.36,5.01,0,8.39-3.38,8.39-9.2v-.41l-.14-8.25c-9.74,5.28-15.29,6.36-15.29,11.5Z" style="fill:#3a3a3a; stroke-width:0px;"/><path d="m1250.94,789.85c-6.49,0-10.69-4.46-10.69-11.09,0-7.31,5.41-12.58,12.85-12.58,8.39,0,14.34,6.09,14.34,15.42,0,12.18-10.28,23.4-26.11,25.03v-8.52c6.63-.68,10.42-3.38,12.18-8.52-.95.14-1.76.27-2.57.27Z" style="fill:#3a3a3a; stroke-width:0px;"/><path d="m1031.77,846.93c8.39,0,14.2,2.71,17.99,8.52,6.36-5.68,13.66-8.52,21.51-8.52,16.91,0,22.19,7.17,22.19,23.67v24.35c0,5.14,1.08,6.36,6.36,6.36h1.62v11.91h-40.31v-11.91c4.87-.13,5.68-1.35,5.68-6.36v-23c0-7.44-1.76-10.82-7.03-10.82-5.95,0-8.52,4.74-8.52,14.61v19.21c0,4.74.54,6.36,4.33,6.36h1.49v11.91h-38.01v-11.91h1.35c3.65,0,4.33-1.62,4.33-6.36v-23c0-7.58-1.89-10.82-7.17-10.82-5.95,0-8.39,4.87-8.39,14.88v18.94c0,4.74.95,6.36,5.41,6.36h.54v11.91h-41.26v-11.91h2.3c5.28,0,6.36-1.22,6.36-6.36v-27.33c0-5.14-1.08-6.36-6.36-6.36h-2.3v-11.91h34.63v7.98c6.76-7.17,14.21-10.42,23.27-10.42Z" style="fill:#3a3a3a; stroke-width:0px;"/><path d="m1183.97,881.29c0,21.1-14.75,34.23-38.83,34.23s-38.69-12.85-38.69-34.23,14.48-34.36,38.56-34.36,38.96,13.26,38.96,34.36Zm-38.96-21.78c-7.85,0-9.88,6.76-9.88,21.78s2.03,21.78,10.15,21.78,9.88-6.76,9.88-21.78-2.03-21.78-10.15-21.78Z" style="fill:#3a3a3a; stroke-width:0px;"/><path d="m1240.65,847.07c9.88,0,15.96,6.36,15.96,15.69,0,8.25-5.14,13.53-12.58,13.53-6.09,0-10.55-4.33-10.55-9.88,0-3.92,1.89-6.76,5.95-8.79-1.08-.27-2.03-.41-2.98-.41-6.9,0-11.63,6.76-11.63,18.94v18.8c0,5.14,1.08,6.36,6.36,6.36h4.33v11.91h-46v-11.91h2.3c5.28,0,6.36-1.22,6.36-6.36v-27.33c0-5.14-1.08-6.36-6.36-6.36h-2.3v-11.91h34.63v6.22c4.6-5.68,10.15-8.52,16.5-8.52Z" style="fill:#3a3a3a; stroke-width:0px;"/><path d="m1312.76,847.07c9.88,0,15.96,6.36,15.96,15.69,0,8.25-5.14,13.53-12.58,13.53-6.09,0-10.55-4.33-10.55-9.88,0-3.92,1.89-6.76,5.95-8.79-1.08-.27-2.03-.41-2.98-.41-6.9,0-11.63,6.76-11.63,18.94v18.8c0,5.14,1.08,6.36,6.36,6.36h4.33v11.91h-46v-11.91h2.3c5.28,0,6.36-1.22,6.36-6.36v-27.33c0-5.14-1.08-6.36-6.36-6.36h-2.3v-11.91h34.63v6.22c4.6-5.68,10.15-8.52,16.5-8.52Z" style="fill:#3a3a3a; stroke-width:0px;"/><path d="m1370.53,915.66c-22.59,0-36.39-13.26-36.39-34.36s14.07-34.36,36.12-34.36,33.82,12.72,33.82,35.85v2.3h-42.48v1.35c0,10.82,4.74,16.64,12.99,16.64,6.9,0,11.63-4.19,13.12-12.04h16.64c-3.11,16.64-14.2,24.62-33.82,24.62Zm10.69-42.48v-.95c0-8.66-3.65-13.26-9.88-13.26s-9.74,4.87-9.74,14.21h19.62Z" style="fill:#3a3a3a; stroke-width:0px;"/><path d="m200.04,762.99c3.92,0,5.55-3.38,5.55-10.42v-.81h10.01c-.41,19.75-7.71,29.49-21.78,29.49-7.98,0-14.61-3.38-20.97-10.42-7.58,2.71-15.02,3.92-22.73,3.92-30.57,0-50.46-18.8-50.46-48.03s19.48-48.16,52.76-48.16,52.49,18.4,52.49,48.16c0,13.93-3.65,24.49-11.91,33.01,2.71,2.16,4.87,3.25,7.03,3.25Zm-49.11-34.23c6.9,0,13.39,3.79,20.02,11.23.27-3.79.27-7.71.27-11.77,0-24.22-4.6-35.85-17.99-35.85s-19.08,10.01-19.08,31.39c0,4.6.54,10.55,1.35,17.86,1.89-8.52,7.03-12.85,15.42-12.85Zm-2.3,18.4c-4.33,0-7.17,3.11-7.17,7.31,0,5.28,4.06,8.79,10.69,8.79,4.46,0,8.79-1.49,13.12-4.33-5.82-7.85-11.63-11.77-16.64-11.77Z" style="fill:#3a3a3a; stroke-width:0px;"/><path d="m245.23,774.49c-17.05,0-22.32-7.04-22.32-23.67v-24.35c0-5.14-1.08-6.36-6.36-6.36h-2.16v-11.91h35.17v41.26c0,7.31,2.71,10.96,8.66,10.96s10.01-4.87,10.01-12.99v-20.97c0-5.14-.95-6.36-6.22-6.36h-2.71v-11.91h35.58v45.59c0,5.14,1.08,6.36,6.36,6.36h2.84v11.91h-35.17v-9.33c-5.82,7.71-13.93,11.77-23.67,11.77Z" style="fill:#3a3a3a; stroke-width:0px;"/><path d="m345.48,774.49c-22.59,0-36.39-13.26-36.39-34.36s14.07-34.36,36.12-34.36,33.82,12.72,33.82,35.85v2.3h-42.48v1.35c0,10.82,4.73,16.64,12.99,16.64,6.9,0,11.63-4.19,13.12-12.04h16.64c-3.11,16.64-14.2,24.62-33.82,24.62Zm10.69-42.48v-.95c0-8.66-3.65-13.26-9.88-13.26s-9.74,4.87-9.74,14.21h19.62Z" style="fill:#3a3a3a; stroke-width:0px;"/><path d="m443.42,705.76c8.39,0,14.2,2.71,17.99,8.52,6.36-5.68,13.66-8.52,21.51-8.52,16.91,0,22.19,7.17,22.19,23.67v24.35c0,5.14,1.08,6.36,6.36,6.36h1.62v11.91h-40.31v-11.91c4.87-.13,5.68-1.35,5.68-6.36v-23c0-7.44-1.76-10.82-7.03-10.82-5.95,0-8.52,4.74-8.52,14.61v19.21c0,4.74.54,6.36,4.33,6.36h1.49v11.91h-38.01v-11.91h1.35c3.65,0,4.33-1.62,4.33-6.36v-23c0-7.58-1.89-10.82-7.17-10.82-5.95,0-8.39,4.87-8.39,14.88v18.94c0,4.74.95,6.36,5.41,6.36h.54v11.91h-41.26v-11.91h2.3c5.28,0,6.36-1.22,6.36-6.36v-27.33c0-5.14-1.08-6.36-6.36-6.36h-2.3v-11.91h34.63v7.98c6.76-7.17,14.2-10.42,23.27-10.42Z" style="fill:#3a3a3a; stroke-width:0px;"/><path d="m648.52,760.15h2.71v11.91h-42.75v-11.91h1.49c4.74,0,5.68-1.35,5.68-6.36v-23c0-7.31-2.84-10.96-8.79-10.96s-10.01,4.87-10.01,12.99v20.97c0,5.01,1.08,6.36,5.82,6.36h1.35v11.91h-43.43v-11.91h3.25c5.28,0,6.36-1.22,6.36-6.36v-27.33c0-5.14-1.08-6.36-6.36-6.36h-3.25v-11.91h35.58v9.88c5.82-7.71,13.93-11.63,23.67-11.63,17.05,0,22.46,7.04,22.46,23.67v23.67c0,5.14.95,6.36,6.22,6.36Z" style="fill:#3a3a3a; stroke-width:0px;"/><path d="m675.57,774.35c-13.53,0-21.1-6.49-21.1-17.99,0-12.72,7.44-16.5,23.67-19.35,11.91-2.03,17.59-3.38,17.59-11.63,0-6.36-4.6-10.69-12.58-10.69-2.71,0-5.28.81-7.98,2.3,4.74,1.35,7.03,4.19,7.03,8.66,0,5.55-4.6,9.33-11.77,9.33-8.52,0-13.26-4.19-13.26-11.36,0-10.69,11.36-17.72,32.6-17.72,12.18,0,20.97,2.17,25.16,5.01,6.63,4.46,7.44,9.74,7.44,18.53v24.62c0,2.84.27,4.06,2.71,4.06,2.57,0,2.84-1.49,2.84-4.06v-7.71h8.93v8.39c0,13.8-5.68,19.62-20.29,19.62-7.98,0-13.66-2.84-17.72-9.06-4.6,5.82-12.85,9.06-23.27,9.06Zm-6.09-77.11c2.3-12.45,7.71-18.67,16.23-18.67,1.76,0,3.52.27,5.55.81l8.39,2.17c1.22.27,2.44.54,3.25.54,3.52,0,5.28-2.03,6.63-6.49h5.82c-2.44,12.45-7.98,18.67-15.96,18.67-1.49,0-3.11-.27-4.87-.68l-8.12-2.3c-1.76-.41-3.11-.68-4.06-.68-3.65,0-6.09,2.3-7.03,6.63h-5.82Zm11.23,56.68c0,3.65,2.84,6.36,7.03,6.36,5.01,0,8.39-3.38,8.39-9.2v-.41l-.14-8.25c-9.74,5.28-15.29,6.36-15.29,11.5Z" style="fill:#3a3a3a; stroke-width:0px;"/><path d="m818.7,740.13c0,21.1-14.75,34.23-38.83,34.23s-38.69-12.85-38.69-34.23,14.48-34.36,38.56-34.36,38.96,13.26,38.96,34.36Zm-38.96-21.78c-7.85,0-9.88,6.76-9.88,21.78s2.03,21.78,10.15,21.78,9.88-6.76,9.88-21.78-2.03-21.78-10.15-21.78Z" style="fill:#3a3a3a; stroke-width:0px;"/><path d="m925.99,705.76c8.39,0,14.2,2.71,17.99,8.52,6.36-5.68,13.66-8.52,21.51-8.52,16.91,0,22.19,7.17,22.19,23.67v24.35c0,5.14,1.08,6.36,6.36,6.36h1.62v11.91h-40.31v-11.91c4.87-.13,5.68-1.35,5.68-6.36v-23c0-7.44-1.76-10.82-7.03-10.82-5.95,0-8.52,4.74-8.52,14.61v19.21c0,4.74.54,6.36,4.33,6.36h1.49v11.91h-38.01v-11.91h1.35c3.65,0,4.33-1.62,4.33-6.36v-23c0-7.58-1.89-10.82-7.17-10.82-5.95,0-8.39,4.87-8.39,14.88v18.94c0,4.74.95,6.36,5.41,6.36h.54v11.91h-41.26v-11.91h2.3c5.28,0,6.36-1.22,6.36-6.36v-27.33c0-5.14-1.08-6.36-6.36-6.36h-2.3v-11.91h34.63v7.98c6.76-7.17,14.21-10.42,23.27-10.42Z" style="fill:#3a3a3a; stroke-width:0px;"/><path d="m1020.96,774.35c-13.53,0-21.1-6.49-21.1-17.99,0-12.72,7.44-16.5,23.67-19.35,11.91-2.03,17.59-3.38,17.59-11.63,0-6.36-4.6-10.69-12.58-10.69-2.71,0-5.28.81-7.98,2.3,4.74,1.35,7.03,4.19,7.03,8.66,0,5.55-4.6,9.33-11.77,9.33-8.52,0-13.26-4.19-13.26-11.36,0-10.69,11.36-17.72,32.6-17.72,12.18,0,20.97,2.17,25.16,5.01,6.63,4.46,7.44,9.74,7.44,18.53v24.62c0,2.84.27,4.06,2.71,4.06,2.57,0,2.84-1.49,2.84-4.06v-7.71h8.93v8.39c0,13.8-5.68,19.62-20.29,19.62-7.98,0-13.66-2.84-17.72-9.06-4.6,5.82-12.85,9.06-23.27,9.06Zm5.14-20.43c0,3.65,2.84,6.36,7.03,6.36,5.01,0,8.39-3.38,8.39-9.2v-.41l-.14-8.25c-9.74,5.28-15.29,6.36-15.29,11.5Z" style="fill:#3a3a3a; stroke-width:0px;"/><path d="m1084.41,719.97v-11.77h.54c11.09,0,16.37-7.85,19.08-24.89h15.96v24.89h18.8v11.77h-18.8v34.63c0,5.14,1.49,7.58,4.73,7.58,4.6,0,5.41-4.33,5.41-14.34v-5.95h11.63v8.66c0,16.91-6.22,24.22-23.81,24.22-9.33,0-16.23-2.71-20.56-7.98-4.06-4.87-4.06-10.28-4.06-17.45v-29.36h-8.93Z" style="fill:#3a3a3a; stroke-width:0px;"/><path d="m1169.36,774.35c-13.53,0-21.1-6.49-21.1-17.99,0-12.72,7.44-16.5,23.67-19.35,11.91-2.03,17.59-3.38,17.59-11.63,0-6.36-4.6-10.69-12.58-10.69-2.71,0-5.28.81-7.98,2.3,4.73,1.35,7.03,4.19,7.03,8.66,0,5.55-4.6,9.33-11.77,9.33-8.52,0-13.26-4.19-13.26-11.36,0-10.69,11.36-17.72,32.6-17.72,12.18,0,20.97,2.17,25.16,5.01,6.63,4.46,7.44,9.74,7.44,18.53v24.62c0,2.84.27,4.06,2.71,4.06,2.57,0,2.84-1.49,2.84-4.06v-7.71h8.93v8.39c0,13.8-5.68,19.62-20.29,19.62-7.98,0-13.66-2.84-17.72-9.06-4.6,5.82-12.85,9.06-23.27,9.06Zm5.14-20.43c0,3.65,2.84,6.36,7.03,6.36,5.01,0,8.39-3.38,8.39-9.2v-.41l-.14-8.25c-9.74,5.28-15.29,6.36-15.29,11.5Z" style="fill:#3a3a3a; stroke-width:0px;"/><path d="m1250.94,773.13c-6.49,0-10.69-4.46-10.69-11.09,0-7.31,5.41-12.58,12.85-12.58,8.39,0,14.34,6.09,14.34,15.42,0,12.18-10.28,23.4-26.11,25.03v-8.52c6.63-.68,10.42-3.38,12.18-8.52-.95.14-1.76.27-2.57.27Z" style="fill:#3a3a3a; stroke-width:0px;"/><path d="m1031.77,830.21c8.39,0,14.2,2.71,17.99,8.52,6.36-5.68,13.66-8.52,21.51-8.52,16.91,0,22.19,7.17,22.19,23.67v24.35c0,5.14,1.08,6.36,6.36,6.36h1.62v11.91h-40.31v-11.91c4.87-.13,5.68-1.35,5.68-6.36v-23c0-7.44-1.76-10.82-7.03-10.82-5.95,0-8.52,4.74-8.52,14.61v19.21c0,4.74.54,6.36,4.33,6.36h1.49v11.91h-38.01v-11.91h1.35c3.65,0,4.33-1.62,4.33-6.36v-23c0-7.58-1.89-10.82-7.17-10.82-5.95,0-8.39,4.87-8.39,14.88v18.94c0,4.74.95,6.36,5.41,6.36h.54v11.91h-41.26v-11.91h2.3c5.28,0,6.36-1.22,6.36-6.36v-27.33c0-5.14-1.08-6.36-6.36-6.36h-2.3v-11.91h34.63v7.98c6.76-7.17,14.21-10.42,23.27-10.42Z" style="fill:#3a3a3a; stroke-width:0px;"/><path d="m1183.97,864.58c0,21.1-14.75,34.23-38.83,34.23s-38.69-12.85-38.69-34.23,14.48-34.36,38.56-34.36,38.96,13.26,38.96,34.36Zm-38.96-21.78c-7.85,0-9.88,6.76-9.88,21.78s2.03,21.78,10.15,21.78,9.88-6.76,9.88-21.78-2.03-21.78-10.15-21.78Z" style="fill:#3a3a3a; stroke-width:0px;"/><path d="m1240.65,830.35c9.88,0,15.96,6.36,15.96,15.69,0,8.25-5.14,13.53-12.58,13.53-6.09,0-10.55-4.33-10.55-9.88,0-3.92,1.89-6.76,5.95-8.79-1.08-.27-2.03-.41-2.98-.41-6.9,0-11.63,6.76-11.63,18.94v18.8c0,5.14,1.08,6.36,6.36,6.36h4.33v11.91h-46v-11.91h2.3c5.28,0,6.36-1.22,6.36-6.36v-27.33c0-5.14-1.08-6.36-6.36-6.36h-2.3v-11.91h34.63v6.22c4.6-5.68,10.15-8.52,16.5-8.52Z" style="fill:#3a3a3a; stroke-width:0px;"/><path d="m1312.76,830.35c9.88,0,15.96,6.36,15.96,15.69,0,8.25-5.14,13.53-12.58,13.53-6.09,0-10.55-4.33-10.55-9.88,0-3.92,1.89-6.76,5.95-8.79-1.08-.27-2.03-.41-2.98-.41-6.9,0-11.63,6.76-11.63,18.94v18.8c0,5.14,1.08,6.36,6.36,6.36h4.33v11.91h-46v-11.91h2.3c5.28,0,6.36-1.22,6.36-6.36v-27.33c0-5.14-1.08-6.36-6.36-6.36h-2.3v-11.91h34.63v6.22c4.6-5.68,10.15-8.52,16.5-8.52Z" style="fill:#3a3a3a; stroke-width:0px;"/><path d="m1370.53,898.94c-22.59,0-36.39-13.26-36.39-34.36s14.07-34.36,36.12-34.36,33.82,12.72,33.82,35.85v2.3h-42.48v1.35c0,10.82,4.74,16.64,12.99,16.64,6.9,0,11.63-4.19,13.12-12.04h16.64c-3.11,16.64-14.2,24.62-33.82,24.62Zm10.69-42.48v-.95c0-8.66-3.65-13.26-9.88-13.26s-9.74,4.87-9.74,14.21h19.62Z" style="fill:#3a3a3a; stroke-width:0px;"/><path d="m200.04,762.99c3.92,0,5.55-3.38,5.55-10.42v-.81h10.01c-.41,19.75-7.71,29.49-21.78,29.49-7.98,0-14.61-3.38-20.97-10.42-7.58,2.71-15.02,3.92-22.73,3.92-30.57,0-50.46-18.8-50.46-48.03s19.48-48.16,52.76-48.16,52.49,18.4,52.49,48.16c0,13.93-3.65,24.49-11.91,33.01,2.71,2.16,4.87,3.25,7.03,3.25Zm-49.11-34.23c6.9,0,13.39,3.79,20.02,11.23.27-3.79.27-7.71.27-11.77,0-24.22-4.6-35.85-17.99-35.85s-19.08,10.01-19.08,31.39c0,4.6.54,10.55,1.35,17.86,1.89-8.52,7.03-12.85,15.42-12.85Zm-2.3,18.4c-4.33,0-7.17,3.11-7.17,7.31,0,5.28,4.06,8.79,10.69,8.79,4.46,0,8.79-1.49,13.12-4.33-5.82-7.85-11.63-11.77-16.64-11.77Z" style="fill:#7a7a7a; stroke-width:0px;"/><path d="m245.23,774.49c-17.05,0-22.32-7.04-22.32-23.67v-24.35c0-5.14-1.08-6.36-6.36-6.36h-2.16v-11.91h35.17v41.26c0,7.31,2.71,10.96,8.66,10.96s10.01-4.87,10.01-12.99v-20.97c0-5.14-.95-6.36-6.22-6.36h-2.71v-11.91h35.58v45.59c0,5.14,1.08,6.36,6.36,6.36h2.84v11.91h-35.17v-9.33c-5.82,7.71-13.93,11.77-23.67,11.77Z" style="fill:#7a7a7a; stroke-width:0px;"/><path d="m345.48,774.49c-22.59,0-36.39-13.26-36.39-34.36s14.07-34.36,36.12-34.36,33.82,12.72,33.82,35.85v2.3h-42.48v1.35c0,10.82,4.73,16.64,12.99,16.64,6.9,0,11.63-4.19,13.12-12.04h16.64c-3.11,16.64-14.2,24.62-33.82,24.62Zm10.69-42.48v-.95c0-8.66-3.65-13.26-9.88-13.26s-9.74,4.87-9.74,14.21h19.62Z" style="fill:#7a7a7a; stroke-width:0px;"/><path d="m443.42,705.76c8.39,0,14.2,2.71,17.99,8.52,6.36-5.68,13.66-8.52,21.51-8.52,16.91,0,22.19,7.17,22.19,23.67v24.35c0,5.14,1.08,6.36,6.36,6.36h1.62v11.91h-40.31v-11.91c4.87-.13,5.68-1.35,5.68-6.36v-23c0-7.44-1.76-10.82-7.03-10.82-5.95,0-8.52,4.74-8.52,14.61v19.21c0,4.74.54,6.36,4.33,6.36h1.49v11.91h-38.01v-11.91h1.35c3.65,0,4.33-1.62,4.33-6.36v-23c0-7.58-1.89-10.82-7.17-10.82-5.95,0-8.39,4.87-8.39,14.88v18.94c0,4.74.95,6.36,5.41,6.36h.54v11.91h-41.26v-11.91h2.3c5.28,0,6.36-1.22,6.36-6.36v-27.33c0-5.14-1.08-6.36-6.36-6.36h-2.3v-11.91h34.63v7.98c6.76-7.17,14.2-10.42,23.27-10.42Z" style="fill:#7a7a7a; stroke-width:0px;"/><path d="m648.52,760.15h2.71v11.91h-42.75v-11.91h1.49c4.74,0,5.68-1.35,5.68-6.36v-23c0-7.31-2.84-10.96-8.79-10.96s-10.01,4.87-10.01,12.99v20.97c0,5.01,1.08,6.36,5.82,6.36h1.35v11.91h-43.43v-11.91h3.25c5.28,0,6.36-1.22,6.36-6.36v-27.33c0-5.14-1.08-6.36-6.36-6.36h-3.25v-11.91h35.58v9.88c5.82-7.71,13.93-11.63,23.67-11.63,17.05,0,22.46,7.04,22.46,23.67v23.67c0,5.14.95,6.36,6.22,6.36Z" style="fill:#7a7a7a; stroke-width:0px;"/><path d="m675.57,774.35c-13.53,0-21.1-6.49-21.1-17.99,0-12.72,7.44-16.5,23.67-19.35,11.91-2.03,17.59-3.38,17.59-11.63,0-6.36-4.6-10.69-12.58-10.69-2.71,0-5.28.81-7.98,2.3,4.74,1.35,7.03,4.19,7.03,8.66,0,5.55-4.6,9.33-11.77,9.33-8.52,0-13.26-4.19-13.26-11.36,0-10.69,11.36-17.72,32.6-17.72,12.18,0,20.97,2.17,25.16,5.01,6.63,4.46,7.44,9.74,7.44,18.53v24.62c0,2.84.27,4.06,2.71,4.06,2.57,0,2.84-1.49,2.84-4.06v-7.71h8.93v8.39c0,13.8-5.68,19.62-20.29,19.62-7.98,0-13.66-2.84-17.72-9.06-4.6,5.82-12.85,9.06-23.27,9.06Zm-6.09-77.11c2.3-12.45,7.71-18.67,16.23-18.67,1.76,0,3.52.27,5.55.81l8.39,2.17c1.22.27,2.44.54,3.25.54,3.52,0,5.28-2.03,6.63-6.49h5.82c-2.44,12.45-7.98,18.67-15.96,18.67-1.49,0-3.11-.27-4.87-.68l-8.12-2.3c-1.76-.41-3.11-.68-4.06-.68-3.65,0-6.09,2.3-7.03,6.63h-5.82Zm11.23,56.68c0,3.65,2.84,6.36,7.03,6.36,5.01,0,8.39-3.38,8.39-9.2v-.41l-.14-8.25c-9.74,5.28-15.29,6.36-15.29,11.5Z" style="fill:#7a7a7a; stroke-width:0px;"/><path d="m818.7,740.13c0,21.1-14.75,34.23-38.83,34.23s-38.69-12.85-38.69-34.23,14.48-34.36,38.56-34.36,38.96,13.26,38.96,34.36Zm-38.96-21.78c-7.85,0-9.88,6.76-9.88,21.78s2.03,21.78,10.15,21.78,9.88-6.76,9.88-21.78-2.03-21.78-10.15-21.78Z" style="fill:#7a7a7a; stroke-width:0px;"/><path d="m925.99,705.76c8.39,0,14.2,2.71,17.99,8.52,6.36-5.68,13.66-8.52,21.51-8.52,16.91,0,22.19,7.17,22.19,23.67v24.35c0,5.14,1.08,6.36,6.36,6.36h1.62v11.91h-40.31v-11.91c4.87-.13,5.68-1.35,5.68-6.36v-23c0-7.44-1.76-10.82-7.03-10.82-5.95,0-8.52,4.74-8.52,14.61v19.21c0,4.74.54,6.36,4.33,6.36h1.49v11.91h-38.01v-11.91h1.35c3.65,0,4.33-1.62,4.33-6.36v-23c0-7.58-1.89-10.82-7.17-10.82-5.95,0-8.39,4.87-8.39,14.88v18.94c0,4.74.95,6.36,5.41,6.36h.54v11.91h-41.26v-11.91h2.3c5.28,0,6.36-1.22,6.36-6.36v-27.33c0-5.14-1.08-6.36-6.36-6.36h-2.3v-11.91h34.63v7.98c6.76-7.17,14.21-10.42,23.27-10.42Z" style="fill:#7a7a7a; stroke-width:0px;"/><path d="m1020.96,774.35c-13.53,0-21.1-6.49-21.1-17.99,0-12.72,7.44-16.5,23.67-19.35,11.91-2.03,17.59-3.38,17.59-11.63,0-6.36-4.6-10.69-12.58-10.69-2.71,0-5.28.81-7.98,2.3,4.74,1.35,7.03,4.19,7.03,8.66,0,5.55-4.6,9.33-11.77,9.33-8.52,0-13.26-4.19-13.26-11.36,0-10.69,11.36-17.72,32.6-17.72,12.18,0,20.97,2.17,25.16,5.01,6.63,4.46,7.44,9.74,7.44,18.53v24.62c0,2.84.27,4.06,2.71,4.06,2.57,0,2.84-1.49,2.84-4.06v-7.71h8.93v8.39c0,13.8-5.68,19.62-20.29,19.62-7.98,0-13.66-2.84-17.72-9.06-4.6,5.82-12.85,9.06-23.27,9.06Zm5.14-20.43c0,3.65,2.84,6.36,7.03,6.36,5.01,0,8.39-3.38,8.39-9.2v-.41l-.14-8.25c-9.74,5.28-15.29,6.36-15.29,11.5Z" style="fill:#7a7a7a; stroke-width:0px;"/><path d="m1084.41,719.97v-11.77h.54c11.09,0,16.37-7.85,19.08-24.89h15.96v24.89h18.8v11.77h-18.8v34.63c0,5.14,1.49,7.58,4.73,7.58,4.6,0,5.41-4.33,5.41-14.34v-5.95h11.63v8.66c0,16.91-6.22,24.22-23.81,24.22-9.33,0-16.23-2.71-20.56-7.98-4.06-4.87-4.06-10.28-4.06-17.45v-29.36h-8.93Z" style="fill:#7a7a7a; stroke-width:0px;"/><path d="m1169.36,774.35c-13.53,0-21.1-6.49-21.1-17.99,0-12.72,7.44-16.5,23.67-19.35,11.91-2.03,17.59-3.38,17.59-11.63,0-6.36-4.6-10.69-12.58-10.69-2.71,0-5.28.81-7.98,2.3,4.73,1.35,7.03,4.19,7.03,8.66,0,5.55-4.6,9.33-11.77,9.33-8.52,0-13.26-4.19-13.26-11.36,0-10.69,11.36-17.72,32.6-17.72,12.18,0,20.97,2.17,25.16,5.01,6.63,4.46,7.44,9.74,7.44,18.53v24.62c0,2.84.27,4.06,2.71,4.06,2.57,0,2.84-1.49,2.84-4.06v-7.71h8.93v8.39c0,13.8-5.68,19.62-20.29,19.62-7.98,0-13.66-2.84-17.72-9.06-4.6,5.82-12.85,9.06-23.27,9.06Zm5.14-20.43c0,3.65,2.84,6.36,7.03,6.36,5.01,0,8.39-3.38,8.39-9.2v-.41l-.14-8.25c-9.74,5.28-15.29,6.36-15.29,11.5Z" style="fill:#7a7a7a; stroke-width:0px;"/><path d="m1250.94,773.13c-6.49,0-10.69-4.46-10.69-11.09,0-7.31,5.41-12.58,12.85-12.58,8.39,0,14.34,6.09,14.34,15.42,0,12.18-10.28,23.4-26.11,25.03v-8.52c6.63-.68,10.42-3.38,12.18-8.52-.95.14-1.76.27-2.57.27Z" style="fill:#7a7a7a; stroke-width:0px;"/><path d="m1031.77,830.21c8.39,0,14.2,2.71,17.99,8.52,6.36-5.68,13.66-8.52,21.51-8.52,16.91,0,22.19,7.17,22.19,23.67v24.35c0,5.14,1.08,6.36,6.36,6.36h1.62v11.91h-40.31v-11.91c4.87-.13,5.68-1.35,5.68-6.36v-23c0-7.44-1.76-10.82-7.03-10.82-5.95,0-8.52,4.74-8.52,14.61v19.21c0,4.74.54,6.36,4.33,6.36h1.49v11.91h-38.01v-11.91h1.35c3.65,0,4.33-1.62,4.33-6.36v-23c0-7.58-1.89-10.82-7.17-10.82-5.95,0-8.39,4.87-8.39,14.88v18.94c0,4.74.95,6.36,5.41,6.36h.54v11.91h-41.26v-11.91h2.3c5.28,0,6.36-1.22,6.36-6.36v-27.33c0-5.14-1.08-6.36-6.36-6.36h-2.3v-11.91h34.63v7.98c6.76-7.17,14.21-10.42,23.27-10.42Z" style="fill:#7a7a7a; stroke-width:0px;"/><path d="m1183.97,864.58c0,21.1-14.75,34.23-38.83,34.23s-38.69-12.85-38.69-34.23,14.48-34.36,38.56-34.36,38.96,13.26,38.96,34.36Zm-38.96-21.78c-7.85,0-9.88,6.76-9.88,21.78s2.03,21.78,10.15,21.78,9.88-6.76,9.88-21.78-2.03-21.78-10.15-21.78Z" style="fill:#7a7a7a; stroke-width:0px;"/><path d="m1240.65,830.35c9.88,0,15.96,6.36,15.96,15.69,0,8.25-5.14,13.53-12.58,13.53-6.09,0-10.55-4.33-10.55-9.88,0-3.92,1.89-6.76,5.95-8.79-1.08-.27-2.03-.41-2.98-.41-6.9,0-11.63,6.76-11.63,18.94v18.8c0,5.14,1.08,6.36,6.36,6.36h4.33v11.91h-46v-11.91h2.3c5.28,0,6.36-1.22,6.36-6.36v-27.33c0-5.14-1.08-6.36-6.36-6.36h-2.3v-11.91h34.63v6.22c4.6-5.68,10.15-8.52,16.5-8.52Z" style="fill:#7a7a7a; stroke-width:0px;"/><path d="m1312.76,830.35c9.88,0,15.96,6.36,15.96,15.69,0,8.25-5.14,13.53-12.58,13.53-6.09,0-10.55-4.33-10.55-9.88,0-3.92,1.89-6.76,5.95-8.79-1.08-.27-2.03-.41-2.98-.41-6.9,0-11.63,6.76-11.63,18.94v18.8c0,5.14,1.08,6.36,6.36,6.36h4.33v11.91h-46v-11.91h2.3c5.28,0,6.36-1.22,6.36-6.36v-27.33c0-5.14-1.08-6.36-6.36-6.36h-2.3v-11.91h34.63v6.22c4.6-5.68,10.15-8.52,16.5-8.52Z" style="fill:#7a7a7a; stroke-width:0px;"/><path d="m1370.53,898.94c-22.59,0-36.39-13.26-36.39-34.36s14.07-34.36,36.12-34.36,33.82,12.72,33.82,35.85v2.3h-42.48v1.35c0,10.82,4.74,16.64,12.99,16.64,6.9,0,11.63-4.19,13.12-12.04h16.64c-3.11,16.64-14.2,24.62-33.82,24.62Zm10.69-42.48v-.95c0-8.66-3.65-13.26-9.88-13.26s-9.74,4.87-9.74,14.21h19.62Z" style="fill:#7a7a7a; stroke-width:0px;"/><path d="m200.04,746.27c3.92,0,5.55-3.38,5.55-10.42v-.81h10.01c-.41,19.75-7.71,29.49-21.78,29.49-7.98,0-14.61-3.38-20.97-10.42-7.58,2.71-15.02,3.92-22.73,3.92-30.57,0-50.46-18.8-50.46-48.03s19.48-48.16,52.76-48.16,52.49,18.4,52.49,48.16c0,13.93-3.65,24.49-11.91,33.01,2.71,2.16,4.87,3.25,7.03,3.25Zm-49.11-34.23c6.9,0,13.39,3.79,20.02,11.23.27-3.79.27-7.71.27-11.77,0-24.22-4.6-35.85-17.99-35.85s-19.08,10.01-19.08,31.39c0,4.6.54,10.55,1.35,17.86,1.89-8.52,7.03-12.85,15.42-12.85Zm-2.3,18.4c-4.33,0-7.17,3.11-7.17,7.31,0,5.28,4.06,8.79,10.69,8.79,4.46,0,8.79-1.49,13.12-4.33-5.82-7.85-11.63-11.77-16.64-11.77Z" style="fill:#f45b69; stroke-width:0px;"/><path d="m245.23,757.77c-17.05,0-22.32-7.04-22.32-23.67v-24.35c0-5.14-1.08-6.36-6.36-6.36h-2.16v-11.91h35.17v41.26c0,7.31,2.71,10.96,8.66,10.96s10.01-4.87,10.01-12.99v-20.97c0-5.14-.95-6.36-6.22-6.36h-2.71v-11.91h35.58v45.59c0,5.14,1.08,6.36,6.36,6.36h2.84v11.91h-35.17v-9.33c-5.82,7.71-13.93,11.77-23.67,11.77Z" style="fill:#f45b69; stroke-width:0px;"/><path d="m345.48,757.77c-22.59,0-36.39-13.26-36.39-34.36s14.07-34.36,36.12-34.36,33.82,12.72,33.82,35.85v2.3h-42.48v1.35c0,10.82,4.73,16.64,12.99,16.64,6.9,0,11.63-4.19,13.12-12.04h16.64c-3.11,16.64-14.2,24.62-33.82,24.62Zm10.69-42.48v-.95c0-8.66-3.65-13.26-9.88-13.26s-9.74,4.87-9.74,14.21h19.62Z" style="fill:#f45b69; stroke-width:0px;"/><path d="m443.42,689.04c8.39,0,14.2,2.71,17.99,8.52,6.36-5.68,13.66-8.52,21.51-8.52,16.91,0,22.19,7.17,22.19,23.67v24.35c0,5.14,1.08,6.36,6.36,6.36h1.62v11.91h-40.31v-11.91c4.87-.13,5.68-1.35,5.68-6.36v-23c0-7.44-1.76-10.82-7.03-10.82-5.95,0-8.52,4.74-8.52,14.61v19.21c0,4.74.54,6.36,4.33,6.36h1.49v11.91h-38.01v-11.91h1.35c3.65,0,4.33-1.62,4.33-6.36v-23c0-7.58-1.89-10.82-7.17-10.82-5.95,0-8.39,4.87-8.39,14.88v18.94c0,4.74.95,6.36,5.41,6.36h.54v11.91h-41.26v-11.91h2.3c5.28,0,6.36-1.22,6.36-6.36v-27.33c0-5.14-1.08-6.36-6.36-6.36h-2.3v-11.91h34.63v7.98c6.76-7.17,14.2-10.42,23.27-10.42Z" style="fill:#f45b69; stroke-width:0px;"/><path d="m648.52,743.43h2.71v11.91h-42.75v-11.91h1.49c4.74,0,5.68-1.35,5.68-6.36v-23c0-7.31-2.84-10.96-8.79-10.96s-10.01,4.87-10.01,12.99v20.97c0,5.01,1.08,6.36,5.82,6.36h1.35v11.91h-43.43v-11.91h3.25c5.28,0,6.36-1.22,6.36-6.36v-27.33c0-5.14-1.08-6.36-6.36-6.36h-3.25v-11.91h35.58v9.88c5.82-7.71,13.93-11.63,23.67-11.63,17.05,0,22.46,7.04,22.46,23.67v23.67c0,5.14.95,6.36,6.22,6.36Z" style="fill:#f45b69; stroke-width:0px;"/><path d="m675.57,757.63c-13.53,0-21.1-6.49-21.1-17.99,0-12.72,7.44-16.5,23.67-19.35,11.91-2.03,17.59-3.38,17.59-11.63,0-6.36-4.6-10.69-12.58-10.69-2.71,0-5.28.81-7.98,2.3,4.74,1.35,7.03,4.19,7.03,8.66,0,5.55-4.6,9.33-11.77,9.33-8.52,0-13.26-4.19-13.26-11.36,0-10.69,11.36-17.72,32.6-17.72,12.18,0,20.97,2.17,25.16,5.01,6.63,4.46,7.44,9.74,7.44,18.53v24.62c0,2.84.27,4.06,2.71,4.06,2.57,0,2.84-1.49,2.84-4.06v-7.71h8.93v8.39c0,13.8-5.68,19.62-20.29,19.62-7.98,0-13.66-2.84-17.72-9.06-4.6,5.82-12.85,9.06-23.27,9.06Zm-6.09-77.11c2.3-12.45,7.71-18.67,16.23-18.67,1.76,0,3.52.27,5.55.81l8.39,2.17c1.22.27,2.44.54,3.25.54,3.52,0,5.28-2.03,6.63-6.49h5.82c-2.44,12.45-7.98,18.67-15.96,18.67-1.49,0-3.11-.27-4.87-.68l-8.12-2.3c-1.76-.41-3.11-.68-4.06-.68-3.65,0-6.09,2.3-7.03,6.63h-5.82Zm11.23,56.68c0,3.65,2.84,6.36,7.03,6.36,5.01,0,8.39-3.38,8.39-9.2v-.41l-.14-8.25c-9.74,5.28-15.29,6.36-15.29,11.5Z" style="fill:#f45b69; stroke-width:0px;"/><path d="m818.7,723.41c0,21.1-14.75,34.23-38.83,34.23s-38.69-12.85-38.69-34.23,14.48-34.36,38.56-34.36,38.96,13.26,38.96,34.36Zm-38.96-21.78c-7.85,0-9.88,6.76-9.88,21.78s2.03,21.78,10.15,21.78,9.88-6.76,9.88-21.78-2.03-21.78-10.15-21.78Z" style="fill:#f45b69; stroke-width:0px;"/><path d="m925.99,689.04c8.39,0,14.2,2.71,17.99,8.52,6.36-5.68,13.66-8.52,21.51-8.52,16.91,0,22.19,7.17,22.19,23.67v24.35c0,5.14,1.08,6.36,6.36,6.36h1.62v11.91h-40.31v-11.91c4.87-.13,5.68-1.35,5.68-6.36v-23c0-7.44-1.76-10.82-7.03-10.82-5.95,0-8.52,4.74-8.52,14.61v19.21c0,4.74.54,6.36,4.33,6.36h1.49v11.91h-38.01v-11.91h1.35c3.65,0,4.33-1.62,4.33-6.36v-23c0-7.58-1.89-10.82-7.17-10.82-5.95,0-8.39,4.87-8.39,14.88v18.94c0,4.74.95,6.36,5.41,6.36h.54v11.91h-41.26v-11.91h2.3c5.28,0,6.36-1.22,6.36-6.36v-27.33c0-5.14-1.08-6.36-6.36-6.36h-2.3v-11.91h34.63v7.98c6.76-7.17,14.21-10.42,23.27-10.42Z" style="fill:#f45b69; stroke-width:0px;"/><path d="m1020.96,757.63c-13.53,0-21.1-6.49-21.1-17.99,0-12.72,7.44-16.5,23.67-19.35,11.91-2.03,17.59-3.38,17.59-11.63,0-6.36-4.6-10.69-12.58-10.69-2.71,0-5.28.81-7.98,2.3,4.74,1.35,7.03,4.19,7.03,8.66,0,5.55-4.6,9.33-11.77,9.33-8.52,0-13.26-4.19-13.26-11.36,0-10.69,11.36-17.72,32.6-17.72,12.18,0,20.97,2.17,25.16,5.01,6.63,4.46,7.44,9.74,7.44,18.53v24.62c0,2.84.27,4.06,2.71,4.06,2.57,0,2.84-1.49,2.84-4.06v-7.71h8.93v8.39c0,13.8-5.68,19.62-20.29,19.62-7.98,0-13.66-2.84-17.72-9.06-4.6,5.82-12.85,9.06-23.27,9.06Zm5.14-20.43c0,3.65,2.84,6.36,7.03,6.36,5.01,0,8.39-3.38,8.39-9.2v-.41l-.14-8.25c-9.74,5.28-15.29,6.36-15.29,11.5Z" style="fill:#f45b69; stroke-width:0px;"/><path d="m1084.41,703.25v-11.77h.54c11.09,0,16.37-7.85,19.08-24.89h15.96v24.89h18.8v11.77h-18.8v34.63c0,5.14,1.49,7.58,4.73,7.58,4.6,0,5.41-4.33,5.41-14.34v-5.95h11.63v8.66c0,16.91-6.22,24.22-23.81,24.22-9.33,0-16.23-2.71-20.56-7.98-4.06-4.87-4.06-10.28-4.06-17.45v-29.36h-8.93Z" style="fill:#f45b69; stroke-width:0px;"/><path d="m1169.36,757.63c-13.53,0-21.1-6.49-21.1-17.99,0-12.72,7.44-16.5,23.67-19.35,11.91-2.03,17.59-3.38,17.59-11.63,0-6.36-4.6-10.69-12.58-10.69-2.71,0-5.28.81-7.98,2.3,4.73,1.35,7.03,4.19,7.03,8.66,0,5.55-4.6,9.33-11.77,9.33-8.52,0-13.26-4.19-13.26-11.36,0-10.69,11.36-17.72,32.6-17.72,12.18,0,20.97,2.17,25.16,5.01,6.63,4.46,7.44,9.74,7.44,18.53v24.62c0,2.84.27,4.06,2.71,4.06,2.57,0,2.84-1.49,2.84-4.06v-7.71h8.93v8.39c0,13.8-5.68,19.62-20.29,19.62-7.98,0-13.66-2.84-17.72-9.06-4.6,5.82-12.85,9.06-23.27,9.06Zm5.14-20.43c0,3.65,2.84,6.36,7.03,6.36,5.01,0,8.39-3.38,8.39-9.2v-.41l-.14-8.25c-9.74,5.28-15.29,6.36-15.29,11.5Z" style="fill:#f45b69; stroke-width:0px;"/><path d="m1250.94,756.42c-6.49,0-10.69-4.46-10.69-11.09,0-7.31,5.41-12.58,12.85-12.58,8.39,0,14.34,6.09,14.34,15.42,0,12.18-10.28,23.4-26.11,25.03v-8.52c6.63-.68,10.42-3.38,12.18-8.52-.95.14-1.76.27-2.57.27Z" style="fill:#f45b69; stroke-width:0px;"/><path d="m1031.77,813.49c8.39,0,14.2,2.71,17.99,8.52,6.36-5.68,13.66-8.52,21.51-8.52,16.91,0,22.19,7.17,22.19,23.67v24.35c0,5.14,1.08,6.36,6.36,6.36h1.62v11.91h-40.31v-11.91c4.87-.13,5.68-1.35,5.68-6.36v-23c0-7.44-1.76-10.82-7.03-10.82-5.95,0-8.52,4.74-8.52,14.61v19.21c0,4.74.54,6.36,4.33,6.36h1.49v11.91h-38.01v-11.91h1.35c3.65,0,4.33-1.62,4.33-6.36v-23c0-7.58-1.89-10.82-7.17-10.82-5.95,0-8.39,4.87-8.39,14.88v18.94c0,4.74.95,6.36,5.41,6.36h.54v11.91h-41.26v-11.91h2.3c5.28,0,6.36-1.22,6.36-6.36v-27.33c0-5.14-1.08-6.36-6.36-6.36h-2.3v-11.91h34.63v7.98c6.76-7.17,14.21-10.42,23.27-10.42Z" style="fill:#f45b69; stroke-width:0px;"/><path d="m1183.97,847.86c0,21.1-14.75,34.23-38.83,34.23s-38.69-12.85-38.69-34.23,14.48-34.36,38.56-34.36,38.96,13.26,38.96,34.36Zm-38.96-21.78c-7.85,0-9.88,6.76-9.88,21.78s2.03,21.78,10.15,21.78,9.88-6.76,9.88-21.78-2.03-21.78-10.15-21.78Z" style="fill:#f45b69; stroke-width:0px;"/><path d="m1240.65,813.63c9.88,0,15.96,6.36,15.96,15.69,0,8.25-5.14,13.53-12.58,13.53-6.09,0-10.55-4.33-10.55-9.88,0-3.92,1.89-6.76,5.95-8.79-1.08-.27-2.03-.41-2.98-.41-6.9,0-11.63,6.76-11.63,18.94v18.8c0,5.14,1.08,6.36,6.36,6.36h4.33v11.91h-46v-11.91h2.3c5.28,0,6.36-1.22,6.36-6.36v-27.33c0-5.14-1.08-6.36-6.36-6.36h-2.3v-11.91h34.63v6.22c4.6-5.68,10.15-8.52,16.5-8.52Z" style="fill:#f45b69; stroke-width:0px;"/><path d="m1312.76,813.63c9.88,0,15.96,6.36,15.96,15.69,0,8.25-5.14,13.53-12.58,13.53-6.09,0-10.55-4.33-10.55-9.88,0-3.92,1.89-6.76,5.95-8.79-1.08-.27-2.03-.41-2.98-.41-6.9,0-11.63,6.76-11.63,18.94v18.8c0,5.14,1.08,6.36,6.36,6.36h4.33v11.91h-46v-11.91h2.3c5.28,0,6.36-1.22,6.36-6.36v-27.33c0-5.14-1.08-6.36-6.36-6.36h-2.3v-11.91h34.63v6.22c4.6-5.68,10.15-8.52,16.5-8.52Z" style="fill:#f45b69; stroke-width:0px;"/><path d="m1370.53,882.22c-22.59,0-36.39-13.26-36.39-34.36s14.07-34.36,36.12-34.36,33.82,12.72,33.82,35.85v2.3h-42.48v1.35c0,10.82,4.74,16.64,12.99,16.64,6.9,0,11.63-4.19,13.12-12.04h16.64c-3.11,16.64-14.2,24.62-33.82,24.62Zm10.69-42.48v-.95c0-8.66-3.65-13.26-9.88-13.26s-9.74,4.87-9.74,14.21h19.62Z" style="fill:#f45b69; stroke-width:0px;"/></svg>