<?xml version="1.0" encoding="UTF-8"?><svg id="a" xmlns="http://www.w3.org/2000/svg" xmlns:xlink="http://www.w3.org/1999/xlink" viewBox="0 0 1536 1024"><defs><filter id="b" filterUnits="userSpaceOnUse"><feOffset dx="4.57" dy="4.57"/><feGaussianBlur result="c" stdDeviation="0"/><feFlood flood-color="#000" flood-opacity="1"/><feComposite in2="c" operator="in"/><feComposite in="SourceGraphic"/></filter><filter id="d" filterUnits="userSpaceOnUse"><feOffset dx="7.8" dy="7.8"/><feGaussianBlur result="e" stdDeviation="0"/><feFlood flood-color="#000" flood-opacity="1"/><feComposite in2="e" operator="in"/><feComposite in="SourceGraphic"/></filter><filter id="f" filterUnits="userSpaceOnUse"><feOffset dx="7.8" dy="7.8"/><feGaussianBlur result="g" stdDeviation="0"/><feFlood flood-color="#000" flood-opacity="1"/><feComposite in2="g" operator="in"/><feComposite in="SourceGraphic"/></filter></defs><g style="filter:url(#b);"><path d="m682.62,704.65c-3.92,6.96-9.75,11.65-17.43,13.88-5.99,1.74-12.03,3.3-18.06,4.9-5.14,1.37-10.16.92-15-1.27-3.21-1.45-6.1-3.41-8.74-5.74-4.24-3.74-7.83-8.06-11.43-12.7.56-.65,1-1.4,1.65-1.88,4.31-3.21,8.63-6.4,13.02-9.51.99-.7,2.21-1.16,3.39-1.5,3.71-1.08,7.46-2.03,11.19-3.06.83-.23,1.63-.58,2.64-.94-.53-.97-.89-1.9-1.48-2.64-3.1-3.92-6.17-7.87-9.42-11.66-3.85-4.48-7.32-9.17-9.98-14.46-4.19-8.37-5.87-17.22-5.13-26.53.26-3.26,1.15-6.38,2.46-9.38,2.15-4.91,5.8-8.01,10.99-9.37,5.67-1.49,11.31-3.09,16.98-4.56,1.8-.47,3.66-.82,5.52-.96,5.94-.45,11.7.52,17.32,2.42.45.15.85.49,1.24.72.08.45.29.85.2,1.17-1.7,6.24-3.44,12.48-5.22,18.91-4.5,1.27-9.04,2.55-13.82,3.91.23,1.13.3,2.11.63,2.99,1.54,4.14,3.85,7.86,6.67,11.23,3.53,4.22,7.21,8.31,10.74,12.53,2.32,2.78,4.64,5.58,6.71,8.54,4.31,6.16,6.76,13.08,7.54,20.54.53,5.12-.66,9.96-3.17,14.42Zm.9-13.64c-.44-5.41-1.88-10.57-4.4-15.39-2.16-4.12-4.84-7.87-7.91-11.35-2.15-2.44-4.37-4.81-6.47-7.3-2.66-3.15-5.33-6.3-7.78-9.62-2.53-3.42-4.61-7.15-5.63-11.34-.29-1.2-.47-2.46-.45-3.69.05-3,1.57-4.89,4.46-5.73,1.84-.54,3.71-.43,5.57-.07,1.56.3,3.1.66,4.81,1.02,1.36-5.23,2.66-10.26,4.05-15.64-5.86-1.94-11.4-2.73-17.05-2.1-6.1.68-10.48,3.83-12.53,9.78-.61,1.76-1.1,3.58-1.48,5.4-1.07,5.24-.58,10.46.51,15.63,1.77,8.36,5.69,15.69,11.07,22.27,1.66,2.03,3.44,3.96,5.15,5.95,3.02,3.51,5.95,7.08,8.33,11.07,1.49,2.49,2.72,5.08,3.25,7.93.83,4.45-.6,8.15-4.1,10.98-1.88,1.53-4.07,2.04-6.29.89-1.53-.79-3.06-1.75-4.29-2.94-1.7-1.64-3.1-3.58-4.65-5.37-.47-.54-1-1.03-1.47-1.5-3.34,1.83-10.2,6.84-12.54,9.13.15.3.24.69.47.94,2.86,3.14,5.63,6.36,8.64,9.35,2.58,2.56,5.68,4.49,9.06,5.89,4.31,1.78,8.75,2.18,13.18.73,7.49-2.44,13.06-7.2,16.44-14.37,1.57-3.32,2.35-6.88,2.05-10.56Z" style="fill:#44bba4; stroke-width:0px;"/><path d="m775,675.99c.09,7.48-1.83,16.28-6.93,24.22-2.38,3.7-5.07,7.12-8.49,9.95-2.74,2.27-5.79,3.9-9.21,4.87-5.76,1.65-11.5,3.39-17.29,4.95-12.25,3.3-23.3,1.02-32.8-7.55-9.02-8.14-14.75-18.22-16.83-30.22-1.2-6.95-1-13.97-.05-20.94,1.1-8.09,3.23-15.91,6.59-23.37,2.16-4.81,4.77-9.35,8.13-13.43,4.09-4.96,9.06-8.49,15.39-10.11,5.08-1.3,10.1-2.84,15.1-4.42,6.38-2.02,12.32-1.08,17.99,2.3,4.03,2.4,7.41,5.52,10.26,9.23,5.69,7.41,9.85,15.62,12.87,24.44,3.14,9.16,5.26,18.5,5.28,30.09Zm-2.32-2.05c.16-4.67-.59-9.49-1.56-14.27-2.39-11.75-6.58-22.8-13.29-32.8-1.66-2.48-3.58-4.82-5.58-7.05-2.44-2.72-5.39-4.84-8.69-6.44-5.41-2.62-10.84-2.63-16.28-.12-2.52,1.16-4.75,2.75-6.76,4.66-4.9,4.65-8.24,10.34-10.95,16.44-3.69,8.3-5.88,17.02-6.63,26.04-.52,6.24-.51,12.5.89,18.67,2.18,9.66,6.93,17.9,13.93,24.85,4.81,4.77,10.38,8.28,17.19,9.33,11.19,1.73,20.77-.93,28.08-10.17,6.73-8.51,9.81-18.15,9.66-29.15Zm-62.98-78.22c2.63-6.6,5.38-13.15,8.08-19.72.45-1.08,1.12-1.88,2.33-2.23,5.51-1.59,10.99-3.25,16.51-4.81.65-.18,1.58-.14,2.14.2,3.83,2.32,7.7,4.59,11.4,7.71-.41,1.01-.67,1.7-.96,2.37-2.72,6.29-5.52,12.55-8.14,18.88-.84,2.03-1.97,3.19-4.17,3.74-4.59,1.14-9.13,2.51-13.64,3.96-1.88.6-3.33.31-4.87-.83-2.4-1.78-4.95-3.36-7.39-5.11-1.78-1.27-2.11-2.12-1.3-4.17Zm49.09,72.29c.53,3.89.1,7.74-1.08,11.48-2.36,7.47-8.29,12.03-16.08,12.41-3.14.15-6.23-.07-9.22-1.2-8.86-3.35-13.47-9.96-14.59-19.15-.27-2.22-.04-4.49-.04-6.74-.17-5.78.46-11.48,2.24-16.99.61-1.89,1.37-3.76,2.26-5.53,5.05-9.99,17.46-10.45,24.18-5.5,2.15,1.58,3.83,3.55,5.22,5.82,2.45,3.99,4.05,8.32,5.01,12.85.88,4.15,1.52,8.35,2.1,12.55Zm-20.76-1.41c-.87-4.66-1.77-9.33-3.83-13.64-1.07-2.24-2.35-4.41-3.8-6.41-1.31-1.81-3.02-3.31-5.45-3.82-1.89,2.32-2.63,5.1-3.36,7.85-1.84,6.95-2.07,14.06-1.53,21.18.28,3.67,1.66,7.04,3.86,10,2.78,3.74,6.49,6.07,11.14,7.12.45-.54.92-.96,1.22-1.48,1.61-2.74,2.45-5.71,2.6-8.88.19-4.01-.13-7.98-.86-11.92Zm-8.28-74.32c3.5,3.06,6.44,4.93,8.67,5.48,2.88-6.72,5.77-13.44,8.75-20.38-3.17-1.93-5.89-4.28-9.22-5.65-2.76,4.79-7.75,17.34-8.2,20.55Z" style="fill:#44bba4; stroke-width:0px;"/></g><g style="filter:url(#d);"><path d="m252.32,710.99c-4.71,18.24-16.39,30.08-34.28,35.59-9.77,3.01-19.77,5.23-29.6,8.06-9.49,2.73-18.59,1.66-27.45-2.23-9.02-3.96-16.17-10.3-21.98-18.15-8.19-11.05-12.66-23.62-14.71-37.11-2.13-14.03-1.54-28.1-.68-42.18.63-10.44,1.42-20.88,1.78-31.33.53-15.24-1.09-30.26-5.64-44.89-.31-.99-.44-2.04-.81-3.85,5.89-1.66,11.18-3.18,16.5-4.65q15.92-4.4,32.74-4.12c4.06.07,8.12.13,12.16.4,2.95.2,3.55.91,4.23,3.84.29,1.24.55,2.49.84,3.72.05.2.2.37.57,1,1.43-.19,3.09-.25,4.66-.66,6.39-1.67,12.77-3.36,19.11-5.21,4.36-1.27,8.73-1.78,13.27-1.54,6.82.36,13.66.45,20.49.71,4.65.17,5.27,1.03,4.48,5.37-.87,4.82-1.69,9.66-2.38,14.51-1.22,8.51-.89,17.02-.18,25.56,1.29,15.55,4.18,30.86,6.41,46.28,1.22,8.44,2.09,16.95,2.71,25.46.63,8.56-.1,17.11-2.25,25.42Zm-3.11-41.76c-2.01-14.8-4.55-29.52-6.5-44.32-2.1-15.93-2.77-31.9.54-47.8.29-1.37.16-2.83.24-4.63h-24.82c-.37.81-.67,1.18-.69,1.56-.14,2.77-.24,5.54-.32,8.32-.66,25.23,1.97,50.33,3.23,75.48.61,12.19.78,24.32-.6,36.45-.58,5.11-1.67,10.08-3.89,14.78-2.58,5.46-6.17,6.1-11,5.47-2.43-.32-4.28-1.83-5.94-3.53-2.73-2.79-4.52-6.18-6.02-9.74-3.34-7.93-5.11-16.27-6.29-24.74-1.71-12.28-2.34-24.64-2.67-37.02-.25-9.39-.4-18.78-.82-28.17-.49-10.87-1.21-21.74-1.85-32.6-.15-2.53-.44-5.04-1.46-7.65-8.37-.43-16.58-1.02-25.19-.87.45,2.12.74,3.78,1.15,5.4,2.61,10.4,3.81,20.95,3.97,31.68.23,15.83-1.16,31.57-2.16,47.33-.83,13.05-.64,26.04,2.03,38.89,2.38,11.43,6.71,22.02,13.99,31.26,5.65,7.17,12.51,12.8,21.09,16.16,10.57,4.14,20.86,3.58,30.78-2.04,14-7.92,21.72-19.93,23.92-35.83,1.57-11.35.79-22.6-.74-33.82Z" style="fill:#f45b69; stroke-width:0px;"/><path d="m365.81,742.3c-.32,2.98-1.7,4.61-4.52,5.4-8.82,2.49-17.6,5.14-26.44,7.58-2.02.56-4.22.71-6.33.7-18.36-.15-36.72-.33-55.07-.6-9.61-.14-9.99-.7-11.54-10.49-3.01-19.03-4.21-38.17-4.09-57.41.14-21.14.07-42.28.54-63.4.22-9.79,1.39-19.57,2.4-29.33.33-3.14,1.45-6.22,2.34-9.28,1.09-3.74,3.63-6.21,7.23-7.59,1.59-.61,3.23-1.08,4.87-1.56,8.8-2.58,17.6-5.14,26.4-7.72,5.35-1.57,10.8-2.58,16.39-2.42,10.03.28,20.05.6,30.08,1.02,4.4.19,5.5,1.36,6,5.83,1.15,10.39,2.29,20.78,3.4,31.18.4,3.77-.26,4.81-4.1,5.98-6.52,1.99-13.1,3.83-19.64,5.77-2.01.6-3.99,1.29-6.16,2-.44,6.18.14,12.08.84,18.36,2.11.13,3.98.31,5.86.35,6.62.13,13.24.12,19.85.32,7.09.22,8.13,1.24,8.91,8.07.78,6.78,1.55,13.57,2.31,20.35.14,1.27.23,2.55.27,3.83.17,4.92-.22,5.57-4.72,6.88-10.02,2.92-20.06,5.77-30.45,8.75-1.07,3.72-.25,7.74-.12,11.72.13,3.8.49,7.6.77,11.72,1.77.2,3.19.47,4.62.51,7.47.22,14.94.37,22.41.55,1.71.04,3.42.05,5.11.23,1.92.21,3.01,1.46,3.44,3.29.14.62.21,1.27.21,1.9.1,9.19-.08,18.35-1.07,27.5Zm-90.53-195.63c.45-1.61.75-3.29,1.36-4.84,4.25-10.68,8.65-21.31,12.83-32.02,1.51-3.87,3.84-6.19,8.04-7.23,7.64-1.89,15.17-4.24,22.69-6.57,3.33-1.03,6.13-.68,9,1.37,4.16,2.97,8.57,5.58,12.79,8.47,4.6,3.14,4.76,3.94,2.59,8.94-4.14,9.57-8.27,19.16-12.39,28.74-.84,1.96-1.64,3.93-2.39,5.92-.73,1.94-2.03,3.11-4.06,3.69-8.8,2.5-17.58,5.1-26.38,7.63-2.1.6-4.14.7-6.11-.68-5.4-3.8-10.88-7.5-16.28-11.29-.66-.46-1.05-1.29-1.71-2.13Zm87.71,169.38c-.02-.76-.54-1.51-.9-2.45-2.71-.08-5.26-.18-7.81-.21-6.4-.08-12.8-.11-19.2-.19-1.49-.02-3-.05-4.45-.34-1.8-.36-3.05-1.5-3.34-3.42-.16-1.05-.25-2.12-.29-3.18-.38-9.16-.79-18.33-1.08-27.5-.23-7.37.16-7.75,7.27-7.73,8.11.03,16.21.17,24.32.19,1.38,0,2.76-.42,4.37-.68-.49-5.08-.77-9.76-1.43-14.39-.68-4.77-.51-9.72-2.36-14.61-2.73-.06-5.27-.09-7.82-.17-6.82-.2-13.65-.34-20.47-.68-4.16-.21-5.11-.95-5.36-4.82-.57-8.72-.92-17.47-1.18-26.21-.09-3.08,1.07-4.05,4.33-4.26,1.7-.11,3.41-.05,5.12-.02,5.54.08,11.09.21,16.64.24,1.21,0,2.42-.37,3.56-.56.31-6.12-2.03-27.88-3.6-33.43-1.1-.14-2.33-.39-3.57-.44-6.61-.29-13.22-.51-19.82-.8-5.99-.26-11.96-.02-17.87.95-8.55,1.41-10.83,3.65-12.74,11.99-.09.42-.17.84-.21,1.26-.82,7.63-2.02,15.24-2.35,22.88-.54,12.79-.36,25.6-.75,38.39-.78,25.4-.82,50.77,1.94,76.07.71,6.54,1.39,13.1,3.25,19.68,5.35,1.23,10.7.91,15.99,1.12,5.33.22,10.66.23,16,.26,5.55.04,11.1.08,16.64-.04,5.26-.11,10.57.62,15.85-.48,1.33-8.96,1.57-17.68,1.33-26.43Zm-52.85-178.59c5.18,3.46,10.04,7.14,15.67,10.54,5.38-12.63,10.58-24.85,15.91-37.38-5.49-3.91-10.81-7.59-16.91-10.83-2.28,4.21-3.92,8.33-5.58,12.43-1.67,4.14-3.43,8.24-4.92,12.44-1.47,4.13-3.85,7.99-4.17,12.8Z" style="fill:#f45b69; stroke-width:0px;"/><path d="m407.97,778.64c-1.87,1.47-4.14,2.63-6.41,3.34-7.46,2.32-15.04,4.28-22.52,6.57-3.52,1.08-6.86,1.18-10.08-.63-3.71-2.1-6.78-4.9-8.42-8.95-1.04-2.57-.73-5.14.47-7.58.76-1.54,1.66-3.02,2.7-4.88-1.09-1-1.87-1.67-2.6-2.4-2.77-2.78-3.84-6.23-3.47-10.02.45-4.52,1.62-8.89,3.73-12.96,2.02-3.89,5.02-6.57,9.31-7.79,7.52-2.13,15.01-4.37,22.53-6.54,7.45-2.15,12.32.95,14.94,5.4,4.8,8.17,8.26,16.87,8.95,26.43.6,8.28-2.69,14.95-9.13,20Zm5.31-25.34c-1.28-5.62-3.3-11-5.87-16.16-.62-1.24-1.32-2.46-2.12-3.59-2.36-3.38-5.69-4.45-9.62-3.72-2.95.55-4.92,2.54-6.38,5-2.26,3.79-3.43,7.98-3.87,12.35-.36,3.57.8,6.48,3.81,8.61,1.11.79,2.08,1.77,3.5,3-1.57,2.56-2.85,4.61-4.1,6.68-1.54,2.55-1.22,4.99.52,7.3.52.69,1.1,1.35,1.71,1.97,5.2,5.22,10,5.45,15.65.74,7.08-5.91,8.75-13.52,6.77-22.17Z" style="fill:#f45b69; stroke-width:0px;"/></g><g style="filter:url(#f);"><path d="m990.73,738.83c.02,2.08-.44,4.17-.7,6.44-6.86,1.92-13.39,3.78-19.94,5.56q-13.36,3.62-27.7,3.24c-5.94-.15-11.88-.35-18.18-.54-.45-1.89-.97-3.48-1.2-5.11-2.26-15.85-3.53-31.8-3.68-47.8-.22-23.25-.04-46.51-.33-69.75-.25-20.26-1.15-40.5-4.52-60.87,1.02-.59,2.01-1.46,3.14-1.77,9.02-2.49,18.07-4.91,27.13-7.27,1.63-.42,3.36-.68,5.04-.67,8.53,0,17.07.09,25.6.24,1.65.03,3.3.46,5.31.76.21,1.94.6,3.59.52,5.22-.71,15.16.09,30.29,1,45.41.73,12.13,2.07,24.22,3.18,36.32,1.01,11.04,2.15,22.07,3.11,33.12.68,7.86,1.42,15.73,1.7,23.61.4,11.29.44,22.59.53,33.89Zm-3.67-11.07c.04-26.31-3.04-52.4-5.53-78.54-1.09-11.47-2.31-22.94-3.07-34.44-1-15.12-1.71-30.27-1.31-45.45.03-1.21-.19-2.42-.32-4.05-8.24-.24-16.1-.5-23.95-.68-.78-.02-1.57.42-2.37.66,0,1.06-.1,1.91.01,2.74,1.86,13.12,3.01,26.31,3.18,39.55.28,21.56.22,43.13.25,64.7.02,18.8.92,37.56,2.64,56.28.37,3.99,1.07,7.95,1.6,11.75,4.98,1.02,23.39,1.41,27.99.62.22-1.1.61-2.31.67-3.53.15-3.2.21-6.4.22-9.6Z" style="fill:#3a7ca5; stroke-width:0px;"/><path d="m1107.22,728.18c-6.7,11.87-16.64,19.88-29.74,23.68-10.22,2.97-20.53,5.63-30.82,8.37-8.78,2.33-17.33,1.57-25.6-2.17-5.48-2.48-10.41-5.81-14.92-9.8-7.23-6.39-13.37-13.75-19.51-21.68.95-1.11,1.71-2.39,2.81-3.21,7.35-5.48,14.74-10.93,22.22-16.23,1.69-1.2,3.77-1.98,5.78-2.57,6.34-1.84,12.73-3.47,19.09-5.23,1.42-.39,2.79-.99,4.51-1.61-.91-1.65-1.53-3.24-2.53-4.51-5.29-6.69-10.52-13.43-16.08-19.9-6.56-7.64-12.5-15.65-17.03-24.68-7.16-14.29-10.02-29.38-8.76-45.27.44-5.57,1.96-10.88,4.2-16.01,3.67-8.38,9.9-13.67,18.75-15.98,9.68-2.54,19.3-5.27,28.99-7.78,3.08-.8,6.25-1.4,9.42-1.64,10.13-.76,19.97.88,29.55,4.13.77.26,1.44.83,2.12,1.24.14.77.49,1.46.34,2-2.9,10.66-5.87,21.3-8.91,32.27-7.68,2.17-15.43,4.36-23.59,6.67.39,1.93.52,3.59,1.08,5.1,2.63,7.07,6.57,13.41,11.38,19.17,6.02,7.21,12.3,14.19,18.33,21.38,3.97,4.74,7.91,9.52,11.45,14.58,7.36,10.51,11.54,22.32,12.87,35.06.91,8.74-1.12,17-5.41,24.61Zm1.54-23.28c-.75-9.23-3.2-18.04-7.52-26.27-3.68-7.03-8.26-13.44-13.51-19.37-3.67-4.16-7.47-8.21-11.04-12.45-4.53-5.38-9.09-10.76-13.27-16.41-4.32-5.84-7.87-12.2-9.6-19.36-.5-2.05-.81-4.2-.77-6.3.08-5.12,2.67-8.34,7.61-9.78,3.14-.91,6.33-.73,9.5-.11,2.66.52,5.29,1.12,8.21,1.74,2.31-8.93,4.54-17.51,6.92-26.69-10-3.3-19.45-4.67-29.09-3.59-10.4,1.17-17.88,6.53-21.39,16.69-1.04,3.01-1.88,6.1-2.52,9.22-1.83,8.94-1,17.85.86,26.67,3.02,14.27,9.7,26.78,18.89,38.01,2.84,3.47,5.87,6.77,8.79,10.16,5.15,5.99,10.15,12.09,14.22,18.89,2.54,4.24,4.63,8.68,5.55,13.54,1.42,7.6-1.02,13.9-7.01,18.75-3.22,2.6-6.94,3.48-10.74,1.52-2.62-1.35-5.22-2.99-7.32-5.02-2.9-2.8-5.3-6.11-7.94-9.17-.8-.93-1.71-1.76-2.5-2.56-5.7,3.13-17.4,11.67-21.4,15.59.25.51.4,1.17.8,1.61,4.88,5.35,9.61,10.86,14.75,15.95,4.41,4.37,9.69,7.67,15.47,10.06,7.35,3.04,14.92,3.72,22.5,1.25,12.78-4.17,22.29-12.29,28.06-24.52,2.67-5.67,4.01-11.75,3.5-18.02Z" style="fill:#3a7ca5; stroke-width:0px;"/><path d="m1224.17,728.18c-6.7,11.87-16.64,19.88-29.74,23.68-10.22,2.97-20.53,5.63-30.82,8.37-8.78,2.33-17.33,1.57-25.6-2.17-5.48-2.48-10.41-5.81-14.92-9.8-7.23-6.39-13.37-13.75-19.51-21.68.95-1.11,1.71-2.39,2.81-3.21,7.35-5.48,14.74-10.93,22.22-16.23,1.69-1.2,3.77-1.98,5.78-2.57,6.34-1.84,12.73-3.47,19.09-5.23,1.42-.39,2.79-.99,4.51-1.61-.91-1.65-1.53-3.24-2.53-4.51-5.29-6.69-10.52-13.43-16.08-19.9-6.56-7.64-12.5-15.65-17.03-24.68-7.16-14.29-10.02-29.38-8.76-45.27.44-5.57,1.96-10.88,4.2-16.01,3.67-8.38,9.9-13.67,18.75-15.98,9.68-2.54,19.3-5.27,28.99-7.78,3.08-.8,6.25-1.4,9.42-1.64,10.13-.76,19.97.88,29.55,4.13.77.26,1.44.83,2.12,1.24.14.77.49,1.46.34,2-2.9,10.66-5.87,21.3-8.91,32.27-7.68,2.17-15.43,4.36-23.59,6.67.39,1.93.52,3.59,1.08,5.1,2.63,7.07,6.57,13.41,11.38,19.17,6.02,7.21,12.3,14.19,18.33,21.38,3.97,4.74,7.91,9.52,11.45,14.58,7.36,10.51,11.54,22.32,12.87,35.06.91,8.74-1.12,17-5.41,24.61Zm1.54-23.28c-.75-9.23-3.2-18.04-7.52-26.27-3.68-7.03-8.26-13.44-13.51-19.37-3.67-4.16-7.47-8.21-11.04-12.45-4.53-5.38-9.09-10.76-13.27-16.41-4.32-5.84-7.87-12.2-9.6-19.36-.5-2.05-.81-4.2-.77-6.3.08-5.12,2.67-8.34,7.61-9.78,3.14-.91,6.33-.73,9.5-.11,2.66.52,5.29,1.12,8.21,1.74,2.31-8.93,4.54-17.51,6.92-26.69-10-3.3-19.45-4.67-29.09-3.59-10.4,1.17-17.88,6.53-21.39,16.69-1.04,3.01-1.88,6.1-2.52,9.22-1.83,8.94-1,17.85.86,26.67,3.02,14.27,9.7,26.78,18.89,38.01,2.84,3.47,5.87,6.77,8.79,10.16,5.15,5.99,10.15,12.09,14.22,18.89,2.54,4.24,4.63,8.68,5.55,13.54,1.42,7.6-1.02,13.9-7.01,18.75-3.22,2.6-6.94,3.48-10.74,1.52-2.62-1.35-5.22-2.99-7.32-5.02-2.9-2.8-5.3-6.11-7.94-9.17-.8-.93-1.71-1.76-2.5-2.56-5.7,3.13-17.4,11.67-21.4,15.59.25.51.4,1.17.8,1.61,4.88,5.35,9.61,10.86,14.75,15.95,4.41,4.37,9.69,7.67,15.47,10.06,7.35,3.04,14.92,3.72,22.5,1.25,12.78-4.17,22.29-12.29,28.06-24.52,2.67-5.67,4.01-11.75,3.5-18.02Z" style="fill:#3a7ca5; stroke-width:0px;"/><path d="m1379.05,686.84c-.16,20.52-8.09,37.34-23.07,51.02-5.62,5.13-12.2,8.53-19.52,10.51-9.45,2.56-18.87,5.25-28.38,7.58-4.95,1.21-10.02,2.27-15.09,2.54-12.75.68-24.59-2.66-34.99-10.05-19.62-13.93-31.53-32.64-34.02-56.88-.81-7.91.2-15.78,1.24-23.6,2.41-18.23,6.89-36,12.64-53.44,2.2-6.66,4.84-13.22,7.9-19.53,5.61-11.56,14.68-19.03,27.4-22.08,9.72-2.33,19.28-5.37,28.99-7.77,17.21-4.25,31.53.84,43.04,14.11,3.94,4.55,6.89,9.8,9.09,15.36,3.76,9.51,7.48,19.05,10.7,28.74,4.77,14.36,9.23,28.85,11.69,43.82,1.07,6.51,1.61,13.1,2.39,19.66Zm-3.88-.68c-.73-6.13-1.22-12.3-2.25-18.38-2.61-15.37-7.33-30.21-12.07-45.02-3.18-9.95-6.69-19.78-11.25-29.2-2.24-4.63-4.84-9.01-8.28-12.86-17.17-19.23-47.54-16.89-60.02,6.1-2.03,3.73-3.77,7.64-5.37,11.58-4.11,10.09-6.9,20.6-9.65,31.11-3.61,13.84-6.29,27.85-7.17,42.16-.41,6.62-.25,13.2,1.13,19.73,3.54,16.75,12.54,30.14,25.39,41.11,8.47,7.23,18.19,11.91,29.33,13.09,15.35,1.63,29.22-1.72,40.55-12.92,12.94-12.79,19.64-28.16,19.66-46.51Zm-24.26-17.09c.9,5.34.44,10.64-.59,15.88-2.48,12.59-12.4,21.41-25.22,22.58-6.45.59-12.68.05-18.79-2.4-13.38-5.38-20.41-15.49-22.36-29.44-.44-3.15-.34-6.37-.49-9.56.6-11.97,2.16-23.78,5.65-35.25,1.23-4.04,2.87-8.04,4.87-11.76,7.56-14.11,26.89-16.77,38.69-5,2.74,2.74,4.78,5.95,6.53,9.4,4.18,8.24,6.63,17.06,8.51,26.02,1.35,6.45,2.11,13.02,3.2,19.52Zm-34.72,13.26c-.11-8.37-1.89-16.51-3.6-24.64-1.59-7.53-3.69-14.9-6.89-21.92-1.69-3.71-3.64-7.26-6.63-10.1-.72-.68-1.63-1.16-2.65-1.87-2.05,2.78-2.8,5.66-3.64,8.45-2.91,9.64-4.44,19.54-5.07,29.57-.27,4.25-.36,8.55-.01,12.79,1.14,13.89,9.32,23.52,23.12,27.42,1.98-1.64,2.84-4.06,3.71-6.43,1.56-4.28,1.73-8.76,1.67-13.26Z" style="fill:#3a7ca5; stroke-width:0px;"/><path d="m1481.19,623.65c-1,5.37-3.22,10.3-6.44,14.72-2.15,2.96-4.34,5.9-6.73,8.66-2.09,2.41-2.94,5.04-2.65,8.16.64,7.11,1.25,14.22,1.82,21.34.65,8.16,1.25,16.32,1.86,24.48.04.52.03,1.05.04,1.57,0,2-.95,3.28-2.87,3.83-2.68.77-5.36,1.52-8.03,2.3-1.49.44-2.97.92-4.46,1.38.08.24.15.49.23.73,1.33.35,2.67.69,4,1.04,2.93.77,5.47,2.26,7.64,4.34,12.32,11.79,4.36,28.1-6.47,31.41-3.33,1.02-6.67,1.97-10.01,2.94-5.02,1.45-10.06,2.81-15.05,4.34-5.5,1.68-10.39.3-14.75-3.02-6.71-5.11-9.31-12.11-7.9-20.31,1.06-6.14,4.98-10.25,10.9-12.24,3.46-1.16,7-2.08,10.5-3.13,1.64-.49,3.25-1.05,4.99-1.61-1.2-1.54-2.68-1.25-4.01-1.28-5.23-.12-10.45-.18-15.68-.26-6.05-.08-7.23.11-7.66-7.54-.31-5.56-.39-11.14-.4-16.72-.02-9.76-.04-19.51.19-29.27.1-4.16.68-8.33,1.3-12.46.77-5.08,2.81-9.65,6.1-13.67,3.09-3.77,6.04-7.66,9.09-11.46,2.06-2.57,2.83-5.54,2.8-8.76,0-.4-.45-.79-.98-1.69-1.09,2.63-2.09,4.78-2.87,7-.95,2.68-2.63,4.29-5.45,5.05-6.55,1.77-13.05,3.73-19.55,5.68-1.94.58-3.74.64-5.5-.48-6.17-3.93-12.38-7.8-18.51-11.78-2.09-1.36-2.55-2.67-1.67-4.91,3.56-9.07,6.76-18.31,11.67-26.78,1.65-2.84,3.67-5.51,5.8-8.02,3.34-3.93,7.6-6.66,12.54-8.15,8.5-2.56,16.98-5.19,25.55-7.47,19.12-5.08,39.18,4.81,46.77,23.08,5.21,12.55,6.33,25.61,3.84,38.95Zm-3.65-28.2c-1-4.8-2.65-9.38-5-13.68-3.73-6.83-9.18-11.73-16.47-14.55-4.24-1.65-8.6-2.79-13.14-3.18-10.26-.89-18.91,2.24-25.31,10.53-1.9,2.47-3.71,5.12-4.99,7.94-3.37,7.44-6.43,15.03-9.59,22.57-.19.45-.09,1.01-.12,1.47,4.99,4.1,15.28,10.46,19.22,11.79.9-2.2,1.76-4.46,2.75-6.65,1.64-3.65,3.2-7.35,5.11-10.85,1.15-2.11,2.7-4.08,4.41-5.78,3.87-3.85,8.49-4.36,13.52-2.47,5.12,1.92,8.62,5.19,9.24,10.88.57,5.22-.35,10.03-3.8,14.21-3.1,3.76-6.07,7.63-9.1,11.46-2.65,3.35-4.44,7.09-4.91,11.35-.66,6.05-1.51,12.11-1.69,18.18-.39,13.41-.1,26.82.66,40.21.06,1.14.49,2.26.81,3.65,8.63.04,16.97.08,25.32.08.43,0,.86-.46,1.34-.74.09-8.44-1.03-16.74-1.74-25.05-.57-6.76-1.11-13.53-1.81-20.28-.52-4.98.67-9.24,4.2-12.92,1.92-2,3.51-4.33,5.16-6.57,3.57-4.84,5.85-10.22,6.86-16.18,1.44-8.55.84-16.99-.92-25.41Zm-24.12,119.23c-7.88-.1-13.84,4.66-14.65,12-.73,6.62,3.14,16.2,13.18,18.08,1.33.25,2.78.23,4.13.02,8.23-1.29,13.13-9.6,12.54-16.27-.68-7.63-7.43-13.73-15.2-13.83Z" style="fill:#3a7ca5; stroke-width:0px;"/></g></svg>