<?xml version="1.0" encoding="UTF-8"?><svg id="a" xmlns="http://www.w3.org/2000/svg" viewBox="0 0 1536 1024"><path d="m309.64,815.33h-6.13c-9.85,0-10.22,1.86-10.22,10.59v68.02c0,8.73.37,10.78,10.22,10.78h6.13v17.65h-68.39v-17.65h4.65c10.22,0,10.22-2.42,10.22-10.78v-75.82l-31.96,104.25h-29.18l-30.29-104.07v75.64c0,8.92.74,10.78,10.22,10.78h4.65v17.65h-55.94v-17.65h5.76c9.48,0,10.22-1.86,10.22-10.78v-68.02c0-8.92-.74-10.59-10.22-10.59h-5.76v-17.65h69.87l21.19,74.33,22.86-74.33h72.1v17.65Z" style="fill:#44bba4; stroke-width:0px;"/><path d="m446.61,844.14h-19.7c-2.23-10.41-4.65-17.65-9.29-22.3-6.13-6.13-14.31-6.5-25.09-6.5h-19.7v34.19h4.83c11.52,0,15.24-5.02,15.24-18.58v-1.12h15.61v56.87h-15.61c-.37-15.8-2.42-20.81-15.05-20.81h-5.02v38.84h22.11c12.45,0,20.63-.37,25.09-6.88,4.27-6.32,6.13-15.05,6.88-26.95h20.44v51.48h-131.57v-17.65h6.32c9.85,0,10.04-2.23,10.04-9.85v-68.95c0-8.92-.74-10.59-10.22-10.59h-6.13v-17.65h130.83v46.46Z" style="fill:#44bba4; stroke-width:0px;"/><path d="m535.26,856.03h68.95v17.65h-4.46c-10.04,0-10.22,2.04-10.22,10.59v39.4h-22.67l-4.09-7.62c-12.27,6.88-24.53,10.41-36.98,10.41-38.1,0-62.25-24.53-62.25-66.34,0-39.58,25.83-66.34,65.23-66.34,13.38,0,24.16,2.79,33.45,8.92l2.97-6.88h19.88v51.29h-21.74c-4.09-23.23-12.08-34.19-27.32-34.19-17.65,0-24.16,15.24-24.16,46.83s6.5,47.39,23.97,47.39c12.27,0,13.94-3.53,13.94-13.38v-9.48c0-8.92-.93-10.59-10.41-10.59h-4.09v-17.65Z" style="fill:#44bba4; stroke-width:0px;"/><path d="m674.26,904.72h5.58c7.25,0,10.22,0,10.22-3.72,0-1.67-.19-3.53-.74-5.39l-4.46-13.38h-33.64l-3.9,11.89c-.93,2.6-1.67,4.83-1.67,7.06s2.97,3.53,8.73,3.53h6.13v17.65h-55.75v-17.65h4.65c6.69,0,10.59-4.27,13.57-12.82l32.71-94.22h45.16l29.18,93.85c3.16,9.85,4.27,13.19,13.38,13.19h6.5v17.65h-75.64v-17.65Zm-6.69-78.05l-10.59,37.73h21.93l-11.34-37.73Z" style="fill:#44bba4; stroke-width:0px;"/><path d="m930.72,815.33h-6.13c-9.85,0-10.22,1.86-10.22,10.59v68.02c0,8.73.37,10.78,10.22,10.78h6.13v17.65h-68.39v-17.65h4.65c10.22,0,10.22-2.42,10.22-10.78v-75.82l-31.96,104.25h-29.18l-30.29-104.07v75.64c0,8.92.74,10.78,10.22,10.78h4.65v17.65h-55.94v-17.65h5.76c9.48,0,10.22-1.86,10.22-10.78v-68.02c0-8.92-.74-10.59-10.22-10.59h-5.76v-17.65h69.87l21.19,74.33,22.86-74.33h72.1v17.65Z" style="fill:#44bba4; stroke-width:0px;"/><path d="m1011.75,815.33h-6.13c-9.48,0-10.41,1.67-10.41,10.59v68.02c0,8.92.93,10.78,10.41,10.78h6.13v17.65h-74.15v-17.65h6.13c9.48,0,10.41-1.86,10.41-10.78v-68.02c0-8.92-.93-10.59-10.41-10.59h-6.13v-17.65h74.15v17.65Z" style="fill:#44bba4; stroke-width:0px;"/><path d="m1019.56,815.33h-4.27v-17.65h69.87v17.65h-3.16c-3.72,0-5.58,1.49-5.58,3.72,0,1.49,1.12,3.53,3.35,6.5l9.48,13.01,14.87-17.1c1.11-1.3,1.67-2.23,1.67-2.97,0-1.86-2.04-3.16-5.95-3.16h-5.39v-17.65h57.05v17.65h-3.53c-5.58,0-10.04,1.67-13.38,5.58l-27.88,32.52,31.59,44.04c3.53,4.83,8.18,7.25,12.64,7.25h5.02v17.65h-70.99v-17.65h3.9c3.72,0,5.58-1.3,5.58-3.72,0-1.3-1.12-3.35-3.34-6.5l-11.15-15.24-16.35,19.33c-1.12,1.3-1.49,2.42-1.49,2.97,0,1.86,2.04,3.16,5.95,3.16h6.88v17.65h-62.07v-17.65h6.13c8.73,0,12.64-4.27,17.47-10.04l26.2-31.22-31.22-40.14c-3.9-4.83-6.69-7.99-11.89-7.99Z" style="fill:#44bba4; stroke-width:0px;"/><path d="m272.75,796.89h-6.13c-9.85,0-10.22,1.86-10.22,10.59v68.02c0,8.73.37,10.78,10.22,10.78h6.13v17.65h-68.39v-17.65h4.65c10.22,0,10.22-2.42,10.22-10.78v-75.82l-31.96,104.25h-29.18l-30.29-104.07v75.64c0,8.92.74,10.78,10.22,10.78h4.65v17.65h-55.94v-17.65h5.76c9.48,0,10.22-1.86,10.22-10.78v-68.02c0-8.92-.74-10.59-10.22-10.59h-5.76v-17.65h69.87l21.19,74.33,22.86-74.33h72.1v17.65Z" style="fill:#f45b69; stroke-width:0px;"/><path d="m409.71,825.69h-19.7c-2.23-10.41-4.65-17.65-9.29-22.3-6.13-6.13-14.31-6.5-25.09-6.5h-19.7v34.19h4.83c11.52,0,15.24-5.02,15.24-18.58v-1.12h15.61v56.87h-15.61c-.37-15.8-2.42-20.81-15.05-20.81h-5.02v38.84h22.11c12.45,0,20.63-.37,25.09-6.88,4.27-6.32,6.13-15.05,6.88-26.95h20.44v51.48h-131.57v-17.65h6.32c9.85,0,10.04-2.23,10.04-9.85v-68.95c0-8.92-.74-10.59-10.22-10.59h-6.13v-17.65h130.83v46.46Z" style="fill:#f45b69; stroke-width:0px;"/><path d="m498.36,837.59h68.95v17.65h-4.46c-10.04,0-10.22,2.04-10.22,10.59v39.4h-22.67l-4.09-7.62c-12.27,6.88-24.53,10.41-36.98,10.41-38.1,0-62.25-24.53-62.25-66.34,0-39.58,25.83-66.34,65.23-66.34,13.38,0,24.16,2.79,33.45,8.92l2.97-6.88h19.88v51.29h-21.74c-4.09-23.23-12.08-34.19-27.32-34.19-17.65,0-24.16,15.24-24.16,46.83s6.5,47.39,23.97,47.39c12.27,0,13.94-3.53,13.94-13.38v-9.48c0-8.92-.93-10.59-10.41-10.59h-4.09v-17.65Z" style="fill:#f45b69; stroke-width:0px;"/><path d="m637.37,886.28h5.58c7.25,0,10.22,0,10.22-3.72,0-1.67-.19-3.53-.74-5.39l-4.46-13.38h-33.64l-3.9,11.89c-.93,2.6-1.67,4.83-1.67,7.06s2.97,3.53,8.73,3.53h6.13v17.65h-55.75v-17.65h4.65c6.69,0,10.59-4.27,13.57-12.82l32.71-94.22h45.16l29.18,93.85c3.16,9.85,4.27,13.19,13.38,13.19h6.5v17.65h-75.64v-17.65Zm-6.69-78.05l-10.59,37.73h21.93l-11.34-37.73Z" style="fill:#f45b69; stroke-width:0px;"/><path d="m893.82,796.89h-6.13c-9.85,0-10.22,1.86-10.22,10.59v68.02c0,8.73.37,10.78,10.22,10.78h6.13v17.65h-68.39v-17.65h4.65c10.22,0,10.22-2.42,10.22-10.78v-75.82l-31.96,104.25h-29.18l-30.29-104.07v75.64c0,8.92.74,10.78,10.22,10.78h4.65v17.65h-55.94v-17.65h5.76c9.48,0,10.22-1.86,10.22-10.78v-68.02c0-8.92-.74-10.59-10.22-10.59h-5.76v-17.65h69.87l21.19,74.33,22.86-74.33h72.1v17.65Z" style="fill:#f45b69; stroke-width:0px;"/><path d="m974.85,796.89h-6.13c-9.48,0-10.41,1.67-10.41,10.59v68.02c0,8.92.93,10.78,10.41,10.78h6.13v17.65h-74.15v-17.65h6.13c9.48,0,10.41-1.86,10.41-10.78v-68.02c0-8.92-.93-10.59-10.41-10.59h-6.13v-17.65h74.15v17.65Z" style="fill:#f45b69; stroke-width:0px;"/><path d="m982.66,796.89h-4.27v-17.65h69.87v17.65h-3.16c-3.72,0-5.58,1.49-5.58,3.72,0,1.49,1.12,3.53,3.35,6.5l9.48,13.01,14.87-17.1c1.11-1.3,1.67-2.23,1.67-2.97,0-1.86-2.04-3.16-5.95-3.16h-5.39v-17.65h57.05v17.65h-3.53c-5.58,0-10.04,1.67-13.38,5.58l-27.88,32.52,31.59,44.04c3.53,4.83,8.18,7.25,12.64,7.25h5.02v17.65h-70.99v-17.65h3.9c3.72,0,5.58-1.3,5.58-3.72,0-1.3-1.12-3.35-3.34-6.5l-11.15-15.24-16.35,19.33c-1.12,1.3-1.49,2.42-1.49,2.97,0,1.86,2.04,3.16,5.95,3.16h6.88v17.65h-62.07v-17.65h6.13c8.73,0,12.64-4.27,17.47-10.04l26.2-31.22-31.22-40.14c-3.9-4.83-6.69-7.99-11.89-7.99Z" style="fill:#f45b69; stroke-width:0px;"/><path d="m272.75,741.53h-6.13c-9.85,0-10.22,1.86-10.22,10.59v68.02c0,8.73.37,10.78,10.22,10.78h6.13v17.65h-68.39v-17.65h4.65c10.22,0,10.22-2.42,10.22-10.78v-75.82l-31.96,104.25h-29.18l-30.29-104.07v75.64c0,8.92.74,10.78,10.22,10.78h4.65v17.65h-55.94v-17.65h5.76c9.48,0,10.22-1.86,10.22-10.78v-68.02c0-8.92-.74-10.59-10.22-10.59h-5.76v-17.65h69.87l21.19,74.33,22.86-74.33h72.1v17.65Z" style="fill:#f2e863; stroke-width:0px;"/><path d="m409.71,770.34h-19.7c-2.23-10.41-4.65-17.65-9.29-22.3-6.13-6.13-14.31-6.5-25.09-6.5h-19.7v34.19h4.83c11.52,0,15.24-5.02,15.24-18.58v-1.12h15.61v56.87h-15.61c-.37-15.8-2.42-20.81-15.05-20.81h-5.02v38.84h22.11c12.45,0,20.63-.37,25.09-6.88,4.27-6.32,6.13-15.05,6.88-26.95h20.44v51.48h-131.57v-17.65h6.32c9.85,0,10.04-2.23,10.04-9.85v-68.95c0-8.92-.74-10.59-10.22-10.59h-6.13v-17.65h130.83v46.46Z" style="fill:#f2e863; stroke-width:0px;"/><path d="m498.36,782.23h68.95v17.65h-4.46c-10.04,0-10.22,2.04-10.22,10.59v39.4h-22.67l-4.09-7.62c-12.27,6.88-24.53,10.41-36.98,10.41-38.1,0-62.25-24.53-62.25-66.34,0-39.58,25.83-66.34,65.23-66.34,13.38,0,24.16,2.79,33.45,8.92l2.97-6.88h19.88v51.29h-21.74c-4.09-23.23-12.08-34.19-27.32-34.19-17.65,0-24.16,15.24-24.16,46.83s6.5,47.39,23.97,47.39c12.27,0,13.94-3.53,13.94-13.38v-9.48c0-8.92-.93-10.59-10.41-10.59h-4.09v-17.65Z" style="fill:#f2e863; stroke-width:0px;"/><path d="m637.37,830.92h5.58c7.25,0,10.22,0,10.22-3.72,0-1.67-.19-3.53-.74-5.39l-4.46-13.38h-33.64l-3.9,11.89c-.93,2.6-1.67,4.83-1.67,7.06s2.97,3.53,8.73,3.53h6.13v17.65h-55.75v-17.65h4.65c6.69,0,10.59-4.27,13.57-12.82l32.71-94.22h45.16l29.18,93.85c3.16,9.85,4.27,13.19,13.38,13.19h6.5v17.65h-75.64v-17.65Zm-6.69-78.05l-10.59,37.73h21.93l-11.34-37.73Z" style="fill:#f2e863; stroke-width:0px;"/><path d="m893.82,741.53h-6.13c-9.85,0-10.22,1.86-10.22,10.59v68.02c0,8.73.37,10.78,10.22,10.78h6.13v17.65h-68.39v-17.65h4.65c10.22,0,10.22-2.42,10.22-10.78v-75.82l-31.96,104.25h-29.18l-30.29-104.07v75.64c0,8.92.74,10.78,10.22,10.78h4.65v17.65h-55.94v-17.65h5.76c9.48,0,10.22-1.86,10.22-10.78v-68.02c0-8.92-.74-10.59-10.22-10.59h-5.76v-17.65h69.87l21.19,74.33,22.86-74.33h72.1v17.65Z" style="fill:#f2e863; stroke-width:0px;"/><path d="m974.85,741.53h-6.13c-9.48,0-10.41,1.67-10.41,10.59v68.02c0,8.92.93,10.78,10.41,10.78h6.13v17.65h-74.15v-17.65h6.13c9.48,0,10.41-1.86,10.41-10.78v-68.02c0-8.92-.93-10.59-10.41-10.59h-6.13v-17.65h74.15v17.65Z" style="fill:#f2e863; stroke-width:0px;"/><path d="m982.66,741.53h-4.27v-17.65h69.87v17.65h-3.16c-3.72,0-5.58,1.49-5.58,3.72,0,1.49,1.12,3.53,3.35,6.5l9.48,13.01,14.87-17.1c1.11-1.3,1.67-2.23,1.67-2.97,0-1.86-2.04-3.16-5.95-3.16h-5.39v-17.65h57.05v17.65h-3.53c-5.58,0-10.04,1.67-13.38,5.58l-27.88,32.52,31.59,44.04c3.53,4.83,8.18,7.25,12.64,7.25h5.02v17.65h-70.99v-17.65h3.9c3.72,0,5.58-1.3,5.58-3.72,0-1.3-1.12-3.35-3.34-6.5l-11.15-15.24-16.35,19.33c-1.12,1.3-1.49,2.42-1.49,2.97,0,1.86,2.04,3.16,5.95,3.16h6.88v17.65h-62.07v-17.65h6.13c8.73,0,12.64-4.27,17.47-10.04l26.2-31.22-31.22-40.14c-3.9-4.83-6.69-7.99-11.89-7.99Z" style="fill:#f2e863; stroke-width:0px;"/><path d="m309.64,759.99h-6.13c-9.85,0-10.22,1.86-10.22,10.59v68.02c0,8.73.37,10.78,10.22,10.78h6.13v17.65h-68.39v-17.65h4.65c10.22,0,10.22-2.42,10.22-10.78v-75.82l-31.96,104.25h-29.18l-30.29-104.07v75.64c0,8.92.74,10.78,10.22,10.78h4.65v17.65h-55.94v-17.65h5.76c9.48,0,10.22-1.86,10.22-10.78v-68.02c0-8.92-.74-10.59-10.22-10.59h-5.76v-17.65h69.87l21.19,74.33,22.86-74.33h72.1v17.65Z" style="fill:#3a7ca5; stroke-width:0px;"/><path d="m446.61,788.79h-19.7c-2.23-10.41-4.65-17.65-9.29-22.3-6.13-6.13-14.31-6.5-25.09-6.5h-19.7v34.19h4.83c11.52,0,15.24-5.02,15.24-18.58v-1.12h15.61v56.87h-15.61c-.37-15.8-2.42-20.81-15.05-20.81h-5.02v38.84h22.11c12.45,0,20.63-.37,25.09-6.88,4.27-6.32,6.13-15.05,6.88-26.95h20.44v51.48h-131.57v-17.65h6.32c9.85,0,10.04-2.23,10.04-9.85v-68.95c0-8.92-.74-10.59-10.22-10.59h-6.13v-17.65h130.83v46.46Z" style="fill:#3a7ca5; stroke-width:0px;"/><path d="m535.26,800.68h68.95v17.65h-4.46c-10.04,0-10.22,2.04-10.22,10.59v39.4h-22.67l-4.09-7.62c-12.27,6.88-24.53,10.41-36.98,10.41-38.1,0-62.25-24.53-62.25-66.34,0-39.58,25.83-66.34,65.23-66.34,13.38,0,24.16,2.79,33.45,8.92l2.97-6.88h19.88v51.29h-21.74c-4.09-23.23-12.08-34.19-27.32-34.19-17.65,0-24.16,15.24-24.16,46.83s6.5,47.39,23.97,47.39c12.27,0,13.94-3.53,13.94-13.38v-9.48c0-8.92-.93-10.59-10.41-10.59h-4.09v-17.65Z" style="fill:#3a7ca5; stroke-width:0px;"/><path d="m674.26,849.37h5.58c7.25,0,10.22,0,10.22-3.72,0-1.67-.19-3.53-.74-5.39l-4.46-13.38h-33.64l-3.9,11.89c-.93,2.6-1.67,4.83-1.67,7.06s2.97,3.53,8.73,3.53h6.13v17.65h-55.75v-17.65h4.65c6.69,0,10.59-4.27,13.57-12.82l32.71-94.22h45.16l29.18,93.85c3.16,9.85,4.27,13.19,13.38,13.19h6.5v17.65h-75.64v-17.65Zm-6.69-78.05l-10.59,37.73h21.93l-11.34-37.73Z" style="fill:#3a7ca5; stroke-width:0px;"/><path d="m930.72,759.99h-6.13c-9.85,0-10.22,1.86-10.22,10.59v68.02c0,8.73.37,10.78,10.22,10.78h6.13v17.65h-68.39v-17.65h4.65c10.22,0,10.22-2.42,10.22-10.78v-75.82l-31.96,104.25h-29.18l-30.29-104.07v75.64c0,8.92.74,10.78,10.22,10.78h4.65v17.65h-55.94v-17.65h5.76c9.48,0,10.22-1.86,10.22-10.78v-68.02c0-8.92-.74-10.59-10.22-10.59h-5.76v-17.65h69.87l21.19,74.33,22.86-74.33h72.1v17.65Z" style="fill:#3a7ca5; stroke-width:0px;"/><path d="m1011.75,759.99h-6.13c-9.48,0-10.41,1.67-10.41,10.59v68.02c0,8.92.93,10.78,10.41,10.78h6.13v17.65h-74.15v-17.65h6.13c9.48,0,10.41-1.86,10.41-10.78v-68.02c0-8.92-.93-10.59-10.41-10.59h-6.13v-17.65h74.15v17.65Z" style="fill:#3a7ca5; stroke-width:0px;"/><path d="m1019.56,759.99h-4.27v-17.65h69.87v17.65h-3.16c-3.72,0-5.58,1.49-5.58,3.72,0,1.49,1.12,3.53,3.35,6.5l9.48,13.01,14.87-17.1c1.11-1.3,1.67-2.23,1.67-2.97,0-1.86-2.04-3.16-5.95-3.16h-5.39v-17.65h57.05v17.65h-3.53c-5.58,0-10.04,1.67-13.38,5.58l-27.88,32.52,31.59,44.04c3.53,4.83,8.18,7.25,12.64,7.25h5.02v17.65h-70.99v-17.65h3.9c3.72,0,5.58-1.3,5.58-3.72,0-1.3-1.12-3.35-3.34-6.5l-11.15-15.24-16.35,19.33c-1.12,1.3-1.49,2.42-1.49,2.97,0,1.86,2.04,3.16,5.95,3.16h6.88v17.65h-62.07v-17.65h6.13c8.73,0,12.64-4.27,17.47-10.04l26.2-31.22-31.22-40.14c-3.9-4.83-6.69-7.99-11.89-7.99Z" style="fill:#3a7ca5; stroke-width:0px;"/><path d="m291.2,778.44h-6.13c-9.85,0-10.22,1.86-10.22,10.59v68.02c0,8.73.37,10.78,10.22,10.78h6.13v17.65h-68.39v-17.65h4.65c10.22,0,10.22-2.42,10.22-10.78v-75.82l-31.96,104.25h-29.18l-30.29-104.07v75.64c0,8.92.74,10.78,10.22,10.78h4.65v17.65h-55.94v-17.65h5.76c9.48,0,10.22-1.86,10.22-10.78v-68.02c0-8.92-.74-10.59-10.22-10.59h-5.76v-17.65h69.87l21.19,74.33,22.86-74.33h72.1v17.65Z" style="fill:#fff; stroke-width:0px;"/><path d="m428.16,807.24h-19.7c-2.23-10.41-4.65-17.65-9.29-22.3-6.13-6.13-14.31-6.5-25.09-6.5h-19.7v34.19h4.83c11.52,0,15.24-5.02,15.24-18.58v-1.12h15.61v56.87h-15.61c-.37-15.8-2.42-20.81-15.05-20.81h-5.02v38.84h22.11c12.45,0,20.63-.37,25.09-6.88,4.27-6.32,6.13-15.05,6.88-26.95h20.44v51.48h-131.57v-17.65h6.32c9.85,0,10.04-2.23,10.04-9.85v-68.95c0-8.92-.74-10.59-10.22-10.59h-6.13v-17.65h130.83v46.46Z" style="fill:#fff; stroke-width:0px;"/><path d="m516.81,819.14h68.95v17.65h-4.46c-10.04,0-10.22,2.04-10.22,10.59v39.4h-22.67l-4.09-7.62c-12.27,6.88-24.53,10.41-36.98,10.41-38.1,0-62.25-24.53-62.25-66.34,0-39.58,25.83-66.34,65.23-66.34,13.38,0,24.16,2.79,33.45,8.92l2.97-6.88h19.88v51.29h-21.74c-4.09-23.23-12.08-34.19-27.32-34.19-17.65,0-24.16,15.24-24.16,46.83s6.5,47.39,23.97,47.39c12.27,0,13.94-3.53,13.94-13.38v-9.48c0-8.92-.93-10.59-10.41-10.59h-4.09v-17.65Z" style="fill:#fff; stroke-width:0px;"/><path d="m655.82,867.83h5.58c7.25,0,10.22,0,10.22-3.72,0-1.67-.19-3.53-.74-5.39l-4.46-13.38h-33.64l-3.9,11.89c-.93,2.6-1.67,4.83-1.67,7.06s2.97,3.53,8.73,3.53h6.13v17.65h-55.75v-17.65h4.65c6.69,0,10.59-4.27,13.57-12.82l32.71-94.22h45.16l29.18,93.85c3.16,9.85,4.27,13.19,13.38,13.19h6.5v17.65h-75.64v-17.65Zm-6.69-78.05l-10.59,37.73h21.93l-11.34-37.73Z" style="fill:#fff; stroke-width:0px;"/><path d="m912.27,778.44h-6.13c-9.85,0-10.22,1.86-10.22,10.59v68.02c0,8.73.37,10.78,10.22,10.78h6.13v17.65h-68.39v-17.65h4.65c10.22,0,10.22-2.42,10.22-10.78v-75.82l-31.96,104.25h-29.18l-30.29-104.07v75.64c0,8.92.74,10.78,10.22,10.78h4.65v17.65h-55.94v-17.65h5.76c9.48,0,10.22-1.86,10.22-10.78v-68.02c0-8.92-.74-10.59-10.22-10.59h-5.76v-17.65h69.87l21.19,74.33,22.86-74.33h72.1v17.65Z" style="fill:#fff; stroke-width:0px;"/><path d="m993.3,778.44h-6.13c-9.48,0-10.41,1.67-10.41,10.59v68.02c0,8.92.93,10.78,10.41,10.78h6.13v17.65h-74.15v-17.65h6.13c9.48,0,10.41-1.86,10.41-10.78v-68.02c0-8.92-.93-10.59-10.41-10.59h-6.13v-17.65h74.15v17.65Z" style="fill:#fff; stroke-width:0px;"/><path d="m1001.11,778.44h-4.27v-17.65h69.87v17.65h-3.16c-3.72,0-5.58,1.49-5.58,3.72,0,1.49,1.12,3.53,3.35,6.5l9.48,13.01,14.87-17.1c1.11-1.3,1.67-2.23,1.67-2.97,0-1.86-2.04-3.16-5.95-3.16h-5.39v-17.65h57.05v17.65h-3.53c-5.58,0-10.04,1.67-13.38,5.58l-27.88,32.52,31.59,44.04c3.53,4.83,8.18,7.25,12.64,7.25h5.02v17.65h-70.99v-17.65h3.9c3.72,0,5.58-1.3,5.58-3.72,0-1.3-1.12-3.35-3.34-6.5l-11.15-15.24-16.35,19.33c-1.12,1.3-1.49,2.42-1.49,2.97,0,1.86,2.04,3.16,5.95,3.16h6.88v17.65h-62.07v-17.65h6.13c8.73,0,12.64-4.27,17.47-10.04l26.2-31.22-31.22-40.14c-3.9-4.83-6.69-7.99-11.89-7.99Z" style="fill:#fff; stroke-width:0px;"/></svg>