<?xml version="1.0" encoding="UTF-8"?><svg id="a" xmlns="http://www.w3.org/2000/svg" viewBox="0 0 1536 1024"><path d="m461.4,809.84l-28.85,133.9h-21.95l-15.42-93.62-20.14,93.62h-26.13l26.13-121.55c-15.78,6.44-25.22,20.05-25.22,39.03,0,9.13,2.36,10.56,2.54,12.17-12.52,0-19.41-4.48-19.41-17.36,0-20.41,20.14-46.54,51.34-46.54,5.44,0,11.61,0,16.87,2.51l14.33,94.88,19.78-97.03h26.13Z" style="fill:#f2e863; stroke-width:0px;"/><path d="m491.52,854.24l-13.06,60.87c-.54,2.33-.73,4.12-.73,5.73,0,5.01,2.36,6.62,7.44,6.62,7.08,0,13.61-6.8,16.33-15.75h7.62c-10.34,29.18-28.3,33.12-38.1,33.12-10.89,0-19.41-6.44-19.41-21.48,0-3.4.54-7.34,1.45-11.64l12.34-57.46h26.13Zm-8.16-38.13c7.98,0,14.51,6.44,14.51,14.32s-6.53,14.14-14.51,14.14-14.33-6.27-14.33-14.14,6.35-14.32,14.33-14.32Z" style="fill:#f2e863; stroke-width:0px;"/><path d="m588.59,854.24l-17.96,83.06c11.07-3.94,17.78-10.03,22.86-25.6h7.62c-7.08,23.63-20.86,30.43-32.11,33.48l-2.72,12.89c-5.44,25.6-20.68,30.43-32.66,30.43-11.07,0-20.32-5.73-20.32-17.36,0-15.04,15.97-22.56,29.57-26.67l2.18-9.49c-5.26,5.55-12.34,9.85-21.77,9.85-12.34,0-24.13-7.52-24.13-28.82,0-24.17,15.06-62.66,46.63-62.66,10.34,0,14.7,3.94,14.7,9.13v1.07l2-9.31h26.13Zm-59.15,120.3c3.81,0,8.16-5.37,10.52-15.93l1.09-5.19c-9.25,3.4-17.78,8.06-17.78,15.22,0,2.51,2.18,5.91,6.17,5.91Zm-3.45-61.04c0,13.78,5.81,13.96,9.07,13.96,4.9,0,11.97-4.83,14.51-13.96l9.25-42.43c-.18-1.97-1.63-6.62-7.44-6.62-15.42,0-25.4,32.22-25.4,49.05Z" style="fill:#f2e863; stroke-width:0px;"/><path d="m639.03,869.81c-7.08,0-12.7,10.92-13.79,15.75l-12.52,58.18h-26.13l26.31-121.73,26.85-3.58-9.8,45.11c7.62-8.59,15.6-10.03,21.23-10.03,11.61,0,20.14,5.91,20.14,20.23s-8.71,36.16-8.71,46.19c0,4.48,1.81,7.52,7.26,7.52,7.98,0,11.25-6.45,15.24-15.75h7.62c-10.16,29.36-24.13,33.12-33.75,33.12-15.78,0-21.41-10.03-21.41-20.23,0-12.17,8.16-34.19,8.16-45.65,0-5.91-2.18-9.13-6.71-9.13Z" style="fill:#f2e863; stroke-width:0px;"/><path d="m729.74,825.96l-6.17,28.29h10.89l-1.45,7.16h-10.89l-11.61,53.71c-.54,2.33-.73,4.12-.73,5.73,0,5.01,2.36,6.62,7.44,6.62,7.08,0,13.61-6.8,16.33-15.75h7.62c-10.34,29.18-28.3,33.12-38.1,33.12-10.89,0-19.41-6.44-19.41-21.48,0-3.4.54-7.34,1.45-11.64l10.89-50.3h-5.99l1.45-7.16h5.99l5.44-24.7,26.85-3.58Z" style="fill:#f2e863; stroke-width:0px;"/><path d="m824.08,869.81c-6.53,0-11.43,7.52-14.15,16.47l-12.34,57.46h-26.13l13.24-61.76c.36-1.43.54-2.86.54-4.48,0-3.94-1.45-7.88-5.44-7.88-7.08,0-11.97,7.7-14.7,16.65l-12.34,57.46h-26.13l19.23-89.51h26.13l-2,9.31c7.62-8.59,15.78-10.2,22.13-10.2,9.62,0,16.69,4.3,18.69,15.4,8.71-13.25,18.51-15.22,25.22-15.22,11.61,0,20.14,5.91,20.14,20.23s-8.71,36.16-8.71,46.19c0,4.48,1.81,7.52,7.26,7.52,7.98,0,11.25-6.45,15.24-15.75h7.62c-10.16,29.36-24.13,33.12-33.75,33.12-15.78,0-21.41-10.03-21.41-20.23,0-12.17,8.16-34.19,8.16-45.65,0-5.91-2.18-9.13-6.53-9.13Z" style="fill:#f2e863; stroke-width:0px;"/><path d="m957.08,854.24l-13.06,60.87c-.54,2.33-.73,4.12-.73,5.73,0,5.01,2.36,7.7,7.44,7.7,7.08,0,11.97-7.88,14.7-16.83h7.62c-10.34,29.18-26.67,33.12-36.47,33.12s-16.69-5.73-17.78-16.47c-5.62,8.24-14.15,16.47-27.03,16.47s-24.13-7.52-24.13-28.82c0-24.17,15.06-62.66,46.63-62.66,10.34,0,14.7,3.94,14.7,9.13v1.25l2-9.49h26.13Zm-62.59,59.25c0,13.78,5.81,13.96,9.07,13.96,5.26,0,12.88-5.37,15.06-15.75l8.71-40.46c0-2.15-1.63-6.8-7.44-6.8-15.42,0-25.4,32.22-25.4,49.05Z" style="fill:#f2e863; stroke-width:0px;"/><path d="m1003.88,854.24l-2.36,11.1c6.35-5.37,13.24-11.1,21.95-11.1,8.16,0,12.52,6.62,12.52,13.43,0,6.27-4.17,13.07-13.06,13.07-10.16,0-5.08-11.82-10.52-11.82s-8.71,2.69-13.24,6.8l-14.51,68.03h-26.13l19.23-89.51h26.13Z" style="fill:#f2e863; stroke-width:0px;"/><path d="m1071.2,929.79c14.33,0,23.04-7.88,32.11-18.08h6.17c-10.34,16.47-25.76,33.12-49.89,33.12-17.05,0-28.3-8.23-28.3-28.46s11.79-63.73,48.99-63.73c16.15,0,19.96,8.23,19.96,17.19,0,20.59-19.96,36.52-41.73,37.77-.18,2.51-.36,5.01-.36,7.16,0,12.17,4.35,15.04,13.06,15.04Zm10.52-67.67c-9.25,0-18.14,19.15-21.77,36.88,13.97-.9,26.31-14.68,26.31-29.54,0-4.48-1.09-7.34-4.54-7.34Z" style="fill:#f2e863; stroke-width:0px;"/><path d="m1156.29,848.69c2.18,46.37,3.99,53.35,3.99,65.16,0,23.27-21.41,30.97-36.29,30.97-18.51,0-26.49-11.99-26.49-22.91,0-8.23,4.72-14.32,9.62-16.65,10.16-17.72,16.69-35.45,22.32-52.99l26.85-3.58Zm-44.27,71.79c-1.81,0-3.99-.54-4.9-2.33,0,8.41,3.08,12.53,11.07,12.53s15.78-4.12,15.78-16.65c0-9.31-1.63-14.86-3.45-42.43-3.63,11.64-8.71,22.38-14.7,33.83,2.36,1.07,4.17,3.22,4.17,6.27,0,4.3-3.27,8.77-7.98,8.77Z" style="fill:#f2e863; stroke-width:0px;"/><path d="m939.52,775.23c0,10.02-12.52,22.38-27.58,24.88-13.79,49.05-38.83,50.12-56.61,50.12-25.04,0-37.56-17.72-37.56-36.16,0-17.19,10.89-35.09,32.84-39.56-12.34-6.62-17.96-17.01-17.96-27.21,0-16.29,14.51-32.4,40.28-32.4,16.87,0,33.38,6.62,33.38,23.99,0,9.49-3.45,16.47-12.7,16.47-2.9,0-6.89-.72-10.34-4.65,4.54-1.25,7.98-10.2,7.98-14.68,0-2.86-.36-13.25-11.97-13.25-13.24,0-22.13,10.03-22.13,22.02,0,10.38,6.89,22.02,23.95,29.54-23.04,9.31-31.57,23.63-31.57,35.98,0,13.07,9.62,23.81,21.23,23.81,12.52,0,27.21-7.52,32.84-33.66-4.54-.36-8.71-1.07-12.88-1.07-7.8,0-13.61,2.69-17.05,8.06l-1.27-.18c3.63-14.68,16.33-25.24,35.02-25.24,5.08,0,9.25.89,13.79.89,6.71,0,14.15-2.33,17.24-7.7h1.09Z" style="fill:#3a7ca5; stroke-width:0px;"/><path d="m337.21,692.31l-21.77,100.43c3.45,2.51,6.89,3.58,10.34,3.58,21.59,0,34.83-42.61,34.83-78.77,0-24.35-10.7-33.83-26.49-33.83-27.03,0-47.53,16.29-47.53,43.5,0,9.13,2.36,10.56,2.54,12.17-11.97,0-19.41-4.48-19.41-16.65,0-24.53,30.66-47.26,67.49-47.26s48.44,24.17,48.44,51.56c0,41.17-23.4,85.03-50.26,85.03-6.89,0-14.33-2.86-22.13-9.49l-1.45,7.16h-26.13l24.67-113.85,26.85-3.58Z" style="fill:#f2e863; stroke-width:0px;"/><path d="m427.38,720.24l-2.36,11.1c6.35-5.37,13.24-11.1,21.95-11.1,8.16,0,12.52,6.62,12.52,13.43,0,6.27-4.17,13.07-13.06,13.07-10.16,0-5.08-11.82-10.52-11.82s-8.71,2.69-13.24,6.8l-14.51,68.03h-26.13l19.23-89.51h26.13Z" style="fill:#f2e863; stroke-width:0px;"/><path d="m494.69,795.78c14.33,0,23.04-7.88,32.11-18.08h6.17c-10.34,16.47-25.76,33.12-49.89,33.12-17.05,0-28.3-8.24-28.3-28.46s11.79-63.73,48.99-63.73c16.15,0,19.96,8.23,19.96,17.19,0,20.59-19.96,36.52-41.73,37.77-.18,2.51-.36,5.01-.36,7.16,0,12.17,4.35,15.04,13.06,15.04Zm10.52-67.67c-9.25,0-18.14,19.16-21.77,36.88,13.97-.9,26.31-14.68,26.31-29.54,0-4.47-1.09-7.34-4.54-7.34Z" style="fill:#f2e863; stroke-width:0px;"/><path d="m613.89,720.24l-13.06,60.87c-.54,2.33-.73,4.12-.73,5.73,0,5.01,2.36,7.7,7.44,7.7,7.08,0,11.97-7.88,14.7-16.83h7.62c-10.34,29.18-26.67,33.12-36.47,33.12s-16.69-5.73-17.78-16.47c-5.62,8.23-14.15,16.47-27.03,16.47s-24.13-7.52-24.13-28.82c0-24.17,15.06-62.66,46.63-62.66,10.34,0,14.7,3.94,14.7,9.13v1.25l2-9.49h26.13Zm-62.59,59.25c0,13.78,5.81,13.96,9.07,13.96,5.26,0,12.88-5.37,15.06-15.75l8.71-40.46c0-2.15-1.63-6.8-7.44-6.8-15.42,0-25.4,32.22-25.4,49.05Z" style="fill:#f2e863; stroke-width:0px;"/><path d="m712.77,735.81c-6.53,0-11.43,7.52-14.15,16.47l-12.34,57.46h-26.13l13.24-61.76c.36-1.43.54-2.86.54-4.48,0-3.94-1.45-7.88-5.44-7.88-7.08,0-11.97,7.7-14.7,16.65l-12.34,57.46h-26.13l19.23-89.51h26.13l-2,9.31c7.62-8.59,15.78-10.2,22.13-10.2,9.62,0,16.69,4.3,18.69,15.4,8.71-13.25,18.51-15.22,25.22-15.22,11.61,0,20.14,5.91,20.14,20.23s-8.71,36.16-8.71,46.19c0,4.48,1.81,7.52,7.26,7.52,7.98,0,11.25-6.45,15.24-15.75h7.62c-10.16,29.36-24.13,33.12-33.75,33.12-15.78,0-21.41-10.03-21.41-20.23,0-12.17,8.16-34.19,8.16-45.65,0-5.91-2.18-9.13-6.53-9.13Z" style="fill:#f2e863; stroke-width:0px;"/><path d="m811.65,714.69c2.18,46.37,3.99,53.35,3.99,65.16,0,23.27-21.41,30.97-36.29,30.97-18.51,0-26.49-11.99-26.49-22.91,0-8.24,4.72-14.32,9.62-16.65,10.16-17.72,16.69-35.45,22.32-52.99l26.85-3.58Zm-44.27,71.79c-1.81,0-3.99-.54-4.9-2.33,0,8.41,3.08,12.53,11.07,12.53s15.78-4.12,15.78-16.65c0-9.31-1.63-14.86-3.45-42.43-3.63,11.64-8.71,22.38-14.7,33.83,2.36,1.07,4.17,3.22,4.17,6.27,0,4.3-3.27,8.77-7.98,8.77Z" style="fill:#f2e863; stroke-width:0px;"/></svg>