<?xml version="1.0" encoding="UTF-8"?><svg id="a" xmlns="http://www.w3.org/2000/svg" xmlns:xlink="http://www.w3.org/1999/xlink" viewBox="0 0 1536 1024"><defs><filter id="b" filterUnits="userSpaceOnUse"><feOffset dx="3" dy="3"/><feGaussianBlur result="c" stdDeviation="0"/><feFlood flood-color="#000" flood-opacity="1"/><feComposite in2="c" operator="in"/><feComposite in="SourceGraphic"/></filter></defs><g style="filter:url(#b);"><path d="m165.59,677.38h-34.71v-97.18h34.71l20.82,27.77,20.82-27.77h34.71v97.18h-34.71v-48.59l-20.82,27.77-20.82-27.77v48.59Z" style="fill:#f2e863; stroke-width:0px;"/><path d="m332.18,580.2v27.77h-34.71v6.94h34.71v27.77h-34.71v6.94h34.71v27.77h-69.41v-97.18h69.41Z" style="fill:#f2e863; stroke-width:0px;"/><path d="m408.54,607.97v69.41h-34.71v-69.41h-20.82v-27.77h76.36v27.77h-20.82Z" style="fill:#f2e863; stroke-width:0px;"/><path d="m494.54,580.2l31.17,97.18h-34.71l-13.88-41.65-13.88,41.65h-34.71l30.61-97.18h35.4Z" style="fill:#f2e863; stroke-width:0px;"/><path d="m546.54,580.2h34.71v69.41h27.77v27.77h-62.47v-97.18Z" style="fill:#fff; stroke-width:0px;"/><path d="m664.54,580.2v97.18h-34.71v-97.18h34.71Z" style="fill:#fff; stroke-width:0px;"/><path d="m747.83,677.38l-27.77-45.12v45.12h-34.71v-97.18h34.71l27.77,45.12v-45.12h34.71v97.18h-34.71Z" style="fill:#fff; stroke-width:0px;"/><path d="m886.66,677.38h-34.71c-13.42,0-24.87-4.74-34.36-14.23-9.49-9.49-14.23-20.94-14.23-34.36s4.74-24.87,14.23-34.36c9.49-9.49,20.94-14.23,34.36-14.23h34.71v34.71h-34.71c-3.84,0-7.12,1.35-9.82,4.06s-4.06,5.98-4.06,9.82,1.35,7.12,4.06,9.82,5.98,4.06,9.82,4.06v-13.88h34.71v48.59Z" style="fill:#fff; stroke-width:0px;"/><path d="m949.14,642.67c4.63-.09,6.94-4.72,6.94-13.88v-48.59h34.57v48.59c0,31-12.73,47.18-38.18,48.52v.07h-6.04v-.07c-25.96-1.02-38.94-17.19-38.94-48.52v-48.59h34.71v48.59c0,9.16,2.31,13.79,6.94,13.88Z" style="fill:#fff; stroke-width:0px;"/><path d="m1066.51,580.2l31.17,97.18h-34.71l-13.88-41.65-13.88,41.65h-34.71l30.61-97.18h35.4Z" style="fill:#fff; stroke-width:0px;"/><path d="m1189.93,677.38h-34.71c-13.42,0-24.87-4.74-34.36-14.23-9.49-9.49-14.23-20.94-14.23-34.36s4.74-24.87,14.23-34.36c9.49-9.49,20.94-14.23,34.36-14.23h34.71v34.71h-34.71c-3.84,0-7.12,1.35-9.82,4.06s-4.06,5.98-4.06,9.82,1.35,7.12,4.06,9.82,5.98,4.06,9.82,4.06v-13.88h34.71v48.59Z" style="fill:#fff; stroke-width:0px;"/><path d="m1280.17,580.2v27.77h-34.71v6.94h34.71v27.77h-34.71v6.94h34.71v27.77h-69.41v-97.18h69.41Z" style="fill:#fff; stroke-width:0px;"/><path d="m1335.7,677.38h-34.71v-97.18h34.71l20.82,27.77,20.82-27.77h34.71v97.18h-34.71v-48.59l-20.82,27.77-20.82-27.77v48.59Z" style="fill:#fff; stroke-width:0px;"/></g></svg>