<?xml version="1.0" encoding="UTF-8"?><svg id="a" xmlns="http://www.w3.org/2000/svg" xmlns:xlink="http://www.w3.org/1999/xlink" viewBox="0 0 1536 1024"><defs><filter id="b" filterUnits="userSpaceOnUse"><feOffset dx="7.8" dy="7.8"/><feGaussianBlur result="c" stdDeviation="0"/><feFlood flood-color="#fcfafa" flood-opacity="1"/><feComposite in2="c" operator="in"/><feComposite in="SourceGraphic"/></filter></defs><g style="filter:url(#b);"><path d="m193.94,659.48l6.48.42.63,1.25,1.67-.42,4.39,2.93v.84l1.67,1.46-2.51,4.39v1.46h-.84l-.42,1.88-1.46,1.25.21,3.35-1.88,1.46-1.05,4.39-.84,2.93h-1.05l-1.05,5.44-1.67,1.25-1.05,3.76-1.25.21.21,1.67-2.09,3.76-2.72,8.78-2.93,4.18.21,2.72-4.18,7.11-1.46,5.44-1.46,3.14-4.6,14.01-.84,2.72h-1.05l-.63.63v5.65l-2.09,3.55v2.51l-1.46,2.72v2.72l-2.72,2.72-.84,2.93-.42.63v1.67l-.84.84.42,1.88-.84,1.04.42,1.67-1.67,3.35h-.84l-2.93,6.9-1.25,7.74-4.18,7.95-2.3,8.37-2.72,5.86-1.25,4.39-5.86,10.04-1.67,6.27h-1.67l1.05,1.67-2.3,3.97-.84,4.39-2.09,6.9-1.25,1.67-3.56,10.67-2.51,3.56.84,2.72,2.93-2.51,6.69-8.78,5.02-6.9,4.81-4.18,5.65-5.02v-1.05l6.27-5.44v-.63l6.48-5.44,12.55-9.83,2.93-2.09,2.93-3.55,1.46-.42,10.25-8.78,2.09-.63,2.3-2.93,6.9-3.76h1.67l1.88-2.09h1.67l2.09-2.3,2.72.21,1.05-2.09,1.25-.21,3.76-3.55,4.81-1.05.84-1.25,1.67.42,1.88-3.35,1.88.63,1.88-2.09,3.76-1.46.84.63h1.46l.42-1.46,10.25-3.97,3.76-.63,15.27-2.51,4.6-.42,10.88,1.05,2.72.84,1.67,1.25h1.25l.42,1.67,6.9.21,1.67,1.67,2.93.84v1.46l5.23,2.72-.21,2.3,1.46.63.21-.63,4.6,5.65v3.76l1.25,1.25.63,1.25.21,2.3-1.46,8.99-4.39,11.5v.63l-6.27,7.95-1.88,2.09v.42l-2.72,1.05v.63l-2.09,1.05-1.25,2.72-1.88,1.25-5.65,5.86-3.56,1.88h-1.25l-1.46,1.05-.84,1.46h-1.25l-2.72,2.93-2.3.21-7.11,3.35-8.99,3.14-4.39.63-13.18-1.04-3.76-1.88-8.57-7.53-1.67-5.23.42-10.25.84-1.05,1.25-.21,2.93-6.69,3.97-4.6,9.2-4.39.63.42,2.3-.63.21.84h1.05l.42-1.46,8.37,6.9-.21,9.2-2.51,1.04-3.14,2.51-1.05.63-1.46.42-2.09-.42-1.46-.84-.63-.84-.84-5.65,1.05-1.46-.21-1.67-4.6,1.67-5.02,5.44-1.88,4.81-.42,7.95.84,1.25,7.32,6.48,6.48.42,4.6.42,8.16-2.3.42.42,13.59-6.48,12.55-9.83,12.34-15.48,3.76-9.2,1.67-10.25-1.25-1.67v-2.72l-2.51-4.18-2.3-3.55-9.62-6.27-10.25-2.93-18.19.63-.63.84-3.14-.21-.84,1.88-2.09-.21-5.02,1.46-1.05.63v.63l-5.02,1.67-.84,1.46-1.46-.84-9.83,3.97-1.05,1.88-5.23,1.67-8.78,5.44-7.53,3.76-5.65,4.18h-2.3l-1.05,2.51-1.25.63-1.46,1.88-1.46-.42-2.72,4.39-5.44,2.93-3.35,3.35-14.64,10.88-2.51,1.88-16.94,16.52-5.02,4.39-.63,2.09-5.44,5.02-2.72,3.97-3.35,3.55-.63,1.88-1.88,1.04-.42,1.46-7.74,8.78-1.25,1.05-.42,1.88-5.44,7.74-1.25,1.25-.84,1.05v.42l.42,1.05-3.56,5.65h-1.88l.21,1.88-2.09,3.97-2.72,3.56-1.25,4.81-2.3,7.32-.84.84-8.37-4.39-2.93-2.3-.84-1.04.42-5.23,1.67-1.05-.42-.84,2.09-2.51,1.67-3.56,1.46-5.23,1.05-1.46-.63-.84,3.14-6.07v-1.88l2.09-2.3.63-2.93,2.51-1.88,2.09-9.83,2.09-2.93.42-1.46.84-2.51v-1.88l1.67-1.46v-2.09h-.63l-.42-.63,2.72-1.88-.21-2.09,2.09-1.46-.42-1.25,1.05-1.46v-2.3l2.09-4.18,1.46-4.6.63-4.81,2.93-2.72v-3.76l4.18-9.83,1.88-6.27,3.14-6.9-.21-2.3,2.09-4.6.42-1.04h.84l.42-5.44,1.25-1.88-.21-1.04,1.05-.21.84-3.76,1.05-1.67,2.09-7.11,3.14-5.44.84-4.18,5.02-13.8,1.46-.63,1.25-6.27,2.72-5.02-.42-2.3,3.76-9.2,3.76-10.67,1.88-3.55,1.25-5.44-.42-.42-5.44,8.57-2.51,1.46v1.25l-2.51,2.3-1.46,2.51-7.74,8.99-10.04,7.32-10.46,5.86-.63.63-12.97,2.09-8.57-5.44-3.76-3.35v-.84l-3.56-4.81-1.46-7.53-1.05-.84.21-2.51-.63-11.71,1.88-10.46.21-1.67,4.6-10.04,2.51-6.27,2.09-1.05.63-2.72,2.51-3.76,5.02-3.35,1.25-3.14.42-.21,3.14-2.72,1.05-2.51,7.11-3.35,4.81-5.02,3.97-.21v-1.46h2.51l.42-1.88,6.9-.42v-1.25h1.05l2.72,1.46,2.51-1.46,2.51,1.05,4.18,1.05,3.56,2.09,7.53,5.02,4.81,5.02,1.25,3.35-1.25,7.32h-.42l-.84,1.88-3.14-1.04.21-5.65-1.25-2.09-2.72-2.09-1.88-.63h-12.13l-5.44,2.72-5.44,3.56-2.93-.21-1.88,2.09h-.63l-2.51,3.35-2.93,1.67v1.25l-3.76,4.81-7.11,8.99-2.3,4.81h-.42l-1.25,3.35-1.25.63v1.67l-1.88,1.46.21,4.81-1.25.42-.63,5.02-1.05,11.29-.63,1.25,2.09,7.11,4.81,5.44,9.83-1.46,2.3-1.67,2.51-.63,11.5-8.16v-.42l13.59-15.69.42-1.88h.63l7.53-9.83,7.32-11.29,5.44-8.57,1.67-1.88,1.25-2.72v-1.25l4.6-10.25,3.14-7.32,2.09-5.02,3.14-2.72-.21-1.04,1.88-1.67Z" style="fill:#3a7ca5; stroke-width:0px;"/><path d="m215.48,722.85l2.51-5.02,11.29-27.4,1.46-4.18,2.09-1.88-.21-1.46,1.88-3.35,4.18-1.46-.21-.63,1.05-.42,2.93.63,3.76,2.3,1.05-.21,6.69,5.23-.84,5.86-1.67,1.25-1.25,2.3.84.63-4.39,11.5-2.51,4.81-.21,2.09-.63.21-.84-.21.42,1.46h-.42l-.42,2.51-1.46,1.25.21,3.35-3.97,2.72v3.76l-1.05,4.81-.84.63-1.05,3.97-2.72,2.09-1.05,7.53-1.46,1.88-.21,5.44.63,2.93,1.25,1.05,6.27-4.39,6.48-5.86,1.67-.63,4.81-4.39v-1.46l8.57-7.95,1.25-3.14,3.56-2.72,1.67-3.56,3.14-1.88.63-2.72,2.72-2.3.63-3.55,1.88-.21.84-3.35,1.25-2.3-.42-.84,7.95-13.18,1.25-3.55,2.72-2.72,4.6-11.92,1.67-4.81,1.46-1.05.63-1.88,5.65-3.14.84.42.21-.42,2.51-.42,5.02,1.46,4.6,3.14.84,2.51-3.97,8.16.84,1.88-1.67,1.46-4.39,12.13-6.27,11.71-.21,1.04-1.67,1.88-1.05,3.14-1.05.63.42,1.67-.63.21.42,2.72-1.46,1.67v2.3l-1.46,1.46.84,2.93-2.3,3.55-.42,4.6.42.42.84,6.9,4.39,3.14,6.27-1.67,8.99-5.86.21.84-6.27,8.99-4.18,2.51-.63.21-2.93,2.51-10.88-1.05h-.63l-1.46-1.25h-1.67l-.84-1.25-1.88-.42-1.46-2.51-2.72-1.88-2.3-4.18-1.88-2.93.21-11.08-.84-.42-1.25,1.88-1.67,1.04-2.51,3.97-1.67,1.25-3.97,6.48-3.35,2.72-.84,2.72-4.6,2.09-3.14,4.18-6.06,5.86.21,1.05-2.3,1.46-.42-.21-1.05,2.51-9.41,3.35-1.25.42-3.35-.21-3.56-1.67-1.67-1.67-4.18-2.3-3.97-11.5.42-8.37v-6.69l1.46-1.88.63-6.27,1.67-1.46-.63-2.09Z" style="fill:#3a7ca5; stroke-width:0px;"/><path d="m388.43,665.96l5.65.63,12.97,8.78,1.05,2.09,5.23,5.86-1.05,8.58-5.23,7.74-3.76,2.93-14.43,10.88-1.25.42-1.67-.42-1.25,1.46-15.89,6.06-7.53,1.05-.21,1.25-4.6-.84-5.23,1.25-1.67,15.27-.63.42,5.23,11.92,8.78,5.23,6.27.42,5.86-.63,9.83-2.72,11.71-6.9,1.46-1.05,10.25-8.57-4.39,9.41-8.78,8.78-12.76,6.06-11.71,2.93-3.76-1.25-3.76.84-2.09-1.67-1.88.21-9.83-5.44-8.78-8.99-2.72-5.23-2.51-7.74-.42-18.4-7.53-8.99,2.51-.84,5.86,4.18,2.09-3.76,7.53-15.06,9.41-10.46,8.78-7.11,13.8-7.32,6.06-1.05,5.02-.21Zm7.53,8.57l-6.9,1.88-9.62,5.23-7.32,6.69-10.25,11.29-8.78,17.78.42,1.05,1.05.84,10.25-2.51,14.64-7.32,15.27-12.76,6.06-9.2,1.67-5.23-.84-5.86-5.65-1.88Z" style="fill:#3a7ca5; stroke-width:0px;"/><path d="m434.44,636.27l9.62.84,6.9,2.72,5.86,3.76,3.35,3.35v1.25l1.46.63,4.39,8.78.84,4.18,1.25,1.25.63,6.27-1.88,1.05,2.3,4.81.42,1.88-2.51,2.72,1.67,3.76-1.46,1.46-.84,6.9-1.88.84.63,2.3-1.67,5.65,15.06-18.4,3.76-2.51,6.06-1.46,1.46-1.25,7.74.42,1.05,1.05,2.72.21,8.78,6.48,1.25,1.46,4.18,10.88-1.25,1.88,1.05,1.67-1.46,7.11,2.51-6.06,3.56-1.67,4.18-4.81,12.34-5.02,6.48-1.88,14.64,7.53,5.86,8.37,1.67,4.81-.84,1.67,1.25,6.9,1.05,7.74-3.76,11.29-4.6,10.67-5.44,5.65-.84,2.3-3.14,1.67-.84,3.35-10.04,10.67-5.86,10.25-5.44,7.11-8.57,12.97-1.88,7.32-2.09,11.92,1.88,1.67-1.05,2.93,5.65,8.16,3.35,4.18,3.76,2.3,5.23,1.25,5.44-.21,6.69-3.56,2.51-2.3,2.09-6.06-.84-1.05-3.97,1.88-4.81-2.3-4.18-5.86-.42-5.44,3.97-5.02h2.09l2.09-1.67,8.78,2.51,3.76,4.39v3.14l1.67,1.67-.63,4.6-4.18,10.25-4.18,5.65-1.46.84h-1.25l-5.23,2.93h-10.88l-11.92-5.65-.84-1.46-5.02-3.56-3.14-5.86-2.3-5.86-1.25-14.22,1.05-11.71,2.3-.63-.21-4.39,1.67-6.27,2.3-.21,1.05-4.81,4.18-4.39-.63-1.67,2.72-1.46.84-3.97,5.44-7.32,8.78-12.55,2.09-.42-.63-2.93h2.3l5.44-7.95,4.18-3.97,2.93-9.62,1.88-1.04,2.09-6.27.84-6.48-2.3-7.74-6.69-5.44-9.62-1.05-6.48,1.46-8.78,7.32-2.72,5.44h-1.67l-.63,3.76-2.72,3.56.21,1.46-1.25,1.25-2.51,6.48-2.72,2.93.21,2.09-1.67,2.09.63,2.72-2.51,1.67,1.25.63-1.88,3.35-.63,4.18-2.3,2.72.42,3.14-3.76,3.97.21,3.76-2.09,1.46-3.56,10.88-3.14,5.65-5.65,2.09-.84-1.46-2.72-.21-4.39-2.93,1.88-10.46,1.88-2.51-.42-1.88,3.97-5.44-.63-1.88,2.51-5.02-.63-2.3,2.3-1.25,1.05-6.27,5.23-10.04-.63-2.93,3.35-4.39-.63-2.09,5.23-11.29.42-6.07.42-3.55.84-2.93-1.46-2.51,1.25-3.35-3.14-3.14v-1.25l-5.65-2.51h-3.97l-.63.84-1.67-.21-8.37,6.06-10.88,15.89-2.09,2.72-2.51,6.48-5.86,11.5.42,1.46-1.46.84-1.05,5.65-2.3,1.05v4.18l-4.81,9.2-.21,4.81-1.67,1.25.21,1.05-1.25,3.35v4.6l-3.35,1.67.42,5.23-2.51,2.09-.21,3.97-3.14.42-2.09,1.67-1.25-1.25h-1.25l-4.39-1.67v-1.25l-3.76-.42-.63-3.56,1.88-4.6-.63-1.05,2.09-3.14,4.81-12.55,1.46-1.05-.21-3.14,5.44-13.59,1.46-4.6v-2.3l3.56-12.34,4.39-13.59.63-2.72,1.25-1.05.21-5.02,4.39-12.13,2.3-15.89-1.88-11.29-2.3-3.55-3.56-3.76-8.37-2.93-7.95,2.09-5.44,6.9-.21,5.23,1.05,3.97,3.14,1.88,1.46-1.46,1.67.42,2.09-4.81,3.14-.42,5.65,4.6,1.88,3.56-4.6,7.11-5.65,2.93-6.9-1.25-1.67-1.88-4.39-1.88-2.93-10.67-.21-1.88,3.76-11.08,3.56-2.3,1.46-2.09,2.51-.63,3.35-2.72Z" style="fill:#3a7ca5; stroke-width:0px;"/><path d="m768.63,661.57v5.23l-2.72,7.11-.42,4.18-1.67.84-.63,2.51-7.74,7.53-2.72,2.3-4.6,1.88-7.53,1.46-.63-.63-6.9-1.25-3.97-1.67-2.72-1.05-5.65-6.27-1.88-3.97-.21-10.25,1.25-5.65,4.18-4.39,5.44-1.67,2.3.21,1.88.63,6.27,5.02v.63l2.51,1.67.42,1.67-3.14.84-5.65-.42-2.93,1.46-5.02,5.23-1.05,3.76.21,1.05,1.88,3.14,1.05,2.72,4.6,2.3,5.02,1.04,4.18-1.25,9.2-7.53,4.18-7.32.63-3.35.21-12.34-3.35-8.99-1.25-1.88-4.39-4.18-2.3-.63-.84-1.67-1.88.21-7.11-1.88-3.97,1.46-.84-.63-.84.21-.84.84-3.56.42-7.95,4.18-7.32,8.99-2.3,3.56-4.39,16.1-.42,2.72.42,8.99,1.05,3.14-.21,1.46.84,1.67,5.44,11.5,6.27,8.78,16.52,17.78,13.38,17.57,3.35,9.2,2.51,2.3,1.88,7.53.84,15.89-.84,4.81-1.88,6.48-1.46,1.05.42,2.09-3.35,4.81v2.51l-3.76,3.76-.84,3.97-3.14.84.42,1.46-3.56,3.55-.63.84-2.72,1.05-2.3,2.93-7.95,5.65h-.84l-13.18,5.23-9.83,1.46-12.34.42-1.67-.84-2.51.84-9.83-3.56-14.85-10.04-4.6-5.86-2.51-1.67-7.11-10.25-.84-3.35-1.67-2.51-1.88-10.46.42-4.81-1.05-2.51,1.67-5.65-.21-3.55,2.09-5.44v-2.51l1.67-1.67.42-2.51,2.93-3.55.84-2.09,2.72-2.3.84-2.3,12.55-8.57h1.67l.42-.63,9.83-3.97,15.69-.42,4.18.84,8.78,4.18,3.56,2.3,6.69,8.99,3.76,8.78v2.93l.84,3.97-1.25.84.84,4.18-2.72,6.69-1.25.63.63.63-.21,1.05-3.14,1.67-1.46,3.97-4.81,3.97-1.25,2.93-5.65.84-1.67,1.46-10.04-.21-7.74-4.18-5.02-7.95-1.67-7.32,3.76-13.38,2.09-1.46h.84l.84.42,1.25,1.88-2.51,4.81-.21,7.32,6.9,8.16,1.88.84h2.3l1.88-.21,7.95-3.56,3.76-6.06.42-2.09,2.09-2.72,1.46-10.25-1.67-7.53-2.09-5.44-6.06-5.02-6.48-1.88-8.99.84-12.55,7.53-8.78,9.2h-.63l-6.69,13.18-.84,6.48-1.25,3.14v14.22l3.56,12.97,1.67,2.72,7.11,8.57,3.35,1.88,3.35,2.51,4.18,1.05,1.05,1.25,3.35-.42,3.97,1.46,11.71-1.46,9.41-3.76h2.3l1.25-2.09h.84l6.9-6.06,8.57-9.83.63-2.51,2.51-3.55-.42-1.05,2.09-2.3,5.44-17.78.21-12.97-2.09-8.78-3.97-11.29-3.56-8.16-1.88-1.46-.84-1.67-1.46-1.25.21-1.25-10.04-11.92-1.88-2.3-10.25-13.8-4.39-8.37-3.76-6.69-3.56-11.71.84-1.05-.42-3.97v-2.09l2.09-11.92,2.72-4.81,2.3-3.97,10.04-7.53,4.39-2.3,11.92-2.93,1.46-.21,14.64.63,4.6,1.25,9.83,3.76,7.74,5.23,2.51,2.51,2.72,4.6,3.35,10.46Z" style="fill:#44bba4; stroke-width:0px;"/><path d="m829.07,658.02l4.18,1.67,1.88-.42,1.88,1.88,1.05-.42,4.81,4.18,7.32,5.86,5.02,5.65-.84,1.88-3.14-.21-7.11-2.3-8.16.63-13.38,7.53-10.67,12.13-4.6,7.74-5.86,14.85-2.3,12.13.63,10.88,1.05,1.67-.42,2.3,3.14,5.23,5.02,4.6,8.99,2.3,10.67-2.3,8.37-5.44,7.74-7.32,7.32-11.08,7.74-15.89-1.05-2.3-.42-8.99-6.27-5.65-5.23-1.46-2.09.21-6.9,1.46-6.48,3.76v1.25l-5.86,8.57-.84.84-2.09,6.27.42,8.57,3.97,2.51,8.37-1.04,3.35-1.46v2.09l-3.56,3.14-5.02,2.09-7.32-.84-6.27-6.27-2.3-5.44.42-9.2,2.93-6.69,4.18-6.69,9.62-7.32,2.3-1.04,7.74-1.25,4.6-.21,9.2,2.51,5.23,2.72,5.86,5.44,1.67,1.88,1.88,10.46-2.3,11.29-5.65,11.5-9.2,10.46-15.06,11.29-9.2,3.76-3.76.42-12.13.84-10.25-3.97-9.41-7.53-5.65-10.67-2.51-16.1,1.05-11.08,2.93-11.71,1.88-.42-.63-2.51,9.2-17.36,11.08-12.76h1.46l1.46-2.72,4.39-2.72,11.92-5.65Z" style="fill:#44bba4; stroke-width:0px;"/><path d="m891.6,722.85l2.51-5.02,11.29-27.4,1.46-4.18,2.09-1.88-.21-1.46,1.88-3.35,4.18-1.46-.21-.63,1.05-.42,2.93.63,3.76,2.3,1.05-.21,6.69,5.23-.84,5.86-1.67,1.25-1.25,2.3.84.63-4.39,11.5-2.51,4.81-.21,2.09-.63.21-.84-.21.42,1.46h-.42l-.42,2.51-1.46,1.25.21,3.35-3.97,2.72v3.76l-1.05,4.81-.84.63-1.05,3.97-2.72,2.09-1.05,7.53-1.46,1.88-.21,5.44.63,2.93,1.25,1.05,6.27-4.39,6.48-5.86,1.67-.63,4.81-4.39v-1.46l8.57-7.95,1.25-3.14,3.56-2.72,1.67-3.56,3.14-1.88.63-2.72,2.72-2.3.63-3.55,1.88-.21.84-3.35,1.25-2.3-.42-.84,7.95-13.18,1.25-3.55,2.72-2.72,4.6-11.92,1.67-4.81,1.46-1.05.63-1.88,5.65-3.14.84.42.21-.42,2.51-.42,5.02,1.46,4.6,3.14.84,2.51-3.97,8.16.84,1.88-1.67,1.46-4.39,12.13-6.27,11.71-.21,1.04-1.67,1.88-1.05,3.14-1.05.63.42,1.67-.63.21.42,2.72-1.46,1.67v2.3l-1.46,1.46.84,2.93-2.3,3.55-.42,4.6.42.42.84,6.9,4.39,3.14,6.27-1.67,8.99-5.86.21.84-6.27,8.99-4.18,2.51-.63.21-2.93,2.51-10.88-1.05h-.63l-1.46-1.25h-1.67l-.84-1.25-1.88-.42-1.46-2.51-2.72-1.88-2.3-4.18-1.88-2.93.21-11.08-.84-.42-1.25,1.88-1.67,1.04-2.51,3.97-1.67,1.25-3.97,6.48-3.35,2.72-.84,2.72-4.6,2.09-3.14,4.18-6.06,5.86.21,1.05-2.3,1.46-.42-.21-1.05,2.51-9.41,3.35-1.25.42-3.35-.21-3.56-1.67-1.67-1.67-4.18-2.3-3.97-11.5.42-8.37v-6.69l1.46-1.88.63-6.27,1.67-1.46-.63-2.09Z" style="fill:#44bba4; stroke-width:0px;"/><path d="m1138.79,665.96l5.65.63,12.97,8.78,1.05,2.09,5.23,5.86-1.05,8.58-5.23,7.74-3.76,2.93-14.43,10.88-1.25.42-1.67-.42-1.25,1.46-15.89,6.06-7.53,1.05-.21,1.25-4.6-.84-5.23,1.25-1.67,15.27-.63.42,5.23,11.92,8.78,5.23,6.27.42,5.86-.63,9.83-2.72,11.71-6.9,1.46-1.05,10.25-8.57-4.39,9.41-8.78,8.78-12.76,6.06-11.71,2.93-3.76-1.25-3.76.84-2.09-1.67-1.88.21-9.83-5.44-8.78-8.99-2.72-5.23-2.51-7.74-.42-18.4-7.53-8.99,2.51-.84,5.86,4.18,2.09-3.76,7.53-15.06,9.41-10.46,8.78-7.11,13.8-7.32,6.06-1.05,5.02-.21Zm7.53,8.57l-6.9,1.88-9.62,5.23-7.32,6.69-10.25,11.29-8.78,17.78.42,1.05,1.05.84,10.25-2.51,14.64-7.32,15.27-12.76,6.06-9.2,1.67-5.23-.84-5.86-5.65-1.88Z" style="fill:#f45b69; stroke-width:0px;"/><path d="m1180.2,722.85l2.51-5.02,11.29-27.4,1.46-4.18,2.09-1.88-.21-1.46,1.88-3.35,4.18-1.46-.21-.63,1.05-.42,2.93.63,3.76,2.3,1.05-.21,6.69,5.23-.84,5.86-1.67,1.25-1.25,2.3.84.63-4.39,11.5-2.51,4.81-.21,2.09-.63.21-.84-.21.42,1.46h-.42l-.42,2.51-1.46,1.25.21,3.35-3.97,2.72v3.76l-1.05,4.81-.84.63-1.05,3.97-2.72,2.09-1.05,7.53-1.46,1.88-.21,5.44.63,2.93,1.25,1.05,6.27-4.39,6.48-5.86,1.67-.63,4.81-4.39v-1.46l8.57-7.95,1.25-3.14,3.56-2.72,1.67-3.56,3.14-1.88.63-2.72,2.72-2.3.63-3.55,1.88-.21.84-3.35,1.25-2.3-.42-.84,7.95-13.18,1.25-3.55,2.72-2.72,4.6-11.92,1.67-4.81,1.46-1.05.63-1.88,5.65-3.14.84.42.21-.42,2.51-.42,5.02,1.46,4.6,3.14.84,2.51-3.97,8.16.84,1.88-1.67,1.46-4.39,12.13-6.27,11.71-.21,1.04-1.67,1.88-1.05,3.14-1.05.63.42,1.67-.63.21.42,2.72-1.46,1.67v2.3l-1.46,1.46.84,2.93-2.3,3.55-.42,4.6.42.42.84,6.9,4.39,3.14,6.27-1.67,8.99-5.86.21.84-6.27,8.99-4.18,2.51-.63.21-2.93,2.51-10.88-1.05h-.63l-1.46-1.25h-1.67l-.84-1.25-1.88-.42-1.46-2.51-2.72-1.88-2.3-4.18-1.88-2.93.21-11.08-.84-.42-1.25,1.88-1.67,1.04-2.51,3.97-1.67,1.25-3.97,6.48-3.35,2.72-.84,2.72-4.6,2.09-3.14,4.18-6.06,5.86.21,1.05-2.3,1.46-.42-.21-1.05,2.51-9.41,3.35-1.25.42-3.35-.21-3.56-1.67-1.67-1.67-4.18-2.3-3.97-11.5.42-8.37v-6.69l1.46-1.88.63-6.27,1.67-1.46-.63-2.09Z" style="fill:#f45b69; stroke-width:0px;"/><path d="m1366.32,475.86l12.76.42,15.06,4.6,9.83,5.02,4.81,2.09,8.37,7.32.84.21,3.35,3.55,5.44,6.69,4.18,7.11,4.18,7.74,2.09,7.74.84,6.9.63,7.95-1.25,3.35.42,4.18v1.46l-1.05,5.23-2.09,4.6-.42,3.97-1.46,1.25-1.46.21-2.93,8.58-2.3,2.09v2.09l-4.18,3.35-3.97,7.74-4.39,4.39-3.56,3.55-.84,1.88-3.76,1.88-1.67,1.46-2.51,3.14-1.46.42-.42,1.46-6.48,5.65-3.56,3.35-6.48,5.23-1.88.21.21,1.05-4.39,4.39-4.6,4.6-1.46-.21-1.25,3.35-8.99,6.9-6.27,14.43-2.3,3.55v4.18l-.84.21.63,11.71,1.05,3.97,4.18,7.95-.84.63-6.9-5.02-5.65-8.78.42-1.88-3.76-6.9-1.25-4.39.84-5.23-1.05-1.05-.63-3.14,2.3-5.65-.21-2.93,2.09-6.27,3.97-8.37,3.14-5.23,1.25-2.51,3.56-1.88,2.09-4.39,5.02-5.65,4.81-3.35.42-1.46,2.72-1.04,3.35-4.18,3.14-1.67-.21-1.67,3.97-1.67,6.48-6.27,2.51-1.67,9.2-8.16,6.27-6.69,5.86-4.6,6.27-7.95,5.02-9.83,1.88-11.29,1.25-7.11-.42-10.46-2.93-10.04-3.14-4.18v-1.25l-7.74-9.2-3.56-2.93-11.92-5.86-6.27-2.3-3.56-.42-.63-.63-12.55-1.05-2.72-.21-14.01,3.14-7.11,2.72-1.25,1.25-6.48,2.51-1.88,2.51-6.9,4.81-3.35,4.18-5.86,6.27-4.81,6.9-4.18,13.59-1.25,6.69,1.25,7.32,2.51,8.16,2.09,1.67,2.51,2.93,5.86,4.6,2.3-.42,2.51,1.25,4.6.84,1.46-1.05,3.76.42,7.74-3.76,1.25-.42,3.76-2.93,2.09-1.88,3.76-8.16.63-5.02-.21-2.93-.84-3.14-2.51-2.72-4.39.21-.84-1.25v-.63l3.35-3.14h3.35l1.88-.21,2.09.21,6.27,3.35,7.74,5.02,1.88,1.88,2.3,13.38-1.67,4.18-2.51,6.06-1.46,1.46-1.46-.63-1.88,4.81-4.18,2.72-4.39,3.14-8.16,2.51-2.09.42-6.27,1.05-8.99-.84-7.74-2.51-7.95-4.81-7.74-7.32-1.46-2.72-1.46-1.67-2.93-6.69h-.42l-1.67-5.02-.84-10.67,1.05-10.46,2.93-9.83,3.35-6.69,9.41-12.76,2.09-.84,4.6-5.02,11.92-6.9,9.41-3.97,7.53-2.3,9.41-1.25Zm11.29,258.69l-1.46-.63-1.25-2.51-3.76-2.93-5.02-2.51-2.51-.42-8.78,1.25-.84.42-5.86,4.6-1.25,2.72-1.67,1.25-1.46,4.39-1.25,7.95,3.14,6.48,7.95,3.76,1.67.42,7.32-2.72,6.69-5.86,1.25-4.39-.21-2.09-1.05-2.72-8.37,1.05-1.88,1.46-1.46,2.3-1.46,7.11-3.35-5.44-.63-3.35,1.25-5.44,1.67-2.3,7.53-3.97,7.74,2.3,7.74,5.44,1.67,7.11-1.05,5.44-3.35,4.81-5.44,3.14-10.04,2.93-10.04-1.46-7.74-5.65-3.76-4.18-3.35-8.37-.42-1.46v-7.95l3.35-8.99,4.81-6.07,3.97-3.76h2.51l1.67-1.46,7.53-1.25h1.88l5.86,1.46,7.74,6.69,3.76,6.06v7.32Z" style="fill:#f2e863; stroke-width:0px;"/></g></svg>