<?xml version="1.0" encoding="UTF-8"?><svg id="a" xmlns="http://www.w3.org/2000/svg" xmlns:xlink="http://www.w3.org/1999/xlink" viewBox="0 0 1536 1024"><defs><filter id="b" filterUnits="userSpaceOnUse"><feOffset dx="11.01" dy="11.01"/><feGaussianBlur result="c" stdDeviation="0"/><feFlood flood-color="#000" flood-opacity="1"/><feComposite in2="c" operator="in"/><feComposite in="SourceGraphic"/></filter></defs><g style="filter:url(#b);"><path d="m155.43,446.81h77.65v23.85h-48.44v20.91h41.5v23.69h-41.5v22.88h49.16v24.35h-78.37v-115.68Z" style="fill:#fff; stroke-width:0px;"/><path d="m286.69,541.58c10.86,0,17.28-4.9,17.28-11.27,0-8.01-8.19-11.27-21.02-18.14l-8.55-4.41c-16.56-8.66-24.4-19.28-24.4-33.01,0-18.14,16.21-31.86,41.14-31.86,9.44,0,19.95,2.12,31.88,5.88v27.12c-13.36-7.68-24.4-10.95-31.17-10.95-8.55,0-13.71,3.59-13.71,9.31,0,3.92,2.85,7.52,8.73,10.46l14.78,7.52c18.34,9.31,31.35,17.81,31.35,36.27,0,21.73-17.28,37.74-45.95,37.74-9.79,0-20.84-1.96-33.48-5.56l-2.49-30.88c12.82,7.19,23.51,11.76,35.62,11.76Z" style="fill:#fff; stroke-width:0px;"/><path d="m413.85,468.21c-21.19,0-36.33,14.87-36.33,36.11s14.78,35.62,36.33,35.62c12.82,0,25.47-4.9,38.11-14.71l-1.96,30.72c-10.69,6.7-23.87,10.29-37.58,10.29-14.96,0-28.85-4.41-40.25-12.58-16.03-11.6-25.11-28.92-25.11-49.02,0-17.16,6.59-32.52,18.7-43.95,12.29-11.44,28.85-17.81,46.84-17.81,14.07,0,26.89,3.59,38.65,10.95l-3.21,29.57c-10.69-10.13-21.73-15.2-34.2-15.2Z" style="fill:#fff; stroke-width:0px;"/><path d="m522.67,443.21h1.96l62.87,119.28h-31.52l-8.02-16.83h-51.11l-8.19,16.83h-30.28l64.29-119.28Zm16.03,82.51l-16.39-36.27-16.74,36.27h33.13Z" style="fill:#fff; stroke-width:0px;"/><path d="m596.94,446.81h32.41c16.21,0,28.5,1.31,39.36,8.66,9.44,6.37,14.78,16.34,14.78,26.8,0,22.88-18.88,38.07-50.58,38.07-1.96,0-3.92,0-5.88-.16v42.32h-30.1v-115.68Zm30.1,21.24v30.88h5.52c15.32,0,23.33-5.72,23.33-15.69,0-10.95-8.19-15.2-24.76-15.2h-4.1Z" style="fill:#fff; stroke-width:0px;"/><path d="m702.19,446.81h77.65v23.85h-48.44v20.91h41.5v23.69h-41.5v22.88h49.16v24.35h-78.37v-115.68Z" style="fill:#fff; stroke-width:0px;"/><path d="m855,446.81h32.42c16.03,0,28.5.98,39.36,8.17,9.44,6.21,14.78,15.85,14.78,25.82,0,14.54-8.19,25.82-23.51,32.02l38.47,49.67h-34.37l-33.66-45.42h-4.28v45.42h-29.21v-115.68Zm29.21,21.08v32.02h6.41c15.32,0,23.33-5.88,23.33-16.34,0-11.6-8.19-15.69-24.76-15.69h-4.99Z" style="fill:#fff; stroke-width:0px;"/><path d="m979.67,460.53c11.93-11.27,28.14-17.48,45.24-17.48s33.3,6.21,45.59,17.65c12.29,11.44,18.7,26.8,18.7,43.95,0,14.38-4.45,27.29-13.18,37.91-12.29,15.03-31.17,23.69-51.12,23.69-16.92,0-33.12-6.21-45.24-17.65-12.47-11.76-19.06-26.8-19.06-43.95s6.59-32.35,19.06-44.12Zm45.24,79.57c18.52,0,33.3-14.87,33.3-35.46s-14.78-35.62-33.3-35.62-33.3,15.03-33.3,35.62,14.78,35.46,33.3,35.46Z" style="fill:#fff; stroke-width:0px;"/><path d="m1121.44,460.53c11.93-11.27,28.14-17.48,45.24-17.48s33.3,6.21,45.59,17.65c12.29,11.44,18.7,26.8,18.7,43.95,0,14.38-4.45,27.29-13.18,37.91-12.29,15.03-31.17,23.69-51.12,23.69-16.92,0-33.12-6.21-45.24-17.65-12.47-11.76-19.06-26.8-19.06-43.95s6.59-32.35,19.06-44.12Zm45.24,79.57c18.52,0,33.3-14.87,33.3-35.46s-14.78-35.62-33.3-35.62-33.3,15.03-33.3,35.62,14.78,35.46,33.3,35.46Z" style="fill:#fff; stroke-width:0px;"/><path d="m1267.84,443.05h2.14l47.55,75.32,44.88-75.32h2.31l26.36,119.44h-28.67l-10.69-52.78-33.84,57.02h-1.96l-36.33-57.84-11.04,53.59h-26.89l26.18-119.44Z" style="fill:#fff; stroke-width:0px;"/></g><circle cx="1024.85" cy="503.63" r="44.74" style="fill:#fff; stroke-width:0px;"/><circle cx="1024.85" cy="490.44" r="17.57" style="stroke-width:0px;"/><polygon points="1016.44 500.56 1011.48 539.71 1038.22 539.71 1033.44 500.56 1016.44 500.56" style="stroke-width:0px;"/></svg>