<?xml version="1.0" encoding="UTF-8"?><svg id="a" xmlns="http://www.w3.org/2000/svg" xmlns:xlink="http://www.w3.org/1999/xlink" viewBox="0 0 1536 1024"><defs><filter id="b" filterUnits="userSpaceOnUse"><feOffset dx="8.58" dy="8.58"/><feGaussianBlur result="c" stdDeviation="0"/><feFlood flood-color="#000" flood-opacity="1"/><feComposite in2="c" operator="in"/><feComposite in="SourceGraphic"/></filter></defs><g style="filter:url(#b);"><path d="m279.46,450.55c2.69,0,4.47.63,5.33,1.87.86,1.25,1.3,3.22,1.3,5.91-9.8,9.8-16.91,21.96-21.33,36.47-4.42,14.51-6.73,31.38-6.92,50.59,0,.58-.48,1.15-1.44,1.73-.96.58-1.97,1.01-3.03,1.3-1.06.29-2.07.39-3.03.29-.96-.09-1.44-.62-1.44-1.59,0-.77.04-1.73.14-2.88.09-1.15.14-2.4.14-3.75,0-4.61-1.54-9.9-4.61-15.85-3.08-5.95-7.31-11.67-12.68-17.15-5.38-5.48-11.67-10.09-18.88-13.84-7.21-3.75-14.94-5.62-23.21-5.62-11.34,0-21.38,2.55-30.12,7.64-8.75,5.09-16.1,11.87-22.05,20.32-5.96,8.46-10.52,18.3-13.69,29.55s-4.76,23.02-4.76,35.31c0,13.84,1.87,26.86,5.62,39.06,3.75,12.21,8.98,22.87,15.71,32,6.72,9.13,14.85,16.39,24.36,21.76,9.51,5.38,19.93,8.07,31.28,8.07,7.68,0,14.6-1.3,20.75-3.89,6.15-2.59,11.34-6.15,15.57-10.67,4.23-4.51,7.5-9.85,9.8-16,2.31-6.15,3.46-12.78,3.46-19.89,0-5.77-.87-11.58-2.59-17.44-1.73-5.86-4.13-11.14-7.21-15.85-3.08-4.71-6.63-8.55-10.67-11.53-4.04-2.98-8.46-4.47-13.26-4.47-2.88,0-5.77.34-8.65,1.01-2.88.68-5.48,1.73-7.78,3.17-2.31,1.44-4.13,3.22-5.48,5.33-1.35,2.12-2.02,4.71-2.02,7.78,0,2.31.38,4.47,1.15,6.49.77,2.02,1.73,3.75,2.88,5.19,1.15,1.44,2.31,2.59,3.46,3.46,1.15.86,2.11,1.2,2.88,1.01.96-.19,1.68.24,2.16,1.3.48,1.06.53,1.78.14,2.16-.96,1.15-4.23,2.55-9.8,4.18-5.58,1.64-12.21,2.45-19.89,2.45-6.92,0-12.35-2.21-16.29-6.63-3.94-4.42-5.91-9.51-5.91-15.28,0-3.65,1.82-7.35,5.48-11.1,3.65-3.75,8.65-7.11,14.99-10.09,6.34-2.98,13.74-5.43,22.2-7.35,8.45-1.92,17.48-2.88,27.1-2.88,10.38,0,19.6,1.15,27.67,3.46,8.07,2.31,14.89,5.48,20.47,9.51,5.57,4.04,9.8,8.75,12.68,14.12,2.88,5.38,4.32,11.05,4.32,17.01,0,9.22-2.69,18.4-8.07,27.53-5.38,9.13-12.49,17.3-21.33,24.5-8.84,7.21-18.98,13.07-30.41,17.58-11.44,4.51-23.21,6.77-35.31,6.77-18.45,0-34.74-2.5-48.86-7.49s-25.9-12.01-35.31-21.04c-9.42-9.03-16.53-19.7-21.33-32-4.81-12.3-7.21-25.84-7.21-40.65,0-15.95,3.27-30.94,9.8-44.97,6.53-14.03,15.47-26.33,26.81-36.9,11.34-10.57,24.69-18.88,40.07-24.93,15.37-6.05,32-9.08,49.87-9.08,13.84,0,25.27,1.35,34.3,4.04,9.03,2.69,16.33,4.9,21.91,6.63.77-1.92,1.87-4.66,3.31-8.22,1.44-3.55,3.07-7.16,4.9-10.81,1.82-3.65,3.79-7.06,5.91-10.23,2.11-3.17,4.32-5.33,6.63-6.49Z" style="fill:#3a7ca5; stroke-width:0px;"/><path d="m385.53,597.27c-1.15-5.95-2.5-11.29-4.04-16-1.54-4.71-3.46-8.65-5.77-11.82-2.31-3.17-5.09-5.57-8.36-7.21-3.27-1.63-7.31-2.45-12.11-2.45-4.23,0-8.12.77-11.67,2.31-3.56,1.54-6.63,3.36-9.22,5.48-2.59,2.12-4.61,4.23-6.05,6.34-1.44,2.12-2.26,3.75-2.45,4.9-.19,1.54-1.06,2.31-2.59,2.31-2.69,0-5.19-.96-7.49-2.88-2.31-1.92-3.46-4.23-3.46-6.92,0-1.54.19-2.69.58-3.46,4.42-2.5,9.8-5.19,16.14-8.07,6.34-2.88,12.92-5.57,19.75-8.07,6.82-2.5,13.59-4.56,20.32-6.2,6.72-1.63,12.78-2.45,18.16-2.45,8.07,0,14.27,1.15,18.59,3.46,4.32,2.31,7.54,5.58,9.66,9.8,2.11,4.23,3.41,9.18,3.89,14.85.48,5.67.91,11.77,1.3,18.3.58,9.8,1.34,19.27,2.31,28.39.96,9.13,2.4,17.2,4.32,24.21,1.92,7.02,4.37,12.68,7.35,17.01,2.98,4.32,6.68,6.49,11.1,6.49,2.11,0,4.42-.38,6.92-1.15,2.5-.77,4.9-1.68,7.21-2.74,2.31-1.05,4.37-2.11,6.2-3.17,1.82-1.05,3.03-1.77,3.6-2.16,1.73,0,2.78.86,3.17,2.59,0,.96-.19,1.83-.58,2.59-.39.39-1.83,1.35-4.32,2.88-2.5,1.54-5.58,3.36-9.22,5.48-3.65,2.12-7.69,4.37-12.11,6.77-4.42,2.41-8.79,4.66-13.12,6.77-4.32,2.12-8.31,3.84-11.96,5.19-3.65,1.34-6.54,2.02-8.65,2.02-2.5,0-4.66-1.01-6.49-3.03-1.83-2.02-3.41-4.71-4.76-8.07-1.35-3.36-2.5-7.25-3.46-11.67-.96-4.42-1.83-9.03-2.59-13.84-3.46,2.88-7.88,6.3-13.26,10.23-5.38,3.94-11.24,7.64-17.58,11.1-6.34,3.46-12.83,6.39-19.46,8.79-6.63,2.4-13.02,3.6-19.17,3.6-5.19,0-9.71-.82-13.55-2.45-3.85-1.63-7.06-3.79-9.66-6.49-2.59-2.69-4.52-5.81-5.76-9.37-1.25-3.55-1.87-7.25-1.87-11.1,0-6.15,1.87-11.19,5.62-15.13,3.75-3.94,9.56-8.02,17.44-12.25,3.65-1.92,8.74-4.47,15.28-7.64,6.53-3.17,13.21-6.39,20.03-9.66,6.82-3.27,13.16-6.39,19.03-9.37,5.86-2.98,10.13-5.33,12.83-7.06Zm8.36,44.68c-.58-3.27-1.15-6.82-1.73-10.67-.58-3.84-1.15-7.5-1.73-10.95-.58-3.46-1.11-6.44-1.58-8.94-.48-2.5-.82-4.13-1.01-4.9-3.08,1.15-6.54,2.5-10.38,4.04-3.85,1.54-7.69,3.22-11.53,5.04-3.85,1.83-7.5,3.65-10.95,5.48-3.46,1.83-6.34,3.51-8.65,5.04-4.42,2.88-7.78,5.77-10.09,8.65-2.31,2.88-3.46,6.34-3.46,10.38,0,5.58,1.63,10.48,4.9,14.7,3.27,4.23,8.36,6.34,15.28,6.34,3.65,0,7.45-.67,11.39-2.02,3.94-1.34,7.59-2.88,10.95-4.61,3.36-1.73,6.29-3.46,8.79-5.19,2.5-1.73,4.23-3.07,5.19-4.04,1.54-1.54,2.74-2.83,3.6-3.89.87-1.05,1.2-2.54,1.01-4.47Z" style="fill:#3a7ca5; stroke-width:0px;"/><path d="m555.03,657.52c1.15.77,1.73,1.73,1.73,2.88,0,1.54-2.21,3.56-6.63,6.05-4.61,2.69-10.71,5.86-18.3,9.51-7.59,3.65-15.13,6.82-22.63,9.51-3.65,1.35-6.92,2.5-9.8,3.46-2.88.96-5.48,1.44-7.78,1.44-2.69,0-6.01-.63-9.95-1.87-3.94-1.25-7.35-2.74-10.23-4.47-2.31-1.54-4.13-2.74-5.48-3.6-1.35-.86-2.02-1.77-2.02-2.74,0-.77.24-1.49.72-2.16.48-.67.91-1.49,1.3-2.45.19-.58.38-1.34.58-2.31.19-.96.29-1.92.29-2.88.58-4.8,1.2-11.77,1.87-20.9.67-9.12,1.2-19.21,1.58-30.27.38-11.05.72-22.48,1.01-34.3.29-11.82.43-22.82.43-33.01,0-12.49-.05-22.58-.14-30.27-.1-7.68-.34-13.84-.72-18.45-.58-6.34-1.35-10.52-2.31-12.54-.96-2.02-2.02-3.5-3.17-4.47-1.35-1.15-2.64-1.87-3.89-2.16-1.25-.29-2.41-.48-3.46-.58-1.06-.09-1.92-.14-2.59-.14s-1.01-.19-1.01-.58c0-6.34,2.69-9.51,8.07-9.51,4.04,0,8.79.05,14.27.14,5.48.1,10.04.14,13.69.14,2.31,0,4.76-.14,7.35-.43,2.59-.29,5.14-.58,7.64-.87,2.5-.29,4.8-.62,6.92-1.01,2.11-.38,3.65-.77,4.61-1.15.77-.19,1.39.1,1.87.86.48.77.77,1.73.87,2.88.09,1.15-.1,2.21-.58,3.17-.48.96-1.11,1.54-1.87,1.73-1.15.19-2.16.29-3.03.29s-2.36.39-4.47,1.15c-.96.39-1.83,1.59-2.59,3.6-.77,2.02-1.44,5.19-2.02,9.51-.58,4.32-1.15,9.99-1.73,17.01-.58,7.02-1.15,15.81-1.73,26.38-.58,8.46-1.01,17.06-1.3,25.8-.29,8.75-.58,17.25-.87,25.51-.29,8.26-.48,15.95-.58,23.06-.1,7.11-.14,13.17-.14,18.16,0,5.58.04,11.2.14,16.86.09,5.67.62,10.14,1.58,13.4.96,3.08,3.46,5.96,7.5,8.65,4.04,2.69,8.26,4.04,12.68,4.04,3.46,0,7.01-.48,10.67-1.44,3.65-.96,7.01-2.11,10.09-3.46,3.07-1.34,5.81-2.69,8.21-4.04,2.4-1.34,4.18-2.4,5.33-3.17Z" style="fill:#3a7ca5; stroke-width:0px;"/><path d="m670.62,653.19c-2.12,2.31-5.38,5.48-9.8,9.51-4.42,4.04-9.76,8.07-16,12.11-6.25,4.04-13.21,7.49-20.9,10.38-7.69,2.88-15.85,4.32-24.5,4.32-7.88,0-15.57-1.2-23.06-3.6-7.5-2.4-14.22-6.05-20.18-10.95-5.96-4.9-10.71-11.14-14.27-18.74-3.56-7.59-5.33-16.67-5.33-27.24,0-8.65.58-16.09,1.73-22.34,1.15-6.24,2.69-11.72,4.61-16.43,1.92-4.71,4.08-8.74,6.49-12.11,2.4-3.36,4.85-6.39,7.35-9.08,3.07-3.46,6.82-6.72,11.24-9.8,4.42-3.07,9.17-5.86,14.27-8.36,5.09-2.5,10.47-4.47,16.14-5.91,5.67-1.44,11.39-2.16,17.15-2.16,10.38,0,18.49,1.73,24.36,5.19,5.86,3.46,8.79,8.27,8.79,14.41,0,3.85-1.15,7.4-3.46,10.67,1.92-.58,4.37-1.54,7.35-2.88,2.98-1.34,6-2.74,9.08-4.18,3.07-1.44,5.81-2.74,8.22-3.89,2.4-1.15,3.99-2.02,4.76-2.59.38-.38.82-.53,1.3-.43.48.1.72.43.72,1.01,0,2.5-.48,4.57-1.44,6.2-.96,1.63-2.12,2.93-3.46,3.89-3.08,1.92-7.49,4.32-13.26,7.21s-12.16,5.91-19.17,9.08c-7.02,3.17-14.27,6.34-21.76,9.51-7.5,3.17-14.56,6.2-21.19,9.08s-12.4,5.43-17.3,7.64c-4.9,2.21-8.21,3.8-9.95,4.76,0,6.54,1.3,12.64,3.89,18.3,2.59,5.67,6.2,10.62,10.81,14.85,4.61,4.23,10.13,7.54,16.57,9.94,6.44,2.41,13.5,3.6,21.19,3.6,6.92,0,13.16-.72,18.74-2.16,5.57-1.44,10.28-3.07,14.12-4.9,3.84-1.82,6.87-3.46,9.08-4.9,2.21-1.44,3.41-2.16,3.6-2.16.77,0,1.54.34,2.31,1.01.77.68,1.15,1.4,1.15,2.16Zm-101.47-44.1c3.27-1.15,6.96-2.54,11.1-4.18,4.13-1.63,8.17-3.41,12.11-5.33,3.94-1.92,7.54-3.75,10.81-5.48,3.26-1.73,5.76-3.27,7.49-4.61,3.46-2.5,5.19-6.72,5.19-12.68,0-2.31-.43-4.71-1.3-7.21-.86-2.5-2.16-4.76-3.89-6.77-1.73-2.02-3.85-3.65-6.34-4.9-2.5-1.25-5.29-1.87-8.36-1.87-2.69,0-5.58.91-8.65,2.74-3.08,1.83-5.96,4.81-8.65,8.94-2.69,4.13-4.95,9.61-6.77,16.43-1.83,6.82-2.74,15.13-2.74,24.93Z" style="fill:#3a7ca5; stroke-width:0px;"/><path d="m804.37,564.41c-2.12,1.73-4.61,3.89-7.5,6.49-2.88,2.59-5.91,5.09-9.08,7.5-3.17,2.41-6.39,4.47-9.66,6.2-3.27,1.73-6.44,2.59-9.51,2.59-2.69,0-5.09-.62-7.21-1.87-2.12-1.25-4.08-2.59-5.91-4.04-1.83-1.44-3.6-2.78-5.33-4.04-1.73-1.25-3.56-1.87-5.48-1.87-5.19,0-9.56,2.12-13.12,6.34-3.56,4.23-6.44,9.61-8.65,16.14-2.21,6.54-3.85,13.65-4.9,21.33-1.06,7.69-1.58,15.09-1.58,22.2,0,5.96.24,10.81.72,14.56.48,3.75,1.2,6.73,2.16,8.94.96,2.21,2.26,3.7,3.89,4.47,1.63.77,3.6,1.15,5.91,1.15,2.5,0,5.19-.38,8.07-1.15.58-.19,1.01.19,1.3,1.15.29.96.43,1.73.43,2.31,0,.39-.29.82-.87,1.3-.58.48-.96.72-1.15.72-4.23,1.73-8.55,3.6-12.97,5.62-4.42,2.02-8.07,3.7-10.95,5.04-2.69,1.15-5.91,2.4-9.66,3.75-3.75,1.34-6.97,2.02-9.66,2.02-3.08,0-5.62-.48-7.64-1.44-2.02-.96-3.03-1.92-3.03-2.88s.24-1.82.72-2.59c.48-.77.91-2.21,1.3-4.32.38-2.88.82-6.29,1.3-10.23.48-3.94.96-8.22,1.44-12.83.48-4.61.86-9.37,1.15-14.27s.43-9.75.43-14.56c0-10.76-.34-19.89-1.01-27.38-.68-7.5-1.87-13.55-3.6-18.16s-4.08-7.93-7.06-9.94c-2.98-2.02-6.77-3.03-11.39-3.03h-2.59c-.77,0-1.54.1-2.31.29-1.15,0-1.73-.58-1.73-1.73s.58-2.02,1.73-2.59c2.11-1.34,5.38-3.31,9.8-5.91,4.42-2.59,8.98-5.09,13.69-7.49,4.71-2.4,9.27-4.56,13.69-6.49,4.42-1.92,7.68-2.88,9.8-2.88,2.5,0,4.61.82,6.34,2.45,1.73,1.63,3.03,3.7,3.89,6.2.86,2.5,1.49,5.33,1.87,8.5.38,3.17.58,6.3.58,9.37,0,2.31-.05,4.71-.14,7.21-.1,2.5-.14,5.19-.14,8.07,8.65-12.68,16.43-22.53,23.35-29.55,6.92-7.01,13.45-10.52,19.6-10.52,2.31,0,4.56.96,6.77,2.88,2.21,1.92,4.56,4.09,7.06,6.49,2.5,2.41,5.09,4.57,7.78,6.49,2.69,1.92,5.48,2.88,8.36,2.88,2.5,0,4.32-.29,5.48-.86,1.15-.58,2.11-1.05,2.88-1.44,1.54,0,2.31,1.06,2.31,3.17v.29Z" style="fill:#3a7ca5; stroke-width:0px;"/><path d="m844.15,636.76c0,4.04.09,7.93.29,11.67.19,3.75.86,6.97,2.02,9.66,1.15,2.69,2.88,4.86,5.19,6.49,2.31,1.64,5.57,2.45,9.8,2.45,2.11,0,4.51-.24,7.21-.72,2.69-.48,5.23-1.1,7.64-1.87,2.4-.77,4.51-1.54,6.34-2.31,1.82-.77,2.93-1.34,3.32-1.73.58-.58.96-.58,1.15,0,.19.58.24,1.3.14,2.16-.1.86-.34,1.73-.72,2.59-.39.86-.87,1.49-1.44,1.87-1.92.96-5.29,2.69-10.09,5.19-4.81,2.5-10.48,5.09-17.01,7.78-6.15,2.69-12.16,4.95-18.02,6.77-5.86,1.82-10.71,2.74-14.56,2.74-4.42,0-7.88-1.35-10.38-4.04-2.5-2.69-3.75-6.05-3.75-10.09,0-1.34.04-2.5.14-3.46.09-.96.24-2.21.43-3.75.19-1.92.53-5.43,1.01-10.52.48-5.09.96-10.81,1.44-17.15.48-6.34.91-12.73,1.3-19.17.38-6.44.58-11.96.58-16.57v-10.09c0-5-.29-9.41-.86-13.26-.58-3.84-1.54-6.82-2.88-8.94-.96-1.34-2.16-2.45-3.6-3.31s-3.22-1.3-5.33-1.3c-1.15,0-2.31.24-3.46.72-1.15.48-2.02.72-2.59.72-.39,0-1.01-.58-1.87-1.73-.87-1.15-.82-2.02.14-2.59,1.34-.96,4.13-2.5,8.36-4.61l13.84-6.92c5.38-2.69,10.57-5.04,15.57-7.06,5-2.02,8.55-3.03,10.67-3.03s3.55.63,4.32,1.87c.77,1.25,1.15,2.64,1.15,4.18v1.15c0,1.92-.29,5-.87,9.22-.58,4.23-1.2,9.42-1.87,15.57-.68,6.15-1.3,13.26-1.87,21.33s-.86,16.82-.86,26.23v13.84Zm-11.53-149.9c.96.19,2.54,1.25,4.76,3.17,2.21,1.92,4.47,4.13,6.77,6.63,2.31,2.5,4.32,4.9,6.05,7.21s2.59,3.85,2.59,4.61c0,.96-1.15,2.41-3.46,4.32-2.31,1.92-4.95,3.89-7.93,5.91-2.98,2.02-5.86,3.8-8.65,5.33-2.79,1.54-4.76,2.31-5.91,2.31-.58,0-1.97-.91-4.18-2.74-2.21-1.82-4.47-3.89-6.77-6.2s-4.37-4.56-6.2-6.77c-1.83-2.21-2.74-3.7-2.74-4.47,0-.96,1.25-2.45,3.75-4.47,2.5-2.02,5.23-4.13,8.21-6.34,2.98-2.21,5.86-4.13,8.65-5.77,2.78-1.63,4.47-2.54,5.04-2.74Z" style="fill:#3a7ca5; stroke-width:0px;"/><path d="m964.06,597.27c-1.15-5.95-2.5-11.29-4.04-16-1.54-4.71-3.46-8.65-5.77-11.82-2.31-3.17-5.09-5.57-8.36-7.21-3.27-1.63-7.31-2.45-12.11-2.45-4.23,0-8.12.77-11.67,2.31-3.56,1.54-6.63,3.36-9.22,5.48-2.59,2.12-4.61,4.23-6.05,6.34-1.44,2.12-2.26,3.75-2.45,4.9-.19,1.54-1.06,2.31-2.59,2.31-2.69,0-5.19-.96-7.49-2.88-2.31-1.92-3.46-4.23-3.46-6.92,0-1.54.19-2.69.58-3.46,4.42-2.5,9.8-5.19,16.14-8.07,6.34-2.88,12.92-5.57,19.75-8.07,6.82-2.5,13.59-4.56,20.32-6.2,6.72-1.63,12.78-2.45,18.16-2.45,8.07,0,14.27,1.15,18.59,3.46,4.32,2.31,7.54,5.58,9.66,9.8,2.11,4.23,3.41,9.18,3.89,14.85.48,5.67.91,11.77,1.3,18.3.58,9.8,1.34,19.27,2.31,28.39.96,9.13,2.4,17.2,4.32,24.21,1.92,7.02,4.37,12.68,7.35,17.01,2.98,4.32,6.68,6.49,11.1,6.49,2.11,0,4.42-.38,6.92-1.15,2.5-.77,4.9-1.68,7.21-2.74,2.31-1.05,4.37-2.11,6.2-3.17,1.82-1.05,3.03-1.77,3.6-2.16,1.73,0,2.78.86,3.17,2.59,0,.96-.19,1.83-.58,2.59-.39.39-1.83,1.35-4.32,2.88-2.5,1.54-5.58,3.36-9.22,5.48-3.65,2.12-7.69,4.37-12.11,6.77-4.42,2.41-8.79,4.66-13.12,6.77-4.32,2.12-8.31,3.84-11.96,5.19-3.65,1.34-6.54,2.02-8.65,2.02-2.5,0-4.66-1.01-6.49-3.03-1.83-2.02-3.41-4.71-4.76-8.07-1.35-3.36-2.5-7.25-3.46-11.67-.96-4.42-1.83-9.03-2.59-13.84-3.46,2.88-7.88,6.3-13.26,10.23-5.38,3.94-11.24,7.64-17.58,11.1-6.34,3.46-12.83,6.39-19.46,8.79-6.63,2.4-13.02,3.6-19.17,3.6-5.19,0-9.71-.82-13.55-2.45-3.85-1.63-7.06-3.79-9.66-6.49-2.59-2.69-4.52-5.81-5.76-9.37-1.25-3.55-1.87-7.25-1.87-11.1,0-6.15,1.87-11.19,5.62-15.13,3.75-3.94,9.56-8.02,17.44-12.25,3.65-1.92,8.74-4.47,15.28-7.64,6.53-3.17,13.21-6.39,20.03-9.66,6.82-3.27,13.16-6.39,19.03-9.37,5.86-2.98,10.13-5.33,12.83-7.06Zm8.36,44.68c-.58-3.27-1.15-6.82-1.73-10.67-.58-3.84-1.15-7.5-1.73-10.95-.58-3.46-1.11-6.44-1.58-8.94-.48-2.5-.82-4.13-1.01-4.9-3.08,1.15-6.54,2.5-10.38,4.04-3.85,1.54-7.69,3.22-11.53,5.04-3.85,1.83-7.5,3.65-10.95,5.48-3.46,1.83-6.34,3.51-8.65,5.04-4.42,2.88-7.78,5.77-10.09,8.65-2.31,2.88-3.46,6.34-3.46,10.38,0,5.58,1.63,10.48,4.9,14.7,3.27,4.23,8.36,6.34,15.28,6.34,3.65,0,7.45-.67,11.39-2.02,3.94-1.34,7.59-2.88,10.95-4.61,3.36-1.73,6.29-3.46,8.79-5.19,2.5-1.73,4.23-3.07,5.19-4.04,1.54-1.54,2.74-2.83,3.6-3.89.87-1.05,1.2-2.54,1.01-4.47Z" style="fill:#3a7ca5; stroke-width:0px;"/><path d="m140.13,910.43c-1.03,1.03-2.69,2.4-4.98,4.12-2.29,1.72-4.98,3.41-8.06,5.06-3.09,1.66-6.44,3.09-10.04,4.29-3.6,1.2-7.24,1.8-10.9,1.8s-7.55-.86-11.33-2.57c-3.78-1.72-7.18-4.2-10.21-7.46-3.03-3.26-5.46-7.18-7.29-11.75-1.83-4.57-2.75-9.72-2.75-15.44,0-7.44,1.29-14.18,3.86-20.25,2.57-6.06,6.35-11.21,11.33-15.44,4.98-4.23,11.04-7.49,18.19-9.78,7.15-2.29,15.36-3.43,24.62-3.43h4.63c1.49,0,2.86.06,4.12.17v-5.58c0-2.69-.03-5.46-.09-8.32-.06-2.86-.12-5.49-.17-7.89-.06-2.4-.09-3.89-.09-4.46-.46-4.57-1.23-7.78-2.32-9.61-1.09-1.83-3.29-2.75-6.61-2.75-.46,0-.72-.51-.77-1.54-.06-1.03.31-1.83,1.12-2.4.91-.57,1.94-1,3.09-1.29,1.14-.28,2.86-.43,5.15-.43,4.35,0,7.98-.03,10.9-.09,2.92-.06,5.32-.17,7.21-.34,1.89-.17,3.4-.4,4.55-.69,1.14-.28,2.12-.6,2.92-.94.57-.11,1.06.03,1.46.43.4.4.69.92.86,1.54.17.63.2,1.23.09,1.8-.12.57-.46.92-1.03,1.03-1.26.23-2.2.49-2.83.77-.63.29-1.23.83-1.8,1.63-.57.8-1.09,2.92-1.54,6.35-.46,3.43-.92,7.67-1.37,12.7-.46,5.04-.86,10.61-1.2,16.73-.34,6.12-.63,12.27-.86,18.45-.23,6.18-.43,12.18-.6,18.02s-.26,10.93-.26,15.27c0,8.35.92,14.5,2.75,18.45,1.83,3.95,4.63,5.92,8.41,5.92,1.37,0,2.89-.23,4.55-.69,1.66-.46,3.2-1,4.63-1.63,1.43-.63,2.75-1.26,3.95-1.89,1.2-.63,2.09-1.17,2.66-1.63.57-.46,1.09-.17,1.54.86.46,1.03.4,1.72-.17,2.06-1.37.8-3.52,1.97-6.43,3.52s-6.15,3.17-9.7,4.89c-4.35,2.17-8.75,4.12-13.21,5.83-4.46,1.72-8.06,2.57-10.81,2.57-2.06,0-3.46-.34-4.2-1.03-.75-.69-1.12-1.77-1.12-3.26v-2.32c0-1.09.03-2.23.09-3.43.06-1.2.09-2.34.09-3.43v-2.49Zm-2.23-5.83c.91-1.26,1.6-2.72,2.06-4.38.46-1.66.8-3.92,1.03-6.78.23-2.4.34-5.35.34-8.84v-9.18c0-2.63-.03-5.43-.09-8.41-.06-2.97-.14-5.03-.26-6.18-.23-1.94-1.03-3.77-2.4-5.49-1.37-1.72-3.15-3.2-5.32-4.46-2.17-1.26-4.72-2.26-7.64-3-2.92-.74-5.98-1.12-9.18-1.12s-6,.52-8.75,1.54c-2.75,1.03-5.12,2.69-7.12,4.98-2,2.29-3.58,5.23-4.72,8.84-1.14,3.6-1.72,8.04-1.72,13.3s.74,10.27,2.23,14.67c1.49,4.41,3.54,8.21,6.18,11.41,2.63,3.2,5.78,5.69,9.44,7.46,3.66,1.77,7.66,2.66,12.01,2.66,1.72,0,3.32-.26,4.8-.77,1.49-.52,2.83-1.14,4.03-1.89,1.2-.74,2.26-1.52,3.17-2.32.91-.8,1.54-1.49,1.89-2.06Z" style="fill:#f45b69; stroke-width:0px;"/><path d="m255.95,904.08c-1.26,1.37-3.2,3.26-5.83,5.66-2.63,2.4-5.81,4.8-9.52,7.21-3.72,2.4-7.87,4.46-12.44,6.18-4.58,1.72-9.44,2.57-14.59,2.57-4.69,0-9.27-.72-13.73-2.15-4.46-1.43-8.47-3.6-12.01-6.52-3.55-2.92-6.38-6.63-8.49-11.15-2.12-4.52-3.17-9.92-3.17-16.22,0-5.15.34-9.58,1.03-13.3.69-3.72,1.6-6.98,2.75-9.78,1.14-2.8,2.43-5.2,3.86-7.21,1.43-2,2.89-3.8,4.38-5.41,1.83-2.06,4.06-4,6.69-5.83,2.63-1.83,5.46-3.49,8.49-4.98,3.03-1.49,6.23-2.66,9.61-3.52,3.37-.86,6.78-1.29,10.21-1.29,6.18,0,11.01,1.03,14.5,3.09,3.49,2.06,5.23,4.92,5.23,8.58,0,2.29-.69,4.41-2.06,6.35,1.14-.34,2.6-.91,4.38-1.72,1.77-.8,3.57-1.63,5.41-2.49,1.83-.86,3.46-1.63,4.89-2.32,1.43-.69,2.37-1.2,2.83-1.54.23-.23.49-.31.77-.26.28.06.43.26.43.6,0,1.49-.29,2.72-.86,3.69-.57.97-1.26,1.75-2.06,2.32-1.83,1.15-4.46,2.57-7.89,4.29-3.43,1.72-7.24,3.52-11.41,5.4-4.18,1.89-8.49,3.78-12.96,5.66-4.46,1.89-8.67,3.69-12.61,5.41-3.95,1.72-7.38,3.23-10.3,4.55-2.92,1.32-4.89,2.26-5.92,2.83,0,3.89.77,7.52,2.32,10.9,1.54,3.38,3.69,6.32,6.43,8.84,2.75,2.52,6.03,4.49,9.87,5.92,3.83,1.43,8.04,2.14,12.61,2.14,4.12,0,7.83-.43,11.15-1.29,3.32-.86,6.12-1.83,8.41-2.92,2.29-1.09,4.09-2.06,5.41-2.92,1.31-.86,2.03-1.29,2.14-1.29.46,0,.92.2,1.37.6.46.4.69.83.69,1.29Zm-60.4-26.25c1.94-.69,4.15-1.51,6.61-2.49,2.46-.97,4.86-2.03,7.21-3.17,2.34-1.14,4.49-2.23,6.43-3.26,1.94-1.03,3.43-1.94,4.46-2.75,2.06-1.49,3.09-4,3.09-7.55,0-1.37-.26-2.8-.77-4.29-.51-1.49-1.29-2.83-2.32-4.03-1.03-1.2-2.29-2.17-3.78-2.92-1.49-.74-3.15-1.12-4.98-1.12-1.6,0-3.32.54-5.15,1.63-1.83,1.09-3.55,2.86-5.15,5.32-1.6,2.46-2.95,5.72-4.03,9.78-1.09,4.06-1.63,9.01-1.63,14.84Z" style="fill:#f45b69; stroke-width:0px;"/><path d="m320.56,852.67c-.39,0-.77-.04-1.15-.14-.39-.09-.68-.43-.87-1.01,0-.19.24-.87.72-2.02.48-1.15,1.3-2.4,2.45-3.75,1.15-1.34,2.59-2.54,4.32-3.6,1.73-1.05,3.84-1.59,6.34-1.59,3.07,0,5.57.82,7.5,2.45,1.92,1.63,3.46,3.89,4.61,6.77,1.15,2.88,1.92,6.2,2.31,9.95.38,3.75.58,7.74.58,11.96.58,4.61,2.74,9.32,6.49,14.12,3.75,4.81,8.36,9.13,13.84,12.97,5.48,3.85,11.48,7.02,18.02,9.51,6.53,2.5,12.87,3.85,19.03,4.04,14.6.39,25.27-2.74,32-9.37,6.72-6.63,10.09-15.13,10.09-25.51,0-8.65-1.63-15.66-4.9-21.04-3.27-5.38-7.64-9.7-13.12-12.97-5.48-3.27-11.67-5.91-18.59-7.93-6.92-2.02-13.98-3.89-21.19-5.62-7.21-1.73-14.27-3.65-21.19-5.77-6.92-2.11-13.12-4.99-18.59-8.65-5.48-3.65-9.85-8.4-13.12-14.27-3.27-5.86-4.9-13.4-4.9-22.63s1.97-17.25,5.91-25.22c3.94-7.97,9.56-14.99,16.86-21.04,7.3-6.05,16.19-10.85,26.66-14.41,10.47-3.55,22.34-5.33,35.6-5.33s23.54,1.25,32.57,3.75c9.03,2.5,15.95,4.42,20.75,5.77.96-1.54,2.02-3.31,3.17-5.33,1.15-2.02,2.45-3.89,3.89-5.62,1.44-1.73,3.03-3.22,4.76-4.47,1.73-1.25,3.75-1.87,6.05-1.87,1.73,0,3.12.53,4.18,1.59,1.05,1.06,1.58,2.07,1.58,3.03-.39.96-1.15,1.73-2.31,2.31-1.15.58-2.21,1.15-3.17,1.73-5.96,3.08-10.91,10.23-14.85,21.48-3.94,11.24-6.2,25.03-6.77,41.37-.19.39-.67.68-1.44.86-.77.19-1.63.29-2.59.29-1.54,0-2.59-.09-3.17-.29-.58-5.77-2.31-11.62-5.19-17.58-2.88-5.95-6.87-11.39-11.96-16.29-5.09-4.9-11.34-8.89-18.74-11.96-7.4-3.07-15.81-4.61-25.22-4.61-5.77,0-10.95.82-15.57,2.45-4.61,1.64-8.5,3.85-11.67,6.63-3.17,2.79-5.58,5.91-7.21,9.37-1.63,3.46-2.45,6.92-2.45,10.38,0,8.07,3.27,15.42,9.8,22.05,6.53,6.63,16.43,11.58,29.69,14.85,8.26,2.12,16.86,4.47,25.8,7.06,8.94,2.59,17.05,6.1,24.36,10.52,7.3,4.42,13.35,9.99,18.16,16.72,4.8,6.73,7.21,15.28,7.21,25.66s-2.36,19.94-7.06,29.26c-4.71,9.32-10.91,17.54-18.59,24.65-7.69,7.11-16.43,12.78-26.23,17.01-9.8,4.22-19.79,6.34-29.98,6.34-7.88,0-15.57-.53-23.06-1.59-7.5-1.06-14.41-2.31-20.75-3.75s-11.92-2.98-16.72-4.61c-4.81-1.63-8.36-3.03-10.67-4.18,1.73-3.07,3.5-6.34,5.33-9.8,1.82-3.46,3.55-7.11,5.19-10.95,1.63-3.84,2.98-7.83,4.04-11.96,1.05-4.13,1.58-8.5,1.58-13.12,0-6.72-1.01-11.82-3.03-15.28s-4.37-5.19-7.06-5.19c-1.92,0-3.27.39-4.04,1.15-.77.77-1.73,1.92-2.88,3.46l-1.44-1.15Z" style="fill:#f45b69; stroke-width:0px;"/><path d="m608.82,901.1c-2.12,1.73-5,4.04-8.65,6.92-3.65,2.88-7.88,5.77-12.68,8.65-4.81,2.88-10.09,5.33-15.85,7.35-5.77,2.02-11.82,3.03-18.16,3.03-9.61,0-18.16-1.68-25.66-5.04-7.5-3.36-13.79-7.88-18.88-13.55-5.09-5.67-8.94-12.35-11.53-20.03-2.59-7.68-3.89-15.85-3.89-24.5,0-10.18,1.54-19.21,4.61-27.1,3.07-7.88,6.87-14.75,11.39-20.61,4.51-5.86,9.37-10.76,14.56-14.7,5.19-3.94,9.9-7.06,14.12-9.37,1.92-1.15,4.37-2.4,7.35-3.75,2.98-1.34,6.24-2.59,9.8-3.75,3.55-1.15,7.4-2.16,11.53-3.03,4.13-.86,8.41-1.3,12.83-1.3,8.26,0,16.29,1.06,24.07,3.17,7.78,2.12,14.65,5.43,20.61,9.94,5.95,4.52,10.76,10.33,14.41,17.44,3.65,7.11,5.48,15.67,5.48,25.66,0,8.07-1.49,15.67-4.47,22.77-2.98,7.11-6.49,13.45-10.52,19.03-4.04,5.58-8.03,10.33-11.96,14.27-3.94,3.94-6.77,6.77-8.5,8.5Zm-32.57,4.61c10.95,0,19.36-4.13,25.22-12.4,5.86-8.26,8.79-20.94,8.79-38.05,0-8.65-1.2-16.67-3.6-24.07-2.41-7.4-5.76-13.88-10.09-19.46-4.32-5.57-9.37-9.94-15.13-13.12s-12.01-4.76-18.74-4.76c-4.81,0-9.37,1.25-13.69,3.75-4.32,2.5-8.12,6.1-11.39,10.81-3.27,4.71-5.86,10.43-7.78,17.15-1.92,6.73-2.88,14.32-2.88,22.77,0,9.04,1.39,17.11,4.18,24.21,2.78,7.11,6.49,13.12,11.1,18.02,4.61,4.9,9.85,8.65,15.71,11.24,5.86,2.59,11.96,3.89,18.3,3.89Z" style="fill:#f45b69; stroke-width:0px;"/><path d="m706.54,848.06c-.19,1.73-.39,3.27-.58,4.61-.19,1.35-.34,2.88-.43,4.61-.1,1.73-.19,3.89-.29,6.49-.1,2.59-.14,6.01-.14,10.23,0,6.92.24,12.59.72,17.01.48,4.42,1.2,7.93,2.16,10.52.96,2.59,2.16,4.37,3.6,5.33,1.44.96,3.22,1.44,5.33,1.44,1.34,0,2.78-.19,4.32-.58.38,0,.72.53,1.01,1.59.29,1.06.24,1.78-.14,2.16-1.15.96-3.41,2.36-6.77,4.18-3.37,1.83-7.16,3.6-11.39,5.33-4.23,1.73-8.6,3.27-13.12,4.61-4.52,1.34-8.31,2.02-11.39,2.02-2.69,0-4.81-.34-6.34-1.01-1.54-.68-2.31-1.49-2.31-2.45s.09-1.54.29-1.73c.19-.19.48-.67.86-1.44.38-.96.67-2.16.87-3.6.19-1.44.48-3.12.86-5.04.38-2.69.77-6.1,1.15-10.23.38-4.13.77-8.65,1.15-13.55.38-4.9.72-9.99,1.01-15.28.29-5.28.43-10.42.43-15.42,0-2.11-.05-4.76-.14-7.93-.1-3.17-.24-7.25-.43-12.25-.19-5.57-.82-10.33-1.87-14.27-1.06-3.94-2.4-7.11-4.04-9.51-1.63-2.4-3.46-4.18-5.48-5.33-2.02-1.15-3.99-1.73-5.91-1.73h-2.88c-.96,0-1.92.1-2.88.29-.77,0-1.15-.86-1.15-2.59,0-.38.14-.72.43-1.01.29-.29,1.2-.91,2.74-1.87,2.5-1.73,5.86-3.84,10.09-6.34,4.23-2.5,8.55-4.8,12.97-6.92,4.42-2.11,8.6-3.94,12.54-5.48,3.94-1.54,6.96-2.31,9.08-2.31,5.57,0,8.36,3.17,8.36,9.51,0,.96-.1,2.69-.29,5.19-.19,2.5-.34,5.04-.43,7.64-.1,2.59-.24,5.04-.43,7.35-.19,2.31-.29,3.85-.29,4.61,4.04-3.84,8.36-7.78,12.97-11.82s9.61-7.73,14.99-11.1c5.38-3.36,11.05-6.1,17.01-8.22,5.95-2.11,12.11-3.17,18.45-3.17,11.53,0,20.99,3.31,28.39,9.95,7.4,6.63,11.1,17.15,11.1,31.56,0,3.85-.24,8.36-.72,13.55-.48,5.19-1.01,10.57-1.58,16.14-.58,5.58-1.11,11.05-1.59,16.43-.48,5.38-.72,10.19-.72,14.41,0,15.38,5,23.06,14.99,23.06,1.92,0,4.08-.33,6.49-1.01,2.4-.67,4.71-1.44,6.92-2.31,2.21-.86,4.18-1.73,5.91-2.59s2.88-1.59,3.46-2.16c.19-.19.43-.04.72.43.29.48.53,1.11.72,1.87.19.77.24,1.44.14,2.02-.1.58-.24.96-.43,1.15-1.54.96-4.86,2.79-9.95,5.48-5.09,2.69-10.76,5.43-17.01,8.22-6.25,2.79-12.44,5.29-18.59,7.49-6.15,2.21-11.05,3.31-14.7,3.31-4.42,0-7.45-1.06-9.08-3.17-1.63-2.11-2.45-4.32-2.45-6.63,0-1.54.24-3.46.72-5.77.48-2.31,1.1-6.05,1.87-11.24.77-5.57,1.49-12.11,2.16-19.6.67-7.5,1.01-15.57,1.01-24.21,0-16.91-3.13-29.74-9.37-38.48-6.25-8.74-14.08-13.12-23.49-13.12-5.96,0-11.24,1.15-15.85,3.46-4.61,2.31-8.55,5.43-11.82,9.37-3.27,3.94-5.86,8.46-7.78,13.55-1.92,5.09-3.17,10.52-3.75,16.29Z" style="fill:#f45b69; stroke-width:0px;"/><path d="m885.26,812.02c3.84-3.46,8.17-7.06,12.97-10.81,4.8-3.75,9.85-7.21,15.13-10.38,5.28-3.17,10.81-5.77,16.58-7.78,5.76-2.02,11.62-3.03,17.58-3.03,6.92,0,13.4,1.11,19.46,3.32,6.05,2.21,11.39,5.43,16,9.66,4.61,4.23,8.26,9.27,10.95,15.13,2.69,5.86,4.04,12.44,4.04,19.75,0,14.8-2.55,28.39-7.64,40.79-5.09,12.4-11.05,23.25-17.87,32.57-6.82,9.32-13.6,17.06-20.32,23.21-6.73,6.15-11.72,10.18-14.99,12.11-.96.58-1.92.38-2.88-.58-.96-.96-.96-2.02,0-3.17,1.54-1.15,3.89-3.99,7.06-8.5s6.39-10.23,9.66-17.15c3.27-6.92,6.15-14.8,8.65-23.64,2.5-8.84,3.75-18.35,3.75-28.54,0-8.45-1.01-15.95-3.03-22.48-2.02-6.53-4.76-12.01-8.22-16.43-3.46-4.42-7.45-7.78-11.96-10.09-4.52-2.31-9.37-3.46-14.56-3.46-3.46,0-7.11.53-10.95,1.59-3.85,1.06-7.4,2.55-10.67,4.47-3.46,2.12-6.82,4.71-10.09,7.78-3.27,3.08-5.67,6.25-7.21,9.51-.39.77-.72,1.49-1.01,2.16-.29.68-.58,1.64-.87,2.88-.29,1.25-.58,2.84-.87,4.76-.29,1.92-.53,4.52-.72,7.78-.58,5.58-1.01,11-1.3,16.29-.29,5.29-.43,11.58-.43,18.88,0,9.42.58,16.67,1.73,21.76,1.15,5.09,4.51,8.03,10.09,8.79.58,0,1.25-.04,2.02-.14.77-.09,1.63-.24,2.59-.43.77-.19,1.73-.48,2.88-.86.58,0,1.01.29,1.3.86.29.58.43,1.15.43,1.73s-1.06,1.44-3.17,2.59c-2.12,1.15-4.81,2.36-8.07,3.6-3.27,1.25-6.87,2.5-10.81,3.75-3.94,1.25-7.64,2.45-11.1,3.6-3.65.96-6.77,1.82-9.37,2.59-2.59.77-4.37,1.15-5.33,1.15-5.77,0-8.65-2.21-8.65-6.63,0-.96.48-2.78,1.44-5.48.96-2.69,1.73-6.82,2.31-12.4.77-8.07,1.54-16.96,2.31-26.66.77-9.7,1.39-19.46,1.87-29.26.48-9.8.86-19.41,1.15-28.83.29-9.41.43-17.87.43-25.37,0-13.84-.24-25.56-.72-35.17-.48-9.61-.91-16.43-1.3-20.47-.58-4.99-1.15-8.31-1.73-9.94-.58-1.63-1.25-3.12-2.02-4.47-.96-1.73-2.16-2.93-3.6-3.6-1.44-.67-2.79-1.1-4.04-1.3-1.25-.19-2.31-.24-3.17-.14-.86.1-1.3-.04-1.3-.43,0-2.69.87-4.9,2.59-6.63s4.04-2.59,6.92-2.59c5.57,0,11.34-.09,17.3-.29,5.95-.19,11.43-.48,16.43-.86,4.22-.38,8.12-.96,11.67-1.73,3.55-.77,5.91-1.34,7.06-1.73,1.54-.19,2.35.05,2.45.72.09.68.14,1.87.14,3.6,0,1.15-.48,2.02-1.44,2.59-.96.58-2.02,1.06-3.17,1.44-1.15.39-2.26.72-3.31,1.01-1.06.29-1.78.72-2.16,1.3-.77,1.15-1.54,4.71-2.31,10.67-.77,5.96-1.49,13.5-2.16,22.63-.68,9.13-1.25,19.27-1.73,30.41-.48,11.15-.82,22.39-1.01,33.73l.29.29Z" style="fill:#f45b69; stroke-width:0px;"/><path d="m1134.03,901.1c-2.12,1.73-5,4.04-8.65,6.92-3.65,2.88-7.88,5.77-12.68,8.65-4.81,2.88-10.09,5.33-15.85,7.35-5.77,2.02-11.82,3.03-18.16,3.03-9.61,0-18.16-1.68-25.66-5.04-7.5-3.36-13.79-7.88-18.88-13.55-5.09-5.67-8.94-12.35-11.53-20.03-2.59-7.68-3.89-15.85-3.89-24.5,0-10.18,1.54-19.21,4.61-27.1,3.07-7.88,6.87-14.75,11.39-20.61,4.51-5.86,9.37-10.76,14.56-14.7,5.19-3.94,9.9-7.06,14.12-9.37,1.92-1.15,4.37-2.4,7.35-3.75,2.98-1.34,6.24-2.59,9.8-3.75,3.55-1.15,7.4-2.16,11.53-3.03,4.13-.86,8.41-1.3,12.83-1.3,8.26,0,16.29,1.06,24.07,3.17,7.78,2.12,14.65,5.43,20.61,9.94,5.95,4.52,10.76,10.33,14.41,17.44,3.65,7.11,5.48,15.67,5.48,25.66,0,8.07-1.49,15.67-4.47,22.77-2.98,7.11-6.49,13.45-10.52,19.03-4.04,5.58-8.03,10.33-11.96,14.27-3.94,3.94-6.77,6.77-8.5,8.5Zm-32.57,4.61c10.95,0,19.36-4.13,25.22-12.4,5.86-8.26,8.79-20.94,8.79-38.05,0-8.65-1.2-16.67-3.6-24.07-2.41-7.4-5.76-13.88-10.09-19.46-4.32-5.57-9.37-9.94-15.13-13.12s-12.01-4.76-18.74-4.76c-4.81,0-9.37,1.25-13.69,3.75-4.32,2.5-8.12,6.1-11.39,10.81-3.27,4.71-5.86,10.43-7.78,17.15-1.92,6.73-2.88,14.32-2.88,22.77,0,9.04,1.39,17.11,4.18,24.21,2.78,7.11,6.49,13.12,11.1,18.02,4.61,4.9,9.85,8.65,15.71,11.24,5.86,2.59,11.96,3.89,18.3,3.89Z" style="fill:#f45b69; stroke-width:0px;"/><path d="m1186.2,916.95c-1.54.96-2.98,2.55-4.32,4.76-1.35,2.21-2.21,3.89-2.59,5.04-.19.38-.72.72-1.59,1.01-.86.29-1.49.43-1.87.43-1.73,0-2.59-.86-2.59-2.59,0-.58.77-2.11,2.31-4.61,1.15-1.92,2.98-4.95,5.48-9.08,2.5-4.13,5.04-8.36,7.64-12.68,2.59-4.32,5-8.26,7.21-11.82,2.21-3.55,3.79-5.91,4.76-7.06.96-.96,2.11-1.1,3.46-.43,1.34.68,1.73,1.49,1.15,2.45-.39.39-.68.86-.86,1.44-.19.58-.29,1.54-.29,2.88,0,1.73,1.49,3.89,4.47,6.49,2.98,2.59,6.77,5.09,11.39,7.5,4.61,2.41,9.7,4.47,15.28,6.2,5.57,1.73,11.05,2.59,16.43,2.59,6.34,0,11.39-1.82,15.13-5.48,3.75-3.65,5.62-8.45,5.62-14.41,0-6.72-2.12-11.72-6.34-14.99-4.23-3.27-9.47-5.77-15.71-7.49-6.25-1.73-13.07-3.12-20.47-4.18-7.4-1.05-14.22-2.64-20.47-4.76-6.25-2.11-11.49-5.19-15.71-9.22-4.23-4.04-6.34-9.9-6.34-17.58,0-5.95,2.06-12.01,6.2-18.16,4.13-6.15,9.61-11.62,16.43-16.43,6.82-4.8,14.65-8.74,23.49-11.82,8.84-3.07,18.06-4.61,27.67-4.61,2.88,0,6.24.29,10.09.86,3.84.58,7.64,1.3,11.39,2.16,3.75.86,7.21,1.73,10.38,2.59s5.52,1.59,7.06,2.16c.38,0,.29.77-.29,2.31-.58,1.73-2.02,4.37-4.32,7.93-2.31,3.56-4.86,7.06-7.64,10.52-2.79,3.46-5.38,6.54-7.78,9.22-2.41,2.69-4.08,4.04-5.04,4.04h-1.73c-.96,0-1.63-.19-2.02-.58.19-.96.29-2.21.29-3.75,0-6.72-3.03-12.01-9.08-15.85-6.05-3.84-14.84-5.77-26.38-5.77-5.58,0-10.14,1.63-13.69,4.9-3.56,3.27-5.33,7.21-5.33,11.82,0,7.5,2.11,13.07,6.34,16.72,4.23,3.65,9.51,6.39,15.85,8.22,6.34,1.83,13.16,3.22,20.47,4.18,7.3.96,14.12,2.45,20.47,4.47,6.34,2.02,11.62,5.04,15.85,9.08,4.22,4.04,6.34,10.09,6.34,18.16,0,3.65-.77,7.21-2.31,10.67-1.54,3.46-3.56,6.73-6.05,9.8-2.5,3.08-5.29,5.91-8.36,8.5-3.08,2.59-6.15,4.86-9.22,6.77-2.88,1.92-6.15,3.89-9.8,5.91-3.65,2.02-7.59,3.89-11.82,5.62-4.23,1.73-8.55,3.13-12.97,4.18-4.42,1.05-8.84,1.59-13.26,1.59-2.12,0-5.48-.43-10.09-1.3-4.61-.86-9.27-1.87-13.98-3.03-4.71-1.15-8.89-2.26-12.54-3.31-3.65-1.05-5.58-1.77-5.77-2.16Z" style="fill:#f45b69; stroke-width:0px;"/></g></svg>