<?xml version="1.0" encoding="UTF-8"?><svg id="a" xmlns="http://www.w3.org/2000/svg" xmlns:xlink="http://www.w3.org/1999/xlink" viewBox="0 0 1536 1024"><defs><filter id="b" filterUnits="userSpaceOnUse"><feOffset dx="7" dy="7"/><feGaussianBlur result="c" stdDeviation="5"/><feFlood flood-color="#000" flood-opacity=".75"/><feComposite in2="c" operator="in"/><feComposite in="SourceGraphic"/></filter><filter id="d" filterUnits="userSpaceOnUse"><feOffset dx="7" dy="7"/><feGaussianBlur result="e" stdDeviation="5"/><feFlood flood-color="#000" flood-opacity=".75"/><feComposite in2="e" operator="in"/><feComposite in="SourceGraphic"/></filter></defs><g style="filter:url(#b);"><path d="m124.55,826.05v-5.85c13.92,0,20.88-5.98,20.88-17.96v-89.97c0-4.81-3.19-7.22-9.56-7.22-8.59,0-15.55,2.77-20.88,8.29-5.34,5.53-9.3,13.89-11.91,25.08l-6.05-1.56,5.27-41.57c2.99.39,5.82.72,8.49.98,2.67.26,5.24.39,7.71.39h75.14c2.73,0,5.53-.13,8.39-.39,2.86-.26,5.79-.59,8.78-.98v40.79l-5.27.78c-1.55-20.81-11.91-31.22-31.08-31.22-6.48,0-9.71,2.21-9.71,6.63v89.97c0,11.97,7.03,17.96,21.08,17.96v5.85h-61.28Z" style="fill:#44bba4; stroke-width:0px;"/><path d="m223.3,826.05v-5.85c11.97,0,17.96-4.24,17.96-12.71v-88.55c0-10.95-6.44-16.42-19.32-16.42v-5.85h102.65l1.56,36.5-6.05.78c-1.17-7.03-2.93-12.49-5.27-16.39s-5.17-6.8-8.49-8.68c-3.32-1.88-7.12-2.99-11.42-3.32-4.29-.32-8.98-.49-14.05-.49h-5.46c-9.89,0-14.83,2.93-14.83,8.78v34.93c0,3.9,1.56,5.85,4.68,5.85h6.64c3.25,0,6.28-.16,9.07-.49,2.8-.32,5.27-1.17,7.42-2.54,2.15-1.37,3.9-3.45,5.27-6.25,1.37-2.8,2.31-6.6,2.83-11.42h7.22v50.55h-7.22c-.52-4.81-1.3-8.62-2.34-11.42-1.04-2.8-2.54-4.94-4.49-6.44-1.95-1.49-4.36-2.47-7.22-2.93-2.86-.46-6.38-.68-10.54-.68h-2.34c-5.99,0-8.98,2.15-8.98,6.44v37.28c0,7.42,5.2,11.12,15.61,11.12h6.05c8.2,0,14.8-.62,19.81-1.85,5.01-1.23,9.08-3.19,12.2-5.85,3.12-2.67,5.63-6.02,7.51-10.05,1.88-4.03,3.81-8.78,5.76-14.25l5.27,1.56-5.27,38.64h-104.21Z" style="fill:#44bba4; stroke-width:0px;"/><path d="m424.12,736.09c-2.6-10.54-6.96-18.96-13.08-25.27-6.12-6.31-13.66-9.47-22.64-9.47-7.42,0-13.34,1.95-17.76,5.86-4.42,3.9-6.64,8.85-6.64,14.83,0,4.68,1.59,8.75,4.78,12.2,3.19,3.45,7.97,6.54,14.34,9.27,7.93,3.38,15.16,6.21,21.66,8.49,6.5,2.28,12.07,4.91,16.69,7.9,4.62,2.99,8.2,6.77,10.73,11.32,2.54,4.56,3.81,10.73,3.81,18.54,0,4.81-.75,9.56-2.25,14.25-1.5,4.68-3.8,8.88-6.93,12.59-3.12,3.71-7.19,6.7-12.2,8.98-5.01,2.28-11.03,3.42-18.05,3.42-4.56,0-8.49-.33-11.81-.98-3.32-.65-6.12-1.43-8.39-2.34-2.28-.91-4.07-1.82-5.37-2.73-1.3-.91-2.21-1.56-2.73-1.95-2.47,1.82-4.95,3.45-7.42,4.88-2.47,1.43-4.95,2.47-7.42,3.12-1.43-9.89-2.51-18.64-3.22-26.25-.72-7.61-1.07-14.28-1.07-20h6.44c0,5.73,1.17,10.96,3.51,15.71,2.34,4.75,5.33,8.82,8.98,12.2,3.64,3.38,7.74,6.02,12.29,7.9,4.55,1.89,8.98,2.83,13.27,2.83,2.73,0,5.76-.45,9.08-1.36,3.32-.91,6.44-2.34,9.37-4.29,2.93-1.95,5.4-4.42,7.42-7.4,2.02-2.99,3.03-6.56,3.03-10.72,0-5.2-1.4-9.74-4.2-13.64-2.8-3.9-7.25-6.95-13.37-9.16-7.16-2.6-14.02-5-20.59-7.21-6.57-2.21-12.36-4.84-17.37-7.89-5.01-3.05-9.01-6.89-12-11.5-3-4.61-4.49-10.68-4.49-18.22,0-5.46.98-10.39,2.93-14.81,1.95-4.42,4.59-8.22,7.9-11.4,3.32-3.18,7.19-5.65,11.61-7.4,4.42-1.75,9.04-2.63,13.86-2.63,5.59,0,10.37,1.01,14.34,3.02,3.97,2.02,7.64,3.81,11.03,5.37,4.03-3.25,8.26-5.53,12.69-6.83,1.82,5.99,3.12,12.33,3.9,19.03.78,6.7,1.17,13.95,1.17,21.76h-5.86Z" style="fill:#44bba4; stroke-width:0px;"/><path d="m470.17,826.05v-5.85c13.92,0,20.88-5.98,20.88-17.96v-89.97c0-4.81-3.19-7.22-9.56-7.22-8.59,0-15.55,2.77-20.88,8.29-5.34,5.53-9.3,13.89-11.91,25.08l-6.05-1.56,5.27-41.57c2.99.39,5.82.72,8.49.98,2.67.26,5.24.39,7.71.39h75.14c2.73,0,5.53-.13,8.39-.39,2.86-.26,5.79-.59,8.78-.98v40.79l-5.27.78c-1.55-20.81-11.91-31.22-31.08-31.22-6.48,0-9.71,2.21-9.71,6.63v89.97c0,11.97,7.03,17.96,21.08,17.96v5.85h-61.28Z" style="fill:#44bba4; stroke-width:0px;"/><path d="m568.92,826.05v-5.85c11.97,0,17.96-4.24,17.96-12.71v-88.55c0-10.95-6.44-16.42-19.32-16.42v-5.85h102.65l1.56,36.5-6.05.78c-1.17-7.03-2.93-12.49-5.27-16.39s-5.17-6.8-8.49-8.68c-3.32-1.88-7.12-2.99-11.42-3.32-4.29-.32-8.98-.49-14.05-.49h-5.46c-9.89,0-14.83,2.93-14.83,8.78v34.93c0,3.9,1.56,5.85,4.68,5.85h6.64c3.25,0,6.28-.16,9.07-.49,2.8-.32,5.27-1.17,7.42-2.54,2.15-1.37,3.9-3.45,5.27-6.25,1.37-2.8,2.31-6.6,2.83-11.42h7.22v50.55h-7.22c-.52-4.81-1.3-8.62-2.34-11.42-1.04-2.8-2.54-4.94-4.49-6.44-1.95-1.49-4.36-2.47-7.22-2.93-2.86-.46-6.38-.68-10.54-.68h-2.34c-5.99,0-8.98,2.15-8.98,6.44v37.28c0,7.42,5.2,11.12,15.61,11.12h6.05c8.2,0,14.8-.62,19.81-1.85,5.01-1.23,9.08-3.19,12.2-5.85,3.12-2.67,5.63-6.02,7.51-10.05,1.88-4.03,3.81-8.78,5.76-14.25l5.27,1.56-5.27,38.64h-104.21Z" style="fill:#44bba4; stroke-width:0px;"/><path d="m793.74,826.05v-5.85c11.45,0,17.17-4.75,17.17-14.25l-1.37-90.75-41.57,110.85h-5.46l-44.5-109.09-.78,86.06c-.13,11.45,6.37,17.17,19.52,17.17v5.85h-47.03v-5.85c11.84,0,18.08-6.25,18.74-18.77l1.56-87.19v-1.96c0-1.43-.17-2.74-.49-3.91-.33-1.17-1.17-2.21-2.54-3.13-1.37-.91-3.35-1.59-5.95-2.05-2.6-.46-6.12-.69-10.54-.69v-5.85h40.2l39.42,98.95,37.67-98.95h39.62v5.85c-4.29,0-7.68.3-10.15.88-2.47.58-4.33,1.43-5.56,2.54-1.24,1.11-2.02,2.38-2.34,3.81-.33,1.43-.49,2.93-.49,4.5l2.15,90.31c0,10.43,5.92,15.64,17.76,15.64v5.85h-55.03Z" style="fill:#44bba4; stroke-width:0px;"/><path d="m978.36,719.72c0-11.47-6.7-17.2-20.1-17.2v-5.85h45.28v5.85c-10.8,0-16.2,5.74-16.2,17.2v59.42c0,7.43-.65,14.2-1.95,20.33-1.3,6.13-3.94,11.37-7.9,15.73-3.97,4.37-9.6,7.75-16.88,10.16-7.29,2.41-16.98,3.62-29.08,3.62-7.68,0-14.41-1.04-20.2-3.13-5.79-2.09-10.67-5.02-14.64-8.8-3.97-3.78-6.96-8.27-8.98-13.49-2.02-5.21-3.03-10.88-3.03-17v-69.78c0-9.51-6.18-14.27-18.54-14.27v-5.85h56.4v5.85c-12.36,0-18.54,4.76-18.54,14.27v64.7c0,4.43.23,8.96.68,13.59.45,4.62,1.85,8.79,4.2,12.51s5.95,6.75,10.83,9.09c4.88,2.35,11.81,3.52,20.78,3.52,8.33,0,14.99-1.27,20-3.81,5.01-2.54,8.81-5.7,11.42-9.48,2.6-3.78,4.32-7.95,5.17-12.51.84-4.56,1.27-8.86,1.27-12.9v-61.77Z" style="fill:#44bba4; stroke-width:0px;"/><path d="m1124.92,828.2l-86.26-109.87v78.65c0,15.48,6.7,23.22,20.1,23.22v5.85h-46.84v-5.85c10.93,0,16.39-7.75,16.39-23.26v-86.21c0-5.47-6.44-8.21-19.32-8.21v-5.85h35.68l76.34,97.38v-70.02c0-14.34-6.64-21.51-19.91-21.51v-5.85h46.84v5.85c-11.97,0-17.96,7.17-17.96,21.5v102.81l-5.07,1.37Z" style="fill:#44bba4; stroke-width:0px;"/><path d="m1243.38,826.05v-5.85c12.88,0,19.32-4.49,19.32-13.47v-40.79c-2.34-1.95-7.29-2.93-14.83-2.93h-35.13c-2.6,0-5.07.23-7.42.68-2.34.46-4.56,1.2-6.64,2.24v40.79c0,8.98,5.98,13.47,17.96,13.47v5.85h-57.18v-5.85c13.27,0,19.91-4.5,19.91-13.49v-86.99c0-11.47-6.63-17.2-19.91-17.2v-5.85h57.18v5.85c-11.97,0-17.96,5.75-17.96,17.24v33.49c4.29,1.44,8.98,2.16,14.05,2.16h35.13c7.28,0,12.23-.72,14.83-2.16v-33.49c0-11.49-6.44-17.24-19.32-17.24v-5.85h56.4v5.85c-11.84,0-17.76,5.74-17.76,17.2v86.99c0,8.99,5.92,13.49,17.76,13.49v5.85h-56.4Z" style="fill:#44bba4; stroke-width:0px;"/><path d="m1385.65,826.05v-5.85c1.82-.26,3.74-.52,5.76-.78,2.02-.26,3.84-.58,5.46-.98,1.62-.39,2.99-.88,4.1-1.46,1.1-.58,1.66-1.27,1.66-2.05-.13-.52-.23-1.27-.29-2.24-.07-.98-.42-2.18-1.07-3.61l-8.78-24c-1.43-3.38-5.4-5.07-11.9-5.07h-29.08c-4.95,0-7.94,1.68-8.98,5.05l-6.64,20.2c-.52,1.17-.78,2.85-.78,5.05,0,5.96,5.72,8.93,17.17,8.93v6.83h-43.91v-6.83c3.77-.26,6.99-1.56,9.66-3.9,2.67-2.34,4.91-5.71,6.73-10.13l46.84-111.46,5.85,2.34,46.25,115.92c1.82,2.73,3.25,4.42,4.29,5.07.26.26,1.33.62,3.22,1.07,1.88.46,4.52,1.14,7.9,2.05v5.85h-53.47Zm-16.98-104.8l-17.17,40.98c-1.43,3.12-2.15,5.34-2.15,6.63,0,1.95,2.41,2.93,7.22,2.93h24.59c3.9,0,5.86-.78,5.86-2.34,0-.65-.72-2.8-2.15-6.44l-16.2-41.76Z" style="fill:#44bba4; stroke-width:0px;"/></g><g style="filter:url(#d);"><path d="m541.01,833.1c1.18,0,2.9-.15,5.17-.44,2.26-.29,4.67-.34,7.23-.15,2.56.2,4.97.74,7.23,1.62,2.26.89,3.99,2.61,5.17,5.17,3.93,3.94,7.18,9.5,9.74,16.68,2.56,7.19,4.03,14.76,4.43,22.73.39,7.97-.49,15.79-2.66,23.47-2.17,7.68-6.01,13.88-11.51,18.6-2.17,2.17-4.92,4.97-8.27,8.41-3.35,3.45-6.69,6.84-10.04,10.19-2.76,2.76-5.61,5.17-8.56,7.23-2.95,2.07-6.3,3.4-10.04,3.99-1.97.4-3.54.05-4.72-1.03-1.18-1.08-2.86-2.31-5.02-3.69-1.58-.98-3.45-1.82-5.61-2.51-2.17-.69-3.84-1.82-5.02-3.39-10.83-13.77-18.3-30.9-22.44-51.37-.59-3.15-.69-7.18-.3-12.1.39-4.92,1.33-10.04,2.8-15.35,1.48-5.31,3.64-10.58,6.5-15.79,2.85-5.21,6.35-9.69,10.48-13.43,3.93-3.74,9.05-6.69,15.35-8.86,1.96-1.18,4.08-1.67,6.35-1.48,2.26.2,4.58.59,6.94,1.18,1.97.4,3.59,1.38,4.87,2.95,1.28,1.58,1.92,4.04,1.92,7.38Zm24.8,35.13c-1.18-3.74-3.2-7.33-6.05-10.78-2.86-3.44-6.01-6.49-9.45-9.15-3.45-2.66-7.08-4.87-10.92-6.64s-7.43-2.95-10.78-3.54c-1.77,0-4.04.74-6.79,2.21-2.76,1.48-5.51,3.39-8.27,5.76-2.76,2.36-5.31,5.07-7.68,8.12-2.36,3.05-4.04,6.05-5.02,9-2.17,6.69-2.61,14.22-1.33,22.58,1.28,8.37,3.88,15.84,7.82,22.44,3.93,6.6,9.05,11.51,15.35,14.76,6.3,3.25,13.48,3.1,21.55-.44,3.74-1.18,7.18-3.99,10.33-8.41,3.15-4.43,5.76-9.4,7.82-14.91,2.07-5.51,3.44-11.12,4.13-16.83.69-5.71.44-10.43-.74-14.17Z" style="fill:#f45b69; stroke-width:0px;"/><path d="m669.14,861.74c.59.99.83,1.92.74,2.8-.1.89-.25,1.62-.44,2.21-1.58,1.77-2.86,2.95-3.84,3.54-.99.59-2.66,1.48-5.02,2.66-.59.4-1.13.79-1.62,1.18-.49.4-1.03.59-1.62.59-.99,0-2.51-.78-4.58-2.36-2.07-1.57-4.28-3.15-6.64-4.72-2.36-1.57-4.87-2.75-7.53-3.54-2.66-.78-5.07-.49-7.23.89-2.17,2.95-4.23,6.74-6.2,11.37-1.97,4.63-3.5,9.5-4.58,14.61-1.08,5.12-1.43,10.33-1.03,15.65.39,5.31,1.96,10.24,4.72,14.76,11.41,1.18,21.55-.74,30.41-5.76,8.86-5.02,17.02-11.26,24.5-18.75,0,1.38-.35,2.61-1.03,3.69-.69,1.08-1.33,2.21-1.92,3.39-.79,1.77-1.62,3.5-2.51,5.17-.88,1.67-2.12,3.3-3.69,4.87-2.76,2.95-5.86,5.81-9.3,8.56-3.45,2.76-7.08,5.17-10.92,7.23s-7.78,3.64-11.81,4.72c-4.04,1.08-8.02,1.43-11.96,1.03-2.17-.19-3.69-.74-4.58-1.62-.88-.89-2.41-1.82-4.58-2.8-1.18-.78-2.71-1.48-4.58-2.07-1.87-.59-3.3-1.37-4.28-2.36-1.97-2.36-3.45-5.21-4.43-8.56-1.38-4.33-2.07-9.05-2.07-14.17s.34-10.08,1.03-14.91c.69-4.82,1.67-9.2,2.95-13.14,1.28-3.93,2.41-6.98,3.4-9.15,1.18-2.56,2.95-4.77,5.31-6.64,2.36-1.87,4.97-3.59,7.82-5.17,2.85-1.57,5.76-3.05,8.71-4.43,2.95-1.37,5.71-2.66,8.27-3.84,10.04,0,20.07,5.02,30.11,15.06Z" style="fill:#f45b69; stroke-width:0px;"/><path d="m771.28,854.36c0,13.78.15,26.57.44,38.38.29,11.81,1.42,23.42,3.39,34.84.19,1.18-.1,2.46-.89,3.84-.79,1.38-1.58,2.56-2.36,3.54-1.18,1.38-2.26,2.71-3.25,3.99-.99,1.28-1.97,2.12-2.95,2.51-1.97.99-3.15,1.18-3.54.59-.4-.59-.69-1.38-.89-2.36-.79-3.74-1.82-8.81-3.1-15.2-1.28-6.39-2.12-12.84-2.51-19.34-2.36,3.94-4.97,7.92-7.82,11.96-2.86,4.04-5.9,7.73-9.15,11.07-3.25,3.35-6.55,6.35-9.89,9-3.35,2.66-6.6,4.58-9.74,5.76-1.38.59-2.32.69-2.8.29-.49-.39-1.33-.78-2.51-1.18-1.77-.78-3.5-1.52-5.17-2.21-1.67-.69-3-1.72-3.99-3.1-2.17-3.74-3.94-7.38-5.31-10.92-2.17-5.71-3.5-11.71-3.99-18.01-.49-6.3-.54-12.59-.15-18.89.39-6.3,1.08-12.4,2.07-18.3.98-5.9,1.96-11.32,2.95-16.24.19-.98.69-1.62,1.48-1.92.78-.29,1.28-.93,1.48-1.92.39-1.57,1.13-2.66,2.21-3.25,1.08-.59,2.21-1.08,3.4-1.48,1.57-.39,2.8-.74,3.69-1.03.89-.29,2.11-.44,3.69-.44-1.77,5.71-3.15,12.21-4.13,19.48-.99,7.28-1.43,14.71-1.33,22.29.1,7.58.78,14.91,2.07,21.99,1.28,7.08,3.2,13.28,5.76,18.6,3.74-2.56,7.43-5.71,11.07-9.45,3.64-3.74,7.04-7.62,10.19-11.66,3.15-4.03,5.95-7.92,8.41-11.66,2.46-3.74,4.28-6.89,5.46-9.45,1.18-3.93,1.92-8.41,2.21-13.43.3-5.02.44-9.49.44-13.43-.2-1.77-.05-3.15.44-4.13.49-.98,1.03-2.07,1.62-3.25.39-.59.64-1.18.74-1.77.1-.59.44-1.08,1.03-1.48.39-.39.83-.93,1.33-1.62.49-.69,1.03-1.03,1.62-1.03,1.18,0,1.96.59,2.36,1.77.39,1.18.98,2.07,1.77,2.66.98.99,1.92,1.73,2.8,2.21.89.49,1.33,1.62,1.33,3.39Z" style="fill:#f45b69; stroke-width:0px;"/><path d="m817.92,793.25c2.36,10.63,4.23,21.26,5.61,31.88,1.37,10.63,2.66,21.26,3.84,31.88,1.18,10.63,2.41,21.26,3.69,31.88,1.28,10.63,3,21.26,5.17,31.88-.4,2.56-.69,4.63-.89,6.2-.2,1.58-.69,2.56-1.48,2.95-.99.59-1.92,1.23-2.8,1.92-.89.69-1.82,1.23-2.8,1.62-.4.2-.79.54-1.18,1.03-.4.49-.84.84-1.33,1.03-.49.2-.94.2-1.33,0-.4-.19-.89-.78-1.48-1.77-3.74-11.22-7.14-22.53-10.19-33.95-3.05-11.41-5.51-22.93-7.38-34.54-1.87-11.61-3.05-23.37-3.54-35.28-.49-11.91-.15-24.16,1.03-36.75,0-2.95.89-4.82,2.66-5.61.78-.39,1.82-.1,3.1.89,1.28.99,2.41,1.67,3.4,2.07,1.37.59,2.46.94,3.25,1.03.78.1,1.67.64,2.66,1.62Z" style="fill:#f45b69; stroke-width:0px;"/><path d="m934.24,846.68c2.55,6.3,4.97,13.09,7.23,20.37,2.26,7.28,3.84,14.52,4.72,21.7.89,7.19.89,14.12,0,20.81-.89,6.69-3.2,12.5-6.94,17.42-1.58,1.97-3.45,2.76-5.61,2.36-.79-.19-1.48-.69-2.07-1.48-.59-.78-1.38-1.48-2.36-2.07-.79-.59-1.62-1.08-2.51-1.48-.89-.39-1.73-1.18-2.51-2.36-2.95.99-5.86,2.41-8.71,4.28-2.86,1.87-5.76,3.79-8.71,5.76-2.95,1.97-6.01,3.89-9.15,5.76-3.15,1.87-6.4,3.2-9.74,3.99-3.54.99-6.15.84-7.82-.44-1.67-1.28-3.5-2.7-5.46-4.28-1.38-1.18-2.26-1.92-2.66-2.21-.4-.29-.79-1.52-1.18-3.69-.59-4.33-.64-9-.15-14.02.49-5.02,1.62-10.08,3.39-15.2,4.92-14.95,14.96-24.99,30.11-30.11,1.77-.59,3.59-.74,5.46-.44,1.87.29,3.69.84,5.46,1.62,1.77.79,3.49,1.77,5.17,2.95,1.67,1.18,3.2,2.36,4.58,3.54l4.72,3.84c.98-3.34.93-6.94-.15-10.78-1.08-3.84-2.71-7.48-4.87-10.92-2.17-3.44-4.63-6.54-7.38-9.3-2.76-2.75-5.42-4.62-7.97-5.61-10.04,0-19.04,2.32-27.01,6.94-7.97,4.63-15.7,10.68-23.17,18.16-.4.4-.84.69-1.33.89-.49.2-.94.4-1.33.59-.59.4-1.28.49-2.07.29-.59-.19-.69-.78-.29-1.77,1.18-6.3,3.54-11.96,7.08-16.97,3.54-5.02,7.68-9.4,12.4-13.14,4.72-3.74,9.74-6.89,15.06-9.45,5.31-2.55,10.53-4.43,15.65-5.61.78-.39,1.52-.64,2.21-.74.69-.1,1.52-.15,2.51-.15,1.38,0,2.66.4,3.84,1.18,1.18.79,2.56,1.67,4.13,2.66,1.96.99,3.93,2.12,5.9,3.39,1.96,1.28,3.74,2.8,5.31,4.58,1.38,1.58,2.56,3.15,3.54,4.72.98,1.58,1.87,3.05,2.66,4.43Zm-10.04,52.55c-1.18-2.56-3-4.92-5.46-7.09-2.46-2.16-5.27-3.79-8.41-4.87-3.15-1.08-6.55-1.33-10.19-.74-3.64.59-7.33,2.36-11.07,5.31-1.18,2.56-2.36,5.36-3.54,8.41-1.18,3.05-2.07,6.1-2.66,9.15-.59,3.05-.84,6.1-.74,9.15.1,3.05.74,5.86,1.92,8.41,7.48-2.56,14.76-5.51,21.85-8.86,7.09-3.34,13.18-6.3,18.3-8.86,1.18-1.18,1.87-2.16,2.07-2.95.19-.78.15-1.48-.15-2.07-.29-.59-.69-1.28-1.18-2.07-.49-.78-.74-1.77-.74-2.95Z" style="fill:#f45b69; stroke-width:0px;"/><path d="m1058.52,838.41c0,1.77.29,3.99.89,6.64.59,2.66.39,4.77-.59,6.35-.4.4-.59,1.13-.59,2.21s-.29,1.82-.89,2.21l-3.84-2.36c-3.15-1.57-6.64-2.26-10.48-2.07-3.84.2-7.73,1.08-11.66,2.66-2.76,1.18-5.46,2.8-8.12,4.87-2.66,2.07-5.17,4.38-7.53,6.94-2.36,2.56-4.53,5.22-6.5,7.97-1.97,2.76-3.64,5.42-5.02,7.97-3.15,5.71-4.68,12.6-4.58,20.67.1,8.07,3,18.5,8.71,31.29,0,1.38-.99,3.05-2.95,5.02-.4.4-.89.99-1.48,1.77-.59.79-1.08,1.38-1.48,1.77-1.58,1.38-2.51,2.56-2.8,3.54-.29.99-.94,1.67-1.92,2.07-1.58.59-3.05-.78-4.43-4.13-3.35-5.91-6.55-13.14-9.59-21.7-3.05-8.56-5.9-17.37-8.56-26.42-2.66-9.05-5.02-17.76-7.08-26.13-2.07-8.36-3.69-15.4-4.87-21.11-.59-1.57-.69-3.1-.3-4.58.39-1.48.98-2.7,1.77-3.69.59-.78,1.33-.98,2.21-.59.88.4,1.62.59,2.21.59,2.56,0,4.13.49,4.72,1.48.59.99,1.57,2.26,2.95,3.84,2.75,3.15,4.92,7.38,6.49,12.69,1.57,5.31,3.54,11.62,5.91,18.89,3.15-5.31,7.23-10.43,12.25-15.35,5.02-4.92,10.48-9.4,16.38-13.43,5.9-4.03,12-7.33,18.3-9.89,6.3-2.56,12.4-4.13,18.3-4.72,1.18-.19,2.21.15,3.1,1.03s1.23,2.12,1.03,3.69Z" style="fill:#f45b69; stroke-width:0px;"/></g></svg>