<?xml version="1.0" encoding="UTF-8"?><svg id="a" xmlns="http://www.w3.org/2000/svg" viewBox="0 0 1536 1024"><path d="m346.81,379.84c-2.99-.25-5.62-1.71-8.01-4.48-2.39-2.77-5.11-7.7-8.16-14.65-4.79-10.93-8.22-18.64-9.38-22.57-.45-1.52-.52-2.2-3.6-1.25-1.67.52-5.59,1.95-11.33,4.36-5.09,2.14-10.05,4.15-14.78,5.7-1.23.4-3.9,1.08-8.11,2.08-.06,3.12-.09,4.68-.14,7.79-.05,4.87-.38,9.32-.87,13.52-.49,4.2-1.05,7.04-1.78,8.16-.63.96-2.13,1.87-4.28,2.62-2.58.89-4.96,1.22-7.09.93-1.85-.26-3.49-1.24-3.86-2.37-4.98-15.13-2.42-39.83-3.04-59.65-.44-15.37-.75-29.51-.68-42.05.06-10.17.02-23.45-.38-39.5-.74-32.24.17-38.81,5.46-45.23,1.72-1.78,4.25-3.2,7.39-4.19,1.91-.6,4.05-1.06,6.34-1.36,6.38-.74,12.75-.24,18.6,1.74,4.71,1.6,9.63,4.83,14.44,9.07,4.78,4.22,8.86,9.16,11.97,14.55,3.13,5.41,6.79,12.92,10.75,22.38,5.4,12.92,10.67,27.74,15.87,44.32,2.97,9.46,7.74,25.07,14.16,47.05,2.02,6.58,3.03,9.86,5.05,16.44.97,3.3,1.77,6.65,2.48,10.02.71,3.37,1.14,6.23,1.2,8.33.04,1.4-.5,3.27-1.64,5.23-1.34,2.3-3.31,4.39-5.56,6.01-3.16,2.28-8.03,4.17-13.95,5.88-2.92.84-5.3,1.23-7.06,1.14Zm-58.22-56.44c2.83-1.18,8.86-3.55,13.8-5.46,2.52-.98,4.65-1.86,6.27-2.58,3.43-1.53,2.87-1.61,2.71-2.27-.39-1.62-1.05-3.57-1.98-5.85-3.78-10.12-8.88-25.17-15.33-45.23-7.32-22.76-11.3-34.05-11.86-33.88-.28.09-.45,5.17-.53,15.38-.05,21.81.11,43.58.69,65.34.26,9.79.61,15.16.83,16.02.07.28.74.27,2.07-.17.8-.26,1.96-.73,3.32-1.3Zm49.98-45.79c.52-.68.29-3.04-.49-6.6-1.44-6.53-3.81-14.37-7.21-23.36-2.53-6.7-4.87-12-7.06-15.34-2.5-3.81-5.38-5.4-8.28-4.56-1.4.41-2.18.94-2.49,1.75-.17.56-.09,1.36.18,2.51.44,1.92,3.39,9.61,8.59,22.94,5.09,13.05,8.04,20.45,8.86,21.95,1.5,1.92,3.48,2.57,5.93,1.87.73-.21,1.55-.62,1.96-1.17Zm5.4,13.17c-.82-3.75-3.42-3.9-6.14-3.06-2.2.68-3.13,1.92-2.74,3.65.43,1.92,1.61,3.32,3.46,4.32.94.34,2.08.33,3.25,0,2.07-.59,2.76-2.21,2.17-4.9Z" style="stroke-width:0px;"/><path d="m402.45,355.18c-3.63-.41-6.56-2.81-8.81-7.21-9.57-20.48-13.63-43.62-18.05-65.61-.62-3.09-.93-4.63-1.55-7.72-5.11-26.72-10.12-53.51-11.24-80.75-.28-6.42.51-11.03,2.29-13.76,1.81-2.79,5.1-4.72,9.7-5.84.73-.18,1.09-.27,1.82-.44,9.58-2.33,16.18.41,19.76,8.17,1.1,2.27,2.61,8.49,4.72,18.61,1.28,6.25,1.91,9.38,3.19,15.63,4.69-18.53,8.27-42.17,24.01-55.23,2.15-1.45,5.65-2.67,10.57-3.65,2.22-.44,3.99-.59,5.38-.56,1.4.03,3.24.37,5.61,1.02,8.4,2.4,15.4,6.44,21.18,12.01,18.34,18.39,25.86,42.41,28.99,65.89,2.51,18.84,3.08,40.13-2.71,59.81-2.58,9.36-5.3,16.66-8.25,22.1-2.95,5.45-6.69,9.69-10.78,13.04-4.3,3.52-9.1,6.07-14.44,7.15-4.2.85-8.74.83-13.64.1-4.24-.63-7.98-1.62-11.26-3.22-6.48-3.32-9.01-6.67-9.42-9-.46-2.62,1.42-4.46,5.58-5.38,2.03-.45,4.18-.83,10.31.28.96-1.7,1.45-2.54,2.42-4.24,1.49-2.63,3.02-6.78,4.63-12.24,1.61-5.46,3-11.21,4.13-17.13.85-4.48,1.63-12.19,2.51-22.91,1.5-21.71,2.26-43.94-.81-65.42-1.5-10.49-4.07-18.9-7.57-25.15-1.68-3.29-2.39-2.75-2.77-2.68-.67.13-1.58.61-2.82,1.56-16.11,15.22-19.06,41.46-23.46,61.95-1.71,9.15-2.98,18.31-3.96,27.31-.98,9-1.39,16.27-1.3,22,.05,2.91.46,6.26,1.17,10.23.5,2.82,1.22,6.29,2.14,10.42.93,4.13,1.86,8.36,2.77,12.9.88,4.44,1.63,8.11,2.13,10.92.97,5.44,1.4,8.8,1.24,10.02-.11.82-.33,1.69-.63,2.57-1.49,3.88-4.37,7.26-8.67,9.81-3.21,1.91-6.56,3.29-9.95,4.13-1.65.41-3.08.56-4.17.53Zm2.42-87.74c.19-1.29-1.87-12.81-5.7-33.74-3.28-17.93-5.26-28.1-5.95-30.35-.52-1.68-1.14-2.77-1.89-3.3-1.02-.72-1.97-1.05-2.63-.89-1.23.29-1.75,2.07-1.57,5.33.13,2.45,1.47,9.97,3.82,22.56,2.23,11.91,4.39,22.59,6.37,32.06,1.24,5.93,2.01,9.23,2.3,9.77.58.57,1.38.78,2.57.5,1.55-.37,2.55-1.08,2.68-1.95Zm76.31,49.14c1.36-.97,2.06-2.09,1.88-3.36-.1-.69-.46-1.32-1.12-2.1-1.41-1.54-2.96-2.16-4.74-1.82-.62.12-1.13.41-1.62.81-.86.97-1.13,2.22-.91,3.69.45,3.03,3.35,4.18,4.41,3.98.53-.1,1.2-.56,2.1-1.2Zm8.24-23.66c1.13-4.41,2.11-9.72,2.81-15.73,1-8.61,1.2-15.13.64-19.34-.2-1.47-.86-2.76-1.9-3.68-1.39-1.23-2.49-1.77-3.41-1.61-.82.14-1.46.96-1.92,2.44-.55,4.2-1.18,9.73-1.91,16.48-1.9,16.28-2.7,25.16-2.49,26.63.08.59.54,1.2,1.28,1.87,1.17,1.09,2.14,1.51,2.94,1.37,1.34-.24,2.58-3.08,3.95-8.43Z" style="stroke-width:0px;"/><path d="m569.98,327.28c-16.89-1-29.58-9.31-38.43-25.37-3.37-5.59-6.08-12.27-8.01-19.96-1.93-7.69-3.76-19.11-5.6-34.3-2.18-17.96-3.73-36.32-4.14-54.41-.38-16.7.25-29,2-36.75.61-2.38,1.84-4.87,3.57-7.41,1.77-2.61,3.52-4.6,5.43-5.97,1.92-1.37,5.48-3.07,10.89-5.09,11.59-4.24,21.61-6.85,30-7.8,4.98-.57,11.57-.81,19.73-.73,9.73.09,13.71.56,15.31,2.5,1.08,1.39,1.73,3.72,1.96,6.97.1,1.48-.63,2.83-1.67,4.03-.9,1.04-2.58,2.12-5.06,2.76-2.49.63-12.51,2.08-29.41,5.27-3.52.66-6.7,1.38-9.65,2.23,1.06,3.95,1.9,8.65,2.39,14.05,1.63,18.01,1.9,36.3,2.19,54.39.36,23,.75,35.95,1.01,38.61,13.18-2.04,20.56-3,22.11-3.17,3.2-.35,5.43-.08,6.69.68,1.54.93,3.03,2.59,4.33,4.72,1.83,3,2.75,5.88,2.94,8.35.12,1.48-.08,2.49-.66,3.25-.52.35-2.58,1.21-6.01,2.31-3.4,1.09-7.31,2.32-11.54,3.54-4.21,1.21-8.02,2.11-11.22,2.81-3.91.85-4.88,1.3-4.72,2.97.15,1.57.73,3.79,1.64,6.57,3.14,10.86,7.62,17.48,13.46,19.69,2.3.73,6.33.76,12.08.15,3.72-.4,8.16-1.1,13.24-1.95,1.57-.26,3-.49,4.24-.61,1.77-.17,3.12-.09,4.11.11,1.55.46,2.35,1.68,2.48,3.55.19,2.76-.59,4.71-2.33,5.97-1.68,1.22-5.4,2.58-11.14,4.05-5.74,1.47-10.22,2.5-13.33,2.89-8.72,1.09-15.14,1.34-18.9,1.11Zm-38.42-107.51c.84-1.22,1.34-2.71,1.15-4.15-.31-2.4-1.73-3.65-4.27-3.38-.56.08-.84.12-1.4.2-3.46.5-5.13,1.75-4.89,3.81.09.79.37,1.54.84,2.37,1.51,2.37,3.82,3.5,6.5,2.94.7-.15,1.41-.85,2.07-1.79Zm-.62-19.37c1.21-1.17,1.67-9.12,1.44-23.74-.03-3.89-.17-6.96-.41-9.12-.34-3.14-1.41-4.09-3.79-4.45-.7-.2-1.39-.2-2.06-.11-1.83.26-3.15,1.55-3.94,3.96-1.28,4.18-1.29,11.67-.05,22.57.35,3.04.72,5.3,1.18,6.91,1.03,3.69,3,5.35,5.92,4.93.57-.08,1.11-.36,1.71-.94Z" style="stroke-width:0px;"/><path d="m640.25,317.23c-3.51-1.04-6.08-3.91-7.7-8.65-6.67-21.84-7.36-45.35-9.01-67.96-.2-3.16-.3-4.74-.5-7.9-1.46-27.24-2.83-54.53-.3-81.74.58-6.4,1.97-10.82,4.08-13.21,2.15-2.44,5.64-3.79,10.32-4.1.74-.05,1.11-.08,1.85-.12,9.74-.65,15.87,3.19,18.35,11.48.78,2.43,1.44,8.84,2.16,19.21.42,6.4.63,9.6,1.05,16,7.01-17.34,13.68-40.2,31-50.46,2.32-1.06,5.92-1.67,10.89-1.8,2.24-.06,4,.1,5.38.37,1.37.27,3.14.93,5.39,1.97,7.95,3.82,14.31,9.01,19.27,15.52,15.5,21.13,19.83,46.14,19.77,70.11-.04,18.92-2.28,40.03-10.66,58.66-3.8,8.81-7.45,15.55-11.09,20.43-3.63,4.88-7.89,8.43-12.37,11.03-4.7,2.74-9.77,4.44-15.18,4.59-4.25.12-8.71-.68-13.44-2.25-4.09-1.35-7.64-2.97-10.65-5.12-5.94-4.39-7.97-8.15-8.07-10.52-.1-2.67,1.99-4.16,6.21-4.35,2.06-.09,4.22-.1,10.11,2.06,1.17-1.51,1.76-2.26,2.94-3.77,1.82-2.34,3.88-6.18,6.19-11.3,2.32-5.12,4.45-10.56,6.35-16.23,1.44-4.28,3.23-11.77,5.54-22.22,4.39-21.27,8.09-43.14,7.94-64.8-.08-10.63-1.49-19.38-4.1-26.16-1.21-3.54-1.98-3.13-2.37-3.12-.68.01-1.64.33-2.98,1.05-17.98,12.36-24.36,37.87-31.36,57.19-2.9,8.75-5.37,17.58-7.54,26.31-2.17,8.73-3.54,15.84-4.21,21.52-.34,2.89-.38,6.26-.21,10.32.12,2.87.36,6.42.72,10.66.36,4.24.72,8.59,1,13.23.28,4.54.52,8.3.64,11.16.23,5.54.21,8.93-.11,10.12-.22.79-.56,1.61-.97,2.43-1.98,3.58-5.27,6.42-9.84,8.2-3.42,1.33-6.89,2.12-10.33,2.36-1.68.12-3.1.02-4.17-.2Zm14.07-86.3c.36-1.24-.13-12.98-1.11-34.33-.84-18.29-1.43-28.68-1.81-31.02-.28-1.75-.75-2.93-1.42-3.58-.91-.89-1.8-1.38-2.47-1.34-1.25.08-1.99,1.75-2.26,5-.2,2.45.12,10.1.75,22.95.6,12.16,1.31,23.08,2,32.79.43,6.08.74,9.47.96,10.05.5.66,1.26,1.01,2.46.94,1.57-.1,2.66-.63,2.9-1.46Zm68.57,61.7c1.47-.73,2.31-1.71,2.3-3,0-.69-.28-1.38-.83-2.27-1.18-1.77-2.63-2.64-4.42-2.62-.63,0-1.17.22-1.7.52-.98.81-1.41,2-1.39,3.49.04,3.07,2.74,4.71,3.82,4.69.53,0,1.26-.34,2.23-.82Zm11.28-21.97c1.7-4.16,3.38-9.25,4.87-15.06,2.14-8.34,3.21-14.75,3.21-19.01,0-1.49-.48-2.87-1.38-3.96-1.2-1.45-2.22-2.18-3.14-2.18-.83,0-1.57.7-2.21,2.09-1.1,4.06-2.46,9.41-4.08,15.96-4.04,15.77-6.03,24.4-6.01,25.89,0,.59.37,1.28,1.01,2.07,1,1.28,1.91,1.86,2.72,1.86,1.35-.01,2.96-2.6,5.02-7.65Z" style="stroke-width:0px;"/><path d="m832.43,325.96c-2.75-1.27-4.84-3.59-6.36-7.05-1.51-3.46-2.75-9.1-3.74-16.78-1.57-12.07-2.73-20.58-2.76-24.74-.01-1.6.1-2.28-3.06-2.45-1.72-.09-5.8-.09-11.86.21-5.37.27-10.59.44-15.47.28-1.26-.04-3.97-.33-8.2-.85-.9,2.95-1.34,4.42-2.23,7.36-1.36,4.62-2.87,8.74-4.46,12.56-1.59,3.82-2.89,6.34-3.87,7.14-.85.69-2.51,1.04-4.73,1-2.67-.05-5-.57-6.92-1.59-1.68-.89-2.95-2.37-3-3.6-.57-15.95,8.43-38.71,13.19-57.81,3.72-14.78,7.23-28.33,10.68-40.25,2.79-9.65,6.33-22.3,10.28-37.72,7.99-30.93,10.61-36.87,17.33-41.14,2.1-1.1,4.87-1.57,8.1-1.41,1.96.1,4.11.4,6.35.92,6.22,1.52,12.1,4.21,17.09,8.13,4.02,3.17,7.79,7.95,11.19,13.65,3.39,5.68,5.9,11.8,7.39,18.01,1.5,6.24,2.93,14.66,4.11,25.03,1.62,14.18,2.6,30.11,3.03,47.7.41,16.54.54,33.13.68,49.7.14,6.96.2,10.44.33,17.4.03,3.48-.12,6.94-.37,10.39-.24,3.45-.6,6.33-1.11,8.34-.34,1.35-1.35,2.94-2.96,4.41-1.88,1.72-4.33,3.03-6.88,3.79-3.6,1.07-8.72,1.18-14.77.75-2.98-.21-5.34-.67-6.97-1.37Zm-39.7-73.97c2.98-.14,9.3-.29,14.48-.39,2.64-.05,4.88-.15,6.61-.27,3.64-.27,3.14-.53,3.17-1.22.07-1.68-.03-3.77-.29-6.26-.84-10.94-1.59-27.04-2.26-48.37-.77-24.21-1.48-36.34-2.05-36.36-.29-.01-1.82,4.77-4.64,14.45-5.93,20.76-11.65,41.53-16.95,62.42-2.39,9.41-3.51,14.64-3.53,15.53,0,.3.63.51,2,.56.82.03,2.04,0,3.48-.08Zm59.51-26.18c.67-.47,1.1-2.79,1.32-6.45.4-6.71.28-15-.5-24.74-.58-7.26-1.36-13.11-2.53-17.05-1.33-4.51-3.63-7.01-6.59-7.21-1.43-.1-2.31.14-2.82.8-.31.48-.45,1.26-.51,2.45-.1,1.98.61,10.31,1.92,24.82,1.28,14.19,2.07,22.26,2.45,23.97.9,2.35,2.59,3.66,5.1,3.85.74.06,1.63-.06,2.17-.43Zm1.55,14.41c.23-3.85-2.18-4.9-4.98-5.04-2.26-.12-3.47.74-3.57,2.52-.11,1.98.62,3.71,2.1,5.31.79.65,1.88,1.03,3.07,1.12,2.11.16,3.21-1.14,3.38-3.91Z" style="stroke-width:0px;"/><path d="m947.99,332.92c-13.66-10.21-19.86-27.54-24.98-43.29-2.33-6.68-4.29-12.7-5.7-18.06-1.41-5.35-3.13-12.54-5.05-21.62-1.74-8.26-2.86-12.38-3.23-12.42-.37-.04-1.06,4.55-2.17,13.78-1.23,10.76-1.84,16.15-3.06,26.91-2.66,25.56-4.34,38.41-4.98,38.63-1.83,2.58-5.3,3.57-10.42,3.03-3.08-.33-5.02-1.13-5.85-2.4-.8-1.23-1.08-4.11-1.02-8.55.09-6.32.65-17.86,1.97-34.29,1.78-22.04,3.75-44.26,6.04-66.18,2.42-23.11.98-62.13,12.55-74.55,1.46-1.56,6.51-2.04,11.63-1.41,5.11.63,9.7,2.04,13,4.21,4.45,2.93,8.63,9.44,12.1,18.46,1.83,5.02,4.38,14.92,7.67,29.54,3.65,16.21,6.93,32.74,9.74,49.19,3.79,22.14,5.17,60.07,12.64,66.72.13.11,1.95-4.69,4.76-14.32,3.78-12.98,6.66-26.32,8.71-39.97,1.45-9.66,2.49-16.9,3.13-21.79,1.27-9.69,2.34-19.66,3.19-29.59,1.19-13.95,2.44-25.51,3.6-34.42.88-7.38,1.32-11.07,2.2-18.45.84-.36,1.67-.62,2.61-.96,1.79-.8,5.44-.58,8.16-.11,2.04.35,3.65.94,4.84,1.75,1.18.81,1.83,3.33,2.11,7.69.91,13.39.71,25.89-.33,37.23-.75,8.22-1.76,17.36-3.19,27.19-3.28,22.59-6.68,45.38-11.49,67.69-2.55,11.83-5.29,21.45-8.14,28.61-1.63,4.1-3.72,8.08-5.97,11.77-2.24,3.66-4.19,6.28-5.89,7.59-6.4,4.21-13.81,5.67-22.3,4.35-2.45-.38-4.78-1.04-6.9-1.96Zm-11.14-136.85c.15-1.48-.11-4.41-.71-8.96-1.01-7.69-2.5-14.28-4.19-19.77-1.69-5.49-3.3-8.98-5-10.49-1.71-1.51-3.77-2.35-6.18-2.64-2.6-.31-4.27.89-4.33,1.58-.03.29.22.82.65,1.47.92,1.6,2.31,5.64,4.12,12.13,4.64,16.58,7.46,25.41,8.32,26.32.95,1.01,2.31,1.79,4.1,2.02,1.98.26,3.09-.29,3.23-1.67Zm7.42,31.22c.09-.79-.02-2.4-.31-4.93-.39-3.34-.84-5.4-1.33-6.07-.86-.82-2.32-1.32-4.47-1.61-1.87-.25-2.9.06-3.03.89-.2,1.3.2,3.62.9,6.8.31,1.54.66,2.68,1.05,3.43,1.06,1.54,2.57,2.44,4.42,2.7,1.76.24,2.65-.13,2.77-1.21Z" style="stroke-width:0px;"/><path d="m1089.02,364.79c-2.4-1.32-4.02-4.4-4.4-9.45-.37-4.96.1-13.64,1.31-25.83.45-4.53.81-8.42,1.16-11.67.36-3.25.58-4.92.62-5.11.04-.19-1.99-.8-5.99-1.78-3.56-.87-12.25-2.71-26.01-5.11-.77,3.1-1.15,4.65-1.92,7.74-2.06,9.12-4.72,13.13-9.6,15.62-5.69,2.9-12.62,3.5-20.08,1.97-4.75-.98-7.94-3.12-9.5-6.55-.68-1.44-1.05-3.83-1.11-6.95-.28-7.09.03-15.51.81-25.16.5-6.21,2.44-20.42,5.78-42.47,2.23-14.73,4.12-25.84,5.7-33.24,1.74-8.17,3.97-16,6.75-23.29,6.13-17.08,10.09-20.16,22.81-17.49,8.41,1.77,13.64,4.84,15.74,9.24,1.49,2.25,2.22,5.71,2.38,10.12.16,4.33-.23,9.99-1.24,16.58-1.01,6.59-1.99,13.1-3.09,19.19-3.31,18.43-6.9,36.93-10.41,55.39,9.37,2.11,15.59,3.61,18.53,4.4,3.66.99,8.01,2.43,13.03,4.19,3.66-18.26,7.27-36.6,11.58-54.69,3-12.6,5.62-21.93,7.71-27.98,5.36-15.55,9.8-26.79,13.18-33.48,3.39-6.71,6.39-10.25,8.91-10.7,2.09-.37,4.51-.25,7.3.49,5.39,1.43,10.91,4.09,15.07,7.94,3.31,3.07,4.13,6.98,4.13,13.18,0,3.2-.39,7.08-1.28,11.37-.87,4.2-1.4,6.85-1.59,7.71-1.75,7.97-4.74,20.11-8.8,36.49-4.41,17.81-7.99,32.94-10.66,45.14-3.13,14.32-5.76,27.9-7.75,40.56-1.58,10.03-3.03,18.02-4.31,23.88-.63,2.88-1.25,4.85-1.92,5.78s-1.72,1.96-3.29,2.85c-3.96,2.56-8.37,3.88-13.38,3.96-4.93.08-8.7-.19-11.38-.89-1.73-.45-3.35-1.17-4.78-1.95Zm-55.16-106.68c1.93-.81,1.98-2.91,2.04-3.3.42-2.63-.17-6.07-2.1-6.46-.64-.13-1.84-.98-2.02-1.01-1.38-.28-3.59,1.09-3.87,2.94-.09.58-.14,1.48-.03,2.61.35,3.19,1.48,5.02,3.4,5.41.73.15,1.59.12,2.58-.18Zm5.39-22.43c.76-1.76,1.73-4.89,3.05-9.43,2.73-9.37,4.44-15.48,4.93-18.5.32-1.95.36-3.45.13-4.4-.44-2.1-2.33-3.7-5.66-4.79-.31-.02-.46-.03-.77-.06-2.41-.19-4.67,6.8-6.88,20.93-.93,5.95-1.47,9.72-1.57,11.25-.09,1.45.27,2.57.95,3.11.88,1.08,2.38,1.89,4.06,2.13.79.12,1.44,0,1.76-.24Zm60.72,87.17c.09.02.58.07,1.21.01.74-.07,1.67-2.46,2.63-6.93.96-4.48,2.06-12.09,3.46-22.56.96-7.14,2.53-16.2,4.72-27.01,1.12-5.36,1.69-8.03,2.81-13.39,1.29-6.37,1.69-10.02,1.23-10.85-.43-.78-.99-1.37-1.82-1.59-1.57-.41-2.71-.09-3.47.83-1.42,1.77-3.67,10.75-6.9,26.45-3.34,16.22-6.14,33.88-6.41,50.62-.1,1.9.3,3.12,1.22,3.67.54.3.8.45,1.34.75Z" style="stroke-width:0px;"/><path d="m1195.93,399.26c-1.68-1.67-3.16-4.18-4.41-7.19-1.65-3.97-3.42-9.84-5.32-17.48-1.89-7.58-3.57-15.3-5.04-22.98-.94-5.41-1.42-8.12-2.39-13.53-16.44,21.39-25.21,32.99-26.74,33.95-1.31.82-3.25.85-5.32.23-3.45-1.04-6.05-2.94-7.9-5.73-.71-1.33-.98-2.67-.62-3.76,6.49-19.19,24.86-39.41,38.08-57.33-1.26-14.25-1.96-29.01-2.15-43.84-.21-17.11-.4-34.52,2.28-51.54.48-2.27.73-3.41,1.21-5.68.86-3.74,1.74-6.24,2.55-7.53,2.95-3.53,7.82-4.34,14.76-2.21,2.47.76,5.2,1.88,8.18,3.35,5.79,2.86,10.3,7.56,13.35,13.7,3.05,6.13,5.45,15.06,6.95,26.81.57,4.03.85,6.04,1.41,10.07.28.09,4.2-4.18,12.07-12.75,11.62-12.66,19.61-20.22,23.88-22.55,1.26-.8,2.74-.9,4.44-.29,1.7.61,3.72,2.08,5.92,4.1,2.53,2.32,3.94,4.05,3.87,5.04-.06.91-.12,1.52-.2,1.8-.48,1.7-2.08,4.05-4.69,7.03-13.87,15.82-28.23,31.46-42.23,47.29.94,27.45,1.37,55.01,2.77,82.36.52,10.25.64,17.61.44,22-.2,4.29-.54,7.51-1.16,9.67-1,3.48-3.37,6.15-7.18,7.98-7.56,3.8-14.66,4.58-21.45,2.21-2.12-.74-3.92-1.76-5.36-3.2Zm-3.55-153.08c.16-.26.32-.51.42-.89.28-1.14.83-4.76,1.49-10.62.85-7.56,1.53-13.63,2.37-17.64,1.5-7.18.56-8.98-2.73-10.08-5.79-1.93-5.54.26-7.4,7.28-1.37,5.18-2.1,9.3-2.39,11.78-.28,2.48-.36,4.91-.28,7.5.21,7.96,1.48,10.91,5.46,12.14,1.94.6,2.89.8,3.06.54Zm.3,19.41c.88-5.58-.58-8.92-4.26-10.07-2.58-.8-4.1-.24-4.54,1.57-.37,1.53.18,3.45,1.21,5.61.86,1.8,2.01,3.09,3.38,3.52,3.75,1.18,3.92.52,4.2-.63Z" style="stroke-width:0px;"/><path d="m326.52,366.79c-3.02-.2-5.69-1.63-8.13-4.36-2.44-2.73-5.21-7.63-8.34-14.54-4.91-10.87-8.43-18.54-9.63-22.44-.46-1.51-.55-2.2-3.65-1.2-1.69.54-5.63,2.03-11.41,4.54-5.12,2.22-10.12,4.3-14.89,5.93-1.24.42-3.93,1.14-8.18,2.2-.04,3.12-.06,4.68-.09,7.8-.02,4.88-.33,9.34-.79,13.55-.47,4.21-1.01,7.07-1.74,8.19-.63.97-2.14,1.9-4.31,2.68-2.6.94-5.01,1.3-7.16,1.04-1.87-.23-3.54-1.18-3.92-2.31-5.12-15.04-2.71-39.83-3.46-59.66-.55-15.38-.96-29.52-.97-42.08-.01-10.18-.14-23.47-.66-39.53-.97-32.25-.1-38.84,5.19-45.35,1.72-1.81,4.26-3.27,7.43-4.3,1.92-.63,4.08-1.12,6.39-1.45,6.44-.84,12.87-.44,18.79,1.47,4.76,1.53,9.76,4.69,14.64,8.86,4.86,4.15,9.01,9.04,12.19,14.38,3.2,5.36,6.95,12.83,11.01,22.23,5.55,12.85,10.98,27.6,16.34,44.11,3.06,9.42,8,24.97,14.64,46.86,2.09,6.55,3.14,9.83,5.22,16.38,1.01,3.29,1.83,6.62,2.57,9.99.74,3.36,1.2,6.22,1.27,8.31.05,1.4-.48,3.28-1.62,5.25-1.33,2.32-3.31,4.44-5.57,6.09-3.18,2.33-8.08,4.3-14.05,6.1-2.94.89-5.34,1.31-7.12,1.24Zm-59.2-55.59c2.85-1.23,8.92-3.69,13.9-5.68,2.54-1.01,4.68-1.93,6.32-2.68,3.45-1.59,2.89-1.65,2.72-2.32-.41-1.62-1.09-3.56-2.04-5.83-3.89-10.07-9.14-25.06-15.79-45.03-7.55-22.67-11.65-33.91-12.21-33.72-.28.09-.42,5.19-.43,15.4.1,21.82.41,43.61,1.15,65.38.33,9.79.72,15.16.95,16.02.08.28.75.26,2.09-.2.8-.28,1.97-.76,3.35-1.35Zm50.16-46.57c.52-.69.28-3.05-.54-6.59-1.5-6.51-3.95-14.32-7.44-23.27-2.61-6.67-5.01-11.94-7.24-15.24-2.55-3.77-5.47-5.32-8.39-4.44-1.41.43-2.19.98-2.5,1.79-.17.57-.08,1.36.19,2.51.46,1.91,3.49,9.56,8.84,22.83,5.23,12.98,8.26,20.35,9.11,21.83,1.52,1.9,3.53,2.52,6,1.79.73-.22,1.56-.64,1.97-1.2Zm5.55,13.09c-.86-3.74-3.48-3.85-6.22-2.97-2.22.71-3.14,1.97-2.74,3.69.45,1.91,1.65,3.29,3.52,4.27.95.33,2.1.29,3.28-.06,2.09-.62,2.78-2.25,2.16-4.94Z" style="fill:#fff; stroke-width:0px;"/><path d="m382.56,341.28c-3.67-.36-6.65-2.72-8.95-7.09-9.82-20.34-14.08-43.45-18.71-65.38-.65-3.08-.97-4.62-1.62-7.7-5.35-26.66-10.61-53.4-11.95-80.62-.33-6.42.44-11.05,2.21-13.8,1.81-2.82,5.11-4.8,9.75-5.99.73-.19,1.1-.28,1.83-.47,9.66-2.46,16.34.17,20.01,7.89,1.13,2.26,2.7,8.45,4.91,18.55,1.34,6.24,2,9.35,3.34,15.59,4.6-18.66,8.08-42.37,23.82-55.59,2.16-1.48,5.68-2.75,10.64-3.8,2.24-.47,4.02-.64,5.43-.64,1.41,0,3.27.33,5.68.94,8.49,2.29,15.59,6.23,21.48,11.72,18.65,18.12,26.45,42.06,29.8,65.5,2.69,18.82,3.43,40.12-2.26,59.86-2.54,9.4-5.23,16.73-8.16,22.22-2.94,5.49-6.69,9.78-10.79,13.19-4.32,3.58-9.15,6.2-14.53,7.36-4.24.91-8.82.96-13.78.3-4.28-.57-8.07-1.5-11.4-3.06-6.58-3.22-9.15-6.55-9.58-8.87-.48-2.62,1.4-4.48,5.6-5.46,2.05-.48,4.22-.89,10.42.14.96-1.71,1.44-2.56,2.41-4.27,1.49-2.65,3-6.82,4.58-12.31,1.59-5.49,2.94-11.25,4.04-17.2.83-4.5,1.55-12.21,2.36-22.96,1.34-21.72,1.94-43.97-1.33-65.43-1.6-10.47-4.26-18.85-7.84-25.05-1.72-3.27-2.43-2.72-2.82-2.64-.68.14-1.6.63-2.83,1.6-16.09,15.37-18.91,41.7-23.2,62.29-1.65,9.18-2.87,18.36-3.79,27.38-.92,9.02-1.28,16.3-1.15,22.03.07,2.92.51,6.25,1.26,10.22.53,2.81,1.28,6.27,2.24,10.39.97,4.12,1.95,8.34,2.89,12.86.93,4.43,1.71,8.09,2.24,10.9,1.02,5.42,1.48,8.78,1.33,10-.1.83-.33,1.7-.62,2.58-1.48,3.9-4.36,7.32-8.69,9.94-3.24,1.96-6.6,3.39-10.02,4.27-1.66.43-3.1.6-4.21.59Zm1.8-87.81c.18-1.29-1.98-12.78-6.01-33.67-3.45-17.89-5.52-28.03-6.24-30.27-.53-1.68-1.17-2.75-1.93-3.27-1.03-.7-2-1.02-2.66-.86-1.24.31-1.75,2.1-1.55,5.36.15,2.45,1.56,9.95,4.03,22.51,2.34,11.89,4.6,22.54,6.68,31.99,1.3,5.92,2.1,9.21,2.39,9.74.59.56,1.4.76,2.6.46,1.56-.39,2.57-1.12,2.69-1.99Zm77.46,48.07c1.37-.99,2.07-2.12,1.87-3.38-.11-.68-.48-1.31-1.15-2.08-1.44-1.52-3.01-2.12-4.8-1.76-.63.13-1.14.43-1.63.83-.86.98-1.12,2.24-.89,3.7.48,3.02,3.42,4.14,4.49,3.92.53-.11,1.21-.57,2.11-1.23Zm8.14-23.78c1.11-4.43,2.06-9.76,2.72-15.77.95-8.62,1.1-15.15.49-19.35-.21-1.47-.89-2.75-1.95-3.65-1.41-1.21-2.53-1.73-3.45-1.56-.83.16-1.47.98-1.92,2.47-.52,4.21-1.11,9.75-1.8,16.51-1.79,16.31-2.54,25.2-2.31,26.67.09.59.55,1.2,1.31,1.85,1.19,1.07,2.17,1.48,2.98,1.33,1.35-.26,2.58-3.12,3.93-8.49Z" style="fill:#fff; stroke-width:0px;"/><path d="m551.62,311.03c-17.08-.77-29.96-8.92-39.04-24.85-3.45-5.54-6.24-12.18-8.25-19.85-2.01-7.67-3.95-19.07-5.93-34.23-2.34-17.94-4.06-36.28-4.62-54.36-.52-16.7.02-29.01,1.72-36.78.59-2.39,1.82-4.89,3.54-7.46,1.77-2.63,3.51-4.65,5.44-6.04,1.92-1.4,5.5-3.14,10.95-5.24,11.66-4.4,21.76-7.13,30.22-8.2,5.02-.63,11.67-.96,19.91-.99,9.83-.03,13.84.39,15.48,2.3,1.1,1.38,1.78,3.69,2.04,6.95.12,1.48-.62,2.84-1.65,4.05-.9,1.05-2.58,2.16-5.09,2.82-2.51.67-12.61,2.24-29.64,5.65-3.55.71-6.76,1.47-9.72,2.36,1.1,3.94,1.99,8.62,2.53,14.02,1.8,17.99,2.23,36.28,2.66,54.37.56,23,1.06,35.95,1.34,38.6,13.3-2.21,20.74-3.28,22.31-3.47,3.22-.39,5.48-.15,6.76.59,1.57.91,3.08,2.55,4.41,4.67,1.87,2.98,2.83,5.85,3.04,8.31.13,1.48-.06,2.49-.64,3.25-.52.36-2.6,1.24-6.05,2.38-3.43,1.13-7.37,2.42-11.63,3.69-4.24,1.27-8.08,2.21-11.31,2.95-3.94.91-4.92,1.36-4.75,3.03.17,1.57.77,3.78,1.71,6.55,3.26,10.82,7.84,17.38,13.76,19.51,2.33.7,6.4.68,12.21-.01,3.75-.45,8.24-1.2,13.36-2.12,1.59-.29,3.03-.53,4.28-.66,1.79-.19,3.15-.13,4.16.06,1.57.43,2.39,1.64,2.54,3.52.22,2.76-.56,4.72-2.31,6-1.69,1.24-5.44,2.65-11.22,4.19-5.79,1.54-10.3,2.63-13.45,3.07-8.81,1.21-15.29,1.54-19.09,1.36Zm-39.69-107.01c.84-1.23,1.33-2.73,1.13-4.17-.33-2.4-1.78-3.62-4.34-3.32-.57.09-.85.13-1.42.22-3.49.55-5.16,1.82-4.9,3.88.1.78.39,1.54.87,2.36,1.54,2.35,3.89,3.45,6.58,2.85.7-.16,1.42-.87,2.08-1.82Zm-.79-19.36c1.21-1.19,1.61-9.14,1.26-23.76-.07-3.89-.23-6.96-.49-9.12-.37-3.14-1.46-4.07-3.87-4.41-.71-.19-1.4-.18-2.08-.08-1.84.28-3.16,1.59-3.95,4.01-1.26,4.2-1.21,11.69.14,22.57.38,3.04.77,5.29,1.24,6.9,1.07,3.68,3.08,5.31,6.02,4.85.57-.09,1.12-.37,1.72-.96Z" style="fill:#fff; stroke-width:0px;"/><path d="m622.55,300.06c-3.56-.99-6.18-3.84-7.86-8.55-6.91-21.69-8.05-45.3-9.68-67.84-.23-3.16-.34-4.74-.57-7.89-1.71-27.22-3.33-54.51-1.01-81.74.53-6.4,1.9-10.84,4-13.26,2.15-2.47,5.66-3.86,10.38-4.23.75-.06,1.12-.09,1.86-.15,9.82-.77,16.04,2.99,18.63,11.25.81,2.42,1.53,8.82,2.35,19.18.48,6.39.72,9.59,1.2,15.98,6.95-17.47,13.51-40.42,30.84-50.84,2.33-1.09,5.96-1.74,10.98-1.93,2.26-.08,4.04.05,5.43.31,1.39.25,3.18.89,5.46,1.91,8.06,3.72,14.53,8.84,19.59,15.28,15.83,20.93,20.45,45.9,20.61,69.87.13,18.93-1.93,40.08-10.22,58.78-3.76,8.85-7.38,15.64-11.01,20.56-3.63,4.92-7.9,8.52-12.39,11.18-4.73,2.8-9.84,4.56-15.29,4.77-4.29.17-8.81-.57-13.6-2.08-4.14-1.3-7.74-2.88-10.81-4.99-6.04-4.32-8.13-8.05-8.24-10.42-.13-2.67,1.98-4.19,6.23-4.43,2.08-.12,4.27-.15,10.24,1.93,1.17-1.53,1.76-2.29,2.94-3.81,1.82-2.36,3.86-6.22,6.15-11.37,2.29-5.15,4.4-10.62,6.27-16.3,1.41-4.3,3.15-11.81,5.39-22.28,4.23-21.31,7.78-43.23,7.42-64.9-.18-10.63-1.68-19.36-4.38-26.11-1.26-3.53-2.03-3.1-2.42-3.09-.68.02-1.65.35-3,1.09-17.98,12.51-24.24,38.13-31.15,57.57-2.85,8.78-5.27,17.65-7.38,26.41-2.11,8.75-3.43,15.89-4.06,21.57-.32,2.89-.33,6.27-.12,10.32.15,2.87.42,6.42.82,10.66.4,4.24.8,8.58,1.13,13.21.32,4.54.6,8.29.75,11.15.28,5.54.29,8.93-.03,10.12-.21.8-.55,1.62-.95,2.44-1.97,3.6-5.27,6.49-9.87,8.33-3.44,1.38-6.94,2.21-10.42,2.49-1.69.14-3.13.06-4.22-.15Zm13.46-86.48c.36-1.24-.25-12.98-1.43-34.32-1.01-18.28-1.7-28.66-2.1-30.99-.3-1.75-.78-2.92-1.46-3.57-.93-.88-1.83-1.35-2.5-1.3-1.26.09-2,1.78-2.23,5.03-.18,2.45.21,10.1.96,22.94.71,12.15,1.52,23.07,2.31,32.76.49,6.07.84,9.46,1.06,10.04.51.66,1.28,1,2.49.91,1.59-.12,2.68-.67,2.91-1.5Zm69.82,60.85c1.48-.74,2.32-1.74,2.3-3.02-.01-.69-.3-1.38-.86-2.26-1.21-1.75-2.68-2.61-4.49-2.56-.64.02-1.18.23-1.71.54-.98.82-1.41,2.02-1.37,3.5.07,3.07,2.81,4.67,3.9,4.65.54-.01,1.27-.36,2.24-.85Zm11.19-22.11c1.68-4.18,3.33-9.29,4.78-15.12,2.08-8.36,3.1-14.79,3.07-19.04-.01-1.48-.51-2.87-1.43-3.94-1.23-1.44-2.26-2.15-3.2-2.14-.84.01-1.58.71-2.22,2.11-1.07,4.07-2.4,9.44-3.97,16.01-3.94,15.81-5.86,24.47-5.84,25.96.01.59.39,1.28,1.04,2.06,1.02,1.26,1.94,1.84,2.76,1.82,1.37-.03,2.96-2.64,5-7.71Z" style="fill:#fff; stroke-width:0px;"/><path d="m816.79,306.48c-2.79-1.24-4.93-3.53-6.49-6.98-1.56-3.45-2.86-9.07-3.95-16.74-1.7-12.05-2.95-20.55-3.03-24.71-.03-1.6.08-2.28-3.12-2.41-1.73-.07-5.85-.03-11.98.35-5.42.33-10.69.57-15.62.46-1.28-.03-4.01-.29-8.29-.76-.88,2.96-1.32,4.43-2.19,7.39-1.33,4.63-2.82,8.77-4.39,12.61-1.57,3.84-2.86,6.37-3.84,7.19-.85.7-2.52,1.07-4.77,1.05-2.7-.02-5.05-.51-7.01-1.51-1.7-.87-3.01-2.33-3.06-3.57-.72-15.92,8.15-38.81,12.78-57.96,3.62-14.82,7.04-28.42,10.4-40.37,2.73-9.68,6.18-22.38,10.02-37.84,7.77-31.03,10.36-37,17.09-41.34,2.11-1.12,4.9-1.63,8.16-1.51,1.98.07,4.15.35,6.41.84,6.29,1.44,12.25,4.06,17.32,7.94,4.09,3.12,7.94,7.86,11.42,13.52,3.47,5.64,6.07,11.74,7.63,17.93,1.57,6.22,3.1,14.63,4.4,24.99,1.77,14.16,2.92,30.08,3.53,47.66.57,16.54.88,33.12,1.18,49.69.21,6.96.31,10.44.51,17.4.06,3.48-.06,6.94-.27,10.4-.21,3.46-.54,6.33-1.04,8.35-.33,1.35-1.34,2.95-2.95,4.44-1.88,1.74-4.34,3.07-6.91,3.86-3.63,1.11-8.79,1.28-14.91.91-3.02-.18-5.4-.61-7.06-1.3Zm-40.81-73.51c3.01-.18,9.39-.4,14.62-.56,2.66-.08,4.93-.2,6.67-.35,3.68-.31,3.16-.57,3.19-1.26.05-1.68-.06-3.77-.36-6.26-.95-10.94-1.87-27.02-2.75-48.34-1.01-24.2-1.84-36.32-2.42-36.34-.29-.01-1.79,4.79-4.55,14.5-5.79,20.82-11.36,41.67-16.52,62.62-2.32,9.43-3.4,14.68-3.42,15.57,0,.3.64.51,2.02.54.83.02,2.06-.03,3.52-.12Zm59.84-26.86c.67-.48,1.08-2.8,1.27-6.46.34-6.72.14-15-.75-24.74-.66-7.26-1.51-13.1-2.72-17.02-1.39-4.49-3.73-6.97-6.72-7.14-1.45-.08-2.33.17-2.84.83-.31.48-.44,1.26-.49,2.45-.08,1.98.72,10.31,2.18,24.8,1.43,14.17,2.31,22.24,2.7,23.95.93,2.34,2.65,3.63,5.18,3.79.75.05,1.65-.07,2.18-.46Zm1.7,14.39c.2-3.85-2.24-4.87-5.08-4.99-2.28-.09-3.5.78-3.58,2.56-.09,1.98.67,3.71,2.17,5.29.81.64,1.91,1.01,3.11,1.09,2.14.14,3.23-1.18,3.37-3.94Z" style="fill:#fff; stroke-width:0px;"/><path d="m933.59,312.18c-13.86-10.02-20.33-27.3-25.67-43.03-2.42-6.65-4.47-12.66-5.94-17.99-1.47-5.34-3.29-12.51-5.32-21.57-1.85-8.24-3.01-12.35-3.39-12.39-.37-.04-1.03,4.56-2.05,13.8-1.13,10.78-1.69,16.17-2.82,26.94-2.43,25.59-3.99,38.45-4.64,38.69-1.83,2.6-5.32,3.63-10.49,3.14-3.12-.29-5.09-1.07-5.94-2.34-.82-1.22-1.13-4.1-1.11-8.54.02-6.32.48-17.87,1.65-34.31,1.57-22.06,3.34-44.3,5.43-66.24,2.21-23.12.43-62.19,11.92-74.69,1.46-1.59,6.55-2.11,11.72-1.54,5.17.57,9.8,1.93,13.16,4.07,4.52,2.88,8.8,9.34,12.4,18.33,1.9,5,4.58,14.87,8.05,29.46,3.85,16.17,7.33,32.67,10.34,49.09,4.05,22.1,5.89,60.02,13.46,66.59.13.11,1.92-4.71,4.65-14.38,3.68-13.02,6.44-26.39,8.37-40.07,1.37-9.67,2.34-16.92,2.93-21.83,1.18-9.71,2.16-19.68,2.91-29.62,1.06-13.97,2.2-25.54,3.27-34.46.81-7.39,1.22-11.08,2.02-18.47.84-.37,1.68-.64,2.62-.99,1.8-.82,5.48-.64,8.24-.19,2.06.33,3.69.9,4.9,1.7,1.2.8,1.88,3.31,2.21,7.67,1.06,13.38.99,25.89.06,37.24-.67,8.23-1.59,17.38-2.93,27.23-3.07,22.63-6.26,45.46-10.88,67.82-2.45,11.85-5.11,21.51-7.91,28.7-1.6,4.12-3.67,8.12-5.91,11.83-2.22,3.68-4.16,6.33-5.87,7.65-6.42,4.27-13.89,5.82-22.47,4.58-2.48-.36-4.84-.99-6.99-1.88Zm-12.66-136.74c.14-1.48-.15-4.41-.81-8.96-1.1-7.68-2.67-14.25-4.43-19.72-1.76-5.48-3.42-8.95-5.16-10.43-1.74-1.49-3.83-2.31-6.27-2.57-2.63-.28-4.3.94-4.36,1.63-.02.29.23.82.67,1.46.95,1.59,2.39,5.62,4.28,12.09,4.85,16.53,7.79,25.33,8.67,26.23.96,1,2.34,1.76,4.15,1.98,2,.24,3.11-.33,3.24-1.7Zm7.81,31.14c.08-.79-.04-2.4-.37-4.93-.43-3.34-.9-5.39-1.41-6.05-.88-.81-2.36-1.29-4.53-1.56-1.89-.23-2.92.09-3.05.92-.19,1.3.23,3.61.98,6.79.33,1.53.7,2.67,1.1,3.42,1.09,1.53,2.62,2.41,4.49,2.65,1.78.22,2.67-.16,2.78-1.24Z" style="fill:#fff; stroke-width:0px;"/><path d="m1076.32,342.63c-2.44-1.3-4.1-4.36-4.54-9.41-.43-4.95-.05-13.65,1.03-25.86.4-4.54.72-8.43,1.05-11.69.32-3.26.54-4.93.57-5.12.04-.19-2.02-.78-6.07-1.73-3.6-.84-12.39-2.59-26.31-4.85-.74,3.11-1.11,4.66-1.85,7.76-1.98,9.15-4.62,13.18-9.52,15.72-5.71,2.96-12.7,3.63-20.25,2.17-4.8-.93-8.05-3.04-9.66-6.45-.71-1.44-1.1-3.82-1.2-6.94-.36-7.09-.14-15.51.55-25.17.44-6.21,2.24-20.44,5.37-42.53,2.09-14.76,3.89-25.89,5.4-33.31,1.67-8.19,3.84-16.05,6.56-23.37,6-17.15,9.97-20.27,22.82-17.73,8.5,1.68,13.81,4.71,15.98,9.08,1.53,2.23,2.3,5.69,2.51,10.09.21,4.33-.12,10-1.07,16.59-.95,6.6-1.87,13.12-2.9,19.22-3.13,18.47-6.56,37.01-9.89,55.51,9.48,2.02,15.77,3.46,18.75,4.22,3.7.95,8.1,2.36,13.19,4.06,3.49-18.31,6.93-36.69,11.08-54.82,2.89-12.64,5.43-21.99,7.47-28.06,5.23-15.6,9.59-26.9,12.92-33.62,3.34-6.74,6.33-10.31,8.86-10.79,2.1-.4,4.54-.29,7.36.42,5.45,1.37,11.04,3.98,15.28,7.8,3.37,3.04,4.25,6.94,4.31,13.14.03,3.2-.32,7.09-1.17,11.39-.83,4.21-1.34,6.86-1.52,7.73-1.68,7.99-4.55,20.16-8.46,36.59-4.25,17.86-7.69,33.03-10.24,45.27-3,14.35-5.49,27.97-7.36,40.65-1.48,10.05-2.85,18.06-4.08,23.93-.61,2.89-1.21,4.86-1.87,5.81-.66.94-1.71,1.98-3.29,2.88-3.96,2.6-8.4,3.96-13.46,4.09-4.98.12-8.79-.11-11.49-.78-1.75-.43-3.4-1.14-4.85-1.91Zm-56.84-106.17c1.93-.83,1.97-2.93,2.03-3.33.4-2.63-.23-6.07-2.19-6.44-.65-.12-1.87-.96-2.05-.99-1.4-.26-3.61,1.13-3.88,2.98-.09.58-.12,1.48,0,2.61.39,3.18,1.55,5.01,3.49,5.38.74.14,1.6.11,2.6-.21Zm5.2-22.49c.75-1.76,1.69-4.91,2.98-9.47,2.65-9.4,4.31-15.53,4.77-18.56.3-1.95.33-3.45.08-4.4-.47-2.1-2.39-3.68-5.77-4.73-.31-.02-.47-.03-.78-.05-2.43-.16-4.64,6.85-6.71,21.01-.87,5.96-1.38,9.74-1.46,11.27-.08,1.45.3,2.57.99,3.1.9,1.07,2.43,1.86,4.12,2.09.8.11,1.45-.02,1.77-.26Zm62.22,86.59c.09.02.59.06,1.22,0,.74-.08,1.65-2.48,2.57-6.96.92-4.49,1.94-12.11,3.24-22.61.89-7.15,2.37-16.23,4.46-27.07,1.07-5.37,1.61-8.05,2.69-13.42,1.23-6.38,1.59-10.04,1.12-10.87-.44-.77-1.01-1.36-1.85-1.57-1.59-.39-2.73-.06-3.5.87-1.42,1.78-3.58,10.79-6.67,26.53-3.19,16.25-5.82,33.95-5.91,50.71-.08,1.9.34,3.12,1.27,3.65.54.3.81.44,1.36.74Z" style="fill:#fff; stroke-width:0px;"/><path d="m1184.59,376.12c-1.71-1.66-3.23-4.16-4.53-7.16-1.71-3.96-3.56-9.82-5.57-17.44-2-7.57-3.78-15.28-5.35-22.95-1.01-5.41-1.52-8.11-2.56-13.51-16.34,21.55-25.06,33.25-26.59,34.22-1.31.84-3.27.88-5.37.28-3.49-1.01-6.14-2.88-8.03-5.66-.73-1.33-1.02-2.67-.66-3.76,6.33-19.26,24.64-39.68,37.76-57.72-1.43-14.25-2.31-29.01-2.67-43.85-.41-17.12-.79-34.53,1.72-51.58.46-2.28.69-3.42,1.15-5.69.83-3.75,1.69-6.26,2.49-7.56,2.93-3.56,7.84-4.41,14.86-2.35,2.5.73,5.27,1.83,8.28,3.27,5.87,2.81,10.47,7.47,13.61,13.58,3.14,6.11,5.67,15.02,7.31,26.76.62,4.03.93,6.04,1.54,10.06.28.09,4.19-4.22,12.02-12.87,11.57-12.78,19.53-20.42,23.81-22.79,1.26-.81,2.75-.92,4.47-.33,1.72.59,3.77,2.04,6.01,4.05,2.57,2.3,4.01,4.01,3.96,5.01-.05.91-.1,1.52-.18,1.8-.47,1.7-2.05,4.07-4.64,7.07-13.79,15.96-28.09,31.74-42.02,47.71,1.27,27.46,2.02,55.04,3.75,82.4.65,10.25.85,17.62.7,22.01-.15,4.3-.45,7.52-1.05,9.69-.97,3.5-3.33,6.18-7.15,8.05-7.58,3.87-14.73,4.72-21.61,2.41-2.15-.72-3.98-1.73-5.45-3.16Zm-5.35-153.14c.16-.26.32-.52.41-.9.27-1.15.78-4.77,1.38-10.65.77-7.57,1.39-13.65,2.19-17.67,1.43-7.19.47-8.99-2.87-10.06-5.86-1.88-5.58.31-7.37,7.35-1.32,5.2-2.02,9.33-2.28,11.81-.26,2.48-.31,4.92-.2,7.51.3,7.96,1.62,10.9,5.64,12.1,1.97.59,2.92.77,3.09.51Zm.52,19.42c.83-5.59-.68-8.92-4.41-10.04-2.61-.78-4.14-.21-4.55,1.61-.35,1.53.23,3.45,1.29,5.6.88,1.8,2.06,3.07,3.45,3.49,3.8,1.14,3.96.48,4.23-.67Z" style="fill:#fff; stroke-width:0px;"/></svg>