<?xml version="1.0" encoding="UTF-8"?><svg id="a" xmlns="http://www.w3.org/2000/svg" viewBox="0 0 1536 1024"><path d="m103.4,682.6c3.39,1.08,6.94,1.93,10.64,2.54,3.08.77,6.59,1.39,10.52,1.85,3.93.46,7.9.69,11.91.69,7.09,0,10.64-2.62,10.64-7.86,0-2-1.08-4.05-3.24-6.13-2.16-2.08-4.9-4.39-8.21-6.94-3.32-2.54-6.86-5.36-10.64-8.44-3.78-3.08-7.33-6.63-10.64-10.64-3.32-4.01-6.05-8.52-8.21-13.53-2.16-5.01-3.24-10.75-3.24-17.23,0-7.25,1.31-13.65,3.93-19.2,2.62-5.55,6.25-10.18,10.87-13.88,4.63-3.7,10.06-6.51,16.3-8.44,6.24-1.93,12.91-2.89,20-2.89,3.7,0,7.4.19,11.1.58,3.7.39,7.01.73,9.94,1.04,3.39.46,6.71.93,9.95,1.39v43.25c-1.24-.15-2.62-.31-4.16-.46-1.24-.15-2.62-.31-4.16-.46-1.54-.15-3.16-.23-4.86-.23-.93,0-2.08.04-3.47.12-1.39.08-2.7.27-3.93.58-1.24.31-2.31.85-3.24,1.62-.92.77-1.39,1.85-1.39,3.24,0,1.24,1.04,2.78,3.12,4.62,2.08,1.85,4.63,4.01,7.63,6.48,3.01,2.47,6.32,5.32,9.95,8.56,3.62,3.24,6.94,6.94,9.94,11.1,3.01,4.16,5.55,8.87,7.63,14.11,2.08,5.24,3.12,11.1,3.12,17.58s-1.08,13.15-3.24,19.08c-2.16,5.94-5.51,11.1-10.06,15.5-4.55,4.39-10.37,7.86-17.46,10.41-7.09,2.54-15.5,3.82-25.21,3.82-5.86,0-11.3-.27-16.3-.81-5.01-.54-9.45-1.2-13.3-1.97-4.47-.77-8.56-1.69-12.26-2.78v-46.25Zm19.43,27.75c2.16.46,4.47.85,6.94,1.16,2.16.31,4.43.58,6.82.81,2.39.23,4.82.35,7.29.35,4.31,0,8.52-.5,12.6-1.5,4.08-1,7.75-2.66,10.99-4.97,3.24-2.31,5.82-5.28,7.75-8.9,1.93-3.62,2.89-8.05,2.89-13.3,0-4.47-1.12-8.71-3.35-12.72-2.24-4.01-5.09-7.86-8.56-11.56-3.47-3.7-7.17-7.25-11.1-10.64-3.93-3.39-7.63-6.82-11.1-10.29-3.47-3.47-6.32-6.94-8.56-10.41-2.24-3.47-3.35-7.05-3.35-10.75,0-5.55,1.77-9.83,5.32-12.84,3.54-3.01,9.25-4.51,17.11-4.51,1.23,0,2.5.04,3.82.12,1.31.08,2.58.2,3.82.35,1.23.16,2.46.23,3.7.23v-6.01c-1.08,0-2.24-.08-3.47-.23-1.08-.15-2.28-.27-3.58-.35-1.31-.08-2.66-.12-4.05-.12-8.33,0-15.19,1.89-20.58,5.67-5.4,3.78-8.09,9.68-8.09,17.69,0,4.32,1.12,8.37,3.35,12.14,2.23,3.78,5.09,7.48,8.56,11.1,3.47,3.62,7.17,7.13,11.1,10.52,3.93,3.39,7.63,6.82,11.1,10.29,3.47,3.47,6.32,7.05,8.56,10.75,2.23,3.7,3.35,7.56,3.35,11.56,0,7.4-2.51,13.03-7.52,16.88-5.01,3.86-11.91,5.78-20.7,5.78-5.24,0-10.02-.38-14.34-1.16-2.31-.31-4.55-.69-6.71-1.16v6.01Z" style="fill:#f4d100; stroke:#f4d100; stroke-linecap:round; stroke-linejoin:round; stroke-width:20px;"/><path d="m211.64,576.21h52.27v154.26h-52.27v-154.26Zm29.14,135.76v-117.25h-6.01v117.25h6.01Z" style="fill:#f4d100; stroke:#f4d100; stroke-linecap:round; stroke-linejoin:round; stroke-width:20px;"/><path d="m280.09,576.21h40.47l42.55,59.44v-59.44h48.34v154.26h-40.7l-42.32-59.21v59.21h-48.34v-154.26Zm27.52,135.76v-106.85l76.32,106.85h6.01v-117.25h-6.01v106.85l-76.32-106.85h-6.01v117.25h6.01Z" style="fill:#f4d100; stroke:#f4d100; stroke-linecap:round; stroke-linejoin:round; stroke-width:20px;"/><path d="m473.43,576.21h37l58.51,154.26h-48.57l-5.09-13.88h-46.72l-5.09,13.88h-48.57l58.51-154.26Zm-24.05,135.76l4.39-11.56h76.32l4.39,11.56h6.48l-44.64-117.25h-8.79l-44.64,117.25h6.48Zm42.55-111.71l36.08,94.59h-72.16l36.08-94.59Zm10.41,82.33l-10.41-27.06-10.41,27.06h20.81Z" style="fill:#f4d100; stroke:#f4d100; stroke-linecap:round; stroke-linejoin:round; stroke-width:20px;"/><path d="m572.42,576.21h52.27v154.26h-52.27v-154.26Zm29.14,135.76v-117.25h-6.01v117.25h6.01Z" style="fill:#f4d100; stroke:#f4d100; stroke-linecap:round; stroke-linejoin:round; stroke-width:20px;"/><path d="m636.71,682.6c3.39,1.08,6.94,1.93,10.64,2.54,3.08.77,6.59,1.39,10.52,1.85,3.93.46,7.9.69,11.91.69,7.09,0,10.64-2.62,10.64-7.86,0-2-1.08-4.05-3.24-6.13-2.16-2.08-4.9-4.39-8.21-6.94-3.32-2.54-6.86-5.36-10.64-8.44-3.78-3.08-7.33-6.63-10.64-10.64-3.32-4.01-6.05-8.52-8.21-13.53-2.16-5.01-3.24-10.75-3.24-17.23,0-7.25,1.31-13.65,3.93-19.2,2.62-5.55,6.25-10.18,10.87-13.88,4.63-3.7,10.06-6.51,16.3-8.44,6.24-1.93,12.91-2.89,20-2.89,3.7,0,7.4.19,11.1.58,3.7.39,7.01.73,9.94,1.04,3.39.46,6.71.93,9.95,1.39v43.25c-1.24-.15-2.62-.31-4.16-.46-1.24-.15-2.62-.31-4.16-.46-1.54-.15-3.16-.23-4.86-.23-.93,0-2.08.04-3.47.12-1.39.08-2.7.27-3.93.58-1.24.31-2.31.85-3.24,1.62-.92.77-1.39,1.85-1.39,3.24,0,1.24,1.04,2.78,3.12,4.62,2.08,1.85,4.63,4.01,7.63,6.48,3.01,2.47,6.32,5.32,9.95,8.56,3.62,3.24,6.94,6.94,9.94,11.1,3.01,4.16,5.55,8.87,7.63,14.11,2.08,5.24,3.12,11.1,3.12,17.58s-1.08,13.15-3.24,19.08c-2.16,5.94-5.51,11.1-10.06,15.5-4.55,4.39-10.37,7.86-17.46,10.41-7.09,2.54-15.5,3.82-25.21,3.82-5.86,0-11.3-.27-16.3-.81-5.01-.54-9.45-1.2-13.3-1.97-4.47-.77-8.56-1.69-12.26-2.78v-46.25Zm19.43,27.75c2.16.46,4.47.85,6.94,1.16,2.16.31,4.43.58,6.82.81,2.39.23,4.82.35,7.29.35,4.31,0,8.52-.5,12.6-1.5,4.08-1,7.75-2.66,10.99-4.97,3.24-2.31,5.82-5.28,7.75-8.9,1.93-3.62,2.89-8.05,2.89-13.3,0-4.47-1.12-8.71-3.35-12.72-2.24-4.01-5.09-7.86-8.56-11.56-3.47-3.7-7.17-7.25-11.1-10.64-3.93-3.39-7.63-6.82-11.1-10.29-3.47-3.47-6.32-6.94-8.56-10.41-2.24-3.47-3.35-7.05-3.35-10.75,0-5.55,1.77-9.83,5.32-12.84,3.54-3.01,9.25-4.51,17.11-4.51,1.23,0,2.5.04,3.82.12,1.31.08,2.58.2,3.82.35,1.23.16,2.46.23,3.7.23v-6.01c-1.08,0-2.24-.08-3.47-.23-1.08-.15-2.28-.27-3.58-.35-1.31-.08-2.66-.12-4.05-.12-8.33,0-15.19,1.89-20.58,5.67-5.4,3.78-8.09,9.68-8.09,17.69,0,4.32,1.12,8.37,3.35,12.14,2.23,3.78,5.09,7.48,8.56,11.1,3.47,3.62,7.17,7.13,11.1,10.52,3.93,3.39,7.63,6.82,11.1,10.29,3.47,3.47,6.32,7.05,8.56,10.75,2.23,3.7,3.35,7.56,3.35,11.56,0,7.4-2.51,13.03-7.52,16.88-5.01,3.86-11.91,5.78-20.7,5.78-5.24,0-10.02-.38-14.34-1.16-2.31-.31-4.55-.69-6.71-1.16v6.01Z" style="fill:#f4d100; stroke:#f4d100; stroke-linecap:round; stroke-linejoin:round; stroke-width:20px;"/><path d="m571.69,749.14h37l58.51,154.26h-48.57l-5.09-13.88h-46.72l-5.09,13.88h-48.57l58.51-154.26Zm-24.05,135.76l4.39-11.56h76.32l4.39,11.56h6.48l-44.64-117.25h-8.79l-44.64,117.25h6.48Zm42.55-111.71l36.08,94.59h-72.16l36.08-94.59Zm10.41,82.33l-10.41-27.06-10.41,27.06h20.81Z" style="fill:#f4d100; stroke:#f4d100; stroke-linecap:round; stroke-linejoin:round; stroke-width:20px;"/><path d="m670.67,749.14h51.34v113.79h42.55v40.47h-93.9v-154.26Zm80.95,135.76v-5.55h-51.8v-111.7h-6.01v117.25h57.82Z" style="fill:#f4d100; stroke:#f4d100; stroke-linecap:round; stroke-linejoin:round; stroke-width:20px;"/><path d="m772.66,749.14h90.89v40.47h-41.63v17.11h40.94v38.39h-40.94v17.81h43.25v40.47h-92.51v-154.26Zm75.39,135.76v-5.55h-46.25v-50.65h43.94v-5.55h-43.94v-49.96h46.25v-5.55h-52.27v117.25h52.27Z" style="fill:#f4d100; stroke:#f4d100; stroke-linecap:round; stroke-linejoin:round; stroke-width:20px;"/><path d="m879.05,749.14h53.19c9.87,0,19,1.31,27.41,3.93,8.4,2.62,15.69,6.48,21.86,11.56,6.16,5.09,10.99,11.37,14.45,18.85,3.47,7.48,5.2,16.07,5.2,25.79,0,7.71-1.08,14.26-3.24,19.66-2.16,5.4-4.55,9.87-7.17,13.41-3.09,4.01-6.56,7.4-10.41,10.18l28.91,50.88h-57.82l-23.13-39.08v39.08h-49.26v-154.26Zm48.1,100.6c6.01,0,11.87-.61,17.58-1.85l21.97,37h7.17l-23.13-38.85c8.33-2.93,14.95-7.44,19.89-13.53,4.93-6.09,7.4-13.99,7.4-23.71,0-6.78-1.31-12.72-3.93-17.81-2.62-5.09-6.21-9.37-10.75-12.84-4.55-3.47-9.91-6.09-16.07-7.86-6.17-1.77-12.88-2.66-20.12-2.66h-24.98v117.25h6.01v-35.15h18.96Zm-18.96-5.55v-71h18.96c14.03,0,25.01,3.09,32.96,9.25,7.94,6.17,11.91,14.96,11.91,26.37s-3.97,20.16-11.91,26.25c-7.94,6.09-18.93,9.13-32.96,9.13h-18.96Zm20.12-19.2h2.54c5.86,0,10.83-1.31,14.92-3.93,4.08-2.62,6.13-7.01,6.13-13.18s-2.04-10.56-6.13-13.18c-4.09-2.62-9.06-3.93-14.92-3.93h-2.54v34.23Z" style="fill:#f4d100; stroke:#f4d100; stroke-linecap:round; stroke-linejoin:round; stroke-width:20px;"/><path d="m1031.92,789.62h-28.45v-40.47h107.77v40.47h-28.45v113.79h-50.88v-113.79Zm28.45,95.28v-111.71h33.07v-5.55h-72.16v5.55h33.07v111.71h6.01Z" style="fill:#f4d100; stroke:#f4d100; stroke-linecap:round; stroke-linejoin:round; stroke-width:20px;"/><path d="m1147.78,749.14h37l58.51,154.26h-48.57l-5.09-13.88h-46.72l-5.09,13.88h-48.57l58.51-154.26Zm-24.05,135.76l4.39-11.56h76.32l4.39,11.56h6.48l-44.64-117.25h-8.79l-44.64,117.25h6.48Zm42.55-111.71l36.08,94.59h-72.16l36.08-94.59Zm10.41,82.33l-10.41-27.06-10.41,27.06h20.81Z" style="fill:#f4d100; stroke:#f4d100; stroke-linecap:round; stroke-linejoin:round; stroke-width:20px;"/><path d="m388.01,846.6v-154.26h42.79c14.49,0,27.41,1.62,38.74,4.86s20.89,8.09,28.68,14.57c7.78,6.48,13.72,14.53,17.81,24.17,4.08,9.64,6.13,20.78,6.13,33.42s-2.04,23.79-6.13,33.42c-4.09,9.64-10.02,17.69-17.81,24.17-7.79,6.48-17.35,11.37-28.68,14.69-11.33,3.32-24.25,4.97-38.74,4.97h-42.79Zm23.13-18.5h19.66c22.51,0,39.51-5.12,51-15.38,11.48-10.25,17.23-24.71,17.23-43.36s-5.75-33.07-17.23-43.25c-11.49-10.18-28.49-15.26-51-15.26h-19.66v117.25Zm6.01-5.55v-106.15h13.64c19.58,0,34.81,4.43,45.68,13.3,10.87,8.87,16.3,22.09,16.3,39.66s-5.43,30.84-16.3,39.78c-10.87,8.94-26.1,13.41-45.68,13.41h-13.64Zm20.12-19.89c11.56,0,20.5-2.74,26.83-8.21,6.32-5.47,9.48-13.84,9.48-25.09s-3.16-19.58-9.48-24.98c-6.32-5.4-15.26-8.09-26.83-8.09v66.38Z" style="fill:#f4d100; stroke:#f4d100; stroke-linecap:round; stroke-linejoin:round; stroke-width:20px;"/><path d="m534.87,692.34h90.89v40.47h-41.63v17.11h40.94v38.39h-40.94v17.81h43.25v40.47h-92.51v-154.26Zm75.39,135.76v-5.55h-46.25v-50.65h43.94v-5.55h-43.94v-49.96h46.25v-5.55h-52.27v117.25h52.27Z" style="fill:#f4d100; stroke:#f4d100; stroke-linecap:round; stroke-linejoin:round; stroke-width:20px;"/><path d="m110.9,680.1c3.39,1.08,6.94,1.93,10.64,2.54,3.08.77,6.59,1.39,10.52,1.85,3.93.46,7.9.69,11.91.69,7.09,0,10.64-2.62,10.64-7.86,0-2-1.08-4.05-3.24-6.13-2.16-2.08-4.9-4.39-8.21-6.94-3.32-2.54-6.86-5.36-10.64-8.44-3.78-3.08-7.33-6.63-10.64-10.64-3.32-4.01-6.05-8.52-8.21-13.53-2.16-5.01-3.24-10.75-3.24-17.23,0-7.25,1.31-13.65,3.93-19.2,2.62-5.55,6.25-10.18,10.87-13.88,4.63-3.7,10.06-6.51,16.3-8.44,6.24-1.93,12.91-2.89,20-2.89,3.7,0,7.4.19,11.1.58,3.7.39,7.01.73,9.94,1.04,3.39.46,6.71.93,9.95,1.39v43.25c-1.24-.15-2.62-.31-4.16-.46-1.24-.15-2.62-.31-4.16-.46-1.54-.15-3.16-.23-4.86-.23-.93,0-2.08.04-3.47.12-1.39.08-2.7.27-3.93.58-1.24.31-2.31.85-3.24,1.62-.92.77-1.39,1.85-1.39,3.24,0,1.24,1.04,2.78,3.12,4.62,2.08,1.85,4.63,4.01,7.63,6.48,3.01,2.47,6.32,5.32,9.95,8.56,3.62,3.24,6.94,6.94,9.94,11.1,3.01,4.16,5.55,8.87,7.63,14.11,2.08,5.24,3.12,11.1,3.12,17.58s-1.08,13.15-3.24,19.08c-2.16,5.94-5.51,11.1-10.06,15.5-4.55,4.39-10.37,7.86-17.46,10.41-7.09,2.54-15.5,3.82-25.21,3.82-5.86,0-11.3-.27-16.3-.81-5.01-.54-9.45-1.2-13.3-1.97-4.47-.77-8.56-1.69-12.26-2.78v-46.25Zm19.43,27.75c2.16.46,4.47.85,6.94,1.16,2.16.31,4.43.58,6.82.81,2.39.23,4.82.35,7.29.35,4.31,0,8.52-.5,12.6-1.5,4.08-1,7.75-2.66,10.99-4.97,3.24-2.31,5.82-5.28,7.75-8.9,1.93-3.62,2.89-8.05,2.89-13.3,0-4.47-1.12-8.71-3.35-12.72-2.24-4.01-5.09-7.86-8.56-11.56-3.47-3.7-7.17-7.25-11.1-10.64-3.93-3.39-7.63-6.82-11.1-10.29-3.47-3.47-6.32-6.94-8.56-10.41-2.24-3.47-3.35-7.05-3.35-10.75,0-5.55,1.77-9.83,5.32-12.84,3.54-3.01,9.25-4.51,17.11-4.51,1.23,0,2.5.04,3.82.12,1.31.08,2.58.2,3.82.35,1.23.16,2.46.23,3.7.23v-6.01c-1.08,0-2.24-.08-3.47-.23-1.08-.15-2.28-.27-3.58-.35-1.31-.08-2.66-.12-4.05-.12-8.33,0-15.19,1.89-20.58,5.67-5.4,3.78-8.09,9.68-8.09,17.69,0,4.32,1.12,8.37,3.35,12.14,2.23,3.78,5.09,7.48,8.56,11.1,3.47,3.62,7.17,7.13,11.1,10.52,3.93,3.39,7.63,6.82,11.1,10.29,3.47,3.47,6.32,7.05,8.56,10.75,2.23,3.7,3.35,7.56,3.35,11.56,0,7.4-2.51,13.03-7.52,16.88-5.01,3.86-11.91,5.78-20.7,5.78-5.24,0-10.02-.38-14.34-1.16-2.31-.31-4.55-.69-6.71-1.16v6.01Z" style="stroke-width:0px;"/><path d="m219.14,573.71h52.27v154.26h-52.27v-154.26Zm29.14,135.76v-117.25h-6.01v117.25h6.01Z" style="stroke-width:0px;"/><path d="m287.59,573.71h40.47l42.55,59.44v-59.44h48.34v154.26h-40.7l-42.32-59.21v59.21h-48.34v-154.26Zm27.52,135.76v-106.85l76.32,106.85h6.01v-117.25h-6.01v106.85l-76.32-106.85h-6.01v117.25h6.01Z" style="stroke-width:0px;"/><path d="m480.93,573.71h37l58.51,154.26h-48.57l-5.09-13.88h-46.72l-5.09,13.88h-48.57l58.51-154.26Zm-24.05,135.76l4.39-11.56h76.32l4.39,11.56h6.48l-44.64-117.25h-8.79l-44.64,117.25h6.48Zm42.55-111.71l36.08,94.59h-72.16l36.08-94.59Zm10.41,82.33l-10.41-27.06-10.41,27.06h20.81Z" style="stroke-width:0px;"/><path d="m579.92,573.71h52.27v154.26h-52.27v-154.26Zm29.14,135.76v-117.25h-6.01v117.25h6.01Z" style="stroke-width:0px;"/><path d="m644.21,680.1c3.39,1.08,6.94,1.93,10.64,2.54,3.08.77,6.59,1.39,10.52,1.85,3.93.46,7.9.69,11.91.69,7.09,0,10.64-2.62,10.64-7.86,0-2-1.08-4.05-3.24-6.13-2.16-2.08-4.9-4.39-8.21-6.94-3.32-2.54-6.86-5.36-10.64-8.44-3.78-3.08-7.33-6.63-10.64-10.64-3.32-4.01-6.05-8.52-8.21-13.53-2.16-5.01-3.24-10.75-3.24-17.23,0-7.25,1.31-13.65,3.93-19.2,2.62-5.55,6.25-10.18,10.87-13.88,4.63-3.7,10.06-6.51,16.3-8.44,6.24-1.93,12.91-2.89,20-2.89,3.7,0,7.4.19,11.1.58,3.7.39,7.01.73,9.94,1.04,3.39.46,6.71.93,9.95,1.39v43.25c-1.24-.15-2.62-.31-4.16-.46-1.24-.15-2.62-.31-4.16-.46-1.54-.15-3.16-.23-4.86-.23-.93,0-2.08.04-3.47.12-1.39.08-2.7.27-3.93.58-1.24.31-2.31.85-3.24,1.62-.92.77-1.39,1.85-1.39,3.24,0,1.24,1.04,2.78,3.12,4.62,2.08,1.85,4.63,4.01,7.63,6.48,3.01,2.47,6.32,5.32,9.95,8.56,3.62,3.24,6.94,6.94,9.94,11.1,3.01,4.16,5.55,8.87,7.63,14.11,2.08,5.24,3.12,11.1,3.12,17.58s-1.08,13.15-3.24,19.08c-2.16,5.94-5.51,11.1-10.06,15.5-4.55,4.39-10.37,7.86-17.46,10.41-7.09,2.54-15.5,3.82-25.21,3.82-5.86,0-11.3-.27-16.3-.81-5.01-.54-9.45-1.2-13.3-1.97-4.47-.77-8.56-1.69-12.26-2.78v-46.25Zm19.43,27.75c2.16.46,4.47.85,6.94,1.16,2.16.31,4.43.58,6.82.81,2.39.23,4.82.35,7.29.35,4.31,0,8.52-.5,12.6-1.5,4.08-1,7.75-2.66,10.99-4.97,3.24-2.31,5.82-5.28,7.75-8.9,1.93-3.62,2.89-8.05,2.89-13.3,0-4.47-1.12-8.71-3.35-12.72-2.24-4.01-5.09-7.86-8.56-11.56-3.47-3.7-7.17-7.25-11.1-10.64-3.93-3.39-7.63-6.82-11.1-10.29-3.47-3.47-6.32-6.94-8.56-10.41-2.24-3.47-3.35-7.05-3.35-10.75,0-5.55,1.77-9.83,5.32-12.84,3.54-3.01,9.25-4.51,17.11-4.51,1.23,0,2.5.04,3.82.12,1.31.08,2.58.2,3.82.35,1.23.16,2.46.23,3.7.23v-6.01c-1.08,0-2.24-.08-3.47-.23-1.08-.15-2.28-.27-3.58-.35-1.31-.08-2.66-.12-4.05-.12-8.33,0-15.19,1.89-20.58,5.67-5.4,3.78-8.09,9.68-8.09,17.69,0,4.32,1.12,8.37,3.35,12.14,2.23,3.78,5.09,7.48,8.56,11.1,3.47,3.62,7.17,7.13,11.1,10.52,3.93,3.39,7.63,6.82,11.1,10.29,3.47,3.47,6.32,7.05,8.56,10.75,2.23,3.7,3.35,7.56,3.35,11.56,0,7.4-2.51,13.03-7.52,16.88-5.01,3.86-11.91,5.78-20.7,5.78-5.24,0-10.02-.38-14.34-1.16-2.31-.31-4.55-.69-6.71-1.16v6.01Z" style="stroke-width:0px;"/><path d="m579.19,746.64h37l58.51,154.26h-48.57l-5.09-13.88h-46.72l-5.09,13.88h-48.57l58.51-154.26Zm-24.05,135.76l4.39-11.56h76.32l4.39,11.56h6.48l-44.64-117.25h-8.79l-44.64,117.25h6.48Zm42.55-111.71l36.08,94.59h-72.16l36.08-94.59Zm10.41,82.33l-10.41-27.06-10.41,27.06h20.81Z" style="stroke-width:0px;"/><path d="m678.17,746.64h51.34v113.79h42.55v40.47h-93.9v-154.26Zm80.95,135.76v-5.55h-51.8v-111.7h-6.01v117.25h57.82Z" style="stroke-width:0px;"/><path d="m780.16,746.64h90.89v40.47h-41.63v17.11h40.94v38.39h-40.94v17.81h43.25v40.47h-92.51v-154.26Zm75.39,135.76v-5.55h-46.25v-50.65h43.94v-5.55h-43.94v-49.96h46.25v-5.55h-52.27v117.25h52.27Z" style="stroke-width:0px;"/><path d="m886.55,746.64h53.19c9.87,0,19,1.31,27.41,3.93,8.4,2.62,15.69,6.48,21.86,11.56,6.16,5.09,10.99,11.37,14.45,18.85,3.47,7.48,5.2,16.07,5.2,25.79,0,7.71-1.08,14.26-3.24,19.66-2.16,5.4-4.55,9.87-7.17,13.41-3.09,4.01-6.56,7.4-10.41,10.18l28.91,50.88h-57.82l-23.13-39.08v39.08h-49.26v-154.26Zm48.1,100.6c6.01,0,11.87-.61,17.58-1.85l21.97,37h7.17l-23.13-38.85c8.33-2.93,14.95-7.44,19.89-13.53,4.93-6.09,7.4-13.99,7.4-23.71,0-6.78-1.31-12.72-3.93-17.81-2.62-5.09-6.21-9.37-10.75-12.84-4.55-3.47-9.91-6.09-16.07-7.86-6.17-1.77-12.88-2.66-20.12-2.66h-24.98v117.25h6.01v-35.15h18.96Zm-18.96-5.55v-71h18.96c14.03,0,25.01,3.09,32.96,9.25,7.94,6.17,11.91,14.96,11.91,26.37s-3.97,20.16-11.91,26.25c-7.94,6.09-18.93,9.13-32.96,9.13h-18.96Zm20.12-19.2h2.54c5.86,0,10.83-1.31,14.92-3.93,4.08-2.62,6.13-7.01,6.13-13.18s-2.04-10.56-6.13-13.18c-4.09-2.62-9.06-3.93-14.92-3.93h-2.54v34.23Z" style="stroke-width:0px;"/><path d="m1039.42,787.12h-28.45v-40.47h107.77v40.47h-28.45v113.79h-50.88v-113.79Zm28.45,95.28v-111.71h33.07v-5.55h-72.16v5.55h33.07v111.71h6.01Z" style="stroke-width:0px;"/><path d="m1155.28,746.64h37l58.51,154.26h-48.57l-5.09-13.88h-46.72l-5.09,13.88h-48.57l58.51-154.26Zm-24.05,135.76l4.39-11.56h76.32l4.39,11.56h6.48l-44.64-117.25h-8.79l-44.64,117.25h6.48Zm42.55-111.71l36.08,94.59h-72.16l36.08-94.59Zm10.41,82.33l-10.41-27.06-10.41,27.06h20.81Z" style="stroke-width:0px;"/><path d="m391.74,844.1v-82.42h22.86c7.74,0,14.64.86,20.7,2.59,6.05,1.73,11.16,4.32,15.32,7.78,4.16,3.46,7.33,7.77,9.52,12.91,2.18,5.15,3.27,11.1,3.27,17.86s-1.09,12.71-3.27,17.86c-2.18,5.15-5.36,9.45-9.52,12.91-4.16,3.46-9.27,6.08-15.32,7.85-6.05,1.77-12.96,2.66-20.7,2.66h-22.86Zm12.36-9.89h10.5c12.03,0,21.11-2.74,27.25-8.22,6.14-5.48,9.21-13.2,9.21-23.17s-3.07-17.67-9.21-23.11c-6.14-5.44-15.22-8.16-27.25-8.16h-10.5v62.65Zm3.21-2.97v-56.72h7.29c10.46,0,18.6,2.37,24.4,7.11,5.81,4.74,8.71,11.8,8.71,21.19s-2.9,16.48-8.71,21.25c-5.81,4.78-13.94,7.17-24.4,7.17h-7.29Zm10.75-10.63c6.18,0,10.96-1.46,14.33-4.39,3.38-2.92,5.07-7.39,5.07-13.41s-1.69-10.46-5.07-13.34c-3.38-2.88-8.16-4.33-14.33-4.33v35.46Z" style="stroke-width:0px;"/><path d="m470.21,761.68h48.56v21.62h-22.24v9.14h21.87v20.51h-21.87v9.51h23.11v21.62h-49.43v-82.42Zm40.28,72.53v-2.97h-24.71v-27.06h23.48v-2.96h-23.48v-26.69h24.71v-2.97h-27.93v62.65h27.93Z" style="stroke-width:0px;"/></svg>