<?xml version="1.0" encoding="UTF-8"?><svg id="a" xmlns="http://www.w3.org/2000/svg" xmlns:xlink="http://www.w3.org/1999/xlink" viewBox="0 0 1536 1024"><defs><filter id="b" filterUnits="userSpaceOnUse"><feOffset dx="15" dy="15"/><feGaussianBlur result="c" stdDeviation="0"/><feFlood flood-color="#fff1a1" flood-opacity="1"/><feComposite in2="c" operator="in"/><feComposite in="SourceGraphic"/></filter></defs><g style="filter:url(#b);"><path d="m83.85,928.93c-5.34-10.08-13.24-110.87-11.86-128.26.4-6.32,1.58-16.8,7.12-20.75,3.36-2.37,7.71-2.96,11.66-2.96,9.49,0,18.97,1.98,28.66,1.58,8.3-.2,32.61-4.15,38.54.99,1.98,1.78,2.77,4.15,3.16,6.72.79,5.34-.4,11.66-4.74,15.22-9.09,7.11-36.76-3.16-42.29,0-3.95,2.37-1.58,31.42,1.19,33.2,8.89,5.34,33-8.1,37.16,9.68.99,4.55,1.78,14.03-1.98,17.39-9.29,8.1-26.68-1.58-34.78,1.78-8.89,3.75,12.06,57.51,4.55,66.8-3.56,4.35-10.87,6.52-16.21,6.92-8.5.79-15.81-.2-20.16-8.3Z" style="fill:#f45b69; stroke-width:0px;"/><path d="m173.18,907.78c-18.38-30.63-3.95-100.59,23.72-122.53,6.13-4.74,13.24-8.1,20.75-9.49,77.67-14.62,92.29,132.02,31.82,155.73-24.9,9.68-62.25-.2-76.29-23.72Zm63.64-93.08c-26.29-14.62-52.37,76.09-9.49,79.84,30.63,2.77,28.26-69.37,9.49-79.84Z" style="fill:#f45b69; stroke-width:0px;"/><path d="m309.34,928.93c-5.34-10.08-13.24-110.87-11.86-128.26.4-6.32,1.58-16.8,7.12-20.75,3.36-2.37,7.71-2.96,11.66-2.96,9.49,0,18.97,1.98,28.66,1.58,8.3-.2,32.61-4.15,38.54.99,1.98,1.78,2.77,4.15,3.16,6.72.79,5.34-.4,11.66-4.74,15.22-9.09,7.11-36.76-3.16-42.29,0-3.95,2.37-1.58,31.42,1.19,33.2,8.89,5.34,33-8.1,37.16,9.68.99,4.55,1.78,14.03-1.98,17.39-9.29,8.1-26.68-1.58-34.78,1.78-8.89,3.75,12.06,57.51,4.55,66.8-3.56,4.35-10.87,6.52-16.21,6.92-8.5.79-15.81-.2-20.16-8.3Z" style="fill:#f45b69; stroke-width:0px;"/><path d="m398.67,907.78c-18.38-30.63-3.95-100.59,23.72-122.53,6.13-4.74,13.24-8.1,20.75-9.49,77.67-14.62,92.29,132.02,31.82,155.73-24.9,9.68-62.25-.2-76.29-23.72Zm63.64-93.08c-26.29-14.62-52.37,76.09-9.49,79.84,30.63,2.77,28.26-69.37,9.49-79.84Z" style="fill:#f45b69; stroke-width:0px;"/><path d="m554,934.07c-39.72-22.53-38.74-85.38-22.73-122.53,5.53-12.65,15.81-23.52,28.26-29.45,15.81-7.51,31.42-7.91,45.26,3.95,11.86,10.28,15.42,32.02,14.03,47.04-.39,5.14-1.98,10.28-5.73,13.83-5.53,5.14-15.02,5.73-21.54,2.17-13.24-7.11-1.78-32.02-11.26-36.76-4.74-2.37-11.26.99-14.23,4.94-10.08,13.04-17.79,73.72.99,80.83,11.66,4.35,25.89-13.83,35.97-9.88,4.74,1.98,8.7,8.7,10.08,13.44,5.14,18.77-15.61,36.96-33,38.14-9.09.59-18.18-1.19-26.09-5.73Z" style="fill:#f45b69; stroke-width:0px;"/><path d="m658.15,915.1c-2.96,13.83-9.09,19.17-23.71,15.61-3.16-.79-6.72-1.98-8.3-5.14-2.17-4.55,4.94-31.23,6.32-37.95-1.78,0-3.75,0-5.53.4-10.08-.4-12.25-17.98,9.88-19.76,3.56-16.21,16.6-73.12,28.46-83.2,6.52-5.73,21.74-7.11,29.45-3.16,3.36,1.78,5.93,4.55,7.51,7.91,9.68,19.96,12.65,60.28,16.4,83.2,18.97,5.53,16.6,25.3,3.56,25.1.59,5.93,3.56,19.17.59,24.31-2.17,3.76-7.71,5.93-11.86,6.52-23.72,3.16-23.32-20.36-25.3-37.75l-22.13-3.36c-1.58,9.09-3.36,18.18-5.34,27.27Zm24.9-44.67c-1.98-14.82-3.95-30.04-6.92-44.86-2.96,14.43-6.52,28.46-9.49,42.89,5.53.59,10.87,1.19,16.4,1.98Z" style="fill:#f45b69; stroke-width:0px;"/><path d="m910.13,943.95c-.79,2.57-3.36,3.75-5.53,4.74-16.4,7.71-19.17-8.1-23.91-19.96-9.88,5.53-21.54,7.51-32.61,5.73-58.1-9.09-66.8-116.41-26.88-148.62,16.4-13.24,40.51-13.44,59.68-6.52,9.88,3.56,19.37,9.88,26.09,17.98,22.53,27.47,9.09,89.13-9.49,115.61,3.16,6.13,14.82,24.7,12.65,31.03Zm-52.37-128.46c-4.94-.79-10.28.2-14.03,3.56-20.55,17.59-11.07,93.68,17.39,74.71-5.93-7.71-12.85-15.02-17.59-23.52-7.31-13.24,9.88-22.92,15.61-19.57,5.34,2.96,12.45,14.82,15.61,20.36,5.53-18.78,9.29-51.58-17-55.53Z" style="fill:#f45b69; stroke-width:0px;"/><path d="m986.02,937.62c-17,9.09-36.76.99-45.65-15.22-4.15-7.71-6.92-16.21-8.5-24.7-3.75-19.76-3.56-39.72-1.58-59.69.99-9.49,4.55-43.68,11.46-49.8,2.17-1.78,4.94-2.77,7.71-3.16,6.52-.79,18.38,1.58,21.34,8.1,6.92,14.82-18.78,82.02,1.78,104.55,3.56,3.95,10.08,5.14,14.82,2.96,19.17-8.89,26.88-71.54,26.48-90.91-.2-7.11-.59-19.76,2.17-26.29,5.34-12.65,26.68-8.89,30.24,1.78,1.98,6.32-1.78,40.32-2.37,49.61-1.78,26.29-2.57,52.37-1.78,78.66.2,7.91,1.19,16.21-.2,24.11-.59,3.16-1.98,6.13-4.94,7.71-4.15,2.17-9.88,2.17-14.43,1.78-20.95-1.98-19.57-15.81-16.8-32.21-3.95,8.89-11.07,17.98-19.76,22.73Z" style="fill:#f45b69; stroke-width:0px;"/><path d="m1074.55,931.1c-6.72-6.13-8.89-23.52-9.49-32.41-2.57-34.59-5.34-69.76-6.13-104.55-.2-4.55-.4-10.47,3.75-13.64,2.37-1.98,6.32-2.57,9.29-2.96,8.89-.99,54.15,0,63.64.59,2.77.2,5.34.59,7.71,1.98,5.73,3.16,5.14,11.27,3.75,16.8-3.95,14.62-41.11,1.98-47.43,9.49-2.57,3.16-1.98,14.43-1.58,18.58.2,2.57.99,9.68,2.57,11.46,5.14,5.53,28.85-4.94,34.58,3.36,1.58,2.37,1.98,9.49,1.58,12.45-2.17,14.03-30.04,3.16-34.78,7.31-2.17,1.78-1.58,25.3-.79,29.05.4,2.37,2.37,7.71,4.15,9.29,5.53,4.94,28.06-2.77,35.57-1.78,9.09,1.19,9.68,21.54,5.14,27.27-4.74,5.73-26.88,6.52-34.59,7.71-8.7,1.38-30.04,6.52-36.96,0Z" style="fill:#f45b69; stroke-width:0px;"/><path d="m1187.79,931.89c-7.31,8.5-26.48,6.13-27.47-9.09-.79-10.87,2.17-20.55,2.57-31.23.59-18.58,0-37.35-1.58-55.73-.79-8.89-5.93-33.4-1.78-40.51,4.35-7.51,17.19-12.45,24.51-6.32,10.47,8.89,23.91,58.1,29.25,73.12,3.36,9.49,7.31,18.58,11.46,27.67,5.53-21.94,6.32-44.47,6.72-67,.2-8.3-1.78-34.78.2-40.51.59-1.78,1.58-2.96,2.77-4.35,6.72-7.31,24.31-6.13,28.85,2.77,7.71,15.22-1.58,113.44-6.72,133.2-1.38,5.53-3.16,11.66-6.72,16.4-2.17,2.77-5.53,4.55-8.89,5.14-17.19,3.36-22.92-12.65-28.85-24.9-5.53-11.27-11.66-22.53-17.98-33.4.99,12.85,2.17,44.66-6.32,54.74Z" style="fill:#f45b69; stroke-width:0px;"/><path d="m1355.38,880.9c2.96,16.21,5.53,33.4,1.58,49.61-3.75,15.61-32.21,19.57-40.51,6.72-2.57-3.95-2.96-9.29-3.36-14.03-2.77-39.33-.79-79.25-8.3-118.38-7.91,2.77-26.88,9.88-31.62-.59-1.58-3.56-2.77-11.86.2-15.02,2.57-2.77,28.46-7.51,33.2-8.1,12.45-1.78,68.58-9.88,63.04,14.43-2.37,11.07-18.38,7.31-26.88,8.1,3.16,25.89,7.9,51.58,12.65,77.27Z" style="fill:#f45b69; stroke-width:0px;"/><path d="m1392.73,931.1c-6.72-6.13-8.89-23.52-9.49-32.41-2.57-34.59-5.34-69.76-6.13-104.55-.2-4.55-.4-10.47,3.75-13.64,2.37-1.98,6.32-2.57,9.29-2.96,8.89-.99,54.15,0,63.64.59,2.77.2,5.34.59,7.71,1.98,5.73,3.16,5.14,11.27,3.75,16.8-3.95,14.62-41.11,1.98-47.43,9.49-2.57,3.16-1.98,14.43-1.58,18.58.2,2.57.99,9.68,2.57,11.46,5.14,5.53,28.85-4.94,34.58,3.36,1.58,2.37,1.98,9.49,1.58,12.45-2.17,14.03-30.04,3.16-34.78,7.31-2.17,1.78-1.58,25.3-.79,29.05.4,2.37,2.37,7.71,4.15,9.29,5.53,4.94,28.06-2.77,35.57-1.78,9.09,1.19,9.68,21.54,5.14,27.27-4.74,5.73-26.88,6.52-34.59,7.71-8.7,1.38-30.04,6.52-36.96,0Z" style="fill:#f45b69; stroke-width:0px;"/></g></svg>