<?xml version="1.0" encoding="UTF-8"?><svg id="a" xmlns="http://www.w3.org/2000/svg" xmlns:xlink="http://www.w3.org/1999/xlink" viewBox="0 0 1536 1024"><defs><filter id="b" filterUnits="userSpaceOnUse"><feOffset dx="6.68" dy="6.68"/><feGaussianBlur result="c" stdDeviation="0"/><feFlood flood-color="#000" flood-opacity="1"/><feComposite in2="c" operator="in"/><feComposite in="SourceGraphic"/></filter></defs><g style="filter:url(#b);"><path d="m98.67,880.38c0-4.04.93-9.95,2.8-17.11,1.87-7.15,7.15-14.31,15.55-21.46s19.91-10.58,34.22-10.58c24.89,0,50.08,11.2,73.73,22.4,9.64-21.15,19.6-45.42,29.55-73.1,9.02-23.95,18.35-47.91,28.62-71.86-4.36-.62-9.02-.93-13.69-.93-34.22,0-46.35,26.44-46.35,44.48,0,1.56-1.25,10.58,5.91,20.53,3.42,4.98,8.4,7.47,14.62,7.47l-2.18,6.22c-4.04,12.44-18.04,35.15-50.71,35.15-15.55,0-27.69-4.67-36.71-13.69s-14.62-18.67-16.18-28.62c-1.87-9.95-2.8-17.73-2.8-23.64,0-9.02,1.56-19.91,4.67-32.66s9.96-26.44,20.22-40.75c20.84-28.62,54.44-48.84,101.41-48.84,22.09,0,41.06,4.04,57.55,11.82,19.6-26.13,42.93-42.93,72.48-42.93,22.09,0,34.53,11.82,37.95,23.02,1.87,5.29,2.8,9.95,2.8,14,0,5.91-1.24,16.8-10.27,24.26-4.36,3.42-9.33,5.29-15.24,5.29-1.56,0-3.11,0-4.67-.31l-.31-2.49c-.93-5.6-4.35-19.6-18.66-19.6-10.89,0-20.53,8.09-30.17,22.09,15.55,15.87,27.06,34.22,34.22,55.37,7.47,21.15,11.2,42.62,11.2,64.39,0,.93-.31,7.47-.31,19.29-.31,11.82-4.04,27.69-11.51,47.28-7.47,19.6-18.35,35.77-32.35,48.22-14.31,12.44-31.73,18.67-51.95,18.67-32.66,0-54.44-10.27-71.55-21.78-19.6,21.15-41.69,34.84-67.82,34.84-33.6,0-53.51-16.18-60.66-36.4-2.18-5.91-3.42-12.13-3.42-18.04Zm57.55,5.91c0,2.49,1.24,5.6,3.73,9.33,2.49,3.73,8.4,5.6,17.42,5.6,10.89,0,20.84-5.91,29.55-18.04-9.64-6.22-18.98-10.89-30.17-10.89-9.33,0-15.55,2.49-18.35,7.15-1.24,2.18-2.18,4.67-2.18,6.84Zm125.68-14c15.87,0,29.24-5.6,40.13-16.8,10.89-10.89,17.73-22.71,21.15-35.46,3.42-12.44,5.29-23.33,5.29-32.66,0-6.84-1.24-16.18-3.73-28-2.18-11.51-9.64-23.02-21.78-33.91-4.04,9.64-8.4,19.6-13.07,29.86-15.87,37.64-33.6,77.77-54.44,111.37,9.33,3.73,18.04,5.6,26.44,5.6Z" style="fill:#44bba4; stroke-width:0px;"/><path d="m396.06,878.51c0-.93-1.55-11.51,6.22-36.4,7.47-24.58,18.67-48.22,26.44-62.22l5.91-10.58h43.55l-4.67,9.64c-6.22,13.38-14.93,33.6-19.6,50.71-2.49,8.4-3.73,15.55-3.73,21.46,0,1.24.31,4.04.62,7.78.31,4.04,3.73,5.91,9.64,5.91,10.27,0,23.33-14.62,35.77-33.6,5.91-9.33,11.51-18.67,16.8-28,4.67-9.95,9.02-18.04,12.44-24.58l4.98-9.33h41.37l-4.04,9.64c-5.29,13.38-13.38,33.6-17.42,50.71-2.18,8.71-3.11,15.87-3.11,21.46,0,1.56.31,4.04.62,7.78.31,4.04,3.11,5.91,8.4,5.91,8.71,0,14.93-7.47,17.42-11.82l.93-1.87c7.16,0,11.2,1.56,12.13,4.35.93,2.8,1.55,4.98,1.55,6.53,0,6.84-4.67,18.04-16.8,30.49-12.44,12.75-29.86,22.71-47.6,22.71-23.33,0-32.66-12.44-32.97-30.8-16.49,18.35-35.77,30.8-56.62,30.8-14.31,0-24.26-3.73-29.86-10.89-5.6-6.84-8.4-15.55-8.4-25.82Z" style="fill:#44bba4; stroke-width:0px;"/><path d="m574,860.16c.31-11.51,2.49-30.8,17.42-53.2,14.93-22.09,37.95-37.64,66.26-37.64,13.07,0,22.4,3.42,28,10.58,5.6,6.84,8.4,14.31,8.4,22.09,0,1.87-.62,6.22-1.56,12.13-.93,6.22-6.22,13.38-16.49,21.78s-25.51,13.38-45.42,14.93c3.42,8.4,12.44,14,28.93,14s30.8-5.6,38.57-10.27l5.6-3.42c8.4,0,12.44,1.56,12.44,4.98s.31,4.98.31,4.98c0,13.07-14.31,31.11-40.13,44.17-13.07,6.53-28.31,9.95-46.04,9.95-32.04,0-49.15-15.87-54.13-37.95-1.24-5.6-1.87-11.2-2.18-17.11Zm86.48-39.51c6.53-6.22,9.64-10.89,9.64-13.69s.31-4.04.31-4.35c0-5.29-2.49-7.78-7.15-7.78-6.53,0-13.38,4.04-20.22,12.13-7.15,8.09-11.51,17.11-13.69,27.06,14.31-2.8,24.58-7.16,31.11-13.38Z" style="fill:#44bba4; stroke-width:0px;"/><path d="m700.92,877.27c0-.93-1.56-11.82,5.6-40.13,3.42-14,7.47-28.31,12.44-42.31h-14.62l6.84-25.51h17.73c6.53-15.87,12.13-29.24,17.11-39.51l7.15-15.24h41.69l-6.22,15.86c-4.04,10.58-8.71,23.64-14,38.89h14.31l-6.84,25.51h-15.55c-7.47,23.95-10.89,42.93-10.89,54.75,0,1.87.31,4.67.62,9.02.31,4.04,3.11,6.22,8.09,6.22,8.71,0,14.93-7.47,17.42-11.82l.93-1.87c7.16,0,11.2,1.56,12.13,4.35.93,2.8,1.56,4.98,1.56,6.53,0,6.84-4.67,18.04-16.8,30.49-12.44,12.75-29.86,22.71-47.6,22.71-11.51,0-19.6-3.73-24.26-10.89-4.67-6.84-6.84-15.86-6.84-27.06Z" style="fill:#44bba4; stroke-width:0px;"/><path d="m782.73,857.05c0-9.64.93-27.69,15.55-50.08,14.62-22.09,38.88-37.64,72.48-37.64,15.87,0,28.62,3.42,37.64,10.58,9.02,7.15,14.62,14.93,16.8,23.33s3.42,15.87,3.42,22.09c0,10.89-1.87,29.86-17.73,51.95-15.87,22.09-40.75,37.95-73.1,37.95-28.93,0-46.04-15.87-52.26-37.95-1.87-6.53-2.8-13.07-2.8-20.22Zm79.01,7.78c9.64,0,17.42-3.73,23.33-10.89,5.91-7.16,9.64-13.69,10.58-19.6.93-5.91,1.56-10.27,1.56-13.07,0-5.6-1.56-11.51-4.36-17.42-2.8-5.91-9.02-9.02-18.67-9.02-22.09,0-37.95,25.2-37.95,45.11,0,14,7.15,24.89,25.51,24.89Z" style="fill:#44bba4; stroke-width:0px;"/><path d="m929.25,858.6c6.53-6.53,21.15-26.75,41.68-80.26.31-2.8,1.25-5.91,2.49-9.02h54.13c-1.24,3.42-1.87,6.84-1.87,10.27,0,5.91,2.18,14.93,9.64,29.55,6.53,13.69,13.69,29.24,13.69,47.91,0,16.18-7.16,29.86-21.15,41.06-14,11.51-30.8,17.11-50.39,17.11-22.09,0-36.09-11.51-41.06-26.13-2.18,2.18-4.04,4.35-6.22,6.22l-4.04-33.6,3.11-3.11Zm28.31,2.49c4.04,2.49,9.02,3.73,15.55,3.73,7.47,0,17.42-4.36,19.6-10.89,1.24-3.11,1.87-5.6,1.87-7.78,0-4.04-.93-8.71-3.11-14-2.18-5.29-4.98-10.27-8.4-14.93-7.16,14.31-15.87,28.93-25.51,43.86Z" style="fill:#44bba4; stroke-width:0px;"/></g></svg>