<?xml version="1.0" encoding="UTF-8"?><svg id="a" xmlns="http://www.w3.org/2000/svg" viewBox="0 0 1536 1024"><path d="m69.81,609.62h52.27l17.81,53.89,17.81-53.89h33.77l17.81,53.89,17.81-53.89h52.27l-50.88,154.26h-38.39l-15.5-46.72-15.5,46.72h-38.39l-50.88-154.26Zm74.01,135.76l30.76-96.9,30.76,96.9h5.78l38.62-117.25h-6.24l-35.15,106.62-33.77-106.62-33.77,106.62-35.15-106.62h-6.24l38.62,117.25h5.78Z" style="fill:#f4d100; stroke:#f4d100; stroke-linecap:round; stroke-linejoin:round; stroke-width:20px;"/><path d="m305.48,609.62h37l58.51,154.26h-48.57l-5.09-13.88h-46.72l-5.09,13.88h-48.57l58.51-154.26Zm-24.05,135.76l4.39-11.56h76.32l4.39,11.56h6.48l-44.64-117.25h-8.79l-44.64,117.25h6.48Zm42.55-111.71l36.08,94.59h-72.16l36.08-94.59Zm10.41,82.33l-10.41-27.06-10.41,27.06h20.81Z" style="fill:#f4d100; stroke:#f4d100; stroke-linecap:round; stroke-linejoin:round; stroke-width:20px;"/><path d="m404.47,609.62h53.19c9.87,0,19,1.31,27.41,3.93,8.4,2.62,15.69,6.48,21.86,11.56,6.16,5.09,10.99,11.37,14.45,18.85,3.47,7.48,5.2,16.07,5.2,25.79,0,7.71-1.08,14.26-3.24,19.66-2.16,5.4-4.55,9.87-7.17,13.41-3.09,4.01-6.56,7.4-10.41,10.18l28.91,50.88h-57.82l-23.13-39.08v39.08h-49.26v-154.26Zm48.1,100.6c6.01,0,11.87-.61,17.58-1.85l21.97,37h7.17l-23.13-38.85c8.33-2.93,14.95-7.44,19.89-13.53,4.93-6.09,7.4-13.99,7.4-23.71,0-6.78-1.31-12.72-3.93-17.81-2.62-5.09-6.21-9.37-10.75-12.84-4.55-3.47-9.91-6.09-16.07-7.86-6.17-1.77-12.88-2.66-20.12-2.66h-24.98v117.25h6.01v-35.15h18.96Zm-18.96-5.55v-71h18.96c14.03,0,25.01,3.09,32.96,9.25,7.94,6.17,11.91,14.96,11.91,26.37s-3.97,20.16-11.91,26.25c-7.94,6.09-18.93,9.13-32.96,9.13h-18.96Zm20.12-19.2h2.54c5.86,0,10.83-1.31,14.92-3.93,4.08-2.62,6.13-7.01,6.13-13.18s-2.04-10.56-6.13-13.18c-4.09-2.62-9.06-3.93-14.92-3.93h-2.54v34.23Z" style="fill:#f4d100; stroke:#f4d100; stroke-linecap:round; stroke-linejoin:round; stroke-width:20px;"/><path d="m539.3,609.62h40.47l42.55,59.44v-59.44h48.34v154.26h-40.7l-42.32-59.21v59.21h-48.34v-154.26Zm27.52,135.76v-106.85l76.32,106.85h6.01v-117.25h-6.01v106.85l-76.32-106.85h-6.01v117.25h6.01Z" style="fill:#f4d100; stroke:#f4d100; stroke-linecap:round; stroke-linejoin:round; stroke-width:20px;"/><path d="m686.84,609.62h52.27v154.26h-52.27v-154.26Zm29.14,135.76v-117.25h-6.01v117.25h6.01Z" style="fill:#f4d100; stroke:#f4d100; stroke-linecap:round; stroke-linejoin:round; stroke-width:20px;"/><path d="m755.3,609.62h40.47l42.55,59.44v-59.44h48.34v154.26h-40.7l-42.32-59.21v59.21h-48.34v-154.26Zm27.52,135.76v-106.85l76.32,106.85h6.01v-117.25h-6.01v106.85l-76.32-106.85h-6.01v117.25h6.01Z" style="fill:#f4d100; stroke:#f4d100; stroke-linecap:round; stroke-linejoin:round; stroke-width:20px;"/><path d="m1001.14,662.12c-2.78-2.46-6.24-4.35-10.41-5.67-4.16-1.31-8.25-1.97-12.26-1.97-4.47,0-8.56.81-12.26,2.43-3.7,1.62-6.9,3.86-9.6,6.71-2.7,2.85-4.82,6.28-6.36,10.29-1.54,4.01-2.31,8.33-2.31,12.95s.85,8.94,2.54,12.95c1.7,4.01,4.01,7.44,6.94,10.29,2.93,2.85,6.36,5.09,10.29,6.71,3.93,1.62,8.13,2.43,12.6,2.43,5.24,0,10.02-1.12,14.34-3.35,4.31-2.23,8.01-5.28,11.1-9.13h-13.88v-32.38h59.44v51.34c-3.55,6.32-7.79,12.07-12.72,17.23-4.94,5.17-10.45,9.6-16.54,13.3-6.09,3.7-12.68,6.55-19.77,8.56-7.09,2-14.42,3.01-21.97,3.01-11.1,0-21.59-2.08-31.45-6.24-9.87-4.16-18.47-9.87-25.79-17.11-7.33-7.25-13.11-15.8-17.35-25.67-4.24-9.87-6.36-20.5-6.36-31.92s2-21.58,6.01-31.45c4.01-9.87,9.52-18.46,16.54-25.79,7.01-7.32,15.34-13.1,24.98-17.35,9.63-4.24,20-6.36,31.11-6.36,8.63,0,16.11.85,22.43,2.54,6.32,1.7,11.64,3.62,15.96,5.78,5.09,2.47,9.33,5.17,12.72,8.09l-27.98,39.78Zm2.31-29.83c-2.01-.92-4.24-1.69-6.71-2.31-2.16-.61-4.71-1.16-7.63-1.62-2.93-.46-6.17-.69-9.71-.69-8.17,0-15.81,1.47-22.9,4.39-7.09,2.93-13.26,6.98-18.5,12.14-5.24,5.17-9.37,11.37-12.37,18.62-3.01,7.25-4.51,15.26-4.51,24.05s1.54,16.81,4.62,24.05c3.08,7.25,7.32,13.45,12.72,18.62,5.39,5.17,11.68,9.21,18.85,12.14,7.17,2.93,14.84,4.39,23.01,4.39,10.64,0,20.27-2.5,28.91-7.52,8.63-5.01,15.65-11.68,21.05-20v-30.3h-24.52v5.55h18.5v23.13c-4.78,7.09-10.99,12.72-18.62,16.88s-16.07,6.24-25.32,6.24c-7.4,0-14.3-1.27-20.7-3.82-6.4-2.54-12.03-6.17-16.88-10.87-4.86-4.7-8.67-10.33-11.45-16.88-2.78-6.55-4.16-13.76-4.16-21.62s1.35-15.07,4.05-21.62c2.7-6.55,6.4-12.18,11.1-16.88,4.7-4.7,10.21-8.33,16.54-10.87,6.32-2.54,13.18-3.82,20.58-3.82,2.78,0,5.4.23,7.86.69,2.46.46,4.63.92,6.48,1.39,2.16.62,4.16,1.24,6.01,1.85l3.7-5.32Z" style="fill:#f4d100; stroke:#f4d100; stroke-linecap:round; stroke-linejoin:round; stroke-width:20px;"/><path d="m569.13,888.94c3.39,1.08,6.94,1.93,10.64,2.54,3.08.77,6.59,1.39,10.52,1.85,3.93.46,7.9.69,11.91.69,7.09,0,10.64-2.62,10.64-7.86,0-2-1.08-4.05-3.24-6.13-2.16-2.08-4.9-4.39-8.21-6.94-3.32-2.54-6.86-5.36-10.64-8.44-3.78-3.08-7.33-6.63-10.64-10.64-3.32-4.01-6.05-8.52-8.21-13.53-2.16-5.01-3.24-10.75-3.24-17.23,0-7.25,1.31-13.65,3.93-19.2,2.62-5.55,6.25-10.18,10.87-13.88,4.63-3.7,10.06-6.51,16.3-8.44,6.24-1.93,12.91-2.89,20-2.89,3.7,0,7.4.19,11.1.58,3.7.39,7.01.73,9.94,1.04,3.39.46,6.71.93,9.95,1.39v43.25c-1.24-.15-2.62-.31-4.16-.46-1.24-.15-2.62-.31-4.16-.46-1.54-.15-3.16-.23-4.86-.23-.93,0-2.08.04-3.47.12-1.39.08-2.7.27-3.93.58-1.24.31-2.31.85-3.24,1.62-.92.77-1.39,1.85-1.39,3.24,0,1.24,1.04,2.78,3.12,4.62,2.08,1.85,4.63,4.01,7.63,6.48,3.01,2.47,6.32,5.32,9.95,8.56,3.62,3.24,6.94,6.94,9.94,11.1,3.01,4.16,5.55,8.87,7.63,14.11,2.08,5.24,3.12,11.1,3.12,17.58s-1.08,13.15-3.24,19.08c-2.16,5.94-5.51,11.1-10.06,15.5-4.55,4.39-10.37,7.86-17.46,10.41-7.09,2.54-15.5,3.82-25.21,3.82-5.86,0-11.3-.27-16.3-.81-5.01-.54-9.45-1.2-13.3-1.97-4.47-.77-8.56-1.69-12.26-2.78v-46.25Zm19.43,27.75c2.16.46,4.47.85,6.94,1.16,2.16.31,4.43.58,6.82.81,2.39.23,4.82.35,7.29.35,4.31,0,8.52-.5,12.6-1.5,4.08-1,7.75-2.66,10.99-4.97,3.24-2.31,5.82-5.28,7.75-8.9,1.93-3.62,2.89-8.05,2.89-13.3,0-4.47-1.12-8.71-3.35-12.72-2.24-4.01-5.09-7.86-8.56-11.56-3.47-3.7-7.17-7.25-11.1-10.64-3.93-3.39-7.63-6.82-11.1-10.29-3.47-3.47-6.32-6.94-8.56-10.41-2.24-3.47-3.35-7.05-3.35-10.75,0-5.55,1.77-9.83,5.32-12.84,3.54-3.01,9.25-4.51,17.11-4.51,1.23,0,2.5.04,3.82.12,1.31.08,2.58.2,3.82.35,1.23.16,2.46.23,3.7.23v-6.01c-1.08,0-2.24-.08-3.47-.23-1.08-.15-2.28-.27-3.58-.35-1.31-.08-2.66-.12-4.05-.12-8.33,0-15.19,1.89-20.58,5.67-5.4,3.78-8.09,9.68-8.09,17.69,0,4.32,1.12,8.37,3.35,12.14,2.23,3.78,5.09,7.48,8.56,11.1,3.47,3.62,7.17,7.13,11.1,10.52,3.93,3.39,7.63,6.82,11.1,10.29,3.47,3.47,6.32,7.05,8.56,10.75,2.23,3.7,3.35,7.56,3.35,11.56,0,7.4-2.51,13.03-7.52,16.88-5.01,3.86-11.91,5.78-20.7,5.78-5.24,0-10.02-.38-14.34-1.16-2.31-.31-4.55-.69-6.71-1.16v6.01Z" style="fill:#f4d100; stroke:#f4d100; stroke-linecap:round; stroke-linejoin:round; stroke-width:20px;"/><path d="m677.37,782.55h52.27v154.26h-52.27v-154.26Zm29.14,135.76v-117.25h-6.01v117.25h6.01Z" style="fill:#f4d100; stroke:#f4d100; stroke-linecap:round; stroke-linejoin:round; stroke-width:20px;"/><path d="m844.12,835.05c-2.78-2.46-6.24-4.35-10.41-5.67-4.16-1.31-8.25-1.97-12.26-1.97-4.47,0-8.56.81-12.26,2.43-3.7,1.62-6.9,3.86-9.6,6.71-2.7,2.85-4.82,6.28-6.36,10.29-1.54,4.01-2.31,8.33-2.31,12.95s.85,8.94,2.54,12.95c1.7,4.01,4.01,7.44,6.94,10.29,2.93,2.85,6.36,5.09,10.29,6.71,3.93,1.62,8.13,2.43,12.6,2.43,5.24,0,10.02-1.12,14.34-3.35,4.31-2.23,8.01-5.28,11.1-9.13h-13.88v-32.38h59.44v51.34c-3.55,6.32-7.79,12.07-12.72,17.23-4.94,5.17-10.45,9.6-16.54,13.3-6.09,3.7-12.68,6.55-19.77,8.56-7.09,2-14.42,3.01-21.97,3.01-11.1,0-21.59-2.08-31.45-6.24-9.87-4.16-18.47-9.87-25.79-17.11-7.33-7.25-13.11-15.8-17.35-25.67-4.24-9.87-6.36-20.5-6.36-31.92s2-21.58,6.01-31.45c4.01-9.87,9.52-18.46,16.54-25.79,7.01-7.32,15.34-13.1,24.98-17.35,9.63-4.24,20-6.36,31.11-6.36,8.63,0,16.11.85,22.43,2.54,6.32,1.7,11.64,3.62,15.96,5.78,5.09,2.47,9.33,5.17,12.72,8.09l-27.98,39.78Zm2.31-29.83c-2.01-.92-4.24-1.69-6.71-2.31-2.16-.61-4.71-1.16-7.63-1.62-2.93-.46-6.17-.69-9.71-.69-8.17,0-15.81,1.47-22.9,4.39-7.09,2.93-13.26,6.98-18.5,12.14-5.24,5.17-9.37,11.37-12.37,18.62-3.01,7.25-4.51,15.26-4.51,24.05s1.54,16.81,4.62,24.05c3.08,7.25,7.32,13.45,12.72,18.62,5.39,5.17,11.68,9.21,18.85,12.14,7.17,2.93,14.84,4.39,23.01,4.39,10.64,0,20.27-2.5,28.91-7.52,8.63-5.01,15.65-11.68,21.05-20v-30.3h-24.52v5.55h18.5v23.13c-4.78,7.09-10.99,12.72-18.62,16.88s-16.07,6.24-25.32,6.24c-7.4,0-14.3-1.27-20.7-3.82-6.4-2.54-12.03-6.17-16.88-10.87-4.86-4.7-8.67-10.33-11.45-16.88-2.78-6.55-4.16-13.76-4.16-21.62s1.35-15.07,4.05-21.62c2.7-6.55,6.4-12.18,11.1-16.88,4.7-4.7,10.21-8.33,16.54-10.87,6.32-2.54,13.18-3.82,20.58-3.82,2.78,0,5.4.23,7.86.69,2.46.46,4.63.92,6.48,1.39,2.16.62,4.16,1.24,6.01,1.85l3.7-5.32Z" style="fill:#f4d100; stroke:#f4d100; stroke-linecap:round; stroke-linejoin:round; stroke-width:20px;"/><path d="m907.02,782.55h40.47l42.55,59.44v-59.44h48.34v154.26h-40.7l-42.32-59.21v59.21h-48.34v-154.26Zm27.52,135.76v-106.85l76.32,106.85h6.01v-117.25h-6.01v106.85l-76.32-106.85h-6.01v117.25h6.01Z" style="fill:#f4d100; stroke:#f4d100; stroke-linecap:round; stroke-linejoin:round; stroke-width:20px;"/><path d="m1050.41,888.94c3.39,1.08,6.94,1.93,10.64,2.54,3.08.77,6.59,1.39,10.52,1.85,3.93.46,7.9.69,11.91.69,7.09,0,10.64-2.62,10.64-7.86,0-2-1.08-4.05-3.24-6.13-2.16-2.08-4.9-4.39-8.21-6.94-3.32-2.54-6.86-5.36-10.64-8.44-3.78-3.08-7.33-6.63-10.64-10.64-3.32-4.01-6.05-8.52-8.21-13.53-2.16-5.01-3.24-10.75-3.24-17.23,0-7.25,1.31-13.65,3.93-19.2,2.62-5.55,6.25-10.18,10.87-13.88,4.63-3.7,10.06-6.51,16.3-8.44,6.24-1.93,12.91-2.89,20-2.89,3.7,0,7.4.19,11.1.58,3.7.39,7.01.73,9.94,1.04,3.39.46,6.71.93,9.95,1.39v43.25c-1.24-.15-2.62-.31-4.16-.46-1.24-.15-2.62-.31-4.16-.46-1.54-.15-3.16-.23-4.86-.23-.93,0-2.08.04-3.47.12-1.39.08-2.7.27-3.93.58-1.24.31-2.31.85-3.24,1.62-.92.77-1.39,1.85-1.39,3.24,0,1.24,1.04,2.78,3.12,4.62,2.08,1.85,4.63,4.01,7.63,6.48,3.01,2.47,6.32,5.32,9.95,8.56,3.62,3.24,6.94,6.94,9.94,11.1,3.01,4.16,5.55,8.87,7.63,14.11,2.08,5.24,3.12,11.1,3.12,17.58s-1.08,13.15-3.24,19.08c-2.16,5.94-5.51,11.1-10.06,15.5-4.55,4.39-10.37,7.86-17.46,10.41-7.09,2.54-15.5,3.82-25.21,3.82-5.86,0-11.3-.27-16.3-.81-5.01-.54-9.45-1.2-13.3-1.97-4.47-.77-8.56-1.69-12.26-2.78v-46.25Zm19.43,27.75c2.16.46,4.47.85,6.94,1.16,2.16.31,4.43.58,6.82.81,2.39.23,4.82.35,7.29.35,4.31,0,8.52-.5,12.6-1.5,4.08-1,7.75-2.66,10.99-4.97,3.24-2.31,5.82-5.28,7.75-8.9,1.93-3.62,2.89-8.05,2.89-13.3,0-4.47-1.12-8.71-3.35-12.72-2.24-4.01-5.09-7.86-8.56-11.56-3.47-3.7-7.17-7.25-11.1-10.64-3.93-3.39-7.63-6.82-11.1-10.29-3.47-3.47-6.32-6.94-8.56-10.41-2.24-3.47-3.35-7.05-3.35-10.75,0-5.55,1.77-9.83,5.32-12.84,3.54-3.01,9.25-4.51,17.11-4.51,1.23,0,2.5.04,3.82.12,1.31.08,2.58.2,3.82.35,1.23.16,2.46.23,3.7.23v-6.01c-1.08,0-2.24-.08-3.47-.23-1.08-.15-2.28-.27-3.58-.35-1.31-.08-2.66-.12-4.05-.12-8.33,0-15.19,1.89-20.58,5.67-5.4,3.78-8.09,9.68-8.09,17.69,0,4.32,1.12,8.37,3.35,12.14,2.23,3.78,5.09,7.48,8.56,11.1,3.47,3.62,7.17,7.13,11.1,10.52,3.93,3.39,7.63,6.82,11.1,10.29,3.47,3.47,6.32,7.05,8.56,10.75,2.23,3.7,3.35,7.56,3.35,11.56,0,7.4-2.51,13.03-7.52,16.88-5.01,3.86-11.91,5.78-20.7,5.78-5.24,0-10.02-.38-14.34-1.16-2.31-.31-4.55-.69-6.71-1.16v6.01Z" style="fill:#f4d100; stroke:#f4d100; stroke-linecap:round; stroke-linejoin:round; stroke-width:20px;"/><path d="m78.29,607.12h52.27l17.81,53.89,17.81-53.89h33.77l17.81,53.89,17.81-53.89h52.27l-50.88,154.26h-38.39l-15.5-46.72-15.5,46.72h-38.39l-50.88-154.26Zm74.01,135.76l30.76-96.9,30.76,96.9h5.78l38.62-117.25h-6.24l-35.15,106.62-33.77-106.62-33.77,106.62-35.15-106.62h-6.24l38.62,117.25h5.78Z" style="stroke-width:0px;"/><path d="m313.95,607.12h37l58.51,154.26h-48.57l-5.09-13.88h-46.72l-5.09,13.88h-48.57l58.51-154.26Zm-24.05,135.76l4.39-11.56h76.32l4.39,11.56h6.48l-44.64-117.25h-8.79l-44.64,117.25h6.48Zm42.55-111.71l36.08,94.59h-72.16l36.08-94.59Zm10.41,82.33l-10.41-27.06-10.41,27.06h20.81Z" style="stroke-width:0px;"/><path d="m412.94,607.12h53.19c9.87,0,19,1.31,27.41,3.93,8.4,2.62,15.69,6.48,21.86,11.56,6.16,5.09,10.99,11.37,14.45,18.85,3.47,7.48,5.2,16.07,5.2,25.79,0,7.71-1.08,14.26-3.24,19.66-2.16,5.4-4.55,9.87-7.17,13.41-3.09,4.01-6.56,7.4-10.41,10.18l28.91,50.88h-57.82l-23.13-39.08v39.08h-49.26v-154.26Zm48.1,100.6c6.01,0,11.87-.61,17.58-1.85l21.97,37h7.17l-23.13-38.85c8.33-2.93,14.95-7.44,19.89-13.53,4.93-6.09,7.4-13.99,7.4-23.71,0-6.78-1.31-12.72-3.93-17.81-2.62-5.09-6.21-9.37-10.75-12.84-4.55-3.47-9.91-6.09-16.07-7.86-6.17-1.77-12.88-2.66-20.12-2.66h-24.98v117.25h6.01v-35.15h18.96Zm-18.96-5.55v-71h18.96c14.03,0,25.01,3.09,32.96,9.25,7.94,6.17,11.91,14.96,11.91,26.37s-3.97,20.16-11.91,26.25c-7.94,6.09-18.93,9.13-32.96,9.13h-18.96Zm20.12-19.2h2.54c5.86,0,10.83-1.31,14.92-3.93,4.08-2.62,6.13-7.01,6.13-13.18s-2.04-10.56-6.13-13.18c-4.09-2.62-9.06-3.93-14.92-3.93h-2.54v34.23Z" style="stroke-width:0px;"/><path d="m547.77,607.12h40.47l42.55,59.44v-59.44h48.34v154.26h-40.7l-42.32-59.21v59.21h-48.34v-154.26Zm27.52,135.76v-106.85l76.32,106.85h6.01v-117.25h-6.01v106.85l-76.32-106.85h-6.01v117.25h6.01Z" style="stroke-width:0px;"/><path d="m695.32,607.12h52.27v154.26h-52.27v-154.26Zm29.14,135.76v-117.25h-6.01v117.25h6.01Z" style="stroke-width:0px;"/><path d="m763.77,607.12h40.47l42.55,59.44v-59.44h48.34v154.26h-40.7l-42.32-59.21v59.21h-48.34v-154.26Zm27.52,135.76v-106.85l76.32,106.85h6.01v-117.25h-6.01v106.85l-76.32-106.85h-6.01v117.25h6.01Z" style="stroke-width:0px;"/><path d="m1009.61,659.62c-2.78-2.46-6.24-4.35-10.41-5.67-4.16-1.31-8.25-1.97-12.26-1.97-4.47,0-8.56.81-12.26,2.43-3.7,1.62-6.9,3.86-9.6,6.71-2.7,2.85-4.82,6.28-6.36,10.29-1.54,4.01-2.31,8.33-2.31,12.95s.85,8.94,2.54,12.95c1.7,4.01,4.01,7.44,6.94,10.29,2.93,2.85,6.36,5.09,10.29,6.71,3.93,1.62,8.13,2.43,12.6,2.43,5.24,0,10.02-1.12,14.34-3.35,4.31-2.23,8.01-5.28,11.1-9.13h-13.88v-32.38h59.44v51.34c-3.55,6.32-7.79,12.07-12.72,17.23-4.94,5.17-10.45,9.6-16.54,13.3-6.09,3.7-12.68,6.55-19.77,8.56-7.09,2-14.42,3.01-21.97,3.01-11.1,0-21.59-2.08-31.45-6.24-9.87-4.16-18.47-9.87-25.79-17.11-7.33-7.25-13.11-15.8-17.35-25.67-4.24-9.87-6.36-20.5-6.36-31.92s2-21.58,6.01-31.45c4.01-9.87,9.52-18.46,16.54-25.79,7.01-7.32,15.34-13.1,24.98-17.35,9.63-4.24,20-6.36,31.11-6.36,8.63,0,16.11.85,22.43,2.54,6.32,1.7,11.64,3.62,15.96,5.78,5.09,2.47,9.33,5.17,12.72,8.09l-27.98,39.78Zm2.31-29.83c-2.01-.92-4.24-1.69-6.71-2.31-2.16-.61-4.71-1.16-7.63-1.62-2.93-.46-6.17-.69-9.71-.69-8.17,0-15.81,1.47-22.9,4.39-7.09,2.93-13.26,6.98-18.5,12.14-5.24,5.17-9.37,11.37-12.37,18.62-3.01,7.25-4.51,15.26-4.51,24.05s1.54,16.81,4.62,24.05c3.08,7.25,7.32,13.45,12.72,18.62,5.39,5.17,11.68,9.21,18.85,12.14,7.17,2.93,14.84,4.39,23.01,4.39,10.64,0,20.27-2.5,28.91-7.52,8.63-5.01,15.65-11.68,21.05-20v-30.3h-24.52v5.55h18.5v23.13c-4.78,7.09-10.99,12.72-18.62,16.88s-16.07,6.24-25.32,6.24c-7.4,0-14.3-1.27-20.7-3.82-6.4-2.54-12.03-6.17-16.88-10.87-4.86-4.7-8.67-10.33-11.45-16.88-2.78-6.55-4.16-13.76-4.16-21.62s1.35-15.07,4.05-21.62c2.7-6.55,6.4-12.18,11.1-16.88,4.7-4.7,10.21-8.33,16.54-10.87,6.32-2.54,13.18-3.82,20.58-3.82,2.78,0,5.4.23,7.86.69,2.46.46,4.63.92,6.48,1.39,2.16.62,4.16,1.24,6.01,1.85l3.7-5.32Z" style="stroke-width:0px;"/><path d="m577.6,886.44c3.39,1.08,6.94,1.93,10.64,2.54,3.08.77,6.59,1.39,10.52,1.85,3.93.46,7.9.69,11.91.69,7.09,0,10.64-2.62,10.64-7.86,0-2-1.08-4.05-3.24-6.13-2.16-2.08-4.9-4.39-8.21-6.94-3.32-2.54-6.86-5.36-10.64-8.44-3.78-3.08-7.33-6.63-10.64-10.64-3.32-4.01-6.05-8.52-8.21-13.53-2.16-5.01-3.24-10.75-3.24-17.23,0-7.25,1.31-13.65,3.93-19.2,2.62-5.55,6.25-10.18,10.87-13.88,4.63-3.7,10.06-6.51,16.3-8.44,6.24-1.93,12.91-2.89,20-2.89,3.7,0,7.4.19,11.1.58,3.7.39,7.01.73,9.94,1.04,3.39.46,6.71.93,9.95,1.39v43.25c-1.24-.15-2.62-.31-4.16-.46-1.24-.15-2.62-.31-4.16-.46-1.54-.15-3.16-.23-4.86-.23-.93,0-2.08.04-3.47.12-1.39.08-2.7.27-3.93.58-1.24.31-2.31.85-3.24,1.62-.92.77-1.39,1.85-1.39,3.24,0,1.24,1.04,2.78,3.12,4.62,2.08,1.85,4.63,4.01,7.63,6.48,3.01,2.47,6.32,5.32,9.95,8.56,3.62,3.24,6.94,6.94,9.94,11.1,3.01,4.16,5.55,8.87,7.63,14.11,2.08,5.24,3.12,11.1,3.12,17.58s-1.08,13.15-3.24,19.08c-2.16,5.94-5.51,11.1-10.06,15.5-4.55,4.39-10.37,7.86-17.46,10.41-7.09,2.54-15.5,3.82-25.21,3.82-5.86,0-11.3-.27-16.3-.81-5.01-.54-9.45-1.2-13.3-1.97-4.47-.77-8.56-1.69-12.26-2.78v-46.25Zm19.43,27.75c2.16.46,4.47.85,6.94,1.16,2.16.31,4.43.58,6.82.81,2.39.23,4.82.35,7.29.35,4.31,0,8.52-.5,12.6-1.5,4.08-1,7.75-2.66,10.99-4.97,3.24-2.31,5.82-5.28,7.75-8.9,1.93-3.62,2.89-8.05,2.89-13.3,0-4.47-1.12-8.71-3.35-12.72-2.24-4.01-5.09-7.86-8.56-11.56-3.47-3.7-7.17-7.25-11.1-10.64-3.93-3.39-7.63-6.82-11.1-10.29-3.47-3.47-6.32-6.94-8.56-10.41-2.24-3.47-3.35-7.05-3.35-10.75,0-5.55,1.77-9.83,5.32-12.84,3.54-3.01,9.25-4.51,17.11-4.51,1.23,0,2.5.04,3.82.12,1.31.08,2.58.2,3.82.35,1.23.16,2.46.23,3.7.23v-6.01c-1.08,0-2.24-.08-3.47-.23-1.08-.15-2.28-.27-3.58-.35-1.31-.08-2.66-.12-4.05-.12-8.33,0-15.19,1.89-20.58,5.67-5.4,3.78-8.09,9.68-8.09,17.69,0,4.32,1.12,8.37,3.35,12.14,2.23,3.78,5.09,7.48,8.56,11.1,3.47,3.62,7.17,7.13,11.1,10.52,3.93,3.39,7.63,6.82,11.1,10.29,3.47,3.47,6.32,7.05,8.56,10.75,2.23,3.7,3.35,7.56,3.35,11.56,0,7.4-2.51,13.03-7.52,16.88-5.01,3.86-11.91,5.78-20.7,5.78-5.24,0-10.02-.38-14.34-1.16-2.31-.31-4.55-.69-6.71-1.16v6.01Z" style="stroke-width:0px;"/><path d="m685.84,780.05h52.27v154.26h-52.27v-154.26Zm29.14,135.76v-117.25h-6.01v117.25h6.01Z" style="stroke-width:0px;"/><path d="m852.58,832.55c-2.78-2.46-6.24-4.35-10.41-5.67-4.16-1.31-8.25-1.97-12.26-1.97-4.47,0-8.56.81-12.26,2.43-3.7,1.62-6.9,3.86-9.6,6.71-2.7,2.85-4.82,6.28-6.36,10.29-1.54,4.01-2.31,8.33-2.31,12.95s.85,8.94,2.54,12.95c1.7,4.01,4.01,7.44,6.94,10.29,2.93,2.85,6.36,5.09,10.29,6.71,3.93,1.62,8.13,2.43,12.6,2.43,5.24,0,10.02-1.12,14.34-3.35,4.31-2.23,8.01-5.28,11.1-9.13h-13.88v-32.38h59.44v51.34c-3.55,6.32-7.79,12.07-12.72,17.23-4.94,5.17-10.45,9.6-16.54,13.3-6.09,3.7-12.68,6.55-19.77,8.56-7.09,2-14.42,3.01-21.97,3.01-11.1,0-21.59-2.08-31.45-6.24-9.87-4.16-18.47-9.87-25.79-17.11-7.33-7.25-13.11-15.8-17.35-25.67-4.24-9.87-6.36-20.5-6.36-31.92s2-21.58,6.01-31.45c4.01-9.87,9.52-18.46,16.54-25.79,7.01-7.32,15.34-13.1,24.98-17.35,9.63-4.24,20-6.36,31.11-6.36,8.63,0,16.11.85,22.43,2.54,6.32,1.7,11.64,3.62,15.96,5.78,5.09,2.47,9.33,5.17,12.72,8.09l-27.98,39.78Zm2.31-29.83c-2.01-.92-4.24-1.69-6.71-2.31-2.16-.61-4.71-1.16-7.63-1.62-2.93-.46-6.17-.69-9.71-.69-8.17,0-15.81,1.47-22.9,4.39-7.09,2.93-13.26,6.98-18.5,12.14-5.24,5.17-9.37,11.37-12.37,18.62-3.01,7.25-4.51,15.26-4.51,24.05s1.54,16.81,4.62,24.05c3.08,7.25,7.32,13.45,12.72,18.62,5.39,5.17,11.68,9.21,18.85,12.14,7.17,2.93,14.84,4.39,23.01,4.39,10.64,0,20.27-2.5,28.91-7.52,8.63-5.01,15.65-11.68,21.05-20v-30.3h-24.52v5.55h18.5v23.13c-4.78,7.09-10.99,12.72-18.62,16.88s-16.07,6.24-25.32,6.24c-7.4,0-14.3-1.27-20.7-3.82-6.4-2.54-12.03-6.17-16.88-10.87-4.86-4.7-8.67-10.33-11.45-16.88-2.78-6.55-4.16-13.76-4.16-21.62s1.35-15.07,4.05-21.62c2.7-6.55,6.4-12.18,11.1-16.88,4.7-4.7,10.21-8.33,16.54-10.87,6.32-2.54,13.18-3.82,20.58-3.82,2.78,0,5.4.23,7.86.69,2.46.46,4.63.92,6.48,1.39,2.16.62,4.16,1.24,6.01,1.85l3.7-5.32Z" style="stroke-width:0px;"/><path d="m915.49,780.05h40.47l42.55,59.44v-59.44h48.34v154.26h-40.7l-42.32-59.21v59.21h-48.34v-154.26Zm27.52,135.76v-106.85l76.32,106.85h6.01v-117.25h-6.01v106.85l-76.32-106.85h-6.01v117.25h6.01Z" style="stroke-width:0px;"/><path d="m1058.87,886.44c3.39,1.08,6.94,1.93,10.64,2.54,3.08.77,6.59,1.39,10.52,1.85,3.93.46,7.9.69,11.91.69,7.09,0,10.64-2.62,10.64-7.86,0-2-1.08-4.05-3.24-6.13-2.16-2.08-4.9-4.39-8.21-6.94-3.32-2.54-6.86-5.36-10.64-8.44-3.78-3.08-7.33-6.63-10.64-10.64-3.32-4.01-6.05-8.52-8.21-13.53-2.16-5.01-3.24-10.75-3.24-17.23,0-7.25,1.31-13.65,3.93-19.2,2.62-5.55,6.25-10.18,10.87-13.88,4.63-3.7,10.06-6.51,16.3-8.44,6.24-1.93,12.91-2.89,20-2.89,3.7,0,7.4.19,11.1.58,3.7.39,7.01.73,9.94,1.04,3.39.46,6.71.93,9.95,1.39v43.25c-1.24-.15-2.62-.31-4.16-.46-1.24-.15-2.62-.31-4.16-.46-1.54-.15-3.16-.23-4.86-.23-.93,0-2.08.04-3.47.12-1.39.08-2.7.27-3.93.58-1.24.31-2.31.85-3.24,1.62-.92.77-1.39,1.85-1.39,3.24,0,1.24,1.04,2.78,3.12,4.62,2.08,1.85,4.63,4.01,7.63,6.48,3.01,2.47,6.32,5.32,9.95,8.56,3.62,3.24,6.94,6.94,9.94,11.1,3.01,4.16,5.55,8.87,7.63,14.11,2.08,5.24,3.12,11.1,3.12,17.58s-1.08,13.15-3.24,19.08c-2.16,5.94-5.51,11.1-10.06,15.5-4.55,4.39-10.37,7.86-17.46,10.41-7.09,2.54-15.5,3.82-25.21,3.82-5.86,0-11.3-.27-16.3-.81-5.01-.54-9.45-1.2-13.3-1.97-4.47-.77-8.56-1.69-12.26-2.78v-46.25Zm19.43,27.75c2.16.46,4.47.85,6.94,1.16,2.16.31,4.43.58,6.82.81,2.39.23,4.82.35,7.29.35,4.31,0,8.52-.5,12.6-1.5,4.08-1,7.75-2.66,10.99-4.97,3.24-2.31,5.82-5.28,7.75-8.9,1.93-3.62,2.89-8.05,2.89-13.3,0-4.47-1.12-8.71-3.35-12.72-2.24-4.01-5.09-7.86-8.56-11.56-3.47-3.7-7.17-7.25-11.1-10.64-3.93-3.39-7.63-6.82-11.1-10.29-3.47-3.47-6.32-6.94-8.56-10.41-2.24-3.47-3.35-7.05-3.35-10.75,0-5.55,1.77-9.83,5.32-12.84,3.54-3.01,9.25-4.51,17.11-4.51,1.23,0,2.5.04,3.82.12,1.31.08,2.58.2,3.82.35,1.23.16,2.46.23,3.7.23v-6.01c-1.08,0-2.24-.08-3.47-.23-1.08-.15-2.28-.27-3.58-.35-1.31-.08-2.66-.12-4.05-.12-8.33,0-15.19,1.89-20.58,5.67-5.4,3.78-8.09,9.68-8.09,17.69,0,4.32,1.12,8.37,3.35,12.14,2.23,3.78,5.09,7.48,8.56,11.1,3.47,3.62,7.17,7.13,11.1,10.52,3.93,3.39,7.63,6.82,11.1,10.29,3.47,3.47,6.32,7.05,8.56,10.75,2.23,3.7,3.35,7.56,3.35,11.56,0,7.4-2.51,13.03-7.52,16.88-5.01,3.86-11.91,5.78-20.7,5.78-5.24,0-10.02-.38-14.34-1.16-2.31-.31-4.55-.69-6.71-1.16v6.01Z" style="stroke-width:0px;"/></svg>