<?xml version="1.0" encoding="UTF-8"?><svg id="a" xmlns="http://www.w3.org/2000/svg" xmlns:xlink="http://www.w3.org/1999/xlink" viewBox="0 0 1536 1024"><defs><filter id="b" x="95.24" y="694.63" width="681.43" height="159.84" filterUnits="userSpaceOnUse"><feOffset dx="11.2" dy="11.2"/><feGaussianBlur result="c" stdDeviation="0"/><feFlood flood-color="#000" flood-opacity=".5"/><feComposite in2="c" operator="in"/><feComposite in="SourceGraphic"/></filter><filter id="d" x="949.66" y="709.69" width="508.3" height="143.96" filterUnits="userSpaceOnUse"><feOffset dx="11.2" dy="11.2"/><feGaussianBlur result="e" stdDeviation="0"/><feFlood flood-color="#000" flood-opacity=".5"/><feComposite in2="e" operator="in"/><feComposite in="SourceGraphic"/></filter><filter id="f" x="789.17" y="702.98" width="131.08" height="142.38" filterUnits="userSpaceOnUse"><feOffset dx="7.62" dy="7.62"/><feGaussianBlur result="g" stdDeviation="0"/><feFlood flood-color="#000" flood-opacity=".5"/><feComposite in2="g" operator="in"/><feComposite in="SourceGraphic"/></filter></defs><g style="filter:url(#b);"><path d="M95.24,837.27l27.45-140.19,44.76,101.34,46.37-101.34,24.66,140.19h-20.18l-12.58-78.71-38.6,84.71-37.5-84.79-14.02,78.8h-20.35Z" style="fill:#44bba4;"/><path d="M337.37,800.62h-58.95c.51,6.76,2.7,12.13,6.59,16.13,3.89,3.94,8.87,5.91,14.95,5.91,4.73,0,8.64-1.13,11.74-3.38,3.04-2.25,6.5-6.42,10.39-12.5l16.05,8.95c-2.48,4.22-5.1,7.84-7.85,10.85-2.76,3.01-5.71,5.49-8.87,7.43-3.15,1.94-6.56,3.36-10.22,4.27-3.66.9-7.63,1.35-11.91,1.35-12.28,0-22.13-3.94-29.56-11.82-7.43-7.94-11.15-18.47-11.15-31.59s3.6-23.53,10.81-31.59c7.26-7.94,16.89-11.91,28.88-11.91s21.68,3.86,28.71,11.57c6.98,7.66,10.47,18.27,10.47,31.84l-.08,4.48ZM317.86,785.08c-2.65-10.13-9.04-15.2-19.17-15.2-2.31,0-4.48.35-6.5,1.06-2.03.71-3.87,1.72-5.53,3.04-1.66,1.32-3.08,2.91-4.26,4.77-1.18,1.86-2.08,3.97-2.7,6.33h38.17Z" style="fill:#44bba4;"/><path d="M418.78,694.63h19.09v142.64h-19.09v-8.61c-7.49,7.32-15.96,10.98-25.42,10.98-11.26,0-20.61-4.11-28.04-12.33-7.38-8.39-11.06-18.86-11.06-31.42s3.69-22.52,11.06-30.74c7.32-8.28,16.52-12.41,27.62-12.41,9.63,0,18.24,3.94,25.84,11.82v-69.93ZM373.68,795.89c0,7.88,2.11,14.3,6.33,19.26,4.33,5.01,9.8,7.52,16.38,7.52,7.04,0,12.72-2.42,17.06-7.26,4.33-5.01,6.5-11.37,6.5-19.09s-2.17-14.08-6.5-19.09c-4.34-4.9-9.96-7.35-16.89-7.35-6.53,0-11.99,2.48-16.38,7.43-4.34,5.01-6.5,11.2-6.5,18.58Z" style="fill:#44bba4;"/><path d="M458.98,720.81c0-3.32,1.21-6.19,3.63-8.61,2.42-2.42,5.32-3.63,8.7-3.63s6.36,1.21,8.78,3.63c2.42,2.36,3.63,5.26,3.63,8.7s-1.21,6.36-3.63,8.78c-2.37,2.42-5.27,3.63-8.7,3.63s-6.36-1.21-8.78-3.63c-2.42-2.42-3.63-5.38-3.63-8.87ZM480.85,755.01v82.26h-19v-82.26h19Z" style="fill:#44bba4;"/><path d="M565.56,694.63h19.09v142.64h-19.09v-8.61c-7.49,7.32-15.96,10.98-25.42,10.98-11.26,0-20.61-4.11-28.04-12.33-7.38-8.39-11.06-18.86-11.06-31.42s3.69-22.52,11.06-30.74c7.32-8.28,16.52-12.41,27.62-12.41,9.63,0,18.24,3.94,25.84,11.82v-69.93ZM520.46,795.89c0,7.88,2.11,14.3,6.33,19.26,4.33,5.01,9.8,7.52,16.38,7.52,7.04,0,12.72-2.42,17.06-7.26,4.33-5.01,6.5-11.37,6.5-19.09s-2.17-14.08-6.5-19.09c-4.34-4.9-9.96-7.35-16.89-7.35-6.53,0-11.99,2.48-16.38,7.43-4.34,5.01-6.5,11.2-6.5,18.58Z" style="fill:#44bba4;"/><path d="M669.27,755.01h19.09v82.26h-19.09v-8.61c-7.83,7.32-16.24,10.98-25.25,10.98-11.37,0-20.78-4.11-28.21-12.33-7.38-8.39-11.06-18.86-11.06-31.42s3.69-22.6,11.06-30.83c7.38-8.22,16.61-12.33,27.7-12.33,9.57,0,18.16,3.94,25.76,11.82v-9.54ZM624.17,795.89c0,7.88,2.11,14.3,6.33,19.26,4.33,5.01,9.8,7.52,16.38,7.52,7.04,0,12.72-2.42,17.06-7.26,4.33-5.01,6.5-11.37,6.5-19.09s-2.17-14.08-6.5-19.09c-4.34-4.9-9.97-7.35-16.89-7.35-6.53,0-11.99,2.48-16.38,7.43-4.34,5.01-6.5,11.2-6.5,18.58Z" style="fill:#44bba4;"/><path d="M760.14,769.03l-15.71,8.36c-2.48-5.07-5.55-7.6-9.21-7.6-1.75,0-3.24.58-4.48,1.73-1.24,1.15-1.86,2.63-1.86,4.43,0,3.15,3.66,6.28,10.98,9.37,10.08,4.34,16.86,8.33,20.35,11.99,3.49,3.66,5.24,8.59,5.24,14.78,0,7.94-2.93,14.58-8.78,19.93-5.69,5.07-12.56,7.6-20.61,7.6-13.79,0-23.56-6.73-29.31-20.18l16.21-7.52c2.25,3.94,3.97,6.45,5.15,7.52,2.31,2.14,5.07,3.21,8.28,3.21,6.42,0,9.63-2.93,9.63-8.78,0-3.38-2.48-6.53-7.43-9.46-1.92-.96-3.83-1.89-5.74-2.79-1.91-.9-3.86-1.83-5.83-2.79-5.52-2.7-9.4-5.41-11.65-8.11-2.87-3.43-4.31-7.85-4.31-13.26,0-7.15,2.45-13.06,7.35-17.74,5.01-4.67,11.09-7.01,18.24-7.01,10.53,0,18.35,5.43,23.48,16.3Z" style="fill:#44bba4;"/></g><g style="filter:url(#d);"><path d="M1021.62,728.19h-52.28v31.33h50.76v18.5h-50.76v43.58h52.28v18.5h-71.96v-130.4h71.96v18.5Z" style="fill:#44bba4;"/><path d="M1069.33,795.58l-29.56-37.75h22.63l18.33,23.98,18.67-23.98h23.31l-30.4,37.75,35.22,44.51h-22.63l-24.15-30.74-24.74,30.74h-23.22l36.57-44.51Z" style="fill:#44bba4;"/><path d="M1198.04,757.83h19.09v82.26h-19.09v-8.61c-7.83,7.32-16.25,10.98-25.25,10.98-11.37,0-20.78-4.11-28.21-12.33-7.38-8.39-11.06-18.86-11.06-31.42s3.69-22.6,11.06-30.83c7.38-8.22,16.61-12.33,27.7-12.33,9.57,0,18.16,3.94,25.76,11.82v-9.54ZM1152.95,798.71c0,7.88,2.11,14.3,6.33,19.26,4.33,5.01,9.8,7.52,16.38,7.52,7.04,0,12.72-2.42,17.06-7.26,4.33-5.01,6.5-11.37,6.5-19.09s-2.17-14.08-6.5-19.09c-4.34-4.9-9.97-7.35-16.89-7.35-6.53,0-11.99,2.48-16.38,7.43-4.34,5.01-6.5,11.2-6.5,18.58Z" style="fill:#44bba4;"/><path d="M1260.71,775.57v64.52h-19v-64.52h-8.11v-17.74h8.11v-30.15h19v30.15h14.78v17.74h-14.78Z" style="fill:#44bba4;"/><path d="M1350.57,757.83h19.09v82.26h-19.09v-8.61c-7.83,7.32-16.25,10.98-25.25,10.98-11.37,0-20.78-4.11-28.21-12.33-7.38-8.39-11.06-18.86-11.06-31.42s3.69-22.6,11.06-30.83c7.38-8.22,16.61-12.33,27.7-12.33,9.57,0,18.16,3.94,25.76,11.82v-9.54ZM1305.47,798.71c0,7.88,2.11,14.3,6.33,19.26,4.33,5.01,9.8,7.52,16.38,7.52,7.04,0,12.72-2.42,17.06-7.26,4.33-5.01,6.5-11.37,6.5-19.09s-2.17-14.08-6.5-19.09c-4.34-4.9-9.97-7.35-16.89-7.35-6.53,0-11.99,2.48-16.38,7.43-4.34,5.01-6.5,11.2-6.5,18.58Z" style="fill:#44bba4;"/><path d="M1441.44,771.85l-15.71,8.36c-2.48-5.07-5.55-7.6-9.21-7.6-1.75,0-3.24.58-4.48,1.73-1.24,1.15-1.86,2.63-1.86,4.43,0,3.15,3.66,6.28,10.98,9.37,10.08,4.34,16.86,8.33,20.35,11.99,3.49,3.66,5.24,8.59,5.24,14.78,0,7.94-2.93,14.58-8.78,19.93-5.69,5.07-12.56,7.6-20.61,7.6-13.79,0-23.56-6.73-29.3-20.18l16.21-7.52c2.25,3.94,3.97,6.45,5.15,7.52,2.31,2.14,5.07,3.21,8.28,3.21,6.42,0,9.63-2.93,9.63-8.78,0-3.38-2.48-6.53-7.43-9.46-1.92-.96-3.83-1.89-5.74-2.79-1.92-.9-3.86-1.83-5.83-2.79-5.52-2.7-9.4-5.41-11.65-8.11-2.87-3.43-4.31-7.85-4.31-13.26,0-7.15,2.45-13.06,7.35-17.74,5.01-4.67,11.09-7.01,18.24-7.01,10.53,0,18.35,5.43,23.48,16.3Z" style="fill:#44bba4;"/></g><g style="filter:url(#f);"><path d="M822.46,733.7c1.95,0,3.57,1.79,4.86,5.36.64,1.29.96,5,.96,11.15.22,15.29.33,29.2.33,41.73v1.64c0,21.2-.47,33.16-1.41,35.87-.17,1.24-.8,2.83-1.89,4.79-1.16,1.71-2.41,2.57-3.74,2.57-2.6,0-4.96-3.41-7.08-10.22-3.24-9.76-6.88-21.75-10.94-35.94-.05,0-.88-2.74-2.48-8.22h-.07c0,4.1.32,18.86.96,44.3,0,3.62-.89,6.69-2.67,9.22-1.04,1.19-2.09,1.79-3.15,1.79-2.12,0-3.83-1.98-5.12-5.93-.54-1.76-.82-5.26-.82-10.5-.69-24.06-1.04-43.56-1.04-58.52,0-12.77.48-20.17,1.45-22.22.42-1.71,1.16-3.22,2.22-4.5.96-1.05,2-1.57,3.11-1.57,2.57,0,4.86,3.26,6.86,9.79,1.41,4,4.09,12.65,8.04,25.94,3.16,10.91,5.19,17.75,6.08,20.51h.04v-.07c0-12.05-.14-27.44-.41-46.16,0-2.24.49-4.57,1.48-7,1.26-2.52,2.73-3.79,4.41-3.79Z" style="fill:#f45b69;"/><path d="M852.75,734.13h.04c3.54,0,6.3,5.26,8.3,15.79,2.84,13.96,6.17,36.94,9.97,68.95.52,3.86.78,6.43.78,7.72,0,4.14-1.1,7.48-3.3,10-.92.76-1.77,1.14-2.56,1.14-2.03,0-3.71-1.93-5.04-5.79-.3-.71-.87-4.88-1.71-12.5-.47-3.81-.73-5.72-.78-5.72h-.07c-.87,0-5.09.38-12.68,1.14-.1.19-.77,4.76-2,13.72-.47,2.67-1.38,4.76-2.74,6.29-.94.91-1.87,1.36-2.78,1.36-1.95,0-3.57-1.74-4.86-5.22-.62-1.95-.93-3.98-.93-6.07,0-2.67,2.46-19.75,7.38-51.23,2.82-17.1,5.25-28.37,7.3-33.8,1.66-3.86,3.55-5.79,5.67-5.79ZM846.59,702.98h1.26c1.95,0,4.1,1.38,6.45,4.14.99,1.57,1.68,2.36,2.08,2.36l.45.07c.64,0,1.11-.45,1.41-1.36,1.21-2.24,2.53-3.36,3.97-3.36h.37c2.15,0,3.87,2.19,5.15,6.57.32,1.62.48,3.03.48,4.22v.71c0,4.38-1.47,8.43-4.41,12.15-2.08,2.33-4.25,3.5-6.53,3.5h-.67c-3.39,0-6.36-2.12-8.93-6.36l-.22-.07c-.17,0-.59.86-1.26,2.57-1.26,2.53-2.66,3.79-4.19,3.79h-.3c-2,0-3.67-2-5-6-.45-1.76-.67-3.41-.67-4.93v-.64c0-4.53,1.74-9.22,5.23-14.08,2.05-2.19,3.83-3.29,5.34-3.29ZM849.04,791.79c.02.14.04.24.04.29,3.53-.43,5.68-.64,6.45-.64.02-.09.04-.17.04-.21-1.11-8.05-2.1-14.77-2.97-20.15h-.04c-.1,0-1.01,5.29-2.74,15.86-.42,2.91-.68,4.53-.78,4.86Z" style="fill:#f45b69;"/><path d="M893.01,733.85h.67c3.51,0,6.87,2.69,10.08,8.07,1.93,3.72,3.18,6.65,3.74,8.79,3.41,11.05,5.12,23.77,5.12,38.16,0,15.67-2.05,28.3-6.15,37.87-3.46,7.34-7.58,11-12.35,11h-.33c-4.25,0-8.21-2.76-11.86-8.29-2.15-3.95-3.29-6.33-3.41-7.15-1.31-3.48-2.3-6.86-2.97-10.15-1.58-7.86-2.37-16.1-2.37-24.72,0-15.34,2.08-28.53,6.23-39.59,1.38-3.24,2.69-5.74,3.93-7.5,3.11-4.33,6.34-6.5,9.68-6.5ZM884.82,787.44c0,9.05,1.08,16.43,3.23,22.15,1.58,3.81,3.58,5.72,6.01,5.72,3.34,0,5.54-5.98,6.6-17.94.22-3.05.33-5.88.33-8.5,0-10.24-1.14-19.15-3.41-26.72-1.33-3.91-2.78-5.86-4.34-5.86-3.02,0-5.46,5.36-7.34,16.08-.72,4.96-1.08,9.98-1.08,15.08Z" style="fill:#f45b69;"/></g></svg>