<?xml version="1.0" encoding="UTF-8"?><svg id="a" xmlns="http://www.w3.org/2000/svg" viewBox="0 0 1536 1024"><path d="m350.9,819.39c0,5.05-.79,9.68-2.36,13.9-1.58,4.23-3.78,8.04-6.62,11.44-2.84,3.4-6.24,6.37-10.21,8.89-3.97,2.52-8.29,4.67-12.96,6.43l32.54,49.75h-35.18l-27.43-44.45h-7.38l-7.76,44.45h-30.27l22.13-125.98h43.89c6.43,0,12.23.88,17.4,2.65,5.17,1.77,9.55,4.19,13.15,7.28,3.59,3.09,6.34,6.81,8.23,11.16,1.89,4.35,2.84,9.17,2.84,14.47Zm-58.45,22.7c3.78,0,7.41-.35,10.88-1.05,3.47-.7,6.49-1.87,9.08-3.52,2.58-1.65,4.66-3.8,6.24-6.47,1.58-2.66,2.37-5.96,2.37-9.89,0-5.2-1.55-8.87-4.63-11.03-3.09-2.15-6.97-3.23-11.63-3.23h-12.86l-6.24,35.18h6.81Z" style="fill:#3a7ca5; stroke-width:0px;"/><path d="m453.24,783.83h30.27l-14,80.02c-2.65,14.88-8.92,26.64-18.82,35.28-9.9,8.64-23.24,12.96-40.01,12.96-6.94,0-13.17-1.04-18.69-3.12-5.52-2.08-10.23-4.95-14.11-8.61-3.88-3.66-6.89-7.97-9.02-12.96-2.13-4.98-3.2-10.37-3.2-16.17,0-1.76.06-3.4.19-4.92s.31-2.77.56-3.78l13.72-78.69h30.17l-14.19,80.96c-.38,2.15-.57,4.1-.57,5.86,0,5.55,1.54,9.87,4.63,12.96,3.09,3.09,7.79,4.63,14.09,4.63,6.81,0,12.3-2.05,16.46-6.15,4.16-4.1,6.93-9.87,8.32-17.31l14.19-80.96Z" style="fill:#3a7ca5; stroke-width:0px;"/><path d="m567.31,909.82l-38.21-76.99-13.62,76.99h-29.89l22.13-125.98h29.89l38.4,76.99,13.43-76.99h29.7l-22.13,125.98h-29.7Z" style="fill:#3a7ca5; stroke-width:0px;"/><path d="m703.32,909.82l-38.21-76.99-13.62,76.99h-29.89l22.13-125.98h29.89l38.4,76.99,13.43-76.99h29.7l-22.13,125.98h-29.7Z" style="fill:#3a7ca5; stroke-width:0px;"/><path d="m779.74,783.83h75.67l-4.16,23.65h-45.4l-4.73,26.67h43.13l-4.16,23.65h-42.94l-5.11,28.38h45.97l-4.16,23.65h-76.23l22.13-125.98Z" style="fill:#3a7ca5; stroke-width:0px;"/><path d="m961.9,819.39c0,5.05-.79,9.68-2.36,13.9-1.58,4.23-3.78,8.04-6.62,11.44-2.84,3.4-6.24,6.37-10.21,8.89-3.97,2.52-8.29,4.67-12.96,6.43l32.54,49.75h-35.18l-27.43-44.45h-7.38l-7.76,44.45h-30.27l22.13-125.98h43.89c6.43,0,12.23.88,17.4,2.65,5.17,1.77,9.55,4.19,13.15,7.28,3.59,3.09,6.34,6.81,8.23,11.16,1.89,4.35,2.84,9.17,2.84,14.47Zm-58.45,22.7c3.78,0,7.41-.35,10.88-1.05,3.47-.7,6.49-1.87,9.08-3.52,2.58-1.65,4.66-3.8,6.24-6.47,1.58-2.66,2.37-5.96,2.37-9.89,0-5.2-1.55-8.87-4.63-11.03-3.09-2.15-6.97-3.23-11.63-3.23h-12.86l-6.24,35.18h6.81Z" style="fill:#3a7ca5; stroke-width:0px;"/><path d="m973.25,872.36l4.16-23.65h51.45l-4.16,23.65h-51.45Z" style="fill:#3a7ca5; stroke-width:0px;"/><path d="m1132.53,783.83h30.27l-14,80.02c-2.65,14.88-8.92,26.64-18.82,35.28-9.9,8.64-23.24,12.96-40.01,12.96-6.94,0-13.17-1.04-18.69-3.12-5.52-2.08-10.23-4.95-14.11-8.61-3.88-3.66-6.89-7.97-9.02-12.96-2.13-4.98-3.2-10.37-3.2-16.17,0-1.76.06-3.4.19-4.92s.31-2.77.56-3.78l13.72-78.69h30.17l-14.19,80.96c-.38,2.15-.57,4.1-.57,5.86,0,5.55,1.54,9.87,4.63,12.96,3.09,3.09,7.79,4.63,14.09,4.63,6.81,0,12.3-2.05,16.46-6.15,4.16-4.1,6.93-9.87,8.32-17.31l14.19-80.96Z" style="fill:#3a7ca5; stroke-width:0px;"/><path d="m1270.43,819.58c0,7.95-1.58,14.82-4.73,20.62-3.15,5.8-7.44,10.66-12.86,14.57-5.42,3.91-11.67,6.81-18.73,8.7-7.06,1.89-14.44,2.84-22.13,2.84h-9.08l-7.76,43.51h-30.27l22.13-125.98h41.62c6.56,0,12.45.88,17.69,2.65,5.23,1.77,9.61,4.23,13.15,7.38,3.53,3.15,6.24,6.94,8.13,11.35,1.89,4.42,2.84,9.21,2.84,14.38Zm-57.32,23.65c3.53,0,6.93-.38,10.21-1.15,3.28-.76,6.18-1.97,8.7-3.63,2.52-1.66,4.51-3.85,5.96-6.59,1.45-2.74,2.17-6.02,2.17-9.85,0-4.59-1.42-8.25-4.26-10.99s-6.65-4.11-11.44-4.11h-11.16l-6.43,36.32h6.24Z" style="fill:#3a7ca5; stroke-width:0px;"/><path d="m376.8,819.39c0,5.05-.79,9.68-2.36,13.9-1.58,4.23-3.78,8.04-6.62,11.44-2.84,3.4-6.24,6.37-10.21,8.89-3.97,2.52-8.29,4.67-12.96,6.43l32.54,49.75h-35.18l-27.43-44.45h-7.38l-7.76,44.45h-30.27l22.13-125.98h43.89c6.43,0,12.23.88,17.4,2.65,5.17,1.77,9.55,4.19,13.15,7.28,3.59,3.09,6.34,6.81,8.23,11.16,1.89,4.35,2.84,9.17,2.84,14.47Zm-58.45,22.7c3.78,0,7.41-.35,10.88-1.05,3.47-.7,6.49-1.87,9.08-3.52,2.58-1.65,4.66-3.8,6.24-6.47,1.58-2.66,2.37-5.96,2.37-9.89,0-5.2-1.55-8.87-4.63-11.03-3.09-2.15-6.97-3.23-11.63-3.23h-12.86l-6.24,35.18h6.81Z" style="fill:#fff; stroke-width:0px;"/><path d="m479.14,783.83h30.27l-14,80.02c-2.65,14.88-8.92,26.64-18.82,35.28-9.9,8.64-23.24,12.96-40.01,12.96-6.94,0-13.17-1.04-18.69-3.12-5.52-2.08-10.23-4.95-14.11-8.61-3.88-3.66-6.89-7.97-9.02-12.96-2.13-4.98-3.2-10.37-3.2-16.17,0-1.76.06-3.4.19-4.92s.31-2.77.56-3.78l13.72-78.69h30.17l-14.19,80.96c-.38,2.15-.57,4.1-.57,5.86,0,5.55,1.54,9.87,4.63,12.96,3.09,3.09,7.79,4.63,14.09,4.63,6.81,0,12.3-2.05,16.46-6.15,4.16-4.1,6.93-9.87,8.32-17.31l14.19-80.96Z" style="fill:#fff; stroke-width:0px;"/><path d="m593.21,909.82l-38.21-76.99-13.62,76.99h-29.89l22.13-125.98h29.89l38.4,76.99,13.43-76.99h29.7l-22.13,125.98h-29.7Z" style="fill:#fff; stroke-width:0px;"/><path d="m729.22,909.82l-38.21-76.99-13.62,76.99h-29.89l22.13-125.98h29.89l38.4,76.99,13.43-76.99h29.7l-22.13,125.98h-29.7Z" style="fill:#fff; stroke-width:0px;"/><path d="m805.64,783.83h75.67l-4.16,23.65h-45.4l-4.73,26.67h43.13l-4.16,23.65h-42.94l-5.11,28.38h45.97l-4.16,23.65h-76.23l22.13-125.98Z" style="fill:#fff; stroke-width:0px;"/><path d="m987.8,819.39c0,5.05-.79,9.68-2.36,13.9-1.58,4.23-3.78,8.04-6.62,11.44-2.84,3.4-6.24,6.37-10.21,8.89-3.97,2.52-8.29,4.67-12.96,6.43l32.54,49.75h-35.18l-27.43-44.45h-7.38l-7.76,44.45h-30.27l22.13-125.98h43.89c6.43,0,12.23.88,17.4,2.65,5.17,1.77,9.55,4.19,13.15,7.28,3.59,3.09,6.34,6.81,8.23,11.16,1.89,4.35,2.84,9.17,2.84,14.47Zm-58.45,22.7c3.78,0,7.41-.35,10.88-1.05,3.47-.7,6.49-1.87,9.08-3.52,2.58-1.65,4.66-3.8,6.24-6.47,1.58-2.66,2.37-5.96,2.37-9.89,0-5.2-1.55-8.87-4.63-11.03-3.09-2.15-6.97-3.23-11.63-3.23h-12.86l-6.24,35.18h6.81Z" style="fill:#fff; stroke-width:0px;"/><path d="m999.15,872.36l4.16-23.65h51.45l-4.16,23.65h-51.45Z" style="fill:#fff; stroke-width:0px;"/><path d="m1158.43,783.83h30.27l-14,80.02c-2.65,14.88-8.92,26.64-18.82,35.28-9.9,8.64-23.24,12.96-40.01,12.96-6.94,0-13.17-1.04-18.69-3.12-5.52-2.08-10.23-4.95-14.11-8.61-3.88-3.66-6.89-7.97-9.02-12.96-2.13-4.98-3.2-10.37-3.2-16.17,0-1.76.06-3.4.19-4.92s.31-2.77.56-3.78l13.72-78.69h30.17l-14.19,80.96c-.38,2.15-.57,4.1-.57,5.86,0,5.55,1.54,9.87,4.63,12.96,3.09,3.09,7.79,4.63,14.09,4.63,6.81,0,12.3-2.05,16.46-6.15,4.16-4.1,6.93-9.87,8.32-17.31l14.19-80.96Z" style="fill:#fff; stroke-width:0px;"/><path d="m1296.33,819.58c0,7.95-1.58,14.82-4.73,20.62-3.15,5.8-7.44,10.66-12.86,14.57-5.42,3.91-11.67,6.81-18.73,8.7-7.06,1.89-14.44,2.84-22.13,2.84h-9.08l-7.76,43.51h-30.27l22.13-125.98h41.62c6.56,0,12.45.88,17.69,2.65,5.23,1.77,9.61,4.23,13.15,7.38,3.53,3.15,6.24,6.94,8.13,11.35,1.89,4.42,2.84,9.21,2.84,14.38Zm-57.32,23.65c3.53,0,6.93-.38,10.21-1.15,3.28-.76,6.18-1.97,8.7-3.63,2.52-1.66,4.51-3.85,5.96-6.59,1.45-2.74,2.17-6.02,2.17-9.85,0-4.59-1.42-8.25-4.26-10.99s-6.65-4.11-11.44-4.11h-11.16l-6.43,36.32h6.24Z" style="fill:#fff; stroke-width:0px;"/></svg>