<?xml version="1.0" encoding="UTF-8"?><svg id="a" xmlns="http://www.w3.org/2000/svg" xmlns:xlink="http://www.w3.org/1999/xlink" viewBox="0 0 1536 1024"><defs><filter id="b" filterUnits="userSpaceOnUse"><feOffset dx="7.8" dy="7.8"/><feGaussianBlur result="c" stdDeviation="0"/><feFlood flood-color="#000" flood-opacity="1"/><feComposite in2="c" operator="in"/><feComposite in="SourceGraphic"/></filter><filter id="d" filterUnits="userSpaceOnUse"><feOffset dx="7.8" dy="7.8"/><feGaussianBlur result="e" stdDeviation="0"/><feFlood flood-color="#000" flood-opacity="1"/><feComposite in2="e" operator="in"/><feComposite in="SourceGraphic"/></filter></defs><g style="filter:url(#b);"><path d="m389.24,233.04l43.47-98.75,1.81-4.06c14.34-32.42,21.51-51.58,21.51-57.51,0-.2-.05-.5-.15-.9-.1-.4-.15-.7-.15-.9,5.92.3,11.26.53,16.02.68,4.76.15,9,.23,12.71.23,3.51,0,7.57-.08,12.19-.23,4.62-.15,9.68-.38,15.21-.68v10.39h-1.81c-8.73,0-14.73,1.5-17.99,4.52-3.26,3.01-4.89,8.38-4.89,16.11,0,3.01.2,9.74.6,20.17.4,10.44.9,21.73,1.5,33.87l2.56,42.3.15,4.06c2.21,37.54,3.91,58.76,5.12,63.68.6,2.91,2.46,5.17,5.57,6.77,3.11,1.61,7.17,2.41,12.19,2.41h3.76v10.54c-7.93-.4-15.3-.7-22.11-.9-6.81-.2-12.46-.3-16.95-.3-5.29,0-11.24.1-17.85.3-6.61.2-13.68.5-21.21.9v-10.84c.9,0,2.06.05,3.46.15,1.4.1,2.41.15,3.01.15,7.63,0,12.92-1.35,15.88-4.06,2.96-2.71,4.44-7.63,4.44-14.75,0-3.31-.05-6.57-.15-9.79-.1-3.21-.25-6.52-.45-9.94l-5.87-129.46-61.72,141.96c-.1.2-.3.65-.6,1.35-4.82,9.94-8.38,20.53-10.69,31.76h-9.94c-1.41-6.22-4.92-15.75-10.54-28.6l-.6-1.35-60.67-137.44c-.6,10.74-1.46,25.49-2.56,44.26-2.81,46.57-4.22,75.72-4.22,87.46v1.51c0,12.75,1.43,20.45,4.29,23.11,2.86,2.66,8.71,3.99,17.54,3.99h3.16v10.54c-6.53-.4-12.77-.7-18.74-.9-5.97-.2-11.77-.3-17.39-.3-4.01,0-9.01.1-14.98.3-5.97.2-12.37.5-19.19.9v-10.54h4.22c5.72,0,9.98-.7,12.8-2.11,2.81-1.4,5.02-3.86,6.62-7.38,1.91-4.11,3.86-20.78,5.87-49.98.5-8.03.95-14.4,1.36-19.12l2.71-36.43v-.45c2.71-36.03,4.07-56.5,4.07-61.42,0-6.32-1.53-10.74-4.59-13.25-3.06-2.51-8.86-3.76-17.39-3.76h-2.41v-10.39c.8,0,2.11.05,3.91.15,11.64.7,19.77,1.05,24.39,1.05,3.51,0,10.18-.3,20.02-.9,3.11-.2,5.47-.3,7.08-.3v.9c0,8.93,16.99,51.08,50.98,126.45l15.64,34.77Z" style="fill:#f45b69; stroke-width:0px;"/><path d="m653.21,65.94c15.25,0,28.88,2.18,40.87,6.55,11.99,4.37,22.86,11.12,32.59,20.25,11.64,11.04,20.55,23.84,26.72,38.39,6.17,14.55,9.26,30.01,9.26,46.37s-3.26,32.42-9.79,47.27c-6.53,14.85-15.81,27.65-27.85,38.39-9.63,8.63-20.85,15.38-33.65,20.25-12.8,4.87-25.62,7.3-38.46,7.3-16.06,0-30.84-2.96-44.33-8.88-13.5-5.92-25.42-14.7-35.75-26.34-9.43-10.64-16.63-22.58-21.6-35.83-4.97-13.25-7.45-27.2-7.45-41.85,0-15.86,2.98-30.83,8.96-44.94,5.97-14.1,14.63-26.47,25.97-37.11,10.24-9.63,21.78-17.01,34.62-22.13,12.85-5.12,26.14-7.68,39.89-7.68Zm76.17,116.82c0-29.21-7.53-53.16-22.58-71.88-15.05-18.72-34.02-28.08-56.9-28.08s-39.62,8.03-52.92,24.09c-13.3,16.06-19.95,37.54-19.95,64.43,0,29.91,7.55,54.45,22.66,73.61,15.1,19.17,34,28.75,56.68,28.75s39.52-8.25,52.92-24.76c13.4-16.51,20.1-38.56,20.1-66.16Z" style="fill:#f45b69; stroke-width:0px;"/><path d="m767.92,70.91c7.53.4,14.65.7,21.38.9,6.72.2,12.65.3,17.76.3,6.42,0,12.97-.1,19.65-.3,6.67-.2,13.52-.5,20.55-.9l-.15,9.48c-8.43.7-14.03,1.81-16.79,3.31-2.76,1.51-4.14,4.12-4.14,7.83,0,2.81.53,6.35,1.58,10.61,1.05,4.27,2.94,10.16,5.65,17.69l45.31,126.75c24.18-60.72,39.42-100.08,45.69-118.1,6.27-18.01,9.41-29.83,9.41-35.45,0-4.62-1.23-7.78-3.69-9.48-2.46-1.71-8.11-2.76-16.94-3.16v-9.48c6.02.4,11.97.7,17.84.9,5.87.2,11.62.3,17.24.3,4.82,0,10.18-.1,16.11-.3,5.92-.2,12.09-.5,18.52-.9v9.48h-2.26c-11.04,0-20.42,9.74-28.15,29.21-1.71,4.42-3.11,7.83-4.21,10.24-28.3,67.95-46.52,112.15-54.65,132.63s-12.4,32.37-12.8,35.68h-18.52c0-2.41-4.67-17.41-14-45.01-9.33-27.6-20.62-58.86-33.87-93.79-.9-2.51-2.21-6.07-3.91-10.69-14.55-39.04-27.4-58.56-38.54-58.56-1,0-1.78.03-2.33.08-.55.05-1.13.13-1.73.23v-9.48Z" style="fill:#f45b69; stroke-width:0px;"/><path d="m998.25,70.91c7.02.4,14,.7,20.92.9,6.92.2,13.7.3,20.32.3,5.62,0,11.89-.1,18.82-.3,6.92-.2,14.25-.5,21.98-.9v10.24h-2.56c-6.53,0-11.42.75-14.68,2.26-3.26,1.51-5.55,4.02-6.85,7.53-.8,2.31-1.38,6.05-1.73,11.22-.35,5.17-.53,13.58-.53,25.23v105.01c0,11.85.28,20.19.83,25.01.55,4.82,1.43,8.39,2.63,10.7,1.3,2.51,3.64,4.32,7,5.42,3.36,1.11,8.1,1.66,14.23,1.66h3.16v10.54c-8.63-.4-16.61-.7-23.94-.9-7.33-.2-13.45-.3-18.37-.3-5.82,0-12.4.1-19.72.3-7.33.2-15,.5-23.03.9v-10.54h3.01c6.22,0,10.99-.55,14.3-1.66,3.31-1.11,5.62-2.91,6.92-5.42,1.4-2.71,2.38-7.16,2.94-13.33.55-6.18.83-17.35.83-33.52v-82.71c0-15.77-.2-26.99-.6-33.67-.4-6.68-1.05-11.32-1.96-13.94-1.2-3.51-3.39-6.03-6.55-7.53-3.16-1.5-8.05-2.26-14.68-2.26h-2.71v-10.24Z" style="fill:#f45b69; stroke-width:0px;"/><path d="m1106.34,70.91c17.56.6,33.27,1.05,47.12,1.36,13.85.3,25.79.45,35.83.45,11.14,0,22.4-.15,33.8-.45,11.39-.3,22.96-.75,34.7-1.36.1,7.53.4,15.23.9,23.11.5,7.88,1.1,15.78,1.81,23.71l-10.09.9c-.8-12.04-4.52-20.2-11.14-24.46-6.62-4.26-20.92-6.4-42.9-6.4-5.62,0-15.91.15-30.86.45-3.01.1-5.22.15-6.62.15-.2,12.04-.5,26.8-.9,44.26-.4,17.46-.65,28.8-.75,34.02h4.67c5.92,0,13.32.08,22.2.23s14.83.23,17.84.23c14.55,0,24.16-1.35,28.83-4.06s7.2-7.73,7.6-15.05l9.48.9c-.7,6.22-1.23,11.99-1.58,17.31-.35,5.32-.53,10.24-.53,14.75,0,2.61.25,8.23.75,16.86.2,3.11.35,5.47.45,7.08l-9.79.3v-1.2c0-8.53-2.48-14.3-7.45-17.31s-16.59-4.52-34.85-4.52h-37.63c0,4.92-.05,11.72-.15,20.4-.1,8.68-.15,14.93-.15,18.74,0,6.62.05,13.53.15,20.7.1,7.18.3,15.58.6,25.22,5.02.6,10.71,1.05,17.09,1.36,6.37.3,13.37.45,21,.45,25.19,0,41.78-2.43,49.75-7.3,7.98-4.87,14.32-14.23,19.04-28.08l10.84,3.61c-3.01,8.33-5.67,16.51-7.98,24.54-2.31,8.03-4.32,16.01-6.02,23.94-15.76-.6-30.41-1.05-43.96-1.35-13.55-.3-25.79-.45-36.73-.45-14.96,0-39.04.55-72.26,1.66l-5.42.15v-9.79c.7.1,1.38.18,2.03.23.65.05,1.63.08,2.94.08,13.35,0,20.12-18.77,20.32-56.3.1-9.43.2-16.81.3-22.13l.6-41.1c.1-8.83.17-17.41.23-25.74.05-8.33.08-17.36.08-27.1,0-8.63-1.61-14.6-4.82-17.91-3.21-3.31-8.93-4.97-17.16-4.97h-1.2v-10.09Z" style="fill:#f45b69; stroke-width:0px;"/></g><g style="filter:url(#d);"><path d="m343.84,782.01c3.99.34,7.87.59,11.64.76,3.77.17,7.49.25,11.13.25,2.71,0,5.9-.08,9.54-.25,3.65-.17,7.59-.42,11.83-.76,1.1,2.8,2.63,5.68,4.58,8.65,1.95,2.97,4.41,6.24,7.38,9.8l104.97,124.19c-.25-12.89-.51-29.99-.76-51.28-.68-44.7-1.44-68.75-2.29-72.15-1.02-3.9-2.82-6.62-5.41-8.14-2.59-1.53-6.81-2.29-12.66-2.29h-3.94v-8.78c1.02,0,2.54.04,4.58.13,12.04.59,20.53.89,25.45.89s13.74-.3,26.21-.89c1.78-.08,3.14-.13,4.07-.13l-.13,8.78c-.51-.08-1.06-.15-1.65-.19-.59-.04-1.4-.06-2.42-.06-11.37,0-17.14,15.82-17.3,47.46-.09,7.97-.13,14.21-.13,18.7l-.51,33.85c-.17,5.01-.28,10.16-.32,15.46-.04,5.3-.06,12.58-.06,21.82,0,10.26.13,18.26.38,23.99.25,5.73.68,10.33,1.27,13.81h-14.12c-1.44-3.39-6.57-10.18-15.4-20.36l-1.27-1.53-109.17-128.39v2.93c.51,79.4,1.36,121.39,2.54,125.97,1.02,3.9,2.82,6.62,5.41,8.14,2.59,1.53,6.72,2.29,12.41,2.29h3.82v8.91c-1.27-.08-3.14-.17-5.6-.25-11.88-.51-19.98-.76-24.3-.76s-8.76.08-13.81.25c-5.05.17-10.37.43-15.97.76v-8.78c.51,0,1.08.02,1.72.06.64.04,1.46.06,2.48.06,11.37,0,17.13-15.73,17.31-47.21.08-7.97.13-14.21.13-18.71l.64-33.85c.08-7.29.15-14.4.19-21.31.04-6.91.06-14.82.06-23.73,0-7.29-1.4-12.34-4.2-15.14-2.8-2.8-7.76-4.2-14.89-4.2h-3.44v-8.78Z" style="fill:#f2e863; stroke-width:0px;"/><path d="m556.33,782.01c5.94.34,11.83.59,17.69.76,5.85.17,11.58.25,17.18.25,4.75,0,10.05-.08,15.91-.25,5.85-.17,12.04-.42,18.58-.76v8.65h-2.16c-5.51,0-9.65.64-12.41,1.91-2.76,1.27-4.69,3.4-5.79,6.37-.68,1.95-1.17,5.12-1.46,9.49-.3,4.37-.45,11.48-.45,21.33v88.76c0,10.02.23,17.06.7,21.14.47,4.08,1.21,7.09,2.23,9.04,1.1,2.12,3.07,3.65,5.92,4.58,2.84.93,6.85,1.4,12.02,1.4h2.67v8.91c-7.3-.34-14.04-.59-20.23-.76-6.19-.17-11.37-.25-15.52-.25-4.92,0-10.48.08-16.67.25-6.19.17-12.68.43-19.47.76v-8.91h2.54c5.26,0,9.29-.46,12.09-1.4,2.8-.93,4.75-2.46,5.85-4.58,1.19-2.29,2.01-6.05,2.48-11.27.46-5.22.7-14.66.7-28.33v-69.91c0-13.33-.17-22.81-.51-28.46-.34-5.64-.89-9.57-1.65-11.78-1.02-2.97-2.86-5.09-5.54-6.37-2.67-1.27-6.81-1.91-12.41-1.91h-2.29v-8.65Z" style="fill:#f2e863; stroke-width:0px;"/><path d="m804.33,787.99c.17,6.28.59,12.66,1.27,19.15.68,6.49,1.65,13.13,2.93,19.91l-9.67,2.04c-2.38-12.04-8.06-20.95-17.05-26.72-8.99-5.77-21.72-8.65-38.17-8.65-22.23,0-39.47,6.53-51.72,19.59-12.26,13.06-18.39,31.56-18.39,55.48,0,25.7,7,46.23,21,61.58,14,15.35,32.53,23.03,55.6,23.03,4.83,0,9.71-.49,14.63-1.46,4.92-.97,10.14-2.48,15.65-4.52.25-6.53.45-12.09.57-16.67.13-4.58.19-8.31.19-11.2,0-14.51-1.61-23.22-4.83-26.15-3.23-2.93-10.31-4.39-21.25-4.39h-1.78v-8.65c7.21.34,13.89.59,20.04.76,6.15.17,11.34.25,15.59.25,6.19,0,11.98-.08,17.37-.25,5.39-.17,10.54-.42,15.46-.76v8.65c-7.13,0-11.77,1.38-13.93,4.14-2.16,2.76-3.25,11.3-3.25,25.64v13.23c0,6.53.08,11.6.25,15.21.17,3.61.42,7.06.76,10.37-2.8.59-7,1.53-12.6,2.8-21.97,4.92-38.6,7.38-49.88,7.38-29.44,0-53-8.57-70.68-25.7-17.69-17.13-26.53-39.87-26.53-68.2s9.52-51.38,28.57-69.16c19.04-17.77,43.75-26.66,74.12-26.66,9.16,0,18.39.83,27.67,2.48,9.29,1.65,18.64,4.14,28.06,7.44Z" style="fill:#f2e863; stroke-width:0px;"/><path d="m838.56,782.01c6.02.34,11.79.59,17.3.76,5.51.17,10.52.25,15.01.25,5.17,0,10.48-.08,15.9-.25,5.43-.17,10.99-.42,16.67-.76v8.91h-3.44c-6.96,0-11.64,1.84-14.06,5.53-2.42,3.68-3.63,13.49-3.63,29.4v37.47c5.51.17,11.34.3,17.5.38,6.15.08,14.74.13,25.77.13s21.1-.04,29.46-.13c8.35-.08,16.86-.21,25.51-.38v-35.44c0-16.85-1.21-27.22-3.63-31.12-2.42-3.89-7.11-5.84-14.06-5.84h-3.44v-8.91c5.68.34,11.26.59,16.73.76,5.47.17,10.84.25,16.1.25,4.5,0,9.46-.08,14.89-.25,5.43-.17,11.15-.42,17.18-.76v8.91c-.42,0-1.02-.04-1.78-.13-.76-.08-1.32-.13-1.65-.13-6.53,0-10.99,2.06-13.36,6.17-2.38,4.11-3.56,12.9-3.56,26.38,0,2.54.04,7.38.13,14.5.08,7.12.13,12.97.13,17.54v33.82c0,4.58-.04,10.45-.13,17.61-.09,7.16-.13,12.06-.13,14.68,0,13.9,1.19,22.97,3.56,27.21,2.37,4.24,6.83,6.36,13.36,6.36,1.19,0,2.1-.02,2.74-.06.64-.04,1.21-.06,1.72-.06v8.78c-6.7-.34-12.92-.59-18.64-.76-5.72-.17-10.54-.25-14.44-.25-4.58,0-9.73.08-15.46.25-5.73.17-11.86.43-18.39.76v-8.91c.51,0,1.27.04,2.29.13,1.02.08,1.74.13,2.16.13,6.95,0,11.64-1.91,14.06-5.73,2.42-3.82,3.63-13.02,3.63-27.61v-43.26h-1.65c-21.8-.34-37.75-.51-47.84-.51-7.63,0-14.93.09-21.89.25h-1.53c-3.65,0-7.59.02-11.83.06-4.24.04-8.74.11-13.49.19v40.46c0,16.29,1.23,26.38,3.69,30.28,2.46,3.9,7.21,5.85,14.25,5.85.42,0,1.14-.04,2.16-.13,1.02-.08,1.78-.13,2.29-.13v8.91c-6.53-.34-12.66-.59-18.39-.76-5.73-.17-10.88-.25-15.46-.25-3.9,0-8.7.08-14.38.25-5.68.17-11.92.43-18.7.76v-8.78c.51,0,1.08.02,1.72.06.64.04,1.5.06,2.61.06,6.62,0,11.11-2.12,13.49-6.36,2.37-4.24,3.56-13.31,3.56-27.21,0-2.63-.04-7.52-.13-14.68-.08-7.16-.13-13.03-.13-17.61v-33.82c0-4.24.04-9.64.13-16.21.08-6.57.13-11.04.13-13.41,0-14.66-1.21-24.16-3.63-28.48s-6.98-6.49-13.68-6.49c-.25,0-.76.04-1.53.13-.76.08-1.36.13-1.78.13v-8.91Z" style="fill:#f2e863; stroke-width:0px;"/><path d="m1078.02,954.68h4.45c6.02,0,10.31-.74,12.85-2.23,2.54-1.48,4.33-4.22,5.34-8.21.76-2.63,1.29-12.17,1.59-28.63.3-16.46.45-42.07.45-76.85v-40.59h-25.7c-12.47,0-20.89,1.68-25.26,5.03-4.37,3.35-7.62,10.41-9.73,21.19l-8.27-1.78c1.61-7.38,2.84-14.63,3.69-21.76.85-7.12,1.27-14.12,1.27-21,2.54,1.61,7.7,2.76,15.46,3.44,7.76.68,21.35,1.02,40.78,1.02h31.05c25.79,0,42.39-.32,49.81-.95,7.42-.64,12.62-1.8,15.59-3.5,0,.85-.04,2.19-.13,4.01-.09,1.83-.13,3.2-.13,4.13,0,5.34.23,10.86.7,16.54.46,5.68,1.17,11.54,2.1,17.56l-8.02,1.53c-1.02-9.58-3.63-16.12-7.83-19.6-4.2-3.48-13.04-5.43-26.53-5.85h-24.05c-.08,4.83-.17,11.66-.25,20.49-.17,23.16-.25,38.73-.25,46.7,0,30.12.19,50.51.57,61.2s1.04,17.35,1.97,19.98c1.1,3.05,2.93,5.17,5.47,6.36,2.54,1.19,6.45,1.78,11.71,1.78h4.45v8.91c-7.04-.34-13.68-.59-19.91-.76-6.24-.17-11.81-.25-16.73-.25-4.33,0-9.65.08-15.97.25-6.32.17-13.17.43-20.55.76v-8.91Z" style="fill:#f2e863; stroke-width:0px;"/></g></svg>