<?xml version="1.0" encoding="UTF-8"?><svg id="a" xmlns="http://www.w3.org/2000/svg" viewBox="0 0 1536 1024"><path d="M867.76,600.59c-9.33,0-18.78-2.34-28.11-6.94l-.46-.25c-10.1-5.75-17.81-15.5-22.9-28.99l-.1-.29c-2.98-8.77-4.49-17.63-4.49-26.35v-1.41c0-16.01,4.34-30.18,12.89-42.13l.49-.62c4.92-5.75,8.68-9.14,12.1-10.92,8.83-5.38,17.97-8.11,27.18-8.11,11.21,0,21.53,4.3,30.69,12.79l.2.19c8.25,8.12,12.26,15.47,12.26,22.45,0,4.79-1.6,11.64-9.2,17.06l-.54.35c-3.45,2.1-7.15,3.17-10.99,3.17-4.43,0-12.68-1.51-18.59-11.53-.9-1.17-2.64-3.17-4.06-3.17-.75,0-2.4.25-5.25,1.84-.85.74-1.51,1.46-1.92,2.12-2.62,4.62-3.95,10.42-3.95,17.26,0,8.03,1.72,14.32,5.27,19.22l.2.28s.75.98,4.09,1.86c2.6.67,4.23.82,5.13.82.34,0,.6-.02.8-.04l.13-.25.65-.76c4.24-4.9,9.78-7.49,16.01-7.49,4.79,0,11.64,1.6,17.05,9.2l.36.54c2.1,3.45,3.17,7.15,3.17,10.99,0,7.81-4.66,15.18-13.86,21.89l-.41.28c-7.1,4.61-15.12,6.94-23.83,6.94ZM847.86,577.63c6.75,3.29,13.44,4.96,19.9,4.96,5.17,0,9.69-1.28,13.83-3.91,4.95-3.65,6.27-6.24,6.27-7.21,0-.3-.05-.73-.39-1.37-1.05-1.36-1.7-1.36-2.19-1.36-.61,0-1.19.07-1.98.82-2.15,3.32-6.69,7.72-15.62,7.72-2.87,0-6.04-.46-9.68-1.4-6.64-1.75-11.47-4.82-14.41-9.13-5.7-7.95-8.6-17.92-8.6-29.65,0-10.06,2.15-18.91,6.39-26.3l.09-.15c1.59-2.64,3.81-5.12,6.62-7.37l.5-.4.55-.33c5.32-3.14,10.22-4.66,14.96-4.66s12.26,1.89,18.84,10.88l.31.43.26.46c1.65,2.92,2.75,2.92,3.22,2.92.3,0,.73-.05,1.37-.39,1.36-1.05,1.36-1.7,1.36-2.19,0-.03-.08-2.89-6.79-9.53-5.77-5.32-11.78-7.9-18.36-7.9-6.02,0-11.93,1.84-18.06,5.63l-.41.25-.44.21s-1.86,1.03-6.44,6.34c-6.26,8.89-9.31,19.14-9.31,31.34v1.41c0,6.7,1.17,13.57,3.48,20.42,3.53,9.28,8.47,15.82,14.69,19.44Z"/><path d="M943.41,600.59h-.67c-10.54,0-20.4-3.54-29.31-10.53l-.66-.57c-5.18-4.94-7.35-7.38-8.43-9.39-2.8-3.96-4.99-7.93-6.5-11.81-3.57-9.19-5.37-18.93-5.37-28.96,0-17.8,4.77-33.41,14.18-46.41l.34-.44c3.27-3.97,6.37-7.02,9.46-9.31l.08-.06c7.77-5.61,16.07-8.46,24.65-8.46h1.34c9.23,0,18.01,3.57,26.1,10.6l.46.43c4.49,4.5,7.36,8.04,9,11.11,7.55,12.79,11.38,27.6,11.38,44.03,0,18.35-4.84,33.52-14.38,45.08l-.28.32c-8.67,9.54-19.23,14.38-31.38,14.38ZM924.87,576.15c5.64,4.33,11.5,6.44,17.87,6.44h.67c6.9,0,12.76-2.72,17.92-8.33,6.81-8.34,10.13-19.29,10.13-33.45,0-13.24-3.02-25.02-8.98-35.04l-.28-.5c-.24-.48-1.37-2.36-5.62-6.63-4.71-4.03-9.31-5.98-14.06-5.98h-1.34c-4.77,0-9.37,1.64-14.06,5.02-1.81,1.35-3.85,3.38-6.06,6.04-7.13,9.95-10.6,21.61-10.6,35.62,0,7.8,1.39,15.35,4.14,22.43,1.04,2.67,2.67,5.54,4.83,8.51l.95,1.37c.61.69,1.9,2.05,4.48,4.52ZM943.26,577.28c-7.59,0-14.18-3.22-19.06-9.32l-.26-.34c-5.42-7.48-8.17-17-8.17-28.3,0-6.09.84-12.17,2.48-18.08l.14-.46c5.11-15.14,12.93-22.82,23.23-22.82,4.35,0,10.68,1.76,16.2,10.14l.27.44c5.33,9.22,8.04,20.08,8.04,32.27,0,3.13-.25,6.52-.76,10.09l-.04.27c-3.7,21.58-14.05,26.11-22.08,26.11ZM938.39,556.88c1.41,1.7,2.84,2.4,4.87,2.4.13,0,.18-.01.18-.01.02,0,2.49-1.53,4.14-11.01.37-2.69.56-5.19.56-7.45,0-8.88-1.84-16.62-5.48-23.02-.62-.91-1.09-1.42-1.39-1.7-.94.55-3.25,2.97-5.73,10.22-1.17,4.26-1.76,8.64-1.76,13.02,0,7.32,1.55,13.22,4.62,17.55Z"/><path d="M1002.21,600.59c-7.06,0-13.26-3.52-17.47-9.92l-.31-.5c-1.81-3.19-2.73-6.71-2.73-10.46v-84.19c0-8.47,4.41-15.28,12.42-19.16l.49-.24.51-.18c2.52-.87,4.98-1.31,7.3-1.31,7.52,0,13.97,3.89,18.14,10.95l.44.84c1.33,2.91,2,5.96,2,9.08v63.39l31.91-.75c4.1,0,8.25,1.55,12.35,4.6l.39.29.36.33c4.6,4.27,7.03,9.66,7.03,15.58,0,4.83-1.63,11.69-9.34,17.08-3.22,2.41-7.85,3.49-14.91,3.5-28.9.7-44.8,1.04-48.59,1.04ZM999.97,581.07c1.08,1.52,1.74,1.52,2.23,1.52,3.6,0,19.84-.35,48.26-1.04h.22c2.91,0,4.32-.24,4.85-.36,1.51-1.09,1.51-1.74,1.51-2.22,0-.41,0-1.06-.96-2.07-.72-.49-1.16-.67-1.33-.73l-49.76,1.17v-81.82c0-.41-.07-.81-.22-1.22-1.09-1.66-1.79-1.66-2.36-1.66-.07,0-.37,0-.95.17-1.78.98-1.78,1.75-1.78,2.71v84.19c0,.53.08.95.27,1.35ZM1055.8,581.13h0Z"/><path d="M1080.86,600.59h-.19c-3.53,0-8.84-1.04-14.11-6.01l-.39-.39c-3.83-4.08-5.86-9.03-5.86-14.33v-.23c.74-28.34,1.32-49.89,1.73-64.05.21-7.14.37-12.49.49-16.05.06-1.82.11-3.19.15-4.1.05-1.03.17-1.95.36-2.77l-.09-.02c.97-4.6,2.88-8.3,5.67-11l.13-.12c3.15-2.92,6.18-4.69,9.25-5.39,1.77-.53,5.2-1.02,22.72-1.03,1-.04,4.94-.14,26.33-.52h.16c4.38,0,8.69,1.64,12.83,4.89l.39.31.36.35c4.29,4.21,6.56,9.43,6.56,15.11,0,7.43-3.72,13.78-10.49,17.91-3.12,2.14-7.76,2.89-17.36,2.9l-16.15.29-.04,1.88c4.33-.04,7.79-.06,10.47-.06,7.73,0,14.29,3.93,18.46,11.07l.28.47.22.5c1.28,2.96,1.93,5.88,1.93,8.69,0,4.98-1.73,12.07-9.97,17.53l-.53.33c-.5.28-1,.54-1.51.78,3.4-.13,4.56-.16,5.01-.16,7.05,0,13.25,3.52,17.46,9.92l.36.6c1.78,3.22,2.68,6.63,2.68,10.14,0,5-1.73,12.11-9.98,17.63-3.24,2.2-7.95,3.15-15.69,3.17-1.31.07-7.41.34-41.45,1.77h-.19ZM1079.11,581.67c.6.53,1.16.87,1.49.92,32.55-1.37,40.3-1.71,41.06-1.76l.32-.02h.26c3.92,0,5.72-.29,6.37-.43,1.56-1.15,1.56-1.88,1.56-2.37,0-.24-.03-.61-.29-1.16-1.07-1.5-1.72-1.5-2.21-1.5-.94,0-7.68.25-34.36,1.4l-10.5.45,1.2-10.72.38-16.57,1.67-8.34,7.34-.04c9.28-.05,16-.07,20.17-.07.73,0,1.2-.14,1.5-.28,1.6-1.14,1.6-1.83,1.6-2.31,0-.04,0-.38-.25-1.06-1.1-1.67-1.91-1.67-2.63-1.67-4.22,0-10.78.05-19.5.15h-.1s-9.2,0-9.2,0l.13-9.2.64-28.46,33.67-.6c5.14,0,7.42-.26,8.29-.4,1.64-1.05,1.64-1.77,1.64-2.4,0-.38,0-.98-.84-1.92-.79-.56-1.23-.7-1.35-.73-20.97.37-25.13.48-25.74.5l-.28.02h-.21c-13.31,0-17.2.3-18.22.42l-.4.11c-.22.14-.61.43-1.17.94-.02.04-.23.41-.46,1.29-.17,3.42-.73,21.42-2.37,84.1,0,.34.07.88.79,1.71ZM1128.91,580.3h0ZM1080.62,496.15c-.01.06-.03.13-.04.2l-.07.32c.04-.17.08-.34.11-.51ZM1082.52,493.5h0ZM1083.24,493.35l-.12.04s.09-.03.12-.04Z"/><path d="M1180.45,600.59h-2.3c-6.35,0-13.16-1.34-20.23-3.99l-.6-.25c-10.11-4.65-17.81-13.5-22.87-26.32l-.09-.25c-3.46-9.56-5.21-19.43-5.21-29.34v-2.6c0-12.25,2.53-23.93,7.51-34.73l.06-.12c5.06-10.55,13.72-18.5,25.75-23.62l.1-.04c7.55-3.11,15.1-4.69,22.44-4.69h1.48c6.65,0,13.19,1.19,19.43,3.55l.8.3.73.45c6.98,4.28,10.83,10.78,10.83,18.29s-3.83,13.7-10.78,17.93l-.49.3-.52.23c-2.58,1.16-5.16,1.83-7.69,2,5.87.95,11.31,3.44,16.23,7.45l.43.37c7.09,6.55,10.69,15.17,10.69,25.62,0,13.88-4.41,25.78-13.1,35.37l-.39.4c-4.64,4.52-8.43,7.32-11.86,8.75-6.62,3.28-13.46,4.94-20.33,4.94ZM1164.55,579.87c4.92,1.81,9.49,2.72,13.6,2.72h2.3c4.21,0,8.32-1.04,12.57-3.19l.84-.37c.07-.03,1.78-.73,6.01-4.82,5.55-6.22,8.25-13.78,8.25-23.08,0-5.26-1.5-9.14-4.7-12.21-3.11-2.46-6.43-3.66-10.13-3.66h-2.38c-.72,0-2.41.09-5.64.7-2.27.53-3.34.9-3.74,1.06-1.52,1.16-1.52,1.87-1.52,2.31,0,.3.05.73.39,1.37.91,1.18,1.52,1.34,1.99,1.36,4.13-1.01,7.25-1.48,9.78-1.48h.82c1.39,0,2.76.26,4.07.79l5.67,2.26v6.11c0,.13,0,.25,0,.36l.1.69-.04.85c-.12,2.64-.31,4.58-.58,6.09l-.04.22c-2.55,12.3-10.79,19.35-22.62,19.35h-.3c-3.17,0-6.22-.39-9.08-1.17-4.65-.72-7.8-4.17-8.92-5.39l-.37-.4-.32-.44c-5.4-7.57-8.13-17.87-8.13-30.62v-.37c0-3.92.31-7.89.93-11.79,1.36-8.35,4.13-14.99,8.23-19.76l.51-.59.6-.49c6.68-5.5,14.37-8.29,22.87-8.29,2.04,0,4.17.15,6.36.46l.55.08.54.14c2.9.78,4.17,1.02,4.62,1.09.2-.02.52-.09.97-.26,1.64-1.11,1.64-1.81,1.64-2.24,0-.59,0-1.38-1.59-2.51-3.94-1.38-8.04-2.07-12.2-2.07h-1.48c-4.96,0-10.18,1.11-15.53,3.31-7.94,3.39-13.34,8.22-16.49,14.76-3.86,8.4-5.82,17.52-5.82,27.12v2.6c0,7.78,1.38,15.54,4.09,23.09,3.29,8.27,7.65,13.62,13.32,16.33ZM1174.74,558.69c.43.12.87.23,1.33.31-.5-.17-1-.36-1.5-.58.06.09.11.18.17.27ZM1202.72,549.92v.02s0-.02,0-.02ZM1174.8,519.62c-.22.3-.44.63-.65.98,1.8-.79,4.12-1.49,7.23-2.21l.35-.07c3.71-.71,6.71-1.05,9.18-1.05h2.38c.07,0,.13,0,.2,0-1.18-.24-2.65-.58-4.54-1.08-1.18-.15-2.32-.22-3.37-.22-4,0-7.53,1.2-10.77,3.66Z"/><path d="M1288.54,600.59c-4.92,0-11.91-1.7-17.4-9.75-1.36-1.82-2.3-4.23-4.6-14.93-2.74.13-6.54.31-11.79.58-.52,1.9-1.21,4.46-2.13,7.91l-.18.58c-1.63,4.81-4.91,8.76-9.49,11.42l-.5.27c-3.13,1.57-6.36,2.36-9.6,2.36-4.79,0-11.64-1.6-17.06-9.2l-.35-.53c-2.11-3.45-3.17-7.15-3.17-11,0-2.31,0-5.49,15.16-55.82l.04-.13c6.08-19.14,11.14-31.11,15.93-37.69l.34-.44c6.34-7.67,13.45-9.28,18.29-9.28h.07c7.7,0,18.28,3.86,25.04,22.21,5.89,15.05,12.54,38.83,20.3,72.7,1.6,6.18,1.81,8.6,1.81,10.15,0,7.46-3.91,13.9-11,18.13l-.5.3-.53.23c-2.96,1.28-5.88,1.93-8.69,1.93ZM1286.31,581.11c1.12,1.48,1.81,1.48,2.24,1.48.04,0,.37,0,1.03-.24,1.59-1.06,1.69-1.76,1.7-2.24-.03-.29-.2-1.71-1.27-5.85l-.06-.25c-7.49-32.67-14.07-56.34-19.58-70.36l-.07-.19c-1.44-3.92-4.41-10.5-8.18-10.5h-.07c-.63,0-2.07,0-4.25,2.54-2.44,3.46-6.67,11.88-13.14,32.25-11.88,39.44-14.03,48.68-14.36,50.82.03.28.12.64.38,1.12,1.05,1.36,1.7,1.36,2.19,1.36.35,0,.78-.11,1.28-.34.75-.48,1.03-.92,1.18-1.3q4.23-15.92,6.24-17.93l2.44-2.44,3.45-.18c20.44-1.06,24.56-1.2,25.86-1.2h.15c3.2,0,7.39,1.42,9.17,8.2.27,1.04.65,2.59,1.15,4.66l.05.21c1.44,6.79,2.17,9.43,2.47,10.4ZM1245.69,553.74v-8.22l-.86-2.65,1.63-2.86c.15-.48.47-1.51,1.05-3.61l.09-.29c1.74-5.51,3.09-9.72,4.02-12.5,1.68-5.05,3.42-10.27,10.06-10.27h6.63l2.04,6.34c1.76,5.68,3.79,12.84,6.04,21.28l.3,1.14v1.18c0,1.45-.34,2.86-1.01,4.22l-2.48,5.01h-5.59c-.75,0-3.36.08-12.35.65l-9.57.6ZM1246.33,540.36h0s0,0,0,0Z"/><path d="M1339.68,600.59h-2c-8.2,0-17.69-1.68-28.99-5.15-3.86-1.16-7.18-3.09-9.82-5.73l-.28-.29c-3.5-3.83-5.44-8.5-5.62-13.48v-.9c0-4.52,1.46-11.04,8.45-16.46l.61-.44c3.33-2.16,6.94-3.35,10.73-3.52h.56c2.76,0,6.27.77,11.73,2.59,4.7,1.25,8.85,1.93,12.36,2.05-2.29-1.03-5.31-2.29-9.29-3.79l-.22-.08c-6.88-2.79-12.93-5.94-17.98-9.34l-.56-.41c-5.23-4.14-8.25-7.27-9.91-10.25-3.84-5.68-5.92-11.79-6.18-18.18v-.37s0-1.34,0-1.34c0-8.8,2.68-17.16,7.97-24.85l.49-.65c3.32-4,6.07-6.59,8.62-8.12,6.7-4.38,13.87-6.73,21.33-7l3.56-.16h1.48c8.82,0,19.1,2.31,31.44,7.06l.19.08c8.81,3.62,13.85,10.35,14.18,18.96v.8c0,4.55-1.47,11.12-8.51,16.6l-.5.36c-3.42,2.31-7.15,3.53-11.07,3.62h-.5c-3.3,0-7.14-1.03-12.4-3.35-2.5-.84-4.65-1.44-6.49-1.86,2.24.96,4.97,2.05,8.31,3.3l.37.15c6.11,2.59,11.57,5.53,16.25,8.72l.42.31c9.93,7.66,15.21,16.99,15.67,27.75v.39s0,1.93,0,1.93c0,6.32-1.8,13.04-5.36,19.98-1.4,2.99-4.01,6.22-8.4,10.42l-.27.25c-4.87,4.3-11.31,7.4-19.13,9.22l-.43.09c-3.15.57-5.62.88-7.55.95l-3.27.16ZM1311.74,577.11c.51.46,1.24.83,2.18,1.11,9.49,2.91,17.47,4.37,23.77,4.37h1.57l3.04-.14c.57-.02,1.94-.13,4.77-.64,4.71-1.12,8.4-2.81,10.97-5.03,3.64-3.51,4.4-4.91,4.43-4.97l.19-.4c2.29-4.42,3.45-8.43,3.45-11.9v-1.71c-.28-5.14-3.05-9.71-8.47-13.94-3.61-2.44-7.9-4.73-12.75-6.8-18.3-6.86-27.74-11.95-28.21-20.49l-.09-1.53c0-1.44.24-3.05.79-5.23.86-3.38,4.14-11.19,16.25-11.7l1.39-.09h1.04c5.55,0,11.99,1.27,19.68,3.9l.76.3c3.79,1.69,5.31,1.94,5.56,1.97h.07c.25-.01.59-.08,1.1-.39,1.32-1.11,1.32-1.78,1.32-2.19v-.25c-.04-.76-.25-1.7-2.95-2.82-10.05-3.86-18.42-5.82-24.87-5.82h-1.27l-3.1.14c-4.24.14-8.25,1.5-12.27,4.16l-.47.29s-1.13.74-3.76,3.87c-3.08,4.59-4.58,9.28-4.58,14.32v1.13c.16,3.07,1.23,6,3.28,8.94l.4.58.22.46c.23.31,1.36,1.72,5.1,4.71,3.94,2.62,8.75,5.09,14.3,7.35,16.76,6.31,25.89,11.34,26.2,19.78v.55c0,2.73-.69,5.65-2.08,8.66l-.31.62c-3.08,5.54-8.93,8.54-17.4,8.92l-1.38.09h-1.11c-5.37,0-11.55-.93-18.37-2.76l-.54-.16c-4.07-1.37-5.78-1.68-6.25-1.74-.3.04-.69.15-1.19.43-1.18,1-1.18,1.59-1.18,1.99v.4c.03.43.14.95.76,1.68ZM1315.26,526.76v.02s0-.01,0-.02Z"/><path d="M867.76,595.59c-8.55,0-17.26-2.16-25.9-6.43l-.21-.11c-9.06-5.15-16.02-14.04-20.7-26.41l-.05-.13c-2.8-8.25-4.22-16.57-4.22-24.75v-1.41c0-14.94,4.02-28.14,11.96-39.22l.22-.27c4.51-5.27,7.94-8.39,10.75-9.81,8.08-4.96,16.4-7.47,24.73-7.47,9.91,0,19.09,3.86,27.29,11.46l.09.08c7.25,7.14,10.77,13.31,10.77,18.89,0,5.19-2.45,9.68-7.1,12.98l-.24.16c-2.66,1.62-5.48,2.44-8.39,2.44-4.14,0-9.99-1.62-14.42-9.31-2.7-3.62-5.39-5.39-8.22-5.39-2.27,0-5,.91-8.11,2.72-1.49,1.22-2.63,2.48-3.38,3.73-3.06,5.33-4.63,12-4.63,19.77,0,8.99,2.09,16.45,6.22,22.15l.09.13c1.1,1.65,3.51,3,6.97,3.92,2.51.65,4.67.98,6.4.98,3.77,0,4.53-1.43,4.86-2.05l.21-.39.29-.34c3.31-3.82,7.42-5.76,12.23-5.76,5.19,0,9.67,2.45,12.98,7.1l.16.24c1.62,2.66,2.44,5.48,2.44,8.39,0,6.13-3.97,12.13-11.81,17.86l-.18.12c-6.27,4.07-13.38,6.14-21.11,6.14ZM845.51,582.04c7.49,3.68,14.97,5.55,22.25,5.55,6.21,0,11.66-1.57,16.66-4.79,3.87-2.84,8.44-7.09,8.44-11.33,0-1.4-.39-2.75-1.2-4.11-1.8-2.47-3.83-3.62-6.38-3.62-2.34,0-4.23.87-5.93,2.72-1.63,2.75-4.96,5.82-11.66,5.82-2.44,0-5.2-.41-8.43-1.24-5.44-1.44-9.32-3.84-11.56-7.16-5.11-7.09-7.7-16.1-7.7-26.78,0-9.18,1.93-17.19,5.73-23.82,1.32-2.2,3.16-4.23,5.5-6.11l.47-.32c4.47-2.63,8.65-3.97,12.43-3.97,5.53,0,10.52,2.97,14.81,8.84l.26.4c2.76,4.9,5.65,5.46,7.58,5.46,1.4,0,2.75-.39,4.11-1.2,2.47-1.8,3.62-3.83,3.62-6.38,0-1.84-1.08-5.99-8.34-13.14-6.76-6.25-13.89-9.29-21.81-9.29-6.88,0-13.84,2.15-20.69,6.38l-.38.21c-.98.47-3.36,2.11-8.23,7.77-6.88,9.67-10.36,21.25-10.36,34.43v1.41c0,7.27,1.27,14.71,3.77,22.11,3.98,10.5,9.71,17.96,17.04,22.17Z" style="fill:#44bba4;"/><path d="M943.41,595.59h-.67c-9.39,0-18.21-3.18-26.22-9.46l-.29-.25c-5.42-5.17-6.98-7.11-7.59-8.37-2.67-3.73-4.73-7.44-6.14-11.04-3.34-8.6-5.03-17.73-5.03-27.14,0-16.72,4.45-31.35,13.23-43.47l.15-.2c2.96-3.6,5.85-6.45,8.58-8.47,6.94-5.01,14.25-7.54,21.76-7.54h1.34c7.99,0,15.66,3.15,22.82,9.37l.2.19c4.13,4.13,6.81,7.41,8.17,10.02,7.13,12.03,10.75,26.02,10.75,41.59,0,17.16-4.45,31.25-13.24,41.89l-.12.14c-7.69,8.46-17,12.74-27.68,12.74ZM921.6,579.95c6.62,5.14,13.53,7.64,21.14,7.64h.67c8.42,0,15.52-3.29,21.7-10.05,7.53-9.16,11.35-21.52,11.35-36.73,0-14.15-3.26-26.8-9.68-37.6l-.12-.22c-.64-1.26-2.32-3.67-6.67-8.02-5.7-4.92-11.41-7.32-17.46-7.32h-1.34c-5.87,0-11.44,1.96-17.03,6-2.14,1.58-4.52,3.95-7.04,7-7.72,10.71-11.64,23.73-11.64,38.68,0,8.42,1.51,16.58,4.48,24.24,1.2,3.07,3.04,6.32,5.45,9.64l.41.56.08.28c.35.48,1.59,1.96,5.72,5.91ZM943.26,572.28c-6.1,0-11.2-2.5-15.15-7.44l-.11-.15c-4.79-6.61-7.22-15.14-7.22-25.36,0-5.64.77-11.27,2.3-16.74l.06-.21c4.35-12.89,10.57-19.42,18.49-19.42,4.53,0,8.58,2.65,12.03,7.89l.12.2c4.89,8.45,7.37,18.46,7.37,29.77,0,2.9-.24,6.05-.71,9.39l-.02.12c-2.5,14.57-8.27,21.96-17.16,21.96ZM934.42,559.92c2.41,2.98,5.22,4.37,8.84,4.37,4.4,0,7.52-5.13,9.26-15.25.41-2.95.62-5.71.62-8.22,0-9.83-2.1-18.46-6.23-25.66-1.29-1.94-3.23-4.19-5.28-4.19-5.09,0-8.72,7.52-10.88,13.88-1.31,4.74-1.98,9.61-1.98,14.49,0,8.46,1.9,15.38,5.64,20.59Z" style="fill:#44bba4;"/><path d="M1002.21,595.59c-3.76,0-9.12-1.33-13.29-7.67l-.14-.22c-1.38-2.43-2.08-5.12-2.08-7.99v-84.19c0-6.55,3.32-11.62,9.6-14.66l.45-.18c2-.69,3.91-1.03,5.68-1.03,4.02,0,9.69,1.47,13.84,8.5l.2.38c1.03,2.25,1.55,4.61,1.55,7.01v68.51l36.81-.87h0c3.09,0,6.24,1.22,9.46,3.61l.33.28c3.61,3.35,5.43,7.36,5.43,11.91,0,5.23-2.52,9.73-7.28,13.03-2.31,1.76-6.05,2.55-12.09,2.55-28.43.69-44.77,1.04-48.48,1.04ZM995.67,583.64c2.37,3.54,4.86,3.95,6.53,3.95,3.64,0,19.92-.35,48.38-1.04,5.95,0,7.28-.88,7.34-.92l.23-.17c3.5-2.39,3.9-4.85,3.9-6.5,0-2.24-.87-4.12-2.72-5.91-1.71-1.24-3.23-1.9-4.41-1.9l-44.91,1.06v-76.7c0-1.2-.24-2.34-.74-3.5-2.39-3.92-5.04-4.38-6.84-4.38-.83,0-1.78.18-2.85.52-3.37,1.7-4.88,3.97-4.88,7.35v84.19c0,1.44.32,2.73.98,3.93Z" style="fill:#44bba4;"/><path d="M1080.76,595.59h-.08c-3.81,0-7.41-1.56-10.69-4.65l-.17-.17c-2.99-3.18-4.5-6.85-4.5-10.91v-.1c.74-28.34,1.32-49.88,1.73-64.04.2-7.12.37-12.47.49-16.03.06-1.8.11-3.14.15-4.04.03-.76.13-1.41.26-1.96l-.09-.02c.76-3.6,2.19-6.44,4.25-8.44,2.61-2.43,4.96-3.82,7.21-4.27,1.18-.36,4.19-.86,21.52-.86.62-.03,3.57-.12,26.32-.52h.07c3.23,0,6.51,1.29,9.74,3.82l.33.29c3.36,3.29,5.06,7.18,5.06,11.54,0,4.02-1.43,9.64-8.23,13.72-1.81,1.29-5.13,2.08-14.7,2.08l-20.96.38-.27,11.85c6.78-.07,12-.1,15.58-.1,5.97,0,10.86,2.97,14.14,8.59l.22.43c1.01,2.33,1.52,4.58,1.52,6.71,0,3.76-1.34,9.12-7.73,13.36l-.24.14c-2.43,1.38-5.17,2.08-8.14,2.08-3.56,0-8.98.02-16.27.05l-.21,9.06c25.59-1.1,29.75-1.23,30.59-1.23,3.76,0,9.12,1.33,13.29,7.67l.16.26c1.37,2.47,2.06,5.07,2.06,7.72,0,3.79-1.35,9.2-7.79,13.5-2.29,1.58-6.32,2.3-13.01,2.31-.77.04-5.29.25-41.53,1.78h-.08ZM1075.57,585.2c1.71,1.58,3.36,2.37,5.04,2.39,33.11-1.39,40.78-1.73,41.37-1.77h.28c7.04,0,8.6-.91,8.66-.95,3.83-2.55,4.27-5.14,4.27-6.87,0-1.26-.32-2.48-.99-3.72-2.37-3.52-4.85-3.93-6.52-3.93-1.24,0-12.87.47-34.57,1.41l-4.67.2.57-5.13.38-16.36.78-3.91,3.26-.02c9.26-.05,15.98-.07,20.14-.07,1.54,0,2.87-.32,4.07-.97,3.61-2.44,4.03-4.93,4.03-6.61,0-.97-.26-2.08-.77-3.31-1.84-3.05-4.05-4.42-7.11-4.42-4.24,0-10.82.05-19.55.15h-4.21l.62-27.75,28.71-.51c7.42,0,9.69-.53,10.24-.7l.28-.16c3.1-1.82,4.48-3.96,4.48-6.94,0-2.13-.8-3.94-2.51-5.68-1.71-1.3-3.26-1.97-4.6-1.98-21.55.38-25.58.49-26.07.51h-.24c-15.53,0-18.77.42-19.42.56l-.24.08-.34.06c-.19.03-1.21.28-3.34,2.25-.81.79-1.46,2.18-1.89,4.11-.15,2.23-.69,19.12-2.4,84.77.01,1.93.75,3.66,2.25,5.29ZM1129.74,502.29h0ZM1075.69,495.26s0,.03-.01.05l-.03.14c.02-.06.03-.13.04-.19ZM1081.61,488.62h-.01s0,0,.01,0Z" style="fill:#44bba4;"/><path d="M1180.45,595.59h-2.3c-5.75,0-11.97-1.23-18.48-3.67l-.27-.11c-8.9-4.09-15.73-12.04-20.31-23.62l-.04-.11c-3.26-9.01-4.92-18.31-4.92-27.64v-2.6c0-11.52,2.37-22.5,7.05-32.63,4.55-9.48,12.35-16.6,23.22-21.23,6.98-2.88,13.89-4.33,20.57-4.33h1.48c6.05,0,11.99,1.09,17.67,3.23l.36.13.32.2c6.98,4.28,8.44,9.99,8.44,14.03s-1.45,9.44-8.38,13.66l-.45.24c-2.39,1.07-4.74,1.61-6.98,1.61-.98,0-2.64-.18-7.54-1.48-1.51-.2-2.97-.3-4.34-.3-5.36,0-10.05,1.67-14.33,5.1-2.4,2.94-4.1,7.33-5.03,13.07-.51,3.22-.77,6.51-.77,9.75v.37c0,9.86,1.88,17.55,5.57,22.87.64.68,1.06.99,1.26,1.12h.23l.57.17c1.89.57,3.97.87,6.18.87h.3c5.61,0,8.57-2.67,9.88-8.93.06-.33.12-.81.19-1.53-1.14.18-2.63.48-4.57.97l-.18.04c-.75.15-1.51.23-2.27.23-5.19,0-9.68-2.46-12.98-7.1l-.16-.24c-1.62-2.66-2.44-5.48-2.44-8.39,0-3.66,1.29-8.92,7.42-13.22,1.57-1.05,4.04-1.91,8.07-2.85l.16-.03c3.4-.65,6.09-.96,8.25-.96h2.38c6.81,0,13.05,2.28,18.56,6.76l.19.16c6.02,5.57,9.08,12.95,9.08,21.94,0,12.6-3.97,23.37-11.8,32.01l-.17.18c-4.19,4.08-7.61,6.63-10.44,7.77-5.98,2.99-12.12,4.5-18.26,4.5ZM1162.62,584.48c5.56,2.06,10.78,3.11,15.53,3.11h2.3c4.94,0,9.93-1.25,14.83-3.73l.37-.16c1.01-.39,3.36-1.68,7.83-6.02,6.49-7.21,9.65-15.89,9.65-26.55,0-6.72-2.1-11.95-6.42-15.98-4.08-3.29-8.46-4.89-13.41-4.89h-2.38c-1.61,0-3.85.27-6.67.8-4.19.98-5.19,1.58-5.29,1.64-3.52,2.47-3.94,4.96-3.94,6.62,0,1.4.39,2.75,1.2,4.11,1.8,2.47,3.83,3.62,6.38,3.62.21,0,.42-.02.62-.06,3.87-.96,6.79-1.43,8.95-1.43h.82c.75,0,1.5.15,2.22.43l2.52,1v2.71c0,.67.03.9.03.91l.05.37-.02.38c-.11,2.38-.27,4.15-.5,5.43l-.02.1c-2.05,9.91-8.35,15.36-17.72,15.36h-.3c-2.84,0-5.55-.36-8.07-1.08-2.7-.31-4.84-2.32-6.25-3.86l-.3-.38c-4.78-6.7-7.2-16.02-7.2-27.71v-.37c0-3.66.29-7.37.87-11.02,1.21-7.41,3.59-13.21,7.08-17.28l.23-.26.27-.22c5.76-4.74,12.38-7.15,19.69-7.15,1.81,0,3.71.14,5.67.41l.48.1c4.51,1.21,5.62,1.27,5.73,1.27,1.03,0,2.2-.27,3.47-.81,3.87-2.44,4.32-4.98,4.32-6.69,0-1.83-.46-4.52-4.31-7.01-4.66-1.71-9.53-2.58-14.48-2.58h-1.48c-5.63,0-11.51,1.25-17.48,3.71-9.12,3.88-15.37,9.53-19.08,17.26-4.16,9.02-6.29,18.87-6.29,29.23v2.6c0,8.38,1.49,16.75,4.42,24.86,3.77,9.51,9.17,15.96,16.06,19.18Z" style="fill:#44bba4;"/><path d="M1288.54,595.59c-3.73,0-9.05-1.33-13.33-7.65-.7-.9-1.51-2.35-4.1-14.52-.26-1.11-.48-1.99-.65-2.68-3.55.14-10.1.46-19.57.95-.54,1.88-1.47,5.28-3.11,11.43l-.08.26c-1.26,3.7-3.7,6.63-7.27,8.71l-.22.12c-2.43,1.22-4.91,1.83-7.36,1.83-5.19,0-9.68-2.46-12.98-7.1l-.16-.24c-1.62-2.66-2.44-5.48-2.44-8.39,0-1.54,0-4.75,14.94-54.38,5.85-18.41,10.82-30.27,15.22-36.32l.15-.19c4.1-4.95,8.95-7.46,14.44-7.46h.07c8.9,0,15.76,6.4,20.38,19.03,5.7,14.53,12.48,38.81,20.1,72.07,1.48,5.72,1.67,7.8,1.67,8.97,0,3.98-1.49,9.62-8.56,13.83l-.46.24c-2.33,1.01-4.58,1.52-6.71,1.52ZM1281.81,583.42c2.52,3.74,5.04,4.17,6.73,4.17.97,0,2.07-.25,3.3-.76,3.97-2.45,4.43-5.06,4.43-6.82,0-.35-.1-1.89-1.43-7.01l-.03-.11c-7.54-32.91-14.2-56.82-19.79-71.07-3.38-9.23-7.72-13.87-12.91-13.87h-.07c-3,0-5.68,1.46-8.2,4.47-3.82,5.31-8.52,16.7-13.97,33.87-12.48,41.47-14.5,50.42-14.59,52.07,0,1.35.39,2.7,1.2,4.06,1.8,2.47,3.83,3.62,6.38,3.62,1.18,0,2.38-.3,3.66-.93,1.78-1.06,2.95-2.43,3.57-4.18,3.95-14.85,4.03-14.94,5.01-15.91l1.09-1.09,1.53-.08c20.55-1.07,24.45-1.19,25.6-1.19h.15c3.16,0,3.89,2.8,4.33,4.47.27,1.01.64,2.53,1.12,4.54,1.89,8.91,2.66,11.19,2.89,11.76ZM1250.69,548.41v-3.71l-.39-1.25.73-1.35c.09-.24.41-1.18,1.3-4.36l.04-.13c1.73-5.49,3.07-9.67,3.99-12.42,1.66-4.99,2.29-6.86,5.32-6.86h2.95l.95,2.82c1.74,5.62,3.75,12.71,5.98,21.09l.13.51v.52c0,.68-.16,1.33-.49,2l-1.1,2.23h-2.48c-.99,0-4,.11-12.67.66l-4.25.27ZM1251.14,541.88s-.06.1-.1.18l.1-.18ZM1261.42,535.49c-.41,1.29-.87,2.73-1.37,4.33.92-.05,1.76-.1,2.53-.14-.39-1.44-.78-2.84-1.15-4.19Z" style="fill:#44bba4;"/><path d="M1339.56,595.59h-1.88c-7.59,0-16.85-1.66-27.53-4.93-3.08-.92-5.7-2.44-7.75-4.49l-.12-.13c-2.73-2.99-4.18-6.45-4.31-10.28v-.73c0-4.88,2.25-9.2,6.52-12.51l.27-.19c2.57-1.67,5.34-2.59,8.23-2.72h.33c1.36,0,3.9.25,10.29,2.39,5.67,1.51,10.68,2.28,14.88,2.28h.91l.79-.07c3.52-.13,5.97-.91,6.76-2.15.52-1.16.72-2.01.79-2.59-.85-.86-4.35-3.59-17.87-8.67l-.1-.04c-6.56-2.66-12.3-5.64-17.06-8.85l-.25-.18c-4.69-3.72-7.48-6.57-8.75-8.94-3.4-4.96-5.23-10.26-5.46-15.78v-.16s0-1.34,0-1.34c0-7.77,2.39-15.18,7.09-22.01l.22-.29c2.99-3.6,5.36-5.86,7.42-7.08,5.96-3.91,12.31-6.01,18.88-6.24l3.35-.15h1.48c8.08,0,18.05,2.26,29.65,6.73,8.92,3.66,10.99,9.94,11.17,14.56v.6c0,4.92-2.28,9.3-6.59,12.66l-.22.16c-2.62,1.77-5.44,2.7-8.38,2.76h-.39c-2.58,0-5.94-.96-10.59-3.02-6.16-2.09-11.31-3.14-15.32-3.14h-.86l-.87.07c-3.9.13-4.22,1.4-4.34,1.88-.3,1.21-.37,1.78-.39,1.98l.02.31c.76.87,4.27,3.8,20.01,9.69l.16.06c5.8,2.47,10.98,5.24,15.39,8.25l.19.14c8.71,6.72,13.33,14.79,13.73,24v.17s0,1.93,0,1.93c0,5.54-1.63,11.53-4.85,17.78-1.1,2.39-3.45,5.26-7.37,9.01l-.12.11c-4.24,3.74-9.95,6.47-16.96,8.1l-.19.04c-2.95.54-5.2.82-6.89.88l-3.15.15ZM1308.14,580.59c1.11,1.09,2.53,1.88,4.34,2.42,9.94,3.04,18.41,4.58,25.21,4.58h1.69l3.02-.14c1.32-.04,3.22-.29,5.69-.74,5.62-1.32,10.11-3.42,13.33-6.23,4.2-4.03,5.3-5.92,5.59-6.55l.1-.2c2.66-5.14,4.01-9.92,4.01-14.2v-1.84c-.32-6.77-3.76-12.62-10.53-17.86-3.93-2.67-8.59-5.16-13.83-7.39-20.52-7.68-24.86-11.9-25.08-16.17l-.08-1.21c0-1,.2-2.27.64-4.01.72-2.83,3.19-7.6,11.72-7.92l1.07-.08h1.04c4.99,0,10.9,1.19,18.07,3.63l.34.13c4.86,2.17,6.87,2.4,7.5,2.4h.3c1.28-.03,2.58-.46,3.89-1.32,2.32-1.84,3.4-3.83,3.4-6.26v-.36c-.1-2.32-.92-5.23-6.13-7.37-10.59-4.08-19.6-6.16-26.69-6.16h-1.39l-3.15.15c-5.12.17-10.11,1.85-14.86,4.98l-.21.13c-.67.39-2.25,1.58-5.26,5.18-3.75,5.51-5.58,11.18-5.58,17.33v1.25c.18,4.08,1.55,7.9,4.18,11.68l.32.54c.22.45,1.33,2.23,6.56,6.39,4.27,2.86,9.46,5.54,15.43,7.97,18.97,7.14,22.88,11.15,23.03,15.31v.37c0,2.04-.53,4.19-1.62,6.57l-.14.27c-2.19,3.94-6.7,6.08-13.39,6.35l-1.02.08h-1.11c-4.93,0-10.68-.87-17.07-2.59l-.24-.07c-5.56-1.87-7.42-2.02-7.85-2.02h-.05c-1.39.08-2.71.52-4.02,1.34-2.25,1.79-3.29,3.72-3.29,6.09v.52c.08,1.85.78,3.5,2.16,5.03Z" style="fill:#44bba4;"/><path d="M864.35,483.58c8.91,0,17.1,3.46,24.57,10.39,6.38,6.29,9.58,11.63,9.58,16.04,0,3.91-1.81,7.15-5.42,9.73-2.03,1.24-4.13,1.86-6.31,1.86-4.55,0-8.24-2.5-11.06-7.5-3.51-4.8-7.38-7.2-11.58-7.2-3.07,0-6.53,1.14-10.39,3.42-1.98,1.58-3.49,3.24-4.53,4.97-3.46,6.04-5.2,13.31-5.2,21.83,0,9.9,2.33,18.06,6.98,24.5,1.68,2.52,4.78,4.38,9.28,5.57,2.87.74,5.35,1.11,7.42,1.11,4.11,0,6.9-1.38,8.39-4.16,2.52-2.92,5.59-4.38,9.21-4.38,3.91,0,7.15,1.81,9.73,5.42,1.24,2.03,1.86,4.13,1.86,6.31,0,4.8-3.39,9.68-10.17,14.62-5.64,3.66-11.95,5.49-18.93,5.49-7.97,0-16.01-2-24.13-6.01-8.27-4.7-14.58-12.82-18.93-24.35-2.67-7.87-4.01-15.69-4.01-23.46v-1.41c0-14.15,3.74-26.45,11.21-36.9,4.16-4.85,7.37-7.82,9.65-8.91,7.52-4.65,15.12-6.98,22.79-6.98Z" style="fill:#f2e863;"/><path d="M941.18,483.65h1.34c7.03,0,13.76,2.8,20.19,8.39,3.86,3.86,6.36,6.9,7.5,9.13,6.83,11.48,10.25,24.7,10.25,39.64,0,16.28-4.11,29.4-12.32,39.35-6.93,7.62-15.17,11.43-24.72,11.43h-.67c-8.51,0-16.43-2.87-23.76-8.61-4.31-4.11-6.58-6.58-6.83-7.42-2.62-3.61-4.6-7.13-5.94-10.54-3.17-8.17-4.75-16.73-4.75-25.69,0-15.94,4.16-29.65,12.47-41.13,2.77-3.37,5.39-5.96,7.87-7.79,6.24-4.5,12.69-6.76,19.38-6.76ZM924.78,539.33c0,9.4,2.15,17.08,6.46,23.01,3.17,3.96,7.18,5.94,12.03,5.94,6.68,0,11.09-6.21,13.21-18.63.45-3.17.67-6.11.67-8.83,0-10.64-2.28-19.9-6.83-27.77-2.67-4.06-5.57-6.09-8.69-6.09-6.04,0-10.94,5.57-14.7,16.7-1.44,5.15-2.15,10.37-2.15,15.66Z" style="fill:#f2e863;"/><path d="M1002.43,483.65c4.35,0,7.82,2.18,10.39,6.53.79,1.73,1.19,3.51,1.19,5.35v72.6l40.91-.96c2.13,0,4.45.94,6.98,2.82,2.77,2.57,4.16,5.57,4.16,8.98,0,3.96-1.88,7.23-5.64,9.8-1.48,1.19-4.73,1.78-9.73,1.78-28.66.69-44.82,1.04-48.48,1.04-4.06,0-7.38-1.95-9.95-5.87-1.04-1.83-1.56-3.83-1.56-6.01v-84.19c0-5,2.45-8.69,7.35-11.06,1.58-.54,3.04-.82,4.38-.82Z" style="fill:#f2e863;"/><path d="M1127.22,483.58c2.33,0,4.75.99,7.27,2.97,2.57,2.52,3.86,5.42,3.86,8.69,0,4.41-2.15,7.87-6.46,10.39-1.14.94-5.3,1.41-12.47,1.41l-24.87.45-.45,19.82h.07c8.76-.1,15.29-.15,19.6-.15,4.55,0,8.12,2.2,10.69,6.61.79,1.83,1.19,3.54,1.19,5.12,0,4.06-1.98,7.4-5.94,10.02-1.83,1.04-3.89,1.56-6.16,1.56-4.16,0-10.86.03-20.12.07l-.07.37-.37,16.18-.07.67c21.83-.94,33.41-1.41,34.74-1.41,4.06,0,7.37,1.96,9.95,5.87,1.04,1.88,1.56,3.81,1.56,5.79,0,4.11-2,7.5-6.01,10.17-1.58,1.09-5.22,1.63-10.91,1.63-.69.05-14.55.64-41.57,1.78-2.77,0-5.42-1.19-7.94-3.56-2.28-2.42-3.42-5.15-3.42-8.17,1.48-56.92,2.3-85.37,2.45-85.37.59-2.82,1.63-4.95,3.12-6.38,2.08-1.93,3.88-3.02,5.42-3.27,1.43-.49,8.31-.74,20.64-.74.79-.05,9.55-.22,26.28-.52Z" style="fill:#f2e863;"/><path d="M1184.98,483.65h1.48c5.59,0,11.01.99,16.26,2.97,4.35,2.67,6.53,6.21,6.53,10.62s-2.15,7.62-6.46,10.25c-1.88.84-3.66,1.26-5.35,1.26-.99,0-3.24-.47-6.76-1.41-1.78-.25-3.49-.37-5.12-.37-6.38,0-12.1,2.08-17.15,6.24-3.02,3.51-5.07,8.61-6.16,15.29-.55,3.46-.82,6.93-.82,10.39v.37c0,10.89,2.15,19.35,6.46,25.39,1.58,1.73,2.92,2.6,4.01,2.6,2.28.69,4.73,1.04,7.35,1.04h.3c7.52,0,12.12-4.06,13.81-12.17.2-1.09.35-2.72.45-4.9-.05-.35-.07-.84-.07-1.48-.25-.1-.5-.15-.74-.15h-.82c-1.83,0-4.53.45-8.09,1.34-.5.1-.99.15-1.48.15-3.91,0-7.15-1.81-9.73-5.42-1.24-2.03-1.86-4.13-1.86-6.31,0-3.96,1.9-7.28,5.72-9.95,1.04-.69,3.27-1.44,6.68-2.23,3.12-.59,5.62-.89,7.5-.89h2.38c5.89,0,11.23,1.96,16.04,5.86,5.2,4.8,7.79,11.14,7.79,19,0,11.63-3.59,21.41-10.76,29.32-3.86,3.76-6.95,6.09-9.28,6.98-5.49,2.77-11.04,4.16-16.63,4.16h-2.3c-5.3,0-10.99-1.14-17.07-3.42-7.97-3.66-14.06-10.81-18.26-21.46-3.12-8.61-4.68-17.37-4.68-26.28v-2.6c0-10.99,2.23-21.31,6.68-30.96,4.11-8.56,11.16-14.97,21.16-19.23,6.48-2.67,12.82-4.01,19-4.01Z" style="fill:#f2e863;"/><path d="M1262.04,483.95h.07c7.08,0,12.62,5.47,16.63,16.41,5.69,14.5,12.35,38.38,19.97,71.64,1.04,4.01,1.56,6.68,1.56,8.02,0,4.31-2.2,7.77-6.61,10.39-1.83.79-3.54,1.19-5.12,1.19-4.06,0-7.42-2-10.1-6.01-.59-.74-1.73-5.07-3.42-12.99-.94-3.96-1.46-5.94-1.56-5.94h-.15c-1.73,0-10.2.4-25.39,1.19-.2.2-1.53,4.95-4.01,14.25-.94,2.77-2.77,4.95-5.49,6.53-1.88.94-3.74,1.41-5.57,1.41-3.91,0-7.15-1.81-9.73-5.42-1.24-2.03-1.86-4.13-1.86-6.31,0-2.77,4.92-20.51,14.77-53.23,5.64-17.77,10.52-29.47,14.62-35.11,3.31-4.01,7.1-6.01,11.36-6.01ZM1254.61,543.86c.05.15.07.25.07.3,7.08-.45,11.38-.67,12.92-.67.05-.1.07-.17.07-.22-2.23-8.36-4.21-15.34-5.94-20.93h-.07c-.2,0-2.03,5.49-5.49,16.48-.84,3.02-1.36,4.7-1.56,5.05Z" style="fill:#f2e863;"/><path d="M1332.04,483.87l3.19-.15h1.48c7.62,0,17.02,2.15,28.21,6.46,5.54,2.28,8.41,5.94,8.61,10.99v.45c0,3.71-1.68,6.88-5.05,9.5-1.98,1.34-4.06,2.03-6.24,2.08h-.3c-1.98,0-5.02-.92-9.13-2.75-6.68-2.28-12.27-3.42-16.78-3.42h-1.04l-.82.07c-4.6.15-7.3,1.78-8.09,4.9-.35,1.39-.52,2.4-.52,3.04l.07.96c.1,2.87,7.62,7.1,22.57,12.69,5.59,2.38,10.49,5,14.7,7.87,7.77,5.99,11.83,12.99,12.18,21.01v1.93c0,4.95-1.48,10.29-4.45,16.04-.84,1.88-3.02,4.5-6.53,7.87-3.76,3.32-8.83,5.72-15.22,7.2-2.72.5-4.83.77-6.31.82l-3.12.15h-1.78c-7.23,0-16.01-1.58-26.35-4.75-2.48-.74-4.5-1.91-6.09-3.49-2.08-2.28-3.17-4.85-3.27-7.72v-.59c0-3.66,1.66-6.78,4.97-9.35,1.98-1.29,4.06-1.98,6.24-2.08h.15c1.68,0,4.73.74,9.13,2.23,6.09,1.63,11.43,2.45,16.04,2.45h1.11l.74-.07c5.3-.2,8.69-1.63,10.17-4.31.84-1.83,1.26-3.46,1.26-4.9v-.22c-.1-2.72-6.93-6.63-20.49-11.73-6.34-2.57-11.78-5.39-16.33-8.46-4.31-3.42-6.9-6.04-7.79-7.87-3.07-4.4-4.7-9.03-4.9-13.88v-1.34c0-6.98,2.13-13.56,6.38-19.75,2.67-3.22,4.83-5.3,6.46-6.24,5.39-3.56,11.04-5.44,16.93-5.64Z" style="fill:#f2e863;"/><path d="M1077.24,711.59h-.59c-8.55,0-15.42-4.54-19.34-12.78l-.32-.67-.21-.72c-.77-2.71-1.09-4.45-1.09-6.04v-.12c1.12-84.94,1.27-85.83,1.46-86.96l.04-.23c.87-4.49,2.7-8.16,5.45-10.91,4.06-4.61,10.81-6.85,20.61-6.85h.67c16.73,0,30.94,5.02,42.24,14.93l.19.17c12.3,11.43,18.54,27.28,18.54,47.13,0,24-9.88,42.01-29.36,53.55l-.33.19c-11.52,6.18-24.29,9.31-37.96,9.31ZM1073.87,691.69c1.05,1.9,1.89,1.9,2.77,1.9h.59c10.6,0,20.45-2.38,29.28-7.08,13.7-8.18,20.37-20.6,20.37-37.96,0-14.79-4.15-25.86-12.7-33.85-8.01-6.98-17.91-10.38-30.27-10.38h-.67c-4.89,0-6.8.74-7.28.97l-.16.2-.44.41h0s-.2.29-.4,1.1c-.12,3.39-.45,21.37-1.28,83.97.03.15.09.38.17.72ZM1088.15,687.09h-9.14l1.03-68.09v-8.93l9-.07c4.18,0,9.01,1.29,14.76,3.95l.35.17c14.4,7.42,17.43,22.82,17.43,34.43,0,20.29-10.41,29.78-19.14,34.17l-.46.22c-7.95,3.45-11.28,4.16-13.83,4.16ZM1097.86,631.34l-.5,33.44c3.3-2.56,6.22-7.05,6.22-16.23,0-10.93-3.29-15.31-5.72-17.21Z"/><path d="M1157.68,711.59h-.19c-3.53,0-8.84-1.04-14.11-6.01l-.39-.39c-3.83-4.08-5.86-9.03-5.86-14.33v-.23c.74-28.34,1.32-49.89,1.73-64.05.21-7.14.37-12.49.49-16.05.06-1.82.11-3.19.15-4.1.05-1.03.17-1.95.36-2.77l-.09-.02c.97-4.6,2.88-8.3,5.67-11l.13-.12c3.15-2.92,6.18-4.69,9.25-5.39,1.77-.53,5.2-1.02,22.72-1.03,1-.04,4.94-.14,26.33-.52h.16c4.38,0,8.69,1.64,12.83,4.89l.39.31.36.35c4.29,4.21,6.56,9.43,6.56,15.11,0,7.43-3.72,13.78-10.49,17.91-3.12,2.14-7.76,2.89-17.36,2.9l-16.15.29-.04,1.88c4.33-.04,7.79-.06,10.47-.06,7.73,0,14.29,3.93,18.46,11.07l.28.47.22.5c1.28,2.96,1.93,5.88,1.93,8.69,0,4.98-1.73,12.07-9.97,17.53l-.53.33c-.5.28-1,.54-1.51.78,3.4-.13,4.56-.16,5.01-.16,7.05,0,13.25,3.52,17.46,9.92l.36.6c1.78,3.22,2.68,6.63,2.68,10.14,0,5-1.73,12.11-9.98,17.63-3.24,2.2-7.95,3.15-15.69,3.17-1.31.07-7.41.34-41.45,1.77h-.19ZM1155.93,692.67c.6.53,1.16.87,1.49.92,32.55-1.37,40.3-1.71,41.06-1.76l.32-.02h.26c3.92,0,5.72-.29,6.37-.43,1.56-1.15,1.56-1.88,1.56-2.37,0-.24-.03-.61-.29-1.16-1.07-1.5-1.72-1.5-2.21-1.5-.94,0-7.68.25-34.36,1.4l-10.5.45,1.2-10.72.38-16.57,1.67-8.34,7.34-.04c9.28-.05,16-.07,20.17-.07.73,0,1.2-.14,1.5-.28,1.6-1.14,1.6-1.83,1.6-2.31,0-.04,0-.38-.25-1.06-1.1-1.67-1.91-1.67-2.63-1.67-4.22,0-10.78.05-19.5.15h-.1s-9.2,0-9.2,0l.13-9.2.64-28.46,33.67-.6c5.14,0,7.42-.26,8.29-.4,1.64-1.05,1.64-1.77,1.64-2.4,0-.38,0-.98-.84-1.92-.79-.56-1.23-.7-1.35-.73-20.97.37-25.13.48-25.74.5l-.28.02h-.21c-13.31,0-17.2.3-18.22.42l-.4.11c-.22.14-.61.43-1.17.94-.02.04-.23.41-.46,1.29-.17,3.42-.73,21.42-2.37,84.1,0,.34.07.88.79,1.71ZM1205.73,691.3h0ZM1157.43,607.15c-.01.06-.03.13-.04.2l-.07.32c.04-.17.08-.34.11-.51ZM1159.34,604.5h0ZM1160.05,604.35l-.12.04s.08-.03.12-.04Z"/><path d="M1077.24,706.59h-.59c-4.61,0-10.92-1.72-14.82-9.93l-.14-.3-.09-.32c-.63-2.2-.9-3.59-.9-4.66,1.12-84.61,1.28-85.6,1.39-86.25l.02-.1c.68-3.55,2.1-6.38,4.19-8.44,3.05-3.55,8.6-5.27,16.96-5.27h.67c15.48,0,28.58,4.6,38.94,13.69l.09.08c11.24,10.44,16.94,25.07,16.94,43.46,0,22.1-9.05,38.67-26.91,49.25l-.15.08c-10.78,5.78-22.76,8.71-35.59,8.71ZM1069.19,693.52c1.75,3.51,4.06,5.08,7.46,5.08h.59c11.47,0,22.15-2.6,31.74-7.73,15.42-9.16,22.91-23,22.91-42.32,0-16.29-4.69-28.57-14.35-37.56-8.85-7.74-20.16-11.66-33.62-11.66h-.67c-8,0-10.31,1.77-10.93,2.54l-.37.39c-.91.86-1.57,2.23-1.96,4.09-.11,2.15-.43,18.99-1.3,85.02.01.12.08.69.49,2.17ZM1088.15,682.09h-4.06l1.01-67.02,3.94-.07c3.44,0,7.58,1.14,12.66,3.49l.15.08c9.76,5.03,14.71,15.12,14.71,29.99s-5.51,24.24-16.38,29.71l-.2.1c-7.61,3.3-10.25,3.75-11.84,3.75ZM1092.97,623.68l-.74,49.2c1.16-.43,2.62-1.02,4.47-1.82,7.99-4.06,11.88-11.43,11.88-22.51,0-11.75-3.37-19.22-10.3-22.83-2.14-.98-3.88-1.63-5.3-2.04Z" style="fill:#44bba4;"/><path d="M1157.58,706.59h-.08c-3.81,0-7.41-1.56-10.69-4.65l-.17-.17c-2.99-3.18-4.5-6.85-4.5-10.91v-.1c.74-28.34,1.32-49.88,1.73-64.04.2-7.12.37-12.47.49-16.03.06-1.8.11-3.14.15-4.04.03-.76.13-1.41.26-1.96l-.09-.02c.76-3.6,2.19-6.44,4.25-8.44,2.61-2.43,4.96-3.82,7.21-4.27,1.18-.36,4.19-.86,21.52-.86.62-.03,3.57-.12,26.32-.52h.07c3.23,0,6.51,1.29,9.74,3.82l.33.29c3.36,3.29,5.06,7.18,5.06,11.54,0,4.02-1.43,9.64-8.23,13.72-1.81,1.29-5.13,2.08-14.7,2.08l-20.96.38-.27,11.85c6.78-.07,12-.1,15.58-.1,5.97,0,10.86,2.97,14.14,8.59l.22.43c1.01,2.33,1.52,4.58,1.52,6.71,0,3.76-1.34,9.12-7.73,13.36l-.24.14c-2.43,1.38-5.17,2.08-8.14,2.08-3.56,0-8.98.02-16.27.05l-.21,9.06c25.59-1.1,29.75-1.23,30.59-1.23,3.76,0,9.12,1.33,13.29,7.67l.16.26c1.37,2.47,2.06,5.07,2.06,7.72,0,3.79-1.35,9.2-7.79,13.5-2.29,1.58-6.32,2.3-13.01,2.31-.77.04-5.29.25-41.53,1.78h-.08ZM1152.38,696.2c1.71,1.58,3.36,2.37,5.04,2.39,33.11-1.39,40.78-1.73,41.37-1.77h.28c7.04,0,8.6-.91,8.66-.95,3.83-2.55,4.27-5.14,4.27-6.87,0-1.26-.32-2.48-.99-3.72-2.37-3.52-4.85-3.93-6.52-3.93-1.24,0-12.87.47-34.57,1.41l-4.67.2.57-5.13.38-16.36.78-3.91,3.26-.02c9.26-.05,15.98-.07,20.14-.07,1.54,0,2.87-.32,4.07-.97,3.61-2.44,4.03-4.93,4.03-6.61,0-.97-.26-2.08-.77-3.31-1.84-3.05-4.05-4.42-7.11-4.42-4.24,0-10.82.05-19.55.15h-4.21l.62-27.75,28.71-.51c7.42,0,9.69-.53,10.24-.7l.28-.16c3.1-1.82,4.48-3.96,4.48-6.94,0-2.13-.8-3.94-2.51-5.68-1.71-1.3-3.26-1.97-4.6-1.98-21.55.38-25.58.49-26.07.51h-.24c-15.53,0-18.77.42-19.42.56l-.24.08-.34.06c-.19.03-1.21.28-3.34,2.25-.81.79-1.46,2.18-1.89,4.11-.15,2.23-.69,19.12-2.4,84.77.01,1.93.75,3.66,2.25,5.29ZM1206.55,613.29h0ZM1152.51,606.26s0,.03-.01.05l-.03.14c.02-.06.03-.13.04-.19ZM1158.42,599.62h-.01s0,0,.01,0Z" style="fill:#44bba4;"/><path d="M1083.92,595.32c14.55,0,26.65,4.23,36.3,12.69,10.44,9.7,15.66,23.21,15.66,40.53,0,20.69-8.31,35.96-24.94,45.8-10.24,5.49-21.48,8.24-33.7,8.24h-.59c-5.05,0-8.79-2.55-11.21-7.65-.5-1.73-.74-2.92-.74-3.56.74-56.17,1.19-84.71,1.34-85.6.54-2.82,1.61-4.97,3.19-6.46,2.18-2.67,6.85-4.01,14.03-4.01h.67ZM1089.04,619v.07l-.89,59.02c1.58,0,5-1.14,10.25-3.42,9.45-4.75,14.18-13.46,14.18-26.13,0-13.31-4.18-22.12-12.55-26.43-4.5-2.08-8.17-3.12-10.99-3.12Z" style="fill:#f45b69;"/><path d="M1204.04,594.58c2.33,0,4.75.99,7.27,2.97,2.57,2.52,3.86,5.42,3.86,8.69,0,4.41-2.15,7.87-6.46,10.39-1.14.94-5.3,1.41-12.47,1.41l-24.87.45-.45,19.82h.07c8.76-.1,15.29-.15,19.6-.15,4.55,0,8.12,2.2,10.69,6.61.79,1.83,1.19,3.54,1.19,5.12,0,4.06-1.98,7.4-5.94,10.02-1.83,1.04-3.89,1.56-6.16,1.56-4.16,0-10.86.03-20.12.07l-.07.37-.37,16.18-.07.67c21.83-.94,33.41-1.41,34.74-1.41,4.06,0,7.37,1.96,9.95,5.87,1.04,1.88,1.56,3.81,1.56,5.79,0,4.11-2,7.5-6.01,10.17-1.58,1.09-5.22,1.63-10.91,1.63-.69.05-14.55.64-41.57,1.78-2.77,0-5.42-1.19-7.94-3.56-2.28-2.42-3.42-5.15-3.42-8.17,1.48-56.92,2.3-85.37,2.45-85.37.59-2.82,1.63-4.95,3.12-6.38,2.08-1.93,3.88-3.02,5.42-3.27,1.43-.49,8.31-.74,20.64-.74.79-.05,9.55-.22,26.28-.52Z" style="fill:#f45b69;"/><path d="M975.7,817.59h-.67c-3.87,0-9.07-1.19-14.18-6.03-5.21,2.28-10.63,3.43-16.18,3.43h-.89c-10.96,0-20.89-4.65-29.5-13.83-3.7-4-6.85-8.68-9.41-13.97l-.09-.18c-5.37-11.77-8.09-24.34-8.09-37.36v-1.48c0-18.3,4.99-33.47,14.83-45.09l.51-.55c4.27-4.27,7.49-6.81,10.33-8.14,6.36-3.54,12.64-5.33,18.68-5.33h3.56c7.1,0,14.56,2.12,22.16,6.31l.2.11c10.03,5.86,17.61,15.62,22.54,29.01l.07.19c2.74,7.99,4.12,16.71,4.12,25.93,0,10.24-1.73,20.12-5.13,29.44,4.64,6.23,6.17,8.92,6.61,11.23.5,1.76.75,3.49.75,5.14v.96c0,7.6-4.11,14.04-11.58,18.14l-.5.27-.53.21c-2.72,1.07-5.21,1.59-7.6,1.59ZM960.23,791.2h2.71c2.5,0,4.89,1.02,6.73,2.86l.68.68.52.81c1.8,2.79,3.39,4.05,4.17,4.05h.59c.07-.01.25-.05.57-.15,1.72-1.05,1.72-1.7,1.72-2.06v-.94s-.03-.11-.11-.38c-.5-.83-2.06-3.18-6.65-9.17l-3.24-4.23,2.15-4.88c3.73-8.46,5.62-17.6,5.62-27.18,0-7.19-1.05-13.92-3.12-20-3.48-9.4-8.25-15.79-14.6-19.54-4.87-2.67-9.37-4.02-13.37-4.02h-3.56c-3.01,0-6.43,1.08-10.18,3.21l-.48.27-.4.17c-.25.15-1.67,1.03-4.95,4.29-6.95,8.36-10.33,19.22-10.33,33.18v1.48c0,10.4,2.16,20.42,6.42,29.8,1.77,3.64,3.9,6.82,6.33,9.44,5.11,5.44,10.46,8.1,16.34,8.1h.89c4.57,0,8.92-1.41,13.3-4.3l2.26-1.49ZM944.74,791.61h-.52c-4.02,0-9.93-1.63-15.28-9.39l-.23-.35c-5.78-9.28-8.71-20.37-8.71-32.97,0-3.13.25-6.52.76-10.09l.04-.26c3.69-21.65,13.97-26.19,21.94-26.19s14.23,3.2,19.16,9.26l.4.54c5.36,7.7,8.07,17.19,8.07,28.23,0,1.99-.18,4.81-.56,8.61l-.81,8.11h-13.27l-2.67-4.02c-1.4-2.11-2.86-3.47-3.71-3.47h-.67s-.26,0-.81.21c-1.55,1.12-1.55,1.78-1.55,2.08v.39l.22.88c.38.69,1.3,2.16,3.34,4.75,6.52,8.31,7.87,10.04,7.87,13.59v5.81l-5.29,2.47c-2.74,1.24-5.26,1.84-7.71,1.84ZM940.92,785.86h0,0ZM946.29,762.66h0ZM938.57,741.46c-.15,1.09-.27,2.14-.36,3.17.16-.11.32-.21.48-.32l.53-.34.58-.26c3.01-1.38,6-2.08,8.88-2.08h.67c.68,0,1.4.04,2.15.12-.76-3.4-2.01-6.38-3.77-9-1.44-1.68-2.91-2.37-4.99-2.37-.08,0-.12,0-.12,0h0s-2.44,1.72-4.06,11.09Z"/><path d="M1036.06,817.59h-2.75c-6.73,0-13.85-2.3-21.16-6.85l-.53-.35c-16.95-12.28-25.55-33.02-25.55-61.63v-4.6c0-7.91-.22-17.48-.66-28.45v-.36c0-4.77,1.58-11.6,9.12-17.08l.6-.4c3.45-2.1,7.15-3.17,10.99-3.17,4.76,0,11.52,1.59,16.9,9.13,2.65,3.37,3.81,8.41,3.83,16.64.35,6.77.52,14.62.52,23.33v4.01c0,17.68,3.82,25.1,7.14,28.2.38-.4.92-1.04,1.59-2.06.84-1.45,1.56-3.2,2.16-5.2.88-3.55,1.32-8.27,1.32-14.04v-.4c.65-14.44,1.14-28.94,1.49-43.1l.05-.75c.34-3.13,1.45-6.28,3.31-9.38l.28-.47.34-.43c4.34-5.57,10.13-8.52,16.75-8.52,4.69,0,11.42,1.58,16.9,9.08,1.83,2.47,2.97,5.68,3.6,10.09l.11.75-.02.76c-.54,18.65-1.01,32.85-1.38,42.19-.19,4.72-.36,8.32-.5,10.71-.08,1.34-.16,2.34-.23,3.01-.04.4-.1.78-.17,1.14-.15,1.79-.71,4.92-2.78,12.65l-.18.59c-1.33,3.88-2.91,7.58-4.7,10.99l-.06.11c-1.62,3-4.04,6.3-7.39,10.11l-.44.47c-4.19,4.12-7.33,6.59-10.1,7.93-6.47,3.55-12.66,5.35-18.41,5.35ZM1021.93,795.62c4.3,2.63,8.13,3.97,11.38,3.97h2.75c2.74,0,6.08-1.09,9.95-3.24l.73-.36h0s1.36-.74,4.97-4.27c2.82-3.24,4.19-5.32,4.85-6.52,1.31-2.5,2.48-5.23,3.48-8.12,1.74-6.53,2.07-8.58,2.14-9.09v-8.78h.64c.32-7.15.82-20.79,1.57-46.56-.14-.82-.28-1.29-.35-1.5-1.14-1.49-1.81-1.49-2.21-1.49-.5,0-1.18,0-2.21,1.17-.34.63-.48,1.08-.54,1.35-.34,14.05-.84,28.42-1.47,42.73-.01,7.35-.64,13.38-1.91,18.41l-.09.33c-1.05,3.58-2.42,6.81-4.08,9.62l-.21.33c-4.62,7.1-10.06,10.69-16.15,10.69h-.82c-3.8,0-7.5-1.4-11-4.17l-.31-.26c-9.18-7.96-13.65-21.71-13.65-42.07v-4.01c0-8.5-.17-16.11-.51-22.62v-.46c-.01-3.96-.33-5.77-.49-6.41-1.13-1.59-1.81-1.59-2.25-1.59-.3,0-.71.05-1.33.38-1.26.99-1.38,1.64-1.39,2.13.44,11.12.67,20.86.67,28.95v4.6c0,22.68,5.84,38.01,17.85,46.87ZM1062.17,768.17v.04-.04Z"/><path d="M1142.74,817.59c-4.92,0-11.91-1.7-17.4-9.75-1.36-1.82-2.3-4.23-4.6-14.93-2.74.13-6.54.31-11.79.58-.52,1.9-1.21,4.46-2.13,7.91l-.18.58c-1.63,4.81-4.91,8.76-9.49,11.42l-.5.27c-3.13,1.57-6.36,2.36-9.6,2.36-4.79,0-11.64-1.6-17.06-9.2l-.35-.53c-2.11-3.45-3.17-7.15-3.17-11,0-2.31,0-5.49,15.16-55.82l.04-.13c6.08-19.14,11.14-31.11,15.93-37.69l.34-.44c6.34-7.67,13.45-9.28,18.29-9.28h.07c7.7,0,18.28,3.86,25.04,22.21,5.89,15.05,12.54,38.83,20.3,72.7,1.6,6.18,1.81,8.6,1.81,10.15,0,7.46-3.91,13.9-11,18.13l-.5.3-.53.23c-2.96,1.28-5.88,1.93-8.69,1.93ZM1140.5,798.11c1.12,1.48,1.81,1.48,2.24,1.48.04,0,.37,0,1.03-.24,1.59-1.06,1.69-1.76,1.7-2.24-.03-.29-.2-1.71-1.27-5.85l-.06-.25c-7.49-32.67-14.07-56.34-19.58-70.36l-.07-.19c-1.44-3.92-4.41-10.5-8.18-10.5h-.07c-.63,0-2.07,0-4.25,2.54-2.44,3.46-6.67,11.88-13.14,32.25-11.88,39.44-14.03,48.68-14.36,50.82.03.28.12.64.38,1.12,1.05,1.36,1.7,1.36,2.19,1.36.35,0,.78-.11,1.28-.34.75-.48,1.03-.92,1.18-1.3q4.23-15.92,6.24-17.93l2.44-2.44,3.45-.18c20.44-1.06,24.56-1.2,25.86-1.2h.15c3.2,0,7.39,1.42,9.17,8.2.27,1.04.65,2.59,1.15,4.66l.05.21c1.44,6.79,2.17,9.43,2.47,10.4ZM1099.88,770.74v-8.22l-.86-2.65,1.63-2.86c.15-.48.47-1.51,1.05-3.61l.09-.29c1.74-5.51,3.09-9.72,4.02-12.5,1.68-5.05,3.42-10.27,10.06-10.27h6.63l2.04,6.34c1.76,5.68,3.79,12.84,6.04,21.28l.3,1.14v1.18c0,1.45-.34,2.86-1.01,4.22l-2.48,5.01h-5.59c-.75,0-3.36.08-12.35.65l-9.57.6ZM1100.53,757.36h0s0,0,0,0Z"/><path d="M1171.84,817.59c-4.84,0-11.7-1.62-17.02-9.3-1.78-2.4-2.92-5.49-3.47-9.45l-.09-.62v-.62c0-.83.02-1.62.07-2.37-.2-43.83-.3-71.16-.3-81.22,0-4.79,1.68-11.67,9.67-17.2,2.38-1.65,5.74-2.73,11.59-3.7l.18-.03c6.49-.95,12.33-1.43,17.34-1.43h1.71c20.29,0,35.48,6.41,45.16,19.04l.3.42c4.97,7.33,7.49,15.65,7.49,24.72,0,13.79-6.06,25.63-17.58,34.5,8.39,5.92,9.15,6.59,9.69,7.05l.37.35c4.29,4.21,6.56,9.41,6.56,15.04,0,4.83-1.6,11.72-9.2,17.13l-.53.35c-3.45,2.11-7.15,3.17-11,3.17-4.88,0-9.92-2.03-14.98-6.03l-15.18-10.7c-.43,9.45-5.3,16.41-13.82,19.69l-.52.2-.54.13c-2.35.59-4.23.86-5.9.86ZM1169.48,797.85l.08.11c1.05,1.55,1.69,1.62,2.2,1.63.1-.01.42-.05,1.06-.19,1.02-.45,1.83-1.16,1.83-4.1v-3.34c0-3.08-.05-7.24-.15-12.38l-.17-9.17h12.25l32.25,22.77c2.67,2.15,3.93,2.25,3.95,2.25.3,0,.72-.05,1.36-.39,1.36-1.05,1.36-1.72,1.36-2.26,0-.36,0-.95-.91-1.93-.79-.61-3.45-2.56-12.42-8.85-2.37-1.6-4.11-2.81-5.33-3.69-2.18-1.57-5.47-3.94-5.47-8.69v-5.78l5.25-2.41c2.54-1.17,4.71-2.3,6.45-3.37,9.14-5.88,13.39-12.94,13.39-22.23,0-5.39-1.39-10.11-4.24-14.41-6.19-7.93-16.24-11.78-30.71-11.78h-1.71c-4.12,0-9.05.41-14.64,1.23-2.8.47-4.11.85-4.6,1.01-1.53,1.16-1.53,1.83-1.53,2.12,0,10.06.1,37.47.3,81.47v.37s-.03.37-.03.37c-.02.23-.03.47-.04.74.08.46.16.74.21.9ZM1170.33,711.98h0ZM1170.96,711.6s0,0-.01,0c0,0,0,0,.01,0ZM1183.49,761.25h-9l-.07-9.82c0-6.28-.03-15.3-.07-27.06l-.03-8.07,8.02-.91c2.51-.28,5.34-.43,8.44-.43,7.46,0,13.55.99,18.63,3.02,7.51,2.99,11.82,9.47,11.82,17.79,0,6.17-2.62,11.54-7.58,15.54l-.25.19c-3.29,2.47-7.1,4.48-11.31,5.96l-.35.11c-8.12,2.5-13.92,3.67-18.24,3.67ZM1192.38,732.98c.01,3.1.02,5.96.03,8.57,1.15-.31,2.43-.68,3.85-1.12,2.36-.85,4.44-1.93,6.2-3.23.77-.65.77-1,.77-1.44s-.04-.73-.08-.87c-.08-.05-.21-.12-.41-.2-2.58-1.03-6.05-1.6-10.36-1.72Z"/><path d="M1281.41,817.59c-7.53,0-13.97-3.89-18.14-10.96l-.43-.83c-1.33-2.91-2-5.96-2-9.09v-63.5c-4.23-.07-7.68-.14-10.31-.22-2.24-.07-3.9-.13-5.08-.21-1.45-.09-2.69-.34-3.76-.69l-.02.06c-5.33-1.72-9.31-4.74-11.84-8.97-2.09-3.44-3.15-7.12-3.15-10.96,0-7.28,3.69-13.6,10.38-17.8l.66-.38c2.76-1.42,5.73-2.23,8.82-2.4l.32-.02h.32c23.57.38,41.51.68,53.32.92,5.95.12,10.42.22,13.4.3,1.55.04,2.71.08,3.48.12,1.13.05,2.14.21,3.02.46l.02-.07c5.35,1.44,9.47,4.11,12.24,7.95l.29.43c2.42,3.79,3.64,7.76,3.64,11.82,0,7.29-3.67,13.59-10.33,17.74l-.65.37c-3.2,1.64-6.33,2.48-9.3,2.48h-.16c-5.7-.1-10.38-.19-14-.25v62.81c0,8.47-4.41,15.28-12.42,19.16l-.49.24-.51.18c-2.52.87-4.98,1.31-7.31,1.31ZM1279.05,797.93c1.09,1.66,1.79,1.66,2.37,1.66.09,0,.39-.01.95-.17,1.78-.98,1.78-1.75,1.78-2.71v-80.94h9c1.77,0,9.32.12,23.06.37.11-.03.39-.11.86-.33,1.53-1.03,1.53-1.67,1.53-2.25,0-.5-.21-1.11-.62-1.81-.21-.2-.69-.51-1.55-.8-3.23-.14-17.14-.49-69.12-1.3-.37.04-.71.13-1.04.27-1.58,1.08-1.58,1.75-1.58,2.31,0,.34.06.84.54,1.62l.05.09c.17.28.68.61,1.39.89,1.76.11,7.1.32,23.27.5l8.9.1v81.28c0,.41.07.81.22,1.22ZM1316.14,716.16h0ZM1247.22,715.03l.28.09c-.09-.03-.19-.06-.28-.09ZM1315.36,710.65c.21.07.43.13.64.17-.08-.02-.17-.05-.25-.07l-.39-.1Z"/><path d="M1365.45,817.59h-.67c-10.54,0-20.4-3.54-29.31-10.53l-.66-.57c-5.18-4.94-7.35-7.38-8.43-9.39-2.8-3.96-4.99-7.93-6.5-11.81-3.57-9.19-5.37-18.93-5.37-28.96,0-17.8,4.77-33.41,14.18-46.41l.34-.44c3.27-3.97,6.37-7.02,9.46-9.31l.08-.06c7.77-5.61,16.07-8.46,24.65-8.46h1.34c9.23,0,18.01,3.57,26.1,10.6l.46.43c4.49,4.5,7.36,8.04,9,11.11,7.55,12.79,11.38,27.6,11.38,44.03,0,18.35-4.84,33.52-14.38,45.08l-.28.32c-8.67,9.54-19.23,14.38-31.38,14.38ZM1346.91,793.15c5.64,4.33,11.5,6.44,17.87,6.44h.67c6.9,0,12.76-2.72,17.92-8.33,6.81-8.34,10.13-19.29,10.13-33.45,0-13.24-3.02-25.02-8.98-35.04l-.28-.5c-.24-.48-1.37-2.36-5.62-6.63-4.71-4.03-9.31-5.98-14.06-5.98h-1.34c-4.77,0-9.37,1.64-14.06,5.02-1.81,1.35-3.85,3.38-6.06,6.04-7.13,9.95-10.6,21.61-10.6,35.62,0,7.8,1.39,15.35,4.14,22.43,1.04,2.67,2.67,5.54,4.83,8.51l.95,1.37c.61.69,1.9,2.05,4.48,4.52ZM1365.3,794.28c-7.59,0-14.18-3.22-19.06-9.32l-.26-.34c-5.42-7.48-8.17-17-8.17-28.3,0-6.09.84-12.17,2.48-18.08l.14-.46c5.11-15.14,12.93-22.82,23.23-22.82,4.35,0,10.68,1.76,16.2,10.14l.27.44c5.33,9.22,8.04,20.08,8.04,32.27,0,3.13-.25,6.52-.76,10.09l-.04.27c-3.7,21.58-14.05,26.11-22.08,26.11ZM1360.43,773.88c1.41,1.7,2.84,2.4,4.87,2.4.13,0,.18-.01.18-.01.02,0,2.49-1.53,4.14-11.01.37-2.69.56-5.19.56-7.45,0-8.88-1.84-16.62-5.48-23.02-.62-.91-1.09-1.42-1.39-1.7-.94.55-3.25,2.97-5.73,10.22-1.17,4.26-1.76,8.64-1.76,13.02,0,7.32,1.55,13.22,4.62,17.55Z"/><path d="M975.7,812.59h-.67c-4.85,0-9.22-2.4-13.05-7.15-5.54,3.02-11.35,4.55-17.32,4.55h-.89c-9.52,0-18.22-4.12-25.86-12.25-3.34-3.61-6.21-7.88-8.55-12.73-5.1-11.19-7.67-23.07-7.67-35.37v-1.48c0-17.08,4.59-31.16,13.64-41.86l.22-.24c3.89-3.89,6.78-6.19,9.06-7.22,5.67-3.18,11.19-4.79,16.41-4.79h3.56c6.25,0,12.89,1.92,19.75,5.69l.09.05c9,5.26,15.85,14.15,20.37,26.42,2.59,7.55,3.88,15.73,3.88,24.4,0,10.58-1.95,20.73-5.8,30.23,6.2,8.19,7.23,10.29,7.4,11.59.42,1.39.63,2.73.63,3.99v.96c0,4.03-1.56,9.68-8.98,13.75l-.46.21c-2.12.84-4.01,1.24-5.77,1.24ZM961.73,796.2h1.2c.82,0,2.05.24,3.2,1.39l.3.3.23.36c2.71,4.2,5.53,6.33,8.37,6.33h.67c.47,0,1.3-.11,2.6-.6,4.12-2.34,4.61-4.89,4.61-6.61v-.96c0-.55-.13-1.23-.39-2l-.14-.43c-.41-.76-1.89-3.13-7.26-10.13l-1.44-1.88.96-2.17c4.01-9.09,6.04-18.92,6.04-29.19,0-7.78-1.15-15.09-3.42-21.72-3.82-10.38-9.49-17.87-16.82-22.17-5.64-3.1-10.97-4.67-15.84-4.67h-3.56c-3.88,0-8.14,1.3-12.65,3.86l-.44.21c-.58.24-2.37,1.26-6.61,5.48-7.73,9.19-11.64,21.49-11.64,36.56v1.48c0,11.15,2.33,21.91,6.92,31.97,1.96,4.05,4.38,7.66,7.16,10.67,6.13,6.52,12.68,9.71,20,9.71h.89c5.58,0,10.84-1.68,16.06-5.13l1-.66ZM982.5,794.23h0ZM944.74,786.61h-.52c-4.1,0-7.86-2.43-11.16-7.22l-.1-.16c-5.28-8.48-7.95-18.68-7.95-30.33,0-2.9.24-6.06.71-9.39l.02-.12c2.49-14.62,8.22-22.04,17.01-22.04,6.14,0,11.28,2.5,15.28,7.42l.18.24c4.76,6.84,7.18,15.38,7.18,25.37,0,1.83-.18,4.48-.54,8.12l-.36,3.6h-6.06l-1.19-1.79c-3.79-5.71-6.87-5.71-7.88-5.71h-.67c-.93,0-2,.26-3.2.78-3.72,2.48-4.16,4.89-4.16,6.5v.67c0,.45.05.63.05.63l.17.56v.45c.09.35.7,2.08,4.41,6.79,6.8,8.67,6.8,8.91,6.8,10.5v2.58l-2.35,1.14c-2.08.94-3.93,1.39-5.66,1.39ZM941.54,764.34h0s0,0,0,0ZM933.63,740.69c-.41,2.95-.62,5.71-.62,8.22,0,3.32.24,6.5.73,9.52.78-3.19,2.86-6.83,7.66-9.92l.49-.27c2.35-1.08,4.64-1.63,6.79-1.63h.67c2.85,0,5.53.82,8.01,2.45-.19-7.69-2.09-14.19-5.64-19.35-2.45-2.97-5.31-4.35-8.98-4.35-2.96,0-6.94,2.66-9.11,15.32Z" style="fill:#44bba4;"/><path d="M1036.06,812.59h-2.75c-5.78,0-12.02-2.05-18.52-6.1l-.23-.16c-15.58-11.29-23.48-30.66-23.48-57.58v-4.6c0-7.98-.22-17.61-.66-28.64v-.16c0-5.17,2.44-9.68,7.07-13.04l.27-.18c2.66-1.62,5.48-2.44,8.39-2.44,5.15,0,9.61,2.47,12.91,7.14,1.94,2.4,2.81,6.67,2.82,13.76.35,6.71.52,14.52.52,23.19v4.01c0,16.07,3.06,26.89,9.09,32.18,1.1.86,2.09,1.31,2.87,1.31h.82c1.33,0,3.27-1.76,5.21-4.72,1.08-1.85,2-4.04,2.73-6.52.99-3.96,1.49-9.12,1.49-15.35v-.18c.64-14.47,1.14-29.01,1.49-43.2l.02-.33c.26-2.4,1.14-4.87,2.63-7.35l.27-.4c3.36-4.31,7.79-6.59,12.81-6.59,3.54,0,8.64,1.23,12.89,7.07,1.28,1.7,2.16,4.27,2.65,7.81l.05.34v.34c-.55,18.64-1.02,32.81-1.39,42.14-.19,4.68-.35,8.25-.5,10.61-.08,1.24-.15,2.46-.36,3.54-.05,1.37-.47,4.09-2.66,12.27l-.08.26c-1.25,3.64-2.73,7.1-4.4,10.29-1.47,2.71-3.68,5.72-6.77,9.24l-.2.21c-3.8,3.75-6.63,5.99-8.87,7.04-5.77,3.19-11.2,4.81-16.13,4.81ZM1019.14,799.78c5.17,3.2,9.94,4.82,14.17,4.82h2.75c3.6,0,7.76-1.3,12.38-3.88l.32-.16c.6-.26,2.43-1.32,6.58-5.4,2.61-2.98,4.5-5.54,5.63-7.62,1.44-2.74,2.74-5.78,3.85-8.99,2.21-8.28,2.35-10.07,2.35-10.34l.07-3.93h.32c.31-5.26.86-18.71,1.83-51.96-.43-2.8-1.01-3.69-1.12-3.85-2.49-3.43-4.87-3.82-6.45-3.82-2.5,0-4.52,1.06-6.35,3.32-.77,1.33-1.24,2.59-1.39,3.73-.34,14.16-.84,28.65-1.48,43.09,0,6.89-.6,12.71-1.76,17.3l-.04.15c-.93,3.18-2.14,6.03-3.59,8.48l-.09.15c-3.64,5.59-7.67,8.42-11.96,8.42h-.82c-2.65,0-5.3-1.04-7.9-3.09l-.14-.12c-8.02-6.95-11.92-19.47-11.92-38.29v-4.01c0-8.58-.17-16.28-.51-22.88v-.21c0-7.22-1.02-8.79-1.06-8.85l-.24-.3c-2.39-3.45-4.82-3.85-6.44-3.85-1.39,0-2.73.39-4.09,1.19-2.46,1.83-3.62,3.86-3.64,6.39.44,11.1.67,20.82.67,28.88v4.6c0,24.14,6.75,41.31,20.06,51.02ZM1071.17,764.21s-.09,0-.14,0h.14Z" style="fill:#44bba4;"/><path d="M1142.74,812.59c-3.73,0-9.05-1.33-13.33-7.65-.7-.9-1.51-2.35-4.1-14.52-.26-1.11-.48-1.99-.65-2.68-3.55.14-10.1.46-19.57.95-.54,1.88-1.47,5.28-3.11,11.43l-.08.26c-1.26,3.7-3.7,6.63-7.27,8.71l-.22.12c-2.43,1.22-4.91,1.83-7.36,1.83-5.19,0-9.68-2.46-12.98-7.1l-.16-.24c-1.62-2.66-2.44-5.48-2.44-8.39,0-1.54,0-4.75,14.94-54.38,5.85-18.41,10.82-30.27,15.22-36.32l.15-.19c4.1-4.95,8.95-7.46,14.44-7.46h.07c8.9,0,15.76,6.4,20.38,19.03,5.7,14.53,12.48,38.81,20.1,72.07,1.48,5.72,1.67,7.8,1.67,8.97,0,3.98-1.49,9.62-8.56,13.83l-.46.24c-2.33,1.01-4.58,1.52-6.71,1.52ZM1136.01,800.42c2.52,3.74,5.04,4.17,6.73,4.17.97,0,2.07-.25,3.3-.76,3.97-2.45,4.43-5.06,4.43-6.82,0-.35-.1-1.89-1.43-7.01l-.03-.11c-7.54-32.91-14.2-56.82-19.79-71.07-3.38-9.23-7.72-13.87-12.91-13.87h-.07c-3,0-5.68,1.46-8.2,4.47-3.82,5.31-8.52,16.7-13.97,33.87-12.48,41.47-14.5,50.42-14.59,52.07,0,1.35.39,2.7,1.2,4.06,1.8,2.47,3.83,3.62,6.38,3.62,1.18,0,2.38-.3,3.66-.93,1.78-1.06,2.95-2.43,3.57-4.18,3.95-14.85,4.03-14.94,5.01-15.91l1.09-1.09,1.53-.08c20.55-1.07,24.45-1.19,25.6-1.19h.15c3.16,0,3.89,2.8,4.33,4.47.27,1.01.64,2.53,1.12,4.54,1.89,8.91,2.66,11.19,2.89,11.76ZM1104.88,765.41v-3.71l-.39-1.25.73-1.35c.09-.24.41-1.18,1.3-4.36l.04-.13c1.73-5.49,3.07-9.67,3.99-12.42,1.66-4.99,2.29-6.86,5.32-6.86h2.95l.95,2.82c1.74,5.62,3.75,12.71,5.98,21.09l.13.51v.52c0,.68-.16,1.33-.49,2l-1.1,2.23h-2.48c-.99,0-4,.11-12.67.66l-4.25.27ZM1105.33,758.88s-.06.1-.1.18l.1-.18ZM1115.61,752.49c-.41,1.29-.87,2.73-1.37,4.33.92-.05,1.76-.1,2.53-.14-.39-1.44-.78-2.84-1.15-4.19Z" style="fill:#44bba4;"/><path d="M1171.84,812.59c-5.23,0-9.71-2.5-12.96-7.22-1.3-1.71-2.14-4.07-2.58-7.22l-.04-.55c0-.78.02-1.53.07-2.22-.2-43.93-.3-71.31-.3-81.38,0-3.6,1.3-8.79,7.51-13.09,1.2-.84,3.29-1.84,9.56-2.88,6.33-.93,11.92-1.39,16.69-1.39h1.71c18.65,0,32.51,5.75,41.19,17.08l.14.19c4.4,6.49,6.63,13.86,6.63,21.92,0,13.77-6.54,24.94-19.44,33.21-.64.4-1.32.8-2.03,1.2.46.31.97.66,1.52,1.03,10.95,7.68,13.09,9.3,13.75,9.88l.17.15c3.36,3.29,5.06,7.15,5.06,11.47,0,5.23-2.45,9.75-7.1,13.06l-.24.16c-2.66,1.62-5.48,2.44-8.39,2.44-3.81,0-7.73-1.65-11.98-5.03l-23.17-16.34c.02,1.85.03,3.49.03,4.91v3.34c0,10.18-5.79,14.55-10.65,16.43l-.47.15c-1.92.48-3.45.71-4.68.71ZM1164.26,797.32c.34,2.25.85,3.04,1.01,3.24l.16.22c2.33,3.42,4.78,3.82,6.42,3.82.24,0,.96-.04,2.49-.41,3.67-1.5,5.31-4.24,5.31-8.88v-3.34c0-3.11-.05-7.31-.15-12.47l-.08-4.08h5.57l30.71,21.67c2.73,2.19,5.18,3.35,7.07,3.35,1.4,0,2.75-.39,4.11-1.2,2.47-1.8,3.62-3.85,3.62-6.46,0-2.11-.81-3.91-2.56-5.66-.5-.41-2.78-2.12-12.96-9.26-7.79-5.27-8.61-5.83-8.61-8.25v-2.57l2.33-1.07c2.76-1.26,5.14-2.51,7.06-3.7,10.55-6.76,15.7-15.42,15.7-26.44,0-6.48-1.7-12.15-5.19-17.33-7.19-9.32-18.56-13.86-34.76-13.86h-1.71c-4.38,0-9.58.44-15.46,1.29-4.96.83-6.14,1.49-6.26,1.57-3.63,2.52-4.05,4.92-4.05,6.5,0,10.07.1,37.49.3,81.5v.16s-.01.16-.01.16c-.04.46-.06.96-.06,1.49ZM1183.49,756.25h-4l-.07-4.82c0-6.28-.03-15.31-.07-27.08v-3.59s3.55-.4,3.55-.4c2.32-.26,4.97-.4,7.88-.4,6.72,0,12.36.9,16.78,2.66,5.59,2.22,8.68,6.89,8.68,13.14,0,4.6-1.98,8.63-5.72,11.65l-.11.09c-2.89,2.17-6.24,3.93-9.98,5.25l-.15.05c-7.53,2.32-13.01,3.44-16.77,3.44ZM1187.36,728.03c.03,8,.05,14.6.06,19.79,2.39-.42,5.74-1.21,10.41-2.65,2.91-1.03,5.5-2.39,7.71-4.03,1.84-1.5,2.69-3.21,2.69-5.38,0-3.03-1.05-4.68-3.64-5.71-3.47-1.39-8.12-2.09-13.81-2.09-1.19,0-2.33.02-3.41.07Z" style="fill:#44bba4;"/><path d="M1281.41,812.59c-4.02,0-9.69-1.47-13.84-8.5l-.19-.37c-1.03-2.25-1.55-4.61-1.55-7.01v-68.43c-6.52-.09-11.61-.18-15.16-.29-2.18-.06-3.79-.13-4.9-.2-.55-.04-1.55-.1-2.55-.44v.04c-4.17-1.34-7.23-3.63-9.12-6.81-1.6-2.62-2.42-5.44-2.42-8.36,0-3.89,1.39-9.4,8.04-13.56l.29-.17c2.13-1.1,4.42-1.72,6.81-1.85h.14s.14,0,.14,0c23.57.37,41.5.68,53.3.91,5.94.12,10.39.22,13.35.3,1.51.04,2.64.08,3.4.11.76.03,1.4.14,1.95.29l.02-.07c4.21,1.13,7.4,3.17,9.48,6.05l.13.19c1.89,2.97,2.86,6.04,2.86,9.13,0,5.58-2.76,10.25-7.98,13.49l-.29.16c-2.49,1.28-4.85,1.93-7.02,1.93-8.91-.16-15.31-.27-19.16-.33v67.89c0,6.54-3.32,11.61-9.6,14.66l-.44.18c-1.99.69-3.91,1.03-5.68,1.03ZM1274.57,800.21c2.39,3.92,5.04,4.38,6.84,4.38.83,0,1.79-.18,2.85-.52,3.37-1.7,4.88-3.97,4.88-7.36v-75.94h4c1.75,0,9.35.12,23.23.37.52,0,1.55-.17,3.15-.97,3.64-2.32,4.06-4.88,4.06-6.61,0-1.53-.5-3.08-1.53-4.72-.95-1.26-2.55-2.22-4.75-2.85-2.34-.15-16.8-.5-70.17-1.34-1.17.08-2.26.37-3.31.89-3.71,2.38-4.14,4.95-4.14,6.69,0,1.44.42,2.83,1.27,4.23.89,1.5,2.41,2.57,4.65,3.31,1.18.12,5.88.36,24.27.57l3.95.05v76.34c0,1.2.24,2.34.74,3.49ZM1316.88,705.88c.08.03.17.05.25.07-.03,0-.05-.01-.08-.02l-.17-.05Z" style="fill:#44bba4;"/><path d="M1365.45,812.59h-.67c-9.39,0-18.21-3.18-26.22-9.46l-.29-.25c-5.42-5.17-6.98-7.11-7.59-8.37-2.67-3.73-4.73-7.44-6.14-11.04-3.34-8.6-5.03-17.73-5.03-27.14,0-16.72,4.45-31.35,13.23-43.47l.15-.2c2.96-3.6,5.85-6.45,8.58-8.47,6.94-5.01,14.25-7.54,21.76-7.54h1.34c7.99,0,15.66,3.15,22.82,9.37l.2.19c4.13,4.13,6.81,7.41,8.17,10.02,7.13,12.03,10.75,26.02,10.75,41.59,0,17.16-4.45,31.25-13.24,41.89l-.12.14c-7.69,8.46-17,12.74-27.68,12.74ZM1343.64,796.95c6.62,5.14,13.53,7.64,21.14,7.64h.67c8.42,0,15.52-3.29,21.7-10.05,7.53-9.16,11.35-21.52,11.35-36.73,0-14.15-3.26-26.8-9.68-37.6l-.12-.22c-.64-1.26-2.32-3.67-6.67-8.02-5.7-4.92-11.41-7.32-17.46-7.32h-1.34c-5.87,0-11.44,1.96-17.03,6-2.14,1.58-4.52,3.95-7.04,7-7.72,10.71-11.64,23.73-11.64,38.68,0,8.42,1.51,16.58,4.48,24.24,1.2,3.07,3.04,6.32,5.45,9.64l.41.56.08.28c.35.48,1.59,1.96,5.72,5.91ZM1365.3,789.28c-6.1,0-11.2-2.5-15.15-7.44l-.11-.15c-4.79-6.61-7.22-15.14-7.22-25.36,0-5.64.77-11.27,2.3-16.74l.06-.21c4.35-12.89,10.57-19.42,18.49-19.42,4.53,0,8.58,2.65,12.03,7.89l.12.2c4.89,8.45,7.37,18.46,7.37,29.77,0,2.9-.24,6.05-.71,9.39l-.02.12c-2.5,14.57-8.27,21.96-17.16,21.96ZM1356.46,776.92c2.41,2.98,5.22,4.37,8.84,4.37,4.4,0,7.52-5.13,9.26-15.25.41-2.95.62-5.71.62-8.22,0-9.83-2.1-18.46-6.23-25.66-1.29-1.94-3.23-4.19-5.28-4.19-5.09,0-8.72,7.52-10.88,13.88-1.31,4.74-1.98,9.61-1.98,14.49,0,8.46,1.9,15.38,5.64,20.59Z" style="fill:#44bba4;"/><path d="M941.03,698.05h3.56c5.59,0,11.53,1.73,17.82,5.2,8.21,4.8,14.43,12.92,18.63,24.35,2.42,7.08,3.64,14.75,3.64,23.01,0,10.89-2.13,21.16-6.38,30.81,5.35,6.98,8.02,10.89,8.02,11.73.4,1.19.59,2.28.59,3.27v.96c0,4.31-2.3,7.72-6.9,10.25-1.63.64-3.07.96-4.31.96h-.67c-4.31,0-8.22-2.72-11.73-8.17-.15-.15-.27-.22-.37-.22-5.84,3.86-11.93,5.79-18.26,5.79h-.89c-8.41,0-16.06-3.66-22.94-10.99-3.07-3.31-5.69-7.22-7.87-11.73-4.85-10.64-7.28-21.85-7.28-33.63v-1.48c0-16.18,4.23-29.27,12.69-39.27,3.56-3.56,6.24-5.72,8.02-6.46,5.15-2.92,10.02-4.38,14.62-4.38ZM929,748.9c0,10.94,2.45,20.34,7.35,28.21,2.52,3.66,5.15,5.49,7.87,5.49h.52c1.14,0,2.47-.35,4.01-1.04v-.07c0-.3-1.98-2.97-5.94-8.02-3.51-4.45-5.27-7.5-5.27-9.13-.15-.49-.22-1.09-.22-1.78v-.67c0-4.01,2.08-7.35,6.24-10.02,1.83-.84,3.54-1.26,5.12-1.26h.67c4.16,0,7.89,2.5,11.21,7.5h.3c.35-3.46.52-6.04.52-7.72,0-9.21-2.15-16.9-6.46-23.09-3.22-3.96-7.28-5.94-12.17-5.94-6.58,0-10.94,6.24-13.07,18.71-.45,3.17-.67,6.11-.67,8.83Z" style="fill:#3a7ca5;"/><path d="M1061.82,700.65c3.81,0,7.03,1.81,9.65,5.42.89,1.19,1.53,3.19,1.93,6.01-1.09,37.42-1.83,56.12-2.23,56.12,0,1.39-.84,5.22-2.52,11.51-1.19,3.46-2.57,6.71-4.16,9.73-1.29,2.38-3.37,5.2-6.24,8.46-3.46,3.42-6.09,5.52-7.87,6.31-5.25,2.92-10.02,4.38-14.33,4.38h-2.75c-5.05,0-10.52-1.83-16.41-5.49-14.55-10.54-21.83-28.66-21.83-54.34v-4.6c0-8.07-.22-17.67-.67-28.8,0-3.91,1.81-7.17,5.42-9.8,2.03-1.24,4.13-1.86,6.31-1.86,3.91,0,7.15,1.86,9.73,5.57,1.34,1.53,2,5.34,2,11.43.35,6.68.52,14.38.52,23.09v4.01c0,17.42,3.51,29.18,10.54,35.26,1.88,1.49,3.69,2.23,5.42,2.23h.82c2.87,0,5.74-2.2,8.61-6.61,1.29-2.18,2.35-4.7,3.19-7.57,1.09-4.31,1.63-9.77,1.63-16.41.64-14.55,1.14-28.98,1.48-43.28.2-1.83.89-3.74,2.08-5.72,2.62-3.37,5.84-5.05,9.65-5.05Z" style="fill:#3a7ca5;"/><path d="M1116.23,700.95h.07c7.08,0,12.62,5.47,16.63,16.41,5.69,14.5,12.35,38.38,19.97,71.64,1.04,4.01,1.56,6.68,1.56,8.02,0,4.31-2.2,7.77-6.61,10.39-1.83.79-3.54,1.19-5.12,1.19-4.06,0-7.42-2-10.1-6.01-.59-.74-1.73-5.07-3.42-12.99-.94-3.96-1.46-5.94-1.56-5.94h-.15c-1.73,0-10.2.4-25.39,1.19-.2.2-1.53,4.95-4.01,14.25-.94,2.77-2.77,4.95-5.49,6.53-1.88.94-3.74,1.41-5.57,1.41-3.91,0-7.15-1.81-9.73-5.42-1.24-2.03-1.86-4.13-1.86-6.31,0-2.77,4.92-20.51,14.77-53.23,5.64-17.77,10.52-29.47,14.62-35.11,3.31-4.01,7.1-6.01,11.36-6.01ZM1108.81,760.86c.05.15.07.25.07.3,7.08-.45,11.38-.67,12.92-.67.05-.1.07-.17.07-.22-2.23-8.36-4.21-15.34-5.94-20.93h-.07c-.2,0-2.03,5.49-5.49,16.48-.84,3.02-1.36,4.7-1.56,5.05Z" style="fill:#3a7ca5;"/><path d="M1189.8,700.65h1.71c17.42,0,30.09,5.17,38.01,15.52,3.96,5.84,5.94,12.4,5.94,19.67,0,12.37-5.86,22.32-17.59,29.84-2.08,1.29-4.58,2.6-7.5,3.93,0,.2,2.3,1.86,6.9,4.97,8.12,5.69,12.57,8.88,13.36,9.58,2.57,2.52,3.86,5.39,3.86,8.61,0,3.96-1.81,7.23-5.42,9.8-2.03,1.24-4.13,1.86-6.31,1.86-2.87,0-6.06-1.41-9.58-4.23l-29.47-20.79h-.22c.1,5.2.15,9.38.15,12.55v3.34c0,6.38-2.7,10.62-8.09,12.7-1.58.4-2.82.59-3.71.59-3.96,0-7.2-1.86-9.73-5.57-.89-1.14-1.51-2.94-1.86-5.42,0-.74.02-1.43.07-2.08-.2-44.29-.3-71.47-.3-81.51,0-3.86,1.93-7.13,5.79-9.8,1.14-.79,3.79-1.53,7.94-2.23,6.09-.89,11.43-1.34,16.04-1.34ZM1183.34,724.33c.05,11.78.07,20.81.07,27.1v.82h.07c3.32,0,8.51-1.09,15.59-3.27,3.36-1.19,6.33-2.75,8.91-4.68,2.82-2.28,4.23-5.12,4.23-8.54,0-4.65-2.05-7.79-6.16-9.43-3.96-1.58-9.06-2.38-15.29-2.38-2.77,0-5.25.12-7.42.37Z" style="fill:#3a7ca5;"/><path d="M1247.04,700.65c47.36.74,71.05,1.21,71.05,1.41,3.31.89,5.74,2.4,7.27,4.53,1.48,2.33,2.23,4.65,2.23,6.98,0,4.21-2.03,7.57-6.09,10.1-1.93.99-3.66,1.48-5.2,1.48-13.71-.25-21.43-.37-23.16-.37v71.94c0,5-2.45,8.69-7.35,11.06-1.58.54-3.04.82-4.38.82-4.36,0-7.82-2.18-10.39-6.53-.79-1.73-1.19-3.51-1.19-5.34v-72.38c-16.93-.2-25.39-.45-25.39-.74-3.22-1.04-5.52-2.72-6.9-5.05-1.24-2.03-1.86-4.13-1.86-6.31,0-4.21,2.05-7.6,6.16-10.17,1.63-.84,3.37-1.31,5.2-1.41Z" style="fill:#3a7ca5;"/><path d="M1363.22,700.65h1.34c7.03,0,13.76,2.8,20.19,8.39,3.86,3.86,6.36,6.9,7.5,9.13,6.83,11.48,10.25,24.7,10.25,39.64,0,16.28-4.11,29.4-12.32,39.35-6.93,7.62-15.17,11.43-24.72,11.43h-.67c-8.51,0-16.43-2.87-23.76-8.61-4.31-4.11-6.58-6.58-6.83-7.42-2.62-3.61-4.6-7.13-5.94-10.54-3.17-8.17-4.75-16.73-4.75-25.69,0-15.94,4.16-29.65,12.47-41.13,2.77-3.37,5.39-5.96,7.87-7.79,6.24-4.5,12.69-6.76,19.38-6.76ZM1346.82,756.33c0,9.4,2.15,17.08,6.46,23.01,3.17,3.96,7.18,5.94,12.03,5.94,6.68,0,11.09-6.21,13.21-18.63.45-3.17.67-6.11.67-8.83,0-10.64-2.28-19.9-6.83-27.77-2.67-4.06-5.57-6.09-8.69-6.09-6.04,0-10.94,5.57-14.7,16.7-1.44,5.15-2.15,10.37-2.15,15.66Z" style="fill:#3a7ca5;"/></svg>