<?xml version="1.0" encoding="UTF-8"?><svg id="a" xmlns="http://www.w3.org/2000/svg" xmlns:xlink="http://www.w3.org/1999/xlink" viewBox="0 0 1536 1024"><defs><filter id="b" filterUnits="userSpaceOnUse"><feOffset dx="7" dy="7"/><feGaussianBlur result="c" stdDeviation="5"/><feFlood flood-color="#000" flood-opacity=".75"/><feComposite in2="c" operator="in"/><feComposite in="SourceGraphic"/></filter></defs><g style="filter:url(#b);"><path d="m460.85,773.64v-9.04c18.47,0,27.71-6.54,27.71-19.61v-136.68c0-16.9-9.94-25.35-29.82-25.35v-9.04h158.45l2.41,56.33-9.34,1.21c-1.81-10.84-4.52-19.28-8.13-25.3-3.62-6.02-7.98-10.49-13.1-13.4-5.12-2.91-11-4.62-17.62-5.12-6.63-.5-13.86-.75-21.69-.75h-8.43c-15.26,0-22.89,4.52-22.89,13.56v53.92c0,6.02,2.41,9.04,7.23,9.04h10.24c5.02,0,9.69-.25,14.01-.75,4.32-.5,8.13-1.81,11.45-3.92,3.31-2.11,6.02-5.32,8.13-9.64,2.11-4.32,3.56-10.19,4.37-17.62h11.15v78.02h-11.15c-.8-7.43-2.01-13.3-3.62-17.62-1.61-4.32-3.92-7.63-6.93-9.94-3.01-2.31-6.73-3.81-11.15-4.52-4.42-.7-9.84-1.05-16.27-1.05h-3.62c-9.24,0-13.86,3.31-13.86,9.94v57.53c0,11.45,8.03,17.17,24.1,17.17h9.34c12.65,0,22.84-.95,30.58-2.86,7.73-1.91,14.01-4.92,18.83-9.04,4.82-4.11,8.68-9.29,11.6-15.51,2.91-6.22,5.87-13.56,8.89-21.99l8.13,2.41-8.13,59.64h-160.86Z" style="fill:#44bba4; stroke-width:0px;"/><path d="m687.98,773.64v-9.04c20.48,0,30.73-4.63,30.73-13.88v-58.84l-50.3-83.58c-10.24-16.9-21.29-25.35-33.14-25.35v-9.04h82.24v9.04c-14.46,0-21.69,3.43-21.69,10.27,0,1.61.4,3.13,1.21,4.54.8,1.41,2,3.42,3.62,6.04l42.47,71.33,38.86-70.12c.6-2.01,1.1-4.13,1.51-6.34.4-2.21.6-4.43.6-6.65,0-6.04-8.03-9.07-24.1-9.07v-9.04h69.89v9.04c-10.44,0-18.38,3.82-23.8,11.47l-56.33,96.55v60.95c0,8.45,9.94,12.67,29.82,12.67v9.04h-91.57Z" style="fill:#44bba4; stroke-width:0px;"/><path d="m843.71,773.64v-9.04c18.47,0,27.71-6.54,27.71-19.61v-136.68c0-16.9-9.94-25.35-29.82-25.35v-9.04h158.45l2.41,56.33-9.34,1.21c-1.81-10.84-4.52-19.28-8.13-25.3-3.62-6.02-7.98-10.49-13.1-13.4-5.12-2.91-11-4.62-17.62-5.12-6.63-.5-13.86-.75-21.69-.75h-8.43c-15.26,0-22.89,4.52-22.89,13.56v53.92c0,6.02,2.41,9.04,7.23,9.04h10.24c5.02,0,9.69-.25,14.01-.75,4.32-.5,8.13-1.81,11.45-3.92,3.31-2.11,6.02-5.32,8.13-9.64,2.11-4.32,3.56-10.19,4.37-17.62h11.15v78.02h-11.15c-.8-7.43-2.01-13.3-3.62-17.62-1.61-4.32-3.92-7.63-6.93-9.94-3.01-2.31-6.73-3.81-11.15-4.52-4.42-.7-9.84-1.05-16.27-1.05h-3.62c-9.24,0-13.86,3.31-13.86,9.94v57.53c0,11.45,8.03,17.17,24.1,17.17h9.34c12.65,0,22.84-.95,30.58-2.86,7.73-1.91,14.01-4.92,18.83-9.04,4.82-4.11,8.68-9.29,11.6-15.51,2.91-6.22,5.87-13.56,8.89-21.99l8.13,2.41-8.13,59.64h-160.86Z" style="fill:#44bba4; stroke-width:0px;"/><path d="m380.13,903.02c-1.01.81-1.91,1.76-2.71,2.86-.8,1.11-1.61,2.06-2.41,2.86-.8.8-1.56,1.26-2.26,1.36-.71.1-1.46-.35-2.26-1.36l-2.41-3.01c-5.22-6.42-8.99-13.35-11.3-20.79-2.31-7.43-4.27-15.11-5.87-23.04-1.61-7.93-3.27-16.12-4.97-24.55-1.71-8.43-4.37-16.77-7.98-25-3.82,5.83-7.43,12.6-10.84,20.33-3.42,7.73-6.58,15.62-9.49,23.65-2.91,8.03-5.53,15.92-7.83,23.65-2.31,7.73-4.17,14.41-5.57,20.03-.6,2.21-1.36,3.77-2.26,4.67-.9.9-1.66,1.96-2.26,3.16-.4.8-1.01,2.06-1.81,3.77-.8,1.71-1.71,2.56-2.71,2.56s-1.71-.3-2.11-.9c-.4-.6-1.01-1.4-1.81-2.41-10.24-15.46-18.12-31.68-23.65-48.65-5.53-16.97-9.59-33.18-12.2-48.65-5.42-5.62-8.74-10.24-9.94-13.86-1.2-3.62-2.21-6.03-3.01-7.23-1.41-2.21-1.51-4.32-.3-6.33,1.21-2,2.91-3.21,5.12-3.62,1.21,0,2.51-.1,3.92-.3,1.4-.2,2.81,0,4.22.6,2.41,1.21,4.87,3.97,7.38,8.28,2.51,4.32,5.17,11.8,7.98,22.44,1.21,5.22,2.66,10.75,4.37,16.57,1.7,5.83,3.46,11.6,5.27,17.32,1.81,5.72,3.61,11.2,5.42,16.42,1.81,5.22,3.31,9.74,4.52,13.55,2.61-4.22,5.72-10.14,9.34-17.77,3.62-7.63,7.53-15.71,11.75-24.25,4.22-8.53,8.53-17.07,12.95-25.6,4.42-8.53,8.74-15.81,12.95-21.84.8-1.21,1.6-2,2.41-2.41.8-.4,1.61-.9,2.41-1.51.6-.4,1.15-.95,1.66-1.66.5-.7.95-1.05,1.36-1.05,1.6-.4,2.41.1,2.41,1.51,1.21,3.82,2.86,8.74,4.97,14.76,2.11,6.03,4.26,12.76,6.48,20.18,2.21,7.43,4.26,15.32,6.17,23.65,1.91,8.34,3.36,16.52,4.37,24.55,2.41-5.42,5.02-11.7,7.83-18.83,2.81-7.13,5.87-14.61,9.19-22.44s6.93-15.76,10.84-23.8c3.92-8.03,8.18-15.66,12.8-22.89,1.4-2.21,3.21-4.26,5.42-6.18,2.21-1.91,4.22-3.86,6.02-5.87,1.61-1.6,2.91-3.11,3.92-4.52,1-1.4,2.31-2.81,3.92-4.22.8.4.6,2.41-.6,6.02-1.01,2.21-2.21,4.77-3.62,7.68-1.41,2.91-2.51,5.47-3.31,7.68-6.63,18.88-13.31,37.8-20.03,56.78-6.73,18.98-12.7,38.81-17.92,59.49-.2,1.01-.71,2.46-1.51,4.37-.8,1.91-1.61,3.16-2.41,3.76Z" style="fill:#f45b69; stroke-width:0px;"/><path d="m492.79,873.8c.4,2.61.25,5.27-.45,7.98-.71,2.71-.55,5.17.45,7.38.6,1.61.85,4.02.75,7.23-.1,3.21-.35,5.93-.75,8.13-1.21,0-2.36-.45-3.46-1.36-1.11-.9-2.26-2.06-3.46-3.46-1.41-1.6-2.96-3.16-4.67-4.67-1.71-1.51-2.96-3.46-3.76-5.87-2.61-10.24-4.62-21.03-6.03-32.38-1.41-11.34-2.41-22.84-3.01-34.49-.6-11.64-.96-23.14-1.05-34.49-.1-11.34-.15-22.14-.15-32.38,0-3.41.4-5.52,1.21-6.33.4-.4.95-.45,1.66-.15.7.3,1.55.56,2.56.75,1,.2,1.91.56,2.71,1.05.8.5,1.4.96,1.81,1.36.6.6,1.21,1.01,1.81,1.21.6.2,1,.8,1.21,1.81,1.6,19.88,3.51,39.66,5.72,59.34,2.21,19.68,4.52,39.46,6.93,59.34Z" style="fill:#f45b69; stroke-width:0px;"/><path d="m659.36,782.83c.8,1.01.6,2.11-.6,3.31l-2.41,1.81c-1.01,0-1.66.25-1.96.75-.3.5-.96.96-1.96,1.36-1.41.6-2.46,1.16-3.16,1.66-.71.5-2.46.96-5.27,1.36-6.43-1-13.56-1.46-21.39-1.36-7.83.1-14.36.35-19.58.75,1.21,9.04,1.91,18.58,2.11,28.62.2,10.04.15,20.23-.15,30.58-.3,10.35-.71,20.54-1.21,30.58-.5,10.04-.75,19.58-.75,28.62v5.12c-1.01-3.41-1.81-7.13-2.41-11.15-.4-1.4-.71-2.66-.9-3.77-.2-1.1-.5-2.36-.9-3.76-2.81-16.27-4.22-33.44-4.22-51.51s1.1-35.64,3.31-52.71c-11.45,1.61-22.49,3.31-33.13,5.12-10.65,1.81-21.19,4.42-31.63,7.83-1.2.41-2.36.71-3.46.9-1.11.2-2.26.5-3.46.9-1.01-1-1.91-1.7-2.71-2.11-.8-.4-1.31-1.4-1.51-3.01-.4-2.21.2-3.96,1.81-5.27,1.61-1.3,3.21-2.76,4.82-4.37.6-.2,1-.7,1.2-1.51.2-.8.45-1.6.75-2.41.3-.8.55-1.55.75-2.26.2-.7.6-1.15,1.21-1.36,9.84-3.41,20.18-6.12,31.03-8.13,10.84-2.01,21.74-3.21,32.68-3.62,10.94-.4,21.79.1,32.53,1.51,10.74,1.41,20.94,3.92,30.58,7.53Z" style="fill:#f45b69; stroke-width:0px;"/><path d="m797.32,768.07c.2,2.01.1,4.62-.3,7.83-.41,3.21-.8,6.23-1.21,9.04-.4,2.01-.3,4.37.3,7.08.6,2.71,1,4.97,1.2,6.78-1.2,3.82-2.41,8.49-3.61,14.01-1.21,5.53-2.31,11.35-3.31,17.47-1.01,6.13-1.96,12.2-2.86,18.22-.9,6.02-1.46,11.45-1.66,16.27,1.21,3.82,2.36,7.03,3.46,9.64,1.1,2.61,2.06,5.07,2.86,7.38.8,2.31,1.4,4.77,1.81,7.38.4,2.61.6,5.83.6,9.64l-2.56,2.56c-.3.3-1.16.96-2.56,1.96-1.2,1.01-2.36,1.21-3.46.6-1.11-.6-2.26-.9-3.46-.9-1.81,0-2.71-.2-2.71-.6s-.5-1.1-1.51-2.11c-3.21-3.21-5.87-6.48-7.98-9.79s-4.07-6.63-5.87-9.94c-1.81-3.31-3.46-6.67-4.97-10.09-1.51-3.41-3.27-6.83-5.27-10.24-2.41-4.42-5.38-9.59-8.89-15.51-3.52-5.92-7.38-11.7-11.6-17.32-4.22-5.62-8.79-10.64-13.71-15.06-4.92-4.42-9.89-7.23-14.91-8.43-4.62,15.66-7.28,30.88-7.98,45.64-.71,14.76.25,28.57,2.86,41.42.2,1.81.2,3.01,0,3.62-.2.6-.5,1.61-.9,3.01-.41,1.61-.86,3.57-1.36,5.87-.5,2.31-1.05,3.97-1.66,4.97.2,2.81.3,5.42.3,7.83s-.5,4.22-1.51,5.42c-6.43-10.24-10.8-21.54-13.1-33.89-2.31-12.35-3.31-24.95-3.01-37.8.3-12.85,1.55-25.45,3.77-37.8,2.21-12.35,4.62-23.65,7.23-33.89,0-.8.25-1.4.75-1.81.5-.4.95-.8,1.36-1.21.4-.4.75-.75,1.05-1.05s.75-.55,1.36-.75c1-.2,1.91-.45,2.71-.75.8-.3,1.7-.45,2.71-.45,1.21,0,2.01.71,2.41,2.11.4,1.41.8,2.51,1.21,3.31.6,1.01,1.1,3.06,1.51,6.18.4,3.12.5,5.17.3,6.17,8.83,1.21,16.61,4.37,23.34,9.49,6.73,5.12,12.65,11,17.77,17.62,5.12,6.63,9.59,13.41,13.41,20.33,3.81,6.93,7.13,12.91,9.94,17.92.2-4.42.75-9.84,1.66-16.27.9-6.42,1.91-12.95,3.01-19.58,1.1-6.63,2.21-12.9,3.31-18.83,1.1-5.92,1.96-10.59,2.56-14.01.6-2.81,1.51-5.12,2.71-6.93,1.21-1.81,2.51-3.41,3.92-4.82.8-.8,1.66-1.91,2.56-3.31.9-1.4,2.06-2.31,3.46-2.71,1-.4,1.75-.6,2.26-.6s1.25-.1,2.26-.3Z" style="fill:#f45b69; stroke-width:0px;"/><path d="m925.35,822.6c2,.4,3.46.75,4.37,1.05.9.3,1.45.96,1.66,1.96l-5.12,7.23c-1.21,1.01-2.76,1.81-4.67,2.41-1.91.6-3.67,1.11-5.27,1.51-4.62.41-9.74.71-15.36.9-5.62.2-11.45.45-17.47.75-6.02.3-12.1.55-18.22.75-6.13.2-11.9.4-17.32.6,0,8.43.05,16.27.15,23.5.1,7.23.35,13.06.75,17.47,5.02-.8,10.84-2.11,17.47-3.92,6.63-1.81,13.75-3.92,21.39-6.33,7.63-2.41,15.56-5.02,23.8-7.83,8.23-2.81,16.27-5.72,24.1-8.74,2.81-1,5.47-1.85,7.98-2.56,2.51-.7,5.07-1.46,7.68-2.26,0,.8-.1,1.36-.3,1.66-.2.3-.5.65-.9,1.05-.6,1.61-1.51,3.01-2.71,4.22-1.21,1.01-2.36,1.91-3.46,2.71-1.11.8-2.06,1.51-2.86,2.11-1.01.8-1.86,2.01-2.56,3.62-.71,1.61-2.16,3.12-4.37,4.52-13.06,8.04-26.21,14.66-39.46,19.88-13.25,5.22-27.31,9.94-42.17,14.16-3.42,1.01-6.13,1.16-8.13.45-2.01-.7-3.72-2.56-5.12-5.57-.41-1.61-.9-2.91-1.51-3.92-.6-1-2.01-2.31-4.22-3.92-1.01-.8-1.51-2.16-1.51-4.07s-.1-3.96-.3-6.17c-.4-4.82-.65-10.69-.75-17.62-.1-6.93-.05-14.31.15-22.14h-7.83c-1.81-.2-3.12-.45-3.92-.75-.8-.3-2.01-1.25-3.61-2.86,0-1.4.35-2.31,1.05-2.71.7-.4,1.36-1,1.96-1.81.6-.8,1.15-1.7,1.66-2.71.5-1,1.25-1.7,2.26-2.11,1-.2,2.26-.4,3.77-.6,1.51-.2,3.26-.5,5.27-.9.4-7.43.75-14.86,1.05-22.29.3-7.43.65-14.36,1.05-20.79h-4.22c-2.41,0-4.07-.25-4.97-.75-.9-.5-1.56-1-1.96-1.51-.4-.5-.71-1-.9-1.51-.2-.5-.8-.85-1.81-1.05-1.61-.2-2.41-.5-2.41-.9s-.4-.8-1.2-1.21c-.81-.6-.45-1.3,1.05-2.11,1.51-.8,3.06-2.41,4.67-4.82,1.4-1.4,2.26-2.51,2.56-3.31.3-.8,1.55-1.7,3.77-2.71,2-1,5.82-1.6,11.45-1.81,5.62-.2,11.95-.15,18.98.15,7.03.3,14.21.8,21.54,1.51,7.33.71,13.6,1.56,18.83,2.56,3.21.8,6.12,1.76,8.74,2.86,2.61,1.11,5.12,2.56,7.53,4.37,0,.6-.45.96-1.36,1.05-.9.1-1.56.35-1.96.75-.8.6-1.61,1.05-2.41,1.36-.8.3-1.51.65-2.11,1.05-.8.41-1.61.71-2.41.9-3.21,1.01-6.58,1.86-10.09,2.56-3.52.71-7.43,1.26-11.75,1.66-4.32.41-9.34.65-15.06.75-5.72.1-12.3.15-19.73.15-.2,5.83-.35,12.25-.45,19.28-.1,7.03-.15,14.26-.15,21.69,9.64-1,20.33-1.85,32.08-2.56,11.75-.7,22.74-1.15,32.98-1.36,2.21,0,4.32.5,6.33,1.51,2,1.01,4.01,1.51,6.02,1.51Z" style="fill:#f45b69; stroke-width:0px;"/><path d="m1064.51,777.71c-.4.8-.4,1.41,0,1.81.4.4.4.8,0,1.21-.6.4-1.66.65-3.16.75-1.51.1-2.76.25-3.77.45-1.41.4-2.81.55-4.22.45-1.41-.1-2.91-.65-4.52-1.66-2.41-1.21-5.38-2.36-8.89-3.46-3.52-1.1-7.28-1.66-11.3-1.66-5.22,0-10.75.56-16.57,1.66-5.83,1.11-11.4,2.61-16.72,4.52-5.32,1.91-10.04,4.27-14.16,7.08-4.12,2.81-7.08,5.93-8.89,9.34-1.21,2.61-1.71,5.38-1.51,8.28.2,2.91.9,5.68,2.11,8.28,1.21,2.61,2.66,4.97,4.37,7.08,1.7,2.11,3.36,3.57,4.97,4.37,5.02,2.61,10.59,4.32,16.72,5.12,6.12.8,12.45,1.31,18.98,1.51,6.52.2,13,.5,19.43.9,6.42.4,12.35,1.41,17.77,3.01,2.81,1.01,5.47,1.81,7.98,2.41,2.51.6,4.77,1.46,6.78,2.56,2,1.11,3.86,2.61,5.57,4.52,1.7,1.91,3.16,4.67,4.37,8.28,1.81,7.63,1.4,15.06-1.2,22.29-2.61,7.43-6.93,14.01-12.95,19.73-6.02,5.72-12.85,10.29-20.48,13.71-6.03,2.61-12.2,4.37-18.53,5.27-6.33.9-12.45.75-18.38-.45-5.93-1.21-11.35-3.51-16.27-6.93-4.92-3.41-8.89-8.13-11.9-14.16-1.81-3.81-2.71-8.43-2.71-13.86-.2-.6-.2-1.2,0-1.81.4-1.4,1.7-2.11,3.92-2.11.8-.4,1.85-.15,3.16.75,1.3.9,2.26,1.46,2.86,1.66,1.61.2,3.16,1.26,4.67,3.16,1.51,1.91,2.96,3.46,4.37,4.67,5.02,5.22,10.69,8.39,17.02,9.49,6.33,1.11,12.45,1.11,18.38,0,5.92-1.1,11.4-2.86,16.42-5.27,5.02-2.41,8.74-4.62,11.15-6.63,1.4-1.2,2.96-2.66,4.67-4.37s3.36-3.62,4.97-5.72c1.6-2.11,2.96-4.37,4.07-6.78,1.1-2.41,1.66-4.92,1.66-7.53-.6-2.41-2.21-4.26-4.82-5.57-2.61-1.3-5.93-2.36-9.94-3.16-7.03-1.21-13.96-1.85-20.79-1.96-6.83-.1-13.55-.05-20.18.15-6.63.2-13.16.3-19.58.3s-12.65-.7-18.68-2.11c-1.81-.4-3.57-1.05-5.27-1.96-1.71-.9-3.37-1.85-4.97-2.86-1.61-1-2.82-2.31-3.62-3.92-.8-1.61-1.71-3.31-2.71-5.12-1.01-1.81-1.96-3.66-2.86-5.57-.9-1.91-1.56-3.96-1.96-6.18-1.01-6.42-.96-13.05.15-19.88,1.1-6.83,3.66-13.15,7.68-18.98,3.21-4.82,7.58-8.99,13.1-12.5,5.52-3.51,11.75-6.22,18.68-8.13,6.93-1.91,14.31-2.81,22.14-2.71,7.83.1,15.86,1.36,24.1,3.77,1,.41,2.21.96,3.61,1.66,1.4.71,2.61,1.26,3.62,1.66,2.81,1.41,5.32,3.12,7.53,5.12,2.21,2.01,3.71,4.02,4.52,6.02Z" style="fill:#f45b69; stroke-width:0px;"/><path d="m1206.09,777.71c-.4.8-.4,1.41,0,1.81.4.4.4.8,0,1.21-.6.4-1.66.65-3.16.75-1.51.1-2.76.25-3.77.45-1.41.4-2.81.55-4.22.45-1.41-.1-2.91-.65-4.52-1.66-2.41-1.21-5.38-2.36-8.89-3.46-3.52-1.1-7.28-1.66-11.3-1.66-5.22,0-10.75.56-16.57,1.66-5.83,1.11-11.4,2.61-16.72,4.52-5.32,1.91-10.04,4.27-14.16,7.08-4.12,2.81-7.08,5.93-8.89,9.34-1.21,2.61-1.71,5.38-1.51,8.28.2,2.91.9,5.68,2.11,8.28,1.21,2.61,2.66,4.97,4.37,7.08,1.7,2.11,3.36,3.57,4.97,4.37,5.02,2.61,10.59,4.32,16.72,5.12,6.12.8,12.45,1.31,18.98,1.51,6.52.2,13,.5,19.43.9,6.42.4,12.35,1.41,17.77,3.01,2.81,1.01,5.47,1.81,7.98,2.41,2.51.6,4.77,1.46,6.78,2.56,2,1.11,3.86,2.61,5.57,4.52,1.7,1.91,3.16,4.67,4.37,8.28,1.81,7.63,1.4,15.06-1.2,22.29-2.61,7.43-6.93,14.01-12.95,19.73-6.02,5.72-12.85,10.29-20.48,13.71-6.03,2.61-12.2,4.37-18.53,5.27-6.33.9-12.45.75-18.38-.45-5.93-1.21-11.35-3.51-16.27-6.93-4.92-3.41-8.89-8.13-11.9-14.16-1.81-3.81-2.71-8.43-2.71-13.86-.2-.6-.2-1.2,0-1.81.4-1.4,1.7-2.11,3.92-2.11.8-.4,1.85-.15,3.16.75,1.3.9,2.26,1.46,2.86,1.66,1.61.2,3.16,1.26,4.67,3.16,1.51,1.91,2.96,3.46,4.37,4.67,5.02,5.22,10.69,8.39,17.02,9.49,6.33,1.11,12.45,1.11,18.38,0,5.92-1.1,11.4-2.86,16.42-5.27,5.02-2.41,8.74-4.62,11.15-6.63,1.4-1.2,2.96-2.66,4.67-4.37s3.36-3.62,4.97-5.72c1.6-2.11,2.96-4.37,4.07-6.78,1.1-2.41,1.66-4.92,1.66-7.53-.6-2.41-2.21-4.26-4.82-5.57-2.61-1.3-5.93-2.36-9.94-3.16-7.03-1.21-13.96-1.85-20.79-1.96-6.83-.1-13.55-.05-20.18.15-6.63.2-13.16.3-19.58.3s-12.65-.7-18.68-2.11c-1.81-.4-3.57-1.05-5.27-1.96-1.71-.9-3.37-1.85-4.97-2.86-1.61-1-2.82-2.31-3.62-3.92-.8-1.61-1.71-3.31-2.71-5.12-1.01-1.81-1.96-3.66-2.86-5.57-.9-1.91-1.56-3.96-1.96-6.18-1.01-6.42-.96-13.05.15-19.88,1.1-6.83,3.66-13.15,7.68-18.98,3.21-4.82,7.58-8.99,13.1-12.5,5.52-3.51,11.75-6.22,18.68-8.13,6.93-1.91,14.31-2.81,22.14-2.71,7.83.1,15.86,1.36,24.1,3.77,1,.41,2.21.96,3.61,1.66,1.4.71,2.61,1.26,3.62,1.66,2.81,1.41,5.32,3.12,7.53,5.12,2.21,2.01,3.71,4.02,4.52,6.02Z" style="fill:#f45b69; stroke-width:0px;"/></g></svg>