<?xml version="1.0" encoding="UTF-8"?><svg id="a" xmlns="http://www.w3.org/2000/svg" xmlns:xlink="http://www.w3.org/1999/xlink" viewBox="0 0 1536 1024"><defs><filter id="b" filterUnits="userSpaceOnUse"><feOffset dx="9.32" dy="9.32"/><feGaussianBlur result="c" stdDeviation="0"/><feFlood flood-color="#fff" flood-opacity="1"/><feComposite in2="c" operator="in"/><feComposite in="SourceGraphic"/></filter></defs><g style="filter:url(#b);"><path d="m249.82,739.51c.57,11.55-.62,22.4-3.57,32.56-2.95,10.16-6.3,17.95-10.04,23.36-3.74,5.42-7.24,10.09-10.49,14.04-3.26,3.95-4.87,6.25-4.83,6.91.04.89,3.09,4.19,9.17,9.9,11.42,10.57,16.78,23.33,16.07,38.27-.71,14.95-7.21,28.84-19.48,41.68-10.59,10.98-22.6,18.03-36.02,21.13-13.42,3.11-27.27,2.12-41.54-2.96l-14.62-5.29-4.77,4.91c-4.25,4.22-8.39,5.98-12.43,5.29-4.04-.69-6.5-3.19-7.38-7.48-.88-4.3.09-9.29,2.93-15,4.72-8.02,9.14-16.58,13.26-25.69,4.11-9.1,6.12-14.77,6.01-16.99-.1-2,1.45-6.63,4.66-13.92l4.49-10.57-5.69-7.06c-3.56-4.5-5.07-8.15-4.54-10.96.53-2.81,3.4-5.56,8.61-8.27,3.68-1.96,6.09-3.91,7.22-5.86,1.12-1.94,2.1-5.95,2.92-11.99l3.85-23.56c1-6.73,1.26-15.08.77-25.08l-.74-14.99,11.81-10.93c7.02-6.57,12.83-10.59,17.43-12.04,4.6-1.45,13.02-2.25,25.25-2.41l17.33-.52,11.93,11.76c5.14,5.09,8.45,8.88,9.91,11.36,1.46,2.49,2.3,5.95,2.51,10.39Zm-92.05,124.04c.11,2.22-1.28,5.69-4.16,10.39-2.89,4.71-4.28,8.05-4.18,10.05.09,1.78-.56,3.42-1.93,4.94-1.38,1.52-2.02,2.99-1.95,4.43.07,1.45,1.62,3.54,4.65,6.28,2.1,1.9,4.6,3.06,7.51,3.47,2.91.41,8.37.42,16.36.03,7.77-.38,13.41-.99,16.94-1.83,3.52-.84,7.43-2.7,11.74-5.59,6.91-4.34,11.37-8.68,13.38-13.01,2.01-4.32,2.78-11.37,2.3-21.14-.39-7.99-.97-12.97-1.74-14.94-.77-1.97-3.11-4.3-7.02-7-3.45-2.28-6.64-3.68-9.56-4.21-2.92-.52-7.49-.63-13.7-.33-10.21.5-16.48,2.14-18.79,4.93-2.3,3.01-4.55,7.07-6.75,12.18-2.2,5.12-3.23,8.9-3.11,11.34Zm68.92-119.23c-.27-5.55-2.67-10.05-7.17-13.5-4.51-3.45-9.98-4.96-16.42-4.53-6.44.43-12.09,3.1-16.96,8.01-3.19,3.05-5.17,5.82-5.94,8.3-.77,2.49-1.22,6.96-1.34,13.42-.04,8.24-1.03,16.41-2.97,24.52-1.94,8.11-2.92,16.39-2.95,24.85-.09,2.68.32,4.22,1.23,4.61.91.41,3.58.38,8.01-.06,5.3-.93,11.22-3.67,17.79-8.22,6.56-4.55,11.82-9.71,15.76-15.46,2.9-4.37,5.52-11.06,7.86-20.08,2.34-9.01,3.37-16.3,3.1-21.85Z" style="fill:#3a7ca5; stroke-width:0px;"/><path d="m295.13,798.71c4.41-5.33,7.76-8.61,10.03-9.84,2.28-1.22,5.63-1.95,10.08-2.16,4-.2,7.24.2,9.74,1.19,2.5.99,5.95,3.27,10.35,6.84,5.59,5.07,9.2,9.45,10.83,13.15,1.63,3.71,2.43,9.79,2.4,18.24.03,5.12-.31,8.36-1.02,9.73-.71,1.37-2.51,2.24-5.38,2.6-3.31.61-6.43-.57-9.35-3.55-2.93-2.97-4.5-6.57-4.7-10.79-.14-2.88-1.76-6.26-4.84-10.11-3.08-3.85-6.13-4.71-9.14-2.56-2.38,1.45-5.93,7.3-10.66,17.55-4.73,10.25-7,17.15-6.83,20.7.1,2-.92,8.45-3.05,19.34-2.13,10.9-3.51,19.15-4.12,24.74-1.71,15-6.45,22.68-14.22,23.07-2.66.13-4.8-.21-6.39-1.02-1.6-.81-2.67-2.31-3.23-4.51-.56-2.2-.84-4.58-.85-7.13-.02-2.56.38-5.91,1.17-10.07.8-4.16,1.6-8.14,2.42-11.97.81-3.82,1.85-8.66,3.13-14.51,1.27-5.85,2.34-11.24,3.21-16.18,1.21-6.95,2.73-13.37,4.56-19.25,1.82-5.88,3.34-10.23,4.53-13.08,1.19-2.84,1.77-4.81,1.71-5.92-.11-2.22,3.1-7.05,9.64-14.5Z" style="fill:#3a7ca5; stroke-width:0px;"/><path d="m394.77,774.78c3.88-2.64,10.25-4.18,19.13-4.61,6.21-.3,10.79.03,13.74.99,2.94.97,7.75,3.85,14.45,8.64,10.13,6.85,16.04,11.56,17.72,14.15,2.38,3.22,1.15,16.63-3.7,40.24-1.62,12.32-1.75,22.12-.39,29.4,1.36,7.28,3.51,14.85,6.46,22.72,2.94,7.87,4.47,12.8,4.57,14.8.24,4.89-2.33,7.02-7.7,6.39-6.27-.8-11.12-4.35-14.54-10.64-1.94-3.24-3.65-5.21-5.13-5.92-1.48-.7-3.19-.45-5.14.75-1.94,1.21-3.99,2.7-6.12,4.47-2.14,1.77-5.5,3.61-10.08,5.5-4.58,1.89-9.75,3.21-15.5,3.93-6.42.76-10.86.87-13.34.32-2.48-.54-6.14-2.59-10.99-6.14-5.99-4.15-10.91-10.2-14.74-18.14-3.84-7.93-5.99-16.56-6.45-25.89-.74-15.1,2.41-30.16,9.46-45.2,7.05-15.04,16.48-26.96,28.29-35.78Zm29.44,21.59c-8.19-3.6-15.14-3.43-20.84.52-5.71,3.95-11.24,12.4-16.61,25.35-3.78,9.09-5.49,19.63-5.12,31.63.42,8.44,1.02,13.86,1.8,16.27.79,2.41,2.81,5.2,6.09,8.38,4.2,4.02,8.14,6.06,11.82,6.09,3.67.04,8.09-1.84,13.24-5.66,5.36-4.05,9.34-9.19,11.93-15.44,2.58-6.24,4.44-15.96,5.58-29.15,1.31-14.09,1.52-23.39.63-27.91-.89-4.51-3.73-7.88-8.51-10.1Z" style="fill:#3a7ca5; stroke-width:0px;"/><path d="m494.89,794.56c1.18-3.17,3.38-4.84,6.6-5,3.22-.16,5.79,1.28,7.72,4.29,1.43,1.93,1.63,7.1.6,15.49-1.04,8.4-2.83,16-5.39,22.8-2.35,6.57-4.86,17.66-7.54,33.25-2.69,15.6-5.44,27.59-8.25,35.96-2.82,8.38-6.51,11.34-11.08,8.89-2.06-1.23-3.4-3.45-4-6.65-.6-3.19-.38-7.83.65-13.89,1.04-6.06,2.29-12.18,3.77-18.38,1.47-6.19,3.45-14.74,5.92-25.66,2.47-10.91,4.59-20.98,6.36-30.19,1.94-10.33,3.49-17.31,4.65-20.93Zm7.74-59.8c2.31-2.78,4.47-4.23,6.46-4.32,2-.1,4.28,1.24,6.87,4,2.11,2.12,3.24,3.68,3.4,4.67.16.99-.58,2.98-2.21,5.95-2.07,3.22-4.48,5.18-7.22,5.86-2.75.69-5.29-.02-7.62-2.13-4.42-3.79-4.31-8.47.31-14.04Z" style="fill:#3a7ca5; stroke-width:0px;"/><path d="m570.54,859.94c.08,1.56-1.3,5.3-4.12,11.22-2.83,5.93-4.2,9.61-4.13,11.05.07,1.45-1.03,5.17-3.29,11.18-2.27,6.01-5.57,11.35-9.9,16.01-4.33,4.67-8.6,5.1-12.79,1.3-1.63-1.47-2.39-3.39-2.29-5.73.1-2.34.98-7.23,2.62-14.65,2.01-8.78,3.76-15.15,5.24-19.12,1.47-3.96,2.45-7.85,2.93-11.66.89-4.49,2.4-11.08,4.54-19.75,2.13-8.67,3.71-16.15,4.74-22.43,1.03-6.28,1.1-11.51.23-15.7-.63-3.75-.77-6.52-.41-8.33.36-1.8,1.49-3.63,3.4-5.51,5.94-5.85,10.79-4.54,14.55,3.96l2.64,6.21,12.68-13.64c7.81-8.61,13.54-13.24,17.18-13.86,3.64-.62,8.07,2.28,13.28,8.7,7.83,9.85,9.99,22.1,6.48,36.74-1.67,6.76-3.93,17.44-6.77,32.05-2.84,14.61-4.41,23.48-4.7,26.6-.27,3.58-1.69,6.32-4.27,8.22-2.58,1.91-5.24,2.04-7.99.39-6.4-3.47-7.32-12.99-2.74-28.57,4.37-15.12,7.29-29.29,8.76-42.49,1.46-13.2.94-20.52-1.58-21.96-1.6-.81-4.23,1.16-7.89,5.9-3.66,4.74-6.58,9.95-8.75,15.62-11.89,29.74-17.78,45.83-17.66,48.27Z" style="fill:#3a7ca5; stroke-width:0px;"/><path d="m644.29,954.47c-2.97-1.64-4.5-3.23-4.57-4.78-.08-1.56,3.87-8.37,11.85-20.45,7.97-12.08,11.95-18.45,11.91-19.11-.05-1.11,1.67-4.53,5.17-10.27,2.69-4.14,4.14-7.38,4.36-9.73s-.42-7.38-1.91-15.1c-.53-1.75-1.15-4.12-1.85-7.09-.7-2.97-1.91-8.36-3.63-16.18-1.72-7.81-3.2-15.31-4.44-22.48-1.24-7.17-2.5-14.57-3.76-22.18-1.27-7.62-1.97-14.03-2.12-19.26-.15-5.22.42-8.53,1.68-9.93,1.88-2.54,3.54-3.68,5.01-3.42,1.46.26,3.72,2.21,6.8,5.84,1.88,2.13,3.23,4.68,4.05,7.65.81,2.96,1.38,7.78,1.71,14.44.37,7.55,1.89,17.99,4.54,31.32,2.66,13.34,4.82,21.19,6.5,23.55,3.36,4.96,8.75-.87,16.17-17.49l8.58-22.46c-.05-1.11,1.36-3.91,4.26-8.39,2.89-4.48,4.29-7.83,4.18-10.05-.1-2,.78-5.55,2.65-10.65,1.86-5.1,4.65-9.52,8.36-13.26,3.71-3.74,7.42-4.15,11.12-1.21,2.55,2.1,4.12,4.64,4.71,7.61.59,2.98.02,5.06-1.7,6.26-1.51.97-2.19,3-2.04,6.11.13,2.67-.68,6.43-2.45,11.3-1.76,4.88-4.4,11.35-7.89,19.42-3.5,8.08-6.21,15.16-8.13,21.26-1.75,5.21-3.54,9.58-5.36,13.12-1.83,3.54-3.16,6-3.98,7.37-.82,1.38-1.2,2.73-1.14,4.06.08,1.56-.25,2.8-.99,3.72-.74.93-2.19,2.89-4.38,5.89-2.19,3-4.39,6.89-6.6,11.68-5.62,12.52-14.17,26.45-25.65,41.82-11.49,15.36-19.12,23.14-22.89,23.32-2.45.12-5.15-.64-8.12-2.27Z" style="fill:#3a7ca5; stroke-width:0px;"/><path d="m831.5,694.89c3.96-.86,11.73-1.25,23.31-1.15,10.02.17,17.72,1.63,23.08,4.37,5.36,2.74,11.15,8.41,17.36,17.01,4.77,6.44,7.99,13.08,9.66,19.89,1.67,6.82,1.5,12.5-.5,17.05-2,4.55-5.56,6.95-10.66,7.2-2.89.14-4.75-.32-5.58-1.4-.84-1.07-1.72-4.36-2.66-9.88-1.66-11.04-6.54-19.76-14.64-26.15-8.11-6.39-16.97-8.96-26.58-7.71-9.62,1.26-17.21,6.36-22.78,15.31-3.72,5.75-5.35,13.51-4.87,23.27.48,9.77,2.97,17.44,7.47,23,4.51,5.79,8.75,10.59,12.73,14.4,3.97,3.81,6.62,5.68,7.95,5.62,2-.1,8.1,4.17,18.32,12.79,10.22,8.63,16.77,15.09,19.65,19.4,3.36,4.96,5.33,11.09,5.91,18.4.58,7.32-.44,13.82-3.05,19.51-3.41,7.74-8.61,15.06-15.61,21.97-7,6.91-14.01,11.54-21.02,13.89-5.69,2.06-9.98,3.11-12.87,3.14-2.89.03-8.16-.65-15.79-2.06-20.45-3.89-38.21-14.26-53.27-31.1-6.14-7.04-9.74-12.54-10.83-16.49-1.09-3.95.2-7.13,3.87-9.54,2.14-1.66,5.01-1.02,8.61,1.91,3.59,2.94,8.72,7.53,15.37,13.77,6.65,6.24,13.19,11.32,19.61,15.23,5.04,3.09,9.14,4.95,12.29,5.57,3.14.63,8.72.74,16.71.35,8.66-.43,14.14-1.03,16.44-1.81,2.3-.78,5.13-3.03,8.51-6.76,4.01-4.42,6.73-10.18,8.17-17.26,1.43-7.08,1.03-13.01-1.21-17.8-1.28-3.28-5.11-7.65-11.49-13.12-6.39-5.47-12.1-9.42-17.11-11.85-6.61-3.01-15.35-11.15-26.24-24.42-10.89-13.26-16.57-24.67-17.04-34.21-.23-4.66.87-10.56,3.3-17.69,2.43-7.13,4.92-11.87,7.48-14.22,2.56-2.35,3.78-4.53,3.69-6.52-.11-2.22,3.03-6.21,9.43-11.98,6.39-5.77,11.35-9.07,14.87-9.91Z" style="fill:#3a7ca5; stroke-width:0px;"/><path d="m961.23,729.57c1.57-2.08,3.69-3.07,6.36-2.98,2.67.09,5.18,1.3,7.52,3.64,2.58,2.77,4.49,9.91,5.73,21.42l1.52,17.29,10.66-.52c7.77-.38,13.28.85,16.54,3.69,3.25,2.84,3.35,6.01.3,9.5-3.06,3.49-8.55,5.99-16.49,7.49-7.05,1.46-11.25,3.17-12.6,5.13-1.35,1.96-3.48,9.58-6.39,22.85-7.25,33.74-13.34,55.8-18.28,66.16-4.95,10.37-10.95,13.84-18.02,10.4-2.05-1.01-3.4-2.22-4.02-3.64-.63-1.42-.51-4.65.36-9.7.86-5.05,2.28-11.24,4.26-18.57,1.98-7.33,5.26-18.67,9.84-34.03,2.1-7,3-13.61,2.7-19.83,0-4.23-.46-7.04-1.42-8.44-.96-1.4-3.37-2.89-7.23-4.49-3.19-1.4-6.75-2.56-10.69-3.48-3.94-.92-6.93-1.83-8.98-2.73-2.05-.9-3.91-2.53-5.58-4.9-1.92-2.8-2.9-4.7-2.95-5.7-.05-1,.98-2.66,3.09-4.99,2.11-2.33,4.05-3.65,5.81-3.96,1.76-.3,5.67-.05,11.72.76,9.64,1.53,15.75,1.18,18.31-1.07,2.56-2.24,4.14-8.6,4.74-19.09.55-11.38,1.61-18.11,3.18-20.19Z" style="fill:#3a7ca5; stroke-width:0px;"/><path d="m1060.21,756.75c5.19-3.15,12.22-4.94,21.1-5.38,6.44-.32,10.96.02,13.57,1,2.6.99,7.28,4.43,14.03,10.33.92.62,2.07,1.46,3.46,2.5,5.58,4.85,9.06,8.96,10.45,12.34,1.39,3.39,3.37,13.13,5.95,29.25.64,3.97,1.12,6.96,1.44,8.94,2.63,17.23-1.47,32.4-12.28,45.51-10.82,13.11-25.32,20.44-43.49,22-16.64,1.04-30.16-4.58-40.55-16.87-10.4-12.29-14.49-27.5-12.26-45.63,1.59-12.76,6.05-25.17,13.36-37.21,7.3-12.04,15.71-20.97,25.22-26.78Zm35.48,22.29c-1.64-1.7-7.02-2.33-16.12-1.88-6.22.31-10.53.91-12.93,1.8-2.41.9-5.41,3.22-9,6.95-3.18,3.28-5.63,6.62-7.35,10.04-1.73,3.42-3.22,8.06-4.49,13.91-2.2,9.68-2.85,17.83-1.97,24.47.88,6.63,3.58,12.96,8.11,18.96,3.1,4.3,5.56,6.79,7.38,7.48,1.81.69,5.72.89,11.71.59,8.44-.42,15.56-2.77,21.35-7.06,5.36-4.04,9.72-9.33,13.08-15.83,3.35-6.51,4.89-12.64,4.6-18.42-.22-4.44-2.08-11.8-5.59-22.09-3.51-10.29-6.44-16.59-8.78-18.93Z" style="fill:#3a7ca5; stroke-width:0px;"/><path d="m1169.98,755.69c4.41-5.33,7.75-8.61,10.03-9.84,2.28-1.22,5.63-1.95,10.08-2.16,4-.2,7.24.2,9.74,1.19,2.5.99,5.95,3.27,10.35,6.84,5.59,5.07,9.2,9.45,10.83,13.16,1.63,3.71,2.43,9.79,2.4,18.24.03,5.12-.31,8.36-1.02,9.73-.71,1.37-2.51,2.24-5.38,2.6-3.31.61-6.43-.57-9.35-3.55-2.93-2.97-4.5-6.57-4.7-10.79-.14-2.88-1.76-6.26-4.84-10.11-3.08-3.85-6.13-4.71-9.14-2.55-2.38,1.45-5.93,7.3-10.66,17.55-4.73,10.25-7,17.15-6.83,20.7.1,2-.92,8.45-3.05,19.34-2.13,10.9-3.51,19.15-4.13,24.74-1.71,15-6.45,22.68-14.22,23.07-2.66.13-4.8-.21-6.39-1.02-1.6-.81-2.67-2.32-3.23-4.51-.56-2.2-.84-4.58-.85-7.14-.02-2.56.38-5.91,1.17-10.07.8-4.15,1.6-8.14,2.42-11.97.81-3.82,1.85-8.66,3.13-14.51,1.27-5.85,2.34-11.24,3.21-16.18,1.21-6.95,2.73-13.37,4.56-19.25,1.82-5.88,3.34-10.23,4.53-13.08,1.19-2.84,1.77-4.81,1.71-5.93-.11-2.22,3.1-7.05,9.64-14.5Z" style="fill:#3a7ca5; stroke-width:0px;"/><path d="m1281.97,745.18c5.94-5.85,11.03-8.83,15.25-8.93,4.22-.09,9.26,2.83,15.12,8.77,4.68,4.67,7.52,8.2,8.53,10.6,1,2.4,1.71,7.71,2.12,15.92.55,11.1,1.54,16.62,2.98,16.54,1.44-.07,5.16-4.7,11.17-13.9,9.51-14.71,16.85-23.86,22.02-27.46,5.16-3.59,10.08-3.05,14.77,1.61,4.67,4.44,6.84,12.35,6.51,23.72-.33,11.37-3.16,28.53-8.49,51.49-2.41,9.92-3.47,16.7-3.17,20.35.29,3.66,1.92,6.2,4.88,7.61,3.18,1.4,4.64,3.78,4.36,7.13-.28,3.35-2.57,5.47-6.87,6.35s-8.51.08-12.64-2.38c-2.52-1.43-4.16-3.13-4.93-5.1-.76-1.96-1.3-6.05-1.6-12.27-.23-4.66-.19-8.28.13-10.86.32-2.57.71-4.65,1.2-6.24.48-1.58,1.31-4.96,2.51-10.14,1.19-5.18,2.39-11.35,3.59-18.54,3.15-17.51,3.16-26.19.06-26.04-3.11.15-10.55,9.53-22.32,28.14-7.45,11.5-12.99,19.95-16.61,25.35-3.63,5.41-7.04,9.58-10.23,12.52-3.19,2.94-5.58,4.17-7.16,3.69-1.58-.48-3.66-1.99-6.23-4.53-.22.01-.46-.2-.7-.63-1.4-1.27-2.19-2.56-2.36-3.89-.18-1.33.22-4.63,1.18-9.91.96-5.27,3.07-13.34,6.32-24.18,4.02-13.33,5.43-24.24,4.23-32.76-1.2-8.5-4.57-12.63-10.12-12.35-2.22.11-4.34,1.27-6.34,3.48-2.01,2.22-4.75,6.53-8.21,12.92-5.7,10.96-8.51,17-8.46,18.11.03.67-.94,3.67-2.9,8.99-1.96,5.33-4.25,12.01-6.86,20.03-2.61,8.03-4.42,15.41-5.42,22.13s-3.32,12.85-6.94,18.37c-3.63,5.52-6.89,8.13-9.8,7.83-2.23-.11-3.77-.87-4.62-2.28-.85-1.4-1.49-4.21-1.92-8.42-.77-6.64-.02-14.02,2.25-22.14l6.76-25.37c1.31-4.96,2.58-12.09,3.79-21.38,1.21-9.29,2.26-17.47,3.13-24.52.88-7.05,1.73-11.15,2.57-12.31,1.45-2.08,3.85-3.08,7.2-3.03,3.34.06,6.29,1.14,8.84,3.24,2.08,1.68,3.78,2.26,5.09,1.75,1.31-.51,4.08-2.87,8.33-7.09Z" style="fill:#3a7ca5; stroke-width:0px;"/></g></svg>