<?xml version="1.0" encoding="UTF-8"?><svg id="a" xmlns="http://www.w3.org/2000/svg" viewBox="0 0 1536 1024"><path d="m183.85,849.97c-43.52,0-68.01-41.41-68.01-116.66,0-70.66,26.38-116.99,67.07-116.99,13.56,0,25.25,4.93,35.98,15.45l3.2-12.16h20.54v90.7h-22.61c-4.33-41.08-12.62-60.47-28.45-60.47-18.27,0-25.43,26.62-25.43,82.81s6.97,84.46,26.56,84.46c16.58,0,28.83-22.02,30.14-59.15h20.35c-.94,59.15-22.04,92.02-59.35,92.02Z" style="fill:#fff; stroke-width:0px;"/><path d="m255.82,651.81h-4.14v-28.92h50.11v176.14c0,12.49,1.32,15.45,8.67,15.45h3.01v28.92h-61.79v-28.92h4.14c7.35,0,8.86-2.96,8.86-15.45v-131.78c0-12.49-1.51-15.45-8.86-15.45Z" style="fill:#fff; stroke-width:0px;"/><path d="m428.4,765.84c0,51.27-20.54,83.14-54.07,83.14s-53.88-31.22-53.88-83.14,20.16-83.47,53.69-83.47,54.26,32.21,54.26,83.47Zm-54.26-52.91c-10.93,0-13.75,16.43-13.75,52.91s2.83,52.91,14.13,52.91,13.75-16.43,13.75-52.91-2.83-52.91-14.13-52.91Z" style="fill:#fff; stroke-width:0px;"/><path d="m508.85,727.4c0-6.9-3.01-9.53-9.8-10.19v-28.92h43.52v28.92h-.75c-7.54,0-11.3,4.93-13.75,17.42l-21.29,108.78h-41.07l-20.16-110.75c-2.07-11.83-3.39-15.45-8.67-15.45h-3.39v-28.92h58.03v28.92h-2.64c-5.28,0-7.54,1.97-7.54,8.87,0,1.31.19,3.62.75,6.57l13,69.67,13.19-69.67c.38-1.97.56-3.61.56-5.26Z" style="fill:#fff; stroke-width:0px;"/><path d="m595.7,849.32c-31.46,0-50.68-32.21-50.68-83.47s19.59-83.47,50.3-83.47,47.1,30.89,47.1,87.09v5.59h-59.16v3.29c0,26.29,6.59,40.42,18.09,40.42,9.61,0,16.2-10.19,18.27-29.25h23.17c-4.33,40.42-19.78,59.81-47.1,59.81Zm14.88-103.19v-2.3c0-21.03-5.09-32.21-13.75-32.21s-13.57,11.83-13.57,34.51h27.32Z" style="fill:#fff; stroke-width:0px;"/><path d="m722.69,682.7c13.75,0,22.23,15.45,22.23,38.12,0,20.05-7.16,32.86-17.52,32.86-8.48,0-14.7-10.52-14.7-23.99,0-9.53,2.64-16.43,8.29-21.36-1.51-.66-2.83-.99-4.15-.99-9.61,0-16.2,16.43-16.2,46.01v45.68c0,12.49,1.51,15.45,8.85,15.45h6.03v28.92h-64.06v-28.92h3.2c7.35,0,8.86-2.96,8.86-15.45v-66.38c0-12.49-1.51-15.45-8.86-15.45h-3.2v-28.92h48.23v15.12c6.41-13.8,14.13-20.7,22.98-20.7Z" style="fill:#fff; stroke-width:0px;"/><path d="m863.99,654.11c-5.46,0-7.91,1.97-7.91,8.22,0,3.62.38,6.57.75,8.54l17.9,111.73,14.7-104.18c-1.88-18.73-5.09-23.99-15.64-24.32v-31.22h62.36v31.22h-4.14c-6.59,0-9.42,1.31-9.42,8.22,0,2.96.38,5.92.75,8.54l15.64,111.73,16.2-112.06c.57-3.62.75-6.24.75-8.22,0-7.23-2.83-8.22-10.55-8.22v-31.22h48.23v31.22c-8.1,0-11.68,5.92-14.13,21.36l-26.38,167.93h-40.13l-12.43-89.72-12.81,89.72h-40.51l-26-162.01c-3.01-18.4-7.35-26.95-15.83-27.28v-31.22h58.59v31.22Z" style="fill:#fff; stroke-width:0px;"/><path d="m1092.9,765.84c0,51.27-20.54,83.14-54.07,83.14s-53.88-31.22-53.88-83.14,20.16-83.47,53.69-83.47,54.26,32.21,54.26,83.47Zm-54.26-52.91c-10.93,0-13.75,16.43-13.75,52.91s2.83,52.91,14.13,52.91,13.75-16.43,13.75-52.91-2.83-52.91-14.13-52.91Z" style="fill:#fff; stroke-width:0px;"/><path d="m1171.84,682.7c13.75,0,22.23,15.45,22.23,38.12,0,20.05-7.16,32.86-17.52,32.86-8.48,0-14.7-10.52-14.7-23.99,0-9.53,2.64-16.43,8.29-21.36-1.51-.66-2.83-.99-4.15-.99-9.61,0-16.2,16.43-16.2,46.01v45.68c0,12.49,1.51,15.45,8.85,15.45h6.03v28.92h-64.06v-28.92h3.2c7.35,0,8.86-2.96,8.86-15.45v-66.38c0-12.49-1.51-15.45-8.86-15.45h-3.2v-28.92h48.23v15.12c6.41-13.8,14.13-20.7,22.98-20.7Z" style="fill:#fff; stroke-width:0px;"/><path d="m1255.68,651.48c-1.32,0-3.01.33-4.71.33v-28.92h52.38v176.14c0,12.49,1.32,15.45,8.29,15.45h4.52v28.92h-47.48v-21.36c-8.85,18.4-17.52,26.62-29.2,26.62-24.87,0-37.87-27.93-37.87-82.16s14.88-84.13,36.36-84.13c10.93,0,20.16,6.57,28.26,23.33v-38.45c0-12.49-2.26-15.77-10.55-15.77Zm-2.07,65.73c-8.48,0-12.25,16.1-12.25,49.29s3.96,48.97,12.25,48.97,12.43-16.1,12.43-48.97-3.58-49.29-12.43-49.29Z" style="fill:#fff; stroke-width:0px;"/><path d="m1324.64,845.7v-56.85h16.58c3.96,20.05,12.43,30.23,25.62,30.23,8.67,0,12.43-3.94,12.43-13.15,0-11.17-7.91-12.49-22.61-20.7-22.61-12.49-33.91-21.36-33.91-50.61,0-30.89,15.45-52.25,42.2-52.25,11.68,0,22.23,3.94,32.41,12.16l2.64-9.2h13.94v48.97h-14.7c-5.28-15.45-14.32-23.99-25.06-23.99-7.91,0-12.06,4.93-12.06,11.83,0,11.83,6.78,13.14,19.78,20.38,9.42,5.26,18.65,9.2,26.56,18.4,6.22,7.23,9.8,19.72,9.8,35.16,0,32.21-15.07,52.91-41.45,52.91-13.94,0-26.38-5.59-35.61-15.45l-3.39,12.16h-13.19Z" style="fill:#fff; stroke-width:0px;"/><path d="m183.85,849.97c-43.52,0-68.01-41.41-68.01-116.66,0-70.66,26.38-116.99,67.07-116.99,13.56,0,25.25,4.93,35.98,15.45l3.2-12.16h20.54v90.7h-22.61c-4.33-41.08-12.62-60.47-28.45-60.47-18.27,0-25.43,26.62-25.43,82.81s6.97,84.46,26.56,84.46c16.58,0,28.83-22.02,30.14-59.15h20.35c-.94,59.15-22.04,92.02-59.35,92.02Z" style="fill:none; stroke:#000; stroke-width:45px;"/><path d="m255.82,651.81h-4.14v-28.92h50.11v176.14c0,12.49,1.32,15.45,8.67,15.45h3.01v28.92h-61.79v-28.92h4.14c7.35,0,8.86-2.96,8.86-15.45v-131.78c0-12.49-1.51-15.45-8.86-15.45Z" style="fill:none; stroke:#000; stroke-width:45px;"/><path d="m428.4,765.84c0,51.27-20.54,83.14-54.07,83.14s-53.88-31.22-53.88-83.14,20.16-83.47,53.69-83.47,54.26,32.21,54.26,83.47Zm-54.26-52.91c-10.93,0-13.75,16.43-13.75,52.91s2.83,52.91,14.13,52.91,13.75-16.43,13.75-52.91-2.83-52.91-14.13-52.91Z" style="fill:none; stroke:#000; stroke-width:45px;"/><path d="m508.85,727.4c0-6.9-3.01-9.53-9.8-10.19v-28.92h43.52v28.92h-.75c-7.54,0-11.3,4.93-13.75,17.42l-21.29,108.78h-41.07l-20.16-110.75c-2.07-11.83-3.39-15.45-8.67-15.45h-3.39v-28.92h58.03v28.92h-2.64c-5.28,0-7.54,1.97-7.54,8.87,0,1.31.19,3.62.75,6.57l13,69.67,13.19-69.67c.38-1.97.56-3.61.56-5.26Z" style="fill:none; stroke:#000; stroke-width:45px;"/><path d="m595.7,849.32c-31.46,0-50.68-32.21-50.68-83.47s19.59-83.47,50.3-83.47,47.1,30.89,47.1,87.09v5.59h-59.16v3.29c0,26.29,6.59,40.42,18.09,40.42,9.61,0,16.2-10.19,18.27-29.25h23.17c-4.33,40.42-19.78,59.81-47.1,59.81Zm14.88-103.19v-2.3c0-21.03-5.09-32.21-13.75-32.21s-13.57,11.83-13.57,34.51h27.32Z" style="fill:none; stroke:#000; stroke-width:45px;"/><path d="m722.69,682.7c13.75,0,22.23,15.45,22.23,38.12,0,20.05-7.16,32.86-17.52,32.86-8.48,0-14.7-10.52-14.7-23.99,0-9.53,2.64-16.43,8.29-21.36-1.51-.66-2.83-.99-4.15-.99-9.61,0-16.2,16.43-16.2,46.01v45.68c0,12.49,1.51,15.45,8.85,15.45h6.03v28.92h-64.06v-28.92h3.2c7.35,0,8.86-2.96,8.86-15.45v-66.38c0-12.49-1.51-15.45-8.86-15.45h-3.2v-28.92h48.23v15.12c6.41-13.8,14.13-20.7,22.98-20.7Z" style="fill:none; stroke:#000; stroke-width:45px;"/><path d="m863.99,654.11c-5.46,0-7.91,1.97-7.91,8.22,0,3.62.38,6.57.75,8.54l17.9,111.73,14.7-104.18c-1.88-18.73-5.09-23.99-15.64-24.32v-31.22h62.36v31.22h-4.14c-6.59,0-9.42,1.31-9.42,8.22,0,2.96.38,5.92.75,8.54l15.64,111.73,16.2-112.06c.57-3.62.75-6.24.75-8.22,0-7.23-2.83-8.22-10.55-8.22v-31.22h48.23v31.22c-8.1,0-11.68,5.92-14.13,21.36l-26.38,167.93h-40.13l-12.43-89.72-12.81,89.72h-40.51l-26-162.01c-3.01-18.4-7.35-26.95-15.83-27.28v-31.22h58.59v31.22Z" style="fill:none; stroke:#000; stroke-width:45px;"/><path d="m1092.9,765.84c0,51.27-20.54,83.14-54.07,83.14s-53.88-31.22-53.88-83.14,20.16-83.47,53.69-83.47,54.26,32.21,54.26,83.47Zm-54.26-52.91c-10.93,0-13.75,16.43-13.75,52.91s2.83,52.91,14.13,52.91,13.75-16.43,13.75-52.91-2.83-52.91-14.13-52.91Z" style="fill:none; stroke:#000; stroke-width:45px;"/><path d="m1171.84,682.7c13.75,0,22.23,15.45,22.23,38.12,0,20.05-7.16,32.86-17.52,32.86-8.48,0-14.7-10.52-14.7-23.99,0-9.53,2.64-16.43,8.29-21.36-1.51-.66-2.83-.99-4.15-.99-9.61,0-16.2,16.43-16.2,46.01v45.68c0,12.49,1.51,15.45,8.85,15.45h6.03v28.92h-64.06v-28.92h3.2c7.35,0,8.86-2.96,8.86-15.45v-66.38c0-12.49-1.51-15.45-8.86-15.45h-3.2v-28.92h48.23v15.12c6.41-13.8,14.13-20.7,22.98-20.7Z" style="fill:none; stroke:#000; stroke-width:45px;"/><path d="m1255.68,651.48c-1.32,0-3.01.33-4.71.33v-28.92h52.38v176.14c0,12.49,1.32,15.45,8.29,15.45h4.52v28.92h-47.48v-21.36c-8.85,18.4-17.52,26.62-29.2,26.62-24.87,0-37.87-27.93-37.87-82.16s14.88-84.13,36.36-84.13c10.93,0,20.16,6.57,28.26,23.33v-38.45c0-12.49-2.26-15.77-10.55-15.77Zm-2.07,65.73c-8.48,0-12.25,16.1-12.25,49.29s3.96,48.97,12.25,48.97,12.43-16.1,12.43-48.97-3.58-49.29-12.43-49.29Z" style="fill:none; stroke:#000; stroke-width:45px;"/><path d="m1324.64,845.7v-56.85h16.58c3.96,20.05,12.43,30.23,25.62,30.23,8.67,0,12.43-3.94,12.43-13.15,0-11.17-7.91-12.49-22.61-20.7-22.61-12.49-33.91-21.36-33.91-50.61,0-30.89,15.45-52.25,42.2-52.25,11.68,0,22.23,3.94,32.41,12.16l2.64-9.2h13.94v48.97h-14.7c-5.28-15.45-14.32-23.99-25.06-23.99-7.91,0-12.06,4.93-12.06,11.83,0,11.83,6.78,13.14,19.78,20.38,9.42,5.26,18.65,9.2,26.56,18.4,6.22,7.23,9.8,19.72,9.8,35.16,0,32.21-15.07,52.91-41.45,52.91-13.94,0-26.38-5.59-35.61-15.45l-3.39,12.16h-13.19Z" style="fill:none; stroke:#000; stroke-width:45px;"/><path d="m183.85,849.97c-43.52,0-68.01-41.41-68.01-116.66,0-70.66,26.38-116.99,67.07-116.99,13.56,0,25.25,4.93,35.98,15.45l3.2-12.16h20.54v90.7h-22.61c-4.33-41.08-12.62-60.47-28.45-60.47-18.27,0-25.43,26.62-25.43,82.81s6.97,84.46,26.56,84.46c16.58,0,28.83-22.02,30.14-59.15h20.35c-.94,59.15-22.04,92.02-59.35,92.02Z" style="fill:none; stroke:#44bba4; stroke-width:20px;"/><path d="m255.82,651.81h-4.14v-28.92h50.11v176.14c0,12.49,1.32,15.45,8.67,15.45h3.01v28.92h-61.79v-28.92h4.14c7.35,0,8.86-2.96,8.86-15.45v-131.78c0-12.49-1.51-15.45-8.86-15.45Z" style="fill:none; stroke:#44bba4; stroke-width:20px;"/><path d="m428.4,765.84c0,51.27-20.54,83.14-54.07,83.14s-53.88-31.22-53.88-83.14,20.16-83.47,53.69-83.47,54.26,32.21,54.26,83.47Zm-54.26-52.91c-10.93,0-13.75,16.43-13.75,52.91s2.83,52.91,14.13,52.91,13.75-16.43,13.75-52.91-2.83-52.91-14.13-52.91Z" style="fill:none; stroke:#44bba4; stroke-width:20px;"/><path d="m508.85,727.4c0-6.9-3.01-9.53-9.8-10.19v-28.92h43.52v28.92h-.75c-7.54,0-11.3,4.93-13.75,17.42l-21.29,108.78h-41.07l-20.16-110.75c-2.07-11.83-3.39-15.45-8.67-15.45h-3.39v-28.92h58.03v28.92h-2.64c-5.28,0-7.54,1.97-7.54,8.87,0,1.31.19,3.62.75,6.57l13,69.67,13.19-69.67c.38-1.97.56-3.61.56-5.26Z" style="fill:none; stroke:#44bba4; stroke-width:20px;"/><path d="m595.7,849.32c-31.46,0-50.68-32.21-50.68-83.47s19.59-83.47,50.3-83.47,47.1,30.89,47.1,87.09v5.59h-59.16v3.29c0,26.29,6.59,40.42,18.09,40.42,9.61,0,16.2-10.19,18.27-29.25h23.17c-4.33,40.42-19.78,59.81-47.1,59.81Zm14.88-103.19v-2.3c0-21.03-5.09-32.21-13.75-32.21s-13.57,11.83-13.57,34.51h27.32Z" style="fill:none; stroke:#44bba4; stroke-width:20px;"/><path d="m722.69,682.7c13.75,0,22.23,15.45,22.23,38.12,0,20.05-7.16,32.86-17.52,32.86-8.48,0-14.7-10.52-14.7-23.99,0-9.53,2.64-16.43,8.29-21.36-1.51-.66-2.83-.99-4.15-.99-9.61,0-16.2,16.43-16.2,46.01v45.68c0,12.49,1.51,15.45,8.85,15.45h6.03v28.92h-64.06v-28.92h3.2c7.35,0,8.86-2.96,8.86-15.45v-66.38c0-12.49-1.51-15.45-8.86-15.45h-3.2v-28.92h48.23v15.12c6.41-13.8,14.13-20.7,22.98-20.7Z" style="fill:none; stroke:#44bba4; stroke-width:20px;"/><path d="m863.99,654.11c-5.46,0-7.91,1.97-7.91,8.22,0,3.62.38,6.57.75,8.54l17.9,111.73,14.7-104.18c-1.88-18.73-5.09-23.99-15.64-24.32v-31.22h62.36v31.22h-4.14c-6.59,0-9.42,1.31-9.42,8.22,0,2.96.38,5.92.75,8.54l15.64,111.73,16.2-112.06c.57-3.62.75-6.24.75-8.22,0-7.23-2.83-8.22-10.55-8.22v-31.22h48.23v31.22c-8.1,0-11.68,5.92-14.13,21.36l-26.38,167.93h-40.13l-12.43-89.72-12.81,89.72h-40.51l-26-162.01c-3.01-18.4-7.35-26.95-15.83-27.28v-31.22h58.59v31.22Z" style="fill:none; stroke:#44bba4; stroke-width:20px;"/><path d="m1092.9,765.84c0,51.27-20.54,83.14-54.07,83.14s-53.88-31.22-53.88-83.14,20.16-83.47,53.69-83.47,54.26,32.21,54.26,83.47Zm-54.26-52.91c-10.93,0-13.75,16.43-13.75,52.91s2.83,52.91,14.13,52.91,13.75-16.43,13.75-52.91-2.83-52.91-14.13-52.91Z" style="fill:none; stroke:#44bba4; stroke-width:20px;"/><path d="m1171.84,682.7c13.75,0,22.23,15.45,22.23,38.12,0,20.05-7.16,32.86-17.52,32.86-8.48,0-14.7-10.52-14.7-23.99,0-9.53,2.64-16.43,8.29-21.36-1.51-.66-2.83-.99-4.15-.99-9.61,0-16.2,16.43-16.2,46.01v45.68c0,12.49,1.51,15.45,8.85,15.45h6.03v28.92h-64.06v-28.92h3.2c7.35,0,8.86-2.96,8.86-15.45v-66.38c0-12.49-1.51-15.45-8.86-15.45h-3.2v-28.92h48.23v15.12c6.41-13.8,14.13-20.7,22.98-20.7Z" style="fill:none; stroke:#44bba4; stroke-width:20px;"/><path d="m1255.68,651.48c-1.32,0-3.01.33-4.71.33v-28.92h52.38v176.14c0,12.49,1.32,15.45,8.29,15.45h4.52v28.92h-47.48v-21.36c-8.85,18.4-17.52,26.62-29.2,26.62-24.87,0-37.87-27.93-37.87-82.16s14.88-84.13,36.36-84.13c10.93,0,20.16,6.57,28.26,23.33v-38.45c0-12.49-2.26-15.77-10.55-15.77Zm-2.07,65.73c-8.48,0-12.25,16.1-12.25,49.29s3.96,48.97,12.25,48.97,12.43-16.1,12.43-48.97-3.58-49.29-12.43-49.29Z" style="fill:none; stroke:#44bba4; stroke-width:20px;"/><path d="m1324.64,845.7v-56.85h16.58c3.96,20.05,12.43,30.23,25.62,30.23,8.67,0,12.43-3.94,12.43-13.15,0-11.17-7.91-12.49-22.61-20.7-22.61-12.49-33.91-21.36-33.91-50.61,0-30.89,15.45-52.25,42.2-52.25,11.68,0,22.23,3.94,32.41,12.16l2.64-9.2h13.94v48.97h-14.7c-5.28-15.45-14.32-23.99-25.06-23.99-7.91,0-12.06,4.93-12.06,11.83,0,11.83,6.78,13.14,19.78,20.38,9.42,5.26,18.65,9.2,26.56,18.4,6.22,7.23,9.8,19.72,9.8,35.16,0,32.21-15.07,52.91-41.45,52.91-13.94,0-26.38-5.59-35.61-15.45l-3.39,12.16h-13.19Z" style="fill:none; stroke:#44bba4; stroke-width:20px;"/><path d="m183.85,849.97c-43.52,0-68.01-41.41-68.01-116.66,0-70.66,26.38-116.99,67.07-116.99,13.56,0,25.25,4.93,35.98,15.45l3.2-12.16h20.54v90.7h-22.61c-4.33-41.08-12.62-60.47-28.45-60.47-18.27,0-25.43,26.62-25.43,82.81s6.97,84.46,26.56,84.46c16.58,0,28.83-22.02,30.14-59.15h20.35c-.94,59.15-22.04,92.02-59.35,92.02Z" style="fill:#fff; stroke-width:0px;"/><path d="m255.82,651.81h-4.14v-28.92h50.11v176.14c0,12.49,1.32,15.45,8.67,15.45h3.01v28.92h-61.79v-28.92h4.14c7.35,0,8.86-2.96,8.86-15.45v-131.78c0-12.49-1.51-15.45-8.86-15.45Z" style="fill:#fff; stroke-width:0px;"/><path d="m428.4,765.84c0,51.27-20.54,83.14-54.07,83.14s-53.88-31.22-53.88-83.14,20.16-83.47,53.69-83.47,54.26,32.21,54.26,83.47Zm-54.26-52.91c-10.93,0-13.75,16.43-13.75,52.91s2.83,52.91,14.13,52.91,13.75-16.43,13.75-52.91-2.83-52.91-14.13-52.91Z" style="fill:#fff; stroke-width:0px;"/><path d="m508.85,727.4c0-6.9-3.01-9.53-9.8-10.19v-28.92h43.52v28.92h-.75c-7.54,0-11.3,4.93-13.75,17.42l-21.29,108.78h-41.07l-20.16-110.75c-2.07-11.83-3.39-15.45-8.67-15.45h-3.39v-28.92h58.03v28.92h-2.64c-5.28,0-7.54,1.97-7.54,8.87,0,1.31.19,3.62.75,6.57l13,69.67,13.19-69.67c.38-1.97.56-3.61.56-5.26Z" style="fill:#fff; stroke-width:0px;"/><path d="m595.7,849.32c-31.46,0-50.68-32.21-50.68-83.47s19.59-83.47,50.3-83.47,47.1,30.89,47.1,87.09v5.59h-59.16v3.29c0,26.29,6.59,40.42,18.09,40.42,9.61,0,16.2-10.19,18.27-29.25h23.17c-4.33,40.42-19.78,59.81-47.1,59.81Zm14.88-103.19v-2.3c0-21.03-5.09-32.21-13.75-32.21s-13.57,11.83-13.57,34.51h27.32Z" style="fill:#fff; stroke-width:0px;"/><path d="m722.69,682.7c13.75,0,22.23,15.45,22.23,38.12,0,20.05-7.16,32.86-17.52,32.86-8.48,0-14.7-10.52-14.7-23.99,0-9.53,2.64-16.43,8.29-21.36-1.51-.66-2.83-.99-4.15-.99-9.61,0-16.2,16.43-16.2,46.01v45.68c0,12.49,1.51,15.45,8.85,15.45h6.03v28.92h-64.06v-28.92h3.2c7.35,0,8.86-2.96,8.86-15.45v-66.38c0-12.49-1.51-15.45-8.86-15.45h-3.2v-28.92h48.23v15.12c6.41-13.8,14.13-20.7,22.98-20.7Z" style="fill:#fff; stroke-width:0px;"/><path d="m863.99,654.11c-5.46,0-7.91,1.97-7.91,8.22,0,3.62.38,6.57.75,8.54l17.9,111.73,14.7-104.18c-1.88-18.73-5.09-23.99-15.64-24.32v-31.22h62.36v31.22h-4.14c-6.59,0-9.42,1.31-9.42,8.22,0,2.96.38,5.92.75,8.54l15.64,111.73,16.2-112.06c.57-3.62.75-6.24.75-8.22,0-7.23-2.83-8.22-10.55-8.22v-31.22h48.23v31.22c-8.1,0-11.68,5.92-14.13,21.36l-26.38,167.93h-40.13l-12.43-89.72-12.81,89.72h-40.51l-26-162.01c-3.01-18.4-7.35-26.95-15.83-27.28v-31.22h58.59v31.22Z" style="fill:#fff; stroke-width:0px;"/><path d="m1092.9,765.84c0,51.27-20.54,83.14-54.07,83.14s-53.88-31.22-53.88-83.14,20.16-83.47,53.69-83.47,54.26,32.21,54.26,83.47Zm-54.26-52.91c-10.93,0-13.75,16.43-13.75,52.91s2.83,52.91,14.13,52.91,13.75-16.43,13.75-52.91-2.83-52.91-14.13-52.91Z" style="fill:#fff; stroke-width:0px;"/><path d="m1171.84,682.7c13.75,0,22.23,15.45,22.23,38.12,0,20.05-7.16,32.86-17.52,32.86-8.48,0-14.7-10.52-14.7-23.99,0-9.53,2.64-16.43,8.29-21.36-1.51-.66-2.83-.99-4.15-.99-9.61,0-16.2,16.43-16.2,46.01v45.68c0,12.49,1.51,15.45,8.85,15.45h6.03v28.92h-64.06v-28.92h3.2c7.35,0,8.86-2.96,8.86-15.45v-66.38c0-12.49-1.51-15.45-8.86-15.45h-3.2v-28.92h48.23v15.12c6.41-13.8,14.13-20.7,22.98-20.7Z" style="fill:#fff; stroke-width:0px;"/><path d="m1255.68,651.48c-1.32,0-3.01.33-4.71.33v-28.92h52.38v176.14c0,12.49,1.32,15.45,8.29,15.45h4.52v28.92h-47.48v-21.36c-8.85,18.4-17.52,26.62-29.2,26.62-24.87,0-37.87-27.93-37.87-82.16s14.88-84.13,36.36-84.13c10.93,0,20.16,6.57,28.26,23.33v-38.45c0-12.49-2.26-15.77-10.55-15.77Zm-2.07,65.73c-8.48,0-12.25,16.1-12.25,49.29s3.96,48.97,12.25,48.97,12.43-16.1,12.43-48.97-3.58-49.29-12.43-49.29Z" style="fill:#fff; stroke-width:0px;"/><path d="m1324.64,845.7v-56.85h16.58c3.96,20.05,12.43,30.23,25.62,30.23,8.67,0,12.43-3.94,12.43-13.15,0-11.17-7.91-12.49-22.61-20.7-22.61-12.49-33.91-21.36-33.91-50.61,0-30.89,15.45-52.25,42.2-52.25,11.68,0,22.23,3.94,32.41,12.16l2.64-9.2h13.94v48.97h-14.7c-5.28-15.45-14.32-23.99-25.06-23.99-7.91,0-12.06,4.93-12.06,11.83,0,11.83,6.78,13.14,19.78,20.38,9.42,5.26,18.65,9.2,26.56,18.4,6.22,7.23,9.8,19.72,9.8,35.16,0,32.21-15.07,52.91-41.45,52.91-13.94,0-26.38-5.59-35.61-15.45l-3.39,12.16h-13.19Z" style="fill:#fff; stroke-width:0px;"/></svg>