<?xml version="1.0" encoding="UTF-8"?><svg id="a" xmlns="http://www.w3.org/2000/svg" viewBox="0 0 1536 1024"><path d="m87.92,712.22v.94h-17.77v-79.61h126.72v79.61h-17.59v-.94c0-30.09-7.54-45.76-20.64-45.76h-5.21v129.44c0,15.04.9,18.18,10.05,18.18h10.05v29.77h-79.15v-29.77h9.33c9.87,0,9.87-4.07,9.87-18.18v-129.44h-5.21c-13.1,0-20.46,15.67-20.46,45.76Z" style="fill:#fff; stroke-width:0px;"/><path d="m265.08,690.59c13.1,0,21.18,14.73,21.18,36.36,0,19.12-6.82,31.34-16.69,31.34-8.08,0-14-10.03-14-22.88,0-9.09,2.51-15.67,7.9-20.37-1.44-.63-2.69-.94-3.95-.94-9.15,0-15.44,15.67-15.44,43.88v43.56c0,11.91,1.44,14.73,8.44,14.73h5.74v27.58h-61.03v-27.58h3.05c7,0,8.44-2.82,8.44-14.73v-63.31c0-11.91-1.44-14.73-8.44-14.73h-3.05v-27.58h45.95v14.42c6.1-13.16,13.46-19.75,21.9-19.75Z" style="fill:#fff; stroke-width:0px;"/><path d="m341.72,849.5c-29.97,0-48.28-30.71-48.28-79.61s18.67-79.61,47.92-79.61,44.87,29.46,44.87,83.05v5.33h-56.36v3.13c0,25.07,6.28,38.55,17.23,38.55,9.15,0,15.44-9.72,17.41-27.89h22.08c-4.13,38.55-18.85,57.04-44.87,57.04Zm14.18-98.41v-2.19c0-20.06-4.85-30.71-13.1-30.71s-12.92,11.28-12.92,32.91h26.03Z" style="fill:#fff; stroke-width:0px;"/><path d="m464.13,733.22c0-6.58-2.87-9.09-9.33-9.72v-27.58h41.46v27.58h-.72c-7.18,0-10.77,4.7-13.1,16.61l-20.28,103.74h-39.13l-19.21-105.62c-1.97-11.28-3.23-14.73-8.26-14.73h-3.23v-27.58h55.28v27.58h-2.51c-5.03,0-7.18,1.88-7.18,8.46,0,1.25.18,3.45.72,6.27l12.38,66.44,12.56-66.44c.36-1.88.54-3.45.54-5.01Z" style="fill:#fff; stroke-width:0px;"/><path d="m601.44,769.89c0,48.89-19.56,79.29-51.51,79.29s-51.33-29.77-51.33-79.29,19.21-79.61,51.15-79.61,51.69,30.71,51.69,79.61Zm-51.69-50.46c-10.41,0-13.1,15.67-13.1,50.46s2.69,50.46,13.46,50.46,13.1-15.67,13.1-50.46-2.69-50.46-13.46-50.46Z" style="fill:#fff; stroke-width:0px;"/><path d="m719,660.82c-1.26,0-2.87.31-4.49.31v-27.58h49.9v167.99c0,11.91,1.26,14.73,7.9,14.73h4.31v27.58h-45.23v-20.37c-8.44,17.55-16.69,25.39-27.82,25.39-23.69,0-36.08-26.64-36.08-78.35s14.18-80.23,34.64-80.23c10.41,0,19.21,6.27,26.92,22.25v-36.67c0-11.91-2.15-15.04-10.05-15.04Zm-1.97,62.68c-8.08,0-11.67,15.36-11.67,47.01s3.77,46.7,11.67,46.7,11.85-15.36,11.85-46.7-3.41-47.01-11.85-47.01Z" style="fill:#fff; stroke-width:0px;"/><path d="m810.36,849.18c-17.95,0-28-15.04-28-41.68,0-29.46,9.87-38.24,31.41-44.82,15.79-4.7,23.33-7.83,23.33-26.95,0-14.73-6.1-24.76-16.69-24.76-3.59,0-7,1.88-10.59,5.33,6.28,3.13,9.33,9.72,9.33,20.06,0,12.85-6.1,21.63-15.62,21.63-11.31,0-17.59-9.72-17.59-26.33,0-24.76,15.08-41.06,43.26-41.06,16.15,0,27.82,5.01,33.38,11.6,8.79,10.34,9.87,22.57,9.87,42.94v57.04c0,6.58.36,9.4,3.59,9.4,3.41,0,3.77-3.45,3.77-9.4v-17.86h11.85v19.43c0,31.97-7.54,45.45-26.92,45.45-10.59,0-18.13-6.58-23.51-21-6.1,13.48-17.05,21-30.87,21Zm6.82-47.33c0,8.46,3.77,14.73,9.33,14.73,6.64,0,11.13-7.83,11.13-21.31v-.94l-.18-19.12c-12.92,12.22-20.28,14.73-20.28,26.64Z" style="fill:#fff; stroke-width:0px;"/><path d="m978.54,766.44c5.74,32.91,19.92,51.71,37.69,51.71,11.13,0,17.95-9.09,17.95-21.94,0-18.81-12.21-20.06-32.13-30.71-15.08-7.84-25.13-14.1-29.79-20.37-9.69-12.54-14.18-27.58-14.18-47.33,0-41.37,19.03-70.52,49-70.52,14.54,0,27.28,4.7,39.85,15.67l3.23-10.66h17.23v73.03h-20.28c-3.95-29.77-14.9-44.19-33.21-44.19-11.31,0-18.49,10.34-18.49,22.25,0,16.61,10.23,17.24,27.64,24.13,33.74,13.48,50.26,31.34,50.26,73.03s-19.21,69.58-50.97,69.58c-14,0-27.1-5.33-40.21-16.92l-4.49,11.6h-16.51v-78.35h17.41Z" style="fill:#fff; stroke-width:0px;"/><path d="m1184.77,769.89c0,48.89-19.56,79.29-51.51,79.29s-51.33-29.77-51.33-79.29,19.21-79.61,51.15-79.61,51.69,30.71,51.69,79.61Zm-51.69-50.46c-10.41,0-13.1,15.67-13.1,50.46s2.69,50.46,13.46,50.46,13.1-15.67,13.1-50.46-2.69-50.46-13.46-50.46Z" style="fill:#fff; stroke-width:0px;"/><path d="m1259.98,690.59c13.1,0,21.18,14.73,21.18,36.36,0,19.12-6.82,31.34-16.69,31.34-8.08,0-14-10.03-14-22.88,0-9.09,2.51-15.67,7.9-20.37-1.44-.63-2.69-.94-3.95-.94-9.15,0-15.44,15.67-15.44,43.88v43.56c0,11.91,1.44,14.73,8.44,14.73h5.74v27.58h-61.03v-27.58h3.05c7,0,8.44-2.82,8.44-14.73v-63.31c0-11.91-1.44-14.73-8.44-14.73h-3.05v-27.58h45.95v14.42c6.1-13.16,13.46-19.75,21.9-19.75Z" style="fill:#fff; stroke-width:0px;"/><path d="m1285.47,723.19v-27.27h.72c14.72,0,21.72-18.18,25.31-57.67h21.18v57.67h24.95v27.27h-24.95v80.23c0,11.91,1.97,17.55,6.28,17.55,6.1,0,7.18-10.03,7.18-33.22v-13.79h15.44v20.06c0,39.18-8.26,56.1-31.59,56.1-12.38,0-21.54-6.27-27.28-18.49-5.38-11.28-5.38-23.82-5.38-40.43v-68.01h-11.85Z" style="fill:#fff; stroke-width:0px;"/><path d="m1419.54,849.5c-29.97,0-48.28-30.71-48.28-79.61s18.67-79.61,47.92-79.61,44.87,29.46,44.87,83.05v5.33h-56.36v3.13c0,25.07,6.28,38.55,17.23,38.55,9.15,0,15.44-9.72,17.41-27.89h22.08c-4.13,38.55-18.85,57.04-44.87,57.04Zm14.18-98.41v-2.19c0-20.06-4.85-30.71-13.1-30.71s-12.92,11.28-12.92,32.91h26.03Z" style="fill:#fff; stroke-width:0px;"/><path d="m87.92,712.22v.94h-17.77v-79.61h126.72v79.61h-17.59v-.94c0-30.09-7.54-45.76-20.64-45.76h-5.21v129.44c0,15.04.9,18.18,10.05,18.18h10.05v29.77h-79.15v-29.77h9.33c9.87,0,9.87-4.07,9.87-18.18v-129.44h-5.21c-13.1,0-20.46,15.67-20.46,45.76Z" style="fill:none; stroke:#000; stroke-width:42.89px;"/><path d="m265.08,690.59c13.1,0,21.18,14.73,21.18,36.36,0,19.12-6.82,31.34-16.69,31.34-8.08,0-14-10.03-14-22.88,0-9.09,2.51-15.67,7.9-20.37-1.44-.63-2.69-.94-3.95-.94-9.15,0-15.44,15.67-15.44,43.88v43.56c0,11.91,1.44,14.73,8.44,14.73h5.74v27.58h-61.03v-27.58h3.05c7,0,8.44-2.82,8.44-14.73v-63.31c0-11.91-1.44-14.73-8.44-14.73h-3.05v-27.58h45.95v14.42c6.1-13.16,13.46-19.75,21.9-19.75Z" style="fill:none; stroke:#000; stroke-width:42.89px;"/><path d="m341.72,849.5c-29.97,0-48.28-30.71-48.28-79.61s18.67-79.61,47.92-79.61,44.87,29.46,44.87,83.05v5.33h-56.36v3.13c0,25.07,6.28,38.55,17.23,38.55,9.15,0,15.44-9.72,17.41-27.89h22.08c-4.13,38.55-18.85,57.04-44.87,57.04Zm14.18-98.41v-2.19c0-20.06-4.85-30.71-13.1-30.71s-12.92,11.28-12.92,32.91h26.03Z" style="fill:none; stroke:#000; stroke-width:42.89px;"/><path d="m464.13,733.22c0-6.58-2.87-9.09-9.33-9.72v-27.58h41.46v27.58h-.72c-7.18,0-10.77,4.7-13.1,16.61l-20.28,103.74h-39.13l-19.21-105.62c-1.97-11.28-3.23-14.73-8.26-14.73h-3.23v-27.58h55.28v27.58h-2.51c-5.03,0-7.18,1.88-7.18,8.46,0,1.25.18,3.45.72,6.27l12.38,66.44,12.56-66.44c.36-1.88.54-3.45.54-5.01Z" style="fill:none; stroke:#000; stroke-width:42.89px;"/><path d="m601.44,769.89c0,48.89-19.56,79.29-51.51,79.29s-51.33-29.77-51.33-79.29,19.21-79.61,51.15-79.61,51.69,30.71,51.69,79.61Zm-51.69-50.46c-10.41,0-13.1,15.67-13.1,50.46s2.69,50.46,13.46,50.46,13.1-15.67,13.1-50.46-2.69-50.46-13.46-50.46Z" style="fill:none; stroke:#000; stroke-width:42.89px;"/><path d="m719,660.82c-1.26,0-2.87.31-4.49.31v-27.58h49.9v167.99c0,11.91,1.26,14.73,7.9,14.73h4.31v27.58h-45.23v-20.37c-8.44,17.55-16.69,25.39-27.82,25.39-23.69,0-36.08-26.64-36.08-78.35s14.18-80.23,34.64-80.23c10.41,0,19.21,6.27,26.92,22.25v-36.67c0-11.91-2.15-15.04-10.05-15.04Zm-1.97,62.68c-8.08,0-11.67,15.36-11.67,47.01s3.77,46.7,11.67,46.7,11.85-15.36,11.85-46.7-3.41-47.01-11.85-47.01Z" style="fill:none; stroke:#000; stroke-width:42.89px;"/><path d="m810.36,849.18c-17.95,0-28-15.04-28-41.68,0-29.46,9.87-38.24,31.41-44.82,15.79-4.7,23.33-7.83,23.33-26.95,0-14.73-6.1-24.76-16.69-24.76-3.59,0-7,1.88-10.59,5.33,6.28,3.13,9.33,9.72,9.33,20.06,0,12.85-6.1,21.63-15.62,21.63-11.31,0-17.59-9.72-17.59-26.33,0-24.76,15.08-41.06,43.26-41.06,16.15,0,27.82,5.01,33.38,11.6,8.79,10.34,9.87,22.57,9.87,42.94v57.04c0,6.58.36,9.4,3.59,9.4,3.41,0,3.77-3.45,3.77-9.4v-17.86h11.85v19.43c0,31.97-7.54,45.45-26.92,45.45-10.59,0-18.13-6.58-23.51-21-6.1,13.48-17.05,21-30.87,21Zm6.82-47.33c0,8.46,3.77,14.73,9.33,14.73,6.64,0,11.13-7.83,11.13-21.31v-.94l-.18-19.12c-12.92,12.22-20.28,14.73-20.28,26.64Z" style="fill:none; stroke:#000; stroke-width:42.89px;"/><path d="m978.54,766.44c5.74,32.91,19.92,51.71,37.69,51.71,11.13,0,17.95-9.09,17.95-21.94,0-18.81-12.21-20.06-32.13-30.71-15.08-7.84-25.13-14.1-29.79-20.37-9.69-12.54-14.18-27.58-14.18-47.33,0-41.37,19.03-70.52,49-70.52,14.54,0,27.28,4.7,39.85,15.67l3.23-10.66h17.23v73.03h-20.28c-3.95-29.77-14.9-44.19-33.21-44.19-11.31,0-18.49,10.34-18.49,22.25,0,16.61,10.23,17.24,27.64,24.13,33.74,13.48,50.26,31.34,50.26,73.03s-19.21,69.58-50.97,69.58c-14,0-27.1-5.33-40.21-16.92l-4.49,11.6h-16.51v-78.35h17.41Z" style="fill:none; stroke:#000; stroke-width:42.89px;"/><path d="m1184.77,769.89c0,48.89-19.56,79.29-51.51,79.29s-51.33-29.77-51.33-79.29,19.21-79.61,51.15-79.61,51.69,30.71,51.69,79.61Zm-51.69-50.46c-10.41,0-13.1,15.67-13.1,50.46s2.69,50.46,13.46,50.46,13.1-15.67,13.1-50.46-2.69-50.46-13.46-50.46Z" style="fill:none; stroke:#000; stroke-width:42.89px;"/><path d="m1259.98,690.59c13.1,0,21.18,14.73,21.18,36.36,0,19.12-6.82,31.34-16.69,31.34-8.08,0-14-10.03-14-22.88,0-9.09,2.51-15.67,7.9-20.37-1.44-.63-2.69-.94-3.95-.94-9.15,0-15.44,15.67-15.44,43.88v43.56c0,11.91,1.44,14.73,8.44,14.73h5.74v27.58h-61.03v-27.58h3.05c7,0,8.44-2.82,8.44-14.73v-63.31c0-11.91-1.44-14.73-8.44-14.73h-3.05v-27.58h45.95v14.42c6.1-13.16,13.46-19.75,21.9-19.75Z" style="fill:none; stroke:#000; stroke-width:42.89px;"/><path d="m1285.47,723.19v-27.27h.72c14.72,0,21.72-18.18,25.31-57.67h21.18v57.67h24.95v27.27h-24.95v80.23c0,11.91,1.97,17.55,6.28,17.55,6.1,0,7.18-10.03,7.18-33.22v-13.79h15.44v20.06c0,39.18-8.26,56.1-31.59,56.1-12.38,0-21.54-6.27-27.28-18.49-5.38-11.28-5.38-23.82-5.38-40.43v-68.01h-11.85Z" style="fill:none; stroke:#000; stroke-width:42.89px;"/><path d="m1419.54,849.5c-29.97,0-48.28-30.71-48.28-79.61s18.67-79.61,47.92-79.61,44.87,29.46,44.87,83.05v5.33h-56.36v3.13c0,25.07,6.28,38.55,17.23,38.55,9.15,0,15.44-9.72,17.41-27.89h22.08c-4.13,38.55-18.85,57.04-44.87,57.04Zm14.18-98.41v-2.19c0-20.06-4.85-30.71-13.1-30.71s-12.92,11.28-12.92,32.91h26.03Z" style="fill:none; stroke:#000; stroke-width:42.89px;"/><path d="m87.92,712.22v.94h-17.77v-79.61h126.72v79.61h-17.59v-.94c0-30.09-7.54-45.76-20.64-45.76h-5.21v129.44c0,15.04.9,18.18,10.05,18.18h10.05v29.77h-79.15v-29.77h9.33c9.87,0,9.87-4.07,9.87-18.18v-129.44h-5.21c-13.1,0-20.46,15.67-20.46,45.76Z" style="fill:none; stroke:#44bba4; stroke-width:19.06px;"/><path d="m265.08,690.59c13.1,0,21.18,14.73,21.18,36.36,0,19.12-6.82,31.34-16.69,31.34-8.08,0-14-10.03-14-22.88,0-9.09,2.51-15.67,7.9-20.37-1.44-.63-2.69-.94-3.95-.94-9.15,0-15.44,15.67-15.44,43.88v43.56c0,11.91,1.44,14.73,8.44,14.73h5.74v27.58h-61.03v-27.58h3.05c7,0,8.44-2.82,8.44-14.73v-63.31c0-11.91-1.44-14.73-8.44-14.73h-3.05v-27.58h45.95v14.42c6.1-13.16,13.46-19.75,21.9-19.75Z" style="fill:none; stroke:#44bba4; stroke-width:19.06px;"/><path d="m341.72,849.5c-29.97,0-48.28-30.71-48.28-79.61s18.67-79.61,47.92-79.61,44.87,29.46,44.87,83.05v5.33h-56.36v3.13c0,25.07,6.28,38.55,17.23,38.55,9.15,0,15.44-9.72,17.41-27.89h22.08c-4.13,38.55-18.85,57.04-44.87,57.04Zm14.18-98.41v-2.19c0-20.06-4.85-30.71-13.1-30.71s-12.92,11.28-12.92,32.91h26.03Z" style="fill:none; stroke:#44bba4; stroke-width:19.06px;"/><path d="m464.13,733.22c0-6.58-2.87-9.09-9.33-9.72v-27.58h41.46v27.58h-.72c-7.18,0-10.77,4.7-13.1,16.61l-20.28,103.74h-39.13l-19.21-105.62c-1.97-11.28-3.23-14.73-8.26-14.73h-3.23v-27.58h55.28v27.58h-2.51c-5.03,0-7.18,1.88-7.18,8.46,0,1.25.18,3.45.72,6.27l12.38,66.44,12.56-66.44c.36-1.88.54-3.45.54-5.01Z" style="fill:none; stroke:#44bba4; stroke-width:19.06px;"/><path d="m601.44,769.89c0,48.89-19.56,79.29-51.51,79.29s-51.33-29.77-51.33-79.29,19.21-79.61,51.15-79.61,51.69,30.71,51.69,79.61Zm-51.69-50.46c-10.41,0-13.1,15.67-13.1,50.46s2.69,50.46,13.46,50.46,13.1-15.67,13.1-50.46-2.69-50.46-13.46-50.46Z" style="fill:none; stroke:#44bba4; stroke-width:19.06px;"/><path d="m719,660.82c-1.26,0-2.87.31-4.49.31v-27.58h49.9v167.99c0,11.91,1.26,14.73,7.9,14.73h4.31v27.58h-45.23v-20.37c-8.44,17.55-16.69,25.39-27.82,25.39-23.69,0-36.08-26.64-36.08-78.35s14.18-80.23,34.64-80.23c10.41,0,19.21,6.27,26.92,22.25v-36.67c0-11.91-2.15-15.04-10.05-15.04Zm-1.97,62.68c-8.08,0-11.67,15.36-11.67,47.01s3.77,46.7,11.67,46.7,11.85-15.36,11.85-46.7-3.41-47.01-11.85-47.01Z" style="fill:none; stroke:#44bba4; stroke-width:19.06px;"/><path d="m810.36,849.18c-17.95,0-28-15.04-28-41.68,0-29.46,9.87-38.24,31.41-44.82,15.79-4.7,23.33-7.83,23.33-26.95,0-14.73-6.1-24.76-16.69-24.76-3.59,0-7,1.88-10.59,5.33,6.28,3.13,9.33,9.72,9.33,20.06,0,12.85-6.1,21.63-15.62,21.63-11.31,0-17.59-9.72-17.59-26.33,0-24.76,15.08-41.06,43.26-41.06,16.15,0,27.82,5.01,33.38,11.6,8.79,10.34,9.87,22.57,9.87,42.94v57.04c0,6.58.36,9.4,3.59,9.4,3.41,0,3.77-3.45,3.77-9.4v-17.86h11.85v19.43c0,31.97-7.54,45.45-26.92,45.45-10.59,0-18.13-6.58-23.51-21-6.1,13.48-17.05,21-30.87,21Zm6.82-47.33c0,8.46,3.77,14.73,9.33,14.73,6.64,0,11.13-7.83,11.13-21.31v-.94l-.18-19.12c-12.92,12.22-20.28,14.73-20.28,26.64Z" style="fill:none; stroke:#44bba4; stroke-width:19.06px;"/><path d="m978.54,766.44c5.74,32.91,19.92,51.71,37.69,51.71,11.13,0,17.95-9.09,17.95-21.94,0-18.81-12.21-20.06-32.13-30.71-15.08-7.84-25.13-14.1-29.79-20.37-9.69-12.54-14.18-27.58-14.18-47.33,0-41.37,19.03-70.52,49-70.52,14.54,0,27.28,4.7,39.85,15.67l3.23-10.66h17.23v73.03h-20.28c-3.95-29.77-14.9-44.19-33.21-44.19-11.31,0-18.49,10.34-18.49,22.25,0,16.61,10.23,17.24,27.64,24.13,33.74,13.48,50.26,31.34,50.26,73.03s-19.21,69.58-50.97,69.58c-14,0-27.1-5.33-40.21-16.92l-4.49,11.6h-16.51v-78.35h17.41Z" style="fill:none; stroke:#44bba4; stroke-width:19.06px;"/><path d="m1184.77,769.89c0,48.89-19.56,79.29-51.51,79.29s-51.33-29.77-51.33-79.29,19.21-79.61,51.15-79.61,51.69,30.71,51.69,79.61Zm-51.69-50.46c-10.41,0-13.1,15.67-13.1,50.46s2.69,50.46,13.46,50.46,13.1-15.67,13.1-50.46-2.69-50.46-13.46-50.46Z" style="fill:none; stroke:#44bba4; stroke-width:19.06px;"/><path d="m1259.98,690.59c13.1,0,21.18,14.73,21.18,36.36,0,19.12-6.82,31.34-16.69,31.34-8.08,0-14-10.03-14-22.88,0-9.09,2.51-15.67,7.9-20.37-1.44-.63-2.69-.94-3.95-.94-9.15,0-15.44,15.67-15.44,43.88v43.56c0,11.91,1.44,14.73,8.44,14.73h5.74v27.58h-61.03v-27.58h3.05c7,0,8.44-2.82,8.44-14.73v-63.31c0-11.91-1.44-14.73-8.44-14.73h-3.05v-27.58h45.95v14.42c6.1-13.16,13.46-19.75,21.9-19.75Z" style="fill:none; stroke:#44bba4; stroke-width:19.06px;"/><path d="m1285.47,723.19v-27.27h.72c14.72,0,21.72-18.18,25.31-57.67h21.18v57.67h24.95v27.27h-24.95v80.23c0,11.91,1.97,17.55,6.28,17.55,6.1,0,7.18-10.03,7.18-33.22v-13.79h15.44v20.06c0,39.18-8.26,56.1-31.59,56.1-12.38,0-21.54-6.27-27.28-18.49-5.38-11.28-5.38-23.82-5.38-40.43v-68.01h-11.85Z" style="fill:none; stroke:#44bba4; stroke-width:19.06px;"/><path d="m1419.54,849.5c-29.97,0-48.28-30.71-48.28-79.61s18.67-79.61,47.92-79.61,44.87,29.46,44.87,83.05v5.33h-56.36v3.13c0,25.07,6.28,38.55,17.23,38.55,9.15,0,15.44-9.72,17.41-27.89h22.08c-4.13,38.55-18.85,57.04-44.87,57.04Zm14.18-98.41v-2.19c0-20.06-4.85-30.71-13.1-30.71s-12.92,11.28-12.92,32.91h26.03Z" style="fill:none; stroke:#44bba4; stroke-width:19.06px;"/><path d="m87.92,712.22v.94h-17.77v-79.61h126.72v79.61h-17.59v-.94c0-30.09-7.54-45.76-20.64-45.76h-5.21v129.44c0,15.04.9,18.18,10.05,18.18h10.05v29.77h-79.15v-29.77h9.33c9.87,0,9.87-4.07,9.87-18.18v-129.44h-5.21c-13.1,0-20.46,15.67-20.46,45.76Z" style="fill:#fff; stroke-width:0px;"/><path d="m265.08,690.59c13.1,0,21.18,14.73,21.18,36.36,0,19.12-6.82,31.34-16.69,31.34-8.08,0-14-10.03-14-22.88,0-9.09,2.51-15.67,7.9-20.37-1.44-.63-2.69-.94-3.95-.94-9.15,0-15.44,15.67-15.44,43.88v43.56c0,11.91,1.44,14.73,8.44,14.73h5.74v27.58h-61.03v-27.58h3.05c7,0,8.44-2.82,8.44-14.73v-63.31c0-11.91-1.44-14.73-8.44-14.73h-3.05v-27.58h45.95v14.42c6.1-13.16,13.46-19.75,21.9-19.75Z" style="fill:#fff; stroke-width:0px;"/><path d="m341.72,849.5c-29.97,0-48.28-30.71-48.28-79.61s18.67-79.61,47.92-79.61,44.87,29.46,44.87,83.05v5.33h-56.36v3.13c0,25.07,6.28,38.55,17.23,38.55,9.15,0,15.44-9.72,17.41-27.89h22.08c-4.13,38.55-18.85,57.04-44.87,57.04Zm14.18-98.41v-2.19c0-20.06-4.85-30.71-13.1-30.71s-12.92,11.28-12.92,32.91h26.03Z" style="fill:#fff; stroke-width:0px;"/><path d="m464.13,733.22c0-6.58-2.87-9.09-9.33-9.72v-27.58h41.46v27.58h-.72c-7.18,0-10.77,4.7-13.1,16.61l-20.28,103.74h-39.13l-19.21-105.62c-1.97-11.28-3.23-14.73-8.26-14.73h-3.23v-27.58h55.28v27.58h-2.51c-5.03,0-7.18,1.88-7.18,8.46,0,1.25.18,3.45.72,6.27l12.38,66.44,12.56-66.44c.36-1.88.54-3.45.54-5.01Z" style="fill:#fff; stroke-width:0px;"/><path d="m601.44,769.89c0,48.89-19.56,79.29-51.51,79.29s-51.33-29.77-51.33-79.29,19.21-79.61,51.15-79.61,51.69,30.71,51.69,79.61Zm-51.69-50.46c-10.41,0-13.1,15.67-13.1,50.46s2.69,50.46,13.46,50.46,13.1-15.67,13.1-50.46-2.69-50.46-13.46-50.46Z" style="fill:#fff; stroke-width:0px;"/><path d="m719,660.82c-1.26,0-2.87.31-4.49.31v-27.58h49.9v167.99c0,11.91,1.26,14.73,7.9,14.73h4.31v27.58h-45.23v-20.37c-8.44,17.55-16.69,25.39-27.82,25.39-23.69,0-36.08-26.64-36.08-78.35s14.18-80.23,34.64-80.23c10.41,0,19.21,6.27,26.92,22.25v-36.67c0-11.91-2.15-15.04-10.05-15.04Zm-1.97,62.68c-8.08,0-11.67,15.36-11.67,47.01s3.77,46.7,11.67,46.7,11.85-15.36,11.85-46.7-3.41-47.01-11.85-47.01Z" style="fill:#fff; stroke-width:0px;"/><path d="m810.36,849.18c-17.95,0-28-15.04-28-41.68,0-29.46,9.87-38.24,31.41-44.82,15.79-4.7,23.33-7.83,23.33-26.95,0-14.73-6.1-24.76-16.69-24.76-3.59,0-7,1.88-10.59,5.33,6.28,3.13,9.33,9.72,9.33,20.06,0,12.85-6.1,21.63-15.62,21.63-11.31,0-17.59-9.72-17.59-26.33,0-24.76,15.08-41.06,43.26-41.06,16.15,0,27.82,5.01,33.38,11.6,8.79,10.34,9.87,22.57,9.87,42.94v57.04c0,6.58.36,9.4,3.59,9.4,3.41,0,3.77-3.45,3.77-9.4v-17.86h11.85v19.43c0,31.97-7.54,45.45-26.92,45.45-10.59,0-18.13-6.58-23.51-21-6.1,13.48-17.05,21-30.87,21Zm6.82-47.33c0,8.46,3.77,14.73,9.33,14.73,6.64,0,11.13-7.83,11.13-21.31v-.94l-.18-19.12c-12.92,12.22-20.28,14.73-20.28,26.64Z" style="fill:#fff; stroke-width:0px;"/><path d="m978.54,766.44c5.74,32.91,19.92,51.71,37.69,51.71,11.13,0,17.95-9.09,17.95-21.94,0-18.81-12.21-20.06-32.13-30.71-15.08-7.84-25.13-14.1-29.79-20.37-9.69-12.54-14.18-27.58-14.18-47.33,0-41.37,19.03-70.52,49-70.52,14.54,0,27.28,4.7,39.85,15.67l3.23-10.66h17.23v73.03h-20.28c-3.95-29.77-14.9-44.19-33.21-44.19-11.31,0-18.49,10.34-18.49,22.25,0,16.61,10.23,17.24,27.64,24.13,33.74,13.48,50.26,31.34,50.26,73.03s-19.21,69.58-50.97,69.58c-14,0-27.1-5.33-40.21-16.92l-4.49,11.6h-16.51v-78.35h17.41Z" style="fill:#fff; stroke-width:0px;"/><path d="m1184.77,769.89c0,48.89-19.56,79.29-51.51,79.29s-51.33-29.77-51.33-79.29,19.21-79.61,51.15-79.61,51.69,30.71,51.69,79.61Zm-51.69-50.46c-10.41,0-13.1,15.67-13.1,50.46s2.69,50.46,13.46,50.46,13.1-15.67,13.1-50.46-2.69-50.46-13.46-50.46Z" style="fill:#fff; stroke-width:0px;"/><path d="m1259.98,690.59c13.1,0,21.18,14.73,21.18,36.36,0,19.12-6.82,31.34-16.69,31.34-8.08,0-14-10.03-14-22.88,0-9.09,2.51-15.67,7.9-20.37-1.44-.63-2.69-.94-3.95-.94-9.15,0-15.44,15.67-15.44,43.88v43.56c0,11.91,1.44,14.73,8.44,14.73h5.74v27.58h-61.03v-27.58h3.05c7,0,8.44-2.82,8.44-14.73v-63.31c0-11.91-1.44-14.73-8.44-14.73h-3.05v-27.58h45.95v14.42c6.1-13.16,13.46-19.75,21.9-19.75Z" style="fill:#fff; stroke-width:0px;"/><path d="m1285.47,723.19v-27.27h.72c14.72,0,21.72-18.18,25.31-57.67h21.18v57.67h24.95v27.27h-24.95v80.23c0,11.91,1.97,17.55,6.28,17.55,6.1,0,7.18-10.03,7.18-33.22v-13.79h15.44v20.06c0,39.18-8.26,56.1-31.59,56.1-12.38,0-21.54-6.27-27.28-18.49-5.38-11.28-5.38-23.82-5.38-40.43v-68.01h-11.85Z" style="fill:#fff; stroke-width:0px;"/><path d="m1419.54,849.5c-29.97,0-48.28-30.71-48.28-79.61s18.67-79.61,47.92-79.61,44.87,29.46,44.87,83.05v5.33h-56.36v3.13c0,25.07,6.28,38.55,17.23,38.55,9.15,0,15.44-9.72,17.41-27.89h22.08c-4.13,38.55-18.85,57.04-44.87,57.04Zm14.18-98.41v-2.19c0-20.06-4.85-30.71-13.1-30.71s-12.92,11.28-12.92,32.91h26.03Z" style="fill:#fff; stroke-width:0px;"/></svg>