<?xml version="1.0" encoding="UTF-8"?><svg id="a" xmlns="http://www.w3.org/2000/svg" xmlns:xlink="http://www.w3.org/1999/xlink" viewBox="0 0 1536 1024"><defs><filter id="b" filterUnits="userSpaceOnUse"><feOffset dx="10" dy="10"/><feGaussianBlur result="c" stdDeviation="0"/><feFlood flood-color="#126fc4" flood-opacity="1"/><feComposite in2="c" operator="in"/><feComposite in="SourceGraphic"/></filter></defs><g style="filter:url(#b);"><path d="m292.34,884.69l-36.51,6.98-19.21-103.14-.61-.18c-2.06,4.74-6.61,15.45-13.63,32.14-7.03,16.69-14.13,34.43-21.31,53.22h-28.48c-7.1-18.77-14.3-36.71-21.63-53.84s-11.79-27.59-13.39-31.41l-.58-.02c-.76,3.66-3.3,16.14-7.63,37.42-4.33,21.29-8.47,43.18-12.42,65.69l-35.4-6.75c8.01-35.69,14.89-67.92,20.65-96.71,5.76-28.78,9.09-45.39,10.01-49.81l36.72-3.89c1.07,2.97,5.3,13.84,12.7,32.6,7.4,18.76,16.01,40.19,25.85,64.28h.92c7.85-19.14,16.2-39.65,25.05-61.54,8.84-21.88,13.61-33.67,14.3-35.34l37.4,3.2c.38,2.59,3.15,18.13,8.29,46.61,5.15,28.48,11.46,61.98,18.93,100.48Z" style="fill:#f9c0d8; stroke-width:0px;"/><path d="m431.43,889.61c-2.75,0-10.33-.04-22.76-.11-12.43-.08-24.78-.11-37.06-.11-10.6,0-20.93.04-31,.11-10.07.08-17.39.11-21.96.11.08-4.04.17-12.84.29-26.38.11-13.54.17-30.7.17-51.45,0-8.78-.04-19.95-.11-33.54-.08-13.58-.19-27.43-.34-41.55,5.18,0,12.56.02,22.13.06,9.57.04,19.2.06,28.88.06,13.19,0,26.12-.02,38.78-.06,12.66-.04,19.83-.06,21.5-.06v28.25c-1.3,0-6.29-.04-14.98-.11-8.69-.07-17.43-.11-26.19-.11-5.11,0-11.06.02-17.84.06-6.79.04-12.12.06-16.01.06,0,5.74-.04,11.78-.11,18.13-.08,6.35-.11,12.09-.11,17.21,3.96,0,9.02.02,15.16.06,6.14.04,11.19.06,15.16.06,9.84,0,19.04-.04,27.62-.11,8.58-.08,14.05-.11,16.41-.11v22.76c-1.53,0-7.43-.04-17.73-.11-10.29-.08-18.91-.11-25.85-.11-3.89,0-8.98.02-15.27.06-6.29.04-11.46.06-15.5.06,0,8.92.02,16.57.06,22.93.04,6.37.09,11.57.17,15.61,4.58.08,10.68.13,18.3.17,7.62.04,14.53.06,20.7.06,8.69,0,16.59-.04,23.68-.11,7.09-.07,11.7-.11,13.84-.11v28.37Z" style="fill:#f9c0d8; stroke-width:0px;"/><path d="m592.82,810.11c-.08,5.79-.17,12.24-.29,19.36-.11,7.12-.17,13.31-.17,18.56,0,7.16.06,14.37.17,21.64.11,7.27.17,13.92.17,19.93-.99.25-4.5.56-10.52.93-6.02.37-11.13.56-15.33.56-17.23,0-32.73-1.77-46.5-5.32-13.77-3.55-26.48-9.93-38.15-19.16-7.7-6.02-13.88-13.57-18.53-22.65-4.65-9.07-6.98-19.44-6.98-31.11,0-12.89,3.2-24.4,9.61-34.54,6.41-10.14,15.56-18.64,27.45-25.51,9.61-5.79,20.95-10.22,34.03-13.27,13.08-3.05,27.51-4.58,43.29-4.58,1.98,0,3.75.02,5.32.06,1.56.04,3.07.06,4.52.06l4.12,31.68h-9.72c-7.85,0-16.17.65-24.94,1.94-8.77,1.3-16.7,3.39-23.79,6.29-9.61,3.89-17.18,9.42-22.7,16.59-5.53,7.17-8.29,15.06-8.29,23.68,0,9.53,2.19,17.54,6.58,24.02,4.38,6.48,9.97,11.55,16.76,15.21,5.34,2.82,11.23,4.98,17.67,6.46,6.44,1.49,13.1,2.38,19.96,2.69,0-1.45-.02-6.59-.06-15.44-.04-8.84-.13-21.54-.29-38.09h36.6Z" style="fill:#f9c0d8; stroke-width:0px;"/><path d="m770.92,880.52l-37.32,12.52c-.79-2.52-2.75-8.04-5.87-16.59-3.13-8.54-6.84-18.19-11.15-28.94h-58.22c-4.45,10.91-8.25,20.63-11.39,29.17-3.14,8.54-5.07,13.99-5.77,16.36l-35.09-11.95c2.06-4.57,10.01-22.73,23.85-54.48s27.05-62.18,39.63-91.3h38.78c13.11,30.64,26.57,61.91,40.38,93.81,13.8,31.9,21.2,49.03,22.19,51.39Zm-63.25-56.79c-2.9-7.78-6.08-16.34-9.54-25.69-3.46-9.35-6.91-18.52-10.37-27.52l-.46.02c-2.9,7.4-6.34,16.55-10.34,27.46-4,10.91-7.24,19.49-9.72,25.74l-.04.11h40.51l-.04-.11Z" style="fill:#f9c0d8; stroke-width:0px;"/><path d="m929.56,879.2l-34.94,13.61c-2.82-4.12-8.38-11.48-16.69-22.08-8.31-10.6-20.91-27.03-37.83-49.3l.57-2.29c2.52-.53,5.84-1.83,9.95-3.89,4.12-2.06,7.55-4.42,10.3-7.09,2.82-2.82,4.96-5.79,6.41-8.92,1.45-3.13,2.18-7.13,2.18-12.01s-1.2-8.81-3.6-12.47c-2.4-3.66-5.7-6.37-9.89-8.12-3.43-1.45-6.98-2.35-10.64-2.69-3.66-.34-7.21-.52-10.64-.52h-6.86c-.08,9.08-.13,18.36-.17,27.85-.04,9.49-.06,18.02-.06,25.56,0,12.43.04,26.02.11,40.78.07,14.76.15,25.41.23,31.97h-37.86c.07-6.02.17-14.89.29-26.59.11-11.7.17-29,.17-51.87,0-6.1-.02-14.83-.06-26.19-.04-11.36-.17-27.53-.4-48.5,2.21,0,6.81-.08,13.78-.23,6.98-.15,13.48-.23,19.5-.23,11.36,0,21.22.34,29.57,1.03,8.35.69,16.22,2.29,23.62,4.8,10.6,3.51,18.47,8.68,23.62,15.5,5.15,6.83,7.72,14.51,7.72,23.05,0,9.76-2.71,18.11-8.12,25.05-5.42,6.94-10.94,12.16-16.59,15.67v.69c7.91,9.99,16.35,20.15,25.33,30.48,8.98,10.33,15.97,19.31,20.99,26.94Z" style="fill:#f45b69; stroke-width:0px;"/><path d="m1100.56,813.09c0,12.2-2.19,23.45-6.58,33.74-4.39,10.29-10.58,19.14-18.59,26.54-7.55,7.02-16.01,12.22-25.39,15.61-9.38,3.39-19.41,5.09-30.08,5.09s-20.44-1.62-29.74-4.86c-9.3-3.24-17.58-8.1-24.82-14.58-8.16-7.32-14.57-16.24-19.22-26.77-4.65-10.52-6.98-22.15-6.98-34.89,0-11.82,1.92-22.59,5.78-32.31,3.85-9.72,9.7-18.47,17.56-26.25,7.17-7.17,15.63-12.66,25.39-16.47,9.76-3.81,20.36-5.72,31.8-5.72s21.6,1.77,31.17,5.32c9.57,3.55,17.98,8.75,25.22,15.61,8.16,7.7,14.28,16.68,18.36,26.94,4.08,10.26,6.12,21.26,6.12,33Zm-38.89,1.2c0-7.69-1.3-15.33-3.89-22.91-2.59-7.58-6.56-13.84-11.9-18.79-3.36-3.2-7.21-5.71-11.55-7.54-4.35-1.83-9.19-2.74-14.53-2.74s-10.1.93-14.53,2.8c-4.42,1.87-8.5,4.63-12.24,8.28-4.73,4.72-8.41,10.65-11.04,17.77-2.63,7.12-3.95,14.45-3.95,21.99,0,8.3,1.32,15.92,3.95,22.85s6.46,12.76,11.5,17.48c3.35,3.2,7.28,5.75,11.78,7.65,4.5,1.91,9.38,2.86,14.64,2.86s9.89-.91,14.35-2.74c4.46-1.83,8.48-4.46,12.07-7.88,4.65-4.42,8.37-10.09,11.15-17.02,2.78-6.93,4.17-14.28,4.17-22.05Z" style="fill:#f45b69; stroke-width:0px;"/><path d="m1261.38,844.43c0,8.54-2.63,16.13-7.9,22.76-5.27,6.63-12.78,11.74-22.55,15.33-7.94,2.9-17.12,4.88-27.53,5.95-10.42,1.07-21.85,1.6-34.29,1.6-6.72,0-13.74-.1-21.06-.29-7.33-.19-12.75-.36-16.26-.51.15-12.51.27-25.28.34-38.29.08-13.01.11-26.99.11-41.95,0-16.33-.08-32.3-.23-47.9-.15-15.61-.23-23.83-.23-24.67,1.3,0,5.53-.15,12.7-.46,7.17-.3,14.87-.46,23.1-.46,12.43,0,22.76.34,31,1.03,8.24.69,15.71,2.06,22.42,4.12,8.46,2.6,15.17,6.63,20.13,12.09,4.96,5.46,7.43,12.16,7.43,20.11,0,7.26-2.12,13.86-6.35,19.82-4.23,5.96-9.86,10.35-16.87,13.18v.8c4.44.61,8.59,1.7,12.45,3.26,3.86,1.56,7.32,3.68,10.39,6.35,4.51,3.43,7.84,7.45,9.98,12.07,2.14,4.61,3.21,9.97,3.21,16.07Zm-38.89-4.23c0-3.51-.69-6.56-2.06-9.15-1.37-2.59-3.24-4.96-5.6-7.09-2.06-1.75-4.8-3.2-8.24-4.35-3.43-1.14-7.13-1.72-11.09-1.72-3.05,0-5.57.04-7.55.11-1.98.08-3.2.11-3.66.11l-3.2-14.53c4.04-.15,7.82-.74,11.32-1.78,3.51-1.03,6.44-2.39,8.81-4.07,2.52-1.91,4.59-4.26,6.23-7.05,1.64-2.79,2.46-6.21,2.46-10.26,0-3.44-.9-6.61-2.69-9.52-1.79-2.91-4.25-5.2-7.38-6.88-2.67-1.3-5.82-2.26-9.44-2.87-3.62-.61-7.45-.92-11.5-.92-2.06,0-4.18.04-6.35.11-2.17.08-3.64.11-4.4.11-.15,7.71-.25,16.26-.29,25.65-.04,9.39-.06,17.71-.06,24.96s.04,17.81.11,30.98c.07,13.17.11,20.29.11,21.36,1.07,0,2.69.06,4.86.17,2.17.11,4.63.17,7.38.17,5.95,0,11.68-.32,17.21-.97,5.53-.65,10.12-2,13.78-4.06,3.51-1.83,6.25-4.35,8.24-7.55,1.98-3.2,2.97-6.86,2.97-10.98Z" style="fill:#f45b69; stroke-width:0px;"/><path d="m1446.57,813.09c0,12.2-2.19,23.45-6.58,33.74-4.39,10.29-10.58,19.14-18.59,26.54-7.55,7.02-16.01,12.22-25.39,15.61-9.38,3.39-19.41,5.09-30.08,5.09s-20.44-1.62-29.74-4.86c-9.3-3.24-17.58-8.1-24.82-14.58-8.16-7.32-14.57-16.24-19.22-26.77-4.65-10.52-6.98-22.15-6.98-34.89,0-11.82,1.92-22.59,5.78-32.31,3.85-9.72,9.7-18.47,17.56-26.25,7.17-7.17,15.63-12.66,25.39-16.47,9.76-3.81,20.36-5.72,31.8-5.72s21.6,1.77,31.17,5.32c9.57,3.55,17.98,8.75,25.22,15.61,8.16,7.7,14.28,16.68,18.36,26.94,4.08,10.26,6.12,21.26,6.12,33Zm-34.43-100.03l-15.11,16.19-31.1-22.88h-.34l-31.23,22.08-14.98-16.19,34.66-24.19h23.33l34.77,24.99Zm-4.46,101.23c0-7.69-1.3-15.33-3.89-22.91-2.59-7.58-6.56-13.84-11.9-18.79-3.36-3.2-7.21-5.71-11.55-7.54-4.35-1.83-9.19-2.74-14.53-2.74s-10.1.93-14.53,2.8c-4.42,1.87-8.5,4.63-12.24,8.28-4.73,4.72-8.41,10.65-11.04,17.77-2.63,7.12-3.95,14.45-3.95,21.99,0,8.3,1.32,15.92,3.95,22.85,2.63,6.93,6.46,12.76,11.5,17.48,3.35,3.2,7.28,5.75,11.78,7.65,4.5,1.91,9.38,2.86,14.64,2.86s9.89-.91,14.35-2.74c4.46-1.83,8.48-4.46,12.07-7.88,4.65-4.42,8.37-10.09,11.15-17.02,2.78-6.93,4.17-14.28,4.17-22.05Z" style="fill:#f45b69; stroke-width:0px;"/></g></svg>