<svg xmlns="http://www.w3.org/2000/svg" viewBox="0 0 1536 1024">
  <path fill="none" stroke="#eed6a5" stroke-linecap="round" stroke-linejoin="round" stroke-width="16" d="M1127.6 108.7c.3 1.6.7 4.7 1 9.5A52.4 52.4 0 0 1 1105 160a32 32 0 0 1-23 4.8l-2.5-.2c-.5 0-.8.3-.8.8a92 92 0 0 0 7.2 29.2c.8 1.6 1.8 3.2 3 4.5s2.3 2 3.4 2 2-.8 2.4-2.4l1.2-5.8 3.3.4a43 43 0 0 1-1.5 7.3c-1.6 3.4-3.9 5.2-7 5.2-4.6 0-8.4-3.2-11.4-9.7a105 105 0 0 1-8.3-39.2h.6c.7 0 1.3 0 1.6.3l.9.4a28.9 28.9 0 0 0 28.9-4.4 46.9 46.9 0 0 0 18.2-35.6 41 41 0 0 0-1.3-10.3 29.3 29.3 0 0 0-28.6-22.2 29 29 0 0 0-21.8 9.7 59.9 59.9 0 0 0-14 28c-2.6 11-3.8 21.3-3.8 31a137.3 137.3 0 0 0 9.4 49.5l-3 1.3c-3.3-7.4-5.7-15.4-7.3-24a147.3 147.3 0 0 1-.2-51.2c1.5-8.3 3.8-16 7-23a54 54 0 0 1 13.8-18.4c6-5.2 13.2-7.7 21.7-7.7a35 35 0 0 1 34.4 28.4Z"/>
  <path fill="none" stroke="#eed6a5" stroke-linecap="round" stroke-linejoin="round" stroke-width="16" d="M1121.7 180.7a13 13 0 0 1 4.3 9.8c-.4 17.2-6 29-17 35.6a30.8 30.8 0 0 1-16.6 4.8 30 30 0 0 1-20.2-7.1 52.4 52.4 0 0 1-14-19.2l3-1.3a47.2 47.2 0 0 0 10.7 14.9c5.9 4.6 12 7 18.5 7a27 27 0 0 0 22.7-12.2 43.9 43.9 0 0 0 5.8-22.3c0-2.7-1-4.8-2.8-6.5-1.8-1.6-4-2.5-6.5-2.8-3 0-5.3 1.2-7.1 3.4s-2.8 4.8-3.1 7.7l-.1.8-3.3-.4c.2-1.6.4-3 .8-4.5 1-3.9 3-6.8 5.7-8.9 2.8-2 5.9-3 9.4-3s6.9 1.3 9.8 4.2Zm-1.7-73.3a40.9 40.9 0 0 1-3.7 29.8c-3.3 6.4-7.8 11.8-13.2 16s-11.4 6.4-17.9 6.4a33 33 0 0 1-11-2c-.3 0-.6-.2-1-.4-.2-.2-.8-.3-1.6-.3h-.5c0 4.1.3 8.3.9 12.4l-6.7.8c-.8-6.2-1.2-12.5-1.2-18.8a100 100 0 0 1 9.9-45 5 5 0 0 0 .5-2.2c0-.5-.2-1-.7-1.4-.5-.5-1.1-.7-1.8-.7-1 0-2 .6-2.7 1.9l-5.6-1.4c1.8-2.7 3.7-5.3 5.8-7.7a29.6 29.6 0 0 1 50.5 12.6Zm-29 31a28.4 28.4 0 0 0 11-20c0-5-1.2-8.6-3.5-10.7a11 11 0 0 0-7.3-3.2c-4.4 0-8 2.5-11 7.6a58 58 0 0 0-7 21c0 1.6 1.3 3.1 3.9 4.7a15 15 0 0 0 8 2.4c2.1 0 4.1-.6 6-1.9Z"/>
  <path fill="none" stroke="#eed6a5" stroke-linecap="round" stroke-linejoin="round" stroke-width="16" d="M1116.1 184.2a8.2 8.2 0 0 1 2.8 6.5c0 8.1-2 15.6-5.8 22.3a27.2 27.2 0 0 1-22.7 12.1c-6.4 0-12.6-2.3-18.5-7a47.2 47.2 0 0 1-13.5-22.8 136.7 136.7 0 0 1-6.6-41.5c0-9.7 1.2-20 3.8-31a66.3 66.3 0 0 1 8.2-20.3l5.5 1.3a113.6 113.6 0 0 0-10.4 47.6l.4 7.4 1.2 12.9c.4 3.4 1.2 8.5 2.5 15.4.1 1.9 1 2.9 2.5 2.9h.6c1.3-.3 2-1.2 2-2.8a12.5 12.5 0 0 0-.5-4c-1-4.4-1.7-8.7-2.2-13.1l6.6-.8c1.2 9 3.7 18 7.4 26.8 3 6.5 6.8 9.7 11.4 9.7 3.1 0 5.5-1.7 7-5.2a41 41 0 0 0 1.5-7.3l.1-.8c.4-2.8 1.4-5.4 3.1-7.6s4.1-3.4 7-3.4a11 11 0 0 1 6.7 2.8Zm-40.4 20c0-.8-.3-1.6-1-2.2s-1.4-.9-2.3-1c-1 0-1.8.3-2.5 1s-1 1.4-1 2.5c.3 2.1 1.5 3.3 3.7 3.4 2 0 3-1.2 3.1-3.7Zm-4-8.3c0-.9-.3-1.6-.9-2.3a3.1 3.1 0 0 0-4.6 0c-.5.6-1 1.3-1 2.2s.4 1.6 1 2.3c.5.6 1.2 1 2 1h.4c1.8-.2 2.8-1.2 3-3.2Z"/>
  <path fill="none" stroke="#eed6a5" stroke-linecap="round" stroke-linejoin="round" stroke-width="16" d="M1102 118.4a28.4 28.4 0 0 1-11 20 10.7 10.7 0 0 1-6 1.9c-2.7 0-5.3-.9-8-2.5-2.5-1.6-3.8-3.1-3.8-4.7a58 58 0 0 1 7-21c3-5 6.6-7.6 11-7.6 2.5 0 4.9 1 7.3 3.2 2.3 2.1 3.5 5.7 3.5 10.7Zm-3.3-.4c0-2.7-.5-4.6-1.5-5.8a6 6 0 0 0-4.3-2c-1.5 0-3 1.1-4.6 3.2a40 40 0 0 0-7.7 18.3c.9 2.5 3 3.7 6.2 3.7 1.2 0 2.3-.3 3-1 5.5-4.3 8.4-9.8 9-16.4Zm-23.9 84c.6.6 1 1.4 1 2.3-.2 2.4-1.2 3.6-3.2 3.6-2.2 0-3.4-1.3-3.6-3.4 0-1 .3-2 1-2.6s1.4-1 2.4-1a6 6 0 0 1 2.4 1.1Zm-.2-97.9c0 .6-.2 1.4-.6 2.1a100 100 0 0 0-9.9 45 146.5 146.5 0 0 0 3.7 33.1c.1.4.2 1.4.2 3s-.6 2.4-2 2.6h-.5c-1.5 0-2.4-1-2.5-2.9a233.7 233.7 0 0 1-3.7-28.2l-.4-7.3a113.4 113.4 0 0 1 10.4-47.7c.8-1.2 1.7-1.9 2.8-1.9.6 0 1.2.3 1.7.7.5.5.8 1 .8 1.5Zm-3.8 89.5c.6.7.9 1.4.9 2.3-.3 2-1.3 3-3.1 3.1h-.4c-.8 0-1.5-.3-2-1-.6-.6-1-1.3-1-2.2s.4-1.7 1-2.3 1.3-.8 2.4-.8c.9 0 1.6.3 2.2 1Zm-27.4-87.8c0 1.3-.9 5.6-2.3 13-6.2 32.9-13.8 65.5-22.8 97.8a29 29 0 0 1-7 12.5c-3.2 3.4-7 5.1-11.4 5.1-5.2 0-9.6-2.5-13-7.7l-1.9-4.9-.5-1.3a347.3 347.3 0 0 1-13.3-45 216 216 0 0 1-4-61.2c.4-4.6 2-8.4 5-11.4a14.6 14.6 0 0 1 20.6-.4c3 2.7 4.4 6 4.4 10 0 2.2-.1 4.3-.5 6.7s-.4 4.7-.4 7.3c0 25 4.6 51 13.9 77.7l.2 1c0 .2.3.3 1 .6a1357 1357 0 0 0 22-99.2c.7-4.3 2.4-6.4 5-6.4 3.3.1 5 2.1 5 5.8Zm-36 112.8c0-1.3-.2-2.6-.7-3.9l-3.3-9.9a255.5 255.5 0 0 1-12.2-47c-1.1-9.2-1.8-20-2-32.4 0-3.4.1-6.2.5-8.3l.6-4.7c0-2.3-1-4.4-2.8-6.3s-4-2.8-6.5-2.8c-4.5.5-7.5 2.3-9 5.3-1.3 3-2 6.9-2 11.6 0 2 0 4 .4 6.1v14c.7 14.9 2.7 28.7 5.8 41.3a356 356 0 0 0 13 41c2.4 4.5 5.5 6.8 9.2 6.8a8 8 0 0 0 6.4-3.2c1.8-2.1 2.7-4.7 2.7-7.6Zm26 54.8-.2 25.7c-.1 27.7-.7 54-1.6 78.7-.3 9.7-1.5 19.3-3.4 29a37.5 37.5 0 0 1-15 24 44 44 0 0 1-26 8c-13 0-23.6-5.1-31.5-15.2-3.4-3.8-5-8.3-5-13.3.2-9.2 5-14.2 14.6-15.3 5.6 0 10 3 13.4 9 1 2 2.2 3.3 3.5 4s3.2 1 5.6 1c5.9 0 9.6-2.3 11-6.8l3 1c-.5 1.4-1.1 2.8-1.9 4.1a12 12 0 0 1-7.1 5.1c-2.2.7-4.4 1-6.4 1-7.2 0-11.9-2.6-14-7.7-2.1-4.3-5.1-6.4-8.8-6.4-6.1.5-9.3 4-9.7 10.4a16 16 0 0 0 4.8 10.7 33 33 0 0 0 26.3 12.3c3 0 6-.3 9.3-1 11.9-2.5 19.8-8.6 23.8-18.1s6.1-20.4 6.4-32.7a1580.3 1580.3 0 0 0 1.5-77.1v-4.9c0-3.7 0-6.8-.2-9.3.1-7 .3-10.8.4-11.4l.2-3.8c0-7.1-3.2-10.9-9.7-11.2-4.9 0-8 3-9.2 8.9a170 170 0 0 0-.8 28.8 455.4 455.4 0 0 1-.2 25.9h-.6l-2.7-.1.2-13.3-.2-20.5c0-6.5.2-13.2.6-19.9a16 16 0 0 1 4.6-10.3c2.7-2.7 6-4 9.9-4 4.4.1 8 1.5 10.8 4 2.8 2.7 4.3 6.2 4.3 10.7Z"/>
  <path fill="none" stroke="#eed6a5" stroke-linecap="round" stroke-linejoin="round" stroke-width="16" d="m1026.4 274.4-.2 3.8a153.6 153.6 0 0 0-.2 20.7V321h-5.2l-.4-32.3v-4.1c0-2-.9-3-2.7-3-.9 0-1.5.2-2 .9-.3.6-.5 2-.5 4.4 0 18 .1 30.8.4 38.5a410 410 0 0 1-2.5 42.3l-1 11.3-7-.6c.6-6.8.8-13.7.8-20.5v-31.2h.6a425 425 0 0 0 0-36.5c0-6 .3-12 1-18.1 1.3-6 4.4-9 9.3-9 6.4.4 9.6 4.2 9.6 11.3Z"/>
  <path fill="none" stroke="#eed6a5" stroke-linecap="round" stroke-linejoin="round" stroke-width="16" d="M1020.8 321h5.2c-.2 21.7-.7 41.7-1.5 59.9-.3 12.3-2.4 23.1-6.4 32.7s-12 15.6-23.8 18.1a47 47 0 0 1-9.3 1 32.9 32.9 0 0 1-26.2-12.3c-3.3-3.5-4.9-7-4.9-10.7.4-6.4 3.6-10 9.7-10.4 3.7 0 6.7 2 8.9 6.4 2 5.1 6.7 7.7 14 7.7 2 0 4-.3 6.3-1 3.3-1 5.7-2.7 7.1-5.1a24.2 24.2 0 0 0 3-8.2 286 286 0 0 0 2.3-20.7l7 .6-.7 7.3c0 2 .8 3 2.4 3.3 1.5 0 2.5-.9 2.9-2.7l1.5-20.1c1.7-15.5 2.5-30.7 2.5-45.8Zm-4.4 75.7c0-1-.4-1.8-1-2.5a3.4 3.4 0 0 0-2.5-1.1c-1.2 0-2.1.4-2.8 1.1s-1 1.9-1 3.1c0 1 .2 1.7.9 2.3s1.4 1.1 2.3 1.2c1 0 2-.4 2.7-1.2s1.3-1.7 1.4-2.9Zm-3.3 10.5c0-.9-.4-1.7-1-2.4a3.6 3.6 0 0 0-6.2 2.6 4 4 0 0 0 1.2 2.3c.6.6 1.5 1 2.5 1s1.7-.4 2.3-1 1-1.5 1.2-2.5Z"/>
  <path fill="none" stroke="#eed6a5" stroke-linecap="round" stroke-linejoin="round" stroke-width="16" d="m1020.4 288.7.4 32.3c0 15-.8 30.3-2.5 45.8l-1.5 20.1c-.4 1.8-1.4 2.7-3 2.7-1.5-.3-2.3-1.4-2.3-3.3l.6-7.3 1-11.3a410 410 0 0 0 2.5-42.3c-.3-7.7-.4-20.6-.4-38.5 0-2.3.2-3.8.6-4.4.4-.6 1-1 2-1 1.7 0 2.6 1 2.6 3.1v4Zm-5.1 105.4c.7.7 1 1.6 1 2.6 0 1.2-.5 2.2-1.3 3s-1.7 1.1-2.7 1.1c-.9 0-1.7-.5-2.3-1.2s-1-1.4-1-2.3c0-1.3.4-2.3 1-3s1.7-1.2 2.9-1.2c.9 0 1.7.4 2.4 1Zm-3.3 10.7c.7.7 1 1.5 1 2.4 0 1-.4 1.9-1 2.5s-1.5 1-2.4 1c-1 0-1.9-.3-2.5-1a4 4 0 0 1-1.2-2.3c0-1 .4-2 1-2.6.8-.7 1.6-1 2.5-1 1 0 1.9.3 2.6 1Zm-5.3-190.1a11.3 11.3 0 0 1-2 11.5 8.1 8.1 0 0 1-6.3 3.2c-3.7 0-6.8-2.3-9.3-6.8a354 354 0 0 1-13-41c-3-12.6-5-26.4-5.7-41.4v-13.9c-.3-2-.4-4.1-.4-6.2 0-4.6.7-8.4 2-11.5 1.5-3 4.5-4.8 9-5.3 2.4 0 4.6 1 6.5 2.8s2.8 4 2.8 6.3l-.6 4.6a48 48 0 0 0-.6 8.3c.2 12.4 1 23.3 2.1 32.5 1.7 12.5 5.7 28.2 12.2 47l3.3 9.9Zm-10.4-8c0-1-.3-1.8-1-2.4s-1.2-.8-2.1-.8c-2 0-3 1-3.3 3.3 0 1.9 1 3 3.3 3 .8 0 1.6-.2 2.2-.9s.9-1.3.9-2.1Zm-3.7-8c0-1-.3-1.7-1-2.4-.6-.6-1.5-1-2.5-1-2 .2-3.2 1.4-3.3 3.5 0 1 .3 1.7 1 2.3s1.4 1 2.3 1c1 0 1.9-.3 2.5-1 .7-.8 1-1.6 1-2.5Zm-3.1-8.4-2.3-10.8c-1.6-7-3-13.9-4-20.7-1.2-6.8-1.8-14.6-1.8-23.4l.4-11.2.5-8.1c0-2-.8-3-2.5-3-1.5 0-2.4 1.3-2.5 3.5a187.5 187.5 0 0 0 7.2 74c.4 1.4 1 2 2 2 1.1 0 1.9-.3 2.3-.6s.7-.9.7-1.7Zm16.5 136.5v31.1a282.1 282.1 0 0 1-3.2 41.2c-.2 1.4-.5 2.8-1 4l-3-1a224.8 224.8 0 0 0 3.5-38.7v-5.7c-5.5 6-11.4 9-17.8 9s-11.6-2.4-16-7a51.1 51.1 0 0 1-12.4-23.4c-2-9-3.3-17.8-3.7-26.6a53.3 53.3 0 0 1-1-12.2c0-1.8.5-3.3 1.4-4.7s2-2 3.6-2c1.8.1 3.1.5 3.9 1.2s1.2 2 1.2 3.6c.4 19.4 2.5 34.2 6.5 44.7 4.2 10.8 9.7 16.2 16.7 16.2 3.6 0 6.9-1.7 9.8-5a78 78 0 0 0 8-10.6 494.6 494.6 0 0 0 .8-14.2h2.6Z"/>
  <path fill="none" stroke="#eed6a5" stroke-linecap="round" stroke-linejoin="round" stroke-width="16" d="M995.4 204.3c.6.6.9 1.4.9 2.5 0 .7-.3 1.4-1 2s-1.2 1-2.1 1c-2.2 0-3.3-1.1-3.3-3 .2-2.2 1.3-3.3 3.3-3.3a3 3 0 0 1 2.2.8Zm-3.8-8a3.4 3.4 0 0 1 0 4.7c-.6.8-1.5 1.1-2.5 1.1-.9 0-1.7-.3-2.3-1s-1-1.3-1-2.3c.1-2.1 1.2-3.3 3.3-3.4 1 0 1.9.3 2.5 1Zm-4.4-16.8 2.3 10.8c0 .8-.3 1.4-.7 1.7s-1.2.5-2.2.7c-1 0-1.7-.7-2.1-2.2a224.1 224.1 0 0 1-8.2-55.5c0-5.6.4-11.8 1-18.3.1-2.3 1-3.5 2.5-3.5 1.7 0 2.5 1 2.5 2.9l-.5 8.1-.4 11.2c0 8.8.6 16.6 1.7 23.4 1.2 6.8 2.5 13.8 4 20.7Zm-28.4 38.7.1 2.7c0 4.5-1.4 8.1-4.4 11-3 2.7-6.4 4-10.3 4-3.3 0-6.3-1-8.9-3-2.5-2-4.4-4.7-5.4-8.3-1.7-7.3-2.8-14.6-3.3-22-.9-10.1-1.3-19.6-1.3-28.5.1-4.4.2-16 .2-34.8 0-5 1.5-8.8 4.7-11.6 3.2-2.8 6.7-4.3 10.5-4.3s7.4 1.5 10.2 4.4 4.2 6.7 4.3 11.5l-.1 31.7c0 15.7 1.2 31.5 3.6 47.2Zm-6.4 3.5c0-1-.2-2-.4-3a307.1 307.1 0 0 1-4-47.8l.1-32.8c0-5.6-3.3-9-9.8-9.9a8 8 0 0 0-7.1 4 14.7 14.7 0 0 0-2.6 8.3l.2 18.5-.2 9.7c0 12.7.6 25.4 2 38v.5a88 88 0 0 0 2.6 16.6c2 4.9 5.1 7.3 9.5 7.3l2.7-.2c4.7-1.8 7-4.9 7-9.2Zm-1-131.8c2.7 2.9 4 6.3 4 10.3-.2 4.1-1.7 7.6-4.5 10.4s-6.1 4.1-10.1 4.1-7.5-1.4-10.4-4.3A14 14 0 0 1 926 100a15 15 0 0 1 4.6-10.5 14.6 14.6 0 0 1 20.8.4Zm-3 9.8c0-2.6-1-4.8-2.8-6.7-1.8-1.9-4-2.8-6.8-2.8s-4.8 1-6.7 2.9c-1.8 2-2.8 4.2-2.8 6.7s1 4.9 2.8 6.7c1.8 1.9 4 2.8 6.5 2.8 2.8 0 5-1 7-2.8s2.7-4.1 2.7-6.8Z"/>
  <path fill="none" stroke="#eed6a5" stroke-linecap="round" stroke-linejoin="round" stroke-width="16" d="M952 218.8c.2.8.4 1.8.4 2.8 0 4.4-2.3 7.5-7 9.3l-2.7.2c-4.4 0-7.5-2.4-9.5-7.3a93 93 0 0 1-2.7-16.6v-.4a374 374 0 0 1-2-38.1l.3-9.7-.2-18.6c0-3 .9-5.7 2.6-8.3a8.2 8.2 0 0 1 7-3.9c6.6 1 10 4.2 10 10 0 16.5-.1 27.5-.3 32.8a307.3 307.3 0 0 0 4 47.7Zm-7.4 3.6a3 3 0 0 0-1-2.4c-.6-.6-1.4-.8-2.5-.8-.9 0-1.6.3-2.3.9s-1 1.5-1.1 2.5c0 1 .3 1.8 1 2.5s1.4 1.2 2.4 1.2c2.4 0 3.5-1.3 3.5-3.9Zm-2.7-7.8c.6-.7 1-1.5 1-2.4-.1-1-.6-1.7-1.3-2.3-.7-.7-1.5-1-2.4-1s-1.6.3-2.2 1c-.6.6-.9 1.4-.9 2.3.1 2.3 1.3 3.5 3.5 3.5a3 3 0 0 0 2.3-1.1Zm-1-65.3.5-5.6c0-1.9-.9-2.9-2.6-2.9-1.8 0-2.7 1.3-2.7 3.7v.6c-.5 6.6-1 15.3-1.3 26l-.2 7.6c0 17.6 1.2 26.3 3.7 26.3h.5c1.6-.3 2.3-1.3 2.3-2.9-.2-1.9-.4-3.6-.4-5.2a363.8 363.8 0 0 1 .2-47.6Zm4.7-56.3c1.8 1.9 2.7 4 2.7 6.7s-1 5-2.8 6.8a9.4 9.4 0 0 1-16.1-6.7 9 9 0 0 1 2.8-6.7c1.8-2 4-3 6.6-3s5 1 6.8 2.9Z"/>
  <path fill="none" stroke="#eed6a5" stroke-linecap="round" stroke-linejoin="round" stroke-width="16" d="M943.7 220c.6.6 1 1.4 1 2.4 0 2.6-1.2 4-3.5 4-1 0-2-.5-2.6-1.3s-1-1.6-1-2.5c.2-1 .6-1.8 1.2-2.5s1.5-1 2.4-1c1 0 1.8.3 2.5 1Zm1.5 68.9a50 50 0 0 1-2.3 14.7 14.7 14.7 0 0 1-14.3 11c-9.8-1-14.7-6-14.7-15.1l.4-2.8 3 .5-.1 1.3c0 3 1 5.4 2.9 7.3 2 1.8 4.2 2.8 6.7 2.8 2.9 0 5.1-1 6.8-3.2s2.9-4.8 3.5-8c.6-3.3 1-6.5 1-9.7 0-10-3.6-18.1-10.7-24.2a27.7 27.7 0 0 0-18.1-6.6c-5.5 0-10.9 2-16.3 5.7a61.9 61.9 0 0 0-19 25.5l-2.8-1.1a61.4 61.4 0 0 1 21.1-28.5 30.8 30.8 0 0 1 18.5-6.2 33 33 0 0 1 24.2 10.3 35.7 35.7 0 0 1 10.2 26.2Zm-2.3-76.7c0 .9-.3 1.7-1 2.4a3 3 0 0 1-2.3 1c-2.2 0-3.3-1-3.5-3.4 0-1 .3-1.7.9-2.3.6-.6 1.3-1 2.2-1s1.7.4 2.4 1 1.1 1.4 1.3 2.3Zm-1.5-68.5-.4 5.6a363.8 363.8 0 0 0 .2 52.8c0 1.6-.8 2.5-2.4 3h-.5c-2.5 0-3.7-8.9-3.7-26.4l.2-7.5c.4-10.9.8-19.6 1.3-26.1v-.6c0-2.5 1-3.7 2.7-3.7 1.7 0 2.6 1 2.6 3Z"/>
  <path fill="none" stroke="#eed6a5" stroke-linecap="round" stroke-linejoin="round" stroke-width="16" d="m940.6 356.7-.2 1.8a77 77 0 0 1-5.8 20.6 43.5 43.5 0 0 1-11.2 15.5c-4.7 4-10.2 6-16.5 6a32 32 0 0 1-16-4.6c-18-11.2-26.9-33.3-26.9-66.1a115 115 0 0 1 7.2-42.9l2.9 1.2a124.3 124.3 0 0 0-6.8 40.7v1.5c0 6.6.5 13.5 1.6 20.5a74.5 74.5 0 0 0 9 25.4c2.7 4.6 6 8.5 9.7 11.9 5 4.4 10.8 6.6 17.4 6.6 8.6 0 15.7-4.9 21-14.7a74 74 0 0 0 7.4-21.8l.2-2c0-6-3.2-9.3-9.7-9.8-4.9 0-8.2 3.6-10 10.8a128 128 0 0 1-4.2 12.4c-1.5 3.7-3.3 5.6-5.5 5.6-1.7 0-3.6-1.2-5.8-3.7a42 42 0 0 1-9.5-19.8 112.4 112.4 0 0 1-1.2-38.3 56.2 56.2 0 0 1 16.1-34.7 8.8 8.8 0 0 1 5.8-2.3c2.8 0 5 1 6.6 3.3s2.4 4.9 2.5 8a23 23 0 0 1-.6 5.8c-.3 1-.5 2.3-.7 3.6l-3.1-.5.4-2.4c.4-1.6.5-3.6.5-6 0-1.8-.2-3.2-.7-4s-1.5-1.6-3.3-1.8c-.6 0-1 0-1.5.4-.4.2-.8.5-1 .8l-.6.5a44 44 0 0 0-11.8 21.6 114.5 114.5 0 0 0-.8 45 39 39 0 0 0 8.5 18c.7.6 1.2.9 1.6.9.3 0 .7-.5 1.1-1.4 1.4-3.3 2.6-6.8 3.5-10.4l1-2.9c2.5-8 7.4-12 14.6-12a15 15 0 0 1 10.3 4c3 2.6 4.4 5.9 4.4 9.7Z"/>
  <path fill="none" stroke="#eed6a5" stroke-linecap="round" stroke-linejoin="round" stroke-width="16" d="M938 287.7c0 3.2-.3 6.5-1 9.7-.5 3.2-1.7 5.9-3.4 8s-4 3.2-6.8 3.2c-2.5 0-4.8-1-6.7-2.8a9.5 9.5 0 0 1-3-7.3c.2-.4.2-.9.3-1.3l.7-3.6c.4-1.5.6-3.4.6-5.7-.1-3.2-1-6-2.5-8.1s-3.7-3.3-6.6-3.3c-2 0-4 .8-5.8 2.3-8.6 8-14 19.5-16 34.7l-7-.9.6-4a134 134 0 0 1 3.3-15.8 37 37 0 0 1 7.5-14c.7-.6 1-1.3 1-2.1 0-.7-.3-1.2-.9-1.7-.5-.6-1-.8-1.6-.8-1 0-1.7.5-2.5 1.5-4 5-6.9 10.5-8.5 16.7a166.6 166.6 0 0 0-5.8 43.8c0 9.6 1.6 18.8 5 27.7l1 3.4c.4 1.2 1.1 1.8 2.3 1.8l2 2c-.7.8-1 1.6-1 2.5 0 .5 0 1 .2 1.4l-5.5 1.3a74.9 74.9 0 0 1-9-25.4c-1-7-1.6-13.9-1.6-20.5V329a124 124 0 0 1 6.8-40.7 61.7 61.7 0 0 1 18.9-25.6 28.4 28.4 0 0 1 16.3-5.6c6.8 0 12.8 2.2 18.1 6.6 7.1 6 10.6 14 10.6 24.1Z"/>
  <path fill="none" stroke="#eed6a5" stroke-linecap="round" stroke-linejoin="round" stroke-width="16" d="m933.6 356.4-.2 1.9c-1.4 7.7-3.8 15-7.3 21.8-5.4 9.8-12.5 14.7-21.1 14.7-6.6 0-12.4-2.2-17.4-6.7-3.8-3.3-7-7.2-9.7-11.8l5.5-1.3.8 1.2c.7.7 1.5 1 2.4 1 1 0 1.9-.3 2.5-1a3 3 0 0 0 1-2.3c0-1-.3-1.9-1-2.6s-1.6-1.1-2.5-1.2c-1 0-1.8.3-2.5 1l-1.9-2c1.8-.4 2.7-1.3 2.7-2.7l-.1-.9c0-.3-.2-.5-.3-.8a84 84 0 0 1-5.1-35.3l7.2.4c0 7.1.8 14.4 2.3 22a42 42 0 0 0 9.5 19.8c2.2 2.5 4.1 3.7 5.8 3.7 2.2 0 4-1.9 5.5-5.6a127 127 0 0 0 4.2-12.4c1.8-7.2 5.1-10.8 10-10.8 6.5.5 9.7 3.8 9.7 9.9Zm-37.7 24c0-1-.3-1.8-1-2.5s-1.4-1-2.5-1a3 3 0 0 0-2.2.9c-.7.6-1 1.3-1 2.1 0 2.2 1 3.5 3.2 3.9 1 0 1.9-.4 2.5-1 .7-.8 1-1.6 1-2.5Zm22.8-180.6a25 25 0 0 1-1.5 6.8 159 159 0 0 1-7 19.5 59 59 0 0 1-10.8 17.2c-4.4 4.8-10 7.2-17 7.2s-13.7-3.2-19.4-9.7a60.3 60.3 0 0 1-9.2-21.3 131 131 0 0 1-4.7-39.8v-8.5c0-13.8.5-27.5 1.4-41.2l.4-6c.2-7.8.8-15.7 1.7-23.4v-.6c0-.8-.4-1.1-1.2-1.1l-11.4 1c-4.7-.2-7.1-1.9-7.1-5.1s2.2-4.8 6.6-5l13.3-.8c.9-.3 1.4-.8 1.5-1.6.4-2.8 1-5.6 1.6-8.5.8-3.7 2.5-6.6 5.1-8.7 2.7-2 5.7-3 9.2-3a17 17 0 0 1 11 4.4c2.6 2.6 3.9 6.2 3.9 10.8l-.2 4.3c0 1 .3 1.7 1 1.9s1.9.4 3.8.4c4.5 0 8.9 0 13 .2 3 0 4.8 1.7 5.2 5.2a4 4 0 0 1-2 3.6 7.9 7.9 0 0 1-4.4 1.2l-17-.4c-2.2 0-3.6 10-4.3 30.2-.9 14.3-1.3 28.6-1.3 43l.2 15.6c.1 8.4 1.4 17 3.9 25.9l6.5-17.2c3.3-7.2 8-10.8 14.1-10.8 4.4.3 8 1.8 10.9 4.2 2.8 2.5 4.2 5.8 4.2 10Zm-7.5 3.1a10.5 10.5 0 0 0-2.2-10.5 9 9 0 0 0-7-3.2c-5.1.5-8.5 3.7-10.1 9.6a276 276 0 0 1-8.4 21.9l-1.5 2.8c-.4.6-.9.8-1.4.8-.6 0-1-.4-1.4-1s-.6-1.2-.8-1.8l-.5-1.2-1.8-6c-2.7-9.2-4-18.6-4.2-28.2l-.2-14.3c0-24.8 1.3-48.8 3.7-72 0-.9-.5-1.3-1.5-1.3l-16.5.2c-1 0-1.5.6-1.5 1.9l-1 10.7a1171 1171 0 0 0-2 32.3v.1c-.3 8.8-.5 19.3-.5 31.4a164 164 0 0 0 5 44c1.4 7 4.2 13.3 8.3 18.8 4.3 4.6 9 7 14.3 7s9.7-1.8 13.2-5.3c3.5-3.6 6.4-8 8.9-13.3 2.8-6.3 5.8-14.1 9-23.4ZM877.3 87.4c.4-.8.6-2.3.6-4.8 0-6.5-3.1-10.1-9.4-10.8-4.4 0-7.5 2.5-9.3 7.4l-1.8 8.5c.2.6.5 1 1.2 1h8.5v-.3h7c1.8 0 2.9-.3 3.2-1Z"/>
  <path fill="none" stroke="#eed6a5" stroke-linecap="round" stroke-linejoin="round" stroke-width="16" d="M911.8 199.4c0 1.2-.2 2.3-.6 3.5-3.2 9.3-6.3 17-9.1 23.4a46.9 46.9 0 0 1-8.9 13.3c-3.5 3.5-7.9 5.3-13.2 5.3s-10-2.4-14.3-7a46.5 46.5 0 0 1-8.3-18.7c-3.3-11.8-5-26.5-5-44.1 0-12.1.2-22.6.6-31.4l6 .3-.2 10.2a316.1 316.1 0 0 0 2.5 45.6c.3 1.6 1.2 2.3 2.7 2.3l.9 3.6c-1.5.2-2.3 1.1-2.4 2.8 0 2.2 1.2 3.3 3.6 3.3l.6 2.7c-1.2.4-1.8 1.5-2 3.1 0 .9.4 1.7 1 2.3s1.5 1 2.4 1.2c.9 0 1.7-.4 2.4-1.1s1-1.4 1-2.2a4 4 0 0 0-.4-2l5-1.4a87.1 87.1 0 0 0 3 8.9c.4.6.9 1 1.5 1 .5 0 1-.2 1.4-.8l1.5-2.8a276 276 0 0 0 8.4-21.9c1.6-5.9 5-9.1 10-9.6 2.8 0 5.2 1 7 3.2s2.9 4.5 2.9 7ZM895 377.9a3.5 3.5 0 0 1 0 4.9c-.7.6-1.5 1-2.6 1-2.2-.4-3.3-1.7-3.3-3.9 0-.8.4-1.4 1.1-2.1a3 3 0 0 1 2.2-1c1 0 1.9.4 2.5 1.1ZM892.3 275c.6.4 1 1 1 1.7 0 .8-.4 1.5-1 2a37 37 0 0 0-7.6 14.1 127.4 127.4 0 0 0-3.8 19.8 190.2 190.2 0 0 0-1.8 24.8 84 84 0 0 0 5.8 29c0 1.4-1 2.3-2.7 2.7-1.2 0-2-.6-2.3-1.8l-1-3.4c-3.4-8.9-5-18.1-5-27.7 0-15 2-29.7 5.8-43.8a44.4 44.4 0 0 1 8.5-16.7c.8-1 1.6-1.5 2.5-1.5.5 0 1 .2 1.6.8Zm-2.2 99a3 3 0 0 1-1 2.2c-.6.7-1.5 1-2.5 1-.9 0-1.7-.3-2.4-1l-.8-1.2a3.5 3.5 0 0 1 .7-3.9c.7-.7 1.5-1 2.5-1s1.7.5 2.4 1.2 1.1 1.6 1.1 2.6Z"/>
  <path fill="none" stroke="#eed6a5" stroke-linecap="round" stroke-linejoin="round" stroke-width="16" d="m880.9 312.6 6.8.9c-.7 5-1 10.5-1 16.4l-7.3-.4c.2-5.7.7-11.3 1.5-16.9Zm-2.9-230c0 2.5-.3 4-.7 4.8-.4.7-1.4 1-3.3 1h-6.9v.2h-8.5c-.7 0-1-.3-1.2-1l1.7-8.4c1.9-5 5-7.4 9.3-7.4 6.3.7 9.5 4.3 9.5 10.8Zm-2 131.7-5 1.4c-.5-.8-1.5-1.3-3-1.4-.4 0-1 0-1.3.2l-.6-2.7c.8 0 1.5-.3 2-1a3 3 0 0 0 .7-2c0-2.2-1-3.2-3.2-3.2h-.7l-.9-3.5c1.6-.2 2.3-1.2 2.3-2.9a391 391 0 0 1-2.5-40c0-8.6.3-16.8 1-24.5a583 583 0 0 1 2.7-23.4v-.8c0-1.8-1-2.7-2.7-2.7-1.4 0-2.2.9-2.3 2.7-1.9 11.9-3 23-3.5 33.5l-6-.3v0c.4-8.9 1-19.7 2-32.5l.9-10.6c0-1.3.5-2 1.5-2l16.5-.1c1 0 1.5.4 1.5 1.3a685.6 685.6 0 0 0-3.7 72l.2 14.3c.1 9.6 1.5 19 4.2 28.2Z"/>
  <path fill="none" stroke="#eed6a5" stroke-linecap="round" stroke-linejoin="round" stroke-width="16" d="M871 215.8c.4.5.5 1.1.5 2a3 3 0 0 1-1 2.2 3.3 3.3 0 0 1-4.8-.1 3 3 0 0 1-1-2.3c.2-1.6.8-2.7 2-3.1l1.4-.2c1.4 0 2.4.6 3 1.4Zm-2.2-7.1c0 .8-.2 1.5-.7 2.1-.5.7-1.2 1-2 1-2.4 0-3.6-1.1-3.6-3.3 0-1.7.9-2.7 2.4-2.9h.7c2.1 0 3.2 1 3.2 3Zm-1.3-98.2v.8a583 583 0 0 0-2.6 23.4 271 271 0 0 0-1.1 24.5c0 10.8.8 24.2 2.5 40 0 1.7-.8 2.7-2.3 3-1.5 0-2.4-.8-2.7-2.4a322.4 322.4 0 0 1 1.2-89.3c0-1.8.9-2.7 2.3-2.7 1.8 0 2.7.9 2.7 2.7Zm-17 262.1c0 5.6 0 11.3.2 16.8 0 1.8-.5 3.6-1.5 5.3s-2.3 2.6-4.1 2.6c-1.5 0-2.7-.5-3.8-1.5a4.7 4.7 0 0 1-1.7-3.5l.4-1.6.4-1.9.2-2.5-.2-23.4c0-10.2 0-20.2-.2-30.1-.1-10-.4-17.6-.8-22.9a72.4 72.4 0 0 0-3.1-15.5c-1.6-5.1-4-7.7-7-7.7s-5.7 2-8.7 5.7a54 54 0 0 0-7.4 12.5c-4.7 11.7-8 24-10.1 36.5a306.8 306.8 0 0 0-5 46 17 17 0 0 1-4.2 10.3 15 15 0 0 1-10 5.2h-1.1c-7.4 0-12.3-4.2-14.9-12.5a338.6 338.6 0 0 1 1-113.7c2.4-8.7 7.2-13 14.3-13 9.8.5 14.8 5.7 15 15.7 0 3.7-.4 7.3-1.3 10.6l-1 5.4a331 331 0 0 0-2.7 42.2l2.1-8.5c1.6-6.6 3.4-13 5.4-19.5s4.7-12.2 8-17.5a50 50 0 0 1 9-10.5 18 18 0 0 1 12.3-4.8c4.2 0 7.6 1.6 10.2 4.7 2.6 3 4.5 6.8 5.9 11.2s2.3 8.6 2.8 12.8c.8 5 1.2 11.9 1.4 20.6l.2 46.4Zm-61.1-81 1.7-11.8c0-7.4-3-11.2-9.3-11.4-4.9 0-8 2.9-9.6 8.7a367.1 367.1 0 0 0-5.5 63.6c0 11.6.8 23.1 2.2 34.6l.2 2c.7 9.5 2.8 15.5 6.2 17.9a9.5 9.5 0 0 0 12.7-1.5c0-.2 0-.3.2-.4l.5-.6c.2-.2.3-.6.3-1l-.4-1.4-.3-1.3-.1-1.5.4-9.5-.2-2.5a303.8 303.8 0 0 1 1-83.9Zm46.4-168.8c0 5-.8 9.8-2.3 14.7-1 3.5-3 6.2-5.6 8.2a14.5 14.5 0 0 1-8.8 2.9c-9.8-1-14.7-6-14.7-15.1l.5-2.8 3 .5-.2 1.3a9.7 9.7 0 0 0 9.7 10c2.8 0 5-1 6.8-3.1 1.6-2.2 2.8-4.8 3.4-8s1-6.5 1-9.7c0-10-3.5-18.1-10.6-24.2a27.6 27.6 0 0 0-34.5-1 61.8 61.8 0 0 0-18.9 25.6l-2.8-1a78 78 0 0 1 6.3-12.6 59 59 0 0 1 14.8-16 30.8 30.8 0 0 1 18.4-6.2 33 33 0 0 1 24.2 10.3 35.7 35.7 0 0 1 10.3 26.2Z"/>
  <path fill="none" stroke="#eed6a5" stroke-linecap="round" stroke-linejoin="round" stroke-width="16" d="m831.1 190.7-.2 1.8c-1 7.3-3 14.2-5.8 20.5a43.4 43.4 0 0 1-11.2 15.6c-4.6 4-10 6-16.4 6-5.3 0-10.6-1.6-16-4.6-18-11.3-27-33.3-27-66.2a115 115 0 0 1 7.3-42.8l2.8 1.1-1.4 4.3a124.6 124.6 0 0 0-5.3 36.5v1.5c0 6.6.5 13.4 1.6 20.5a73.4 73.4 0 0 0 9 25.4c2.6 4.6 5.9 8.5 9.7 11.8 5 4.5 10.8 6.7 17.4 6.7 8.6 0 15.6-4.9 21-14.7a77 77 0 0 0 7.4-21.8l.2-2c0-6-3.2-9.3-9.7-9.8-4.9 0-8.2 3.6-10 10.8a138 138 0 0 1-4.2 12.4c-1.5 3.7-3.3 5.6-5.5 5.6-1.7 0-3.6-1.2-5.8-3.7a42.1 42.1 0 0 1-9.6-19.8 113.8 113.8 0 0 1-1.1-38.3 56 56 0 0 1 16.1-34.7 8.8 8.8 0 0 1 5.8-2.3c2.9 0 5 1 6.6 3.3 1.5 2.2 2.4 4.9 2.5 8a23 23 0 0 1-.6 5.8 43 43 0 0 0-.7 3.6l-3.1-.4.4-2.5c.4-1.6.5-3.6.5-6 0-1.8-.2-3.2-.6-4s-1.6-1.6-3.4-1.8c-.5 0-1 .1-1.5.4l-1 .7-.6.6c-6 6.2-10 13.4-11.8 21.6a114.4 114.4 0 0 0-.8 45 39.3 39.3 0 0 0 8.5 18c.7.6 1.2.9 1.6.9.4 0 .7-.5 1.1-1.4 1.4-3.3 2.6-6.8 3.5-10.4l1-3c2.5-8 7.4-12 14.7-12 3.8 0 7.2 1.4 10.2 4s4.5 6 4.5 9.8Z"/>
  <path fill="none" stroke="#eed6a5" stroke-linecap="round" stroke-linejoin="round" stroke-width="16" d="M828.6 121.7c0 3.2-.3 6.4-1 9.7s-1.7 5.9-3.4 8a8.3 8.3 0 0 1-6.8 3.2 9.7 9.7 0 0 1-9.7-10l.2-1.4.8-3.6c.4-1.5.6-3.4.6-5.7-.1-3.2-1-6-2.5-8.1a7.6 7.6 0 0 0-6.6-3.3c-2 0-4 .8-5.8 2.3a56 56 0 0 0-16.1 34.7l-6.9-1a174.8 174.8 0 0 1 3.9-19.7c1.4-5 3.9-9.7 7.5-14a3 3 0 0 0 1-2.1c0-.7-.3-1.2-1-1.8s-1-.7-1.5-.7c-1 0-1.8.5-2.6 1.5a46 46 0 0 0-8.5 16.6 165.4 165.4 0 0 0-5.8 44 78 78 0 0 0 5 27.6l1 3.4c.4 1.2 1.2 1.8 2.3 1.8l2 2c-.7.7-1 1.5-1 2.5 0 .5.1 1 .3 1.4l-5.6 1.3a73.4 73.4 0 0 1-9-25.3c-1-7.2-1.5-14-1.5-20.6V163a124.6 124.6 0 0 1 6.7-40.8 61.8 61.8 0 0 1 19-25.5 27.6 27.6 0 0 1 34.4 1c7 6 10.6 14 10.6 24Z"/>
  <path fill="none" stroke="#eed6a5" stroke-linecap="round" stroke-linejoin="round" stroke-width="16" d="m824.2 190.3-.2 2c-1.5 7.7-3.9 15-7.4 21.8-5.4 9.8-12.4 14.7-21 14.7-6.6 0-12.4-2.2-17.5-6.7a51 51 0 0 1-9.7-11.8l5.5-1.3.8 1.1c.8.7 1.6 1 2.5 1a3.3 3.3 0 0 0 3.5-3.2c0-1-.4-1.9-1.1-2.6s-1.5-1.1-2.4-1.3c-1 0-2 .4-2.5 1.1l-2-2c1.8-.4 2.7-1.3 2.7-2.7v-.9l-.4-.8-.3-.8a83.3 83.3 0 0 1-4.8-34.5l7.3.4c0 7.1.7 14.4 2.2 22a42.1 42.1 0 0 0 9.6 19.8c2.2 2.4 4 3.6 5.8 3.6 2.2 0 4-1.8 5.5-5.6 1.5-3.7 2.8-7.8 4.1-12.3 1.8-7.3 5.2-10.9 10-10.9 6.5.5 9.7 3.8 9.7 9.9Zm-37.7 24c0-.9-.4-1.7-1-2.4a3.3 3.3 0 0 0-4.7-.1c-.7.6-1 1.4-1 2.1 0 2.2 1 3.5 3.2 3.9 1 0 1.9-.4 2.5-1 .6-.8 1-1.6 1-2.5Zm4.6 65.5-1.7 11.8a304 304 0 0 0-1 83.9l.2 2.5-.4 9.5a9.2 9.2 0 0 0 .4 2.8l.4 1.4c0 .4-.1.7-.3 1l-.5.6-.2.3a9.5 9.5 0 0 1-12.8 1.6c-3.3-2.4-5.4-8.4-6.1-18l-.2-1.9c-1.4-11.5-2.2-23-2.2-34.6 0-22 1.9-43.1 5.5-63.6 1.5-5.8 4.7-8.7 9.6-8.7 6.2.2 9.3 4 9.3 11.4Zm-9.5 14.9 1.6-12c0-1.7-1-2.6-2.7-2.7-1 0-1.5.3-1.9 1a286.5 286.5 0 0 0-5.7 56 323.6 323.6 0 0 0 1 30c.1 1.7 1 2.5 2.5 2.5h.4c.8 0 1.3-.3 1.6-.9s.5-1.7.5-3.5a250.2 250.2 0 0 1 0-48.7 739 739 0 0 1 2.7-21.7Zm-.3 93c.8-.7 1.1-1.4 1.1-2.1 0-2.4-1-3.6-3-3.7a4 4 0 0 0-2.7.9 3 3 0 0 0-1 2.4c0 .9.3 1.7 1 2.4s1.3 1 2.2 1 1.7-.3 2.4-.9Zm-3.7-9.7c2.2-.2 3.3-1.5 3.3-3.7 0-1.9-1.2-3-3.7-3-.8 0-1.5.3-2 1s-1 1.3-1 2.2.4 1.7 1 2.5a3 3 0 0 0 2.4 1Z"/>
  <path fill="none" stroke="#eed6a5" stroke-linecap="round" stroke-linejoin="round" stroke-width="16" d="M785.5 211.9a3.5 3.5 0 0 1 0 4.8c-.6.7-1.5 1-2.5 1-2.2-.3-3.3-1.6-3.3-3.8 0-.7.3-1.4 1-2s1.5-1 2.3-1c1 0 1.9.3 2.5 1ZM782.9 109c.6.5.9 1 .9 1.7a3 3 0 0 1-1 2.1c-3.6 4.3-6.1 9-7.5 14a121.5 121.5 0 0 0-3.9 19.8 206.3 206.3 0 0 0-1.8 24.8 83.3 83.3 0 0 0 5.9 29c0 1.4-1 2.3-2.8 2.7-1.1 0-1.9-.6-2.3-1.8l-1-3.4c-3.3-9-5-18.1-5-27.7 0-15 2-29.7 5.8-43.9a44.4 44.4 0 0 1 8.5-16.6c.8-1 1.6-1.5 2.6-1.5.5 0 1 .2 1.6.7Zm.3 173.7-1.6 12-2.7 21.7a232.2 232.2 0 0 0 0 48.7c0 1.8-.1 3-.5 3.5s-.8.9-1.6.9h-.4c-1.5 0-2.4-.8-2.5-2.5l-.4-4.8c-.4-3.7-.6-12-.6-25.2a286.5 286.5 0 0 1 5.7-56c.4-.7 1-1 1.9-1 1.8 0 2.7 1 2.7 2.7Zm-.8 102.9c0 .7-.3 1.4-1 2-.8.7-1.6 1-2.5 1s-1.6-.3-2.3-1-1-1.6-1-2.5a3 3 0 0 1 1.1-2.4c.7-.6 1.6-.8 2.6-.8 2 0 3.1 1.3 3.1 3.6ZM780.7 208c0 .8-.4 1.6-1 2.3-.6.6-1.5.9-2.5.9s-1.7-.3-2.4-1c-.4-.4-.6-.8-.8-1.2l-.3-1.5c0-.9.3-1.7 1-2.4.6-.7 1.5-1 2.5-1 .9 0 1.7.5 2.4 1.2s1 1.6 1 2.6Zm.2 166.3c0 2.2-1.1 3.4-3.3 3.7a3 3 0 0 1-2.3-1 3.5 3.5 0 0 1-.1-4.8c.5-.6 1.2-1 2-1 2.4.1 3.7 1.2 3.7 3.1Z"/>
  <path fill="none" stroke="#eed6a5" stroke-linecap="round" stroke-linejoin="round" stroke-width="16" d="m771.4 146.6 6.9.9c-.8 5-1.1 10.5-1.1 16.3l-7.3-.4c.3-5.6.8-11.2 1.5-16.8ZM752 274.8c.4 1.5.8 4.6 1 9.4a52.3 52.3 0 0 1-23.4 41.8 31.7 31.7 0 0 1-23 4.8l-2.5-.2c-.5 0-.8.3-.8.8 1 10.6 3.3 20.3 7.2 29.2.8 1.7 1.7 3.2 3 4.5 1.2 1.4 2.3 2 3.4 2s2-.8 2.4-2.5l1.2-5.7 3.3.4a45 45 0 0 1-1.5 7.3c-1.6 3.5-3.9 5.2-7 5.2-4.6 0-8.4-3.2-11.4-9.7a106 106 0 0 1-8.3-39.2h.6c.7 0 1.3 0 1.6.3l.9.5a33 33 0 0 0 11 1.9c6.5 0 12.4-2.1 17.9-6.4s9.9-9.6 13.3-16a41.2 41.2 0 0 0 3.6-29.8A29.7 29.7 0 0 0 716 251a29 29 0 0 0-21.8 9.7 60.2 60.2 0 0 0-14 28c-2.6 11-3.8 21.3-3.8 31a137.2 137.2 0 0 0 9.4 49.5l-3 1.3a98.8 98.8 0 0 1-7.3-24 147.1 147.1 0 0 1-.2-51.2 96.3 96.3 0 0 1 7-23 55 55 0 0 1 13.8-18.4c6-5.1 13.1-7.7 21.6-7.7a37 37 0 0 1 19.2 5.8 35 35 0 0 1 15.3 22.6Zm-4.6-166.1c.4 1.6.7 4.7 1 9.5A52.5 52.5 0 0 1 725 160a32 32 0 0 1-23 4.8l-2.5-.2c-.6 0-.8.3-.8.8a92 92 0 0 0 7.1 29.2c.8 1.6 1.8 3.2 3 4.5s2.4 2 3.4 2c1.2 0 2-.8 2.4-2.4a77 77 0 0 0 2-10.3 15.4 15.4 0 0 1 15-12 14 14 0 0 1 10 4.3c2.8 2.8 4.3 6 4.3 9.8-.4 17.2-6 29-17 35.6a30.8 30.8 0 0 1-16.7 4.8 30 30 0 0 1-20.2-7.1 52.7 52.7 0 0 1-13.6-18.5 103 103 0 0 1-7.7-24.7 149 149 0 0 1-.1-51.2 97 97 0 0 1 7-23c3.2-7 7.8-13.2 13.7-18.3a32 32 0 0 1 21.7-7.8c6.4 0 12.8 2 19.1 5.8a35 35 0 0 1 15.3 22.6Zm-6.2 9a41 41 0 0 0-1.3-10.3 29.4 29.4 0 0 0-50.5-12.6 65.3 65.3 0 0 0-14 28 134.5 134.5 0 0 0 2.8 72.6 47.2 47.2 0 0 0 13.5 22.8 30 30 0 0 0 18.6 7 27.2 27.2 0 0 0 22.6-12.2 43.6 43.6 0 0 0 5.8-22.3c0-2.7-.9-4.8-2.7-6.5-1.8-1.6-4-2.5-6.6-2.8-3 0-5.3 1.2-7 3.4a14.9 14.9 0 0 0-3.1 7.7 47 47 0 0 1-1.7 8c-1.5 3.6-3.9 5.3-7 5.3-4.6 0-8.4-3.2-11.3-9.7a107.4 107.4 0 0 1-8.4-39.2h.6c.8 0 1.3 0 1.6.3l1 .4a28.8 28.8 0 0 0 28.8-4.4 48 48 0 0 0 18.3-35.6Z"/>
  <path fill="none" stroke="#eed6a5" stroke-linecap="round" stroke-linejoin="round" stroke-width="16" d="M746.2 346.7c2.9 2.8 4.3 6.1 4.3 9.8-.4 17.2-6 29-17 35.6a31 31 0 0 1-16.6 4.9 30 30 0 0 1-20.2-7.2 53.1 53.1 0 0 1-13.7-18.5l-.3-.7 3-1.2a47.7 47.7 0 0 0 10.7 14.8c5.9 4.6 12 7 18.5 7a27 27 0 0 0 22.6-12.2 43.6 43.6 0 0 0 5.8-22.2c0-2.7-.9-4.9-2.7-6.5a11 11 0 0 0-6.6-2.8 8 8 0 0 0-7 3.4 15 15 0 0 0-3.1 7.6l-.1.8-3.3-.4c.1-1.6.4-3 .8-4.5a15.3 15.3 0 0 1 15-12 14 14 0 0 1 9.9 4.3Zm-1.7-73.3a40.8 40.8 0 0 1-3.7 29.8 46.9 46.9 0 0 1-13.2 16 28.9 28.9 0 0 1-28.9 4.4c-.3 0-.6-.2-1-.4-.2-.2-.8-.3-1.6-.3h-.5c0 4.2.3 8.3.9 12.4l-6.7.8a147 147 0 0 1-1.2-18.8c0-16.8 3.3-31.8 9.9-45 .4-.9.5-1.6.5-2.2 0-.5-.2-1-.7-1.5-.5-.4-1.1-.6-1.8-.6-1 0-2 .6-2.7 1.9l-5.6-1.3c1.8-2.8 3.7-5.3 5.8-7.8a29.6 29.6 0 0 1 50.5 12.6Zm-29 31a28.3 28.3 0 0 0 11-20c0-5-1.2-8.6-3.5-10.7a11 11 0 0 0-7.3-3.2c-4.4 0-8 2.5-11 7.6a57.6 57.6 0 0 0-7 21c0 1.6 1.3 3.1 3.9 4.8a15 15 0 0 0 8 2.4 10 10 0 0 0 6-2Z"/>
  <path fill="none" stroke="#eed6a5" stroke-linecap="round" stroke-linejoin="round" stroke-width="16" d="M740.6 350.3a8.3 8.3 0 0 1 2.7 6.4c0 8.2-1.9 15.6-5.8 22.3a26.8 26.8 0 0 1-22.6 12.2c-6.4 0-12.6-2.4-18.5-7a47.6 47.6 0 0 1-13.6-22.8 137.7 137.7 0 0 1-2.8-72.6 65.6 65.6 0 0 1 8.3-20.2l5.5 1.3a113.6 113.6 0 0 0-10.4 47.6l.4 7.3 1.2 12.9c.4 3.4 1.2 8.5 2.5 15.4.1 2 1 2.9 2.5 2.9h.6c1.3-.3 2-1.2 2-2.7a13 13 0 0 0-.5-4 143 143 0 0 1-2.3-13.2l6.7-.8c1.2 9 3.7 18 7.4 26.9 3 6.4 6.8 9.6 11.4 9.6 3.1 0 5.5-1.7 7-5.2a46 46 0 0 0 1.5-7.3l.1-.8a15 15 0 0 1 3.1-7.7 8.5 8.5 0 0 1 7-3.3 11 11 0 0 1 6.7 2.8Zm-40.4 20c0-1-.3-1.7-1-2.2s-1.4-1-2.3-1.1a3.3 3.3 0 0 0-3.4 3.5c.2 2.2 1.4 3.3 3.6 3.5 2 0 3-1.3 3.1-3.7Zm-4-8.3c0-1-.3-1.7-.9-2.4a3 3 0 0 0-2.2-1c-1 0-1.9.4-2.4 1-.6.5-1 1.3-1 2.2s.4 1.6 1 2.3 1.2 1 2 1h.4c1.8-.2 2.8-1.2 3-3.1Zm43.7-254.6a40.9 40.9 0 0 1-3.7 29.8 48.2 48.2 0 0 1-13.2 16 28.6 28.6 0 0 1-18 6.4c-3.5 0-7.2-.6-11-2l-.8-.4c-.3-.2-.9-.3-1.7-.3h-.6c0 4.1.4 8.3 1 12.4l-6.7.8c-.8-6.2-1.2-12.5-1.2-18.8 0-16.8 3.3-31.8 9.9-45a5 5 0 0 0 .5-2.2c0-.5-.2-1-.7-1.4-.6-.5-1.1-.7-1.8-.7-1 0-2 .6-2.7 1.9l-5.6-1.4a62 62 0 0 1 5.8-7.7 29.6 29.6 0 0 1 50.5 12.6Zm-29 31a28.4 28.4 0 0 0 11-20c0-5-1.2-8.6-3.6-10.7a11 11 0 0 0-7.2-3.2c-4.4 0-8 2.5-11 7.6a57.3 57.3 0 0 0-7 21c0 1.6 1.3 3.1 3.8 4.7 2.6 1.6 5.3 2.4 8 2.4a10 10 0 0 0 6-1.9Z"/>
  <path fill="none" stroke="#eed6a5" stroke-linecap="round" stroke-linejoin="round" stroke-width="16" d="M736 184.2a8.3 8.3 0 0 1 2.7 6.5c0 8.1-2 15.6-5.8 22.3a27.3 27.3 0 0 1-22.6 12.1c-6.5 0-12.6-2.3-18.6-7a47.2 47.2 0 0 1-13.5-22.8 138 138 0 0 1-6.6-41.5c0-9.7 1.3-20 3.8-31a65.3 65.3 0 0 1 8.2-20.3l5.6 1.3a113.2 113.2 0 0 0-10.4 47.6l.4 7.4a239.7 239.7 0 0 0 3.7 28.3c0 1.9.9 2.9 2.4 2.9h.6c1.3-.3 2-1.2 2-2.8s0-2.5-.2-2.9a143.4 143.4 0 0 1-2.5-14.3l6.6-.7c1.3 9 3.8 18 7.5 26.8 3 6.5 6.8 9.7 11.4 9.7 3 0 5.4-1.7 7-5.2.7-2.6 1.3-5.3 1.6-8.1a15 15 0 0 1 3-7.6 8.5 8.5 0 0 1 7.1-3.4 11 11 0 0 1 6.6 2.8Zm-40.4 20c0-.8-.3-1.6-1-2.2-.6-.5-1.4-.9-2.3-1-1 0-1.9.3-2.5 1s-1 1.4-1 2.5c.3 2.1 1.5 3.3 3.7 3.4 2 0 3-1.2 3-3.7Zm-4-8.3c0-.9-.4-1.6-1-2.3-.5-.6-1.3-1-2.2-1-1 0-1.8.4-2.4 1s-.9 1.3-.9 2.2.3 1.6.9 2.3c.6.6 1.3 1 2 1h.4c1.8-.2 2.9-1.2 3.1-3.2Zm34.9 88.5a28.3 28.3 0 0 1-11 20 10 10 0 0 1-6 1.9 15 15 0 0 1-8-2.4c-2.5-1.7-3.8-3.2-3.8-4.8a58 58 0 0 1 7-21c3-5 6.6-7.6 11-7.6 2.4 0 4.8 1 7.2 3.2 2.4 2.1 3.6 5.7 3.6 10.7Zm-3.3-.4c0-2.7-.5-4.6-1.5-5.8s-2.5-1.8-4.3-1.9c-1.5 0-3 1-4.6 3-4 5.4-6.6 11.5-7.7 18.4.9 2.5 3 3.7 6.2 3.7 1.2 0 2.3-.3 3-1 5.5-4.3 8.4-9.8 9-16.4Z"/>
  <path fill="none" stroke="#eed6a5" stroke-linecap="round" stroke-linejoin="round" stroke-width="16" d="M721.9 118.4a28.4 28.4 0 0 1-11 20 10.7 10.7 0 0 1-6 1.9c-2.7 0-5.4-.9-8-2.5-2.5-1.6-3.8-3.1-3.8-4.7a57.3 57.3 0 0 1 7-21c3-5 6.6-7.6 11-7.6 2.4 0 4.8 1 7.2 3.2 2.4 2.1 3.6 5.7 3.6 10.7Zm-3.3-.4c0-2.7-.5-4.6-1.6-5.8a6 6 0 0 0-4.2-2c-1.5 0-3.1 1.1-4.6 3.2-4 5.2-6.6 11.4-7.8 18.3 1 2.5 3 3.7 6.2 3.7 1.3 0 2.3-.3 3.1-1a23 23 0 0 0 9-16.4Zm-19.3 250c.6.6 1 1.4 1 2.3-.2 2.4-1.2 3.7-3.2 3.7-2.2-.2-3.4-1.3-3.7-3.5 0-1 .4-1.9 1-2.5.6-.7 1.5-1 2.5-1 1 .1 1.7.5 2.4 1Zm-.3-97.9a4 4 0 0 1-.5 2.1 100.2 100.2 0 0 0-9.9 45 147.1 147.1 0 0 0 3.7 33.2c.1.3.2 1.3.2 2.9s-.6 2.4-2 2.6h-.5c-1.6 0-2.4-.9-2.5-2.8a228.4 228.4 0 0 1-3.7-28.3l-.4-7.3a113.7 113.7 0 0 1 10.4-47.6c.8-1.3 1.7-2 2.8-2 .6 0 1.2.3 1.7.7.5.5.8 1 .8 1.5Zm-3.7 89.5c.6.7.9 1.5.9 2.4-.3 1.9-1.3 3-3.1 3h-.4c-.8 0-1.5-.3-2-1s-1-1.3-1-2.2.4-1.7 1-2.3c.5-.5 1.3-.8 2.4-.8a3 3 0 0 1 2.2 1Zm-.7-157.6c.7.6 1 1.4 1 2.3-.1 2.4-1.2 3.6-3.1 3.6-2.2 0-3.4-1.3-3.7-3.4 0-1 .3-2 1-2.6s1.5-1 2.5-1a4 4 0 0 1 2.3 1.1Zm-.2-97.9a5 5 0 0 1-.5 2.1 100.2 100.2 0 0 0-10 45 146.5 146.5 0 0 0 3.8 33.1c0 .4.2 1.4.2 3s-.7 2.4-2 2.6h-.6c-1.5 0-2.4-1-2.5-2.9a246 246 0 0 1-3.6-28.2l-.5-7.3a113.2 113.2 0 0 1 10.4-47.7c.8-1.2 1.7-1.9 2.8-1.9.7 0 1.2.3 1.8.7.4.5.7 1 .7 1.5Zm-3.7 89.5c.5.7.8 1.4.8 2.3-.2 2-1.3 3-3 3.1h-.5c-.7 0-1.4-.3-2-1-.6-.6-.9-1.3-.9-2.2s.3-1.7 1-2.3 1.3-.8 2.3-.8c1 0 1.7.3 2.3 1Zm-23 6.2c0 1.4-.5 3.7-1.5 6.8-1.8 6.3-4.1 12.8-7 19.5s-6.4 12.5-10.8 17.2c-4.4 4.8-10 7.2-17 7.2s-13.7-3.2-19.3-9.7a60 60 0 0 1-9.3-21.3 127.7 127.7 0 0 1-4.7-39.8v-8.5c0-13.8.5-27.5 1.4-41.2l.4-6c.2-7.8.8-15.7 1.7-23.4v-.6c0-.8-.4-1.1-1.2-1.1l-11.4 1c-4.7-.2-7.1-1.9-7.1-5.1s2.2-4.8 6.6-5l13.3-.8c.9-.3 1.4-.8 1.5-1.6A95 95 0 0 1 605 79a14.3 14.3 0 0 1 14.3-11.8c4.6.4 8.3 2 11 4.5s3.9 6.2 3.9 10.8l-.2 4.3c0 1 .3 1.7 1 1.9.6.3 1.9.4 3.8.4 4.5 0 8.8 0 13 .2 3 0 4.8 1.7 5.2 5.2a4 4 0 0 1-2 3.6 8 8 0 0 1-4.4 1.2l-17-.4c-2.2 0-3.6 10-4.3 30.2-.9 14.3-1.3 28.6-1.3 43l.2 15.6c.1 8.4 1.4 17 3.8 25.9l6.6-17.2c3.2-7.2 8-10.8 14.1-10.8 4.4.3 8 1.8 10.9 4.2 2.8 2.5 4.2 5.8 4.2 10Zm-7.5 3.1a10.6 10.6 0 0 0-2.2-10.5 9 9 0 0 0-7-3.2c-5.1.5-8.5 3.7-10.1 9.6-2.5 7.4-5.3 14.7-8.3 21.9l-1.6 2.8c-.4.6-.8.8-1.3.8a2 2 0 0 1-1.5-1l-.8-1.8c-.2-.5-.3-1-.5-1.2a114.6 114.6 0 0 1-6-34.2l-.1-14.3c0-24.8 1.2-48.7 3.6-72 0-.9-.5-1.3-1.5-1.3l-16.5.2c-1 0-1.5.6-1.5 2l-1 10.6a1171 1171 0 0 0-2 32.3v.1a705 705 0 0 0-.5 31.4 165 165 0 0 0 5 44c1.4 7 4.2 13.3 8.3 18.8 4.3 4.6 9 7 14.3 7s9.7-1.8 13.2-5.3c3.5-3.6 6.4-8 8.9-13.3a261 261 0 0 0 9-23.4ZM626.3 87.4c.5-.8.6-2.3.6-4.8 0-6.5-3.1-10.1-9.4-10.8-4.4 0-7.5 2.5-9.3 7.4l-1.7 8.5c0 .6.5 1 1.1 1h8.5v-.3h7c1.8 0 2.9-.3 3.3-1Z"/>
  <path fill="none" stroke="#eed6a5" stroke-linecap="round" stroke-linejoin="round" stroke-width="16" d="M660.8 199.4c0 1.2-.2 2.3-.6 3.5-3.2 9.3-6.3 17-9.1 23.4a46.5 46.5 0 0 1-8.9 13.3c-3.5 3.5-7.9 5.3-13.2 5.3s-10-2.4-14.3-7a46.5 46.5 0 0 1-8.3-18.7c-3.3-11.8-5-26.5-5-44.1 0-12.1.2-22.6.6-31.4l6 .3-.2 10.2a333.4 333.4 0 0 0 2.5 45.6c.3 1.6 1.2 2.3 2.7 2.3l.9 3.6c-1.5.2-2.3 1.1-2.4 2.8 0 2.2 1.2 3.3 3.7 3.3l.5 2.7c-1.2.4-1.8 1.5-2 3.1a3 3 0 0 0 1 2.3 4 4 0 0 0 2.4 1.2c.9 0 1.7-.4 2.4-1.1s1-1.4 1-2.2c0-.8 0-1.5-.4-2l5-1.5a98.2 98.2 0 0 0 3.1 9c.3.6.8 1 1.5 1 .5 0 1-.2 1.3-.8.4-.6 1-1.5 1.6-2.8 3-7.2 5.8-14.5 8.3-21.9 1.7-5.9 5-9.1 10-9.6a9 9 0 0 1 7 3.2c2 2 2.9 4.5 2.9 7ZM659 344l-.2 13.7a259 259 0 0 1-4.6 47.4 51.1 51.1 0 0 1-8.5 20.7c-6.8 9-16 13.5-27.5 13.5-5.8 0-11.5-1-17.2-3.2s-10.5-5.4-14.5-10a15.7 15.7 0 0 1-4-16.6l3 1c-.3 1-.5 2-.5 3 0 3 1.2 5.8 3.4 8.6a36 36 0 0 0 27.9 11.6h1a28.4 28.4 0 0 0 26.3-18.2c5.6-14.3 8.5-37.2 8.5-68.6a537 537 0 0 0-2-47.6l-1.5-24.3c-.6-5.7-3.9-8.8-9.7-9.1-6.3 0-9.4 3.9-9.4 11.8 0 2.7 0 5.5.2 8.3l-3.1.2-.5-4.8-.1-3.2c0-6 1.8-10.6 5.4-13.7 2.7-2.3 5.9-3.5 9.5-3.5 3.7.2 7 1.4 9.6 3.7a14 14 0 0 1 4.9 9c.4 3.3.6 6.5.6 9.8l.1 3.3a563 563 0 0 1 3 57.2Z"/>
  <path fill="none" stroke="#eed6a5" stroke-linecap="round" stroke-linejoin="round" stroke-width="16" d="M650.2 299.3c1.2 14.2 1.9 30 1.9 47.6 0 31.4-2.9 54.3-8.5 68.6a28.4 28.4 0 0 1-26.3 18.2h-1a35.6 35.6 0 0 1-27.9-11.6 13.5 13.5 0 0 1-3.4-8.5 11.2 11.2 0 0 1 3.5-7.9 11 11 0 0 1 8-3.5 9.3 9.3 0 0 1 9.4 7.9 4.2 4.2 0 0 0 3 3c1.6.6 4 1 7.4 1.2 3.6 0 6.4-1.4 8.3-4.2 5.3-8.1 8-30.8 8-68a505.7 505.7 0 0 0-3-56.1l-.1-8.4c0-7.9 3.1-11.8 9.4-11.8 5.8.4 9 3.4 9.7 9.1.4 8.1 1 16.2 1.6 24.4Zm-6.2 45.3.2-7.4c-.2-18.2-1-35-2.7-50.3-.3-1.4-1-2.1-2.4-2.1-1.6 0-2.5.8-2.5 2.3.3 5 .6 9.5 1 13.5.5 5 .8 10.6 1 16.9l.1 22c0 16.5-.7 31.7-2 45.5l-.3 3.5c0 1.4.9 2.2 2.5 2.5.8 0 1.4-.4 1.9-1 .4-.6.7-1.4.7-2.3a390 390 0 0 0 2.5-43.1Zm-4.5 54.5c0-1.2-.2-2-.8-2.5s-1.4-.8-2.7-.8c-.8 0-1.4.3-2 .9a3 3 0 0 0-.9 2.2 3 3 0 0 0 1 2.2 3 3 0 0 0 2.3 1c2-.3 3-1.4 3-3Zm-1.7 8.7c-.2-2.2-1.2-3.3-3.3-3.3-1 0-1.8.3-2.3 1-.5.6-.8 1.3-.8 2 0 2 1 3.1 3 3.4 2 0 3.1-1 3.4-3.1Z"/>
  <path fill="none" stroke="#eed6a5" stroke-linecap="round" stroke-linejoin="round" stroke-width="16" d="m644.2 337.2-.2 7.3c0 13.7-.9 28-2.5 43.2 0 .9-.3 1.7-.7 2.3-.5.6-1 1-1.9 1-1.6-.3-2.5-1.2-2.5-2.6l.2-3.5a450 450 0 0 0 2.1-45.4l-.2-22c-.1-6.3-.4-12-1-16.9l-.9-13.5c0-1.6.9-2.3 2.5-2.3 1.3 0 2 .7 2.4 2.1 1.6 15.4 2.5 32.1 2.7 50.3Zm-5.5 59.4c.6.5.8 1.3.8 2.5 0 1.6-1 2.7-3 3a3 3 0 0 1-2.4-1c-.6-.7-1-1.4-1-2.2 0-1 .3-1.6 1-2.2.5-.6 1.2-.9 2-.9 1.2 0 2.1.3 2.6.8Zm-4.2 7.9c2 0 3.1 1 3.3 3.3-.3 2-1.4 3-3.3 3-2-.2-3.1-1.3-3.1-3.2 0-.8.3-1.5.8-2.1.5-.7 1.3-1 2.3-1ZM630.8 299c1.2 13.7 1.8 28 1.8 43 0 37.3-2.7 60-8 68.1a9.5 9.5 0 0 1-8.3 4.3 39 39 0 0 1-7.4-1.2 4.2 4.2 0 0 1-3-3c-.5-2.5-1.7-4.5-3.4-5.9s-3.7-2.1-6-2.1c-2.9 0-5.5 1.2-8 3.6-1.4 1.4-2.5 3-3 4.7l-3-1 .2-.2c2.4-7.4 7.8-11.4 16.2-12 5.7 0 10 3 13.2 9.1.5 1.5 1.2 2.4 2.2 2.7 1 .4 2 .6 3.4.6 3 0 5-1.7 6.2-5.2 1.1-3.5 1.9-7 2.3-10.6a314.4 314.4 0 0 0 2.3-67.5l-4 13c-2.3 6.4-4.9 12.7-8 18.8s-6.7 11.2-11 15.2c-4.1 4-8.8 6-14.1 6-4.6 0-9-2.1-13.2-6.3s-7-8.6-8.3-13.3c-1.3-4.6-1.9-10-1.9-16a100 100 0 0 1 10-42.8 49.7 49.7 0 0 1 12.1-16 25 25 0 0 1 26-4.4 38 38 0 0 1 10.1 8l.4-2.4 3.1-.2c.2 4.3.6 8.6 1.1 13Zm-8.3 12.5c.4-.8.6-1.5.6-2.3s-.4-1.5-1-2.2c-.8-.8-1.1-1.9-1.1-3.4a14.3 14.3 0 0 0-14.2-14.9c-4 0-7.6 1.4-11 4.3s-6 6.4-8 10.6a96.3 96.3 0 0 0-10 39.6 41 41 0 0 0 3.7 18.4c3 5.1 6.2 7.7 9.7 7.7 4 0 7.8-2.5 11.5-7.6s6.8-10.9 9.4-17.3a361 361 0 0 0 8.9-27.7l1.5-5.2ZM627 82.6c0 2.5-.2 4-.6 4.8-.4.7-1.5 1-3.3 1h-7v.2h-8.5c-.6 0-1-.3-1.1-1l1.7-8.4c1.8-5 4.9-7.4 9.3-7.4 6.3.7 9.4 4.3 9.4 10.8Zm-2 131.7-5 1.5c-.5-1-1.5-1.4-3-1.5a3 3 0 0 0-1.3.2l-.5-2.7c.7 0 1.4-.3 1.9-1 .5-.6.8-1.3.8-2 0-2.2-1.1-3.2-3.3-3.2h-.7l-.9-3.5c1.6-.2 2.3-1.2 2.3-2.9a392.7 392.7 0 0 1-2.5-40c0-8.6.4-16.8 1-24.5l2.7-23.4v-.8c0-1.8-.9-2.7-2.7-2.7-1.4 0-2.2.9-2.3 2.7-1.8 11.9-3 23-3.5 33.5l-6-.3v0c.4-8.9 1-19.7 2-32.5l1-10.6c0-1.3.4-2 1.5-2l16.4-.1c1 0 1.5.4 1.5 1.3a685.6 685.6 0 0 0-3.6 72l.2 14.3c0 9.6 1.4 19 4 28.2Z"/>
  <path fill="none" stroke="#eed6a5" stroke-linecap="round" stroke-linejoin="round" stroke-width="16" d="M620 215.8c.4.5.6 1.1.6 2 0 .8-.4 1.5-1.1 2.2s-1.5 1-2.4 1a4 4 0 0 1-2.3-1.1 3 3 0 0 1-1-2.3c.1-1.6.7-2.7 1.9-3.1l1.4-.2c1.4 0 2.4.6 3 1.4Zm-2.1-7.1c0 .8-.3 1.5-.8 2.1-.5.7-1.2 1-2 1-2.4 0-3.6-1.1-3.6-3.3 0-1.7.9-2.7 2.4-2.9h.7c2.2 0 3.3 1 3.3 3Zm-1.4-98.2v.8c-1 7.8-1.9 15.6-2.6 23.4-.7 7.7-1 15.9-1 24.5 0 10.8.8 24.2 2.4 40 0 1.7-.7 2.7-2.3 3-1.5 0-2.4-.8-2.7-2.4A333.4 333.4 0 0 1 608 144c.5-10.5 1.7-21.6 3.5-33.5.1-1.8.9-2.7 2.3-2.7 1.8 0 2.7.9 2.7 2.7Zm-36.9-1.8c.4 1.6.7 4.7 1 9.5A52.4 52.4 0 0 1 557 160a32 32 0 0 1-23 4.8l-2.5-.2c-.5 0-.8.3-.8.8a91.8 91.8 0 0 0 7.2 29.2c.8 1.6 1.8 3.2 3 4.5 1.2 1.4 2.4 2 3.4 2 1.1 0 2-.8 2.4-2.4.5-1.7.9-3.7 1.3-5.8l3.2.4a43 43 0 0 1-1.5 7.3c-1.5 3.4-3.9 5.2-7 5.2-4.6 0-8.4-3.2-11.4-9.7a105.3 105.3 0 0 1-8.3-39.2h.6c.8 0 1.3 0 1.6.3l1 .4a28.8 28.8 0 0 0 28.8-4.4 47.2 47.2 0 0 0 18.3-35.6 41 41 0 0 0-1.3-10.3 29.5 29.5 0 0 0-50.5-12.5 62.8 62.8 0 0 0-14 28c-2.5 11-3.8 21.3-3.8 31a137.3 137.3 0 0 0 9.4 49.5l-3 1.3c-3.3-7.4-5.7-15.4-7.3-24a147.3 147.3 0 0 1-.2-51.2c1.5-8.3 3.9-16 7-23A55.4 55.4 0 0 1 523.4 88c6-5.2 13.1-7.7 21.7-7.7a35 35 0 0 1 34.4 28.4Z"/>
  <path fill="none" stroke="#eed6a5" stroke-linecap="round" stroke-linejoin="round" stroke-width="16" d="M573.7 180.7a13 13 0 0 1 4.3 9.8c-.4 17.2-6 29-17 35.6a30.8 30.8 0 0 1-16.6 4.8 30 30 0 0 1-20.2-7.1 52.9 52.9 0 0 1-13.7-18.5l-.3-.7 3-1.3a47.7 47.7 0 0 0 10.7 14.9c5.9 4.6 12 7 18.5 7A27.1 27.1 0 0 0 565 213a43.6 43.6 0 0 0 5.8-22.3c0-2.7-.9-4.8-2.7-6.5-1.8-1.6-4-2.5-6.5-2.8-3 0-5.3 1.2-7 3.4s-2.9 4.8-3.2 7.7v.8l-3.4-.4c.1-1.6.4-3 .8-4.5 1-3.9 3-6.8 5.7-8.9 2.8-2 6-3 9.4-3s6.9 1.3 9.8 4.2Zm-1.7-73.3a40.9 40.9 0 0 1-3.6 29.8 48.3 48.3 0 0 1-13.3 16 29 29 0 0 1-29 4.5l-.8-.5c-.3-.2-.9-.3-1.6-.3h-.6c0 4.1.3 8.3.9 12.4l-6.7.8c-.8-6.2-1.2-12.5-1.2-18.8a100 100 0 0 1 9.9-45c.4-.8.6-1.6.6-2.2 0-.5-.3-1-.8-1.4-.5-.5-1.1-.7-1.7-.7-1 0-2 .6-2.8 1.9l-5.5-1.4a62 62 0 0 1 5.7-7.7 29.6 29.6 0 0 1 50.5 12.6Zm-29 31a28.4 28.4 0 0 0 11-20c0-5-1.2-8.6-3.6-10.7a11 11 0 0 0-7.2-3.2c-4.4 0-8 2.5-11 7.6a57.9 57.9 0 0 0-7 21c0 1.6 1.3 3.1 3.9 4.7a15 15 0 0 0 8 2.4c2.1 0 4.1-.6 6-1.9Z"/>
  <path fill="none" stroke="#eed6a5" stroke-linecap="round" stroke-linejoin="round" stroke-width="16" d="M568.2 184.2a8.3 8.3 0 0 1 2.7 6.5c0 8.1-2 15.6-5.8 22.3a27 27 0 0 1-22.6 12.1c-6.5 0-12.7-2.3-18.6-7a47.6 47.6 0 0 1-13.5-22.8 136.7 136.7 0 0 1-6.6-41.5c0-9.7 1.3-20 3.8-31a66 66 0 0 1 8.2-20.3l5.5 1.3a113.6 113.6 0 0 0-10.4 47.6l.4 7.4 1.2 12.9c.4 3.4 1.2 8.5 2.5 15.4.1 1.9 1 2.9 2.5 2.9h.6c1.3-.3 2-1.2 2-2.8a12.5 12.5 0 0 0-.4-4c-1-4.4-1.8-8.7-2.3-13.1l6.6-.8c1.2 9 3.7 18 7.4 26.8 3 6.5 6.8 9.7 11.4 9.7 3.1 0 5.5-1.7 7-5.2a41 41 0 0 0 1.5-7.3l.1-.8c.4-2.8 1.4-5.4 3.1-7.6s4.1-3.4 7-3.4a11 11 0 0 1 6.7 2.8Zm-40.4 20c0-.8-.4-1.6-1-2.2s-1.4-.9-2.3-1c-1 0-2 .3-2.5 1-.7.6-1 1.4-1 2.5.2 2.1 1.5 3.3 3.7 3.4 1.9 0 3-1.2 3-3.7Zm-4.1-8.3c0-.9-.3-1.6-.9-2.3a3.1 3.1 0 0 0-4.6 0c-.5.6-1 1.3-1 2.2s.4 1.6 1 2.3c.5.6 1.2 1 2 1h.4c1.8-.2 2.8-1.2 3-3.2Zm38.7 182.5a54 54 0 0 1 1.5 8c0 5-1.3 9-4 11.6a16.7 16.7 0 0 1-10.7 4.5 15 15 0 0 1-14.1-10.6 239 239 0 0 1-4.8-21.6c-.2-1.8-1.1-2.7-3-2.7l-5 .2c-3.6.2-7.6.4-12 .4H505c-.9 0-1.5 0-1.9.3-.4.3-.6.9-.8 1.8-.5 4.4-1.1 8.7-2 13.1l-.9 6.6c0 1.7-.5 3.3-1.4 4.7-1 1.5-2.2 2.3-3.8 2.3-3.3-.2-5-2-5-5.5v-.8a401 401 0 0 0 3.3-22.5 4 4 0 0 0-1-2.5c-.6-.8-1-1.8-1-2.8a4 4 0 0 1 1.8-3.4c1.1-.8 1.8-2 1.9-3.5 4-31.7 8.5-63.3 13.5-94.6a36 36 0 0 1 5.8-15.5c3.1-4.6 7.2-7 12.2-7a15 15 0 0 1 9.7 3.5 14 14 0 0 1 5.2 9.2l3.5 19.7c2.4 12.9 4.5 25.8 6.4 38.7 2.7 21.3 6.3 42.7 10.8 64l1.1 4.4Zm-5.6 8.3c0-1-.2-2.1-.4-3.3a752 752 0 0 1-12.4-68.8 1553 1553 0 0 0-10.6-63c-1.7-5.2-4.8-7.8-9.3-7.8-3.2 0-5.6 1.2-7 3.5-1.6 2.3-2.3 5-2.3 8v2.6c0 2 .3 4 .8 6 4 18.6 7.2 37.8 9.6 57.6 1.5 9.8 4 24 7.4 42.7l1.3 7c1 6.2 2.4 12.3 4.1 18.4 2.2 4.8 5.3 7.2 9.3 7.2 2.5 0 4.7-1 6.6-2.8s2.9-4.2 2.9-7.3Zm-31.2-29c1.3 0 2-.5 2-1.4a599 599 0 0 1-6.2-37.9l-3.1-21v-.4c-.7-5.8-1.8-11.6-3.5-17.4l-3.3 23-7.3 54.5c0 .7.5 1 1.7 1 6.7 0 13.3-.2 19.7-.4Z"/>
  <path fill="none" stroke="#eed6a5" stroke-linecap="round" stroke-linejoin="round" stroke-width="16" d="M556.4 383.4c.2 1.2.4 2.3.4 3.3a9.6 9.6 0 0 1-9.5 10c-4 0-7.1-2.3-9.3-7-1.7-6.1-3-12.3-4-18.5l-1.4-7 4.7-.8a4 4 0 0 0 1.2 2.1 4 4 0 0 0 3 1.3c1 0 2-.4 2.7-1s1.2-1.7 1.2-2.9l-.1-.7 6.3-1.3c1.5 7.6 3 15.1 4.8 22.5Zm-10.9-8.7c.7-.6 1-1.4 1-2.3-.1-2.7-1.3-4-3.7-4-2.3.3-3.4 1.6-3.4 3.8 0 1 .5 1.7 1.1 2.4.7.7 1.5 1 2.5 1s1.9-.2 2.5-.9Z"/>
  <path fill="none" stroke="#eed6a5" stroke-linecap="round" stroke-linejoin="round" stroke-width="16" d="m551.6 361-6.3 1.2a4 4 0 0 0-1.1-2c-.8-1-1.7-1.3-3-1.3s-2 .3-2.8 1-1.2 1.6-1.2 2.6l.1.9-4.7.8c-3.4-18.7-5.9-32.9-7.4-42.6a664 664 0 0 0-9.6-57.7c-.5-2-.8-4-.8-6v-2.7c0-3 .7-5.6 2.2-7.9a7.9 7.9 0 0 1 7-3.5c4.6 0 7.7 2.6 9.4 7.8a1665 1665 0 0 1 10.6 63c2.1 15.7 4.7 31.2 7.6 46.3Zm-10-11.2-.1-1.6a2446 2446 0 0 1-11.6-73.8c-.6-3.5-1.2-7-2-10.5-.4-1.7-1.1-2.5-2.3-2.5-1.2.1-1.9.5-2.2 1-.3.6-.5 1.4-.5 2.3l5.8 37.3c1.7 11 4.3 27 8 48.3.3 1.7 1.2 2.6 2.7 2.6 1.5 0 2.3-1 2.3-3.1ZM554 118.4a28.4 28.4 0 0 1-11 20 10.7 10.7 0 0 1-6 1.9 15 15 0 0 1-7.9-2.5c-2.6-1.6-3.9-3.1-3.9-4.7a57.9 57.9 0 0 1 7-21c3-5 6.6-7.6 11-7.6 2.5 0 4.9 1 7.3 3.2 2.4 2.1 3.6 5.7 3.6 10.7Zm-3.2-.4c0-2.7-.6-4.6-1.6-5.8a6 6 0 0 0-4.2-2c-1.6 0-3.1 1.1-4.7 3.2a40 40 0 0 0-7.7 18.3c.9 2.5 3 3.7 6.2 3.7 1.3 0 2.3-.3 3-1 5.5-4.3 8.4-9.8 9-16.4Zm-4.3 254.4c0 .9-.3 1.7-1 2.3-.6.6-1.4 1-2.5 1s-1.8-.4-2.5-1a5 5 0 0 1-1.1-2.5c0-2.2 1.1-3.5 3.4-3.9 2.4 0 3.6 1.4 3.7 4.1Z"/>
  <path fill="none" stroke="#eed6a5" stroke-linecap="round" stroke-linejoin="round" stroke-width="16" d="M545.3 362.2v.7c0 1.2-.3 2.1-1.1 2.8s-1.7 1-2.7 1a4 4 0 0 1-3-1.2 4 4 0 0 1-1.3-3c0-1 .4-1.9 1.2-2.6s1.7-1 2.9-1 2 .4 2.9 1.2c.5.6 1 1.3 1 2Zm-3.8-14 .2 1.6c0 2-.8 3-2.3 3-1.5 0-2.4-.8-2.7-2.4-3.7-21.3-6.3-37.4-8-48.4l-5.8-37.3c0-.9.2-1.6.5-2.2.3-.6 1-1 2.2-1 1.2 0 2 .8 2.3 2.4.8 3.5 1.5 7 2 10.5 3.5 24.6 7.3 49.2 11.6 73.9ZM526.8 202c.6.6 1 1.4 1 2.3-.2 2.4-1.2 3.6-3.1 3.6-2.3 0-3.5-1.3-3.7-3.4 0-1 .3-2 1-2.6.6-.6 1.4-1 2.4-1a6 6 0 0 1 2.4 1.1Zm-.2-97.9c0 .6-.2 1.4-.6 2.1a100 100 0 0 0-9.8 45 146.5 146.5 0 0 0 3.6 33.1c.2.4.2 1.4.2 3s-.6 2.4-2 2.6h-.5c-1.5 0-2.4-1-2.5-2.9a233.7 233.7 0 0 1-3.7-28.2l-.4-7.3a113.6 113.6 0 0 1 10.4-47.7c.8-1.2 1.7-1.9 2.8-1.9.6 0 1.2.3 1.7.7.5.5.8 1 .8 1.5Zm-3.8 89.5c.6.7.9 1.4.9 2.3-.3 2-1.3 3-3 3.1h-.5c-.8 0-1.4-.3-2-1-.6-.6-.9-1.3-.9-2.2s.3-1.7.9-2.3 1.4-.8 2.4-.8 1.6.3 2.2 1Zm-32.6-51.8c0 27.2-9.3 51.3-28 72.3-12.4 14-19.8 20.9-22.2 20.9-.5 0-1 0-1.4-.2l-1.1-.4c-.6 0-1 .1-1.4.4a17 17 0 0 1-8.9 2.7c-3.2 0-6.2-1-8.9-3-4.9-4-8.2-18-9.8-42-.6-10.7-.8-21-.8-30.8l-.2-8c0-24.8 1-47.7 3-68.5.6-4.8 2.2-8.6 5-11.5 2.8-2.8 6.2-4.2 10.2-4.2 1.8 0 3.4.2 4.9.7a14.9 14.9 0 0 0 8.6 0c.9 0 2 .4 3.3 1l.7.4c31.4 12.3 47 35.7 47 70.2Zm-10 .2c0-14.3-2.9-26.4-8.6-36.3a58.8 58.8 0 0 0-28.3-23.5c-.2 0-.4-.3-.6-.5l-1.4-.2-.8.1a754.9 754.9 0 0 0-3.4 72.4c0 22.1 1.6 44.4 4.8 66.9.9-.7 4.5-4.3 10.6-10.8a95 95 0 0 0 27.7-68Zm-45 80-.4-2.8a296.7 296.7 0 0 1-4.1-35.8c-.3-11.3-.4-22.5-.4-33.7 0-21.8 1-43.5 3-65.2v-1.1c0-2.6-.9-4.8-2.8-6.6a9.4 9.4 0 0 0-6.6-2.7c-3.5 0-6 1.4-7.6 4.2a26.1 26.1 0 0 0-3.1 10.4 166 166 0 0 0-.9 13l-.2 5.1a519 519 0 0 0-1.2 35.6v27.3a282.4 282.4 0 0 0 5 53.8c1.8 5.8 5 8.8 9.8 8.8l2-.2c5-1.7 7.4-5 7.4-10Z"/>
  <path fill="none" stroke="#eed6a5" stroke-linecap="round" stroke-linejoin="round" stroke-width="16" d="m434.8 219.2.3 2.9c0 5-2.4 8.3-7.3 10l-2.1.2c-4.8 0-8-3-9.7-9a286.3 286.3 0 0 1-4.5-35.6l5.7-.3c0 1 .5 2 1.3 2.8.8.9 1.7 1.3 3 1.3h0l.2 3.1c-.8.2-1.5.6-2.1 1.1-.9.8-1.3 1.8-1.3 3s.4 2 1.3 3c.8.8 1.8 1.2 3 1.2s2-.4 2.9-1.2a4 4 0 0 0 1.1-2.9l5.3-.5c.7 7 1.6 13.9 2.9 20.9Z"/>
  <path fill="none" stroke="#eed6a5" stroke-linecap="round" stroke-linejoin="round" stroke-width="16" d="M433.4 83.4v1.1a692 692 0 0 0-3.1 65.2c0 11.2.1 22.5.4 33.7.3 5 .6 10 1.2 14.9l-5.3.5c0-2.8-1.5-4.2-4-4.2h-.9l-.2-3.1c1.2 0 2.2-.4 3-1.3.6-.8 1-1.7 1-2.8 0-1.1-.4-2.1-1.2-3a3.6 3.6 0 0 0-2.7-1.2c-1.3 0-2.4.4-3.2 1.1a4 4 0 0 0-1.2 3.1l-5.7.3c-.4-6-.5-12-.5-18v-27.3c0-12.4.4-24.2 1.1-35.6l.2-5c.1-4.6.4-9 .9-13a26 26 0 0 1 3-10.5 8.3 8.3 0 0 1 7.7-4.2c2.5 0 4.7 1 6.6 2.7 2 1.8 2.9 4 2.9 6.6Zm-8.5 24.6c.5-3 .8-6 1-9.1 0-2-1-3-3-3.1-1.1 0-1.8.3-2.2 1a16 16 0 0 0-.8 3l-.2 1.6a433.4 433.4 0 0 0-1.8 74c0 2.4 1 3.5 3.1 3.5 1.7-.4 2.5-1.4 2.5-3l-.2-9c-.2-6.4-.4-12.6-.4-18.5 0-13.6.7-27 2-40.5Z"/>
  <path fill="none" stroke="#eed6a5" stroke-linecap="round" stroke-linejoin="round" stroke-width="16" d="M426.6 198.8a4 4 0 0 1-4 4.1 4.2 4.2 0 0 1-4.3-4.3c0-1.1.4-2 1.3-2.8a4.4 4.4 0 0 1 3-1.2c2.5 0 3.9 1.4 4 4.2Zm-.7-99.9a425.3 425.3 0 0 0-2.5 68l.1 9c0 1.6-.8 2.6-2.5 3-2 0-3-1.1-3-3.4a431 431 0 0 1 1.7-74.1l.2-1.6c.2-1.2.5-2.2.8-3 .4-.7 1-1 2.3-1 1.9.1 2.9 1.1 2.9 3Zm-.4 88.5c0 1-.4 2-1 2.8-.8.9-1.8 1.3-3 1.3h0c-1.3 0-2.2-.4-3-1.3a5 5 0 0 1-1.3-2.8 4 4 0 0 1 1.2-3c.8-.8 2-1.2 3.2-1.2 1 0 2 .4 2.7 1.2.8.9 1.2 1.9 1.2 3Z"/>
  <path d="M1127.6 108.7c.3 1.6.7 4.7 1 9.5A52.4 52.4 0 0 1 1105 160a32 32 0 0 1-23 4.8l-2.5-.2c-.5 0-.8.3-.8.8a92 92 0 0 0 7.2 29.2c.8 1.6 1.8 3.2 3 4.5s2.3 2 3.4 2 2-.8 2.4-2.4l1.2-5.8 3.3.4a43 43 0 0 1-1.5 7.3c-1.6 3.4-3.9 5.2-7 5.2-4.6 0-8.4-3.2-11.4-9.7a105 105 0 0 1-8.3-39.2h.6c.7 0 1.3 0 1.6.3l.9.4a28.9 28.9 0 0 0 28.9-4.4 46.9 46.9 0 0 0 18.2-35.6 41 41 0 0 0-1.3-10.3 29.3 29.3 0 0 0-28.6-22.2 29 29 0 0 0-21.8 9.7 59.9 59.9 0 0 0-14 28c-2.6 11-3.8 21.3-3.8 31a137.3 137.3 0 0 0 9.4 49.5l-3 1.3c-3.3-7.4-5.7-15.4-7.3-24a147.3 147.3 0 0 1-.2-51.2c1.5-8.3 3.8-16 7-23a54 54 0 0 1 13.8-18.4c6-5.2 13.2-7.7 21.7-7.7a35 35 0 0 1 34.4 28.4Z"/>
  <path d="M1121.7 180.7a13 13 0 0 1 4.3 9.8c-.4 17.2-6 29-17 35.6a30.8 30.8 0 0 1-16.6 4.8 30 30 0 0 1-20.2-7.1 52.4 52.4 0 0 1-14-19.2l3-1.3a47.2 47.2 0 0 0 10.7 14.9c5.9 4.6 12 7 18.5 7a27 27 0 0 0 22.7-12.2 43.9 43.9 0 0 0 5.8-22.3c0-2.7-1-4.8-2.8-6.5-1.8-1.6-4-2.5-6.5-2.8-3 0-5.3 1.2-7.1 3.4s-2.8 4.8-3.1 7.7l-.1.8-3.3-.4c.2-1.6.4-3 .8-4.5 1-3.9 3-6.8 5.7-8.9 2.8-2 5.9-3 9.4-3s6.9 1.3 9.8 4.2Z"/>
  <path fill="#44bba4" d="M1120 107.4a40.9 40.9 0 0 1-3.7 29.8c-3.3 6.4-7.8 11.8-13.2 16s-11.4 6.4-17.9 6.4a33 33 0 0 1-11-2c-.3 0-.6-.2-1-.4-.2-.2-.8-.3-1.6-.3h-.5c0 4.1.3 8.3.9 12.4l-6.7.8c-.8-6.2-1.2-12.5-1.2-18.8a100 100 0 0 1 9.9-45 5 5 0 0 0 .5-2.2c0-.5-.2-1-.7-1.4-.5-.5-1.1-.7-1.8-.7-1 0-2 .6-2.7 1.9l-5.6-1.4c1.8-2.7 3.7-5.3 5.8-7.7a29.6 29.6 0 0 1 50.5 12.6Zm-29 31a28.4 28.4 0 0 0 11-20c0-5-1.2-8.6-3.5-10.7a11 11 0 0 0-7.3-3.2c-4.4 0-8 2.5-11 7.6a58 58 0 0 0-7 21c0 1.6 1.3 3.1 3.9 4.7a15 15 0 0 0 8 2.4c2.1 0 4.1-.6 6-1.9Z"/>
  <path fill="#44bba4" d="M1116.1 184.2a8.2 8.2 0 0 1 2.8 6.5c0 8.1-2 15.6-5.8 22.3a27.2 27.2 0 0 1-22.7 12.1c-6.4 0-12.6-2.3-18.5-7a47.2 47.2 0 0 1-13.5-22.8 136.7 136.7 0 0 1-6.6-41.5c0-9.7 1.2-20 3.8-31a66.3 66.3 0 0 1 8.2-20.3l5.5 1.3a113.6 113.6 0 0 0-10.4 47.6l.4 7.4 1.2 12.9c.4 3.4 1.2 8.5 2.5 15.4.1 1.9 1 2.9 2.5 2.9h.6c1.3-.3 2-1.2 2-2.8a12.5 12.5 0 0 0-.5-4c-1-4.4-1.7-8.7-2.2-13.1l6.6-.8c1.2 9 3.7 18 7.4 26.8 3 6.5 6.8 9.7 11.4 9.7 3.1 0 5.5-1.7 7-5.2a41 41 0 0 0 1.5-7.3l.1-.8c.4-2.8 1.4-5.4 3.1-7.6s4.1-3.4 7-3.4a11 11 0 0 1 6.7 2.8Zm-40.4 20c0-.8-.3-1.6-1-2.2s-1.4-.9-2.3-1c-1 0-1.8.3-2.5 1s-1 1.4-1 2.5c.3 2.1 1.5 3.3 3.7 3.4 2 0 3-1.2 3.1-3.7Zm-4-8.3c0-.9-.3-1.6-.9-2.3a3.1 3.1 0 0 0-4.6 0c-.5.6-1 1.3-1 2.2s.4 1.6 1 2.3c.5.6 1.2 1 2 1h.4c1.8-.2 2.8-1.2 3-3.2Z"/>
  <path d="M1102 118.4a28.4 28.4 0 0 1-11 20 10.7 10.7 0 0 1-6 1.9c-2.7 0-5.3-.9-8-2.5-2.5-1.6-3.8-3.1-3.8-4.7a58 58 0 0 1 7-21c3-5 6.6-7.6 11-7.6 2.5 0 4.9 1 7.3 3.2 2.3 2.1 3.5 5.7 3.5 10.7Zm-3.3-.4c0-2.7-.5-4.6-1.5-5.8a6 6 0 0 0-4.3-2c-1.5 0-3 1.1-4.6 3.2a40 40 0 0 0-7.7 18.3c.9 2.5 3 3.7 6.2 3.7 1.2 0 2.3-.3 3-1 5.5-4.3 8.4-9.8 9-16.4Zm-23.9 84c.6.6 1 1.4 1 2.3-.2 2.4-1.2 3.6-3.2 3.6-2.2 0-3.4-1.3-3.6-3.4 0-1 .3-2 1-2.6s1.4-1 2.4-1a6 6 0 0 1 2.4 1.1Zm-.2-97.9c0 .6-.2 1.4-.6 2.1a100 100 0 0 0-9.9 45 146.5 146.5 0 0 0 3.7 33.1c.1.4.2 1.4.2 3s-.6 2.4-2 2.6h-.5c-1.5 0-2.4-1-2.5-2.9a233.7 233.7 0 0 1-3.7-28.2l-.4-7.3a113.4 113.4 0 0 1 10.4-47.7c.8-1.2 1.7-1.9 2.8-1.9.6 0 1.2.3 1.7.7.5.5.8 1 .8 1.5Zm-3.8 89.5c.6.7.9 1.4.9 2.3-.3 2-1.3 3-3.1 3.1h-.4c-.8 0-1.5-.3-2-1-.6-.6-1-1.3-1-2.2s.4-1.7 1-2.3 1.3-.8 2.4-.8c.9 0 1.6.3 2.2 1Zm-27.4-87.8c0 1.3-.9 5.6-2.3 13-6.2 32.9-13.8 65.5-22.8 97.8a29 29 0 0 1-7 12.5c-3.2 3.4-7 5.1-11.4 5.1-5.2 0-9.6-2.5-13-7.7l-1.9-4.9-.5-1.3a347.3 347.3 0 0 1-13.3-45 216 216 0 0 1-4-61.2c.4-4.6 2-8.4 5-11.4a14.6 14.6 0 0 1 20.6-.4c3 2.7 4.4 6 4.4 10 0 2.2-.1 4.3-.5 6.7s-.4 4.7-.4 7.3c0 25 4.6 51 13.9 77.7l.2 1c0 .2.3.3 1 .6a1357 1357 0 0 0 22-99.2c.7-4.3 2.4-6.4 5-6.4 3.3.1 5 2.1 5 5.8Zm-36 112.8c0-1.3-.2-2.6-.7-3.9l-3.3-9.9a255.5 255.5 0 0 1-12.2-47c-1.1-9.2-1.8-20-2-32.4 0-3.4.1-6.2.5-8.3l.6-4.7c0-2.3-1-4.4-2.8-6.3s-4-2.8-6.5-2.8c-4.5.5-7.5 2.3-9 5.3-1.3 3-2 6.9-2 11.6 0 2 0 4 .4 6.1v14c.7 14.9 2.7 28.7 5.8 41.3a356 356 0 0 0 13 41c2.4 4.5 5.5 6.8 9.2 6.8a8 8 0 0 0 6.4-3.2c1.8-2.1 2.7-4.7 2.7-7.6Zm26 54.8-.2 25.7c-.1 27.7-.7 54-1.6 78.7-.3 9.7-1.5 19.3-3.4 29a37.5 37.5 0 0 1-15 24 44 44 0 0 1-26 8c-13 0-23.6-5.1-31.5-15.2-3.4-3.8-5-8.3-5-13.3.2-9.2 5-14.2 14.6-15.3 5.6 0 10 3 13.4 9 1 2 2.2 3.3 3.5 4s3.2 1 5.6 1c5.9 0 9.6-2.3 11-6.8l3 1c-.5 1.4-1.1 2.8-1.9 4.1a12 12 0 0 1-7.1 5.1c-2.2.7-4.4 1-6.4 1-7.2 0-11.9-2.6-14-7.7-2.1-4.3-5.1-6.4-8.8-6.4-6.1.5-9.3 4-9.7 10.4a16 16 0 0 0 4.8 10.7 33 33 0 0 0 26.3 12.3c3 0 6-.3 9.3-1 11.9-2.5 19.8-8.6 23.8-18.1s6.1-20.4 6.4-32.7a1580.3 1580.3 0 0 0 1.5-77.1v-4.9c0-3.7 0-6.8-.2-9.3.1-7 .3-10.8.4-11.4l.2-3.8c0-7.1-3.2-10.9-9.7-11.2-4.9 0-8 3-9.2 8.9a170 170 0 0 0-.8 28.8 455.4 455.4 0 0 1-.2 25.9h-.6l-2.7-.1.2-13.3-.2-20.5c0-6.5.2-13.2.6-19.9a16 16 0 0 1 4.6-10.3c2.7-2.7 6-4 9.9-4 4.4.1 8 1.5 10.8 4 2.8 2.7 4.3 6.2 4.3 10.7Z"/>
  <path fill="#3a7ca5" d="m1026.4 274.4-.2 3.8a153.6 153.6 0 0 0-.2 20.7V321h-5.2l-.4-32.3v-4.1c0-2-.9-3-2.7-3-.9 0-1.5.2-2 .9-.3.6-.5 2-.5 4.4 0 18 .1 30.8.4 38.5a410 410 0 0 1-2.5 42.3l-1 11.3-7-.6c.6-6.8.8-13.7.8-20.5v-31.2h.6a425 425 0 0 0 0-36.5c0-6 .3-12 1-18.1 1.3-6 4.4-9 9.3-9 6.4.4 9.6 4.2 9.6 11.3Z"/>
  <path fill="#3a7ca5" d="M1020.8 321h5.2c-.2 21.7-.7 41.7-1.5 59.9-.3 12.3-2.4 23.1-6.4 32.7s-12 15.6-23.8 18.1a47 47 0 0 1-9.3 1 32.9 32.9 0 0 1-26.2-12.3c-3.3-3.5-4.9-7-4.9-10.7.4-6.4 3.6-10 9.7-10.4 3.7 0 6.7 2 8.9 6.4 2 5.1 6.7 7.7 14 7.7 2 0 4-.3 6.3-1 3.3-1 5.7-2.7 7.1-5.1a24.2 24.2 0 0 0 3-8.2 286 286 0 0 0 2.3-20.7l7 .6-.7 7.3c0 2 .8 3 2.4 3.3 1.5 0 2.5-.9 2.9-2.7l1.5-20.1c1.7-15.5 2.5-30.7 2.5-45.8Zm-4.4 75.7c0-1-.4-1.8-1-2.5a3.4 3.4 0 0 0-2.5-1.1c-1.2 0-2.1.4-2.8 1.1s-1 1.9-1 3.1c0 1 .2 1.7.9 2.3s1.4 1.1 2.3 1.2c1 0 2-.4 2.7-1.2s1.3-1.7 1.4-2.9Zm-3.3 10.5c0-.9-.4-1.7-1-2.4a3.6 3.6 0 0 0-6.2 2.6 4 4 0 0 0 1.2 2.3c.6.6 1.5 1 2.5 1s1.7-.4 2.3-1 1-1.5 1.2-2.5Z"/>
  <path d="m1020.4 288.7.4 32.3c0 15-.8 30.3-2.5 45.8l-1.5 20.1c-.4 1.8-1.4 2.7-3 2.7-1.5-.3-2.3-1.4-2.3-3.3l.6-7.3 1-11.3a410 410 0 0 0 2.5-42.3c-.3-7.7-.4-20.6-.4-38.5 0-2.3.2-3.8.6-4.4.4-.6 1-1 2-1 1.7 0 2.6 1 2.6 3.1v4Zm-5.1 105.4c.7.7 1 1.6 1 2.6 0 1.2-.5 2.2-1.3 3s-1.7 1.1-2.7 1.1c-.9 0-1.7-.5-2.3-1.2s-1-1.4-1-2.3c0-1.3.4-2.3 1-3s1.7-1.2 2.9-1.2c.9 0 1.7.4 2.4 1Zm-3.3 10.7c.7.7 1 1.5 1 2.4 0 1-.4 1.9-1 2.5s-1.5 1-2.4 1c-1 0-1.9-.3-2.5-1a4 4 0 0 1-1.2-2.3c0-1 .4-2 1-2.6.8-.7 1.6-1 2.5-1 1 0 1.9.3 2.6 1Z"/>
  <path fill="#f45b69" d="M1006.7 214.7a11.3 11.3 0 0 1-2 11.5 8.1 8.1 0 0 1-6.3 3.2c-3.7 0-6.8-2.3-9.3-6.8a354 354 0 0 1-13-41c-3-12.6-5-26.4-5.7-41.4v-13.9c-.3-2-.4-4.1-.4-6.2 0-4.6.7-8.4 2-11.5 1.5-3 4.5-4.8 9-5.3 2.4 0 4.6 1 6.5 2.8s2.8 4 2.8 6.3l-.6 4.6a48 48 0 0 0-.6 8.3c.2 12.4 1 23.3 2.1 32.5 1.7 12.5 5.7 28.2 12.2 47l3.3 9.9Zm-10.4-8c0-1-.3-1.8-1-2.4s-1.2-.8-2.1-.8c-2 0-3 1-3.3 3.3 0 1.9 1 3 3.3 3 .8 0 1.6-.2 2.2-.9s.9-1.3.9-2.1Zm-3.7-8c0-1-.3-1.7-1-2.4-.6-.6-1.5-1-2.5-1-2 .2-3.2 1.4-3.3 3.5 0 1 .3 1.7 1 2.3s1.4 1 2.3 1c1 0 1.9-.3 2.5-1 .7-.8 1-1.6 1-2.5Zm-3.1-8.4-2.3-10.8c-1.6-7-3-13.9-4-20.7-1.2-6.8-1.8-14.6-1.8-23.4l.4-11.2.5-8.1c0-2-.8-3-2.5-3-1.5 0-2.4 1.3-2.5 3.5a187.5 187.5 0 0 0 7.2 74c.4 1.4 1 2 2 2 1.1 0 1.9-.3 2.3-.6s.7-.9.7-1.7Z"/>
  <path d="M1006 326.8v31.1a282.1 282.1 0 0 1-3.2 41.2c-.2 1.4-.5 2.8-1 4l-3-1a224.8 224.8 0 0 0 3.5-38.7v-5.7c-5.5 6-11.4 9-17.8 9s-11.6-2.4-16-7a51.1 51.1 0 0 1-12.4-23.4c-2-9-3.3-17.8-3.7-26.6a53.3 53.3 0 0 1-1-12.2c0-1.8.5-3.3 1.4-4.7s2-2 3.6-2c1.8.1 3.1.5 3.9 1.2s1.2 2 1.2 3.6c.4 19.4 2.5 34.2 6.5 44.7 4.2 10.8 9.7 16.2 16.7 16.2 3.6 0 6.9-1.7 9.8-5a78 78 0 0 0 8-10.6 494.6 494.6 0 0 0 .8-14.2h2.6Zm-10.6-122.5c.6.6.9 1.4.9 2.5 0 .7-.3 1.4-1 2s-1.2 1-2.1 1c-2.2 0-3.3-1.1-3.3-3 .2-2.2 1.3-3.3 3.3-3.3a3 3 0 0 1 2.2.8Zm-3.8-8a3.4 3.4 0 0 1 0 4.7c-.6.8-1.5 1.1-2.5 1.1-.9 0-1.7-.3-2.3-1s-1-1.3-1-2.3c.1-2.1 1.2-3.3 3.3-3.4 1 0 1.9.3 2.5 1Zm-4.4-16.8 2.3 10.8c0 .8-.3 1.4-.7 1.7s-1.2.5-2.2.7c-1 0-1.7-.7-2.1-2.2a224.1 224.1 0 0 1-8.2-55.5c0-5.6.4-11.8 1-18.3.1-2.3 1-3.5 2.5-3.5 1.7 0 2.5 1 2.5 2.9l-.5 8.1-.4 11.2c0 8.8.6 16.6 1.7 23.4 1.2 6.8 2.5 13.8 4 20.7Zm-28.4 38.7.1 2.7c0 4.5-1.4 8.1-4.4 11-3 2.7-6.4 4-10.3 4-3.3 0-6.3-1-8.9-3-2.5-2-4.4-4.7-5.4-8.3-1.7-7.3-2.8-14.6-3.3-22-.9-10.1-1.3-19.6-1.3-28.5.1-4.4.2-16 .2-34.8 0-5 1.5-8.8 4.7-11.6 3.2-2.8 6.7-4.3 10.5-4.3s7.4 1.5 10.2 4.4 4.2 6.7 4.3 11.5l-.1 31.7c0 15.7 1.2 31.5 3.6 47.2Zm-6.4 3.5c0-1-.2-2-.4-3a307.1 307.1 0 0 1-4-47.8l.1-32.8c0-5.6-3.3-9-9.8-9.9a8 8 0 0 0-7.1 4 14.7 14.7 0 0 0-2.6 8.3l.2 18.5-.2 9.7c0 12.7.6 25.4 2 38v.5a88 88 0 0 0 2.6 16.6c2 4.9 5.1 7.3 9.5 7.3l2.7-.2c4.7-1.8 7-4.9 7-9.2Zm-1-131.8c2.7 2.9 4 6.3 4 10.3-.2 4.1-1.7 7.6-4.5 10.4s-6.1 4.1-10.1 4.1-7.5-1.4-10.4-4.3A14 14 0 0 1 926 100a15 15 0 0 1 4.6-10.5 14.6 14.6 0 0 1 20.8.4Zm-3 9.8c0-2.6-1-4.8-2.8-6.7-1.8-1.9-4-2.8-6.8-2.8s-4.8 1-6.7 2.9c-1.8 2-2.8 4.2-2.8 6.7s1 4.9 2.8 6.7c1.8 1.9 4 2.8 6.5 2.8 2.8 0 5-1 7-2.8s2.7-4.1 2.7-6.8Z"/>
  <path fill="#f2e863" d="M952 218.8c.2.8.4 1.8.4 2.8 0 4.4-2.3 7.5-7 9.3l-2.7.2c-4.4 0-7.5-2.4-9.5-7.3a93 93 0 0 1-2.7-16.6v-.4a374 374 0 0 1-2-38.1l.3-9.7-.2-18.6c0-3 .9-5.7 2.6-8.3a8.2 8.2 0 0 1 7-3.9c6.6 1 10 4.2 10 10 0 16.5-.1 27.5-.3 32.8a307.3 307.3 0 0 0 4 47.7Zm-7.4 3.6a3 3 0 0 0-1-2.4c-.6-.6-1.4-.8-2.5-.8-.9 0-1.6.3-2.3.9s-1 1.5-1.1 2.5c0 1 .3 1.8 1 2.5s1.4 1.2 2.4 1.2c2.4 0 3.5-1.3 3.5-3.9Zm-2.7-7.8c.6-.7 1-1.5 1-2.4-.1-1-.6-1.7-1.3-2.3-.7-.7-1.5-1-2.4-1s-1.6.3-2.2 1c-.6.6-.9 1.4-.9 2.3.1 2.3 1.3 3.5 3.5 3.5a3 3 0 0 0 2.3-1.1Zm-1-65.3.5-5.6c0-1.9-.9-2.9-2.6-2.9-1.8 0-2.7 1.3-2.7 3.7v.6c-.5 6.6-1 15.3-1.3 26l-.2 7.6c0 17.6 1.2 26.3 3.7 26.3h.5c1.6-.3 2.3-1.3 2.3-2.9-.2-1.9-.4-3.6-.4-5.2a363.8 363.8 0 0 1 .2-47.6Zm4.7-56.3c1.8 1.9 2.7 4 2.7 6.7s-1 5-2.8 6.8a9.4 9.4 0 0 1-16.1-6.7 9 9 0 0 1 2.8-6.7c1.8-2 4-3 6.6-3s5 1 6.8 2.9Z"/>
  <path d="M943.7 220c.6.6 1 1.4 1 2.4 0 2.6-1.2 4-3.5 4-1 0-2-.5-2.6-1.3s-1-1.6-1-2.5c.2-1 .6-1.8 1.2-2.5s1.5-1 2.4-1c1 0 1.8.3 2.5 1Zm1.5 68.9a50 50 0 0 1-2.3 14.7 14.7 14.7 0 0 1-14.3 11c-9.8-1-14.7-6-14.7-15.1l.4-2.8 3 .5-.1 1.3c0 3 1 5.4 2.9 7.3 2 1.8 4.2 2.8 6.7 2.8 2.9 0 5.1-1 6.8-3.2s2.9-4.8 3.5-8c.6-3.3 1-6.5 1-9.7 0-10-3.6-18.1-10.7-24.2a27.7 27.7 0 0 0-18.1-6.6c-5.5 0-10.9 2-16.3 5.7a61.9 61.9 0 0 0-19 25.5l-2.8-1.1a61.4 61.4 0 0 1 21.1-28.5 30.8 30.8 0 0 1 18.5-6.2 33 33 0 0 1 24.2 10.3 35.7 35.7 0 0 1 10.2 26.2Zm-2.3-76.7c0 .9-.3 1.7-1 2.4a3 3 0 0 1-2.3 1c-2.2 0-3.3-1-3.5-3.4 0-1 .3-1.7.9-2.3.6-.6 1.3-1 2.2-1s1.7.4 2.4 1 1.1 1.4 1.3 2.3Zm-1.5-68.5-.4 5.6a363.8 363.8 0 0 0 .2 52.8c0 1.6-.8 2.5-2.4 3h-.5c-2.5 0-3.7-8.9-3.7-26.4l.2-7.5c.4-10.9.8-19.6 1.3-26.1v-.6c0-2.5 1-3.7 2.7-3.7 1.7 0 2.6 1 2.6 3Z"/>
  <path d="m940.6 356.7-.2 1.8a77 77 0 0 1-5.8 20.6 43.5 43.5 0 0 1-11.2 15.5c-4.7 4-10.2 6-16.5 6a32 32 0 0 1-16-4.6c-18-11.2-26.9-33.3-26.9-66.1a115 115 0 0 1 7.2-42.9l2.9 1.2a124.3 124.3 0 0 0-6.8 40.7v1.5c0 6.6.5 13.5 1.6 20.5a74.5 74.5 0 0 0 9 25.4c2.7 4.6 6 8.5 9.7 11.9 5 4.4 10.8 6.6 17.4 6.6 8.6 0 15.7-4.9 21-14.7a74 74 0 0 0 7.4-21.8l.2-2c0-6-3.2-9.3-9.7-9.8-4.9 0-8.2 3.6-10 10.8a128 128 0 0 1-4.2 12.4c-1.5 3.7-3.3 5.6-5.5 5.6-1.7 0-3.6-1.2-5.8-3.7a42 42 0 0 1-9.5-19.8 112.4 112.4 0 0 1-1.2-38.3 56.2 56.2 0 0 1 16.1-34.7 8.8 8.8 0 0 1 5.8-2.3c2.8 0 5 1 6.6 3.3s2.4 4.9 2.5 8a23 23 0 0 1-.6 5.8c-.3 1-.5 2.3-.7 3.6l-3.1-.5.4-2.4c.4-1.6.5-3.6.5-6 0-1.8-.2-3.2-.7-4s-1.5-1.6-3.3-1.8c-.6 0-1 0-1.5.4-.4.2-.8.5-1 .8l-.6.5a44 44 0 0 0-11.8 21.6 114.5 114.5 0 0 0-.8 45 39 39 0 0 0 8.5 18c.7.6 1.2.9 1.6.9.3 0 .7-.5 1.1-1.4 1.4-3.3 2.6-6.8 3.5-10.4l1-2.9c2.5-8 7.4-12 14.6-12a15 15 0 0 1 10.3 4c3 2.6 4.4 5.9 4.4 9.7Z"/>
  <path fill="#3a7ca5" d="M938 287.7c0 3.2-.3 6.5-1 9.7-.5 3.2-1.7 5.9-3.4 8s-4 3.2-6.8 3.2c-2.5 0-4.8-1-6.7-2.8a9.5 9.5 0 0 1-3-7.3c.2-.4.2-.9.3-1.3l.7-3.6c.4-1.5.6-3.4.6-5.7-.1-3.2-1-6-2.5-8.1s-3.7-3.3-6.6-3.3c-2 0-4 .8-5.8 2.3-8.6 8-14 19.5-16 34.7l-7-.9.6-4a134 134 0 0 1 3.3-15.8 37 37 0 0 1 7.5-14c.7-.6 1-1.3 1-2.1 0-.7-.3-1.2-.9-1.7-.5-.6-1-.8-1.6-.8-1 0-1.7.5-2.5 1.5-4 5-6.9 10.5-8.5 16.7a166.6 166.6 0 0 0-5.8 43.8c0 9.6 1.6 18.8 5 27.7l1 3.4c.4 1.2 1.1 1.8 2.3 1.8l2 2c-.7.8-1 1.6-1 2.5 0 .5 0 1 .2 1.4l-5.5 1.3a74.9 74.9 0 0 1-9-25.4c-1-7-1.6-13.9-1.6-20.5V329a124 124 0 0 1 6.8-40.7 61.7 61.7 0 0 1 18.9-25.6 28.4 28.4 0 0 1 16.3-5.6c6.8 0 12.8 2.2 18.1 6.6 7.1 6 10.6 14 10.6 24.1Z"/>
  <path fill="#3a7ca5" d="m933.6 356.4-.2 1.9c-1.4 7.7-3.8 15-7.3 21.8-5.4 9.8-12.5 14.7-21.1 14.7-6.6 0-12.4-2.2-17.4-6.7-3.8-3.3-7-7.2-9.7-11.8l5.5-1.3.8 1.2c.7.7 1.5 1 2.4 1 1 0 1.9-.3 2.5-1a3 3 0 0 0 1-2.3c0-1-.3-1.9-1-2.6s-1.6-1.1-2.5-1.2c-1 0-1.8.3-2.5 1l-1.9-2c1.8-.4 2.7-1.3 2.7-2.7l-.1-.9c0-.3-.2-.5-.3-.8a84 84 0 0 1-5.1-35.3l7.2.4c0 7.1.8 14.4 2.3 22a42 42 0 0 0 9.5 19.8c2.2 2.5 4.1 3.7 5.8 3.7 2.2 0 4-1.9 5.5-5.6a127 127 0 0 0 4.2-12.4c1.8-7.2 5.1-10.8 10-10.8 6.5.5 9.7 3.8 9.7 9.9Zm-37.7 24c0-1-.3-1.8-1-2.5s-1.4-1-2.5-1a3 3 0 0 0-2.2.9c-.7.6-1 1.3-1 2.1 0 2.2 1 3.5 3.2 3.9 1 0 1.9-.4 2.5-1 .7-.8 1-1.6 1-2.5Z"/>
  <path d="M918.7 199.8a25 25 0 0 1-1.5 6.8 159 159 0 0 1-7 19.5 59 59 0 0 1-10.8 17.2c-4.4 4.8-10 7.2-17 7.2s-13.7-3.2-19.4-9.7a60.3 60.3 0 0 1-9.2-21.3 131 131 0 0 1-4.7-39.8v-8.5c0-13.8.5-27.5 1.4-41.2l.4-6c.2-7.8.8-15.7 1.7-23.4v-.6c0-.8-.4-1.1-1.2-1.1l-11.4 1c-4.7-.2-7.1-1.9-7.1-5.1s2.2-4.8 6.6-5l13.3-.8c.9-.3 1.4-.8 1.5-1.6.4-2.8 1-5.6 1.6-8.5.8-3.7 2.5-6.6 5.1-8.7 2.7-2 5.7-3 9.2-3a17 17 0 0 1 11 4.4c2.6 2.6 3.9 6.2 3.9 10.8l-.2 4.3c0 1 .3 1.7 1 1.9s1.9.4 3.8.4c4.5 0 8.9 0 13 .2 3 0 4.8 1.7 5.2 5.2a4 4 0 0 1-2 3.6 7.9 7.9 0 0 1-4.4 1.2l-17-.4c-2.2 0-3.6 10-4.3 30.2-.9 14.3-1.3 28.6-1.3 43l.2 15.6c.1 8.4 1.4 17 3.9 25.9l6.5-17.2c3.3-7.2 8-10.8 14.1-10.8 4.4.3 8 1.8 10.9 4.2 2.8 2.5 4.2 5.8 4.2 10Zm-7.5 3.1a10.5 10.5 0 0 0-2.2-10.5 9 9 0 0 0-7-3.2c-5.1.5-8.5 3.7-10.1 9.6a276 276 0 0 1-8.4 21.9l-1.5 2.8c-.4.6-.9.8-1.4.8-.6 0-1-.4-1.4-1s-.6-1.2-.8-1.8l-.5-1.2-1.8-6c-2.7-9.2-4-18.6-4.2-28.2l-.2-14.3c0-24.8 1.3-48.8 3.7-72 0-.9-.5-1.3-1.5-1.3l-16.5.2c-1 0-1.5.6-1.5 1.9l-1 10.7a1171 1171 0 0 0-2 32.3v.1c-.3 8.8-.5 19.3-.5 31.4a164 164 0 0 0 5 44c1.4 7 4.2 13.3 8.3 18.8 4.3 4.6 9 7 14.3 7s9.7-1.8 13.2-5.3c3.5-3.6 6.4-8 8.9-13.3 2.8-6.3 5.8-14.1 9-23.4ZM877.3 87.4c.4-.8.6-2.3.6-4.8 0-6.5-3.1-10.1-9.4-10.8-4.4 0-7.5 2.5-9.3 7.4l-1.8 8.5c.2.6.5 1 1.2 1h8.5v-.3h7c1.8 0 2.9-.3 3.2-1Z"/>
  <path fill="#44bba4" d="M911.8 199.4c0 1.2-.2 2.3-.6 3.5-3.2 9.3-6.3 17-9.1 23.4a46.9 46.9 0 0 1-8.9 13.3c-3.5 3.5-7.9 5.3-13.2 5.3s-10-2.4-14.3-7a46.5 46.5 0 0 1-8.3-18.7c-3.3-11.8-5-26.5-5-44.1 0-12.1.2-22.6.6-31.4l6 .3-.2 10.2a316.1 316.1 0 0 0 2.5 45.6c.3 1.6 1.2 2.3 2.7 2.3l.9 3.6c-1.5.2-2.3 1.1-2.4 2.8 0 2.2 1.2 3.3 3.6 3.3l.6 2.7c-1.2.4-1.8 1.5-2 3.1 0 .9.4 1.7 1 2.3s1.5 1 2.4 1.2c.9 0 1.7-.4 2.4-1.1s1-1.4 1-2.2a4 4 0 0 0-.4-2l5-1.4a87.1 87.1 0 0 0 3 8.9c.4.6.9 1 1.5 1 .5 0 1-.2 1.4-.8l1.5-2.8a276 276 0 0 0 8.4-21.9c1.6-5.9 5-9.1 10-9.6 2.8 0 5.2 1 7 3.2s2.9 4.5 2.9 7Z"/>
  <path d="M895 377.9a3.5 3.5 0 0 1 0 4.9c-.7.6-1.5 1-2.6 1-2.2-.4-3.3-1.7-3.3-3.9 0-.8.4-1.4 1.1-2.1a3 3 0 0 1 2.2-1c1 0 1.9.4 2.5 1.1ZM892.3 275c.6.4 1 1 1 1.7 0 .8-.4 1.5-1 2a37 37 0 0 0-7.6 14.1 127.4 127.4 0 0 0-3.8 19.8 190.2 190.2 0 0 0-1.8 24.8 84 84 0 0 0 5.8 29c0 1.4-1 2.3-2.7 2.7-1.2 0-2-.6-2.3-1.8l-1-3.4c-3.4-8.9-5-18.1-5-27.7 0-15 2-29.7 5.8-43.8a44.4 44.4 0 0 1 8.5-16.7c.8-1 1.6-1.5 2.5-1.5.5 0 1 .2 1.6.8Zm-2.2 99a3 3 0 0 1-1 2.2c-.6.7-1.5 1-2.5 1-.9 0-1.7-.3-2.4-1l-.8-1.2a3.5 3.5 0 0 1 .7-3.9c.7-.7 1.5-1 2.5-1s1.7.5 2.4 1.2 1.1 1.6 1.1 2.6Z"/>
  <path fill="#3a7ca5" d="m880.9 312.6 6.8.9c-.7 5-1 10.5-1 16.4l-7.3-.4c.2-5.7.7-11.3 1.5-16.9Z"/>
  <path fill="#44bba4" d="M878 82.6c0 2.5-.3 4-.7 4.8-.4.7-1.4 1-3.3 1h-6.9v.2h-8.5c-.7 0-1-.3-1.2-1l1.7-8.4c1.9-5 5-7.4 9.3-7.4 6.3.7 9.5 4.3 9.5 10.8Zm-2 131.7-5 1.4c-.5-.8-1.5-1.3-3-1.4-.4 0-1 0-1.3.2l-.6-2.7c.8 0 1.5-.3 2-1a3 3 0 0 0 .7-2c0-2.2-1-3.2-3.2-3.2h-.7l-.9-3.5c1.6-.2 2.3-1.2 2.3-2.9a391 391 0 0 1-2.5-40c0-8.6.3-16.8 1-24.5a583 583 0 0 1 2.7-23.4v-.8c0-1.8-1-2.7-2.7-2.7-1.4 0-2.2.9-2.3 2.7-1.9 11.9-3 23-3.5 33.5l-6-.3c.4-8.9 1-19.7 2-32.5l.9-10.6c0-1.3.5-2 1.5-2l16.5-.1c1 0 1.5.4 1.5 1.3a685.6 685.6 0 0 0-3.7 72l.2 14.3c.1 9.6 1.5 19 4.2 28.2Z"/>
  <path d="M871 215.8c.4.5.5 1.1.5 2a3 3 0 0 1-1 2.2 3.3 3.3 0 0 1-4.8-.1 3 3 0 0 1-1-2.3c.2-1.6.8-2.7 2-3.1l1.4-.2c1.4 0 2.4.6 3 1.4Zm-2.2-7.1c0 .8-.2 1.5-.7 2.1-.5.7-1.2 1-2 1-2.4 0-3.6-1.1-3.6-3.3 0-1.7.9-2.7 2.4-2.9h.7c2.1 0 3.2 1 3.2 3Zm-1.3-98.2v.8a583 583 0 0 0-2.6 23.4 271 271 0 0 0-1.1 24.5c0 10.8.8 24.2 2.5 40 0 1.7-.8 2.7-2.3 3-1.5 0-2.4-.8-2.7-2.4a322.4 322.4 0 0 1 1.2-89.3c0-1.8.9-2.7 2.3-2.7 1.8 0 2.7.9 2.7 2.7Zm-17 262.1c0 5.6 0 11.3.2 16.8 0 1.8-.5 3.6-1.5 5.3s-2.3 2.6-4.1 2.6c-1.5 0-2.7-.5-3.8-1.5a4.7 4.7 0 0 1-1.7-3.5l.4-1.6.4-1.9.2-2.5-.2-23.4c0-10.2 0-20.2-.2-30.1-.1-10-.4-17.6-.8-22.9a72.4 72.4 0 0 0-3.1-15.5c-1.6-5.1-4-7.7-7-7.7s-5.7 2-8.7 5.7a54 54 0 0 0-7.4 12.5c-4.7 11.7-8 24-10.1 36.5a306.8 306.8 0 0 0-5 46 17 17 0 0 1-4.2 10.3 15 15 0 0 1-10 5.2h-1.1c-7.4 0-12.3-4.2-14.9-12.5a338.6 338.6 0 0 1 1-113.7c2.4-8.7 7.2-13 14.3-13 9.8.5 14.8 5.7 15 15.7 0 3.7-.4 7.3-1.3 10.6l-1 5.4a331 331 0 0 0-2.7 42.2l2.1-8.5c1.6-6.6 3.4-13 5.4-19.5s4.7-12.2 8-17.5a50 50 0 0 1 9-10.5 18 18 0 0 1 12.3-4.8c4.2 0 7.6 1.6 10.2 4.7 2.6 3 4.5 6.8 5.9 11.2s2.3 8.6 2.8 12.8c.8 5 1.2 11.9 1.4 20.6l.2 46.4Zm-61.1-81 1.7-11.8c0-7.4-3-11.2-9.3-11.4-4.9 0-8 2.9-9.6 8.7a367.1 367.1 0 0 0-5.5 63.6c0 11.6.8 23.1 2.2 34.6l.2 2c.7 9.5 2.8 15.5 6.2 17.9a9.5 9.5 0 0 0 12.7-1.5c0-.2 0-.3.2-.4l.5-.6c.2-.2.3-.6.3-1l-.4-1.4-.3-1.3-.1-1.5.4-9.5-.2-2.5a303.8 303.8 0 0 1 1-83.9Zm46.4-168.8c0 5-.8 9.8-2.3 14.7-1 3.5-3 6.2-5.6 8.2a14.5 14.5 0 0 1-8.8 2.9c-9.8-1-14.7-6-14.7-15.1l.5-2.8 3 .5-.2 1.3a9.7 9.7 0 0 0 9.7 10c2.8 0 5-1 6.8-3.1 1.6-2.2 2.8-4.8 3.4-8s1-6.5 1-9.7c0-10-3.5-18.1-10.6-24.2a27.6 27.6 0 0 0-34.5-1 61.8 61.8 0 0 0-18.9 25.6l-2.8-1a78 78 0 0 1 6.3-12.6 59 59 0 0 1 14.8-16 30.8 30.8 0 0 1 18.4-6.2 33 33 0 0 1 24.2 10.3 35.7 35.7 0 0 1 10.3 26.2Z"/>
  <path d="m831.1 190.7-.2 1.8c-1 7.3-3 14.2-5.8 20.5a43.4 43.4 0 0 1-11.2 15.6c-4.6 4-10 6-16.4 6-5.3 0-10.6-1.6-16-4.6-18-11.3-27-33.3-27-66.2a115 115 0 0 1 7.3-42.8l2.8 1.1-1.4 4.3a124.6 124.6 0 0 0-5.3 36.5v1.5c0 6.6.5 13.4 1.6 20.5a73.4 73.4 0 0 0 9 25.4c2.6 4.6 5.9 8.5 9.7 11.8 5 4.5 10.8 6.7 17.4 6.7 8.6 0 15.6-4.9 21-14.7a77 77 0 0 0 7.4-21.8l.2-2c0-6-3.2-9.3-9.7-9.8-4.9 0-8.2 3.6-10 10.8a138 138 0 0 1-4.2 12.4c-1.5 3.7-3.3 5.6-5.5 5.6-1.7 0-3.6-1.2-5.8-3.7a42.1 42.1 0 0 1-9.6-19.8 113.8 113.8 0 0 1-1.1-38.3 56 56 0 0 1 16.1-34.7 8.8 8.8 0 0 1 5.8-2.3c2.9 0 5 1 6.6 3.3 1.5 2.2 2.4 4.9 2.5 8a23 23 0 0 1-.6 5.8 43 43 0 0 0-.7 3.6l-3.1-.4.4-2.5c.4-1.6.5-3.6.5-6 0-1.8-.2-3.2-.6-4s-1.6-1.6-3.4-1.8c-.5 0-1 .1-1.5.4l-1 .7-.6.6c-6 6.2-10 13.4-11.8 21.6a114.4 114.4 0 0 0-.8 45 39.3 39.3 0 0 0 8.5 18c.7.6 1.2.9 1.6.9.4 0 .7-.5 1.1-1.4 1.4-3.3 2.6-6.8 3.5-10.4l1-3c2.5-8 7.4-12 14.7-12 3.8 0 7.2 1.4 10.2 4s4.5 6 4.5 9.8Z"/>
  <path fill="#f45b69" d="M828.6 121.7c0 3.2-.3 6.4-1 9.7s-1.7 5.9-3.4 8a8.3 8.3 0 0 1-6.8 3.2 9.7 9.7 0 0 1-9.7-10l.2-1.4.8-3.6c.4-1.5.6-3.4.6-5.7-.1-3.2-1-6-2.5-8.1a7.6 7.6 0 0 0-6.6-3.3c-2 0-4 .8-5.8 2.3a56 56 0 0 0-16.1 34.7l-6.9-1a174.8 174.8 0 0 1 3.9-19.7c1.4-5 3.9-9.7 7.5-14a3 3 0 0 0 1-2.1c0-.7-.3-1.2-1-1.8s-1-.7-1.5-.7c-1 0-1.8.5-2.6 1.5a46 46 0 0 0-8.5 16.6 165.4 165.4 0 0 0-5.8 44 78 78 0 0 0 5 27.6l1 3.4c.4 1.2 1.2 1.8 2.3 1.8l2 2c-.7.7-1 1.5-1 2.5 0 .5.1 1 .3 1.4l-5.6 1.3a73.4 73.4 0 0 1-9-25.3c-1-7.2-1.5-14-1.5-20.6V163a124.6 124.6 0 0 1 6.7-40.8 61.8 61.8 0 0 1 19-25.5 27.6 27.6 0 0 1 34.4 1c7 6 10.6 14 10.6 24Z"/>
  <path fill="#f45b69" d="m824.2 190.3-.2 2c-1.5 7.7-3.9 15-7.4 21.8-5.4 9.8-12.4 14.7-21 14.7-6.6 0-12.4-2.2-17.5-6.7a51 51 0 0 1-9.7-11.8l5.5-1.3.8 1.1c.8.7 1.6 1 2.5 1a3.3 3.3 0 0 0 3.5-3.2c0-1-.4-1.9-1.1-2.6s-1.5-1.1-2.4-1.3c-1 0-2 .4-2.5 1.1l-2-2c1.8-.4 2.7-1.3 2.7-2.7v-.9l-.4-.8-.3-.8a83.3 83.3 0 0 1-4.8-34.5l7.3.4c0 7.1.7 14.4 2.2 22a42.1 42.1 0 0 0 9.6 19.8c2.2 2.4 4 3.6 5.8 3.6 2.2 0 4-1.8 5.5-5.6 1.5-3.7 2.8-7.8 4.1-12.3 1.8-7.3 5.2-10.9 10-10.9 6.5.5 9.7 3.8 9.7 9.9Zm-37.7 24c0-.9-.4-1.7-1-2.4a3.3 3.3 0 0 0-4.7-.1c-.7.6-1 1.4-1 2.1 0 2.2 1 3.5 3.2 3.9 1 0 1.9-.4 2.5-1 .6-.8 1-1.6 1-2.5Z"/>
  <path fill="#3a7ca5" d="m791.1 279.8-1.7 11.8a304 304 0 0 0-1 83.9l.2 2.5-.4 9.5a9.2 9.2 0 0 0 .4 2.8l.4 1.4c0 .4-.1.7-.3 1l-.5.6-.2.3a9.5 9.5 0 0 1-12.8 1.6c-3.3-2.4-5.4-8.4-6.1-18l-.2-1.9c-1.4-11.5-2.2-23-2.2-34.6 0-22 1.9-43.1 5.5-63.6 1.5-5.8 4.7-8.7 9.6-8.7 6.2.2 9.3 4 9.3 11.4Zm-9.5 14.9 1.6-12c0-1.7-1-2.6-2.7-2.7-1 0-1.5.3-1.9 1a286.5 286.5 0 0 0-5.7 56 323.6 323.6 0 0 0 1 30c.1 1.7 1 2.5 2.5 2.5h.4c.8 0 1.3-.3 1.6-.9s.5-1.7.5-3.5a250.2 250.2 0 0 1 0-48.7 739 739 0 0 1 2.7-21.7Zm-.3 93c.8-.7 1.1-1.4 1.1-2.1 0-2.4-1-3.6-3-3.7a4 4 0 0 0-2.7.9 3 3 0 0 0-1 2.4c0 .9.3 1.7 1 2.4s1.3 1 2.2 1 1.7-.3 2.4-.9Zm-3.7-9.7c2.2-.2 3.3-1.5 3.3-3.7 0-1.9-1.2-3-3.7-3-.8 0-1.5.3-2 1s-1 1.3-1 2.2.4 1.7 1 2.5a3 3 0 0 0 2.4 1Z"/>
  <path d="M785.5 211.9a3.5 3.5 0 0 1 0 4.8c-.6.7-1.5 1-2.5 1-2.2-.3-3.3-1.6-3.3-3.8 0-.7.3-1.4 1-2s1.5-1 2.3-1c1 0 1.9.3 2.5 1ZM782.9 109c.6.5.9 1 .9 1.7a3 3 0 0 1-1 2.1c-3.6 4.3-6.1 9-7.5 14a121.5 121.5 0 0 0-3.9 19.8 206.3 206.3 0 0 0-1.8 24.8 83.3 83.3 0 0 0 5.9 29c0 1.4-1 2.3-2.8 2.7-1.1 0-1.9-.6-2.3-1.8l-1-3.4c-3.3-9-5-18.1-5-27.7 0-15 2-29.7 5.8-43.9a44.4 44.4 0 0 1 8.5-16.6c.8-1 1.6-1.5 2.6-1.5.5 0 1 .2 1.6.7Zm.3 173.7-1.6 12-2.7 21.7a232.2 232.2 0 0 0 0 48.7c0 1.8-.1 3-.5 3.5s-.8.9-1.6.9h-.4c-1.5 0-2.4-.8-2.5-2.5l-.4-4.8c-.4-3.7-.6-12-.6-25.2a286.5 286.5 0 0 1 5.7-56c.4-.7 1-1 1.9-1 1.8 0 2.7 1 2.7 2.7Zm-.8 102.9c0 .7-.3 1.4-1 2-.8.7-1.6 1-2.5 1s-1.6-.3-2.3-1-1-1.6-1-2.5a3 3 0 0 1 1.1-2.4c.7-.6 1.6-.8 2.6-.8 2 0 3.1 1.3 3.1 3.6ZM780.7 208c0 .8-.4 1.6-1 2.3-.6.6-1.5.9-2.5.9s-1.7-.3-2.4-1c-.4-.4-.6-.8-.8-1.2l-.3-1.5c0-.9.3-1.7 1-2.4.6-.7 1.5-1 2.5-1 .9 0 1.7.5 2.4 1.2s1 1.6 1 2.6Zm.2 166.3c0 2.2-1.1 3.4-3.3 3.7a3 3 0 0 1-2.3-1 3.5 3.5 0 0 1-.1-4.8c.5-.6 1.2-1 2-1 2.4.1 3.7 1.2 3.7 3.1Z"/>
  <path fill="#f45b69" d="m771.4 146.6 6.9.9c-.8 5-1.1 10.5-1.1 16.3l-7.3-.4c.3-5.6.8-11.2 1.5-16.8Z"/>
  <path d="M752 274.8c.4 1.5.8 4.6 1 9.4a52.3 52.3 0 0 1-23.4 41.8 31.7 31.7 0 0 1-23 4.8l-2.5-.2c-.5 0-.8.3-.8.8 1 10.6 3.3 20.3 7.2 29.2.8 1.7 1.7 3.2 3 4.5 1.2 1.4 2.3 2 3.4 2s2-.8 2.4-2.5l1.2-5.7 3.3.4a45 45 0 0 1-1.5 7.3c-1.6 3.5-3.9 5.2-7 5.2-4.6 0-8.4-3.2-11.4-9.7a106 106 0 0 1-8.3-39.2h.6c.7 0 1.3 0 1.6.3l.9.5a33 33 0 0 0 11 1.9c6.5 0 12.4-2.1 17.9-6.4s9.9-9.6 13.3-16a41.2 41.2 0 0 0 3.6-29.8A29.7 29.7 0 0 0 716 251a29 29 0 0 0-21.8 9.7 60.2 60.2 0 0 0-14 28c-2.6 11-3.8 21.3-3.8 31a137.2 137.2 0 0 0 9.4 49.5l-3 1.3a98.8 98.8 0 0 1-7.3-24 147.1 147.1 0 0 1-.2-51.2 96.3 96.3 0 0 1 7-23 55 55 0 0 1 13.8-18.4c6-5.1 13.1-7.7 21.6-7.7a37 37 0 0 1 19.2 5.8 35 35 0 0 1 15.3 22.6Zm-4.6-166.1c.4 1.6.7 4.7 1 9.5A52.5 52.5 0 0 1 725 160a32 32 0 0 1-23 4.8l-2.5-.2c-.6 0-.8.3-.8.8a92 92 0 0 0 7.1 29.2c.8 1.6 1.8 3.2 3 4.5s2.4 2 3.4 2c1.2 0 2-.8 2.4-2.4a77 77 0 0 0 2-10.3 15.4 15.4 0 0 1 15-12 14 14 0 0 1 10 4.3c2.8 2.8 4.3 6 4.3 9.8-.4 17.2-6 29-17 35.6a30.8 30.8 0 0 1-16.7 4.8 30 30 0 0 1-20.2-7.1 52.7 52.7 0 0 1-13.6-18.5 103 103 0 0 1-7.7-24.7 149 149 0 0 1-.1-51.2 97 97 0 0 1 7-23c3.2-7 7.8-13.2 13.7-18.3a32 32 0 0 1 21.7-7.8c6.4 0 12.8 2 19.1 5.8a35 35 0 0 1 15.3 22.6Zm-6.2 9a41 41 0 0 0-1.3-10.3 29.4 29.4 0 0 0-50.5-12.6 65.3 65.3 0 0 0-14 28 134.5 134.5 0 0 0 2.8 72.6 47.2 47.2 0 0 0 13.5 22.8 30 30 0 0 0 18.6 7 27.2 27.2 0 0 0 22.6-12.2 43.6 43.6 0 0 0 5.8-22.3c0-2.7-.9-4.8-2.7-6.5-1.8-1.6-4-2.5-6.6-2.8-3 0-5.3 1.2-7 3.4a14.9 14.9 0 0 0-3.1 7.7 47 47 0 0 1-1.7 8c-1.5 3.6-3.9 5.3-7 5.3-4.6 0-8.4-3.2-11.3-9.7a107.4 107.4 0 0 1-8.4-39.2h.6c.8 0 1.3 0 1.6.3l1 .4a28.8 28.8 0 0 0 28.8-4.4 48 48 0 0 0 18.3-35.6Z"/>
  <path d="M746.2 346.7c2.9 2.8 4.3 6.1 4.3 9.8-.4 17.2-6 29-17 35.6a31 31 0 0 1-16.6 4.9 30 30 0 0 1-20.2-7.2 53.1 53.1 0 0 1-13.7-18.5l-.3-.7 3-1.2a47.7 47.7 0 0 0 10.7 14.8c5.9 4.6 12 7 18.5 7a27 27 0 0 0 22.6-12.2 43.6 43.6 0 0 0 5.8-22.2c0-2.7-.9-4.9-2.7-6.5a11 11 0 0 0-6.6-2.8 8 8 0 0 0-7 3.4 15 15 0 0 0-3.1 7.6l-.1.8-3.3-.4c.1-1.6.4-3 .8-4.5a15.3 15.3 0 0 1 15-12 14 14 0 0 1 9.9 4.3Z"/>
  <path fill="#3a7ca5" d="M744.5 273.4a40.8 40.8 0 0 1-3.7 29.8 46.9 46.9 0 0 1-13.2 16 28.9 28.9 0 0 1-28.9 4.4c-.3 0-.6-.2-1-.4-.2-.2-.8-.3-1.6-.3h-.5c0 4.2.3 8.3.9 12.4l-6.7.8a147 147 0 0 1-1.2-18.8c0-16.8 3.3-31.8 9.9-45 .4-.9.5-1.6.5-2.2 0-.5-.2-1-.7-1.5-.5-.4-1.1-.6-1.8-.6-1 0-2 .6-2.7 1.9l-5.6-1.3c1.8-2.8 3.7-5.3 5.8-7.8a29.6 29.6 0 0 1 50.5 12.6Zm-29 31a28.3 28.3 0 0 0 11-20c0-5-1.2-8.6-3.5-10.7a11 11 0 0 0-7.3-3.2c-4.4 0-8 2.5-11 7.6a57.6 57.6 0 0 0-7 21c0 1.6 1.3 3.1 3.9 4.8a15 15 0 0 0 8 2.4 10 10 0 0 0 6-2Z"/>
  <path fill="#3a7ca5" d="M740.6 350.3a8.3 8.3 0 0 1 2.7 6.4c0 8.2-1.9 15.6-5.8 22.3a26.8 26.8 0 0 1-22.6 12.2c-6.4 0-12.6-2.4-18.5-7a47.6 47.6 0 0 1-13.6-22.8 137.7 137.7 0 0 1-2.8-72.6 65.6 65.6 0 0 1 8.3-20.2l5.5 1.3a113.6 113.6 0 0 0-10.4 47.6l.4 7.3 1.2 12.9c.4 3.4 1.2 8.5 2.5 15.4.1 2 1 2.9 2.5 2.9h.6c1.3-.3 2-1.2 2-2.7a13 13 0 0 0-.5-4 143 143 0 0 1-2.3-13.2l6.7-.8c1.2 9 3.7 18 7.4 26.9 3 6.4 6.8 9.6 11.4 9.6 3.1 0 5.5-1.7 7-5.2a46 46 0 0 0 1.5-7.3l.1-.8a15 15 0 0 1 3.1-7.7 8.5 8.5 0 0 1 7-3.3 11 11 0 0 1 6.7 2.8Zm-40.4 20c0-1-.3-1.7-1-2.2s-1.4-1-2.3-1.1a3.3 3.3 0 0 0-3.4 3.5c.2 2.2 1.4 3.3 3.6 3.5 2 0 3-1.3 3.1-3.7Zm-4-8.3c0-1-.3-1.7-.9-2.4a3 3 0 0 0-2.2-1c-1 0-1.9.4-2.4 1-.6.5-1 1.3-1 2.2s.4 1.6 1 2.3 1.2 1 2 1h.4c1.8-.2 2.8-1.2 3-3.1Z"/>
  <path fill="#f2e863" d="M739.9 107.4a40.9 40.9 0 0 1-3.7 29.8 48.2 48.2 0 0 1-13.2 16 28.6 28.6 0 0 1-18 6.4c-3.5 0-7.2-.6-11-2l-.8-.4c-.3-.2-.9-.3-1.7-.3h-.6c0 4.1.4 8.3 1 12.4l-6.7.8c-.8-6.2-1.2-12.5-1.2-18.8 0-16.8 3.3-31.8 9.9-45a5 5 0 0 0 .5-2.2c0-.5-.2-1-.7-1.4-.6-.5-1.1-.7-1.8-.7-1 0-2 .6-2.7 1.9l-5.6-1.4a62 62 0 0 1 5.8-7.7 29.6 29.6 0 0 1 50.5 12.6Zm-29 31a28.4 28.4 0 0 0 11-20c0-5-1.2-8.6-3.6-10.7a11 11 0 0 0-7.2-3.2c-4.4 0-8 2.5-11 7.6a57.3 57.3 0 0 0-7 21c0 1.6 1.3 3.1 3.8 4.7 2.6 1.6 5.3 2.4 8 2.4a10 10 0 0 0 6-1.9Z"/>
  <path fill="#f2e863" d="M736 184.2a8.3 8.3 0 0 1 2.7 6.5c0 8.1-2 15.6-5.8 22.3a27.3 27.3 0 0 1-22.6 12.1c-6.5 0-12.6-2.3-18.6-7a47.2 47.2 0 0 1-13.5-22.8 138 138 0 0 1-6.6-41.5c0-9.7 1.3-20 3.8-31a65.3 65.3 0 0 1 8.2-20.3l5.6 1.3a113.2 113.2 0 0 0-10.4 47.6l.4 7.4a239.7 239.7 0 0 0 3.7 28.3c0 1.9.9 2.9 2.4 2.9h.6c1.3-.3 2-1.2 2-2.8s0-2.5-.2-2.9a143.4 143.4 0 0 1-2.5-14.3l6.6-.7c1.3 9 3.8 18 7.5 26.8 3 6.5 6.8 9.7 11.4 9.7 3 0 5.4-1.7 7-5.2.7-2.6 1.3-5.3 1.6-8.1a15 15 0 0 1 3-7.6 8.5 8.5 0 0 1 7.1-3.4 11 11 0 0 1 6.6 2.8Zm-40.4 20c0-.8-.3-1.6-1-2.2-.6-.5-1.4-.9-2.3-1-1 0-1.9.3-2.5 1s-1 1.4-1 2.5c.3 2.1 1.5 3.3 3.7 3.4 2 0 3-1.2 3-3.7Zm-4-8.3c0-.9-.4-1.6-1-2.3-.5-.6-1.3-1-2.2-1-1 0-1.8.4-2.4 1s-.9 1.3-.9 2.2.3 1.6.9 2.3c.6.6 1.3 1 2 1h.4c1.8-.2 2.9-1.2 3.1-3.2Z"/>
  <path d="M726.5 284.4a28.3 28.3 0 0 1-11 20 10 10 0 0 1-6 1.9 15 15 0 0 1-8-2.4c-2.5-1.7-3.8-3.2-3.8-4.8a58 58 0 0 1 7-21c3-5 6.6-7.6 11-7.6 2.4 0 4.8 1 7.2 3.2 2.4 2.1 3.6 5.7 3.6 10.7Zm-3.3-.4c0-2.7-.5-4.6-1.5-5.8s-2.5-1.8-4.3-1.9c-1.5 0-3 1-4.6 3-4 5.4-6.6 11.5-7.7 18.4.9 2.5 3 3.7 6.2 3.7 1.2 0 2.3-.3 3-1 5.5-4.3 8.4-9.8 9-16.4Zm-1.3-165.6a28.4 28.4 0 0 1-11 20 10.7 10.7 0 0 1-6 1.9c-2.7 0-5.4-.9-8-2.5-2.5-1.6-3.8-3.1-3.8-4.7a57.3 57.3 0 0 1 7-21c3-5 6.6-7.6 11-7.6 2.4 0 4.8 1 7.2 3.2 2.4 2.1 3.6 5.7 3.6 10.7Zm-3.3-.4c0-2.7-.5-4.6-1.6-5.8a6 6 0 0 0-4.2-2c-1.5 0-3.1 1.1-4.6 3.2-4 5.2-6.6 11.4-7.8 18.3 1 2.5 3 3.7 6.2 3.7 1.3 0 2.3-.3 3.1-1a23 23 0 0 0 9-16.4Zm-19.3 250c.6.6 1 1.4 1 2.3-.2 2.4-1.2 3.7-3.2 3.7-2.2-.2-3.4-1.3-3.7-3.5 0-1 .4-1.9 1-2.5.6-.7 1.5-1 2.5-1 1 .1 1.7.5 2.4 1Zm-.3-97.9a4 4 0 0 1-.5 2.1 100.2 100.2 0 0 0-9.9 45 147.1 147.1 0 0 0 3.7 33.2c.1.3.2 1.3.2 2.9s-.6 2.4-2 2.6h-.5c-1.6 0-2.4-.9-2.5-2.8a228.4 228.4 0 0 1-3.7-28.3l-.4-7.3a113.7 113.7 0 0 1 10.4-47.6c.8-1.3 1.7-2 2.8-2 .6 0 1.2.3 1.7.7.5.5.8 1 .8 1.5Zm-3.7 89.5c.6.7.9 1.5.9 2.4-.3 1.9-1.3 3-3.1 3h-.4c-.8 0-1.5-.3-2-1s-1-1.3-1-2.2.4-1.7 1-2.3c.5-.5 1.3-.8 2.4-.8a3 3 0 0 1 2.2 1Zm-.7-157.6c.7.6 1 1.4 1 2.3-.1 2.4-1.2 3.6-3.1 3.6-2.2 0-3.4-1.3-3.7-3.4 0-1 .3-2 1-2.6s1.5-1 2.5-1a4 4 0 0 1 2.3 1.1Zm-.2-97.9a5 5 0 0 1-.5 2.1 100.2 100.2 0 0 0-10 45 146.5 146.5 0 0 0 3.8 33.1c0 .4.2 1.4.2 3s-.7 2.4-2 2.6h-.6c-1.5 0-2.4-1-2.5-2.9a246 246 0 0 1-3.6-28.2l-.5-7.3a113.2 113.2 0 0 1 10.4-47.7c.8-1.2 1.7-1.9 2.8-1.9.7 0 1.2.3 1.8.7.4.5.7 1 .7 1.5Zm-3.7 89.5c.5.7.8 1.4.8 2.3-.2 2-1.3 3-3 3.1h-.5c-.7 0-1.4-.3-2-1-.6-.6-.9-1.3-.9-2.2s.3-1.7 1-2.3 1.3-.8 2.3-.8c1 0 1.7.3 2.3 1Zm-23 6.2c0 1.4-.5 3.7-1.5 6.8-1.8 6.3-4.1 12.8-7 19.5s-6.4 12.5-10.8 17.2c-4.4 4.8-10 7.2-17 7.2s-13.7-3.2-19.3-9.7a60 60 0 0 1-9.3-21.3 127.7 127.7 0 0 1-4.7-39.8v-8.5c0-13.8.5-27.5 1.4-41.2l.4-6c.2-7.8.8-15.7 1.7-23.4v-.6c0-.8-.4-1.1-1.2-1.1l-11.4 1c-4.7-.2-7.1-1.9-7.1-5.1s2.2-4.8 6.6-5l13.3-.8c.9-.3 1.4-.8 1.5-1.6A95 95 0 0 1 605 79a14.3 14.3 0 0 1 14.3-11.8c4.6.4 8.3 2 11 4.5s3.9 6.2 3.9 10.8l-.2 4.3c0 1 .3 1.7 1 1.9.6.3 1.9.4 3.8.4 4.5 0 8.8 0 13 .2 3 0 4.8 1.7 5.2 5.2a4 4 0 0 1-2 3.6 8 8 0 0 1-4.4 1.2l-17-.4c-2.2 0-3.6 10-4.3 30.2-.9 14.3-1.3 28.6-1.3 43l.2 15.6c.1 8.4 1.4 17 3.8 25.9l6.6-17.2c3.2-7.2 8-10.8 14.1-10.8 4.4.3 8 1.8 10.9 4.2 2.8 2.5 4.2 5.8 4.2 10Zm-7.5 3.1a10.6 10.6 0 0 0-2.2-10.5 9 9 0 0 0-7-3.2c-5.1.5-8.5 3.7-10.1 9.6-2.5 7.4-5.3 14.7-8.3 21.9l-1.6 2.8c-.4.6-.8.8-1.3.8a2 2 0 0 1-1.5-1l-.8-1.8c-.2-.5-.3-1-.5-1.2a114.6 114.6 0 0 1-6-34.2l-.1-14.3c0-24.8 1.2-48.7 3.6-72 0-.9-.5-1.3-1.5-1.3l-16.5.2c-1 0-1.5.6-1.5 2l-1 10.6a1171 1171 0 0 0-2 32.3v.1a705 705 0 0 0-.5 31.4 165 165 0 0 0 5 44c1.4 7 4.2 13.3 8.3 18.8 4.3 4.6 9 7 14.3 7s9.7-1.8 13.2-5.3c3.5-3.6 6.4-8 8.9-13.3a261 261 0 0 0 9-23.4ZM626.3 87.4c.5-.8.6-2.3.6-4.8 0-6.5-3.1-10.1-9.4-10.8-4.4 0-7.5 2.5-9.3 7.4l-1.7 8.5c0 .6.5 1 1.1 1h8.5v-.3h7c1.8 0 2.9-.3 3.3-1Z"/>
  <path fill="#44bba4" d="M660.8 199.4c0 1.2-.2 2.3-.6 3.5-3.2 9.3-6.3 17-9.1 23.4a46.5 46.5 0 0 1-8.9 13.3c-3.5 3.5-7.9 5.3-13.2 5.3s-10-2.4-14.3-7a46.5 46.5 0 0 1-8.3-18.7c-3.3-11.8-5-26.5-5-44.1 0-12.1.2-22.6.6-31.4l6 .3-.2 10.2a333.4 333.4 0 0 0 2.5 45.6c.3 1.6 1.2 2.3 2.7 2.3l.9 3.6c-1.5.2-2.3 1.1-2.4 2.8 0 2.2 1.2 3.3 3.7 3.3l.5 2.7c-1.2.4-1.8 1.5-2 3.1a3 3 0 0 0 1 2.3 4 4 0 0 0 2.4 1.2c.9 0 1.7-.4 2.4-1.1s1-1.4 1-2.2c0-.8 0-1.5-.4-2l5-1.5a98.2 98.2 0 0 0 3.1 9c.3.6.8 1 1.5 1 .5 0 1-.2 1.3-.8.4-.6 1-1.5 1.6-2.8 3-7.2 5.8-14.5 8.3-21.9 1.7-5.9 5-9.1 10-9.6a9 9 0 0 1 7 3.2c2 2 2.9 4.5 2.9 7Z"/>
  <path d="m659 344-.2 13.7a259 259 0 0 1-4.6 47.4 51.1 51.1 0 0 1-8.5 20.7c-6.8 9-16 13.5-27.5 13.5-5.8 0-11.5-1-17.2-3.2s-10.5-5.4-14.5-10a15.7 15.7 0 0 1-4-16.6l3 1c-.3 1-.5 2-.5 3 0 3 1.2 5.8 3.4 8.6a36 36 0 0 0 27.9 11.6h1a28.4 28.4 0 0 0 26.3-18.2c5.6-14.3 8.5-37.2 8.5-68.6a537 537 0 0 0-2-47.6l-1.5-24.3c-.6-5.7-3.9-8.8-9.7-9.1-6.3 0-9.4 3.9-9.4 11.8 0 2.7 0 5.5.2 8.3l-3.1.2-.5-4.8-.1-3.2c0-6 1.8-10.6 5.4-13.7 2.7-2.3 5.9-3.5 9.5-3.5 3.7.2 7 1.4 9.6 3.7a14 14 0 0 1 4.9 9c.4 3.3.6 6.5.6 9.8l.1 3.3a563 563 0 0 1 3 57.2Z"/>
  <path fill="#3a7ca5" d="M650.2 299.3c1.2 14.2 1.9 30 1.9 47.6 0 31.4-2.9 54.3-8.5 68.6a28.4 28.4 0 0 1-26.3 18.2h-1a35.6 35.6 0 0 1-27.9-11.6 13.5 13.5 0 0 1-3.4-8.5 11.2 11.2 0 0 1 3.5-7.9 11 11 0 0 1 8-3.5 9.3 9.3 0 0 1 9.4 7.9 4.2 4.2 0 0 0 3 3c1.6.6 4 1 7.4 1.2 3.6 0 6.4-1.4 8.3-4.2 5.3-8.1 8-30.8 8-68a505.7 505.7 0 0 0-3-56.1l-.1-8.4c0-7.9 3.1-11.8 9.4-11.8 5.8.4 9 3.4 9.7 9.1.4 8.1 1 16.2 1.6 24.4Zm-6.2 45.3.2-7.4c-.2-18.2-1-35-2.7-50.3-.3-1.4-1-2.1-2.4-2.1-1.6 0-2.5.8-2.5 2.3.3 5 .6 9.5 1 13.5.5 5 .8 10.6 1 16.9l.1 22c0 16.5-.7 31.7-2 45.5l-.3 3.5c0 1.4.9 2.2 2.5 2.5.8 0 1.4-.4 1.9-1 .4-.6.7-1.4.7-2.3a390 390 0 0 0 2.5-43.1Zm-4.5 54.5c0-1.2-.2-2-.8-2.5s-1.4-.8-2.7-.8c-.8 0-1.4.3-2 .9a3 3 0 0 0-.9 2.2 3 3 0 0 0 1 2.2 3 3 0 0 0 2.3 1c2-.3 3-1.4 3-3Zm-1.7 8.7c-.2-2.2-1.2-3.3-3.3-3.3-1 0-1.8.3-2.3 1-.5.6-.8 1.3-.8 2 0 2 1 3.1 3 3.4 2 0 3.1-1 3.4-3.1Z"/>
  <path d="m644.2 337.2-.2 7.3c0 13.7-.9 28-2.5 43.2 0 .9-.3 1.7-.7 2.3-.5.6-1 1-1.9 1-1.6-.3-2.5-1.2-2.5-2.6l.2-3.5a450 450 0 0 0 2.1-45.4l-.2-22c-.1-6.3-.4-12-1-16.9l-.9-13.5c0-1.6.9-2.3 2.5-2.3 1.3 0 2 .7 2.4 2.1 1.6 15.4 2.5 32.1 2.7 50.3Zm-5.5 59.4c.6.5.8 1.3.8 2.5 0 1.6-1 2.7-3 3a3 3 0 0 1-2.4-1c-.6-.7-1-1.4-1-2.2 0-1 .3-1.6 1-2.2.5-.6 1.2-.9 2-.9 1.2 0 2.1.3 2.6.8Zm-4.2 7.9c2 0 3.1 1 3.3 3.3-.3 2-1.4 3-3.3 3-2-.2-3.1-1.3-3.1-3.2 0-.8.3-1.5.8-2.1.5-.7 1.3-1 2.3-1ZM630.8 299c1.2 13.7 1.8 28 1.8 43 0 37.3-2.7 60-8 68.1a9.5 9.5 0 0 1-8.3 4.3 39 39 0 0 1-7.4-1.2 4.2 4.2 0 0 1-3-3c-.5-2.5-1.7-4.5-3.4-5.9s-3.7-2.1-6-2.1c-2.9 0-5.5 1.2-8 3.6-1.4 1.4-2.5 3-3 4.7l-3-1 .2-.2c2.4-7.4 7.8-11.4 16.2-12 5.7 0 10 3 13.2 9.1.5 1.5 1.2 2.4 2.2 2.7 1 .4 2 .6 3.4.6 3 0 5-1.7 6.2-5.2 1.1-3.5 1.9-7 2.3-10.6a314.4 314.4 0 0 0 2.3-67.5l-4 13c-2.3 6.4-4.9 12.7-8 18.8s-6.7 11.2-11 15.2c-4.1 4-8.8 6-14.1 6-4.6 0-9-2.1-13.2-6.3s-7-8.6-8.3-13.3c-1.3-4.6-1.9-10-1.9-16a100 100 0 0 1 10-42.8 49.7 49.7 0 0 1 12.1-16 25 25 0 0 1 26-4.4 38 38 0 0 1 10.1 8l.4-2.4 3.1-.2c.2 4.3.6 8.6 1.1 13Zm-8.3 12.5c.4-.8.6-1.5.6-2.3s-.4-1.5-1-2.2c-.8-.8-1.1-1.9-1.1-3.4a14.3 14.3 0 0 0-14.2-14.9c-4 0-7.6 1.4-11 4.3s-6 6.4-8 10.6a96.3 96.3 0 0 0-10 39.6 41 41 0 0 0 3.7 18.4c3 5.1 6.2 7.7 9.7 7.7 4 0 7.8-2.5 11.5-7.6s6.8-10.9 9.4-17.3a361 361 0 0 0 8.9-27.7l1.5-5.2Z"/>
  <path fill="#44bba4" d="M627 82.6c0 2.5-.2 4-.6 4.8-.4.7-1.5 1-3.3 1h-7v.2h-8.5c-.6 0-1-.3-1.1-1l1.7-8.4c1.8-5 4.9-7.4 9.3-7.4 6.3.7 9.4 4.3 9.4 10.8Zm-2 131.7-5 1.5c-.5-1-1.5-1.4-3-1.5a3 3 0 0 0-1.3.2l-.5-2.7c.7 0 1.4-.3 1.9-1 .5-.6.8-1.3.8-2 0-2.2-1.1-3.2-3.3-3.2h-.7l-.9-3.5c1.6-.2 2.3-1.2 2.3-2.9a392.7 392.7 0 0 1-2.5-40c0-8.6.4-16.8 1-24.5l2.7-23.4v-.8c0-1.8-.9-2.7-2.7-2.7-1.4 0-2.2.9-2.3 2.7-1.8 11.9-3 23-3.5 33.5l-6-.3c.4-8.9 1-19.7 2-32.5l1-10.6c0-1.3.4-2 1.5-2l16.4-.1c1 0 1.5.4 1.5 1.3a685.6 685.6 0 0 0-3.6 72l.2 14.3c0 9.6 1.4 19 4 28.2Z"/>
  <path d="M620 215.8c.4.5.6 1.1.6 2 0 .8-.4 1.5-1.1 2.2s-1.5 1-2.4 1a4 4 0 0 1-2.3-1.1 3 3 0 0 1-1-2.3c.1-1.6.7-2.7 1.9-3.1l1.4-.2c1.4 0 2.4.6 3 1.4Zm-2.1-7.1c0 .8-.3 1.5-.8 2.1-.5.7-1.2 1-2 1-2.4 0-3.6-1.1-3.6-3.3 0-1.7.9-2.7 2.4-2.9h.7c2.2 0 3.3 1 3.3 3Zm-1.4-98.2v.8c-1 7.8-1.9 15.6-2.6 23.4-.7 7.7-1 15.9-1 24.5 0 10.8.8 24.2 2.4 40 0 1.7-.7 2.7-2.3 3-1.5 0-2.4-.8-2.7-2.4A333.4 333.4 0 0 1 608 144c.5-10.5 1.7-21.6 3.5-33.5.1-1.8.9-2.7 2.3-2.7 1.8 0 2.7.9 2.7 2.7Zm-36.9-1.8c.4 1.6.7 4.7 1 9.5A52.4 52.4 0 0 1 557 160a32 32 0 0 1-23 4.8l-2.5-.2c-.5 0-.8.3-.8.8a91.8 91.8 0 0 0 7.2 29.2c.8 1.6 1.8 3.2 3 4.5 1.2 1.4 2.4 2 3.4 2 1.1 0 2-.8 2.4-2.4.5-1.7.9-3.7 1.3-5.8l3.2.4a43 43 0 0 1-1.5 7.3c-1.5 3.4-3.9 5.2-7 5.2-4.6 0-8.4-3.2-11.4-9.7a105.3 105.3 0 0 1-8.3-39.2h.6c.8 0 1.3 0 1.6.3l1 .4a28.8 28.8 0 0 0 28.8-4.4 47.2 47.2 0 0 0 18.3-35.6 41 41 0 0 0-1.3-10.3 29.5 29.5 0 0 0-50.5-12.5 62.8 62.8 0 0 0-14 28c-2.5 11-3.8 21.3-3.8 31a137.3 137.3 0 0 0 9.4 49.5l-3 1.3c-3.3-7.4-5.7-15.4-7.3-24a147.3 147.3 0 0 1-.2-51.2c1.5-8.3 3.9-16 7-23A55.4 55.4 0 0 1 523.4 88c6-5.2 13.1-7.7 21.7-7.7a35 35 0 0 1 34.4 28.4Z"/>
  <path d="M573.7 180.7a13 13 0 0 1 4.3 9.8c-.4 17.2-6 29-17 35.6a30.8 30.8 0 0 1-16.6 4.8 30 30 0 0 1-20.2-7.1 52.9 52.9 0 0 1-13.7-18.5l-.3-.7 3-1.3a47.7 47.7 0 0 0 10.7 14.9c5.9 4.6 12 7 18.5 7A27.1 27.1 0 0 0 565 213a43.6 43.6 0 0 0 5.8-22.3c0-2.7-.9-4.8-2.7-6.5-1.8-1.6-4-2.5-6.5-2.8-3 0-5.3 1.2-7 3.4s-2.9 4.8-3.2 7.7v.8l-3.4-.4c.1-1.6.4-3 .8-4.5 1-3.9 3-6.8 5.7-8.9 2.8-2 6-3 9.4-3s6.9 1.3 9.8 4.2Z"/>
  <path fill="#f45b69" d="M572 107.4a40.9 40.9 0 0 1-3.6 29.8 48.3 48.3 0 0 1-13.3 16 29 29 0 0 1-29 4.5l-.8-.5c-.3-.2-.9-.3-1.6-.3h-.6c0 4.1.3 8.3.9 12.4l-6.7.8c-.8-6.2-1.2-12.5-1.2-18.8a100 100 0 0 1 9.9-45c.4-.8.6-1.6.6-2.2 0-.5-.3-1-.8-1.4-.5-.5-1.1-.7-1.7-.7-1 0-2 .6-2.8 1.9l-5.5-1.4a62 62 0 0 1 5.7-7.7 29.6 29.6 0 0 1 50.5 12.6Zm-29 31a28.4 28.4 0 0 0 11-20c0-5-1.2-8.6-3.6-10.7a11 11 0 0 0-7.2-3.2c-4.4 0-8 2.5-11 7.6a57.9 57.9 0 0 0-7 21c0 1.6 1.3 3.1 3.9 4.7a15 15 0 0 0 8 2.4c2.1 0 4.1-.6 6-1.9Z"/>
  <path fill="#f45b69" d="M568.2 184.2a8.3 8.3 0 0 1 2.7 6.5c0 8.1-2 15.6-5.8 22.3a27 27 0 0 1-22.6 12.1c-6.5 0-12.7-2.3-18.6-7a47.6 47.6 0 0 1-13.5-22.8 136.7 136.7 0 0 1-6.6-41.5c0-9.7 1.3-20 3.8-31a66 66 0 0 1 8.2-20.3l5.5 1.3a113.6 113.6 0 0 0-10.4 47.6l.4 7.4 1.2 12.9c.4 3.4 1.2 8.5 2.5 15.4.1 1.9 1 2.9 2.5 2.9h.6c1.3-.3 2-1.2 2-2.8a12.5 12.5 0 0 0-.4-4c-1-4.4-1.8-8.7-2.3-13.1l6.6-.8c1.2 9 3.7 18 7.4 26.8 3 6.5 6.8 9.7 11.4 9.7 3.1 0 5.5-1.7 7-5.2a41 41 0 0 0 1.5-7.3l.1-.8c.4-2.8 1.4-5.4 3.1-7.6s4.1-3.4 7-3.4a11 11 0 0 1 6.7 2.8Zm-40.4 20c0-.8-.4-1.6-1-2.2s-1.4-.9-2.3-1c-1 0-2 .3-2.5 1-.7.6-1 1.4-1 2.5.2 2.1 1.5 3.3 3.7 3.4 1.9 0 3-1.2 3-3.7Zm-4.1-8.3c0-.9-.3-1.6-.9-2.3a3.1 3.1 0 0 0-4.6 0c-.5.6-1 1.3-1 2.2s.4 1.6 1 2.3c.5.6 1.2 1 2 1h.4c1.8-.2 2.8-1.2 3-3.2Z"/>
  <path d="M562.4 378.4a54 54 0 0 1 1.5 8c0 5-1.3 9-4 11.6a16.7 16.7 0 0 1-10.7 4.5 15 15 0 0 1-14.1-10.6 239 239 0 0 1-4.8-21.6c-.2-1.8-1.1-2.7-3-2.7l-5 .2c-3.6.2-7.6.4-12 .4H505c-.9 0-1.5 0-1.9.3-.4.3-.6.9-.8 1.8-.5 4.4-1.1 8.7-2 13.1l-.9 6.6c0 1.7-.5 3.3-1.4 4.7-1 1.5-2.2 2.3-3.8 2.3-3.3-.2-5-2-5-5.5v-.8a401 401 0 0 0 3.3-22.5 4 4 0 0 0-1-2.5c-.6-.8-1-1.8-1-2.8a4 4 0 0 1 1.8-3.4c1.1-.8 1.8-2 1.9-3.5 4-31.7 8.5-63.3 13.5-94.6a36 36 0 0 1 5.8-15.5c3.1-4.6 7.2-7 12.2-7a15 15 0 0 1 9.7 3.5 14 14 0 0 1 5.2 9.2l3.5 19.7c2.4 12.9 4.5 25.8 6.4 38.7 2.7 21.3 6.3 42.7 10.8 64l1.1 4.4Zm-5.6 8.3c0-1-.2-2.1-.4-3.3a752 752 0 0 1-12.4-68.8 1553 1553 0 0 0-10.6-63c-1.7-5.2-4.8-7.8-9.3-7.8-3.2 0-5.6 1.2-7 3.5-1.6 2.3-2.3 5-2.3 8v2.6c0 2 .3 4 .8 6 4 18.6 7.2 37.8 9.6 57.6 1.5 9.8 4 24 7.4 42.7l1.3 7c1 6.2 2.4 12.3 4.1 18.4 2.2 4.8 5.3 7.2 9.3 7.2 2.5 0 4.7-1 6.6-2.8s2.9-4.2 2.9-7.3Zm-31.2-29c1.3 0 2-.5 2-1.4a599 599 0 0 1-6.2-37.9l-3.1-21v-.4c-.7-5.8-1.8-11.6-3.5-17.4l-3.3 23-7.3 54.5c0 .7.5 1 1.7 1 6.7 0 13.3-.2 19.7-.4Z"/>
  <path fill="#3a7ca5" d="M556.4 383.4c.2 1.2.4 2.3.4 3.3a9.6 9.6 0 0 1-9.5 10c-4 0-7.1-2.3-9.3-7-1.7-6.1-3-12.3-4-18.5l-1.4-7 4.7-.8a4 4 0 0 0 1.2 2.1 4 4 0 0 0 3 1.3c1 0 2-.4 2.7-1s1.2-1.7 1.2-2.9l-.1-.7 6.3-1.3c1.5 7.6 3 15.1 4.8 22.5Zm-10.9-8.7c.7-.6 1-1.4 1-2.3-.1-2.7-1.3-4-3.7-4-2.3.3-3.4 1.6-3.4 3.8 0 1 .5 1.7 1.1 2.4.7.7 1.5 1 2.5 1s1.9-.2 2.5-.9Z"/>
  <path fill="#3a7ca5" d="m551.6 361-6.3 1.2a4 4 0 0 0-1.1-2c-.8-1-1.7-1.3-3-1.3s-2 .3-2.8 1-1.2 1.6-1.2 2.6l.1.9-4.7.8c-3.4-18.7-5.9-32.9-7.4-42.6a664 664 0 0 0-9.6-57.7c-.5-2-.8-4-.8-6v-2.7c0-3 .7-5.6 2.2-7.9a7.9 7.9 0 0 1 7-3.5c4.6 0 7.7 2.6 9.4 7.8a1665 1665 0 0 1 10.6 63c2.1 15.7 4.7 31.2 7.6 46.3Zm-10-11.2-.1-1.6a2446 2446 0 0 1-11.6-73.8c-.6-3.5-1.2-7-2-10.5-.4-1.7-1.1-2.5-2.3-2.5-1.2.1-1.9.5-2.2 1-.3.6-.5 1.4-.5 2.3l5.8 37.3c1.7 11 4.3 27 8 48.3.3 1.7 1.2 2.6 2.7 2.6 1.5 0 2.3-1 2.3-3.1Z"/>
  <path d="M554 118.4a28.4 28.4 0 0 1-11 20 10.7 10.7 0 0 1-6 1.9 15 15 0 0 1-7.9-2.5c-2.6-1.6-3.9-3.1-3.9-4.7a57.9 57.9 0 0 1 7-21c3-5 6.6-7.6 11-7.6 2.5 0 4.9 1 7.3 3.2 2.4 2.1 3.6 5.7 3.6 10.7Zm-3.2-.4c0-2.7-.6-4.6-1.6-5.8a6 6 0 0 0-4.2-2c-1.6 0-3.1 1.1-4.7 3.2a40 40 0 0 0-7.7 18.3c.9 2.5 3 3.7 6.2 3.7 1.3 0 2.3-.3 3-1 5.5-4.3 8.4-9.8 9-16.4Zm-4.3 254.4c0 .9-.3 1.7-1 2.3-.6.6-1.4 1-2.5 1s-1.8-.4-2.5-1a5 5 0 0 1-1.1-2.5c0-2.2 1.1-3.5 3.4-3.9 2.4 0 3.6 1.4 3.7 4.1Zm-1.2-10.2v.7c0 1.2-.3 2.1-1.1 2.8s-1.7 1-2.7 1a4 4 0 0 1-3-1.2 4 4 0 0 1-1.3-3c0-1 .4-1.9 1.2-2.6s1.7-1 2.9-1 2 .4 2.9 1.2c.5.6 1 1.3 1 2Zm-3.8-14 .2 1.6c0 2-.8 3-2.3 3-1.5 0-2.4-.8-2.7-2.4-3.7-21.3-6.3-37.4-8-48.4l-5.8-37.3c0-.9.2-1.6.5-2.2.3-.6 1-1 2.2-1 1.2 0 2 .8 2.3 2.4.8 3.5 1.5 7 2 10.5 3.5 24.6 7.3 49.2 11.6 73.9ZM526.8 202c.6.6 1 1.4 1 2.3-.2 2.4-1.2 3.6-3.1 3.6-2.3 0-3.5-1.3-3.7-3.4 0-1 .3-2 1-2.6.6-.6 1.4-1 2.4-1a6 6 0 0 1 2.4 1.1Zm-.2-97.9c0 .6-.2 1.4-.6 2.1a100 100 0 0 0-9.8 45 146.5 146.5 0 0 0 3.6 33.1c.2.4.2 1.4.2 3s-.6 2.4-2 2.6h-.5c-1.5 0-2.4-1-2.5-2.9a233.7 233.7 0 0 1-3.7-28.2l-.4-7.3a113.6 113.6 0 0 1 10.4-47.7c.8-1.2 1.7-1.9 2.8-1.9.6 0 1.2.3 1.7.7.5.5.8 1 .8 1.5Zm-3.8 89.5c.6.7.9 1.4.9 2.3-.3 2-1.3 3-3 3.1h-.5c-.8 0-1.4-.3-2-1-.6-.6-.9-1.3-.9-2.2s.3-1.7.9-2.3 1.4-.8 2.4-.8 1.6.3 2.2 1Zm-32.6-51.8c0 27.2-9.3 51.3-28 72.3-12.4 14-19.8 20.9-22.2 20.9-.5 0-1 0-1.4-.2l-1.1-.4c-.6 0-1 .1-1.4.4a17 17 0 0 1-8.9 2.7c-3.2 0-6.2-1-8.9-3-4.9-4-8.2-18-9.8-42-.6-10.7-.8-21-.8-30.8l-.2-8c0-24.8 1-47.7 3-68.5.6-4.8 2.2-8.6 5-11.5 2.8-2.8 6.2-4.2 10.2-4.2 1.8 0 3.4.2 4.9.7a14.9 14.9 0 0 0 8.6 0c.9 0 2 .4 3.3 1l.7.4c31.4 12.3 47 35.7 47 70.2Zm-10 .2c0-14.3-2.9-26.4-8.6-36.3a58.8 58.8 0 0 0-28.3-23.5c-.2 0-.4-.3-.6-.5l-1.4-.2-.8.1a754.9 754.9 0 0 0-3.4 72.4c0 22.1 1.6 44.4 4.8 66.9.9-.7 4.5-4.3 10.6-10.8a95 95 0 0 0 27.7-68Zm-45 80-.4-2.8a296.7 296.7 0 0 1-4.1-35.8c-.3-11.3-.4-22.5-.4-33.7 0-21.8 1-43.5 3-65.2v-1.1c0-2.6-.9-4.8-2.8-6.6a9.4 9.4 0 0 0-6.6-2.7c-3.5 0-6 1.4-7.6 4.2a26.1 26.1 0 0 0-3.1 10.4 166 166 0 0 0-.9 13l-.2 5.1a519 519 0 0 0-1.2 35.6v27.3a282.4 282.4 0 0 0 5 53.8c1.8 5.8 5 8.8 9.8 8.8l2-.2c5-1.7 7.4-5 7.4-10Z"/>
  <path fill="#f2e863" d="m434.8 219.2.3 2.9c0 5-2.4 8.3-7.3 10l-2.1.2c-4.8 0-8-3-9.7-9a286.3 286.3 0 0 1-4.5-35.6l5.7-.3c0 1 .5 2 1.3 2.8.8.9 1.7 1.3 3 1.3l.2 3.1c-.8.2-1.5.6-2.1 1.1-.9.8-1.3 1.8-1.3 3s.4 2 1.3 3c.8.8 1.8 1.2 3 1.2s2-.4 2.9-1.2a4 4 0 0 0 1.1-2.9l5.3-.5c.7 7 1.6 13.9 2.9 20.9Z"/>
  <path fill="#f2e863" d="M433.4 83.4v1.1a692 692 0 0 0-3.1 65.2c0 11.2.1 22.5.4 33.7.3 5 .6 10 1.2 14.9l-5.3.5c0-2.8-1.5-4.2-4-4.2h-.9l-.2-3.1c1.2 0 2.2-.4 3-1.3.6-.8 1-1.7 1-2.8 0-1.1-.4-2.1-1.2-3a3.6 3.6 0 0 0-2.7-1.2c-1.3 0-2.4.4-3.2 1.1a4 4 0 0 0-1.2 3.1l-5.7.3c-.4-6-.5-12-.5-18v-27.3c0-12.4.4-24.2 1.1-35.6l.2-5c.1-4.6.4-9 .9-13a26 26 0 0 1 3-10.5 8.3 8.3 0 0 1 7.7-4.2c2.5 0 4.7 1 6.6 2.7 2 1.8 2.9 4 2.9 6.6Zm-8.5 24.6c.5-3 .8-6 1-9.1 0-2-1-3-3-3.1-1.1 0-1.8.3-2.2 1a16 16 0 0 0-.8 3l-.2 1.6a433.4 433.4 0 0 0-1.8 74c0 2.4 1 3.5 3.1 3.5 1.7-.4 2.5-1.4 2.5-3l-.2-9c-.2-6.4-.4-12.6-.4-18.5 0-13.6.7-27 2-40.5Z"/>
  <path d="M426.6 198.8a4 4 0 0 1-4 4.1 4.2 4.2 0 0 1-4.3-4.3c0-1.1.4-2 1.3-2.8a4.4 4.4 0 0 1 3-1.2c2.5 0 3.9 1.4 4 4.2Zm-.7-99.9a425.3 425.3 0 0 0-2.5 68l.1 9c0 1.6-.8 2.6-2.5 3-2 0-3-1.1-3-3.4a431 431 0 0 1 1.7-74.1l.2-1.6c.2-1.2.5-2.2.8-3 .4-.7 1-1 2.3-1 1.9.1 2.9 1.1 2.9 3Zm-.4 88.5c0 1-.4 2-1 2.8-.8.9-1.8 1.3-3 1.3-1.3 0-2.2-.4-3-1.3a5 5 0 0 1-1.3-2.8 4 4 0 0 1 1.2-3c.8-.8 2-1.2 3.2-1.2 1 0 2 .4 2.7 1.2.8.9 1.2 1.9 1.2 3Z"/>
</svg>
