<?xml version="1.0" encoding="UTF-8"?><svg id="a" xmlns="http://www.w3.org/2000/svg" xmlns:xlink="http://www.w3.org/1999/xlink" viewBox="0 0 1536 1024"><defs><filter id="b" filterUnits="userSpaceOnUse"><feOffset dx="4" dy="4"/><feGaussianBlur result="c" stdDeviation="0"/><feFlood flood-color="#fff" flood-opacity="1"/><feComposite in2="c" operator="in"/><feComposite in="SourceGraphic"/></filter><filter id="d" filterUnits="userSpaceOnUse"><feOffset dx="4" dy="4"/><feGaussianBlur result="e" stdDeviation="0"/><feFlood flood-color="#fff" flood-opacity="1"/><feComposite in2="e" operator="in"/><feComposite in="SourceGraphic"/></filter></defs><g style="filter:url(#b);"><path d="m507.23,642.13c0,7.8-1.55,14.36-4.64,19.67-3.1,5.31-7.2,9.58-12.31,12.81-5.11,3.23-10.93,5.55-17.45,6.96-6.52,1.41-13.21,2.12-20.07,2.12h-56.89v-142.83h56.89c5.51,0,11.16.57,16.95,1.71,5.78,1.14,11.03,3.09,15.73,5.85,4.71,2.76,8.54,6.49,11.5,11.2,2.96,4.71,4.44,10.69,4.44,17.95,0,7.94-2.15,14.49-6.46,19.67-4.31,5.18-9.95,8.91-16.95,11.2v.4c4.03.67,7.83,1.92,11.4,3.73,3.56,1.82,6.66,4.14,9.28,6.96s4.71,6.12,6.25,9.88c1.54,3.77,2.32,8,2.32,12.71Zm-39.14-59.91c0-4.84-1.85-8.37-5.55-10.59-3.7-2.22-9.18-3.33-16.44-3.33h-16.95v29.45h18.56c6.46,0,11.46-1.31,15.03-3.93,3.56-2.62,5.35-6.49,5.35-11.6Zm4.64,56.69c0-5.92-2.22-10.02-6.66-12.31-4.44-2.29-10.36-3.43-17.75-3.43h-19.16v32.68h19.37c2.69,0,5.48-.23,8.37-.71,2.89-.47,5.51-1.31,7.87-2.52,2.35-1.21,4.27-2.92,5.75-5.14,1.48-2.22,2.22-5.07,2.22-8.57Z" style="fill:#44bba4; stroke-width:0px;"/><path d="m526.8,596.94c5.92-5.65,12.81-9.88,20.68-12.71,7.87-2.82,15.9-4.24,24.11-4.24s15.63,1.04,21.48,3.13c5.85,2.09,10.59,5.31,14.22,9.68,3.63,4.37,6.29,9.88,7.97,16.54,1.68,6.66,2.52,14.56,2.52,23.7v50.63h-30.26v-10.69h-.6c-2.56,4.17-6.42,7.4-11.6,9.68-5.18,2.29-10.79,3.43-16.84,3.43-4.03,0-8.2-.54-12.51-1.61-4.31-1.07-8.24-2.82-11.8-5.25-3.57-2.42-6.49-5.65-8.78-9.68-2.29-4.03-3.43-9.01-3.43-14.93,0-7.26,1.98-13.11,5.95-17.55,3.97-4.44,9.08-7.87,15.33-10.29,6.25-2.42,13.21-4.04,20.88-4.84s15.13-1.21,22.39-1.21v-1.61c0-4.97-1.75-8.64-5.24-10.99-3.5-2.35-7.8-3.53-12.91-3.53-4.71,0-9.25,1.01-13.62,3.03-4.37,2.02-8.1,4.44-11.2,7.26l-16.74-17.95Zm60.72,42.97h-4.24c-3.63,0-7.3.17-10.99.5-3.7.34-6.99.98-9.88,1.92-2.89.94-5.28,2.32-7.16,4.13-1.88,1.82-2.82,4.21-2.82,7.16,0,1.88.44,3.5,1.31,4.84.87,1.35,1.98,2.42,3.33,3.23,1.34.81,2.89,1.38,4.64,1.71,1.75.34,3.43.5,5.04.5,6.72,0,11.87-1.85,15.43-5.55,3.56-3.7,5.35-8.71,5.35-15.03v-3.43Z" style="fill:#44bba4; stroke-width:0px;"/><path d="m707.55,610.46c-1.48-.4-2.93-.67-4.34-.81-1.41-.13-2.79-.2-4.14-.2-4.44,0-8.17.81-11.2,2.41-3.03,1.61-5.45,3.56-7.26,5.83-1.82,2.28-3.13,4.76-3.93,7.45s-1.21,5.03-1.21,7.04v51.5h-33.08v-100.34h31.87v14.52h.4c2.55-5.14,6.18-9.34,10.89-12.59,4.71-3.25,10.15-4.88,16.34-4.88,1.34,0,2.65.07,3.93.2,1.28.14,2.32.34,3.13.6l-1.41,29.25Z" style="fill:#44bba4; stroke-width:0px;"/><path d="m787.43,610.46c-1.48-.4-2.93-.67-4.34-.81-1.41-.13-2.79-.2-4.14-.2-4.44,0-8.17.81-11.2,2.41-3.03,1.61-5.45,3.56-7.26,5.83-1.82,2.28-3.13,4.76-3.93,7.45-.81,2.68-1.21,5.03-1.21,7.04v51.5h-33.08v-100.34h31.87v14.52h.4c2.55-5.14,6.18-9.34,10.89-12.59,4.71-3.25,10.15-4.88,16.34-4.88,1.34,0,2.65.07,3.93.2,1.28.14,2.32.34,3.13.6l-1.41,29.25Z" style="fill:#44bba4; stroke-width:0px;"/><path d="m797.52,596.94c5.92-5.65,12.81-9.88,20.68-12.71s15.9-4.24,24.11-4.24,15.63,1.04,21.48,3.13c5.85,2.09,10.59,5.31,14.22,9.68,3.63,4.37,6.29,9.88,7.97,16.54,1.68,6.66,2.52,14.56,2.52,23.7v50.63h-30.26v-10.69h-.61c-2.56,4.17-6.42,7.4-11.6,9.68-5.18,2.29-10.79,3.43-16.84,3.43-4.03,0-8.2-.54-12.51-1.61-4.31-1.07-8.24-2.82-11.8-5.25-3.56-2.42-6.49-5.65-8.78-9.68-2.29-4.03-3.43-9.01-3.43-14.93,0-7.26,1.98-13.11,5.95-17.55,3.97-4.44,9.08-7.87,15.33-10.29s13.21-4.04,20.88-4.84c7.67-.81,15.13-1.21,22.39-1.21v-1.61c0-4.97-1.75-8.64-5.25-10.99-3.5-2.35-7.8-3.53-12.91-3.53-4.71,0-9.25,1.01-13.62,3.03-4.37,2.02-8.1,4.44-11.2,7.26l-16.74-17.95Zm60.72,42.97h-4.24c-3.63,0-7.3.17-10.99.5-3.7.34-6.99.98-9.88,1.92-2.89.94-5.28,2.32-7.16,4.13-1.89,1.82-2.82,4.21-2.82,7.16,0,1.88.43,3.5,1.31,4.84.87,1.35,1.98,2.42,3.33,3.23,1.34.81,2.89,1.38,4.64,1.71,1.75.34,3.43.5,5.04.5,6.72,0,11.87-1.85,15.43-5.55,3.56-3.7,5.35-8.71,5.35-15.03v-3.43Z" style="fill:#44bba4; stroke-width:0px;"/><path d="m989.16,683.69v-13.11h-.4c-3.23,5.11-7.84,9.05-13.82,11.8-5.99,2.75-12.34,4.14-19.06,4.14-7.53,0-14.26-1.48-20.17-4.44-5.92-2.96-10.93-6.89-15.03-11.8-4.1-4.91-7.23-10.59-9.38-17.05-2.15-6.46-3.23-13.18-3.23-20.17s1.11-13.68,3.33-20.07c2.22-6.39,5.38-12,9.48-16.84,4.1-4.84,9.08-8.67,14.93-11.5s12.41-4.24,19.67-4.24,13.65,1.41,18.76,4.24c5.11,2.82,9.08,5.92,11.9,9.28h.4v-62.74h33.08v152.51h-30.46Zm-1.21-50.43c0-3.23-.57-6.39-1.71-9.48-1.14-3.09-2.76-5.85-4.84-8.27-2.09-2.42-4.61-4.37-7.56-5.85-2.96-1.48-6.32-2.22-10.09-2.22s-7.33.74-10.29,2.22c-2.96,1.48-5.45,3.4-7.46,5.75-2.02,2.35-3.53,5.08-4.54,8.17-1.01,3.09-1.51,6.25-1.51,9.48s.5,6.42,1.51,9.58c1.01,3.16,2.52,5.95,4.54,8.37,2.02,2.42,4.5,4.37,7.46,5.85,2.96,1.48,6.39,2.22,10.29,2.22s7.13-.74,10.09-2.22c2.96-1.48,5.48-3.43,7.56-5.85,2.08-2.42,3.7-5.18,4.84-8.27,1.14-3.09,1.71-6.25,1.71-9.48Z" style="fill:#44bba4; stroke-width:0px;"/><path d="m1152.36,633.05c0,8.21-1.48,15.63-4.44,22.29-2.96,6.66-6.99,12.31-12.1,16.95-5.11,4.64-11.03,8.24-17.75,10.79-6.73,2.55-13.92,3.83-21.58,3.83s-14.69-1.28-21.48-3.83c-6.79-2.55-12.71-6.15-17.75-10.79-5.04-4.64-9.05-10.29-12-16.95-2.96-6.66-4.44-14.09-4.44-22.29s1.48-15.6,4.44-22.19c2.96-6.59,6.96-12.17,12-16.74,5.04-4.57,10.96-8.07,17.75-10.49,6.79-2.42,13.95-3.63,21.48-3.63s14.86,1.21,21.58,3.63c6.72,2.42,12.64,5.92,17.75,10.49,5.11,4.57,9.14,10.16,12.1,16.74,2.96,6.59,4.44,13.99,4.44,22.19Zm-31.87,0c0-3.23-.54-6.39-1.61-9.48-1.08-3.09-2.62-5.82-4.64-8.17-2.02-2.35-4.51-4.27-7.46-5.75-2.96-1.48-6.39-2.22-10.29-2.22s-7.33.74-10.29,2.22c-2.96,1.48-5.42,3.4-7.36,5.75-1.95,2.35-3.43,5.08-4.44,8.17-1.01,3.09-1.51,6.25-1.51,9.48s.5,6.39,1.51,9.48c1.01,3.1,2.52,5.88,4.54,8.37,2.02,2.49,4.5,4.47,7.46,5.95,2.96,1.48,6.39,2.22,10.29,2.22s7.33-.74,10.29-2.22c2.96-1.48,5.45-3.46,7.46-5.95,2.02-2.49,3.53-5.28,4.54-8.37,1.01-3.09,1.51-6.25,1.51-9.48Z" style="fill:#44bba4; stroke-width:0px;"/><path d="m1232.45,612.88c-2.69-2.55-5.85-4.71-9.48-6.46-3.63-1.75-7.46-2.62-11.5-2.62-3.1,0-5.95.6-8.57,1.82-2.62,1.21-3.93,3.3-3.93,6.25s1.44,4.84,4.34,6.05c2.89,1.21,7.56,2.56,14.02,4.03,3.76.81,7.56,1.95,11.4,3.43,3.83,1.48,7.29,3.43,10.39,5.85,3.09,2.42,5.58,5.38,7.46,8.88,1.88,3.5,2.82,7.67,2.82,12.51,0,6.32-1.28,11.67-3.83,16.04-2.56,4.37-5.88,7.9-9.99,10.59-4.1,2.69-8.71,4.64-13.82,5.85-5.11,1.21-10.22,1.82-15.33,1.82-8.2,0-16.24-1.31-24.11-3.93s-14.42-6.49-19.67-11.6l18.56-19.57c2.96,3.23,6.59,5.92,10.89,8.07,4.3,2.15,8.88,3.23,13.72,3.23,2.69,0,5.35-.64,7.97-1.92,2.62-1.28,3.93-3.53,3.93-6.76s-1.61-5.38-4.84-6.86c-3.23-1.48-8.27-3.03-15.13-4.64-3.5-.81-6.99-1.88-10.49-3.23-3.5-1.34-6.63-3.16-9.38-5.45-2.76-2.29-5.01-5.11-6.76-8.47-1.75-3.36-2.62-7.39-2.62-12.1,0-6.05,1.28-11.2,3.83-15.43,2.55-4.24,5.85-7.7,9.88-10.39,4.03-2.69,8.5-4.67,13.42-5.95,4.91-1.28,9.78-1.92,14.63-1.92,7.53,0,14.89,1.18,22.09,3.53,7.19,2.35,13.28,5.88,18.26,10.59l-18.16,18.76Z" style="fill:#44bba4; stroke-width:0px;"/><path d="m420.49,925.76l-11.1-28.04h-55.27l-10.49,28.04h-37.52l59.91-142.83h33.49l59.31,142.83h-38.33Zm-38.33-104.7l-18.16,49.02h35.91l-17.75-49.02Z" style="fill:#44bba4; stroke-width:0px;"/><path d="m469.31,925.76v-152.51h33.69v152.51h-33.69Z" style="fill:#44bba4; stroke-width:0px;"/><path d="m591.35,797.67c-1.21-.4-2.62-.74-4.24-1.01-1.61-.27-3.23-.4-4.84-.4-3.1,0-5.58.54-7.46,1.61-1.88,1.08-3.36,2.52-4.44,4.34-1.08,1.82-1.82,3.87-2.22,6.15-.4,2.29-.6,4.57-.6,6.86v10.09h22.39v24.61h-22.39v75.85h-33.08v-75.85h-18.36v-24.61h18.36v-9.68c0-6.18.67-12.07,2.02-17.65,1.34-5.58,3.66-10.49,6.96-14.73,3.29-4.24,7.73-7.6,13.31-10.09,5.58-2.49,12.54-3.73,20.88-3.73,2.82,0,5.61.17,8.37.5,2.75.34,5.28.84,7.56,1.51l-2.22,26.23Z" style="fill:#44bba4; stroke-width:0px;"/><path d="m601.03,839.02c5.92-5.65,12.81-9.88,20.68-12.71s15.9-4.24,24.11-4.24,15.63,1.04,21.48,3.13c5.85,2.09,10.59,5.31,14.22,9.68,3.63,4.37,6.29,9.88,7.97,16.54,1.68,6.66,2.52,14.56,2.52,23.7v50.63h-30.26v-10.69h-.61c-2.56,4.17-6.42,7.4-11.6,9.68-5.18,2.29-10.79,3.43-16.84,3.43-4.03,0-8.2-.54-12.51-1.61-4.31-1.07-8.24-2.82-11.8-5.25-3.56-2.42-6.49-5.65-8.78-9.68-2.29-4.03-3.43-9.01-3.43-14.93,0-7.26,1.98-13.11,5.95-17.55,3.97-4.44,9.08-7.87,15.33-10.29s13.21-4.04,20.88-4.84,15.13-1.21,22.39-1.21v-1.61c0-4.97-1.75-8.64-5.24-10.99-3.5-2.35-7.8-3.53-12.91-3.53-4.71,0-9.25,1.01-13.62,3.03-4.37,2.02-8.1,4.44-11.2,7.26l-16.74-17.95Zm59.51-28.65l-13.72-16.34-13.72,16.34h-25.82l25.01-29.05h29.86l24.61,29.05h-26.23Zm1.21,71.61h-4.24c-3.63,0-7.3.17-10.99.5-3.7.34-6.99.98-9.88,1.92-2.89.94-5.28,2.32-7.16,4.13-1.89,1.82-2.82,4.21-2.82,7.16,0,1.88.43,3.5,1.31,4.84.87,1.35,1.98,2.42,3.33,3.23,1.34.81,2.89,1.38,4.64,1.71,1.75.34,3.43.5,5.04.5,6.72,0,11.87-1.85,15.43-5.55,3.56-3.7,5.35-8.71,5.35-15.03v-3.43Z" style="fill:#44bba4; stroke-width:0px;"/><path d="m782.59,925.76v-54.87c0-2.82-.24-5.51-.71-8.07-.47-2.55-1.24-4.81-2.32-6.76-1.08-1.95-2.59-3.5-4.54-4.64-1.95-1.14-4.41-1.71-7.36-1.71s-5.55.57-7.77,1.71c-2.22,1.14-4.07,2.72-5.55,4.74-1.48,2.02-2.59,4.34-3.33,6.96-.74,2.62-1.11,5.35-1.11,8.17v54.47h-33.29v-100.46h32.08v13.92h.4c1.21-2.15,2.79-4.27,4.74-6.35,1.95-2.08,4.24-3.87,6.86-5.35,2.62-1.48,5.48-2.69,8.57-3.63,3.09-.94,6.39-1.41,9.88-1.41,6.72,0,12.44,1.21,17.15,3.63,4.71,2.42,8.5,5.55,11.4,9.38,2.89,3.83,4.97,8.24,6.25,13.21,1.28,4.98,1.92,9.95,1.92,14.93v62.13h-33.29Z" style="fill:#44bba4; stroke-width:0px;"/><path d="m916.94,925.76v-13.11h-.4c-3.23,5.11-7.84,9.05-13.82,11.8-5.99,2.75-12.34,4.14-19.06,4.14-7.53,0-14.26-1.48-20.17-4.44-5.92-2.96-10.93-6.89-15.03-11.8-4.1-4.91-7.23-10.59-9.38-17.05-2.15-6.46-3.23-13.18-3.23-20.17s1.11-13.68,3.33-20.07c2.22-6.39,5.38-12,9.48-16.84,4.1-4.84,9.08-8.67,14.93-11.5,5.85-2.82,12.41-4.24,19.67-4.24s13.65,1.41,18.76,4.24c5.11,2.82,9.08,5.92,11.9,9.28h.4v-62.74h33.08v152.51h-30.46Zm-1.21-50.43c0-3.23-.57-6.39-1.71-9.48-1.14-3.09-2.76-5.85-4.84-8.27-2.09-2.42-4.61-4.37-7.56-5.85-2.96-1.48-6.32-2.22-10.09-2.22s-7.33.74-10.29,2.22c-2.96,1.48-5.45,3.4-7.46,5.75-2.02,2.35-3.53,5.08-4.54,8.17-1.01,3.09-1.51,6.25-1.51,9.48s.5,6.42,1.51,9.58c1.01,3.16,2.52,5.95,4.54,8.37,2.02,2.42,4.5,4.37,7.46,5.85,2.96,1.48,6.39,2.22,10.29,2.22s7.13-.74,10.09-2.22c2.96-1.48,5.48-3.43,7.56-5.85,2.08-2.42,3.7-5.18,4.84-8.27,1.14-3.09,1.71-6.25,1.71-9.48Z" style="fill:#44bba4; stroke-width:0px;"/><path d="m1073.28,876.74v4.03c0,1.35-.07,2.62-.2,3.83h-72.82c.27,2.82,1.11,5.38,2.52,7.67,1.41,2.29,3.23,4.27,5.45,5.95,2.22,1.68,4.71,2.99,7.46,3.93,2.75.94,5.61,1.41,8.57,1.41,5.25,0,9.68-.97,13.31-2.92,3.63-1.95,6.59-4.47,8.88-7.57l23,14.53c-4.71,6.86-10.93,12.14-18.66,15.83-7.74,3.7-16.71,5.55-26.93,5.55-7.53,0-14.66-1.18-21.38-3.53-6.73-2.35-12.61-5.78-17.65-10.29-5.04-4.5-9.01-10.05-11.9-16.64-2.89-6.59-4.34-14.12-4.34-22.59s1.41-15.63,4.24-22.29c2.82-6.66,6.66-12.31,11.5-16.95,4.84-4.64,10.56-8.24,17.15-10.79,6.59-2.55,13.72-3.83,21.38-3.83s14.19,1.25,20.38,3.73c6.18,2.49,11.5,6.09,15.94,10.79,4.44,4.71,7.9,10.42,10.39,17.15,2.49,6.73,3.73,14.39,3.73,23Zm-30.46-12.71c0-5.25-1.65-9.75-4.94-13.52-3.3-3.76-8.24-5.65-14.83-5.65-3.23,0-6.19.5-8.88,1.51-2.69,1.01-5.04,2.39-7.06,4.14-2.02,1.75-3.63,3.8-4.84,6.15-1.21,2.35-1.89,4.81-2.02,7.36h42.57Z" style="fill:#44bba4; stroke-width:0px;"/><path d="m1200.37,916.28c0,9.82-1.41,18.36-4.24,25.62-2.82,7.26-6.79,13.28-11.9,18.05-5.11,4.77-11.33,8.34-18.66,10.69-7.33,2.35-15.43,3.53-24.31,3.53s-17.99-1.35-27.33-4.03c-9.35-2.69-17.45-6.59-24.31-11.7l16.54-23.6c4.84,4.3,10.19,7.5,16.04,9.58,5.85,2.08,11.6,3.13,17.25,3.13,9.68,0,16.84-2.56,21.48-7.67,4.64-5.11,6.96-11.9,6.96-20.38v-6.05h-.61c-3.1,4.04-7.26,7.26-12.51,9.68-5.25,2.42-11.23,3.63-17.95,3.63-7.67,0-14.46-1.38-20.38-4.14-5.92-2.75-10.93-6.49-15.03-11.2-4.1-4.71-7.23-10.19-9.38-16.44-2.15-6.25-3.23-12.88-3.23-19.87s1.07-13.65,3.23-19.97c2.15-6.32,5.28-11.9,9.38-16.74,4.1-4.84,9.11-8.71,15.03-11.6,5.92-2.89,12.64-4.34,20.17-4.34,6.32,0,12.37,1.28,18.16,3.83,5.78,2.56,10.42,6.52,13.92,11.9h.4v-12.91h31.27v90.98Zm-31.47-41.35c0-3.36-.57-6.59-1.71-9.68-1.14-3.09-2.79-5.82-4.94-8.17-2.15-2.35-4.71-4.2-7.67-5.55-2.96-1.34-6.32-2.02-10.09-2.02s-7.1.67-9.99,2.02c-2.89,1.35-5.35,3.16-7.36,5.45-2.02,2.29-3.56,4.98-4.64,8.07-1.08,3.09-1.61,6.39-1.61,9.88s.54,6.59,1.61,9.68c1.07,3.1,2.62,5.82,4.64,8.17,2.02,2.36,4.47,4.24,7.36,5.65,2.89,1.41,6.22,2.12,9.99,2.12s7.16-.71,10.19-2.12c3.03-1.41,5.58-3.26,7.67-5.55,2.08-2.29,3.7-4.97,4.84-8.07,1.14-3.09,1.71-6.39,1.71-9.88Z" style="fill:#44bba4; stroke-width:0px;"/><path d="m1225.18,839.02c5.92-5.65,12.81-9.88,20.68-12.71,7.87-2.82,15.9-4.24,24.11-4.24s15.63,1.04,21.48,3.13c5.85,2.09,10.59,5.31,14.22,9.68,3.63,4.37,6.29,9.88,7.97,16.54,1.68,6.66,2.52,14.56,2.52,23.7v50.63h-30.26v-10.69h-.61c-2.56,4.17-6.42,7.4-11.6,9.68-5.18,2.29-10.79,3.43-16.84,3.43-4.03,0-8.2-.54-12.51-1.61-4.31-1.07-8.24-2.82-11.8-5.25-3.56-2.42-6.49-5.65-8.78-9.68-2.29-4.03-3.43-9.01-3.43-14.93,0-7.26,1.98-13.11,5.95-17.55,3.97-4.44,9.08-7.87,15.33-10.29,6.25-2.42,13.21-4.04,20.88-4.84s15.13-1.21,22.39-1.21v-1.61c0-4.97-1.75-8.64-5.25-10.99-3.5-2.35-7.8-3.53-12.91-3.53-4.71,0-9.25,1.01-13.62,3.03-4.37,2.02-8.1,4.44-11.2,7.26l-16.74-17.95Zm60.72,42.97h-4.24c-3.63,0-7.3.17-10.99.5-3.7.34-6.99.98-9.89,1.92-2.89.94-5.28,2.32-7.16,4.13-1.89,1.82-2.82,4.21-2.82,7.16,0,1.88.43,3.5,1.31,4.84.87,1.35,1.98,2.42,3.33,3.23,1.34.81,2.89,1.38,4.64,1.71,1.75.34,3.43.5,5.04.5,6.72,0,11.87-1.85,15.43-5.55,3.56-3.7,5.35-8.71,5.35-15.03v-3.43Z" style="fill:#44bba4; stroke-width:0px;"/></g><g style="filter:url(#d);"><path d="m770.98,784.9l10.57-40.25c.54-2.07.89-4.09,1.04-6.05.14-1.96.01-3.77-.4-5.4-.42-1.64-1.23-3.06-2.44-4.28-1.21-1.21-2.9-2.11-5.07-2.68-2.17-.57-4.18-.65-6.03-.24-1.85.41-3.51,1.21-4.98,2.41-1.48,1.2-2.74,2.68-3.78,4.46-1.05,1.78-1.84,3.71-2.39,5.78l-10.49,39.95-24.41-6.41,19.34-73.69,23.53,6.18-2.68,10.21.3.08c1.3-1.34,2.87-2.59,4.7-3.75,1.83-1.15,3.85-2.02,6.06-2.6,2.21-.58,4.54-.92,6.99-1.01,2.45-.09,4.96.19,7.52.87,4.93,1.29,8.89,3.28,11.88,5.96,2.99,2.68,5.17,5.71,6.55,9.07,1.38,3.37,2.06,7,2.04,10.9-.02,3.9-.51,7.67-1.47,11.32l-11.96,45.57-24.41-6.41Z" style="fill:#f45b69; stroke-width:0px;"/><path d="m829.41,732.23c5.43-3,11.3-4.78,17.61-5.34,6.31-.56,12.48-.05,18.5,1.53,6.21,1.63,11.27,3.78,15.16,6.43,3.89,2.66,6.75,5.94,8.57,9.84,1.82,3.91,2.71,8.46,2.66,13.67-.05,5.21-.95,11.17-2.71,17.87l-9.75,37.14-22.19-5.83,2.06-7.84-.44-.12c-2.68,2.57-6.14,4.19-10.37,4.87-4.24.68-8.58.44-13.02-.73-2.96-.78-5.91-1.98-8.86-3.59-2.95-1.62-5.5-3.66-7.65-6.12-2.15-2.46-3.67-5.39-4.57-8.79-.9-3.4-.78-7.27.36-11.61,1.4-5.33,3.98-9.24,7.74-11.73,3.76-2.49,8.17-4.02,13.23-4.59,5.05-.57,10.47-.42,16.25.47,5.78.88,11.33,2.03,16.66,3.42l.31-1.18c.96-3.65.38-6.67-1.73-9.07-2.11-2.4-5.04-4.09-8.79-5.08-3.45-.91-6.98-1.04-10.57-.4-3.6.64-6.8,1.7-9.61,3.17l-8.82-16.39Zm36.26,43.21l-3.11-.82c-2.66-.7-5.39-1.28-8.16-1.75-2.78-.46-5.32-.63-7.62-.5-2.3.13-4.32.69-6.05,1.66-1.73.97-2.88,2.54-3.45,4.71-.36,1.38-.35,2.65.03,3.8.38,1.16.99,2.16,1.82,3.01.83.85,1.85,1.57,3.07,2.15,1.22.58,2.42,1.03,3.6,1.34,4.93,1.29,9.06.93,12.39-1.1,3.32-2.03,5.6-5.36,6.81-9.99l.66-2.52Z" style="fill:#f45b69; stroke-width:0px;"/></g></svg>