<?xml version="1.0" encoding="UTF-8"?><svg id="a" xmlns="http://www.w3.org/2000/svg" xmlns:xlink="http://www.w3.org/1999/xlink" viewBox="0 0 1536 1024"><defs><filter id="b" filterUnits="userSpaceOnUse"><feOffset dx="8.25" dy="8.25"/><feGaussianBlur result="c" stdDeviation="0"/><feFlood flood-color="#3a7ca5" flood-opacity="1"/><feComposite in2="c" operator="in"/><feComposite in="SourceGraphic"/></filter></defs><g style="filter:url(#b);"><path d="m285.19,542.87c-.61,0-.95,0-1.21-.09-.35-.09-2.86-.78-5.89-1.39-16.21-3.73-29.12-14.91-38.74-33.54-2.6-4.94-4.59-9.36-5.98-13.26s-2.6-8.49-3.73-13.78c-2.51-12.57-3.81-24.61-3.81-36.14,0-9.27.78-18.11,2.43-26.69,3.73-19.33,11.09-34.58,22.19-45.94,8.93-9.19,19.07-13.78,30.33-13.78h1.04c9.62,0,19.15,3.9,28.69,11.61,11.18,9.53,17.68,22.27,19.5,38.31.17,1.82.26,3.29.26,4.51,0,2.86-.87,4.25-2.6,4.25-2.17,0-4.85-1.21-8.06-3.55-1.65-1.13-2.86-2.34-3.47-3.47-.43-.78-1.21-3.38-2.34-7.8-1.82-7.02-3.99-12.74-6.41-16.99-2.34-4.25-4.51-6.41-6.33-6.41-2.43.43-5.29,2.34-8.49,5.89-7.54,8.15-12.83,20.8-15.95,38.05-1.39,8.67-2.08,20.71-2.08,36.23s1.47,29.38,4.42,43.85c1.65,7.89,3.38,14.04,5.2,18.29l1.82,4.07,5.81-6.07c8.32-8.41,14.73-20.71,19.15-36.75,2.08-7.02,3.55-10.92,4.33-11.7.61-.61,1.65-.95,3.12-.95,1.21,0,2.51.26,3.81.69,2.51.78,4.59,2.17,6.24,4.07.26.43.43.87.43,1.47,0,1.65-.61,5.37-1.91,11.01-2.25,9.62-4.25,16.99-5.89,22.27-.61,2.25-2.51,6.67-5.55,13.17-3.38,7.19-7.02,12.39-10.75,15.43-3.73,3.12-8.41,4.77-14.04,5.03l-5.55.09Zm-44.63-86.15c2.34-.09,2.77-.26,2.77-3.99,0-3.29-1.65-4.94-5.03-4.94l-3.73.26.09,3.12c.09,3.73,1.82,5.55,5.12,5.55h.78Zm4.33-24.44c0-2.69.95-7.63,2.86-14.99s4.16-14.56,6.67-21.75c1.65-4.59,2.51-7.63,2.51-9.1,0-2.17-.95-3.12-5.03-3.12-2.6,0-5.37,3.38-8.41,10.14-2.95,6.33-5.03,12.65-6.15,18.98s-1.65,11.01-1.65,14.13c0,2.34.26,4.33.69,5.89.95,2.08,2.69,3.12,5.2,3.12,2.17,0,3.29-1.13,3.29-3.29Z" style="fill:#f45b69; stroke-width:0px;"/><path d="m349.06,507.77c-5.63-11.09-8.49-23.83-8.49-38.22,0-13.26,1.82-25.05,5.37-35.36,4.25-12.48,10.4-21.23,18.29-26.17,1.65-.95,3.12-1.82,4.59-2.51,4.25-1.99,5.2-2.69,5.2-4.16,0-3.9,3.55-5.89,10.66-5.89,2.34,0,4.85.43,7.37,1.21,2.43.95,5.81,3.03,10.23,6.41,3.55,2.77,6.67,4.85,9.45,6.33,2.77,1.39,6.67,2.86,11.79,4.33,11.53,3.47,15.51,6.07,15.51,9.88,0,1.73-.61,2.43-3.03,3.73-2.6,1.47-3.9,1.56-9.88,1.56s-9.01.09-9.01.26.43,1.13,1.39,2.86c2.08,4.07,4.16,10.75,6.15,19.93,1.47,6.5,2.17,13.26,2.17,20.11,0,14.47-2.86,27.73-8.58,39.78-4.42,9.88-11.61,15.69-21.49,17.51-3.21.61-6.85.95-10.92.95-16.99,0-29.21-7.54-36.75-22.53Zm10.14-34.58c0-3.9-1.73-5.81-5.2-5.81-1.65,0-2.51.69-2.51,2.08,0,1.13.43,2.43,1.39,4.07,1.13,1.99,2.34,3.03,3.73,3.03,1.73,0,2.6-1.13,2.6-3.38Zm.17-17.59c.61-1.39,1.91-4.94,3.73-10.57,2.51-7.89,4.68-14.13,6.41-18.55,1.47-3.81,2.25-6.15,2.25-7.11,0-.78-.35-1.56-1.04-2.17-.78-.87-1.82-1.3-3.12-1.3-3.38,0-6.5,3.55-9.36,10.66-3.73,9.1-5.11,17.59-5.11,22.01,0,1.47.09,2.77.35,3.9.95,3.9,1.82,5.11,3.9,5.11.78,0,1.39-.69,1.99-1.99Zm39.69,45.85c4.42-9.19,6.59-18.81,6.59-28.95,0-6.85-1.13-14.13-3.38-22.01-2.43-8.58-4.07-12.83-4.85-12.83-.87,0-2.17,4.16-3.99,12.48-1.99,9.45-3.03,18.46-3.03,26.95,0,7.37.78,14.39,2.25,20.97,1.47,5.81,2.34,8.75,2.69,8.75.69,0,1.91-1.82,3.73-5.37Z" style="fill:#f45b69; stroke-width:0px;"/><path d="m544.93,538.54c-8.23-1.99-13.26-5.2-15.08-9.62-1.47-3.38-2.17-12.48-2.17-27.3,0-13.26.61-31.2,1.73-53.65.43-7.71.61-13.26.61-16.64,0-.69-.09-2.25-.26-4.59l-3.81,5.98c-8.23,13.26-17.25,32.41-27.04,57.29-4.59,11.79-7.54,18.98-8.67,21.49-2.08,4.85-3.29,7.89-3.64,9.19-1.13,3.9-4.07,5.03-11.01,5.03-3.38,0-5.89-.09-7.37-.35s-2.86-.69-4.25-1.3c-2.17-.95-3.99-2.08-5.29-3.38-1.3-1.3-2.69-3.29-4.33-5.98s-2.86-5.63-3.81-8.67c-.96-3.12-1.99-8.23-3.21-15.34-1.82-10.92-2.77-21.06-2.77-30.33,0-4.94.26-9.71.78-14.21,1.56-13,4.94-21.49,10.14-25.57,3.12-1.99,7.02-3.03,11.7-3.03,4.68.09,9.36,1.13,13.95,3.29,2.95,1.3,5.03,2.95,6.33,4.77,1.82,2.86,2.77,8.06,2.77,15.6,0,2.95-.35,9.88-1.13,20.89l7.2-14.56c11.35-22.27,21.32-36.4,29.9-42.38,2.69-1.65,6.15-2.43,10.23-2.43,12.65,0,22.79,5.63,30.42,16.9,3.9,5.81,6.67,12.31,8.41,19.5,2.08,9.45,3.12,20.11,3.12,31.98,0,18.98-2.08,35.97-6.24,51.05-1.47,5.03-2.77,8.58-3.99,10.75-2.17,3.9-5.89,5.98-11.27,6.24-2.17.09-3.73.17-4.59.17-2.6,0-5.03-.26-7.37-.78Zm-65.61-50.18c.87-.61,1.3-7.63,1.3-21.15,0-15.69-.35-24.61-.95-26.78-.78-1.73-1.99-2.6-3.64-2.6-1.3,0-2.08,3.64-2.34,10.83-.26,6.07-.35,13.69-.35,22.97,0,4.85,0,8.32.09,10.4.17,4.42,1.65,6.59,4.33,6.59.69,0,1.21-.09,1.56-.26Zm91.09-8.32c.43-1.04.78-3.21.95-6.59.26-3.38.35-6.67.35-9.97,0-5.37-.17-9.45-.61-12.13-.95-6.24-3.47-9.36-7.63-9.36-1.47,0-2.25.95-2.25,2.77,0,.87.09,2.95.35,6.33,1.04,18.11,2.17,27.82,3.38,29.29.61.78,1.47,1.13,2.6,1.13,1.47,0,2.43-.52,2.86-1.47Zm-1.39,16.38c0-2.77-1.47-4.16-4.51-4.16-1.47.26-2.34.69-2.43,1.3-.09.61-.17.95-.17,1.13,0,.78.35,1.56,1.04,2.34.87.95,2.08,1.47,3.64,1.47,2.17,0,2.43-.26,2.43-2.08Z" style="fill:#f45b69; stroke-width:0px;"/><path d="m619.71,539.58c-3.38-.61-5.98-2.77-7.71-6.5-4.42-8.32-8.23-22.27-11.53-41.95-1.47-8.15-2.51-15.34-3.03-21.58-.78-9.62-1.21-23.23-1.21-40.82,0-12.57.87-23.92,2.51-33.89l.09-1.04c0-1.13-.95-1.56-2.95-2.25-7.37-3.21-11.01-8.32-11.01-15.43,0-1.56.35-2.77,1.13-3.73.43-.52,1.56-.78,3.38-.78,2.17,0,5.37.35,9.62,1.13.78.17,1.39.26,1.99.26.78,0,1.39-.17,1.82-.52.69-.69,1.39-2.43,2.17-5.29,2.08-8.06,5.2-15.17,7.89-18.37,2.34-2.86,5.46-4.25,9.45-4.25.78,0,1.65.09,2.51.17,9.27,1.13,15.34,4.68,18.11,10.66,1.47,3.81,2.51,10.66,3.12,20.54,5.89.43,9.28.78,10.23,1.04s1.73.69,2.34,1.3c1.99,1.99,3.03,4.94,3.03,8.67,0,3.03-1.04,5.11-3.03,6.24-1.3.78-3.81,1.47-7.45,2.25-3.99.78-6.15,1.21-6.59,1.47-.26.52-.61,2.95-.95,7.28-1.13,11.27-1.73,26.17-1.73,44.81,0,4.94.09,9.45.26,13.43.35,7.89.61,14.04.69,14.73,0,.61,1.56.95,4.59.95,4.42,0,7.2.95,8.32,2.86.09.17.17.52.17,1.04,0,1.47-.52,4.25-1.65,8.49-3.12,11.87-5.55,22.53-7.19,31.98-.61,3.99-1.39,6.76-2.51,8.32-1.04,1.56-3.21,3.12-6.59,4.77-5.72,2.86-10.75,4.33-14.99,4.33-1.13,0-2.25-.09-3.29-.35Zm-9.71-99.32c.43-2.34.96-5.98,1.39-11.09,1.04-10.14,1.47-18.98,1.47-22.1,0-2.43-.87-3.99-2.51-4.59-.87-.43-1.65-.61-2.34-.61-1.04,0-1.82.43-2.43,1.3-.95,1.47-1.73,4.77-2.34,9.88-.43,3.64-.61,7.45-.61,11.53,0,5.11.26,9.53.78,13.43.52,3.47,1.21,5.55,1.99,6.24.61.43,1.21.69,1.73.69,1.3,0,2.25-1.56,2.86-4.68Zm-.09,28.17c.78-.09,1.13-1.3,1.13-3.81,0-3.73-1.3-5.63-3.9-5.63-1.99,0-3.03,1.13-3.03,3.29,0,.43.09,1.04.17,1.65.61,3.29,1.82,4.94,3.73,4.94.61,0,1.21-.17,1.91-.43Z" style="fill:#f45b69; stroke-width:0px;"/><path d="m764.62,536.89c-2.17,0-4.07-.17-5.81-.52-4.51-1.13-9.27-4.68-11.35-8.75-.87-1.82-1.73-5.89-2.69-12.31-.87-6.5-1.56-13.69-1.99-21.58l-.87-13.87-5.81,11.18c-4.59,8.84-8.49,15.43-11.87,19.85-3.29,4.33-6.59,7.11-9.79,8.41-2.77,1.39-4.85,1.47-7.97,1.47-2.77,0-5.72-.17-8.93-.43-2.17-.17-4.51-.95-7.02-2.25-8.93-4.42-15.25-13.61-19.15-27.56-.61-2.17-1.04-4.42-1.3-6.76-.17-2.34-.26-6.07-.26-11.09,0-5.46.09-9.36.35-11.79s.69-5.2,1.47-8.41c2.51-10.49,5.89-19.33,10.23-26.61,2.25-3.73,5.11-7.45,8.49-11.01,3.47-3.55,6.59-6.07,9.27-7.54,5.11-2.51,10.31-3.73,15.77-3.73,4.51,0,9.1.87,13.78,2.51,3.55,1.21,6.33,2.51,8.49,3.9,2.17,1.39,4.25,3.21,6.33,5.55l3.47,3.73c2.08-4.25,3.55-6.93,4.42-7.89,1.82-2.17,4.77-3.21,8.84-3.21,5.46,0,10.14,1.73,14.21,5.11,2.95,2.6,4.77,6.41,5.37,11.35.26,2.51.43,9.79.43,21.84-.09,12.91-.35,27.21-.87,42.9-.52,15.6-1.04,26.61-1.65,33.11-.69,7.71-2.95,12.22-6.85,13.52-1.3.52-2.69.78-4.16.87h-2.6Zm-79.04-51.92c0-.61-.09-1.3-.17-2.17-.61-3.47-1.82-5.2-3.81-5.2-.87,0-1.73.43-2.69,1.39-.61.78-.87,1.73-.87,2.77,0,2.69.87,4.51,2.69,5.55,1.13.61,1.82.87,1.99.87.78,0,2.86-1.13,2.86-3.21Zm.61-18.81c.43-.69,1.47-3.73,2.95-9.01,2.51-9.36,5.98-18.37,10.4-27.04,1.99-4.16,3.03-6.5,3.03-6.93,0-.69-.61-1.47-1.73-2.25-1.12-.87-2.17-1.3-3.12-1.3-2.25,0-4.77,2.25-7.54,6.76s-5.11,9.79-7.11,15.86c-1.99,6.07-3.04,11.79-3.12,17.16,0,4.68.26,5.63,1.65,6.5,1.04.69,1.99,1.04,2.77,1.04.69,0,1.3-.26,1.82-.78Zm30.07,23.66c7.02-9.97,13.87-22.19,20.54-36.57l5.98-12.74-2.95-.87c-3.21-.78-5.29-1.82-6.33-3.12-.95-1.3-1.65-3.73-2.08-7.28-.35-3.55-.78-5.81-1.3-6.85l-.87-1.65c-1.91,2.43-3.9,5.72-5.98,9.97-7.2,14.65-11.36,33.19-12.65,55.64-.17,3.38-.26,6.41-.26,9.27,0,1.21.09,1.82.17,1.82s1.99-2.51,5.72-7.63Zm40.91,6.59c.26-.61.61-5.37,1.04-14.47.43-7.89.69-12.05.78-12.39.43-7.54.69-12.39.69-14.39,0-2.51-.35-3.9-1.04-4.16-.43-.09-.87-.17-1.3-.17-1.65,0-2.69.26-3.21.78-1.73,1.65-2.6,8.93-2.6,21.93,0,6.15.26,11.79.78,16.9.35,3.73.78,5.89,1.39,6.41.43.26,1.13.43,2.25.43.61-.09.95-.35,1.21-.87Z" style="fill:#f45b69; stroke-width:0px;"/><path d="m870.79,521.55c-.95-3.55-1.82-11.96-2.6-25.22-.26-4.94-.52-7.45-.78-7.45l-5.12,11.79c-7.11,16.12-13.61,25.31-19.41,27.56-2.25.87-5.46,1.3-9.62,1.3-1.91,0-3.81-.09-5.63-.35-10.57-1.56-18.72-8.23-24.44-20.02-4.59-9.01-7.02-19.41-7.19-31.2l-.09-4.59c0-4.07.26-7.71.69-10.92.61-4.42,1.91-9.45,3.81-14.99,3.73-11.09,8.67-20.19,14.82-27.21,8.06-9.45,17.33-14.13,27.82-14.13,3.03,0,6.15.43,9.27,1.21,5.72,1.47,10.57,3.9,14.56,7.45l3.03,2.86c.52-3.47.96-7.19,1.21-11.09.61-6.41,1.47-13.17,2.69-20.37,1.3-7.19,2.51-12.57,3.64-16.03,2.25-7.28,7.63-11.53,16.12-12.74,1.73-.26,3.29-.43,4.77-.43,6.33,0,10.31,2.69,12.05,8.06.78,2.95,1.12,7.54,1.12,13.87.09,6.33.09,9.97.09,10.92,0,10.66-.26,21.32-.87,31.98-.78,13.52-1.39,32.15-1.82,55.99-.35,18.98-.69,30.59-1.04,34.84-.43,5.89-1.21,7.97-2.6,9.71-1.12,1.47-3.21,2.95-6.15,4.25-4.68,2.08-9.62,3.12-14.73,3.12-7.54,0-12.05-2.69-13.61-8.15Zm-60.23-46.2c.69-1.13,1.12-2.6,1.21-4.51,0-2.51-1.39-3.73-4.25-3.73-2.69,0-3.12.43-3.12,3.64,0,2.86,1.39,5.46,3.73,5.46,1.04,0,1.82-.26,2.43-.87Zm8.32-32.67c3.47-7.11,6.5-12.65,9.1-16.73,2.17-3.12,3.21-4.94,3.29-5.55.09-.61.09-1.04.09-1.13,0-1.13-.78-1.91-2.34-2.51-.61-.26-1.21-.43-1.82-.43-1.99,0-4.25,1.73-6.85,5.11-3.47,4.42-6.76,10.92-9.79,19.41-1.3,3.64-1.99,6.33-1.99,8.06,0,2.77,1.47,4.68,3.64,4.68,1.04,0,2.51-2.51,6.67-10.92Zm16.9,66.91c1.82-2.08,4.07-5.2,6.59-9.27,5.29-8.41,10.05-17.94,14.39-28.77,2.34-5.81,6.24-17.07,11.88-33.89l-3.64-.78c-5.29-1.04-7.19-3.03-8.49-8.32-.95-3.55-1.56-5.29-1.82-5.29-.69,0-2.08,1.3-4.16,3.81-1.04,1.3-1.99,2.77-2.86,4.25-6.33,11.18-11.27,23.75-14.82,37.79-1.47,6.67-2.25,14.04-2.25,22.27,0,9.27.95,15.77,2.77,19.5.17.43.26.69.35.69.35,0,1.04-.69,2.08-1.99Zm44.81-34.23c.78-2.43,1.82-14.65,2.95-36.66.61-12.13,1.21-21.84,1.73-29.21.69-9.62,1.04-15.69,1.04-18.37,0-4.59-1.3-4.59-2.6-4.59-.95,0-1.73.61-2.34,1.82-.78,1.65-1.65,5.46-2.43,11.27-1.91,12.74-2.86,29.99-2.86,51.83,0,22.97.26,25.48,2.86,25.48.61,0,1.21-.52,1.65-1.56Z" style="fill:#f45b69; stroke-width:0px;"/><path d="m935.27,507.77c-5.63-11.09-8.49-23.83-8.49-38.22,0-13.26,1.82-25.05,5.37-35.36,4.25-12.48,10.4-21.23,18.29-26.17,1.65-.95,3.12-1.82,4.59-2.51,4.25-1.99,5.2-2.69,5.2-4.16,0-3.9,3.55-5.89,10.66-5.89,2.34,0,4.85.43,7.37,1.21,2.43.95,5.81,3.03,10.23,6.41,3.55,2.77,6.67,4.85,9.45,6.33,2.77,1.39,6.67,2.86,11.79,4.33,11.53,3.47,15.51,6.07,15.51,9.88,0,1.73-.61,2.43-3.03,3.73-2.6,1.47-3.9,1.56-9.88,1.56s-9.01.09-9.01.26.43,1.13,1.39,2.86c2.08,4.07,4.16,10.75,6.15,19.93,1.47,6.5,2.17,13.26,2.17,20.11,0,14.47-2.86,27.73-8.58,39.78-4.42,9.88-11.62,15.69-21.49,17.51-3.21.61-6.85.95-10.92.95-16.99,0-29.21-7.54-36.75-22.53Zm10.14-34.58c0-3.9-1.73-5.81-5.2-5.81-1.65,0-2.51.69-2.51,2.08,0,1.13.43,2.43,1.39,4.07,1.13,1.99,2.34,3.03,3.73,3.03,1.73,0,2.6-1.13,2.6-3.38Zm.17-17.59c.61-1.39,1.91-4.94,3.73-10.57,2.51-7.89,4.68-14.13,6.41-18.55,1.47-3.81,2.25-6.15,2.25-7.11,0-.78-.35-1.56-1.04-2.17-.78-.87-1.82-1.3-3.12-1.3-3.38,0-6.5,3.55-9.36,10.66-3.73,9.1-5.11,17.59-5.11,22.01,0,1.47.09,2.77.35,3.9.95,3.9,1.82,5.11,3.9,5.11.78,0,1.39-.69,1.99-1.99Zm39.7,45.85c4.42-9.19,6.59-18.81,6.59-28.95,0-6.85-1.13-14.13-3.38-22.01-2.43-8.58-4.07-12.83-4.85-12.83-.87,0-2.17,4.16-3.99,12.48-1.99,9.45-3.03,18.46-3.03,26.95,0,7.37.78,14.39,2.25,20.97,1.47,5.81,2.34,8.75,2.69,8.75.69,0,1.91-1.82,3.73-5.37Z" style="fill:#f45b69; stroke-width:0px;"/><path d="m1052.09,529.96c-4.51-.95-7.71-2.34-9.71-4.33-1.91-1.99-3.55-5.72-5.03-11.09-3.21-10.66-4.85-24.18-4.85-40.73s1.21-33.02,3.73-47.67c1.56-10.14,3.38-16.55,5.55-19.41,2.17-2.86,5.2-4.25,9.19-4.25,8.15,0,13.95,2.25,17.42,6.85,3.03,3.99,4.77,10.49,5.2,19.59l.43,7.71,4.25-5.55c4.77-6.07,9.36-9.88,13.78-11.53,1.73-.52,3.55-.78,5.46-.78,1.56,0,3.21.17,4.94.52,3.81.87,6.93,2.34,9.27,4.51,1.39,1.21,2.08,2.34,2.08,3.29,0,1.3-1.12,2.51-3.47,3.64-2.17,1.13-4.07,2.69-5.55,4.59-1.82,2.34-3.99,5.81-6.5,10.57-5.98,11.01-11.96,25.65-17.94,43.85-3.73,11.53-6.15,20.28-7.28,26.17-.78,4.77-1.56,7.97-2.51,9.62-1.82,3.21-6.5,4.77-14.21,4.77-1.65,0-3.03-.09-4.25-.35Zm-4.42-74.8c.43-.61.61-1.21.61-1.82,0-2.43-3.12-3.47-4.85-3.47-1.82,0-2.77.78-2.77,2.43,0,.43.09.95.26,1.56,1.13,2.77,3.47,2.6,4.07,2.6,1.13,0,1.99-.43,2.69-1.3Zm1.21-12.48c.43-.35,1.21-3.81,2.43-10.4,1.13-5.98,1.82-10.49,1.91-13.35,0-2.08-1.65-3.21-4.85-3.38h-2.6l-1.65,4.94c-1.21,3.38-1.82,7.63-1.82,12.65,0,6.24.52,8.75,2.95,9.45,1.65.69,1.99.69,2.6.69.26-.09.61-.26,1.04-.61Z" style="fill:#f45b69; stroke-width:0px;"/><path d="m1158.09,537.07c-7.71-2.34-14.39-7.11-20.2-14.3-9.1-11.35-13.69-26.17-13.69-44.46,0-5.2.35-10.66,1.04-16.29,1.65-12.74,4.68-24.7,9.01-35.97,4.42-11.27,9.62-19.93,15.77-25.91,2.17-1.99,4.33-3.55,6.5-4.68,4.42-2.17,11.09-3.55,16.38-3.55,3.38,0,7.28.52,11.61,1.65,14.65,3.47,22.88,11.96,24.53,25.57.35,1.91.52,3.55.52,4.94,0,4.68-1.56,10.23-4.77,16.73-1.82,3.73-3.81,6.85-5.98,9.45-7.28,8.41-16.21,14.21-26.69,17.59l-5.29,1.56c-.61,6.76-.87,11.96-.87,15.51,0,11.01,1.04,21.58,3.03,31.63,1.13,5.89,2.34,8.84,3.64,8.84.61,0,3.12-1.99,7.37-6.07,4.07-3.81,6.59-6.59,7.71-8.41,1.65-2.77,4.94-4.16,9.97-4.16,3.73,0,5.55,1.13,5.55,3.38,0,1.56-1.39,4.07-4.25,7.63-2.86,3.55-6.07,6.93-9.79,10.31-3.73,3.38-6.93,5.89-9.79,7.37-1.91.95-3.55,1.65-5.03,1.91-1.39.35-3.55.52-6.59.61-4.07,0-7.28-.26-9.71-.87Zm-20.28-48.54c1.39-.09,2.17,0,2.17-2.51l-.09-1.73c0-3.64-1.3-5.46-3.81-5.46-3.55,0-3.47,1.56-3.47,2.69,0,4.68,1.56,7.02,4.68,7.02h.52Zm2.43-18.46c1.12-1.73,2.6-7.54,4.42-17.33,1.65-9.01,3.73-17.16,6.41-24.35,1.3-3.55,1.99-5.81,1.99-6.59,0-.61-1.13-1.56-2.6-2.17-.95-.43-1.73-.69-2.51-.69s-1.47.26-2.08.69c-1.21.95-2.69,3.21-4.42,6.93-4.94,10.92-7.37,22.53-7.37,34.93,0,2.34.09,4.25.26,5.72.43,3.03,3.03,3.73,4.33,3.73.61,0,1.13-.26,1.56-.87Zm33.02-15.25c9.1-6.33,14.91-14.39,17.33-24.01.43-2.25.69-4.59.69-6.93,0-4.77-.78-8.84-2.43-12.13-1.21-2.51-2.17-3.73-2.77-3.73s-2.17,1.65-4.51,4.94c-3.03,4.33-5.72,10.14-7.97,17.33-1.73,5.55-3.03,11.09-3.99,16.64-.69,4.77-1.13,7.63-1.39,8.67l-.09.95c0,.61.09.95.35.95.43,0,2.08-.87,4.77-2.69Z" style="fill:#f45b69; stroke-width:0px;"/><path d="m1258.53,531.87c-6.85-1.13-11.44-2.51-13.87-4.33-2.34-1.82-3.55-3.29-3.55-4.51,0-1.73,1.47-3.12,4.42-4.07,1.39-.43,2.95-.87,4.68-1.3,4.77-1.13,7.54-2.17,8.41-3.29.87-1.13,1.3-2.08,1.3-3.03,0-2.69-1.91-5.81-5.72-9.19-2.34-2.08-6.07-5.03-11.01-8.75-15.69-11.61-23.49-23.66-23.49-36.23,0-2.51.35-4.94.95-7.45,1.99-8.58,6.07-17.33,12.13-26.26,6.15-9.01,13.09-16.47,20.89-22.45,3.38-2.51,6.24-4.33,8.67-5.46,2.51-1.21,5.37-2.17,8.67-2.77,2.43-.52,4.42-.78,5.98-.78,1.3,0,2.77.17,4.42.43,6.76,1.21,12.65,4.16,17.59,8.75,2.77,2.69,3.38,3.81,3.38,5.89,0,3.29-1.04,5.11-3.12,5.55-1.21.52-3.38,3.12-6.59,7.71s-6.41,9.79-9.79,15.6c-7.71,13.43-11.53,24.27-11.53,32.41,0,5.81,2.08,11.01,6.24,15.77,8.58,10.23,14.04,17.42,16.47,21.67,2.25,3.81,3.38,6.93,3.38,9.45s-1.47,5.2-4.33,7.89c-3.47,3.03-8.15,5.29-14.04,6.76-5.81,1.47-11.01,2.25-15.43,2.25-1.73,0-3.47-.09-5.11-.26Zm-19.07-86.93c0-3.47-2.86-5.11-4.59-5.11s-2.51,1.39-2.51,4.16c0,1.73.52,2.95,1.56,3.55,1.04.61,1.91.87,2.51.87,1.47,0,3.03-1.3,3.03-3.47Zm9.97-16.9c1.82-2.34,5.46-6.33,11.09-12.05,4.51-4.25,6.76-6.76,6.76-7.71,0-.35-.17-.69-.43-1.04-1.04-1.56-2.43-2.34-4.07-2.34-3.12,0-7.28,2.6-12.39,7.8-2.69,2.77-5.03,5.72-7.11,8.93-2.08,3.12-3.12,5.37-3.12,6.76,0,.95.52,1.91,1.47,2.95.95.95,1.91,1.47,2.77,1.47.78,0,2.51-1.56,5.03-4.77Z" style="fill:#f45b69; stroke-width:0px;"/><path d="m731.86,707.77c-.95-3.55-1.82-11.96-2.6-25.22-.26-4.94-.52-7.45-.78-7.45l-5.12,11.79c-7.11,16.12-13.61,25.31-19.41,27.56-2.25.87-5.46,1.3-9.62,1.3-1.91,0-3.81-.09-5.63-.35-10.57-1.56-18.72-8.23-24.44-20.02-4.59-9.01-7.02-19.41-7.19-31.2l-.09-4.59c0-4.07.26-7.71.69-10.92.61-4.42,1.91-9.45,3.81-14.99,3.73-11.09,8.67-20.19,14.82-27.21,8.06-9.45,17.33-14.13,27.82-14.13,3.03,0,6.15.43,9.27,1.21,5.72,1.47,10.57,3.9,14.56,7.45l3.03,2.86c.52-3.47.96-7.19,1.21-11.09.61-6.41,1.47-13.17,2.69-20.37,1.3-7.19,2.51-12.57,3.64-16.03,2.25-7.28,7.63-11.53,16.12-12.74,1.73-.26,3.29-.43,4.77-.43,6.33,0,10.31,2.69,12.05,8.06.78,2.95,1.12,7.54,1.12,13.87.09,6.33.09,9.97.09,10.92,0,10.66-.26,21.32-.87,31.98-.78,13.52-1.39,32.15-1.82,55.99-.35,18.98-.69,30.59-1.04,34.84-.43,5.89-1.21,7.97-2.6,9.71-1.12,1.47-3.21,2.95-6.15,4.25-4.68,2.08-9.62,3.12-14.73,3.12-7.54,0-12.05-2.69-13.61-8.15Zm-60.23-46.2c.69-1.13,1.12-2.6,1.21-4.51,0-2.51-1.39-3.73-4.25-3.73-2.69,0-3.12.43-3.12,3.64,0,2.86,1.39,5.46,3.73,5.46,1.04,0,1.82-.26,2.43-.87Zm8.32-32.67c3.47-7.11,6.5-12.65,9.1-16.73,2.17-3.12,3.21-4.94,3.29-5.55.09-.61.09-1.04.09-1.13,0-1.13-.78-1.91-2.34-2.51-.61-.26-1.21-.43-1.82-.43-1.99,0-4.25,1.73-6.85,5.11-3.47,4.42-6.76,10.92-9.79,19.41-1.3,3.64-1.99,6.33-1.99,8.06,0,2.77,1.47,4.68,3.64,4.68,1.04,0,2.51-2.51,6.67-10.92Zm16.9,66.91c1.82-2.08,4.07-5.2,6.59-9.27,5.29-8.41,10.05-17.94,14.39-28.77,2.34-5.81,6.24-17.07,11.88-33.89l-3.64-.78c-5.29-1.04-7.19-3.03-8.49-8.32-.95-3.55-1.56-5.29-1.82-5.29-.69,0-2.08,1.3-4.16,3.81-1.04,1.3-1.99,2.77-2.86,4.25-6.33,11.18-11.27,23.75-14.82,37.79-1.47,6.67-2.25,14.04-2.25,22.27,0,9.27.95,15.77,2.77,19.5.17.43.26.69.35.69.35,0,1.04-.69,2.08-1.99Zm44.81-34.23c.78-2.43,1.82-14.65,2.95-36.66.61-12.13,1.21-21.84,1.73-29.21.69-9.62,1.04-15.69,1.04-18.37,0-4.59-1.3-4.59-2.6-4.59-.95,0-1.73.61-2.34,1.82-.78,1.65-1.65,5.46-2.43,11.27-1.91,12.74-2.86,29.99-2.86,51.83,0,22.97.26,25.48,2.86,25.48.61,0,1.21-.52,1.65-1.56Z" style="fill:#44bba4; stroke-width:0px;"/><path d="m821.73,723.28c-7.71-2.34-14.39-7.11-20.19-14.3-9.1-11.35-13.69-26.17-13.69-44.46,0-5.2.35-10.66,1.04-16.29,1.65-12.74,4.68-24.7,9.01-35.97,4.42-11.27,9.62-19.93,15.77-25.91,2.17-1.99,4.33-3.55,6.5-4.68,4.42-2.17,11.09-3.55,16.38-3.55,3.38,0,7.28.52,11.62,1.65,14.65,3.47,22.88,11.96,24.53,25.57.35,1.91.52,3.55.52,4.94,0,4.68-1.56,10.23-4.77,16.73-1.82,3.73-3.81,6.85-5.98,9.45-7.28,8.41-16.21,14.21-26.7,17.59l-5.29,1.56c-.61,6.76-.87,11.96-.87,15.51,0,11.01,1.04,21.58,3.04,31.63,1.12,5.89,2.34,8.84,3.64,8.84.61,0,3.12-1.99,7.37-6.07,4.07-3.81,6.59-6.59,7.71-8.41,1.65-2.77,4.94-4.16,9.97-4.16,3.73,0,5.55,1.13,5.55,3.38,0,1.56-1.39,4.07-4.25,7.63-2.86,3.55-6.07,6.93-9.79,10.31s-6.93,5.89-9.79,7.37c-1.91.95-3.55,1.65-5.03,1.91-1.39.35-3.55.52-6.59.61-4.07,0-7.28-.26-9.71-.87Zm-20.28-48.54c1.39-.09,2.17,0,2.17-2.51l-.09-1.73c0-3.64-1.3-5.46-3.81-5.46-3.55,0-3.47,1.56-3.47,2.69,0,4.68,1.56,7.02,4.68,7.02h.52Zm2.43-18.46c1.13-1.73,2.6-7.54,4.42-17.33,1.65-9.01,3.73-17.16,6.41-24.35,1.3-3.55,1.99-5.81,1.99-6.59,0-.61-1.13-1.56-2.6-2.17-.95-.43-1.73-.69-2.51-.69s-1.47.26-2.08.69c-1.21.95-2.69,3.21-4.42,6.93-4.94,10.92-7.37,22.53-7.37,34.93,0,2.34.09,4.25.26,5.72.43,3.03,3.03,3.73,4.33,3.73.61,0,1.13-.26,1.56-.87Zm33.02-15.25c9.1-6.33,14.91-14.39,17.33-24.01.43-2.25.69-4.59.69-6.93,0-4.77-.78-8.84-2.43-12.13-1.21-2.51-2.17-3.73-2.77-3.73s-2.17,1.65-4.51,4.94c-3.03,4.33-5.72,10.14-7.97,17.33-1.73,5.55-3.03,11.09-3.99,16.64-.69,4.77-1.13,7.63-1.39,8.67l-.09.95c0,.61.09.95.35.95.43,0,2.08-.87,4.77-2.69Z" style="fill:#44bba4; stroke-width:0px;"/><path d="m432.13,911.32c-2.69-.52-4.68-2.86-5.98-7.11-1.3-4.16-2.51-11.61-3.55-22.36-.43-3.99-.78-7.37-1.04-10.23s-.35-4.33-.35-4.51-1.99-.26-5.89-.26c-3.47,0-11.87.26-25.13.87l-.52,7.02c-.43,8.23-2.25,12.05-6.5,15.25-5.11,3.55-11.44,5.37-18.81,5.37-4.68,0-8.06-1.3-10.05-3.99-.87-1.13-1.56-3.12-2.08-5.81-1.3-6.07-2.25-13.35-2.86-21.84-.43-5.46-.61-18.03-.61-37.61,0-13.09.17-22.97.61-29.64.43-7.37,1.39-14.47,2.86-21.23,3.12-15.77,6.15-19.07,17.68-19.07,7.63,0,12.65,1.65,15.17,5.03,1.65,1.65,2.86,4.42,3.64,8.23.87,3.73,1.39,8.58,1.47,14.47.17,5.89.26,11.61.26,17.07,0,4.16-.17,20.71-.61,49.58,9.01,0,14.99,0,17.85.09,3.55.09,7.8.43,12.74.87.17-23.49.43-39.87.87-49.23.52-11.44,1.21-19.93,1.99-25.57,2.08-14.47,3.99-24.96,5.72-31.46,1.82-6.5,3.73-10.14,5.81-11.09,1.73-.78,3.81-1.21,6.33-1.21,4.85,0,9.62,1.13,14.3,3.29,3.47,2.17,4.94,4.77,5.98,10.23.69,2.77,1.04,6.07,1.04,9.97.09,3.81.09,6.15.09,6.93,0,7.19-.26,18.2-.69,33.11-.43,16.21-.69,29.9-.69,40.91,0,12.91.35,25.05,1.04,36.31.61,8.93.87,16.03.87,21.32,0,2.6-.17,4.42-.61,5.37s-1.21,2.08-2.51,3.21c-3.21,3.12-7.11,5.29-11.87,6.5-4.68,1.21-8.32,1.82-11.01,1.82-1.73,0-3.38-.17-4.94-.61Zm-69.6-80.6c1.65-1.04,1.39-2.86,1.39-3.21,0-2.34-1.04-5.2-2.86-5.2-.61,0-1.82-.52-1.99-.52-1.3,0-3.12,1.56-3.12,3.21,0,.52.09,1.3.35,2.25.78,2.69,2.08,4.07,3.9,4.07.69,0,1.47-.17,2.34-.61Zm1.65-20.28c.43-1.65.87-4.51,1.39-8.67,1.13-8.58,1.73-14.13,1.73-16.81,0-1.73-.17-3.03-.52-3.81-.69-1.73-2.6-2.77-5.72-3.12l-.69.09c-2.17.26-3.21,6.67-3.21,19.24,0,5.29.09,8.58.17,9.97.17,1.3.61,2.17,1.3,2.51.95.78,2.34,1.13,3.99,1.13.78-.09,1.3-.26,1.56-.52Zm70.29,62.66c.09,0,.52-.09,1.13-.26.69-.26,1.04-2.43,1.13-6.5,0-4.07-.35-10.75-1.04-20.02-.43-6.33-.69-14.39-.69-24.09l.09-12.05c0-5.72-.26-8.93-.87-9.53-.52-.61-1.13-.95-1.91-.95-1.47,0-2.43.52-2.95,1.47-.95,1.82-1.47,9.88-1.47,24.09,0,18.55,1.12,33.45,3.38,44.64.26,1.65.87,2.6,1.82,2.86l1.39.35Z" style="fill:#f2e863; stroke-width:0px;"/><path d="m495.31,902.74c-4.07-1.13-7.54-4.68-10.31-10.49-3.21-7.97-5.2-16.9-5.81-26.69-.61-9.88-.95-16.9-.95-21.06,0-9.1.69-16.81,2.17-23.31,2.08-7.45,5.29-12.39,9.62-14.91,2.86-1.39,6.33-2.08,10.23-2.08,4.85,0,9.62,1.13,14.21,3.29,3.9,1.65,6.59,4.33,8.06,8.06,1.65,4.33,2.51,12.48,2.51,24.53,0,4.94-.17,10.4-.61,16.38-.87,13.78-2.43,26.09-4.77,36.75-.69,3.03-1.47,5.2-2.34,6.33-2.17,3.03-7.02,4.59-14.47,4.59-1.3,0-3.81-.43-7.54-1.39Zm8.67-110.5c-13.09-2.86-19.59-7.02-19.59-12.39,0-1.65.35-3.29,1.04-4.85,2.51-5.03,8.15-7.54,16.99-7.54,2.17,0,4.16.17,6.15.61,7.8,1.82,11.7,5.11,11.7,9.88-.09,2.95-1.04,6.24-2.86,9.88-.78,1.65-1.56,2.69-2.17,3.29-1.56,1.13-3.73,1.65-6.5,1.65-1.47,0-3.12-.17-4.77-.52Zm-9.88,53.13c.78-1.82,1.91-7.8,3.38-17.94.61-3.81.87-6.24.87-7.19-.35-2.86-2.17-4.33-5.46-4.33-1.82,0-2.6.43-3.38,2.17-1.99,4.07-3.03,9.71-3.03,16.9,0,6.33.87,10.05,2.51,11.27.87.52,1.73.78,2.51.78,1.3,0,2.17-.52,2.6-1.65Zm0,15.25c-.09-3.47-1.65-5.2-4.68-5.2-.95,0-1.56.09-1.91.35-.61.35-.95,1.13-.95,2.25,0,.69.17,1.39.43,2.17.61,1.65,1.56,2.6,3.03,2.86.61.09,1.39.17,2.34.17,1.47,0,1.73-.09,1.73-2.6Z" style="fill:#f2e863; stroke-width:0px;"/><path d="m579.03,904.3c-6.85-1.13-11.44-2.51-13.87-4.33-2.34-1.82-3.55-3.29-3.55-4.51,0-1.73,1.47-3.12,4.42-4.07,1.39-.43,2.95-.87,4.68-1.3,4.77-1.13,7.54-2.17,8.41-3.29.87-1.13,1.3-2.08,1.3-3.03,0-2.69-1.91-5.81-5.72-9.19-2.34-2.08-6.07-5.03-11.01-8.75-15.69-11.61-23.49-23.66-23.49-36.23,0-2.51.35-4.94.95-7.45,1.99-8.58,6.07-17.33,12.13-26.26,6.15-9.01,13.09-16.47,20.89-22.45,3.38-2.51,6.24-4.33,8.67-5.46,2.51-1.21,5.37-2.17,8.67-2.77,2.43-.52,4.42-.78,5.98-.78,1.3,0,2.77.17,4.42.43,6.76,1.21,12.65,4.16,17.59,8.75,2.77,2.69,3.38,3.81,3.38,5.89,0,3.29-1.04,5.11-3.12,5.55-1.21.52-3.38,3.12-6.59,7.71s-6.41,9.79-9.79,15.6c-7.71,13.43-11.53,24.27-11.53,32.41,0,5.81,2.08,11.01,6.24,15.77,8.58,10.23,14.04,17.42,16.47,21.67,2.25,3.81,3.38,6.93,3.38,9.45s-1.47,5.2-4.33,7.89c-3.47,3.03-8.15,5.29-14.04,6.76-5.81,1.47-11.01,2.25-15.43,2.25-1.73,0-3.47-.09-5.11-.26Zm-19.07-86.93c0-3.47-2.86-5.11-4.59-5.11s-2.51,1.39-2.51,4.16c0,1.73.52,2.95,1.56,3.55,1.04.61,1.91.87,2.51.87,1.47,0,3.03-1.3,3.03-3.47Zm9.97-16.9c1.82-2.34,5.46-6.33,11.09-12.05,4.51-4.25,6.76-6.76,6.76-7.71,0-.35-.17-.69-.43-1.04-1.04-1.56-2.43-2.34-4.07-2.34-3.12,0-7.28,2.6-12.39,7.8-2.69,2.77-5.03,5.72-7.11,8.93-2.08,3.12-3.12,5.37-3.12,6.76,0,.95.52,1.91,1.47,2.95.95.95,1.91,1.47,2.77,1.47.78,0,2.51-1.56,5.03-4.77Z" style="fill:#f2e863; stroke-width:0px;"/><path d="m661.18,912.01c-3.38-.61-5.98-2.77-7.71-6.5-4.42-8.32-8.23-22.27-11.53-41.95-1.47-8.15-2.51-15.34-3.03-21.58-.78-9.62-1.21-23.23-1.21-40.82,0-12.57.87-23.92,2.51-33.89l.09-1.04c0-1.13-.95-1.56-2.95-2.25-7.37-3.21-11.01-8.32-11.01-15.43,0-1.56.35-2.77,1.13-3.73.43-.52,1.56-.78,3.38-.78,2.17,0,5.37.35,9.62,1.13.78.17,1.39.26,1.99.26.78,0,1.39-.17,1.82-.52.69-.69,1.39-2.43,2.17-5.29,2.08-8.06,5.2-15.17,7.89-18.37,2.34-2.86,5.46-4.25,9.45-4.25.78,0,1.65.09,2.51.17,9.27,1.13,15.34,4.68,18.11,10.66,1.47,3.81,2.51,10.66,3.12,20.54,5.89.43,9.28.78,10.23,1.04s1.73.69,2.34,1.3c1.99,1.99,3.03,4.94,3.03,8.67,0,3.03-1.04,5.11-3.03,6.24-1.3.78-3.81,1.47-7.45,2.25-3.99.78-6.15,1.21-6.59,1.47-.26.52-.61,2.95-.95,7.28-1.13,11.27-1.73,26.17-1.73,44.81,0,4.94.09,9.45.26,13.43.35,7.89.61,14.04.69,14.73,0,.61,1.56.95,4.59.95,4.42,0,7.2.95,8.32,2.86.09.17.17.52.17,1.04,0,1.47-.52,4.25-1.65,8.49-3.12,11.87-5.55,22.53-7.19,31.98-.61,3.99-1.39,6.76-2.51,8.32-1.04,1.56-3.21,3.12-6.59,4.77-5.72,2.86-10.75,4.33-14.99,4.33-1.13,0-2.25-.09-3.29-.35Zm-9.71-99.32c.43-2.34.96-5.98,1.39-11.09,1.04-10.14,1.47-18.98,1.47-22.1,0-2.43-.87-3.99-2.51-4.59-.87-.43-1.65-.61-2.34-.61-1.04,0-1.82.43-2.43,1.3-.95,1.47-1.73,4.77-2.34,9.88-.43,3.64-.61,7.45-.61,11.53,0,5.11.26,9.53.78,13.43.52,3.47,1.21,5.55,1.99,6.24.61.43,1.21.69,1.73.69,1.3,0,2.25-1.56,2.86-4.68Zm-.09,28.17c.78-.09,1.13-1.3,1.13-3.81,0-3.73-1.3-5.63-3.9-5.63-1.99,0-3.03,1.13-3.03,3.29,0,.43.09,1.04.17,1.65.61,3.29,1.82,4.94,3.73,4.94.61,0,1.21-.17,1.91-.43Z" style="fill:#f2e863; stroke-width:0px;"/><path d="m719.77,880.21c-5.63-11.09-8.49-23.83-8.49-38.22,0-13.26,1.82-25.05,5.37-35.36,4.25-12.48,10.4-21.23,18.29-26.17,1.65-.95,3.12-1.82,4.59-2.51,4.25-1.99,5.2-2.69,5.2-4.16,0-3.9,3.55-5.89,10.66-5.89,2.34,0,4.85.43,7.37,1.21,2.43.95,5.81,3.03,10.23,6.41,3.55,2.77,6.67,4.85,9.45,6.33,2.77,1.39,6.67,2.86,11.79,4.33,11.53,3.47,15.51,6.07,15.51,9.88,0,1.73-.61,2.43-3.03,3.73-2.6,1.47-3.9,1.56-9.88,1.56s-9.01.09-9.01.26.43,1.13,1.39,2.86c2.08,4.07,4.16,10.75,6.15,19.93,1.47,6.5,2.17,13.26,2.17,20.11,0,14.47-2.86,27.73-8.58,39.78-4.42,9.88-11.62,15.69-21.49,17.51-3.21.61-6.85.95-10.92.95-16.99,0-29.21-7.54-36.75-22.53Zm10.14-34.58c0-3.9-1.73-5.81-5.2-5.81-1.65,0-2.51.69-2.51,2.08,0,1.13.43,2.43,1.39,4.07,1.13,1.99,2.34,3.03,3.73,3.03,1.73,0,2.6-1.13,2.6-3.38Zm.17-17.59c.61-1.39,1.91-4.94,3.73-10.57,2.51-7.89,4.68-14.13,6.41-18.55,1.47-3.81,2.25-6.15,2.25-7.11,0-.78-.35-1.56-1.04-2.17-.78-.87-1.82-1.3-3.12-1.3-3.38,0-6.5,3.55-9.36,10.66-3.73,9.1-5.11,17.59-5.11,22.01,0,1.47.09,2.77.35,3.9.95,3.9,1.82,5.11,3.9,5.11.78,0,1.39-.69,1.99-1.99Zm29.21-65c-4.68-.35-7.71-1.39-9.01-3.21-.61-.78-.87-1.82-.87-3.03,0-1.47.43-3.29,1.3-5.46.78-1.82,1.73-4.07,2.95-6.67,3.12-6.33,5.2-10.05,6.15-11.18,2.34-2.51,6.07-3.73,11.01-3.73,2.6,0,5.03.52,7.37,1.47s3.47,2.43,3.47,4.51c0,.17-.09.95-.17,2.25-.09,1.3-1.82,5.03-5.11,11.18-1.65,3.12-2.95,5.46-3.99,7.11-2.77,4.59-6.24,6.93-10.4,6.93-.78,0-1.73-.09-2.69-.17Zm10.49,110.85c4.42-9.19,6.59-18.81,6.59-28.95,0-6.85-1.13-14.13-3.38-22.01-2.43-8.58-4.07-12.83-4.85-12.83-.87,0-2.17,4.16-3.99,12.48-1.99,9.45-3.03,18.46-3.03,26.95,0,7.37.78,14.39,2.25,20.97,1.47,5.81,2.34,8.75,2.69,8.75.69,0,1.91-1.82,3.73-5.37Z" style="fill:#f2e863; stroke-width:0px;"/><path d="m836.6,902.39c-4.51-.95-7.71-2.34-9.71-4.33-1.91-1.99-3.55-5.72-5.03-11.09-3.21-10.66-4.85-24.18-4.85-40.73s1.21-33.02,3.73-47.67c1.56-10.14,3.38-16.55,5.55-19.41,2.17-2.86,5.2-4.25,9.19-4.25,8.15,0,13.95,2.25,17.42,6.85,3.03,3.99,4.77,10.49,5.2,19.59l.43,7.71,4.25-5.55c4.77-6.07,9.36-9.88,13.78-11.53,1.73-.52,3.55-.78,5.46-.78,1.56,0,3.21.17,4.94.52,3.81.87,6.93,2.34,9.27,4.51,1.39,1.21,2.08,2.34,2.08,3.29,0,1.3-1.12,2.51-3.47,3.64-2.17,1.13-4.07,2.69-5.55,4.59-1.82,2.34-3.99,5.81-6.5,10.57-5.98,11.01-11.96,25.65-17.94,43.85-3.73,11.53-6.15,20.28-7.28,26.17-.78,4.77-1.56,7.97-2.51,9.62-1.82,3.21-6.5,4.77-14.21,4.77-1.65,0-3.03-.09-4.25-.35Zm-4.42-74.8c.43-.61.61-1.21.61-1.82,0-2.43-3.12-3.47-4.85-3.47-1.82,0-2.77.78-2.77,2.43,0,.43.09.95.26,1.56,1.13,2.77,3.47,2.6,4.07,2.6,1.13,0,1.99-.43,2.69-1.3Zm1.21-12.48c.43-.35,1.21-3.81,2.43-10.4,1.13-5.98,1.82-10.49,1.91-13.35,0-2.08-1.65-3.21-4.85-3.38h-2.6l-1.65,4.94c-1.21,3.38-1.82,7.63-1.82,12.65,0,6.24.52,8.75,2.95,9.45,1.65.69,1.99.69,2.6.69.26-.09.61-.26,1.04-.61Z" style="fill:#f2e863; stroke-width:0px;"/><path d="m925.78,902.74c-4.07-1.13-7.54-4.68-10.31-10.49-3.21-7.97-5.2-16.9-5.81-26.69-.61-9.88-.95-16.9-.95-21.06,0-9.1.69-16.81,2.17-23.31,2.08-7.45,5.29-12.39,9.62-14.91,2.86-1.39,6.33-2.08,10.23-2.08,4.85,0,9.62,1.13,14.21,3.29,3.9,1.65,6.59,4.33,8.06,8.06,1.65,4.33,2.51,12.48,2.51,24.53,0,4.94-.17,10.4-.61,16.38-.87,13.78-2.43,26.09-4.77,36.75-.69,3.03-1.47,5.2-2.34,6.33-2.17,3.03-7.02,4.59-14.47,4.59-1.3,0-3.81-.43-7.54-1.39Zm8.67-110.5c-13.09-2.86-19.59-7.02-19.59-12.39,0-1.65.35-3.29,1.04-4.85,2.51-5.03,8.15-7.54,16.99-7.54,2.17,0,4.16.17,6.15.61,7.8,1.82,11.7,5.11,11.7,9.88-.09,2.95-1.04,6.24-2.86,9.88-.78,1.65-1.56,2.69-2.17,3.29-1.56,1.13-3.73,1.65-6.5,1.65-1.47,0-3.12-.17-4.77-.52Zm-9.88,53.13c.78-1.82,1.91-7.8,3.38-17.94.61-3.81.87-6.24.87-7.19-.35-2.86-2.17-4.33-5.46-4.33-1.82,0-2.6.43-3.38,2.17-1.99,4.07-3.03,9.71-3.03,16.9,0,6.33.87,10.05,2.51,11.27.87.52,1.73.78,2.51.78,1.3,0,2.17-.52,2.6-1.65Zm0,15.25c-.09-3.47-1.65-5.2-4.68-5.2-.95,0-1.56.09-1.91.35-.61.35-.95,1.13-.95,2.25,0,.69.17,1.39.43,2.17.61,1.65,1.56,2.6,3.03,2.86.61.09,1.39.17,2.34.17,1.47,0,1.73-.09,1.73-2.6Z" style="fill:#f2e863; stroke-width:0px;"/><path d="m1065.48,909.33c-2.17,0-4.07-.17-5.81-.52-4.51-1.13-9.27-4.68-11.35-8.75-.87-1.82-1.73-5.89-2.69-12.31-.87-6.5-1.56-13.69-1.99-21.58l-.87-13.87-5.81,11.18c-4.59,8.84-8.49,15.43-11.87,19.85-3.29,4.33-6.59,7.11-9.79,8.41-2.77,1.39-4.85,1.47-7.97,1.47-2.77,0-5.72-.17-8.93-.43-2.17-.17-4.51-.95-7.02-2.25-8.93-4.42-15.25-13.61-19.15-27.56-.61-2.17-1.04-4.42-1.3-6.76-.17-2.34-.26-6.07-.26-11.09,0-5.46.09-9.36.35-11.79s.69-5.2,1.47-8.41c2.51-10.49,5.89-19.33,10.23-26.61,2.25-3.73,5.11-7.45,8.49-11.01,3.47-3.55,6.59-6.07,9.27-7.54,5.11-2.51,10.31-3.73,15.77-3.73,4.51,0,9.1.87,13.78,2.51,3.55,1.21,6.33,2.51,8.49,3.9,2.17,1.39,4.25,3.21,6.33,5.55l3.47,3.73c2.08-4.25,3.55-6.93,4.42-7.89,1.82-2.17,4.77-3.21,8.84-3.21,5.46,0,10.14,1.73,14.21,5.11,2.95,2.6,4.77,6.41,5.37,11.35.26,2.51.43,9.79.43,21.84-.09,12.91-.35,27.21-.87,42.9-.52,15.6-1.04,26.61-1.65,33.11-.69,7.71-2.95,12.22-6.85,13.52-1.3.52-2.69.78-4.16.87h-2.6Zm-79.04-51.92c0-.61-.09-1.3-.17-2.17-.61-3.47-1.82-5.2-3.81-5.2-.87,0-1.73.43-2.69,1.39-.61.78-.87,1.73-.87,2.77,0,2.69.87,4.51,2.69,5.55,1.13.61,1.82.87,1.99.87.78,0,2.86-1.13,2.86-3.21Zm.61-18.81c.43-.69,1.47-3.73,2.95-9.01,2.51-9.36,5.98-18.37,10.4-27.04,1.99-4.16,3.03-6.5,3.03-6.93,0-.69-.61-1.47-1.73-2.25-1.12-.87-2.17-1.3-3.12-1.3-2.25,0-4.77,2.25-7.54,6.76s-5.11,9.79-7.11,15.86c-1.99,6.07-3.04,11.79-3.12,17.16,0,4.68.26,5.63,1.65,6.5,1.04.69,1.99,1.04,2.77,1.04.69,0,1.3-.26,1.82-.78Zm30.07,23.66c7.02-9.97,13.87-22.19,20.54-36.57l5.98-12.74-2.95-.87c-3.21-.78-5.29-1.82-6.33-3.12-.95-1.3-1.65-3.73-2.08-7.28-.35-3.55-.78-5.81-1.3-6.85l-.87-1.65c-1.91,2.43-3.9,5.72-5.98,9.97-7.2,14.65-11.36,33.19-12.65,55.64-.17,3.38-.26,6.41-.26,9.27,0,1.21.09,1.82.17,1.82s1.99-2.51,5.72-7.63Zm40.91,6.59c.26-.61.61-5.37,1.04-14.47.43-7.89.69-12.05.78-12.39.43-7.54.69-12.39.69-14.39,0-2.51-.35-3.9-1.04-4.16-.43-.09-.87-.17-1.3-.17-1.65,0-2.69.26-3.21.78-1.73,1.65-2.6,8.93-2.6,21.93,0,6.15.26,11.79.78,16.9.35,3.73.78,5.89,1.39,6.41.43.26,1.13.43,2.25.43.61-.09.95-.35,1.21-.87Z" style="fill:#f2e863; stroke-width:0px;"/><path d="m1135.6,904.3c-6.85-1.13-11.44-2.51-13.87-4.33-2.34-1.82-3.55-3.29-3.55-4.51,0-1.73,1.47-3.12,4.42-4.07,1.39-.43,2.95-.87,4.68-1.3,4.77-1.13,7.54-2.17,8.41-3.29.87-1.13,1.3-2.08,1.3-3.03,0-2.69-1.91-5.81-5.72-9.19-2.34-2.08-6.07-5.03-11.01-8.75-15.69-11.61-23.49-23.66-23.49-36.23,0-2.51.35-4.94.95-7.45,1.99-8.58,6.07-17.33,12.13-26.26,6.15-9.01,13.09-16.47,20.89-22.45,3.38-2.51,6.24-4.33,8.67-5.46,2.51-1.21,5.37-2.17,8.67-2.77,2.43-.52,4.42-.78,5.98-.78,1.3,0,2.77.17,4.42.43,6.76,1.21,12.65,4.16,17.59,8.75,2.77,2.69,3.38,3.81,3.38,5.89,0,3.29-1.04,5.11-3.12,5.55-1.21.52-3.38,3.12-6.59,7.71s-6.41,9.79-9.79,15.6c-7.71,13.43-11.53,24.27-11.53,32.41,0,5.81,2.08,11.01,6.24,15.77,8.58,10.23,14.04,17.42,16.47,21.67,2.25,3.81,3.38,6.93,3.38,9.45s-1.47,5.2-4.33,7.89c-3.47,3.03-8.15,5.29-14.04,6.76-5.81,1.47-11.01,2.25-15.43,2.25-1.73,0-3.47-.09-5.11-.26Zm-19.07-86.93c0-3.47-2.86-5.11-4.59-5.11s-2.51,1.39-2.51,4.16c0,1.73.52,2.95,1.56,3.55,1.04.61,1.91.87,2.51.87,1.47,0,3.03-1.3,3.03-3.47Zm9.97-16.9c1.82-2.34,5.46-6.33,11.09-12.05,4.51-4.25,6.76-6.76,6.76-7.71,0-.35-.17-.69-.43-1.04-1.04-1.56-2.43-2.34-4.07-2.34-3.12,0-7.28,2.6-12.39,7.8-2.69,2.77-5.03,5.72-7.11,8.93-2.08,3.12-3.12,5.37-3.12,6.76,0,.95.52,1.91,1.47,2.95.95.95,1.91,1.47,2.77,1.47.78,0,2.51-1.56,5.03-4.77Z" style="fill:#f2e863; stroke-width:0px;"/></g></svg>