<?xml version="1.0" encoding="UTF-8"?><svg id="a" xmlns="http://www.w3.org/2000/svg" xmlns:xlink="http://www.w3.org/1999/xlink" viewBox="0 0 1536 1024"><defs><filter id="b" filterUnits="userSpaceOnUse"><feOffset dx="9.16" dy="9.16"/><feGaussianBlur result="c" stdDeviation="0"/><feFlood flood-color="#126fc4" flood-opacity="1"/><feComposite in2="c" operator="in"/><feComposite in="SourceGraphic"/></filter></defs><g style="filter:url(#b);"><path d="m272.37,880.82l-33.44,6.39-17.59-94.46-.56-.16c-1.89,4.34-6.05,14.15-12.49,29.43-6.44,15.29-12.94,31.53-19.52,48.74h-26.09c-6.5-17.19-13.1-33.62-19.81-49.31-6.71-15.68-10.8-25.27-12.26-28.77l-.53-.02c-.7,3.36-3.03,14.78-6.99,34.28-3.97,19.5-7.76,39.55-11.37,60.16l-32.42-6.18c7.33-32.69,13.64-62.21,18.91-88.57,5.27-26.36,8.33-41.57,9.17-45.62l33.63-3.56c.98,2.72,4.85,12.68,11.63,29.86,6.77,17.18,14.67,36.81,23.68,58.88h.84c7.19-17.53,14.84-36.32,22.94-56.36,8.1-20.04,12.47-30.83,13.09-32.37l34.26,2.93c.35,2.38,2.88,16.6,7.59,42.69s10.49,56.76,17.34,92.03Z" style="fill:#f9c0d8; stroke-width:0px;"/><path d="m399.75,885.32c-2.51,0-9.46-.03-20.85-.1-11.38-.07-22.7-.1-33.94-.1-9.71,0-19.17.04-28.39.1-9.22.07-15.92.1-20.11.1.07-3.7.16-11.76.26-24.17s.16-28.11.16-47.13c0-8.04-.04-18.28-.1-30.72-.07-12.44-.18-25.13-.31-38.06,4.75,0,11.51.02,20.27.05,8.76.04,17.58.05,26.45.05,12.08,0,23.92-.02,35.51-.05,11.59-.03,18.16-.05,19.69-.05v25.88c-1.19,0-5.76-.03-13.72-.1-7.96-.07-15.96-.1-23.99-.1-4.68,0-10.13.02-16.34.05-6.22.04-11.1.05-14.67.05,0,5.26-.04,10.79-.1,16.61-.07,5.82-.1,11.07-.1,15.76,3.63,0,8.26.02,13.88.05,5.62.04,10.25.05,13.88.05,9.01,0,17.44-.03,25.3-.1,7.86-.07,12.87-.1,15.03-.1v20.85c-1.4,0-6.81-.03-16.24-.1-9.43-.07-17.32-.1-23.68-.1-3.56,0-8.22.02-13.99.05-5.76.04-10.49.05-14.19.05,0,8.17.02,15.17.05,21,.03,5.83.09,10.6.16,14.3,4.19.07,9.78.12,16.76.16,6.98.04,13.3.05,18.96.05,7.96,0,15.19-.03,21.69-.1,6.5-.07,10.72-.1,12.68-.1v25.98Z" style="fill:#f9c0d8; stroke-width:0px;"/><path d="m547.57,812.52c-.07,5.3-.16,11.21-.26,17.73-.1,6.52-.16,12.19-.16,17,0,6.56.05,13.17.16,19.82.1,6.66.16,12.74.16,18.25-.91.23-4.12.51-9.64.85-5.52.34-10.2.51-14.04.51-15.78,0-29.98-1.62-42.58-4.87-12.61-3.25-24.25-9.1-34.94-17.55-7.05-5.52-12.71-12.43-16.97-20.74-4.26-8.31-6.39-17.81-6.39-28.49,0-11.8,2.93-22.35,8.8-31.64,5.87-9.29,14.25-17.08,25.14-23.36,8.8-5.31,19.19-9.36,31.17-12.15,11.98-2.79,25.19-4.19,39.65-4.19,1.82,0,3.44.02,4.87.05,1.43.04,2.81.05,4.14.05l3.77,29.02h-8.9c-7.19,0-14.81.59-22.84,1.78-8.03,1.19-15.29,3.11-21.79,5.76-8.8,3.56-15.73,8.63-20.79,15.19-5.06,6.57-7.6,13.79-7.6,21.69,0,8.73,2.01,16.06,6.02,22,4.02,5.94,9.13,10.58,15.35,13.93,4.89,2.58,10.28,4.56,16.19,5.92,5.9,1.36,11.99,2.18,18.28,2.46,0-1.33-.02-6.04-.05-14.14-.04-8.1-.12-19.73-.26-34.88h33.52Z" style="fill:#f9c0d8; stroke-width:0px;"/><path d="m710.68,877l-34.18,11.47c-.72-2.3-2.52-7.37-5.38-15.19-2.86-7.82-6.27-16.66-10.22-26.5h-53.32c-4.08,9.99-7.55,18.89-10.43,26.71-2.88,7.82-4.64,12.81-5.29,14.98l-32.14-10.95c1.89-4.19,9.17-20.82,21.84-49.9,12.68-29.08,24.78-56.95,36.3-83.62h35.51c12.01,28.07,24.34,56.71,36.98,85.92,12.64,29.22,19.41,44.91,20.32,47.07Zm-57.93-52.01c-2.66-7.13-5.57-14.97-8.74-23.53-3.17-8.56-6.33-16.96-9.49-25.21h-.42c-2.65,6.79-5.81,15.17-9.47,25.16-3.66,9.99-6.63,17.85-8.9,23.58l-.04.1h37.1l-.04-.1Z" style="fill:#f9c0d8; stroke-width:0px;"/><path d="m855.98,875.79l-32,12.47c-2.58-3.77-7.68-10.51-15.28-20.22-7.61-9.71-19.15-24.76-34.65-45.15l.52-2.1c2.3-.49,5.34-1.68,9.12-3.56,3.77-1.89,6.92-4.05,9.43-6.5,2.58-2.58,4.54-5.31,5.87-8.17,1.33-2.86,1.99-6.53,1.99-11s-1.1-8.07-3.3-11.42c-2.2-3.35-5.22-5.83-9.06-7.44-3.14-1.33-6.39-2.15-9.74-2.46s-6.6-.47-9.74-.47h-6.29c-.07,8.31-.12,16.81-.16,25.51-.04,8.69-.05,16.5-.05,23.41,0,11.38.03,23.83.1,37.35.07,13.51.14,23.27.21,29.28h-34.68c.07-5.52.16-13.64.26-24.36.1-10.72.16-26.56.16-47.51,0-5.59-.02-13.58-.05-23.99-.04-10.41-.16-25.21-.37-44.42,2.02,0,6.23-.07,12.62-.21,6.39-.14,12.34-.21,17.86-.21,10.41,0,19.43.31,27.08.94s14.86,2.1,21.63,4.4c9.71,3.21,16.92,7.95,21.63,14.19,4.71,6.25,7.07,13.29,7.07,21.11,0,8.94-2.48,16.59-7.44,22.94-4.96,6.36-10.02,11.14-15.19,14.35v.63c7.24,9.15,14.98,18.46,23.2,27.92,8.22,9.46,14.63,17.69,19.23,24.67Z" style="fill:#f45b69; stroke-width:0px;"/><path d="m1012.6,815.24c0,11.17-2.01,21.48-6.02,30.9-4.02,9.43-9.69,17.53-17.02,24.3-6.91,6.43-14.67,11.19-23.26,14.3s-17.77,4.66-27.55,4.66-18.72-1.48-27.24-4.45c-8.52-2.97-16.1-7.42-22.73-13.36-7.47-6.7-13.34-14.88-17.6-24.51-4.26-9.64-6.39-20.29-6.39-31.95,0-10.82,1.76-20.69,5.29-29.59,3.53-8.9,8.89-16.92,16.08-24.04,6.56-6.56,14.32-11.59,23.26-15.09,8.94-3.49,18.65-5.24,29.12-5.24s19.78,1.62,28.55,4.87c8.76,3.25,16.46,8.01,23.1,14.3,7.47,7.06,13.08,15.28,16.81,24.67,3.74,9.39,5.6,19.47,5.6,30.22Zm-35.62,1.1c0-7.04-1.19-14.04-3.56-20.98-2.38-6.94-6.01-12.68-10.9-17.21-3.07-2.93-6.6-5.23-10.58-6.91-3.98-1.67-8.42-2.51-13.3-2.51s-9.25.85-13.3,2.56c-4.05,1.71-7.79,4.24-11.21,7.59-4.33,4.33-7.7,9.75-10.11,16.27-2.41,6.52-3.61,13.24-3.61,20.14,0,7.6,1.2,14.58,3.61,20.93,2.41,6.35,5.92,11.69,10.53,16.01,3.07,2.93,6.67,5.27,10.79,7.01,4.12,1.75,8.59,2.62,13.41,2.62s9.06-.84,13.15-2.51c4.09-1.67,7.77-4.08,11.05-7.22,4.26-4.05,7.66-9.24,10.21-15.59,2.55-6.35,3.82-13.08,3.82-20.2Z" style="fill:#f45b69; stroke-width:0px;"/><path d="m1159.89,843.94c0,7.82-2.41,14.77-7.23,20.85-4.82,6.08-11.71,10.76-20.66,14.04-7.27,2.66-15.68,4.47-25.22,5.45-9.54.98-20.01,1.47-31.4,1.47-6.15,0-12.58-.09-19.29-.26-6.71-.17-11.67-.33-14.89-.47.14-11.46.24-23.15.31-35.07.07-11.92.1-24.72.1-38.42,0-14.96-.07-29.58-.21-43.87-.14-14.29-.21-21.82-.21-22.59,1.19,0,5.06-.14,11.63-.42,6.56-.28,13.62-.42,21.16-.42,11.38,0,20.85.32,28.39.94,7.54.63,14.39,1.89,20.53,3.78,7.75,2.38,13.9,6.07,18.44,11.07,4.54,5,6.81,11.14,6.81,18.41,0,6.65-1.94,12.7-5.81,18.15-3.88,5.46-9.03,9.48-15.45,12.07v.73c4.06.56,7.86,1.56,11.4,2.99,3.54,1.43,6.71,3.37,9.51,5.81,4.13,3.14,7.18,6.83,9.14,11.05,1.96,4.23,2.94,9.13,2.94,14.72Zm-35.62-3.88c0-3.21-.63-6.01-1.89-8.38-1.26-2.37-2.97-4.54-5.13-6.5-1.89-1.61-4.4-2.93-7.54-3.98-3.14-1.05-6.53-1.57-10.16-1.57-2.79,0-5.1.04-6.91.1-1.82.07-2.93.1-3.35.1l-2.93-13.3c3.7-.14,7.16-.68,10.37-1.63,3.21-.95,5.9-2.19,8.07-3.73,2.3-1.75,4.21-3.9,5.71-6.46,1.5-2.56,2.25-5.69,2.25-9.4,0-3.15-.82-6.06-2.46-8.72-1.64-2.66-3.89-4.76-6.76-6.3-2.45-1.19-5.33-2.07-8.64-2.63-3.32-.56-6.83-.84-10.53-.84-1.89,0-3.82.04-5.81.1-1.99.07-3.34.1-4.03.1-.14,7.06-.23,14.89-.26,23.49-.04,8.6-.05,16.22-.05,22.86s.03,16.31.1,28.37c.07,12.06.1,18.58.1,19.56.98,0,2.46.05,4.45.16,1.99.1,4.24.16,6.76.16,5.45,0,10.7-.3,15.77-.89,5.06-.59,9.27-1.83,12.62-3.72,3.21-1.68,5.73-3.98,7.54-6.91,1.81-2.93,2.72-6.29,2.72-10.06Z" style="fill:#f45b69; stroke-width:0px;"/><path d="m1326.14,815.24c0,11.17-2.01,21.48-6.02,30.9-4.02,9.43-9.69,17.53-17.02,24.3-6.91,6.43-14.67,11.19-23.26,14.3s-17.77,4.66-27.55,4.66-18.72-1.48-27.24-4.45c-8.52-2.97-16.1-7.42-22.73-13.36-7.47-6.7-13.34-14.88-17.6-24.51-4.26-9.64-6.39-20.29-6.39-31.95,0-10.82,1.76-20.69,5.29-29.59,3.53-8.9,8.89-16.92,16.08-24.04,6.56-6.56,14.32-11.59,23.26-15.09,8.94-3.49,18.65-5.24,29.12-5.24s19.78,1.62,28.55,4.87c8.76,3.25,16.46,8.01,23.1,14.3,7.47,7.06,13.08,15.28,16.81,24.67,3.74,9.39,5.6,19.47,5.6,30.22Zm-35.62,1.1c0-7.04-1.19-14.04-3.56-20.98-2.38-6.94-6.01-12.68-10.9-17.21-3.07-2.93-6.6-5.23-10.58-6.91-3.98-1.67-8.42-2.51-13.3-2.51s-9.25.85-13.3,2.56c-4.05,1.71-7.79,4.24-11.21,7.59-4.33,4.33-7.7,9.75-10.11,16.27-2.41,6.52-3.61,13.24-3.61,20.14,0,7.6,1.2,14.58,3.61,20.93,2.41,6.35,5.92,11.69,10.53,16.01,3.07,2.93,6.67,5.27,10.79,7.01,4.12,1.75,8.59,2.62,13.41,2.62s9.06-.84,13.15-2.51c4.09-1.67,7.77-4.08,11.05-7.22,4.26-4.05,7.66-9.24,10.21-15.59,2.55-6.35,3.82-13.08,3.82-20.2Z" style="fill:#f45b69; stroke-width:0px;"/><path d="m1462.96,773.86c-2.93,0-8.52-.03-16.76-.1-8.24-.07-18.19-.1-29.86-.1-.14,10.97-.25,19.77-.31,26.4-.07,6.64-.1,15.23-.1,25.77,0,11.94.05,23.48.16,34.62.1,11.14.19,19.43.26,24.88h-34.68c.07-5.24.14-13.22.21-23.94.07-10.72.1-22.61.1-35.67v-24.62c0-6.77-.07-15.92-.21-27.45-11.45,0-21.69.04-30.69.1-9.01.07-14.35.1-16.03.1v-28.6c5.45,0,14.35.02,26.71.05,12.36.04,24.69.05,36.98.05,14.18,0,27.74-.02,40.7-.05,12.95-.03,20.79-.05,23.52-.05v28.6Z" style="fill:#f45b69; stroke-width:0px;"/></g></svg>