<?xml version="1.0" encoding="UTF-8"?><svg id="a" xmlns="http://www.w3.org/2000/svg" xmlns:xlink="http://www.w3.org/1999/xlink" viewBox="0 0 1536 1024"><defs><filter id="b" filterUnits="userSpaceOnUse"><feOffset dx="3" dy="3"/><feGaussianBlur result="c" stdDeviation="0"/><feFlood flood-color="#000" flood-opacity="1"/><feComposite in2="c" operator="in"/><feComposite in="SourceGraphic"/></filter><filter id="d" filterUnits="userSpaceOnUse"><feOffset dx="8" dy="8"/><feGaussianBlur result="e" stdDeviation="0"/><feFlood flood-color="#000" flood-opacity="1"/><feComposite in2="e" operator="in"/><feComposite in="SourceGraphic"/></filter></defs><g style="filter:url(#b);"><path d="m625.97,363.29c3.45.23,6.67.46,10.12.46,6.67,0,13.34-.69,20.02-3.22.23,0,.46-.23.69-.23.92,0,1.38.92,1.38,1.84,0,.69-.23,1.38-1.15,1.61-8.28,3.45-16.79,4.83-25.54,4.83-1.84,0-3.68,0-5.52-.23-.69,9.89-4.83,22.32-6.21,53.37v6.67c0,8.97.23,23.7,1.61,25.31.69.69,1.38,1.15,2.3,1.15,5.06,0,13.11-9.89,18.63-28.99.23-.69.69-.92,1.38-.92s1.38.46,1.38,1.38v.46c-3.68,11.04-7.36,26-18.17,32.9-2.53,1.61-5.29,2.3-8.05,2.3-7.13,0-13.8-5.52-16.56-12.65-2.07-5.52-2.76-11.5-2.76-19.32,0-12.42,2.07-29.45,5.52-56.13.46-3.91.92-5.98.92-7.36,0-1.84-1.15-1.38-4.6-1.84-4.6-.69-8.28-.92-11.27-.92-14.72,0-12.19,6.9-14.26,6.9h-.23c-1.38,0-2.53-1.15-2.53-2.53,0-3.45,4.83-8.51,20.02-8.51,3.91,0,8.51.23,14.03,1.15,2.07-6.44,6.21-9.89,10.12-9.89,4.37,0,8.28,3.68,8.74,12.42Z" style="fill:#fff; stroke-width:0px;"/><path d="m678.42,408.84c2.53-5.98,6.21-8.05,9.89-8.05,4.83,0,9.43,4.6,9.43,9.66,0,.69,0,1.38-.23,2.07-2.3,8.51-5.98,17.94-5.98,27.15,0,2.3.23,4.6.69,6.9.23.92,1.15,4.6,1.15,5.29v.23h.23c2.3,0,10.81-10.58,13.34-24.39.23-.92.92-1.38,1.84-1.38s2.3.69,2.3,1.84c0,.23-.23.46-.23.69-3.45,11.04-8.05,34.05-22.78,34.05-1.61,0-3.45-.23-5.52-.92-8.05-2.99-11.04-10.58-11.27-19.79-7.36,14.26-15.18,20.02-21.63,20.02-8.51,0-14.49-9.2-14.49-22.09,0-13.8,8.05-39.11,24.16-41.18h1.84c5.98,0,14.95,3.91,17.25,9.89Zm-23.7,31.98c0,.92,0,1.61.23,2.3.69,2.99,1.84,4.37,3.22,4.37,4.14,0,10.35-10.35,14.03-18.17,1.61-8.05,3.45-12.65,3.45-13.57-.92-4.14-2.53-5.75-4.37-5.75-6.67,0-16.56,20.71-16.56,30.83Z" style="fill:#fff; stroke-width:0px;"/><path d="m726.96,356.39c.69,1.84,1.15,3.68,1.15,5.52,0,5.52-2.76,12.19-4.83,28.07-1.38,10.12-1.61,20.71-1.61,30.6,0,18.4,1.38,33.59,2.07,34.74,1.15,2.07,2.76,3.22,4.6,3.22,5.06,0,11.96-8.74,17.48-30.14.23-.92.69-1.15,1.38-1.15.92,0,1.84.69,1.84,1.61v.46c-3.22,11.04-7.13,28.53-17.71,35.2-2.3,1.38-4.6,2.07-6.67,2.07-7.59,0-14.72-7.13-17.94-13.8-3.68-7.36-5.29-19.79-5.29-33.59,0-27.84,6.21-60.74,12.42-66.26,1.61-1.38,3.45-2.07,5.06-2.07h.69c3.22,0,6.21,2.07,7.36,5.52Z" style="fill:#fff; stroke-width:0px;"/><path d="m791.84,403.09c0,1.15-.69,2.3-2.3,2.76-10.81,2.76-11.5,27.38-14.03,36.12-5.06,17.71-12.19,25.08-18.63,25.08-9.2,0-17.48-14.49-17.48-35.2,0-7.36.92-15.64,3.45-24.16,1.38-4.6,4.6-6.67,8.05-6.67,4.6,0,9.2,3.45,9.89,8.97.23,2.3.46,4.83.46,7.13,0,6.44-.69,13.11-.69,19.32,0,4.37.23,8.28,1.38,11.73.69,2.07.92,3.45,1.15,3.45.46,0,.92-1.15,2.07-3.45,10.12-18.86,11.73-42.33,21.85-48.31.46-.46,1.15-.46,1.61-.46,1.84,0,3.22,1.84,3.22,3.68Z" style="fill:#fff; stroke-width:0px;"/><path d="m822.21,407.69c1.84,2.99,2.53,5.75,2.53,8.28,0,9.2-9.2,16.1-18.63,17.71.69,10.12,7.13,19.32,15.18,19.32,6.9,0,15.18-7.13,21.17-27.38.23-.92.92-1.15,1.61-1.15.92,0,1.61.46,1.61,1.38v.46c-8.28,28.07-22.32,39.34-34.51,39.34-13.34,0-24.85-13.11-24.85-32.67,0-3.45.46-7.13,1.15-10.81,2.99-15.64,11.73-23.01,20.25-23.24,5.52,0,10.81,2.99,14.49,8.74Zm-9.66,6.67c-3.91,3.45-5.75,8.74-6.44,14.26,9.66-2.53,13.11-8.28,13.11-11.96,0-2.3-1.15-3.91-2.99-3.91-1.15,0-2.3.46-3.68,1.61Z" style="fill:#fff; stroke-width:0px;"/><path d="m883.63,403.55c1.38,0,2.76,0,4.14-.23h.92c2.76,0,5.75,2.07,5.75,4.83,0,.92-.23,1.84-.92,2.76-10.58,14.95-5.75,11.73-25.54,36.58,6.9.92,14.49,8.51,20.94,8.51,2.3,0,4.6-.92,6.67-3.45.23-.23.69-.46,1.15-.46.92,0,1.84.92,1.84,1.84v.46c-3.22,8.28-7.36,10.81-12.19,10.81-7.59,0-16.33-6.21-23.24-6.21-2.3,0-4.37.69-6.21,2.53-1.15,1.15-2.3,1.61-3.45,1.61-2.76,0-5.52-2.53-5.52-5.29,0-.92.23-1.61.69-2.53,6.9-12.65,13.11-28.07,22.78-39.34-5.06-.69-11.04-2.07-16.1-2.07-5.75,0-10.35,1.84-10.35,9.89,0,1.15.23,2.76.46,4.37v.23c0,1.15-.92,1.84-1.84,1.84-.46,0-1.15-.23-1.38-1.15-.69-2.07-.92-3.91-.92-5.98,0-6.67,3.68-13.11,9.2-17.48,3.91-2.99,8.28-3.91,12.88-3.91,6.67,0,13.57,1.84,20.25,1.84Z" style="fill:#fff; stroke-width:0px;"/></g><g style="filter:url(#d);"><path d="m404.97,509.33h-58.67v38.65h55.22v27.15h-55.22v44.17h60.97v27.15h-94.1v-164.27h91.8v27.15Z" style="fill:#f9cf6f; stroke-width:0px;"/><path d="m473.75,482.18l23.47,115.95h.46l23.7-115.95h49v164.27h-30.37v-131.14h-.46l-29.22,131.14h-25.77l-29.22-131.14h-.46v131.14h-30.37v-164.27h49.23Z" style="fill:#f9cf6f; stroke-width:0px;"/><path d="m704.73,482.18c6.75,0,13,.69,18.75,2.07s10.7,3.68,14.84,6.9c4.14,3.22,7.36,7.52,9.66,12.88,2.3,5.37,3.45,11.96,3.45,19.79,0,8.9-2.07,16.53-6.21,22.89-4.14,6.37-10.35,10.7-18.64,13v.46c9.2,1.23,16.49,5.14,21.86,11.73,5.37,6.6,8.05,15.42,8.05,26.46,0,6.44-.84,12.58-2.53,18.4-1.69,5.83-4.56,10.93-8.63,15.3-4.07,4.37-9.36,7.86-15.87,10.47-6.52,2.61-14.61,3.91-24.27,3.91h-55.91v-164.27h55.45Zm-12.88,67.41c9.2,0,15.91-1.65,20.13-4.95,4.22-3.3,6.33-8.86,6.33-16.68s-1.92-13.34-5.75-16.56c-3.84-3.22-9.89-4.83-18.18-4.83h-11.96v43.02h9.43Zm3.45,72.47c7.97,0,14.42-1.76,19.33-5.29,4.91-3.53,7.36-10.04,7.36-19.55,0-4.75-.65-8.7-1.96-11.85-1.31-3.14-3.07-5.67-5.29-7.59-2.23-1.92-4.87-3.26-7.94-4.03-3.07-.77-6.44-1.15-10.12-1.15h-14.26v49.46h12.88Z" style="fill:#f9cf6f; stroke-width:0px;"/><path d="m838.4,482.18c13.8,0,24.54,3.49,32.21,10.47,7.67,6.98,11.5,17.6,11.5,31.86,0,11.04-2.22,20.06-6.67,27.03-4.45,6.98-11.35,11.47-20.71,13.46v.46c8.28,1.23,14.34,3.91,18.17,8.05,3.83,4.14,6.21,10.81,7.13,20.02.31,3.07.54,6.41.69,10.01.15,3.61.31,7.63.46,12.08.31,8.74.77,15.41,1.38,20.01.92,4.6,2.91,7.75,5.98,9.43v1.38h-35.89c-1.69-2.3-2.76-4.95-3.22-7.94-.46-2.99-.77-6.1-.92-9.32l-.92-31.52c-.31-6.44-1.92-11.5-4.83-15.18-2.92-3.68-7.82-5.52-14.72-5.52h-17.71v69.48h-33.13v-164.27h61.2Zm-14.26,71.78c7.97,0,14.11-1.88,18.4-5.64,4.29-3.76,6.44-10.08,6.44-18.98,0-15.18-7.67-22.78-23.01-22.78h-15.64v47.39h13.8Z" style="fill:#f9cf6f; stroke-width:0px;"/><path d="m996.91,509.33h-58.67v38.65h55.21v27.15h-55.21v44.17h60.97v27.15h-94.1v-164.27h91.8v27.15Z" style="fill:#f9cf6f; stroke-width:0px;"/><path d="m1063.63,603.66h.69l24.39-121.47h34.28l-37.73,164.27h-42.56l-37.73-164.27h35.43l23.24,121.47Z" style="fill:#f9cf6f; stroke-width:0px;"/><path d="m1226.97,509.33h-58.67v38.65h55.21v27.15h-55.21v44.17h60.97v27.15h-94.1v-164.27h91.8v27.15Z" style="fill:#f9cf6f; stroke-width:0px;"/></g></svg>