<?xml version="1.0" encoding="UTF-8"?><svg id="a" xmlns="http://www.w3.org/2000/svg" xmlns:xlink="http://www.w3.org/1999/xlink" viewBox="0 0 1536 1024"><defs><filter id="b" filterUnits="userSpaceOnUse"><feOffset dx="4.77" dy="4.77"/><feGaussianBlur result="c" stdDeviation="0"/><feFlood flood-color="#000" flood-opacity="1"/><feComposite in2="c" operator="in"/><feComposite in="SourceGraphic"/></filter><filter id="d" filterUnits="userSpaceOnUse"><feOffset dx="4.77" dy="4.77"/><feGaussianBlur result="e" stdDeviation="0"/><feFlood flood-color="#000" flood-opacity="1"/><feComposite in2="e" operator="in"/><feComposite in="SourceGraphic"/></filter></defs><path d="m772.29,260.62c3.59,0,3.6-5.59,0-5.59s-3.6,5.59,0,5.59h0Z" style="fill:#fff; stroke-width:0px;"/><g style="filter:url(#b);"><path d="m302.26,154.88c0,.82-.18,1.53-.55,2.12l-.68,1.3-.96,3.08c-.55.64-1.16.96-1.85.96l-3.49.27-8.14,2.8-8.96.55-9.51,1.98c-.87.18-2.1.27-3.69.27-3.83,0-6.82-.18-8.96-.55l-1.64-.27c-.37-1.96-1.44-2.94-3.21-2.94-.82,0-1.76.46-2.8,1.37l.27.89-13.34-3.83-.41-.96-.82.27c-.87,0-2.24-.71-4.11-2.12l-3.62-2.8-2.53-1.78-1.09-1.57-5.61-5.2-.14-1.78c.91,0,1.37-.3,1.37-.89,0-.5-.23-.84-.68-1.03-.46-.18-1.39-.39-2.8-.62l-1.5-.27v-1.71c-.91-.41-1.56-.84-1.95-1.3-.39-.46-.86-1.19-1.4-2.19l.55-.55-.55-.55h-1.03l-4.45-12.04.68-.48.14-.68-.96-4.04-.14-4.1c0-1.82.46-3.49,1.37-4.99.18,0,.3.01.34.03.04.02.07.06.07.1.55,0,1.07-.57,1.57-1.71-.5-1.19-.75-1.98-.75-2.39,0-.59.21-1.23.62-1.92l4.45-9.17,2.53-1.64,1.09-2.39,1.57-1.09,1.37-1.3,3.28-1.09,2.6-3.63c1.09-1.23,2.64-2.21,4.65-2.94l5.06-1.85,3.35-1.57,2.8-1.64,6.71-2.39c2.78-1,4.65-1.55,5.61-1.64h4.51l12.04-1.3,4.04-.14,1.57.14,2.39.96,3.49-.14,2.94,1.44,1.64-.14c1.09,0,1.98.26,2.67.79.68.52,1.03,1.24,1.03,2.15,0,.96-.48,1.8-1.44,2.53l-2.39,1.37-.96.96c-.46.23-.87.34-1.23.34-.41,0-.71-.04-.89-.14l-5.47-2.53-1.37-.14c.09-.09.14-.18.14-.27,0-.41-.32-.93-.96-1.57l-.89-.14-3.76.55-5.06-.96-6.02.41-3.35-.27h-.96c-1.46,0-2.83.23-4.1.68l-4.45,1.85-2.12.14-3.08,1.64-2.53.89-4.72,2.67-1.44-.34-1.98,1.57.14,2.12c-2.92,1.46-4.72,2.58-5.4,3.35l-5.61,6.02-1.16.82.55.55-.55,1.44c-.41,1.46-.74,2.37-.99,2.74-.25.37-.81.75-1.68,1.16l1.03,1.03v1.37l-.89,2.67-.14,8.55-.41,1.64.68,1.71,1.71,3.35-.41,1.03-1.44.27.62,1.37,2.8,3.22,1.37,3.97.96,1.23.41,1.51,2.8,4.24.75,1.37,1.23,1.16,1.98,3.22,1.23.82c.68.68,1.21,1.35,1.57,1.98l1.37.14c.96.82,1.67,1.76,2.12,2.8l1.37.41,5.34,2.39,2.12.55,1.98,1.85c.46.46,2.46,1.05,6.02,1.78l9.65,2.12c1.46.27,2.76.41,3.9.41h1.16l5.34-.41,7.94.14,3.56-1.71,6.02-1.37,2.94-1.71,5.27-1.92,3.69-2.39h.55c1,0,1.5.55,1.5,1.64Z" style="fill:#44bba4; stroke-width:0px;"/><path d="m422.94,119.85c0,.32-.05.57-.14.75l-1.23,4.04.14,3.49-1.03,1.85c-.18-.09-.5-.14-.96-.14-.27,0-.53.23-.75.68-.23.46-.34.98-.34,1.57,0,.18.04.32.14.41.91,1.51,1.37,2.49,1.37,2.94,0,.37-.09.68-.27.96-.96.91-1.62,1.94-1.98,3.08l-1.5.68.41.48-.41.41,1.09.82-.14.41-1.23,1.16-1.57,2.6-1.09,1.16c-.64-.64-1.16-.96-1.57-.96-.82,0-1.23.46-1.23,1.37,0,.37.36,1.03,1.09,1.98-1.41,2.37-3.74,4.56-6.98,6.57-3.38,2.14-6.86,4.08-10.47,5.81-3.6,1.73-6.39,2.78-8.35,3.15l-1.37.27c-3.42.64-5.56.96-6.43.96h-.27l-2.67-.14-1.71.27-2.53-1.51-1.92.82c-.87.59-1.48.89-1.85.89h-.55c-.37-.87-.73-1.49-1.09-1.88-.37-.39-.94-.74-1.71-1.06-2.83,1.46-5.02,2.19-6.57,2.19-.55,0-1.07-.18-1.57-.55-1,0-1.55-.05-1.64-.14l-4.79-1.37-4.04.14-1.57-1.3-2.26.27-1.92-.27-2.81-.82-8.69-1.98-2.39-1.92-3.08-1.16-3.21-3.35c-.73-.55-1.8-.82-3.22-.82l-1.85-2.12c.36-.87.55-1.53.55-1.98,0-1.41-1.69-2.39-5.06-2.94v-.55l-.82-.27-.82-1.51-.68-.75v-1.51l-1.44-4.1-.27-1.37-1.09-6.02.41-5.88.55-1.71.41-3.76,3.35-8.83.41-1.57c.96-2.37,2.46-4.13,4.51-5.27v-.89l3.49-3.9c.55.18.87.27.96.27.68,0,1.16-.27,1.44-.82l.96-2.94,1.3-1.71c.5-1,1.19-1.76,2.05-2.26l2.12-.96,1.85-2.26,4.31-2.94c2.87-1.87,4.52-2.8,4.93-2.8l1.09.41,1.85-2.19,1.23-.27,12.93-5.06c.73-.36,1.62-.55,2.67-.55.96,0,2.12.27,3.49.82l1.09-.41.41-1.3,1.98.27,1.09.21h.34l3.35-.89,5.34.27,2.6-.55,2.26.27,2.12-.14,2.39.82,4.04.75,2.94,1.64,8.42,3.08.82.75,1.57.96v.68l-.27.14c-.37.37-.55.71-.55,1.03s.5.78,1.5,1.37l.27-.55c1.05,0,1.85.5,2.39,1.51,0,1.05.09,1.74.27,2.09.18.34.62.83,1.3,1.47.68-.41,1.32-.62,1.92-.62,1.19,0,2.17.48,2.94,1.44l1.16,1.51,2.46,2.26.34,1.57,1.64,2.05.41,1.85c-.73.96-1.09,1.76-1.09,2.39,0,.27.04.5.14.68l4.17,4.24.27,1.51,1.16,3.22c0,.14-.09.71-.27,1.71l-1.03.55v.68l1.16.14.27,1.57.68,5.13Zm-10.95-11.56c0-2.05-1.3-3.28-3.9-3.69l-.41-3.76-3.35-5.2-.55-2.12-.89-.14-1.23-1.51-3.08-3.63-2.8-1.85-2.8-2.26-1.3-.41-.82-1.51h-1.37c-1.28,0-2.26-.25-2.94-.75l-6.02-3.35-6.02-.82-4.38-.82-4.17.14h-3.21l-3.42.96-3.08.41-3.08,1.85-1.64-.41h-.14l-1.71.55-7.59,4.17-1.78.27c-1.28,1.82-2.39,2.9-3.35,3.22l-1.85.75-6.02,5.88-1.09.82c-1.64,1.23-3.33,3.47-5.06,6.7l-.68,1.3-1.44.27-.68,1.37-.82,3.56-.89.96-.41,1.37-2.8-.41c-.23.78-.47,1.29-.72,1.54-.25.25-.7.54-1.33.86l-.21.68c1.69,1.05,2.53,2.08,2.53,3.08l-.14,4.79,1.03,6.98-.14,1.71,2.19,3.63c-1.09.68-1.64,1.35-1.64,1.98,0,.41.22.81.65,1.2.43.39.97.58,1.61.58.23-.04.42-.08.58-.1.16-.02.42-.03.79-.03l2.53,3.08c-.55.82-.82,1.35-.82,1.57l.55,1.09h.55l2.8,2.67,3.63,1.98,5.06,4.17,3.9.75,2.12,2.19,7.12,2.67,5.88,2.53,1.98-.14,12.59,1.85,1.98.14,1.57-.14,2.67-.68,6.84.41,2.94-.62,5.2-2.05,1.92-.55,1.03.82c1.41-.41,2.19-.84,2.33-1.3l.62-2.19,6.84-5.88,2.8-4.93,1.09-1.98h.89l.82-1.78-.41-.75.41-1.23.27-5.61,1.09-2.67.34-1.98.96-.68.68-4.17c-.91-1.64-1.37-2.92-1.37-3.83v-.14l.27-6.57-.14-2.12c1.37-.87,2.05-1.78,2.05-2.74Z" style="fill:#44bba4; stroke-width:0px;"/><path d="m539.24,158.71c0,1.51-.75,3.12-2.26,4.86-1.23,1.32-2.21,1.98-2.94,1.98-.09,0-.41-.09-.96-.27l-1.23.82c-1,.77-1.8,1.16-2.39,1.16l-1.09-.14.14-1.71.55-3.9-.14-2.8,1.23-8.28-.68-3.63-.41-8-.41-2.8.14-6.84-.27-4.52.27-2.67-1.03-8.82.89-1.78-1.16-.48v-1.64l-.96-4.1.14-3.9-.68-1.64-1.71.41-.55.82.27,1.98-3.62,5.47-.14,1.51-1.16,1.09-.68,1.85-.96,1.44-.41,2.46-1.85,4.1-.27,1.51c-1.5,1.23-2.53,2.35-3.08,3.35l-2.26,5.06-6.16,10.54-4.38,8.14-1.09,1.64-4.04,3.76c-.5.41-.75.8-.75,1.16.09.09.16.18.21.27.27,1.09.41,1.8.41,2.12l-.14.68c-.87.14-1.49.4-1.88.79-.39.39-.74,1.02-1.06,1.88-.59,1.6-1.08,2.7-1.47,3.32-.39.62-.89,1.08-1.51,1.4-.62.32-1.54.62-2.77.89-1.19-1.32-1.87-2.19-2.05-2.6-.18-.41-.34-1.09-.48-2.05l-.55-.55c0-.96-.57-1.71-1.71-2.26l-.55.55-1.03-1.78-1.64-4.52-1.44-1.92-1.5-4.24-1.71-2.53c.59-1.09.89-2.12.89-3.08,0-.73-.16-1.23-.48-1.51l-2.19-1.85-8.55-16.97-2.12-4.45h.14l.41-1.85-1.09-2.26-.41-2.05-1.44.68-.82-1.44c-1.41-2.42-2.3-4.08-2.67-4.99-.37-.91-.82-2.28-1.37-4.1-1.19,0-1.94-.36-2.26-1.09l-1.03,2.26h-1.09l-.27.55c.64.96.96,1.89.96,2.8l-.41,5.2c-.05.82-.1,1.47-.17,1.95s-.18.84-.34,1.09c-.16.25-.49.72-.99,1.4l1.64,3.35-.27,1.71-.14,4.86-.41,2.94.41,14.78-.82,2.19c.64,1.32.96,2.65.96,3.97v1.37c-1.19.14-1.96.43-2.33.89-.37.46-.62,1.37-.75,2.74l2.53.89.14,1.51v1.57c0,1.37-.18,2.21-.55,2.53l-5.2,3.49-2.53,2.05-.96.21-1.44-.21-.14-.82-.27-1.23,1.3-3.22v-6.64l1.09-8.21-.14-4.38-.14-1.51.27-2.12-.14-1.71c.68-.5,1.09-1.25,1.23-2.26l.75-.41c-.14-.87-.3-1.41-.48-1.64l-.82-1.71c0-.23-.01-.41-.03-.55-.02-.14-.06-.27-.1-.41,0-.68.39-1.44,1.16-2.26-.78-1.32-1.16-2.49-1.16-3.49v-.41l.41-8.41-.41-7.32.14-1.51,2.26.68c.46-.59.68-1.09.68-1.51v-.48l-3.08-.27-.27-3.35,2.26-.14.27-1.37c0-.82-.66-1.48-1.98-1.98l-.68-3.76h.68l.14-.89-1.09-6.7.14-3.22-1.23-2.67c0-.91.82-1.76,2.46-2.53l1.3.27.82-1.78,1.44-.62,3.08-2.33c.68-.5,1.28-.75,1.78-.75l1.44.34c.04.87.19,1.49.45,1.88.25.39.79.79,1.61,1.2.09.59.23,1.13.41,1.61.18.48.49,1.06.92,1.74.43.68,1.04,1.67,1.81,2.94l-.62,1.51-.68,2.26.27.82,2.12,1.03,1.64,5.13-1.37,2.12.82.41.55,1.44c1.37.09,2.51.94,3.42,2.53l2.19,4.86,2.53,7.18c-1.19,1.05-1.78,1.89-1.78,2.53l.68,1.64,1.5.14c.78.09,1.28.25,1.5.48.23.23.48.73.75,1.51l-1.23,1.98c.5.64.96.96,1.37.96h.82l.89,1.23c1.78,3.33,2.67,5.34,2.67,6.02l-.55,2.12-.48,1.57,1.3.68,1.37.27,1.57,2.12,2.67,2.8.68,2.67,1.51,1.37,1.85,4.52,1.57,1.64,2.19,4.38,1.16.96,1.64-1.57,4.93-5.54,2.53-4.38,2.26-4.17,3.35-5.75,6.29-14.71,2.53-3.83.68-4.31,3.49-7.87.55-2.12.89-.27.82-.68v-.55l1.09-.55-.14-1.16-1.23-.55c.36-1.92.82-3.03,1.37-3.35l1.3-.55,1.23-1.03c-.55-.96-1.23-1.98-2.05-3.08.73-1,1.09-1.82,1.09-2.46,0-.32-.05-.57-.14-.75l1.23-1.37,2.12-3.22,4.04-3.35c1.73-1.51,2.78-2.26,3.15-2.26l1.64.41-.41,4.65.55.55,1.3-.14c1.28,0,1.92.37,1.92,1.09l-.14,2.67-.55,2.26-.82-.27-.27,1.23.96,2.53.27,14.57v.68c0,.73-.18,1.35-.55,1.85l-1.85,2.53c-.18.18-.27.73-.27,1.64.37.55.73.9,1.09,1.06.37.16.93.24,1.71.24l.14,2.53-.27,11.29,1.09,4.93.62,8.55.55,5.75c0,.78-.18,1.71-.55,2.8.59.73.96,1.35,1.09,1.85.14.5.27,1.8.41,3.9l.27,5.34v.14Z" style="fill:#44bba4; stroke-width:0px;"/><path d="m651.43,76.21l-.14,4.17-1.37,5.06.14,2.53-.27,1.92.82,3.22v.14c0,.82-.53,2.1-1.57,3.83l-.96,1.78-1.5.41.96,1.44c1.05,1.41,1.73,2.38,2.05,2.91.32.52.48,1.04.48,1.54l-.68,4.1v2.26l-.89.27.55.68-.55,2.26v.27l1.3,8.28-.41,1.64c-1.14.5-1.71,1.12-1.71,1.85s.62,1.57,1.85,2.53l.14,5.88-.62,1.64c-.18.73-.27,1.07-.27,1.03,0,.5.3,1.28.89,2.33.46,1,.68,1.94.68,2.8,0,.78-.32,1.67-.96,2.67.91,1,1.46,1.67,1.64,1.98l-.14,5.47.27,6.84v.89c-1.14.23-2.08.56-2.8.99-.73.43-2.17,1.49-4.31,3.18l-.62.96-1.23-.14-2.67,2.12c-.46-1-.68-1.94-.68-2.8,0-1.6.36-2.8,1.09-3.63h1.03c-.05-.73-.18-1.23-.41-1.51-.23-.27-.75-.52-1.57-.75l.14-6.84.55-.48-.41-3.22c-.41-.27-.78-.41-1.09-.41-.09,0-.19.01-.31.03-.11.02-.26.06-.44.1l-.68.75h-1.09c-.59,0-1.03.14-1.3.41l-1.64,1.09-2.8,1.23-10.26,7.05-3.35,1.23-4.45,2.39-6.02,2.12-4.65,1.37c-1.78.87-3.17,1.3-4.17,1.3h-2.53l-4.24,1.37-3.76.14-2.39.27-2.12-.27-4.99-.96-3.08-1.44-2.26-.68-2.8-2.67-1.09-1.23-2.26.27-1.44-1.09-.68-1.44-2.53-1.98c-.46-.68-.68-2.12-.68-4.31v-1.09l-2.12-1.16-.82-2.39-.96-4.17-.75-1.57,1.98-3.49c-1.19-1-2.02-1.93-2.5-2.77-.48-.84-.72-1.84-.72-2.98s.18-2.03.55-2.8l1.71-4.04.14-5.47,1.09-1.09c.91.18,1.53.27,1.85.27.64,0,.96-.3.96-.89s-.46-1.09-1.37-1.51v-2.8l-1.44-.41,1.71-8.41.68-1.57.68-1.23,1.57-4.79,1.09-1.64.55-1.57,1.71-1.64c-.18-.77-.27-1.53-.27-2.26,0-1.64,1.03-3.92,3.08-6.84l-1.3-.89-1.5.89c-.37-1.55-.55-2.44-.55-2.67,0-.73.38-1.38,1.13-1.95.75-.57,1.63-.86,2.63-.86l1.71.14.55-1.3,1.78-.27,6.77-3.22,1.92-.82c.96,1.14,1.44,2.12,1.44,2.94,0,.5-.18.87-.55,1.09l-1.44,1.16-2.94,4.31-.96.68-.14,2.12-1.85,2.8-2.53,3.49-1.51,2.39-1.71,6.7-1.64,5.2-.34,4.04-1.92,5.47-.14,2.53-1.16,5.2.62,3.35-.75,2.53,2.39,7.73.14,1.51c-.55.05-1,.33-1.37.86-.37.52-.55,1.13-.55,1.81,0,.87.78,1.44,2.33,1.71l.75,1.64,1.23,3.22,3.21,4.52.55,1.51,1.44.62,2.53,2.05,6.43,1.98,4.17,1.09,2.53.89c1.19,1.37,2.07,2.05,2.67,2.05.5,0,1.16-.82,1.98-2.46l7.94-.48,1.44,1.3,1.5-.68,4.93-1.85,1.85-1.44,5.2-2.33,3.49-2.94,1.64-.27,4.65-2.94,3.21-.89.55-.82-1.23-.82,1.5-1.03,2.26-1.78,4.24-6.77,2.05-1.64c.37-.5.55-1.44.55-2.8v-4.93l.14-5.06c.68-.55,1.12-1.01,1.3-1.4.18-.39.27-1.13.27-2.22l-2.39-1.78-.68-15.32.82-1.37c-.46-.82-.68-1.48-.68-1.98,0-.78.23-1.76.68-2.94l-.68-.55-.14-1.71-.55-5.88c0-.55.37-1.44,1.09-2.67l-3.08-3.22.82-2.19h1.3c1.41-1.46,2.58-2.35,3.49-2.67l1.57-.55,1.37-.89,1.85.27c.77-1.32,1.34-2.12,1.71-2.39.36-.27,1.09-.41,2.19-.41l.68,1.85v1.57Z" style="fill:#44bba4; stroke-width:0px;"/><path d="m743.03,102.34c-.18.46-.68.89-1.51,1.3.64,1.41.96,2.26.96,2.53l-.27,5.61.27,4.45-.82,3.22.27,4.52-.41,6.29.41,3.63-.41,2.39.27,6.43-.14,1.85-.41-.68c-.78.59-1.16,1.14-1.16,1.64,0,.91.66,1.8,1.98,2.67.36,1.64.55,2.9.55,3.76,0,1.82-.35,3.55-1.06,5.17-.71,1.62-2,3.89-3.87,6.81l-.96,1.51-2.67,1.57-.55-1.57-3.21-4.93-4.1-5.13-3.08-5.34-1.09-1.44.27-1.51c0-1.09-.8-2.26-2.39-3.49-2.24-1.87-3.49-3.01-3.76-3.42l-3.76-6.7-1.98-2.39-1.23-3.49c-.78-1.87-2.23-2.8-4.38-2.8l-.82-1.64-3.97-6.5-1.09-3.63-2.26-2.53-.41.55-1.09-.68c-3.15-5.34-6.13-8.73-8.96-10.19.36-1.14.55-1.98.55-2.53,0-1.14-.43-1.71-1.3-1.71l-1.5.55c-.73-.73-1.35-1.09-1.85-1.09l-1.37.68,1.51,3.22-1.64.62.41,1.09-.55,2.94.27,5.88-.41,1.98-1.16.55.14,1.64,1.16,3.97c.09.09.14.15.14.17v.1c0,.73-.57,1.85-1.71,3.35l.55,2.8.62,1.57v20.11l.82,5.88v.14s-.05.16-.14.34l-.82,3.9.14.82c.82.46,1.23.98,1.23,1.57s-1.12,2.51-3.35,5.75l-.82,1.23-1.57-.14c-.87,1.05-1.57,1.57-2.12,1.57h-.14l-1.51-.14-1.16.27.14-1.71c.14-1.28.34-2.12.62-2.53l1.5-1.92,1.16-1.71-1.57-1.37.41-1.57.82-1.98c-.46-1.37-.68-2.14-.68-2.33.04-.09.08-.17.1-.24.02-.07.04-.15.04-.24l1.03-3.63-.34-7.87c.41-.68,1.12-1.14,2.12-1.37v-.68l-1.5-1.85.27-1.51-.27-1.44.41-3.9s-.01-.09-.03-.14c-.02-.04-.06-.09-.1-.14l-.89-2.94.48-3.97-.27-2.8c0-.91.64-1.8,1.92-2.67l-.14-1.64-.96-2.26c0-.46.14-1.12.41-1.98-.82-.68-1.23-1.41-1.23-2.19,0-.82.27-2.23.82-4.24l-.68-.96-.14-1.98-.62-4.72c0-.32.21-.98.62-1.98v-1.57c0-2.78-.25-4.49-.75-5.13l-3.08-3.83.55-1.51,1.71-1.03c1.14-.64,1.94-1.16,2.39-1.57.46-.41.82-1,1.09-1.78l1.16-.68,3.21-3.76c.18-.18.46-.27.82-.27,1.05,0,1.85.64,2.39,1.92l3.08,6.02,1.23,1.57,1.16,2.12-.41.41c1.09,1.09,2.53,3.15,4.31,6.16l3.49,5.88c.78,1.37,1.16,2.17,1.16,2.39,0,.55-.21,1.05-.62,1.51l2.8,1.57-.41,1.23,1.16,1.44,2.8,4.04,2.05,1.98.75,2.26,6.16,6.57-1.3.68c.23.91.52,1.52.89,1.81.37.3,1.09.54,2.19.72l3.22,4.45-.96.14,1.85,1.3c1.28.91,2.1,1.64,2.46,2.19.36.55.62,1.41.75,2.6l.96.96-.14.96c0,1,.32,2.08.96,3.22l1.57,1.03c1.96.87,2.99,1.37,3.08,1.51l2.94,4.52,1.5.96,1.98,1.71.68-1.57-.14-8.28,1.44-3.35c-.96-1-1.44-1.89-1.44-2.67,0-.46.04-.77.14-.96l.89-2.8.41-9.78,1.09-2.12-.82-2.12.55-3.22v-.14c0-.59-.55-1.12-1.64-1.57l-.34-17.79c.64-.04,1.06-.22,1.27-.51.21-.3.35-.9.45-1.81l-2.12-1.57-.27-2.39c-.23-2.01-.51-3.33-.86-3.97-.34-.64-1.04-.96-2.09-.96-.18-.73-.27-1.28-.27-1.64,0-1.69,1.96-3.03,5.88-4.04.64-.96,1.2-1.62,1.68-1.98.48-.36,1.52-.89,3.11-1.57.55.91.82,1.76.82,2.53l-.27,1.98.41,1.51-.14,2.67.14,5.75c0,1.14-.14,2.12-.41,2.94l-.55,2.8v.14l1.09,4.52-.27,3.35.41,1.51Z" style="fill:#44bba4; stroke-width:0px;"/><path d="m776.62,75.18l-.27,2.12-.41,2.26-1.37,2.33.96,7.18c0,.96-.52,2.51-1.57,4.65v1.23l1.03.41-.14,2.12.27,5.61c0,1.05-.09,1.81-.27,2.29s-.62,1.06-1.3,1.74l1.03,1.57-.14,2.05v1.85l-1.44,2.39.68,1.78c.41,1,.62,1.67.62,1.98l-.34,3.76v4.1l-.96,3.22v.55c0,.68.36,1.25,1.09,1.71v2.53l.21,1.51.14,2.94v1.09l-1.3,3.83,1.3.68-.48,1.09.62,3.83-.27,6.43.41,2.67.14,1.78c-4.15,3.74-7,5.61-8.55,5.61l-.82-.14-.21.75-2.46.55-1.16-1.71c.87-1.6,1.3-2.85,1.3-3.76v-1.57l1.78-6.02v-4.45l3.08-.55.14-.62c0-.41-.23-1-.68-1.78l-1.64.14-.34-.27-.41.41.27-2.26.14-3.08.48-5.06-.14-2.67,1.23-1.92c-.82-.78-1.31-1.38-1.47-1.81-.16-.43-.24-1.24-.24-2.43s.34-2.44,1.03-3.76l-1.03-1.09v-1.98l.14-6.57c0-.41-.05-.71-.14-.89l-.27-1.37-.14-1.44c.59-.55.89-1.19.89-1.92l-1.3-1.44.55-1.09-.55-5.06.82-2.53v-.27c0-.73-.46-1.53-1.37-2.39l-.14-1.37-.41-6.02.41-2.53-.96-1.44.14-2.19v-3.97c.5-.82,1.19-1.23,2.05-1.23l3.56-.27c.55-.09,1.28-.98,2.19-2.67l2.39-.68,2.26-.89c-.09,0,.23.09.96.27.27,1,.41,1.71.41,2.12Z" style="fill:#44bba4; stroke-width:0px;"/><path d="m889.16,154.88c0,.82-.18,1.53-.55,2.12l-.68,1.3-.96,3.08c-.55.64-1.16.96-1.85.96l-3.49.27-8.14,2.8-8.96.55-9.51,1.98c-.87.18-2.1.27-3.69.27-3.83,0-6.82-.18-8.96-.55l-1.64-.27c-.37-1.96-1.44-2.94-3.21-2.94-.82,0-1.76.46-2.8,1.37l.27.89-13.34-3.83-.41-.96-.82.27c-.87,0-2.24-.71-4.11-2.12l-3.62-2.8-2.53-1.78-1.09-1.57-5.61-5.2-.14-1.78c.91,0,1.37-.3,1.37-.89,0-.5-.23-.84-.68-1.03-.46-.18-1.39-.39-2.8-.62l-1.5-.27v-1.71c-.91-.41-1.56-.84-1.95-1.3-.39-.46-.86-1.19-1.4-2.19l.55-.55-.55-.55h-1.03l-4.45-12.04.68-.48.14-.68-.96-4.04-.14-4.1c0-1.82.46-3.49,1.37-4.99.18,0,.3.01.34.03.04.02.07.06.07.1.55,0,1.07-.57,1.57-1.71-.5-1.19-.75-1.98-.75-2.39,0-.59.21-1.23.62-1.92l4.45-9.17,2.53-1.64,1.09-2.39,1.57-1.09,1.37-1.3,3.28-1.09,2.6-3.63c1.09-1.23,2.64-2.21,4.65-2.94l5.06-1.85,3.35-1.57,2.8-1.64,6.71-2.39c2.78-1,4.65-1.55,5.61-1.64h4.51l12.04-1.3,4.04-.14,1.57.14,2.39.96,3.49-.14,2.94,1.44,1.64-.14c1.09,0,1.98.26,2.67.79.68.52,1.03,1.24,1.03,2.15,0,.96-.48,1.8-1.44,2.53l-2.39,1.37-.96.96c-.46.23-.87.34-1.23.34-.41,0-.71-.04-.89-.14l-5.47-2.53-1.37-.14c.09-.09.14-.18.14-.27,0-.41-.32-.93-.96-1.57l-.89-.14-3.76.55-5.06-.96-6.02.41-3.35-.27h-.96c-1.46,0-2.83.23-4.1.68l-4.45,1.85-2.12.14-3.08,1.64-2.53.89-4.72,2.67-1.44-.34-1.98,1.57.14,2.12c-2.92,1.46-4.72,2.58-5.4,3.35l-5.61,6.02-1.16.82.55.55-.55,1.44c-.41,1.46-.74,2.37-.99,2.74-.25.37-.81.75-1.68,1.16l1.03,1.03v1.37l-.89,2.67-.14,8.55-.41,1.64.68,1.71,1.71,3.35-.41,1.03-1.44.27.62,1.37,2.8,3.22,1.37,3.97.96,1.23.41,1.51,2.8,4.24.75,1.37,1.23,1.16,1.98,3.22,1.23.82c.68.68,1.21,1.35,1.57,1.98l1.37.14c.96.82,1.67,1.76,2.12,2.8l1.37.41,5.34,2.39,2.12.55,1.98,1.85c.46.46,2.46,1.05,6.02,1.78l9.65,2.12c1.46.27,2.76.41,3.9.41h1.16l5.34-.41,7.94.14,3.56-1.71,6.02-1.37,2.94-1.71,5.27-1.92,3.69-2.39h.55c1,0,1.5.55,1.5,1.64Z" style="fill:#44bba4; stroke-width:0px;"/><path d="m992.46,161.51c0,.18-.09.46-.27.82l-2.67,2.26-2.8,4.04h-2.26l-1.37.27-.14-1.23-.82-1.71.14-1.37-.14-1.3c-.68-1.28-1.07-2.39-1.16-3.35h-1.09l-.55-1.51-2.39-4.65-.41-2.39-3.49-6.02c-.41-.82-.62-1.76-.62-2.8.04-.18.08-.34.1-.48.02-.14.03-.34.03-.62-.82-.41-1.46-.98-1.92-1.71-1.64-2.74-2.62-4.97-2.94-6.7l-2.39-1.09c-.41,2.05-1.21,3.08-2.39,3.08h-.27l-7.11-1.3-2.53.14-1.85-.27-9.78,1.3-5.75-.27-3.08.82-2.39-.82-1.85-.48c-.59.78-1.09,1.28-1.5,1.51-.41.23-.94.34-1.57.34h-.41l-6.02-.41-2.26.55-2.94.14c-1,.23-2.12,1.78-3.35,4.65l-1.23,2.67-.75.27c-1.32,3.51-3.03,6.82-5.13,9.92l-.14,1.44-1.03,1.51-3.76,8.41c-.27.82-1.3,1.44-3.08,1.85l.14,1.09c-.55.09-1.3.14-2.26.14-1.32,0-2.71-.5-4.17-1.51l2.67-4.65,1.92-2.39,1.57-2.53.96-1.51.96-1.3v-.55c1.87-.27,2.8-1.12,2.8-2.53v-1.64l2.12-2.53,2.94-6.43,1.71-2.39,1.92-4.24,2.26-4.31,2.67-4.52,2.8-2.67c.18-.18.27-.41.27-.68,0-.36-.23-.77-.68-1.23.82-.59,1.41-1.08,1.78-1.47.36-.39.71-.92,1.03-1.61l-.82-1.3.82-1.37,1.09-3.22c.14-.27.71-.84,1.71-1.71l-.14-.68,3.08-7.87,2.39-6.43c.46-1.19,1.48-2.64,3.08-4.38l-.55-1.51.41-1.85c.27-1.32.54-2.23.79-2.74.25-.5.68-.87,1.3-1.09.62-.23,1.4-.43,2.36-.62l.41-1.03-.68-2.05c-.18-.55-.27-.93-.27-1.16,0-.64.27-1.09.82-1.37l4.65-3.08.96-2.12c.96-1.19,2.23-1.85,3.83-1.98l.82,2.8h.82l-.27.75.96,2.05,1.98,2.53,2.53,4.65,1.37,3.76,1.71,3.08-1.71.55c0,.5.21.94.62,1.3,1.64.96,2.46,1.85,2.46,2.67l-.14,1.23,1.57,1.71,1.85,3.08.96,1.64.14.55-.55,1.3.27,1.37.96,1.3,1.98,1.64,2.39,4.79,1.23,2.12v1.64c1.78,1.55,2.67,2.74,2.67,3.56,0,.09-.09.41-.27.96l1.37,1.37,3.08,5.2c.27.41.49.76.65,1.06.16.3.43.78.82,1.44.39.66.65,1.13.79,1.4.77,1.19,1.22,1.96,1.33,2.33.11.37.19,1,.24,1.92,1.6.78,2.39,1.67,2.39,2.67,0,.09-.07.18-.21.27l-.27,2.94c0-.09.09.23.27.96l2.8,1.44.89,1.23.41,1.3c.18.68.93,1.37,2.26,2.05v1.57l2.33,2.39,2.26,3.76,1.16,1.37c.55.68.98,1.41,1.3,2.19.32.78.48,1.32.48,1.64Zm-28.12-35.16l-.62-.55.27-.48-.27-.68h-1.37c-.55-.64-.98-2.37-1.3-5.2l-.14-1.37-2.6-.68-3.28-6.5h-.96l-4.17-8.21.55-1.57-.41-1.71-3.22-1.64-4.93-9.78c-.18-.5-1.25-1.55-3.21-3.15l-.82.62-.89,2.8-.55.14c-.55,1.92-.96,3.1-1.23,3.56-.27.46-.84,1.09-1.71,1.92-1.19,1.05-1.85,2.12-1.98,3.22l-.27,1.64-3.08,6.77c-.32.82-.62,1.53-.89,2.12-.27.59-.46.98-.55,1.16-.09.18-.25.43-.48.75-.23.32-.48.59-.75.82l-.55,1.44c-.37.91-.66,1.47-.89,1.68-.23.21-.73.33-1.51.38l-.14,1.57c-.18,2.33-.56,4.04-1.13,5.13-.57,1.09-1.54,2.1-2.91,3.01l1.23,1.92c-.55.05-.96.21-1.23.48-.27.27-.5.73-.68,1.37l-.48,1.71,1.16.14,2.26.68,1.78-.27,1.57.55.27-.55,1.23-.14,8.83.55,5.61-.41,2.26.96c.32-.32.56-.51.72-.58.16-.07.65-.14,1.47-.21.82-.07,2.1-.22,3.83-.44l1.85-.27-.27.68.55.27c.41,0,.91-.36,1.5-1.09l1.85-.14c2.42-.23,4.24-.4,5.47-.51,1.23-.11,1.98-.21,2.26-.27.27-.07.7-.25,1.27-.55.57-.3,1.13-.65,1.68-1.06Z" style="fill:#44bba4; stroke-width:0px;"/><path d="m1095.69,154.88c0,.82-.18,1.53-.55,2.12l-.68,1.3-.96,3.08c-.46.5-1.03.82-1.71.96l-3.63.27-1.44.68-2.94.89-3.76,1.23-8.96.55-9.51,1.98-2.94.14-4.38-.14-.14,6.7c1.64.77,2.85,1.16,3.62,1.16l1.57-.27,1.5,1.64,2.8,1.71c.5.27.75.73.75,1.37l-.27,2.94,1.09,2.39-1.3,3.08c-.82,1.6-1.67,2.77-2.53,3.52-.87.75-2.03,1.31-3.49,1.68l-1.37.82-.96-.27-1.44-.68-.55,1.64-1.71.27h-2.8c-2.78,0-4.17-.64-4.17-1.92,0-.41.27-1.03.82-1.85l2.12-.27,4.45-.27c1.23-.09,2.31-.91,3.25-2.46.93-1.55,1.4-3.26,1.4-5.13v-1.51l-1.37-.27-.48-1.44-1.37-.14-1.23.27-2.12.75c-.32,0-.64-.29-.96-.86-.32-.57-.48-1.17-.48-1.81l.14-1.16.62-2.67v-5.27l.41-1.98-2.67-.14c-.5-2.05-1.62-3.08-3.35-3.08-.82,0-1.76.46-2.8,1.37l.27.89-13.34-3.83-.41-.96-.82.27c-.87,0-2.24-.71-4.11-2.12l-3.76-2.67-2.39-1.92-1.09-1.57-5.61-5.2-.14-1.78c.91,0,1.37-.3,1.37-.89,0-.5-.23-.84-.68-1.03-.46-.18-1.39-.39-2.8-.62l-1.5-.27v-1.71c-.91-.41-1.56-.84-1.95-1.3-.39-.46-.86-1.19-1.4-2.19l.55-.55-.55-.55h-1.03l-4.45-12.04.68-.48.14-.68-.96-4.04-.14-4.1c0-1.51.55-3.12,1.64-4.86.68,0,1.25-.57,1.71-1.71-.5-1.19-.75-1.98-.75-2.39,0-.59.21-1.23.62-1.92l4.45-9.17c.68-.68,1.53-1.23,2.53-1.64l1.09-2.39,1.57-1.09,1.37-1.3,3.28-1.09,2.6-3.63c1.09-1.23,2.64-2.21,4.65-2.94l5.2-1.98,3.21-1.44,2.8-1.64,6.71-2.39c2.78-1,4.65-1.55,5.61-1.64h4.51l12.04-1.3,3.9-.27,1.71.27,2.39.96,3.49-.14,2.94,1.44,1.64-.14c1.09,0,1.98.26,2.67.79.68.52,1.03,1.24,1.03,2.15,0,.96-.48,1.8-1.44,2.53l-2.39,1.37-.96.96-1.23.34-.89-.14-5.47-2.53-1.37-.14v-.89l-.96-.96-.75-.14-3.76.55-5.06-.96-6.02.41-3.35-.27h-.96c-1.46,0-2.83.23-4.1.68l-4.45,1.85-2.12.14-3.08,1.64-2.53.89-4.72,2.67-1.44-.34-1.98,1.57.14,2.12c-2.92,1.46-4.72,2.58-5.4,3.35l-5.61,6.02-1.16.82.55.55-.55,1.44c-.41,1.46-.74,2.37-.99,2.74-.25.37-.81.75-1.68,1.16l1.03,1.03v1.37l-.89,2.67-.14,8.55-.41,1.64.68,1.71,1.71,3.35-.41,1.03-1.44.27.62,1.37,2.8,3.22,1.37,3.97.96,1.23.41,1.51,2.8,4.24.75,1.37,1.23,1.16,1.98,3.22,1.23.82,1.57,1.98,1.37.14c.96.82,1.67,1.76,2.12,2.8l1.37.41,5.34,2.39,2.12.55,1.98,1.85,6.02,1.78,9.65,2.12,3.9.41h1.16l5.34-.41,7.94.14,3.56-1.71,6.02-1.37,2.94-1.71,5.27-1.92,4.24-2.39c1,0,1.5.55,1.5,1.64Z" style="fill:#44bba4; stroke-width:0px;"/><path d="m1198.99,161.51c0,.18-.09.46-.27.82l-2.67,2.26-2.8,3.97h-2.26l-1.37.27-.14-1.23-.82-1.71.14-1.3-.14-1.3c-.68-1.28-1.07-2.39-1.16-3.35h-1.09l-.55-1.51-2.39-4.65-.41-2.39-3.49-6.02c-.41-.82-.62-1.76-.62-2.8.04-.18.08-.34.1-.48.02-.14.03-.34.03-.62-.82-.41-1.46-.98-1.92-1.71-1.64-2.74-2.62-4.97-2.94-6.7l-2.39-1.09c-.41,2.05-1.21,3.08-2.39,3.08h-.27l-7.11-1.3-2.53.14-1.85-.27-9.78,1.3-5.75-.27-3.08.82-2.39-.82-1.85-.48c-.59.78-1.09,1.28-1.5,1.51-.41.23-.94.34-1.57.34h-.41l-6.02-.41-2.26.55-2.94.14c-1,.23-2.12,1.78-3.35,4.65l-1.23,2.67-.75.27c-1.32,3.51-3.03,6.82-5.13,9.92l-.14,1.44-1.03,1.51-3.76,8.41c-.27.78-1.3,1.37-3.08,1.78l.14,1.09c-.55.09-1.3.14-2.26.14-1.32,0-2.69-.5-4.11-1.51l2.6-4.58,1.92-2.39,1.57-2.53.96-1.51.96-1.3v-.55c1.87-.27,2.8-1.12,2.8-2.53v-1.64l2.12-2.53,2.94-6.43,1.71-2.39,1.92-4.24,2.26-4.31,2.67-4.52,2.8-2.67c.18-.18.27-.41.27-.68,0-.36-.23-.77-.68-1.23.82-.59,1.41-1.08,1.78-1.47.36-.39.71-.92,1.03-1.61l-.82-1.3.82-1.37,1.09-3.22c.14-.27.71-.84,1.71-1.71l-.14-.68,3.08-7.87,2.39-6.43c.46-1.19,1.48-2.64,3.08-4.38l-.55-1.51.41-1.85c.27-1.32.54-2.23.79-2.74.25-.5.68-.87,1.3-1.09.62-.23,1.4-.43,2.36-.62l.41-1.03-.68-2.05c-.18-.55-.27-.93-.27-1.16,0-.64.27-1.09.82-1.37l4.65-3.08.96-2.12c.96-1.19,2.23-1.85,3.83-1.98l.82,2.8h.82l-.27.75.96,2.05,1.98,2.53,2.53,4.65,1.37,3.76,1.71,3.08-1.71.55c0,.5.21.94.62,1.3,1.64.96,2.46,1.85,2.46,2.67l-.14,1.23,1.57,1.71,1.85,3.08.96,1.64.14.55-.55,1.3.27,1.37.96,1.3,1.98,1.64,2.39,4.79,1.23,2.12v1.64c1.78,1.55,2.67,2.74,2.67,3.56,0,.09-.09.41-.27.96l1.37,1.37,3.08,5.2c.27.41.49.76.65,1.06.16.3.43.78.82,1.44.39.66.65,1.13.79,1.4.77,1.19,1.22,1.96,1.33,2.33.11.37.19,1,.24,1.92,1.6.78,2.39,1.67,2.39,2.67,0,.09-.07.18-.21.27l-.27,2.94c0-.09.09.23.27.96l2.8,1.44.89,1.23.41,1.3c.18.68.93,1.37,2.26,2.05v1.57l2.33,2.39,2.26,3.76,1.16,1.37c.55.68.98,1.41,1.3,2.19.32.78.48,1.32.48,1.64Zm-22.99-112.54l-2.67,2.12-3.08,3.35c-.87.87-1.98,1.46-3.35,1.78l-.68,1.44-1.44.41-3.76,2.39-2.39.82-2.05,1.85-2.39-.75c-1.55-1-3.51-1.87-5.88-2.6-.27-.82-.6-1.39-.99-1.71-.39-.32-1.13-.59-2.22-.82l-.75.96c-.73-1.19-1.94-2.07-3.63-2.67l-1.98-.68-2.33.82-3.08,1.03-1.3,1.23-2.53-.82h-.55l-.14.82-.82-.55-.89.55-.14.96.62.27-.14,1.3c-2.28,1-3.92,1.51-4.93,1.51-.41,0-.84-.14-1.3-.41s-.68-.59-.68-.96c0-.87.71-1.71,2.12-2.53,4.24-2.55,7.27-4.83,9.1-6.84l4.52-1.98,6.98-3.35c.09-.09.32-.14.68-.14,1.09,0,2.26.27,3.49.82l2.12.68c.64.87,1.03,1.67,1.16,2.39l1.92.27,3.97,2.94,1.78.82.82-.96.62.14,1.5,1.03c1.19,0,2.69-.52,4.52-1.57l1.37-.82,1.3-2.67c.32-.5.87-.84,1.64-1.03l2.39-.41,1.85-1.09,1.64,2.67Zm-5.13,77.37l-.62-.55.27-.48-.27-.68h-1.37c-.55-.64-.98-2.37-1.3-5.2l-.14-1.37-2.6-.68-3.28-6.5h-.96l-4.17-8.21.55-1.57-.41-1.71-3.22-1.64-4.93-9.78c-.18-.5-1.25-1.55-3.21-3.15l-.82.62-.89,2.8-.55.14c-.55,1.92-.96,3.1-1.23,3.56-.27.46-.84,1.09-1.71,1.92-1.19,1.05-1.85,2.12-1.98,3.22l-.27,1.64-3.08,6.77c-.32.82-.62,1.53-.89,2.12-.27.59-.46.98-.55,1.16-.09.18-.25.43-.48.75-.23.32-.48.59-.75.82l-.55,1.44c-.37.91-.66,1.47-.89,1.68-.23.21-.73.33-1.51.38l-.14,1.57c-.18,2.33-.56,4.04-1.13,5.13-.57,1.09-1.54,2.1-2.91,3.01l1.23,1.92c-.55.05-.96.21-1.23.48-.27.27-.5.73-.68,1.37l-.48,1.71,1.16.14,2.26.68,1.78-.27,1.57.55.27-.55,1.23-.14,8.83.55,5.61-.41,2.26.96c.32-.32.56-.51.72-.58.16-.07.65-.14,1.47-.21.82-.07,2.1-.22,3.83-.44l1.85-.27-.27.68.55.27c.41,0,.91-.36,1.5-1.09l1.85-.14c2.42-.23,4.24-.4,5.47-.51,1.23-.11,1.98-.21,2.26-.27.27-.07.7-.25,1.27-.55.57-.3,1.13-.65,1.68-1.06Z" style="fill:#44bba4; stroke-width:0px;"/><path d="m1322,119.85c0,.32-.05.57-.14.75l-1.23,4.04.14,3.49-1.03,1.85c-.18-.09-.5-.14-.96-.14-.27,0-.53.23-.75.68-.23.46-.34.98-.34,1.57,0,.18.04.32.14.41.91,1.51,1.37,2.49,1.37,2.94,0,.37-.09.68-.27.96-.96.91-1.62,1.94-1.98,3.08l-1.5.68.41.48-.41.41,1.09.82-.14.41-1.23,1.16-1.57,2.6-1.09,1.16c-.64-.64-1.16-.96-1.57-.96-.82,0-1.23.46-1.23,1.37,0,.37.36,1.03,1.09,1.98-1.41,2.37-3.74,4.56-6.98,6.57-3.38,2.14-6.86,4.08-10.47,5.81-3.6,1.73-6.39,2.78-8.35,3.15l-1.37.27c-3.42.64-5.56.96-6.43.96h-.27l-2.67-.14-1.71.27-2.53-1.51-1.92.82c-.87.59-1.48.89-1.85.89h-.55c-.37-.87-.73-1.49-1.09-1.88-.37-.39-.94-.74-1.71-1.06-2.83,1.46-5.02,2.19-6.57,2.19-.55,0-1.07-.18-1.57-.55-1,0-1.55-.05-1.64-.14l-4.79-1.37-4.04.14-1.57-1.3-2.26.27-1.92-.27-2.81-.82-8.69-1.98-2.39-1.92-3.08-1.16-3.21-3.35c-.73-.55-1.8-.82-3.22-.82l-1.85-2.12c.36-.87.55-1.53.55-1.98,0-1.41-1.69-2.39-5.06-2.94v-.55l-.82-.27-.82-1.51-.68-.75v-1.51l-1.44-4.1-.27-1.37-1.09-6.02.41-5.88.55-1.71.41-3.76,3.35-8.83.41-1.57c.96-2.37,2.46-4.13,4.51-5.27v-.89l3.49-3.9c.55.18.87.27.96.27.68,0,1.16-.27,1.44-.82l.96-2.94,1.3-1.71c.5-1,1.19-1.76,2.05-2.26l2.12-.96,1.85-2.26,4.31-2.94c2.87-1.87,4.52-2.8,4.93-2.8l1.09.41,1.85-2.19,1.23-.27,12.93-5.06c.73-.36,1.62-.55,2.67-.55.96,0,2.12.27,3.49.82l1.09-.41.41-1.3,1.98.27,1.09.21h.34l3.35-.89,5.34.27,2.6-.55,2.26.27,2.12-.14,2.39.82,4.04.75,2.94,1.64,8.42,3.08.82.75,1.57.96v.68l-.27.14c-.37.37-.55.71-.55,1.03s.5.78,1.5,1.37l.27-.55c1.05,0,1.85.5,2.39,1.51,0,1.05.09,1.74.27,2.09.18.34.62.83,1.3,1.47.68-.41,1.32-.62,1.92-.62,1.19,0,2.17.48,2.94,1.44l1.16,1.51,2.46,2.26.34,1.57,1.64,2.05.41,1.85c-.73.96-1.09,1.76-1.09,2.39,0,.27.04.5.14.68l4.17,4.24.27,1.51,1.16,3.22c0,.14-.09.71-.27,1.71l-1.03.55v.68l1.16.14.27,1.57.68,5.13Zm-10.95-11.56c0-2.05-1.3-3.28-3.9-3.69l-.41-3.76-3.35-5.2-.55-2.12-.89-.14-1.23-1.51-3.08-3.63-2.8-1.85-2.8-2.26-1.3-.41-.82-1.51h-1.37c-1.28,0-2.26-.25-2.94-.75l-6.02-3.35-6.02-.82-4.38-.82-4.17.14h-3.21l-3.42.96-3.08.41-3.08,1.85-1.64-.41h-.14l-1.71.55-7.59,4.17-1.78.27c-1.28,1.82-2.39,2.9-3.35,3.22l-1.85.75-6.02,5.88-1.09.82c-1.64,1.23-3.33,3.47-5.06,6.7l-.68,1.3-1.44.27-.68,1.37-.82,3.56-.89.96-.41,1.37-2.8-.41c-.23.78-.47,1.29-.72,1.54-.25.25-.7.54-1.33.86l-.21.68c1.69,1.05,2.53,2.08,2.53,3.08l-.14,4.79,1.03,6.98-.14,1.71,2.19,3.63c-1.09.68-1.64,1.35-1.64,1.98,0,.41.22.81.65,1.2.43.39.97.58,1.61.58.23-.04.42-.08.58-.1.16-.02.42-.03.79-.03l2.53,3.08c-.55.82-.82,1.35-.82,1.57l.55,1.09h.55l2.8,2.67,3.63,1.98,5.06,4.17,3.9.75,2.12,2.19,7.12,2.67,5.88,2.53,1.98-.14,12.59,1.85,1.98.14,1.57-.14,2.67-.68,6.84.41,2.94-.62,5.2-2.05,1.92-.55,1.03.82c1.41-.41,2.19-.84,2.33-1.3l.62-2.19,6.84-5.88,2.8-4.93,1.09-1.98h.89l.82-1.78-.41-.75.41-1.23.27-5.61,1.09-2.67.34-1.98.96-.68.68-4.17c-.91-1.64-1.37-2.92-1.37-3.83v-.14l.27-6.57-.14-2.12c1.37-.87,2.05-1.78,2.05-2.74Z" style="fill:#44bba4; stroke-width:0px;"/></g><g style="filter:url(#d);"><path d="m226.35,312.65c0,.26-.13.66-.4,1.19l-3.85,3.26-4.05,5.83h-3.26l-1.98.4-.2-1.78-1.19-2.47.2-1.98-.2-1.88c-.99-1.84-1.55-3.46-1.68-4.84h-1.58l-.79-2.17-3.46-6.72-.59-3.46-5.04-8.7c-.59-1.19-.89-2.54-.89-4.05.06-.26.11-.49.15-.69.03-.2.05-.49.05-.89-1.19-.59-2.11-1.42-2.77-2.47-2.37-3.95-3.79-7.18-4.25-9.69l-3.46-1.58c-.59,2.96-1.75,4.45-3.46,4.45h-.4l-10.28-1.88-3.66.2-2.67-.4-14.13,1.88-8.3-.4-4.45,1.19-3.46-1.19-2.67-.69c-.86,1.12-1.58,1.85-2.17,2.17-.59.33-1.35.49-2.27.49h-.59l-8.7-.59-3.26.79-4.25.2c-1.45.33-3.06,2.57-4.84,6.72l-1.78,3.85-1.09.4c-1.91,5.07-4.38,9.85-7.41,14.33l-.2,2.08-1.48,2.17-5.44,12.16c-.4,1.19-1.88,2.08-4.45,2.67l.2,1.58c-.79.13-1.88.2-3.26.2-1.91,0-3.92-.73-6.03-2.17l3.85-6.72,2.77-3.46,2.27-3.66,1.38-2.17,1.38-1.88v-.79c2.7-.4,4.05-1.61,4.05-3.66v-2.37l3.06-3.66,4.25-9.29,2.47-3.46,2.77-6.13,3.26-6.23,3.85-6.52,4.05-3.85c.26-.26.4-.59.4-.99,0-.53-.33-1.12-.99-1.78,1.19-.86,2.04-1.56,2.57-2.12.53-.56,1.02-1.33,1.48-2.32l-1.19-1.88,1.19-1.98,1.58-4.64c.2-.4,1.02-1.22,2.47-2.47l-.2-.99,4.45-11.37,3.46-9.29c.66-1.71,2.14-3.82,4.45-6.33l-.79-2.17.59-2.67c.39-1.91.77-3.23,1.14-3.95.36-.72.99-1.25,1.88-1.58.89-.33,2.03-.63,3.41-.89l.59-1.48-.99-2.96c-.26-.79-.4-1.35-.4-1.68,0-.92.4-1.58,1.19-1.98l6.72-4.45,1.38-3.06c1.38-1.71,3.23-2.67,5.53-2.87l1.19,4.05h1.19l-.4,1.09,1.38,2.96,2.87,3.66,3.66,6.72,1.98,5.44,2.47,4.45-2.47.79c0,.73.3,1.35.89,1.88,2.37,1.38,3.56,2.67,3.56,3.85l-.2,1.78,2.27,2.47,2.67,4.45,1.38,2.37.2.79-.79,1.88.4,1.98,1.38,1.88,2.87,2.37,3.46,6.92,1.78,3.06v2.37c2.57,2.24,3.85,3.95,3.85,5.14,0,.13-.13.59-.4,1.38l1.98,1.98,4.45,7.51c.4.59.71,1.1.94,1.53.23.43.63,1.12,1.19,2.08.56.96.94,1.63,1.14,2.03,1.12,1.71,1.76,2.83,1.93,3.36.16.53.28,1.45.35,2.77,2.31,1.12,3.46,2.41,3.46,3.85,0,.13-.1.26-.3.4l-.4,4.25c0-.13.13.33.4,1.38l4.05,2.08,1.28,1.78.59,1.88c.26.99,1.35,1.98,3.26,2.96v2.27l3.36,3.46,3.26,5.44,1.68,1.98c.79.99,1.42,2.04,1.88,3.16.46,1.12.69,1.91.69,2.37Zm-40.62-50.8l-.89-.79.4-.69-.4-.99h-1.98c-.79-.92-1.42-3.43-1.88-7.51l-.2-1.98-3.75-.99-4.74-9.39h-1.38l-6.03-11.86.79-2.27-.59-2.47-4.64-2.37-7.12-14.13c-.26-.72-1.81-2.24-4.65-4.55l-1.19.89-1.29,4.05-.79.2c-.79,2.77-1.38,4.48-1.78,5.14-.4.66-1.22,1.58-2.47,2.77-1.71,1.52-2.67,3.06-2.87,4.64l-.4,2.37-4.45,9.78c-.46,1.19-.89,2.21-1.28,3.06-.4.86-.66,1.42-.79,1.68-.13.26-.36.63-.69,1.09-.33.46-.69.86-1.09,1.19l-.79,2.08c-.53,1.32-.96,2.12-1.29,2.42-.33.3-1.05.48-2.17.54l-.2,2.27c-.26,3.36-.81,5.83-1.63,7.41-.83,1.58-2.22,3.03-4.2,4.35l1.78,2.77c-.79.07-1.38.3-1.78.69-.4.4-.73,1.05-.99,1.98l-.69,2.47,1.68.2,3.26.99,2.57-.4,2.27.79.4-.79,1.78-.2,12.75.79,8.1-.59,3.26,1.38c.46-.46.81-.74,1.04-.84.23-.1.94-.2,2.12-.3,1.19-.1,3.03-.31,5.53-.64l2.67-.4-.39.99.79.4c.59,0,1.32-.53,2.17-1.58l2.67-.2c3.49-.33,6.13-.58,7.91-.74,1.78-.16,2.87-.3,3.26-.4.39-.1,1-.36,1.83-.79.82-.43,1.63-.94,2.42-1.53Z" style="fill:#f2e863; stroke-width:0px;"/><path d="m349.19,307.12l-1.19,1.88-2.27,1.38-1.98,2.08.99,2.17c-1.65,1.78-2.93,2.67-3.85,2.67l-4.05.4-2.77,1.78-2.27.69h-.2l-5.24-.89-13.64.59-12.75-1.19-9.88.59c-2.24,0-3.85-.4-4.84-1.19l-2.67-1.38-2.17-.4v2.17c-2.04.66-3.72.99-5.04.99-2.04,0-4.68-.33-7.91-.99l.4.79-3.06-.4c-.53-.07-.99-.17-1.38-.3-.4-.13-.89-.49-1.48-1.09l-1.98.2.2.59-2.67.59-12.95,1.48-2.17.4c-1.65,0-2.47-.63-2.47-1.88v-1.78l3.85-1.48v-1.38l1.38-.99c.2-2.5.49-4.2.89-5.09.4-.89,1.25-1.89,2.57-3.01l-.79-2.87.4-10.08-.4-2.67,2.08-3.16-2.27-1.68,1.38-3.26.69-2.96,1.19-2.47-1.48-2.87.49-2.17-.49-1.68.3-2.77-.49-3.06.69-7.51v-4.45l1.78-3.85.59-2.17-2.37-.99-.69-10.97c1.05-.26,1.81-.86,2.27-1.78l-.99-5.14-2.08-.4c-.92-4.15-1.38-9.06-1.38-14.73,0-2.31.33-4.41.99-6.32l-.99-2.17-.59-5.73-1.29-2.37h-1.19l-1.58-2.67,1.98-1.78,2.47-.99,2.87-2.47,5.63-1.78,1.58-1.09,2.08-.59,2.17.79h1.29v1.28l.59.59-.2,7.21.2,3.46c0,1.19-.13,1.99-.4,2.42-.26.43-.76.91-1.48,1.43l-.59,2.08.59.59,1.48-.2v1.19l-.69.59,1.28,4.05v.2l-.59,6.33.59,5.63v2.08l-.79,7.81h-1.48c-.66,1.65-.99,2.73-.99,3.26,0,1.98.89,3.26,2.67,3.85l-.2,2.27.2,15.52c0,4.48-.49,8.2-1.48,11.17l-.79-.59c-.66.86-.99,1.52-.99,1.98,0-.06.13.49.4,1.68l2.17.59.49,3.26v2.96l-.3.4-.39,9.78-.2,2.96c-1.05.92-1.58,1.68-1.58,2.27,0,.46.53,1.12,1.58,1.98l.2,5.73-.59,5.83c0,1.78.64,3.06,1.93,3.85,1.28.79,3.28,1.19,5.98,1.19,1.32,0,3.49-.2,6.52-.59l.59.79,2.37.2,3.26,1.48,2.08.2c.92-.13,1.71-.82,2.37-2.08l12.35.69,7.71-.3,8.3-.99,1.38.2v2.08c2.31.79,3.85,1.19,4.65,1.19.66,0,1.68-.2,3.06-.59,0-.92.18-1.6.54-2.03.36-.43,1.07-.9,2.12-1.43l1.58.2c1.38,0,3.33-.53,5.83-1.58.66.73,1.22,1.2,1.68,1.43.46.23.99.35,1.58.35,1.71-2.44,4.21-3.66,7.51-3.66l4.64.59Z" style="fill:#f2e863; stroke-width:0px;"/><path d="m384.37,187.93l-.4,3.06-.59,3.26-1.98,3.36,1.38,10.38c0,1.38-.76,3.62-2.27,6.72v1.78l1.48.59-.2,3.06.4,8.1c0,1.52-.13,2.62-.4,3.31-.26.69-.89,1.53-1.88,2.52l1.48,2.27-.2,2.96v2.67l-2.08,3.46.99,2.57c.59,1.45.89,2.41.89,2.87l-.49,5.44v5.93l-1.38,4.65v.79c0,.99.53,1.81,1.58,2.47v3.66l.3,2.17.2,4.25v1.58l-1.88,5.53,1.88.99-.69,1.58.89,5.53-.4,9.29.59,3.85.2,2.57c-6,5.4-10.11,8.1-12.35,8.1l-1.19-.2-.3,1.09-3.56.79-1.68-2.47c1.25-2.31,1.88-4.12,1.88-5.44v-2.27l2.57-8.7v-6.42l4.45-.79.2-.89c0-.59-.33-1.45-.99-2.57l-2.37.2-.49-.4-.59.59.4-3.26.2-4.45.69-7.31-.2-3.85,1.78-2.77c-1.19-1.12-1.9-1.99-2.12-2.62-.23-.63-.35-1.79-.35-3.51s.49-3.52,1.48-5.44l-1.48-1.58v-2.87l.2-9.49c0-.59-.07-1.02-.2-1.28l-.4-1.98-.2-2.08c.86-.79,1.29-1.71,1.29-2.77l-1.88-2.08.79-1.58-.79-7.31,1.19-3.66v-.4c0-1.05-.66-2.21-1.98-3.46l-.2-1.98-.59-8.7.59-3.66-1.38-2.08.2-3.16v-5.73c.72-1.19,1.71-1.78,2.96-1.78l5.14-.4c.79-.13,1.84-1.42,3.16-3.85l3.46-.99,3.26-1.28c-.13,0,.33.13,1.38.4.4,1.45.59,2.47.59,3.06Z" style="fill:#f2e863; stroke-width:0px;"/><path d="m537.06,309.98c0,1.98-.46,3.79-1.38,5.44l-1.88-.2-1.38.2-2.67,1.48-6.82-.99-6.72,2.37h-10.28l-12.75,1.58h-.69l-4.25-.4c-3.49,1.78-6.59,2.67-9.29,2.67l-1.98-.2-6.33-.79-14.33-.59-3.85-.89-5.44-.99-2.67-.59-.79-2.47c-1.25,0-2.21-.4-2.87-1.19-1.52.66-2.44.99-2.77.99-.73,0-1.94-.53-3.66-1.58l-2.08-.99c-.13-1.78-.73-3.26-1.78-4.45-1.32.53-2.27.79-2.87.79-.4,0-.73-.13-.99-.4l-.99-.99-4.45-4.25-2.67-5.34-2.47-2.77-2.77-4.05-1.48-3.46c.99-1.84,1.55-3.66,1.68-5.44l-1.09-1.48-3.56-.59-1.68-3.66c-.66-.99-.99-1.91-.99-2.77,0-.59.06-1.22.2-1.88v-.2l-1.38-7.91c-.13-.53-.2-1.38-.2-2.57,0-1.65.33-3.43.99-5.34l-1.19-1.98,1.19-6.32c.2-2.37.46-4.2.79-5.48.33-1.28.92-2.55,1.78-3.8-.13-.26-.2-.59-.2-.99,0-.46.43-1.48,1.28-3.06l.59-2.17,3.85-1.68-.2-3.46c0-.79.13-1.32.4-1.58l5.04-6.42,2.47-4.45,2.57-2.27,2.67-3.85,4.84-3.66,1.58-2.77,9.39-3.85,3.16-2.47,3.66-.59,1.29-.99,1.78-1.28,1.98-.99c3.56-1.32,6.39-2.11,8.5-2.37l8.79-.2,4.25-1.88,8.2-.79,5.14-.99,9.49,1.19h3.06c1.71,1.91,2.7,2.87,2.96,2.87.92,0,1.81-.63,2.67-1.88h.99l.39-.79,2.27.4,5.63,2.47,3.85.2c1.65,0,2.47.66,2.47,1.98,0,1.05-.96,1.94-2.87,2.67-2.04,1.58-3.53,2.37-4.45,2.37l-1.78-.59c-1.25,2.57-2.6,3.85-4.05,3.85h-.89l-3.85-1.38-4.45-1.19-3.16-2.27-4.65-1.19-4.45-1.68-11.56.89-6.72.2c-3.75.2-6.59.86-8.5,1.98l-6.62,4.05-6.52,3.06-8.1,5.63-3.46,1.58-2.17,4.55c-3.23.59-4.84,1.71-4.84,3.36,0,.79.26,1.62.79,2.47l-1.88,2.37c-.79,1.38-1.78,2.41-2.96,3.06l.59,2.87-.99,2.37-3.26,10.57-1.19,3.06-.89,3.66.4,2.17v2.08l-.59,1.78-.79-.4.4,1.58c-1.58,1.05-2.37,2.01-2.37,2.87,0,.59.53,1.48,1.58,2.67l3.06.99v2.57c0,.99.2,1.94.59,2.87-1.25,1.05-1.88,2.01-1.88,2.87,0,.4.16.79.49,1.19l2.57-.99.99,1.98,2.08,6.72,2.17,3.85-.79,3.66,1.19,1.98h1.09c1.19,0,2.14.36,2.87,1.09.72.73,1.45,2.04,2.17,3.95l.79,2.08.99.99-2.37,1.38,1.38,1.09,3.66-.89,2.67,1.88,1.98,1.19,2.27,2.08,3.85,1.38,6.82,4.25,3.46,1.19-.59,2.08c2.37.26,3.92.53,4.65.79l3.06.99,8.3.2,1.98,1.28,2.08-.89,7.41-.59,4.05-.59,2.08-.2c.92,0,2.01.33,3.26.99l1.98-1.19c2.11-.92,3.59-1.38,4.45-1.38h.2l3.06.2,3.85-.59-.2-1.09,1.78-.79c1.71-.53,2.75-.9,3.11-1.14.36-.23,1-.81,1.93-1.73l.39.69c2.31-.79,3.46-1.81,3.46-3.06l-.79-3.06.2-7.71-.79-11.07,1.58-3.46v-.79c0-1.38-.73-2.6-2.17-3.66l-.39-2.08-.4-3.66.4-2.17-2.08-.2-7.51-.59-5.04-.4-1.98.2-4.25.4c-.26,0-.96-.2-2.08-.59l.59-2.87c.92-.26,1.51-.49,1.78-.69.26-.2.76-.92,1.48-2.17l1.48-1.58c1.91.79,3.72,1.19,5.44,1.19h1.58l23.32-1.38,2.77.2c1.51,2.5,2.27,4.45,2.27,5.83,0,.92-.69,1.75-2.08,2.47v1.78h1.29l-.2,3.66.2,2.08c0,1.05-.12,1.83-.35,2.32-.23.49-.74,1.07-1.53,1.73l1.09,4.84c.92,1.25,1.38,2.8,1.38,4.64s-.26,3.72-.79,5.44c-1.52.13-2.5.44-2.96.94-.46.49-.69,1.6-.69,3.31l5.04,4.45-.2,6.32.2,1.78Z" style="fill:#f2e863; stroke-width:0px;"/><path d="m688.66,306.72l-1.28,4.25-2.17-.2c-.79,0-1.35.2-1.68.59l-1.98,4.25-2.67,1.88-.79.99-3.66-.4-4.25,2.08h-.2l-4.84-1.48-.59-.2-11.17.4-3.16-.4-1.09-1.58c-4.02.79-6.29,1.19-6.82,1.19l-3.66-.2-2.47.4-.79-1.98h-1.19l-.99.2-3.46,1.78-19.47.2-2.87,1.38c-2.17-1.45-3.85-2.17-5.04-2.17l-.99.2-5.04,1.38-5.73-1.19-17.39.59c-.59,0-3.06-.79-7.41-2.37l.99-2.27,2.37-5.63.4-5.34,1.09-4.84v-7.41l.59-2.87-.4-22.93.4-5.83-.2-2.17-.59-2.27,4.05-.2c-.73-1.58-1.35-2.7-1.88-3.36-.53-.66-1.45-1.48-2.77-2.47l-.49-1.68.49-7.31-.89-12.55.89-4.84.4-1.98-2.08-.59-.79-2.08-.4-6.42-1.19-2.08-.2-.99.2-2.47.79-1.19,5.44,1.38-1.58-1.38c-.99-.72-1.48-1.38-1.48-1.98,0-.33.13-.89.4-1.68l-1.58-.59-1.98.59c-.2-3.23-.41-5.37-.64-6.42-.23-1.05-.64-1.68-1.24-1.88l-3.85-1.58.99-2.08c.46-.53,1.55-1.12,3.26-1.78l1.88-.59c3.23-1.51,5.7-2.27,7.41-2.27h.2c.07,0,.16.07.3.2l14.53,2.47,6.72.59,3.75,1.19c2.44-.92,4.08-1.38,4.94-1.38.4,0,.66.07.79.2l14.92,1.58,13.14-.79,5.14,1.48,2.96-.69v-1.19c4.55-.46,7.87-1.05,9.98-1.78,2.9-1.12,4.64-1.68,5.24-1.68l1.98.4c-.33,1.52-.74,2.59-1.24,3.21-.49.63-1.57,1.33-3.21,2.12-.13,1.19-.36,2.01-.69,2.47-.33.46-1.28,1.12-2.87,1.98-3.43,1.58-6.26,2.37-8.5,2.37h-1.09l-5.24-.4-4.45.59-9.09-.99-2.08-.2c-1.85-1.19-3.66-1.78-5.44-1.78-1.38,1.58-3.95,2.37-7.71,2.37l-2.96-.2-.49-1.78-1.98.59-2.87,1.19-13.54-1.19-2.17,3.26.79.79v.79l.4,5.24-.79,7.71.39,2.87.2,2.17,1.98.59,13.54,1.28c.92,0,2.27.66,4.05,1.98l3.06-.59c1.84-.66,3.19-.99,4.05-.99h.2l10.58.59,6.23.2h5.63c1.19,0,2.19-.1,3.01-.3.82-.2,1.73-.56,2.72-1.09l7.51,1.38,1.78-.4,4.25-.99,7.71-.2,8.1-1.09c.92.26,1.84.76,2.77,1.48l2.08-1.28c1.32-1.05,2.54-1.58,3.66-1.58l2.17.2,2.27-.2v3.06l-2.67,1.78-6.03,5.24c-.73.59-1.42.89-2.08.89h-.4l-6.62-.89-8.5.3-4.64-1.09-16.6,1.09-3.06-.3c-.73-1.32-1.55-1.98-2.47-1.98-.53,0-.92.07-1.19.2l-4.45,1.78-12.95-1.38-6.33,2.27-4.45-1.28-3.66,2.27-10.87-.79-.79,1.38.4,5.24-1.68,5.34.89,1.58,1.38,1.78-1.38,4.25c.99,1.85,1.58,3.2,1.78,4.05l-.4,3.26.79,9.09v.2c0,.86-.73,2.21-2.17,4.05,1.71,2.17,2.57,3.95,2.57,5.34,0,.4-.13.86-.39,1.38l-2.67,5.63,2.87,5.04,1.19,18.88,3.06.59,13.34,4.64,4.45-.59c1.05,0,2.54.53,4.45,1.58,1.32-1.19,2.27-1.78,2.87-1.78h.4l9.09,1.78,5.53-.59,4.84.99,11.76-.79,3.36.59,5.73.2,1.98.69-.59-1.48,2.27-.4,9.29-.2,1.98-.79,11.56-2.08c.33-.06,1.09-.25,2.27-.54,1.19-.3,1.91-.44,2.17-.44.4,0,1.22.2,2.47.59Z" style="fill:#f2e863; stroke-width:0px;"/><path d="m811.51,227.16c-.26.66-.99,1.28-2.17,1.88.92,2.04,1.38,3.26,1.38,3.66l-.39,8.1.39,6.42-1.19,4.64.4,6.52-.59,9.09.59,5.24-.59,3.46.39,9.29-.2,2.67-.59-.99c-1.12.86-1.68,1.65-1.68,2.37,0,1.32.96,2.6,2.87,3.85.53,2.37.79,4.18.79,5.44,0,2.64-.51,5.12-1.53,7.46-1.02,2.34-2.88,5.62-5.58,9.83l-1.38,2.17-3.85,2.27-.79-2.27-4.64-7.12-5.93-7.41-4.45-7.71-1.58-2.08.4-2.17c0-1.58-1.15-3.26-3.46-5.04-3.23-2.7-5.04-4.35-5.44-4.94l-5.44-9.69-2.87-3.46-1.78-5.04c-1.12-2.7-3.23-4.05-6.33-4.05l-1.19-2.37-5.73-9.39-1.58-5.24-3.26-3.66-.59.79-1.58-.99c-4.55-7.71-8.86-12.62-12.95-14.73.53-1.65.79-2.87.79-3.66,0-1.65-.63-2.47-1.88-2.47l-2.17.79c-1.05-1.05-1.94-1.58-2.67-1.58l-1.98.99,2.17,4.64-2.37.89.59,1.58-.79,4.25.4,8.5-.59,2.87-1.68.79.2,2.37,1.68,5.73c.13.13.2.21.2.25v.15c0,1.05-.83,2.67-2.47,4.84l.79,4.05.89,2.27v29.06l1.19,8.5v.2c0,.07-.07.23-.2.49l-1.19,5.63.2,1.19c1.19.66,1.78,1.42,1.78,2.27s-1.62,3.62-4.84,8.3l-1.19,1.78-2.27-.2c-1.25,1.51-2.27,2.27-3.06,2.27h-.2l-2.17-.2-1.68.4.2-2.47c.2-1.84.49-3.06.89-3.66l2.17-2.77,1.68-2.47-2.27-1.98.59-2.27,1.19-2.87c-.66-1.98-.99-3.1-.99-3.36.06-.13.11-.25.15-.35.03-.1.05-.21.05-.35l1.48-5.24-.49-11.37c.59-.99,1.61-1.65,3.06-1.98v-.99l-2.17-2.67.4-2.17-.4-2.08.59-5.63c0-.06-.02-.13-.05-.2-.03-.06-.08-.13-.15-.2l-1.29-4.25.69-5.73-.39-4.05c0-1.32.92-2.6,2.77-3.85l-.2-2.37-1.38-3.26c0-.66.2-1.61.59-2.87-1.19-.99-1.78-2.04-1.78-3.16,0-1.19.39-3.23,1.19-6.13l-.99-1.38-.2-2.87-.89-6.82c0-.46.3-1.42.89-2.87v-2.27c0-4.02-.36-6.49-1.09-7.41l-4.45-5.53.79-2.17,2.47-1.48c1.65-.92,2.8-1.68,3.46-2.27.66-.59,1.19-1.45,1.58-2.57l1.68-.99,4.64-5.44c.26-.26.66-.4,1.19-.4,1.52,0,2.67.92,3.46,2.77l4.45,8.7,1.78,2.27,1.68,3.06-.59.59c1.58,1.58,3.66,4.55,6.23,8.89l5.04,8.5c1.12,1.98,1.68,3.13,1.68,3.46,0,.79-.3,1.52-.89,2.17l4.05,2.27-.59,1.78,1.68,2.08,4.05,5.83,2.96,2.87,1.09,3.26,8.89,9.49-1.88.99c.33,1.32.76,2.19,1.29,2.62.53.43,1.58.78,3.16,1.04l4.65,6.42-1.38.2,2.67,1.88c1.84,1.32,3.03,2.37,3.56,3.16.53.79.89,2.04,1.09,3.76l1.38,1.38-.2,1.38c0,1.45.46,3,1.38,4.64l2.27,1.48c2.83,1.25,4.31,1.98,4.45,2.17l4.25,6.52,2.17,1.38,2.87,2.47.99-2.27-.2-11.96,2.08-4.84c-1.38-1.45-2.08-2.73-2.08-3.85,0-.66.06-1.12.2-1.38l1.29-4.05.59-14.13,1.58-3.06-1.19-3.06.79-4.64v-.2c0-.86-.79-1.61-2.37-2.27l-.49-25.7c.92-.06,1.53-.31,1.83-.74.3-.43.51-1.3.64-2.62l-3.06-2.27-.39-3.46c-.33-2.9-.74-4.81-1.24-5.73-.49-.92-1.5-1.38-3.01-1.38-.26-1.05-.4-1.84-.4-2.37,0-2.44,2.83-4.38,8.5-5.83.92-1.38,1.73-2.34,2.42-2.87.69-.53,2.19-1.28,4.5-2.27.79,1.32,1.19,2.54,1.19,3.66l-.4,2.87.59,2.17-.2,3.85.2,8.3c0,1.65-.2,3.06-.59,4.25l-.79,4.05v.2l1.58,6.52-.4,4.84.59,2.17Z" style="fill:#f2e863; stroke-width:0px;"/><path d="m860.03,187.93l-.4,3.06-.59,3.26-1.98,3.36,1.38,10.38c0,1.38-.76,3.62-2.27,6.72v1.78l1.48.59-.2,3.06.4,8.1c0,1.52-.13,2.62-.4,3.31-.26.69-.89,1.53-1.88,2.52l1.48,2.27-.2,2.96v2.67l-2.08,3.46.99,2.57c.59,1.45.89,2.41.89,2.87l-.49,5.44v5.93l-1.38,4.65v.79c0,.99.53,1.81,1.58,2.47v3.66l.3,2.17.2,4.25v1.58l-1.88,5.53,1.88.99-.69,1.58.89,5.53-.4,9.29.59,3.85.2,2.57c-6,5.4-10.11,8.1-12.35,8.1l-1.19-.2-.3,1.09-3.56.79-1.68-2.47c1.25-2.31,1.88-4.12,1.88-5.44v-2.27l2.57-8.7v-6.42l4.45-.79.2-.89c0-.59-.33-1.45-.99-2.57l-2.37.2-.49-.4-.59.59.4-3.26.2-4.45.69-7.31-.2-3.85,1.78-2.77c-1.19-1.12-1.9-1.99-2.12-2.62-.23-.63-.35-1.79-.35-3.51s.49-3.52,1.48-5.44l-1.48-1.58v-2.87l.2-9.49c0-.59-.07-1.02-.2-1.28l-.4-1.98-.2-2.08c.86-.79,1.29-1.71,1.29-2.77l-1.88-2.08.79-1.58-.79-7.31,1.19-3.66v-.4c0-1.05-.66-2.21-1.98-3.46l-.2-1.98-.59-8.7.59-3.66-1.38-2.08.2-3.16v-5.73c.72-1.19,1.71-1.78,2.96-1.78l5.14-.4c.79-.13,1.84-1.42,3.16-3.85l3.46-.99,3.26-1.28c-.13,0,.33.13,1.38.4.4,1.45.59,2.47.59,3.06Zm9.78-47.73l-.99,1.38-5.53,9.29-3.56,4.05-2.47,2.47.39,1.19-1.19,2.47-4.05,5.83-3.85,3.46-1.19,1.78h-.59v-.4h-5.34l-.4-1.98c1.45-4.74,2.6-7.81,3.46-9.19l3.85-6.42c1.78-2.9,2.67-4.64,2.67-5.24l-.49-3.46-1.58-.99,2.08-3.85,4.64-.2,10.67-1.68c.06-.06.11-.11.15-.15.03-.03.11-.05.25-.05.99,0,2.01.56,3.06,1.68Z" style="fill:#f2e863; stroke-width:0px;"/><path d="m1012.72,309.98c0,1.98-.46,3.79-1.38,5.44l-1.88-.2-1.38.2-2.67,1.48-6.82-.99-6.72,2.37h-10.28l-12.75,1.58h-.69l-4.25-.4c-3.49,1.78-6.59,2.67-9.29,2.67l-1.98-.2-6.33-.79-14.33-.59-3.85-.89-5.44-.99-2.67-.59-.79-2.47c-1.25,0-2.21-.4-2.87-1.19-1.52.66-2.44.99-2.77.99-.73,0-1.94-.53-3.66-1.58l-2.08-.99c-.13-1.78-.73-3.26-1.78-4.45-1.32.53-2.27.79-2.87.79-.4,0-.73-.13-.99-.4l-.99-.99-4.45-4.25-2.67-5.34-2.47-2.77-2.77-4.05-1.48-3.46c.99-1.84,1.55-3.66,1.68-5.44l-1.09-1.48-3.56-.59-1.68-3.66c-.66-.99-.99-1.91-.99-2.77,0-.59.06-1.22.2-1.88v-.2l-1.38-7.91c-.13-.53-.2-1.38-.2-2.57,0-1.65.33-3.43.99-5.34l-1.19-1.98,1.19-6.32c.2-2.37.46-4.2.79-5.48.33-1.28.92-2.55,1.78-3.8-.13-.26-.2-.59-.2-.99,0-.46.43-1.48,1.28-3.06l.59-2.17,3.85-1.68-.2-3.46c0-.79.13-1.32.4-1.58l5.04-6.42,2.47-4.45,2.57-2.27,2.67-3.85,4.84-3.66,1.58-2.77,9.39-3.85,3.16-2.47,3.66-.59,1.29-.99,1.78-1.28,1.98-.99c3.56-1.32,6.39-2.11,8.5-2.37l8.79-.2,4.25-1.88,8.2-.79,5.14-.99,9.49,1.19h3.06c1.71,1.91,2.7,2.87,2.96,2.87.92,0,1.81-.63,2.67-1.88h.99l.39-.79,2.27.4,5.63,2.47,3.85.2c1.65,0,2.47.66,2.47,1.98,0,1.05-.96,1.94-2.87,2.67-2.04,1.58-3.53,2.37-4.45,2.37l-1.78-.59c-1.25,2.57-2.6,3.85-4.05,3.85h-.89l-3.85-1.38-4.45-1.19-3.16-2.27-4.65-1.19-4.45-1.68-11.56.89-6.72.2c-3.75.2-6.59.86-8.5,1.98l-6.62,4.05-6.52,3.06-8.1,5.63-3.46,1.58-2.17,4.55c-3.23.59-4.84,1.71-4.84,3.36,0,.79.26,1.62.79,2.47l-1.88,2.37c-.79,1.38-1.78,2.41-2.96,3.06l.59,2.87-.99,2.37-3.26,10.57-1.19,3.06-.89,3.66.4,2.17v2.08l-.59,1.78-.79-.4.4,1.58c-1.58,1.05-2.37,2.01-2.37,2.87,0,.59.53,1.48,1.58,2.67l3.06.99v2.57c0,.99.2,1.94.59,2.87-1.25,1.05-1.88,2.01-1.88,2.87,0,.4.16.79.49,1.19l2.57-.99.99,1.98,2.08,6.72,2.17,3.85-.79,3.66,1.19,1.98h1.09c1.19,0,2.14.36,2.87,1.09.72.73,1.45,2.04,2.17,3.95l.79,2.08.99.99-2.37,1.38,1.38,1.09,3.66-.89,2.67,1.88,1.98,1.19,2.27,2.08,3.85,1.38,6.82,4.25,3.46,1.19-.59,2.08c2.37.26,3.92.53,4.65.79l3.06.99,8.3.2,1.98,1.28,2.08-.89,7.41-.59,4.05-.59,2.08-.2c.92,0,2.01.33,3.26.99l1.98-1.19c2.11-.92,3.59-1.38,4.45-1.38h.2l3.06.2,3.85-.59-.2-1.09,1.78-.79c1.71-.53,2.75-.9,3.11-1.14.36-.23,1-.81,1.93-1.73l.39.69c2.31-.79,3.46-1.81,3.46-3.06l-.79-3.06.2-7.71-.79-11.07,1.58-3.46v-.79c0-1.38-.73-2.6-2.17-3.66l-.39-2.08-.4-3.66.4-2.17-2.08-.2-7.51-.59-5.04-.4-1.98.2-4.25.4c-.26,0-.96-.2-2.08-.59l.59-2.87c.92-.26,1.51-.49,1.78-.69.26-.2.76-.92,1.48-2.17l1.48-1.58c1.91.79,3.72,1.19,5.44,1.19h1.58l23.32-1.38,2.77.2c1.51,2.5,2.27,4.45,2.27,5.83,0,.92-.69,1.75-2.08,2.47v1.78h1.29l-.2,3.66.2,2.08c0,1.05-.12,1.83-.35,2.32-.23.49-.74,1.07-1.53,1.73l1.09,4.84c.92,1.25,1.38,2.8,1.38,4.64s-.26,3.72-.79,5.44c-1.52.13-2.5.44-2.96.94-.46.49-.69,1.6-.69,3.31l5.04,4.45-.2,6.32.2,1.78Z" style="fill:#f2e863; stroke-width:0px;"/><path d="m1164.32,306.72l-1.28,4.25-2.17-.2c-.79,0-1.35.2-1.68.59l-1.98,4.25-2.67,1.88-.79.99-3.66-.4-4.25,2.08h-.2l-4.84-1.48-.59-.2-11.17.4-3.16-.4-1.09-1.58c-4.02.79-6.29,1.19-6.82,1.19l-3.66-.2-2.47.4-.79-1.98h-1.19l-.99.2-3.46,1.78-19.47.2-2.87,1.38c-2.17-1.45-3.85-2.17-5.04-2.17l-.99.2-5.04,1.38-5.73-1.19-17.39.59c-.59,0-3.06-.79-7.41-2.37l.99-2.27,2.37-5.63.4-5.34,1.09-4.84v-7.41l.59-2.87-.4-22.93.4-5.83-.2-2.17-.59-2.27,4.05-.2c-.73-1.58-1.35-2.7-1.88-3.36-.53-.66-1.45-1.48-2.77-2.47l-.49-1.68.49-7.31-.89-12.55.89-4.84.4-1.98-2.08-.59-.79-2.08-.4-6.42-1.19-2.08-.2-.99.2-2.47.79-1.19,5.44,1.38-1.58-1.38c-.99-.72-1.48-1.38-1.48-1.98,0-.33.13-.89.4-1.68l-1.58-.59-1.98.59c-.2-3.23-.41-5.37-.64-6.42-.23-1.05-.64-1.68-1.24-1.88l-3.85-1.58.99-2.08c.46-.53,1.55-1.12,3.26-1.78l1.88-.59c3.23-1.51,5.7-2.27,7.41-2.27h.2c.07,0,.16.07.3.2l14.53,2.47,6.72.59,3.75,1.19c2.44-.92,4.08-1.38,4.94-1.38.4,0,.66.07.79.2l14.92,1.58,13.14-.79,5.14,1.48,2.96-.69v-1.19c4.55-.46,7.87-1.05,9.98-1.78,2.9-1.12,4.64-1.68,5.24-1.68l1.98.4c-.33,1.52-.74,2.59-1.24,3.21-.49.63-1.57,1.33-3.21,2.12-.13,1.19-.36,2.01-.69,2.47-.33.46-1.28,1.12-2.87,1.98-3.43,1.58-6.26,2.37-8.5,2.37h-1.09l-5.24-.4-4.45.59-9.09-.99-2.08-.2c-1.85-1.19-3.66-1.78-5.44-1.78-1.38,1.58-3.95,2.37-7.71,2.37l-2.96-.2-.49-1.78-1.98.59-2.87,1.19-13.54-1.19-2.17,3.26.79.79v.79l.4,5.24-.79,7.71.39,2.87.2,2.17,1.98.59,13.54,1.28c.92,0,2.27.66,4.05,1.98l3.06-.59c1.84-.66,3.19-.99,4.05-.99h.2l10.58.59,6.23.2h5.63c1.19,0,2.19-.1,3.01-.3.82-.2,1.73-.56,2.72-1.09l7.51,1.38,1.78-.4,4.25-.99,7.71-.2,8.1-1.09c.92.26,1.84.76,2.77,1.48l2.08-1.28c1.32-1.05,2.54-1.58,3.66-1.58l2.17.2,2.27-.2v3.06l-2.67,1.78-6.03,5.24c-.73.59-1.42.89-2.08.89h-.4l-6.62-.89-8.5.3-4.64-1.09-16.6,1.09-3.06-.3c-.73-1.32-1.55-1.98-2.47-1.98-.53,0-.92.07-1.19.2l-4.45,1.78-12.95-1.38-6.33,2.27-4.45-1.28-3.66,2.27-10.87-.79-.79,1.38.4,5.24-1.68,5.34.89,1.58,1.38,1.78-1.38,4.25c.99,1.85,1.58,3.2,1.78,4.05l-.4,3.26.79,9.09v.2c0,.86-.73,2.21-2.17,4.05,1.71,2.17,2.57,3.95,2.57,5.34,0,.4-.13.86-.39,1.38l-2.67,5.63,2.87,5.04,1.19,18.88,3.06.59,13.34,4.64,4.45-.59c1.05,0,2.54.53,4.45,1.58,1.32-1.19,2.27-1.78,2.87-1.78h.4l9.09,1.78,5.53-.59,4.84.99,11.76-.79,3.36.59,5.73.2,1.98.69-.59-1.48,2.27-.4,9.29-.2,1.98-.79,11.56-2.08c.33-.06,1.09-.25,2.27-.54,1.19-.3,1.91-.44,2.17-.44.4,0,1.22.2,2.47.59Z" style="fill:#f2e863; stroke-width:0px;"/><path d="m1287.17,227.16c-.26.66-.99,1.28-2.17,1.88.92,2.04,1.38,3.26,1.38,3.66l-.39,8.1.39,6.42-1.19,4.64.4,6.52-.59,9.09.59,5.24-.59,3.46.39,9.29-.2,2.67-.59-.99c-1.12.86-1.68,1.65-1.68,2.37,0,1.32.96,2.6,2.87,3.85.53,2.37.79,4.18.79,5.44,0,2.64-.51,5.12-1.53,7.46-1.02,2.34-2.88,5.62-5.58,9.83l-1.38,2.17-3.85,2.27-.79-2.27-4.64-7.12-5.93-7.41-4.45-7.71-1.58-2.08.4-2.17c0-1.58-1.15-3.26-3.46-5.04-3.23-2.7-5.04-4.35-5.44-4.94l-5.44-9.69-2.87-3.46-1.78-5.04c-1.12-2.7-3.23-4.05-6.33-4.05l-1.19-2.37-5.73-9.39-1.58-5.24-3.26-3.66-.59.79-1.58-.99c-4.55-7.71-8.86-12.62-12.95-14.73.53-1.65.79-2.87.79-3.66,0-1.65-.63-2.47-1.88-2.47l-2.17.79c-1.05-1.05-1.94-1.58-2.67-1.58l-1.98.99,2.17,4.64-2.37.89.59,1.58-.79,4.25.4,8.5-.59,2.87-1.68.79.2,2.37,1.68,5.73c.13.13.2.21.2.25v.15c0,1.05-.83,2.67-2.47,4.84l.79,4.05.89,2.27v29.06l1.19,8.5v.2c0,.07-.07.23-.2.49l-1.19,5.63.2,1.19c1.19.66,1.78,1.42,1.78,2.27s-1.62,3.62-4.84,8.3l-1.19,1.78-2.27-.2c-1.25,1.51-2.27,2.27-3.06,2.27h-.2l-2.17-.2-1.68.4.2-2.47c.2-1.84.49-3.06.89-3.66l2.17-2.77,1.68-2.47-2.27-1.98.59-2.27,1.19-2.87c-.66-1.98-.99-3.1-.99-3.36.06-.13.11-.25.15-.35.03-.1.05-.21.05-.35l1.48-5.24-.49-11.37c.59-.99,1.61-1.65,3.06-1.98v-.99l-2.17-2.67.4-2.17-.4-2.08.59-5.63c0-.06-.02-.13-.05-.2-.03-.06-.08-.13-.15-.2l-1.29-4.25.69-5.73-.39-4.05c0-1.32.92-2.6,2.77-3.85l-.2-2.37-1.38-3.26c0-.66.2-1.61.59-2.87-1.19-.99-1.78-2.04-1.78-3.16,0-1.19.39-3.23,1.19-6.13l-.99-1.38-.2-2.87-.89-6.82c0-.46.3-1.42.89-2.87v-2.27c0-4.02-.36-6.49-1.09-7.41l-4.45-5.53.79-2.17,2.47-1.48c1.65-.92,2.8-1.68,3.46-2.27.66-.59,1.19-1.45,1.58-2.57l1.68-.99,4.64-5.44c.26-.26.66-.4,1.19-.4,1.52,0,2.67.92,3.46,2.77l4.45,8.7,1.78,2.27,1.68,3.06-.59.59c1.58,1.58,3.66,4.55,6.23,8.89l5.04,8.5c1.12,1.98,1.68,3.13,1.68,3.46,0,.79-.3,1.52-.89,2.17l4.05,2.27-.59,1.78,1.68,2.08,4.05,5.83,2.96,2.87,1.09,3.26,8.89,9.49-1.88.99c.33,1.32.76,2.19,1.29,2.62.53.43,1.58.78,3.16,1.04l4.65,6.42-1.38.2,2.67,1.88c1.84,1.32,3.03,2.37,3.56,3.16.53.79.89,2.04,1.09,3.76l1.38,1.38-.2,1.38c0,1.45.46,3,1.38,4.64l2.27,1.48c2.83,1.25,4.31,1.98,4.45,2.17l4.25,6.52,2.17,1.38,2.87,2.47.99-2.27-.2-11.96,2.08-4.84c-1.38-1.45-2.08-2.73-2.08-3.85,0-.66.06-1.12.2-1.38l1.29-4.05.59-14.13,1.58-3.06-1.19-3.06.79-4.64v-.2c0-.86-.79-1.61-2.37-2.27l-.49-25.7c.92-.06,1.53-.31,1.83-.74.3-.43.51-1.3.64-2.62l-3.06-2.27-.39-3.46c-.33-2.9-.74-4.81-1.24-5.73-.49-.92-1.5-1.38-3.01-1.38-.26-1.05-.4-1.84-.4-2.37,0-2.44,2.83-4.38,8.5-5.83.92-1.38,1.73-2.34,2.42-2.87.69-.53,2.19-1.28,4.5-2.27.79,1.32,1.19,2.54,1.19,3.66l-.4,2.87.59,2.17-.2,3.85.2,8.3c0,1.65-.2,3.06-.59,4.25l-.79,4.05v.2l1.58,6.52-.4,4.84.59,2.17Z" style="fill:#f2e863; stroke-width:0px;"/><path d="m1449.05,312.65c0,.26-.13.66-.4,1.19l-3.85,3.26-4.05,5.83h-3.26l-1.98.4-.2-1.78-1.19-2.47.2-1.98-.2-1.88c-.99-1.84-1.55-3.46-1.68-4.84h-1.58l-.79-2.17-3.46-6.72-.59-3.46-5.04-8.7c-.59-1.19-.89-2.54-.89-4.05.06-.26.11-.49.15-.69.03-.2.05-.49.05-.89-1.19-.59-2.11-1.42-2.77-2.47-2.37-3.95-3.79-7.18-4.25-9.69l-3.46-1.58c-.59,2.96-1.75,4.45-3.46,4.45h-.4l-10.28-1.88-3.66.2-2.67-.4-14.13,1.88-8.3-.4-4.45,1.19-3.46-1.19-2.67-.69c-.86,1.12-1.58,1.85-2.17,2.17-.59.33-1.35.49-2.27.49h-.59l-8.7-.59-3.26.79-4.25.2c-1.45.33-3.06,2.57-4.84,6.72l-1.78,3.85-1.09.4c-1.91,5.07-4.38,9.85-7.41,14.33l-.2,2.08-1.48,2.17-5.44,12.16c-.4,1.19-1.88,2.08-4.45,2.67l.2,1.58c-.79.13-1.88.2-3.26.2-1.91,0-3.92-.73-6.03-2.17l3.85-6.72,2.77-3.46,2.27-3.66,1.38-2.17,1.38-1.88v-.79c2.7-.4,4.05-1.61,4.05-3.66v-2.37l3.06-3.66,4.25-9.29,2.47-3.46,2.77-6.13,3.26-6.23,3.85-6.52,4.05-3.85c.26-.26.4-.59.4-.99,0-.53-.33-1.12-.99-1.78,1.19-.86,2.04-1.56,2.57-2.12.53-.56,1.02-1.33,1.48-2.32l-1.19-1.88,1.19-1.98,1.58-4.64c.2-.4,1.02-1.22,2.47-2.47l-.2-.99,4.45-11.37,3.46-9.29c.66-1.71,2.14-3.82,4.45-6.33l-.79-2.17.59-2.67c.39-1.91.77-3.23,1.14-3.95.36-.72.99-1.25,1.88-1.58.89-.33,2.03-.63,3.41-.89l.59-1.48-.99-2.96c-.26-.79-.4-1.35-.4-1.68,0-.92.4-1.58,1.19-1.98l6.72-4.45,1.38-3.06c1.38-1.71,3.23-2.67,5.53-2.87l1.19,4.05h1.19l-.4,1.09,1.38,2.96,2.87,3.66,3.66,6.72,1.98,5.44,2.47,4.45-2.47.79c0,.73.3,1.35.89,1.88,2.37,1.38,3.56,2.67,3.56,3.85l-.2,1.78,2.27,2.47,2.67,4.45,1.38,2.37.2.79-.79,1.88.4,1.98,1.38,1.88,2.87,2.37,3.46,6.92,1.78,3.06v2.37c2.57,2.24,3.85,3.95,3.85,5.14,0,.13-.13.59-.4,1.38l1.98,1.98,4.45,7.51c.4.59.71,1.1.94,1.53.23.43.63,1.12,1.19,2.08.56.96.94,1.63,1.14,2.03,1.12,1.71,1.76,2.83,1.93,3.36.16.53.28,1.45.35,2.77,2.31,1.12,3.46,2.41,3.46,3.85,0,.13-.1.26-.3.4l-.4,4.25c0-.13.13.33.4,1.38l4.05,2.08,1.28,1.78.59,1.88c.26.99,1.35,1.98,3.26,2.96v2.27l3.36,3.46,3.26,5.44,1.68,1.98c.79.99,1.42,2.04,1.88,3.16.46,1.12.69,1.91.69,2.37Zm-40.62-50.8l-.89-.79.4-.69-.4-.99h-1.98c-.79-.92-1.42-3.43-1.88-7.51l-.2-1.98-3.75-.99-4.74-9.39h-1.38l-6.03-11.86.79-2.27-.59-2.47-4.64-2.37-7.12-14.13c-.26-.72-1.81-2.24-4.65-4.55l-1.19.89-1.29,4.05-.79.2c-.79,2.77-1.38,4.48-1.78,5.14-.4.66-1.22,1.58-2.47,2.77-1.71,1.52-2.67,3.06-2.87,4.64l-.4,2.37-4.45,9.78c-.46,1.19-.89,2.21-1.28,3.06-.4.86-.66,1.42-.79,1.68-.13.26-.36.63-.69,1.09-.33.46-.69.86-1.09,1.19l-.79,2.08c-.53,1.32-.96,2.12-1.29,2.42-.33.3-1.05.48-2.17.54l-.2,2.27c-.26,3.36-.81,5.83-1.63,7.41-.83,1.58-2.22,3.03-4.2,4.35l1.78,2.77c-.79.07-1.38.3-1.78.69-.4.4-.73,1.05-.99,1.98l-.69,2.47,1.68.2,3.26.99,2.57-.4,2.27.79.4-.79,1.78-.2,12.75.79,8.1-.59,3.26,1.38c.46-.46.81-.74,1.04-.84.23-.1.94-.2,2.12-.3,1.19-.1,3.03-.31,5.53-.64l2.67-.4-.39.99.79.4c.59,0,1.32-.53,2.17-1.58l2.67-.2c3.49-.33,6.13-.58,7.91-.74,1.78-.16,2.87-.3,3.26-.4.39-.1,1-.36,1.83-.79.82-.43,1.63-.94,2.42-1.53Z" style="fill:#f2e863; stroke-width:0px;"/></g></svg>