<svg xmlns="http://www.w3.org/2000/svg" viewBox="0 0 512 512">
  <defs>
    <symbol id="female">
      <title>female</title>
      <path fill="#e28086" d="M378.6 123.8a70.5 70.5 0 0 0-48.4-48.3 262.4 262.4 0 0 0-148.4 0 70.5 70.5 0 0 0-48.4 48.3 262.4 262.4 0 0 0 0 148.5 70.8 70.8 0 0 0 48.2 48.3 271 271 0 0 0 55 10v40.7h-22a19.5 19.5 0 0 0 0 39h18.8c1.7 0 3.1 1.4 3.1 3v14.4a19.5 19.5 0 0 0 39 0v-14.3c0-1.7 1.4-3.1 3.1-3.1h18.9a19.5 19.5 0 0 0 0-39h-22v-40.7c18.3-1.4 36.6-4.7 54.7-10a70.5 70.5 0 0 0 48.4-48.3 262.4 262.4 0 0 0 0-148.5ZM341 261.4a31.8 31.8 0 0 1-21.7 21.8 224 224 0 0 1-126.8 0 31.8 31.8 0 0 1-21.7-21.8 224 224 0 0 1 0-126.7 31.8 31.8 0 0 1 21.7-21.8 226.6 226.6 0 0 1 126.8 0 31.8 31.8 0 0 1 21.7 21.8 224 224 0 0 1 0 126.7Z"/>
  <path fill="#dd636e" d="M319.4 283.2a228.8 228.8 0 0 1-57.5 9 226 226 0 0 0 69.3-9 31.8 31.8 0 0 0 21.8-21.8 224 224 0 0 0 0-126.7 31.8 31.8 0 0 0-21.8-21.8 226.6 226.6 0 0 0-69.3-9c19.2.5 38.4 3.5 57.5 9a31.8 31.8 0 0 1 21.7 21.8 224 224 0 0 1 0 126.7 31.8 31.8 0 0 1-21.7 21.8Zm-82.9 88.1h11.9v-40.7a269.1 269.1 0 0 1-55-10 70.8 70.8 0 0 1-48.1-48.3 262.4 262.4 0 0 1 0-148.4 70.5 70.5 0 0 1 48.3-48.4A266.8 266.8 0 0 1 262 64.9c-26.7-.7-53.5 2.9-80.1 10.6a70.5 70.5 0 0 0-48.4 48.4 262.4 262.4 0 0 0 0 148.4 70.8 70.8 0 0 0 48.2 48.3c18.2 5.3 36.6 8.6 55 10v40.7Zm11.9 56.4v-14.3c0-1.7-1.4-3.1-3.2-3.1h-11.8c1.7 0 3.1 1.4 3.1 3.1v14.3a19.5 19.5 0 0 0 25.4 18.6 19.5 19.5 0 0 1-13.5-18.6Zm-41.5-36.9c0-10.8 8.7-19.5 19.5-19.5h-11.9a19.5 19.5 0 0 0 0 39h11.9a19.5 19.5 0 0 1-19.5-19.5Z"/>
  <path d="M256 453c-14 0-25.3-11.3-25.3-25.3V416h-16.2a25.1 25.1 0 0 1-25.3-25.2c0-14 11.4-25.3 25.3-25.3h16.2V336c-17-1.6-34-4.9-50.7-9.8a76.2 76.2 0 0 1-52-52.2 268.2 268.2 0 0 1 0-151.7A76.3 76.3 0 0 1 180 70a268.2 268.2 0 0 1 151.7 0c25.4 7.4 45 27 52.3 52.3a268 268 0 0 1 0 151.7 76.2 76.2 0 0 1-25.7 38.5 5.8 5.8 0 1 1-7.2-9 64.7 64.7 0 0 0 21.8-32.7c14-48.2 14-97 0-145.2A64.8 64.8 0 0 0 328.6 81c-48.2-14-97-14-145.2 0a64.8 64.8 0 0 0-44.4 44.5c-14 48.1-14 97 0 145.2a64.8 64.8 0 0 0 44.2 44.4 264 264 0 0 0 53.7 9.8c3 .2 5.4 2.7 5.4 5.7v40.7c0 3.2-2.6 5.8-5.8 5.8h-22a13.7 13.7 0 0 0 0 27.4h18.9a9 9 0 0 1 8.9 8.9v14.3a13.7 13.7 0 0 0 27.4 0v-14.3c0-5 4-9 9-9h18.8a13.7 13.7 0 0 0 0-27.3h-22a5.8 5.8 0 0 1-5.8-5.8v-40.7c0-3 2.4-5.5 5.4-5.7a263.7 263.7 0 0 0 58-11.3 5.8 5.8 0 1 1 4 10.9l-5.3 1.7a276.8 276.8 0 0 1-50.5 9.7v29.6h16.2a25 25 0 0 1 25.3 25.3c0 14-11.4 25.2-25.3 25.2h-16.2v11.8A25.1 25.1 0 0 1 256 453Zm0-154.9c-21.7 0-43.4-3.1-65-9.4a37.5 37.5 0 0 1-25.7-25.7 229.6 229.6 0 0 1 0-130c2.3-7.8 7-14.6 13.5-19.5a5.8 5.8 0 0 1 7 9.2 25.9 25.9 0 0 0-9.4 13.6 218.3 218.3 0 0 0 0 123.5 26 26 0 0 0 17.8 17.8c41 12 82.6 12 123.6 0a26 26 0 0 0 17.8-17.8 218 218 0 0 0 0-123.5 26 26 0 0 0-17.9-17.8 222 222 0 0 0-112.6-3 5.8 5.8 0 0 1-2.6-11.1 231.6 231.6 0 0 1 118.5 3 37.6 37.6 0 0 1 25.7 25.7 229.6 229.6 0 0 1 0 130 37.5 37.5 0 0 1-25.7 25.6 232.5 232.5 0 0 1-65 9.4Z"/>
    </symbol>
    <symbol id="male">
      <title>male</title>
      <path fill="#93d8e4" d="M427.3 64.8H321.5a20 20 0 0 0 0 39.8h57.7l-76 76a281.5 281.5 0 0 0-48.3-33.3 73.5 73.5 0 0 0-71.1 0C136.8 173 99.8 210 74 257a73.5 73.5 0 0 0 0 71.1c25.8 47 62.8 84 109.8 109.8a73.7 73.7 0 0 0 71.2 0c47-25.8 83.9-62.8 109.8-109.8a73.5 73.5 0 0 0 0-71.1 281.5 281.5 0 0 0-33.5-48.3l76.1-76v57.7a20 20 0 0 0 39.8 0V84.7c0-11-8.9-20-19.9-20ZM329.8 309a235.2 235.2 0 0 1-94 94.1 33.8 33.8 0 0 1-32.8 0 235.2 235.2 0 0 1-94.1-94 33.8 33.8 0 0 1 0-32.8c22.1-40.3 53.8-72 94-94.1a33.8 33.8 0 0 1 32.8 0c40.3 22.1 72 53.8 94.1 94a33.8 33.8 0 0 1 0 32.8Z"/>
  <path fill="#7ad0df" d="m379.2 104.6-76 76 7 5.9 81.8-81.9h-12.8ZM235.7 403.1a34 34 0 0 1-10 3.6c7.7 1.5 15.7.3 22.8-3.6 40.3-22.1 72-53.8 94-94a33.8 33.8 0 0 0 0-32.8 235.2 235.2 0 0 0-94-94.1c-7-4-15.1-5.1-22.8-3.7a34 34 0 0 1 10 3.7c40.3 22.1 72 53.8 94.1 94a33.8 33.8 0 0 1 0 32.8 235.2 235.2 0 0 1-94 94.1Z"/>
  <path fill="#7ad0df" d="M196.5 438c-47-25.8-84-62.8-109.8-109.8a73.5 73.5 0 0 1 0-71.1c25.9-47 62.8-84 109.8-109.8 9.2-5.1 19.2-8 29.2-9a73.6 73.6 0 0 0-42 9A273.8 273.8 0 0 0 74 257a73.5 73.5 0 0 0 0 71.1c25.8 47 62.8 84 109.8 109.8a73.7 73.7 0 0 0 42 9 74 74 0 0 1-29.3-9Zm223.6-247.5V120l-12.7 12.8v57.7a20 20 0 0 0 26.3 18.9 20 20 0 0 1-13.6-18.9Zm-98.6-85.9h12.7a20 20 0 0 1 0-39.8h-12.7a20 20 0 0 0 0 39.8Z"/>
  <path d="M219.4 453a79.9 79.9 0 0 1-38.4-10 284.6 284.6 0 0 1-64.1-47.9 284.8 284.8 0 0 1-48-64 79.2 79.2 0 0 1 0-76.8c26.4-48 64.1-85.7 112-112.1a79.2 79.2 0 0 1 76.8 0 289.4 289.4 0 0 1 45.1 30.6l62.5-62.4h-43.8a25.7 25.7 0 0 1 0-51.4h105.8A25.7 25.7 0 0 1 453 84.7v60.8a5.8 5.8 0 1 1-11.5 0V84.7c0-7.8-6.4-14.2-14.2-14.2H321.5a14.2 14.2 0 0 0 0 28.3h57.7a5.8 5.8 0 0 1 4.1 9.9l-76 76a5.8 5.8 0 0 1-7.9.3 277 277 0 0 0-47.2-32.7 67.7 67.7 0 0 0-65.6 0A268.8 268.8 0 0 0 79 259.8a67.7 67.7 0 0 0 0 65.6c12.7 23 28.1 43.7 46 61.6 18 17.9 38.7 33.4 61.6 46a68.2 68.2 0 0 0 65.6 0c46-25.4 82.2-61.5 107.5-107.5a67.7 67.7 0 0 0 0-65.7 277 277 0 0 0-32.7-47.2c-2-2.3-1.9-5.7.3-7.8l76-76.1a5.8 5.8 0 0 1 9.9 4v57.8a14.2 14.2 0 0 0 28.3 0v-21.9a5.8 5.8 0 1 1 11.5 0v22a25.7 25.7 0 0 1-51.4 0v-43.9l-62.4 62.5c11.4 13.8 21.7 29 30.6 45a79.2 79.2 0 0 1 0 76.8 280.2 280.2 0 0 1-112 112 78.9 78.9 0 0 1-38.4 10Zm0-39.9c-6.6 0-13.2-1.6-19.2-5a241 241 0 0 1-96.4-96.3 39.8 39.8 0 0 1 0-38.2 5.8 5.8 0 0 1 10 5.6 28.3 28.3 0 0 0 .1 27 229.5 229.5 0 0 0 91.9 91.9 28 28 0 0 0 27.2 0 229.6 229.6 0 0 0 91.8-91.9 28 28 0 0 0 0-27.2 229.7 229.7 0 0 0-91.8-91.8 28 28 0 0 0-27.2 0 229.2 229.2 0 0 0-80.3 73 5.8 5.8 0 0 1-9.6-6.5c21.6-32 50-57.7 84.3-76.6 12-6.6 26.3-6.6 38.3 0a241 241 0 0 1 96.4 96.4c6.6 12 6.6 26.3 0 38.3a241 241 0 0 1-96.4 96.4c-6 3.3-12.5 5-19.1 5Z"/>
    </symbol>

    <symbol id="both">
      <title>both</title>
      <path fill="#ac80dd" d="M369.4 255.7a66 66 0 0 0-45.2-45.2 247.2 247.2 0 0 0-49-9V169l19.4 11.2a19.2 19.2 0 1 0 19.3-33.4l-19.3-11.2 19.3-11.1A19.3 19.3 0 0 0 294.6 91l-19.3 11.1V84a19.3 19.3 0 1 0-38.6 0v18.2l-19.3-11.1a19.3 19.3 0 0 0-19.3 33.4l19.3 11.1-19.3 11.2a19.3 19.3 0 0 0 19.3 33.4l19.3-11.2v32.5a247.2 247.2 0 0 0-49 9 66 66 0 0 0-45.1 45.2 241.3 241.3 0 0 0 0 136.5 66 66 0 0 0 45.2 45.2 244 244 0 0 0 136.4 0 66 66 0 0 0 45.2-45.2 241.3 241.3 0 0 0 0-136.5Zm-37 125.8a27.6 27.6 0 0 1-19 18.8 202.4 202.4 0 0 1-114.9 0 27.6 27.6 0 0 1-18.9-18.9c-11-38.1-11-76.8 0-115a27.6 27.6 0 0 1 18.9-18.8 205.8 205.8 0 0 1 115 0 27.6 27.6 0 0 1 18.9 18.9c11 38.1 11 76.8 0 115Z"/>
  <path fill="#9d66d5" d="m275.3 169 19.3 11.2a19.2 19.2 0 0 0 17.2 1 20 20 0 0 1-2-1l-34.5-19.9v8.7Zm38.2 231.3a206.6 206.6 0 0 1-50 8.2c21.8.8 43.5-1.9 65.1-8.2a27.6 27.6 0 0 0 19-18.9c11-38.1 11-76.8 0-115a27.6 27.6 0 0 0-19-18.8 205.8 205.8 0 0 0-65-8.2c16.6.6 33.3 3.3 49.9 8.1a27.6 27.6 0 0 1 18.9 19c11 38.1 11 76.8 0 115a27.6 27.6 0 0 1-19 18.8ZM275.3 111l34.5-20 2-1a19.2 19.2 0 0 0-17.2 1l-19.3 11.3v8.7Zm-72.4 326.4a66 66 0 0 1-45.2-45.2 241.3 241.3 0 0 1 0-136.5 66 66 0 0 1 45.2-45.2c16.3-4.7 32.6-7.7 49-9v-41.2l-15.2 8.7v32.5a247.2 247.2 0 0 0-49 9 66 66 0 0 0-45.1 45.2 241.3 241.3 0 0 0 0 136.5 66 66 0 0 0 45.2 45.2 244 244 0 0 0 75.8 9.7c-20.3-.6-40.6-3.9-60.7-9.7ZM251.8 111V84c0-8 4.9-14.8 11.8-17.7a19.2 19.2 0 0 0-26.9 17.8v18.2l15.1 8.7ZM191 173.2a19.3 19.3 0 0 0 24.3 8 19.3 19.3 0 0 1-2-34.4l19.3-11.2-19.4-11.1a19.3 19.3 0 0 1 2.1-34.5 19.3 19.3 0 0 0-17.2 34.5l19.4 11.1-19.4 11.2a19.3 19.3 0 0 0-7 26.3Z"/>
  <path d="M256 453c-23.3 0-46.8-3.4-69.8-10a71.7 71.7 0 0 1-49.2-49.2 246.8 246.8 0 0 1 0-139.7 71.7 71.7 0 0 1 49.2-49.1c14.7-4.3 29.8-7.2 44.8-8.8V179l-10.7 6.2A25 25 0 0 1 186 176a24.9 24.9 0 0 1 9.2-34.2l10.7-6.1-10.7-6.2a24.9 24.9 0 0 1-9.1-34.2 25 25 0 0 1 34.2-9.2l10.7 6.2V84a25 25 0 0 1 50 0v8.3l10.8-6.2a25 25 0 0 1 23.1-1 5.8 5.8 0 1 1-4.9 10.5c-4-2-8.6-1.7-12.5.5l-19.3 11.2a5.8 5.8 0 0 1-8.7-5V84a13.5 13.5 0 0 0-27 0v18.3a5.8 5.8 0 0 1-8.7 5L214.5 96a13.4 13.4 0 0 0-18.4 5 13.4 13.4 0 0 0 4.9 18.4l19.3 11.1a5.8 5.8 0 0 1 0 10L201 151.8a13.4 13.4 0 0 0-5 18.5 13.6 13.6 0 0 0 18.5 5l19.3-11.3a5.8 5.8 0 0 1 8.7 5v32.5c0 3-2.3 5.5-5.3 5.7-16 1.3-32 4.3-47.8 8.9a60.2 60.2 0 0 0-41.3 41.2 235.5 235.5 0 0 0 0 133.3 60.2 60.2 0 0 0 41.3 41.2c22 6.4 44.4 9.7 66.6 9.7s44.6-3.3 66.6-9.7a60.2 60.2 0 0 0 41.3-41.2c12.8-44.2 12.8-89 0-133.3a60.2 60.2 0 0 0-41.3-41.2 242.6 242.6 0 0 0-47.8-8.9c-3-.2-5.3-2.7-5.3-5.7V169a5.8 5.8 0 0 1 8.7-5l19.3 11.2a13.4 13.4 0 0 0 18.5-5 13 13 0 0 0 1.3-10.2 13 13 0 0 0-6.3-8.2l-19.3-11.2a5.8 5.8 0 0 1 0-10l19.3-11.1c3.9-2.2 6.4-6.2 6.7-10.6a5.8 5.8 0 0 1 11.5 1 25 25 0 0 1-12.4 19.6l-10.7 6.1 10.7 6.2A24.9 24.9 0 0 1 326 176a25.1 25.1 0 0 1-34.2 9.2L281 179v17.2c15 1.6 30 4.5 44.8 8.8a71.7 71.7 0 0 1 49 49.1 246.8 246.8 0 0 1 0 139.7 71.7 71.7 0 0 1-49 49.1c-23.1 6.7-46.6 10-69.9 10Zm0-38.6a211.3 211.3 0 0 1-60.2-8.9 5.8 5.8 0 1 1 3.6-11 197.5 197.5 0 0 0 112.5.2 21.9 21.9 0 0 0 15-14.9c10.7-37 10.7-74.7 0-111.7a21.9 21.9 0 0 0-15-15 200.4 200.4 0 0 0-111.8 0 21.9 21.9 0 0 0-15 15 197.5 197.5 0 0 0 1 114.1 5.8 5.8 0 0 1-10.7 4.5 209 209 0 0 1-1.3-121.9 33.3 33.3 0 0 1 22.8-22.8 212 212 0 0 1 118.2 0 33.3 33.3 0 0 1 22.8 22.8 209 209 0 0 1 0 118.3 33.3 33.3 0 0 1-22.8 22.8 211.4 211.4 0 0 1-59 8.5Z"/>
    </symbol>

    <symbol id="build-small">
      <title>build-small</title>
      <path fill="#efedef" d="M327 45.9H185a147 147 0 0 0-116.5 57.5l-60 78a5 5 0 0 0 1 7l63.4 48.7a5 5 0 0 0 7-.9l36.8-48v254.6a5 5 0 0 0 3.3 4.7c12 4.4 57 18.6 136 18.6s124-14.2 136-18.6a5 5 0 0 0 3.3-4.7V188.3l36.8 48a5 5 0 0 0 7 .8l63.4-48.6a5 5 0 0 0 1-7l-60-78.1A147 147 0 0 0 327 45.9Z"/>
      <path fill="#e5e1e5" d="M365.3 168v248.7c-12 4.4-60.3 19.4-139.3 19.4-50 0-86.3-5.7-109.3-11v17.7a5 5 0 0 0 3.3 4.7c12 4.4 57 18.6 136 18.6s124-14.2 136-18.6a5 5 0 0 0 3.3-4.7V188.3L376.7 164a6.4 6.4 0 0 0-11.4 4Z"/>
      <path fill="#ffa799" d="M365.3 455.2Z"/>
      <path fill="#9be69d" d="m439.1 237.2 63.4-48.7a5 5 0 0 0 1-7l-16-20.8-71.3 54.8 16 20.7a5 5 0 0 0 7 1ZM8.5 181.4a5 5 0 0 0 1 7l63.4 48.7a5 5 0 0 0 7-.9l16-20.8-71.4-54.7-16 20.7ZM185.3 66a70.7 70.7 0 1 0 141.4 0V45.8H185.3v20Z"/>
      <path fill="#e5e1e5" d="M256 106.6a40.7 40.7 0 0 1-40.7-40.7V46h81.4v20a40.7 40.7 0 0 1-40.7 40.7Z"/>
      <path d="M258.7 333.2a61.8 61.8 0 0 1-45.3-19.4 7.5 7.5 0 1 1 11.1-10c8.2 9 21 14.4 34.2 14.4 15.1 0 25-9.6 26.6-18.5 1.7-9.5-5.4-18-19.3-23-4.5-1.7-8.4-3-11.9-4.2-10-3.4-17.3-5.8-24.9-12.2-8.2-7-12-18.2-9.7-29.3a32.7 32.7 0 0 1 23-24.7C270 197.6 293 217 294 217.7a7.5 7.5 0 0 1-9.7 11.4c-.3-.2-17.9-14.6-37.5-8.5-6.8 2.2-11.4 7-12.7 13.4-1.1 5.6.7 11.5 4.7 14.8a55 55 0 0 0 20 9.5c3.6 1.1 7.6 2.5 12.3 4.2a48 48 0 0 1 23.7 17 29.5 29.5 0 0 1 5.1 22.8c-3.1 17.6-20.9 30.9-41.3 30.9Z"/>
      <path d="M395.3 368.3a7.5 7.5 0 0 0-7.5 7.5V441c-13.8 4.8-57.4 17.5-131.8 17.5S138 446 124.2 441.1V282.6a7.5 7.5 0 0 0-15 0v160.2c0 5.3 3.3 10 8.2 11.8 12.3 4.4 58.5 19 138.6 19s126.4-14.6 138.6-19c5-1.8 8.2-6.5 8.2-11.8v-67c0-4.2-3.3-7.5-7.5-7.5Zm114.1-191.4-60-78A155.4 155.4 0 0 0 327 38.3H185.1A155.5 155.5 0 0 0 62.5 98.8l-60 78c-2 2.7-2.8 6-2.4 9.3a12 12 0 0 0 4.8 8.3l63.4 48.7a12.4 12.4 0 0 0 9.2 2.5c3.3-.5 6.3-2.2 8.3-4.8l23.4-30.4v37.2a7.5 7.5 0 0 0 15 0v-58.1c2.8-9 17.4-61-11-116a140.4 140.4 0 0 1 64.6-20V66a78.3 78.3 0 0 0 156.4 0V53.6c23 1.2 45.2 8.2 64.7 19.9a158.7 158.7 0 0 0-11 116v151.2a7.5 7.5 0 0 0 15 0V210.4l23.3 30.4a12.5 12.5 0 0 0 17.5 2.3l63.4-48.7a12.4 12.4 0 0 0 2.3-17.5Zm-434 52.8L16 184l9.9-12.8 59.4 45.6-9.8 12.9Zm34.5-45L94.5 205l-29.8-22.8L35 159.3l39.4-51.4A146 146 0 0 1 100.6 82a146.3 146.3 0 0 1 9.4 102.9ZM289.2 53.5V66a33.2 33.2 0 0 1-66.4 0V53.4h66.4Zm30 12.5a63.2 63.2 0 0 1-126.4 0V53.4h15v12.5a48.2 48.2 0 0 0 96.4 0V53.4h15v12.5ZM402 184.7a145 145 0 0 1 9.3-102.8c9.8 7.4 18.6 16.2 26.2 26l39.4 51.4-29.7 22.8-29.8 22.8-15.5-20.2Zm34.4 45-9.8-12.9 59.4-45.6 10 12.8-59.5 45.7Z"/>
    </symbol>

    <symbol id="build-medium">
      <title>build-medium</title>
      <path fill="#efedef" d="M327 45.9H185a147 147 0 0 0-116.5 57.5l-60 78a5 5 0 0 0 1 7l63.4 48.7a5 5 0 0 0 7-.9l36.8-48v254.6a5 5 0 0 0 3.3 4.7c12 4.4 57 18.6 136 18.6s124-14.2 136-18.6a5 5 0 0 0 3.3-4.7V188.3l36.8 48a5 5 0 0 0 7 .8l63.4-48.6a5 5 0 0 0 1-7l-60-78.1A147 147 0 0 0 327 45.9Z"/>
      <path fill="#e5e1e5" d="M365.3 168v248.7c-12 4.4-60.3 19.4-139.3 19.4-50 0-86.3-5.7-109.3-11v17.7a5 5 0 0 0 3.3 4.7c12 4.4 57 18.6 136 18.6s124-14.2 136-18.6a5 5 0 0 0 3.3-4.7V188.3L376.7 164a6.4 6.4 0 0 0-11.4 4Z"/>
      <path fill="#ffa799" d="M365.3 455.2Z"/>
      <path fill="#fed402" d="m439.1 237.2 63.4-48.7a5 5 0 0 0 1-7l-16-20.8-71.3 54.8 16 20.7a5 5 0 0 0 7 1ZM8.5 181.4a5 5 0 0 0 1 7l63.4 48.7a5 5 0 0 0 7-.9l16-20.8-71.4-54.7-16 20.7ZM185.3 66a70.7 70.7 0 1 0 141.4 0V45.8H185.3v20Z"/>
      <path fill="#e5e1e5" d="M256 106.6a40.7 40.7 0 0 1-40.7-40.7V46h81.4v20a40.7 40.7 0 0 1-40.7 40.7Z"/>
      <path d="M256 333.1a10 10 0 0 1-9.6-6.9v-.2l-26.8-90.5-16.3 90.6a7.5 7.5 0 1 1-14.8-2.7l20-111a10 10 0 0 1 9.3-8.2A10 10 0 0 1 228 211l.1.3 27.8 94 26.8-94v-.2a10 10 0 0 1 10.2-7 10 10 0 0 1 9.3 8l21.3 111.2a7.5 7.5 0 1 1-14.8 2.8l-17.3-90.6-25.8 90.4v.2a10 10 0 0 1-9.6 7Z"/>
      <path d="M395.3 368.3a7.5 7.5 0 0 0-7.5 7.5V441c-13.8 4.8-57.4 17.5-131.8 17.5S138 446 124.2 441.1V282.6a7.5 7.5 0 0 0-15 0v160.2c0 5.3 3.3 10 8.2 11.8 12.3 4.4 58.5 19 138.6 19s126.4-14.6 138.6-19c5-1.8 8.2-6.5 8.2-11.8v-67c0-4.2-3.3-7.5-7.5-7.5Zm114.1-191.4-60-78A155.4 155.4 0 0 0 327 38.3H185.1A155.5 155.5 0 0 0 62.5 98.8l-60 78c-2 2.7-2.8 6-2.4 9.3a12 12 0 0 0 4.8 8.3l63.4 48.7a12.4 12.4 0 0 0 9.2 2.5c3.3-.5 6.3-2.2 8.3-4.8l23.4-30.4v37.2a7.5 7.5 0 0 0 15 0v-58.1c2.8-9 17.4-61-11-116a140.4 140.4 0 0 1 64.6-20V66a78.3 78.3 0 0 0 156.4 0V53.6c23 1.2 45.2 8.2 64.7 19.9a158.7 158.7 0 0 0-11 116v151.2a7.5 7.5 0 0 0 15 0V210.4l23.3 30.4a12.5 12.5 0 0 0 17.5 2.3l63.4-48.7a12.4 12.4 0 0 0 2.3-17.5Zm-434 52.8L16 184l9.9-12.8 59.4 45.6-9.8 12.9Zm34.5-45L94.5 205l-29.8-22.8L35 159.3l39.4-51.4A146 146 0 0 1 100.6 82a146.3 146.3 0 0 1 9.4 102.9ZM289.2 53.5V66a33.2 33.2 0 0 1-66.4 0V53.4h66.4Zm30 12.5a63.2 63.2 0 0 1-126.4 0V53.4h15v12.5a48.2 48.2 0 0 0 96.4 0V53.4h15v12.5ZM402 184.7a145 145 0 0 1 9.3-102.8c9.8 7.4 18.6 16.2 26.2 26l39.4 51.4-29.7 22.8-29.8 22.8-15.5-20.2Zm34.4 45-9.8-12.9 59.4-45.6 10 12.8-59.5 45.7Z"/>
    </symbol>

    <symbol id="build-large">
      <title>build-large</title>
      <path fill="#efedef" d="M327 45.9H185a147 147 0 0 0-116.5 57.5l-60 78a5 5 0 0 0 1 7l63.4 48.7a5 5 0 0 0 7-.9l36.8-48v254.6a5 5 0 0 0 3.3 4.7c12 4.4 57 18.6 136 18.6s124-14.2 136-18.6a5 5 0 0 0 3.3-4.7V188.3l36.8 48a5 5 0 0 0 7 .8l63.4-48.6a5 5 0 0 0 1-7l-60-78.1A147 147 0 0 0 327 45.9Z"/>
      <path fill="#e5e1e5" d="M365.3 168v248.7c-12 4.4-60.3 19.4-139.3 19.4-50 0-86.3-5.7-109.3-11v17.7a5 5 0 0 0 3.3 4.7c12 4.4 57 18.6 136 18.6s124-14.2 136-18.6a5 5 0 0 0 3.3-4.7V188.3L376.7 164a6.4 6.4 0 0 0-11.4 4Z"/>
      <path fill="#ffa799" d="M365.3 455.2Z"/>
      <path fill="#fea713" d="m439.1 237.2 63.4-48.7a5 5 0 0 0 1-7l-16-20.8-71.3 54.8 16 20.7a5 5 0 0 0 7 1ZM8.5 181.4a5 5 0 0 0 1 7l63.4 48.7a5 5 0 0 0 7-.9l16-20.8-71.4-54.7-16 20.7ZM185.3 66a70.7 70.7 0 1 0 141.4 0V45.8H185.3v20Z"/>
      <path fill="#e5e1e5" d="M256 106.6a40.7 40.7 0 0 1-40.7-40.7V46h81.4v20a40.7 40.7 0 0 1-40.7 40.7Z"/>
      <path d="M248.2 333.1c-12.2 0-12.9 0-13.4-.2a7.5 7.5 0 0 1-6.3-7.4V211.6a7.5 7.5 0 0 1 15 0v106.5H276a7.5 7.5 0 0 1 .1 15h-27.8Z"/>
      <path d="M395.3 368.3a7.5 7.5 0 0 0-7.5 7.5V441c-13.8 4.8-57.4 17.5-131.8 17.5S138 446 124.2 441.1V282.6a7.5 7.5 0 0 0-15 0v160.2c0 5.3 3.3 10 8.2 11.8 12.3 4.4 58.5 19 138.6 19s126.4-14.6 138.6-19c5-1.8 8.2-6.5 8.2-11.8v-67c0-4.2-3.3-7.5-7.5-7.5Zm114.1-191.4-60-78A155.4 155.4 0 0 0 327 38.3H185.1A155.5 155.5 0 0 0 62.5 98.8l-60 78c-2 2.7-2.8 6-2.4 9.3a12 12 0 0 0 4.8 8.3l63.4 48.7a12.4 12.4 0 0 0 9.2 2.5c3.3-.5 6.3-2.2 8.3-4.8l23.4-30.4v37.2a7.5 7.5 0 0 0 15 0v-58.1c2.8-9 17.4-61-11-116a140.4 140.4 0 0 1 64.6-20V66a78.3 78.3 0 0 0 156.4 0V53.6c23 1.2 45.2 8.2 64.7 19.9a158.7 158.7 0 0 0-11 116v151.2a7.5 7.5 0 0 0 15 0V210.4l23.3 30.4a12.5 12.5 0 0 0 17.5 2.3l63.4-48.7a12.4 12.4 0 0 0 2.3-17.5Zm-434 52.8L16 184l9.9-12.8 59.4 45.6-9.8 12.9Zm34.5-45L94.5 205l-29.8-22.8L35 159.3l39.4-51.4A146 146 0 0 1 100.6 82a146.3 146.3 0 0 1 9.4 102.9ZM289.2 53.5V66a33.2 33.2 0 0 1-66.4 0V53.4h66.4Zm30 12.5a63.2 63.2 0 0 1-126.4 0V53.4h15v12.5a48.2 48.2 0 0 0 96.4 0V53.4h15v12.5ZM402 184.7a145 145 0 0 1 9.3-102.8c9.8 7.4 18.6 16.2 26.2 26l39.4 51.4-29.7 22.8-29.8 22.8-15.5-20.2Zm34.4 45-9.8-12.9 59.4-45.6 10 12.8-59.5 45.7Z"/>
    </symbol>

    <symbol id="height-short">
      <title>height-short</title>
      <path fill="#b3b3b3" d="M435.5 156.3h-359a7.5 7.5 0 0 1 0-15h359a7.5 7.5 0 0 1 0 15Zm0-116.3h-359a7.5 7.5 0 0 1 0-15h359a7.5 7.5 0 0 1 0 15Z"/>
  <path d="M435.5 272.7h-359a7.5 7.5 0 0 1 0-15h359a7.5 7.5 0 0 1 0 15Zm0 116.3h-359a7.5 7.5 0 0 1 0-15h359a7.5 7.5 0 0 1 0 15Z"/>
  <path fill="#f96491" d="M326.4 304.2a60 60 0 0 0-59.9-59.9h-22.2c-33 0-59.8 26.8-59.8 59.9V352c0 11 9 20 20 20h2.5v108.7h89.8V372h9.6c11 0 20-9 20-20v-47.8Z"/>
  <path fill="#f93a79" d="M266.5 244.3h-20a60 60 0 0 1 60 59.9V352h-29.7v128.7h20V372h9.6c11 0 20-9 20-20v-47.8c0-33-26.8-59.8-59.9-59.8Z"/>
  <circle cx="255.3" cy="192.5" r="50.9" fill="#f96491"/>
  <path fill="#f93a79" d="M255.3 141.6c-3.4 0-6.7.4-10 1a50.9 50.9 0 0 1 0 99.8 50.9 50.9 0 1 0 10-100.8Z"/>
  <path d="M288.4 240.6a58.3 58.3 0 1 0-66.1 0 67.5 67.5 0 0 0-36.7 30.7l13 7.3a52.5 52.5 0 0 1 45.7-26.8h22.2a52.4 52.4 0 0 1 52.4 52.4V352c0 7-5.6 12.5-12.5 12.5h-17.1v108.7h-30V391h-14.9v82.2h-30V364.5h-10c-6.9 0-12.4-5.6-12.4-12.5v-47.8c0-4.6.5-9.1 1.7-13.5l-14.4-3.9a67.6 67.6 0 0 0-2.3 17.4V352c0 13.5 9.7 24.7 22.5 27v109.2h104.8V379.5h2.1A27.5 27.5 0 0 0 334 352v-47.8c0-29.5-19-54.6-45.5-63.7Zm-76.5-48a43.5 43.5 0 1 1 87 0 43.5 43.5 0 0 1-87 0Z"/>
  <path d="M244.4 316.1h15v15h-15v-15Zm0-29.9h15v15h-15v-15Z"/>

    </symbol>

    <symbol id="height-medium">
      <title>height-medium</title>
<path d="M435.5 156.3h-359a7.5 7.5 0 0 1 0-15h359a7.5 7.5 0 0 1 0 15Z"/>
  <path fill="#999" d="M435.5 40h-359a7.5 7.5 0 0 1 0-15h359a7.5 7.5 0 0 1 0 15Z"/>
  <path d="M435.5 272.7h-359a7.5 7.5 0 0 1 0-15h359a7.5 7.5 0 0 1 0 15Zm0 116.3h-359a7.5 7.5 0 0 1 0-15h359a7.5 7.5 0 0 1 0 15Z"/>
  <path fill="#fff08a" d="M326.4 254.3c0-33-26.8-59.8-59.9-59.8h-22.2c-33 0-59.8 26.8-59.8 59.8v74.8c0 11 9 20 20 20h4.7v131.6H299V349.1h7.4c11 0 20-9 20-20v-74.8Z"/>
  <path fill="#ffc472" d="M266.5 194.5h-20a60 60 0 0 1 60 59.8v74.8H279v151.6h20V349h7.4c11 0 20-8.9 20-20v-74.7c0-33-26.8-59.8-59.9-59.8Z"/>
  <circle cx="255.3" cy="142.6" r="50.9" fill="#fff08a"/>
  <path fill="#ffc472" d="M255.3 91.8c-3.4 0-6.7.3-10 1a50.9 50.9 0 0 1 0 99.7 50.9 50.9 0 1 0 10-100.8Z"/>
  <path d="M288.4 190.7a58.3 58.3 0 1 0-66.1 0 67.4 67.4 0 0 0-45.3 63.6v74.8c0 14.2 10.8 26 24.7 27.3v131.8h104.7V356.5a27.5 27.5 0 0 0 27.5-27.4v-43h-15v43c0 6.9-5.6 12.5-12.5 12.5h-15v131.6h-29.9V370.4h-15v102.8h-29.8V341.6h-12.3c-6.8 0-12.4-5.6-12.4-12.5v-74.8a52.4 52.4 0 0 1 52.3-52.3h22.2a52.4 52.4 0 0 1 52.4 52.3v17h15v-17c0-29.4-19-54.5-45.5-63.6Zm-76.5-48a43.5 43.5 0 1 1 87 0 43.5 43.5 0 0 1-87 0Z"/>
  <path d="M246.6 241.3h15v15h-15v-15Zm0 30h15v15h-15v-15Z"/>
    </symbol>

    <symbol id="height-tall">
      <title>height-tall</title>
<path d="M435.5 156.3h-359a7.5 7.5 0 0 1 0-15h359a7.5 7.5 0 0 1 0 15Zm0-116.3h-359a7.5 7.5 0 0 1 0-15h359a7.5 7.5 0 0 1 0 15Zm0 232.7h-359a7.5 7.5 0 0 1 0-15h359a7.5 7.5 0 0 1 0 15Zm0 116.3h-359a7.5 7.5 0 0 1 0-15h359a7.5 7.5 0 0 1 0 15Z"/>
  <path fill="#8ae897" d="M326.4 194.5a60 60 0 0 0-59.9-59.9h-22.2c-33 0-59.8 26.8-59.8 59.9v106.7c0 11 9 20 20 20h6.4v159.5h89.7V321.1h5.8c11 0 20-9 20-20V194.6Z"/>
  <path fill="#69bdc6" d="M266.5 134.6h-20a60 60 0 0 1 60 59.9v106.7h-25.8v179.5h20V321.1h5.7c11 0 20-9 20-20V194.6a60 60 0 0 0-59.9-59.9Z"/>
  <circle cx="255.3" cy="82.8" r="50.9" fill="#8ae897"/>
  <path fill="#69bdc6" d="M255.3 31.9c-3.4 0-6.7.3-10 1a50.9 50.9 0 0 1 0 99.8 50.9 50.9 0 1 0 10-100.8Z"/>
  <path d="M288.4 130.8a58.3 58.3 0 0 0 19-74.4l-13.3 6.8a43.5 43.5 0 1 1-7.7-10.8L297 42a58.4 58.4 0 1 0-74.7 89 67.4 67.4 0 0 0-45.3 63.6v106.7a27.5 27.5 0 0 0 26.4 27.4v159.6H308V328.6a27.5 27.5 0 0 0 25.8-27.4V194.5c0-29.5-19-54.6-45.5-63.7ZM319 301.2c0 6.8-5.6 12.4-12.5 12.4h-13.2v159.6H263V340.5h-15v132.7h-29.6V313.6h-13.9c-6.8 0-12.4-5.6-12.4-12.4V194.5a52.4 52.4 0 0 1 52.3-52.4h22.2a52.4 52.4 0 0 1 52.4 52.4v106.7Z"/>
  <path fill="#fff" d="M262.8 256.3h-15v-14.9h15v14.9Zm0-29.9h-15v-15h15v15Zm0-29.9h-15v-15h15v15Z"/>
    </symbol>

    <symbol id="arts">
      <title>arts</title>
<path fill="#a4ccff" d="m435.4 291.7-32.5-89.4a33.4 33.4 0 0 0-42.9-20l-116.4 42.4v62.2H203l23 81a94.7 94.7 0 0 0 58.8 57.4l58.3 19.6a44.6 44.6 0 0 0 52.3-19l32-52.5c15-24.6 18-54.7 8.1-81.7Zm-52.8 67a116 116 0 0 0-38.7 7.4c-13.3 4.8-25 11.5-34.4 19.2-4 3.2-10.1.3-10-4.8a50.1 50.1 0 0 1 87.4-32.2c3.5 4 1 10.3-4.3 10.4Z"/>
  <path fill="#8bb3ea" d="M290.9 406.8A74 74 0 0 1 245 362l-27.3-75.1h-21.2l29.5 81a94.7 94.7 0 0 0 58.7 57.4l58.3 19.6a44 44 0 0 0 41-6.7l-93-31.4Z"/>
  <path fill="#ff8086" d="M298.6 120.1 152 66.8a33.4 33.4 0 0 0-42.9 20L76.6 176a94.8 94.8 0 0 0 8.1 81.7l32 52.5a44.6 44.6 0 0 0 52.3 19l58.3-19.6a94.7 94.7 0 0 0 58.7-57.3l32.6-89.4a33.4 33.4 0 0 0-20-42.9Zm-83.7 137.7a50.1 50.1 0 0 1-87.4-32.2c-.1-5.1 6-8 10-4.8 9.4 7.7 21.1 14.4 34.4 19.2 13.4 4.9 26.6 7.3 38.8 7.4 5.2 0 7.8 6.5 4.2 10.4Z"/>
  <path fill="#e5646e" d="M101.3 247.6a74 74 0 0 1-6.3-63.8l43.3-119a33.5 33.5 0 0 0-29.2 22L76.6 176a94.8 94.8 0 0 0 8.1 81.7l32 52.5a44.5 44.5 0 0 0 35.8 21.3l-51.2-84Z"/>
  <path d="M291.4 254.3 324 165a39 39 0 0 0-23.4-50.2L154 61.3a39 39 0 0 0-50.3 23.5l-32.5 89.4a100 100 0 0 0 8.6 86.6l32 52.5a50.5 50.5 0 0 0 59 21.5l58.4-19.6a100 100 0 0 0 62.2-60.9ZM167.3 324c-17.3 5.9-36-1-45.6-16.6l-32-52.5A88.5 88.5 0 0 1 82 178l32.6-89.4A27.5 27.5 0 0 1 150 72.2l146.6 53.3a27.5 27.5 0 0 1 16.5 35.5l-32.5 89.4a88.5 88.5 0 0 1-55.1 53.8L167.2 324Z"/>
  <path d="M221.8 241c-14.7 1.8-31.7-.5-48-6.4s-30.6-15-40.7-25.8a5.8 5.8 0 0 0-9.8 2.6 55.9 55.9 0 0 0 104.3 38 5.8 5.8 0 0 0-5.8-8.3Zm-59.3 25a44.3 44.3 0 0 1-29.2-41.2 125 125 0 0 0 36.6 20.6 126 126 0 0 0 41.4 7.8 44.3 44.3 0 0 1-48.9 12.8Zm-31-96.5a21.1 21.1 0 0 1 19.4-2.1 21 21 0 0 1 13.5 14 5.8 5.8 0 0 0 11.2-2.8 32.3 32.3 0 0 0-20.7-22 32.3 32.3 0 0 0-30.1 3.5 5.8 5.8 0 1 0 6.7 9.4Zm127.9 39.6a32.3 32.3 0 0 0-20.7-22 32.3 32.3 0 0 0-30.2 3.5 5.8 5.8 0 1 0 6.8 9.4 21.1 21.1 0 0 1 19.4-2.1 21 21 0 0 1 13.5 14 5.8 5.8 0 0 0 11.2-2.8ZM133 147.2s5-2.2 13.4-3.1c7.7-.9 20-.7 35 4.7.7.3 1.3.4 2 .4a5.8 5.8 0 0 0 2-11.2c-33.3-12.1-56.3-1.7-57.3-1.3a5.8 5.8 0 0 0 4.8 10.5Zm90.3 16.8c28.4 10.4 38 29.7 38.1 30a5.8 5.8 0 0 0 10.5-5c-.4-.9-11.4-23.7-44.7-35.8a5.8 5.8 0 1 0-4 10.9Zm217.5 125.7-32.5-89.4A39.3 39.3 0 0 0 358 177l-25.8 9.4a5.8 5.8 0 1 0 4 10.9l25.8-9.4a27.7 27.7 0 0 1 35.4 16.5l32.6 89.4a88.5 88.5 0 0 1-7.6 76.7l-32 52.5a38.6 38.6 0 0 1-45.6 16.6l-58.3-19.7a88.5 88.5 0 0 1-55-53.9L221 337.6a5.8 5.8 0 1 0-10.9 4l10.4 28.3a100 100 0 0 0 62.2 60.8l58.3 19.7a50.3 50.3 0 0 0 59.1-21.5l32-52.5a100 100 0 0 0 8.6-86.7Z"/>
  <path d="M299.4 399a5.8 5.8 0 0 0 5.7-1.7 106.8 106.8 0 0 1 40.8-25.8 107 107 0 0 1 47.8-6.5 5.8 5.8 0 0 0 5.9-8.3 55.9 55.9 0 0 0-104.4 38c.5 2 2.1 3.7 4.2 4.2Zm35-59a44.2 44.2 0 0 1 48.9 13 126.2 126.2 0 0 0-78.1 28.3 44.3 44.3 0 0 1 29.2-41.2Zm-40.1-50.6a5.8 5.8 0 0 0-5.7 5.9c.1 6.4-3.5 13-9.4 17a21.1 21.1 0 0 1-19.3 3 5.8 5.8 0 1 0-4 10.9c3.3 1.3 7 2 10.6 2 6.7 0 13.4-2.2 19.4-6.4a32.3 32.3 0 0 0 14.2-26.7c0-3.2-2.6-5.7-5.8-5.7Zm62.5 5.6 3.1-.1c11.1-1 20.8-7 25.8-16a5.8 5.8 0 0 0-10-5.6 21.1 21.1 0 0 1-16.8 10c-7.2.7-14.1-2-18.2-7a5.8 5.8 0 0 0-9 7.3 32 32 0 0 0 25.1 11.4Zm27.1-42.7c-1-.5-24-10.9-57.3 1.3a5.8 5.8 0 1 0 4 10.8c15-5.4 27.3-5.6 35-4.8 8.3 1 13.3 3.1 13.4 3.2a5.8 5.8 0 0 0 4.9-10.5Z"/>
    </symbol>

    <symbol id="immigrants">
      <title>immigrants</title>
<path fill="#008cdf" d="M256 64.7a190.8 190.8 0 0 0-140.7 61.7l-4 23.6-18.4 6a191.3 191.3 0 1 0 163-91.3Z"/>
  <path fill="#0069d0" d="M336.7 82.6A191.3 191.3 0 0 1 127 397.3 191.3 191.3 0 1 0 336.7 82.6Z"/>
  <path fill="#98db7c" d="M318.7 75.3 301.8 90c-4.7 4-5.8 11-2.1 16.4 3.3 5 10.1 6.4 15.7 4l2.7-1a11.6 11.6 0 0 1 11 20.5L289 153.8a24.8 24.8 0 0 0-12.1 21.4c0 14 5.7 22.8 18.2 22.8 26 0 10.5-25.7 29.2-25.7H368c6.7 0 12.8 4.9 13.5 11.5a13 13 0 0 1-12.8 14.2H316a38.5 38.5 0 0 0-39 36.3 37.4 37.4 0 0 0 37.4 38.6h5.4c10.2 0 18.5 8.3 18.5 18.5v65.8c0 6.6 4 13 10.4 15 7 2.1 14.1-1 17.5-6.9l46-81.2c4-7 5.1-15.5 3-23.4l-6-21.5 11.5 1.2c6.8.7 13.5-1.4 18.7-5.9l6-5.3c-10-71.8-60-130.8-126.6-154Z"/>
  <path fill="#77cc7d" d="M445.4 229.2c-9.2-65-51-119.5-108.4-146.4 38.1 35 62 85.2 62 141s-23 104.2-60 139c2.3 6.5 8.8 11 16.3 9.9a16 16 0 0 0 11.2-8L412 284c4-7.1 5.1-15.5 3-23.4l-6-21.5 11.5 1.2c6.8.7 13.5-1.4 18.7-6l6-5.2Z"/>
  <path fill="#98db7c" d="m120.2 329.1 11 8.8a30 30 0 0 1 8.8 11.2l37.4 81.3c8.3 3.7 16.8 6.9 25.6 9.4L192.7 397a43.2 43.2 0 0 1 3.7-30l18.5-35.8c5.1-9.9.4-22-10-25.8l-15.2-5.7c-4.8-1.8-8-6.4-8-11.6V287c0-6.8-5.6-12.3-12.4-12.3h-47l-9.8 26.7c-3.7 10-.6 21.2 7.7 27.8Zm134-247.5L244 65.1a191.3 191.3 0 0 0-159.3 106L95.4 246l25.1-16.8c4.6-3 10.6-2.6 14.8 1l3.3 3a7.2 7.2 0 0 0 11.8-4l3.6-15.6a25 25 0 0 1 16.2-18l26.6-8.8a12.3 12.3 0 0 0 6.5-18.4l-12-19c-3.4-5.2-10-7.2-15.7-4.6l-10 4.7c-5.2 2.4-11.6 1.4-15.1-3.1a11.9 11.9 0 0 1 3.7-17.7l25-13.8c8.4-4.6 18.9-2 24.2 5.7l2.4 3.4c3.4 5 9.1 8 15.2 8h11.3c7.5 0 14.3-4.5 17.1-11.4l6.8-16.3c3-7.4 2.3-15.8-2-22.6Z"/>
  <path fill="#77cc7d" d="M177.4 430.4c8.3 3.7 16.8 6.9 25.6 9.4l-6-25a191 191 0 0 1-28.5-3.8l9 19.4Z"/>
  <path d="M395.3 116.7A197 197 0 0 0 106.1 128a5.8 5.8 0 1 0 8.8 7.4C146.9 98 192.1 75 240.7 71l8.6 13.6a19 19 0 0 1 1.5 17.3l-6.7 16.3c-2 4.8-6.6 7.9-11.8 7.9H221c-4.2 0-8.1-2-10.5-5.5l-2.3-3.4a24.2 24.2 0 0 0-31.7-7.6l-25.1 13.8a17.7 17.7 0 0 0 15.9 31.5l10.7-5c3-1.4 6.6-.4 8.3 2.4l12.1 19a6.5 6.5 0 0 1-3.4 9.8l-26.6 8.9a30.7 30.7 0 0 0-20 22l-3.6 15.8c-.2.6-.7 1-1 1-.4.1-.9.2-1.4-.3l-3.4-2.9c-6-5.2-14.9-5.8-21.6-1.5l-17.7 11.4-9.2-63.6a186 186 0 0 1 9.9-17 5.8 5.8 0 0 0-9.7-6.4 197.6 197.6 0 0 0 26.1 246.8C153.9 432.5 203.4 453 256 453s102.1-20.5 139.3-57.7c37.3-37.2 57.8-86.7 57.8-139.3s-20.5-102.1-57.8-139.4Zm44 110.2-3.8 3.2a19 19 0 0 1-14.4 4.5l-11.5-1.2a5.8 5.8 0 0 0-6.1 7.3l6 21.5a25 25 0 0 1-2.4 19.1l-46 81.2a9.2 9.2 0 0 1-17.1-4.6v-66.5a24.3 24.3 0 0 0-24.3-24.3h-5.4a31.7 31.7 0 0 1 0-63.3H344a5.8 5.8 0 1 0 0-11.6h-28.3c1.8-3 3-6.6 3.3-10.4a4 4 0 0 1 4-3.7h45.6a7 7 0 0 1 0 14.1 5.8 5.8 0 1 0 0 11.6 18.6 18.6 0 0 0 0-37.2H323c-8.1 0-14.8 6-15.5 14.2a12.5 12.5 0 0 1-25-1V175a19 19 0 0 1 9.4-16.2l40.2-23.8a17.4 17.4 0 0 0 3.8-27c-5-5.3-12.8-7-19.5-4.2l-4 1.7a6.6 6.6 0 0 1-8.6-3.3 6.6 6.6 0 0 1 1.7-7.7L320.3 82a185 185 0 0 1 66.9 43c28 28 46 63.5 52 102ZM70.4 256c0-22 3.8-43.6 11.3-63.9l8.2 57.2a30.3 30.3 0 0 0 15 22l10.2 6-8.2 22a30.4 30.4 0 0 0 9.6 34.3l11 8.8c3 2.4 5.5 5.6 7.1 9.1l30.7 66.5a186.1 186.1 0 0 1-95-162Zm117.2 49.1 15.2 5.7a12.6 12.6 0 0 1 6.9 17.8l-18.6 35.8a49 49 0 0 0-4 33.9l7.8 33c-4.4-1.5-8.8-3.2-13.1-5.1l-36.7-79.5c-2.4-5.2-6-9.8-10.4-13.3l-11-8.8a18.9 18.9 0 0 1-6-21.3l8.6-22.9h42.9c3.6 0 6.6 3 6.6 6.6v1.2c0 7.5 4.7 14.3 11.8 17Zm199.5 82a184.3 184.3 0 0 1-179.4 48.1l-9.5-39.6c-2-8.7-1-18 3.2-25.9L220 334a24.3 24.3 0 0 0-13-34l-15.3-5.6a6.6 6.6 0 0 1-4.3-6.2V287c0-10-8.1-18-18-18h-45.6l-13-7.6a18.8 18.8 0 0 1-9.2-13.2l22-14.2a6.6 6.6 0 0 1 7.9.6l3.4 2.9c3.5 3 8.1 4 12.5 2.5 4.4-1.4 7.6-5 8.6-9.4l3.6-15.8a19 19 0 0 1 12.5-13.7l26.6-8.9a18 18 0 0 0 9.5-26.9l-12-19a18.2 18.2 0 0 0-23-6.7l-10.7 5a6 6 0 0 1-8.5-7 6 6 0 0 1 3-3.8l25-13.8a12.7 12.7 0 0 1 16.7 4l2.4 3.3c4.5 6.6 12 10.5 20 10.5h11.3c9.8 0 18.6-5.9 22.4-15l6.7-16.3a30.5 30.5 0 0 0-2.4-27.9l-5-8h2a184 184 0 0 1 51.4 7.2l-9.4 8c-6 5.2-8 14-4.8 21.2 4 9 14.6 13 23.6 9.3l4-1.7a6 6 0 0 1 8.2 6.3 5.9 5.9 0 0 1-2.9 4.2l-40.1 23.8a30.6 30.6 0 0 0-15 26.2v4.7a24 24 0 0 0 15.6 22.5 43.1 43.1 0 0 0 27.6 76.4h5.4c7 0 12.7 5.7 12.7 12.7V358a20.7 20.7 0 0 0 38.8 10.2l46-81.1c4.8-8.5 6-18.4 3.4-27.9l-3.7-13.3 3 .3c7.5.8 15-1.2 21-5.5a184.3 184.3 0 0 1-53.7 146.6Z"/>
    </symbol>

    <symbol id="jet-set">
      <title>jet-set</title>
<path fill="#7398d3" d="M398.5 429.3h-300a23 23 0 0 1-23-23V225.6a23 23 0 0 1 23-23.1h300a23 23 0 0 1 23 23v180.8a23 23 0 0 1-23 23Z"/>
  <path fill="#4278c3" d="M398.5 202.5h-9c.8 2.4 1.3 5 1.3 7.7v143.2a60.6 60.6 0 0 1-60.6 60.6H76.8a23 23 0 0 0 21.8 15.3h299.9a23 23 0 0 0 23-23V225.6a23 23 0 0 0-23-23.1Z"/>
  <path fill="#f4dd45" d="M177.4 294.7h-63.8c-5.7 0-10.3-4.6-10.3-10.2v-44c0-5.6 4.6-10.2 10.3-10.2h63.8c5.6 0 10.2 4.6 10.2 10.3v43.9c0 5.6-4.6 10.2-10.2 10.2Z"/>
  <path fill="#f6e781" d="M154.3 276.2h-17.6a3.9 3.9 0 0 1-4-4v-19.4a4 4 0 0 1 4-4h17.6a4 4 0 0 1 3.9 4v19.5a4 4 0 0 1-4 3.9Z"/>
  <path fill="#f1f4f6" d="M153.6 369h-46.4c-2 0-3.6-1.6-3.6-3.6V351c0-2 1.6-3.6 3.6-3.6h46.4c2 0 3.6 1.6 3.6 3.6v14.4c0 2-1.6 3.6-3.6 3.6Zm78.8 0H186c-2 0-3.6-1.6-3.6-3.6V351c0-2 1.6-3.6 3.6-3.6h46.4c2 0 3.6 1.6 3.6 3.6v14.4c0 2-1.6 3.6-3.6 3.6Zm78.9 0h-46.5c-2 0-3.5-1.6-3.5-3.6V351c0-2 1.6-3.6 3.5-3.6h46.5c2 0 3.6 1.6 3.6 3.6v14.4c0 2-1.7 3.6-3.6 3.6Zm78.7 0h-46.3c-2 0-3.6-1.6-3.6-3.6V351c0-2 1.6-3.6 3.6-3.6H390c2 0 3.6 1.6 3.6 3.6v14.4c0 2-1.6 3.6-3.6 3.6Z"/>
  <path fill="#dfeaef" d="M391 347.7v6c0 5.4-.6 10.6-2 15.6h1.4c2 0 3.6-1.6 3.6-3.6v-14.5c0-1.7-1.3-3.2-3-3.5Z"/>
  <path fill="#f4dd45" d="M456.5 254.3 409.7 79.8a23 23 0 0 0-28.2-16.3L91.8 141a23 23 0 0 0-16.3 28.2l10 37.3a23 23 0 0 1 13-4.1h300a23 23 0 0 1 23 23v62l18.7-5a23 23 0 0 0 16.3-28.2Z"/>
  <path fill="#f1d333" d="M456.5 254.3 409.7 79.8a23 23 0 0 0-28.2-16.3l-2.6.7.1.2 41 152.7a23 23 0 0 1 1.3 5l4.5 16.9a23 23 0 0 1-4.3 20.3v28.3l18.7-5a23 23 0 0 0 16.3-28.3Z"/>
  <path fill="#617881" d="M98.6 202.5h81.6L425 136.9 413.8 95 79.6 184.7l5.9 21.9a23 23 0 0 1 13-4.1Z"/>
  <path fill="#475959" d="m389 101.7 24.9-6.6 11.2 41.7-24.9 6.7-11.1-41.8Z"/>
  <path d="M113.6 300.5h5.3a5.8 5.8 0 0 0 0-11.5h-5.3c-2.5 0-4.5-2-4.5-4.5V278H129a9.6 9.6 0 0 0 7.8 3.8h17.6c3.1 0 6-1.5 7.7-3.8h19.8v6.4c0 2.4-2 4.5-4.4 4.5h-31.6a5.8 5.8 0 0 0 0 11.5h31.6a16 16 0 0 0 16-16v-44a16 16 0 0 0-16-16h-63.8a16 16 0 0 0-16 16v44a16 16 0 0 0 16 16Zm-4.5-42h18v8h-18v-8Zm29.5-3.9h13.8v15.8h-13.8v-15.8Zm25.3 12v-8h18v8h-18Zm18-26v6.4H162a9.6 9.6 0 0 0-7.7-3.9h-3v-7h26c2.6 0 4.6 2 4.6 4.5Zm-68.3-4.5h26.1v7h-3c-3.2 0-6 1.5-7.7 3.9h-20v-6.4c0-2.5 2-4.5 4.5-4.5Zm-6.4 105.5A9.4 9.4 0 0 0 98 351v14.4c0 5.2 4.2 9.4 9.3 9.4h46.4c5.2 0 9.4-4.2 9.4-9.4V351c0-5.2-4.2-9.4-9.4-9.4h-46.4Zm44.3 21.7h-42.1v-10.1h42v10Zm25.2-12.3v14.4c0 5.2 4.2 9.4 9.3 9.4h46.5c5.1 0 9.3-4.2 9.3-9.4V351c0-5.2-4.2-9.4-9.4-9.4H186a9.4 9.4 0 0 0-9.3 9.4Zm11.5 2.2h42v10h-42v-10Zm123.1-11.6h-46.5a9.4 9.4 0 0 0-9.3 9.4v14.4c0 5.2 4.2 9.4 9.3 9.4h46.5c5.1 0 9.3-4.2 9.3-9.4V351c0-5.2-4.2-9.4-9.3-9.4Zm-2.2 21.7h-42v-10.1h42v10Zm80.9-21.7h-46.3a9.4 9.4 0 0 0-9.4 9.4v14.4c0 5.2 4.2 9.4 9.4 9.4H390c5.1 0 9.3-4.2 9.3-9.4V351c0-5.2-4.2-9.4-9.3-9.4Zm-2 21.7h-42.2v-10.1H388v10Zm-186.7 32.4h-98a5.8 5.8 0 0 0 0 11.5h98a5.8 5.8 0 0 0 0-11.5Zm96.2 0h-75.3a5.8 5.8 0 0 0 0 11.5h75.3a5.8 5.8 0 0 0 0-11.5Z"/>
  <path d="M79 204.5a28.8 28.8 0 0 0-9.3 21v180.8a29 29 0 0 0 28.9 28.8h299.9a29 29 0 0 0 28.8-28.9V292l14.4-3.9a28.8 28.8 0 0 0 20.4-35.3L415.3 78.3A28.8 28.8 0 0 0 380 57.9L90.3 135.5A28.8 28.8 0 0 0 70 170.8l9 33.6ZM438.6 277l-11.4 3v-6a5.8 5.8 0 0 0-11.5 0v132.3c0 9.5-7.8 17.3-17.3 17.3h-300c-9.5 0-17.2-7.8-17.2-17.4V225.7c0-9.6 7.7-17.3 17.3-17.3h299.9c9.5 0 17.3 7.7 17.3 17.3v21.6a5.8 5.8 0 0 0 11.5 0v-21.6c0-16-13-28.9-28.8-28.9H223.9L421 144l30 111.9c2.5 9.2-3 18.7-12.2 21.2ZM93.3 146.7 383 69c9.2-2.4 18.7 3 21.2 12.3l2.6 9.8L125 166.6a5.8 5.8 0 1 0 3 11l281.8-75.4 8.2 30.6-238.6 64H98.6a29 29 0 0 0-9.4 1.5l-2.5-9.5 14.9-4a5.8 5.8 0 1 0-3-11.2l-15 4-2.5-9.7c-2.5-9.3 3-18.8 12.2-21.2Z"/>
    </symbol>

    <symbol id="jocks">
      <title>jocks</title>
<path fill="#ffc250" d="M289.6 269a13.7 13.7 0 0 1-13.8-13.8V111.5c0-7.6 6.2-13.7 13.7-13.7h134.6a23 23 0 0 1 18.3 9 23 23 0 0 1 4.1 20L430.7 188a92 92 0 0 1-66.5 66l-.6.2-71.3 14.5c-1 .2-1.8.3-2.8.3Zm13.7-143.7v113.1l54.5-11a64.5 64.5 0 0 0 46.3-46.3l14.4-55.9H303.3ZM222.4 269l-2.7-.3-71.3-14.5-.7-.2a92 92 0 0 1-66.4-66l-15.8-61.2a23 23 0 0 1 4-20 23 23 0 0 1 18.4-9h134.5c7.6 0 13.8 6.1 13.8 13.7v143.7a13.8 13.8 0 0 1-13.8 13.8Zm-68.2-41.7 54.5 11.1V125.3H93.5l14.4 55.8a64.5 64.5 0 0 0 46.3 46.2Z"/>
  <path fill="#ffd064" d="M278.6 271.6v-55.7h-45.2v46.6a97.6 97.6 0 0 1-70.5 93.8v28.2H349v-28.2l-8.6-2.5a85.6 85.6 0 0 1-61.9-82.2Z"/>
  <path fill="#ffc250" d="M340.5 353.8a85.6 85.6 0 0 1-61.9-82.3V216h-45.2v46.6c0 7-.8 14-2.2 20.6 1.3 42.2 26.2 78.8 61.8 90.6l8.7 2.9v8H349v-28.3l-8.6-2.5Z"/>
  <path fill="#ffe07d" d="M365.3 356H146.7c-6.9 0-12.4 5.5-12.4 12.4v62.2h243.4v-62.2c0-6.9-5.5-12.4-12.3-12.4Z"/>
  <path fill="#ffd064" d="M365.3 356h-49.6c6.9 0 12.4 5.5 12.4 12.4v62.2h49.6v-62.2c0-6.9-5.5-12.4-12.4-12.4Z"/>
  <path fill="#ffe07d" d="M281.2 281.8a51.8 51.8 0 0 1-50.4 0 151.9 151.9 0 0 1-78-132.7V82h206.3v67c0 55.1-29.8 105.9-77.9 132.7Z"/>
  <path fill="#ffd064" d="M309.4 82v67c0 55.1-29.8 105.9-77.9 132.7l-.4.2a51.8 51.8 0 0 0 50.1-.2 152 152 0 0 0 78-132.7V82h-49.8Zm79.5 337.4H123a13.7 13.7 0 1 0 0 27.5h266a13.7 13.7 0 1 0 0-27.5Z"/>
  <path fill="#ffc250" d="M388.9 419.4H339c7.6 0 13.8 6.1 13.8 13.7v13.7h36a13.7 13.7 0 1 0 0-27.4Z"/>
  <path fill="#ffd064" d="M368.2 65.2H143.8a16.3 16.3 0 1 0 0 32.6h224.4a16.3 16.3 0 1 0 0-32.6Z"/>
  <path fill="#ffc250" d="M368.2 65.2h-33.4v16.3c0 9-7.3 16.3-16.3 16.3h49.7a16.3 16.3 0 1 0 0-32.6Z"/>
  <path fill="#f4fbff" d="m260.5 137.8 8.6 23.7c.7 1.8 2.4 3 4.3 3l25.1 1c4.5.1 6.3 5.7 2.8 8.5l-19.8 15.5a4.8 4.8 0 0 0-1.6 5l6.9 24.2a4.8 4.8 0 0 1-7.3 5.3l-20.8-14a4.7 4.7 0 0 0-5.3 0l-21 14a4.8 4.8 0 0 1-7.1-5.3l6.9-24.2c.5-1.8-.2-3.8-1.7-5L210.7 174a4.8 4.8 0 0 1 2.8-8.5l25.1-1c2 0 3.6-1.2 4.3-3l8.6-23.7a4.8 4.8 0 0 1 9 0Z"/>
  <path d="M183.9 383.3a5.8 5.8 0 1 0 0 11.5h144.3a5.8 5.8 0 1 0 0-11.5H183.8Z"/>
  <path d="M424.1 92h-36.5a22.1 22.1 0 0 0-19.4-32.6H143.8A22.1 22.1 0 0 0 124.4 92H88a29 29 0 0 0-28 36.2l15.9 61.2a97.6 97.6 0 0 0 71.4 70.4l58.4 11.9c6 4.9 12.5 9.4 19.2 13.3a91.6 91.6 0 0 1-61.8 65.2h-16.4c-10 0-18.1 8.1-18.1 18.2v45.2H123a19.5 19.5 0 0 0 0 39h266a19.5 19.5 0 0 0 0-39h-5.4v-11.1a5.8 5.8 0 1 0-11.5 0v11H140v-45.1c0-3.7 3-6.7 6.7-6.7h218.6c3.7 0 6.7 3 6.7 6.7v6.7a5.8 5.8 0 1 0 11.5 0v-6.7c0-10-8.2-18.2-18.2-18.2H349l-6.8-2a79.7 79.7 0 0 1-56.4-62.3c7.2-4.2 14.2-9 20.7-14.2l59.2-12a97.7 97.7 0 0 0 70.6-70.3l15.9-61.2A29 29 0 0 0 424 92Zm-27.3 341.1a8 8 0 0 1-8 8H123.2a8 8 0 0 1 0-16H389a8 8 0 0 1 8 8ZM133.3 81.5c0-5.9 4.7-10.6 10.5-10.6h224.4a10.6 10.6 0 0 1 0 21.1H211a5.8 5.8 0 1 0 0 11.6h142.4V149a145.8 145.8 0 0 1-75 127.7 45.7 45.7 0 0 1-44.8 0 146 146 0 0 1-75-127.6v-45.6h25a5.8 5.8 0 1 0 0-11.6h-39.8c-5.8 0-10.5-4.7-10.5-10.5ZM346 223.8c18-33.3 18.7-56 18.8-92.8H411l-12.6 48.6c-10.7 41-51.8 44-52.4 44.2Zm-180.2 0c-.3-.1-41.8-3.3-52.4-44.2L101 131h46.2c.3 27.1-2 54.2 18.8 92.8Zm-79-37.3L71 125.3a17.4 17.4 0 0 1 16.8-21.7H147v15.9H93.5a5.8 5.8 0 0 0-5.6 7.2l14.4 55.8a70.3 70.3 0 0 0 50.5 50.4l21.2 4.4a159 159 0 0 0 15.4 19.3l-39.8-8a86.1 86.1 0 0 1-62.7-62Zm230.8 163.7h-127a103 103 0 0 0 44.8-59.9 57 57 0 0 0 39.5.6 91.3 91.3 0 0 0 42.8 59.3ZM441 125.3l-16 61.2a86.2 86.2 0 0 1-62.5 62l-39.9 8.1c5.6-6 10.8-12.5 15.4-19.4l21.2-4.3a70.3 70.3 0 0 0 50.5-50.4l14.4-55.8c1-3.7-1.8-7.2-5.6-7.2H365v-16h59.2a17.4 17.4 0 0 1 16.8 21.8Z"/>
  <path d="m207.2 178.5 19.2 15.1-6.7 23.5a10.6 10.6 0 0 0 16 11.7L256 215l20.3 13.7c3.7 2.5 8.5 2.4 12-.3 3.7-2.6 5.2-7 4-11.4l-6.7-23.5 19.3-15c3.5-2.8 4.9-7.4 3.5-11.6a10.4 10.4 0 0 0-9.7-7.3l-24.4-.9-8.4-23a10.6 10.6 0 0 0-19.8.1l-8.4 23-24.4.8a10.5 10.5 0 0 0-6.1 18.8Zm47.9-38.7Zm-16.3 30.5c4.3-.1 8-2.8 9.5-6.9l7.7-21 7.7 21c1.5 4 5.2 6.8 9.5 7l22.3.7L278 185c-3.4 2.7-4.8 7-3.6 11.2l6.1 21.5-18.5-12.5a10.5 10.5 0 0 0-11.8 0l-18.5 12.5 6-21.5c1.3-4.1-.1-8.5-3.5-11.2l-17.6-13.8 22.3-.8Z"/>
    </symbol>

    <symbol id="leaders">
      <title>leaders</title>
<path fill="#ffdc64" d="m414.8 176.9-108-10L264 67.3c-3-7-12.8-7-15.8 0l-43 99.5-107.9 10a8.6 8.6 0 0 0-4.9 15.2l81.5 71.5L150 369.3a8.6 8.6 0 0 0 12.9 9.3l93.2-55.4 93.2 55.4a8.6 8.6 0 0 0 12.8-9.3l-23.8-105.8 81.5-71.5a8.6 8.6 0 0 0-5-15.1Z" />
  <path fill="#fff082" d="M145.7 63.9c5.5 7.6 21 40.4 29.9 59.6 1.4 3-2.4 5.7-4.8 3.4-15.4-14.5-41.6-39.6-47-47.3A13.5 13.5 0 1 1 145.5 64Zm220.7 0c-5.5 7.6-21 40.4-30 59.6-1.4 3 2.4 5.7 4.8 3.4 15.4-14.5 41.6-39.6 47-47.3A13.5 13.5 0 1 0 366.5 64ZM453.3 288c-9-3-45-7.7-65.9-10.4-3.3-.4-4.7 4-1.8 5.6a724 724 0 0 0 59.3 30.5 13.5 13.5 0 0 0 8.4-25.7Zm-394.6 0c9-3 45-7.7 65.9-10.4 3.3-.4 4.7 4 1.8 5.6a724 724 0 0 1-59.3 30.5 13.5 13.5 0 0 1-8.4-25.7ZM243 440.3c0-9.5 6.5-45.2 10.5-65.9.6-3.2 5.2-3.2 5.9 0 4 20.7 10.5 56.5 10.5 65.9a13.5 13.5 0 0 1-27 0Z" />
  <path fill="#ffc850" d="M279.5 103.5 264 67.3c-3-7-13-7-16 0l-42.8 99.5-108 10a8.6 8.6 0 0 0-4.9 15.2l81.5 71.5-23.9 105.8a8.6 8.6 0 0 0 12.9 9.3l12.4-7.4a671.4 671.4 0 0 1 104.3-267.7Z" />
  <path d="m345.1 265.8 78.7-69.1c4.5-4 6.2-10 4.3-15.8a14.7 14.7 0 0 0-12.8-10.2L311.1 161l-19.5-45.3a6.2 6.2 0 0 0-11.5 4.9l21 48.7a6.2 6.2 0 0 0 5.2 3.8l107.9 10c1.4.1 1.9 1 2 1.6.2.6.4 1.7-.6 2.6L334 258.8a6.2 6.2 0 0 0-2 6.1l24 105.8c.3 1.3-.5 2-1 2.4-.4.4-1.4.9-2.6.1L259.2 318a6.3 6.3 0 0 0-6.4 0l-93.2 55.4c-1.2.7-2.2.2-2.6-.2a2.3 2.3 0 0 1-1-2.4l12.3-54.6a6.2 6.2 0 0 0-12.2-2.8L143.8 368c-1.3 6 1 11.8 5.8 15.3a14.8 14.8 0 0 0 16.4.8l90-53.5 90 53.5a14.8 14.8 0 0 0 22.1-16.1l-23-102.1Z"/>
  <path d="m88.2 196.7 78.7 69-5.1 22.7a6.2 6.2 0 1 0 12.1 2.8l6-26.3a6 6 0 0 0-2-6l-81.4-71.6c-1-1-1-2-.7-2.6.1-.6.7-1.5 2-1.7l108-10a6.2 6.2 0 0 0 5.1-3.7l42.9-99.6c.5-1.2 1.6-1.4 2.2-1.4s1.7.2 2.2 1.4l11.7 27a6.2 6.2 0 0 0 11.4-4.9l-11.6-27c-2.4-5.6-7.6-9-13.7-9s-11.3 3.4-13.7 9L201 161l-104.2 9.6c-6 .6-11 4.5-12.8 10.3a14.7 14.7 0 0 0 4.3 15.7Z"/>
  <path d="M177.8 142a6.2 6.2 0 0 0 9.9-7.1c-3-6.5-29-63.6-37-74.7a19.6 19.6 0 0 0-27.5-4.5 19.7 19.7 0 0 0-4.5 27.6c8 11 53.9 53.9 59 58.7Zm-47.3-76.2a7.2 7.2 0 0 1 10 1.7 468 468 0 0 1 22.1 43c-14.6-14-30-29.3-33.8-34.5a7.3 7.3 0 0 1 1.7-10.2Zm195.9 76.7a6.2 6.2 0 0 0 7.8-.5c5.2-4.8 51-47.6 59.1-58.7a19.8 19.8 0 0 0-32-23c-8 11-34 68.1-37 74.6a6.2 6.2 0 0 0 2 7.6Zm45-75a7.2 7.2 0 0 1 10.1-1.6c3.3 2.3 4 6.8 1.7 10a465.4 465.4 0 0 1-33.8 34.6 468 468 0 0 1 22-43Zm95.3 224.4a19.6 19.6 0 0 0-11.5-9.8c-13-4.3-75.3-11.7-82.3-12.6a6.2 6.2 0 0 0-3.8 11.6c6.2 3.5 60.9 34.2 74 38.5a19.7 19.7 0 0 0 23.6-27.7ZM456 303a7.2 7.2 0 0 1-9.1 4.6c-6.2-2-25.4-12-43.2-21.7 20 2.7 41.5 6 47.7 8a7.2 7.2 0 0 1 4.6 9Zm-310.2-29.2a6.2 6.2 0 0 0-6.7-4.3c-7 .9-69.3 8.3-82.3 12.6A19.6 19.6 0 0 0 44 306.9a19.6 19.6 0 0 0 25 12.7c13-4.3 67.6-35 73.8-38.5a6.2 6.2 0 0 0 2.9-7.3Zm-80.7 34A7.2 7.2 0 0 1 56 303a7.2 7.2 0 0 1 4.6-9.2c6.2-2 27.6-5.2 47.7-7.9-17.8 9.7-37 19.7-43.2 21.7ZM256.4 353c-3 0-5.5 2.2-6.1 5-1.4 7-13.6 68.6-13.6 82.3a19.8 19.8 0 0 0 39.5 0c0-13.8-12.3-75.3-13.7-82.2a6 6 0 0 0-6-5Zm0 94.5c-4 0-7.2-3.2-7.2-7.2 0-6.5 3.6-27.9 7.2-47.8 3.7 20 7.3 41.3 7.3 47.8 0 4-3.3 7.2-7.3 7.2Z"/>
    </symbol>

    <symbol id="nerds">
      <title>nerds</title>
<path fill="#c8e9fc" d="M200 362A71 71 0 1 1 99.8 261.7 71 71 0 0 1 200.1 362Zm212.3 0a71 71 0 1 1-100.4-100.3A71 71 0 0 1 412.3 362Z"/>
  <path fill="#b5e0f7" d="M134.9 339.2a71 71 0 0 1-4.3-95.6 71 71 0 1 0 73.8 113.7 71 71 0 0 1-69.5-18.1Zm212.2 0a71 71 0 0 1-4.3-95.6 71 71 0 1 0 73.8 113.7 71 71 0 0 1-69.5-18.1Z"/>
  <path fill="#6ebeff" d="M149.9 395.4a85.2 85.2 0 0 1 0-170.2 85.2 85.2 0 0 1 0 170.2Zm0-151.4a66.4 66.4 0 1 0 .1 132.8 66.4 66.4 0 0 0 0-132.8Zm212.2 151.4a85.2 85.2 0 0 1 0-170.2 85.2 85.2 0 0 1 0 170.2Zm0-151.4a66.4 66.4 0 1 0 .1 132.8 66.4 66.4 0 0 0-.1-132.8Z"/>
  <path fill="#49a9ea" d="M86.3 291.2a85.3 85.3 0 0 1 73.3-65.4 85.2 85.2 0 1 0 0 169c-54.6-6-85.9-61.8-73.3-103.5Zm212.3 0a85.3 85.3 0 0 1 73.2-65.4 85.2 85.2 0 1 0 0 169.1c-54.7-6.3-85.8-62-73.3-103.7Z"/>
  <path fill="#329dcc" d="M277.5 319.7c-.7-6.2-.7-12.4 0-18.8h-43c.7 6.3.7 12.4 0 18.8h43Zm36.4-184.4h20.2l56.3 94.7a85.5 85.5 0 0 1 37.4 26.3L347.5 121a9.4 9.4 0 0 0-8.1-4.5h-25.5a9.4 9.4 0 1 0 0 18.7ZM121.6 230l56.3-94.7h20.2a9.4 9.4 0 1 0 0-18.7h-25.5a9.4 9.4 0 0 0-8 4.5L84.1 256.3a85.4 85.4 0 0 1 37.4-26.3Z"/>
  <path d="M206.8 266a5.8 5.8 0 1 0-9 7.2 60.6 60.6 0 1 1-14.9-13.7 5.8 5.8 0 0 0 6.3-9.7A72.2 72.2 0 1 0 150 382.4c60 0 93.6-69.2 57-116.3Zm155.3-27.8c-53.2 0-88.3 56-64.8 103.8a5.8 5.8 0 0 0 10.4-5 60.7 60.7 0 1 1 115-26.6c0 54.2-66.3 81-104 42.2a5.8 5.8 0 0 0-8.3 8 72.2 72.2 0 1 0 51.7-122.4Z"/>
  <path d="m432.6 253-80.2-134.8a15.2 15.2 0 0 0-13-7.4h-25.5a15.2 15.2 0 0 0 0 30.3h16.9l47.4 79.8a91 91 0 0 0-105.7 74.3h-33a91 91 0 0 0-105.7-74.3l47.4-79.8h16.9a15.2 15.2 0 0 0 0-30.3h-25.5c-5.3 0-10.3 2.8-13 7.4L79.4 253a91 91 0 1 0 160.1 72.5h33a91 91 0 1 0 160-72.5Zm-38.3-27.7-55.3-93a5.8 5.8 0 0 0-5-2.8h-20a3.6 3.6 0 0 1 0-7.2h25.5c1.3 0 2.5.7 3.1 1.8L406 230.7a92 92 0 0 0-11.6-5.4ZM169.5 124.1c.7-1 1.8-1.8 3-1.8h25.6a3.6 3.6 0 0 1 0 7.2h-20.2a6 6 0 0 0-5 2.9l-55.2 93c-.1 0-5.4 1.9-11.6 5.3L169.5 124Zm-19.6 265.6c-69.1 0-105.5-83.1-57.7-133.8A79.2 79.2 0 0 1 228.8 319a79.5 79.5 0 0 1-78.9 70.6Zm121.4-75.8h-30.6s.2-3.3 0-7.2h30.6s-.2 3.3 0 7.2Zm90.8 75.8A79.4 79.4 0 1 1 423.4 260 79.4 79.4 0 0 1 362 389.7Z"/>
    </symbol>

    <symbol id="outcasts">
      <title>outcasts</title>
<path fill="#898989" d="M393.5 362.7a53.8 53.8 0 0 0 0-107.6 47.8 47.8 0 0 0-64.1-45A106.7 106.7 0 0 0 129 231.3a65.8 65.8 0 0 0 1.4 131.5h263Z"/>
  <path fill="#757575" d="M400.9 255.6a53.6 53.6 0 0 1-38.2 91.7h-263a66 66 0 0 1-13-1.2 65.5 65.5 0 0 0 43.8 16.6h263a53.8 53.8 0 0 0 7.4-107Z"/>
  <path d="M399 249.6a53.7 53.7 0 0 0-66.7-46.4 112.8 112.8 0 0 0-148-48.6 5.8 5.8 0 0 0 5 10.4 101.5 101.5 0 0 1 135 47.7c1.1 2.6 4.3 4 7 3a42 42 0 0 1 56.4 39.5c0 3.1 2.6 5.7 5.8 5.7a48 48 0 0 1 0 96h-36a5.8 5.8 0 1 0 0 11.6h36a59.6 59.6 0 0 0 5.5-118.9ZM330.5 357h-200a60 60 0 0 1-1.3-120 60 60 0 0 1 53.7 30.8 5.8 5.8 0 1 0 10.1-5.6 71.6 71.6 0 0 0-56.4-36.5 101.8 101.8 0 0 1 31.5-47 5.8 5.8 0 0 0-7.4-9 113.3 113.3 0 0 0-36.1 56A71.1 71.1 0 0 0 59 297c0 39.4 32 71.5 71.5 71.5h200a5.8 5.8 0 1 0 0-11.5Z"/>
    </symbol>

    <symbol id="special-needs">
      <title>special-needs</title>
<path fill="#fee570" d="M343.5 295.2c3.4 3.4 5 7.7 5.3 12.4.3 9 3.8 17.6 10.2 24a11.1 11.1 0 0 0 15.8 0l68.6-68.6a9.8 9.8 0 0 0 0-14l-68.6-68.6a11 11 0 0 1-.2-15.5c6.4-6.5 15-10.1 24.1-10.5a18 18 0 0 0 12.5-5.2c9.7-9.8 6.8-28.5-6.5-41.9-13.4-13.3-32-16.2-41.9-6.4-3.4 3.4-5 7.7-5.2 12.4-.4 9-4 17.8-10.4 24.1a11 11 0 0 1-15.6-.1L263 68.6a9.8 9.8 0 0 0-14 0L179.8 138a11.2 11.2 0 0 0 .7 15c6.4 6.4 15 9.9 24 10.2 4.7.2 9 1.9 12.4 5.3 9.8 9.7 6.9 28.5-6.5 41.8-13.3 13.4-32 16.3-41.8 6.5a18.2 18.2 0 0 1-5.3-12.4c-.3-9-3.8-17.6-10.2-24a11.2 11.2 0 0 0-15-.7l-69.4 69.4a9.8 9.8 0 0 0 0 13.9l68.7 68.6a11 11 0 0 1 .1 15.6c-6.3 6.5-15 10-24.1 10.4a18 18 0 0 0-12.4 5.2c-9.8 9.8-7 28.5 6.4 41.9 13.4 13.3 32.1 16.2 41.9 6.5a18 18 0 0 0 5.2-13c.2-8.4 3.3-16.5 9.2-22.4l1-1a11.2 11.2 0 0 1 15.8 0l68.7 68.6a9.8 9.8 0 0 0 13.9 0l68.6-68.6a11.2 11.2 0 0 0 0-15.8c-6.4-6.4-15-9.9-24-10.2a18 18 0 0 1-12.4-5.3c-9.8-9.7-6.9-28.5 6.5-41.8 13.3-13.4 32-16.3 41.8-6.5Z"/>
  <path fill="#fdbf00" d="M394.7 132.7a18.2 18.2 0 0 1-12.4 5.3c-9 .3-17.6 3.9-24 10.2a11.2 11.2 0 0 0 0 15.8l16.5 16.4a11.2 11.2 0 0 1 0-15.7c6.3-6.4 15-10 24-10.3a18 18 0 0 0 12.4-5.2c9.7-9.8 6.8-28.5-6.5-41.9-3-2.9-6-5.2-9.3-7.1 6.8 11.7 7 24.9-.7 32.5Zm-76.3 218.1a11 11 0 0 1-3.3 7.5L239.6 434l9.4 9.5a9.8 9.8 0 0 0 14 0l68.6-68.6a11.2 11.2 0 0 0 0-15.8 34.6 34.6 0 0 0-13.2-8.2Zm-170.2 7.5c-6.3 6.4-9.9 15-10.2 24a18 18 0 0 1-5.3 12.4c-7.6 7.7-20.8 7.5-32.5.7a51 51 0 0 0 7.1 9.3c13.4 13.3 32.1 16.2 41.9 6.5 3.4-3.4 5-7.7 5.2-12.5a36 36 0 0 1 10.3-24 11.2 11.2 0 0 1 15.7 0L164 358.4a11.2 11.2 0 0 0-15.8 0Zm184-68.6c-.4-4.1-2-7.9-5.1-11-9.8-9.7-28.5-6.8-41.9 6.5-13.3 13.4-16.2 32.1-6.4 41.9 3 3 6.7 4.7 10.9 5.1a37.4 37.4 0 0 1 12-30.5 37.4 37.4 0 0 1 30.5-12ZM434 239.6 358.2 315a11 11 0 0 1-7.5 3.3c1.7 5 4.4 9.4 8.2 13.2a11.1 11.1 0 0 0 15.8 0l68.6-68.6a9.8 9.8 0 0 0 0-14l-9.5-9.4Z"/>
  <path fill="#232323" d="m448.2 244.2-68.6-68.6a4.3 4.3 0 0 1-.2-6c5-5.1 12-8 19.6-8.4 6.6-.2 12.5-2.7 17-7.2a28.7 28.7 0 0 0 7.3-25.4 47.9 47.9 0 0 0-13.8-26c-16-16-39-19-51.5-6.5-4.5 4.4-7 10.3-7.2 17a28.8 28.8 0 0 1-8.4 19.5 4.3 4.3 0 0 1-6-.1l-68.6-68.7a16.5 16.5 0 0 0-23.6 0L175 133.2a17.9 17.9 0 0 0 .7 24.6 42.4 42.4 0 0 0 28.5 12.2c3.2.1 5.8 1.2 7.9 3.3 3.1 3.1 4.4 8 3.5 13.7a34 34 0 0 1-10 18.5c-5.4 5.4-12 9-18.5 10-5.7.9-10.6-.4-13.7-3.5-2-2-3.2-4.7-3.3-7.9a42 42 0 0 0-12.2-28.5 17.9 17.9 0 0 0-24.6-.7l-34 34a6.8 6.8 0 1 0 9.5 9.7l33.8-33.8a4.4 4.4 0 0 1 5.7.4c5 5 8 12 8.3 19.4a25 25 0 0 0 7.2 17 28.7 28.7 0 0 0 25.4 7.3c9.3-1.4 18.6-6.3 26-13.8s12.4-16.7 13.9-26c1.5-10.1-1-19.1-7.4-25.4a25 25 0 0 0-17-7.3 28.8 28.8 0 0 1-19.4-8.2 4.4 4.4 0 0 1-.4-5.7l69.1-69a3 3 0 0 1 4.3 0l68.6 68.6a18 18 0 0 0 25.2.2c7.6-7.5 12-17.7 12.4-28.8a11 11 0 0 1 3.3-7.8c7-7 21.7-4 32.2 6.4a34 34 0 0 1 10 18.5c.9 5.7-.4 10.6-3.5 13.8-2 2-4.7 3.1-7.9 3.2-11 .5-21.3 4.9-28.7 12.5a18 18 0 0 0 .2 25.1l68.6 68.7a3 3 0 0 1 0 4.2l-15.3 15.4a6.8 6.8 0 1 0 9.6 9.6l15.3-15.3c6.5-6.5 6.5-17 0-23.6Zm-45.3 49.7-33 32.9a4.4 4.4 0 0 1-6.1 0c-5-5-8-12-8.3-19.5a25 25 0 0 0-7.2-17C336 278 312.8 281 297 296.9c-16 16-19 39.1-6.5 51.5 4.5 4.5 10.3 7 17 7.2 7.4.3 14.3 3.3 19.4 8.3a4.4 4.4 0 0 1 0 6.1l-68.6 68.7a3 3 0 0 1-4.3 0L185.3 370a17.8 17.8 0 0 0-25.4 0l-1 1c-7 7.1-11 16.8-11.2 27.2 0 3.3-1.1 6.1-3.2 8.2-7 7-21.8 4-32.3-6.4-10.5-10.5-13.4-25.3-6.4-32.3 2-2 4.7-3.1 7.8-3.2a42.8 42.8 0 0 0 28.8-12.5 18 18 0 0 0-.3-25.1L73.4 258a3 3 0 0 1 0-4.3l15-15a6.8 6.8 0 1 0-9.6-9.5l-15 15a16.5 16.5 0 0 0 0 23.4l68.6 68.7a4.3 4.3 0 0 1 .2 6c-5 5-12 8-19.6 8.4-6.6.2-12.5 2.7-17 7.2-12.4 12.4-9.5 35.5 6.5 51.5s39 18.8 51.5 6.4a25 25 0 0 0 7.2-17.6c.1-6.9 2.7-13.2 7.2-17.7l1-1a4.3 4.3 0 0 1 6.2 0l68.6 68.6a16.6 16.6 0 0 0 23.5 0l68.7-68.7c7-7 7-18.3 0-25.3a42.4 42.4 0 0 0-28.5-12.3c-3.2 0-5.9-1.2-8-3.2-6.9-7-4-21.8 6.6-32.2C317 296 331.7 293 338.7 300c2 2 3.1 4.7 3.3 7.8.4 11 4.7 21.1 12.2 28.6 7 7 18.4 7 25.4 0l32.9-33a6.8 6.8 0 1 0-9.6-9.6Z"/>
    </symbol>

    <symbol id="troublemakers">
      <title>troublemakers</title>
<path fill="#e8edf2" d="M429.2 238A173.2 173.2 0 1 0 100 313c1.2 2.7 1 5.9-1 8.2-4.5 5.8-7 11.9-7 18.2 0 18 19.7 34.1 51.2 45.6 3 1 5.1 4 5.1 7.1v20.6c0 19 15.4 34.5 34.5 34.5h146.4c19 0 34.5-15.4 34.5-34.5v-20.6c0-3.2 2-6 5-7.1 31.6-11.5 51.3-27.7 51.3-45.6 0-6.3-2.5-12.4-7-18.2a7.7 7.7 0 0 1-1-8.2 172 172 0 0 0 17.2-75.2Z"/>
  <path fill="#d9e7ec" d="M412 313.1a173.2 173.2 0 0 0-133.5-247 204 204 0 0 1-57 381.2h107.7c19 0 34.5-15.4 34.5-34.5v-20.5c0-3.3 2-6.1 5-7.2 31.6-11.5 51.3-27.6 51.3-45.6 0-6.3-2.5-12.4-7-18.2a7.7 7.7 0 0 1-1-8.2Z"/>
  <path fill="#7a8c98" d="M240.3 350.7h31.4a14 14 0 0 0 12.9-19.5l-15.7-36.7a14 14 0 0 0-25.8 0l-15.7 36.6a14 14 0 0 0 13 19.6Z"/>
  <path fill="#596c76" d="M284.6 331.1 269 294.8a14 14 0 0 0-19.6-7.1l17.5 40.8c1.6 3.6-1 7.5-5 7.5h-35.6a14 14 0 0 0 14 14.7h31.4a14 14 0 0 0 12.9-19.6Z"/>
  <path fill="#7a8c98" d="M343.5 300.5a53.5 53.5 0 0 0 37.2-53.5 55.2 55.2 0 0 0-50.9-50.9 53.5 53.5 0 0 0-53.5 37.2 24.7 24.7 0 0 0 6.1 24.9l36.3 36.2c6.5 6.5 16 8.9 24.8 6.1Z"/>
  <path fill="#596c76" d="M380.7 247a55.2 55.2 0 0 0-50.2-50.8 54.4 54.4 0 0 1 21.7 39.8 53.5 53.5 0 0 1-37.2 53.5l-1 .3 4.6 4.6a24.8 24.8 0 0 0 25 6.1 53.5 53.5 0 0 0 37.1-53.5Z"/>
  <path fill="#7a8c98" d="M168.5 300.5a53.5 53.5 0 0 1-37.2-53.5 55.2 55.2 0 0 1 50.9-50.9 53.5 53.5 0 0 1 53.5 37.2c2.8 8.8.4 18.4-6.1 24.9l-36.2 36.2a24.8 24.8 0 0 1-25 6.1Z"/>
  <path fill="#596c76" d="M235.7 233.3a53.5 53.5 0 0 0-46.8-37c8.5 6.5 15 15.6 18.2 26 2.8 8.8.4 18.4-6.1 24.9l-46.5 46.5a55 55 0 0 0 14 6.8c8.8 2.8 18.3.4 24.9-6.1l36.2-36.2a24.4 24.4 0 0 0 6-24.9Z"/>
  <path d="M138 181.7a5.7 5.7 0 0 0 7.8-2.8 20.6 20.6 0 0 1 27.4-9.8 5.8 5.8 0 0 0 5-10.4 32.3 32.3 0 0 0-42.9 15.3 5.8 5.8 0 0 0 2.8 7.7ZM338.8 169a20.6 20.6 0 0 1 27.4 9.9 5.8 5.8 0 1 0 10.5-5 32.2 32.2 0 0 0-42.8-15.3 5.8 5.8 0 0 0 4.9 10.5Z"/>
  <path d="M417.2 315.6A177.4 177.4 0 0 0 435 238a178 178 0 0 0-52.3-126.4A177.8 177.8 0 0 0 256.5 59a177.4 177.4 0 0 0-112 38.8 5.8 5.8 0 1 0 7.3 9A165.9 165.9 0 0 1 256 70.5h.4c44.7.1 86.6 17.6 118.1 49.2a166.3 166.3 0 0 1 49 118.2c0 25.5-5.7 50-16.7 72.7a13.6 13.6 0 0 0 1.6 14.3c3.8 4.8 5.8 9.7 5.8 14.6 0 7.1-4 14.2-12 21a5.8 5.8 0 1 0 7.5 8.8c10.6-9.1 16-19.2 16-29.8 0-7.5-2.8-14.9-8.2-21.8a2 2 0 0 1-.3-2ZM380.5 374a165 165 0 0 1-13.7 5.6c-5.3 2-8.9 7-8.9 12.6v20.6a28.7 28.7 0 0 1-28.7 28.7H325v-33a5.8 5.8 0 1 0-11.5 0v33h-30.6v-33a5.8 5.8 0 1 0-11.5 0v33h-30.5v-33a5.8 5.8 0 1 0-11.6 0v33h-30.5v-33a5.8 5.8 0 1 0-11.6 0v33h-4.3a28.7 28.7 0 0 1-28.7-28.7v-20.6c0-5.6-3.6-10.6-8.9-12.6-30-10.9-47.4-25.5-47.4-40 0-5 2-9.9 5.8-14.7 3.2-4 3.8-9.6 1.6-14.3a167.1 167.1 0 0 1 27.5-186.2 5.8 5.8 0 1 0-8.5-7.8 178.6 178.6 0 0 0-29.4 199 2 2 0 0 1-.2 2.1 35 35 0 0 0-8.3 21.8c0 20 19.5 38.1 55 51 .7.3 1.3 1 1.3 1.8v20.5c0 22.2 18 40.3 40.2 40.3h146.5c22.1 0 40.2-18 40.2-40.3v-20.5a2 2 0 0 1 1.3-1.8c5.1-1.9 10-3.9 14.6-6a5.8 5.8 0 1 0-5-10.5Z"/>
  <path d="M237.8 292.2 222.1 329a19.7 19.7 0 0 0 18.2 27.6h31.4a19.7 19.7 0 0 0 18.2-27.6l-15.7-36.7a19.8 19.8 0 0 0-36.4 0Zm25.8 4.6 15.7 36.6c1 2.6.8 5.5-.7 7.8a8.1 8.1 0 0 1-6.9 3.7h-31.4a8.1 8.1 0 0 1-6.9-3.7 8.1 8.1 0 0 1-.7-7.8l15.7-36.6a8.2 8.2 0 0 1 15.2 0Zm35.2-85.5a5.8 5.8 0 1 0-6.9-9.3 58.9 58.9 0 0 0-21 29.6 30.3 30.3 0 0 0 7.5 30.7l36.2 36.2a30.4 30.4 0 0 0 30.7 7.5 59.4 59.4 0 0 0 41.2-59.3 61.2 61.2 0 0 0-56.4-56.3c-3.5-.2-7 0-10.4.4a5.8 5.8 0 0 0 1.4 11.4 49.2 49.2 0 0 1 53.8 45 47.8 47.8 0 0 1-33.1 47.8c-6.7 2.2-14 .4-19-4.7l-36.3-36.2c-5-5-6.8-12.3-4.7-19 3-9.6 9-17.8 17-23.8ZM182 190.4a61.2 61.2 0 0 0-56.5 56.4 59.4 59.4 0 0 0 41.2 59.2 30.3 30.3 0 0 0 30.7-7.5l36.2-36.2c8.1-8.1 11-20 7.6-30.7a59.4 59.4 0 0 0-59.3-41.2Zm43.5 63.7-36.2 36.2a19 19 0 0 1-19 4.7 47.8 47.8 0 0 1-33.2-47.7 49.2 49.2 0 0 1 45.4-45.4 47.8 47.8 0 0 1 47.7 33.2c2.1 6.7.3 14-4.7 19Z"/>
    </symbol>

    <symbol id="monitor">
      <title>monitor</title>
      <path fill="#65d6d6" d="M407.3 8.2H103.6c-50.5 0-91.5 41-91.5 91.5V299c0 50.5 41 91.5 91.5 91.5h43.6c2 0 3.8 1.6 3.8 3.7v98.2a12.8 12.8 0 0 0 22.1 8.8l103-109.6c.8-.7 1.8-1.2 2.8-1.2h128.4c50.5 0 91.4-41 91.4-91.4V99.7c0-50.5-41-91.5-91.4-91.5Z"/>
  <path fill="#4badaa" d="M189.4 356.2c0-2.2-1.6-4-3.6-4h-42.2c-48.9 0-88.5-43-88.5-96.3V46.2c0-9 1.1-17.7 3.2-26a91.4 91.4 0 0 0-46.2 79.5V299c0 50.5 41 91.5 91.5 91.5h43.6c2 0 3.8 1.6 3.8 3.7v98.2a12.8 12.8 0 0 0 22.1 8.8l16.3-17.3V356.2Z"/>
  <path d="M407.8 0H104.2a98.3 98.3 0 0 0-58.9 19.4 7.5 7.5 0 0 0 9 12 83.3 83.3 0 0 1 49.9-16.3h303.6a84 84 0 0 1 84 84v199a84 84 0 0 1-84 84H279.5c-3.1 0-6.1 1.3-8.2 3.6L168.2 495.2a5.1 5.1 0 0 1-5.8 1.4c-1-.5-3.4-1.7-3.4-5v-98.2c0-6.2-5-11.3-11.2-11.3h-43.6a84 84 0 0 1-84-84v-199c0-17.1 5-33.5 14.7-47.5A7.5 7.5 0 1 0 22.5 43 98.5 98.5 0 0 0 5.2 99v199c0 54.6 44.4 99 99 99H144v94.5a20.2 20.2 0 0 0 20.4 20.4c5.5 0 10.8-2.3 14.7-6.4l102-108.4h126.7c54.6 0 99-44.5 99-99V99c0-54.6-44.4-99-99-99Z"/>
  <path fill="#e6e6e6" d="M256 56.1a104.2 104.2 0 0 0-104.2 104.2c0 87.6 104.2 168.2 104.2 168.2s104.2-80.6 104.2-168.2C360.2 102.7 313.5 56 256 56Zm0 145.7a41.5 41.5 0 1 1 0-83 41.5 41.5 0 0 1 0 83Z"/>
  <path fill="#c6c6c6" d="M256 56.1c-3.3 0-6.6.2-9.9.5 53 5 84.3 49.5 84.3 103.7 0 71-58.3 137.3-84.3 160 6.1 5.3 9.9 8.2 9.9 8.2s104.2-80.6 104.2-168.2C360.2 102.7 313.5 56 256 56Z"/>
  <path d="M256 332.6c-.9 0-1.8-.3-2.5-.9-2-1.5-50.5-39.3-81.3-92a4.1 4.1 0 1 1 7-4 363 363 0 0 0 76.8 87.5 384 384 0 0 0 49-48.7 266.6 266.6 0 0 0 35.2-52.9c10.5-21.3 15.9-42 15.9-61.3a99 99 0 0 0-10-43.5 4.1 4.1 0 0 1 7.5-3.5 107.3 107.3 0 0 1 10.7 47c0 20.6-5.6 42.5-16.7 65a270 270 0 0 1-36.4 54.6c-26 31-51.6 51-52.7 51.9-.7.5-1.6.8-2.5.8Zm-88-105.3c-1.6 0-3-.9-3.8-2.3a148 148 0 0 1-16.5-64.7A108.4 108.4 0 0 1 345 98.6a4.1 4.1 0 1 1-6.8 4.7 100.2 100.2 0 0 0-182.3 57c0 19.2 5.3 39.8 15.7 61a4.1 4.1 0 0 1-3.7 6Zm88-21.4a45.7 45.7 0 0 1-39-69.5 4.1 4.1 0 0 1 7 4.3 37.3 37.3 0 0 0 32 57 37.5 37.5 0 1 0-21.8-67.9 4.1 4.1 0 0 1-4.8-6.7A45.7 45.7 0 1 1 256 206Z"/>
    </symbol>

     <symbol id="question">
      <title>question</title>
      <path fill="#6dccf2" d="M407.3 8.2H103.6c-50.5 0-91.5 41-91.5 91.5V299c0 50.5 41 91.5 91.5 91.5h43.6c2 0 3.8 1.6 3.8 3.7v98.2a12.8 12.8 0 0 0 22.1 8.8l103-109.6c.8-.7 1.8-1.2 2.8-1.2h128.4c50.5 0 91.4-41 91.4-91.4V99.7c0-50.5-41-91.5-91.4-91.5Z"/>
  <path fill="#1a94ba" d="M189.4 356.2c0-2.2-1.6-4-3.6-4h-42.2c-48.9 0-88.5-43-88.5-96.3V46.2c0-9 1.1-17.7 3.2-26a91.4 91.4 0 0 0-46.2 79.5V299c0 50.5 41 91.5 91.5 91.5h43.6c2 0 3.8 1.6 3.8 3.7v98.2a12.8 12.8 0 0 0 22.1 8.8l16.3-17.3V356.2Z"/>
  <path d="M407.8 0H104.2a98.3 98.3 0 0 0-58.9 19.4 7.5 7.5 0 0 0 9 12 83.3 83.3 0 0 1 49.9-16.3h303.6a84 84 0 0 1 84 84v199a84 84 0 0 1-84 84H279.5c-3.1 0-6.1 1.3-8.2 3.6L168.2 495.2a5.1 5.1 0 0 1-5.8 1.4c-1-.5-3.4-1.7-3.4-5v-98.2c0-6.2-5-11.3-11.2-11.3h-43.6a84 84 0 0 1-84-84v-199c0-17.1 5-33.5 14.7-47.5A7.5 7.5 0 1 0 22.5 43 98.5 98.5 0 0 0 5.2 99v199c0 54.6 44.4 99 99 99H144v94.5a20.2 20.2 0 0 0 20.4 20.4c5.5 0 10.8-2.3 14.7-6.4l102-108.4h126.7c54.6 0 99-44.5 99-99V99c0-54.6-44.4-99-99-99Z"/>
  <path fill="#e6e6e6" d="M287.8 186.7c-18.8 14.7-19.1 25-19.1 42.7 0 6.5-3.5 14-20.2 14-14 0-18.8-5.1-18.8-22.9 0-29.4 13-43.4 22.9-52 11.3-9.5 30.4-20 30.4-38.5 0-15.7-13.7-23.2-30.8-23.2-34.8 0-27.3 26.3-45.8 26.3-9.2 0-20.5-6.1-20.5-19.5 0-18.4 21.2-45.8 67.4-45.8C297 67.7 326 92 326 124.1s-29 55.4-38.3 62.6ZM275 293.3c0 14-11.6 26.4-26.3 26.4a26.3 26.3 0 0 1 0-52.7c14.4 0 26.3 12 26.3 26.3Z"/>
  <path d="M248.8 261.4a31.8 31.8 0 0 0-31.6 32 31.8 31.8 0 1 0 54.2-22.6c-6.1-6-14.1-9.4-22.6-9.4Zm0 52.6c-11.2 0-20.3-9.2-20.3-20.7s9.1-20.6 20.3-20.6 20.7 9.4 20.7 20.6S260 314 248.8 314Zm54.4-140.8c2.4 2 6 1.8 8-.6a73.7 73.7 0 0 0 20.5-48.5 56 56 0 0 0-22.1-44.6A89.6 89.6 0 0 0 253.3 62c-27.9 0-45 9.4-54.6 17.3a46.5 46.5 0 0 0-18.4 34.1 24 24 0 0 0 8.9 19.2c4.7 3.8 11 6 17.2 6 10.8 0 15.5-7 19.3-12.6 4.8-7 9.4-13.8 26.5-13.8 6 0 25.2 1.3 25.2 17.6 0 12.4-11.4 21.1-21.5 28.8-2.5 2-4.8 3.7-7 5.6a68 68 0 0 0-24.8 56.2c0 17.2 4.1 28.6 24.4 28.6 9 0 15.8-2 20.2-6a18 18 0 0 0 5.6-13.7c0-16.6 0-25 17-38.3l.3-.2 2.5-2a5.6 5.6 0 1 0-7-8.8l-2.5 1.9-.3.2C264 198.2 263 210 263 229.4c0 2.5 0 8.4-14.5 8.4-7 0-9.2-1.5-10.3-2.8-2-2.3-2.9-7-2.9-14.5a56.9 56.9 0 0 1 21-47.6c1.9-1.7 4.1-3.4 6.5-5.2 11.5-8.9 25.9-19.9 25.9-37.8S274.4 101 252.3 101s-30.6 10.8-36 18.8c-3.6 5.4-5.3 7.6-9.8 7.6-6 0-15-3.7-15-13.9 0-6.6 3.9-16.7 14.4-25.5 8.1-6.7 23-14.6 47.4-14.6 39.5 0 67.1 20.8 67.1 50.7 0 13.8-6 27.6-17.7 41-2 2.4-1.8 6 .6 8Z"/>
    </symbol>

     <symbol id="gather">
      <title>gather<path fill="#d5d864" d="M407.3 8.2H103.6c-50.5 0-91.5 41-91.5 91.5V299c0 50.5 41 91.5 91.5 91.5h43.6c2 0 3.8 1.6 3.8 3.7v98.2a12.8 12.8 0 0 0 22.1 8.8l103-109.6c.8-.7 1.8-1.2 2.8-1.2h128.4c50.5 0 91.4-41 91.4-91.4V99.7c0-50.5-41-91.5-91.4-91.5Z"/>
  <path fill="#aaaa4f" d="M189.4 356.2c0-2.2-1.6-4-3.6-4h-42.2c-48.9 0-88.5-43-88.5-96.3V46.2c0-9 1.1-17.7 3.2-26a91.4 91.4 0 0 0-46.2 79.5V299c0 50.5 41 91.5 91.5 91.5h43.6c2 0 3.8 1.6 3.8 3.7v98.2a12.8 12.8 0 0 0 22.1 8.8l16.3-17.3V356.2Z"/>
  <path d="M407.8 0H104.2a98.3 98.3 0 0 0-58.9 19.4 7.5 7.5 0 0 0 9 12 83.3 83.3 0 0 1 49.9-16.3h303.6a84 84 0 0 1 84 84v199a84 84 0 0 1-84 84H279.5c-3.1 0-6.1 1.3-8.2 3.6L168.2 495.2a5.1 5.1 0 0 1-5.8 1.4c-1-.5-3.4-1.7-3.4-5v-98.2c0-6.2-5-11.3-11.2-11.3h-43.6a84 84 0 0 1-84-84v-199c0-17.1 5-33.5 14.7-47.5A7.5 7.5 0 1 0 22.5 43 98.5 98.5 0 0 0 5.2 99v199c0 54.6 44.4 99 99 99H144v94.5a20.2 20.2 0 0 0 20.4 20.4c5.5 0 10.8-2.3 14.7-6.4l102-108.4h126.7c54.6 0 99-44.5 99-99V99c0-54.6-44.4-99-99-99Z"/>
  <path fill="#aaaa4f" d="m231.7 283.5-14.4-73.9-46.4 9 25 65.8a22.7 22.7 0 0 0 25.6 14.2c7-1.3 11.5-8 10.2-15Z"/>
  <path fill="#d5d864" d="m229.2 234.5-56.6 11a19.4 19.4 0 0 1-22.7-15.4l-5.7-29.4a19.4 19.4 0 0 1 15.3-22.7l56.7-11 13 67.4Z"/>
  <path fill="#eaf2ff" d="M311.4 106a207.8 207.8 0 0 1-102 62.3l13 67.5s59.4-10.2 118 19.7l-29-149.5Z"/>
  <path fill="#aaaa4f" d="M353.6 278.4a17 17 0 0 1-19.9-13.4l-32-165.3a17 17 0 1 1 33.4-6.5l32 165.3a17 17 0 0 1-13.5 20Z"/>
  <path d="M342.5 91.8a24.5 24.5 0 1 0-48.2 9.3l2 10a204.1 204.1 0 0 1-88.5 49.9l-49.7 9.6a26.9 26.9 0 0 0-21.3 31.6l5.7 29.3a26.9 26.9 0 0 0 31.5 21.3l1.7-.3L189 287a30.1 30.1 0 0 0 34 18.9 20.4 20.4 0 0 0 16.1-23.9l-7.7-39.8a207 207 0 0 1 93.1 14.1l2 10a24.5 24.5 0 0 0 48-9.3l-32-165.3ZM157.2 228.7l-5.6-29.4a12 12 0 0 1 9.4-14l42.4-8.2 10.2 52.7-42.4 8.3a12 12 0 0 1-14-9.5Zm62.8 62.6a15.1 15.1 0 0 1-17-9.6l-12.3-32.1 25.8-5 7.8 40.4a5.4 5.4 0 0 1-4.3 6.3ZM352.2 271a9.5 9.5 0 0 1-11.1-7.6L323.5 173a7.5 7.5 0 0 0-14.7 2.8L321 239a219.7 219.7 0 0 0-92.6-11.5L218 173.8a219.8 219.8 0 0 0 81.6-45.3l2.6 13.2a7.5 7.5 0 0 0 14.7-2.9l-7.8-40.5a9.5 9.5 0 0 1 18.6-3.6l32 165.2a9.5 9.5 0 0 1-7.5 11.2Z"/></title>
      <path fill="#d5d864" d="M407.3 8.2H103.6c-50.5 0-91.5 41-91.5 91.5V299c0 50.5 41 91.5 91.5 91.5h43.6c2 0 3.8 1.6 3.8 3.7v98.2a12.8 12.8 0 0 0 22.1 8.8l103-109.6c.8-.7 1.8-1.2 2.8-1.2h128.4c50.5 0 91.4-41 91.4-91.4V99.7c0-50.5-41-91.5-91.4-91.5Z"/>
  <path fill="#aaaa4f" d="M189.4 356.2c0-2.2-1.6-4-3.6-4h-42.2c-48.9 0-88.5-43-88.5-96.3V46.2c0-9 1.1-17.7 3.2-26a91.4 91.4 0 0 0-46.2 79.5V299c0 50.5 41 91.5 91.5 91.5h43.6c2 0 3.8 1.6 3.8 3.7v98.2a12.8 12.8 0 0 0 22.1 8.8l16.3-17.3V356.2Z"/>
  <path d="M407.8 0H104.2a98.3 98.3 0 0 0-58.9 19.4 7.5 7.5 0 0 0 9 12 83.3 83.3 0 0 1 49.9-16.3h303.6a84 84 0 0 1 84 84v199a84 84 0 0 1-84 84H279.5c-3.1 0-6.1 1.3-8.2 3.6L168.2 495.2a5.1 5.1 0 0 1-5.8 1.4c-1-.5-3.4-1.7-3.4-5v-98.2c0-6.2-5-11.3-11.2-11.3h-43.6a84 84 0 0 1-84-84v-199c0-17.1 5-33.5 14.7-47.5A7.5 7.5 0 1 0 22.5 43 98.5 98.5 0 0 0 5.2 99v199c0 54.6 44.4 99 99 99H144v94.5a20.2 20.2 0 0 0 20.4 20.4c5.5 0 10.8-2.3 14.7-6.4l102-108.4h126.7c54.6 0 99-44.5 99-99V99c0-54.6-44.4-99-99-99Z"/>
  <path fill="#aaaa4f" d="m231.7 283.5-14.4-73.9-46.4 9 25 65.8a22.7 22.7 0 0 0 25.6 14.2c7-1.3 11.5-8 10.2-15Z"/>
  <path fill="#d5d864" d="m229.2 234.5-56.6 11a19.4 19.4 0 0 1-22.7-15.4l-5.7-29.4a19.4 19.4 0 0 1 15.3-22.7l56.7-11 13 67.4Z"/>
  <path fill="#eaf2ff" d="M311.4 106a207.8 207.8 0 0 1-102 62.3l13 67.5s59.4-10.2 118 19.7l-29-149.5Z"/>
  <path fill="#aaaa4f" d="M353.6 278.4a17 17 0 0 1-19.9-13.4l-32-165.3a17 17 0 1 1 33.4-6.5l32 165.3a17 17 0 0 1-13.5 20Z"/>
  <path d="M342.5 91.8a24.5 24.5 0 1 0-48.2 9.3l2 10a204.1 204.1 0 0 1-88.5 49.9l-49.7 9.6a26.9 26.9 0 0 0-21.3 31.6l5.7 29.3a26.9 26.9 0 0 0 31.5 21.3l1.7-.3L189 287a30.1 30.1 0 0 0 34 18.9 20.4 20.4 0 0 0 16.1-23.9l-7.7-39.8a207 207 0 0 1 93.1 14.1l2 10a24.5 24.5 0 0 0 48-9.3l-32-165.3ZM157.2 228.7l-5.6-29.4a12 12 0 0 1 9.4-14l42.4-8.2 10.2 52.7-42.4 8.3a12 12 0 0 1-14-9.5Zm62.8 62.6a15.1 15.1 0 0 1-17-9.6l-12.3-32.1 25.8-5 7.8 40.4a5.4 5.4 0 0 1-4.3 6.3ZM352.2 271a9.5 9.5 0 0 1-11.1-7.6L323.5 173a7.5 7.5 0 0 0-14.7 2.8L321 239a219.7 219.7 0 0 0-92.6-11.5L218 173.8a219.8 219.8 0 0 0 81.6-45.3l2.6 13.2a7.5 7.5 0 0 0 14.7-2.9l-7.8-40.5a9.5 9.5 0 0 1 18.6-3.6l32 165.2a9.5 9.5 0 0 1-7.5 11.2Z"/>
    </symbol>

     <symbol id="comfort">
      <title>comfort</title>
       <path fill="#ec5569" d="M407.3 8.2H103.6c-50.5 0-91.5 41-91.5 91.5V299c0 50.5 41 91.5 91.5 91.5h43.6c2 0 3.8 1.6 3.8 3.7v98.2a12.8 12.8 0 0 0 22.1 8.8l103-109.6c.8-.7 1.8-1.2 2.8-1.2h128.3c50.6 0 91.5-41 91.5-91.4V99.7c0-50.5-41-91.5-91.5-91.5Z"/>
  <path fill="#e63950" d="M189.4 356.2c0-2.2-1.6-4-3.6-4h-42.2c-48.9 0-88.5-43-88.5-96.3V46.2c0-9 1.1-17.7 3.2-26a91.4 91.4 0 0 0-46.2 79.5V299c0 50.5 41 91.5 91.5 91.5h43.6c2 0 3.8 1.6 3.8 3.7v98.2a12.8 12.8 0 0 0 22.1 8.8l16.3-17.3V356.2Z"/>
  <path fill="#ec5569" d="M358.2 127a59.5 59.5 0 0 0-84 0L261 140a8 8 0 0 1-11.3 0l-13-12.8a59.5 59.5 0 1 0-84.1 84.1l97 97a8 8 0 0 0 11.4 0l97.2-97.2a59.5 59.5 0 0 0 0-84.1Z"/>
  <path fill="#fff5f5" d="M358.2 127a59.5 59.5 0 0 0-84 0L261 140a8 8 0 0 1-11.3 0l-13-12.8a59.5 59.5 0 1 0-84.1 84.1l97 97a8 8 0 0 0 11.4 0l97.2-97.2a59.5 59.5 0 0 0 0-84.1Z"/>
  <path fill="#dce6eb" d="M183.8 211.3a59.5 59.5 0 0 1 0-84.1 59.1 59.1 0 0 1 26.4-15.4 59.5 59.5 0 0 0-57.6 99.5l97 97a8 8 0 0 0 11.4 0l9.9-9.8-87.1-87.2Z"/>
  <path d="M407.8 0H104.2a98.3 98.3 0 0 0-58.9 19.4 7.5 7.5 0 0 0 9 12 83.3 83.3 0 0 1 49.9-16.3h303.6a84 84 0 0 1 84 84v199a84 84 0 0 1-84 84H279.5c-3.1 0-6.1 1.3-8.2 3.6L168.2 495.2a5.1 5.1 0 0 1-5.8 1.4c-1-.5-3.4-1.7-3.4-5v-98.2c0-6.2-5-11.3-11.2-11.3h-43.6a84 84 0 0 1-84-84v-199c0-17.1 5-33.5 14.7-47.5A7.5 7.5 0 1 0 22.5 43 98.5 98.5 0 0 0 5.2 99v199c0 54.6 44.4 99 99 99H144v94.5a20.2 20.2 0 0 0 20.4 20.4c5.5 0 10.8-2.3 14.7-6.4l102-108.4h126.7c54.6 0 99-44.5 99-99V99c0-54.6-44.4-99-99-99Z"/>
  <path d="M331 227.5a7.5 7.5 0 1 0 10.6 10.7l22.5-22.5a67 67 0 0 0-94.8-94.8l-13 13.2h-.7l-13-13A67 67 0 0 0 148 216l97 97a15.5 15.5 0 0 0 22 0l53.3-53.3a7.5 7.5 0 1 0-10.6-10.6l-53.3 53.3-.4.1-.3-.1-97-97a52 52 0 0 1 73.4-73.5l13 12.9c2.9 3 6.8 4.5 11 4.5s8-1.6 10.9-4.5l13.1-13.1a52 52 0 0 1 73.5 73.4L331 227.5Z"/>
    </symbol>

    <symbol id="intimidated">
    <title>intimidated</title>
    <path fill="#ddd" d="M458.9 287.8c0 110-79.8 167-202.8 167s-202.9-57-202.9-167 25-231.3 202.9-231.3 202.8 121.3 202.8 231.3Z"/>
  <path fill="#c7c7c7" d="M256 56.5c-4.4 0-8.7.1-13 .3 166 5.8 190 123.7 190 231s-74.4 162.9-190 166.8c4.2.2 8.6.2 13 .2 123 0 202.8-57 202.8-167S433.9 56.5 256 56.5Z"/>
  <path fill="#f5f5f5" d="M221 265.5c-1.9 20.8-19.5 29.5-40.1 27.7S144.4 279.8 146 259a37.6 37.6 0 0 1 40.6-34.4c20.7 1.7 36 20 34.2 40.9Zm70.2 0c1.8 20.8 19.4 29.5 40 27.7s36.5-13.4 34.8-34.2a37.6 37.6 0 0 0-40.6-34.4c-20.7 1.7-36 20-34.2 40.9Zm-84.7 95.7h99.1a30.4 30.4 0 0 1 30.4 30.4v7c0 11.8-9.5 21.3-21.3 21.3H197.5a21.4 21.4 0 0 1-21.4-21.3v-7a30.4 30.4 0 0 1 30.4-30.4Z"/>
  <path fill="#ececec" d="M305.6 361.2h-24.5a30.4 30.4 0 0 1 30.5 30.4v7c0 11.8-9.6 21.3-21.4 21.3h24.5c11.8 0 21.4-9.5 21.4-21.3v-7a30.4 30.4 0 0 0-30.5-30.4Z"/>
  <path fill="#5a5a5a" d="M206.8 183.9c-9.2 8-42.7 33.6-85.1 29a17.1 17.1 0 0 1 3.7-34.1c28.7 3.1 52.5-15.2 59-20.9a17.1 17.1 0 1 1 22.5 26Z"/>
  <path fill="#444" d="M208.7 159.7c-6.2-7.1-17-8-24.2-1.8a91.7 91.7 0 0 1-7.9 6c5 .5 10 3.1 13.2 7.8 5.5 8.1 3.6 19-4.2 24.4-4 2.8-12 7.9-22.8 12.4 22-7 38-19.5 44-24.6 7.2-6.2 8-17 1.9-24.2Z"/>
  <path fill="#5a5a5a" d="M305.3 183.9c9.2 8 42.7 33.6 85.1 29a17.1 17.1 0 0 0-3.6-34.1c-28.8 3.1-52.6-15.2-59.2-20.9a17.1 17.1 0 1 0-22.4 26Z"/>
  <path fill="#444" d="M405.6 194a17.1 17.1 0 0 0-18.9-15.2c-3.5.4-7 .4-10.4.2 3.7 2.8 6.2 7.1 6.6 12.3.7 9.8-6.5 18.9-16.1 20.3l-3.3.4c8.4 1.4 17.5 2 27 .9a17 17 0 0 0 15.1-19Z"/>
  <path d="M429.3 127.6a154 154 0 0 0-64-56c-55.8-28.2-162.7-28.2-218.6 0C62 109.3 45.5 214 47.1 287.9c0 27.8 5 53 15 75 48.1 114.5 249.6 123 339.9 58.7a6.1 6.1 0 1 0-7.2-10c-33.5 24.4-81.5 37.2-138.7 37.2-125 0-196.8-58.6-196.8-161 0-43.4 3.5-106.6 33.8-153.5 31.1-48.1 84.4-71.5 163-71.5 156.4-2.8 199.1 101.7 196.7 225 0 43.4-12.8 79.1-37.8 106a6.1 6.1 0 1 0 9 8.3c27.2-29.2 41-67.6 41-114.3 0-45-3.7-110.7-35.7-160.2Z"/>
  <path d="M285 266a34 34 0 0 0 15.8 27 50 50 0 0 0 31 6.3C358 297 374 281 372 258.5a44 44 0 0 0-47.2-40c-24 2-41.8 23.4-39.7 47.5Zm40.9-35.3a31.6 31.6 0 0 1 34 28.9c2 23-21.9 26.8-29.2 27.5a38 38 0 0 1-23.3-4.5c-6-3.8-9.4-9.7-10.1-17.6a31.6 31.6 0 0 1 28.6-34.3ZM211.3 293a34 34 0 0 0 15.7-27 43.9 43.9 0 0 0-39.7-47.5 44 44 0 0 0-47.3 40c-1.9 22.5 14 38.5 40.4 40.8a50 50 0 0 0 30.8-6.3Zm-59-33.5a31.6 31.6 0 0 1 34-28.8 31.6 31.6 0 0 1 28.5 34.2c-.7 8-4 13.9-10 17.7-13 8.8-54.9 7.2-52.5-23Zm247.3 58.7a83.2 83.2 0 0 0 21-63.9 6.1 6.1 0 0 0-12.2 1c3.7 42.7-27.3 76.6-73.7 80.6a6.1 6.1 0 1 0 1 12.2 96.7 96.7 0 0 0 63.9-29.9Z"/>
  <path d="M332.6 311.5a6.1 6.1 0 1 0 1 12.2 73.1 73.1 0 0 0 47.2-21.2 59 59 0 0 0 15.4-46 6.1 6.1 0 1 0-12.1 1c2.4 29-18.7 51.2-51.5 54ZM91.5 254.3c-5 50.5 34.7 90.3 84.9 93.8a6.1 6.1 0 0 0 1-12.2c-46.4-4-77.4-37.9-73.7-80.5a6.1 6.1 0 1 0-12.2-1Z"/>
  <path d="M122.5 250.8a6.1 6.1 0 0 0-6.6 5.6 58.9 58.9 0 0 0 15.4 46 72.5 72.5 0 0 0 47.2 21.3 6.1 6.1 0 0 0 1-12.2c-32.7-2.9-53.9-25-51.4-54a6.1 6.1 0 0 0-5.6-6.7Zm75 175.2h117.1a27.6 27.6 0 0 0 27.6-27.5v-6.9a36.6 36.6 0 0 0-36.6-36.6h-99.1a36.6 36.6 0 0 0-36.6 36.6v7a27.6 27.6 0 0 0 27.5 27.5Zm117.1-12.2H197.5c-8.5 0-15.3-6.8-15.3-15.3v-2.2h27.5v2.4c.3 8.2 12 8.2 12.3 0v-2.4h28v2.4c.2 8.2 11.9 8.2 12.2 0v-2.4h28v2.4c.2 8.2 11.9 8.2 12.1 0v-2.4H330v2.2c0 8.5-6.8 15.3-15.3 15.3Zm-108.1-46.5h99.1c10.8 0 19.9 7 23.1 16.7h-26.3v-3c-.3-8.1-12-8-12.3 0v3h-28v-3c-.2-8.1-11.9-8-12.2 0v3H222v-3c-.3-8.1-12-8-12.2 0v3h-26.4a24.4 24.4 0 0 1 23.1-16.7Zm-88.9-180.8c2.1-1.3 4.6-1.9 7-1.6l3.1.2c8.1.2 8.8-11.4.8-12.2a50 50 0 0 1-2.5-.2 23.3 23.3 0 0 0-5 46.3c3.7.4 7.3.5 10.8.5 39.7 0 70.1-23.3 79-31a23.4 23.4 0 0 0-13.4-40.8 23.1 23.1 0 0 0-17 5.6c-3 2.6-11.3 9.2-22.6 14a6.1 6.1 0 1 0 4.9 11.3 102.3 102.3 0 0 0 25.8-16c2.2-2 5-3 8-2.7a11 11 0 0 1 10.1 11.8 11 11 0 0 1-3.8 7.5c-8.7 7.6-40.5 32-80.5 27.6-10.3-1-13.5-14.8-4.7-20.3Zm294.1 6.8a23.2 23.2 0 0 0-25.6-20.6c-26.3 2.9-48.3-14.1-54.5-19.4a23.1 23.1 0 0 0-32.8 2.4 23.4 23.4 0 0 0 2.4 32.8c9 7.7 39.4 31 79 31 3.6 0 7.2-.1 10.9-.5a23.3 23.3 0 0 0 20.6-25.7Zm-22 13.5c-40 4.3-71.7-20-80.4-27.5a11 11 0 0 1-1.2-15.6 11 11 0 0 1 15.5-1.1c6.5 5.6 28.7 22.7 56.6 22.7 2.3 0 4.8-.2 7.2-.4a11 11 0 0 1 12.1 9.8 11 11 0 0 1-9.7 12Z"/>
  </symbol>
  </defs>
</svg>
