<svg xmlns="http://www.w3.org/2000/svg" width="100" height="100" overflow="visible" viewBox="0 0 100 100">
	<defs>
		<g id="avatar-0">
			<path fill="orchid" d="M0 0h100v100H0z"/>
			<path fill="#FFFFFF" d="M40.6 81.2s-1 1.9 0 2.2c1 .3 4.1 0 4.1 0s1-1.1 1.9-.7c.9.4.9.9.9.9h4.8s.7-3.2 0-3.5c-.7-.3-3.3-1.8-1.8-2.6s4.1-.6 5.4 1.5.9 3.6 1 3.9c.1.2 0 .7 0 .7h5.6s.4-1.5 1.4-1.1c1 .4 1.4 1.1 1.4 1.1H70s2.2-2 .6-3.7c-1.6-1.8-4.7-2.4-6.3-3.3-1.6-.9-3.1-2.5-3.1-3.1-.1-.6-.1-4.1 1.7-7.4 1.9-3.4.4-8.6 2.8-8.7 2.4-.1 3.5.5 4 1.2s1.3 2 2.6 2.1c1.3.1 2.7-2.4 2.6-2.8-.1-.4-.4-2.8-.4-2.8s1.9-3.7 1.3-4.7c-.6-1-1.1-1.7-3.4-1.1-2.4.5-5.5.7-6.2-.3-.7-1-.6-4.2-.2-4.7.4-.4.4-2.4 2.1-2.4 1.7 0 8.9.1 9.7-.4.8-.5 0-2 0-2l1.5.9s2.7-.4 2.1-6c-.6-5.6-3.9-6.5-6-7.1-2.1-.6-2.1-1.6-2.4-3.6-.3-1.9-.8-4.4-1.6-5-.9-.6-2 .9-2.2 1.6-.2.7-.9 1.1-.9 1.1s-.6-1-1.9-1.6c-1.4-.6-2.2-.1-2.3.5s-.2 2-.2 2-2-.5-2.6-.6-1.1.9-1.1.9-1.4.8-2.5.1c-1.1-.6-1.6-1.4-1.9-2.2-.2-.9-1.3-2.6-2.5-1.1s-1.6 3.5-.5 7.1c0 0-1.1-.4-2.1-1.4-.9-1-3.4-1.5-3.7.9s-1 6.1 7.6 12.2c0 0 1.1.7-.1 1.7S44.6 46.2 42 52.3c-2.6 6.1-6.3 18-10.6 18.1-4.3.1-9.9-2.1-11.2-.8-1.4 1.3-.6 9.9 6.4 11.8 7.1 1.9 10.5 1.4 12.2.6l1.8-.8z"/>
		</g>
		<g id="avatar-1">
			<path fill="teal" d="M0 0h100v100H0z"/>
			<path fill="#FFFFFF" d="M29.1 83.6h15.5s1.6-4.1 1.8-5c.2-.9-.7-2.9 0-3.7.7-.8 1.7-3.3 4-3 2.3.3 4 4.8 4.4 5.8s.6 5.9.6 5.9h15.5s-.6-4.5-1.8-5.9c-1.3-1.4-7.4-7.9-8.2-9.7-.8-1.8-1.3-8.4-1.1-8.8s.6-2.6 1.5-2.6 7.7-1.6 9.2-3.5c1.5-1.9 1.8-5.7 1.3-6.8-.6-1-4.6-2.6-6.3-2.1-1.7.6-3.1 1.3-2.7 2.4s-3 .8-3 .3.8-7.2 3.9-8.5c3.1-1.3 7.8-4.5 8.4-4.5.5 0 4.3 2.4 5.2 2.7.9.3 2.4-3 2.2-5.7-.2-2.7-1.6-8.9-3.3-10s-8-3.3-9.5-2.2c-1.5 1.1-1.4 3.7-2.6 4.5-1.3.8-4.4 5.8-5.3 4.6-.9-1.3-.2-2.7.5-4s1.8-3.7.3-3.8c-1.5-.1-4.8 2.2-5.7 2.7-.9.6-4.5 2.9-9 3S29 28.1 23.6 35.6s-1.8 17.3 1.6 21.1c3.4 3.8 5.1 10.5 4.6 14-.6 3.4-.9 3.9.1 3.5 1-.3 5-1.4 5.5-2.5s3.1-1 1.3 1c-1.9 2.1-6.3 5.4-7.6 10.9z"/>
		</g>
		<g id="avatar-2">
			<path fill="#D2691E" d="M0 0h100v100H0z"/>
			<path fill="#FFFFFF" d="M36 83.6h15s2.8-.7 1.5-2.8c-1.2-2.1-2.1-2.2-2.9-2.5-.7-.3-1.2-.8-1.2-.8s-.4-.9.9-1c1.3-.1 2 0 2.6.6.6.6 4.2 2.2 4.5 2.9.3.7.6 3 .6 3h13.8s1.1-3.8-1.2-5.4-3.8.8-6.8-2.5-4.7-3.8-3.1-8.4c1.6-4.6 6.3-10.3 8.8-9.5 2.4.8 2.9 1.9 3.6 2.3.7.4 2.7.5 4.6-2.4 1.9-2.9-.4-6.3-2-6.3s-8 .7-8.8.7-1.3-.5-1.2-1.3c.2-.8 2.6-3.8.7-5.6-1.9-1.9-2.9-1.2-2.9-1.7s-.4-2.5 2.8-2.9c3.2-.4 4.9 1 7.1-.6 2.1-1.6 2.5-3.7 1-3.8-1.5-.1-4.3 0-5.8-1.8s-3.7-2.7-3.8-3.8c-.1-1.2-.4-3.6-2.2-3.8-1.8-.3-2.9-.7-2.8-2.2.2-1.5.1-3.1.7-3.7.6-.5 2.6-2.6-.6-1.5s-5.6 1.4-8.8 4.7C47 26.8 44.6 31 44 31.7c-.6.7-1.6 1.2-1.2 2.1.4.9 4.2 5.9 3.4 14S42.8 61 42.3 60.2c-.5-.8 0-7.5-1.6-10.1-1.6-2.6-8-5.3-6.9-9.3s3.8.5 3.9-1.8c.1-2.3-1.5-5.7-5.9-4.1-4.4 1.6-11.8 7.3-9.8 16.5s4.8 11.3 8.3 14.2c3.5 2.9 9.5 4.7 8.8 6.4-.7 1.7-4.7 8-4.4 9.1.2 1.5.3 2.5 1.3 2.5z"/>
		</g>
		<g id="avatar-3">
			<path fill="#556B2F" d="M0 0h100v100H0z"/>
			<path fill="#FFFFFF" d="M38.1 83.6H69s.9-6-3.4-7.6-6.1 1.4-9.3 1.3c-3.2-.1-4.4-.2-4.6-1.7-.2-1.5 5.8-1.9 8.3-3.4 2.5-1.5 4-4 3.5-7.3-.6-3.3-1.8-4.7-.5-6.3 1.3-1.6 6-.6 8.3-.5 2.3.1 5.3-.1 5.3-3.5s-4.7-3.1-4.7-3.1 1-2.5-1.3-2.9c-2.3-.4-2.9 2.4-3.5 2.4-.6 0-7.7 1.6-8.9-2 0 0-.1-1.6 3.2-2.7 3.3-1.1 5.4-3.9 4.7-7.3-.7-3.5-.4-4 1-4.4 1.4-.4 6.1-3.2-1-6.8 0 0 2.7-7.9-2.8-9-5.4-1.1-7.5 2.3-7.5 2.3s-10.6.4-12.6 1.3c-2.1.9-5.6 2.3-5.6 6.2s3.1 5.5 2.9 6.2c-.2.7.4 1.2-1.6 1.9s-6.4 2.7-5.6 4.8c.8 2.2 1.9 2.1 1.9 2.1s-8.1 5.1-8.2 17.3c-.1 12.1 5.7 17.6 11.8 18 0 0 1.2.7.5 1.1-.8.3-4 2.1-1.2 3.6z"/>
		</g>
		<g id="avatar-4">
			<path fill="#7CC44F" d="M0 0h100v100H0z"/>
			<path fill="#FFFFFF" d="M47.3 83.6h12.9s1.5-.8 0-2.6-2.8-2.8-3.4-3.1c-.5-.3.9-2.1 3.6-1.7 2.7.3 5.3 2 5.5 3.7s0 3.8 0 3.8h12.3s2.7-.8 2.6-3.8c-.1-3-2-4-4-3.8-2.1.3-3.5.9-5.7 0-2.3-.9-3.7-3.4-3.7-3.4s8-4.1 3.7-15.8c0 0 9-1.8 10.3-6.2s-1.7-6.8-4.9-5.9c0 0-.9-2-2.4-1.2s-3 2.6-2.9 3.9.2 3.5-3.8 4.3c0 0-6-4.3-5.9-8.4.1-4.2 4.8-7.1 5.4-7.5.6-.4 7.5-3.4 7.4-5.6 0 0 3.5-.7 3.1-2.6-.3-2-2.6-4-5.4-5.4 0 0 .2-3.9-3-3.6-3.3.3-2.9 2.1-2.9 2.1s-6.5-.4-9.6 2.4c-3.1 2.8-5.3 4.5-5.9 8-.5 3.6.5 5-.4 6.7-1 1.7-1.2 2.1-1.3 3.6-.1 1.5-.8 6.5 1.4 10.7 2.2 4.2.1 14.6-5.2 19.7s-10.2 3.4-11.2 2.7-13-5.9-19.1 9c0 0 7.3-5.4 11.1-3.7 3.8 1.7 11.1 5.5 18.1 2.4-.1 0 1.2-1.4 3.3 1.3z"/>
		</g>
		<g id="avatar-5">
			<path fill="#2F4F4F" d="M0 0h100v100H0z"/>
			<path fill="#FFFFFF" d="M41.1 84.9h11.5s3.8-2 2.1-4.6c-1.7-2.6-4-1.7-2.1-2.9s5.1 1.4 5.8 3.1c.7 1.7.9 4.4.9 4.4h12.3s3.3-1.1 1.6-4.4c-1.7-3.3-5.1-3.8-7-4.2-1.9-.5-3.6-.8-2.7-2.4.9-1.7 5.2-3.2 5-10.4-.2-7.2-1.7-8 .2-8 2-.1 8.1 1 10.9 0 2.8-1 1.4-1.4.8-1.7-.5-.3 2.7-.8 1.6-1.7-1.1-1-1.3-1.4-1.3-1.4s2.7-.5 1.5-1.4c-1.2-1-3.4-3-6.4-2.2s-6.4-.1-7.3-1.1c-.8-1-1.8-4.9-.8-5.9 1.1-1 13-4.5 15.7-8.6s-2.2-2.8-2.9-2.8c-.7 0-2.7.1-3.9-1-1.3-1.1-5.6-7.5-10-7.6s-5.8 1.5-6.6 1.7c-.8.2-6.5 2.2-6.6 3.9s1.1 2.2 1.1 2.2-1.3 1.8.2 5.8c1.4 3.9-2.3 6.1-2.3 6.1S41.2 45.7 39 57.5s-1.8 15.5-6.3 19c-4.5 3.4-11.1.7-13.1-2.6s-2.6-3.5-3-1.1c-.4 2.4.7 12.4 11.1 12.2 10.4-.2 13.7-7.4 13.7-7.4s-2.6 6.8-.3 7.3z"/>
		</g>
		<g id="avatar-6">
			<path fill="tomato" d="M0 0h100v100H0z"/>
			<path fill="#FFFFFF" d="M32.4 81.5H52s1-4.1-2.1-4.1-1-2.1-1-2.1 2.1-3.1 4.1-3.1 2.1 0 3.1 1 2.1 3.1 1 4.1c-1 1 0 4.1 0 4.1h17.5s0-6.2-7.2-6.2c0 0 0-7.2-2.1-10.3-2.1-3.1-1-5.2-1-5.2s2.1-5.2 1-7.2c0 0 1 1 3.1 1s2.1 4.1 3.1 3.1 5.2-3.1 4.1-6.2c-1-3.1-4.1-5.2-7.2-5.2-3.1 0-3.1-2.1-2.1-4.1 1-2.1 3.1-5.2 4.1-5.2 1 0 6.2-2.1 5.2-4.1-1-2.1-5.2-9.3-18.5-10.3 0 0-4.1-8.2-9.3-4.1S51.9 28 53 28c0 0 1 6.2-3.1 11.3s-6.2 9.3-7.2 8.2c-1-1 6.2-15.4-5.2-18.5s-12.4 1-10.3 2.1 5.2 0 4.1 2.1c-1 2.1-11.3 16.5-5.2 26.8s12.4 9.3 12.4 10.3-4.1 5.2-5.2 6.2c-.9.9-2 .9-.9 5z"/>
		</g>
		<g id="avatar-7">
			<path fill="#4682B4" d="M0 0h100v100H0z"/>
			<path fill="#FFFFFF" d="M36.6 83H51s-.7-4.7-3.1-5.6c-2.4-.8-3.8-2.4-3.2-3.3.6-.9 3-2.7 3-2.7s3.4 3.1 5.5 4c2.1.9 1.7 1.2 1.6 1.7-.1.5-.7 4.3.9 5.8h16.1s-1.2-5.4-2.8-5.8c-1.5-.4-4.1-1.6-5.8-2.6-1.6-.9-4.4-2-4.8-2.4l-.4-.2s1.9-5.3 1.7-6c-.1-.7 9.4-6.1 9.9-12.4S68 43.3 66.9 41.3c-1-2-1.6-3-.8-3.5s4.9-6.3 8.5-6.7c3.6-.4 8.9-.1 8.5-1.7-.3-1.6-2.2-5-5-5.4-2.9-.3-6.4-1.5-8.3-3.4-2-1.9-9.1-4.1-11.6-1.3s-3.5 8.7-5.6 9.4c-2.1.6-10.8 2.9-14.6 15.5-3.8 12.7-3.9 15.2-7.3 18.2S15.4 75.9 15.6 78c.2 2.2 1.3 2.2 1.3 2.2s0 1.3 1 1.9c1 .5 4.8-.2 6.4-1.6 0 0-.8 1.9 1.3 1.9s5-.1 9.5-4.6c0-.1 2.1 4.1 1.5 5.2z"/>
		</g>
		<g id="avatar-8">
			<path fill="#D2A467" d="M0 0h100v100H0z"/>
			<path fill="#FFFFFF" d="M21.5 82.2s3.2 1.8 8.6 1.6C35.5 83.5 39 81 39 81v2.4h11.3s1.4-2.2-.3-3.2c-1.7-.9-2.7-.8-2.3-1.5.4-.7 1.4-2.7 4.4-2s2.7 1.3 2.9 2.7c.2 1.4 1 3.9 1 3.9h12.5s1.7-2.2-1.2-4.4c-2.8-2.1-5.1-4.5-6-6.8-.9-2.3-1.9-3-1.9-3s2.8-2.6 2.6-5.7c-.2-3.2.4-3.4 1.1-3.5.7-.1 3 .1 3.7 1 .7.9 1.2 1.7 2.2 1.6 1-.1 1.5-1.1 2-1.6.5-.4 2.8-4.2 0-6.9s-6.1-2.9-7.8-2.7c-1.7.2-1.5-5.7 4.1-9.9 5.6-4.1 10-9.9 9.4-11.8-.6-1.9-2.7-1.9-3.1-2.7-.4-.8-.8-2.3-1.8-4.2-1-1.9-4.2-4.5-8.9-4.2-4.7.3-5.9 3.6-7.4 3.4-1.5-.2-3.6-.4-4.4-.1-.8.3-.7 3-.3 3.6s-.9 6.8.3 10.8c1.2 4-5.2 10.3-7.4 11-2.2.7-8.8 3.3-8.9 11s.7 10.7-.7 12.5c-1.4 1.8-6 7.2-10.3 8.6-4.2 1.6-2.8 2.2-2.3 2.9z"/>
		</g>
		<g id="avatar-9">
			<path fill="#7FB5C7" d="M0 0h100v100H0z"/>
			<path fill="#FFFFFF" d="M45.6 82.3h10.2s-4.6-5.6-4.2-6.7c.4-1.1.5-2.3 1.8-1.4 1.3.9 5.8 8.1 5.8 8.1h10.1s-.8-5-1.9-5.4c-1.1-.4-2.4.2-2.8 0-.4-.2-1.3-3.4-1.5-4.7-.2-1.3.2-1.9.3-2.3.2-.3 2.2-2.4 1.9-3.2-.3-.8-1.5-3.5-.6-4 .8-.5 8.1-3.7 7.2-9.7-.9-6-2.9-5-3.2-4.6-.2.4-4.2 5.2-5.3 5.1-1.1-.1-1.7-5.4-2.3-5.5-.6-.1-.6-.6.2-.7.8-.2 4-1.8 4.6-2.4.6-.6 5.1-1.5 4.8-2.8-.3-1.4-7.7-8.7-7.7-8.7s.1-12.5-5.9-15.9c0 0-5.4 3.1-5.6 9 0 0-.2.8-1.5.6-1.2-.2-5.7-12.2-20.1-6.6 0 0-1.9 8.5 10.3 16 0 0 0 7.9.9 8.5s2.2 1 2.2 1-7.8 8.3-8.8 12.4c-1 4.1 2.6 9.3 3 9.8.4.5 2.8 7.7-4.2 7.8-7 .1-6.6-8.6-5.9-11.5.7-2.8-2 0-2.4 1.7-.4 1.7-2.2 15.6 10.1 16 0 0 7.1 1.5 8.4-2.5 1.1-3.9 2.1 2.6 2.1 2.6z"/>
		</g>
		<g id="avatar-10">
			<path fill="#B22222" d="M0 0h100v100H0z"/>
			<path fill="#FFFFFF" d="M14.3 78.3s15.6-13 19.9-16.1c0 0 .2-5.6 6-9.6s25-17.3 24.6-23.5c-.4-6.2-7.1-8.6-4.1-9.6 3-.9 15.8.4 16.5 3.6s2.8 4.7 3.8 4.7 8.1 3.4 5.4 4.5c-2.6 1.1-6.4 1.9-7.7 2.4-1.3.6 3.8 19.2-6.8 26.3s-12.4 8.8-11.6 9.8c.8.9 1.3 3.9 2.3 3.8.9-.2 7.9-2.3 9.8-.2 1.9 2.1 1.7 4.9 1.7 4.9H52.8s-1.3-2.6.6-3c1.9-.4 2.8-3.4.4-4.7-2.4-1.3-7.9-.6-10.1-2.4-2.3-1.9-3.4-.8-3.4-.8s-6.4 9.4-9.2 10c-2.8.6-4.9.9-5.1 0s.6-2.4.6-2.4-.8 1.5-4.1 1.9c-3.5.2-8.2.4-8.2.4z"/>
		</g>
		<g id="avatar-11">
			<path fill="#9370DB" d="M0 0h100v100H0z"/>
			<path fill="#FFFFFF" d="M39.6 85.5h33.7s2.4-6.1-2.7-7.5c-5.1-1.5-7.8 1.2-10.3-1.2-2.5-2.4-3.4-3.3-2.5-3.6s5.7-.3 11.1-9.3 6.6-13.5 5.7-14.8c-.9-1.3-3.7-4-2.2-5.7s1.7-.3 2.5-1.6.1-10.3 0-12.3 5.6-5.7 4.5-8.2c-1-2.5-7.2 2-7.2 2s-13.3-1.5-18.6 0c0 0-2.1-1.8-3.6-1.8s-5.7 0-5.8.7c-.1.7 2.4 3.7 4.6 5.1 0 0-1.9 5.8-.3 12.3 0 0-13.2 7.9-12.7 9.4.4 1.5.5 1.5.5 1.5l1.6-.6s-10.5 7.6-10.3 9.7c.2 2.1-.9 12.1-2.8 14.8-1.9 2.7-4.9 4.5-4.9 6.1s-2.2 6.1 2.1 3.4l2.5-1.8s-.7 3.7.7 3.3c1.5-.5 3-2.4 6-5.1 3-2.7 10.2-9.1 14.5-2.4-.1.1-7.3 2.4-6.1 7.6z"/>
		</g>
		<g id="avatar-12">
			<path fill="#789" d="M0 0h100v100H0z"/>
			<path fill="#FFFFFF" d="M31.9 83H48s.5-3.2-.7-4.5c-1.1-1.2-2.2-2.3-1.9-3.1.3-.9 2.7-3.2 2.7-3.2s4.5 2.4 4.5 3.7c0 1.3-1.6 4.4-1.3 7.1H71s-.6-5.2-3-6.2-3.1-.1-4.1-.5-2.1-2.3-2.1-2.3 2.8-4.3 1.9-7c-.9-2.7-1-3.8-.5-4 .6-.2 3.3-2.5 3.7-2.6.4-.1 5.4-.1 4-5.2-1.4-5.1-3.9-5.1-4.3-4.9-.4.3-2 2.5-3 2.7-1 .2-1.8.7-1.8.7s-1-4.9 1-6.4 2.6-2.8 4.1-3.2c1.5-.5 6.8.2 5.7-4.9 0 0 .1-.9-1.6-.8-1.7.1-5-.7-5-.7s-5.6-5.7-6-6.6c-.4-.9-.4-4.8 1.9-5.1 2.3-.4 3.5 0 3.5 0s.2-3.6-4.2-4c-4.4-.4-6.5.2-8.4-.4s-5-4.1-8.1-3.7c0 0 1.2 2.2 1.1 3.1 0 0-9.9-1.4-13.7 2.5 0 0 3.6.6 4.3 1.1 0 0-7.8 4.7-9.3 9.7 0 0 2.6-.1 3.7.1 0 0-6.8 5.1-8.5 12.4 0 0 1.8-1 3.3-1.2 0 0-4.2 7.8-2.3 13.2 0 0 1.4-2.2 3.1-2.6 0 0-.8 12.2 2.2 15.5 0 0 1.1-3 3.9-5.6 0 0 1.9 1.8 2.1 4.1.2 2.3.7 3.6.1 4.4-.2 1-3 3-2.8 8.4z"/>
		</g>
		<g id="avatar-13">
			<path fill="#639" d="M0 0h100v100H0z"/>
			<path fill="#FFFFFF" d="M39.3 84.3h13.3s1.1-2.1 0-3.6c-1.1-1.4-2.6-2.5-1.9-3.2.6-.7 3.1-1 3.8-.4.7.6.7 1.2 1.2 2.5.5 1.2 1.9 4.7 1.9 4.7h14.1s.8-1.3 0-2.7-1.3-2.6-1.4-2.9-3.1-3.6-5.2-4.3c-2.1-.7-3.9-2.1-3.9-3.2s3.6-6.4 4.2-10.9c.6-4.5.3-5.2 1.8-5.4 1.5-.2 3.1-.4 4 .8.9 1.2 2.6 3.5 3.4 3 .8-.5 4.9-6 4.2-7.5-.7-1.4.5-1.7.1-2.5-.5-.6-1.9-5.7-3.3-4.7s-5.1 1.8-7.6 1.1-.7-6 1.4-8.2c0 0 7.6.5 10.6-.6 3.1-1.1 5.1-4 5.1-4.8 0-.8-1.7-3.6-5.1-3.8-3.4-.2-4.3-1.2-4.3-1.2s-4.3-8.7-12.7-7.1c-8.4 1.6-9 7.4-9.1 10.5s1.2 6.9-1.3 8.4c-2.6 1.5-12.2 7.2-13.4 15.8-1.2 8.7-.1 11.2-3 11.2s-18.8.2-21.9 4.7c-3.1 4.5 3.4 11.6 11 12.3 7.7.7 10.2.2 13.7-5.2 3.5-5.3 1.7-1.2 1.4-.4-.1 1-1.6 6-1.1 7.6z"/>
		</g>
		<g id="avatar-14">
			<path fill="#696969" d="M0 0h100v100H0z"/>
			<path fill="#FFFFFF" d="M42 80.5l25.8-.4s3.9-10.6-1.4-10.4c-7 .2-10.8 2.1-10.8 2.1s14-17.6-1.2-17.8c0 0-.7-3 1.2-4s5.5-3 5.2-4.4c-.2-1.3-2.1-3.8-2.8-3.3s-3 1.2-3 1.2-2.2-5.7-1.3-6.9c.8-1.2 4.1-1.2 4.1-1.2S62 38 63.1 38s-1.3-.2 2.8-1.9 6.4-3.3 5.2-4.6c-1.2-1.3-4.5-5.9-4.7-6.8-.2-.9-1.9-4.6-3.8-4.4-1.8.2-5.2-3.2-7.5-2.7s-2.8 1.5-3.6.7c-.9-.7-2.7-2.2-3.3-2.1-.6.1-6.2-3.4-9.1 4 0 0 3.4.2 3.5 1.1.1.9-2.2 2.7-3.5 2.7s.9 5.6 7 5.5c0 0-9.5 16.4-9.1 28.4.4 12-2.7 11.5-3.5 10.2-.9-1.3-1.7-5.7 0-10.2 1.7-4.5 6.8-20.6-14.9-4.7 0 0 12.2-5.1 9.1 3.2S23.6 73.5 26 77c2.4 3.5 10.1 6.1 14.7-1.3 0 0-1.7 4.8 1.3 4.8z"/>
		</g>
		<g id="avatar-15">
			<path fill="#20212E" d="M0 0h100v100H0z"/>
			<path fill="#FFFFFF" d="M50.3 83.1h19s1.8-2.2.3-3.8c-1.5-1.6-3.2-1.3-3.2-1.3s-1.5-1.6-2.7-1.3c-1.3.3-2.1 1-2.1 1s-1.9-.3-1.1-1.6c.7-1.3 9.4-9.7 7.4-13.8-2-4-8.4-3-8.4-3s.5-4.8-1.2-11.4c0 0 5.6-2.6 7.5-15.8 0 0 3.6-1.7 3.9-3.6 0 0 2.2-2.5 1.8-4.3-.4-1.8-1.3-1.2-1.3-1.2s-.3-3.4-2.4-2.8c0 0-1.7-1.6-2.5-.6-.8 1.1.1 5-1.7 6.3-1.9 1.3-.5-1.7-1.4-2.2-.9-.5-2.6.1-2.7 1.3-.1 1.3.7 2.6 1.5 3.2.8.5 1.8 1.5.3 4.4s-5.5 7.9-6.7 7c-1.2-.9-2-2.1-1.2-4.2.9-2.1 4.3-5 3-7.5-1.3-2.4-5.7-4.7-5.7-4.7s.3-5.6-4.4-5.2c-4.7.3-4.9 3.6-4.9 3.6l-2-.1s-.7-3.1-3.8-2.2c-3.1.9-2.4 5-2.4 5S30 26.5 30 27.9c-.1 1.3 1.1 1.9 1.1 1.9s-.1 2 3.4 3.9c0 0 1.9 5.4 4 6.3 2.1.9 1.4 1.7 1.4 1.7s-2 4.2-2 6.1c0 2 .3 2.4-.9 1.7-1.1-.7-2.6-1.1-3-3.2-.4-2.1-1.6-2.8-3.6-2.4s.6 2.9.6 2.9l.2.9s-4.1-.3-5.3-1.9c-1.2-1.5-2 .1-1.9 2 0 0-1.1 2.6.5 3.6 0 0-.5 1.9.3 2.4s2.8.7 2.8.7.2 1.9 7.5.5l2.9 2 .2 4s-9.3-1.1-11.4 3.3c-2.1 4.4 6.7 11.2 6.7 11.2l.5 1.4s-1.1 1.1-1.7.7-1.2-1.1-2.5-1.3c-1.3-.1-3.8 1.6-3.8 1.6s-3.2-.1-3.2 1.6c-.1 1.7 1.3 3.4 1.3 3.4h20s.5-4.2-.8-7.2-2.3-4.4-2.3-6.5c0 0 2.7 4.3 7.4 3.9s4.5-1.8 4.5-1.8-.2 3.3-2.6 6.9-1.1 4.8-1.1 4.8h1.1z"/>
		</g>
		<g id="avatar-16">
			<path fill="#9884B4" d="M0 0h100v100H0z"/>
			<path fill="#FFFFFF" d="M25.6 77.6h46.1s6-1.6 5.3-22.1C76.2 35 74.9 38.4 75.4 33c.5-5.3 1.7-9.8 0-9.5-1.7.3-2.7 5.5-2.9 6.7 0 0-3.8-.3-4.8.9 0 0-4.2-6.4-5.7-5.3-1.6 1.1 2.4 6.1 2.7 7.4s1.2 8.8.6 12.7c0 0-2.6 1.9-3.2 3.4 0 0-2.6-9.2-7.2-7.5 0 0-10.9-12.8-18.2-5.7 0 0-10.5-2.3-11.1 0-.6 2.3 0 5.7 0 5.7s-.9 3.3 1.6 5.8c0 0-.6 7.8 4.2 10.2 0 0-2.3 7.5 2.3 10.6 0 0-8.6 4.3-12.4 3.6s-4.2.5-1.9 2.4c2.2 2 6.2 3.2 6.2 3.2z"/>
		</g>
		<g id="avatar-17">
			<path fill="#DFB231" d="M0 0h100v100H0z"/>
			<path fill="#FFFFFF" d="M30.1 73.3s1.1 1.5 3.1 1.8c2 .3 21.9.5 21.9.5s11-3.8 11.2-13.8c0 0 3.2 2.4 6.4 0s4.1-6.2-1.3-11.7c0 0-.1-1.4 1.4-1.4s4.3.8 4.4-1.1c.1-1.9-2.6-3.4-4.5-3s-3.1 2-4.2 4-3.7 2-4.1 4.7c0 0-3.5-5.2-8.9-3.2 0 0-1.5-28.4-15.2-24.1 0 0-4.2 1.3-5.1 7.2 0 0-15.8-3.8-16.9 4.6s6 17.3 18.2 16.9c0 0-10.3 7.5-8.6 15.9L25.5 73l4.6.3z"/>
		</g>
		<g id="avatar-18">
			<path fill="#875131" d="M0 0h100v100H0z"/>
			<path fill="#FFFFFF" d="M15.8 71.2S13.4 27.8 30.5 26c0 0 .4-1 1.4 2 1.1 3 5.7 16.9 6.8 16.6 1.2-.2 2.7-1.9 2.7-1.9s-1.8-4.3-.4-8.6c0 0-3.7-4.9-2.3-7.8s6.9 4 6.9 4 3.1-1.3 5.4.1c0 0 5.6-5.1 7.3-3.9 1.7 1.3-3 8.5-3 8.5s1.5 3.1-.7 8.8c0 0 .9 2.1 2.2 1.8 1.3-.3 2.2-.7 3-2.9.8-2.2 5.2-14.8 6.3-15.2s3.5-1.7 6.7 2.1 8.1 9.3 7.4 43.4c0 0-.7.8-.9 0-.2-.8-.8-7.9-4.2-7.3-3.5.5-3.7 2-3.7 2s-.7 1-1.1-.4-.7-4.6-2.5-5c-1.8-.4-3.2 1-3.2 1s-.9 1.3-1.5 0-1.4-2.5-3.2-3.1c-1.8-.5-2 1.1-2.6 2.2s-2.5 3.9-2.8 3.9c-.3 0 0 4.5 0 4.5s4.3-.5 4.3 4.9h-8.4V69l-2.3.9-2.4-.9v6.6h-9.6s-.8-6.2 5.1-5.1v-4.3s-2-3.1-2.7-5.5c-.7-2.4-3.4-.6-3.8.1s-1.5 2.5-2.1 2.5-2.2-3.1-3.7-2.1c-1.5 1.1-2.6 2-2.9 4.2-.3 2.2-1.5 1.7-1.9 1.2-.4-.5-3.4-3.7-5-1.5s-2.2 4.8-2.2 4.8-.6 3-1.1 1.3z"/>
		</g>
		<g id="avatar-19">
			<path fill="#DB8A34" d="M0 0h100v100H0z"/>
			<path fill="#FFFFFF" d="M35.1 68.9s-11.6-6.5-11.4-17.6c.2-11 14.2-14.5 16-16 1.8-1.5 2.3-1.9.8-4.2-1.5-2.3-5.1-5.5-2.1-7.3s8.7-.1 10.1 4.8 2.1 8.5-6.2 13.9S27.4 53 35.4 58.9c0 0-.3-7.5 4.7-12.5s10.5-10 10.7-11.6-1-14.1 8.2-13.9c0 0 2.6-8.2 3.6-6s1.5 6 1.5 6 3 .5 3.5 1.5.7 2.4 2.1 3.3c1.3.8 3.5.2 2.9 3 0 0 .6 4.2-3.9 5-4.5.7-6.7 2.2-6.5 4 .1 1.8.2 5.6.2 5.6s7.9 5.8 7.9 7.1.7 8.5-.8 8.7c-1.6.2-4.4.3-4.6-2.2-.2-2.5.4-2.6.4-2.6L61.7 52s-.8 7-4.1 10.2c0 0 3.6 6.2-1.5 13.3l4 6.5s6.9-1.2 6.7 4.4h-9.9L47 76.2s-.8-3.5-.5-4.2c.4-.7-3.2 5.1-6.1 6.2 0 0 1.7 4.4 1.9 4.7.2.4 5 .4 5 3.5H36.4s-1.6-4.2-2.2-5.6c-.6-1.3-1.6-5.8-1.3-7.3s2.2-4.6 2.2-4.6z"/>
		</g>
		<g id="avatar-20">
			<path fill="#EB3465" d="M0 0h100v100H0z"/>
			<path fill="#FFFFFF" d="M67.5 85.9s-.3-7.3-4.1-11.7c-3.8-4.4-3.3-3.5-2.4-4.4 0 0 2.8 2.9 5.8.7 3-2.3 2.7-8.1 0-8.4-2.7-.3-4.7 2-5.1 1.6l-.3-.3-.8-2.8s-4.4-10.7-6.2-12.2c-1.8-1.6-2.4-2-2.1-2.8.3-.8 2.1-1.5.9-9.4 0 0-1.1-2.2-1.3-3-.2-.8-.1-1.3.3-1.4.3-.1 5.9-3.4 7.9-6.9 2-3.5 2.1-7.4 1.4-8.4s-3.1-1.8-7.2 2.2c0 0 1-4.7-.3-4.8s-6 2.2-7.4 6.9c-1.4 4.7-1.6 8.3-1.6 8.3s-5.4 1.4-7.6 4.6-3.5 5.6-4 5.9c-.5.3-2.1 1.3-1.1 2.9s3.4 3.8 7.4 4.6c0 0-1.1 2.3 1.8 2.8 0 0-2.1 3.2-2.5 7.8 0 0-5.5-1.3-6.6.6-1.1 1.9-1.7 5.7-.5 7.2C33 67 35 64.1 35.2 63c.2-1.1.3-1.7.3-1.7s2.1 1.1 2.9 1.1c0 0-2.7 6.7 2.5 12.6l.6 1.5-.3 3.3s-9.2 1-7.9 5.7l.7.5h12.2s1.2-2.4.5-5.1-.8-3.3-.8-3.3 5.8 1.8 9.2-3.1c0 0 3.6 2.9 4 4.8 0 0-10.1.5-7.3 6.6h15.7z"/>
		</g>
		<g id="avatar-21">
			<path fill="#2B1752" d="M0 0h100v100H0z"/>
			<path fill="#FFFFFF" d="M78.3 60.1c.3 0 .7-.1 1-.2 1.4-.5 2-2.1 1.5-3.4-4.9-12.6-4.9-12.6-5.7-13.2-.7-.5-1.2-.6-2.2-.5.5-.7.7-1.5.4-2.3l-3.2-10.7c-.2-.8-.9-1.5-1.7-1.7-.8-.3-1.7-.2-2.4.3-1.2.8-2.3 1.6-3.5 2.3-.4.3-1.1.9-1.5.9-.4 0-.8-.5-1-.9-2.1-3.6-5.6-6.6-10-6.6-1.9 0-3.8.6-5.4 1.6-1.8 1.2-3.3 2.9-4.5 4.7-.4.7-.7 1.5-1.6 1-.7-.3-1.2-.9-1.8-1.3-.9-.6-1.9-1.3-2.8-1.9-.7-.5-1.6-.6-2.4-.3-.8.3-1.4.9-1.7 1.7l-3.2 10.7c-.3.8-.1 1.7.4 2.3-1-.1-1.5 0-2.2.5-.7.6-.7.6-5.7 13.2-.5 1.4.1 2.9 1.5 3.4.3.1.6.2 1 .2.7 0 1.4-.3 1.9-.8l-3.5 13c-.4 1.4.5 2.9 1.9 3.3.2.1.5.1.7.1 1.2 0 2.2-.8 2.6-2l1.6-5.8c0 .1 0 .2.1.3.2.9.9 1.6 1.8 1.9l12.7 3.7c1.4.4 2.9-.4 3.3-1.8.4-1.4-.4-2.9-1.8-3.3-2.5-.7-5-1.4-7.4-2.2-.9-.3-.4-.8.1-1.3.8-.8 1.6-1.6 2.4-2.3 1.2-1.1 2.3-2.3 3.5-3.4.3-.3 1.2-1.4 1.5-1.2.4.2.2 1.3.2 1.6-.1.6-.2 1.2-.2 1.8 0 1.7.5 3.5 1.4 4.9.4.7.9 1.3 1.6 1.8.6.5 1.2.8 1.2 1.7 0 .7.2 1.4.5 2 .1.3.9 1.4 1.3 1.3.3-.1.2-.6.2-.8 0-.4 0-.8.2-1.2.1-.4.6-.2.9-.2.6 0 .6.2.7.8.1.5-.2 1.7.6 1.2 1-.7 1.5-1.9 1.5-3.1 0-.3-.1-.7.2-1 .2-.2.7-.4.9-.6.6-.5 1.1-1.1 1.6-1.8.9-1.5 1.4-3.2 1.4-5 0-.6-.1-1.2-.2-1.8-.1-.4-.4-1.4.1-1.5.4-.1.8.4 1 .6.5.5 1 1 1.6 1.5 1.2 1.2 2.5 2.4 3.7 3.6.4.4 1.8 1.3 1.6 2-.2.5-1.5.7-2 .8-.9.3-1.7.5-2.6.8-1.1.3-2.1.6-3.2.9-1.4.4-2.2 1.9-1.8 3.3.4 1.4 1.9 2.2 3.3 1.8l12.7-3.7c.9-.3 1.6-1 1.8-1.9 0-.1 0-.2.1-.3l1.6 5.8c.3 1.2 1.4 2 2.6 2 .2 0 .5 0 .7-.1 1.4-.4 2.3-1.8 1.9-3.3l-3.5-13c.3.8 1 1.1 1.7 1.1zm-12.4-25c.4.2.5 1 .6 1.4.2.8.5 1.6.7 2.4.3 1 .6 2.1.9 3.1.2.6.5 1.1 1 1.4-.8.1-1.6.3-2.6.4-.8.1-1.5.4-2.3.5-.3 0-.9.2-1.1 0-.4-.2-.1-1.2-.1-1.6 0-1-.1-2.1-.2-3.1-.1-.5-.1-1-.2-1.5-.1-.3-.2-.7 0-1 .2-.3.7-.4.9-.6.4-.3.9-.6 1.3-.8.2-.1.4-.4.7-.4.2-.2.3-.2.4-.2zM31.8 42l.9-3c.2-.8.5-1.6.7-2.3.1-.4.2-1.5.7-1.6.4-.1.9.4 1.2.6.5.3 1 .7 1.5 1 .5.3.6.4.6 1.1 0 .6-.2 1.2-.3 1.8-.1 1-.2 2.1-.2 3.1 0 .5 0 .9-.2 1.4-.2.6-1 .2-1.4.1-.7-.1-1.3-.2-2-.4-1-.2-1.8-.3-2.6-.4.5-.3.9-.8 1.1-1.4zm-5.6 11.3l1.2-3c.3-.6.4-1.7 1.3-1.8.6 0 1.3.2 1.9.3.8.1 1.5.3 2.3.4 1 .2 1.9.3 2.9.5l1.5.3c.5.1.9.5 1.1.9.2.3.5 1 .5 1.4-.1.7-1.3.4-1.8.5-.9 0-1.7.1-2.6.1-2.4.1-4.8.2-7.1.2-.5-.1-.9 0-1.2.2zm1.4 12.4l-.3.3.9-3.3c.2-.8.5-1.7.7-2.5.1-.5.1-1.6.6-2 .2-.1.5-.1.7 0h1.4c.5 0 3.2-.4 3.3.1 0 .2-.1.3-.2.4-.1.2-.3.3-.5.5l-1 1c-1.8 1.8-3.7 3.7-5.6 5.5zm44.8 0L64.6 58c.9 0 1.7.1 2.6.1.8 0 1.7-.1 2.5 0 .4.1.8.2 1 .5.2.3.2.7.3 1 .4 1.6.9 3.3 1.3 4.9.1.5.3.9.4 1.4-.1 0-.2-.1-.3-.2zm.3-12.7c-2.3-.1-4.6-.1-6.8-.2-.9 0-1.9-.1-2.8-.1-.5 0-1.2.1-1.7-.1-.4-.2-.1-.5 0-.8.3-.7.4-1.4 1.2-1.7 1-.4 2.3-.5 3.4-.7 1-.2 2-.4 3.1-.5l1.5-.3c.4-.1.9-.1 1.3.1s.5.7.6 1.1c.5 1.2.9 2.3 1.4 3.5-.4-.2-.8-.3-1.2-.3z"/>
		</g>
		<g id="avatar-22">
			<path fill="#3C58AC" d="M0 0h100v100H0z"/>
			<path fill="#FFFFFF" d="M82.1 27.3c-.4-1.2-7.7-2.1-16.9 3.9S51.4 45.6 51.4 45.6c0-4.5-1.3-3.8-1.3-3.8H50s-1.3-.7-1.3 3.8c0 0-4.6-8.4-13.8-14.4-9.2-6-16.5-5.1-16.9-3.9-.4 1.2.1 8.7 4.6 16.9C27 52.5 34.4 54 34.4 54s-7.7.8-7.7 4.3 2.9 8.8 5.1 10.5c0 0 .4 1.3 0 2.1s1.7 2.9 5 2.4 5.1-4.1 6.6-7c1.4-2.9 4.3-6.8 4.3-6.8s.8 6.2 2.2 6.6h.2c1.4-.4 2.2-6.6 2.2-6.6s2.9 3.9 4.3 6.8 3.3 6.4 6.6 7c3.3.5 5.4-1.6 5-2.4-.4-.8 0-2.1 0-2.1 2.2-1.7 5.1-7 5.1-10.5S65.6 54 65.6 54s7.5-1.6 11.9-9.8c4.5-8.3 5-15.7 4.6-16.9z"/>
		</g>
		<g id="avatar-23">
			<path fill="#BDB74C" d="M0 0h100v100H0z"/>
			<path fill="#FFFFFF" d="M36.6 82.4h29.2s-1.4-5-8.1-4.6c0 0 1.5-5.9-4.5-8.5 0 0 3.7-6.3 5.5-15.4 0 0 2.4.4 3.2 3.2s.8 4 2.6 3.8 3.7-9.3-1-13.3c0 0 1.2-1.2 1.7-5.5l-.5-3.6s1.8-5.4 1.8-7.2c0 0 6.2.6 8.2-.5s.6-2.6 0-2.8-2.9-9.7-11.4-9c0 0-3.3-3.2-4.4-.9s-1 2.3-1 2.3-3.1 1.8-3.8 6.5-.9 12.3-7 19.1S35.4 60.6 38 78.4c0 0-13.4-10.5-13.6-8.5s5.9 10.6 12.2 12.5z"/>
		</g>
		<g id="avatar-24">
			<path fill="#C7A4B3" d="M0 0h100v100H0z"/>
			<path fill="#FFFFFF" d="M51.7 85.9h4.1s.8-2.8 1.5-2.4c.8.4 2.3 2.4 2.3 2.4h4.7s-6.2-9.4-11.5-13.3c0 0 6.3-12.3 7.7-21.4 0 0 4 2.7 4.9 2.4s2-1 1.4-2.4l-.5-1.4s2.1-.2 3.7 0 2.6 0 1.1-1.7-4.5-7.2-9.3-4c0 0-.3-5.7 0-6.6.3-1-.8-2.3 6.9-6.3s7.3-2.9 7.7-4 .5-5.8 0-5.9-2.6 0-2.6 0-2.7-.2-4.7-1.6c-2-1.4-9.5-3.4-12.4-1.7-2.9 1.6-.8-2.6-.8-2.6s.8-1.6 0-1.3-7 1.3-6.8 8.8c0 0-.3 1.2-2 2.1-1.6.9-14.7 5.9-18.9 18.8s-.3 22.1-1.7 23.8c-1.4 1.7-3.6.8-3.3 1.4.3.7 2.5 3.7 7.2.9 0 0 3 5 3 10.1s-.5 6.1-.5 6.1h6.3l.5-3.4 3.4 3.4h4.5l-5.1-7.8c0-.2 7.7-1.1 9.2 7.6z"/>
		</g>
		<g id="avatar-25">
			<path fill="gray" d="M0 0h50v50H0z"/>
			<path fill="#FFFFFF" d="M17.7 41.5h7.5s1.4-.4.8-1.4c-.6-1-1.1-1.1-1.4-1.3-.4-.1-.6-.4-.6-.4s-.2-.4.4-.5c.7 0 1 0 1.3.3.3.3 2.1 1.1 2.2 1.4.1.3.3 1.5.3 1.5h6.9s.5-1.9-.6-2.7-1.9.4-3.4-1.3c-1.5-1.7-2.4-1.9-1.6-4.2.8-2.3 3.2-5.1 4.4-4.7 1.2.4 1.4.9 1.8 1.2s1.3.2 2.3-1.2c.9-1.4-.2-3.1-1-3.1s-4 .4-4.4.4-.6-.2-.6-.6c.1-.4 1.3-1.9.4-2.8-.9-.9-1.5-.6-1.4-.8 0-.3-.2-1.3 1.4-1.4 1.6-.2 2.5.5 3.5-.3 1.1-.8 1.3-1.8.5-1.9-.8 0-2.1 0-2.9-.9-.8-.9-1.8-1.3-1.9-1.9 0-.6-.2-1.8-1.1-1.9-.9-.1-1.5-.4-1.4-1.1.1-.8 0-1.6.4-1.8s1.3-1.3-.3-.8-2.8.7-4.4 2.4-2.7 3.8-3 4.1c-.3.4-.8.6-.6 1.1.2.4 2.1 2.9 1.7 7-.4 4.1-1.7 6.6-2 6.2-.3-.4 0-3.8-.8-5.1-.8-1.3-4-2.6-3.4-4.6s1.9.3 2-.9c0-1.2-.8-2.9-2.9-2.1s-5.9 3.7-4.9 8.3 2.4 5.6 4.2 7.1c1.7 1.5 4.7 2.4 4.4 3.2-.4.8-2.4 4-2.2 4.6-.1.4 0 .9.4.9z"/>
			<path fill="#BABABA" d="M50 50h50v50H50z"/>
			<path fill="#FFFFFF" d="M55.7 90s7.8-6.5 10-8.1c0 0 .1-2.8 3-4.8S81.2 68.5 81 65.4c-.2-3.1-3.6-4.3-2.1-4.8s7.9.2 8.3 1.8c.4 1.6 1.4 2.3 1.9 2.3s4 1.7 2.7 2.3-3.2.9-3.9 1.2c-.7.3 1.9 9.6-3.4 13.1-5.3 3.6-6.2 4.4-5.8 4.9s.7 2 1.1 1.9c.5-.1 3.9-1.1 4.9-.1.9 1 .8 2.4.8 2.4H74.9s-.7-1.3.3-1.5c.9-.2 1.4-1.7.2-2.3-1.2-.7-3.9-.3-5.1-1.2-1.1-.9-1.7-.4-1.7-.4s-3.2 4.7-4.6 5c-1.4.3-2.4.5-2.5 0-.1-.5.3-1.2.3-1.2s-.4.7-2.1.9c-1.7.2-4 .3-4 .3z"/>
			<path fill="#4E4E4E" d="M50 0h50v50H50z"/>
			<path fill="#FFFFFF" d="M78.2 37.8c-.2-.4-1-2.5.7.2s3 2.9 6.8 2.6c3.8-.3 7.1-3.9 5.5-6.2-1.5-2.2-9.5-2.4-10.9-2.4s-.9-1.3-1.5-5.6-5.4-7.2-6.7-7.9-.6-2.6-.7-4.2c-.1-1.6-.4-4.4-4.5-5.3-4.2-.8-6.3 3.5-6.3 3.5s-.5.5-2.1.6c-1.7.1-2.6 1.5-2.6 1.9 0 .4 1 1.8 2.6 2.4 1.5.6 5.3.3 5.3.3 1.1 1.1 1.9 3.7.7 4.1-1.2.4-3.1-.1-3.8-.6-.7-.5-1.4 2-1.6 2.4-.2.4.4.5 0 1.2s1.7 3.5 2.1 3.7c.4.3 1.2-.9 1.7-1.5s1.2-.5 2-.4c.8.1.6.5.9 2.7.3 2.2 2.1 5 2.1 5.5S67 36 66 36.4c-1.1.4-2.6 2-2.6 2.1-.1.2-.3.8-.7 1.4s0 1.3 0 1.3h7.1s.7-1.7 1-2.4c.3-.6.3-.9.6-1.2.4-.3 1.6-.2 1.9.2.3.4-.4.9-1 1.6s0 1.8 0 1.8h6.6c.3-.5-.5-3-.7-3.4z"/>
			<path fill="#595959" d="M0 50h50v50H0z"/>
			<path fill="#FFFFFF" d="M63.4 43.3c-.2-.5-3.1-.8-6.8 1.6-3.7 2.4-5.5 5.8-5.5 5.8 0-1.8-.5-1.5-.5-1.5h-.1s-.5-.3-.5 1.5c0 0-1.8-3.4-5.5-5.8s-6.6-2-6.8-1.6c-.2.5.1 3.5 1.8 6.8 1.8 3.3 4.8 3.9 4.8 3.9s-3.1.3-3.1 1.7 1.2 3.5 2 4.2c0 0 .2.5 0 .8-.2.3.7 1.2 2 .9 1.3-.2 2-1.6 2.6-2.8.6-1.2 1.7-2.7 1.7-2.7s.3 2.5.9 2.6c.6-.2.9-2.6.9-2.6s1.2 1.6 1.7 2.7c.6 1.2 1.3 2.6 2.6 2.8 1.3.2 2.2-.6 2-.9-.2-.3 0-.8 0-.8.9-.7 2-2.8 2-4.2 0-1.4-3.1-1.7-3.1-1.7s3-.6 4.8-3.9c2.1-3.3 2.3-6.3 2.1-6.8zM15.1 90h8s.2-1.6-.3-2.2c-.6-.6-1.1-1.1-1-1.6.1-.4 1.3-1.6 1.3-1.6s2.2 1.2 2.2 1.9-.8 2.2-.7 3.6h9.9s-.3-2.6-1.5-3.1-1.6 0-2-.2-1-1.1-1-1.1 1.4-2.1 1-3.5c-.4-1.3-.5-1.9-.2-2s1.7-1.2 1.9-1.3c.2 0 2.7 0 2-2.6-.7-2.6-2-2.6-2.1-2.4-.2.1-1 1.2-1.5 1.3-.5.1-.9.4-.9.4s-.5-2.5.5-3.2c1-.8 1.3-1.4 2-1.6.8-.2 3.4.1 2.9-2.4 0 0 0-.4-.8-.4-.9 0-2.5-.3-2.5-.3s-2.8-2.9-3-3.3c-.2-.4-.2-2.4 1-2.6 1.1-.2 1.8 0 1.8 0s.1-1.8-2.1-2-3.2.1-4.2-.2c-1-.3-2.5-2-4-1.9 0 0 .6 1.1.6 1.6 0 0-5-.7-6.9 1.2 0 0 1.8.3 2.1.6 0 0-3.9 2.3-4.7 4.9h1.9s-3.4 2.6-4.2 6.2c0 0 .9-.5 1.7-.6 0 0-2.1 3.9-1.1 6.6 0 0 .7-1.1 1.5-1.3 0 0-.4 6.1 1.1 7.8 0 0 .6-1.5 2-2.8 0 0 1 .9 1 2 .1 1.1.3 1.8 0 2.2-.4.2-1.8 1.2-1.7 3.9z"/>
		</g>
	</defs>
</svg>
