<?xml version="1.0" encoding="utf-8"?>
<!-- Generator: Adobe Illustrator 25.3.1, SVG Export Plug-In . SVG Version: 6.00 Build 0)  -->
<svg version="1.1" xmlns="http://www.w3.org/2000/svg" xmlns:xlink="http://www.w3.org/1999/xlink" x="0px" y="0px"
	 viewBox="0 0 130 50" style="enable-background:new 0 0 130 50;" xml:space="preserve">
<style type="text/css">
	.st0{fill:#9EC5E7;}
	.st1{fill:#FFFFFF;}
	.st2{fill:#3A7CA5;}
	.st3{fill:#44BBA4;}
	.st4{fill:#F2E863;}
	.st5{fill:#F45B69;}
	.st6{fill:#E6E6F5;}
	.st7{display:none;}
	.st8{display:inline;}
	.st9{display:inline;fill:none;stroke:#000000;stroke-miterlimit:10;}
	.st10{fill:#DA70D6;}
	.st11{fill:#008080;}
	.st12{fill:#D2691E;}
	.st13{fill:#4682B4;}
	.st14{fill:#B22222;}
	.st15{fill:#DFB231;}
	.st16{fill:#FF6347;}
	.st17{fill:#9370DB;}
	.st18{fill:#3C58AC;}
	.st19{fill:#7CC44F;}
	.st20{fill:#040303;}
	.st21{fill:#FCBF00;}
	.st22{fill:#D70027;}
	.st23{fill:#EA384D;}
	.st24{fill:#BFB8B8;}
	.st25{fill:#F8EFEF;}
	.st26{fill:#FE2A25;}
	.st27{fill:#FE9A00;}
	.st28{fill:#FEE901;}
	.st29{fill:#FEF6A5;}
	.st30{fill:#FEF05C;}
	.st31{fill:#FEFDFD;}
	.st32{fill:url(#SVGID_1_);}
	.st33{fill:#D40000;}
	.st34{clip-path:url(#SVGID_3_);}
	.st35{fill:url(#SVGID_4_);}
	.st36{clip-path:url(#SVGID_6_);}
	.st37{fill:url(#SVGID_7_);}
	.st38{fill:#008C72;}
	.st39{clip-path:url(#SVGID_9_);}
	.st40{clip-path:url(#SVGID_11_);}
	.st41{clip-path:url(#SVGID_13_);}
	.st42{clip-path:url(#SVGID_15_);}
	.st43{clip-path:url(#SVGID_17_);}
	.st44{clip-path:url(#SVGID_19_);}
	.st45{fill:#575757;}
	.st46{clip-path:url(#SVGID_21_);}
	.st47{fill:url(#SVGID_22_);}
	.st48{fill:none;stroke:#FFFFFF;stroke-miterlimit:10;}
	.st49{display:inline;fill:#5C3400;}
	.st50{fill:none;}
	.st51{fill:#5C3400;}
	.st52{display:inline;fill:none;}
	.st53{display:inline;fill:#FFFFFF;}
	.st54{display:none;fill:#FFFFFF;stroke:#000000;stroke-miterlimit:10;}
	.st55{display:inline;fill:#FFFFFF;stroke:#000000;stroke-miterlimit:10;}
	.st56{display:none;fill:#F2F25F;}
	.st57{display:inline;fill:#F2F2F2;}
	.st58{display:inline;fill:#E6E6E6;}
	.st59{display:inline;fill:#808080;stroke:#000000;stroke-miterlimit:10;}
	.st60{fill:#808080;stroke:#000000;stroke-miterlimit:10;}
	.st61{display:inline;fill:#808080;}
	.st62{fill:#29E257;}
	.st63{fill:#E2DC29;}
	.st64{fill:#29ABE2;}
	.st65{fill:#E22929;}
	.st66{fill:#E6E6E6;}
	.st67{fill:#F2F2F2;}
	.st68{fill:#F9C303;}
	.st69{fill:#3A3939;}
	.st70{fill:#FF0000;}
	.st71{fill:#FEFEFD;}
	.st72{fill:#181D44;}
	.st73{fill:#F7931E;}
	.st74{fill:#A45467;}
	.st75{fill:#C33F48;}
	.st76{fill:#866A86;}
	.st77{fill:#6780A4;}
	.st78{fill:#4895C3;}
	.st79{fill:#4D4D4D;}
	.st80{opacity:0.2;}
</style>
<g id="Layer_1">
	<g>
		<path class="st1" d="M31.6,8.3c3.6,1.3,5.1,4.6,5.1,8.1c0,5.5-3.8,11.9-9.9,13.3c2.8,2.9,6,8.6,8.4,8.6c0.6,0,1.2-0.4,1.7-1.3
			c0.2-0.4,0.5-0.5,0.8-0.5c0.5,0,1.1,0.4,1.1,1.1c0,0.1-0.1,0.4-0.1,0.5c-1,1.8-2.6,2.7-4.3,2.7c-1.5,0-3-0.6-4.2-1.7
			c-3-2.7-4.4-5.6-4.6-5.6c-0.1,0-0.1,0.1-0.1,0.1c0,0.6,0.5,2.7,1.3,7.4c0,0.2,0.1,0.4,0.1,0.6c0,1.5-1.1,2.7-2.8,2.7
			c-0.2,0-0.4,0-0.7-0.1c-2-0.3-4.5-8.1-4.5-17.6c0-4.2,0.5-8.8,1.8-13.2c0.4-1.5,1.5-2.1,2.6-2.1c1.5,0,3.2,1.2,3.2,3.1
			c0,0.1,0,0.4-0.1,0.6c-0.6,3.3-1.1,6.5-1.3,9.7c4.1-2.5,5.7-5.5,5.7-8.1c0-3.5-2.8-6.4-5.6-6.5h-0.3c-4.4,0-9.1,4.4-9.1,9
			c0,0.9,0.2,1.8,0.6,2.7c0.1,0.1,0.1,0.3,0.1,0.4c0,0.6-0.4,1.1-0.9,1.1c-0.1,0-0.4-0.1-0.5-0.1c-1.5-0.7-2.1-2-2.1-3.7
			c0-4.8,5.5-12.1,13.5-12.1C28,7.3,29.8,7.6,31.6,8.3z"/>
		<path class="st1" d="M49,22.7c1.8,2.4,2.6,5.3,2.6,7.9c0,5.5-3.1,10.4-6.9,10.5h-0.1c-4.6,0-6.7-4.3-6.7-8.8
			c0-3.3,1.1-6.8,3.2-8.9c-0.6,0-0.8-0.3-0.8-0.7c0-1,1.8-2.7,4.1-2.7C45.8,19.9,47.5,20.6,49,22.7z M42.1,22.6
			c0.9-0.6,1.7-0.8,2.4-0.8c1.5,0,2.5,1.3,2.5,2.5c0,0.2,0,0.4-0.1,0.6c-0.6,2.5-2.7,4.1-2.9,6.8c0,0.3-0.1,0.7-0.1,1.1
			c0,0.8,0.1,1.5,0.5,2c0.3,0.4,0.7,0.4,1.2,0.4c0.6,0,1.3-0.2,1.8-0.5c1.7-1,2.5-3.2,2.5-5.6c0-3.4-1.5-7-4.3-7.7
			c-0.3-0.1-0.6-0.1-0.8-0.1C43.6,21.2,42.6,21.7,42.1,22.6z"/>
		<path class="st1" d="M59.9,23.2v0.4c-0.3,2.1-1.2,6.3-1.2,9.4c0,1.8,0.3,3.2,1.1,3.7c0.1,0.1,0.3,0.1,0.4,0.1
			c1.3,0,2.9-4.1,4.1-7.9c0.1-6,2-7.9,3.6-7.9c1.4,0,2.7,1.3,2.9,2.7c0,0.4,0.1,0.6,0.1,0.9c0,1.6-0.4,2.8-0.4,5.5
			c0,1.2,0.1,2.8,0.4,4.8v0.8c0,0.7,0.1,1.3,0.8,1.3c0.1,0,0.2-0.1,0.4-0.1c1.9-0.4,3.6-6.5,4-8.3c0.1-0.2,0.2-0.4,0.4-0.4
			s0.4,0.2,0.4,0.4v0.1c-0.8,3.5-2.3,11.2-7,11.2c-0.4,0-0.8-0.1-1.3-0.2c-3.1-0.8-3.7-3.9-3.9-6.7c-2,5.7-4.6,8.1-6.8,8.1
			c-2.7,0-4.9-3.6-4.9-9.4c0-2.6,0.4-5.6,1.5-9c0.4-1.3,1.8-2,2.9-2C58.6,20.8,59.9,21.6,59.9,23.2z"/>
		<path class="st1" d="M80.6,20.6c0.1,0.5,0.1,0.9,0.1,1.4c0,2.5-1,4.9-1,7.7v0.8c1.7-5.3,4.1-11.4,7.6-11.4c0.6,0,1.4,0.2,2.2,0.7
			c2.3,1.5,3,5.2,3,8.8c0,4.6-1.1,9-1.1,9c0.1,0,3.7-4.8,4.8-8.5c0.1-0.3,0.3-0.4,0.6-0.4c0.3,0,0.6,0.2,0.6,0.6v0.1
			c-0.6,2.8-3.1,9.1-5.5,10.2c-0.4,0.1-0.7,0.2-1.1,0.2c-2.6,0-4.2-3.9-4.5-5.9c-0.1-0.5-0.1-1.1-0.1-1.7c0-1.2,0.1-2.5,0.1-3.8
			c0-1.9-0.1-3.7-0.7-5c-0.1-0.1-0.1-0.2-0.2-0.2c-1.1,0-4.3,7.9-4.8,15.6c-0.1,1.2-0.8,2-1.8,2c-1.9,0-4.7-2.9-5.1-10.2
			c-0.1-0.8-0.1-1.5-0.1-2.2c0-7.2,2.6-9.5,4.6-9.6C79.4,18.8,80.4,19.6,80.6,20.6z"/>
		<path class="st1" d="M111.3,5.7c1.4,0,2.9,1,2.9,2.5v0.2c-0.5,5-2.4,9.1-3.6,20.6c-0.2,1.9-0.3,3.4-0.3,4.6c0,2.5,0.4,3.5,1,3.5
			c1.1,0,3-3.6,4.5-8.5c0.1-0.4,0.4-0.5,0.7-0.5c0.4,0,0.7,0.2,0.7,0.6c0,0.1-0.1,0.1-0.1,0.2c-0.9,3.4-2.2,8.1-4.7,10.7
			c-0.8,0.8-1.6,1.2-2.5,1.2c-2.6,0-5.1-3.6-5.5-7.3c-2,5.1-4.1,7.1-5.8,7.1c-2.4,0-4.1-4.1-4.1-8.6c0-4.7,1.8-9.8,6.5-11.2
			c0.4-0.1,0.7-0.1,1-0.1c1.8,0,3.2,1.2,3.4,1.2h0.1c0.8-4.9,1.4-10.3,3.4-14.9c0.4-0.9,1.3-1.3,2.2-1.3H111.3z M99.7,35.1v0.5
			c0,0.2-0.1,0.4-0.1,0.6c0,0.4,0.1,0.7,0.4,0.7c1,0,3.9-4.8,4.9-11.1c-0.4-0.4-0.7-0.6-1.1-0.6C101.8,25.2,99.7,31.3,99.7,35.1z"/>
	</g>
</g>
<g id="avatars">
</g>
<g id="Time_Bomb">
</g>
<g id="Layer_4">
</g>
<g id="Layer_8">
</g>
<g id="Layer_6">
</g>
<g id="dial_svg">
</g>
<g id="Sheeps">
</g>
</svg>
