<?xml version="1.0" encoding="utf-8"?>
<!-- Generator: Adobe Illustrator 25.0.1, SVG Export Plug-In . SVG Version: 6.00 Build 0)  -->
<svg version="1.1" xmlns="http://www.w3.org/2000/svg" xmlns:xlink="http://www.w3.org/1999/xlink" x="0px" y="0px"
	 viewBox="0 0 130 50" style="enable-background:new 0 0 130 50;" xml:space="preserve">
<style type="text/css">
	.st0{fill:#3E1E68;}
	.st1{fill:#9EC5E7;}
	.st2{display:none;}
	.st3{display:inline;fill:#9EC5E7;}
	.st4{fill:#3A7CA5;}
	.st5{fill:#44BBA4;}
	.st6{fill:#F2E863;}
	.st7{fill:#F45B69;}
	.st8{fill:#FFFFFF;}
	.st9{opacity:0.9;fill:#FFFFFF;}
	.st10{stroke:#000000;stroke-width:8;stroke-miterlimit:10;}
	.st11{fill:#E6E6F5;}
	.st12{fill:#DA70D6;}
	.st13{fill:#008080;}
	.st14{fill:#D2691E;}
	.st15{fill:#556B2F;}
	.st16{fill:#7CC44F;}
	.st17{fill:#2F4F4F;}
	.st18{fill:#FF6347;}
	.st19{fill:#4682B4;}
	.st20{fill:#D2A467;}
	.st21{fill:#7FB5C7;}
	.st22{fill:#B22222;}
	.st23{fill:#9370DB;}
	.st24{fill:#778899;}
	.st25{fill:#663399;}
	.st26{fill:#696969;}
	.st27{fill:#20212E;}
	.st28{fill:#9884B4;}
	.st29{fill:#DFB231;}
	.st30{fill:#875131;}
	.st31{fill:#DB8A34;}
	.st32{fill:#EB3465;}
	.st33{fill:#2B1752;}
	.st34{fill:#3C58AC;}
	.st35{fill:#BDB74C;}
	.st36{fill:#C7A4B3;}
	.st37{display:inline;}
	.st38{display:inline;fill:none;stroke:#000000;stroke-miterlimit:10;}
	.st39{fill:#939598;}
</style>
<g id="Layer_1">
	<g>
		<path class="st8" d="M27.8,37.4c-0.4,0-0.6,0.1-0.8,0.5c-0.5,0.9-1.1,1.3-1.7,1.3c-2.5,0-5.6-5.8-8.4-8.6
			c6.1-1.4,9.9-7.7,9.9-13.3c0-3.6-1.5-6.8-5.1-8.1c-1.8-0.7-3.6-1.1-5.3-1.1c-8,0.1-13.5,7.3-13.5,12.1c0,1.7,0.6,3,2.1,3.7
			c0.1,0.1,0.4,0.1,0.5,0.1c0.5,0,0.9-0.5,0.9-1.1c0-0.1,0-0.3-0.1-0.4c-0.4-0.8-0.6-1.8-0.6-2.7c0-4.6,4.7-9,9.1-9h0.3
			c2.8,0.1,5.6,2.9,5.6,6.5c0,2.6-1.5,5.6-5.7,8.1c0.2-3.2,0.7-6.4,1.3-9.7c0.1-0.2,0.1-0.4,0.1-0.6c0-1.9-1.6-3.1-3.2-3.1
			c-1.1,0-2.2,0.6-2.6,2.1c-1.3,4.4-1.8,9-1.8,13.2c0,9.5,2.5,17.3,4.5,17.6c0.3,0.1,0.5,0.1,0.7,0.1c1.8,0,2.8-1.2,2.8-2.7
			c0-0.2-0.1-0.4-0.1-0.6c-0.8-4.8-1.3-6.9-1.3-7.4c0-0.1,0-0.1,0.1-0.1c0.2,0,1.6,2.9,4.6,5.6c1.2,1.1,2.7,1.7,4.2,1.7
			c1.8,0,3.4-0.8,4.4-2.7c0.1-0.1,0.1-0.4,0.1-0.5C29,37.9,28.3,37.4,27.8,37.4z"/>
		<path class="st8" d="M34.4,20.8c-2.3,0-4.1,1.8-4.1,2.7c0,0.4,0.2,0.7,0.8,0.7c-2.1,2.1-3.2,5.6-3.2,8.9c0,4.6,2.1,8.8,6.7,8.8
			h0.1c3.9-0.1,6.9-5.1,6.9-10.5c0-2.7-0.8-5.5-2.6-7.9C37.5,21.5,35.8,20.8,34.4,20.8z M37.3,35.6c-0.4,0.3-1.1,0.5-1.8,0.5
			c-0.5,0-0.9-0.1-1.2-0.4c-0.4-0.4-0.5-1.2-0.5-2c0-0.4,0.1-0.8,0.1-1.1c0.3-2.7,2.3-4.3,2.9-6.8c0.1-0.2,0.1-0.4,0.1-0.6
			c0-1.2-0.9-2.5-2.5-2.5c-0.7,0-1.5,0.2-2.4,0.8c0.5-0.9,1.5-1.3,2.5-1.3c0.3,0,0.6,0.1,0.8,0.1c2.7,0.7,4.3,4.4,4.3,7.7
			C39.8,32.4,39,34.6,37.3,35.6z"/>
		<path class="st8" d="M124.8,29.5c-0.3,0-0.5,0.1-0.6,0.4c-0.8,4.2-3.4,7.4-4.1,7.4h-0.1v-0.1c0-0.2-0.3-1.3-0.4-1.6
			c-0.1-0.7-0.2-1.4-0.2-2.1c0-2.8,1.1-5.7,1.8-8.3c0.1-0.2,0.1-0.4,0.1-0.6c0-1.5-1.4-2.9-2.9-2.9c-1.1,0-2.2,0.6-3,2.5
			c-0.7-1.8-3.4-3-5.3-3h-0.6c-4.9,0.6-7.4,8.4-7.4,12.6c0,0,0,0.1,0,0.1c-1.1,2.6-2.2,4.2-2.9,4.2c-0.6,0-1-1.1-1-3.5
			c0-1.2,0.1-2.7,0.3-4.6c1.2-11.5,3.1-15.6,3.6-20.6V9.1c0-1.5-1.5-2.5-2.9-2.5h-0.1c-0.9,0-1.8,0.4-2.2,1.3c-2,4.6-2.6,10-3.4,15
			h-0.1c-0.2,0-1.6-1.2-3.4-1.2c-0.3,0-0.6,0.1-1,0.1c-4.7,1.3-6.5,6.5-6.5,11.2c0,0.5,0,1,0.1,1.5c-1,1.8-2,2.9-2.5,2.9h-0.1v-0.1
			c0-0.2-0.3-1.3-0.4-1.6c-0.1-0.7-0.2-1.4-0.2-2.1c0-2.8,1.1-5.7,1.8-8.3c0.1-0.2,0.1-0.4,0.1-0.6c0-1.5-1.4-2.9-2.9-2.9
			c-1.1,0-2.2,0.6-3,2.5c-0.7-1.8-3.4-3-5.3-3h-0.6c-4.9,0.6-7.4,8.4-7.4,12.6c0,0,0,0.1,0,0.1c-1.1,2.6-2.2,4.2-2.9,4.2
			c-0.6,0-1-1.1-1-3.5c0-1.2,0.1-2.7,0.3-4.6c1.2-11.5,3.1-15.6,3.6-20.6V9.1c0-1.5-1.5-2.5-2.9-2.5h-0.1c-0.9,0-1.8,0.4-2.2,1.3
			c-2,4.6-2.6,10-3.4,15h-0.1c-0.2,0-1.6-1.2-3.4-1.2c-0.3,0-0.6,0.1-1,0.1c-4.7,1.3-6.5,6.5-6.5,11.2c0,4.5,1.7,8.6,4.1,8.6
			c1.7,0,3.7-2,5.8-7.1c0.4,3.7,2.9,7.3,5.5,7.3c0.8,0,1.7-0.4,2.5-1.2c0.9-1,1.7-2.2,2.3-3.5c0.7,2.1,2.1,3.5,3.9,3.5
			c2,0,4.4-1.8,6.6-6.1c0.1,2.8,1,5.1,3.4,6c0.6,0.2,1.2,0.3,1.7,0.3c2.1,0,3.5-1.6,4.6-3.6c0.7,2.6,2,4.4,3.6,4.4
			c1.7,0,3.7-2,5.8-7.1c0.4,3.7,2.9,7.3,5.5,7.3c0.8,0,1.7-0.4,2.5-1.2c0.9-1,1.7-2.2,2.3-3.5c0.7,2.1,2.1,3.5,3.9,3.5
			c2,0,4.4-1.8,6.6-6.1c0.1,2.8,1,5.1,3.4,6c0.6,0.2,1.2,0.3,1.7,0.3c4.5,0,5.9-7,6.9-10.4c0-0.1,0.1-0.1,0.1-0.2
			C125.5,29.7,125,29.5,124.8,29.5z M48.2,37.8c-0.2,0-0.4-0.3-0.4-0.7c0-0.2,0.1-0.4,0.1-0.6V36c0-3.9,2.1-9.9,4.1-9.9
			c0.4,0,0.7,0.1,1.1,0.6C52,32.9,49.2,37.8,48.2,37.8z M73.7,30.4c-1.1,2.4-3,5.5-4.3,5.5c-0.4,0-0.8-0.4-1-1.3
			c-0.1-0.2-0.1-0.4-0.1-0.7c0-3.1,3-9.4,5.1-9.4c0.6,0,1.1,0.5,1.3,1.8C74.8,26.6,74.2,28,73.7,30.4z M88,37.8
			c-0.2,0-0.4-0.3-0.4-0.7c0-0.2,0.1-0.4,0.1-0.6V36c0-3.9,2.1-9.9,4.1-9.9c0.4,0,0.7,0.1,1.1,0.6C91.9,32.9,89,37.8,88,37.8z
			 M113.6,30.4c-1.1,2.4-3,5.5-4.3,5.5c-0.4,0-0.8-0.4-1-1.3c-0.1-0.2-0.1-0.4-0.1-0.7c0-3.1,3-9.4,5.1-9.4c0.6,0,1.1,0.5,1.3,1.8
			C114.6,26.6,114.1,28,113.6,30.4z"/>
	</g>
</g>
<g id="avatars">
</g>
</svg>
