<svg xmlns="http://www.w3.org/2000/svg" viewBox="0 0 512 512">
  <defs>
    <symbol id="activities">
      <circle cx="256" cy="256" r="256" fill="#61bd4d"/>
      <path fill="#498f3a" d="m510 287.5-85.8-85.9-40.5-10.8-74-74S114.4 307.3 117 309.8l74 74 10.8 40.4 85.8 85.9a256.1 256.1 0 0 0 222.6-222.6Z"/>
      <path d="M183.2 168.4a87.3 87.3 0 0 1-7 7.8 85.8 85.8 0 0 1-7.9 7c-24.6 19.3-62.7 27-91.3 25.9a136.4 136.4 0 0 1 2.3-21c8.8.1 47.5-.5 74-19.8a65.5 65.5 0 0 0 14.9-14.9c19.3-26.5 20-65.1 19.8-74a135.4 135.4 0 0 1 21-2.3c.3 6.7 1.2 56.8-25.8 91.3Z"/>
      <path fill="#e06426" d="M349.4 204.4 277 276.9l-72.5 72.6a136.3 136.3 0 0 1-79.8-32.6l9.3-18.8-24.2 4A136 136 0 0 1 77.1 209l9.4-8.3-7.2-12.6a135.7 135.7 0 0 1 30.4-63.5s13.1 2.5 18.4 3.5c5 1 1.5 1.3-3.5-18.4A135.6 135.6 0 0 1 188 79.3l12.6 12L209 77a136 136 0 0 1 93 32.6l-3.7 17.3 18.6-2.4a136.2 136.2 0 0 1 32.6 79.9Z"/>
      <path fill="#cf3b0e" d="M349.4 204.4 277 276.9 128.1 128.1c5 1 1.5 1.4-3.5-18.4A135.7 135.7 0 0 1 188 79.3l12.6 12L209 77a136 136 0 0 1 93 32.6l-3.7 17.3 18.6-2.4a136.2 136.2 0 0 1 32.6 79.8Z"/>
      <path fill="#eabd3e" d="m228.2 213.3 31.4 31.4-7.5 7.5-7.4 7.4-31.4-31.4-88.7 88.7q-4-3.4-7.7-7.1t-7.2-7.7l88.8-88.8-30.1-30.1c-24.7 19.3-62.8 27-91.3 25.8a136.7 136.7 0 0 1 2.2-21c8.9.2 47.6-.5 74-19.8l-43.6-43.6q3.4-4 7.2-7.7t7.7-7.2l43.6 43.7c19.3-26.5 20-65.2 19.9-74A135.5 135.5 0 0 1 209 77v4.1c0 14.3-2 56.8-25.8 87.2l30.1 30.1 88.8-88.8q4 3.4 7.7 7.2c2.5 2.5 4.9 5 7.1 7.7Z"/>
      <path fill="#e69022" d="m228.2 213.3 31.4 31.4-7.5 7.5L117 116.9q3.7-3.8 7.7-7.2l43.6 43.7c19.3-26.5 20-65.2 19.9-74A135.4 135.4 0 0 1 209 77v4.1c0 14.3-2 56.8-25.8 87.2l30.1 30.1 88.8-88.8q4 3.4 7.7 7.2c2.5 2.5 4.8 5 7.1 7.7Z"/>
      <path fill="#eabd3e" d="M435 244.2c0-20.1-4-35.8-10.8-42.6-8.3-8.3-30-12.5-56.9-10.1l-14 14-8.6-10.7c-33 6.8-70 22.8-98.6 51.4s-44.6 65.5-51.3 98.6l11.5 8.8-14.8 13.8c-2.4 26.8 1.8 48.5 10.1 56.9s30 12.4 57 10.1l13.3-15.6 9.2 12.3c33-6.8 70-22.8 98.6-51.4s44.6-65.5 51.4-98.6l-12.6-10.8 15.9-11.8c.4-5 .6-9.8.6-14.3Z"/>
      <path fill="#e69022" d="m434.4 258.5-15.9 11.7 12.6 10.9c-6.8 33-22.8 70-51.4 98.6L246 246a196.1 196.1 0 0 1 98.6-51.3l8.5 10.6 14.1-14c26.9-2.3 48.6 1.8 56.9 10.2 6.8 6.8 10.8 22.5 10.8 42.6 0 4.5-.2 9.3-.6 14.3Z"/>
      <path fill="#e0e6f3" d="M434.4 258.5a196.1 196.1 0 0 1-3.3 22.6 73.5 73.5 0 0 1-86.4-86.3 195.1 195.1 0 0 1 22.6-3.4 52.5 52.5 0 0 0 67 67.1Z"/>
      <path fill="#f2f7ff" d="M281 431a196 196 0 0 1-22.5 3.4 52.5 52.5 0 0 0-67-67 198.4 198.4 0 0 1 3.2-22.7 73.4 73.4 0 0 1 86.4 86.4Z"/>
      <path fill="#4e5a61" d="m357.4 283.2-37 37.1-37.2 37.1-14.8-14.8 37-37.1 37.2-37.1Z"/>
      <path fill="#424b52" d="m305.4 305.5 37.1-37 14.9 14.8-37.1 37Z"/>
      <path fill="#4e5a61" d="m268.3 313 14.9-15 44.5 44.6-14.9 14.8Z"/>
      <path fill="#424b52" d="m298 283.2 14.8-14.8 44.5 44.5-14.8 14.9Z"/>
    </symbol>

    <symbol id="adult">
      <path fill="#414952" d="M512 256a256 256 0 1 1-512 0 256 256 0 0 1 512 0Z"/>
      <path fill="#23272b" d="M256.3 512A256 256 0 0 0 511.8 245L424 157.4l-105.7-14.6-36.3 76.8-56.4-56.3-83.6-24.7-60.3 36L94 276l42 41.9-18.3 14.1 23.3 23.4-5.5 6.1 41.3 41.8-17.5 11.1Z"/>
      <path fill="#e9edf5" d="M316.7 428.5H195.3a53.3 53.3 0 0 1-53.3-53.3V323h25v52.2a28.3 28.3 0 0 0 28.3 28.3h121.4a28.3 28.3 0 0 0 28.3-28.3V323h25v52.2a53.3 53.3 0 0 1-53.3 53.3Z"/>
      <path fill="#e9edf5" d="M345 323v52.2a28.3 28.3 0 0 1-28.3 28.3h-61v25h61a53.3 53.3 0 0 0 53.3-53.3V323Z"/>
      <path fill="#afb4c8" d="M135.5 317.5h38v44h-38Z"/>
      <path fill="#9196aa" d="M338.4 317.5h38v44h-38Z"/>
      <path fill="#cdd2e1" d="M241.6 213.5a87 87 0 1 0-123.9 78.9V332h73.7v-39.6a87 87 0 0 0 50.2-79Zm-87 62.5a62.5 62.5 0 1 1 62.5-62.5 62.5 62.5 0 0 1-62.6 62.5Z"/>
      <path fill="#bec3d2" d="M444.5 213.5a87 87 0 1 0-123.9 78.9V332h73.7v-39.6a87 87 0 0 0 50.2-79Zm-87 62.5a62.5 62.5 0 1 1 62.5-62.5 62.5 62.5 0 0 1-62.6 62.5Z"/>
    </symbol>

    <symbol id="brands">
      <circle cx="256" cy="256" r="256" fill="#3653ad"/>
      <path fill="#2a3f85" d="M503.4 321.9 328.6 147l-3.3 3.4-57-56.9-77.4 11.2L111 415l91.3 91.3A257 257 0 0 0 256 512a256 256 0 0 0 247.4-190.1Z"/>
      <path fill="#ffc61b" d="M338.6 415H111l10-268h207.6l10 268z"/>
      <path fill="#eaa22f" d="M328.6 147H224.1v268h114.5l-10-268z"/>
      <path fill="#fff" d="M279.8 179.7h-30V127a25 25 0 1 0-50 0v52.7h-30V127a55 55 0 0 1 110 0Z"/>
      <path fill="#e9edf5" d="M224.8 72h-.8v30h.8a25 25 0 0 1 25 25v52.7h30V127a55 55 0 0 0-55-55ZM224.8 256H391v159H224.8z"/>
      <path fill="#dce1eb" d="M309.8 256H391v159h-81.2z"/>
      <path fill="#fff" d="M353.7 289.8h-30v-38.4a14.1 14.1 0 0 0-28.2 0v38.3h-30v-38.3a44.1 44.1 0 0 1 88.2 0Z"/>
      <path fill="#e9edf5" d="M309.8 207.3v30a14.2 14.2 0 0 1 14 14v38.4h30v-38.3a44.2 44.2 0 0 0-44-44.1Z"/>
    </symbol>

    <symbol id="entertainment">
      <circle cx="256" cy="256" r="256" fill="#ffce00"/>
      <path fill="#fa0" d="M307 507a256.3 256.3 0 0 0 198.2-192.2L422 231.6 394 268 272 146 116.7 316.6Z"/>
      <path fill="#636978" d="M181.4 119.8 90.8 146V255a86.8 86.8 0 0 0 38.2 71.9l52.4 35.4 4.4-7.6 13-123.4L183.1 123Z"/>
      <path fill="#414952" d="m233.9 326.8-52.5 35.4V119.8l90.7 26.2V255a86.8 86.8 0 0 1-38.2 71.9Z"/>
      <path fill="#fff" d="M146.2 219a19.8 19.8 0 0 1-25.3-11.8l-2-5.4 37.3-13.4 2 5.4a19.8 19.8 0 0 1-12 25.3Z"/>
      <path fill="#e9edf5" d="M216.8 219a19.8 19.8 0 0 0 25.2-11.8l2-5.4-37.3-13.4-1.9 5.4a19.8 19.8 0 0 0 12 25.3Z"/>
      <path fill="#fff" d="M172.8 254.2a36.9 36.9 0 0 0-36.9 36.9h45.5l8.5-18.5-8.5-18.4Z"/>
      <path fill="#e9edf5" d="M227 291a36.9 36.9 0 0 0-36.9-36.8h-8.7V291Z"/>
      <path fill="#7584f2" d="m331.4 205.3-90.6 26.3v108.8a86.8 86.8 0 0 0 38.2 72l52.4 35.4.2-2 5-124.6-5-115.6Z"/>
      <path fill="#606aea" d="m383.8 412.3-52.4 35.5V205.3l90.6 26.3v108.8a86.8 86.8 0 0 1-38.2 72Z"/>
      <path fill="#e9edf5" d="M366.7 275.1a19.8 19.8 0 0 1 25.3 12l2 5.3-37.3 13.4-2-5.4a19.8 19.8 0 0 1 12-25.3Z"/>
      <path fill="#fff" d="M296.1 275.1a19.8 19.8 0 0 0-25.3 12l-2 5.3 37.3 13.4 2-5.4a19.8 19.8 0 0 0-12-25.3ZM285.8 339.7a36.9 36.9 0 0 0 37 37h8.8l5-18.5-5-18.5Z"/>
      <path fill="#e9edf5" d="M331.4 339.7v37h8.7a36.9 36.9 0 0 0 36.8-37Z"/>
    </symbol>

    <symbol id="food">
      <circle cx="256" cy="256" r="256" fill="#fd9827"/>
      <path fill="#ea7b0c" d="M512 256a255.5 255.5 0 0 0-14.3-84.6L392 65.7s-71.8 20.5-83.2 50.6L262.6 72l-27 35.1-35.2-35.1-23.2 35.1L139 71.9h-32.2L141 192.8c0 19.6-11.8 49-11.8 49l33 33 2.8 177 58 58a257.6 257.6 0 0 0 33 2.1 256 256 0 0 0 256-256Z"/>
      <path fill="#ffe780" d="M151.5 247.3h66.3v87h-66.3Z"/>
      <path fill="#fbbe2c" d="M184.7 247.3h33v87h-33Z"/>
      <path fill="#605553" d="M184.7 458.3a33.1 33.1 0 0 1-33.2-33.1V305.4h66.3v119.8a33.1 33.1 0 0 1-33.1 33.1Z"/>
      <path fill="#ffe780" d="M325.7 247.3H392v87h-66.3Z"/>
      <path fill="#fbbe2c" d="M358.9 247.3h33v87h-33Z"/>
      <path fill="#605553" d="M358.9 458.3a33.1 33.1 0 0 1-33.2-33.1V305.4H392v119.8a33.1 33.1 0 0 1-33.1 33.1Z"/>
      <path fill="#4c403f" d="M392 305.4v119.8a33.1 33.1 0 0 1-33.1 33.1v-153Z"/>
      <path fill="#eef9ff" d="M392 252.3h-55.6a36.7 36.7 0 0 1-36.7-36.7v-70.3a79.7 79.7 0 0 1 79.7-79.6H392ZM230.4 71.9v84a15 15 0 0 1-30 0v-84H169v84a15 15 0 0 1-30 0v-84h-32.2v120.9a64.6 64.6 0 0 0 64.6 64.6H198a64.6 64.6 0 0 0 64.6-64.6v-121Z"/>
      <path fill="#d2ebff" d="M262.6 71.9v120.9a64.5 64.5 0 0 1-64.6 64.6h-13.3V71.9h15.8v84a15 15 0 0 0 15 15 15 15 0 0 0 15-15v-84Z"/>
      <path fill="#4c403f" d="M217.8 305.4v119.8a33.1 33.1 0 0 1-33.1 33.1v-153Z"/>
      <path fill="#d2ebff" d="M392 65.7v186.6h-33.1v-184a79.4 79.4 0 0 1 20.5-2.6Z"/>
    </symbol>

    <symbol id="language">
      <circle cx="256" cy="256" r="256" fill="#b17ffa"/>
      <path fill="#843eea" d="m399.3 150.2-99 99-55-55L112.4 327 294.6 509A256 256 0 0 0 512 262.8Z"/>
      <path fill="#c8fa7f" d="M201 113.7a125 125 0 0 0 0 250h23l32 64 19.4-157-19.4-157Z"/>
      <path fill="#9cc958" d="M311 113.7h-55v314l32-64h23a125 125 0 1 0 0-250Z"/>
    </symbol>

    <symbol id="people">
      <circle cx="256" cy="256" r="256" fill="#98f9ff"/>
      <path fill="#7dd5f4" d="m505.3 197.7-63.9-64s-53.9 89.5-58.6 92l-92-92S225.3 197 235 205.3c-5 2-15.4.8-20.1 3.4l-75-74.8L27.5 279l85.6 84.9c-1.9 5.3-12.8 29.8-12.8 29.8l115 115A258.9 258.9 0 0 0 256 512a256 256 0 0 0 256-256 256.6 256.6 0 0 0-6.7-58.3Z"/>
      <path fill="#f79b14" d="M470.4 219.4c-12.4-15.3-49.7-28.9-63.7-28.9s-51.3 13.6-63.7 28.9C331.8 233 329 243.7 329 254V279h155.7V254c0-10.4-3-21-14.2-34.7Z"/>
      <circle cx="406.7" cy="163.5" r="45.7" fill="#9e5a2d"/>
      <path fill="#ff7d47" d="M169 219.4c-12.4-15.3-49.7-28.9-63.7-28.9S54 204.1 41.6 219.4C30.4 233 27.4 243.7 27.4 254V279h155.7V254c0-10.4-3-21-14.1-34.7Z"/>
      <circle cx="105.3" cy="163.5" r="45.7" fill="#ffdba9"/>
      <path fill="#b1d040" d="M319.7 219.4C307.3 204 270 190.5 256 190.5s-51.3 13.6-63.7 28.9C181 233 178 243.7 178 254V279H334V254c0-10.4-3-21-14.2-34.7Z"/>
      <path fill="#00a763" d="M333.9 254.1V279H256v-88.5c6.5 0 18.1 3 29.9 7.7 13.4 5.3 27.2 13 33.8 21.2C331 233 334 243.7 334 254Z"/>
      <circle cx="256" cy="163.5" r="45.7" fill="#875d54"/>
      <path fill="#ff4a4a" d="M397.6 334c-12.5-15.2-49.7-28.8-63.7-28.8S282.6 318.8 270 334C259 347.8 256 358.4 256 368.8v24.9h155.7v-24.9c0-10.4-3-21-14.1-34.7Z"/>
      <circle cx="333.9" cy="278.2" r="45.7" fill="#fcc78d"/>
      <path fill="#ffc83e" d="M241.9 334c-12.5-15.2-49.8-28.8-63.8-28.8S127 318.8 114.5 334c-11.2 13.7-14.2 24.3-14.2 34.7v24.9H256v-24.9c0-10.4-3-21-14.1-34.7Z"/>
      <circle cx="178.1" cy="278.2" r="45.7" fill="#875d54"/>
      <path fill="#68463e" d="M301.7 163.5a45.7 45.7 0 0 1-45.7 45.7v-91.4a45.7 45.7 0 0 1 45.7 45.7Z"/>
    </symbol>

    <symbol id="places">
      <circle cx="256" cy="256" r="256" fill="#ffa0a9"/>
      <path fill="#fe5c69" d="M345 496a256.5 256.5 0 0 0 160.6-182.7L321.8 129.5l-7.1 17.3H199v121.8H265L235.9 340l28.2 28.3L256 407Z"/>
      <path fill="#fffcff" d="M256 105a100.7 100.7 0 0 0-100.7 100.7C155.3 275.8 256 407 256 407s100.6-127.7 100.6-201.3A100.7 100.7 0 0 0 256 105Zm0 142.4a41.4 41.4 0 1 1 41.4-41.4 41.4 41.4 0 0 1-41.4 41.4Z"/>
      <path fill="#fcf2cf" d="M356.6 205.7A100.7 100.7 0 0 0 256 105h-.6v59.6h.6a41.4 41.4 0 1 1 0 82.8h-.6v158.8l.6.7s100.6-127.6 100.6-201.2Z"/>
    </symbol>

    <symbol id="science">
      <circle cx="256" cy="256" r="256" fill="#61d7a8"/>
      <path fill="#00ab94" d="M511.6 271 323.9 83.3l-61.2 61.3L214 96.1l-26 26 48.5 48.6-5.2 5.3 61.2 61.2-163 163 111.5 111.4c5 .2 9.9.4 14.9.4a256 256 0 0 0 255.6-241Z"/>
      <path fill="#e0f4ff" d="m360.1 298.2-18.5 19.4H164l-12-19.4 55.5-81.7v-94.3h-19.4V83.3H324v38.9h-19.5v94.3l55.6 81.7z"/>
      <path fill="#bbdcff" d="m360.1 298.2-18.5 19.4H256V83.3h68v38.9h-19.5v94.3l55.6 81.7z"/>
      <path fill="#89f900" d="m385.3 335.8-25.2-37.6H152L127.3 335a48.5 48.5 0 0 0 37 79.6h183.3a47.8 47.8 0 0 0 44-28 47.3 47.3 0 0 0-6.3-50.9Z"/>
      <path fill="#54e360" d="M391.5 386.7a47.8 47.8 0 0 1-43.9 28H256V298.2h104l25.3 37.6a47.3 47.3 0 0 1 6.2 50.9Z"/>
      <path fill="#61d7a8" d="M168.7 356.4h19.4v19.4h-19.4zM246.3 356.4h19.4v19.4h-19.4zM207.5 337h19.4v19.4h-19.4z"/>
      <path fill="#bbdcff" d="M226.9 259.4h19.4v19.4h-19.4zM246.3 220.5h19.4v19.4h-19.4zM246.3 161.6h19.4V181h-19.4z"/>
      <path fill="#9abadb" d="M256 161.6h9.7V181H256zM256 220.5h9.7v19.4H256z"/>
      <path fill="#00ab94" d="M256 356.4h9.7v19.4H256z"/>
    </symbol>

    <symbol id="things">
      <path fill="#ff583e" d="M512 256a256 256 0 1 1-512 0 256 256 0 0 1 512 0Z"/>
      <path fill="#db0404" d="M512 256a256.7 256.7 0 0 0-3.6-43L423 127.6 89 195.8l113 113-100.9 75.5 126 126A257.5 257.5 0 0 0 256 512a256 256 0 0 0 256-256Z"/>
      <path fill="#ffda00" d="M101.1 180.7h309.8v203.6H101.1Z"/>
      <path fill="#fdba12" d="M255.8 180.7H411v203.6h-155Z"/>
      <path fill="#fdba12" d="M89 127.7h334v68.2H89Z"/>
      <path fill="#ffa300" d="M255.8 127.7H423v68.2H255.8Z"/>
      <path fill="#fdba12" d="M296.8 269h-81.6a25.6 25.6 0 0 1 0-51h81.6a25.6 25.6 0 0 1 0 51Z"/>
      <path fill="#ff9d00" d="M296.8 218h-41v51h41a25.6 25.6 0 1 0 0-51Z"/>
    </symbol>
  </defs>
</svg>
