<svg xmlns="http://www.w3.org/2000/svg" viewBox="0 0 512 512">
  <defs>
    <symbol id="oft-1">
      <title>Frequency</title>
      <path fill="#99e6fc" d="M456 256c0 110.46-89.55 200-200 200S56 366.46 56 256 145.54 56 256 56s200 89.55 200 200Zm0 0"/>
      <path fill="#62dbfb" d="M372 93a199.14 199.14 0 0 1 37 116c0 110.46-89.55 200-200 200a199.14 199.14 0 0 1-116-37 199.75 199.75 0 0 0 163 84c110.46 0 200-89.55 200-200a199.75 199.75 0 0 0-84-163Zm0 0"/>
      <path fill="#ffd15b" d="M304.49 104.47A48.49 48.49 0 1 1 256 56a48.49 48.49 0 0 1 48.49 48.48ZM204.48 369.14A48.49 48.49 0 1 1 156 320.65a48.49 48.49 0 0 1 48.49 48.49Zm0 0"/>
      <path fill="#ffc344" d="M288.32 423.69A32.32 32.32 0 1 1 256 391.36a32.32 32.32 0 0 1 32.32 32.33ZM425.71 256a32.33 32.33 0 1 1-32.33-32.32A32.33 32.33 0 0 1 425.71 256Zm0 0"/>
      <path fill="#ffd15b" d="M188.32 163.06A32.33 32.33 0 1 1 156 130.74a32.32 32.32 0 0 1 32.33 32.32Zm0 0"/>
      <path fill="#ffc344" d="M374.19 327.72A16.17 16.17 0 1 1 358 311.56a16.17 16.17 0 0 1 16.16 16.16Zm0 0"/>
      <path fill="#ffd15b" d="M360.05 191.35a16.17 16.17 0 1 1-16.16-16.16 16.16 16.16 0 0 1 16.16 16.16ZM95.81 225.69a16.16 16.16 0 1 1-16.16-16.16 16.16 16.16 0 0 1 16.16 16.16ZM160 270.14A16.17 16.17 0 1 1 143.87 254 16.17 16.17 0 0 1 160 270.14ZM313.58 356a16.17 16.17 0 1 1-16.16-16.17A16.17 16.17 0 0 1 313.58 356Zm0 0"/>
      <path fill="#ffc344" d="M380.25 400.45A24.25 24.25 0 1 1 356 376.21a24.25 24.25 0 0 1 24.24 24.24ZM405.51 132.76a24.25 24.25 0 1 1-24.25-24.24 24.25 24.25 0 0 1 24.25 24.24Zm0 0"/>
      <path fill="#ffd15b" d="M320.65 256A64.65 64.65 0 1 1 256 191.35 64.66 64.66 0 0 1 320.65 256Zm0 0"/>
      <path d="M437 75A256 256 0 0 0 75 437 256 256 0 0 0 437 75Zm-10.59 351.41A241 241 0 1 1 85.59 85.59a241 241 0 1 1 340.82 340.82Zm0 0"/>
      <path d="M74.09 319.15A192.1 192.1 0 0 1 63.49 256c0-4.25.16-8.47.43-12.65a23.66 23.66 0 1 0 6.77-39.55A193.19 193.19 0 0 1 213.35 68.26a56 56 0 1 0 85.28 0 189.9 189.9 0 0 1 24.58 7.33 7.5 7.5 0 1 0 5.24-14.06 206.76 206.76 0 0 0-72.45-13C141.58 48.49 48.49 141.58 48.49 256a206.85 206.85 0 0 0 11.44 68.07 7.49 7.49 0 0 0 7.08 5 7.31 7.31 0 0 0 2.46-.42 7.48 7.48 0 0 0 4.62-9.54ZM79.65 217a8.67 8.67 0 1 1-8.65 8.69 8.67 8.67 0 0 1 8.65-8.69ZM297 104.47a41 41 0 1 1-41.15-41h.3a41 41 0 0 1 40.85 41Zm0 0"/>
      <path d="M435.31 151.49a208.74 208.74 0 0 0-74.1-74.38A7.5 7.5 0 1 0 353.59 90 194.14 194.14 0 0 1 372 102.4a31.74 31.74 0 1 0 39.46 40.09 192.29 192.29 0 0 1-24 254 31.74 31.74 0 1 0-46.21 32.1 191 191 0 0 1-52.07 17.08 39.84 39.84 0 1 0-66.42 0 192.82 192.82 0 0 1-59.55-21A56 56 0 1 0 100 368.81a195.36 195.36 0 0 1-12.14-19 7.5 7.5 0 1 0-13.09 7.32A207.89 207.89 0 0 0 256 463.51c114.42 0 207.51-93.09 207.51-207.51a207.39 207.39 0 0 0-28.2-104.51Zm-54.05-2A16.75 16.75 0 1 1 398 132.76a16.77 16.77 0 0 1-16.75 16.75ZM356 383.71a16.75 16.75 0 1 1-16.75 16.74A16.76 16.76 0 0 1 356 383.71Zm-124.83 40a24.82 24.82 0 1 1 24.93 24.82h-.24a24.85 24.85 0 0 1-24.69-24.82ZM156 328.15a41 41 0 1 1-41 41 41 41 0 0 1 41-41Zm0 0"/>
      <path d="M433.21 256a39.83 39.83 0 1 0-39.83 39.82A39.87 39.87 0 0 0 433.21 256Zm-64.65 0a24.83 24.83 0 1 1 24.82 24.82A24.84 24.84 0 0 1 368.56 256ZM195.82 163.06A39.83 39.83 0 1 0 156 202.89a39.87 39.87 0 0 0 39.83-39.83ZM156 187.89a24.83 24.83 0 1 1 24.83-24.82A24.86 24.86 0 0 1 156 187.89ZM334.36 327.72A23.67 23.67 0 1 0 358 304.06a23.7 23.7 0 0 0-23.67 23.66Zm32.33 0a8.67 8.67 0 1 1-8.66-8.66 8.68 8.68 0 0 1 8.66 8.66ZM343.89 167.69a23.66 23.66 0 1 0 23.66 23.66 23.69 23.69 0 0 0-23.66-23.66Zm0 32.32a8.66 8.66 0 1 1 8.66-8.66 8.67 8.67 0 0 1-8.66 8.66ZM120.21 270.14a23.67 23.67 0 1 0 23.66-23.66 23.69 23.69 0 0 0-23.66 23.66Zm32.33 0a8.67 8.67 0 1 1-8.67-8.66 8.68 8.68 0 0 1 8.67 8.66ZM273.75 356a23.67 23.67 0 1 0 23.67-23.67A23.7 23.7 0 0 0 273.75 356Zm32.33 0a8.67 8.67 0 1 1-8.66-8.67 8.68 8.68 0 0 1 8.66 8.67ZM256 183.85a72.17 72.17 0 0 0-62.79 107.72 7.5 7.5 0 0 0 13-7.4A57.14 57.14 0 1 1 228 305.82a7.5 7.5 0 0 0-7.38 13.06 72.16 72.16 0 1 0 35.41-135Zm0 0"/>
    </symbol>

    <symbol id="oft-2">
      <title>Length</title>
      <path fill="#ff9d4a" d="M51.05 188.89 232.42 7.52l272.06 272.06-181.37 181.37z"/>
      <path fill="#f48a16" d="m51.06 188.89 21.83-21.83 272.06 272.06-21.83 21.83z"/>
      <path d="M509.8 274.26 237.74 2.2a7.53 7.53 0 0 0-10.63 0L45.74 183.58a7.5 7.5 0 0 0 0 10.62L317.8 466.26a7.57 7.57 0 0 0 10.62 0l121-121a7.51 7.51 0 0 0-10.63-10.62L323.11 450.32l-12-12 17.35-17.36a7.51 7.51 0 1 0-10.62-10.63l-17.36 17.36-12-12 17.35-17.36a7.51 7.51 0 1 0-10.62-10.63L277.77 405l-12-12.05 17.36-17.35a7.51 7.51 0 1 0-10.67-10.6l-17.36 17.31-12-12.05 40-40a7.51 7.51 0 0 0-10.62-10.62l-40 40-12.05-12.05 17.36-17.36a7.51 7.51 0 0 0-10.63-10.62L209.76 337l-12-12.05 17.36-17.36a7.51 7.51 0 0 0-10.63-10.62l-17.36 17.35-12-12 17.36-17.36a7.52 7.52 0 0 0-10.63-10.63l-17.36 17.36-12-12 40-40a7.52 7.52 0 0 0-10.63-10.63l-40 40-12-12 17.35-17.36a7.51 7.51 0 0 0-10.62-10.63l-17.36 17.36-12-12 17.35-17.36a7.51 7.51 0 0 0-10.62-10.63L96.4 223.61l-12.05-12.05 17.36-17.35a7.51 7.51 0 1 0-10.62-10.63l-17.37 17.35-12-12L232.43 18.14l34.71 34.72-40 40a7.51 7.51 0 1 0 10.63 10.62l40-40 34.71 34.72-40 40a7.52 7.52 0 1 0 10.63 10.63l40-40 34.72 34.71-40 40a7.51 7.51 0 1 0 10.62 10.63l40-40 34.72 34.71-40 40a7.52 7.52 0 1 0 10.63 10.63l40-40 34.71 34.72-40 40a7.51 7.51 0 1 0 10.63 10.62l40-40 34.71 34.72-27.48 27.49A7.51 7.51 0 0 0 477 317.68l32.79-32.8a7.51 7.51 0 0 0 .01-10.62ZM286.3 508.66a7.65 7.65 0 0 0 1.26-4.18v-32.06a7.52 7.52 0 0 0-15 0v13.92L25.66 239.47h13.92a7.52 7.52 0 0 0 0-15H7.51A7.59 7.59 0 0 0 0 232v32a7.52 7.52 0 0 0 15 0v-13.91L261.91 497H248a7.52 7.52 0 0 0 0 15h32.07a7.61 7.61 0 0 0 6.23-3.34Z"/>
    </symbol>

    <symbol id="oft-3">
      <title>Price</title>
      <path fill="#b3e59f" d="M234 85.38 318.26 12a18.49 18.49 0 0 1 24.3 0l84.3 73.36c12.91 11.23 5 32.47-12.15 32.47h-11.94v260.74l-108-29.08a36.7 36.7 0 0 1-36.7-36.7V117.85h-11.96c-17.12 0-25.06-21.24-12.15-32.47Zm0 0"/>
      <path fill="#95d6a4" d="M348 16.79 342.57 12a18.51 18.51 0 0 0-24.3 0L234 85.38c-12.91 11.23-5 32.47 12.15 32.47h11.95v194.94a36.7 36.7 0 0 0 36.69 36.7H330a36.7 36.7 0 0 1-36.7-36.7V117.85h-11.93c-17.1 0-25.05-21.24-12.15-32.47Zm0 0"/>
      <path fill="#b3e59f" d="M59.67 235.36 144 162a18.51 18.51 0 0 1 24.3 0l84.3 73.37c12.91 11.24 5 32.47-12.15 32.47h-11.97v200a36.7 36.7 0 0 1-36.7 36.7h-71.32a36.69 36.69 0 0 1-36.69-36.7v-200h-12c-17.11 0-25.06-21.23-12.15-32.47Zm0 0"/>
      <path fill="#95d6a4" d="m173.75 166.77-5.47-4.77a18.53 18.53 0 0 0-24.28 0l-84.3 73.37c-12.9 11.24-5 32.47 12.15 32.47h12v200a36.7 36.7 0 0 0 36.69 36.71h35.27A36.7 36.7 0 0 1 119 467.79v-200h-11.91C90 267.83 82 246.6 94.93 235.36Zm0 0"/>
      <path fill="#ffe07d" d="M378 260.68A100.72 100.72 0 1 1 277.23 160 100.72 100.72 0 0 1 378 260.68Zm0 0"/>
      <path fill="#ffd064" d="M289.34 360.67a100.72 100.72 0 1 1 0-200 100.72 100.72 0 0 0 0 200Zm0 0"/>
      <path fill="#b3e59f" d="m259.43 393 84.29-73.37a18.53 18.53 0 0 1 24.31 0l84.3 73.37c12.9 11.23 5 32.46-12.15 32.46h-11.95v42.34a36.7 36.7 0 0 1-36.7 36.7h-71.31a36.7 36.7 0 0 1-36.7-36.7v-42.31h-11.95c-17.11 0-25-21.23-12.14-32.46Zm0 0"/>
      <path fill="#95d6a4" d="m373.51 324.43-5.51-4.77a18.5 18.5 0 0 0-24.31 0L259.43 393c-12.91 11.23-5 32.46 12.15 32.46h11.95v42.3a36.7 36.7 0 0 0 36.69 36.71h35.26a36.7 36.7 0 0 1-36.69-36.71v-42.3h-12c-17.11 0-25-21.23-12.15-32.46Zm0 0"/>
      <path d="M288.49 253.12c-8-2.82-16.83-6.25-21.87-10.19-1.92-1.51-2.75-4.68-2.1-8.08s2.89-7.39 7.35-8.73c9.88-3 16.45 2.17 17.16 2.76a7.5 7.5 0 0 0 9.6-11.53 33 33 0 0 0-14.43-6.57v-4.53a7.51 7.51 0 0 0-15 0v5.05l-1.64.45a25.93 25.93 0 0 0-17.77 20.33c-1.7 9 1.21 17.65 7.58 22.65 5.44 4.26 13 7.9 26.13 12.53 9.71 3.43 9.49 11.32 8.95 14.55a15.92 15.92 0 0 1-15.79 13.43c-8.6.06-11.51-.41-18.23-4.8a7.5 7.5 0 0 0-8.22 12.56c7.42 4.86 12.63 6.53 19 7v5.08a7.5 7.5 0 0 0 15 0v-5.78c12.93-3.18 21.22-14.18 23-25 2.37-14.08-5-26.32-18.74-31.18Zm0 0"/>
      <path d="m457.25 387.36-47-40.88V125.35h4.44a26 26 0 0 0 17.08-45.63L347.49 6.36a26.11 26.11 0 0 0-34.16 0L229 79.72a26 26 0 0 0 17.07 45.63h4.44v30.45a108.23 108.23 0 0 0-47.7 26.35l-29.61-25.81a26.12 26.12 0 0 0-34.15 0l-35.73 31.09a7.5 7.5 0 0 0 9.85 11.32l35.72-31.09a11.05 11.05 0 0 1 14.46 0l29.35 25.53a108.1 108.1 0 0 0 28.3 159.9v114.72A29.23 29.23 0 0 1 191.78 497h-71.32a29.22 29.22 0 0 1-29.19-29.19v-200a7.5 7.5 0 0 0-7.5-7.5H71.83A11 11 0 0 1 64.6 241l26-22.59a7.5 7.5 0 1 0-9.85-11.32l-26 22.61a26 26 0 0 0 17.08 45.63h4.44v192.48A44.24 44.24 0 0 0 120.46 512h71.32A44.24 44.24 0 0 0 236 467.81V360.72a107.75 107.75 0 0 0 39.77 8.15l-21.24 18.49A26 26 0 0 0 271.58 433H276v34.8a44.25 44.25 0 0 0 44.2 44.2h71.32A44.19 44.19 0 0 0 432 485.49a7.5 7.5 0 1 0-13.74-6A29.19 29.19 0 0 1 391.54 497h-71.32A29.23 29.23 0 0 1 291 467.8v-42.31a7.5 7.5 0 0 0-7.5-7.5h-11.92a11 11 0 0 1-7.23-19.31l84.3-73.36a11 11 0 0 1 14.45 0l84.31 73.36a11 11 0 0 1-7.23 19.32h-11.95a7.5 7.5 0 0 0-7.5 7.5v27.3a7.5 7.5 0 0 0 15 0V433h4.45a26 26 0 0 0 17.07-45.63ZM338.8 314l-43.89 38.2a93.24 93.24 0 1 1 62.79-44.48 26.06 26.06 0 0 0-18.9 6.28Zm33.09-.84a108.24 108.24 0 0 0-94.66-160.7 110 110 0 0 0-11.68.63v-35.24a7.5 7.5 0 0 0-7.5-7.5h-11.94A11 11 0 0 1 238.89 91l84.3-73.37a11 11 0 0 1 14.45 0L421.94 91a11 11 0 0 1-7.23 19.31h-11.94a7.5 7.5 0 0 0-7.5 7.5v215.61L373 314c-.35-.3-.71-.57-1.06-.84Zm0 0"/>
    </symbol>

    <symbol id="oft-4">
      <title>Material</title>
        <path fill="#ffe177" d="M363.75 269 465.1 374.46V98.16H286.83V240.4a94.13 94.13 0 0 1 76.92 28.6Zm0 0"/>
        <path fill="#ffd15b" d="M325.12 244.68V98.16h-38.29V240.4a94.71 94.71 0 0 1 38.29 4.28Zm0 0"/>
        <path fill="#9b8e99" d="M504.22 415.18 363.75 269a94.32 94.32 0 0 0-136 0l-41.83 43.54V345h145.2a4 4 0 0 1 4 4v46h43.95a4 4 0 0 1 4 4v24.71h117.54a5 5 0 0 0 3.61-8.46Zm0 0"/>
        <path fill="#918291" d="M186.89 344h35.65l64.19-66.83a93.87 93.87 0 0 1 50.83-27.38A94.34 94.34 0 0 0 227.72 269l-40.83 42.5Zm0 0"/>
        <path fill="#f6a96c" d="M96.41 398.92a5 5 0 0 1 5-5h42.94V349a5 5 0 0 1 5-5h37.54v-98.63H8.62v173.27a5 5 0 0 0 5 5h82.79Zm0 0"/>
        <path fill="#ea9b58" d="M50.85 418.64V245.37H8.62v173.27a5 5 0 0 0 5 5h42.23a5 5 0 0 1-5-5Zm0 0"/>
        <path fill="#efedef" d="M149.35 344a5 5 0 0 0-5 5v45h95.89v-50ZM331.12 344h-90.88v50h95.88v-45a5 5 0 0 0-5-5Zm0 0"/>
        <path fill="#fd4755" d="M112.26 299.39h-29a3 3 0 0 1-3-3v-51h35v51a3 3 0 0 1-3 3Zm0 0"/>
        <path fill="#fb2b3a" d="M97.12 296.39v-51H80.26v51a3 3 0 0 0 3 3h16.86a3 3 0 0 1-3-3Zm0 0"/>
        <path fill="#ea9b58" d="M186.89 245.37H8.62V72.1a5 5 0 0 1 5-5h168.27a5 5 0 0 1 5 5Zm0 0"/>
        <path fill="#d88a55" d="M55.85 67.1H13.62a5 5 0 0 0-5 5v173.27h42.23V72.1a5 5 0 0 1 5-5Zm0 0"/>
        <path fill="#fd4755" d="M112.26 121.12h-29a3 3 0 0 1-3-3v-51h35v51a3 3 0 0 1-3 3Zm0 0"/>
        <path fill="#fb2b3a" d="M97.12 118.12v-51H80.26v51a3 3 0 0 0 3 3h16.86a3 3 0 0 1-3-3Zm0 0"/>
        <path fill="#d7d0d6" d="M192.29 442.54h-90.88a5 5 0 0 1-5-5v-38.62a5 5 0 0 1 5-5h90.88Zm0 0"/>
        <path fill="#c9bfc8" d="M122.12 437.54v-38.62a5 5 0 0 1 5-5h-25.71a5 5 0 0 0-5 5v38.62a5 5 0 0 0 5 5h25.71a5 5 0 0 1-5-5Zm0 0"/>
        <path fill="#d7d0d6" d="M192.29 393.92h95.89v48.62h-95.89z"/>
        <path fill="#c9bfc8" d="M192.29 393.92h25.83v48.62h-25.83z"/>
        <path fill="#d7d0d6" d="M379.07 442.54h-90.89v-48.62h90.89a5 5 0 0 1 5 5v38.62a5 5 0 0 1-5 5Zm0 0"/>
        <path fill="#c9bfc8" d="M288.18 393.92h25.05v48.62h-25.05z"/>
        <path fill="#e5e1e5" d="M170.12 393.92V349a5 5 0 0 1 5-5h-25.77a5 5 0 0 0-5 5v45ZM240.24 343.96h25.88v49.97h-25.88z"/>
        <path d="m509.63 410-37-38.54v-64.57h2a7.5 7.5 0 1 0 0-15h-2v-45.07a7.5 7.5 0 0 0-15 0v45.07h-61.45l-27-28.13a101 101 0 0 0-73.43-31.28h-1.4v-55.24H457.6v34.58a7.5 7.5 0 1 0 15 0v-34.58h2a7.5 7.5 0 0 0 0-15h-2v-56.58h2a7.5 7.5 0 0 0 0-15H277.37a7.5 7.5 0 0 0 0 15h2v56.58h-2a7.5 7.5 0 0 0 0 15h2v56.54a100.85 100.85 0 0 0-57 30l-27.92 29.06v-123a7.5 7.5 0 0 0-15 0v68.05H16.12V74.6h56.64v43.52a10.51 10.51 0 0 0 10.5 10.5h29a10.51 10.51 0 0 0 10.5-10.5V74.6h56.63v60.22a7.5 7.5 0 0 0 15 0V72.1a12.5 12.5 0 0 0-12.5-12.5H13.62a12.51 12.51 0 0 0-12.5 12.5v346.54a12.52 12.52 0 0 0 12.5 12.5h75.29v6.4a12.5 12.5 0 0 0 12.5 12.5h277.66a12.51 12.51 0 0 0 12.5-12.5v-6.4h109a12.51 12.51 0 0 0 9-21.16Zm-215.3-304.34H457.6v56.58H294.33ZM87.76 74.6h20v39h-20ZM457.6 306.89v48.93l-47-48.93Zm-224.86 44.57v33.62h-80.89v-33.62Zm-145-98.59h20v39h-20Zm1.15 146.05v17.22H16.12V252.87h56.64v43.52a10.51 10.51 0 0 0 10.5 10.5h29a10.51 10.51 0 0 0 10.5-10.5v-43.52h56.63v83.59h-30a12.51 12.51 0 0 0-12.5 12.5v37.46h-35.48a12.51 12.51 0 0 0-12.5 12.5Zm95.9 36.08h-80.88v-33.58h80.88Zm95.89 0h-80.89v-33.58h80.89Zm95.89 0h-80.89v-33.58h80.89Zm15-18.9v-17.18a12.52 12.52 0 0 0-12.5-12.5h-35.45V349a12.51 12.51 0 0 0-12.5-12.5h-19a7.5 7.5 0 0 0 0 15h16.5v33.62h-80.88v-33.66h29.38a7.5 7.5 0 0 0 0-15h-82.73v-22l38.74-40.32a86.81 86.81 0 0 1 125.21 0l136.4 142Zm0 0"/>
    </symbol>

    <symbol id="oft-5">
      <title>Intent of use</title>
      <path fill="#97c9f9" d="M298.69 84.86a76 76 0 1 1-76-76 76 76 0 0 1 76 76Zm0 0"/>
      <path fill="#ffefe7" d="M407.57 184.18a30.89 30.89 0 0 0-30.9 30.89v-24.95a30.9 30.9 0 0 0-61.79 0v-12.47a30.89 30.89 0 1 0-61.78 0V73.3a30.9 30.9 0 0 0-61.79 0v221.34a4.48 4.48 0 0 1-7.77 3l-49.46-53.78a29.56 29.56 0 0 0-42.91-.91c-11.71 11.71-13.64 32.47-4.29 46.14l79 115.54a92.26 92.26 0 0 0 56.37 38 3.37 3.37 0 0 1 3.38 3.37v52.18a6.31 6.31 0 0 0 6.31 6.32h180.43a6.31 6.31 0 0 0 6.3-6.32v-45.63a27.21 27.21 0 0 1 1.9-10l2.39-6.1a224.57 224.57 0 0 0 15.46-78.84V215.03a30.9 30.9 0 0 0-30.85-30.85Zm0 0"/>
      <path fill="#ffefe7" d="M407.57 184.18a30.89 30.89 0 0 0-30.9 30.89v-24.95a30.9 30.9 0 0 0-61.79 0v-12.47a30.89 30.89 0 1 0-61.78 0V73.3a30.9 30.9 0 0 0-61.79 0v221.34a4.48 4.48 0 0 1-7.77 3l-49.46-53.78a29.56 29.56 0 0 0-42.91-.91c-11.71 11.71-13.64 32.47-4.29 46.14l79 115.54a92.26 92.26 0 0 0 56.37 38 3.37 3.37 0 0 1 3.38 3.37v52.18a6.31 6.31 0 0 0 6.31 6.32h180.43a6.31 6.31 0 0 0 6.3-6.32v-45.63a27.21 27.21 0 0 1 1.9-10l2.39-6.1a224.57 224.57 0 0 0 15.46-78.84V215.03a30.9 30.9 0 0 0-30.85-30.85Zm0 0"/>
      <path fill="#ffe0d1" d="M191.31 294.36a22.17 22.17 0 0 0 22.18-22.18V71.83a35.13 35.13 0 0 1 9-23.8 31.66 31.66 0 0 1 5.86-5 31.44 31.44 0 0 0-6.18-.62 30.9 30.9 0 0 0-30.9 30.89ZM401.27 217.67a30.94 30.94 0 0 1 21.61-29.49 30.91 30.91 0 0 0-46.21 26.83v17.84a1.22 1.22 0 0 0 1.22 1.21h7a16.4 16.4 0 0 0 16.4-16.4ZM357.36 161.47a30.91 30.91 0 0 0-42.47 29.29v47.7a23.25 23.25 0 0 0 23.24-23.28v-25.1a30.89 30.89 0 0 1 19.23-28.65ZM294.6 148.62a31 31 0 0 0-11.15-1.87c-17 .3-30.35 14.16-30.35 31.56v58.55a21.26 21.26 0 0 0 21.26-21.26v-38a30.88 30.88 0 0 1 20.24-29ZM245.77 442.01a25.1 25.1 0 0 0-14-22.52c-14.77-7.31-37.18-19.8-45.77-32.31l-80.79-118.16a32.55 32.55 0 0 1-5.69-18.39 37.6 37.6 0 0 1 3-14.8 30.13 30.13 0 0 0-11.37 7.15c-11.7 11.71-13.64 32.47-4.29 46.14l79 115.53a92.18 92.18 0 0 0 56.37 38 3.37 3.37 0 0 1 3.37 3.37v52.16a6.31 6.31 0 0 0 6.31 6.32h13.82Zm0 0"/>
      <path d="M407.57 176.63a38.24 38.24 0 0 0-23.76 8.26 38.37 38.37 0 0 0-64.58-22.49 38.37 38.37 0 0 0-58.63-15.22V73.3a38.4 38.4 0 0 0-76.79 0v124.18a7.5 7.5 0 0 0 15 0V73.3a23.39 23.39 0 0 1 46.78 0v168.34a7.51 7.51 0 1 0 15 0v-64a23.39 23.39 0 0 1 46.78 0v64a7.51 7.51 0 1 0 15 0v-51.52a23.39 23.39 0 0 1 46.77 0v51.52a7.51 7.51 0 1 0 15 0v-26.61a23.39 23.39 0 1 1 46.78 0V357.51a216.12 216.12 0 0 1-14.92 76.2l-2.39 6.1a34.73 34.73 0 0 0-2.41 12.74v51.95a7.51 7.51 0 0 0 15 0v-51.95a19.83 19.83 0 0 1 1.37-7.26l2.43-6.11a231.11 231.11 0 0 0 16-81.57V215.03a38.44 38.44 0 0 0-38.39-38.4ZM223.88 435.36a84.47 84.47 0 0 1-51.79-34.94L91.28 282.26a25.12 25.12 0 0 1 39.22-31.18l47.5 51.67a12 12 0 0 0 20.8-8.11v-65.18a7.5 7.5 0 0 0-15 0v57.41l-42.26-45.95a40.13 40.13 0 0 0-62.66 49.82l80.82 118.15a99.37 99.37 0 0 0 58.43 40.54v55.07a7.51 7.51 0 0 0 15 0v-57.62a11.86 11.86 0 0 0-9.26-11.52Zm0 0"/>
      <path d="M291.19 83.55a67.75 67.75 0 0 1-7.61 31.35 7.49 7.49 0 0 0 3.23 10.11 7.39 7.39 0 0 0 3.43.84 7.49 7.49 0 0 0 6.67-4.06 83.44 83.44 0 0 0-7.52-88.49 7.51 7.51 0 1 0-12 9 67.92 67.92 0 0 1 13.79 41.22ZM155.05 125.86a7.53 7.53 0 0 0 6.67-11 67.63 67.63 0 0 1-7.61-31.35 68.55 68.55 0 0 1 101.43-60.1 7.51 7.51 0 0 0 7.22-13.16 83.56 83.56 0 0 0-123.66 73.3 82.54 82.54 0 0 0 9.28 38.24 7.52 7.52 0 0 0 6.67 4.07ZM113 143.07a7.51 7.51 0 0 0 6.77-10.73 114.08 114.08 0 0 1 0-97.58 7.5 7.5 0 1 0-13.55-6.45 129 129 0 0 0 0 110.47 7.51 7.51 0 0 0 6.78 4.29ZM329.06 142.34a7.49 7.49 0 0 0 10-3.56 129 129 0 0 0 0-110.47 7.51 7.51 0 0 0-13.56 6.45 114 114 0 0 1 0 97.57 7.51 7.51 0 0 0 3.56 10Zm0 0"/>
    </symbol>

    <symbol id="oft-6">
      <title>Appearance</title>
      <path fill="#ffce00" d="M113 215.66h27.81v268.83H113z"/>
      <path fill="#e2a700" d="M113 215.66h27.81v25.23H113zM113 458.8h27.81v25.69H113z"/>
      <path fill="#e2a700" d="M121.51 215.66h19.31v108.59c-9.89-26.47-16.23-56.31-18.45-87.55-.48-6.99-.77-14.05-.86-21.04Z"/>
      <path fill="#ffce00" d="M371.18 215.66h27.81v268.83h-27.81z"/>
      <path fill="#e2a700" d="M371.18 215.66h27.81v25.23h-27.81zM371.18 458.8h27.81v25.69h-27.81z"/>
      <path fill="#e2a700" d="M390.48 215.66c-.06 6-.29 12-.65 17.92a337.33 337.33 0 0 1-6.82 50 299.66 299.66 0 0 1-9.4 34q-1.17 3.42-2.43 6.76V215.66Z"/>
      <path fill="#ffe69f" d="M403.3 227.72H108.7a16.27 16.27 0 0 1-16.27-16.27 16.26 16.26 0 0 1 16.27-16.27h294.6a16.27 16.27 0 0 1 16.27 16.27 16.27 16.27 0 0 1-16.27 16.27Z"/>
      <path fill="#ffce00" d="M390.51 211.44c0 5.42-.12 10.87-.37 16.28H121.86a355.32 355.32 0 0 1 .01-32.54h268.27q.38 8.09.37 16.26Z"/>
      <path fill="#ffe69f" d="M467 504.5H45.05V488a16 16 0 0 1 16.05-16h389.8a16 16 0 0 1 16.1 16v16.5Z"/>
      <path fill="#aecbce" d="M377.34 211.44q0 10.81-.66 21.32a324 324 0 0 1-6.54 48.08 287.59 287.59 0 0 1-9 32.46c-13.6 39.55-34.86 70.71-60.38 87.75-13.85 9.26-29 14.35-44.78 14.35-62.11 0-113.33-78.45-120.49-179.63q-.84-12-.85-24.33c0-39.12 6.55-75.68 17.91-106.72A233.5 233.5 0 0 1 165.27 76a176.43 176.43 0 0 1 22-32.66C206.81 20.74 230.49 7.5 256 7.5c67 0 121.34 91.31 121.34 203.94Z"/>
      <path fill="#dfebef" d="M376.68 232.76a324 324 0 0 1-6.54 48.08L165.27 76a176.68 176.68 0 0 1 22-32.65ZM361.16 313.3c-13.6 39.55-34.86 70.71-60.38 87.75L135.51 235.77q-.84-12-.85-24.33c0-39.12 6.55-75.68 17.91-106.72Z"/>
      <path d="M450.9 464.46h-44.4v-34.62a7.5 7.5 0 1 0-15 0v34.62h-12.81V279.33a7.74 7.74 0 0 0-.23-1.81 333.63 333.63 0 0 0 5.56-42.3h7.48v160.94a7.5 7.5 0 1 0 15 0V235a23.77 23.77 0 0 0 20.57-23.55 23.79 23.79 0 0 0-23.77-23.77H384c-3.15-46.84-15.57-90.3-35.79-124.28C323.92 22.52 291.16 0 256 0s-67.92 22.52-92.24 63.4c-20.22 34-32.65 77.44-35.79 124.28H108.7a23.77 23.77 0 0 0-3.2 47.32v229.46H61.09A23.58 23.58 0 0 0 37.55 488v16.5a7.5 7.5 0 0 0 7.5 7.5h115.78a7.5 7.5 0 1 0 0-15H52.55v-9a8.56 8.56 0 0 1 8.54-8.55H450.9a8.56 8.56 0 0 1 8.55 8.55v9H194.51a7.5 7.5 0 0 0 0 15H467a7.5 7.5 0 0 0 7.5-7.5V488a23.57 23.57 0 0 0-23.6-23.54Zm-47.6-261.78a8.77 8.77 0 1 1 0 17.54h-18.58c.07-2.92.12-5.84.12-8.77s0-5.86-.12-8.77ZM176.65 71.07C198.16 34.91 226.34 15 256 15s57.84 19.91 79.35 56.07c22.24 37.38 34.49 87.23 34.49 140.38 0 75.19-25.66 144.87-65.37 177.51a7.5 7.5 0 1 0 9.53 11.59c20.17-16.58 37.29-41.64 49.69-72.62v136.53H148.31V328a226 226 0 0 0 15.45 31.47c24.32 40.88 57.08 63.4 92.24 63.4a82.13 82.13 0 0 0 25-3.87 7.5 7.5 0 0 0-4.55-14.29A67.47 67.47 0 0 1 256 407.9c-29.66 0-57.84-19.92-79.35-56.07-22.24-37.38-34.49-87.23-34.49-140.38s12.25-103 34.49-140.38ZM99.93 211.45a8.74 8.74 0 0 1 8.77-8.77h18.58c-.07 2.91-.12 5.84-.12 8.77s0 5.86.12 8.77H108.7a8.77 8.77 0 0 1-8.77-8.77Zm20.57 23.77h7.5a330.28 330.28 0 0 0 5.57 42.48 7.16 7.16 0 0 0-.23 1.8v185H120.5Z"/>
    </symbol>

    <symbol id="oft-7">
      <title>Importance</title>
      <path fill="#997ab8" d="m136 72.51 10 188.42H76V72.51a30 30 0 1 1 60 0Zm0 0"/>
      <path fill="#ffc796" d="M123.5 25A17.5 17.5 0 1 1 106 7.5 17.5 17.5 0 0 1 123.5 25Zm0 0"/>
      <path fill="#b77e5a" d="M196 72.51v188.42h-60V72.51a30 30 0 1 1 60 0Zm0 0"/>
      <path fill="#ffc796" d="M183.5 25A17.5 17.5 0 1 1 166 7.5 17.5 17.5 0 0 1 183.5 25Zm0 0"/>
      <path fill="#f7775b" d="m256 72.51 10 188.42h-80l10-188.42a30 30 0 1 1 60 0Zm0 0"/>
      <path fill="#df9f7a" d="M243.5 25A17.5 17.5 0 1 1 226 7.5 17.5 17.5 0 0 1 243.5 25Zm0 0"/>
      <path fill="#ffc54b" d="M316 72.51v188.42h-60V72.51a30 30 0 1 1 60 0Zm0 0"/>
      <path fill="#ffc796" d="M303.5 25A17.5 17.5 0 1 1 286 7.5 17.5 17.5 0 0 1 303.5 25Zm0 0"/>
      <path fill="#ffe26f" d="m376 72.51 10 188.42h-80l10-188.42a30 30 0 1 1 60 0Zm0 0"/>
      <path fill="#ffc796" d="M363.5 25A17.5 17.5 0 1 1 346 7.5 17.5 17.5 0 0 1 363.5 25Zm0 0"/>
      <path fill="#d1e16f" d="M436 72.51v188.42h-60V72.51a30 30 0 0 1 23.55-29.3 29.24 29.24 0 0 1 6.45-.71 30 30 0 0 1 30 30Zm0 0"/>
      <path fill="#df9f7a" d="M423.5 25A17.5 17.5 0 1 1 406 7.5 17.5 17.5 0 0 1 423.5 25Zm0 0"/>
      <path fill="#6957a1" d="M76 86.5h60v174.43H76z"/>
      <path fill="#f25853" d="M196 86.5h60v174.43h-60z"/>
      <path fill="#ffc54b" d="M316 86.5h60v174.43h-60z"/>
      <path fill="#98654c" d="M136 86.5h60v174.43h-60z"/>
      <path fill="#feac38" d="M256 86.5h60v174.43h-60z"/>
      <path fill="#9ccc4b" d="M406 42.5a29.24 29.24 0 0 0-6.45.71A22 22 0 0 1 394 86.5h-18v174.43h60V72.51a30 30 0 0 0-30-30Zm0 0"/>
      <path fill="#997ab8" d="M466 180.26v90.91h-70l10-90.91a30 30 0 0 1 60 0Zm0 0"/>
      <path fill="#df9f7a" d="M453.5 132.75a17.5 17.5 0 1 1-17.5-17.5 17.49 17.49 0 0 1 17.5 17.5Zm0 0"/>
      <path fill="#e6f8fc" d="m226 180.26 10 90.91h-80l10-90.91a30 30 0 0 1 60 0Zm0 0"/>
      <path fill="#ffc796" d="M213.5 132.75a17.5 17.5 0 1 1-17.5-17.5 17.49 17.49 0 0 1 17.5 17.5Zm0 0"/>
      <path fill="#ffe26f" d="m106 180.26 10 90.91H46v-90.91a30 30 0 0 1 60 0Zm0 0"/>
      <path fill="#ffc796" d="M93.5 132.75a17.5 17.5 0 1 1-17.5-17.5 17.49 17.49 0 0 1 17.5 17.5Zm0 0"/>
      <path fill="#3a4b56" d="m346 180.26 10 90.91h-80l10-90.91a30 30 0 0 1 60 0Zm0 0"/>
      <path fill="#df9f7a" d="M333.5 132.75a17.5 17.5 0 1 1-17.5-17.5 17.49 17.49 0 0 1 17.5 17.5Zm0 0"/>
      <path fill="#d1e16f" d="M166 180.26v90.91h-60v-90.91a30 30 0 0 1 60 0Zm0 0"/>
      <path fill="#df9f7a" d="M153.5 132.75a17.5 17.5 0 1 1-17.5-17.5 17.49 17.49 0 0 1 17.5 17.5Zm0 0"/>
      <path fill="#b77e5a" d="M286 180.26v90.91h-60v-90.91a30 30 0 0 1 60 0Zm0 0"/>
      <path fill="#ffc796" d="M273.5 132.75a17.5 17.5 0 1 1-17.5-17.5 17.49 17.49 0 0 1 17.5 17.5Zm0 0"/>
      <path fill="#f7775b" d="M406 180.26v90.91h-60v-90.91a30 30 0 0 1 60 0Zm0 0"/>
      <path fill="#ffc796" d="M393.5 132.75a17.5 17.5 0 1 1-17.5-17.5 17.49 17.49 0 0 1 17.5 17.5Zm0 0"/>
      <path fill="#9ccc4b" d="M106 239.37h60v31.8h-60z"/>
      <path fill="#98654c" d="M226 239.37h60v31.8h-60z"/>
      <path fill="#f25853" d="M346 239.37h60v31.8h-60z"/>
      <path fill="#ffc54b" d="M46 239.37h60v31.8H46z"/>
      <path fill="#d0edf5" d="M166 239.37h60v31.8h-60z"/>
      <path fill="#26363f" d="M286 239.37h60v31.8h-60z"/>
      <path fill="#6957a1" d="M466 180.26v90.91h-60v-31.8h12.14a20.12 20.12 0 0 0 20.12-20.12v-38a31 31 0 0 0-16.5-27.39 30 30 0 0 1 44.24 26.4Zm0 0"/>
      <path fill="#7ac2ed" d="M482.37 260.91A226.3 226.3 0 0 1 390.71 443L311 470.66l-15.55-6.52L53.06 362.58a224.81 224.81 0 0 1-20.22-60l15.35-41.64Zm0 0"/>
      <path fill="#68a6dc" d="M482.37 260.91A226.3 226.3 0 0 1 390.71 443L311 470.66l-15.55-6.52c86.82-26.76 149.93-107.64 149.93-203.23Zm0 0"/>
      <path fill="#d1e16f" d="M85.85 260.91c-8 18.93-22.51 35.41-53 41.64A227.66 227.66 0 0 1 29 260.91ZM390.71 443a226.81 226.81 0 0 1-337.65-80.42c89.31 0 34.11-60 75.52-60 55.33 0 48.19 89.81 78.41 105.41 29.86 15.43 52.17-16.88 94.61-16.88 32.25 0 32.6 28.11 54.59 43 7.89 5.31 18.58 8.93 34.52 8.93Zm0 0"/>
      <path fill="#9ccc4b" d="M356.19 434c7.89 5.31 18.58 8.93 34.52 8.93a226.72 226.72 0 0 1-280-7.88 212.78 212.78 0 0 0 245.52-1Zm0 0"/>
      <path fill="#e6f8fc" d="M504.59 368.16a18.2 18.2 0 0 1-18.2 18.2h-96.78a24.82 24.82 0 1 1 15.17-44.46 37.78 37.78 0 0 1 75 6.69q0 1.34-.09 2.64a18.23 18.23 0 0 1 24.94 16.93Zm0 0"/>
      <path fill="#d0edf5" d="M504.59 368.16a18.2 18.2 0 0 1-18.2 18.2h-96.78a24.82 24.82 0 0 1-24.82-24.82c0 6.81 8.42 12.95 15.23 12.95h53.84a36.67 36.67 0 0 0 30.67-56.19 37.72 37.72 0 0 1 15.2 30.29c0 .89 0 1.77-.08 2.64a18.23 18.23 0 0 1 24.94 16.93Zm0 0"/>
      <path fill="#d1e16f" d="M263.41 260.91c20.67 16.82 38.93 43 32.9 56.8-7.14 16.36-58.73 12.62-71.34 0-9.07-9.07-13.62-38.46-9.33-56.8Zm0 0"/>
      <path d="M40.36 497H7.5a7.5 7.5 0 0 0 0 15h32.86a7.5 7.5 0 1 0 0-15ZM425.42 422.34A7.5 7.5 0 1 0 414.55 412a221.56 221.56 0 0 1-26.28 23.58c-26.78-.69-35.34-12.92-44.39-25.84-8.56-12.22-18.25-26.06-42.32-26.06-20.46 0-36.24 6.78-50.16 12.78-16 6.89-27.61 11.88-41 4.95-9.45-4.87-15.14-21.88-21.16-39.88-9.9-29.61-22.22-66.45-60.72-66.45-23.61 0-25.2 17.09-26.26 28.39-1.47 15.74-2.86 30.64-44.69 31.64a216.14 216.14 0 0 1-16.06-46.91c23-6.36 39.17-19.45 49.1-39.79h28a7.5 7.5 0 0 0 0-15H7.5a7.5 7.5 0 0 0 0 15h14.05a234.13 234.13 0 0 0 403.87 153.93ZM36.55 268.41h36.9c-7.85 12.31-19.13 20.43-34.65 25a222.29 222.29 0 0 1-2.25-25Zm219.1 211.82a217.69 217.69 0 0 1-155-64.24 220.42 220.42 0 0 1-35.42-46.24c19.12-1.38 32.53-6.19 40.8-14.61 9.21-9.37 10.29-21 11.16-30.27 1.16-12.44 1.69-14.78 11.33-14.78 25.77 0 35.14 22.25 46.5 56.21 7 21 13.63 40.78 28.49 48.45 19.7 10.18 36.28 3.05 53.82-4.5 13.21-5.69 26.87-11.56 44.24-11.56 16.26 0 22 8.24 30 19.66 7.84 11.2 17.18 24.53 38.18 29.88a219.71 219.71 0 0 1-26.2 13.65 217.5 217.5 0 0 1-87.92 18.35Zm0 0"/>
      <path d="M486.73 342.42a45.29 45.29 0 0 0-86.6-11.42 32.34 32.34 0 1 0-10.61 62.89h38a7.5 7.5 0 0 0 0-15h-38a17.34 17.34 0 0 1 0-34.67 17.14 17.14 0 0 1 10.58 3.61 7.49 7.49 0 0 0 12-4.61 30.28 30.28 0 0 1 60.08 5.38c0 .7 0 1.42-.08 2.13a7.5 7.5 0 0 0 10.26 7.48 10.72 10.72 0 1 1 4 20.68h-24.3a7.5 7.5 0 0 0 0 15h24.23a25.72 25.72 0 0 0 .44-51.43ZM143.4 496.93H75.53a7.5 7.5 0 0 0 0 15h67.87a7.5 7.5 0 1 0 0-15ZM90.38 479.91a7.5 7.5 0 0 0 0-15H27.51a7.5 7.5 0 1 0 0 15ZM415 496.93h-62.84a7.5 7.5 0 0 0 0 15H415a7.5 7.5 0 0 0 0-15ZM504.5 464.91h-92.89a7.5 7.5 0 0 0 0 15h92.89a7.5 7.5 0 0 0 0-15Zm0 0"/>
      <path d="M145.9 260.91a7.5 7.5 0 0 0 7.5 7.5h53.41c-1.72 19.19 2.71 44.54 12.76 54.6 8.59 8.58 28.32 13.09 45.9 13.09a84.08 84.08 0 0 0 15.3-1.3c14.56-2.75 20.18-9.19 22.32-14.1 6.66-15.24-6.11-36.3-20.91-52.29h192.57a223.1 223.1 0 0 1-1.78 21.54 7.5 7.5 0 0 0 6.45 8.42 8.38 8.38 0 0 0 1 .07 7.51 7.51 0 0 0 7.43-6.52 235.51 235.51 0 0 0 1.91-23.51h14.74a7.5 7.5 0 0 0 0-15H153.4a7.5 7.5 0 0 0-7.5 7.5Zm76 7.5h38.7a115.19 115.19 0 0 1 22.79 26c6.4 10.38 7.27 17.31 5.95 20.33-.7 1.61-4.1 4-11.36 5.36-17.39 3.28-41.67-1.53-47.8-7.66-5.74-5.73-10.25-27.29-8.32-44ZM46 238.48a7.5 7.5 0 0 0 7.5-7.5v-50.72a22.5 22.5 0 1 1 45 0V231a7.5 7.5 0 1 0 15 0v-50.74a22.5 22.5 0 1 1 45 0V231a7.5 7.5 0 1 0 15 0v-50.74a22.5 22.5 0 1 1 45 0V231a7.5 7.5 0 1 0 15 0v-50.74a22.5 22.5 0 1 1 45 0V231a7.5 7.5 0 1 0 15 0v-50.74a22.5 22.5 0 1 1 45 0V231a7.5 7.5 0 1 0 15 0v-50.74a22.5 22.5 0 1 1 45 0V231a7.5 7.5 0 1 0 15 0v-50.74a22.5 22.5 0 1 1 45 0V231a7.5 7.5 0 1 0 15 0v-50.74a37.51 37.51 0 0 0-17.92-32 25 25 0 1 0-39.16 0 37.76 37.76 0 0 0-10.42 9.52 37.76 37.76 0 0 0-10.42-9.49 25 25 0 1 0-39.16 0 37.76 37.76 0 0 0-10.42 9.49 37.76 37.76 0 0 0-10.42-9.49 25 25 0 1 0-39.16 0 37.76 37.76 0 0 0-10.42 9.49 37.76 37.76 0 0 0-10.42-9.49 25 25 0 1 0-39.16 0 37.76 37.76 0 0 0-10.42 9.49 37.76 37.76 0 0 0-10.42-9.49 25 25 0 1 0-39.16 0 37.76 37.76 0 0 0-10.42 9.49 37.76 37.76 0 0 0-10.42-9.49 25 25 0 1 0-39.16 0 37.76 37.76 0 0 0-10.42 9.49 37.76 37.76 0 0 0-10.42-9.49 25 25 0 1 0-39.16 0 37.51 37.51 0 0 0-17.92 32V231a7.5 7.5 0 0 0 7.5 7.5Zm390-115.73a10 10 0 1 1-10 10 10 10 0 0 1 10-10Zm-60 0a10 10 0 1 1-10 10 10 10 0 0 1 10-10Zm-60 0a10 10 0 1 1-10 10 10 10 0 0 1 10-10Zm-60 0a10 10 0 1 1-10 10 10 10 0 0 1 10-10Zm-60 0a10 10 0 1 1-10 10 10 10 0 0 1 10-10Zm-60 0a10 10 0 1 1-10 10 10 10 0 0 1 10-10Zm-60 0a10 10 0 1 1-10 10 10 10 0 0 1 10-10ZM76 92.72a7.5 7.5 0 0 0 7.5-7.5V72.51a22.5 22.5 0 1 1 45 0v12.71a7.5 7.5 0 0 0 15 0V72.51a22.5 22.5 0 1 1 45 0v12.71a7.5 7.5 0 1 0 15 0V72.51a22.5 22.5 0 0 1 45 0v12.71a7.5 7.5 0 1 0 15 0V72.51a22.5 22.5 0 1 1 45 0v12.71a7.5 7.5 0 1 0 15 0V72.51a22.5 22.5 0 1 1 45 0v12.71a7.5 7.5 0 1 0 15 0V72.51a22.5 22.5 0 1 1 45 0v12.71a7.5 7.5 0 1 0 15 0V72.51a37.51 37.51 0 0 0-17.92-32 25 25 0 1 0-39.16 0A38 38 0 0 0 376 50a38 38 0 0 0-10.42-9.5 25 25 0 1 0-39.16 0A38 38 0 0 0 316 50a38 38 0 0 0-10.42-9.5 25 25 0 1 0-39.16 0A38 38 0 0 0 256 50a38 38 0 0 0-10.42-9.5 25 25 0 1 0-39.16 0A38 38 0 0 0 196 50a38 38 0 0 0-10.42-9.5 25 25 0 1 0-39.16 0A38 38 0 0 0 136 50a38 38 0 0 0-10.42-9.5 25 25 0 1 0-39.16 0 37.54 37.54 0 0 0-17.92 32v12.72a7.5 7.5 0 0 0 7.5 7.5ZM406 15a10 10 0 1 1-10 10 10 10 0 0 1 10-10Zm-60 0a10 10 0 1 1-10 10 10 10 0 0 1 10-10Zm-60 0a10 10 0 1 1-10 10 10 10 0 0 1 10-10Zm-60 0a10 10 0 1 1-10 10 10 10 0 0 1 10-10Zm-60 0a10 10 0 1 1-10 10 10 10 0 0 1 10-10Zm-60 0a10 10 0 1 1-10 10 10 10 0 0 1 10-10Zm0 0"/>
    </symbol>

    <symbol id="oft-8">
      <title>Complexity</title>
      <path fill="#d3effb" d="M402.09 103.27a25.21 25.21 0 0 1-21-7.12 9.3 9.3 0 0 0-6.54-2.79h-1a9.07 9.07 0 0 0-9.07 9.07v46.49h46.49a9.07 9.07 0 0 1 9.07 9.07v1a9.33 9.33 0 0 1-2.78 6.54 25.25 25.25 0 1 0 35.84 0 9.24 9.24 0 0 1-2.76-6.5v-1a9.07 9.07 0 0 1 9.07-9.07H506V17.6a10.1 10.1 0 0 0-10.1-10.1H364.56V54a9.06 9.06 0 0 0 9.06 9.06h1a9.24 9.24 0 0 0 6.5-2.76 25.26 25.26 0 1 1 21 43Zm0 0"/>
      <path fill="#80cb8e" d="M410.21 400.61a25.21 25.21 0 0 1 7.13-21 9.33 9.33 0 0 0 2.78-6.54v-1a9.07 9.07 0 0 0-9.07-9.07h-46.49v46.49a9.07 9.07 0 0 1-9.07 9.07h-1a9.33 9.33 0 0 1-6.54-2.78 25.25 25.25 0 1 0 0 35.84 9.24 9.24 0 0 1 6.5-2.76h10v55.56h131.43a10.1 10.1 0 0 0 10.1-10.1V363.08h-46.49a9.07 9.07 0 0 0-9.07 9.06v1a9.24 9.24 0 0 0 2.76 6.5 25.26 25.26 0 1 1-43 21Zm0 0"/>
      <path fill="#b1e4f9" d="M495.88 7.5h-25.25a10.1 10.1 0 0 1 10.1 10.1v131.32H506V17.6a10.1 10.1 0 0 0-10.1-10.1Zm0 0"/>
      <path fill="#66b49d" d="M480.73 363.08V494.4a10.1 10.1 0 0 1-10.1 10.1h25.25a10.1 10.1 0 0 0 10.1-10.1V363.08Zm0 0"/>
      <path fill="#f6e266" d="M112.87 408.73a25.24 25.24 0 0 1 21 7.13 9.29 9.29 0 0 0 6.53 2.78h1a9.07 9.07 0 0 0 9.06-9.07v-46.49h-46.55a9.07 9.07 0 0 1-9.07-9.07v-1a9.3 9.3 0 0 1 2.79-6.54 25.25 25.25 0 1 0-35.85 0 9.24 9.24 0 0 1 2.76 6.5v1a9.07 9.07 0 0 1-9.06 9.07H9V494.4a10.1 10.1 0 0 0 10.1 10.1h131.3v-46.49a9.07 9.07 0 0 0-9.06-9.07h-1a9.25 9.25 0 0 0-6.51 2.76 25.26 25.26 0 1 1-21-43Zm0 0"/>
      <path fill="#ecbe6b" d="M126.16 363.08v46.49a9.24 9.24 0 0 1-.06 1.05 25.26 25.26 0 0 1 7.77 5.27 9.23 9.23 0 0 0 6.5 2.75h1a9.07 9.07 0 0 0 9.06-9.07v-46.49ZM133.87 451.69a25.28 25.28 0 0 1-7.71 5.25v47.56h24.24v-46.49a9.07 9.07 0 0 0-9.06-9.07h-1a9.23 9.23 0 0 0-6.5 2.75Zm0 0"/>
      <path fill="#e28086" d="M104.75 111.39a25.24 25.24 0 0 1-7.12 21 9.26 9.26 0 0 0-2.79 6.53v1a9.07 9.07 0 0 0 9.07 9.06h46.49v-46.55a9.07 9.07 0 0 1 9.07-9.07h1a9.3 9.3 0 0 1 6.53 2.82 25.25 25.25 0 1 0 0-35.85 9.24 9.24 0 0 1-6.5 2.76h-1a9.07 9.07 0 0 1-9.07-9.06V7.5H19.08A10.1 10.1 0 0 0 9 17.6v131.32h46.5a9.06 9.06 0 0 0 9.06-9.06v-1a9.25 9.25 0 0 0-2.76-6.51 25.26 25.26 0 1 1 43-21Zm0 0"/>
      <path fill="#dd636e" d="M135.23 63.06h1a9.25 9.25 0 0 0 6.51-2.76 25.11 25.11 0 0 1 7.77-5.26 9.26 9.26 0 0 1-.07-1V7.5h-24.28V54a9.07 9.07 0 0 0 9.07 9.06ZM142.73 96.18a9.3 9.3 0 0 0-6.54-2.79h-1a9.07 9.07 0 0 0-9.07 9.07v46.49h24.28v-46.52a8.93 8.93 0 0 1 .07-1 25.39 25.39 0 0 1-7.74-5.25ZM184.75 52.96a25.08 25.08 0 0 0-12.13 3.1 25.23 25.23 0 0 1 0 44.3 25.25 25.25 0 1 0 12.13-47.4Zm0 0"/>
      <path fill="#a0aab7" d="M338.69 256a81.86 81.86 0 0 0-.54-9.45 10.65 10.65 0 0 1 5.19-10.51l15.8-9.12a10.67 10.67 0 0 0 3.91-14.6l-14.95-25.91a10.69 10.69 0 0 0-14.6-3.91l-15.82 9.13a10.69 10.69 0 0 1-11.73-.77 80.17 80.17 0 0 0-16.25-9.4 10.79 10.79 0 0 1-6.57-9.87v-18.17a10.7 10.7 0 0 0-10.69-10.69h-29.92a10.69 10.69 0 0 0-10.68 10.69v18.17a10.78 10.78 0 0 1-6.58 9.87 80.17 80.17 0 0 0-16.25 9.4 10.69 10.69 0 0 1-11.73.77l-15.82-9.13a10.68 10.68 0 0 0-14.59 3.91l-15 25.91a10.67 10.67 0 0 0 3.91 14.6l15.8 9.12a10.65 10.65 0 0 1 5.19 10.51 83 83 0 0 0 0 18.9 10.65 10.65 0 0 1-5.19 10.51l-15.8 9.12a10.67 10.67 0 0 0-3.91 14.6l15 25.91a10.68 10.68 0 0 0 14.59 3.91l15.82-9.13a10.71 10.71 0 0 1 11.72.81 80.17 80.17 0 0 0 16.25 9.4 10.79 10.79 0 0 1 6.58 9.87v18.13a10.69 10.69 0 0 0 10.68 10.69h29.92a10.7 10.7 0 0 0 10.69-10.69v-18.17a10.8 10.8 0 0 1 6.57-9.87 80.17 80.17 0 0 0 16.31-9.36 10.71 10.71 0 0 1 11.73-.77l15.82 9.13a10.69 10.69 0 0 0 14.6-3.91l14.95-25.91a10.67 10.67 0 0 0-3.91-14.6l-15.8-9.12a10.65 10.65 0 0 1-5.19-10.51 81.86 81.86 0 0 0 .54-9.45Zm-81.21 20.65A20.65 20.65 0 1 1 278.13 256a20.64 20.64 0 0 1-20.65 20.65Zm0 0"/>
      <path fill="#dfeaef" d="M257.48 205.49A50.51 50.51 0 1 0 308 256a50.5 50.5 0 0 0-50.51-50.51Zm0 70A19.52 19.52 0 1 1 277 256a19.52 19.52 0 0 1-19.52 19.52Zm0 0"/>
      <path fill="#808b95" d="m359.14 285.08-15.8-9.12a10.65 10.65 0 0 1-5.19-10.51 83 83 0 0 0 0-18.9 10.67 10.67 0 0 1 5.19-10.51l15.8-9.12a10.67 10.67 0 0 0 3.91-14.6l-14.95-25.91a10.68 10.68 0 0 0-14-4.23 125 125 0 0 1 3.51 29.47c0 63.07-46.71 115.18-107.28 123.37a10.52 10.52 0 0 1 1.49 5.39v18.17a10.69 10.69 0 0 0 10.68 10.69h29.92a10.7 10.7 0 0 0 10.69-10.69v-18.17a10.8 10.8 0 0 1 6.57-9.87 81 81 0 0 0 16.32-9.36 10.67 10.67 0 0 1 11.72-.77l15.82 9.13a10.69 10.69 0 0 0 14.6-3.91l14.95-25.91a10.67 10.67 0 0 0-3.91-14.6Zm0 0"/>
      <path d="M495.88 0h-34.74a7.5 7.5 0 0 0 0 15h34.74a2.61 2.61 0 0 1 2.6 2.6v123.82h-39a16.59 16.59 0 0 0-16.57 16.57v1a16.67 16.67 0 0 0 4.94 11.8 17.75 17.75 0 1 1-30.2 14.78 17.79 17.79 0 0 1 5-14.77 16.73 16.73 0 0 0 5-11.82v-1a16.6 16.6 0 0 0-16.57-16.57h-39v-39a1.57 1.57 0 0 1 1.57-1.57h1a1.9 1.9 0 0 1 1.25.61 32.75 32.75 0 1 0 0-46.49 1.78 1.78 0 0 1-1.21.58h-1a1.56 1.56 0 0 1-1.56-1.56v-39h54.05a7.5 7.5 0 0 0 0-15h-61.62a7.5 7.5 0 0 0-7.5 7.5v46.5a16.58 16.58 0 0 0 16.56 16.56h1a16.65 16.65 0 0 0 11.79-4.94 17.76 17.76 0 1 1 0 25.2 16.77 16.77 0 0 0-11.82-5h-1a16.59 16.59 0 0 0-16.56 16.57v46.49a7.5 7.5 0 0 0 7.5 7.5h46.49a1.58 1.58 0 0 1 1.57 1.57v1a1.92 1.92 0 0 1-.59 1.25 32.76 32.76 0 0 0 19.56 55.61 34 34 0 0 0 3.63.2 32.75 32.75 0 0 0 23.31-55.81 1.81 1.81 0 0 1-.58-1.22v-1a1.57 1.57 0 0 1 1.57-1.57H506a7.5 7.5 0 0 0 7.5-7.5V17.6A17.63 17.63 0 0 0 495.9 0ZM506 355.58h-46.51a16.58 16.58 0 0 0-16.57 16.6v1a16.65 16.65 0 0 0 4.94 11.79 17.76 17.76 0 1 1-25.2 0 16.73 16.73 0 0 0 5-11.82v-1a16.59 16.59 0 0 0-16.57-16.57h-46.53a7.5 7.5 0 0 0-7.5 7.5v46.49a1.57 1.57 0 0 1-1.57 1.57h-1a1.92 1.92 0 0 1-1.26-.61 32.75 32.75 0 1 0 0 46.49 1.81 1.81 0 0 1 1.22-.58h2.54v48.06a7.5 7.5 0 0 0 7.5 7.5h131.39a17.63 17.63 0 0 0 17.6-17.6V363.08a7.5 7.5 0 0 0-7.5-7.5Zm-7.5 138.82a2.61 2.61 0 0 1-2.6 2.6H372.06v-48.06a7.5 7.5 0 0 0-7.5-7.5h-10a16.63 16.63 0 0 0-11.79 4.94 17.76 17.76 0 1 1 0-25.2 16.71 16.71 0 0 0 11.82 5h1a16.59 16.59 0 0 0 16.57-16.57v-39h39a1.57 1.57 0 0 1 1.57 1.57v1a1.9 1.9 0 0 1-.61 1.25 32.75 32.75 0 1 0 46.49 0 1.78 1.78 0 0 1-.58-1.21v-1a1.56 1.56 0 0 1 1.57-1.56h39ZM150.4 355.58h-46.49a1.57 1.57 0 0 1-1.57-1.57v-1a1.92 1.92 0 0 1 .61-1.26 32.75 32.75 0 1 0-46.49 0 1.81 1.81 0 0 1 .58 1.22v1a1.56 1.56 0 0 1-1.56 1.57H9a7.5 7.5 0 0 0-7.5 7.5V494.4A17.63 17.63 0 0 0 19.1 512h16.65a7.5 7.5 0 0 0 0-15H19.08a2.61 2.61 0 0 1-2.6-2.6V370.58h39A16.58 16.58 0 0 0 72 354.01v-1a16.63 16.63 0 0 0-4.94-11.79 17.64 17.64 0 0 1-5.16-12.51 17.75 17.75 0 1 1 30.4 12.52 16.77 16.77 0 0 0-5 11.82v1a16.59 16.59 0 0 0 16.57 16.57h39v39a1.57 1.57 0 0 1-1.56 1.57h-1a1.9 1.9 0 0 1-1.25-.61 32.75 32.75 0 1 0 0 46.49 1.81 1.81 0 0 1 1.22-.58h1a1.57 1.57 0 0 1 1.56 1.57v39H70.77a7.5 7.5 0 1 0 0 15h79.63a7.5 7.5 0 0 0 7.5-7.5v-46.55a16.59 16.59 0 0 0-16.56-16.57h-1a16.65 16.65 0 0 0-11.8 4.94 17.75 17.75 0 0 1-30.15-14.64 17.74 17.74 0 0 1 30.16-10.56 16.75 16.75 0 0 0 11.82 5h1a16.59 16.59 0 0 0 16.56-16.57v-46.53a7.5 7.5 0 0 0-7.5-7.5ZM9 156.42h46.5A16.58 16.58 0 0 0 72 139.86v-1a16.65 16.65 0 0 0-4.94-11.8 17.76 17.76 0 0 1 14.68-30.12 17.74 17.74 0 0 1 10.56 30.13 16.79 16.79 0 0 0-5 11.82v1a16.59 16.59 0 0 0 16.57 16.56h46.53a7.5 7.5 0 0 0 7.5-7.5v-46.52a1.58 1.58 0 0 1 1.57-1.57h1a1.92 1.92 0 0 1 1.26.61 32.75 32.75 0 1 0 0-46.49 1.81 1.81 0 0 1-1.22.58h-1a1.57 1.57 0 0 1-1.57-1.56V7.5a7.5 7.5 0 0 0-7.5-7.5H19.08a17.63 17.63 0 0 0-17.6 17.6v131.32a7.5 7.5 0 0 0 7.5 7.5ZM16.5 17.6a2.61 2.61 0 0 1 2.6-2.6h123.8v39a16.59 16.59 0 0 0 16.57 16.56h1a16.67 16.67 0 0 0 11.8-4.94 17.61 17.61 0 0 1 12.51-5.16 17.75 17.75 0 1 1-12.5 30.36 16.77 16.77 0 0 0-11.82-5h-1a16.6 16.6 0 0 0-16.57 16.57v39h-39a1.57 1.57 0 0 1-1.57-1.56v-1a1.9 1.9 0 0 1 .61-1.25 32.75 32.75 0 1 0-46.49 0 1.81 1.81 0 0 1 .58 1.22v1a1.56 1.56 0 0 1-1.56 1.56h-39ZM240.27 86.72h6a7.5 7.5 0 0 0 0-15h-6a7.5 7.5 0 0 0 0 15ZM279.82 86.72h14.92a7.5 7.5 0 0 0 0-15h-14.92a7.5 7.5 0 0 0 0 15ZM328.29 86.72h6a7.5 7.5 0 0 0 0-15h-6a7.5 7.5 0 0 0 0 15ZM434.26 252.29a7.5 7.5 0 0 0 7.5-7.5v-6a7.5 7.5 0 0 0-15 0v6a7.5 7.5 0 0 0 7.5 7.5ZM426.76 293.26a7.5 7.5 0 0 0 15 0v-14.92a7.5 7.5 0 0 0-15 0ZM426.76 332.81a7.5 7.5 0 0 0 15 0v-6a7.5 7.5 0 0 0-15 0ZM274.69 425.28h-6a7.5 7.5 0 1 0 0 15h6a7.5 7.5 0 0 0 0-15ZM235.14 425.28h-14.91a7.5 7.5 0 0 0 0 15h14.91a7.5 7.5 0 0 0 0-15ZM186.67 425.28h-6a7.5 7.5 0 1 0 0 15h6a7.5 7.5 0 0 0 0-15ZM80.7 259.71a7.5 7.5 0 0 0-7.5 7.5v6a7.5 7.5 0 0 0 15 0v-6a7.5 7.5 0 0 0-7.5-7.5ZM88.2 218.75a7.5 7.5 0 0 0-15 0v14.91a7.5 7.5 0 0 0 15 0ZM88.2 179.18a7.5 7.5 0 0 0-15 0v6a7.5 7.5 0 0 0 15 0ZM313.93 326.86l15.82 9.14a18.2 18.2 0 0 0 24.84-6.66l15-25.91a18.17 18.17 0 0 0-6.66-24.84l-15.8-9.13a3.16 3.16 0 0 1-1.49-3.15 90.38 90.38 0 0 0 0-20.62 3.17 3.17 0 0 1 1.49-3.15l15.8-9.13a18.17 18.17 0 0 0 6.66-24.84l-15-25.91a18.2 18.2 0 0 0-24.84-6.66l-15.82 9.18a3.15 3.15 0 0 1-3.49-.29 89.29 89.29 0 0 0-17.76-10.27 3.29 3.29 0 0 1-2.05-3v-18.21a18.21 18.21 0 0 0-18.19-18.18h-29.92a18.2 18.2 0 0 0-18.18 18.18v18.18a3.3 3.3 0 0 1-2.06 3 89.29 89.29 0 0 0-17.76 10.27 3.17 3.17 0 0 1-3.52.32l-15.81-9.13a18.2 18.2 0 0 0-24.85 6.66l-15 25.91a18.2 18.2 0 0 0 6.66 24.84l15.8 9.13a3.16 3.16 0 0 1 1.49 3.15 90.38 90.38 0 0 0 0 20.62 3.17 3.17 0 0 1-1.49 3.15l-15.8 9.12a18.21 18.21 0 0 0-6.66 24.85l15 25.91a18.2 18.2 0 0 0 24.85 6.66l15.81-9.19a3.17 3.17 0 0 1 3.49.3 88.81 88.81 0 0 0 17.76 10.27 3.3 3.3 0 0 1 2.06 3v18.15a18.2 18.2 0 0 0 18.18 18.19h29.92a18.2 18.2 0 0 0 18.19-18.19v-18.17a3.29 3.29 0 0 1 2.05-3 88.81 88.81 0 0 0 17.79-10.23 3.19 3.19 0 0 1 3.49-.3Zm-27.2-3.2a18.29 18.29 0 0 0-11.1 16.75v18.17a3.19 3.19 0 0 1-3.19 3.19h-29.92a3.18 3.18 0 0 1-3.18-3.19v-18.17a18.29 18.29 0 0 0-11.1-16.75 73.71 73.71 0 0 1-14.75-8.48 18.33 18.33 0 0 0-11-3.66 17.94 17.94 0 0 0-9 2.41l-15.81 9.13a3.21 3.21 0 0 1-4.36-1.17l-15-25.91a3.17 3.17 0 0 1 1.17-4.35l15.8-9.13a18.13 18.13 0 0 0 8.89-17.87 74.4 74.4 0 0 1-.49-8.58 76.71 76.71 0 0 1 .49-8.58 18.13 18.13 0 0 0-8.89-17.87l-15.8-9.13a3.17 3.17 0 0 1-1.49-1.93 3.23 3.23 0 0 1 .32-2.42l15-25.91a3.2 3.2 0 0 1 4.36-1.16l15.85 9.13a18.19 18.19 0 0 0 20-1.25 73.28 73.28 0 0 1 14.75-8.54 18.29 18.29 0 0 0 11.1-16.75v-18.22a3.19 3.19 0 0 1 3.18-3.19h29.92a3.19 3.19 0 0 1 3.19 3.19v18.17a18.29 18.29 0 0 0 11.1 16.75 73.83 73.83 0 0 1 14.75 8.54 18.17 18.17 0 0 0 19.91 1.3l15.82-9.13a3.18 3.18 0 0 1 4.35 1.13l15 25.91a3.14 3.14 0 0 1 .32 2.42 3.19 3.19 0 0 1-1.48 1.93l-15.81 9.13a18.15 18.15 0 0 0-8.89 17.87 75.36 75.36 0 0 1 0 17.16 18.15 18.15 0 0 0 8.89 17.87l15.8 9.13a3.17 3.17 0 0 1 1.49 1.93 3.14 3.14 0 0 1-.32 2.42l-15 25.91a3.17 3.17 0 0 1-1.93 1.49 3.23 3.23 0 0 1-2.42-.32l-15.82-9.13a18.17 18.17 0 0 0-19.95 1.28 74.27 74.27 0 0 1-14.75 8.53Zm0 0"/>
      <path d="M257.48 228.98a27 27 0 1 0 27 27 27 27 0 0 0-27-27Zm0 39a12 12 0 1 1 12-12 12 12 0 0 1-12 12Zm0 0"/>
      <path d="M257.48 197.99a58 58 0 1 0 58 58 58.08 58.08 0 0 0-58-58Zm0 101a43 43 0 1 1 43-43 43.07 43.07 0 0 1-43 43Zm0 0"/>
    </symbol>

    <symbol id="oft-9">
      <title>Movement</title>
      <path fill="#ffdb2d" d="M228.16 256A110.26 110.26 0 1 1 117.9 145.75 110.26 110.26 0 0 1 228.16 256Zm0 0"/>
      <path fill="#ffc125" d="M308.29 256A110.25 110.25 0 1 1 198 145.75 110.25 110.25 0 0 1 308.29 256Zm0 0"/>
      <path fill="#ffa71c" d="M384 256a110.26 110.26 0 1 1-110.25-110.25A110.26 110.26 0 0 1 384 256Zm0 0"/>
      <path fill="#ff8d14" d="M448.66 256a110.25 110.25 0 1 1-110.25-110.25A110.25 110.25 0 0 1 448.66 256Zm0 0"/>
      <path fill="#ff730b" d="M504.34 256a110.25 110.25 0 1 1-110.25-110.25A110.25 110.25 0 0 1 504.34 256Zm0 0"/>
      <path d="M394.09 138.09a118.2 118.2 0 0 0-27.84 3.33 117.92 117.92 0 0 0-60.16 1.19 117.93 117.93 0 0 0-70.19 1.72 118.19 118.19 0 0 0-77.94.75 117.91 117.91 0 1 0 0 221.84 118.19 118.19 0 0 0 77.94.75 117.93 117.93 0 0 0 70.19 1.72 117.92 117.92 0 0 0 60.16 1.19 117.91 117.91 0 1 0 27.84-232.49ZM198 358.6a102.41 102.41 0 0 1-37.29-7l-.2-.08a102.21 102.21 0 0 1-31.88-20 7.66 7.66 0 0 0-10.36 11.28 118 118 0 0 0 18.62 14 102.6 102.6 0 1 1-.05-201.69l-.42.27A118 118 0 0 0 92.3 308.23a7.66 7.66 0 0 0 13.72-6.8 102.68 102.68 0 0 1 54.41-140.92l.17-.07.15-.06a102.41 102.41 0 0 1 37.29-7 103.7 103.7 0 0 1 15.59 1.18 118.85 118.85 0 0 0-23.2 18 117.89 117.89 0 0 0 0 166.82 119.24 119.24 0 0 0 23.2 18A103.7 103.7 0 0 1 198 358.6Zm110.28-4.5a102.7 102.7 0 0 1-63.85-139.41 7.65 7.65 0 1 0-14-6.17 118 118 0 0 0 32.89 138.4c1.19 1 2.41 1.95 3.63 2.88l.55.43q1.75 1.32 3.56 2.58l.68.47q1.82 1.25 3.67 2.43l.53.33q1.92 1.2 3.88 2.33h.07c-2 .12-4.1.19-6.17.19a102.59 102.59 0 0 1-72.5-175.18 103.53 103.53 0 0 1 37.27-23.81 102.26 102.26 0 0 1 35.22-6.21c2.07 0 4.13.07 6.18.19a116.84 116.84 0 0 0-16.54 11.47 118.53 118.53 0 0 0-15.74 15.7 7.66 7.66 0 0 0 11.79 9.78 103.56 103.56 0 0 1 13.7-13.68 102.2 102.2 0 0 1 62.78-23.43 117.16 117.16 0 0 0-6.15 3.74 117.82 117.82 0 0 0-53.29 91.12h-12.57a7.66 7.66 0 1 0 0 15.31h12.57a117.92 117.92 0 0 0 53.3 91.21c2 1.31 4.06 2.56 6.15 3.75a102.15 102.15 0 0 1-27.57-4.47Zm85.77 4.5a102.9 102.9 0 0 1-25.91-3.31A101.93 101.93 0 0 1 338.11 342a103 103 0 0 1-35.24-39 101 101 0 0 1-11.09-39.37h146.49L421 280.86a7.66 7.66 0 0 0 5.42 13.07 7.59 7.59 0 0 0 5.41-2.24l29.52-29.52a7.65 7.65 0 0 0 3.2-6.21v-.08a7.69 7.69 0 0 0-2.24-5.5l-8.6-8.59-21.46-21.47a7.66 7.66 0 0 0-10.83 10.83l17.15 17.16H291.79A100.74 100.74 0 0 1 302.88 209a103 103 0 0 1 35.23-39 101.93 101.93 0 0 1 30.06-13.3 102.61 102.61 0 1 1 25.92 201.9Zm0 0"/>
    </symbol>

    <symbol id="oft-10">
      <title>Duration</title>
      <path fill="#95d6a4" fill-rule="evenodd" d="M194.41 62.29C100.05 89.19 31 176.06 31 279.07 31 403.56 131.85 504.5 256.34 504.5c102.33 0 188.72-68.17 216.24-161.57a19.64 19.64 0 0 0-37.67-11.16 186.19 186.19 0 0 1-178.57 133.44c-102.78 0-186.11-83.33-186.11-186.14S153.56 93 256.34 93a19.66 19.66 0 0 0 9.33-37L180 9.85a19.65 19.65 0 0 0-18.62 34.61ZM329.64 108a189.83 189.83 0 0 1 21.6 11 19.65 19.65 0 0 0 20-33.82 233 233 0 0 0-26.16-13.29A19.65 19.65 0 1 0 329.64 108ZM402.94 133.29a19.71 19.71 0 0 0-2.69 27.71 187.83 187.83 0 0 1 14.11 19.7 19.64 19.64 0 0 0 33.33-20.78A222.61 222.61 0 0 0 430.6 136a19.7 19.7 0 0 0-27.66-2.72ZM453.54 217.31a19.68 19.68 0 0 0-15.14 23.29 193.51 193.51 0 0 1 3.43 24 19.64 19.64 0 0 0 39.17-3.07 230.26 230.26 0 0 0-4.17-29.06 19.67 19.67 0 0 0-23.29-15.16Zm0 0"/>
      <path fill="#eff6ff" fill-rule="evenodd" d="M256.34 134.57a144.5 144.5 0 1 0 144.5 144.5 144.5 144.5 0 0 0-144.5-144.5Zm0 0"/>
      <path fill="#d9eeff" fill-rule="evenodd" d="M256.34 141.88a144.55 144.55 0 0 1 0 272.59 141.51 141.51 0 0 1-26.7 6.64 144.51 144.51 0 1 0 26.7-286.54 146.88 146.88 0 0 0-21.4 1.56 145 145 0 0 1 21.4 5.75Zm0 0"/>
      <path fill="#ffd772" fill-rule="evenodd" d="M280.21 278.81a23.87 23.87 0 1 0-23.87 23.87 23.87 23.87 0 0 0 23.87-23.87Zm0 0"/>
      <path d="M109.2 118.35a218.39 218.39 0 0 1 87.26-48.85A7.51 7.51 0 0 0 198 55.68l-33.11-17.83a12.13 12.13 0 0 1 2.27-22.32 12 12 0 0 1 9.24.92l85.7 46.14a12.17 12.17 0 0 1-5.76 22.87c-106.75 0-193.61 86.85-193.61 193.61s86.86 193.64 193.61 193.64a194.14 194.14 0 0 0 88-21.14 7.5 7.5 0 0 0-6.83-13.36 176.59 176.59 0 0 1-81.2 19.5c-98.48 0-178.61-80.14-178.61-178.64s80.13-178.61 178.61-178.61a27.08 27.08 0 0 0 26.32-20.52 26.8 26.8 0 0 0-13.44-30.55L183.51 3.25a27.2 27.2 0 0 0-36.78 11 27.19 27.19 0 0 0 11 36.77l17.7 9.54a234 234 0 0 0-76.41 46.7 7.5 7.5 0 1 0 10.14 11Zm0 0"/>
      <path fill="none" d="M22.67 0h466.67v512H22.67z"/>
      <path d="M461.41 311.33a27.14 27.14 0 0 0-33.69 18.32 177.91 177.91 0 0 1-60.81 89.74 7.5 7.5 0 0 0 9.3 11.77 192.79 192.79 0 0 0 65.9-97.29 11.92 11.92 0 0 1 5.8-7.15 12.16 12.16 0 0 1 17.48 14.09c-27.1 92-113.07 156.19-209 156.19-120.15 0-217.9-97.76-217.9-217.93A218.38 218.38 0 0 1 87 141.87a7.5 7.5 0 0 0-11.66-9.45 232.95 232.95 0 0 0 181 379.58 230.83 230.83 0 0 0 140.71-47.29 234.63 234.63 0 0 0 82.73-119.65 27.2 27.2 0 0 0-18.37-33.73ZM394.44 165.71a181.43 181.43 0 0 1 13.56 18.9 26.88 26.88 0 0 0 16.85 12.07 27.58 27.58 0 0 0 6.23.72 27.15 27.15 0 0 0 23-41.48 232.47 232.47 0 0 0-17.67-24.67 27.15 27.15 0 0 0-42 34.46Zm13.26-26.62a12 12 0 0 1 7.67-2.74 10.13 10.13 0 0 1 1.23.06 12.06 12.06 0 0 1 8.21 4.36 215.51 215.51 0 0 1 16.52 23.08 12.13 12.13 0 0 1-13.08 18.22 12 12 0 0 1-7.52-5.37 196 196 0 0 0-14.67-20.49 12.17 12.17 0 0 1 1.65-17.11ZM326.69 114.84a186.54 186.54 0 0 1 20.72 10.52 26.79 26.79 0 0 0 13.76 3.81 27.58 27.58 0 0 0 6.78-.86 27.16 27.16 0 0 0 7.12-49.66 240.47 240.47 0 0 0-27-13.74 27.15 27.15 0 0 0-21.35 49.93Zm-.5-29.74a12.08 12.08 0 0 1 6.65-6.48 12.34 12.34 0 0 1 4.57-.89 11.81 11.81 0 0 1 4.7 1 223.28 223.28 0 0 1 25.31 12.85 12.15 12.15 0 0 1-12.37 20.91 198.79 198.79 0 0 0-22.45-11.4 12.17 12.17 0 0 1-6.39-16ZM452 210a27.17 27.17 0 0 0-20.92 32.17 188.72 188.72 0 0 1 3.29 23 27.16 27.16 0 0 0 27 25c.72 0 1.44 0 2.17-.09a27.22 27.22 0 0 0 25-29.19 240 240 0 0 0-4.3-30A27.19 27.19 0 0 0 452 210Zm12.25 16.39a12 12 0 0 1 5.26 7.65 224.92 224.92 0 0 1 4 28.08 12.21 12.21 0 0 1-11.2 13.08 12.15 12.15 0 0 1-13-11.18 201.6 201.6 0 0 0-3.56-24.91 12.13 12.13 0 0 1 18.5-12.7Zm0 0"/>
      <path fill="none" d="M22.67 0h466.67v512H22.67z"/>
      <path d="M256.34 127.07c-83.81 0-152 68.18-152 152s68.19 152 152 152 152-68.18 152-152-68.18-152-152-152Zm119.59 159.24h17.22a136.48 136.48 0 0 1-34.7 84l-12.26-12.24a7.5 7.5 0 1 0-10.6 10.62l12.27 12.25a136.48 136.48 0 0 1-84 34.94v-17.5a7.5 7.5 0 0 0-15 0v17.5a136.47 136.47 0 0 1-84-34.93l12.26-12.27a7.5 7.5 0 1 0-10.6-10.6l-12.25 12.24a136.49 136.49 0 0 1-34.71-84h17.26a7.5 7.5 0 1 0 0-15h-17.26a136.46 136.46 0 0 1 34.93-83.77l12 12A7.5 7.5 0 1 0 177.1 189l-12-12a136.43 136.43 0 0 1 83.73-34.68v16.95a7.5 7.5 0 0 0 15 0v-16.99A136.45 136.45 0 0 1 347.58 177l-12 12a7.5 7.5 0 0 0 10.61 10.61l12-12a136.49 136.49 0 0 1 34.91 83.76h-17.17a7.5 7.5 0 1 0 0 15Zm0 0"/>
      <path d="M315.89 271.31h-29.1a31.41 31.41 0 0 0-30.45-23.86 31 31 0 0 0-5.4.48l-24.52-58.82a7.5 7.5 0 0 0-13.85 5.77L237.21 254a31.36 31.36 0 1 0 49.59 32.33h29.1a7.5 7.5 0 1 0 0-15Zm-59.55 23.87a16.37 16.37 0 1 1 16.37-16.37 16.39 16.39 0 0 1-16.37 16.37Zm0 0"/>
    </symbol>

    <symbol id="oft-11">
      <title>Explanation</title>
      <path fill="#fedf30" d="M169.3 130.07a158.69 158.69 0 0 0-99.37 284.82 13.55 13.55 0 0 1 5.31 9.52c1.48 16.59-12.31 31.81-21.31 39.89a3.28 3.28 0 0 0 2.43 5.7c29.27-1.9 47.44-12.2 58.69-23.56a13.64 13.64 0 0 1 13-3.66 159.18 159.18 0 0 0 43.42 4.54c85.3-2.77 153.54-73.48 153.42-158.82A158.68 158.68 0 0 0 169.3 130.07Zm0 0"/>
      <path fill="#fac600" d="M324.87 288.51c.12 85.34-68.12 156.05-153.42 158.82a159.18 159.18 0 0 1-43.45-4.54 13.64 13.64 0 0 0-13 3.66c-11.2 11.36-29.37 21.66-58.64 23.55a3.28 3.28 0 0 1-2.43-5.71 81.07 81.07 0 0 0 15.61-18.45c11.81-4.42 24.54-14.56 31-21.09a13.68 13.68 0 0 1 13-3.66c13.84 3.42 26.88 6.35 41.89 5.86 85.3-2.77 151.06-70.82 151-156.16a158.1 158.1 0 0 0-40.11-105.24 158.39 158.39 0 0 1 58.62 123Zm0 0"/>
      <path fill="#fe646f" d="M442.07 326.87a158.69 158.69 0 1 0-254.94-126.38c-.12 85.34 68.12 156.05 153.42 158.82a159.18 159.18 0 0 0 43.45-4.54 13.62 13.62 0 0 1 13 3.66c11.2 11.37 29.37 21.67 58.64 23.57a3.28 3.28 0 0 0 2.43-5.71c-9-8.08-22.79-23.33-21.31-39.89a13.59 13.59 0 0 1 5.31-9.53Zm0 0"/>
      <path fill="#fd4755" d="M458.07 376.29a3.27 3.27 0 0 1-2.43 5.7 119.13 119.13 0 0 1-20-2.89 3.28 3.28 0 0 0 1.46-5.64c-9-8.08-22.79-23.32-21.31-39.89a13.47 13.47 0 0 1 5.31-9.51A158.75 158.75 0 0 0 356.88 42.4a158.7 158.7 0 0 1 85.19 284.47 13.57 13.57 0 0 0-5.31 9.53c-1.48 16.56 12.3 31.81 21.31 39.89Zm0 0"/>
      <path d="M84.24 246.72h56.05a7.5 7.5 0 0 0 0-15h-56a7.5 7.5 0 1 0 0 15ZM84.24 279.54h56.05a7.5 7.5 0 0 0 0-15h-56a7.5 7.5 0 1 0 0 15ZM124.73 304.86a7.49 7.49 0 0 0 7.49 7.5H178a7.5 7.5 0 0 0 0-15h-45.78a7.49 7.49 0 0 0-7.49 7.5ZM84.24 312.36h12.69a7.5 7.5 0 0 0 0-15H84.24a7.5 7.5 0 0 0 0 15ZM84.24 345.72H178a7.5 7.5 0 0 0 0-15H84.24a7.5 7.5 0 1 0 0 15Zm0 0"/>
      <path d="M446.62 332.83a167.7 167.7 0 0 0 48.23-58.52A166.2 166.2 0 0 0 227.32 84.19a166.44 166.44 0 0 0-29.76 41.32 168.32 168.32 0 0 0-28.12-2.94c-46-.88-89.1 16.49-121.32 48.93a7.5 7.5 0 0 0 10.64 10.56 150 150 0 0 1 107.34-44.52 155.75 155.75 0 0 1 25.11 2.05 166.13 166.13 0 0 0 42.66 183.74A7.5 7.5 0 0 0 244 312.27a151.22 151.22 0 1 1 253-114.35 149.46 149.46 0 0 1-15.57 69.74 152.58 152.58 0 0 1-43.89 53.26 21.08 21.08 0 0 0-8.22 14.8c-1.32 14.69 6.92 28 15.21 37.5-17.7-2.87-31.87-9.59-42.23-20.06a21.28 21.28 0 0 0-20.11-5.67 151 151 0 0 1-111.42-15.62 7.49 7.49 0 0 0-7.48 13 165.26 165.26 0 0 0 36 15.36 152.23 152.23 0 0 1-24.51 33.46 150.93 150.93 0 0 1-145 41.83 21.28 21.28 0 0 0-20.11 5.67c-10.36 10.46-24.53 17.19-42.23 20.06 8.29-9.48 16.53-22.81 15.21-37.5a21.1 21.1 0 0 0-8.21-14.8 152.5 152.5 0 0 1-43.9-53.26A149.46 149.46 0 0 1 15 285.94a151.43 151.43 0 0 1 23-77.76 7.49 7.49 0 1 0-12.7-8A166.35 166.35 0 0 0 0 285.66a164.45 164.45 0 0 0 17.12 76.67 167.7 167.7 0 0 0 48.23 58.52 6.05 6.05 0 0 1 2.39 4.23c.52 5.78-1.24 17.85-18.85 33.64a10.84 10.84 0 0 0-3.41 6 11.17 11.17 0 0 0 3.42 10.1 10.89 10.89 0 0 0 6.52 2.56c6.38.55 13.62-1 19.82-2.32A101 101 0 0 0 97 468a80.65 80.65 0 0 0 23.39-16.27 6.08 6.08 0 0 1 5.86-1.66 166.75 166.75 0 0 0 188.1-86.2 164 164 0 0 0 26 2.94 167 167 0 0 0 45.46-4.75 6.1 6.1 0 0 1 5.86 1.65c15.2 15.36 36.57 24 63.53 25.77a10.9 10.9 0 0 0 10.67-6.59 10.65 10.65 0 0 0-2.74-12.18c-17.61-15.79-19.37-27.86-18.85-33.64a6.05 6.05 0 0 1 2.39-4.23Zm0 0"/>
      <path d="M427.76 143.71h-163.9a7.5 7.5 0 0 0 0 15h163.9a7.5 7.5 0 0 0 0-15ZM427.76 176.53H316.69a7.5 7.5 0 0 0 0 15h111.07a7.5 7.5 0 0 0 0-15ZM263.86 191.53h18.31a7.5 7.5 0 0 0 0-15h-18.31a7.5 7.5 0 0 0 0 15ZM263.86 224.34H376a7.5 7.5 0 1 0 0-15H263.86a7.5 7.5 0 0 0 0 15ZM376 242.71h-30.18a7.5 7.5 0 1 0 0 15H376a7.5 7.5 0 1 0 0-15ZM263.86 257.7h47.51a7.5 7.5 0 1 0 0-15h-47.51a7.5 7.5 0 0 0 0 15Zm0 0"/>
    </symbol>

    <symbol id="oft-12">
      <title>Frequency of Use</title>
      <path fill="#eaf6ff" d="M426.84 256A170.85 170.85 0 1 1 256 85.15 170.85 170.85 0 0 1 426.84 256Zm0 0"/>
      <path fill="#d8ecfe" d="M278.83 86.67A155.34 155.34 0 1 1 86.67 278.83 170.85 170.85 0 1 0 278.83 86.67Zm0 0"/>
      <path fill="#26a6fe" d="m102.89 229.82 32.49 59.35a5.59 5.59 0 0 1-5.39 8.24l-20.71-1.82a2.51 2.51 0 0 0-2.62 3.2 155.5 155.5 0 0 0 123.16 110.33l10.31 63.75C139.34 465.6 57.57 389.63 41.45 291.55a2.49 2.49 0 0 0-2.24-2.09l-26.62-2.33a5.58 5.58 0 0 1-3.87-9l30.41-38 46-77.32Zm0 0"/>
      <path fill="#ffc344" d="M271.53 318.13h-88.19a5 5 0 0 1-5-5V198.87a5 5 0 0 1 5-5h23.56l13 15.54 23-15.54h28.56l15.6 62.13Zm0 0"/>
      <path fill="#46cc8d" d="m196 427.63 93.18-51a5.58 5.58 0 0 1 8.24 5.39l-1.82 20.71a2.51 2.51 0 0 0 3.2 2.62 155.5 155.5 0 0 0 110.31-123.17l63.76-10.31c-7.27 100.8-83.25 182.56-181.32 198.68a2.49 2.49 0 0 0-2.09 2.24l-2.33 26.61a5.57 5.57 0 0 1-9 3.87l-82.91-66.4a5.57 5.57 0 0 1 .81-9.24Zm0 0"/>
      <path fill="#26a6fe" d="m427.63 316-51-93.18a5.59 5.59 0 0 1 5.4-8.24l20.7 1.82a2.51 2.51 0 0 0 2.62-3.2 155.5 155.5 0 0 0-123.17-110.31l-10.31-63.76c100.8 7.27 182.56 83.25 198.68 181.32a2.49 2.49 0 0 0 2.24 2.09l26.61 2.33a5.57 5.57 0 0 1 3.87 9l-66.4 82.91a5.57 5.57 0 0 1-9.24-.81Zm0 0"/>
      <path fill="#46cc8d" d="M316 84.38a5.58 5.58 0 0 0 .81-9.25l-82.9-66.4a5.58 5.58 0 0 0-9 3.87l-2.33 26.61a2.51 2.51 0 0 1-2.09 2.25c-98.07 16.11-174 97.88-181.32 198.67l36-44.95a5.58 5.58 0 0 1 9.25.81l18.51 33.83a155.5 155.5 0 0 1 110.28-123.16 2.5 2.5 0 0 1 3.19 2.62L214.59 130a5.59 5.59 0 0 0 8.24 5.39Zm0 0"/>
      <path fill="#feb237" d="M271.53 318.13h57.12a5 5 0 0 0 5-5V198.87a5 5 0 0 0-5-5h-57.12Zm0 0"/>
      <path fill="#fff3be" d="M240.47 224.94h-31.06a2.49 2.49 0 0 1-2.5-2.5v-28.57H243v28.57a2.5 2.5 0 0 1-2.5 2.5Zm0 0"/>
      <path d="M510.93 225.26a13 13 0 0 0-10.87-7.86l-22.77-2A225.06 225.06 0 0 0 274.75 31.83l-36.16-29A13.07 13.07 0 0 0 217.4 12l-2 22.77a223.1 223.1 0 0 0-35.09 9.4 7.5 7.5 0 1 0 5 14.12 209.27 209.27 0 0 1 36.32-9.39 10 10 0 0 0 8.34-9l2-23 77.85 62.35-87.51 47.9 1.51-17.15a10 10 0 0 0-12.74-10.48 163.64 163.64 0 0 0-111.01 109.54L91 192.4a13.08 13.08 0 0 0-21.69-1.91l-19.13 23.84A209.23 209.23 0 0 1 154.67 72.09 7.5 7.5 0 1 0 147.41 59 224.95 224.95 0 0 0 31.83 237.25l-29 36.16a13.08 13.08 0 0 0 9.08 21.19l22.77 2a225.07 225.07 0 0 0 202.56 183.57l36.17 29a13.07 13.07 0 0 0 21.19-9.08l2-22.78a225 225 0 0 0 183.57-202.55l29-36.17a13.06 13.06 0 0 0 1.79-13.33ZM48.86 290.34a10 10 0 0 0-9-8.35l-23-2 62.35-77.86 47.9 87.51-17.15-1.5a9.94 9.94 0 0 0-8.58 3.59 10.06 10.06 0 0 0-1.91 9.14 163.81 163.81 0 0 0 59.43 85.83 7.38 7.38 0 0 0 4.47 1.48 7.5 7.5 0 0 0 4.48-13.51 149 149 0 0 1-51.79-70.95l13.29 1.17A13.09 13.09 0 0 0 142 285.57l-31.22-57a148.46 148.46 0 0 1 97.54-112.48l-1.16 13.29A13.08 13.08 0 0 0 226.43 142l57-31.22a148.47 148.47 0 0 1 112.47 97.55l-13.29-1.17A13.09 13.09 0 0 0 370 226.43l31.22 57.05a148.43 148.43 0 0 1-97.54 112.46l1.16-13.28a13.08 13.08 0 0 0-19.31-12.61l-57 31.22a147.12 147.12 0 0 1-31.08-9.5 7.5 7.5 0 0 0-5.95 13.77 159.72 159.72 0 0 0 17.5 6.39L192.4 421a13.07 13.07 0 0 0-1.91 21.69l23.86 19.11A208.87 208.87 0 0 1 48.86 290.34Zm241.47 172.81a10 10 0 0 0-8.34 9l-2 23-77.85-62.36 87.5-47.9-1.5 17.15a10 10 0 0 0 12.73 10.48A163.61 163.61 0 0 0 411.92 303l9.08 16.6a13.06 13.06 0 0 0 21.68 1.91l19.12-23.86a208.88 208.88 0 0 1-171.51 165.5Zm142.49-153.26-47.9-87.52 17.15 1.51a10 10 0 0 0 10.48-12.74A163.59 163.59 0 0 0 303 100.08L319.6 91a13.08 13.08 0 0 0 1.91-21.69l-23.87-19.15a208.89 208.89 0 0 1 165.51 171.51 10 10 0 0 0 9 8.34l23 2Zm0 0"/>
      <path d="M328.65 325.63a12.52 12.52 0 0 0 12.51-12.5v-63.19a7.51 7.51 0 0 0-15 0v60.69H279V201.37h47.12v13.57a7.51 7.51 0 0 0 15 0v-16.07a12.52 12.52 0 0 0-12.51-12.5H183.34a12.52 12.52 0 0 0-12.5 12.5v114.26a12.52 12.52 0 0 0 12.5 12.5ZM214.4 201.37h21.07v16.07H214.4Zm-28.56 0h13.56v21.07a10 10 0 0 0 10 10h31.07a10 10 0 0 0 10-10v-21.07H264v109.26h-78.16Zm0 0"/>
      <path d="M310.09 287.06a7.5 7.5 0 1 1-7.5-7.5 7.49 7.49 0 0 1 7.5 7.5ZM202.48 253.13a7.49 7.49 0 0 1 6.92-4.63h31.07a7.5 7.5 0 1 1 0 15h-13l2.73 2.73a7.5 7.5 0 0 1 0 10.61l-2.73 2.73h13a7.5 7.5 0 0 1 0 15h-31.06a7.51 7.51 0 0 1-5.31-12.81l10.23-10.23-10.23-10.22a7.5 7.5 0 0 1-1.62-8.18Zm0 0"/>
    </symbol>

    <symbol id="oft-13">
      <title>weight</title>
      <path fill="#dbedff" d="M283.14 379.78V272.31a124.49 124.49 0 0 1-53.79 0v107.47Zm0 0"/>
      <path fill="#b5dcff" d="M256.25 275.25a124.64 124.64 0 0 1-26.9-2.94v107.47h26.9Zm0 0"/>
      <path fill="#477b9e" d="M256.25 281.07c-75.25 0-136.47-61.22-136.47-136.47S181 8.14 256.25 8.14 392.71 69.36 392.71 144.6s-61.22 136.47-136.46 136.47Zm0 0"/>
      <path fill="#3f6d8e" d="M168.43 144.6c0-66.94 48.46-122.78 112.14-134.29a137.24 137.24 0 0 0-24.32-2.17C181 8.14 119.78 69.36 119.78 144.6S181 281.07 256.25 281.07a136.3 136.3 0 0 0 24.32-2.17c-63.68-11.5-112.14-67.35-112.14-134.3Zm0 0"/>
      <path fill="#dbedff" d="M358.67 126.43a103.89 103.89 0 1 1-120.38-84.24 103.88 103.88 0 0 1 120.38 84.24Zm0 0"/>
      <path fill="#b5dcff" d="M201 144.6a104 104 0 0 1 79.54-101 103.87 103.87 0 1 0 0 202 104 104 0 0 1-79.54-101ZM297.64 409.25v-21.17A12.16 12.16 0 0 0 285.52 376H227a12.15 12.15 0 0 0-12.11 12.12v21.17Zm0 0"/>
      <path fill="#8bcaff" d="M263 376h-36a12.15 12.15 0 0 0-12.11 12.12v21.17h36v-21.21A12.15 12.15 0 0 1 263 376Zm0 0"/>
      <path fill="#3f6d8e" d="M440.87 406.25H71.62a21.37 21.37 0 0 0-21.31 21.31v49.31h411.87v-49.31a21.37 21.37 0 0 0-21.31-21.31Zm0 0"/>
      <path fill="#365e7d" d="M144.06 406.25H71.62a21.37 21.37 0 0 0-21.31 21.31v49.31h72.44v-49.31a21.37 21.37 0 0 1 21.31-21.31Zm0 0"/>
      <path fill="#477b9e" d="M466.47 472.87H46a8.76 8.76 0 0 0-8.75 8.76v14.76a8.75 8.75 0 0 0 8.75 8.75h420.47a8.75 8.75 0 0 0 8.75-8.75v-14.76a8.76 8.76 0 0 0-8.75-8.76Zm0 0"/>
      <path fill="#3f6d8e" d="M109.71 496.39v-14.76a8.76 8.76 0 0 1 8.75-8.76H46a8.76 8.76 0 0 0-8.75 8.76v14.76a8.75 8.75 0 0 0 8.75 8.75h72.44a8.75 8.75 0 0 1-8.75-8.75Zm0 0"/>
      <path fill="#dd636e" d="m280 134.88-19.12-44a5 5 0 0 0-9.19 0l-19.11 44a25.85 25.85 0 1 0 47.42 0Zm0 0"/>
      <path fill="#da4a54" d="m252.48 134.88 13.74-31.61-5.38-12.38a5 5 0 0 0-9.19 0l-19.12 44a25.89 25.89 0 0 0 33.69 34.19 25.89 25.89 0 0 1-13.74-34.18Zm0 0"/>
      <path d="M256 32.6A111.37 111.37 0 1 0 367.37 144 111.5 111.5 0 0 0 256 32.6Zm72.9 69.28a7.5 7.5 0 0 0 10.25 2.75l3.8-2.2a95.68 95.68 0 0 1 9.13 34h-4.4a7.5 7.5 0 0 0 0 15h4.4a95.8 95.8 0 0 1-9.13 34l-3.8-2.2a7.5 7.5 0 1 0-7.5 13l3.77 2.18a96.27 96.27 0 0 1-158.84 0l3.77-2.18a7.5 7.5 0 1 0-7.5-13l-3.8 2.2a95.8 95.8 0 0 1-9.13-34h4.4a7.5 7.5 0 0 0 0-15h-4.4a95.74 95.74 0 0 1 9.13-34l3.8 2.2a7.5 7.5 0 1 0 7.5-13l-3.77-2.19a97.11 97.11 0 0 1 24.9-24.9l2.19 3.78a7.5 7.5 0 0 0 13-7.5l-2.2-3.8a95.6 95.6 0 0 1 34-9.14v4.4a7.5 7.5 0 1 0 15 0v-4.4a95.6 95.6 0 0 1 34 9.14l-2.2 3.8a7.5 7.5 0 0 0 13 7.5l2.19-3.78a97.15 97.15 0 0 1 24.9 24.91l-3.77 2.18a7.49 7.49 0 0 0-2.75 10.24Zm0 0"/>
      <path d="M267.48 87.26a12.52 12.52 0 0 0-23 0l-19.11 44a33.35 33.35 0 1 0 61.18 0Zm3.87 67.35a18.33 18.33 0 0 1-30.7 0 18.08 18.08 0 0 1-1.48-17.38L256 98.48l16.84 38.75a18.08 18.08 0 0 1-1.49 17.38Zm0 0"/>
      <path d="M255.53 136.47A7.5 7.5 0 0 0 248 144v1.73a7.5 7.5 0 1 0 15 0V144a7.5 7.5 0 0 0-7.5-7.5ZM268.94 194.36h-25.88a7.5 7.5 0 0 0 0 15h25.88a7.5 7.5 0 0 0 0-15Zm0 0"/>
      <path d="M482.47 495.75V481a16.27 16.27 0 0 0-13-15.92v-38.16a28.85 28.85 0 0 0-28.81-28.81H304.89v-10.67a19.63 19.63 0 0 0-14.49-18.91v-84.78a144.25 144.25 0 0 0 108.13-119.5 7.5 7.5 0 0 0-14.85-2.1c-8.48 59.87-58.34 106-118.17 110.43C190.48 278.05 127 218.53 127 144a129 129 0 0 1 257.1-14.94 7.5 7.5 0 0 0 14.9-1.72A143.9 143.9 0 0 0 256 0c-79.39 0-144 64.58-144 144 0 67.53 46.75 124.34 109.57 139.8v84.76a19.63 19.63 0 0 0-14.49 18.91v10.67H71.37a28.85 28.85 0 0 0-28.81 28.81v38.14a16.28 16.28 0 0 0-13 15.92v14.77A16.26 16.26 0 0 0 45.78 512H238.5a7.5 7.5 0 0 0 0-15H45.78a1.25 1.25 0 0 1-1.25-1.25V481a1.25 1.25 0 0 1 1.25-1.24h420.44a1.25 1.25 0 0 1 1.25 1.24v14.77a1.25 1.25 0 0 1-1.25 1.25H273.5a7.5 7.5 0 0 0 0 15h192.72a16.26 16.26 0 0 0 16.25-16.25ZM236.6 286.63a146.08 146.08 0 0 0 38.8 0v81.2h-38.8Zm-14.49 100.81a4.67 4.67 0 0 1 4.61-4.61h58.56a4.67 4.67 0 0 1 4.61 4.61v10.67h-67.78Zm232.33 77.29H57.56v-37.81a13.83 13.83 0 0 1 13.81-13.81h369.26a13.83 13.83 0 0 1 13.81 13.81Zm0 0"/>
    </symbol>

    <symbol id="oft-14">
      <title>Volume</title>
      <path fill="#97e4f9" d="M256 108.52c-83.69 0-151.53-22.62-151.53-50.51V454c0-27.89 67.85-50.51 151.53-50.51S407.53 426.1 407.53 454V58c0 27.89-67.84 50.51-151.53 50.51Zm0 0"/>
      <path fill="#fba65c" d="M407.53 58c0 27.89-67.85 50.51-151.53 50.51S104.47 85.9 104.47 58 172.32 7.5 256 7.5 407.53 30.11 407.53 58Zm0 0"/>
      <path fill="#0acefa" d="M388.33 82.63v346.74c12.22 7.29 19.2 15.68 19.2 24.62V58c0 8.94-7 17.33-19.2 24.62Zm0 0"/>
      <path fill="#fb9538" d="M256 7.5q-6.37 0-12.63.18c77.78 2.13 138.9 23.85 138.9 50.32s-61.12 48.19-138.9 50.33c4.17.11 8.38.18 12.63.18 83.69 0 151.53-22.62 151.53-50.51S339.69 7.5 256 7.5ZM407.53 454c0 27.9-67.85 50.51-151.53 50.51S104.47 481.89 104.47 454s67.85-50.52 151.53-50.52S407.53 426.1 407.53 454Zm0 0"/>
      <path d="M256 0C178.91 0 97 20.33 97 58v267.32a7.5 7.5 0 0 0 15 0V83.75c27.11 21.1 86.88 32.25 144 32.25s116.89-11.17 144-32.27v145.9a7.5 7.5 0 0 0 15 0V58c0-37.68-81.94-58-159-58Zm104.77 86.61c-26.11 8.7-60.41 13.74-97.27 14.34v-9.81a7.5 7.5 0 1 0-15 0V101c-36.86-.6-71.16-5.64-97.27-14.34C127 78.54 112 67.58 112 58s15-20.53 39.26-28.6C179.1 20.11 216.31 15 256 15s76.9 5.11 104.77 14.41C385 37.48 400 48.44 400 58s-15 20.53-39.26 28.6ZM407.53 257.59a7.5 7.5 0 0 0-7.5 7.5v163.18a96.85 96.85 0 0 0-21.9-12.37 7.5 7.5 0 1 0-5.86 13.81C389.91 437.19 400 446 400 454c0 9.57-15 20.53-39.26 28.6C332.9 491.89 295.69 497 256 497s-76.9-5.11-104.77-14.41C127 474.52 112 463.56 112 454s15-20.53 39.26-28.6c26.11-8.7 60.41-13.74 97.27-14.34v9.81a7.5 7.5 0 0 0 15 0v-9.81c8.19.14 16.33.49 24.28 1.06a7.49 7.49 0 1 0 1.08-14.95A450.74 450.74 0 0 0 256 396c-57.12 0-116.89 11.17-144 32.27v-67.21a7.5 7.5 0 0 0-15 0V454c0 37.68 81.94 58 159 58s159-20.33 159-58V265.09a7.5 7.5 0 0 0-7.5-7.5Zm0 0"/>
      <path d="M256 50.51a7.5 7.5 0 0 0-7.5 7.5v6a7.5 7.5 0 0 0 15 0V58a7.5 7.5 0 0 0-7.5-7.5ZM248.5 301.91a7.5 7.5 0 1 0 15 0v-12.52a7.5 7.5 0 0 0-15 0ZM248.5 183a7.5 7.5 0 1 0 15 0v-12.56a7.5 7.5 0 0 0-15 0ZM248.5 381.21a7.5 7.5 0 1 0 15 0v-12.52a7.5 7.5 0 0 0-15 0ZM248.5 262.26a7.5 7.5 0 0 0 15 0v-12.52a7.5 7.5 0 0 0-15 0ZM248.5 341.56a7.5 7.5 0 0 0 15 0V329a7.5 7.5 0 1 0-15 0ZM256 150.81a7.5 7.5 0 0 0 7.5-7.5v-12.52a7.5 7.5 0 0 0-15 0v12.52a7.5 7.5 0 0 0 7.5 7.5ZM248.5 222.61a7.5 7.5 0 0 0 15 0v-12.52a7.5 7.5 0 0 0-15 0ZM256 440.49a7.5 7.5 0 0 0-7.5 7.5v6a7.5 7.5 0 0 0 7.5 7.5h6a7.5 7.5 0 0 0 1.37-14.88 7.5 7.5 0 0 0-7.37-6.12ZM280.41 454a7.5 7.5 0 0 0 7.5 7.5h12a7.5 7.5 0 0 0 0-15h-12a7.5 7.5 0 0 0-7.5 7.5ZM363.65 461.49h12a7.5 7.5 0 0 0 0-15h-12a7.5 7.5 0 0 0 0 15ZM337.74 446.49h-12a7.5 7.5 0 0 0 0 15h12a7.5 7.5 0 0 0 0-15ZM189.33 202a7.5 7.5 0 0 0-7.5 7.5v60.61a7.5 7.5 0 0 0 15 0v-22.8h12.7a2.61 2.61 0 0 1 2.61 2.6v20.2a7.5 7.5 0 0 0 15 0v-20.2a17.62 17.62 0 0 0-17.61-17.6h-12.7v-22.78a7.5 7.5 0 0 0-7.5-7.5ZM336.81 373.76H328a7.5 7.5 0 0 0-14.86 1.44v50.51a7.5 7.5 0 0 0 15 0v-36.95h8.66a6.65 6.65 0 0 1 6.64 6.64 7.5 7.5 0 0 0 15 0 21.66 21.66 0 0 0-21.64-21.64Zm0 0"/>
    </symbol>

    <symbol id="oft-15">
      <title>Lying height</title>
      <path fill="#fcf5f5" d="M7.5 242.55V415a20 20 0 0 0 20 20h318a20 20 0 0 0 20-20V242.55a20 20 0 0 0-20-20h-318a20 20 0 0 0-20 20Zm0 0"/>
      <path fill="#fcf5f5" d="M312.05 77H484.5a20 20 0 0 1 20 20v318a20 20 0 0 1-20 20H312.05a20 20 0 0 1-20-20V97a20 20 0 0 1 20-20Zm0 0"/>
      <path fill="#ebe1dc" d="M484.5 77h-30a20 20 0 0 1 20 20v318a20 20 0 0 1-20 20h30a20 20 0 0 0 20-20V97a20 20 0 0 0-20-20Zm0 0"/>
      <path fill="#b9b9be" d="M292.05 395.11v20.41A19.48 19.48 0 0 0 311.53 435H485a19.48 19.48 0 0 0 19.48-19.48v-20.41Zm0 0"/>
      <path fill="#c9eb74" d="M407.79 149.77a60.06 60.06 0 1 1-68.89 49.68 60.06 60.06 0 0 1 68.89-49.68Zm0 0"/>
      <path fill="#b2e5fb" d="M189 325.43a58.89 58.89 0 1 1-58.89-58.89A58.89 58.89 0 0 1 189 325.43Zm0 0"/>
      <path fill="#a6a6aa" d="M474.5 395.11v20.41A19.48 19.48 0 0 1 455 435h30a19.48 19.48 0 0 0 19.48-19.48v-20.41Zm0 0"/>
      <path fill="#b7e546" d="M398.27 149a59.86 59.86 0 0 0-15 1.9 60.08 60.08 0 0 1 0 116.35 60.08 60.08 0 1 0 15-118.25Zm0 0"/>
      <path fill="#91dafa" d="M130.1 266.54a59.36 59.36 0 0 0-15 1.93 58.91 58.91 0 0 1 0 113.92 58.9 58.9 0 1 0 15-115.85Zm0 0"/>
      <path d="M398.27 276.63a67.57 67.57 0 1 1 67.57-67.57 67.64 67.64 0 0 1-67.57 67.57Zm0-120.14a52.57 52.57 0 1 0 52.57 52.57 52.63 52.63 0 0 0-52.57-52.57Zm0 0"/>
      <path d="M398.66 243.61a8.63 8.63 0 0 1-8.13-5.74l-17.15-49.4a7.5 7.5 0 0 1 14.17-4.91l11 31.61L409 183.74a7.5 7.5 0 0 1 14.24 4.73l-16.36 49.24a8.65 8.65 0 0 1-8.12 5.9ZM115.51 354a7.5 7.5 0 0 1-7.5-7.5v-42.16a7.5 7.5 0 0 1 15 0v42.18a7.5 7.5 0 0 1-7.5 7.5ZM144.69 354a7.5 7.5 0 0 1-7.5-7.5v-42.16a7.5 7.5 0 0 1 15 0v42.18a7.5 7.5 0 0 1-7.5 7.5Zm0 0"/>
      <path d="M144.69 332.21h-29.18a7.5 7.5 0 1 1 0-15h29.18a7.5 7.5 0 0 1 0 15Zm0 0"/>
      <path d="M130.1 391.83a66.4 66.4 0 1 1 66.39-66.4 66.47 66.47 0 0 1-66.39 66.4Zm0-117.79a51.4 51.4 0 1 0 51.39 51.39A51.44 51.44 0 0 0 130.1 274ZM39.64 303.28a7.5 7.5 0 0 0-7.5 7.5v36a7.5 7.5 0 0 0 15 0v-36a7.5 7.5 0 0 0-7.5-7.5Zm0 0"/>
      <path d="M504.5 276.63a7.5 7.5 0 0 0 7.5-7.5V97a27.54 27.54 0 0 0-27.5-27.5H312.05a27.54 27.54 0 0 0-27.5 27.5v118.05H77.05a7.5 7.5 0 0 0 0 15h207.5V415a27.36 27.36 0 0 0 3 12.5H27.5A12.52 12.52 0 0 1 15 415V242.55a12.51 12.51 0 0 1 12.5-12.5h19.55a7.5 7.5 0 1 0 0-15H27.5A27.53 27.53 0 0 0 0 242.55V415a27.54 27.54 0 0 0 27.5 27.5h457A27.54 27.54 0 0 0 512 415V299.13a7.5 7.5 0 0 0-15 0v88.48H299.55V97a12.51 12.51 0 0 1 12.5-12.5H484.5A12.52 12.52 0 0 1 497 97v172.13a7.5 7.5 0 0 0 7.5 7.5Zm-7.5 126V415a12.52 12.52 0 0 1-12.5 12.5H312.05a12.51 12.51 0 0 1-12.5-12.5v-12.39Zm0 0"/>
      <path d="M416.27 116.64a7.5 7.5 0 0 0 0-15h-36a7.5 7.5 0 0 0 0 15ZM123 181.73a7.5 7.5 0 0 0 10.61 0l22.31-22.31a7.5 7.5 0 0 0-10.61-10.6l-8.9 8.9A76.27 76.27 0 0 1 212 91a7.5 7.5 0 0 0 0-15 91.29 91.29 0 0 0-90.76 82.73l-9.9-9.89a7.5 7.5 0 0 0-10.6 10.6ZM458.34 307.6H338.21a7.5 7.5 0 1 0 0 15h120.13a7.5 7.5 0 1 0 0-15ZM458.34 342.82H338.21a7.5 7.5 0 0 0 0 15h120.13a7.5 7.5 0 0 0 0-15ZM221 289.91h35a7.5 7.5 0 0 0 0-15h-35a7.5 7.5 0 0 0 0 15ZM221 332h35a7.5 7.5 0 0 0 0-15h-35a7.5 7.5 0 0 0 0 15ZM221 374.06h35a7.5 7.5 0 0 0 0-15h-35a7.5 7.5 0 1 0 0 15Zm0 0"/>
    </symbol>
  </defs>
</svg>
