<svg xmlns="http://www.w3.org/2000/svg"  width="100" height="155" viewBox="0 0 100 155" overflow="visible">
  <defs>
    <g id="sheep-avatar-0">
      <ellipse cx="51" cy="148.5" rx="28.2" ry="4.7" opacity=".2"/>
      <ellipse cx="31.7" cy="139.2" rx="4.2" ry="10.8"/>
      <ellipse cx="67.8" cy="139.2" rx="4.2" ry="10.8"/>
      <path fill="#FFFFFF" d="M99.9 102.4c0-10.6-8.4-19.2-18.9-19.5 0-10.8-8.7-19.5-19.5-19.5-4.3 0-8.3 1.4-11.5 3.8-3.2-2.4-7.2-3.8-11.5-3.8-10.8 0-19.5 8.7-19.5 19.5-10.4.4-18.8 9-18.8 19.5s8.4 19.1 18.8 19.5c0 10.8 8.7 19.5 19.5 19.5 4.3 0 8.3-1.4 11.5-3.8 3.2 2.4 7.2 3.8 11.5 3.8 10.8 0 19.5-8.7 19.5-19.5 10.5-.3 18.9-8.9 18.9-19.5z"/>
      <path d="M65 80.2c.6-1 1-2.4 1-4 0-3.2-1.6-5.7-3.6-5.7-1.7 0-3.2 1.9-3.5 4.5-2.6-1.4-5.7-2.2-8.9-2.2s-6.3.8-8.9 2.2c-.4-2.6-1.8-4.5-3.5-4.5-2 0-3.6 2.6-3.6 5.7 0 1.6.4 3 1 4-2.4 3.2-3.9 7.1-3.9 11.4 0 10.4 8.5 18.9 18.9 18.9s18.9-8.5 18.9-18.9c0-4.3-1.5-8.2-3.9-11.4z"/>
      <circle fill="#FFFFFF" cx="42.3" cy="87.5" r="6.6"/>
      <circle fill="#FFFFFF" cx="58" cy="87.5" r="6.6"/>
      <ellipse cx="42.9" cy="87.9" rx="1.3" ry="2.8"/>
      <ellipse cx="56.3" cy="87.9" rx="1.3" ry="2.8"/>
      <path fill="#FFFFFF" d="M44.9 98.2h10.2v.7H44.9z"/>
      <path d="M75 25C75 11.2 63.8 0 50 0S25 11.2 25 25c0 6 2.1 11.5 5.7 15.9.8.9 1.6 1.8 2.5 2.7L50 61.1l16.8-17.6c.9-.8 1.8-1.7 2.5-2.7C72.9 36.5 75 31 75 25z" fill="orchid"/>
      <path fill="#FFFFFF" d="M45.3 40.6s-.5 1 0 1.1 2 0 2 0 .5-.5 1-.4c.5.2.4.4.4.4h2.4s.4-1.6 0-1.8c-.4-.1-1.6-.9-.9-1.3.8-.4 2-.3 2.7.8s.4 1.8.5 1.9c.1.1 0 .4 0 .4h2.8s.2-.8.7-.6.7.6.7.6H60s1.1-1 .3-1.9c-.8-.9-2.4-1.2-3.1-1.6-.8-.5-1.5-1.3-1.6-1.6s-.1-2 .9-3.7c.9-1.7.2-4.3 1.4-4.4 1.2 0 1.8.3 2 .6.3.4.6 1 1.3 1 .6 0 1.4-1.2 1.3-1.4-.1-.2-.2-1.4-.2-1.4s1-1.8.6-2.3c-.3-.5-.6-.9-1.7-.5-1.1.3-2.7.4-3-.1-.4-.5-.3-2.1-.1-2.3.2-.2.2-1.2 1.1-1.2.9 0 4.5 0 4.9-.2.4-.3 0-1 0-1l.8.5s1.4-.2 1.1-3c-.3-2.8-2-3.3-3-3.6-1-.3-1.1-.8-1.2-1.8-.1-1-.4-2.2-.8-2.5-.4-.3-1 .4-1.1.8-.1.4-.5.6-.5.6s-.3-.5-1-.8c-.7-.3-1.1 0-1.1.3s-.1 1-.1 1-1-.3-1.3-.3c-.3 0-.6.5-.6.5s-.7.4-1.3.1c-.5-.3-.8-.7-.9-1.1-.1-.4-.6-1.3-1.3-.5-.6.8-.8 1.8-.3 3.5 0 0-.6-.2-1-.7-.5-.5-1.7-.8-1.9.4s-.5 3 3.8 6.1c0 0 .5.4-.1.9s-4.9 3.1-6.2 6.1-3.1 9-5.3 9c-2.1 0-4.9-1-5.6-.4-.7.6-.3 5 3.2 5.9 3.5.9 5.3.7 6.1.3l.8-.4z"/>
    </g>

     <g id="sheep-avatar-1">
      <path d="M79.1 148.5c0 2.6-12.6 4.7-28.2 4.7s-28.2-2.1-28.2-4.7 12.6-4.7 28.2-4.7 28.2 2.2 28.2 4.7z" opacity=".2"/>
      <path d="M35.9 139.2c0 5.9-1.9 10.8-4.2 10.8s-4.2-4.8-4.2-10.8 1.9-10.8 4.2-10.8 4.2 4.9 4.2 10.8zM72.1 139.2c0 5.9-1.9 10.8-4.2 10.8s-4.2-4.8-4.2-10.8 1.9-10.8 4.2-10.8 4.2 4.9 4.2 10.8z"/>
      <path fill="#FFFFFF" d="M99.9 102.4c0-10.6-8.4-19.2-18.9-19.5 0-10.8-8.7-19.5-19.5-19.5-4.3 0-8.3 1.4-11.5 3.8-3.2-2.4-7.2-3.8-11.5-3.8-10.8 0-19.5 8.7-19.5 19.5-10.4.4-18.8 9-18.8 19.5s8.4 19.1 18.8 19.5c0 10.8 8.7 19.5 19.5 19.5 4.3 0 8.3-1.4 11.5-3.8 3.2 2.4 7.2 3.8 11.5 3.8 10.8 0 19.5-8.7 19.5-19.5 10.5-.3 18.9-8.9 18.9-19.5z"/>
      <path d="M65 80.2c.6-1 1-2.4 1-4 0-3.2-1.6-5.7-3.6-5.7-1.7 0-3.2 1.9-3.5 4.5-2.6-1.4-5.7-2.2-8.9-2.2s-6.3.8-8.9 2.2c-.4-2.6-1.8-4.5-3.5-4.5-2 0-3.6 2.6-3.6 5.7 0 1.6.4 3 1 4-2.4 3.2-3.9 7.1-3.9 11.4 0 10.4 8.5 18.9 18.9 18.9s18.9-8.5 18.9-18.9c0-4.3-1.5-8.2-3.9-11.4z"/>
      <path d="M75 25C75 11.2 63.8 0 50 0S25 11.2 25 25c0 6 2.1 11.5 5.7 15.9.8.9 1.6 1.8 2.5 2.7L50 61.1l16.8-17.6c.9-.8 1.8-1.7 2.5-2.7C72.9 36.5 75 31 75 25z" fill="teal"/>
      <path fill="#FFFFFF" d="M39.6 41.8h7.7s.8-2.1.9-2.5c.1-.5-.3-1.4 0-1.8.3-.4.9-1.7 2-1.5 1.1.2 2 2.4 2.2 2.9.2.5.3 2.9.3 2.9h7.7s-.3-2.3-.9-2.9c-.6-.7-3.7-3.9-4.1-4.9-.4-.9-.6-4.2-.6-4.4.1-.2.3-1.3.7-1.3s3.8-.8 4.6-1.8c.7-1 .9-2.9.6-3.4-.3-.5-2.3-1.3-3.1-1-.9.3-1.5.6-1.4 1.2s-1.5.4-1.5.2.4-3.6 1.9-4.2c1.5-.6 3.9-2.2 4.2-2.2.3 0 2.2 1.2 2.6 1.4.5.2 1.2-1.5 1.1-2.9s-.8-4.5-1.7-5-4-1.7-4.7-1.1c-.7.6-.7 1.8-1.3 2.2-.6.4-2.2 2.9-2.6 2.3s-.1-1.4.2-2 .9-1.8.2-1.9c-.7-.1-2.4 1.1-2.9 1.4-.5.3-2.2 1.4-4.5 1.5-2.3.1-7.7 1.1-10.4 4.9-2.7 3.8-.9 8.6.8 10.5 1.7 1.9 2.6 5.3 2.3 7-.3 1.7-.5 1.9.1 1.8s2.5-.7 2.7-1.3c.2-.6 1.5-.5.6.5s-3.1 2.6-3.7 5.4z"/>
      <path fill="#FFFFFF" d="M48.8 86.2H44c.2.5.3 1 .3 1.7 0 .5-.1 1-.2 1.4h4.6c.2-.6.3-1.2.3-1.9-.1-.4-.1-.8-.2-1.2zM41.6 87.9c0-.6.1-1.2.3-1.7h-6c-.1.4-.1.8-.1 1.3 0 .6.1 1.3.3 1.9h5.8c-.3-.5-.3-1-.3-1.5zM57.6 87.9c0 .5-.1 1-.2 1.4h6.9c.2-.6.3-1.2.3-1.9 0-.4 0-.9-.1-1.3h-7.1c.1.6.2 1.1.2 1.8zM54.9 87.9c0-.6.1-1.2.3-1.7h-3.7c-.1.4-.1.8-.1 1.3 0 .6.1 1.3.3 1.9h3.5c-.2-.5-.3-1-.3-1.5zM53.5 99.5c0 1.9-1.6 3.5-3.5 3.5s-3.5-1.6-3.5-3.5S48 96 50 96s3.5 1.5 3.5 3.5z"/>
     </g>

     <g id="sheep-avatar-2">
      <ellipse cx="51" cy="148.5" rx="28.2" ry="4.7" opacity=".2"/>
      <ellipse cx="31.7" cy="139.2" rx="4.2" ry="10.8"/>
      <ellipse cx="67.8" cy="139.2" rx="4.2" ry="10.8"/>
      <path fill="#FFFFFF" d="M99.9 102.4c0-10.6-8.4-19.2-18.9-19.5 0-10.8-8.7-19.5-19.5-19.5-4.3 0-8.3 1.4-11.5 3.8-3.2-2.4-7.2-3.8-11.5-3.8-10.8 0-19.5 8.7-19.5 19.5-10.4.4-18.8 9-18.8 19.5s8.4 19.1 18.8 19.5c0 10.8 8.7 19.5 19.5 19.5 4.3 0 8.3-1.4 11.5-3.8 3.2 2.4 7.2 3.8 11.5 3.8 10.8 0 19.5-8.7 19.5-19.5 10.5-.3 18.9-8.9 18.9-19.5z"/>
      <path d="M65 80.2c.6-1 1-2.4 1-4 0-3.2-1.6-5.7-3.6-5.7-1.7 0-3.2 1.9-3.5 4.5-2.6-1.4-5.7-2.2-8.9-2.2s-6.3.8-8.9 2.2c-.4-2.6-1.8-4.5-3.5-4.5-2 0-3.6 2.6-3.6 5.7 0 1.6.4 3 1 4-2.4 3.2-3.9 7.1-3.9 11.4 0 10.4 8.5 18.9 18.9 18.9s18.9-8.5 18.9-18.9c0-4.3-1.5-8.2-3.9-11.4z"/>
      <circle fill="#FFFFFF" cx="42.3" cy="87.5" r="6.6"/>
      <circle fill="#FFFFFF" cx="58" cy="87.5" r="6.6"/>
      <ellipse cx="44.2" cy="87.4" rx="2.6" ry="2.8"/>
      <ellipse cx="56.3" cy="87.5" rx="2.7" ry="2.8"/>
      <path d="M75 25C75 11.2 63.8 0 50 0S25 11.2 25 25c0 6 2.1 11.5 5.7 15.9.8.9 1.6 1.8 2.5 2.7L50 61.1l16.8-17.6c.9-.8 1.8-1.7 2.5-2.7C72.9 36.5 75 31 75 25z" fill="#d2691e"/>
      <path fill="#FFFFFF" d="M43 41.8h7.5s1.4-.4.8-1.4c-.6-1-1.1-1.1-1.4-1.3-.4-.1-.6-.4-.6-.4s-.2-.4.4-.5c.7 0 1 0 1.3.3.3.3 2.1 1.1 2.2 1.4.1.3.3 1.5.3 1.5h6.9s.5-1.9-.6-2.7-1.9.4-3.4-1.3c-1.5-1.7-2.4-1.9-1.6-4.2.8-2.3 3.2-5.1 4.4-4.7 1.2.4 1.4.9 1.8 1.2.4.2 1.3.2 2.3-1.2.9-1.4-.2-3.1-1-3.1s-4 .4-4.4.4-.7-.3-.6-.7c.1-.4 1.3-1.9.4-2.8-.9-.9-1.5-.6-1.4-.8 0-.3-.2-1.3 1.4-1.4 1.6-.2 2.5.5 3.5-.3 1.1-.8 1.3-1.8.5-1.9-.8 0-2.1 0-2.9-.9-.8-.9-1.8-1.3-1.9-1.9 0-.6-.2-1.8-1.1-1.9-.9-.1-1.5-.4-1.4-1.1.1-.8 0-1.6.4-1.8.2-.4 1.2-1.4-.4-.8-1.6.5-2.8.7-4.4 2.4-1.6 1.7-2.7 3.8-3 4.1-.3.4-.8.6-.6 1.1s2.1 2.9 1.7 7-1.7 6.6-2 6.2c-.3-.4 0-3.8-.8-5.1-.8-1.3-4-2.6-3.4-4.6.5-2 1.9.3 2-.9 0-1.2-.8-2.9-2.9-2.1-2.2.8-5.9 3.7-4.9 8.3 1 4.6 2.4 5.6 4.2 7.1 1.7 1.5 4.7 2.4 4.4 3.2-.4.8-2.4 4-2.2 4.6 0 .5 0 1 .5 1zM50.3 104.3c-.1 0-.1 0 0 0-5.3 0-9.1-4.7-9.3-4.9-.2-.2-.1-.5.1-.7.2-.2.5-.1.7.1 0 0 3.7 4.5 8.4 4.5h.1c2.8 0 5.5-1.5 8-4.5.2-.2.5-.2.7-.1.2.2.2.5.1.7-2.8 3.3-5.7 4.9-8.8 4.9z"/>
    </g>

    <g id="sheep-avatar-3">
      <ellipse cx="51" cy="148.5" rx="28.2" ry="4.7" opacity=".2"/>
      <ellipse cx="31.7" cy="139.2" rx="4.2" ry="10.8"/>
      <ellipse cx="67.8" cy="139.2" rx="4.2" ry="10.8"/>
      <path fill="#FFFFFF" d="M99.9 102.4c0-10.6-8.4-19.2-18.9-19.5 0-10.8-8.7-19.5-19.5-19.5-4.3 0-8.3 1.4-11.5 3.8-3.2-2.4-7.2-3.8-11.5-3.8-10.8 0-19.5 8.7-19.5 19.5-10.4.4-18.8 9-18.8 19.5s8.4 19.1 18.8 19.5c0 10.8 8.7 19.5 19.5 19.5 4.3 0 8.3-1.4 11.5-3.8 3.2 2.4 7.2 3.8 11.5 3.8 10.8 0 19.5-8.7 19.5-19.5 10.5-.3 18.9-8.9 18.9-19.5z"/>
      <circle cx="50" cy="91.7" r="18.9"/>
      <ellipse cx="37.5" cy="76.2" rx="3.6" ry="5.7"/>
      <ellipse cx="62.4" cy="76.2" rx="3.6" ry="5.7"/>
      <path fill="#FFFFFF" d="M48.8 86.2H48c.2.5.3 1 .3 1.7 0 .5-.1 1-.2 1.4h.6c.2-.6.3-1.2.3-1.9-.1-.4-.1-.8-.2-1.2zM45.6 87.9c0-.6.1-1.2.3-1.7h-10c-.1.4-.1.8-.1 1.3 0 .6.1 1.3.3 1.9h9.8c-.3-.5-.3-1-.3-1.5zM58.9 87.9c0-.6.1-1.2.3-1.7h-7.7c-.1.4-.1.8-.1 1.3 0 .6.1 1.3.3 1.9h7.5c-.2-.5-.3-1-.3-1.5zM61.6 87.9c0 .5-.1 1-.2 1.4h2.9c.2-.6.3-1.2.3-1.9 0-.4 0-.9-.1-1.3h-3.1c.1.6.2 1.1.2 1.8zM45.6 99.3h4.1v1h-4.1z"/>
      <path d="M75 25C75 11.2 63.8 0 50 0S25 11.2 25 25c0 6 2.1 11.5 5.7 15.9.8.9 1.6 1.8 2.5 2.7L50 61.1l16.8-17.6c.9-.8 1.8-1.7 2.5-2.7C72.9 36.5 75 31 75 25z" fill="#556b2f"/>
      <path fill="#FFFFFF" d="M44.1 41.8h15.5s.4-3-1.7-3.8c-2.1-.8-3.1.7-4.6.6-1.6 0-2.2-.1-2.3-.9-.1-.8 2.9-1 4.1-1.7 1.2-.7 2-2 1.7-3.7-.3-1.6-.9-2.4-.2-3.2.6-.8 3-.3 4.1-.2 1.1 0 2.7 0 2.7-1.7S61 25.7 61 25.7s.5-1.2-.6-1.4c-1.1-.2-1.4 1.2-1.7 1.2-.3 0-3.9.8-4.4-1 0 0 0-.8 1.6-1.3s2.7-1.9 2.4-3.7c-.3-1.7-.2-2 .5-2.2.7-.2 3.1-1.6-.5-3.4 0 0 1.3-4-1.4-4.5s-3.8 1.1-3.8 1.1-5.3.2-6.3.6-2.8 1.1-2.8 3.1 1.5 2.8 1.4 3.1c-.1.3.2.6-.8.9-1 .3-3.2 1.3-2.8 2.4.4 1.1.9 1 .9 1s-4.1 2.6-4.1 8.6c0 6.1 2.9 8.8 5.9 9 0 0 .6.3.2.5-.4.5-2 1.4-.6 2.1z"/>
    </g>

    <g id="sheep-avatar-4">
      <ellipse cx="51" cy="148.5" rx="28.2" ry="4.7" opacity=".2"/>
      <ellipse cx="31.7" cy="139.2" rx="4.2" ry="10.8"/>
      <ellipse cx="67.8" cy="139.2" rx="4.2" ry="10.8"/>
      <path fill="#FFFFFF" d="M99.9 102.4c0-10.6-8.4-19.2-18.9-19.5 0-10.8-8.7-19.5-19.5-19.5-4.3 0-8.3 1.4-11.5 3.8-3.2-2.4-7.2-3.8-11.5-3.8-10.8 0-19.5 8.7-19.5 19.5-10.4.4-18.8 9-18.8 19.5s8.4 19.1 18.8 19.5c0 10.8 8.7 19.5 19.5 19.5 4.3 0 8.3-1.4 11.5-3.8 3.2 2.4 7.2 3.8 11.5 3.8 10.8 0 19.5-8.7 19.5-19.5 10.5-.3 18.9-8.9 18.9-19.5z"/>
      <path d="M65 80.2c.6-1 1-2.4 1-4 0-3.2-1.6-5.7-3.6-5.7-1.7 0-3.2 1.9-3.5 4.5-2.6-1.4-5.7-2.2-8.9-2.2s-6.3.8-8.9 2.2c-.4-2.6-1.8-4.5-3.5-4.5-2 0-3.6 2.6-3.6 5.7 0 1.6.4 3 1 4-2.4 3.2-3.9 7.1-3.9 11.4 0 10.4 8.5 18.9 18.9 18.9s18.9-8.5 18.9-18.9c0-4.3-1.5-8.2-3.9-11.4z"/>
      <path fill="#FFFFFF" d="M44.6 87.9c0 1.5-.6 2.8-1.3 2.8-.7 0-1.3-1.2-1.3-2.8 0-.3 0-.5.1-.8l-6.2-.8c-.1.4-.1.7-.1 1.1 0 3.6 3 6.6 6.6 6.6 3.5 0 6.3-2.7 6.6-6.1l-4.3-.5c-.1.2-.1.3-.1.5zM58 87.1c0 .2.1.5.1.8 0 1.5-.6 2.8-1.3 2.8-.7 0-1.3-1.2-1.3-2.8v-.5l-4 .5c.2 3.4 3.1 6.2 6.6 6.2 3.6 0 6.6-3 6.6-6.6 0-.4 0-.8-.1-1.2l-6.6.8z"/>
      <path d="M75 25C75 11.2 63.8 0 50 0S25 11.2 25 25c0 6 2.1 11.5 5.7 15.9.8.9 1.6 1.8 2.5 2.7L50 61.1l16.8-17.6c.9-.8 1.8-1.7 2.5-2.7C72.9 36.5 75 31 75 25z" fill="#7cc44f"/>
      <path fill="#FFFFFF" d="M48.6 41.8h6.5s.8-.4 0-1.3-1.4-1.4-1.7-1.6c-.3-.2.4-1 1.8-.9 1.4.2 2.7 1 2.8 1.9s0 1.9 0 1.9h6.1s1.4-.4 1.3-1.9c-.1-1.5-1-2-2-1.9-1 .1-1.7.4-2.9 0-1.1-.5-1.8-1.7-1.8-1.7s4-2 1.8-7.9c0 0 4.5-.9 5.2-3.1s-.9-3.4-2.4-2.9c0 0-.4-1-1.2-.6-.8.4-1.5 1.3-1.5 2s.1 1.7-1.9 2.2c0 0-3-2.1-2.9-4.2.1-2.1 2.4-3.5 2.7-3.8.3-.2 3.7-1.7 3.7-2.8 0 0 1.7-.3 1.6-1.3-.2-1-1.3-2-2.7-2.7 0 0 .1-2-1.5-1.8-1.6.2-1.5 1-1.5 1s-3.3-.2-4.8 1.2c-1.6 1.4-2.7 2.2-2.9 4-.4 1.7.1 2.4-.4 3.3-.5.9-.6 1-.7 1.8-.1.8-.4 3.3.7 5.4 1.1 2.1.1 7.3-2.6 9.9-2.7 2.5-5.1 1.7-5.6 1.4s-6.5-2.9-9.5 4.5c0 0 3.6-2.7 5.5-1.8 1.9.9 5.5 2.8 9.1 1.2.1-.2.7-.9 1.7.5zM55.4 104.3c-.3 0-.5-.2-.5-.5s.2-.5.5-.5c.2 0 5.6-.3 6.5-4.8.1-.3.3-.4.6-.4.3.1.4.3.4.6-1.1 5.2-7.5 5.6-7.5 5.6z"/>
    </g>

    <g id="sheep-avatar-5">
      <ellipse cx="51" cy="148.5" rx="28.2" ry="4.7" opacity=".2"/>
      <ellipse cx="31.7" cy="139.2" rx="4.2" ry="10.8"/>
      <ellipse cx="67.8" cy="139.2" rx="4.2" ry="10.8"/>
      <path fill="#FFFFFF" d="M99.9 102.4c0-10.6-8.4-19.2-18.9-19.5 0-10.8-8.7-19.5-19.5-19.5-4.3 0-8.3 1.4-11.5 3.8-3.2-2.4-7.2-3.8-11.5-3.8-10.8 0-19.5 8.7-19.5 19.5-10.4.4-18.8 9-18.8 19.5s8.4 19.1 18.8 19.5c0 10.8 8.7 19.5 19.5 19.5 4.3 0 8.3-1.4 11.5-3.8 3.2 2.4 7.2 3.8 11.5 3.8 10.8 0 19.5-8.7 19.5-19.5 10.5-.3 18.9-8.9 18.9-19.5z"/>
      <circle cx="50" cy="91.7" r="18.9"/>
      <ellipse cx="37.5" cy="76.2" rx="3.6" ry="5.7"/>
      <ellipse cx="62.4" cy="76.2" rx="3.6" ry="5.7"/>
      <path fill="#FFFFFF" d="M37.6 87.9c0-1.5.6-2.8 1.3-2.8s1.3 1.2 1.3 2.8c0 .5-.1 1-.2 1.4h8.6c.2-.6.3-1.2.3-1.9 0-3.6-3-6.6-6.6-6.6s-6.6 3-6.6 6.6c0 .6.1 1.3.3 1.9h1.8c-.2-.4-.2-.9-.2-1.4zM53.9 87.9c0-1.5.6-2.8 1.3-2.8s1.3 1.2 1.3 2.8c0 .5-.1 1-.2 1.4h7.9c.2-.6.3-1.2.3-1.9 0-3.6-3-6.6-6.6-6.6-3.6 0-6.6 3-6.6 6.6 0 .6.1 1.3.3 1.9h2.5c-.1-.4-.2-.9-.2-1.4z"/>
      <path d="M75 25C75 11.2 63.8 0 50 0S25 11.2 25 25c0 6 2.1 11.5 5.7 15.9.8.9 1.6 1.8 2.5 2.7L50 61.1l16.8-17.6c.9-.8 1.8-1.7 2.5-2.7C72.9 36.5 75 31 75 25z" fill="#2f4f4f"/>
      <path fill="#FFFFFF" d="M45.6 42.4h5.7s1.9-1 1-2.3c-.8-1.3-2-.8-1-1.4 1-.6 2.6.7 2.9 1.6s.5 2.2.5 2.2h6.1s1.7-.6.8-2.2c-.9-1.6-2.5-1.9-3.5-2.1-.9-.2-1.8-.4-1.3-1.2.5-.8 2.6-1.6 2.5-5.2-.1-3.6-.9-4 .1-4s4.1.5 5.5 0c1.4-.5.7-.7.4-.9-.3-.2 1.3-.4.8-.9s-.6-.7-.6-.7 1.4-.2.8-.7c-.6-.5-1.7-1.5-3.2-1.1-1.5.4-3.2 0-3.6-.5-.4-.5-.9-2.5-.4-3s6.5-2.2 7.9-4.3-1.1-1.4-1.4-1.4c-.3 0-1.3 0-2-.5-.6-.5-2.8-3.8-5-3.8s-2.9.8-3.3.9c-.4.1-3.3 1.1-3.3 2s.6 1.1.6 1.1-.6.9.1 2.9-1.2 3-1.2 3-5.6 3-6.7 8.9-.9 7.8-3.1 9.5c-2.2 1.7-5.6.3-6.6-1.3s-1.3-1.7-1.5-.5c-.2 1.2.4 6.2 5.6 6.1 5.2-.1 6.9-3.7 6.9-3.7s-1.7 3.3-.5 3.5z"/>
      <path fill="#FFFFFF" d="M37.9 95.4l10.3 4.9s-12.7 7.4-10.3-4.9z"/>
    </g>

      <g id="sheep-avatar-6">
        <path id="boundarie_1_" fill="none" d="M0 0h100v155H0z"/>
        <ellipse cx="51" cy="148.5" rx="28.2" ry="4.7" opacity=".2"/>
        <ellipse cx="31.7" cy="139.2" rx="4.2" ry="10.8"/>
        <ellipse cx="67.8" cy="139.2" rx="4.2" ry="10.8"/>
        <path fill="#FFFFFF" d="M99.9 102.4c0-10.6-8.4-19.2-18.9-19.5 0-10.8-8.7-19.5-19.5-19.5-4.3 0-8.3 1.4-11.5 3.8-3.2-2.4-7.2-3.8-11.5-3.8-10.8 0-19.5 8.7-19.5 19.5-10.4.4-18.8 9-18.8 19.5s8.4 19.1 18.8 19.5c0 10.8 8.7 19.5 19.5 19.5 4.3 0 8.3-1.4 11.5-3.8 3.2 2.4 7.2 3.8 11.5 3.8 10.8 0 19.5-8.7 19.5-19.5 10.5-.3 18.9-8.9 18.9-19.5z"/>
        <circle cx="50" cy="91.7" r="18.9"/>
        <ellipse cx="37.5" cy="76.2" rx="3.6" ry="5.7"/>
        <ellipse cx="62.4" cy="76.2" rx="3.6" ry="5.7"/>
        <circle fill="#FFFFFF" cx="42.3" cy="87.5" r="6.6"/>
        <circle fill="#FFFFFF" cx="58" cy="87.5" r="6.6"/>
        <circle cx="43" cy="88" r="2.8"/>
        <circle cx="57.9" cy="88" r="2.8"/>
        <path d="M75 25C75 11.2 63.8 0 50 0S25 11.2 25 25c0 6 2.1 11.5 5.7 15.9.8.9 1.6 1.8 2.5 2.7L50 61.1l16.8-17.6c.9-.8 1.8-1.7 2.5-2.7C72.9 36.5 75 31 75 25z" fill="tomato"/>
        <path fill="#FFFFFF" d="M41.2 40.8H51s.5-2.1-1-2.1-.5-1-.5-1 1-1.5 2.1-1.5c1 0 1 0 1.5.5s1 1.5.5 2.1c-.5.5 0 2.1 0 2.1h8.8s0-3.1-3.6-3.1c0 0 0-3.6-1-5.1-1-1.5-.5-2.6-.5-2.6s1-2.6.5-3.6c0 0 .5.5 1.5.5s1 2.1 1.5 1.5 2.6-1.5 2.1-3.1c-.5-1.5-2.1-2.6-3.6-2.6s-1.5-1-1-2.1c.5-1 1.5-2.6 2.1-2.6.5 0 3.1-1 2.6-2.1-.5-1-2.6-4.6-9.3-5.1 0 0-2.1-4.1-4.6-2.1S51 14 51.5 14c0 0 .5 3.1-1.5 5.7-2.1 2.6-3.1 4.6-3.6 4.1s3.1-7.7-2.6-9.3-6.2.5-5.1 1c1 .5 2.6 0 2.1 1s-5.7 8.2-2.6 13.4 6.2 4.6 6.2 5.1-2.1 2.6-2.6 3.1c-.6.6-1.1.6-.6 2.7z"/>
        <path fill="#FFFFFF" d="M49.2 107.7C36.6 107.7 35.1 95.2 35 95c0-.3.2-.5.4-.6.3 0 .5.2.6.4.1.5 1.5 12.1 13.7 11.8 12.2-.3 13.7-10.8 13.8-11.3 0-.3.3-.5.6-.4.3 0 .5.3.4.6 0 .1-1.6 11.8-14.7 12.1-.2.1-.4.1-.6.1z"/>
      </g>

      <g id="sheep-avatar-7">
        <ellipse cx="51" cy="148.5" rx="28.2" ry="4.7" opacity=".2"/>
        <ellipse cx="31.7" cy="139.2" rx="4.2" ry="10.8"/>
        <ellipse cx="67.8" cy="139.2" rx="4.2" ry="10.8"/>
        <path fill="#FFFFFF" d="M99.9 102.4c0-10.6-8.4-19.2-18.9-19.5 0-10.8-8.7-19.5-19.5-19.5-4.3 0-8.3 1.4-11.5 3.8-3.2-2.4-7.2-3.8-11.5-3.8-10.8 0-19.5 8.7-19.5 19.5-10.4.4-18.8 9-18.8 19.5s8.4 19.1 18.8 19.5c0 10.8 8.7 19.5 19.5 19.5 4.3 0 8.3-1.4 11.5-3.8 3.2 2.4 7.2 3.8 11.5 3.8 10.8 0 19.5-8.7 19.5-19.5 10.5-.3 18.9-8.9 18.9-19.5z"/>
        <circle cx="50" cy="91.7" r="18.9"/>
        <ellipse cx="37.5" cy="76.2" rx="3.6" ry="5.7"/>
        <ellipse cx="62.4" cy="76.2" rx="3.6" ry="5.7"/>
        <path fill="#FFFFFF" d="M42.6 89.3c2.1 0 4 .5 5.6 1.3.5-.9.8-2 .8-3.2 0-3.6-3-6.6-6.6-6.6s-6.6 3-6.6 6.6c0 1.2.3 2.4.9 3.3 1.5-.8 3.6-1.4 5.9-1.4zM58 89.1c2.2 0 4.3.5 5.8 1.4.5-.9.7-1.9.7-3 0-3.6-3-6.6-6.6-6.6-3.6 0-6.6 3-6.6 6.6 0 1.1.3 2.1.7 3 1.7-.9 3.8-1.4 6-1.4z"/>
        <ellipse cx="43.7" cy="84.9" rx="1.3" ry="2.8"/>
        <ellipse cx="57" cy="84.9" rx="1.3" ry="2.8"/>
        <path d="M75 25C75 11.2 63.8 0 50 0S25 11.2 25 25c0 6 2.1 11.5 5.7 15.9.8.9 1.6 1.8 2.5 2.7L50 61.1l16.8-17.6c.9-.8 1.8-1.7 2.5-2.7C72.9 36.5 75 31 75 25z" fill="#4682b4"/>
        <path fill="#FFFFFF" d="M43.3 41.5h7.2s-.4-2.4-1.5-2.8c-1.2-.4-1.9-1.2-1.6-1.6.3-.5 1.5-1.3 1.5-1.3s1.7 1.5 2.7 2c1 .5.9.6.8.9-.1.3-.4 2.2.5 2.9h8s-.6-2.7-1.4-2.9c-.8-.2-2.1-.8-2.9-1.3-.8-.5-2.2-1-2.4-1.2l-.2-.3s.9-2.6.9-3c-.1-.4 4.7-3 4.9-6.2s-.8-5.1-1.3-6.1-.8-1.5-.4-1.8c.4-.3 2.5-3.1 4.3-3.3s4.4-.1 4.3-.9-1.1-2.5-2.5-2.7-3.2-.8-4.2-1.7c-1-.9-4.5-2.1-5.8-.7-1.3 1.4-1.8 4.4-2.8 4.7-1 .3-5.4 1.4-7.3 7.8s-2 7.6-3.7 9.1c-1.7 1.5-7.7 6.7-7.6 7.8.1 1.1.7 1.1.7 1.1s0 .7.5.9c.5.3 2.4-.1 3.2-.8 0 0-.4.9.7.9s2.5-.1 4.7-2.3c0 .1 1 2.2.7 2.8z"/>
        <path fill="#FFFFFF" d="M50.1 96.7c-.9 0-1.8-.5-2.3-.9-.2-.2-.2-.5 0-.7.2-.2.5-.2.7-.1.2.1 1.7 1.4 2.9 0 .2-.2.5-.2.7 0 .2.2.2.5 0 .7-.6.7-1.3 1-2 1z"/>
      </g>

      <g id="sheep-avatar-8">
        <ellipse cx="51" cy="148.5" rx="28.2" ry="4.7" opacity=".2"/>
        <ellipse cx="31.7" cy="139.2" rx="4.2" ry="10.8"/>
        <ellipse cx="67.8" cy="139.2" rx="4.2" ry="10.8"/>
        <path fill="#FFFFFF" d="M99.9 102.4c0-10.6-8.4-19.2-18.9-19.5 0-10.8-8.7-19.5-19.5-19.5-4.3 0-8.3 1.4-11.5 3.8-3.2-2.4-7.2-3.8-11.5-3.8-10.8 0-19.5 8.7-19.5 19.5-10.4.4-18.8 9-18.8 19.5s8.4 19.1 18.8 19.5c0 10.8 8.7 19.5 19.5 19.5 4.3 0 8.3-1.4 11.5-3.8 3.2 2.4 7.2 3.8 11.5 3.8 10.8 0 19.5-8.7 19.5-19.5 10.5-.3 18.9-8.9 18.9-19.5z"/>
        <circle cx="50" cy="91.7" r="18.9"/>
        <ellipse cx="37.5" cy="76.2" rx="3.6" ry="5.7"/>
        <ellipse cx="62.4" cy="76.2" rx="3.6" ry="5.7"/>
        <circle fill="#FFFFFF" cx="42.3" cy="87.5" r="6.6"/>
        <circle fill="#FFFFFF" cx="58" cy="87.5" r="6.6"/>
        <ellipse cx="45" cy="89.7" rx="1.3" ry="2.8"/>
        <ellipse cx="55.1" cy="86.1" rx="1.3" ry="2.8"/>
        <path d="M75 25C75 11.2 63.8 0 50 0S25 11.2 25 25c0 6 2.1 11.5 5.7 15.9.8.9 1.6 1.8 2.5 2.7L50 61.1l16.8-17.6c.9-.8 1.8-1.7 2.5-2.7C72.9 36.5 75 31 75 25z" fill="#d2a467"/>
        <path fill="#FFFFFF" d="M35.8 41.1s1.6.9 4.3.8c1.7-.1 3.1-.6 3.8-1 .3-.1.6.1.6.4 0 .2.2.4.4.4h4.9c.2 0 .3-.1.4-.3.2-.4.3-1-.3-1.3-.8-.5-1.3-.4-1.1-.8.2-.3.7-1.3 2.2-1 1.5.3 1.3.7 1.4 1.4.1.5.3 1.2.4 1.6.1.2.2.3.4.3H59c.2 0 .3-.1.4-.3.2-.4.3-1.2-.7-1.9-1.4-1.1-2.6-2.2-3-3.4-.2-.6-.5-1-.7-1.2-.1-.2-.1-.4 0-.6.4-.5 1.1-1.4 1-2.6-.1-1.6.2-1.7.5-1.7s1.5.1 1.8.5c.3.4.6.8 1.1.8.5-.1.7-.6 1-.8.3-.2 1.4-2.1 0-3.4-1.4-1.3-3.1-1.4-3.9-1.3-.8.1-.8-2.9 2-4.9 2.8-2.1 5-4.9 4.7-5.9-.2-.9-1.2-.9-1.4-1.3-.2-.4-.4-1.1-.9-2.1-.5-.9-2.1-2.2-4.4-2.1-2.3.1-3 1.8-3.7 1.7-.8-.1-1.8-.2-2.2-.1-.4.1-.3 1.5-.1 1.8s-.4 3.4.1 5.4-2.6 5.2-3.7 5.5c-1.1.3-4.4 1.6-4.4 5.5s.3 5.4-.4 6.2c-.7.9-3 3.6-5.1 4.3-2.2.8-1.5 1-1.2 1.4z"/>
        <path fill="#FFFFFF" d="M51.3 102c-3.5 0-6.6-2.2-6.6-2.3-.2-.2-.3-.5-.1-.7.2-.2.5-.3.7-.1.3.2 6.3 4.6 10.7.1.2-.2.5-.2.7 0 .2.2.2.5 0 .7-1.7 1.7-3.6 2.3-5.4 2.3z"/>
      </g>

      <g id="sheep-avatar-9">
        <ellipse cx="51" cy="148.5" rx="28.2" ry="4.7" opacity=".2"/>
        <ellipse cx="31.7" cy="139.2" rx="4.2" ry="10.8"/>
        <ellipse cx="67.8" cy="139.2" rx="4.2" ry="10.8"/>
        <path fill="#FFFFFF" d="M99.9 102.4c0-10.6-8.4-19.2-18.9-19.5 0-10.8-8.7-19.5-19.5-19.5-4.3 0-8.3 1.4-11.5 3.8-3.2-2.4-7.2-3.8-11.5-3.8-10.8 0-19.5 8.7-19.5 19.5-10.4.4-18.8 9-18.8 19.5s8.4 19.1 18.8 19.5c0 10.8 8.7 19.5 19.5 19.5 4.3 0 8.3-1.4 11.5-3.8 3.2 2.4 7.2 3.8 11.5 3.8 10.8 0 19.5-8.7 19.5-19.5 10.5-.3 18.9-8.9 18.9-19.5z"/>
        <circle cx="50" cy="91.7" r="18.9"/>
        <ellipse cx="37.5" cy="76.2" rx="3.6" ry="5.7"/>
        <ellipse cx="62.4" cy="76.2" rx="3.6" ry="5.7"/>
        <circle fill="#FFFFFF" cx="42.3" cy="87.5" r="6.6"/>
        <path fill="#FFFFFF" d="M64.3 89.3c.2-.6.3-1.2.3-1.9 0-3.6-3-6.6-6.6-6.6-3.6 0-6.6 3-6.6 6.6 0 .6.1 1.3.3 1.9h12.6z"/>
        <ellipse cx="43.9" cy="87.9" rx="1.3" ry="2.8"/>
        <ellipse cx="57.3" cy="87.9" rx="1.3" ry="2.8"/>
        <path d="M75 25C75 11.2 63.8 0 50 0S25 11.2 25 25c0 6 2.1 11.5 5.7 15.9.8.9 1.6 1.8 2.5 2.7L50 61.1l16.8-17.6c.9-.8 1.8-1.7 2.5-2.7C72.9 36.5 75 31 75 25z" fill="#7fb5c7"/>
        <path fill="#FFFFFF" d="M47.8 41.2h5.1s-2.3-2.8-2.1-3.3c.2-.5.2-1.1.9-.7s2.9 4 2.9 4h5s-.4-2.5-1-2.7c-.6-.2-1.2.1-1.4 0-.2-.1-.6-1.7-.7-2.4-.1-.6.1-1 .2-1.1.1-.2 1.1-1.2.9-1.6-.2-.4-.7-1.7-.3-2 .4-.2 4-1.8 3.6-4.8-.4-3-1.5-2.5-1.6-2.3-.1.2-2.1 2.6-2.6 2.6s-.9-2.7-1.1-2.7c-.3 0-.3-.3.1-.4.4-.1 2-.9 2.3-1.2.3-.3 2.6-.7 2.4-1.4-.2-.7-3.8-4.4-3.8-4.4s0-6.3-3-8c0 0-2.7 1.5-2.8 4.5 0 0-.1.4-.7.3-.6-.1-2.8-6.1-10.1-3.3 0 0-.9 4.3 5.2 8 0 0 0 3.9.4 4.2.4.3 1.1.5 1.1.5s-3.9 4.2-4.4 6.2c-.5 2 1.3 4.6 1.5 4.9.2.2 1.4 3.9-2.1 3.9s-3.3-4.3-2.9-5.7c.4-1.4-1 0-1.2.9-.2.9-1.1 7.8 5 8 0 0 3.5.8 4.2-1.3.5-2 1 1.3 1 1.3z"/>
        <path fill="#FFFFFF" d="M45.6 101.4c-.1 0-.3-.1-.4-.2-.2-.2-.1-.5.1-.7l1.6-1.3c.2-.2.5-.2.6 0l1.3 1.1 1.2-1c.2-.1.4-.2.6 0l1.4.9 1.3-1.2c.2-.2.5-.2.7 0l1.8 1.6c.2.2.2.5 0 .7s-.5.2-.7 0l-1.5-1.3-1.2 1.1c-.2.2-.4.2-.6 0l-1.4-.9-1.2 1.1c-.2.2-.5.2-.6 0l-1.3-1.1-1.3 1.1c-.2.1-.3.1-.4.1z"/>
      </g>

      <g id="sheep-avatar-10">
        <path id="boundarie_1_" fill="none" d="M0 0h100v155H0z"/>
        <ellipse cx="51" cy="148.5" rx="28.2" ry="4.7" opacity=".2"/>
        <ellipse cx="31.7" cy="139.2" rx="4.2" ry="10.8"/>
        <ellipse cx="67.8" cy="139.2" rx="4.2" ry="10.8"/>
        <path fill="#FFFFFF" d="M99.9 102.4c0-10.6-8.4-19.2-18.9-19.5 0-10.8-8.7-19.5-19.5-19.5-4.3 0-8.3 1.4-11.5 3.8-3.2-2.4-7.2-3.8-11.5-3.8-10.8 0-19.5 8.7-19.5 19.5-10.4.4-18.8 9-18.8 19.5s8.4 19.1 18.8 19.5c0 10.8 8.7 19.5 19.5 19.5 4.3 0 8.3-1.4 11.5-3.8 3.2 2.4 7.2 3.8 11.5 3.8 10.8 0 19.5-8.7 19.5-19.5 10.5-.3 18.9-8.9 18.9-19.5z"/>
        <circle cx="50" cy="91.7" r="18.9"/>
        <ellipse cx="37.5" cy="76.2" rx="3.6" ry="5.7"/>
        <ellipse cx="62.4" cy="76.2" rx="3.6" ry="5.7"/>
        <path fill="#FFFFFF" d="M45.2 87.9c0 1.5-.6 2.8-1.3 2.8-.7 0-1.3-1.2-1.3-2.8v-.7h-6.9v.3c0 3.6 3 6.6 6.6 6.6s6.6-3 6.6-6.6v-.3h-3.7v.7zM62.6 87.2v.7c0 1.5-.6 2.8-1.3 2.8-.7 0-1.3-1.2-1.3-2.8v-.7h-8.6v.3c0 3.6 3 6.6 6.6 6.6 3.6 0 6.6-3 6.6-6.6v-.3h-2z"/>
        <path fill="#FFFFFF" d="M42.8 101.6H39c-.3 0-.5-.2-.5-.5s.2-.5.5-.5h3.8c.3 0 .5.2.5.5s-.2.5-.5.5z"/>
        <path d="M75 25C75 11.2 63.8 0 50 0S25 11.2 25 25c0 6 2.1 11.5 5.7 15.9.8.9 1.6 1.8 2.5 2.7L50 61.1l16.8-17.6c.9-.8 1.8-1.7 2.5-2.7C72.9 36.5 75 31 75 25z" fill="#b22222"/>
        <path fill="#FFFFFF" d="M32.1 39.2s7.8-6.5 10-8.1c0 0 .1-2.8 3-4.8s12.5-8.6 12.3-11.7c-.2-3.1-3.6-4.3-2.1-4.8s7.9.2 8.3 1.8 1.4 2.3 1.9 2.3 4 1.7 2.7 2.3c-1.3.6-3.2.9-3.9 1.2S66.2 27 61 30.5s-6.2 4.4-5.8 4.9c.4.5.7 2 1.1 1.9.5-.1 3.9-1.1 4.9-.1.9 1 .8 2.4.8 2.4H51.4s-.7-1.3.3-1.5c.9-.2 1.4-1.7.2-2.3-1.2-.7-3.9-.3-5.1-1.2-1.1-.9-1.7-.4-1.7-.4s-3.2 4.7-4.6 5c-1.4.3-2.4.5-2.5 0s.3-1.2.3-1.2-.4.7-2.1.9c-1.7.2-4.1.3-4.1.3z"/>
      </g>

      <g id="sheep-avatar-11">
        <ellipse cx="51" cy="148.5" rx="28.2" ry="4.7" opacity=".2"/>
        <ellipse cx="31.7" cy="139.2" rx="4.2" ry="10.8"/>
        <ellipse cx="67.8" cy="139.2" rx="4.2" ry="10.8"/>
        <path fill="#FFFFFF" d="M99.9 102.4c0-10.6-8.4-19.2-18.9-19.5 0-10.8-8.7-19.5-19.5-19.5-4.3 0-8.3 1.4-11.5 3.8-3.2-2.4-7.2-3.8-11.5-3.8-10.8 0-19.5 8.7-19.5 19.5-10.4.4-18.8 9-18.8 19.5s8.4 19.1 18.8 19.5c0 10.8 8.7 19.5 19.5 19.5 4.3 0 8.3-1.4 11.5-3.8 3.2 2.4 7.2 3.8 11.5 3.8 10.8 0 19.5-8.7 19.5-19.5 10.5-.3 18.9-8.9 18.9-19.5z"/>
        <circle cx="50" cy="91.7" r="18.9"/>
        <ellipse cx="37.5" cy="76.2" rx="3.6" ry="5.7"/>
        <ellipse cx="62.4" cy="76.2" rx="3.6" ry="5.7"/>
        <circle fill="#FFFFFF" cx="42.3" cy="87.5" r="6.6"/>
        <circle fill="#FFFFFF" cx="58" cy="87.5" r="6.6"/>
        <ellipse cx="42.9" cy="87.9" rx="1.3" ry="2.8"/>
        <ellipse cx="57.3" cy="87.9" rx="1.3" ry="2.8"/>
        <path d="M75 25C75 11.2 63.8 0 50 0S25 11.2 25 25c0 6 2.1 11.5 5.7 15.9.8.9 1.6 1.8 2.5 2.7L50 61.1l16.8-17.6c.9-.8 1.8-1.7 2.5-2.7C72.9 36.5 75 31 75 25z" fill="#9370db"/>
        <path fill="#FFFFFF" d="M44.8 42.7h16.8s1.2-3-1.3-3.8c-2.5-.7-3.9.6-5.2-.6-1.3-1.2-1.7-1.6-1.3-1.8s2.8-.1 5.5-4.6 3.3-6.7 2.8-7.4c-.4-.7-1.9-2-1.1-2.8s.9-.1 1.3-.8.1-5.2 0-6.1c-.1-1 2.8-2.8 2.3-4.1-.5-1.3-3.6 1-3.6 1s-6.7-.7-9.3 0c0 0-1-.9-1.8-.9-.7 0-2.8 0-2.9.4-.1.4 1.2 1.9 2.3 2.5 0 0-1 2.9-.1 6.1 0 0-6.6 4-6.4 4.7l.2.7.8-.3s-5.2 3.8-5.2 4.9c.1 1-.4 6.1-1.4 7.4-1 1.3-2.5 2.2-2.5 3.1s-1.1 3.1 1 1.7l1.3-.9s-.4 1.9.4 1.6c.7-.2 1.5-1.2 3-2.5s5.1-4.5 7.3-1.2c.1 0-3.5 1.1-2.9 3.7z"/>
        <path fill="#FFFFFF" d="M43.4 102.3c.2-1 1-1.9 1.8-2.3 1.4-.8 3.1-1.1 4.7-1.1 2.3.1 5.9.4 7.3 2.6 2.1 3.2-4.7 2.3-6.1 2.1-1.6-.2-2.8.1-4.3.7-1.1.4-2.7.3-3.3-.8-.1-.3-.2-.8-.1-1.2z"/>
      </g>

      <g id="sheep-avatar-12">
        <ellipse cx="51" cy="148.5" rx="28.2" ry="4.7" opacity=".2"/>
        <ellipse cx="31.7" cy="139.2" rx="4.2" ry="10.8"/>
        <ellipse cx="67.8" cy="139.2" rx="4.2" ry="10.8"/>
        <path fill="#FFFFFF" d="M99.9 102.4c0-10.6-8.4-19.2-18.9-19.5 0-10.8-8.7-19.5-19.5-19.5-4.3 0-8.3 1.4-11.5 3.8-3.2-2.4-7.2-3.8-11.5-3.8-10.8 0-19.5 8.7-19.5 19.5-10.4.4-18.8 9-18.8 19.5s8.4 19.1 18.8 19.5c0 10.8 8.7 19.5 19.5 19.5 4.3 0 8.3-1.4 11.5-3.8 3.2 2.4 7.2 3.8 11.5 3.8 10.8 0 19.5-8.7 19.5-19.5 10.5-.3 18.9-8.9 18.9-19.5z"/>
        <circle cx="50" cy="91.7" r="18.9"/>
        <ellipse cx="37.5" cy="76.2" rx="3.6" ry="5.7"/>
        <ellipse cx="62.4" cy="76.2" rx="3.6" ry="5.7"/>
        <circle fill="#FFFFFF" cx="42.3" cy="87.5" r="6.6"/>
        <circle fill="#FFFFFF" cx="58" cy="87.5" r="6.6"/>
        <ellipse cx="38.9" cy="87.9" rx="1.3" ry="2.8"/>
        <ellipse cx="61.3" cy="87.9" rx="1.3" ry="2.8"/>
        <path d="M75 25C75 11.2 63.8 0 50 0S25 11.2 25 25c0 6 2.1 11.5 5.7 15.9.8.9 1.6 1.8 2.5 2.7L50 61.1l16.8-17.6c.9-.8 1.8-1.7 2.5-2.7C72.9 36.5 75 31 75 25z" fill="#789"/>
        <path fill="#FFFFFF" d="M40.9 41.5h8s.2-1.6-.3-2.2c-.6-.6-1.1-1.1-1-1.6.1-.4 1.3-1.6 1.3-1.6s2.2 1.2 2.2 1.9-.8 2.2-.7 3.6h9.9s-.3-2.6-1.5-3.1-1.6 0-2-.2c-.5-.2-1-1.1-1-1.1s1.4-2.1 1-3.5c-.4-1.3-.5-1.9-.2-2 .3-.1 1.7-1.2 1.9-1.3.2 0 2.7 0 2-2.6-.7-2.6-2-2.6-2.1-2.4-.2.1-1 1.2-1.5 1.3s-.9.2-.9.2-.5-2.5.5-3.2 1.3-1.4 2-1.6c.8-.2 3.4.1 2.9-2.4 0 0 0-.4-.8-.4-.9 0-2.5-.3-2.5-.3s-2.8-2.9-3-3.3-.2-2.4 1-2.6 1.8 0 1.8 0 .1-1.8-2.1-2c-2.2-.2-3.2.1-4.2-.2-1-.3-2.5-2-4-1.9 0 0 .6 1.1.6 1.6 0 0-5-.7-6.9 1.2 0 0 1.8.3 2.1.6 0 0-3.9 2.3-4.7 4.9h1.9s-3.4 2.6-4.2 6.2c0 0 .9-.5 1.7-.6 0 0-2.1 3.9-1.1 6.6 0 0 .7-1.1 1.5-1.3 0 0-.4 6.1 1.1 7.8 0 0 .6-1.5 2-2.8 0 0 1 .9 1 2 .1 1.1.3 1.8 0 2.2-.4.4-1.8 1.4-1.7 4.1z"/>
        <path fill="#FFFFFF" d="M49.4 106.3c-.2 0-.3 0-.4-.1-.4-.1-.6-.4-.9-.8-.2.2-.4.5-.7.6-.3.1-.8.1-1.3-.3-1.6-1.2.4-4.1.6-4.4.2-.2.5-.3.7-.1.2.2.3.5.1.7-.5.7-1.5 2.5-.8 3 .2.1.3.2.4.1.3-.1.5-.6.6-.9.1-.2.3-.4.5-.4s.4.1.5.4c.1.4.4 1 .7 1.1 0 0 .1 0 .3-.1.4-.3.6-.9.7-1.6.1-.7-.1-1.1-.2-1.2-.2-.1-.3-.4-.2-.7s.4-.3.7-.2c.5.3.7 1.1.7 1.5.1 1-.3 2.4-1.1 3-.4.3-.6.4-.9.4z"/>
      </g>

      <g id="sheep-avatar-13">
        <ellipse cx="51" cy="148.5" rx="28.2" ry="4.7" opacity=".2"/>
        <ellipse cx="31.7" cy="139.2" rx="4.2" ry="10.8"/>
        <ellipse cx="67.8" cy="139.2" rx="4.2" ry="10.8"/>
        <path fill="#FFFFFF" d="M99.9 102.4c0-10.6-8.4-19.2-18.9-19.5 0-10.8-8.7-19.5-19.5-19.5-4.3 0-8.3 1.4-11.5 3.8-3.2-2.4-7.2-3.8-11.5-3.8-10.8 0-19.5 8.7-19.5 19.5-10.4.4-18.8 9-18.8 19.5s8.4 19.1 18.8 19.5c0 10.8 8.7 19.5 19.5 19.5 4.3 0 8.3-1.4 11.5-3.8 3.2 2.4 7.2 3.8 11.5 3.8 10.8 0 19.5-8.7 19.5-19.5 10.5-.3 18.9-8.9 18.9-19.5z"/>
        <path d="M65 80.2c.6-1 1-2.4 1-4 0-3.2-1.6-5.7-3.6-5.7-1.7 0-3.2 1.9-3.5 4.5-2.6-1.4-5.7-2.2-8.9-2.2s-6.3.8-8.9 2.2c-.4-2.6-1.8-4.5-3.5-4.5-2 0-3.6 2.6-3.6 5.7 0 1.6.4 3 1 4-2.4 3.2-3.9 7.1-3.9 11.4 0 10.4 8.5 18.9 18.9 18.9s18.9-8.5 18.9-18.9c0-4.3-1.5-8.2-3.9-11.4z"/>
        <path d="M75 25C75 11.2 63.8 0 50 0S25 11.2 25 25c0 6 2.1 11.5 5.7 15.9.8.9 1.6 1.8 2.5 2.7L50 61.1l16.8-17.6c.9-.8 1.8-1.7 2.5-2.7C72.9 36.5 75 31 75 25z" fill="#639"/>
        <path fill="#FFFFFF" d="M44.7 42.1h6.6s.6-1.1 0-1.8-1.3-1.2-1-1.6c.3-.4 1.5-.5 1.9-.2.4.3.4.6.6 1.2.3.6 1 2.4 1 2.4h7.1s.4-.7 0-1.3-.7-1.3-.7-1.4-1.5-1.8-2.6-2.1c-1.1-.4-1.9-1.1-1.9-1.6s1.8-3.2 2.1-5.5c.3-2.2.2-2.6.9-2.7.8-.1 1.5-.2 2 .4.5.6 1.3 1.7 1.7 1.5.4-.3 2.5-3 2.1-3.7-.4-.7.2-.9 0-1.2-.2-.4-.9-2.9-1.6-2.4-.7.5-2.6.9-3.8.6-1.2-.4-.4-3 .7-4.1 0 0 3.8.3 5.3-.3s2.6-2 2.6-2.4c0-.4-.9-1.8-2.6-1.9-1.7-.1-2.1-.6-2.1-.6s-2.1-4.3-6.3-3.5c-4.2.8-4.5 3.7-4.5 5.3s.6 3.4-.7 4.2-6.1 3.6-6.7 7.9-.1 5.6-1.5 5.6-9.4.1-10.9 2.4c-1.5 2.2 1.7 5.8 5.5 6.2 3.8.3 5.1.1 6.8-2.6 1.7-2.7.9-.6.7-.2-.2.2-1 2.7-.7 3.4zM35.9 89.4c-.1 0-.2 0-.3-.1-.2-.1-.3-.4-.2-.7.1-.2 2.2-3.7 5.9-4.1 2.6-.3 5.2 1.1 7.9 4 .2.2.2.5 0 .7-.2.2-.5.2-.7 0-2.4-2.7-4.8-3.9-7-3.7-3.2.3-5.1 3.6-5.2 3.6 0 .2-.2.3-.4.3zM51.4 89.4c-.1 0-.2 0-.3-.1-.2-.2-.2-.5 0-.7 2.6-2.9 5.3-4.3 7.9-4 3.7.4 5.8 4 5.9 4.1.1.2.1.5-.2.7-.2.1-.5.1-.7-.2 0 0-2-3.3-5.2-3.6-2.2-.2-4.6 1-7 3.7-.1 0-.3.1-.4.1zM54.2 98l-.6 2-3.6-.2-.2-3.1c-3.5.1-6.4 2.5-6.4 5.5s2.9 5.5 6.6 5.5 6.6-2.5 6.6-5.5c-.1-1.7-1-3.2-2.4-4.2z"/>
      </g>

      <g id="sheep-avatar-14">
        <ellipse cx="51" cy="148.5" rx="28.2" ry="4.7" opacity=".2"/>
        <ellipse cx="31.7" cy="139.2" rx="4.2" ry="10.8"/>
        <ellipse cx="67.8" cy="139.2" rx="4.2" ry="10.8"/>
        <path fill="#FFFFFF" d="M99.9 102.4c0-10.6-8.4-19.2-18.9-19.5 0-10.8-8.7-19.5-19.5-19.5-4.3 0-8.3 1.4-11.5 3.8-3.2-2.4-7.2-3.8-11.5-3.8-10.8 0-19.5 8.7-19.5 19.5-10.4.4-18.8 9-18.8 19.5s8.4 19.1 18.8 19.5c0 10.8 8.7 19.5 19.5 19.5 4.3 0 8.3-1.4 11.5-3.8 3.2 2.4 7.2 3.8 11.5 3.8 10.8 0 19.5-8.7 19.5-19.5 10.5-.3 18.9-8.9 18.9-19.5z"/>
        <path d="M65 80.2c.6-1 1-2.4 1-4 0-3.2-1.6-5.7-3.6-5.7-1.7 0-3.2 1.9-3.5 4.5-2.6-1.4-5.7-2.2-8.9-2.2s-6.3.8-8.9 2.2c-.4-2.6-1.8-4.5-3.5-4.5-2 0-3.6 2.6-3.6 5.7 0 1.6.4 3 1 4-2.4 3.2-3.9 7.1-3.9 11.4 0 10.4 8.5 18.9 18.9 18.9s18.9-8.5 18.9-18.9c0-4.3-1.5-8.2-3.9-11.4z"/>
        <circle fill="#FFFFFF" cx="42.3" cy="87.5" r="6.6"/>
        <circle fill="#FFFFFF" cx="58" cy="87.5" r="6.6"/>
        <ellipse cx="44.9" cy="89.9" rx="1.3" ry="2.8"/>
        <ellipse cx="55.3" cy="89.9" rx="1.3" ry="2.8"/>
        <path d="M75 25C75 11.2 63.8 0 50 0S25 11.2 25 25c0 6 2.1 11.5 5.7 15.9.8.9 1.6 1.8 2.5 2.7L50 61.1l16.8-17.6c.9-.8 1.8-1.7 2.5-2.7C72.9 36.5 75 31 75 25z" fill="#696969"/>
        <path fill="#FFFFFF" d="M46 40.2l12.9-.2s2-5.3-.7-5.2c-3.5.1-5.4 1.1-5.4 1.1s7-8.8-.6-8.9c0 0-.3-1.5.6-2 .9-.5 2.7-1.5 2.6-2.2-.1-.7-1-1.9-1.4-1.7-.4.2-1.5.6-1.5.6s-1.1-2.9-.7-3.5c.4-.6 2.1-.6 2.1-.6S56 19 56.6 19s-.7-.1 1.4-1c2.1-.8 3.2-1.7 2.6-2.3-.6-.7-2.2-3-2.4-3.4-.1-.4-1-2.3-1.9-2.2-.9.1-2.6-1.6-3.8-1.3s-1.4.7-1.8.4c-.4-.4-1.3-1.1-1.6-1-.3.1-3.1-1.7-4.6 2 0 0 1.7.1 1.8.5.1.4-1.1 1.3-1.8 1.3s.4 2.8 3.5 2.7c0 0-4.7 8.2-4.6 14.2.2 6-1.3 5.8-1.8 5.1-.4-.7-.8-2.9 0-5.1.9-2.2 3.4-10.3-7.4-2.4 0 0 6.1-2.5 4.5 1.6s-2.1 8.6-.8 10.4c1.2 1.8 5 3 7.3-.7.1.1-.7 2.4.8 2.4z"/>
        <circle fill="#FFFFFF" cx="61.3" cy="98.5" r="1.7"/>
      </g>


      <g id="sheep-avatar-15">
        <ellipse cx="51" cy="148.5" rx="28.2" ry="4.7" opacity=".2"/>
        <ellipse cx="31.7" cy="139.2" rx="4.2" ry="10.8"/>
        <ellipse cx="67.8" cy="139.2" rx="4.2" ry="10.8"/>
        <path fill="#FFFFFF" d="M99.9 102.4c0-10.6-8.4-19.2-18.9-19.5 0-10.8-8.7-19.5-19.5-19.5-4.3 0-8.3 1.4-11.5 3.8-3.2-2.4-7.2-3.8-11.5-3.8-10.8 0-19.5 8.7-19.5 19.5-10.4.4-18.8 9-18.8 19.5s8.4 19.1 18.8 19.5c0 10.8 8.7 19.5 19.5 19.5 4.3 0 8.3-1.4 11.5-3.8 3.2 2.4 7.2 3.8 11.5 3.8 10.8 0 19.5-8.7 19.5-19.5 10.5-.3 18.9-8.9 18.9-19.5z"/>
        <path d="M65 80.2c.6-1 1-2.4 1-4 0-3.2-1.6-5.7-3.6-5.7-1.7 0-3.2 1.9-3.5 4.5-2.6-1.4-5.7-2.2-8.9-2.2s-6.3.8-8.9 2.2c-.4-2.6-1.8-4.5-3.5-4.5-2 0-3.6 2.6-3.6 5.7 0 1.6.4 3 1 4-2.4 3.2-3.9 7.1-3.9 11.4 0 10.4 8.5 18.9 18.9 18.9s18.9-8.5 18.9-18.9c0-4.3-1.5-8.2-3.9-11.4z"/>
        <path fill="#FFFFFF" d="M35.9 87.5c-.1 0-.2 0-.3.1-.2.1-.3.4-.2.7.1.2 2.2 3.7 5.9 4.1 2.6.3 5.2-1.1 7.9-4 .2-.2.2-.5 0-.7-.2-.2-.5-.2-.7 0-2.4 2.7-4.8 3.9-7 3.7-3.2-.3-5.1-3.6-5.2-3.6 0-.2-.2-.3-.4-.3zM51.4 87.5c-.1 0-.2 0-.3.1-.2.2-.2.5 0 .7 2.6 2.9 5.3 4.3 7.9 4 3.7-.4 5.8-4 5.9-4.1.1-.2.1-.5-.2-.7-.2-.1-.5-.1-.7.2 0 0-2 3.3-5.2 3.6-2.2.2-4.6-1-7-3.7-.1-.1-.3-.1-.4-.1z"/>
        <path d="M75 25C75 11.2 63.8 0 50 0S25 11.2 25 25c0 6 2.1 11.5 5.7 15.9.8.9 1.6 1.8 2.5 2.7L50 61.1l16.8-17.6c.9-.8 1.8-1.7 2.5-2.7C72.9 36.5 75 31 75 25z" fill="#20212e"/>
        <path fill="#FFFFFF" d="M50.1 41.5h9.5s.9-1.1.2-1.9c-.7-.8-1.6-.6-1.6-.6s-.7-.8-1.4-.7c-.6.1-1.1.5-1.1.5s-.9-.1-.6-.8c.4-.7 4.7-4.9 3.7-6.9s-4.2-1.5-4.2-1.5.3-2.4-.6-5.7c0 0 2.8-1.3 3.8-7.9 0 0 1.8-.8 2-1.8 0 0 1.1-1.3.9-2.1-.2-.9-.7-.6-.7-.6s-.2-1.7-1.2-1.4c0 0-.9-.8-1.3-.3s.1 2.5-.9 3.1-.3-.9-.7-1.1c-.4-.2-1.3 0-1.4.7-.1.6.3 1.3.7 1.6.4.3.9.8.2 2.2s-2.7 4-3.3 3.5c-.6-.5-1-1.1-.6-2.1.4-1.1 2.1-2.5 1.5-3.7-.6-1.2-2.8-2.3-2.8-2.3s.2-2.8-2.2-2.6c-2.3.2-2.4 1.8-2.4 1.8h-1s-.4-1.5-1.9-1.1-1.2 2.5-1.2 2.5-1.5 1-1.5 1.7.5 1 .5 1-.1 1 1.7 2c0 0 1 2.7 2 3.1s.7.9.7.9-1 2.1-1 3.1.1 1.2-.4.8c-.6-.4-1.3-.5-1.5-1.6-.2-1.1-.8-1.4-1.8-1.2s.3 1.5.3 1.5l.1.4s-2-.2-2.6-.9c-.6-.8-1 0-1 1 0 0-.6 1.3.3 1.8 0 0-.2 1 .2 1.2.4.2 1.4.4 1.4.4s.1 1 3.8.2l1.5 1 .1 2s-4.7-.6-5.7 1.7C37.5 34.6 42 38 42 38l.2.7s-.6.5-.9.4-.6-.6-1.3-.6c-.7-.1-1.9.8-1.9.8s-1.6-.1-1.6.8.7 1.7.7 1.7h10s.2-2.1-.4-3.6c-.6-1.5-1.2-2.3-1.2-3.3 0 0 1.4 2.1 3.7 1.9s2.2-.9 2.2-.9-.1 1.7-1.3 3.5-.6 2.4-.6 2.4h.5z"/>
        <path fill="#FFFFFF" d="M53.8 102h-6.7c-.3 0-.5-.2-.5-.5s.2-.5.5-.5h6.7c.3 0 .5.2.5.5s-.2.5-.5.5z"/>
      </g>


      <g id="sheep-avatar-16">
        <ellipse cx="51" cy="148.5" rx="28.2" ry="4.7" opacity=".2"/>
        <ellipse cx="31.7" cy="139.2" rx="4.2" ry="10.8"/>
        <ellipse cx="67.8" cy="139.2" rx="4.2" ry="10.8"/>
        <path fill="#FFFFFF" d="M99.9 102.4c0-10.6-8.4-19.2-18.9-19.5 0-10.8-8.7-19.5-19.5-19.5-4.3 0-8.3 1.4-11.5 3.8-3.2-2.4-7.2-3.8-11.5-3.8-10.8 0-19.5 8.7-19.5 19.5-10.4.4-18.8 9-18.8 19.5s8.4 19.1 18.8 19.5c0 10.8 8.7 19.5 19.5 19.5 4.3 0 8.3-1.4 11.5-3.8 3.2 2.4 7.2 3.8 11.5 3.8 10.8 0 19.5-8.7 19.5-19.5 10.5-.3 18.9-8.9 18.9-19.5z"/>
        <path d="M65 80.2c.6-1 1-2.4 1-4 0-3.2-1.6-5.7-3.6-5.7-1.7 0-3.2 1.9-3.5 4.5-2.6-1.4-5.7-2.2-8.9-2.2s-6.3.8-8.9 2.2c-.4-2.6-1.8-4.5-3.5-4.5-2 0-3.6 2.6-3.6 5.7 0 1.6.4 3 1 4-2.4 3.2-3.9 7.1-3.9 11.4 0 10.4 8.5 18.9 18.9 18.9s18.9-8.5 18.9-18.9c0-4.3-1.5-8.2-3.9-11.4z"/>
        <circle fill="#FFFFFF" cx="42.3" cy="87.5" r="6.6"/>
        <circle fill="#FFFFFF" cx="58" cy="87.5" r="6.6"/>
        <ellipse cx="46.4" cy="87.9" rx="1.3" ry="2.8"/>
        <ellipse cx="53.8" cy="87.9" rx="1.3" ry="2.8"/>
        <path fill="#FFFFFF" d="M50.4 101.1l2.9 3.2h-5.1z"/>
        <path d="M75 25C75 11.2 63.8 0 50 0S25 11.2 25 25c0 6 2.1 11.5 5.7 15.9.8.9 1.6 1.8 2.5 2.7L50 61.1l16.8-17.6c.9-.8 1.8-1.7 2.5-2.7C72.9 36.5 75 31 75 25z" fill="#9884b4"/>
        <path fill="#FFFFFF" d="M37.8 38.8h23s3-.8 2.7-11c-.4-10.2-1-8.6-.8-11.2.3-2.7.8-4.9 0-4.7-.8.2-1.4 2.8-1.5 3.3 0 0-1.9-.2-2.4.5 0 0-2.1-3.2-2.9-2.7s1.2 3.1 1.4 3.7.7 4.3.4 6.3c0 0-1.3.9-1.6 1.7 0 0-1.3-4.6-3.6-3.7 0 0-5.5-6.4-9.1-2.9 0 0-5.3-1.1-5.6 0s0 2.9 0 2.9-.5 1.7.8 2.9c0 0-.3 3.9 2.1 5.1 0 0-1.1 3.7 1.1 5.3 0 0-4.3 2.1-6.2 1.8-1.9-.3-2.1.3-.9 1.2 1.1.9 3.1 1.5 3.1 1.5z"/>
      </g>


      <g id="sheep-avatar-17">
        <ellipse cx="51" cy="148.5" rx="28.2" ry="4.7" opacity=".2"/>
        <ellipse cx="31.7" cy="139.2" rx="4.2" ry="10.8"/>
        <ellipse cx="67.8" cy="139.2" rx="4.2" ry="10.8"/>
        <path fill="#FFFFFF" d="M99.9 102.4c0-10.6-8.4-19.2-18.9-19.5 0-10.8-8.7-19.5-19.5-19.5-4.3 0-8.3 1.4-11.5 3.8-3.2-2.4-7.2-3.8-11.5-3.8-10.8 0-19.5 8.7-19.5 19.5-10.4.4-18.8 9-18.8 19.5s8.4 19.1 18.8 19.5c0 10.8 8.7 19.5 19.5 19.5 4.3 0 8.3-1.4 11.5-3.8 3.2 2.4 7.2 3.8 11.5 3.8 10.8 0 19.5-8.7 19.5-19.5 10.5-.3 18.9-8.9 18.9-19.5z"/>
        <path d="M65 80.2c.6-1 1-2.4 1-4 0-3.2-1.6-5.7-3.6-5.7-1.7 0-3.2 1.9-3.5 4.5-2.6-1.4-5.7-2.2-8.9-2.2s-6.3.8-8.9 2.2c-.4-2.6-1.8-4.5-3.5-4.5-2 0-3.6 2.6-3.6 5.7 0 1.6.4 3 1 4-2.4 3.2-3.9 7.1-3.9 11.4 0 10.4 8.5 18.9 18.9 18.9s18.9-8.5 18.9-18.9c0-4.3-1.5-8.2-3.9-11.4z"/>
        <path fill="#FFFFFF" d="M48.2 87.8c0 1.5-.9 2.8-2 2.8s-2-1.2-2-2.8c0-.6.1-1.1.4-1.6h-8.7c-.1.4-.1.8-.1 1.3 0 3.6 3 6.6 6.6 6.6s6.6-3 6.6-6.6c0-.4 0-.9-.1-1.3h-1c.1.5.3 1 .3 1.6zM61.7 86.2c.2.4.3.9.3 1.5 0 1.5-.9 2.8-2 2.8s-2-1.2-2-2.8c0-.5.1-1 .3-1.5h-6.7c-.1.4-.1.8-.1 1.3 0 3.6 3 6.6 6.6 6.6 3.6 0 6.6-3 6.6-6.6 0-.4 0-.9-.1-1.3h-2.9z"/>
        <path d="M75 25C75 11.2 63.8 0 50 0S25 11.2 25 25c0 6 2.1 11.5 5.7 15.9.8.9 1.6 1.8 2.5 2.7L50 61.1l16.8-17.6c.9-.8 1.8-1.7 2.5-2.7C72.9 36.5 75 31 75 25z" fill="#dfb231"/>
        <path fill="#FFFFFF" d="M40 36.6s.5.7 1.5.9c1 .1 11 .2 11 .2s5.5-1.9 5.6-6.9c0 0 1.6 1.2 3.2 0s2-3.1-.6-5.8c0 0 0-.7.7-.7s2.1.4 2.2-.5c0-.9-1.3-1.7-2.2-1.5s-1.5 1-2.1 2-1.8 1-2 2.3c0 0-1.7-2.6-4.4-1.6 0 0-.7-14.2-7.6-12.1 0 0-2.1.6-2.5 3.6 0 0-7.9-1.9-8.4 2.3s3 8.6 9.1 8.4c0 0-5.1 3.7-4.3 7.9L38 36.3l2 .3z"/>
        <path fill="#FFFFFF" d="M59 105.5c-.7 0-1.2-.6-1.7-1.2-.4-.5-.9-1.1-1.4-1.1-.5 0-1-.1-1.5-.2-1.8-.2-4.3-.6-9 .2-.3 0-.5-.1-.6-.4 0-.3.1-.5.4-.6 4.9-.8 7.4-.4 9.3-.2.5.1 1 .1 1.5.2.9 0 1.6.8 2.1 1.4.3.4.7.9 1 .8.1 0 .5-.2 1.2-1.4.3-.6.2-1 .1-1.2-.7-1.1-4-1.6-6.8-1.6h-2c-.3 0-.5-.2-.5-.5s.2-.5.5-.5h1.9c3.3-.1 6.4-.6 6.7-1.4.3-.8.1-1.4-.2-1.6-.3-.2-.9.1-1.5.8-1.9 2.2-11.6 1.3-12.7 1.2-.3 0-.5-.3-.5-.5 0-.3.3-.5.5-.5 4 .4 10.7.4 11.9-.9 1.4-1.5 2.4-1.2 2.8-1 .8.4 1.1 1.6.7 2.8-.3.8-1.4 1.3-2.8 1.6 1.3.3 2.5.8 3 1.6.3.4.5 1.2 0 2.2-.7 1.2-1.3 1.8-1.9 1.9-.4.1-.5.1-.5.1z"/>
      </g>

      <g id="sheep-avatar-18">
        <ellipse cx="51" cy="148.5" rx="28.2" ry="4.7" opacity=".2"/>
        <ellipse cx="31.7" cy="139.2" rx="4.2" ry="10.8"/>
        <ellipse cx="67.8" cy="139.2" rx="4.2" ry="10.8"/>
        <path fill="#FFFFFF" d="M99.9 102.4c0-10.6-8.4-19.2-18.9-19.5 0-10.8-8.7-19.5-19.5-19.5-4.3 0-8.3 1.4-11.5 3.8-3.2-2.4-7.2-3.8-11.5-3.8-10.8 0-19.5 8.7-19.5 19.5-10.4.4-18.8 9-18.8 19.5s8.4 19.1 18.8 19.5c0 10.8 8.7 19.5 19.5 19.5 4.3 0 8.3-1.4 11.5-3.8 3.2 2.4 7.2 3.8 11.5 3.8 10.8 0 19.5-8.7 19.5-19.5 10.5-.3 18.9-8.9 18.9-19.5z"/>
        <path d="M65 80.2c.6-1 1-2.4 1-4 0-3.2-1.6-5.7-3.6-5.7-1.7 0-3.2 1.9-3.5 4.5-2.6-1.4-5.7-2.2-8.9-2.2s-6.3.8-8.9 2.2c-.4-2.6-1.8-4.5-3.5-4.5-2 0-3.6 2.6-3.6 5.7 0 1.6.4 3 1 4-2.4 3.2-3.9 7.1-3.9 11.4 0 10.4 8.5 18.9 18.9 18.9s18.9-8.5 18.9-18.9c0-4.3-1.5-8.2-3.9-11.4z"/>
        <path fill="#FFFFFF" d="M47.2 87.9c0 1.5-.6 2.8-1.3 2.8s-1.3-1.2-1.3-2.8v-.4l-8.7-1.1c-.1.4-.1.7-.1 1.1 0 3.6 3 6.6 6.6 6.6 3.4 0 6.3-2.6 6.6-6l-1.8-.2zM56.6 87.3v.5c0 1.5-.6 2.8-1.3 2.8S54 89.4 54 87.8v-.2l-2.6.4c.3 3.4 3.1 6.1 6.6 6.1 3.6 0 6.6-3 6.6-6.6 0-.4 0-.8-.1-1.2l-7.9 1z"/>
        <path d="M75 25C75 11.2 63.8 0 50 0S25 11.2 25 25c0 6 2.1 11.5 5.7 15.9.8.9 1.6 1.8 2.5 2.7L50 61.1l16.8-17.6c.9-.8 1.8-1.7 2.5-2.7C72.9 36.5 75 31 75 25z" fill="#875131"/>
        <path fill="#FFFFFF" d="M32.9 35.6S31.7 13.9 40.2 13c0 0 .2-.5.7 1s2.8 8.4 3.4 8.3 1.3-.9 1.3-.9-.9-2.2-.2-4.3c0 0-1.8-2.5-1.2-3.9s3.5 2 3.5 2 1.6-.6 2.7 0c0 0 2.8-2.6 3.6-1.9.9.6-1.5 4.2-1.5 4.2s.8 1.6-.4 4.4c0 0 .4 1 1.1.9.6-.1 1.1-.4 1.5-1.4.4-1.1 2.6-7.4 3.1-7.6s1.8-.9 3.4 1 4.1 4.6 3.7 21.7c0 0-.4.4-.4 0s-.4-3.9-2.1-3.7c-1.7.3-1.8 1-1.8 1s-.3.5-.6-.2-.3-2.3-1.3-2.5c-.9-.2-1.6.5-1.6.5s-.4.6-.8 0-.7-1.3-1.6-1.5c-.9-.3-1 .5-1.3 1.1s-1.3 1.9-1.4 2 0 2.2 0 2.2 2.2-.3 2.2 2.4H50v-3.3l-1 .5-1.1-.5v3.3H43s-.4-3.1 2.6-2.5v-2.2s-1-1.5-1.3-2.7c-.3-1.2-1.7-.3-1.9.1s-.7 1.3-1 1.2c-.3 0-1.1-1.6-1.8-1-.7.5-1.3 1-1.4 2.1-.2 1.1-.8.8-1 .6-.2-.2-1.7-1.9-2.5-.7-.8 1.1-1.1 2.4-1.1 2.4s-.4 1.4-.7.5z"/>
        <path fill="#FFFFFF" d="M45.8 102.4h1.3v2.3zM54.2 102.4h-1.3v2.3z"/>
      </g>

      <g id="sheep-avatar-19">
        <ellipse cx="51" cy="148.5" rx="28.2" ry="4.7" opacity=".2"/>
        <ellipse cx="31.7" cy="139.2" rx="4.2" ry="10.8"/>
        <ellipse cx="67.8" cy="139.2" rx="4.2" ry="10.8"/>
        <path fill="#FFFFFF" d="M99.9 102.4c0-10.6-8.4-19.2-18.9-19.5 0-10.8-8.7-19.5-19.5-19.5-4.3 0-8.3 1.4-11.5 3.8-3.2-2.4-7.2-3.8-11.5-3.8-10.8 0-19.5 8.7-19.5 19.5-10.4.4-18.8 9-18.8 19.5s8.4 19.1 18.8 19.5c0 10.8 8.7 19.5 19.5 19.5 4.3 0 8.3-1.4 11.5-3.8 3.2 2.4 7.2 3.8 11.5 3.8 10.8 0 19.5-8.7 19.5-19.5 10.5-.3 18.9-8.9 18.9-19.5z"/>
        <circle cx="50" cy="91.7" r="18.9"/>
        <ellipse cx="37.5" cy="76.2" rx="3.6" ry="5.7"/>
        <ellipse cx="62.4" cy="76.2" rx="3.6" ry="5.7"/>
        <path fill="#FFFFFF" d="M63.4 83.7c-4-1.2-8.4-.4-11.1.4-.6 1-.9 2.1-.9 3.4 0 2.2 1.1 4.2 2.8 5.4 1.3-1.2 4.4-3.5 9.9-2.7.4-.8.6-1.7.6-2.7-.1-1.4-.5-2.7-1.3-3.8zM47.5 91.6c.9-1.1 1.5-2.6 1.5-4.1 0-1.2-.3-2.3-.9-3.3-5.3-1.6-9.3-.7-11.5.1-.5.9-.8 2-.8 3.1s.3 2.1.7 2.9c2.5-.8 7.2-1.7 11 1.3z"/>
        <ellipse cx="46.9" cy="87.9" rx="1.3" ry="2.8"/>
        <ellipse cx="55.1" cy="87.9" rx="1.3" ry="2.8"/>
        <path fill="#FFFFFF" d="M66.1 91.9c-.3-.1-6.6-1.5-10.1 1.1-1.3 1-2.1 2.4-2.2 4.3-.5.8-1 1.3-1.7 1.4-1.4.2-2.9-1.1-2.9-1.1-.1-.1-.1-.1-.2-.1-.4-2.4-1.5-4.8-3.6-5.8-4.5-2.1-10.4.6-10.6.7-.3.1-.4.4-.2.7.1.2.4.4.7.2.1 0 5.7-2.6 9.8-.7 2.3 1.1 3.2 4.5 3.2 7 0 2.7-.7 4.8-1.9 5.4-.2.1-.3.4-.2.7.1.2.3.3.4.3.1 0 .2 0 .2-.1 1.5-.8 2.5-3.2 2.4-6.3v-.8c.6.4 1.6.9 2.6.9h.5c.6-.1 1.1-.4 1.6-.8.2 1.3.7 2.4 1.6 3.3 1.5 1.5 3.7 2.2 5.3 2.2h.2c.3 0 .5-.2.5-.5s-.2-.5-.5-.5c-1.1.1-3.3-.4-4.7-1.9-1-1-1.5-2.4-1.4-4 .1-1.6.7-2.8 1.8-3.7 3.1-2.3 9.2-.9 9.3-.9.3.1.5-.1.6-.4-.1-.3-.2-.5-.5-.6z"/>
        <path d="M75 25C75 11.2 63.8 0 50 0S25 11.2 25 25c0 6 2.1 11.5 5.7 15.9.8.9 1.6 1.8 2.5 2.7L50 61.1l16.8-17.6c.9-.8 1.8-1.7 2.5-2.7C72.9 36.5 75 31 75 25z" fill="#db8a34"/>
        <path fill="#FFFFFF" d="M42.6 34.4s-5.8-3.3-5.7-8.8c.1-5.5 7.1-7.3 8-8 .9-.7 1.2-1 .4-2.1-.7-1.2-2.5-2.7-1-3.6 1.5-.9 4.4-.1 5 2.4.7 2.5 1 4.2-3.1 7s-7.5 5.3-3.5 8.2c0 0-.1-3.7 2.3-6.3s5.2-5 5.4-5.8c.1-.8-.5-7.1 4.1-7 0 0 1.3-4.1 1.8-3 .5 1.1.7 3 .7 3s1.5.2 1.8.8.4 1.2 1 1.6c.7.4 1.7.1 1.4 1.5 0 0 .3 2.1-1.9 2.5-2.2.4-3.3 1.1-3.3 2 .1.9.1 2.8.1 2.8s4 2.9 4 3.5.4 4.2-.4 4.4c-.8.1-2.2.1-2.3-1.1-.1-1.2.2-1.3.2-1.3l-1.8-1.2s-.4 3.5-2.1 5.1c0 0 1.8 3.1-.7 6.7l2 3.3s3.5-.6 3.3 2.2h-5l-5-5.1s-.4-1.8-.2-2.1-1.6 2.5-3 3.1c0 0 .8 2.2 1 2.4.1.2 2.5.2 2.5 1.8h-5.3s-.8-2.1-1.1-2.8c-.3-.7-.8-2.9-.7-3.6s1.1-2.5 1.1-2.5z"/>
      </g>

      <g id="sheep-avatar-20">
        <ellipse cx="51" cy="148.5" rx="28.2" ry="4.7" opacity=".2"/>
        <ellipse cx="31.7" cy="139.2" rx="4.2" ry="10.8"/>
        <ellipse cx="67.8" cy="139.2" rx="4.2" ry="10.8"/>
        <path fill="#FFFFFF" d="M99.9 102.4c0-10.6-8.4-19.2-18.9-19.5 0-10.8-8.7-19.5-19.5-19.5-4.3 0-8.3 1.4-11.5 3.8-3.2-2.4-7.2-3.8-11.5-3.8-10.8 0-19.5 8.7-19.5 19.5-10.4.4-18.8 9-18.8 19.5s8.4 19.1 18.8 19.5c0 10.8 8.7 19.5 19.5 19.5 4.3 0 8.3-1.4 11.5-3.8 3.2 2.4 7.2 3.8 11.5 3.8 10.8 0 19.5-8.7 19.5-19.5 10.5-.3 18.9-8.9 18.9-19.5z"/>
        <circle cx="50" cy="91.7" r="18.9"/>
        <ellipse cx="37.5" cy="76.2" rx="3.6" ry="5.7"/>
        <ellipse cx="62.4" cy="76.2" rx="3.6" ry="5.7"/>
        <circle fill="#FFFFFF" cx="42.3" cy="87.5" r="6.6"/>
        <ellipse cx="42.9" cy="87.9" rx="1.3" ry="2.8"/>
        <path fill="#FFFFFF" d="M61 92.3c-.2 0-.4-.1-.5-.3-2-4.2-9.6-3.5-9.7-3.5-.2 0-.4-.1-.5-.2s-.1-.4 0-.5c.1-.1.2-.3.3-.4-.2-.1-.2-.3-.2-.5.4-3 7.7-7.8 8.5-8.3.2-.2.5-.1.7.1.2.2.1.5-.1.7-1.8 1.2-6.2 4.4-7.6 6.6.9-.3 2-.6 2.6-.3.2.1.3.3.2.5s-.2.4-.4.4c-.4.1-1.4.4-2.1.8 2.5 0 7.6.5 9.3 4.1.1.2 0 .5-.2.7-.2 0-.3.1-.3.1zM53.8 105.1c-.3 0-.5-.2-.5-.4 0-.3.2-.5.4-.5s5.1-.6 6.8-5.5c.1-.3.4-.4.6-.3.3.1.4.4.3.6-1.8 5.4-7.3 6.1-7.6 6.1z"/>
        <path d="M75 25C75 11.2 63.8 0 50 0S25 11.2 25 25c0 6 2.1 11.5 5.7 15.9.8.9 1.6 1.8 2.5 2.7L50 61.1l16.8-17.6c.9-.8 1.8-1.7 2.5-2.7C72.9 36.5 75 31 75 25z" fill="#eb3465"/>
        <path fill="#FFFFFF" d="M58.7 43s-.1-3.7-2-5.9-1.7-1.8-1.2-2.2c0 0 1.4 1.5 2.9.3 1.5-1.1 1.3-4 0-4.2-1.3-.2-2.4 1-2.5.8s-.2-.2-.2-.2l-.4-1.4s-2.2-5.3-3.1-6.1c-.9-.8-1.2-1-1-1.4s1-.7.5-4.7c0 0-.6-1.1-.7-1.5s0-.7.1-.7 2.9-1.7 3.9-3.4c1-1.8 1-3.7.7-4.2s-1.6-.9-3.6 1.1c0 0 .5-2.3-.2-2.4-.7-.1-3 1.1-3.7 3.4s-.8 4.2-.8 4.2-2.7.7-3.8 2.3-1.8 2.8-2 2.9c-.3.1-1.1.7-.6 1.5s1.7 1.9 3.7 2.3c0 0-.6 1.2.9 1.4 0 0-1 1.6-1.2 3.9 0 0-2.7-.6-3.3.3-.6.9-.8 2.9-.2 3.6s1.6-.7 1.7-1.2c.1-.6.2-.8.2-.8s1 .6 1.5.6c0 0-1.3 3.3 1.3 6.3l.3.7-.1 1.6s-4.6.5-4 2.9l.2.2h6.1s.6-1.2.2-2.5c-.4-1.3-.4-1.6-.4-1.6s2.9.9 4.6-1.6c0 0 1.8 1.4 2 2.4 0 0-5 .3-3.6 3.3h7.8z"/>
      </g>

      <g id="sheep-avatar-21">
        <ellipse cx="51" cy="148.5" rx="28.2" ry="4.7" opacity=".2"/>
        <ellipse cx="31.7" cy="139.2" rx="4.2" ry="10.8"/>
        <ellipse cx="67.8" cy="139.2" rx="4.2" ry="10.8"/>
        <path fill="#FFFFFF" d="M99.9 102.4c0-10.6-8.4-19.2-18.9-19.5 0-10.8-8.7-19.5-19.5-19.5-4.3 0-8.3 1.4-11.5 3.8-3.2-2.4-7.2-3.8-11.5-3.8-10.8 0-19.5 8.7-19.5 19.5-10.4.4-18.8 9-18.8 19.5s8.4 19.1 18.8 19.5c0 10.8 8.7 19.5 19.5 19.5 4.3 0 8.3-1.4 11.5-3.8 3.2 2.4 7.2 3.8 11.5 3.8 10.8 0 19.5-8.7 19.5-19.5 10.5-.3 18.9-8.9 18.9-19.5z"/>
        <path d="M65 80.2c.6-1 1-2.4 1-4 0-3.2-1.6-5.7-3.6-5.7-1.7 0-3.2 1.9-3.5 4.5-2.6-1.4-5.7-2.2-8.9-2.2s-6.3.8-8.9 2.2c-.4-2.6-1.8-4.5-3.5-4.5-2 0-3.6 2.6-3.6 5.7 0 1.6.4 3 1 4-2.4 3.2-3.9 7.1-3.9 11.4 0 10.4 8.5 18.9 18.9 18.9s18.9-8.5 18.9-18.9c0-4.3-1.5-8.2-3.9-11.4z"/>
        <path fill="#FFFFFF" d="M46.7 82.5c-.8 3.2-3.3 7.2-10.4 7.6 1 2.3 3.3 3.9 6 3.9 3.6 0 6.6-3 6.6-6.6 0-1.9-.8-3.6-2.2-4.9zM53.3 82.8c-1.2 1.2-1.9 2.8-1.9 4.7 0 3.6 3 6.6 6.6 6.6 2.5 0 4.7-1.4 5.8-3.5-7.3-.4-9.7-4.6-10.5-7.8z"/>
        <ellipse cx="46.9" cy="87.9" rx="1.3" ry="2.8"/>
        <ellipse cx="53.3" cy="87.9" rx="1.3" ry="2.8"/>
          <path d="M75 25C75 11.2 63.8 0 50 0S25 11.2 25 25c0 6 2.1 11.5 5.7 15.9.8.9 1.6 1.8 2.5 2.7L50 61.1l16.8-17.6c.9-.8 1.8-1.7 2.5-2.7C72.9 36.5 75 31 75 25z" fill="#2b1752"/>
          <path fill="#FFFFFF" d="M64.2 30.1c.2 0 .3 0 .5-.1.7-.3 1-1 .8-1.7C63 22 63 22 62.7 21.7c-.3-.3-.6-.3-1.1-.3.2-.3.3-.8.2-1.2L60 14.9c-.1-.4-.4-.7-.8-.9-.4-.1-.8-.1-1.2.2-.6.4-1.2.8-1.7 1.2-.2.1-.5.5-.8.5-.2 0-.4-.3-.5-.4-1.1-1.8-2.8-3.3-5-3.3-1 0-1.9.3-2.7.8-.9.6-1.7 1.4-2.2 2.4-.2.3-.4.7-.8.5l-.9-.6c-.5-.3-.9-.6-1.4-.9-.4-.2-.8-.3-1.2-.2-.4.1-.7.5-.8.9l-1.6 5.3c-.1.4 0 .8.2 1.2-.5-.1-.8 0-1.1.3-.4.3-.4.3-2.8 6.6-.3.7.1 1.5.8 1.7.2.1.3.1.5.1.4 0 .7-.2 1-.4l-1.8 6.5c-.2.7.2 1.4.9 1.6h.3c.6 0 1.1-.4 1.3-1l.8-2.9v.2c.1.5.5.8.9 1l6.4 1.8c.7.2 1.4-.2 1.6-.9.2-.7-.2-1.4-.9-1.6-1.2-.4-2.5-.7-3.7-1.1-.5-.1-.2-.4.1-.6l1.2-1.2c.6-.6 1.2-1.1 1.7-1.7.1-.1.6-.7.8-.6.2.1.1.6.1.8 0 .3-.1.6-.1.9 0 .9.2 1.7.7 2.5.2.3.5.6.8.9.3.3.6.4.6.8s.1.7.3 1c.1.1.5.7.7.6.1-.1.1-.3.1-.4 0-.2 0-.4.1-.6.1-.2.3-.1.5-.1.3 0 .3.1.4.4 0 .2-.1.9.3.6.5-.3.8-1 .8-1.6 0-.2 0-.4.1-.5.1-.1.3-.2.5-.3.3-.3.6-.6.8-.9.5-.7.7-1.6.7-2.5 0-.3 0-.6-.1-.9 0-.2-.2-.7.1-.7.2 0 .4.2.5.3l.8.8c.6.6 1.2 1.2 1.9 1.8.2.2.9.7.8 1-.1.3-.8.3-1 .4-.4.1-.9.3-1.3.4-.5.2-1.1.3-1.6.5-.7.2-1.1.9-.9 1.6.2.7.9 1.1 1.6.9l6.4-1.8c.5-.1.8-.5.9-1v-.2l.8 2.9c.2.6.7 1 1.3 1h.3c.7-.2 1.1-.9.9-1.6l-1.8-6.5c-.2 0 .2.2.6.2zM58 17.6c.2.1.3.5.3.7.1.4.2.8.4 1.2.2.5.3 1 .5 1.6.1.3.3.5.5.7-.4.1-.8.1-1.3.2-.4.1-.8.2-1.2.2-.1 0-.4.1-.6 0-.2-.1-.1-.6-.1-.8 0-.5 0-1-.1-1.6 0-.3-.1-.5-.1-.8 0-.2-.1-.4 0-.5.1-.1.3-.2.5-.3.2-.1.4-.3.6-.4.1-.1.2-.2.3-.2.2-.1.2-.1.3 0zM40.9 21c.2-.5.3-1 .5-1.5.1-.4.2-.8.4-1.2.1-.2.1-.7.4-.8.2-.1.4.2.6.3.3.2.5.3.8.5.2.1.3.2.3.5s-.1.6-.1.9c-.1.5-.1 1-.1 1.6 0 .2 0 .5-.1.7-.1.3-.5.1-.7.1-.3-.1-.7-.1-1-.2-.5-.1-.9-.2-1.3-.2 0-.2.2-.4.3-.7zm-2.8 5.6l.6-1.5c.1-.3.2-.8.6-.9.3 0 .6.1.9.1.4.1.8.1 1.1.2.5.1 1 .2 1.4.3.2 0 .5.1.7.1.3 0 .4.2.5.4.1.2.3.5.2.7-.1.3-.6.2-.9.2h-1.3c-1.2 0-2.4.1-3.6.1.1.2 0 .2-.2.3zm.7 6.3l-.1.1c.1-.5.3-1.1.4-1.6.1-.4.2-.8.3-1.3.1-.3.1-.8.3-1 .1-.1.2 0 .4 0h.7c.2 0 1.6-.2 1.6.1 0 .1 0 .2-.1.2l-.2.2-.5.5c-.9.9-1.9 1.8-2.8 2.8zm22.4 0L57.3 29h1.3c.4 0 .8-.1 1.2 0 .2 0 .4.1.5.2.1.1.1.3.2.5.2.8.4 1.6.7 2.5.1.2.1.5.2.7-.1.1-.1 0-.2 0zm.2-6.4c-1.1 0-2.3-.1-3.4-.1h-1.4c-.3 0-.6.1-.8-.1-.2-.1-.1-.2 0-.4.1-.4.2-.7.6-.9.5-.2 1.1-.2 1.7-.3l1.5-.3c.3 0 .5-.1.8-.1.2 0 .5-.1.7 0 .2.1.2.4.3.5.2.6.5 1.2.7 1.7h-.7z"/>
        <path fill="#FFFFFF" d="M44.7 105.2h-.1c-.3-.1-.4-.3-.4-.6.2-.9 2.1-8.8 5.1-9.1 2.9-.3 6.1 7.2 6.7 8.6.1.3 0 .5-.3.7-.3.1-.5 0-.7-.3-1.3-3.2-4-8.2-5.7-8-1.7.2-3.5 5.2-4.2 8.3.1.3-.1.4-.4.4z"/>
      </g>

      <g id="sheep-avatar-22">
        <ellipse cx="51" cy="148.5" rx="28.2" ry="4.7" opacity=".2"/>
        <ellipse cx="31.7" cy="139.2" rx="4.2" ry="10.8"/>
        <ellipse cx="67.8" cy="139.2" rx="4.2" ry="10.8"/>
        <path fill="#FFFFFF" d="M99.9 102.4c0-10.6-8.4-19.2-18.9-19.5 0-10.8-8.7-19.5-19.5-19.5-4.3 0-8.3 1.4-11.5 3.8-3.2-2.4-7.2-3.8-11.5-3.8-10.8 0-19.5 8.7-19.5 19.5-10.4.4-18.8 9-18.8 19.5s8.4 19.1 18.8 19.5c0 10.8 8.7 19.5 19.5 19.5 4.3 0 8.3-1.4 11.5-3.8 3.2 2.4 7.2 3.8 11.5 3.8 10.8 0 19.5-8.7 19.5-19.5 10.5-.3 18.9-8.9 18.9-19.5z"/>
        <path d="M65 80.2c.6-1 1-2.4 1-4 0-3.2-1.6-5.7-3.6-5.7-1.7 0-3.2 1.9-3.5 4.5-2.6-1.4-5.7-2.2-8.9-2.2s-6.3.8-8.9 2.2c-.4-2.6-1.8-4.5-3.5-4.5-2 0-3.6 2.6-3.6 5.7 0 1.6.4 3 1 4-2.4 3.2-3.9 7.1-3.9 11.4 0 10.4 8.5 18.9 18.9 18.9s18.9-8.5 18.9-18.9c0-4.3-1.5-8.2-3.9-11.4z"/>
        <path d="M75 25C75 11.2 63.8 0 50 0S25 11.2 25 25c0 6 2.1 11.5 5.7 15.9.8.9 1.6 1.8 2.5 2.7L50 61.1l16.8-17.6c.9-.8 1.8-1.7 2.5-2.7C72.9 36.5 75 31 75 25z" fill="#3c58ac"/>
        <path fill="#FFFFFF" d="M66 13.6c-.2-.6-3.9-1-8.5 2s-6.9 7.2-6.9 7.2c0-2.2-.7-1.9-.7-1.9h.1s-.7-.3-.7 1.9c0 0-2.3-4.2-6.9-7.2-4.6-3-8.3-2.6-8.5-2-.2.6.1 4.3 2.3 8.5 2.2 4.1 6 4.9 6 4.9s-3.9.4-3.9 2.2c0 1.8 1.4 4.4 2.6 5.2 0 0 .2.7 0 1-.2.4.9 1.4 2.5 1.2 1.6-.3 2.6-2 3.3-3.5.7-1.4 2.2-3.4 2.2-3.4s.4 3.1 1.1 3.3c.7-.2 1.1-3.3 1.1-3.3s1.4 2 2.2 3.4c.7 1.4 1.6 3.2 3.3 3.5 1.6.3 2.7-.8 2.5-1.2-.2-.4 0-1 0-1 1.1-.9 2.6-3.5 2.6-5.2 0-1.8-3.9-2.2-3.9-2.2s3.7-.8 6-4.9c2.2-4.1 2.4-7.9 2.2-8.5zM46.3 89.4h-9.4c-.3 0-.5-.2-.5-.5s.2-.5.5-.5h9.4c.3 0 .5.2.5.5s-.2.5-.5.5zM63.1 89.4h-9.4c-.3 0-.5-.2-.5-.5s.2-.5.5-.5h9.4c.3 0 .5.2.5.5s-.2.5-.5.5zM53.1 100.6h-6.4c-.3 0-.5-.2-.5-.5s.2-.5.5-.5h6.4c.3 0 .5.2.5.5s-.3.5-.5.5z"/>
      </g>

      <g id="sheep-avatar-23">
        <ellipse cx="51" cy="148.5" rx="28.2" ry="4.7" opacity=".2"/>
        <ellipse cx="31.7" cy="139.2" rx="4.2" ry="10.8"/>
        <ellipse cx="67.8" cy="139.2" rx="4.2" ry="10.8"/>
        <path fill="#FFFFFF" d="M99.9 102.4c0-10.6-8.4-19.2-18.9-19.5 0-10.8-8.7-19.5-19.5-19.5-4.3 0-8.3 1.4-11.5 3.8-3.2-2.4-7.2-3.8-11.5-3.8-10.8 0-19.5 8.7-19.5 19.5-10.4.4-18.8 9-18.8 19.5s8.4 19.1 18.8 19.5c0 10.8 8.7 19.5 19.5 19.5 4.3 0 8.3-1.4 11.5-3.8 3.2 2.4 7.2 3.8 11.5 3.8 10.8 0 19.5-8.7 19.5-19.5 10.5-.3 18.9-8.9 18.9-19.5z"/>
        <path d="M65 80.2c.6-1 1-2.4 1-4 0-3.2-1.6-5.7-3.6-5.7-1.7 0-3.2 1.9-3.5 4.5-2.6-1.4-5.7-2.2-8.9-2.2s-6.3.8-8.9 2.2c-.4-2.6-1.8-4.5-3.5-4.5-2 0-3.6 2.6-3.6 5.7 0 1.6.4 3 1 4-2.4 3.2-3.9 7.1-3.9 11.4 0 10.4 8.5 18.9 18.9 18.9s18.9-8.5 18.9-18.9c0-4.3-1.5-8.2-3.9-11.4z"/>
        <path d="M75 25C75 11.2 63.8 0 50 0S25 11.2 25 25c0 6 2.1 11.5 5.7 15.9.8.9 1.6 1.8 2.5 2.7L50 61.1l16.8-17.6c.9-.8 1.8-1.7 2.5-2.7C72.9 36.5 75 31 75 25z" fill="#bdb74c"/>
        <path fill="#FFFFFF" d="M43.3 41.2h14.6s-.7-2.5-4-2.3c0 0 .8-2.9-2.2-4.2 0 0 1.9-3.1 2.8-7.7 0 0 1.2.2 1.6 1.6s.4 2 1.3 1.9 1.9-4.7-.5-6.7c0 0 .6-.6.8-2.8l-.3-1.8s.9-2.7.9-3.6c0 0 3.1.3 4.1-.3s.3-1.3 0-1.4-1.5-4.9-5.7-4.5c0 0-1.7-1.6-2.2-.4l-.5 1.2s-1.5.9-1.9 3.3-.4 6.1-3.5 9.5c-3.1 3.4-5.8 7.3-4.5 16.2 0 0-6.7-5.3-6.8-4.2s2.9 5.2 6 6.2zM36.3 97.6c-.2 0-.3-.1-.4-.2-.1-.2-.1-.5.2-.7l10-6.2-10.2-6.7c-.2-.2-.3-.5-.1-.7.2-.2.5-.3.7-.1l10.8 7.1c.1.1.2.3.2.4 0 .2-.1.3-.2.4l-10.7 6.6c-.1.1-.2.1-.3.1zM63.9 98.2c-.1 0-.2 0-.2-.1L50 90.8c-.1-.1-.2-.2-.3-.4 0-.2 0-.3.2-.4l9.8-8.3c.2-.2.5-.2.7.1.2.2.2.5-.1.7l-9.2 7.8 13 7c.2.1.3.4.2.7 0 .1-.2.2-.4.2zM45.8 103.6s2.4-10.7 9.9-1.8l-9.9 1.8z"/>
      </g>

      <g id="sheep-avatar-24">
        <ellipse cx="51" cy="148.5" rx="28.2" ry="4.7" opacity=".2"/>
        <ellipse cx="31.7" cy="139.2" rx="4.2" ry="10.8"/>
        <ellipse cx="67.8" cy="139.2" rx="4.2" ry="10.8"/>
        <path fill="#FFFFFF" d="M99.9 102.4c0-10.6-8.4-19.2-18.9-19.5 0-10.8-8.7-19.5-19.5-19.5-4.3 0-8.3 1.4-11.5 3.8-3.2-2.4-7.2-3.8-11.5-3.8-10.8 0-19.5 8.7-19.5 19.5-10.4.4-18.8 9-18.8 19.5s8.4 19.1 18.8 19.5c0 10.8 8.7 19.5 19.5 19.5 4.3 0 8.3-1.4 11.5-3.8 3.2 2.4 7.2 3.8 11.5 3.8 10.8 0 19.5-8.7 19.5-19.5 10.5-.3 18.9-8.9 18.9-19.5z"/>
        <path d="M65 80.2c.6-1 1-2.4 1-4 0-3.2-1.6-5.7-3.6-5.7-1.7 0-3.2 1.9-3.5 4.5-2.6-1.4-5.7-2.2-8.9-2.2s-6.3.8-8.9 2.2c-.4-2.6-1.8-4.5-3.5-4.5-2 0-3.6 2.6-3.6 5.7 0 1.6.4 3 1 4-2.4 3.2-3.9 7.1-3.9 11.4 0 10.4 8.5 18.9 18.9 18.9s18.9-8.5 18.9-18.9c0-4.3-1.5-8.2-3.9-11.4z"/>
        <path fill="#FFFFFF" d="M45.2 81.5v.3c0 1.5-1.2 2.8-2.8 2.8-1.5 0-2.8-1.2-2.8-2.8v-.5c-2.4 1-4 3.3-4 6.1 0 3.6 3 6.6 6.6 6.6s6.6-3 6.6-6.6c.1-2.5-1.4-4.8-3.6-5.9zM59.8 81.1c.1.2.1.5.1.7 0 1.5-1.2 2.8-2.7 2.8s-2.7-1.2-2.7-2.8v-.1c-1.9 1.2-3.2 3.3-3.2 5.7 0 3.6 3 6.6 6.6 6.6 3.6 0 6.6-3 6.6-6.6.1-2.9-1.9-5.5-4.7-6.3z"/>
        <path d="M75 25C75 11.2 63.8 0 50 0S25 11.2 25 25c0 6 2.1 11.5 5.7 15.9.8.9 1.6 1.8 2.5 2.7L50 61.1l16.8-17.6c.9-.8 1.8-1.7 2.5-2.7C72.9 36.5 75 31 75 25z" fill="#dd9fbd"/>
        <path fill="#FFFFFF" d="M50.9 43H53s.4-1.4.8-1.2c.4.2 1.1 1.2 1.1 1.2h2.3s-3.1-4.7-5.8-6.6c0 0 3.2-6.1 3.9-10.7 0 0 2 1.4 2.4 1.2s1-.5.7-1.2l-.3-.7s1-.1 1.8 0 1.3 0 .5-.9-2.2-3.6-4.6-2c0 0-.1-2.8 0-3.3s-.4-1.1 3.5-3.2 3.6-1.5 3.9-2 .3-2.9 0-2.9h-1.3s-1.4-.1-2.3-.8c-1-.7-4.7-1.7-6.2-.9-1.5.7-.4-1.4-.4-1.4s.4-.8 0-.7c-.4.2-3.5.7-3.4 4.4 0 0-.2.6-1 1s-7.3 2.9-9.5 9.4-.2 11-.9 11.9c-.7.9-1.8.4-1.6.7s1.3 1.8 3.6.4c0 0 1.5 2.5 1.5 5.1 0 2.6-.3 3-.3 3h3.2l.3-1.7 1.7 1.7h2.2L46.2 39s3.9-.4 4.7 4z"/>
        <path fill="#FFFFFF" d="M47.2 102.6h7.1v1h-7.1z"/>
      </g>
  </defs>
</svg>


